<?xml version="1.0" encoding="UTF-8"?>
<svg width="224px" height="224px" viewBox="0 0 224 224" version="1.1" xmlns="http://www.w3.org/2000/svg" xmlns:xlink="http://www.w3.org/1999/xlink">
    <title>Group 49</title>
    <defs>
        <path d="M0.980086957,109.602493 C0.980086957,170.110585 50.0314106,219.161908 110.539502,219.161908 L110.539502,219.161908 C171.047594,219.161908 220.099986,170.110585 220.099986,109.602493 L220.099986,109.602493 C220.099986,49.094401 171.047594,0.0420096618 110.539502,0.0420096618 L110.539502,0.0420096618 C50.0314106,0.0420096618 0.980086957,49.094401 0.980086957,109.602493 L0.980086957,109.602493 Z" id="path-1"></path>
        <path d="M0.980086957,109.602493 C0.980086957,170.110585 50.0314106,219.161908 110.539502,219.161908 L110.539502,219.161908 C171.047594,219.161908 220.099986,170.110585 220.099986,109.602493 L220.099986,109.602493 C220.099986,49.094401 171.047594,0.0420096618 110.539502,0.0420096618 L110.539502,0.0420096618 C50.0314106,0.0420096618 0.980086957,49.094401 0.980086957,109.602493 L0.980086957,109.602493 Z" id="path-3"></path>
        <path d="M0.980086957,109.602493 C0.980086957,170.110585 50.0314106,219.161908 110.539502,219.161908 L110.539502,219.161908 C171.047594,219.161908 220.099986,170.110585 220.099986,109.602493 L220.099986,109.602493 C220.099986,49.094401 171.047594,0.0420096618 110.539502,0.0420096618 L110.539502,0.0420096618 C50.0314106,0.0420096618 0.980086957,49.094401 0.980086957,109.602493 L0.980086957,109.602493 Z" id="path-5"></path>
        <path d="M0.980086957,109.602493 C0.980086957,170.110585 50.0314106,219.161908 110.539502,219.161908 L110.539502,219.161908 C171.047594,219.161908 220.099986,170.110585 220.099986,109.602493 L220.099986,109.602493 C220.099986,49.094401 171.047594,0.0420096618 110.539502,0.0420096618 L110.539502,0.0420096618 C50.0314106,0.0420096618 0.980086957,49.094401 0.980086957,109.602493 L0.980086957,109.602493 Z" id="path-7"></path>
        <path d="M0,109.560483 C0,170.068575 49.0513237,219.119899 109.559415,219.119899 L109.559415,219.119899 C170.067507,219.119899 219.119899,170.068575 219.119899,109.560483 L219.119899,109.560483 C219.119899,49.0523913 170.067507,0 109.559415,0 L109.559415,0 C49.0513237,0 0,49.0523913 0,109.560483" id="path-9"></path>
    </defs>
    <g id="Page-1" stroke="none" stroke-width="1" fill="none" fill-rule="evenodd">
        <g id="ORGANISER-UNE-COLLECTE" transform="translate(-1296.000000, -1856.000000)">
            <g id="Group-48" transform="translate(1299.000000, 1857.000000)">
                <path d="M220,109.499466 C220,169.975516 170.975516,219 110.499466,219 C50.0244837,219 1,169.975516 1,109.499466 C1,49.0244837 50.0244837,0 110.499466,0 C170.975516,0 220,49.0244837 220,109.499466" id="Fill-1" fill="#FFFFFF"></path>
                <g id="Group-45">
                    <g id="Group-5">
                        <mask id="mask-2" fill="white">
                            <use xlink:href="#path-1"></use>
                        </mask>
                        <g id="Clip-4"></g>
                        <path d="M199.844001,59.0549884 C199.844001,59.0549884 186.845571,63.141887 182.202436,61.6867034 C177.557165,60.2304522 168.524991,57.142858 165.887938,57.2731092 C152.857479,55.79337 127.89302,62.897399 127.89302,62.897399 L112.579962,66.212399 C112.07604,71.8420271 117.517764,75.3758918 123.063049,74.2858386 L146.038508,72.0192541 L95.2106435,95.0256744 C89.2415082,97.7054329 92.4646918,105.562143 98.1487691,103.783467 L138.759387,88.9860754 L94.6875034,107.829795 C88.0543005,110.115597 90.1949043,119.471264 96.9402087,116.680471 L143.143088,102.486293 L104.740334,116.314273 C100.555214,117.652017 102.785499,125.680616 108.417262,124.190201 L150.822571,113.239491 L124.437093,125.703037 C119.935953,128.771414 124.463784,133.9505 128.45246,131.917728 L175.143247,111.283587 L232.675846,84.715544 L208.33702,56.447829 L199.844001,59.0549884 Z" id="Fill-3" fill="#F6C8A3" mask="url(#mask-2)"></path>
                    </g>
                    <g id="Group-8">
                        <mask id="mask-4" fill="white">
                            <use xlink:href="#path-3"></use>
                        </mask>
                        <g id="Clip-7"></g>
                        <polygon id="Fill-6" fill="#FFA2AB" mask="url(#mask-4)" points="72.5371111 98.6481527 143.464232 76.4905005 156.135966 126.219771 87.6248986 153.520211"></polygon>
                    </g>
                    <g id="Group-11">
                        <mask id="mask-6" fill="white">
                            <use xlink:href="#path-5"></use>
                        </mask>
                        <g id="Clip-10"></g>
                        <polygon id="Fill-9" fill="#9E223E" mask="url(#mask-6)" points="48.404872 88.9664309 72.5376449 98.6477256 87.6243647 153.520851 62.400471 141.098943"></polygon>
                    </g>
                    <g id="Group-14">
                        <mask id="mask-8" fill="white">
                            <use xlink:href="#path-7"></use>
                        </mask>
                        <g id="Clip-13"></g>
                        <polygon id="Fill-12" fill="#E8364B" mask="url(#mask-8)" points="48.404872 88.9664309 125.050234 67.5230251 143.463698 76.4900734 72.5376449 98.6477256"></polygon>
                    </g>
                    <g id="Group-17" transform="translate(0.980087, 0.042010)">
                        <mask id="mask-10" fill="white">
                            <use xlink:href="#path-9"></use>
                        </mask>
                        <g id="Clip-16"></g>
                    </g>
                    <g id="Group-26" transform="translate(118.535570, 102.964395)" fill="#FFFFFF">
                        <path d="M7.46443019,8.75527977 C7.90682651,8.779011 8.35914838,8.84278866 8.8057985,8.90656632 C9.13050605,8.95254557 9.43536249,8.99555841 9.73880098,9.02522244 C9.87208705,9.03708805 10.0110449,9.04450406 10.1103005,9.00149122 C10.2676914,8.93178075 10.3612753,8.72561574 10.4690385,8.48830351 C10.5129945,8.39041222 10.5612044,8.28807132 10.615086,8.18869682 C11.0064366,7.48120973 11.8203324,7.0481149 12.7916191,7.02735008 C13.4070037,7.01400127 14.0053731,7.15490541 14.5824734,7.28987674 C14.7512079,7.32992318 14.9171065,7.36700321 15.0844231,7.40408325 C15.3538311,7.4604449 15.6360006,7.50939055 15.9068265,7.556853 C16.682438,7.69182433 17.4835723,7.83272847 18.2237354,8.18424721 C18.6632958,8.39486182 19.0787514,8.6811197 19.4644302,9.03560485 C19.4630123,9.03263845 19.4601764,9.02818884 19.4573405,9.02522244 C18.5895631,7.77191721 17.2340154,6.81673547 15.6374185,6.334695 C13.9982834,5.83930572 12.3719098,5.96389464 11.1751711,6.67434813 C10.8447918,6.87013073 10.5413533,7.11189256 10.2194816,7.36552001 C9.82104132,7.67847552 9.40842168,8.00477984 8.93908457,8.24060887 C8.50803175,8.45715628 8.05145607,8.58767801 7.61047769,8.71375013 C7.55943196,8.72709895 7.51122211,8.74044776 7.46443019,8.75527977 M3.73793019,9.48075575 C3.75293019,9.50575575 3.77293019,9.52875575 3.79393019,9.54475575 C3.89593019,9.62375575 4.06693019,9.58975575 4.19093019,9.52275575 C4.03893019,9.53275575 3.88393019,9.51875575 3.73793019,9.48075575 M1.89254646,18.2351048 L1.89054646,18.2351048 C1.84154646,18.2851048 1.86354646,18.4351048 1.87154646,18.4911048 C1.88654646,18.6061048 1.90354646,18.7211048 1.92154646,18.8361048 C1.99054646,18.7201048 2.05054646,18.6101048 2.06754646,18.4951048 C2.07754646,18.4321048 2.04154646,18.3461048 1.97954646,18.2861048 C1.93854646,18.2451048 1.90454646,18.2351048 1.89254646,18.2351048 M14.4644302,17.426839 C14.6934927,17.5604056 14.9017314,17.7015612 15.0831966,17.8366456 C15.3896049,18.064316 15.6841139,18.3193068 15.9696984,18.5667086 C16.7029961,19.20115 17.394646,19.8006819 18.2573491,19.9828182 C19.1289767,20.1679901 20.1374469,19.8583584 20.8841314,19.1738295 C21.7349351,18.3967147 22.1157144,17.3372886 22.2867676,16.5859764 C22.6035879,15.1895982 22.4950063,13.6217084 21.9744096,12.0356048 C21.9461486,12.3695214 21.8911141,12.6988845 21.8078187,13.0191408 C21.3154829,14.8693419 19.8176518,16.335539 18.0773714,16.6724912 C17.6683311,16.7514169 17.256316,16.7711483 16.8562002,16.789362 C16.3519651,16.812129 15.8745036,16.834896 15.4208407,16.9684626 C15.0831966,17.0701554 14.7663763,17.2310425 14.4644302,17.426839 M11.6388822,18.0367816 C11.5439743,18.0342674 11.44756,18.0355245 11.3511456,18.0430672 C10.5421689,18.0971235 9.62171302,18.5899151 9.4876368,19.3190456 C9.45449436,19.4925283 9.46353321,19.6735538 9.47407853,19.8671506 C9.47709148,19.9224639 9.48010443,19.9790344 9.4816109,20.0356048 C10.2363546,19.6484114 11.006163,19.1757337 11.8076074,18.6138004 L12.0275526,18.4566602 C12.1721742,18.3548334 12.3167957,18.2517494 12.4644302,18.1511797 C12.2007972,18.0845522 11.9251124,18.0430672 11.6388822,18.0367816 M4.46443019,21.5866564 C5.16683889,21.6206564 5.84127557,21.5886564 6.46443019,21.5216564 C6.38051411,21.5156564 6.29815203,21.5076564 6.22045195,21.4986564 C6.15362988,21.4926564 6.08680781,21.4856564 6.02153975,21.4806564 C5.56155529,21.4466564 5.08603081,21.5066564 4.58408831,21.5726564 C4.54213027,21.5776564 4.50328023,21.5816564 4.46443019,21.5866564 M3.91616653,22.0326203 C3.39915287,22.0210041 2.89356493,21.9542109 2.40654377,21.8380489 C1.64530543,21.6550937 1.07973247,21.3661406 0.674119545,20.9566695 C0.211378037,20.4905693 -0.01142343,19.8618424 0.0657001547,19.2868403 C-0.0556980804,18.8381645 -0.119967734,18.3793245 -0.182809174,17.9306486 C-0.208517035,17.7433373 -0.264217402,17.3541945 -0.0128516445,17.0855699 C0.174244459,16.8851904 0.449889864,16.8401776 0.708396694,16.9679558 C1.0140346,17.1204185 1.29253644,17.5269856 1.229695,17.9437168 C1.18399213,18.2471901 1.04117068,18.4925824 0.901205655,18.7292626 C0.809799925,18.8831773 0.725535268,19.0254757 0.676975974,19.1721303 C0.666978472,19.1997188 0.6598374,19.2287593 0.652696327,19.2548957 C0.698399192,19.4117145 0.752671344,19.5627251 0.818369213,19.7108317 C1.08687354,20.3163263 1.52105076,20.754838 2.00950013,20.9102047 C2.50080593,21.0670234 3.03352995,20.9581215 3.5991029,20.8434115 C4.08469585,20.7461258 4.58885558,20.643032 5.10015638,20.7040171 C5.16871067,20.7127292 5.23726497,20.7243454 5.30581927,20.7359616 C5.49862823,20.7664542 5.68143969,20.7954947 5.82140472,20.7461258 C5.86567937,20.7287015 5.91138223,20.702565 5.95565688,20.6706205 C5.98564939,20.5138017 6.08133976,20.3744073 6.22844586,20.2800257 C6.36412624,20.1943562 6.5369402,20.1507954 6.71261058,20.1493434 C6.79544703,20.126111 6.87971168,20.1144948 6.96540456,20.1144948 C6.96540456,20.1144948 7.00967921,20.1057826 7.03253064,20.1043306 C7.13107744,20.0970705 7.22962424,20.1217549 7.3138889,20.1725758 C7.35102248,20.184192 7.38529963,20.1987122 7.41957678,20.2146845 C7.56811109,20.1536994 7.73521219,20.1464393 7.8837465,20.184192 C8.02799617,20.2204926 8.14225333,20.29745 8.2179487,20.3976397 C8.36933944,20.3221344 8.52073018,20.240821 8.67212092,20.1551515 C8.68497485,19.9925246 8.67783378,19.8211856 8.67069271,19.6425865 C8.6606952,19.4015503 8.65212592,19.1503499 8.69068771,18.8947935 C8.84636309,17.8696636 9.8304029,17.0260368 10.9772592,16.9316552 C11.5642553,16.8837383 12.121259,17.0100645 12.6154212,17.2133481 C13.0281752,16.9142309 13.4709217,16.6572224 13.9693686,16.5105678 C14.4706719,16.3624612 14.9848291,16.3392288 15.483276,16.3159964 C15.8617529,16.2985721 16.2216629,16.2811478 16.5744319,16.2143546 C18.0340672,15.9326617 19.2937524,14.6969881 19.7093628,13.1375129 C19.9078846,12.3868158 19.9178821,11.5794897 19.750781,10.7910399 C19.1195102,9.64539189 18.2840047,8.7988611 17.3285292,8.35599337 C16.6501273,8.04380791 15.916025,7.92038576 15.1376481,7.78679942 C14.8577181,7.74033461 14.5706469,7.69096575 14.2878605,7.63288474 C14.1164747,7.59803613 13.945089,7.55883144 13.772275,7.51962676 C13.1981328,7.38894447 12.6554112,7.26697434 12.1041204,7.2756865 C11.5042703,7.2873027 10.7416038,7.51672271 10.3945476,8.12366931 C10.3517012,8.19917463 10.3117112,8.28484412 10.2688648,8.3748697 C10.130328,8.6725349 9.97179614,9.00940478 9.6133143,9.16331947 C9.39336926,9.25915314 9.16342672,9.24753694 8.9649049,9.22866061 C8.64784127,9.20107213 8.31935193,9.15315529 8.0022883,9.10959453 C6.8025881,8.94406364 5.56289789,8.77272465 4.67740488,9.45227252 C4.58599915,9.52342176 4.49744985,9.60328315 4.4046159,9.68750063 C4.25036873,9.82834709 4.0904087,9.97354962 3.89902796,10.0897117 C3.57196683,10.2857351 3.05495317,10.4033491 2.6650506,10.0940677 C2.45081842,9.92418076 2.34941519,9.67733645 2.28514554,9.479861 C2.2422991,9.35643884 2.20945017,9.23011264 2.18231409,9.10378643 C2.0851955,8.99488453 2.00521549,8.86710629 1.94665869,8.72045173 C1.67386972,8.02347956 2.04092085,7.38894447 2.44939021,6.82120256 C2.45224664,6.81394243 2.45510307,6.8066823 2.45795949,6.8008742 C2.51223165,6.68906825 2.57221666,6.57435825 2.63362988,6.45819622 C2.89213671,5.96595962 3.13778961,5.50276353 2.94069601,5.13975719 C2.87356992,5.01778705 2.75217169,4.9117892 2.62506059,4.79853122 C2.59078345,4.76949072 2.55507808,4.73899818 2.52222915,4.70850565 C2.01378478,4.24240551 1.7995526,3.65869131 1.59246149,3.09240142 C1.45820932,2.725039 1.3282418,2.37074482 1.12257891,2.07453164 C1.07830426,2.22699431 1.03402961,2.40704545 0.996896029,2.54789191 C0.839792431,3.17516687 0.731248126,3.56866574 0.557005953,3.74871689 C0.44560522,3.86342689 0.264221975,3.86342689 0.151393027,3.75162094 C0.0399922931,3.63691093 0.0385640786,3.45540776 0.148536598,3.34069776 C0.232801255,3.23615193 0.365625206,2.71632685 0.444177005,2.40559342 C0.626988465,1.67377264 0.712681337,1.37320339 0.964047095,1.2991501 C1.07830426,1.26720554 1.19827428,1.29769807 1.28682358,1.38481959 C1.73385473,1.8146191 1.93523298,2.36203266 2.12804194,2.8905699 C2.31942268,3.411847 2.50080593,3.90553563 2.90356243,4.27580209 C2.93641136,4.30339058 2.96783208,4.33243108 2.9992528,4.36147159 C3.14350247,4.48634577 3.30631893,4.63009628 3.4220043,4.82611971 C3.52626396,3.86778297 3.1263639,2.89202192 2.49223664,1.80445492 C2.18231409,1.27446567 1.86810689,0.785133119 1.39822431,0.626862354 C0.998324244,0.491823995 0.389904853,1.85091974 0.188526604,2.29814355 C0.11140302,2.46657849 0.0514180094,2.60016482 0.0014305008,2.69454647 C-0.0742648694,2.83539293 -0.248507042,2.88766585 -0.385615637,2.80925648 C-0.525580661,2.73229913 -0.57556817,2.55660406 -0.501301014,2.4157576 C-0.458454578,2.33880026 -0.399897782,2.20666595 -0.331343485,2.05565531 C0.0514180094,1.20476845 0.694114548,-0.219668433 1.57675113,0.0750927157 C2.28943018,0.313224875 2.70789704,1.03342946 2.98354244,1.50824175 C3.89759974,3.07497712 4.571717,4.77239477 3.34773715,6.55983799 C3.26632892,6.67890407 3.17777962,6.79942218 3.08637389,6.92284433 C3.03781459,6.98818547 2.9892553,7.05352662 2.94355244,7.11886776 C2.70646882,7.64304891 2.62648881,8.23547526 2.70932525,8.80321718 C2.99353994,9.01956896 3.44342752,9.07474592 3.81190687,8.9818163 C4.17610158,8.89324275 4.51458842,8.70883553 4.87164205,8.51281211 C5.08587423,8.3981021 5.30439106,8.277584 5.53433359,8.17594222 C5.92280795,8.00460323 6.32984909,7.89279728 6.72260808,7.78389537 C7.16392637,7.66337727 7.5795368,7.54866726 7.96515473,7.35845194 C8.38647801,7.15226434 8.76067022,6.86476332 9.15628565,6.56129002 C9.48191856,6.31154165 9.81612076,6.05598519 10.1831719,5.84398949 C11.5414039,5.05989579 13.2938231,4.92340541 15.1176531,5.45775074 C16.8472209,5.96595962 18.3211383,6.9780213 19.2694727,8.30807653 C19.7650632,9.0050487 20.1092629,9.7833343 20.2906461,10.5834003 C20.4948808,10.9594748 20.6762641,11.3660419 20.8347959,11.7972935 C21.4789206,13.5411759 21.6331678,15.2821544 21.2775424,16.8329174 C21.0975873,17.6344354 20.6834051,18.7655632 19.7564939,19.610642 C18.9067063,20.3860235 17.7498525,20.7345096 16.7358202,20.5210619 C15.7660625,20.3163263 15.0148217,19.668723 14.2864322,19.041448 C14.0193561,18.812028 13.7451389,18.5753479 13.4680653,18.3677083 C13.2481203,18.2050814 12.9853288,18.0322904 12.6896884,17.8841838 C12.4668869,18.0598789 12.2497983,18.2471901 12.0355661,18.4330494 L11.8227622,18.6160046 C10.9158459,19.3913861 10.0432069,20.0259212 9.18913458,20.52687 C9.0534542,21.0321748 8.66926449,21.4953709 8.12797118,21.4823027 L8.12225833,21.4823027 L8.12225833,21.4852067 C8.10369154,21.5636161 8.05513224,21.6289572 7.98800616,21.6696139 C7.91945186,21.7102706 7.83947185,21.7218868 7.76520469,21.6986544 C7.59667538,21.6507376 7.44099999,21.5534519 7.31674533,21.4285777 C6.16703263,21.8598293 5.01589172,22.0631128 3.91616653,22.0326203" id="Fill-24"></path>
                    </g>
                    <g id="Group-29" transform="translate(89.830182, 101.890713)" fill="#FFFFFF">
                        <path d="M30.2853909,5.60213522 C31.3099818,8.21571024 29.9250475,8.29675132 29.9250475,8.29675132 L6.12935869,16.794488 C6.12935869,16.794488 0.864582434,18.5875221 0.114952391,14.073823 C-0.634677653,9.56301829 2.52737185,8.68169648 2.52737185,8.68169648 C2.52737185,8.68169648 24.8252477,0.289602615 26.5705254,0.0450321954 C28.3143559,-0.198091062 28.2448921,0.622449932 28.2448921,0.622449932 C28.2448921,0.622449932 28.5994469,1.48351147 29.0118881,2.49363072 L30.2853909,5.60213522 Z" id="Fill-27"></path>
                    </g>
                    <g id="Group-32" transform="translate(89.821257, 102.543408)" fill="#E8364B">
                        <path d="M0,12.3703429 L0.0260489204,11.4050857 C1.05932276,10.1938109 2.23586567,9.30814757 3.72644278,8.74809578 C5.28069504,8.16488939 6.82192283,7.57010571 8.31105278,6.99413514 C13.4050639,5.02599448 18.8492883,2.97247125 24.5091398,1.39940589 C25.3383638,1.16930709 26.142986,0.836459778 26.9215593,0.51518976 C27.3397892,0.34153029 27.7710435,0.163529334 28.2080865,0 L28.4106892,0.542685842 C27.9837764,0.701873689 27.5554163,0.879874646 27.1415279,1.05063979 C26.348483,1.37769846 25.527942,1.71778159 24.6639862,1.95801052 C19.0287364,3.52384007 13.5989836,5.57157465 8.5208913,7.53392665 C7.02886703,8.11134439 5.48763924,8.70612807 3.93049266,9.29078162 C2.53687542,9.81320719 0.986964652,11.2155074 0,12.3703429" id="Fill-30"></path>
                    </g>
                    <g id="Group-35" transform="translate(89.992746, 104.217920)" fill="#E8364B">
                        <path d="M0.224310148,12.7379221 L0,11.9940807 C1.08247736,10.7278137 3.06074815,9.64099488 4.50212175,9.0997562 C5.24451598,8.82190105 5.98691021,8.58601361 6.70759701,8.35880913 C7.48182881,8.11279155 8.28066237,7.85953816 9.06791863,7.55563409 C10.7596513,6.90151675 12.4730914,6.1866186 14.1300922,5.49342789 C17.7089244,3.99850929 21.4107654,2.45294001 25.1849646,1.40230022 C25.9620907,1.18667304 26.6379155,0.888557619 27.3542608,0.575970574 C27.7956453,0.382050833 28.2515014,0.182342443 28.739195,0 L28.9432449,0.54123868 C28.4700229,0.719239636 28.0214026,0.916053702 27.5858067,1.10707912 C26.883933,1.41532468 26.1574576,1.73370037 25.3398109,1.96090484 C21.6003437,2.99996734 17.9173158,4.53974797 14.3544023,6.02743075 C12.6930601,6.72206863 10.9767256,7.43986111 9.27775716,8.0954256 C8.47313495,8.40656549 7.66561842,8.6627132 6.8841508,8.91017795 C6.16925265,9.13593526 5.43409423,9.37037554 4.70617162,9.64244205 C3.35741641,10.1489488 1.2344294,11.5555905 0.224310148,12.7379221" id="Fill-33"></path>
                    </g>
                    <g id="Group-38" transform="translate(90.583333, 105.899233)" fill="#E8364B">
                        <path d="M0.409546916,12.2140494 L0,11.7408273 C0.88276897,10.7075535 2.46451731,10.4962678 3.90010225,10.0042326 C4.22281943,9.89280111 4.52817067,9.78860543 4.79300136,9.68875124 C5.58894059,9.38918865 6.51946592,8.98253606 7.41670651,8.58746077 C8.23290602,8.23001169 9.07660161,7.85953816 9.8088657,7.57734152 C11.4875739,6.92901283 13.1315502,6.24305793 14.7190872,5.58025762 C18.2776592,4.09691632 21.6379699,2.69606326 25.4251935,1.64252915 C26.1053598,1.4529509 26.6639644,1.13168088 27.2544066,0.788703424 C27.7392059,0.507953948 28.2399241,0.217074337 28.8245776,0 L29.0257332,0.542685842 C28.488836,0.742394232 28.0083781,1.02169655 27.543839,1.28942156 C26.9476082,1.63529334 26.3311171,1.99274241 25.581487,2.20113378 C21.8289953,3.24453776 18.4831562,4.63960216 14.9419502,6.11570765 C13.3500717,6.77850796 11.7046482,7.46591003 10.0187042,8.11713304 C9.29801743,8.39498819 8.45866333,8.7625674 7.64969963,9.11856931 C6.74377607,9.51653893 5.80746209,9.92608585 4.99705124,10.2314371 C4.72353757,10.3327384 4.41529201,10.4383813 4.08823335,10.5527071 C2.71921786,11.0215877 1.18956737,11.30089 0.409546916,12.2140494" id="Fill-36"></path>
                    </g>
                    <g id="Group-41" transform="translate(91.962479, 108.162595)" fill="#E8364B">
                        <path d="M1.14325817,10.8595055 L0.710556663,10.756757 L0,10.5396826 L0.00144716225,10.5396826 C0.675824769,10.5584957 2.43123257,9.83636179 3.84221576,9.25749689 C4.64828513,8.92609673 5.40949248,8.61350969 5.9029748,8.46300481 C6.61642579,8.24593048 7.40078773,7.965181 8.15910074,7.6931145 C8.9579343,7.40657638 9.78715827,7.10990811 10.5469184,6.88270364 C13.3486246,6.04624386 15.7190763,4.95942502 18.2299028,3.80893103 C20.2544828,2.87985287 22.3470794,1.9203843 24.7088482,1.08971317 C25.5178119,0.806069371 26.3094096,0.578864898 27.0735113,0.360343399 C27.4758224,0.246017582 27.891158,0.125903115 28.3050464,0 L28.4743644,0.555710302 C28.0561345,0.68306058 27.6379046,0.801727884 27.2326991,0.917500864 C26.4772805,1.13312804 25.6943657,1.35888535 24.9013208,1.6367405 C22.5656009,2.45728149 20.4831344,3.41240858 18.4715789,4.33425093 C15.9419393,5.49487505 13.5512273,6.59037687 10.7133421,7.43841394 C9.96805355,7.66127693 9.14751256,7.95505087 8.35302048,8.23869467 C7.58891882,8.51365549 6.79876823,8.79585213 6.07229278,9.01871512 C5.60485938,9.15908986 4.85522934,9.46733541 4.06218442,9.79294692 C2.45004568,10.4557472 1.94064457,10.8812129 1.14325817,10.8595055" id="Fill-39"></path>
                    </g>
                    <g id="Group-44" transform="translate(7.983545, 123.757276)" fill="#F6C8A3">
                        <path d="M125.728715,10.7670773 C123.92228,7.72432367 120.037164,6.64814976 116.921812,8.3232657 L85.6764686,21.6665411 C85.1266377,21.9003527 84.5341014,22.0209952 83.9362271,22.0188599 L45.2057101,22.0188599 C42.7725749,22.0188599 40.8017246,20.0480097 40.8017246,17.615942 C40.8017246,15.1828068 42.7725749,13.2119565 45.2057101,13.2119565 L62.8205845,13.2119565 C70.1178551,13.2119565 76.0314734,7.29727053 76.0314734,0 L39.3924493,0 C33.3197536,0.0042705314 27.5769565,2.76837198 23.7815217,7.50866184 L0,27.0399372 L15.5458019,55.5329227 L85.34657,38.3354928 C87.9313092,37.738686 90.4317053,36.822657 92.787971,35.6055556 L123.61587,19.817401 C126.683179,17.8913913 127.624831,13.8546715 125.728715,10.7670773" id="Fill-42"></path>
                    </g>
                </g>
                <path d="M0,111.000534 C0,50.8020166 48.8007094,2 109,2 C169.198222,2 218,50.8020166 218,111.000534 C218,171.199051 169.198222,220 109,220 C48.8007094,220 0,171.199051 0,111.000534 Z" id="Stroke-46" stroke="#E9364B" stroke-width="5"></path>
            </g>
        </g>
    </g>
</svg>