<svg height="158" viewBox="0 0 157 158" width="157" xmlns="http://www.w3.org/2000/svg" xmlns:xlink="http://www.w3.org/1999/xlink"><mask id="a" fill="#fff"><path d="m0 169.26087h154.337929v-168.86765261h-154.337929z" fill="#fff" fill-rule="evenodd"/></mask><mask id="b" fill="#fff"><path d="m.41099029 76.5252524c0 42.0943106 33.90042721 76.2177666 75.71961161 76.2177666 41.8177091 0 75.7196121-34.123456 75.7196121-76.2177666 0-42.0935679-33.901903-76.21776696-75.7196121-76.21776696-41.8191844 0-75.71961161 34.12419906-75.71961161 76.21776696z" fill="#fff" fill-rule="evenodd"/></mask><g fill="none" fill-rule="evenodd" transform="translate(1)"><path d="m154.111998 77.6339c0 41.890217-33.911786 75.849565-75.7433337 75.849565-41.8322857 0-75.74333335-33.959348-75.74333335-75.849565 0-41.8902174 33.91104765-75.84956522 75.74333335-75.84956522 41.8315477 0 75.7433337 33.95934782 75.7433337 75.84956522" fill="#fff"/><path d="m46.3810929 33.9930522c-3.0365239.6097826-5.8959048 1.9668261-8.1330715 4.1531739-4.4499762 4.3483043-5.3032143 10.3744348-5.8117619 16.2143043-.5543095 6.3713044-1.2082619 12.6805218-5.3541428 17.9165218-3.2284286 4.0777826-6.9270238 8.029913-8.835 12.9096521-3.2926429 8.4216522-2.5892381 19.2476957 6.3299047 23.9138257 3.8661429 2.02374 8.3500715 2.661609 12.7395238 2.711131 7.0185477.079087 14.3397143-1.411 19.7610238-5.751174 2.3065477-1.846348 4.1931191-4.145044 5.8538334-6.562 9.4815714-13.7951305 13.6643571-31.9806957 8.6224286-48.1306957-2.4918096-7.9833478-7.5381667-14.8313913-16.1554286-17.0916522-2.8985-.7605652-6.0435238-.8803043-9.0173095-.2830869" fill="#9e223e"/><g fill="#f5c7a3"><path d="m67.1926476 80.4763739-9.9827381-2.4066087-.411119-6.6588261-11.4227619-8.5583913-.3181191 14.9954783s-11.9475476 3.3793043-12.0479285 3.4753913c10.362119 14.7316087 30.5704285 4.9078261 34.1826666-.8470435"/><path d="m62.458431 55.8385696s.589738-1.8056957 1.5049761-1.167087c.9145.640087.7934524 8.0018261-1.9965476 8.4209131-2.79.4190869.4915715-7.2538261.4915715-7.2538261"/><path d="m39.4189357 55.8385696s-.5904762-1.8056957-1.5049762-1.167087c-.9152381.640087-.7941905 8.0018261 1.9965476 8.4209131 2.79.4190869-.4915714-7.2538261-.4915714-7.2538261"/><path d="m42.5103738 43.7006435 8.4076429-2.8907392 8.4069047 2.8907392 3.2513096 4.6528261-.0420715 9.0233043s-.070119 4.5116522-.7321905 6.3439565c-.6635476 1.8330435-3.2793571 9.8341305-10.8839523 10.2569131-7.6053334-.4227826-10.2211429-8.4238696-10.8839524-10.2569131-.6628095-1.8323043-.7329286-6.3439565-.7329286-6.3439565l.0088572-9.0233043z"/></g><path d="m53.4333714 64.770887c-.0693809 1.3333913-1.1676666 2.3940434-2.5169047 2.3940434-1.3485 0-2.4475238-1.0606521-2.5161667-2.3940434z" fill="#fff"/><path d="m58.3304119 53.3544261c-2.7833571 0-5.0485714 2.2676522-5.0485714 5.0556522 0 2.7872608 2.2652143 5.0556521 5.0485714 5.0556521s5.0485714-2.2683913 5.0485714-5.0556521c0-2.788-2.2652143-5.0556522-5.0485714-5.0556522m0 10.5954348c-3.0498095 0-5.5312857-2.4849566-5.5312857-5.5397826 0-3.054087 2.4814762-5.5397826 5.5312857-5.5397826 3.0505476 0 5.5320238 2.4856956 5.5320238 5.5397826 0 3.054826-2.4814762 5.5397826-5.5320238 5.5397826" fill="#fff"/><path d="m43.8410119 53.3544261c-2.7833571 0-5.0485714 2.2676522-5.0485714 5.0556522 0 2.7872608 2.2652143 5.0556521 5.0485714 5.0556521s5.0493095-2.2683913 5.0493095-5.0556521c0-2.788-2.2659524-5.0556522-5.0493095-5.0556522m0 10.5954348c-3.0498095 0-5.5312857-2.4849566-5.5312857-5.5397826 0-3.054087 2.4814762-5.5397826 5.5312857-5.5397826 3.0505476 0 5.5320238 2.4856956 5.5320238 5.5397826 0 3.054826-2.4814762 5.5397826-5.5320238 5.5397826" fill="#fff"/><path d="m83.1366119 118.874348c.0051667.045087.1653333 1.638652-.5019048 3.313522-.8561904 2.150869-2.6682142 3.46726-5.386619 3.912217-1.5027619.245391-2.8977619-.107913-4.1466191-1.050304-1.829738-1.382174-2.8822619-3.717826-3.0165952-4.861261-.2745714-1.929131-4.4042143-26.0646959-4.6249048-27.5052611-.0664285-.3717826-1.434119-8.466 5.0788334-10.1009566.2723571-.0251304 1.3455476-.0916521 2.6918333.2453914 2.4947619.6245652 5.9313333 2.6320434 6.9816429 8.8436956 1.8422857 10.8881307 2.9036666 26.9435217 2.9243333 27.2029567" fill="#f5c7a3"/><path d="m70.3590762 81.5471522s9.0158333-1.1086957 10.8861667 9.9494348c1.0045476 5.9411304.6266428 7.8717391 1.4090238 16.079043-5.153381 1.481957-10.4787381 2.103566-15.8358334 2.11687-1.6621904-10.8836957-2.3936428-16.8506957-2.3936428-16.8506957s-1.7175476-9.440913 5.9342857-11.2946521" fill="#e8364b"/><path d="m62.6436929 53.0310565c-1.4451905-1.7487826-2.7235715-3.9720869-3.7288572-6.9788695 0 0-2.2814524 4.4414347-8.564119 5.6573043 0 0 1.2687857-.8987826 1.7433809-1.7443478 0 0-3.2299047 2.4760869-8.4666905 2.533 0 0 1.8312143-.5942609 2.4290715-1.4058261 0 0-6.324.6371304-6.8045 2.6276087l-1.185381-3.4731739.9853572-5.111087 1.426-2.2026087 5.146-3.9654348 6.4701428-1.2690869 6.8207381 2.6438695 2.8401905 1.6918696 2.5515952 4.335-1.2318809 3.8597391z" fill="#9e223e"/><path d="m48.70565 56.2875174-.1387619-.4634348c1.7817619-.5351304 3.4505952-.5343913 4.9614762.0036957l-.162381.4560434c-1.4112381-.5026087-2.9796904-.5011304-4.6603333.0036957" fill="#fff"/><path d="m27.9625905 83.2517348c1.4599524-1.5351739 5.2707381-2.4686957 10.083119-3.649087 10.9784286 2.9993913 20.2511191 1.7376957 25.3174048-.357 4.7297143.8559131 10.1879286 2.0023044 11.6478809 3.5374783 1.9020715 2.0000869 4.192381 43.6589569 4.192381 43.6589569h-41.0964048s-12.0464524-41.1902613-10.1443809-43.1903482" fill="#e8364b"/><path d="m75.7982476 125.850926c-4.6765714.511476-22.0727381.345174-37.0966666.465652 0 0-6.9351429.929087-7.6451905-5.579695-.1358095-5.268522 4.5533095-7.203566 6.8502619-7.161435 1.9367619-.011826 39.2622381 4.913739 39.2622381 4.913739z" fill="#f5c7a3"/><path d="m40.0906762 120.082235c0 .045087-.0273095 1.647522-.8849762 3.232217-1.1005 2.036305-3.0542381 3.131696-5.805119 3.25587-1.5219524.068-2.8660239-.446435-3.9967858-1.528522-1.6562857-1.586913-2.4290714-4.029-2.4290714-5.180565-.0479762-1.947609-1.3344762-26.4017393-1.3854048-27.8578263-.0228809-.3776957-.4369523-8.5761304 6.2214048-9.4379565.2738333.0066521 1.3462857.0665217 2.6453333.5587826 2.4039762.9113478 5.5836905 3.3068695 5.9025477 9.5990869.5602142 11.0293043-.2583334 27.0987393-.2679286 27.3589133" fill="#f5c7a3"/><path d="m31.7532262 81.5161055s9.0837381-.046562 9.6513333 11.1542206c.3055715 6.018-.2952381 7.8916959-.4753333 16.1337389-5.2914048.869957-10.6521905.864044-15.9745952.250565-.3815953-11.0026952-.4125953-17.0147822-.4125953-17.0147822s-.6045-9.5776521 7.2111905-10.5237423" fill="#e8364b"/><path d="m131.14956 122.85183h-54.5430243c-1.2488571 0-2.2607857-1.013347-2.2607857-2.263217l6.5542857-38.148c0-1.2498695 1.0119286-2.2632173 2.2593095-2.2632173h54.5444998c1.248119 0 2.25931 1.0133478 2.25931 2.2632173l-6.55281 38.148c0 1.24987-1.012666 2.263217-2.260785 2.263217" fill="#ffd8dd"/><path d="m75.2460786 120.588613 6.5535476-38.148c0-1.2498695 1.0119286-2.2632173 2.2600476-2.2632173h-.8997381c-1.248119 0-2.2600476 1.0133478-2.2600476 2.2632173l-6.5542857 38.148c0 1.24987 1.0119286 2.263217 2.2607857 2.263217h.8997381c-1.2481191 0-2.2600476-1.013347-2.2600476-2.263217" fill="#ffa2ab"/><path d="m65.5564381 122.85183v.250566c0 1.702217 1.3905714 3.094 3.0896667 3.094h61.3231662c1.698358 0 3.088929-1.391783 3.088929-3.094v-.250566z" fill="#ffd8dd"/><path d="m74.5217119 123.102691v-.250565h-8.9649048v.250565c0 1.701479 1.3898334 3.094 3.0889286 3.094h8.9656429c-1.6990953 0-3.0896667-1.392521-3.0896667-3.094" fill="#ffa2ab"/><path d="m109.545143 101.763552c0 1.322305-1.070238 2.394044-2.389953 2.394044-1.320452 0-2.391428-1.071739-2.391428-2.394044 0-1.322304 1.070976-2.3940433 2.391428-2.3940433 1.319715 0 2.389953 1.0717393 2.389953 2.3940433" fill="#ffa2ab"/><path d="m80.2435 123.077043h48.602095v-.450869h-48.602095z" fill="#ffa2ab" mask="url(#a)"/><path d="m137.737751 125.302841h-125.1233005l16.2676893 39.978306 47.2483884 3.316237 44.7957278-9.858844 15.236894-18.123073z" fill="#9e223e" mask="url(#b)" transform="translate(2 2)"/><path d="m2 79c0-41.9734838 33.8024919-76 75.5003699-76 41.6971381 0 75.4996301 34.0265162 75.4996301 76 0 41.973484-33.802492 76-75.4996301 76-41.697878 0-75.5003699-34.026516-75.5003699-76z" stroke="#ffd8dd" stroke-width="5"/></g></svg>