<?xml version="1.0" encoding="UTF-8"?>
<svg width="155px" height="155px" viewBox="0 0 155 155" version="1.1" xmlns="http://www.w3.org/2000/svg" xmlns:xlink="http://www.w3.org/1999/xlink">
    <title>Group 46</title>
    <defs>
        <polygon id="path-1" points="0 155 155 155 155 0 0 0"></polygon>
    </defs>
    <g id="Page-1" stroke="none" stroke-width="1" fill="none" fill-rule="evenodd">
        <g id="ORGANISER-UNE-COLLECTE" transform="translate(-1332.000000, -1323.000000)">
            <g id="Group-46" transform="translate(1332.000000, 1323.000000)">
                <path d="M154,77.5 C154,119.750185 119.750018,154 77.4996273,154 C35.2499817,154 1,119.750185 1,77.5 C1,35.2505603 35.2499817,1 77.4996273,1 C119.750018,1 154,35.2505603 154,77.5" id="Fill-1" fill="#FFFFFF"></path>
                <path d="M77.3866451,99.500847 L45.9813359,110.523705 C41.6138397,112.057274 36.7772143,109.763276 35.2335303,105.426512 L19.4796706,61.1713309 C17.9352336,56.8345669 20.2454885,52.0327224 24.6129846,50.499153 L56.0182938,39.4762954 C60.3857899,37.9427259 65.2224153,40.2367245 66.7660993,44.5734884 L82.5207121,88.8286691 C84.064396,93.1646853 81.7541412,97.9672776 77.3866451,99.500847" id="Fill-3" fill="#E8364B"></path>
                <polygon id="Fill-5" fill="#FFFFFF" points="72.5121146 97.1210299 42.0696243 108 24 56.3232131 61.2816999 43 77 87.9521344"></polygon>
                <path d="M50.5885896,47.5891324 L35.1367716,52.8830965 C34.0388773,53.2593958 32.8232157,52.6967879 32.4349638,51.632693 L31.1205298,48.0287619 C30.7322779,46.964667 31.313516,45.7864305 32.4114104,45.4108676 L47.8632284,40.1169035 C48.9611227,39.7406042 50.1767843,40.3032121 50.5650362,41.367307 L51.8794702,44.9705017 C52.2677221,46.0345966 51.686484,47.2128331 50.5885896,47.5891324" id="Fill-7" fill="#D82745"></path>
                <polygon id="Fill-9" fill="#FFD8DD" points="72.3998494 96 70 89.4045857 77 87"></polygon>
                <polyline id="Stroke-11" stroke="#FFA2AB" stroke-width="1.5" stroke-linecap="round" stroke-linejoin="round" points="50.5577717 87 54 96.5583195 44.4422283 100 41 90.4424256 50.5577717 87"></polyline>
                <path d="M57.789886,67.9994855 L48,89.960883 L48.5324017,94.4538608 C48.5863424,94.9078164 49.069707,95.1473631 49.4339819,94.9019017 L53.0529122,92.4702078 L62.8427982,70.5088103 C63.2301905,69.6393448 62.8771241,68.6027881 62.0526021,68.1939323 L59.9832408,67.1662477 C59.1594193,66.7566526 58.1772783,67.13002 57.789886,67.9994855" id="Fill-13" fill="#E8364B"></path>
                <path d="M63.1527997,72 C63.032127,72 62.9099827,71.9754135 62.7937249,71.9227283 L57.4863349,69.5392469 C57.0632447,69.3488774 56.8822357,68.8676853 57.0801683,68.463765 C57.2803084,68.0598446 57.7843375,67.8870369 58.205956,68.0774064 L63.5133461,70.4608878 C63.9364362,70.6512572 64.118181,71.1324493 63.9195126,71.5356672 C63.7752941,71.8285973 63.4706692,72 63.1527997,72" id="Fill-15" fill="#FFD8DD"></path>
                <polygon id="Stroke-17" stroke="#FFA2AB" stroke-width="1.5" stroke-linecap="round" stroke-linejoin="round" points="43 66.5577717 33.4422283 70 30 60.4422283 39.5577717 57"></polygon>
                <polygon id="Stroke-19" stroke="#FFA2AB" stroke-width="1.5" stroke-linecap="round" stroke-linejoin="round" points="49 81.5585167 39.4416805 85 36 75.4422283 45.5583195 72"></polygon>
                <polyline id="Stroke-21" stroke="#FFA2AB" stroke-width="1.5" stroke-linecap="round" stroke-linejoin="round" points="39 77.6529757 42.4168896 80 45 72"></polyline>
                <polyline id="Stroke-23" stroke="#FFA2AB" stroke-width="1.5" stroke-linecap="round" stroke-linejoin="round" points="34 62.6529757 37.4176538 65 40 57"></polyline>
                <line x1="47" y1="59" x2="59" y2="55" id="Stroke-25" stroke="#FFA2AB" stroke-width="1.5" stroke-linecap="round" stroke-linejoin="round"></line>
                <line x1="59" y1="90" x2="71" y2="86" id="Stroke-27" stroke="#FFA2AB" stroke-width="1.5" stroke-linecap="round" stroke-linejoin="round"></line>
                <polygon id="Fill-29" fill="#FFD8DD" points="128.769178 88 99 80.7697235 107.231572 47 137 54.2302765"></polygon>
                <polygon id="Fill-31" fill="#FFA2AB" points="127.834736 88 98 80.6837024 98.1652644 80 128 87.3162976"></polygon>
                <polygon id="Fill-33" fill="#9E223E" points="127.129208 81 103 75.1293532 108.87005 51 133 56.8706468"></polygon>
                <polygon id="Fill-35" fill="#FFD8DD" points="110 125.005446 79.1326029 126 78 90.9953083 108.868153 90"></polygon>
                <polygon id="Fill-37" fill="#FFA2AB" points="110 124.82599 79.0227478 126 79 125.17401 109.97801 124"></polygon>
                <polygon id="Fill-39" fill="#E8364B" points="107 118.186935 81.8130652 119 81 93.8130652 106.187688 93"></polygon>
                <mask id="mask-2" fill="white">
                    <use xlink:href="#path-1"></use>
                </mask>
                <g id="Clip-42"></g>
                <polygon id="Fill-41" fill="#FFD8DD" mask="url(#mask-2)" points="86 67 117 67 117 32 86 32"></polygon>
                <polygon id="Fill-43" fill="#FFA2AB" mask="url(#mask-2)" points="86 66.9645 117 66.9645 117 66.0355 86 66.0355"></polygon>
                <polygon id="Fill-44" fill="#E8364B" mask="url(#mask-2)" points="89 60 114 60 114 35 89 35"></polygon>
                <path d="M2,77.9996276 C2,36.0263494 36.0261827,2 78,2 C119.973073,2 154,36.0263494 154,77.9996276 C154,119.972906 119.973073,154 78,154 C36.0261827,154 2,119.972906 2,77.9996276 Z" id="Stroke-45" stroke="#E9364B" stroke-width="5" mask="url(#mask-2)"></path>
            </g>
        </g>
    </g>
</svg>