<?xml version="1.0" encoding="UTF-8"?>
<svg width="158px" height="158px" viewBox="0 0 158 158" version="1.1" xmlns="http://www.w3.org/2000/svg" xmlns:xlink="http://www.w3.org/1999/xlink">
    <title>Group 51</title>
    <defs>
        <polygon id="path-1" points="0 156 155.333657 156 155.333657 0.666342857 0 0.666342857"></polygon>
    </defs>
    <g id="Page-1" stroke="none" stroke-width="1" fill="none" fill-rule="evenodd">
        <g id="ORGANISER-UNE-COLLECTE" transform="translate(-1331.000000, -913.000000)">
            <g id="Group-51" transform="translate(1332.000000, 913.000000)">
                <g id="Group-48">
                    <path d="M153.887909,78.2966229 C153.887909,120.398051 119.75808,154.528623 77.6559086,154.528623 C35.55448,154.528623 1.42465143,120.398051 1.42465143,78.2966229 C1.42465143,36.1951943 35.55448,2.06462286 77.6559086,2.06462286 C119.75808,2.06462286 153.887909,36.1951943 153.887909,78.2966229" id="Fill-1" fill="#FFFFFF"></path>
                    <path d="M125.592629,110.22024 L29.6986857,110.22024 C28.1074857,110.22024 26.8052571,108.918011 26.8052571,107.326069 L26.8052571,55.9144114 C26.8052571,54.3224686 28.1074857,53.02024 29.6986857,53.02024 L125.592629,53.02024 C127.184571,53.02024 128.4868,54.3224686 128.4868,55.9144114 L128.4868,107.326069 C128.4868,108.918011 127.184571,110.22024 125.592629,110.22024" id="Fill-3" fill="#FFD8DD"></path>
                    <path d="M126.103343,110.22024 L30.2086571,110.22024 C28.6174571,110.22024 27.3152286,108.918011 27.3152286,107.326069 L27.3152286,49.2665829 C27.3152286,47.6753829 28.6174571,46.3731543 30.2086571,46.3731543 L126.103343,46.3731543 C127.695286,46.3731543 128.997514,47.6753829 128.997514,49.2665829 L128.997514,107.326069 C128.997514,108.918011 127.695286,110.22024 126.103343,110.22024 Z" id="Stroke-5" stroke="#E7364B" stroke-width="2.3"></path>
                    <line x1="27.3149314" y1="53.4199714" x2="128.997217" y2="53.4199714" id="Stroke-7" stroke="#E7364B" stroke-width="2.3"></line>
                    <path d="M32.2305657,50.0176114 C32.2305657,50.5064114 31.83388,50.9023543 31.34508,50.9023543 C30.8555371,50.9023543 30.4595943,50.5064114 30.4595943,50.0176114 C30.4595943,49.5288114 30.8555371,49.1321257 31.34508,49.1321257 C31.83388,49.1321257 32.2305657,49.5288114 32.2305657,50.0176114" id="Fill-9" fill="#E8364B"></path>
                    <path d="M35.0896,50.0176114 C35.0896,50.5064114 34.6936571,50.9023543 34.2048571,50.9023543 C33.7153143,50.9023543 33.3193714,50.5064114 33.3193714,50.0176114 C33.3193714,49.5288114 33.7153143,49.1321257 34.2048571,49.1321257 C34.6936571,49.1321257 35.0896,49.5288114 35.0896,50.0176114" id="Fill-11" fill="#E8364B"></path>
                    <path d="M37.9493029,50.0176114 C37.9493029,50.5064114 37.5526171,50.9023543 37.0638171,50.9023543 C36.5750171,50.9023543 36.1783314,50.5064114 36.1783314,50.0176114 C36.1783314,49.5288114 36.5750171,49.1321257 37.0638171,49.1321257 C37.5526171,49.1321257 37.9493029,49.5288114 37.9493029,50.0176114" id="Fill-13" fill="#E8364B"></path>
                    <path d="M84.4946514,66.10656 L55.3204229,66.10656 C53.8473371,66.10656 52.6424229,64.9016457 52.6424229,63.4293029 C52.6424229,61.9562171 53.8473371,60.7513029 55.3204229,60.7513029 L84.4946514,60.7513029 C85.9669943,60.7513029 87.1719086,61.9562171 87.1719086,63.4293029 C87.1719086,64.9016457 85.9669943,66.10656 84.4946514,66.10656" id="Fill-15" fill="#E8364B"></path>
                    <path d="M56.2581314,63.1808914 C56.2581314,63.3822057 56.29676,63.5344914 56.3725314,63.6362629 C56.4497886,63.7380343 56.5634457,63.7892914 56.7157314,63.7892914 C57.0210457,63.7892914 57.1733314,63.5864914 57.1733314,63.1808914 C57.1733314,62.7745486 57.0217886,62.5717486 56.7187029,62.5717486 C56.5664171,62.5717486 56.4520171,62.6230057 56.3740171,62.7247771 C56.29676,62.8272914 56.2581314,62.9795771 56.2581314,63.1808914 M57.5744743,63.1808914 C57.5744743,63.47952 57.5009314,63.7090629 57.3531029,63.86952 C57.2045314,64.0299771 56.9920743,64.1102057 56.7157314,64.1102057 C56.4393886,64.1102057 56.2276743,64.0299771 56.0798457,63.86952 C55.9312743,63.7090629 55.8569886,63.4787771 55.8569886,63.1786629 C55.8569886,62.8785486 55.9320171,62.6490057 56.0798457,62.4907771 C56.2284171,62.3318057 56.4408743,62.2530629 56.7187029,62.2530629 C56.9957886,62.2530629 57.2075029,62.3325486 57.3545886,62.4922629 C57.5016743,62.6519771 57.5744743,62.88152 57.5744743,63.1808914" id="Fill-17" fill="#FFFFFF"></path>
                    <path d="M58.6890571,62.6799086 C58.7395714,62.6799086 58.7819143,62.6836229 58.8160857,62.6910514 L58.7878571,63.0439086 C58.7574,63.0357371 58.7202571,63.0320229 58.6764286,63.0320229 C58.5560857,63.0320229 58.4624857,63.06248 58.3956286,63.1241371 C58.3287714,63.1857943 58.2953429,63.2719657 58.2953429,63.3833943 L58.2953429,64.0853943 L57.9187143,64.0853943 L57.9187143,62.7059086 L58.2039714,62.7059086 L58.2596857,62.93768 L58.2775143,62.93768 C58.3206,62.8604229 58.3785429,62.7980229 58.4513429,62.7512229 C58.5241429,62.70368 58.6036286,62.6799086 58.6890571,62.6799086" id="Fill-19" fill="#FFFFFF"></path>
                    <path d="M59.3390571,63.1572686 C59.3390571,63.2322971 59.3561429,63.2917257 59.3903143,63.3348114 C59.4244857,63.37864 59.4764857,63.4009257 59.5463143,63.4009257 C59.6168857,63.4009257 59.6688857,63.37864 59.7015714,63.3348114 C59.7342571,63.2917257 59.7513429,63.2322971 59.7513429,63.1572686 C59.7513429,62.9908686 59.683,62.9084114 59.5463143,62.9084114 C59.4081429,62.9084114 59.3390571,62.9908686 59.3390571,63.1572686 L59.3390571,63.1572686 Z M59.2016286,64.2804686 C59.2016286,64.3324686 59.2276286,64.3725829 59.2766571,64.4022971 C59.3264286,64.4320114 59.3962571,64.4468686 59.4854,64.4468686 C59.6206,64.4468686 59.7260857,64.4282971 59.8033429,64.3911543 C59.8798571,64.3540114 59.9177429,64.3034971 59.9177429,64.2396114 C59.9177429,64.1876114 59.8954571,64.1519543 59.8494,64.1318971 C59.8048286,64.1125829 59.7342571,64.1021829 59.6399143,64.1021829 L59.4452857,64.1021829 C59.3762,64.1021829 59.3182571,64.1185257 59.2714571,64.1512114 C59.2254,64.1838971 59.2016286,64.2269829 59.2016286,64.2804686 L59.2016286,64.2804686 Z M60.2668857,62.7063543 L60.2668857,62.8972686 L60.0507143,62.9529829 C60.0908286,63.01464 60.1101429,63.0829829 60.1101429,63.1594971 C60.1101429,63.3080686 60.0588857,63.4232114 59.9556286,63.5056686 C59.8516286,63.5888686 59.709,63.6297257 59.5255143,63.6297257 L59.4571714,63.6260114 L59.4022,63.6200686 C59.3628286,63.6497829 59.3442571,63.6824686 59.3442571,63.7188686 C59.3442571,63.7730971 59.4133429,63.8005829 59.5515143,63.8005829 L59.7862571,63.8005829 C59.9370571,63.8005829 60.0522,63.8325257 60.1316857,63.8978971 C60.2111714,63.9625257 60.2512857,64.0583543 60.2512857,64.1838971 C60.2512857,64.3450971 60.1836857,64.47064 60.0492286,64.55904 C59.9140286,64.6481829 59.7216286,64.6920114 59.4698,64.6920114 C59.2774,64.6920114 59.1303143,64.6585829 59.0285429,64.5917257 C58.9267714,64.5248686 58.8762571,64.4305257 58.8762571,64.3101829 C58.8762571,64.2269829 58.9022571,64.1571543 58.9535143,64.10144 C59.0062571,64.0449829 59.0820286,64.0056114 59.1823143,63.98184 C59.1436857,63.9647543 59.1095143,63.9380114 59.0812857,63.9008686 C59.0523143,63.8637257 59.0382,63.8236114 59.0382,63.7820114 C59.0382,63.7292686 59.0530571,63.68544 59.0835143,63.6505257 C59.1139714,63.6156114 59.1585429,63.5806971 59.2157429,63.5472686 C59.1429429,63.5160686 59.0857429,63.4662971 59.0441429,63.3964686 C59.0010571,63.3273829 58.9802571,63.2464114 58.9802571,63.1528114 C58.9802571,63.0020114 59.0292857,62.8853829 59.1273429,62.8029257 C59.2246571,62.7212114 59.3643143,62.6796114 59.5463143,62.6796114 C59.5849429,62.6796114 59.631,62.6833257 59.6837429,62.6907543 C59.7372286,62.69744 59.7706571,62.70264 59.7862571,62.7063543 L60.2668857,62.7063543 Z" id="Fill-21" fill="#FFFFFF"></path>
                    <path d="M61.2586,63.4460171 L61.1137429,63.4512171 C61.0038,63.4541886 60.9228286,63.4742457 60.8693429,63.5099029 C60.8151143,63.5463029 60.7883714,63.6012743 60.7883714,63.67556 C60.7883714,63.7817886 60.8492857,63.8345314 60.9711143,63.8345314 C61.0580286,63.8345314 61.1278571,63.8100171 61.1806,63.7595029 C61.2326,63.7089886 61.2586,63.6428743 61.2586,63.5596743 L61.2586,63.4460171 Z M61.3700286,64.0848743 L61.2972286,63.8976743 L61.2875714,63.8976743 C61.2236857,63.97716 61.1583143,64.0328743 61.0914571,64.0640743 C61.0253429,64.0945314 60.9369429,64.1101314 60.8299714,64.1101314 C60.697,64.1101314 60.593,64.0722457 60.5164857,63.9964743 C60.4407143,63.9207029 60.4028286,63.8129886 60.4028286,63.6733314 C60.4028286,63.5269886 60.4540857,63.4185314 60.5566,63.3494457 C60.6583714,63.2796171 60.8128857,63.2417314 61.0201429,63.23356 L61.2586,63.2268743 L61.2586,63.16596 C61.2586,63.0263029 61.1872857,62.9564743 61.0446571,62.9564743 C60.9339714,62.9564743 60.8047143,62.9899029 60.6554,63.05676 L60.5313429,62.80196 C60.6895714,62.71876 60.8656286,62.67716 61.0587714,62.67716 C61.2437429,62.67716 61.3863714,62.7180171 61.4851714,62.7982457 C61.5832286,62.8792171 61.633,63.0017886 61.633,63.16596 L61.633,64.0848743 L61.3700286,64.0848743 Z" id="Fill-23" fill="#FFFFFF"></path>
                    <path d="M63.2935086,64.0850971 L62.91688,64.0850971 L62.91688,63.27984 C62.91688,63.1802971 62.8997943,63.1052686 62.8641371,63.0554971 C62.82848,63.0057257 62.7727657,62.9812114 62.6947657,62.9812114 C62.5900229,62.9812114 62.5135086,63.0161257 62.4674514,63.0866971 C62.4199086,63.1565257 62.39688,63.2731543 62.39688,63.43584 L62.39688,64.0850971 L62.0202514,64.0850971 L62.0202514,62.7063543 L62.3077371,62.7063543 L62.3582514,62.8824114 L62.3797943,62.8824114 C62.4213943,62.8155543 62.4785943,62.76504 62.55288,62.7308686 C62.6264229,62.6966971 62.7103657,62.6796114 62.8039657,62.6796114 C62.9644229,62.6796114 63.0862514,62.72344 63.1687086,62.8103543 C63.2519086,62.8965257 63.2935086,63.0220686 63.2935086,63.18624 L63.2935086,64.0850971 Z" id="Fill-25" fill="#FFFFFF"></path>
                    <mask id="mask-2" fill="white">
                        <use xlink:href="#path-1"></use>
                    </mask>
                    <g id="Clip-28"></g>
                    <path d="M63.6860857,64.0848 L64.1930857,64.0848 L64.1930857,62.7060571 L63.6860857,62.7060571 L63.6860857,64.0848 Z M63.6650857,62.3494857 C63.6650857,62.2269143 63.7570857,62.1652571 63.9400857,62.1652571 C64.1250857,62.1652571 64.2170857,62.2269143 64.2170857,62.3494857 C64.2170857,62.4074286 64.1930857,62.4534857 64.1470857,62.4854286 C64.1010857,62.5181143 64.0320857,62.5344571 63.9400857,62.5344571 C63.7570857,62.5344571 63.6650857,62.4728 63.6650857,62.3494857 L63.6650857,62.3494857 Z" id="Fill-27" fill="#FFFFFF" mask="url(#mask-2)"></path>
                    <path d="M65.4146629,63.6756343 C65.4146629,63.8167771 65.3656343,63.9244914 65.2668343,63.9987771 C65.1687771,64.0730629 65.0216914,64.1102057 64.8255771,64.1102057 C64.7252914,64.1102057 64.6398629,64.10352 64.5692914,64.0894057 C64.49872,64.0760343 64.4326057,64.0559771 64.3709486,64.0299771 L64.3709486,63.71872 C64.4400343,63.7521486 64.51952,63.7796343 64.6071771,63.8011771 C64.6940914,63.8234629 64.7720914,63.8346057 64.8382057,63.8346057 C64.9748914,63.8346057 65.0432343,63.7952343 65.0432343,63.7164914 C65.0432343,63.6867771 65.0335771,63.6622629 65.0157486,63.6444343 C64.9971771,63.6258629 64.9659771,63.6050629 64.9221486,63.5812914 C64.8775771,63.55752 64.8181486,63.5307771 64.7446057,63.4995771 C64.6383771,63.4550057 64.5603771,63.4134057 64.5106057,63.3762629 C64.4608343,63.3376343 64.4244343,63.2945486 64.4021486,63.24552 C64.37912,63.1964914 64.3679771,63.13632 64.3679771,63.0650057 C64.3679771,62.9424343 64.41552,62.8473486 64.5106057,62.7804914 C64.6056914,62.7136343 64.7408914,62.6802057 64.91472,62.6802057 C65.08112,62.6802057 65.2430629,62.7158629 65.3990629,62.7886629 L65.2861486,63.0598057 C65.2170629,63.0300914 65.1524343,63.00632 65.0922629,62.9870057 C65.0320914,62.9684343 64.9711771,62.9587771 64.9080343,62.9587771 C64.7973486,62.9587771 64.7423771,62.9892343 64.7423771,63.0486629 C64.7423771,63.0828343 64.7594629,63.1118057 64.7958629,63.13632 C64.83152,63.1615771 64.90952,63.1979771 65.0306057,63.2462629 C65.13832,63.2900914 65.2170629,63.3309486 65.2675771,63.3680914 C65.3173486,63.4059771 65.3552343,63.4498057 65.3782629,63.4995771 C65.4020343,63.5486057 65.4146629,63.6072914 65.4146629,63.6756343" id="Fill-29" fill="#FFFFFF" mask="url(#mask-2)"></path>
                    <path d="M66.2794229,62.9476343 C66.1999371,62.9476343 66.1375371,62.9728914 66.09148,63.0234057 C66.0469086,63.07392 66.0201657,63.1459771 66.0142229,63.2388343 L66.5423943,63.2388343 C66.5409086,63.1459771 66.5163943,63.07392 66.4695943,63.0234057 C66.4220514,62.9728914 66.3589086,62.9476343 66.2794229,62.9476343 M66.3321657,64.1102057 C66.1100514,64.1102057 65.9369657,64.0485486 65.8114229,63.9259771 C65.6866229,63.8034057 65.6242229,63.6295771 65.6242229,63.4052343 C65.6242229,63.1742057 65.6821657,62.9951771 65.7980514,62.8696343 C65.9131943,62.7433486 66.0729086,62.6802057 66.2771943,62.6802057 C66.4718229,62.6802057 66.6233657,62.7351771 66.7318229,62.8466057 C66.8410229,62.9572914 66.8952514,63.1110629 66.8952514,63.3064343 L66.8952514,63.4891771 L66.0053086,63.4891771 C66.0097657,63.5961486 66.0417086,63.6793486 66.1003943,63.73952 C66.1598229,63.7996914 66.2430229,63.8294057 66.3499943,63.8294057 C66.4324514,63.8294057 66.5111943,63.8212343 66.58548,63.8041486 C66.6597657,63.78632 66.73628,63.7588343 66.8179943,63.7216914 L66.8179943,64.0128914 C66.75188,64.0455771 66.6813086,64.0700914 66.60628,64.0856914 C66.5312514,64.1020343 66.4406229,64.1102057 66.3321657,64.1102057" id="Fill-30" fill="#FFFFFF" mask="url(#mask-2)"></path>
                    <path d="M67.9711314,62.6799086 C68.0216457,62.6799086 68.0639886,62.6836229 68.09816,62.6910514 L68.0699314,63.0439086 C68.0394743,63.0357371 68.0023314,63.0320229 67.9585029,63.0320229 C67.83816,63.0320229 67.74456,63.06248 67.6777029,63.1241371 C67.6108457,63.1857943 67.5774171,63.2719657 67.5774171,63.3833943 L67.5774171,64.0853943 L67.2007886,64.0853943 L67.2007886,62.7059086 L67.4860457,62.7059086 L67.54176,62.93768 L67.5595886,62.93768 C67.6026743,62.8604229 67.6606171,62.7980229 67.7334171,62.7512229 C67.8062171,62.70368 67.8857029,62.6799086 67.9711314,62.6799086" id="Fill-31" fill="#FFFFFF" mask="url(#mask-2)"></path>
                    <path d="M69.98212,64.0850971 L69.9316057,63.90904 L69.9115486,63.90904 C69.8721771,63.9729257 69.8142343,64.0226971 69.7406914,64.0576114 C69.6664057,64.0925257 69.58172,64.1103543 69.4873771,64.1103543 C69.3254343,64.1103543 69.2028629,64.0665257 69.1211486,63.9796114 C69.0379486,63.8926971 68.9978343,63.7678971 68.9978343,63.6052114 L68.9978343,62.7063543 L69.3744629,62.7063543 L69.3744629,63.5116114 C69.3744629,63.6111543 69.3915486,63.68544 69.4272057,63.7352114 C69.46212,63.7849829 69.5185771,63.81024 69.5958343,63.81024 C69.70132,63.81024 69.7778343,63.7753257 69.8238914,63.7047543 C69.8714343,63.6341829 69.8944629,63.5175543 69.8944629,63.3548686 L69.8944629,62.7063543 L70.2710914,62.7063543 L70.2710914,64.0850971 L69.98212,64.0850971 Z" id="Fill-32" fill="#FFFFFF" mask="url(#mask-2)"></path>
                    <path d="M71.9386571,64.0850971 L71.5627714,64.0850971 L71.5627714,63.27984 C71.5627714,63.1802971 71.5449429,63.1052686 71.5100286,63.0554971 C71.4743714,63.0057257 71.4179143,62.9812114 71.3406571,62.9812114 C71.2351714,62.9812114 71.1594,63.0161257 71.1126,63.0866971 C71.0650571,63.1565257 71.0420286,63.2731543 71.0420286,63.43584 L71.0420286,64.0850971 L70.6654,64.0850971 L70.6654,62.7063543 L70.9536286,62.7063543 L71.0034,62.8824114 L71.0249429,62.8824114 C71.0665429,62.8155543 71.1244857,62.76504 71.1980286,62.7308686 C71.2723143,62.6966971 71.3555143,62.6796114 71.4491143,62.6796114 C71.6095714,62.6796114 71.7314,62.72344 71.8146,62.8103543 C71.8970571,62.8965257 71.9386571,63.0220686 71.9386571,63.18624 L71.9386571,64.0850971 Z" id="Fill-33" fill="#FFFFFF" mask="url(#mask-2)"></path>
                    <path d="M72.8976857,62.9476343 C72.8182,62.9476343 72.7558,62.9728914 72.7097429,63.0234057 C72.6651714,63.07392 72.6384286,63.1459771 72.6324857,63.2388343 L73.1606571,63.2388343 C73.1591714,63.1459771 73.1346571,63.07392 73.0878571,63.0234057 C73.0403143,62.9728914 72.9771714,62.9476343 72.8976857,62.9476343 M72.9504286,64.1102057 C72.7283143,64.1102057 72.5552286,64.0485486 72.4296857,63.9259771 C72.3048857,63.8034057 72.2424857,63.6295771 72.2424857,63.4052343 C72.2424857,63.1742057 72.3004286,62.9951771 72.4163143,62.8696343 C72.5314571,62.7433486 72.6911714,62.6802057 72.8954571,62.6802057 C73.0900857,62.6802057 73.2423714,62.7351771 73.3500857,62.8466057 C73.4592857,62.9572914 73.5135143,63.1110629 73.5135143,63.3064343 L73.5135143,63.4891771 L72.6235714,63.4891771 C72.6280286,63.5961486 72.6599714,63.6793486 72.7186571,63.73952 C72.7780857,63.7996914 72.8612857,63.8294057 72.9682571,63.8294057 C73.0507143,63.8294057 73.1294571,63.8212343 73.2037429,63.8041486 C73.2780286,63.78632 73.3545429,63.7588343 73.4362571,63.7216914 L73.4362571,64.0128914 C73.3701429,64.0455771 73.2995714,64.0700914 73.2245429,64.0856914 C73.1502571,64.1020343 73.0588857,64.1102057 72.9504286,64.1102057" id="Fill-34" fill="#FFFFFF" mask="url(#mask-2)"></path>
                    <path d="M75.0355543,64.1101314 C74.6069257,64.1101314 74.39224,63.8746457 74.39224,63.4029314 C74.39224,63.1681886 74.4501829,62.98916 74.5668114,62.8658457 C74.68344,62.7417886 74.8513257,62.6801314 75.0689829,62.6801314 C75.2286971,62.6801314 75.3720686,62.7113314 75.4983543,62.7737314 L75.3876686,63.0649314 C75.3289829,63.04116 75.2732686,63.0218457 75.2220114,63.0062457 C75.1714971,62.9913886 75.12024,62.9832171 75.0689829,62.9832171 C74.8736114,62.9832171 74.7755543,63.1221314 74.7755543,63.4007029 C74.7755543,63.67036 74.8736114,63.8048171 75.0689829,63.8048171 C75.1417829,63.8048171 75.20864,63.7959029 75.2702971,63.7758457 C75.3319543,63.7565314 75.3936114,63.7268171 75.4552686,63.6852171 L75.4552686,64.0076171 C75.3943543,64.0462457 75.3326971,64.0729886 75.2702971,64.0878457 C75.20864,64.1027029 75.13064,64.1101314 75.0355543,64.1101314" id="Fill-35" fill="#FFFFFF" mask="url(#mask-2)"></path>
                    <path d="M76.0751086,63.3930514 C76.0751086,63.5297371 76.0966514,63.6329943 76.1419657,63.7028229 C76.1865371,63.7726514 76.26008,63.8075657 76.3611086,63.8075657 C76.4613943,63.8075657 76.5334514,63.7726514 76.5780229,63.7035657 C76.6211086,63.6337371 76.6441371,63.53048 76.6441371,63.3930514 C76.6441371,63.2563657 76.6211086,63.1538514 76.57728,63.0855086 C76.5327086,63.0179086 76.4599086,62.9837371 76.35888,62.9837371 C76.2578514,62.9837371 76.1857943,63.0171657 76.1412229,63.0855086 C76.0966514,63.1531086 76.0751086,63.2556229 76.0751086,63.3930514 M77.0281943,63.3930514 C77.0281943,63.6173943 76.9695086,63.7934514 76.8506514,63.9197371 C76.7325371,64.0467657 76.5676229,64.1099086 76.3559086,64.1099086 C76.22368,64.1099086 76.1070514,64.0809371 76.00528,64.0229943 C75.9049943,63.9650514 75.8269943,63.8818514 75.7727657,63.7733943 C75.7185371,63.6649371 75.6910514,63.5379086 75.6910514,63.3930514 C75.6910514,63.1679657 75.75048,62.9926514 75.8678514,62.8671086 C75.9852229,62.7423086 76.15088,62.6799086 76.36408,62.6799086 C76.4955657,62.6799086 76.6129371,62.70888 76.7139657,62.76608 C76.8149943,62.8240229 76.8929943,62.90648 76.9472229,63.0141943 C77.0014514,63.1219086 77.0281943,63.2481943 77.0281943,63.3930514" id="Fill-36" fill="#FFFFFF" mask="url(#mask-2)"></path>
                    <polygon id="Fill-37" fill="#FFFFFF" mask="url(#mask-2)" points="77.3396 64.0848 77.7162286 64.0848 77.7162286 62.1652571 77.3396 62.1652571"></polygon>
                    <polygon id="Fill-38" fill="#FFFFFF" mask="url(#mask-2)" points="78.1106857 64.0848 78.4873143 64.0848 78.4873143 62.1652571 78.1106857 62.1652571"></polygon>
                    <path d="M79.4528057,62.9476343 C79.37332,62.9476343 79.31092,62.9728914 79.2656057,63.0234057 C79.2202914,63.07392 79.1942914,63.1459771 79.1883486,63.2388343 L79.7157771,63.2388343 C79.7142914,63.1459771 79.6897771,63.07392 79.6429771,63.0234057 C79.5961771,62.9728914 79.5322914,62.9476343 79.4528057,62.9476343 M79.5055486,64.1102057 C79.2834343,64.1102057 79.1103486,64.0485486 78.9855486,63.9259771 C78.8600057,63.8034057 78.7976057,63.6295771 78.7976057,63.4052343 C78.7976057,63.1742057 78.8555486,62.9951771 78.9714343,62.8696343 C79.0865771,62.7433486 79.2470343,62.6802057 79.4505771,62.6802057 C79.6459486,62.6802057 79.7974914,62.7351771 79.9052057,62.8466057 C80.0144057,62.9572914 80.0686343,63.1110629 80.0686343,63.3064343 L80.0686343,63.4891771 L79.1794343,63.4891771 C79.1831486,63.5961486 79.2150914,63.6793486 79.27452,63.73952 C79.3332057,63.7996914 79.4164057,63.8294057 79.5233771,63.8294057 C79.6065771,63.8294057 79.6845771,63.8212343 79.7588629,63.8041486 C79.8331486,63.78632 79.9104057,63.7588343 79.9913771,63.7216914 L79.9913771,64.0128914 C79.9252629,64.0455771 79.8546914,64.0700914 79.7796629,64.0856914 C79.7053771,64.1020343 79.6140057,64.1102057 79.5055486,64.1102057" id="Fill-39" fill="#FFFFFF" mask="url(#mask-2)"></path>
                    <path d="M80.93488,64.1101314 C80.5055086,64.1101314 80.2908229,63.8746457 80.2908229,63.4029314 C80.2908229,63.1681886 80.3495086,62.98916 80.4661371,62.8658457 C80.5827657,62.7417886 80.7499086,62.6801314 80.9683086,62.6801314 C81.1280229,62.6801314 81.2706514,62.7113314 81.39768,62.7737314 L81.2869943,63.0649314 C81.2275657,63.04116 81.1718514,63.0218457 81.1213371,63.0062457 C81.07008,62.9913886 81.0188229,62.9832171 80.9683086,62.9832171 C80.7721943,62.9832171 80.6741371,63.1221314 80.6741371,63.4007029 C80.6741371,63.67036 80.7721943,63.8048171 80.9683086,63.8048171 C81.0411086,63.8048171 81.1072229,63.7959029 81.16888,63.7758457 C81.2305371,63.7565314 81.2921943,63.7268171 81.3538514,63.6852171 L81.3538514,64.0076171 C81.2929371,64.0462457 81.2320229,64.0729886 81.1696229,64.0878457 C81.1072229,64.1027029 81.0292229,64.1101314 80.93488,64.1101314" id="Fill-40" fill="#FFFFFF" mask="url(#mask-2)"></path>
                    <path d="M82.25516,63.8101657 C82.3205314,63.8101657 82.3992743,63.7953086 82.4913886,63.76708 L82.4913886,64.0471371 C82.3977886,64.0887371 82.2826457,64.11028 82.1467029,64.11028 C81.9959029,64.11028 81.8867029,64.0723943 81.8176171,63.99588 C81.7485314,63.9193657 81.71436,63.8057086 81.71436,63.6534229 L81.71436,62.9885657 L81.5345886,62.9885657 L81.5345886,62.8295943 L81.7418457,62.7033086 L81.8503029,62.4121086 L82.0909886,62.4121086 L82.0909886,62.70628 L82.4772743,62.70628 L82.4772743,62.9885657 L82.0909886,62.9885657 L82.0909886,63.6534229 C82.0909886,63.7069086 82.1058457,63.74628 82.1363029,63.7715371 C82.1660171,63.7975371 82.2061314,63.8101657 82.25516,63.8101657" id="Fill-41" fill="#FFFFFF" mask="url(#mask-2)"></path>
                    <path d="M83.3418857,62.9476343 C83.2624,62.9476343 83.2,62.9728914 83.1546857,63.0234057 C83.1093714,63.07392 83.0833714,63.1459771 83.0766857,63.2388343 L83.6048571,63.2388343 C83.6033714,63.1459771 83.5788571,63.07392 83.5320571,63.0234057 C83.4845143,62.9728914 83.4213714,62.9476343 83.3418857,62.9476343 M83.3946286,64.1102057 C83.1725143,64.1102057 82.9994286,64.0485486 82.8746286,63.9259771 C82.7490857,63.8034057 82.6866857,63.6295771 82.6866857,63.4052343 C82.6866857,63.1742057 82.7446286,62.9951771 82.8605143,62.8696343 C82.9756571,62.7433486 83.1361143,62.6802057 83.3396571,62.6802057 C83.5342857,62.6802057 83.6865714,62.7351771 83.7942857,62.8466057 C83.9034857,62.9572914 83.9577143,63.1110629 83.9577143,63.3064343 L83.9577143,63.4891771 L83.0685143,63.4891771 C83.0722286,63.5961486 83.1041714,63.6793486 83.1636,63.73952 C83.2222857,63.7996914 83.3054857,63.8294057 83.4124571,63.8294057 C83.4956571,63.8294057 83.5736571,63.8212343 83.6479429,63.8041486 C83.7222286,63.78632 83.7994857,63.7588343 83.8804571,63.7216914 L83.8804571,64.0128914 C83.8143429,64.0455771 83.7437714,64.0700914 83.6687429,64.0856914 C83.5944571,64.1020343 83.5030857,64.1102057 83.3946286,64.1102057" id="Fill-42" fill="#FFFFFF" mask="url(#mask-2)"></path>
                    <polygon id="Fill-43" fill="#FFFFFF" mask="url(#mask-2)" points="52.5920571 77.0157143 77.3358857 77.0157143 77.3358857 71.2117714 52.5920571 71.2117714"></polygon>
                    <polygon id="Fill-44" fill="#FFFFFF" mask="url(#mask-2)" points="79.2606286 77.0157143 104.004457 77.0157143 104.004457 71.2117714 79.2606286 71.2117714"></polygon>
                    <polygon id="Fill-45" fill="#FFFFFF" mask="url(#mask-2)" points="52.5920571 86.4143429 104.004457 86.4143429 104.004457 80.6096571 52.5920571 80.6096571"></polygon>
                    <polygon id="Fill-46" fill="#FFFFFF" mask="url(#mask-2)" points="52.5920571 95.4155429 104.004457 95.4155429 104.004457 89.6108571 52.5920571 89.6108571"></polygon>
                    <polygon id="Fill-47" fill="#FFFFFF" mask="url(#mask-2)" points="52.5920571 104.615086 104.004457 104.615086 104.004457 98.8104 52.5920571 98.8104"></polygon>
                </g>
                <text id="DATE-DE-DÉBUT" font-family="LucidaGrande, Lucida Grande" font-size="2.5" font-weight="normal" letter-spacing="-0.03525" fill="#EF4F5D">
                    <tspan x="55" y="74">D</tspan>
                    <tspan x="56.8373086" y="74" letter-spacing="-0.192">A</tspan>
                    <tspan x="58.3701621" y="74">TE DE </tspan>
                    <tspan x="55" y="77">DÉBUT</tspan>
                </text>
                <text id="DATE-DE-FIN" font-family="LucidaGrande, Lucida Grande" font-size="2.5" font-weight="normal" letter-spacing="-0.03525" fill="#EF4F5D">
                    <tspan x="82" y="74">D</tspan>
                    <tspan x="83.8373086" y="74" letter-spacing="-0.192">A</tspan>
                    <tspan x="85.3701621" y="74">TE DE </tspan>
                    <tspan x="82" y="77">FIN</tspan>
                </text>
                <text id="HORAIRES" font-family="LucidaGrande, Lucida Grande" font-size="2.5" font-weight="normal" fill="#EF4F5D">
                    <tspan x="55" y="84">HO</tspan>
                    <tspan x="58.7792969" y="84" letter-spacing="0.0125">R</tspan>
                    <tspan x="60.3726074" y="84">AIR</tspan>
                    <tspan x="55" y="87">ES</tspan>
                </text>
                <text id="NOM-DU-LIEU-/-DE-LA-COLLECTE" font-family="LucidaGrande, Lucida Grande" font-size="2.5" font-weight="normal" fill="#EF4F5D">
                    <tspan x="55" y="93">NOM DU LIEU / DE LA </tspan>
                    <tspan x="55" y="96" letter-spacing="-0.0525">C</tspan>
                    <tspan x="56.6772363" y="96">OLLE</tspan>
                    <tspan x="62.6403711" y="96" letter-spacing="0.0705">C</tspan>
                    <tspan x="64.4406074" y="96">TE</tspan>
                </text>
                <text id="NUMÉRO-DE-TÉLÉPHONE" font-family="LucidaGrande, Lucida Grande" font-size="2.5" font-weight="normal" fill="#EF4F5D">
                    <tspan x="55" y="102">NUMÉ</tspan>
                    <tspan x="62.0874023" y="102" letter-spacing="0.0075">R</tspan>
                    <tspan x="63.6757129" y="102">O</tspan>
                    <tspan x="65.6178516" y="102" letter-spacing="0.10275"> </tspan>
                    <tspan x="66.5116172" y="102">DE </tspan>
                    <tspan x="55" y="105">TÉLÉPHONE</tspan>
                </text>
                <path d="M2,79 C2,37.0265162 36.0261827,3 78,3 C119.973073,3 154,37.0265162 154,79 C154,120.973484 119.973073,155 78,155 C36.0261827,155 2,120.973484 2,79 Z" id="Stroke-49" stroke="#E9364B" stroke-width="5"></path>
            </g>
        </g>
    </g>
</svg>