<svg height="158" viewBox="0 0 159 158" width="159" xmlns="http://www.w3.org/2000/svg" xmlns:xlink="http://www.w3.org/1999/xlink"><mask id="a" fill="#fff"><path d="m.07501456 76.5319369c0 42.0943111 34.12345634 76.2185101 76.21776704 76.2185101 42.0935684 0 76.2170244-34.124199 76.2170244-76.2185101 0-42.093568-34.123456-76.21702428-76.2170244-76.21702428-42.0943107 0-76.21776704 34.12345628-76.21776704 76.21702428z" fill="#fff" fill-rule="evenodd"/></mask><g fill="none" fill-rule="evenodd" transform="translate(3 2)"><path d="m154 76.4996273c0 42.2503907-34.249982 76.5003727-76.4996273 76.5003727-42.250391 0-76.5003727-34.249982-76.5003727-76.5003727 0-42.2496456 34.2499817-76.4996273 76.5003727-76.4996273 42.2496453 0 76.4996273 34.2499817 76.4996273 76.4996273" fill="#fff"/><path d="m159.686249 112.683757h-162.6568257l21.1466796 51.630816 61.4220728 4.282514 58.2328403-12.731679 19.808301-23.406029z" fill="#9e223e" mask="url(#a)" transform="translate(1)"/><path d="m92.9234678 96.7352576c0 1.7979365-1.4158098 3.2547951-3.1629951 3.2547951h-60.1581073c-1.7471854 0-3.1629952-1.4568586-3.1629952-3.2547951v-47.2837171c0-1.7986829 1.4158098-3.2555415 3.1629952-3.2555415h60.1581073c1.7471853 0 3.1629951 1.4568586 3.1629951 3.2555415z" fill="#e8364b"/><path d="m122.682416 81.5802717-6.927542-15.1544634c-1.116527-2.0285561-2.508454-3.2555415-4.254893-3.2555415h-15.4134434c-1.7471854 0-3.1629952 1.4576049-3.1629952 3.2555415v30.3096732c0 1.7979365 1.4158098 3.2547951 3.1629952 3.2547951h13.9446434 4.743747 9.488985c1.747186 0 3.162249-1.4568586 3.162249-3.2547951v-10.0793415c0-4.1862293-2.996561-5.0758683-4.743746-5.0758683" fill="#ffa2ab"/><path d="m117.40914 81.5802717-4.59821-10.0576976c-.765746-1.3926731-1.722556-2.2345463-2.92118-2.2345463h-10.5816295c-1.1986244 0-2.1711073 1.0000976-2.1711073 2.2345463v10.0576976z" fill="#fff"/><path d="m129.911852 101.371456c0 .261966-.204497.472434-.458253.472434h-104.0616444c-.2537561 0-.4582536-.210468-.4582536-.472434v-4.1645853c0-.2604731.2044975-.4716878.4582536-.4716878h104.0616444c.253756 0 .458253.2112147.458253.4716878z" fill="#ffa2ab"/><path d="m50.9140712 103.863416c0 5.393809-4.2481756 9.765878-9.4889853 9.765878-5.2400635 0-9.4889854-4.372069-9.4889854-9.765878 0-5.3938101 4.2489219-9.7666248 9.4889854-9.7666248 5.2408097 0 9.4889853 4.3728147 9.4889853 9.7666248" fill="#9e223e"/><path d="m45.7173702 103.863416c0 2.43979-1.9218292 4.418341-4.2922097 4.418341s-4.2922098-1.978551-4.2922098-4.418341c0-2.440537 1.9218293-4.4183419 4.2922098-4.4183419s4.2922097 1.9778049 4.2922097 4.4183419" fill="#fff"/><path d="m120.86903 103.863416c0 5.393809-4.248922 9.765878-9.488986 9.765878-5.240063 0-9.488985-4.372069-9.488985-9.765878 0-5.3938101 4.248922-9.7666248 9.488985-9.7666248 5.240064 0 9.488986 4.3728147 9.488986 9.7666248" fill="#9e223e"/><path d="m115.672329 103.863416c0 2.43979-1.921829 4.418341-4.29221 4.418341-2.371127 0-4.292956-1.978551-4.292956-4.418341 0-2.440537 1.921829-4.4183419 4.292956-4.4183419 2.370381 0 4.29221 1.9778049 4.29221 4.4183419" fill="#fff"/><path d="m59.9372649 86.2310985-.2559951.1216537-.2559952-.1216537c-2.2964926-1.0971219-4.2317561-2.6510048-5.7602634-4.6153756.0029854-.0835902-.0268683-.1731512-.1022488-.2701756-1.2135512-1.5852293-2.1621512-3.4354097-2.8189317-5.5005366-1.1142878-3.5003414-1.0052643-6.3909219-1.0000975-6.5125756l.0194048-.461239.5015415-.0514976c2.6823512-.2746536 4.9870537-1.2754975 6.4483903-2.0658731 1.5635853-.8463513 2.542039-1.6546391 2.5845804-1.6897171l.3843659-.3246585.3858585.3268975c.1029952.0850829 1.0508488.859039 2.5815952 1.6874781 1.4605902.7903756 3.7645463 1.7912195 6.4483902 2.0658731l.5015415.0514976.0201512.461239c.004478.1216537.1134439 3.0129805-1.0000976 6.5125756-.6567805 2.0651269-1.6061268 3.9160537-2.8204244 5.5005366-.0753805.0985171-.1067268.1903171-.1067268.2768927-1.5270146 1.9613854-3.4615317 3.5122829-5.755039 4.6086585m12.6572049-9.7203512c0-3.1883707-.2836098-6.0856683-.850083-8.631439-1.6434439-7.3843024-5.667717-11.8123463-12.063117-11.8123463-6.3222586 0-10.3286196 4.3280341-12.0063952 11.5623219-.6045366 2.6054781-.9075512 5.5878585-.9075512 8.8814634 0 1.4479025.0791122 2.8629659.2283805 4.2347415.0208976-.0044781.0395561-.0111951.0597073-.0164195-.0007463.0141805-.0037317.0283609-.0037317.0432878 0 1.6120975 5.1370683 1.9151122 6.3565903 1.1844439 1.5561219 1.9748195 3.5175073 3.5406439 5.8386292 4.648961l.4343708.2067365.435117-.2067365c2.3114195-1.1045854 4.2653415-2.6614537 5.8184781-4.6243318 1.1583219.7702244 6.0714878.607522 6.3909219-.8881463.0223903-.1059805.0373171-.2127073.0373171-.3209268v-.0007464c.1522537-1.3799853.2313659-2.8040048.2313659-4.2608634" fill="#fff"/><path d="m.32174781 76.7961483c0-42.0645512 34.09959509-76.16563903 76.16489269-76.16563903 42.0645515 0 76.1656395 34.10108783 76.1656395 76.16563903 0 42.0645517-34.101088 76.1648927-76.1656395 76.1648927-42.0652976 0-76.16489269-34.100341-76.16489269-76.1648927z" stroke="#ffd8dd" stroke-width="5"/></g></svg>