<?xml version="1.0" encoding="UTF-8"?>
<svg width="159px" height="158px" viewBox="0 0 159 158" version="1.1" xmlns="http://www.w3.org/2000/svg" xmlns:xlink="http://www.w3.org/1999/xlink">
    <title>Group 27</title>
    <defs>
        <path d="M0.0750145631,76.5319369 C0.0750145631,118.626248 34.1984709,152.750447 76.2927816,152.750447 L76.2927816,152.750447 C118.38635,152.750447 152.509806,118.626248 152.509806,76.5319369 L152.509806,76.5319369 C152.509806,34.4383689 118.38635,0.314912621 76.2927816,0.314912621 L76.2927816,0.314912621 C34.1984709,0.314912621 0.0750145631,34.4383689 0.0750145631,76.5319369 L0.0750145631,76.5319369 Z" id="path-1"></path>
    </defs>
    <g id="Page-1" stroke="none" stroke-width="1" fill="none" fill-rule="evenodd">
        <g id="ORGANISER-UNE-COLLECTE" transform="translate(-1031.000000, -1746.000000)">
            <g id="Group-27" transform="translate(1034.321748, 1748.000000)">
                <path d="M153.678252,76.4996273 C153.678252,118.750018 119.42827,153 77.1786249,153 C34.9282339,153 0.678252195,118.750018 0.678252195,76.4996273 C0.678252195,34.2499817 34.9282339,0 77.1786249,0 C119.42827,0 153.678252,34.2499817 153.678252,76.4996273" id="Fill-1" fill="#FFFFFF"></path>
                <g id="Group-5" transform="translate(0.678252, 0.000000)">
                    <mask id="mask-2" fill="white">
                        <use xlink:href="#path-1"></use>
                    </mask>
                    <g id="Clip-4"></g>
                    <polygon id="Fill-3" fill="#9E223E" mask="url(#mask-2)" points="159.686249 112.683757 -2.9705767 112.683757 18.1761029 164.314573 79.5981757 168.597087 137.831016 155.865408 157.639317 132.459379"></polygon>
                </g>
                <g id="Group-26" transform="translate(-0.000000, 0.630509)">
                    <path d="M92.60172,96.1047483 C92.60172,97.9026849 91.1859102,99.3595434 89.4387249,99.3595434 L29.2806176,99.3595434 C27.5334322,99.3595434 26.1176224,97.9026849 26.1176224,96.1047483 L26.1176224,48.8210312 C26.1176224,47.0223483 27.5334322,45.5654898 29.2806176,45.5654898 L89.4387249,45.5654898 C91.1859102,45.5654898 92.60172,47.0223483 92.60172,48.8210312 L92.60172,96.1047483 Z" id="Fill-6" fill="#E8364B"></path>
                    <path d="M122.360668,80.9497624 L115.433126,65.795299 C114.3166,63.7667429 112.924673,62.5397576 111.178234,62.5397576 L95.7647898,62.5397576 C94.0176044,62.5397576 92.6017946,63.9973624 92.6017946,65.795299 L92.6017946,96.1049722 C92.6017946,97.9029088 94.0176044,99.3597673 95.7647898,99.3597673 L109.709434,99.3597673 L114.45318,99.3597673 L123.942165,99.3597673 C125.689351,99.3597673 127.104414,97.9029088 127.104414,96.1049722 L127.104414,86.0256307 C127.104414,81.8394015 124.107853,80.9497624 122.360668,80.9497624" id="Fill-8" fill="#FFA2AB"></path>
                    <path d="M117.087392,80.9497624 L112.489182,70.8920649 C111.723436,69.4993917 110.766626,68.6575185 109.568002,68.6575185 L98.9863727,68.6575185 C97.7877483,68.6575185 96.8152654,69.6576161 96.8152654,70.8920649 L96.8152654,80.9497624 L117.087392,80.9497624 Z" id="Fill-10" fill="#FFFFFF"></path>
                    <path d="M129.590104,100.740947 C129.590104,101.002913 129.385607,101.213381 129.131851,101.213381 L25.0702068,101.213381 C24.8164507,101.213381 24.6119532,101.002913 24.6119532,100.740947 L24.6119532,96.5763615 C24.6119532,96.3158883 24.8164507,96.1046737 25.0702068,96.1046737 L129.131851,96.1046737 C129.385607,96.1046737 129.590104,96.3158883 129.590104,96.5763615 L129.590104,100.740947 Z" id="Fill-12" fill="#FFA2AB"></path>
                    <path d="M50.5923234,103.232906 C50.5923234,108.626716 46.3441478,112.998784 41.103338,112.998784 C35.8632746,112.998784 31.6143527,108.626716 31.6143527,103.232906 C31.6143527,97.8390966 35.8632746,93.466282 41.103338,93.466282 C46.3441478,93.466282 50.5923234,97.8390966 50.5923234,103.232906" id="Fill-14" fill="#9E223E"></path>
                    <path d="M45.3956224,103.232906 C45.3956224,105.672697 43.4737932,107.651248 41.1034127,107.651248 C38.7330322,107.651248 36.8112029,105.672697 36.8112029,103.232906 C36.8112029,100.79237 38.7330322,98.8145649 41.1034127,98.8145649 C43.4737932,98.8145649 45.3956224,100.79237 45.3956224,103.232906" id="Fill-16" fill="#FFFFFF"></path>
                    <path d="M120.547282,103.232906 C120.547282,108.626716 116.29836,112.998784 111.058297,112.998784 C105.818233,112.998784 101.569311,108.626716 101.569311,103.232906 C101.569311,97.8390966 105.818233,93.466282 111.058297,93.466282 C116.29836,93.466282 120.547282,97.8390966 120.547282,103.232906" id="Fill-18" fill="#9E223E"></path>
                    <path d="M115.350581,103.232906 C115.350581,105.672697 113.428752,107.651248 111.058371,107.651248 C108.687244,107.651248 106.765415,105.672697 106.765415,103.232906 C106.765415,100.79237 108.687244,98.8145649 111.058371,98.8145649 C113.428752,98.8145649 115.350581,100.79237 115.350581,103.232906" id="Fill-20" fill="#FFFFFF"></path>
                    <path d="M59.6155171,85.6005893 L59.359522,85.7222429 L59.1035268,85.6005893 C56.8070341,84.5034673 54.8717707,82.9495844 53.3432634,80.9852137 C53.3462488,80.9016234 53.3163951,80.8120624 53.2410146,80.715038 C52.0274634,79.1298088 51.0788634,77.2796283 50.4220829,75.2145015 C49.3077951,71.71416 49.4168186,68.8235795 49.4219854,68.7019259 L49.4413902,68.2406868 L49.9429317,68.1891893 C52.6252829,67.9145356 54.9299854,66.9136917 56.391322,66.1233161 C57.9549073,65.2769649 58.933361,64.4686771 58.9759024,64.433599 L59.3602683,64.1089405 L59.7461268,64.435838 C59.849122,64.520921 60.7969756,65.2948771 62.327722,66.1233161 C63.7883122,66.9136917 66.0922683,67.9145356 68.7761122,68.1891893 L69.2776537,68.2406868 L69.2978049,68.7019259 C69.3022829,68.8235795 69.4112488,71.7149063 68.2977073,75.2145015 C67.6409268,77.2796283 66.6915805,79.1305551 65.4772829,80.715038 C65.4019024,80.8135551 65.3705561,80.9053551 65.3705561,80.9919307 C63.8435415,82.9533161 61.9090244,84.5042137 59.6155171,85.6005893 M72.272722,75.880238 C72.272722,72.6918673 71.9891122,69.7945698 71.422639,67.248799 C69.7791951,59.8644966 65.754922,55.4364527 59.359522,55.4364527 C53.0372634,55.4364527 49.0309024,59.7644868 47.3531268,66.9987746 C46.7485902,69.6042527 46.4455756,72.5866332 46.4455756,75.880238 C46.4455756,77.3281405 46.5246878,78.7432039 46.6739561,80.1149795 C46.6948537,80.1105015 46.7135122,80.1037844 46.7336634,80.09856 C46.7329171,80.1127405 46.7299317,80.126921 46.7299317,80.1418478 C46.7299317,81.7539454 51.867,82.05696 53.086522,81.3262917 C54.6426439,83.3011112 56.6040293,84.8669356 58.9251512,85.9752527 L59.359522,86.1819893 L59.794639,85.9752527 C62.1060585,84.8706673 64.0599805,83.313799 65.6131171,81.350921 C66.771439,82.1211454 71.6846049,81.9584429 72.004039,80.4627746 C72.0264293,80.3567941 72.0413561,80.2500673 72.0413561,80.1418478 L72.0413561,80.1411015 C72.1936098,78.7611161 72.272722,77.3370966 72.272722,75.880238" id="Fill-22" fill="#FFFFFF"></path>
                    <path d="M0,76.165639 C0,34.1010878 34.0995951,0 76.1648927,0 C118.229444,0 152.330532,34.1010878 152.330532,76.165639 C152.330532,118.23019 118.229444,152.330532 76.1648927,152.330532 C34.0995951,152.330532 0,118.23019 0,76.165639 Z" id="Stroke-24" stroke="#E9364B" stroke-width="5"></path>
                </g>
            </g>
        </g>
    </g>
</svg>