<svg height="158" viewBox="0 0 158 158" width="158" xmlns="http://www.w3.org/2000/svg" xmlns:xlink="http://www.w3.org/1999/xlink"><mask id="a" fill="#fff"><path d="m.62120773 76.9628019c0 42.1647541 34.18130437 76.3453141 76.34531397 76.3453141 42.1647533 0 76.3453143-34.18056 76.3453143-76.3453141 0-42.1640096-34.180561-76.34457002-76.3453143-76.34457002-42.1640096 0-76.34531397 34.18056042-76.34531397 76.34457002" fill="#fff" fill-rule="evenodd"/></mask><mask id="b" fill="#fff"><path d="m.62120773 76.9628019c0 42.1647541 34.18130437 76.3453141 76.34531397 76.3453141 42.1647533 0 76.3453143-34.18056 76.3453143-76.3453141 0-42.1640096-34.180561-76.34457002-76.3453143-76.34457002-42.1640096 0-76.34531397 34.18056042-76.34531397 76.34457002" fill="#fff" fill-rule="evenodd"/></mask><mask id="c" fill="#fff"><path d="m.62120773 76.9628019c0 42.1647541 34.18130437 76.3453141 76.34531397 76.3453141 42.1647533 0 76.3453143-34.18056 76.3453143-76.3453141 0-42.1640096-34.180561-76.34457002-76.3453143-76.34457002-42.1640096 0-76.34531397 34.18056042-76.34531397 76.34457002z" fill="#fff" fill-rule="evenodd"/></mask><g fill="none" fill-rule="evenodd" transform="translate(1 1)"><path d="m153 77.4996273c0 42.2503907-34.249982 76.5003727-76.5003727 76.5003727-42.2496456 0-76.4996273-34.249982-76.4996273-76.5003727 0-42.2496456 34.2499817-76.4996273 76.4996273-76.4996273 42.2503907 0 76.5003727 34.2499817 76.5003727 76.4996273" fill="#fff"/><path d="m117.20568 102.055949 4.844677 33.775101c1.784763 10.970454-11.924213 13.633836-15.318909 3.475044l-8.7638644-31.940493c-4.2018937-17.1654203 15.8181064-19.8741836 19.2380964-5.309652" fill="#f5c7a3" mask="url(#a)"/><path d="m37.3199285 102.055949-4.8454203 33.775101c-1.7840193 10.970454 11.9242126 13.633836 15.3196522 3.475044l8.7631208-31.940493c4.2026376-17.1654203-15.8181063-19.8741836-19.2373527-5.309652" fill="#f5c7a3" mask="url(#b)"/><path d="m67.277913 82.8103382h20.733459v-28.7154203h-20.733459z" fill="#f5c7a3" mask="url(#c)"/><path d="m90.2283768 26.6507043c-.7744638-.8198454-1.694-1.539256-2.7757198-2.1344251-4.8000386-2.637343-11.0597295-1.5489275-15.6417874 1.0571691-1.9104928 1.0861836-5.4569566 3.8566957-6.6309276 8.6254879-.0089275 0-6.1525604 1.079488-1.5608309 11.6407633 6.8905701 9.5383285 22.6141932 14.6329759 28.0079131 1.4187343 2.5659227-6.2887053 3.4973623-15.4252947-1.3986474-20.6077295" fill="#e8364b" mask="url(#c)"/><path d="m64.9685082 47.4445729c-.5914493-.9902125-1.5466956-2.0235748-2.7816715-1.4313816-2.1188019 1.0140193-2.4483768 10.1773913 2.7816715 10.9890531.6130242 0 .577314-8.8769468 0-9.5576715" fill="#f5c7a3" mask="url(#c)"/><path d="m90.7507121 47.4445729c.5921932-.9902125 1.5474396-2.0235748 2.7824154-1.4313816 2.118802 1.0140193 2.4483768 10.1773913-2.7824154 10.9890531-.6122802 0-.5765701-8.8769468 0-9.5576715" fill="#f5c7a3" mask="url(#c)"/><path d="m77.828029 30.1459836c-7.2833817 0-13.2425121 5.9591304-13.2425121 13.2417681v16.3827729c0 7.2833817 5.9591304 13.2425121 13.2425121 13.2425121 7.2826377 0 13.2417681-5.9591304 13.2417681-13.2425121v-16.3827729c0-7.2826377-5.9591304-13.2417681-13.2417681-13.2417681" fill="#f5c7a3" mask="url(#c)"/><path d="m75.0418193 57.0020213c.077372 1.4908985 1.3078841 2.6767729 2.8181256 2.6767729 1.5102416 0 2.7400097-1.1858744 2.8173817-2.6767729z" fill="#fff" mask="url(#c)"/><path d="m75.4304647 57.5228686c.3161836-.0029758.6524541.0796039.9463189.1398647.7238744.1487923 1.4254299.289401 2.1626956.1502802.4969662-.0937391.982773-.2559227 1.4908986-.2767536.3794203-.0163671.9195362.0104155 1.1293333.3898358.5058937.9128405-.3556135 1.7951787-1.3123478 2.1009468-.9470628.3027923-2.0637488.3362705-3.0599131.2358358-.6360869-.0647247-1.3554975-.2276522-1.8338647-.616744-.2581546-.212029-.4381932-.4835749-.5282126-.7804155-.0037198-.0163671-.0081835-.0319903-.0126473-.0491014-.1368889-.5163092.096715-1.1315652.7469372-1.2669662.0870435-.0178551.1778068-.0260386.2708019-.0267826zm12.8735073-23.3246763s1.7535169 21.9185893-1.2729179 25.6889855c-.3124638.327343-.6762609.5215169-1.098087.5475555-.7350338.0468696-1.0988309-.73057-1.3443381-1.2967246-.2797295-.6457585-.5378841-1.2431594-1.0348503-1.7594686-1.4098067-1.4656039-3.6982318-1.9499227-5.6258357-1.9216522-1.9990242.0290145-4.1349372.3325507-5.6570821 1.8160097-.0327343.0312464-.0654686.0639807-.097459.0974589-.0022319.0022319-.0052077.0052078-.0074396.0081836-.4977101.5163092-.7551208 1.1137101-1.0341063 1.7594686-.2455072.5661546-.6100483 1.3435942-1.3450821 1.2967246-.4218261-.0260386-.7856232-.2202125-1.0980869-.5475555-3.0271788-3.7703962-1.2729179-25.6889855-1.2729179-25.6889855l-2.9445991 4.7992947s.0721643 20.7676811.0721643 20.7728888c.0133913 3.7666764 1.501314 7.4916909 4.273314 10.0747247 2.445401 2.2794976 5.7344541 3.3455942 9.028715 3.310628.0052077.0008324.0096715 0 .0148792 0 .0037198 0 .0089275.0008324.0133913 0 3.2950048.0349662 6.584058-1.0311304 9.029459-3.310628 2.772-2.5830338 4.2599227-6.3080483 4.273314-10.0747247 0-.0052077.0729082-20.7728888.0729082-20.7728888z" fill="#e8364b" mask="url(#c)"/><path d="m66.6933082 37.7214444s15.1760676 5.3743769 23.619285.0282706c8.4432174-5.3446184-9.2236328-11.2650628-9.2236328-11.2650628l-7.8361449 2.1254976-4.7985508 4.0092077-1.7609565 3.157372z" fill="#e8364b" mask="url(#c)"/><path d="m71.1861652 43.6709778c-2.8434203 0-5.1571401 2.3137198-5.1571401 5.1571401s2.3137198 5.1563961 5.1571401 5.1563961c2.8426763 0 5.1571401-2.3129758 5.1571401-5.1563961s-2.3144638-5.1571401-5.1571401-5.1571401m0 11.0783285c-3.2652464 0-5.9211884-2.656686-5.9211884-5.9211884s2.655942-5.9204445 5.9211884-5.9204445c3.2645024 0 5.9211884 2.6559421 5.9211884 5.9204445s-2.656686 5.9211884-5.9211884 5.9211884" fill="#fff" mask="url(#c)"/><path d="m84.4691488 43.6709778c-2.8426763 0-5.1571401 2.3137198-5.1571401 5.1571401s2.3144638 5.1563961 5.1571401 5.1563961c2.8434203 0 5.1571401-2.3129758 5.1571401-5.1563961s-2.3137198-5.1571401-5.1571401-5.1571401m0 11.0783285c-3.2645024 0-5.9204445-2.656686-5.9204445-5.9211884s2.6559421-5.9204445 5.9204445-5.9204445c3.2652464 0 5.9211884 2.6559421 5.9211884 5.9204445s-2.655942 5.9211884-5.9211884 5.9211884" fill="#fff" mask="url(#c)"/><path d="m79.452543 46.5291285c-1.1620676-.5029179-2.1961739-.5066377-3.1625797-.0111594l-.3489179-.6799807c1.1672754-.597401 2.4506087-.6011208 3.8150338-.0104155z" fill="#fff" mask="url(#c)"/><path d="m67.4307227 37.9641246s7.5303768 4.4726957 14.7750725 3.1097585c0 0-3.8261933.0409179-5.5313527-1.9484348-.692628-.8912657-9.2437198-1.1613237-9.2437198-1.1613237" fill="#e8364b" mask="url(#c)"/><path d="m113.99876 88.6290831c-3.635739-11.7709565-12.89657-11.857256-12.89657-11.857256l-12.9836132-2.3375266c-7.2171691 5.1028309-14.1918068 4.9369275-20.9469758 0l-12.9836136 2.3375266c-6.0811401 1.3919516-11.6898647 6.2239806-13.821314 11.721855l-5.8222415 16.8447729 16.9608309 5.62286 2.598657 23.868512-2.2177488 25.816203s26.8517971 3.45942 50.140019 0l-1.289285-26.40542.712715-23.219034 18.002377-5.253855s-1.817497-5.366937-5.453237-17.1386379" fill="#9e223e" mask="url(#c)"/><path d="m67.1698899 132.03893-.019343-.02455c-.462-.582522-.3637971-1.438078.2202125-1.900078l5.9256522-4.695884c.5832657-.462744 1.4380773-.363053 1.9000773.219469l.019343.025295c.4627439.582521.3630531 1.437333-.2194686 1.899333l-5.9263962 4.696628c-.5825217.462-1.4380772.362309-1.9000772-.220213" fill="#f5c7a3" mask="url(#c)"/><path d="m38.7380676 130.146367h76.4502124v-47.1611979h-76.4502124z" fill="#e8364b" mask="url(#c)"/><path d="m77.346314 118.1703-.230628.109363-.2298841-.109363c-2.0667246-.987236-3.8090821-2.38514-5.1846666-4.153536.0022318-.07514-.0245508-.156232-.0915073-.243275-1.0928792-1.426174-1.9462029-3.091903-2.5376522-4.950319-1.0021159-3.150676-.9046907-5.752309-.9001932-5.860927l.0178551-.415875.4515845-.046125c2.4141546-.24774 4.4883189-1.147189 5.8036425-1.85916 1.406831-.7618163 2.2876812-1.4894105 2.3263672-1.5206569l.3451981-.2923768.3474299.2938647c.0929952.076628.9463188.7737198 2.3233913 1.519169 1.3145797.711971 3.388 1.61142 5.8036425 1.85916l.4515846.046125.017855.415875c.0044976.108618.1019227 2.710251-.9001932 5.860927-.5907053 1.858416-1.444773 3.524145-2.5376522 4.950319-.0684444.088531-.096715.171111-.095971.249227-1.3748406 1.76542-3.1157101 3.161836-5.1802029 4.147584m11.3922802-8.748241c0-2.869459-.2559227-5.477044-.7655362-7.767701-1.4789952-6.6472942-5.101343-10.6319512-10.857372-10.6319512-5.6898164 0-9.2950531 3.8953816-10.8052947 10.4065312-.5438357 2.344966-.8161256 5.029923-.8161256 7.993121 0 1.302676.0706763 2.577082.2053333 3.811314.0178551-.004464.0357102-.009672.0528213-.014135 0 .011903-.0029759.025294-.0029759.037942 0 1.451468 4.6237199 1.723758 5.7210628 1.06684 1.4001353 1.77658 3.1648116 3.185643 5.2545991 4.183295l.3905797.186734.3920676-.186734c2.080116-.993188 3.8388406-2.395556 5.236744-4.16172 1.0422898.693372 5.4643961.546812 5.7508212-.799758.020831-.095227.0342223-.191198.0342223-.288657.1368889-1.241672.2090531-2.523517.2090531-3.835121" fill="#fff" mask="url(#c)"/><g fill="#f5c7a3"><path d="m74.5942522 126.005106-32.0989565 3.168532c-11.0366667 1.304908-12.7157875 16.016744-2.0146474 16.483951l34.0994686-8.604657c1.2811015-3.623835 1.3056522-7.235768.0141353-11.047826" mask="url(#c)"/><path d="m79.9312821 126.005106 32.0989569 3.168532c11.036666 1.304908 12.715043 16.016744 2.014647 16.483951l-34.0994686-8.604657c-1.2811015-3.623835-1.3056522-7.235768-.0141353-11.047826" mask="url(#c)"/><path d="m81.0095053 131.704743c0 4.46972-3.6230918 8.092812-8.0928116 8.092812-4.4689758 0-8.0920676-3.623092-8.0920676-8.092812s3.6230918-8.092812 8.0920676-8.092812c4.4697198 0 8.0928116 3.623092 8.0928116 8.092812" mask="url(#c)"/><path d="m89.1022425 131.704743c0 4.46972-3.6230918 8.092812-8.0928116 8.092812s-8.0928116-3.623092-8.0928116-8.092812 3.6230918-8.092812 8.0928116-8.092812 8.0928116 3.623092 8.0928116 8.092812" mask="url(#c)"/></g><path d="m2 78.0003724c0-41.9732782 34.0261827-76.0003724 76-76.0003724 41.973073 0 76 34.0270942 76 76.0003724 0 41.9732786-34.026927 75.9996276-76 75.9996276-41.9738173 0-76-34.026349-76-75.9996276z" stroke="#ffd8dd" stroke-width="5"/></g></svg>