<svg height="158" viewBox="0 0 158 158" width="158" xmlns="http://www.w3.org/2000/svg" xmlns:xlink="http://www.w3.org/1999/xlink"><mask id="a" fill="#fff"><path d="m0 156h155.333657v-155.33365714h-155.333657z" fill="#fff" fill-rule="evenodd"/></mask><g fill="none" fill-rule="evenodd" transform="translate(1)"><path d="m153.887909 78.2966229c0 42.1014281-34.129829 76.2320001-76.2320004 76.2320001-42.1014286 0-76.23125717-34.130572-76.23125717-76.2320001 0-42.1014286 34.12982857-76.23200004 76.23125717-76.23200004 42.1021714 0 76.2320004 34.13057144 76.2320004 76.23200004" fill="#fff"/><path d="m125.592629 110.22024h-95.8939433c-1.5912 0-2.8934286-1.302229-2.8934286-2.894171v-51.4116576c0-1.5919428 1.3022286-2.8941714 2.8934286-2.8941714h95.8939433c1.591942 0 2.894171 1.3022286 2.894171 2.8941714v51.4116576c0 1.591942-1.302229 2.894171-2.894171 2.894171" fill="#ffd8dd"/><path d="m126.103343 110.22024h-95.8946859c-1.5912 0-2.8934285-1.302229-2.8934285-2.894171v-58.0594861c0-1.5912 1.3022285-2.8934286 2.8934285-2.8934286h95.8946859c1.591943 0 2.894171 1.3022286 2.894171 2.8934286v58.0594861c0 1.591942-1.302228 2.894171-2.894171 2.894171z" stroke="#e7364b" stroke-width="2.3"/><path d="m27.314931 53.419971h101.682286" stroke="#e7364b" stroke-width="2.3"/><path d="m32.2305657 50.0176114c0 .4888-.3966857.8847429-.8854857.8847429-.4895429 0-.8854857-.3959429-.8854857-.8847429s.3959428-.8854857.8854857-.8854857c.4888 0 .8854857.3966857.8854857.8854857" fill="#e8364b"/><path d="m35.0896 50.0176114c0 .4888-.3959429.8847429-.8847429.8847429-.4895428 0-.8854857-.3959429-.8854857-.8847429s.3959429-.8854857.8854857-.8854857c.4888 0 .8847429.3966857.8847429.8854857" fill="#e8364b"/><path d="m37.9493029 50.0176114c0 .4888-.3966858.8847429-.8854858.8847429s-.8854857-.3959429-.8854857-.8847429.3966857-.8854857.8854857-.8854857.8854858.3966857.8854858.8854857" fill="#e8364b"/><path d="m84.4946514 66.10656h-29.1742285c-1.4730858 0-2.678-1.2049143-2.678-2.6772571 0-1.4730858 1.2049142-2.678 2.678-2.678h29.1742285c1.4723429 0 2.6772572 1.2049142 2.6772572 2.678 0 1.4723428-1.2049143 2.6772571-2.6772572 2.6772571" fill="#e8364b"/><g fill="#fff"><path d="m56.2581314 63.1808914c0 .2013143.0386286.3536.1144.4553715.0772572.1017714.1909143.1530285.3432.1530285.3053143 0 .4576-.2028.4576-.6084 0-.4063428-.1515428-.6091428-.4546285-.6091428-.1522858 0-.2666858.0512571-.3446858.1530285-.0772571.1025143-.1158857.2548-.1158857.4561143m1.3163429 0c0 .2986286-.0735429.5281715-.2213714.6886286-.1485715.1604571-.3610286.2406857-.6373715.2406857-.2763428 0-.4880571-.0802286-.6358857-.2406857-.1485714-.1604571-.2228571-.3907429-.2228571-.6908571 0-.3001143.0750285-.5296572.2228571-.6878858.1485714-.1589714.3610286-.2377142.6388572-.2377142.2770857 0 .4888.0794857.6358857.2392.1470857.1597142.2198857.3892571.2198857.6886285"/><path d="m58.6890571 62.6799086c.0505143 0 .0928572.0037143.1270286.0111428l-.0282286.3528572c-.0304571-.0081715-.0676-.0118857-.1114285-.0118857-.1203429 0-.2139429.0304571-.2808.0921142-.0668572.0616572-.1002857.1478286-.1002857.2592572v.702h-.3766286v-1.3794857h.2852571l.0557143.2317714h.0178286c.0430857-.0772571.1010286-.1396571.1738286-.1864571.0728-.0475429.1522857-.0713143.2377142-.0713143"/><path d="m59.3390571 63.1572686c0 .0750285.0170858.1344571.0512572.1775428.0341714.0438286.0861714.0661143.156.0661143.0705714 0 .1225714-.0222857.1552571-.0661143.0326857-.0430857.0497715-.1025143.0497715-.1775428 0-.1664-.0683429-.2488572-.2050286-.2488572-.1381714 0-.2072572.0824572-.2072572.2488572zm-.1374285 1.1232c0 .052.026.0921143.0750285.1218285.0497715.0297143.1196.0445715.2087429.0445715.1352 0 .2406857-.0185715.3179429-.0557143.0765142-.0371429.1144-.0876572.1144-.1515429 0-.052-.0222858-.0876571-.0683429-.1077143-.0445714-.0193142-.1151429-.0297142-.2094857-.0297142h-.1946286c-.0690857 0-.1270286.0163428-.1738286.0490285-.0460571.0326857-.0698285.0757715-.0698285.1292572zm1.0652571-1.5741143v.1909143l-.2161714.0557143c.0401143.0616571.0594286.13.0594286.2065142 0 .1485715-.0512572.2637143-.1545143.3461715-.104.0832-.2466286.1240571-.4301143.1240571l-.0683429-.0037143-.0549714-.0059428c-.0393714.0297143-.0579429.0624-.0579429.0988 0 .0542285.0690858.0817143.2072572.0817143h.2347428c.1508 0 .2659429.0319428.3454286.0973142.0794857.0646286.1196.1604572.1196.286 0 .1612-.0676.2867429-.2020571.3751429-.1352.0891429-.3276.1329714-.5794286.1329714-.1924 0-.3394857-.0334285-.4412571-.1002857-.1017715-.0668571-.1522858-.1612-.1522858-.2815428 0-.0832.026-.1530286.0772572-.2087429.0527428-.0564571.1285143-.0958286.2288-.1196-.0386286-.0170857-.0728-.0438286-.1010286-.0809714-.0289714-.0371429-.0430857-.0772572-.0430857-.1188572 0-.0527428.0148571-.0965714.0453143-.1314857.0304571-.0349143.0750286-.0698286.1322286-.1032571-.0728-.0312-.13-.0809715-.1716-.1508-.0430858-.0690857-.0638858-.1500572-.0638858-.2436572 0-.1508.0490286-.2674285.1470858-.3498857.0973142-.0817143.2369714-.1233143.4189714-.1233143.0386286 0 .0846857.0037143.1374286.0111429.0534857.0066857.0869142.0118857.1025142.0156z"/><path d="m61.2586 63.4460171-.1448571.0052c-.1099429.0029715-.1909143.0230286-.2444.0586858-.0542286.0364-.0809715.0913714-.0809715.1656571 0 .1062286.0609143.1589714.1827429.1589714.0869143 0 .1567428-.0245143.2094857-.0750285.052-.0505143.078-.1166286.078-.1998286zm.1114286.6388572-.0728-.1872h-.0096572c-.0638857.0794857-.1292571.1352-.1961143.1664-.0661142.0304571-.1545142.0460571-.2614857.0460571-.1329714 0-.2369714-.0378857-.3134857-.1136571-.0757714-.0757714-.1136571-.1834857-.1136571-.3231429 0-.1463428.0512571-.2548.1537714-.3238857.1017714-.0698286.2562857-.1077143.4635429-.1158857l.2384571-.0066857v-.0609143c0-.1396571-.0713143-.2094857-.2139429-.2094857-.1106857 0-.2399428.0334286-.3892571.1002857l-.1240571-.2548c.1582285-.0832.3342857-.1248.5274285-.1248.1849715 0 .3276.0408571.4264.1210857.0980572.0809714.1478286.2035429.1478286.3677143v.9189143z"/><path d="m63.2935086 64.0850971h-.3766286v-.8052571c0-.0995429-.0170857-.1745714-.0527429-.2243429-.0356571-.0497714-.0913714-.0742857-.1693714-.0742857-.1047428 0-.1812571.0349143-.2273143.1054857-.0475428.0698286-.0705714.1864572-.0705714.3491429v.6492571h-.3766286v-1.3787428h.2874857l.0505143.1760571h.0215429c.0416-.0668571.0988-.1173714.1730857-.1515428.0735429-.0341715.1574857-.0512572.2510857-.0512572.1604572 0 .2822857.0438286.3647429.1307429.0832.0861714.1248.2117143.1248.3758857z"/><path d="m63.6860857 64.0848h.507v-1.3787429h-.507zm-.021-1.7353143c0-.1225714.092-.1842286.275-.1842286.185 0 .277.0616572.277.1842286 0 .0579429-.024.104-.07.1359429-.046.0326857-.115.0490285-.207.0490285-.183 0-.275-.0616571-.275-.1849714z" mask="url(#a)"/><path d="m65.4146629 63.6756343c0 .1411428-.0490286.2488571-.1478286.3231428-.0980572.0742858-.2451429.1114286-.4412572.1114286-.1002857 0-.1857142-.0066857-.2562857-.0208-.0705714-.0133714-.1366857-.0334286-.1983428-.0594286v-.3112571c.0690857.0334286.1485714.0609143.2362285.0824571.0869143.0222858.1649143.0334286.2310286.0334286.1366857 0 .2050286-.0393714.2050286-.1181143 0-.0297143-.0096572-.0542285-.0274857-.0720571-.0185715-.0185714-.0497715-.0393714-.0936-.0631429-.0445715-.0237714-.104-.0505143-.1775429-.0817143-.1062286-.0445714-.1842286-.0861714-.234-.1233142-.0497714-.0386286-.0861714-.0817143-.1084571-.1307429-.0230286-.0490286-.0341715-.1092-.0341715-.1805143 0-.1225714.0475429-.2176571.1426286-.2845143.0950857-.0668571.2302857-.1002857.4041143-.1002857.1664 0 .3283429.0356572.4843429.1084572l-.1129143.2711428c-.0690857-.0297143-.1337143-.0534857-.1938857-.0728-.0601715-.0185714-.1210858-.0282286-.1842286-.0282286-.1106857 0-.1656572.0304572-.1656572.0898858 0 .0341714.0170858.0631428.0534858.0876571.0356571.0252571.1136571.0616571.2347428.1099429.1077143.0438285.1864572.0846857.2369714.1218285.0497715.0378857.0876572.0817143.1106858.1314857.0237714.0490286.0364.1077143.0364.1760572" mask="url(#a)"/><path d="m66.2794229 62.9476343c-.0794858 0-.1418858.0252571-.1879429.0757714-.0445714.0505143-.0713143.1225714-.0772571.2154286h.5281714c-.0014857-.0928572-.026-.1649143-.0728-.2154286-.0475429-.0505143-.1106857-.0757714-.1901714-.0757714m.0527428 1.1625714c-.2221143 0-.3952-.0616571-.5207428-.1842286-.1248-.1225714-.1872-.2964-.1872-.5207428 0-.2310286.0579428-.4100572.1738285-.5356.1151429-.1262857.2748572-.1894286.4791429-.1894286.1946286 0 .3461714.0549714.4546286.1664.1092.1106857.1634285.2644572.1634285.4598286v.1827428h-.8899428c.0044571.1069715.0364.1901715.0950857.2503429.0594286.0601714.1426286.0898857.2496.0898857.0824571 0 .1612-.0081714.2354857-.0252571.0742857-.0178286.1508-.0453143.2325143-.0824572v.2912c-.0661143.0326857-.1366857.0572-.2117143.0728-.0750286.0163429-.1656571.0245143-.2741143.0245143" mask="url(#a)"/><path d="m67.9711314 62.6799086c.0505143 0 .0928572.0037143.1270286.0111428l-.0282286.3528572c-.0304571-.0081715-.0676-.0118857-.1114285-.0118857-.1203429 0-.2139429.0304571-.2808.0921142-.0668572.0616572-.1002858.1478286-.1002858.2592572v.702h-.3766285v-1.3794857h.2852571l.0557143.2317714h.0178286c.0430857-.0772571.1010285-.1396571.1738285-.1864571.0728-.0475429.1522858-.0713143.2377143-.0713143" mask="url(#a)"/><path d="m69.98212 64.0850971-.0505143-.1760571h-.0200571c-.0393715.0638857-.0973143.1136571-.1708572.1485714-.0742857.0349143-.1589714.0527429-.2533143.0527429-.1619428 0-.2845142-.0438286-.3662285-.1307429-.0832-.0869143-.1233143-.2117143-.1233143-.3744v-.8988571h.3766286v.8052571c0 .0995429.0170857.1738286.0527428.2236.0349143.0497715.0913714.0750286.1686286.0750286.1054857 0 .182-.0349143.2280571-.1054857.0475429-.0705714.0705715-.1872.0705715-.3498857v-.6485143h.3766285v1.3787428z" mask="url(#a)"/><path d="m71.9386571 64.0850971h-.3758857v-.8052571c0-.0995429-.0178285-.1745714-.0527428-.2243429-.0356572-.0497714-.0921143-.0742857-.1693715-.0742857-.1054857 0-.1812571.0349143-.2280571.1054857-.0475429.0698286-.0705714.1864572-.0705714.3491429v.6492571h-.3766286v-1.3787428h.2882286l.0497714.1760571h.0215429c.0416-.0668571.0995428-.1173714.1730857-.1515428.0742857-.0341715.1574857-.0512572.2510857-.0512572.1604571 0 .2822857.0438286.3654857.1307429.0824571.0861714.1240571.2117143.1240571.3758857z" mask="url(#a)"/><path d="m72.8976857 62.9476343c-.0794857 0-.1418857.0252571-.1879428.0757714-.0445715.0505143-.0713143.1225714-.0772572.2154286h.5281714c-.0014857-.0928572-.026-.1649143-.0728-.2154286-.0475428-.0505143-.1106857-.0757714-.1901714-.0757714m.0527429 1.1625714c-.2221143 0-.3952-.0616571-.5207429-.1842286-.1248-.1225714-.1872-.2964-.1872-.5207428 0-.2310286.0579429-.4100572.1738286-.5356.1151428-.1262857.2748571-.1894286.4791428-.1894286.1946286 0 .3469143.0549714.4546286.1664.1092.1106857.1634286.2644572.1634286.4598286v.1827428h-.8899429c.0044572.1069715.0364.1901715.0950857.2503429.0594286.0601714.1426286.0898857.2496.0898857.0824572 0 .1612-.0081714.2354858-.0252571.0742857-.0178286.1508-.0453143.2325142-.0824572v.2912c-.0661142.0326857-.1366857.0572-.2117142.0728-.0742858.0163429-.1656572.0245143-.2741143.0245143" mask="url(#a)"/><path d="m75.0355543 64.1101314c-.4286286 0-.6433143-.2354857-.6433143-.7072 0-.2347428.0579429-.4137714.1745714-.5370857.1166286-.1240571.2845143-.1857143.5021715-.1857143.1597142 0 .3030857.0312.4293714.0936l-.1106857.2912c-.0586857-.0237714-.1144-.0430857-.1656572-.0586857-.0505143-.0148571-.1017714-.0230286-.1530285-.0230286-.1953715 0-.2934286.1389143-.2934286.4174858 0 .2696571.0980571.4041142.2934286.4041142.0728 0 .1396571-.0089142.2013142-.0289714.0616572-.0193143.1233143-.0490286.1849715-.0906286v.3224c-.0609143.0386286-.1225715.0653715-.1849715.0802286-.0616571.0148572-.1396571.0222857-.2347428.0222857" mask="url(#a)"/><path d="m76.0751086 63.3930514c0 .1366857.0215428.2399429.0668571.3097715.0445714.0698285.1181143.1047428.2191429.1047428.1002857 0 .1723428-.0349143.2169143-.104.0430857-.0698286.0661142-.1730857.0661142-.3105143 0-.1366857-.0230285-.2392-.0668571-.3075428-.0445714-.0676-.1173714-.1017715-.2184-.1017715s-.1730857.0334286-.2176571.1017715c-.0445715.0676-.0661143.1701143-.0661143.3075428m.9530857 0c0 .2243429-.0586857.4004-.1775429.5266857-.1181143.1270286-.2830285.1901715-.4947428.1901715-.1322286 0-.2488572-.0289715-.3506286-.0869143-.1002857-.0579429-.1782857-.1411429-.2325143-.2496-.0542286-.1084572-.0817143-.2354857-.0817143-.3803429 0-.2250857.0594286-.4004.1768-.5259428.1173715-.1248.2830286-.1872.4962286-.1872.1314857 0 .2488571.0289714.3498857.0861714.1010286.0579429.1790286.1404.2332572.2481143.0542285.1077143.0809714.234.0809714.3788571" mask="url(#a)"/><path d="m77.3396 64.0848h.3766286v-1.9195429h-.3766286z" mask="url(#a)"/><path d="m78.1106857 64.0848h.3766286v-1.9195429h-.3766286z" mask="url(#a)"/><path d="m79.4528057 62.9476343c-.0794857 0-.1418857.0252571-.1872.0757714s-.0713143.1225714-.0772571.2154286h.5274285c-.0014857-.0928572-.026-.1649143-.0728-.2154286s-.1106857-.0757714-.1901714-.0757714m.0527429 1.1625714c-.2221143 0-.3952-.0616571-.52-.1842286-.1255429-.1225714-.1879429-.2964-.1879429-.5207428 0-.2310286.0579429-.4100572.1738286-.5356.1151428-.1262857.2756-.1894286.4791428-.1894286.1953715 0 .3469143.0549714.4546286.1664.1092.1106857.1634286.2644572.1634286.4598286v.1827428h-.8892c.0037143.1069715.0356571.1901715.0950857.2503429.0586857.0601714.1418857.0898857.2488571.0898857.0832 0 .1612-.0081714.2354858-.0252571.0742857-.0178286.1515428-.0453143.2325142-.0824572v.2912c-.0661142.0326857-.1366857.0572-.2117142.0728-.0742858.0163429-.1656572.0245143-.2741143.0245143" mask="url(#a)"/><path d="m80.93488 64.1101314c-.4293714 0-.6440571-.2354857-.6440571-.7072 0-.2347428.0586857-.4137714.1753142-.5370857.1166286-.1240571.2837715-.1857143.5021715-.1857143.1597143 0 .3023428.0312.4293714.0936l-.1106857.2912c-.0594286-.0237714-.1151429-.0430857-.1656572-.0586857-.0512571-.0148571-.1025142-.0230286-.1530285-.0230286-.1961143 0-.2941715.1389143-.2941715.4174858 0 .2696571.0980572.4041142.2941715.4041142.0728 0 .1389143-.0089142.2005714-.0289714.0616571-.0193143.1233143-.0490286.1849714-.0906286v.3224c-.0609143.0386286-.1218285.0653715-.1842285.0802286-.0624.0148572-.1404.0222857-.2347429.0222857" mask="url(#a)"/><path d="m82.25516 63.8101657c.0653714 0 .1441143-.0148571.2362286-.0430857v.2800571c-.0936.0416-.2087429.0631429-.3446857.0631429-.1508 0-.26-.0378857-.3290858-.1144-.0690857-.0765143-.1032571-.1901714-.1032571-.3424571v-.6648572h-.1797714v-.1589714l.2072571-.1262857.1084572-.2912h.2406857v.2941714h.3862857v.2822857h-.3862857v.6648572c0 .0534857.0148571.0928571.0453143.1181142.0297142.026.0698285.0386286.1188571.0386286" mask="url(#a)"/><path d="m83.3418857 62.9476343c-.0794857 0-.1418857.0252571-.1872.0757714s-.0713143.1225714-.078.2154286h.5281714c-.0014857-.0928572-.026-.1649143-.0728-.2154286-.0475428-.0505143-.1106857-.0757714-.1901714-.0757714m.0527429 1.1625714c-.2221143 0-.3952-.0616571-.52-.1842286-.1255429-.1225714-.1879429-.2964-.1879429-.5207428 0-.2310286.0579429-.4100572.1738286-.5356.1151428-.1262857.2756-.1894286.4791428-.1894286.1946286 0 .3469143.0549714.4546286.1664.1092.1106857.1634286.2644572.1634286.4598286v.1827428h-.8892c.0037143.1069715.0356571.1901715.0950857.2503429.0586857.0601714.1418857.0898857.2488571.0898857.0832 0 .1612-.0081714.2354858-.0252571.0742857-.0178286.1515428-.0453143.2325142-.0824572v.2912c-.0661142.0326857-.1366857.0572-.2117142.0728-.0742858.0163429-.1656572.0245143-.2741143.0245143" mask="url(#a)"/><path d="m52.5920571 77.0157143h24.7438286v-5.8039429h-24.7438286z" mask="url(#a)"/><path d="m79.2606286 77.0157143h24.7438284v-5.8039429h-24.7438284z" mask="url(#a)"/><path d="m52.5920571 86.4143429h51.4123999v-5.8046858h-51.4123999z" mask="url(#a)"/><path d="m52.5920571 95.4155429h51.4123999v-5.8046858h-51.4123999z" mask="url(#a)"/><path d="m52.5920571 104.615086h51.4123999v-5.804686h-51.4123999z" mask="url(#a)"/></g><text fill="#ef4f5d" font-family="LucidaGrande, Lucida Grande" font-size="2.5" letter-spacing="-.03525"><tspan x="55" y="74">D</tspan> <tspan letter-spacing="-.192" x="56.837309" y="74">A</tspan> <tspan x="58.370162" y="74">TE DE </tspan><tspan x="55" y="77">DÉBUT</tspan></text><text fill="#ef4f5d" font-family="LucidaGrande, Lucida Grande" font-size="2.5" letter-spacing="-.03525"><tspan x="82" y="74">D</tspan> <tspan letter-spacing="-.192" x="83.837309" y="74">A</tspan> <tspan x="85.370162" y="74">TE DE </tspan><tspan x="82" y="77">FIN</tspan></text><text fill="#ef4f5d" font-family="LucidaGrande, Lucida Grande" font-size="2.5"><tspan x="55" y="84">HO</tspan> <tspan letter-spacing=".0125" x="58.779297" y="84">R</tspan> <tspan x="60.372607" y="84">AIR</tspan> <tspan x="55" y="87">ES</tspan></text><text fill="#ef4f5d" font-family="LucidaGrande, Lucida Grande" font-size="2.5"><tspan x="55" y="93">NOM DU LIEU / DE LA </tspan><tspan letter-spacing="-.0525" x="55" y="96">C</tspan> <tspan x="56.677236" y="96">OLLE</tspan> <tspan letter-spacing=".0705" x="62.640371" y="96">C</tspan> <tspan x="64.440607" y="96">TE</tspan></text><text fill="#ef4f5d" font-family="LucidaGrande, Lucida Grande" font-size="2.5"><tspan x="55" y="102">NUMÉ</tspan> <tspan letter-spacing=".0075" x="62.087402" y="102">R</tspan> <tspan x="63.675713" y="102">O</tspan> <tspan x="65.617852" y="102"/> <tspan x="66.511617" y="102">DE </tspan><tspan x="55" y="105">TÉLÉPHONE</tspan></text><path d="m2 79c0-41.9734838 34.0261827-76 76-76 41.973073 0 76 34.0265162 76 76 0 41.973484-34.026927 76-76 76-41.9738173 0-76-34.026516-76-76z" stroke="#ffd8dd" stroke-width="5"/></g></svg>