<?xml version="1.0" encoding="UTF-8"?>
<svg width="159px" height="159px" viewBox="0 0 159 159" version="1.1" xmlns="http://www.w3.org/2000/svg" xmlns:xlink="http://www.w3.org/1999/xlink">
    <title>Group 103</title>
    <defs>
        <path d="M0.133179612,77.3758495 C0.133179612,120.020413 34.7026942,154.59068 77.3472573,154.59068 L77.3472573,154.59068 C119.991068,154.59068 154.561335,120.020413 154.561335,77.3758495 L154.561335,77.3758495 C154.561335,34.7320388 119.991068,0.161771845 77.3472573,0.161771845 L77.3472573,0.161771845 C34.7026942,0.161771845 0.133179612,34.7320388 0.133179612,77.3758495" id="path-1"></path>
        <path d="M0.133179612,77.3758495 C0.133179612,120.020413 34.7026942,154.59068 77.3472573,154.59068 L77.3472573,154.59068 C119.991068,154.59068 154.561335,120.020413 154.561335,77.3758495 L154.561335,77.3758495 C154.561335,34.7320388 119.991068,0.161771845 77.3472573,0.161771845 L77.3472573,0.161771845 C34.7026942,0.161771845 0.133179612,34.7320388 0.133179612,77.3758495" id="path-3"></path>
        <path d="M0.133179612,77.3758495 C0.133179612,120.020413 34.7026942,154.59068 77.3472573,154.59068 L77.3472573,154.59068 C119.991068,154.59068 154.561335,120.020413 154.561335,77.3758495 L154.561335,77.3758495 C154.561335,34.7320388 119.991068,0.161771845 77.3472573,0.161771845 L77.3472573,0.161771845 C34.7026942,0.161771845 0.133179612,34.7320388 0.133179612,77.3758495" id="path-5"></path>
        <path d="M0.133179612,77.3758495 C0.133179612,120.020413 34.7026942,154.59068 77.3472573,154.59068 L77.3472573,154.59068 C119.991068,154.59068 154.561335,120.020413 154.561335,77.3758495 L154.561335,77.3758495 C154.561335,34.7320388 119.991068,0.161771845 77.3472573,0.161771845 L77.3472573,0.161771845 C34.7026942,0.161771845 0.133179612,34.7320388 0.133179612,77.3758495" id="path-7"></path>
        <path d="M0.133179612,77.3758495 C0.133179612,120.020413 34.7026942,154.59068 77.3472573,154.59068 L77.3472573,154.59068 C119.991068,154.59068 154.561335,120.020413 154.561335,77.3758495 L154.561335,77.3758495 C154.561335,34.7320388 119.991068,0.161771845 77.3472573,0.161771845 L77.3472573,0.161771845 C34.7026942,0.161771845 0.133179612,34.7320388 0.133179612,77.3758495" id="path-9"></path>
        <path d="M0.133179612,77.3758495 C0.133179612,120.020413 34.7026942,154.59068 77.3472573,154.59068 L77.3472573,154.59068 C119.991068,154.59068 154.561335,120.020413 154.561335,77.3758495 L154.561335,77.3758495 C154.561335,34.7320388 119.991068,0.161771845 77.3472573,0.161771845 L77.3472573,0.161771845 C34.7026942,0.161771845 0.133179612,34.7320388 0.133179612,77.3758495" id="path-11"></path>
        <path d="M0.133179612,77.3758495 C0.133179612,120.020413 34.7026942,154.59068 77.3472573,154.59068 L77.3472573,154.59068 C119.991068,154.59068 154.561335,120.020413 154.561335,77.3758495 L154.561335,77.3758495 C154.561335,34.7320388 119.991068,0.161771845 77.3472573,0.161771845 L77.3472573,0.161771845 C34.7026942,0.161771845 0.133179612,34.7320388 0.133179612,77.3758495" id="path-13"></path>
        <path d="M0.133179612,77.3758495 C0.133179612,120.020413 34.7026942,154.59068 77.3472573,154.59068 L77.3472573,154.59068 C119.991068,154.59068 154.561335,120.020413 154.561335,77.3758495 L154.561335,77.3758495 C154.561335,34.7320388 119.991068,0.161771845 77.3472573,0.161771845 L77.3472573,0.161771845 C34.7026942,0.161771845 0.133179612,34.7320388 0.133179612,77.3758495 L0.133179612,77.3758495 Z" id="path-15"></path>
        <path d="M0.133179612,77.3758495 C0.133179612,120.020413 34.7026942,154.59068 77.3472573,154.59068 L77.3472573,154.59068 C119.991068,154.59068 154.561335,120.020413 154.561335,77.3758495 L154.561335,77.3758495 C154.561335,34.7320388 119.991068,0.161771845 77.3472573,0.161771845 L77.3472573,0.161771845 C34.7026942,0.161771845 0.133179612,34.7320388 0.133179612,77.3758495 L0.133179612,77.3758495 Z" id="path-17"></path>
        <path d="M0.133179612,77.3758495 C0.133179612,120.020413 34.7026942,154.59068 77.3472573,154.59068 L77.3472573,154.59068 C119.991068,154.59068 154.561335,120.020413 154.561335,77.3758495 L154.561335,77.3758495 C154.561335,34.7320388 119.991068,0.161771845 77.3472573,0.161771845 L77.3472573,0.161771845 C34.7026942,0.161771845 0.133179612,34.7320388 0.133179612,77.3758495" id="path-19"></path>
        <path d="M0.133179612,77.3758495 C0.133179612,120.020413 34.7026942,154.59068 77.3472573,154.59068 L77.3472573,154.59068 C119.991068,154.59068 154.561335,120.020413 154.561335,77.3758495 L154.561335,77.3758495 C154.561335,34.7320388 119.991068,0.161771845 77.3472573,0.161771845 L77.3472573,0.161771845 C34.7026942,0.161771845 0.133179612,34.7320388 0.133179612,77.3758495" id="path-21"></path>
        <path d="M0.133179612,77.3758495 C0.133179612,120.020413 34.7026942,154.59068 77.3472573,154.59068 L77.3472573,154.59068 C119.991068,154.59068 154.561335,120.020413 154.561335,77.3758495 L154.561335,77.3758495 C154.561335,34.7320388 119.991068,0.161771845 77.3472573,0.161771845 L77.3472573,0.161771845 C34.7026942,0.161771845 0.133179612,34.7320388 0.133179612,77.3758495" id="path-23"></path>
        <path d="M0.133179612,77.3758495 C0.133179612,120.020413 34.7026942,154.59068 77.3472573,154.59068 L77.3472573,154.59068 C119.991068,154.59068 154.561335,120.020413 154.561335,77.3758495 L154.561335,77.3758495 C154.561335,34.7320388 119.991068,0.161771845 77.3472573,0.161771845 L77.3472573,0.161771845 C34.7026942,0.161771845 0.133179612,34.7320388 0.133179612,77.3758495" id="path-25"></path>
        <path d="M0.133179612,77.3758495 C0.133179612,120.020413 34.7026942,154.59068 77.3472573,154.59068 L77.3472573,154.59068 C119.991068,154.59068 154.561335,120.020413 154.561335,77.3758495 L154.561335,77.3758495 C154.561335,34.7320388 119.991068,0.161771845 77.3472573,0.161771845 L77.3472573,0.161771845 C34.7026942,0.161771845 0.133179612,34.7320388 0.133179612,77.3758495" id="path-27"></path>
        <path d="M0.133179612,77.3758495 C0.133179612,120.020413 34.7026942,154.59068 77.3472573,154.59068 L77.3472573,154.59068 C119.991068,154.59068 154.561335,120.020413 154.561335,77.3758495 L154.561335,77.3758495 C154.561335,34.7320388 119.991068,0.161771845 77.3472573,0.161771845 L77.3472573,0.161771845 C34.7026942,0.161771845 0.133179612,34.7320388 0.133179612,77.3758495" id="path-29"></path>
        <path d="M0.133179612,77.3758495 C0.133179612,120.020413 34.7026942,154.59068 77.3472573,154.59068 L77.3472573,154.59068 C119.991068,154.59068 154.561335,120.020413 154.561335,77.3758495 L154.561335,77.3758495 C154.561335,34.7320388 119.991068,0.161771845 77.3472573,0.161771845 L77.3472573,0.161771845 C34.7026942,0.161771845 0.133179612,34.7320388 0.133179612,77.3758495 L0.133179612,77.3758495 Z" id="path-31"></path>
        <path d="M0.133179612,77.3758495 C0.133179612,120.020413 34.7026942,154.59068 77.3472573,154.59068 L77.3472573,154.59068 C119.991068,154.59068 154.561335,120.020413 154.561335,77.3758495 L154.561335,77.3758495 C154.561335,34.7320388 119.991068,0.161771845 77.3472573,0.161771845 L77.3472573,0.161771845 C34.7026942,0.161771845 0.133179612,34.7320388 0.133179612,77.3758495" id="path-33"></path>
        <path d="M0.133179612,77.3758495 C0.133179612,120.020413 34.7026942,154.59068 77.3472573,154.59068 L77.3472573,154.59068 C119.991068,154.59068 154.561335,120.020413 154.561335,77.3758495 L154.561335,77.3758495 C154.561335,34.7320388 119.991068,0.161771845 77.3472573,0.161771845 L77.3472573,0.161771845 C34.7026942,0.161771845 0.133179612,34.7320388 0.133179612,77.3758495" id="path-35"></path>
        <path d="M0.133179612,77.3758495 C0.133179612,120.020413 34.7026942,154.59068 77.3472573,154.59068 L77.3472573,154.59068 C119.991068,154.59068 154.561335,120.020413 154.561335,77.3758495 L154.561335,77.3758495 C154.561335,34.7320388 119.991068,0.161771845 77.3472573,0.161771845 L77.3472573,0.161771845 C34.7026942,0.161771845 0.133179612,34.7320388 0.133179612,77.3758495 L0.133179612,77.3758495 Z" id="path-37"></path>
        <path d="M0.133179612,77.3758495 C0.133179612,120.020413 34.7026942,154.59068 77.3472573,154.59068 L77.3472573,154.59068 C119.991068,154.59068 154.561335,120.020413 154.561335,77.3758495 L154.561335,77.3758495 C154.561335,34.7320388 119.991068,0.161771845 77.3472573,0.161771845 L77.3472573,0.161771845 C34.7026942,0.161771845 0.133179612,34.7320388 0.133179612,77.3758495" id="path-39"></path>
        <path d="M0.133179612,77.3758495 C0.133179612,120.020413 34.7026942,154.59068 77.3472573,154.59068 L77.3472573,154.59068 C119.991068,154.59068 154.561335,120.020413 154.561335,77.3758495 L154.561335,77.3758495 C154.561335,34.7320388 119.991068,0.161771845 77.3472573,0.161771845 L77.3472573,0.161771845 C34.7026942,0.161771845 0.133179612,34.7320388 0.133179612,77.3758495 L0.133179612,77.3758495 Z" id="path-41"></path>
        <path d="M0.133179612,77.3758495 C0.133179612,120.020413 34.7026942,154.59068 77.3472573,154.59068 L77.3472573,154.59068 C119.991068,154.59068 154.561335,120.020413 154.561335,77.3758495 L154.561335,77.3758495 C154.561335,34.7320388 119.991068,0.161771845 77.3472573,0.161771845 L77.3472573,0.161771845 C34.7026942,0.161771845 0.133179612,34.7320388 0.133179612,77.3758495 L0.133179612,77.3758495 Z" id="path-43"></path>
        <path d="M0.133179612,77.3758495 C0.133179612,120.020413 34.7026942,154.59068 77.3472573,154.59068 L77.3472573,154.59068 C119.991068,154.59068 154.561335,120.020413 154.561335,77.3758495 L154.561335,77.3758495 C154.561335,34.7320388 119.991068,0.161771845 77.3472573,0.161771845 L77.3472573,0.161771845 C34.7026942,0.161771845 0.133179612,34.7320388 0.133179612,77.3758495 L0.133179612,77.3758495 Z" id="path-45"></path>
        <path d="M0.122645631,77.3758495 C0.122645631,120.020413 34.6929126,154.59068 77.3367233,154.59068 L77.3367233,154.59068 C119.980534,154.59068 154.550049,120.020413 154.550049,77.3758495 L154.550049,77.3758495 C154.550049,34.7320388 119.980534,0.161771845 77.3367233,0.161771845 L77.3367233,0.161771845 C34.6929126,0.161771845 0.122645631,34.7320388 0.122645631,77.3758495 L0.122645631,77.3758495 Z" id="path-47"></path>
    </defs>
    <g id="Page-1" stroke="none" stroke-width="1" fill="none" fill-rule="evenodd">
        <g id="ORGANISER-UNE-COLLECTE" transform="translate(-1030.000000, -1321.000000)">
            <g id="Group-103" transform="translate(1033.000000, 1323.000000)">
                <path d="M154,77 C154,119.52633 119.526162,154 77.0003752,154 C34.4738378,154 0,119.52633 0,77 C0,34.4744202 34.4738378,0 77.0003752,0 C119.526162,0 154,34.4744202 154,77" id="Fill-1" fill="#FFFFFF"></path>
                <g id="Group-72">
                    <g id="Group-5">
                        <mask id="mask-2" fill="white">
                            <use xlink:href="#path-1"></use>
                        </mask>
                        <g id="Clip-4"></g>
                        <path d="M82.6216966,46.2036189 L82.4809927,45.7310947 C84.2973519,45.1863374 85.9993422,45.1870898 87.5403131,45.7348568 L87.3755316,46.1998568 C85.9353859,45.6882063 84.3357257,45.6889587 82.6216966,46.2036189" id="Fill-3" fill="#FFFFFF" mask="url(#mask-2)"></path>
                    </g>
                    <g id="Group-8">
                        <mask id="mask-4" fill="white">
                            <use xlink:href="#path-3"></use>
                        </mask>
                        <g id="Clip-7"></g>
                        <path d="M65.4092476,71.8287274 C65.4092476,71.8287274 74.6686165,71.7813277 75.2479854,83.1836092 C75.5587379,89.3098714 74.9470146,91.2165218 74.7634223,99.6075898 C69.3692718,100.492444 63.9043932,100.486425 58.4786408,99.8626626 C58.0888835,88.6620316 58.058034,82.5417888 58.058034,82.5417888 C58.058034,82.5417888 57.4417961,72.7918374 65.4092476,71.8287274" id="Fill-6" fill="#E8364B" mask="url(#mask-4)"></path>
                    </g>
                    <g id="Group-11">
                        <mask id="mask-6" fill="white">
                            <use xlink:href="#path-5"></use>
                        </mask>
                        <g id="Clip-10"></g>
                        <path d="M54.0287864,115.946772 C54.0242718,115.98966 53.8752913,117.482476 54.5013107,119.051286 C55.3041505,121.067039 57.0053883,122.298762 59.5561165,122.715607 C60.966165,122.945097 62.2746359,122.613277 63.446165,121.73068 C65.1632039,120.435 66.1488835,118.246942 66.2752913,117.175485 C66.5326214,115.367403 71.3910437,83.6390534 71.5987136,82.2899515 C71.6604126,81.9415777 72.9410437,74.3578641 66.8305825,72.8274272 C66.5747573,72.8041019 65.5680097,72.7424029 64.3046845,73.0584223 C61.9646359,73.6438107 58.7404854,75.5248786 57.7563107,81.3464078 C56.0302427,91.5470631 54.0483495,115.70449 54.0287864,115.946772" id="Fill-9" fill="#F5C7A3" mask="url(#mask-6)"></path>
                    </g>
                    <g id="Group-14">
                        <mask id="mask-8" fill="white">
                            <use xlink:href="#path-7"></use>
                        </mask>
                        <g id="Clip-13"></g>
                        <path d="M80.2513252,23.4977743 C77.154335,24.1185267 74.2386796,25.5007354 71.9573204,27.7271675 C67.4179272,32.1559539 66.5481214,38.2935024 66.0304515,44.2406869 C65.4646262,50.7296189 64.7972233,57.1545947 60.5685825,62.4877985 C57.2759612,66.6404442 53.5040437,70.6651772 51.558267,75.6357112 C48.2001845,84.2126286 48.918,95.2371917 58.0140922,99.9902743 C61.9583155,102.05042 66.5308155,102.700517 71.0070049,102.75093 C78.1648447,102.831439 85.6311796,101.313041 91.1600146,96.8940364 C93.5128544,95.0129684 95.4368107,92.6721675 97.1305243,90.2117306 C106.799966,76.1609053 111.065476,57.6406626 105.924141,41.1926044 C103.382442,33.0618762 98.2358398,26.0876286 89.4474903,23.7859539 C86.4912039,23.0117063 83.2843592,22.8898131 80.2513252,23.4977743" id="Fill-12" fill="#9E223E" mask="url(#mask-8)"></path>
                    </g>
                    <g id="Group-17">
                        <mask id="mask-10" fill="white">
                            <use xlink:href="#path-9"></use>
                        </mask>
                        <g id="Clip-16"></g>
                        <path d="M101.475791,70.8378592 L91.294699,68.3872039 L90.8755971,61.6055777 L79.2265194,52.8894612 L78.9014709,68.1614757 C78.9014709,68.1614757 66.7174175,71.6030777 66.6150874,71.7008932 C77.1821748,86.7035388 97.7919078,76.6985146 101.475791,70.8378592" id="Fill-15" fill="#F5C7A3" mask="url(#mask-10)"></path>
                    </g>
                    <g id="Group-20">
                        <mask id="mask-12" fill="white">
                            <use xlink:href="#path-11"></use>
                        </mask>
                        <g id="Clip-19"></g>
                        <path d="M96.6481432,45.7458422 C96.6481432,45.7458422 97.2493325,43.9069102 98.1823422,44.5577597 C99.1161044,45.2093617 98.9919539,52.7065461 96.1462743,53.1339248 C93.3005947,53.560551 96.6481432,45.7458422 96.6481432,45.7458422" id="Fill-18" fill="#F5C7A3" mask="url(#mask-12)"></path>
                    </g>
                    <g id="Group-23">
                        <mask id="mask-14" fill="white">
                            <use xlink:href="#path-13"></use>
                        </mask>
                        <g id="Clip-22"></g>
                        <path d="M73.1502937,45.7458422 C73.1502937,45.7458422 72.5491044,43.9069102 71.6160947,44.5577597 C70.6823325,45.2093617 70.806483,52.7065461 73.6521626,53.1339248 C76.4978422,53.560551 73.1502937,45.7458422 73.1502937,45.7458422" id="Fill-21" fill="#F5C7A3" mask="url(#mask-14)"></path>
                    </g>
                    <g id="Group-26">
                        <mask id="mask-16" fill="white">
                            <use xlink:href="#path-15"></use>
                        </mask>
                        <g id="Clip-25"></g>
                        <path d="M76.304017,33.3844417 L84.8786772,30.4409466 L93.4518325,33.3844417 L96.7670267,38.1224757 L96.7256432,47.3126214 C96.7256432,47.3126214 96.6541626,51.9076942 95.9777306,53.7737136 C95.302051,55.6404854 92.6339442,63.7892718 84.8786772,64.2196602 C77.1226578,63.7892718 74.4537985,55.6404854 73.7781189,53.7737136 C73.1016869,51.9076942 73.0309587,47.3126214 73.0309587,47.3126214 L73.0392354,38.1224757 L76.304017,33.3844417 Z" id="Fill-24" fill="#F5C7A3" mask="url(#mask-16)"></path>
                    </g>
                    <g id="Group-29">
                        <mask id="mask-18" fill="white">
                            <use xlink:href="#path-17"></use>
                        </mask>
                        <g id="Clip-28"></g>
                        <path d="M96.7672524,42.8867694 C95.294,41.1057743 93.9900437,38.8417209 92.9652379,35.7793422 C92.9652379,35.7793422 90.6379806,40.302182 84.2310631,41.5406772 C84.2310631,41.5406772 85.5252379,40.6257257 86.0082961,39.7641966 C86.0082961,39.7641966 82.7149223,42.2863325 77.3749466,42.3442694 C77.3749466,42.3442694 79.240966,41.7385655 79.8519369,40.9124005 C79.8519369,40.9124005 73.4013786,41.5609927 72.9115485,43.588784 L71.7023981,40.0508714 L72.7076408,34.8463325 L74.1613301,32.6025947 L79.4102621,28.564318 L86.0082961,27.2724005 L92.9652379,29.964585 L95.8613301,31.6876432 L98.4639757,36.1028859 L97.2074223,40.0335655 L96.7672524,42.8867694 Z" id="Fill-27" fill="#9E223E" mask="url(#mask-18)"></path>
                    </g>
                    <g id="Group-32">
                        <mask id="mask-20" fill="white">
                            <use xlink:href="#path-19"></use>
                        </mask>
                        <g id="Clip-31"></g>
                        <path d="M61.4663034,73.6645777 C62.9553568,72.101034 66.8423956,71.1507184 71.7504782,69.9483398 C82.9473471,73.0024417 92.4030995,71.7180485 97.570017,69.584165 C102.39458,70.4562282 107.961036,71.6239951 109.449337,73.1875388 C111.3906,75.2243592 102.392323,122.686714 102.392323,122.686714 L67.9221286,117.650718 C67.9221286,117.650718 59.5265461,75.7013981 61.4663034,73.6645777" id="Fill-30" fill="#E8364B" mask="url(#mask-20)"></path>
                    </g>
                    <g id="Group-35">
                        <mask id="mask-22" fill="white">
                            <use xlink:href="#path-21"></use>
                        </mask>
                        <g id="Clip-34"></g>
                        <path d="M92.4377864,43.2163325 C89.5996311,43.2163325 87.2889272,45.526284 87.2889272,48.3651917 C87.2889272,51.2040995 89.5996311,53.514051 92.4377864,53.514051 C95.2766942,53.514051 97.5873981,51.2040995 97.5873981,48.3651917 C97.5873981,45.526284 95.2766942,43.2163325 92.4377864,43.2163325 M92.4377864,54.0068908 C89.3272524,54.0068908 86.7960874,51.4757257 86.7960874,48.3651917 C86.7960874,45.2539053 89.3272524,42.7234927 92.4377864,42.7234927 C95.5490728,42.7234927 98.0794854,45.2539053 98.0794854,48.3651917 C98.0794854,51.4757257 95.5490728,54.0068908 92.4377864,54.0068908" id="Fill-33" fill="#FFFFFF" mask="url(#mask-22)"></path>
                    </g>
                    <g id="Group-38">
                        <mask id="mask-24" fill="white">
                            <use xlink:href="#path-23"></use>
                        </mask>
                        <g id="Clip-37"></g>
                        <path d="M77.6611699,43.2163325 C74.8222621,43.2163325 72.5123107,45.526284 72.5123107,48.3651917 C72.5123107,51.2040995 74.8222621,53.514051 77.6611699,53.514051 C80.5000777,53.514051 82.8100291,51.2040995 82.8100291,48.3651917 C82.8100291,45.526284 80.5000777,43.2163325 77.6611699,43.2163325 M77.6611699,54.0068908 C74.5498835,54.0068908 72.0194709,51.4757257 72.0194709,48.3651917 C72.0194709,45.2539053 74.5498835,42.7234927 77.6611699,42.7234927 C80.7717039,42.7234927 83.3028689,45.2539053 83.3028689,48.3651917 C83.3028689,51.4757257 80.7717039,54.0068908 77.6611699,54.0068908" id="Fill-36" fill="#FFFFFF" mask="url(#mask-24)"></path>
                    </g>
                    <g id="Group-41">
                        <mask id="mask-26" fill="white">
                            <use xlink:href="#path-25"></use>
                        </mask>
                        <g id="Clip-40"></g>
                        <path d="M136.815566,76.8866966 C136.857701,76.8934684 138.336221,77.1470364 139.683066,78.1673277 C141.411391,79.4773034 142.148017,81.4449005 141.871876,84.0144393 C141.718381,85.4342694 141.050226,86.6080558 139.887726,87.5019393 C138.181973,88.8134199 135.810323,89.1821092 134.744133,89.0188325 C132.933794,88.7863325 101.054959,85.0362354 99.699085,84.8767209 C99.3461966,84.8436141 91.6947646,84.0625947 91.8444976,77.7655316 C91.8896432,77.512716 92.0973131,76.526284 92.7383811,75.3916238 C93.9249587,73.2915995 96.5953228,70.6836869 102.468769,71.2818665 C112.761221,72.33075 136.576294,76.8407985 136.815566,76.8866966" id="Fill-39" fill="#F5C7A3" mask="url(#mask-26)"></path>
                    </g>
                    <g id="Group-44">
                        <mask id="mask-28" fill="white">
                            <use xlink:href="#path-27"></use>
                        </mask>
                        <g id="Clip-43"></g>
                        <path d="M90.8646117,77.6699733 C90.8646117,77.6699733 92.1136408,69.2397791 102.567864,70.3044636 C108.184733,70.8770607 117.703689,72.4556529 125.310728,73.7942209 C125.363398,78.824949 124.59517,83.795483 123.269393,88.6433714 C113.02585,87.4342209 99.5837379,85.8526189 99.5837379,85.8526189 C99.5837379,85.8526189 90.6291019,85.0527888 90.8646117,77.6699733" id="Fill-42" fill="#E8364B" mask="url(#mask-28)"></path>
                    </g>
                    <g id="Group-47">
                        <mask id="mask-30" fill="white">
                            <use xlink:href="#path-29"></use>
                        </mask>
                        <g id="Clip-46"></g>
                        <path d="M102.987267,57.2067379 C103.37251,57.4888981 105.044403,57.9200388 105.891636,58.161568 C106.738117,58.4030971 108.297146,60.3135097 108.297146,60.3135097 L109.321951,61.5520049 L115.811636,59.6987767 L109.756102,49.9623689 L105.419864,43.8669563 L104.883383,55.914068 L102.987267,57.2067379" id="Fill-45" fill="#F5C7A3" mask="url(#mask-30)"></path>
                    </g>
                    <g id="Group-50">
                        <mask id="mask-32" fill="white">
                            <use xlink:href="#path-31"></use>
                        </mask>
                        <g id="Clip-49"></g>
                        <path d="M112.820211,54.8895631 C115.162517,57.7849029 128.134362,68.8809466 139.152153,77.655 C139.152153,77.655 144.597468,81.3208252 141.050527,86.3267233 C137.870769,90.1031553 133.375769,88.5411165 131.789653,87.0821602 C130.423245,85.8850485 107.2831,59.1972087 107.2831,59.1972087 L112.820211,54.8895631 Z" id="Fill-48" fill="#F5C7A3" mask="url(#mask-32)"></path>
                    </g>
                    <g id="Group-53">
                        <mask id="mask-34" fill="white">
                            <use xlink:href="#path-33"></use>
                        </mask>
                        <g id="Clip-52"></g>
                        <path d="M66.9985995,71.8573981 C66.9985995,71.8573981 58.5398131,70.8213058 56.7874102,81.1822282 C55.8461238,86.7494369 54.8371189,96.3443883 54.1050073,104.034194 C58.9408568,105.422422 63.9377257,106.002544 68.9631869,106.01383 C70.5207112,95.8169369 72.568818,82.4387816 72.568818,82.4387816 C72.568818,82.4387816 74.1782597,73.5924951 66.9985995,71.8573981" id="Fill-51" fill="#E8364B" mask="url(#mask-34)"></path>
                    </g>
                    <g id="Group-56">
                        <mask id="mask-36" fill="white">
                            <use xlink:href="#path-35"></use>
                        </mask>
                        <g id="Clip-55"></g>
                        <path d="M102.052602,57.2067379 L100.839689,57.2067379 C98.7705146,57.2067379 97.0775534,55.5137767 97.0775534,53.4446019 L97.0775534,45.5335825 C97.0775534,43.4644078 98.7705146,41.7714466 100.839689,41.7714466 L102.052602,41.7714466 C104.121777,41.7714466 105.814738,43.4644078 105.814738,45.5335825 L105.814738,53.4446019 C105.814738,55.5137767 104.121777,57.2067379 102.052602,57.2067379" id="Fill-54" fill="#F5C7A3" mask="url(#mask-36)"></path>
                    </g>
                    <g id="Group-59">
                        <mask id="mask-38" fill="white">
                            <use xlink:href="#path-37"></use>
                        </mask>
                        <g id="Clip-58"></g>
                        <polygon id="Fill-57" fill="#FFD8DD" mask="url(#mask-38)" points="103.490566 54.7029612 84.6046432 54.9903883 84.4436238 44.4142718 103.328794 44.1268447"></polygon>
                    </g>
                    <g id="Group-62">
                        <mask id="mask-40" fill="white">
                            <use xlink:href="#path-39"></use>
                        </mask>
                        <g id="Clip-61"></g>
                        <path d="M93.9640097,46.5599636 C92.2469709,46.5622257 90.8572379,47.9564733 90.8602427,49.6727597 C90.8625049,51.3897985 92.256,52.7795316 93.9737913,52.7765267 C95.6900777,52.7735121 97.0805631,51.380017 97.0775583,49.6637306 C97.0752961,47.9466917 95.6802961,46.5569587 93.9640097,46.5599636" id="Fill-60" fill="#FFA2AB" mask="url(#mask-40)"></path>
                    </g>
                    <g id="Group-65">
                        <mask id="mask-42" fill="white">
                            <use xlink:href="#path-41"></use>
                        </mask>
                        <g id="Clip-64"></g>
                        <path d="M102.399397,45.4761723 C102.400148,45.8215364 102.120245,46.1029442 101.774129,46.1036966 L100.363328,46.1059539 C100.017211,46.1059539 99.7358034,45.826051 99.7358034,45.4799345 L99.7350495,44.9569976 C99.7342985,44.6116335 100.014201,44.3302257 100.360318,44.3302257 L101.771119,44.3279669 C102.117235,44.327216 102.397891,44.6071189 102.398643,44.9532354 L102.399397,45.4761723 Z M93.9759733,54.1087748 C91.5230607,54.1125316 89.5313859,52.1276286 89.5283709,49.6754684 C89.5246141,47.2225558 91.5087646,45.2316335 93.9616772,45.227866 C96.4138374,45.2241092 98.4047597,47.2090121 98.4085295,49.6611723 C98.4130364,52.1133325 96.4273811,54.1050073 93.9759733,54.1087748 L93.9759733,54.1087748 Z M86.4261189,53.8070461 C86.4261189,53.9801044 86.2861675,54.1208083 86.1131092,54.1208083 L85.852017,54.1215607 C85.6789587,54.1215607 85.5382549,53.9816092 85.5382549,53.808551 L85.5254606,45.5544248 C85.5247112,45.3806141 85.665415,45.2406626 85.8377209,45.2406626 L86.0995655,45.2399102 C86.2718714,45.2399102 86.4125752,45.3791092 86.4133277,45.5529199 L86.4261189,53.8070461 Z M103.362502,42.9931626 L98.2512646,43.0006869 L97.9059005,41.9706141 C97.6854393,41.3137451 96.9465558,40.7825316 96.2543228,40.7840332 L91.6562403,40.7908083 C90.9640073,40.7915607 90.2258762,41.325784 90.0076723,41.9826529 L89.6660704,43.0142306 L86.8534976,43.0187451 L86.8527451,42.4438908 C86.8519927,42.2700801 86.7112888,42.1301286 86.538983,42.1308811 L85.3892743,42.1323859 C85.2154636,42.1323859 85.0762646,42.2730898 85.0762646,42.4461481 L85.077017,43.0217549 L84.5540801,43.0225073 C83.8618471,43.0232597 83.3012888,43.5853228 83.3027907,44.2775558 L83.3200995,55.0929442 C83.3208519,55.7851772 83.882915,56.344983 84.5751481,56.3442313 L103.38357,56.3148859 C104.076556,56.3141335 104.636362,55.7520704 104.63561,55.059085 L104.618303,44.244449 C104.616799,43.552216 104.054735,42.9916578 103.362502,42.9931626 L103.362502,42.9931626 Z" id="Fill-63" fill="#E8364B" mask="url(#mask-42)"></path>
                    </g>
                    <g id="Group-68">
                        <mask id="mask-44" fill="white">
                            <use xlink:href="#path-43"></use>
                        </mask>
                        <g id="Clip-67"></g>
                        <polygon id="Fill-66" fill="#F5C7A3" mask="url(#mask-44)" points="104.635383 57.8081529 100.15468 57.1422549 101.702422 56.5041966 103.906282 56.7126189"></polygon>
                    </g>
                    <g id="Group-71">
                        <mask id="mask-46" fill="white">
                            <use xlink:href="#path-45"></use>
                        </mask>
                        <g id="Clip-70"></g>
                        <path d="M104.041643,113.657136 C104.041643,113.657136 114.728367,152.071553 114.728367,178.207112 L62.5580752,178.207112 C61.1021286,134.97716 61.7063277,128.379879 72.0379053,113.657136 L104.041643,113.657136 Z" id="Fill-69" fill="#FFA2AB" mask="url(#mask-46)"></path>
                    </g>
                </g>
                <g id="Group-100">
                    <mask id="mask-48" fill="white">
                        <use xlink:href="#path-47"></use>
                    </mask>
                    <g id="Clip-74"></g>
                    <polygon id="Fill-73" fill="#D82745" mask="url(#mask-48)" points="21.9046602 244.538835 95.076699 244.538835 95.076699 91.1535437 21.9046602 91.1535437"></polygon>
                    <polygon id="Fill-75" fill="#FFFFFF" mask="url(#mask-48)" points="55.9774223 100.15167 56.827665 101.001913 57.8870825 99.9417427 57.8870825 104.316354 59.0894612 104.316354 59.0894612 99.9417427 60.1496311 101.001913 60.9998738 100.15167 58.4882718 97.640068"></polygon>
                    <path d="M35.208551,116.498602 C35.2296189,116.451951 35.286051,116.421854 35.3748374,116.409816 C35.4636238,116.397777 35.5862694,116.458723 35.7427743,116.59416 C35.8985267,116.729597 35.988818,116.883092 36.0121432,117.054646 C36.0708325,117.485786 35.9549587,118.60916 35.6652743,120.427024 C35.5170461,121.311126 35.4538422,121.835568 35.476415,122.001102 C35.4997403,122.167388 35.590784,122.239621 35.7502985,122.217801 C36.4447888,122.122995 37.1911966,121.905544 37.9895218,121.563942 C38.2438422,121.45484 38.396585,121.39615 38.4500073,121.388626 C38.5019248,121.381854 38.5387937,121.387874 38.5598617,121.405932 C38.5809296,121.425495 38.5959782,121.466126 38.6050073,121.527825 C38.6403714,121.785155 38.3582112,122.071078 37.7592791,122.384087 C37.1603471,122.69785 36.5350801,122.8995 35.8834782,122.988286 C35.5892791,123.028917 35.3199102,122.977 35.0791335,122.835544 C34.8376044,122.692583 34.6999102,122.502971 34.6675558,122.266709 C34.6352015,122.031199 34.7300073,121.152364 34.9512209,119.631709 C35.171682,118.112558 35.254449,117.140422 35.1957597,116.716053 C35.182216,116.617485 35.1867306,116.545252 35.208551,116.498602" id="Fill-76" fill="#FFFFFF" mask="url(#mask-48)"></path>
                    <path d="M35.208551,116.498602 C35.2296189,116.451951 35.286051,116.421854 35.3748374,116.409816 C35.4636238,116.397777 35.5862694,116.458723 35.7427743,116.59416 C35.8985267,116.729597 35.988818,116.883092 36.0121432,117.054646 C36.0708325,117.485786 35.9549587,118.60916 35.6652743,120.427024 C35.5170461,121.311126 35.4538422,121.835568 35.476415,122.001102 C35.4997403,122.167388 35.590784,122.239621 35.7502985,122.217801 C36.4447888,122.122995 37.1911966,121.905544 37.9895218,121.563942 C38.2438422,121.45484 38.396585,121.39615 38.4500073,121.388626 C38.5019248,121.381854 38.5387937,121.387874 38.5598617,121.405932 C38.5809296,121.425495 38.5959782,121.466126 38.6050073,121.527825 C38.6403714,121.785155 38.3582112,122.071078 37.7592791,122.384087 C37.1603471,122.69785 36.5350801,122.8995 35.8834782,122.988286 C35.5892791,123.028917 35.3199102,122.977 35.0791335,122.835544 C34.8376044,122.692583 34.6999102,122.502971 34.6675558,122.266709 C34.6352015,122.031199 34.7300073,121.152364 34.9512209,119.631709 C35.171682,118.112558 35.254449,117.140422 35.1957597,116.716053 C35.182216,116.617485 35.1867306,116.545252 35.208551,116.498602 Z" id="Stroke-77" stroke="#FFFFFF" stroke-width="0.5" mask="url(#mask-48)"></path>
                    <path d="M41.0236845,119.234201 C41.4442913,119.058133 41.891233,118.897114 42.3660146,118.749638 C42.1116942,117.714299 41.8957476,116.939299 41.7196796,116.425391 C41.5293155,117.095803 41.2968155,118.032575 41.0236845,119.234201 M44.0115728,118.628498 C44.0273738,118.745876 43.7753107,118.91743 43.2553835,119.145415 C43.3915728,119.778206 43.4908932,120.317697 43.5518398,120.766896 C43.657932,121.540391 43.612034,121.941434 43.4164029,121.968522 C43.3110631,121.982066 43.219267,121.929396 43.1402621,121.809007 C43.0612573,121.688619 42.9822524,121.471167 42.9009903,121.156653 C42.7775922,120.572017 42.6526893,120.000925 42.5262816,119.441871 C42.2599223,119.553983 42.0161359,119.654056 41.7971796,119.743595 C41.5774709,119.833133 41.2464029,119.973085 40.8032233,120.165706 C40.4556019,121.653255 40.2321311,122.403425 40.1343155,122.416216 C40.0365,122.430512 39.9213786,122.384614 39.7919612,122.280779 C39.6610388,122.176192 39.587301,122.056556 39.5684903,121.921119 C39.560966,121.85942 39.6760874,121.399687 39.9153592,120.540415 L39.8506505,120.549444 C39.7280049,120.56675 39.6136359,120.541167 39.5075437,120.474201 C39.4014515,120.407988 39.3405049,120.314687 39.323199,120.194299 C39.3073981,120.07391 39.5903107,119.875269 40.1711845,119.594614 C40.2396553,119.359857 40.2915728,119.14993 40.3291942,118.963328 C40.4224951,118.593133 40.5534175,118.087502 40.7227136,117.444177 C40.8912573,116.801604 40.9981019,116.391532 41.0424951,116.212454 C41.0868883,116.034881 41.1854563,115.873862 41.338199,115.7309 C41.4909417,115.587939 41.6466942,115.505925 41.8069612,115.484104 C41.9973252,115.457769 42.2095097,115.738425 42.4435146,116.326823 C42.676767,116.914468 42.9009903,117.651095 43.115432,118.535197 C43.2854806,118.493813 43.4344612,118.463716 43.5638786,118.445658 C43.8400194,118.408036 43.989,118.468983 44.0115728,118.628498" id="Fill-78" fill="#FFFFFF" mask="url(#mask-48)"></path>
                    <path d="M41.0236845,119.234201 C41.4442913,119.058133 41.891233,118.897114 42.3660146,118.749638 C42.1116942,117.714299 41.8957476,116.939299 41.7196796,116.425391 C41.5293155,117.095803 41.2968155,118.032575 41.0236845,119.234201 Z M44.0115728,118.628498 C44.0273738,118.745876 43.7753107,118.91743 43.2553835,119.145415 C43.3915728,119.778206 43.4908932,120.317697 43.5518398,120.766896 C43.657932,121.540391 43.612034,121.941434 43.4164029,121.968522 C43.3110631,121.982066 43.219267,121.929396 43.1402621,121.809007 C43.0612573,121.688619 42.9822524,121.471167 42.9009903,121.156653 C42.7775922,120.572017 42.6526893,120.000925 42.5262816,119.441871 C42.2599223,119.553983 42.0161359,119.654056 41.7971796,119.743595 C41.5774709,119.833133 41.2464029,119.973085 40.8032233,120.165706 C40.4556019,121.653255 40.2321311,122.403425 40.1343155,122.416216 C40.0365,122.430512 39.9213786,122.384614 39.7919612,122.280779 C39.6610388,122.176192 39.587301,122.056556 39.5684903,121.921119 C39.560966,121.85942 39.6760874,121.399687 39.9153592,120.540415 L39.8506505,120.549444 C39.7280049,120.56675 39.6136359,120.541167 39.5075437,120.474201 C39.4014515,120.407988 39.3405049,120.314687 39.323199,120.194299 C39.3073981,120.07391 39.5903107,119.875269 40.1711845,119.594614 C40.2396553,119.359857 40.2915728,119.14993 40.3291942,118.963328 C40.4224951,118.593133 40.5534175,118.087502 40.7227136,117.444177 C40.8912573,116.801604 40.9981019,116.391532 41.0424951,116.212454 C41.0868883,116.034881 41.1854563,115.873862 41.338199,115.7309 C41.4909417,115.587939 41.6466942,115.505925 41.8069612,115.484104 C41.9973252,115.457769 42.2095097,115.738425 42.4435146,116.326823 C42.676767,116.914468 42.9009903,117.651095 43.115432,118.535197 C43.2854806,118.493813 43.4344612,118.463716 43.5638786,118.445658 C43.8400194,118.408036 43.989,118.468983 44.0115728,118.628498 Z" id="Stroke-79" stroke="#FFFFFF" stroke-width="0.5" mask="url(#mask-48)"></path>
                    <path d="M51.9221408,115.195774 C51.7009272,115.11075 51.4443495,115.086672 51.1524078,115.127303 C50.860466,115.167182 50.5105874,115.252206 50.1027718,115.383129 C50.2999078,115.544148 50.4097621,115.709682 50.4330874,115.877473 C50.4564126,116.047522 50.4180388,116.569706 50.3187184,117.447789 C50.4541553,117.335677 50.6701019,117.197983 50.9665583,117.034706 C51.263767,116.872934 51.4970194,116.732983 51.6655631,116.615604 C51.8341068,116.498226 51.9552476,116.399658 52.0289854,116.316891 C52.1019709,116.235629 52.1689369,116.130289 52.2298835,116.003129 C52.2908301,115.875968 52.3134029,115.751066 52.2960971,115.62842 C52.2682573,115.425265 52.1433544,115.280799 51.9221408,115.195774 M52.7437913,118.42143 C52.7182087,118.237085 52.4834515,118.11143 52.038767,118.043711 C51.5940825,117.975993 51.1606845,117.970726 50.737068,118.029415 C50.5707816,118.051988 50.4142767,117.985774 50.2683058,117.830022 C50.0952476,119.362716 49.9598107,120.19791 49.8597379,120.337109 C50.2938883,120.264876 50.7415825,120.124172 51.2005631,119.914245 C51.6602961,119.704318 52.0402718,119.459779 52.3404903,119.180629 C52.6399563,118.902231 52.7746408,118.649415 52.7437913,118.42143 M53.5503932,118.348444 C53.599301,118.711867 53.4608544,119.088833 53.1320437,119.480847 C52.8039854,119.873614 52.3555388,120.212959 51.7874563,120.500386 C51.2193738,120.788566 50.6257087,120.974415 50.0049563,121.058687 C49.6422864,121.107595 49.3044466,121.051163 48.9906845,120.887133 C48.6776748,120.723857 48.5091311,120.553808 48.4850534,120.379245 C48.4609757,120.20393 48.5008544,120.109124 48.6061942,120.094828 C48.6302718,120.091818 48.7604417,120.140726 48.9967039,120.243056 C49.232966,120.346138 49.4714854,120.38376 49.7115097,120.356672 C49.6197136,120.325823 49.527165,120.257352 49.4346165,120.150507 C49.342068,120.044415 49.2886456,119.939075 49.2743495,119.834488 C49.2600534,119.7299 49.2939126,119.428177 49.3759272,118.928566 C49.6332573,117.422206 49.7152718,116.280774 49.6212184,115.505022 L49.548233,115.515556 C49.4376262,115.530604 49.3142282,115.477182 49.1787913,115.354536 C49.0433544,115.232643 48.9688641,115.128056 48.9575777,115.042279 C48.9432816,114.937692 49.0614126,114.829342 49.3119709,114.716478 C49.5625291,114.604367 49.8725291,114.522352 50.2412184,114.471939 C51.1012427,114.354561 51.7814369,114.380896 52.2802961,114.550944 C52.7791553,114.72024 53.0590583,115.025726 53.1192524,115.468905 C53.169665,115.837595 53.0605631,116.193493 52.7911942,116.5366 C52.5218252,116.880459 52.1012184,117.185944 51.5308786,117.450799 L51.6151505,117.448541 C52.1350777,117.408663 52.5782573,117.477133 52.9431845,117.652449 C53.3088641,117.827765 53.5105146,118.060265 53.5503932,118.348444" id="Fill-80" fill="#FFFFFF" mask="url(#mask-48)"></path>
                    <path d="M51.9221408,115.195774 C51.7009272,115.11075 51.4443495,115.086672 51.1524078,115.127303 C50.860466,115.167182 50.5105874,115.252206 50.1027718,115.383129 C50.2999078,115.544148 50.4097621,115.709682 50.4330874,115.877473 C50.4564126,116.047522 50.4180388,116.569706 50.3187184,117.447789 C50.4541553,117.335677 50.6701019,117.197983 50.9665583,117.034706 C51.263767,116.872934 51.4970194,116.732983 51.6655631,116.615604 C51.8341068,116.498226 51.9552476,116.399658 52.0289854,116.316891 C52.1019709,116.235629 52.1689369,116.130289 52.2298835,116.003129 C52.2908301,115.875968 52.3134029,115.751066 52.2960971,115.62842 C52.2682573,115.425265 52.1433544,115.280799 51.9221408,115.195774 Z M52.7437913,118.42143 C52.7182087,118.237085 52.4834515,118.11143 52.038767,118.043711 C51.5940825,117.975993 51.1606845,117.970726 50.737068,118.029415 C50.5707816,118.051988 50.4142767,117.985774 50.2683058,117.830022 C50.0952476,119.362716 49.9598107,120.19791 49.8597379,120.337109 C50.2938883,120.264876 50.7415825,120.124172 51.2005631,119.914245 C51.6602961,119.704318 52.0402718,119.459779 52.3404903,119.180629 C52.6399563,118.902231 52.7746408,118.649415 52.7437913,118.42143 Z M53.5503932,118.348444 C53.599301,118.711867 53.4608544,119.088833 53.1320437,119.480847 C52.8039854,119.873614 52.3555388,120.212959 51.7874563,120.500386 C51.2193738,120.788566 50.6257087,120.974415 50.0049563,121.058687 C49.6422864,121.107595 49.3044466,121.051163 48.9906845,120.887133 C48.6776748,120.723857 48.5091311,120.553808 48.4850534,120.379245 C48.4609757,120.20393 48.5008544,120.109124 48.6061942,120.094828 C48.6302718,120.091818 48.7604417,120.140726 48.9967039,120.243056 C49.232966,120.346138 49.4714854,120.38376 49.7115097,120.356672 C49.6197136,120.325823 49.527165,120.257352 49.4346165,120.150507 C49.342068,120.044415 49.2886456,119.939075 49.2743495,119.834488 C49.2600534,119.7299 49.2939126,119.428177 49.3759272,118.928566 C49.6332573,117.422206 49.7152718,116.280774 49.6212184,115.505022 L49.548233,115.515556 C49.4376262,115.530604 49.3142282,115.477182 49.1787913,115.354536 C49.0433544,115.232643 48.9688641,115.128056 48.9575777,115.042279 C48.9432816,114.937692 49.0614126,114.829342 49.3119709,114.716478 C49.5625291,114.604367 49.8725291,114.522352 50.2412184,114.471939 C51.1012427,114.354561 51.7814369,114.380896 52.2802961,114.550944 C52.7791553,114.72024 53.0590583,115.025726 53.1192524,115.468905 C53.169665,115.837595 53.0605631,116.193493 52.7911942,116.5366 C52.5218252,116.880459 52.1012184,117.185944 51.5308786,117.450799 L51.6151505,117.448541 C52.1350777,117.408663 52.5782573,117.477133 52.9431845,117.652449 C53.3088641,117.827765 53.5105146,118.060265 53.5503932,118.348444 Z" id="Stroke-81" stroke="#FFFFFF" stroke-width="0.5" mask="url(#mask-48)"></path>
                    <path d="M57.3852888,118.754379 C57.7381772,118.336782 58.0225947,117.842437 58.2392937,117.271345 C58.4552403,116.701005 58.530483,116.17882 58.4665267,115.704791 C58.401818,115.232267 58.2581044,114.860568 58.0368908,114.590447 C57.8149248,114.319573 57.5816723,114.201442 57.3356286,114.235301 C57.089585,114.26916 56.8081772,114.50166 56.4921578,114.932801 C56.1753859,115.363942 55.9120364,115.908699 55.7013568,116.567073 C55.4899248,117.224694 55.4244636,117.836417 55.5012112,118.40149 C55.5478617,118.73933 55.6584684,119.004184 55.8345364,119.196053 C56.0113568,119.388675 56.1979587,119.470689 56.3950947,119.443602 C56.702085,119.401466 57.0316481,119.172728 57.3852888,118.754379 M56.4387354,120.180228 C56.0331772,120.235155 55.6509442,120.083917 55.2927888,119.725762 C54.9338811,119.367607 54.7262112,118.983117 54.6705316,118.571539 C54.593784,118.012485 54.6186141,117.429354 54.7457743,116.824403 C54.872182,116.218699 55.0617937,115.679209 55.3131044,115.206684 C55.5651675,114.73416 55.8593665,114.335374 56.1972063,114.010325 C56.5342937,113.686029 56.8631044,113.502437 57.1821335,113.458044 C57.699051,113.387316 58.1610413,113.564136 58.5688568,113.987 C58.9774248,114.410617 59.2219636,114.916248 59.3032257,115.506903 C59.382983,116.096806 59.305483,116.737874 59.067716,117.430107 C58.8307015,118.123092 58.4717937,118.73632 57.9909927,119.268286 C57.5094393,119.800252 56.9925218,120.104233 56.4387354,120.180228" id="Fill-82" fill="#FFFFFF" mask="url(#mask-48)"></path>
                    <path d="M57.3852888,118.754379 C57.7381772,118.336782 58.0225947,117.842437 58.2392937,117.271345 C58.4552403,116.701005 58.530483,116.17882 58.4665267,115.704791 C58.401818,115.232267 58.2581044,114.860568 58.0368908,114.590447 C57.8149248,114.319573 57.5816723,114.201442 57.3356286,114.235301 C57.089585,114.26916 56.8081772,114.50166 56.4921578,114.932801 C56.1753859,115.363942 55.9120364,115.908699 55.7013568,116.567073 C55.4899248,117.224694 55.4244636,117.836417 55.5012112,118.40149 C55.5478617,118.73933 55.6584684,119.004184 55.8345364,119.196053 C56.0113568,119.388675 56.1979587,119.470689 56.3950947,119.443602 C56.702085,119.401466 57.0316481,119.172728 57.3852888,118.754379 Z M56.4387354,120.180228 C56.0331772,120.235155 55.6509442,120.083917 55.2927888,119.725762 C54.9338811,119.367607 54.7262112,118.983117 54.6705316,118.571539 C54.593784,118.012485 54.6186141,117.429354 54.7457743,116.824403 C54.872182,116.218699 55.0617937,115.679209 55.3131044,115.206684 C55.5651675,114.73416 55.8593665,114.335374 56.1972063,114.010325 C56.5342937,113.686029 56.8631044,113.502437 57.1821335,113.458044 C57.699051,113.387316 58.1610413,113.564136 58.5688568,113.987 C58.9774248,114.410617 59.2219636,114.916248 59.3032257,115.506903 C59.382983,116.096806 59.305483,116.737874 59.067716,117.430107 C58.8307015,118.123092 58.4717937,118.73632 57.9909927,119.268286 C57.5094393,119.800252 56.9925218,120.104233 56.4387354,120.180228 Z" id="Stroke-83" stroke="#FFFFFF" stroke-width="0.5" mask="url(#mask-48)"></path>
                    <path d="M60.5191481,110.195519 C60.5846092,110.148869 60.6425461,110.113505 60.6914539,110.08717 C60.7418665,110.061587 60.7877646,110.046539 60.8314053,110.040519 C60.8742937,110.0345 60.9239539,110.043529 60.9803859,110.066854 C61.0360655,110.09018 61.082716,110.118019 61.1188325,110.151126 C61.176017,110.206053 61.2625461,110.288068 61.3776675,110.397922 C61.4927888,110.507024 61.5996335,110.60183 61.6982015,110.681587 C61.7967694,110.76285 61.8697549,110.826806 61.9164053,110.872704 C61.9638083,110.920107 62.0194879,110.973529 62.0841966,111.032971 C62.199318,111.142825 62.2617694,111.234621 62.2723034,111.308359 C62.2918665,111.455835 62.2226432,111.540107 62.0623762,111.561927 C61.9645607,111.575471 61.8366481,111.533335 61.6793908,111.435519 C61.5221335,111.339209 61.3964782,111.245908 61.3031772,111.158626 C61.2098762,111.071345 61.0691723,110.93666 60.881818,110.756078 C60.7230558,110.871951 60.5590267,111.014913 60.3912354,111.184209 C60.2234442,111.35501 60.08575,111.491199 59.9774005,111.593529 C59.8698034,111.695859 59.7727403,111.753044 59.6869636,111.765083 C59.6004345,111.777121 59.5244393,111.758311 59.4589782,111.71166 C59.3927646,111.664257 59.3521335,111.585252 59.337085,111.474646 C59.3220364,111.364039 59.3558956,111.247413 59.439415,111.127024 C59.5236869,111.005883 59.6342937,110.892267 59.7734927,110.785422 C59.9119393,110.67933 60.0263083,110.588286 60.1165995,110.513796 C60.2061383,110.438553 60.2798762,110.378359 60.3363083,110.333214 C60.3919879,110.288068 60.4529345,110.24217 60.5191481,110.195519 M61.1647306,119.515083 C61.0917451,119.524864 60.9841481,119.46467 60.844949,119.333748 C60.7042451,119.202825 60.6267451,119.075665 60.6094393,118.953019 C60.5928859,118.829621 60.6583471,117.946272 60.8058228,116.300714 C60.9532985,114.65666 61.0044636,113.643141 60.9585655,113.26166 C60.943517,113.157073 60.9480316,113.083335 60.9706044,113.038942 C60.9924248,112.996053 61.0481044,112.967461 61.1368908,112.955422 C61.2256772,112.942631 61.3558471,113.022388 61.5266481,113.193189 C61.6966966,113.36399 61.7967694,113.558869 61.8268665,113.777073 C61.8562112,113.995277 61.7734442,115.034379 61.5770607,116.895131 C61.5567451,117.067437 61.5311626,117.313481 61.4995607,117.634015 C61.4687112,117.954549 61.4423762,118.200592 61.4220607,118.371393 C61.4017451,118.543699 61.3806772,118.731806 61.3581044,118.934209 C61.3031772,119.311175 61.2384684,119.504549 61.1647306,119.515083" id="Fill-84" fill="#FFFFFF" mask="url(#mask-48)"></path>
                    <path d="M60.5191481,110.195519 C60.5846092,110.148869 60.6425461,110.113505 60.6914539,110.08717 C60.7418665,110.061587 60.7877646,110.046539 60.8314053,110.040519 C60.8742937,110.0345 60.9239539,110.043529 60.9803859,110.066854 C61.0360655,110.09018 61.082716,110.118019 61.1188325,110.151126 C61.176017,110.206053 61.2625461,110.288068 61.3776675,110.397922 C61.4927888,110.507024 61.5996335,110.60183 61.6982015,110.681587 C61.7967694,110.76285 61.8697549,110.826806 61.9164053,110.872704 C61.9638083,110.920107 62.0194879,110.973529 62.0841966,111.032971 C62.199318,111.142825 62.2617694,111.234621 62.2723034,111.308359 C62.2918665,111.455835 62.2226432,111.540107 62.0623762,111.561927 C61.9645607,111.575471 61.8366481,111.533335 61.6793908,111.435519 C61.5221335,111.339209 61.3964782,111.245908 61.3031772,111.158626 C61.2098762,111.071345 61.0691723,110.93666 60.881818,110.756078 C60.7230558,110.871951 60.5590267,111.014913 60.3912354,111.184209 C60.2234442,111.35501 60.08575,111.491199 59.9774005,111.593529 C59.8698034,111.695859 59.7727403,111.753044 59.6869636,111.765083 C59.6004345,111.777121 59.5244393,111.758311 59.4589782,111.71166 C59.3927646,111.664257 59.3521335,111.585252 59.337085,111.474646 C59.3220364,111.364039 59.3558956,111.247413 59.439415,111.127024 C59.5236869,111.005883 59.6342937,110.892267 59.7734927,110.785422 C59.9119393,110.67933 60.0263083,110.588286 60.1165995,110.513796 C60.2061383,110.438553 60.2798762,110.378359 60.3363083,110.333214 C60.3919879,110.288068 60.4529345,110.24217 60.5191481,110.195519 Z M61.1647306,119.515083 C61.0917451,119.524864 60.9841481,119.46467 60.844949,119.333748 C60.7042451,119.202825 60.6267451,119.075665 60.6094393,118.953019 C60.5928859,118.829621 60.6583471,117.946272 60.8058228,116.300714 C60.9532985,114.65666 61.0044636,113.643141 60.9585655,113.26166 C60.943517,113.157073 60.9480316,113.083335 60.9706044,113.038942 C60.9924248,112.996053 61.0481044,112.967461 61.1368908,112.955422 C61.2256772,112.942631 61.3558471,113.022388 61.5266481,113.193189 C61.6966966,113.36399 61.7967694,113.558869 61.8268665,113.777073 C61.8562112,113.995277 61.7734442,115.034379 61.5770607,116.895131 C61.5567451,117.067437 61.5311626,117.313481 61.4995607,117.634015 C61.4687112,117.954549 61.4423762,118.200592 61.4220607,118.371393 C61.4017451,118.543699 61.3806772,118.731806 61.3581044,118.934209 C61.3031772,119.311175 61.2384684,119.504549 61.1647306,119.515083 Z" id="Stroke-85" stroke="#FFFFFF" stroke-width="0.5" mask="url(#mask-48)"></path>
                    <path d="M64.771415,113.26625 L63.2056141,113.555934 C63.1070461,113.568726 62.9971917,113.518313 62.8745461,113.403944 C62.7519005,113.28807 62.6834296,113.169939 62.6661238,113.046541 C62.6510752,112.936687 62.8181141,112.841881 63.1672403,112.762124 C63.5163665,112.683871 64.2898617,112.561978 65.4884782,112.398701 C66.1084782,112.312925 66.6299102,112.310667 67.050517,112.391177 C67.4718762,112.471687 67.6938422,112.594333 67.716415,112.760619 C67.7329684,112.877245 67.638915,112.949478 67.4365121,112.977318 C67.2333568,113.004405 66.9489393,113.031493 66.5832597,113.056323 C66.2168277,113.081153 65.8677015,113.113507 65.5351286,113.152633 C65.562216,113.212075 65.5802743,113.278289 65.5908083,113.351274 C65.6216578,113.57926 65.5260995,114.668774 65.3048859,116.62057 C65.2823131,116.824478 65.2507112,117.14125 65.2093277,117.573143 C65.1679442,118.004284 65.134085,118.306007 65.10775,118.479066 C65.0663665,118.816153 65.0114393,118.989211 64.9437209,118.99824 C64.8519248,119.011784 64.7398131,118.956104 64.6066335,118.833459 C64.4742063,118.710813 64.3989636,118.579138 64.3794005,118.437682 C64.3598374,118.296226 64.4268034,117.546056 64.5787937,116.18943 C64.7315364,114.832051 64.7954927,113.857658 64.771415,113.26625" id="Fill-86" fill="#FFFFFF" mask="url(#mask-48)"></path>
                    <path d="M64.771415,113.26625 L63.2056141,113.555934 C63.1070461,113.568726 62.9971917,113.518313 62.8745461,113.403944 C62.7519005,113.28807 62.6834296,113.169939 62.6661238,113.046541 C62.6510752,112.936687 62.8181141,112.841881 63.1672403,112.762124 C63.5163665,112.683871 64.2898617,112.561978 65.4884782,112.398701 C66.1084782,112.312925 66.6299102,112.310667 67.050517,112.391177 C67.4718762,112.471687 67.6938422,112.594333 67.716415,112.760619 C67.7329684,112.877245 67.638915,112.949478 67.4365121,112.977318 C67.2333568,113.004405 66.9489393,113.031493 66.5832597,113.056323 C66.2168277,113.081153 65.8677015,113.113507 65.5351286,113.152633 C65.562216,113.212075 65.5802743,113.278289 65.5908083,113.351274 C65.6216578,113.57926 65.5260995,114.668774 65.3048859,116.62057 C65.2823131,116.824478 65.2507112,117.14125 65.2093277,117.573143 C65.1679442,118.004284 65.134085,118.306007 65.10775,118.479066 C65.0663665,118.816153 65.0114393,118.989211 64.9437209,118.99824 C64.8519248,119.011784 64.7398131,118.956104 64.6066335,118.833459 C64.4742063,118.710813 64.3989636,118.579138 64.3794005,118.437682 C64.3598374,118.296226 64.4268034,117.546056 64.5787937,116.18943 C64.7315364,114.832051 64.7954927,113.857658 64.771415,113.26625 Z" id="Stroke-87" stroke="#FFFFFF" stroke-width="0.5" mask="url(#mask-48)"></path>
                    <path d="M69.3786019,115.44415 C69.1904951,116.540437 69.1122427,117.198811 69.1423398,117.420777 C69.1513689,117.494515 69.1829709,117.550947 69.2356408,117.590825 C69.2883107,117.629951 69.3507621,117.645752 69.4252524,117.635218 C70.1310291,117.538908 70.8962476,117.318447 71.7194029,116.973835 C71.9857621,116.863228 72.1407621,116.804539 72.1836505,116.798519 C72.276199,116.785728 72.3311262,116.843665 72.348432,116.97233 C72.3785291,117.194296 72.070034,117.467427 71.4229466,117.793981 C70.7751068,118.120534 70.1355437,118.326699 69.5027524,118.413228 C69.2198398,118.451602 68.9610049,118.402694 68.727,118.265752 C68.4922427,118.128811 68.3575583,117.934684 68.323699,117.682621 C68.2890874,117.430558 68.3206893,116.988131 68.4192573,116.354587 C68.5163204,115.721796 68.6103738,115.049126 68.7014175,114.33432 C68.7917087,113.621772 68.8045,113.028107 68.7397913,112.55483 C68.7307621,112.487112 68.7337718,112.415631 68.748068,112.338131 C68.8210534,112.096602 69.475665,111.891189 70.7111505,111.722646 C71.9458835,111.55335 72.575665,111.558617 72.5997427,111.736189 C72.6170485,111.859587 72.4959078,111.960413 72.2378252,112.04017 C72.0226311,112.112403 71.733699,112.191408 71.372534,112.274927 C71.0121214,112.358447 70.7585534,112.418641 70.6140874,112.454005 C70.4681165,112.489369 70.1189903,112.595461 69.5674612,112.770024 L69.5712233,112.797864 C69.6284078,113.216214 69.600568,113.861044 69.4884563,114.734612 C69.5260777,114.736117 69.6509806,114.72182 69.863165,114.692476 C70.0753495,114.663883 70.3575097,114.609709 70.7096456,114.529951 C71.0610291,114.450947 71.3281408,114.398277 71.5094757,114.373447 C71.6908107,114.349369 71.7871214,114.379466 71.7991602,114.465243 C71.8285049,114.680437 71.5982621,114.874563 71.1091845,115.048374 C70.6186019,115.221432 70.0429951,115.353859 69.3786019,115.44415" id="Fill-88" fill="#FFFFFF" mask="url(#mask-48)"></path>
                    <path d="M69.3786019,115.44415 C69.1904951,116.540437 69.1122427,117.198811 69.1423398,117.420777 C69.1513689,117.494515 69.1829709,117.550947 69.2356408,117.590825 C69.2883107,117.629951 69.3507621,117.645752 69.4252524,117.635218 C70.1310291,117.538908 70.8962476,117.318447 71.7194029,116.973835 C71.9857621,116.863228 72.1407621,116.804539 72.1836505,116.798519 C72.276199,116.785728 72.3311262,116.843665 72.348432,116.97233 C72.3785291,117.194296 72.070034,117.467427 71.4229466,117.793981 C70.7751068,118.120534 70.1355437,118.326699 69.5027524,118.413228 C69.2198398,118.451602 68.9610049,118.402694 68.727,118.265752 C68.4922427,118.128811 68.3575583,117.934684 68.323699,117.682621 C68.2890874,117.430558 68.3206893,116.988131 68.4192573,116.354587 C68.5163204,115.721796 68.6103738,115.049126 68.7014175,114.33432 C68.7917087,113.621772 68.8045,113.028107 68.7397913,112.55483 C68.7307621,112.487112 68.7337718,112.415631 68.748068,112.338131 C68.8210534,112.096602 69.475665,111.891189 70.7111505,111.722646 C71.9458835,111.55335 72.575665,111.558617 72.5997427,111.736189 C72.6170485,111.859587 72.4959078,111.960413 72.2378252,112.04017 C72.0226311,112.112403 71.733699,112.191408 71.372534,112.274927 C71.0121214,112.358447 70.7585534,112.418641 70.6140874,112.454005 C70.4681165,112.489369 70.1189903,112.595461 69.5674612,112.770024 L69.5712233,112.797864 C69.6284078,113.216214 69.600568,113.861044 69.4884563,114.734612 C69.5260777,114.736117 69.6509806,114.72182 69.863165,114.692476 C70.0753495,114.663883 70.3575097,114.609709 70.7096456,114.529951 C71.0610291,114.450947 71.3281408,114.398277 71.5094757,114.373447 C71.6908107,114.349369 71.7871214,114.379466 71.7991602,114.465243 C71.8285049,114.680437 71.5982621,114.874563 71.1091845,115.048374 C70.6186019,115.221432 70.0429951,115.353859 69.3786019,115.44415 Z" id="Stroke-89" stroke="#FFFFFF" stroke-width="0.5" mask="url(#mask-48)"></path>
                    <path d="M51.1322427,123.193248 C51.1021456,123.164655 51.0788204,123.136816 51.0615146,123.109728 C51.0449612,123.083393 51.0314175,123.030723 51.0216359,122.953976 C51.0103495,122.877228 51.0457136,122.772641 51.1247184,122.641718 C51.2052282,122.510044 51.3022913,122.436306 51.4174126,122.421257 C51.5137233,122.407714 51.6469029,122.477689 51.8177039,122.62968 C51.9516359,122.748563 52.1638204,122.923879 52.4565146,123.153369 C52.7484563,123.384364 52.9132379,123.528078 52.9501068,123.585262 C52.9877282,123.642447 53.010301,123.701136 53.0185777,123.76133 C53.0268544,123.822277 53.0087961,123.883223 52.9659078,123.944922 C52.9215146,124.005869 52.8695971,124.041233 52.8086505,124.04951 C52.7469515,124.057034 52.6829951,124.045748 52.6130194,124.012641 C52.5430437,123.979534 52.4392087,123.923854 52.3015146,123.84485 C52.1638204,123.765845 52.0547184,123.707908 51.9742087,123.669534 C51.8944515,123.631913 51.8116845,123.590529 51.728165,123.546888 C51.6438932,123.502495 51.5791845,123.469388 51.5332864,123.446063 C51.4881408,123.42349 51.4332136,123.394898 51.3700097,123.361039 C51.3060534,123.32718 51.2586505,123.297835 51.2262961,123.273005 C51.1931893,123.248175 51.1615874,123.22184 51.1322427,123.193248 M51.6491602,129.045626 C52.1119029,128.852252 52.5784078,128.684461 53.0471699,128.5415 C52.7823155,127.463272 52.5588447,126.658927 52.3752524,126.129971 C52.152534,126.930553 51.9102524,127.901937 51.6491602,129.045626 M54.7702282,128.413587 C54.7867816,128.536233 54.5249369,128.715311 53.9831893,128.951573 C54.1261505,129.609947 54.2284806,130.172762 54.2924369,130.640019 C54.4030437,131.446621 54.3518786,131.864218 54.141199,131.893563 C54.0260777,131.908612 53.9290146,131.853684 53.8492573,131.728029 C53.7702524,131.601621 53.692,131.374388 53.6145,131.04633 C53.3624369,129.913927 53.2285049,129.31951 53.2149612,129.261573 C52.312801,129.633272 51.7183835,129.88383 51.4302039,130.014 C51.067534,131.563248 50.8342816,132.345019 50.7281893,132.359316 C50.6228495,132.373612 50.5024612,132.326961 50.3662718,132.217859 C50.2315874,132.10951 50.1540874,131.985359 50.1352767,131.843903 C50.1285049,131.79951 50.2519029,131.316451 50.503966,130.394728 C50.4859078,130.40451 50.4377524,130.414291 50.3617573,130.424073 C50.2842573,130.434607 50.1909563,130.405262 50.0803495,130.335286 C49.9697427,130.266063 49.9057864,130.169 49.889233,130.044097 C49.8719272,129.919194 50.1661262,129.711524 50.7718301,129.419583 C50.8425583,129.175796 50.9117816,128.90417 50.9779951,128.603951 C51.0449612,128.305238 51.1698641,127.814655 51.3534563,127.129947 C51.5370485,126.446743 51.6491602,126.024631 51.6882864,125.862859 C51.7289175,125.700335 51.8282379,125.545335 51.987,125.396354 C52.1457621,125.247374 52.3082864,125.161597 52.4745728,125.139024 C52.6732136,125.111937 52.8944272,125.403879 53.1374612,126.016354 C53.3804951,126.628078 53.6145,127.395553 53.8379709,128.316524 C54.0147913,128.272883 54.1667816,128.242034 54.2946942,128.224728 C54.5896456,128.18485 54.7476553,128.248053 54.7702282,128.413587" id="Fill-90" fill="#FFFFFF" mask="url(#mask-48)"></path>
                    <path d="M51.1322427,123.193248 C51.1021456,123.164655 51.0788204,123.136816 51.0615146,123.109728 C51.0449612,123.083393 51.0314175,123.030723 51.0216359,122.953976 C51.0103495,122.877228 51.0457136,122.772641 51.1247184,122.641718 C51.2052282,122.510044 51.3022913,122.436306 51.4174126,122.421257 C51.5137233,122.407714 51.6469029,122.477689 51.8177039,122.62968 C51.9516359,122.748563 52.1638204,122.923879 52.4565146,123.153369 C52.7484563,123.384364 52.9132379,123.528078 52.9501068,123.585262 C52.9877282,123.642447 53.010301,123.701136 53.0185777,123.76133 C53.0268544,123.822277 53.0087961,123.883223 52.9659078,123.944922 C52.9215146,124.005869 52.8695971,124.041233 52.8086505,124.04951 C52.7469515,124.057034 52.6829951,124.045748 52.6130194,124.012641 C52.5430437,123.979534 52.4392087,123.923854 52.3015146,123.84485 C52.1638204,123.765845 52.0547184,123.707908 51.9742087,123.669534 C51.8944515,123.631913 51.8116845,123.590529 51.728165,123.546888 C51.6438932,123.502495 51.5791845,123.469388 51.5332864,123.446063 C51.4881408,123.42349 51.4332136,123.394898 51.3700097,123.361039 C51.3060534,123.32718 51.2586505,123.297835 51.2262961,123.273005 C51.1931893,123.248175 51.1615874,123.22184 51.1322427,123.193248 Z M51.6491602,129.045626 C52.1119029,128.852252 52.5784078,128.684461 53.0471699,128.5415 C52.7823155,127.463272 52.5588447,126.658927 52.3752524,126.129971 C52.152534,126.930553 51.9102524,127.901937 51.6491602,129.045626 Z M54.7702282,128.413587 C54.7867816,128.536233 54.5249369,128.715311 53.9831893,128.951573 C54.1261505,129.609947 54.2284806,130.172762 54.2924369,130.640019 C54.4030437,131.446621 54.3518786,131.864218 54.141199,131.893563 C54.0260777,131.908612 53.9290146,131.853684 53.8492573,131.728029 C53.7702524,131.601621 53.692,131.374388 53.6145,131.04633 C53.3624369,129.913927 53.2285049,129.31951 53.2149612,129.261573 C52.312801,129.633272 51.7183835,129.88383 51.4302039,130.014 C51.067534,131.563248 50.8342816,132.345019 50.7281893,132.359316 C50.6228495,132.373612 50.5024612,132.326961 50.3662718,132.217859 C50.2315874,132.10951 50.1540874,131.985359 50.1352767,131.843903 C50.1285049,131.79951 50.2519029,131.316451 50.503966,130.394728 C50.4859078,130.40451 50.4377524,130.414291 50.3617573,130.424073 C50.2842573,130.434607 50.1909563,130.405262 50.0803495,130.335286 C49.9697427,130.266063 49.9057864,130.169 49.889233,130.044097 C49.8719272,129.919194 50.1661262,129.711524 50.7718301,129.419583 C50.8425583,129.175796 50.9117816,128.90417 50.9779951,128.603951 C51.0449612,128.305238 51.1698641,127.814655 51.3534563,127.129947 C51.5370485,126.446743 51.6491602,126.024631 51.6882864,125.862859 C51.7289175,125.700335 51.8282379,125.545335 51.987,125.396354 C52.1457621,125.247374 52.3082864,125.161597 52.4745728,125.139024 C52.6732136,125.111937 52.8944272,125.403879 53.1374612,126.016354 C53.3804951,126.628078 53.6145,127.395553 53.8379709,128.316524 C54.0147913,128.272883 54.1667816,128.242034 54.2946942,128.224728 C54.5896456,128.18485 54.7476553,128.248053 54.7702282,128.413587 Z" id="Stroke-91" stroke="#FFFFFF" stroke-width="0.5" mask="url(#mask-48)"></path>
                    <path d="M64.0271141,127.10015 C63.9729393,126.703621 63.6772354,126.305587 63.1400024,125.906049 C62.6027694,125.507262 62.0068471,125.247675 61.351483,125.128791 C61.3996383,125.239398 61.43425,125.37333 61.4560704,125.529835 C61.4771383,125.687092 61.4613374,125.987311 61.407915,126.431243 C61.3537403,126.875175 61.2491529,127.620078 61.0926481,128.665199 C61.0286917,129.103864 60.9925752,129.581655 60.9842985,130.097068 C61.418449,129.979689 61.8857063,129.717845 62.3883277,129.313791 C62.8901966,128.909738 63.2965073,128.494398 63.6065073,128.067019 C63.9165073,127.640393 64.0564587,127.317602 64.0271141,127.10015 M60.0219442,124.195782 C60.6238859,124.113767 61.2860218,124.18299 62.0106092,124.403451 C62.7351966,124.623913 63.3815316,124.977553 63.9496141,125.462869 C64.5176966,125.949689 64.8427451,126.489932 64.9240073,127.085102 C64.978182,127.475612 64.7697597,127.971461 64.3009976,128.573403 C63.8322354,129.175345 63.2686675,129.712578 62.6095413,130.183597 C61.950415,130.655369 61.3868471,130.922481 60.9203422,130.986437 C60.798449,131.00299 60.6457063,130.917966 60.4606092,130.731364 C60.2747597,130.544762 60.167915,130.344617 60.1385704,130.129422 C60.1092257,129.915733 60.188983,129.11816 60.3778422,127.735951 C60.5674539,126.354495 60.6494684,125.450078 60.6238859,125.022699 C60.4071869,124.967772 60.2296141,124.881243 60.0896626,124.763864 C59.9497112,124.645733 59.8714587,124.526097 59.8549053,124.404204 C59.8383519,124.283063 59.8940316,124.213087 60.0219442,124.195782" id="Fill-92" fill="#FFFFFF" mask="url(#mask-48)"></path>
                    <path d="M64.0271141,127.10015 C63.9729393,126.703621 63.6772354,126.305587 63.1400024,125.906049 C62.6027694,125.507262 62.0068471,125.247675 61.351483,125.128791 C61.3996383,125.239398 61.43425,125.37333 61.4560704,125.529835 C61.4771383,125.687092 61.4613374,125.987311 61.407915,126.431243 C61.3537403,126.875175 61.2491529,127.620078 61.0926481,128.665199 C61.0286917,129.103864 60.9925752,129.581655 60.9842985,130.097068 C61.418449,129.979689 61.8857063,129.717845 62.3883277,129.313791 C62.8901966,128.909738 63.2965073,128.494398 63.6065073,128.067019 C63.9165073,127.640393 64.0564587,127.317602 64.0271141,127.10015 Z M60.0219442,124.195782 C60.6238859,124.113767 61.2860218,124.18299 62.0106092,124.403451 C62.7351966,124.623913 63.3815316,124.977553 63.9496141,125.462869 C64.5176966,125.949689 64.8427451,126.489932 64.9240073,127.085102 C64.978182,127.475612 64.7697597,127.971461 64.3009976,128.573403 C63.8322354,129.175345 63.2686675,129.712578 62.6095413,130.183597 C61.950415,130.655369 61.3868471,130.922481 60.9203422,130.986437 C60.798449,131.00299 60.6457063,130.917966 60.4606092,130.731364 C60.2747597,130.544762 60.167915,130.344617 60.1385704,130.129422 C60.1092257,129.915733 60.188983,129.11816 60.3778422,127.735951 C60.5674539,126.354495 60.6494684,125.450078 60.6238859,125.022699 C60.4071869,124.967772 60.2296141,124.881243 60.0896626,124.763864 C59.9497112,124.645733 59.8714587,124.526097 59.8549053,124.404204 C59.8383519,124.283063 59.8940316,124.213087 60.0219442,124.195782 Z" id="Stroke-93" stroke="#FFFFFF" stroke-width="0.5" mask="url(#mask-48)"></path>
                    <path d="M68.7745534,128.534502 C69.1417379,128.0996 69.4381942,127.584939 69.6639223,126.989769 C69.8881456,126.395352 69.9679029,125.8521 69.9001845,125.358507 C69.832466,124.86642 69.6834854,124.47892 69.4524903,124.197512 C69.2222476,123.916104 68.9784612,123.793459 68.7233883,123.82807 C68.4668107,123.863434 68.1741165,124.104964 67.8445534,124.554915 C67.5142379,125.004114 67.2403544,125.571444 67.0206456,126.256153 C66.8016893,126.941614 66.7317136,127.578167 66.8129757,128.167318 C66.8603786,128.518701 66.9762524,128.794842 67.1598447,128.994235 C67.3441893,129.194381 67.5375631,129.280158 67.7429757,129.252318 C68.0635097,129.208677 68.4073689,128.969405 68.7745534,128.534502 M67.7888738,130.019041 C67.3667621,130.076226 66.9694806,129.918968 66.5955243,129.546517 C66.221568,129.173313 66.0056214,128.772269 65.946932,128.343386 C65.8679272,127.76176 65.8935097,127.155303 66.0259369,126.524017 C66.1576117,125.893483 66.3547476,125.33142 66.6173447,124.840085 C66.8784369,124.347998 67.1861796,123.932658 67.5368107,123.594818 C67.8881942,123.256226 68.2305485,123.064357 68.5638738,123.019211 C69.1011068,122.945473 69.5819078,123.129066 70.0077816,123.569235 C70.4329029,124.010158 70.6872233,124.537609 70.7714951,125.152342 C70.855767,125.766323 70.7737524,126.434478 70.5269563,127.156056 C70.2801602,127.877633 69.9062039,128.515692 69.4050874,129.069478 C68.9039709,129.623265 68.365233,129.939284 67.7888738,130.019041" id="Fill-94" fill="#FFFFFF" mask="url(#mask-48)"></path>
                    <path d="M68.7745534,128.534502 C69.1417379,128.0996 69.4381942,127.584939 69.6639223,126.989769 C69.8881456,126.395352 69.9679029,125.8521 69.9001845,125.358507 C69.832466,124.86642 69.6834854,124.47892 69.4524903,124.197512 C69.2222476,123.916104 68.9784612,123.793459 68.7233883,123.82807 C68.4668107,123.863434 68.1741165,124.104964 67.8445534,124.554915 C67.5142379,125.004114 67.2403544,125.571444 67.0206456,126.256153 C66.8016893,126.941614 66.7317136,127.578167 66.8129757,128.167318 C66.8603786,128.518701 66.9762524,128.794842 67.1598447,128.994235 C67.3441893,129.194381 67.5375631,129.280158 67.7429757,129.252318 C68.0635097,129.208677 68.4073689,128.969405 68.7745534,128.534502 Z M67.7888738,130.019041 C67.3667621,130.076226 66.9694806,129.918968 66.5955243,129.546517 C66.221568,129.173313 66.0056214,128.772269 65.946932,128.343386 C65.8679272,127.76176 65.8935097,127.155303 66.0259369,126.524017 C66.1576117,125.893483 66.3547476,125.33142 66.6173447,124.840085 C66.8784369,124.347998 67.1861796,123.932658 67.5368107,123.594818 C67.8881942,123.256226 68.2305485,123.064357 68.5638738,123.019211 C69.1011068,122.945473 69.5819078,123.129066 70.0077816,123.569235 C70.4329029,124.010158 70.6872233,124.537609 70.7714951,125.152342 C70.855767,125.766323 70.7737524,126.434478 70.5269563,127.156056 C70.2801602,127.877633 69.9062039,128.515692 69.4050874,129.069478 C68.9039709,129.623265 68.365233,129.939284 67.7888738,130.019041 Z" id="Stroke-95" stroke="#FFFFFF" stroke-width="0.5" mask="url(#mask-48)"></path>
                    <path d="M76.0960461,122.400415 C76.071216,122.123522 76.1178665,121.977551 76.23675,121.960998 C76.3548811,121.945197 76.4940801,122.000876 76.6550995,122.128789 C76.8161189,122.256701 76.9049053,122.377842 76.9207063,122.492964 C76.9921869,123.017405 77.0125024,123.774347 76.9816529,124.763036 C76.950051,125.751726 76.8552451,126.677964 76.6957306,127.540245 C76.5369684,128.403279 76.335318,128.850221 76.092284,128.88408 C76.009517,128.895367 75.9094442,128.866774 75.7920655,128.797551 C75.6746869,128.72908 75.5791286,128.638036 75.5053908,128.52442 C75.2525752,128.102308 74.4918714,126.759226 73.2240316,124.493667 C73.1329879,125.2634 73.0359248,126.131701 72.9298325,127.100828 C72.8237403,128.070706 72.7507549,128.688449 72.7086189,128.954808 C72.6672354,129.221167 72.6175752,129.358862 72.5603908,129.366386 C72.4761189,129.377672 72.3662646,129.319735 72.227818,129.191823 C72.0901238,129.06391 72.0103665,128.923206 71.9892985,128.769711 C71.968983,128.616216 72.0532549,127.686968 72.2443714,125.982721 C72.4347354,124.277721 72.5084733,123.219808 72.465585,122.808231 C72.4377451,122.604323 72.4776238,122.493716 72.5867257,122.478667 C72.6574539,122.469638 72.7627937,122.514784 72.90425,122.616362 C73.0442015,122.717939 73.1540558,122.835318 73.230051,122.967745 C74.6265558,125.50192 75.5031335,127.051167 75.8605364,127.615488 C76.1261432,126.458255 76.2247112,125.104638 76.1562403,123.555391 C76.1238859,122.842842 76.1043228,122.4576 76.0960461,122.400415" id="Fill-96" fill="#FFFFFF" mask="url(#mask-48)"></path>
                    <path d="M76.0960461,122.400415 C76.071216,122.123522 76.1178665,121.977551 76.23675,121.960998 C76.3548811,121.945197 76.4940801,122.000876 76.6550995,122.128789 C76.8161189,122.256701 76.9049053,122.377842 76.9207063,122.492964 C76.9921869,123.017405 77.0125024,123.774347 76.9816529,124.763036 C76.950051,125.751726 76.8552451,126.677964 76.6957306,127.540245 C76.5369684,128.403279 76.335318,128.850221 76.092284,128.88408 C76.009517,128.895367 75.9094442,128.866774 75.7920655,128.797551 C75.6746869,128.72908 75.5791286,128.638036 75.5053908,128.52442 C75.2525752,128.102308 74.4918714,126.759226 73.2240316,124.493667 C73.1329879,125.2634 73.0359248,126.131701 72.9298325,127.100828 C72.8237403,128.070706 72.7507549,128.688449 72.7086189,128.954808 C72.6672354,129.221167 72.6175752,129.358862 72.5603908,129.366386 C72.4761189,129.377672 72.3662646,129.319735 72.227818,129.191823 C72.0901238,129.06391 72.0103665,128.923206 71.9892985,128.769711 C71.968983,128.616216 72.0532549,127.686968 72.2443714,125.982721 C72.4347354,124.277721 72.5084733,123.219808 72.465585,122.808231 C72.4377451,122.604323 72.4776238,122.493716 72.5867257,122.478667 C72.6574539,122.469638 72.7627937,122.514784 72.90425,122.616362 C73.0442015,122.717939 73.1540558,122.835318 73.230051,122.967745 C74.6265558,125.50192 75.5031335,127.051167 75.8605364,127.615488 C76.1261432,126.458255 76.2247112,125.104638 76.1562403,123.555391 C76.1238859,122.842842 76.1043228,122.4576 76.0960461,122.400415 Z" id="Stroke-97" stroke="#FFFFFF" stroke-width="0.5" mask="url(#mask-48)"></path>
                    <path d="M82.3035704,126.108903 C82.3758034,126.633345 82.1982306,127.105869 81.7738617,127.525723 C81.3479879,127.945578 80.830318,128.196888 80.2193471,128.28116 C79.6083762,128.363927 79.0824296,128.275141 78.6430121,128.011791 C78.2028422,127.749947 77.962818,127.477568 77.9251966,127.19616 C77.8988617,127.003539 77.9432549,126.900456 78.0576238,126.883903 C78.1607063,126.870359 78.3834248,126.996767 78.7257791,127.262374 C78.855949,127.355675 79.0252451,127.436937 79.2336675,127.50616 C79.4413374,127.575383 79.6542743,127.595699 79.8724782,127.565602 C80.3201723,127.503903 80.7024053,127.334607 81.0199296,127.056961 C81.3374539,126.778563 81.4774053,126.50468 81.4412888,126.236816 C81.4172112,126.063005 81.2719927,125.858345 81.0048811,125.622083 C80.7377694,125.384316 80.4488374,125.164607 80.1373325,124.962956 C79.8265801,124.760553 79.5368956,124.537835 79.2690316,124.294049 C79.000415,124.051015 78.855949,123.848612 78.8341286,123.688345 C78.8123083,123.528078 78.820585,123.355019 78.8604636,123.166913 C78.9003422,122.978806 78.9522597,122.83735 79.0184733,122.744049 C79.2299053,122.434801 79.5842985,122.129316 80.0809005,121.82684 C80.57675,121.523612 81.0041286,121.348296 81.3630364,121.298636 C81.5481335,121.273806 81.7136675,121.313684 81.8581335,121.417519 C82.0033519,121.521354 82.0846141,121.64099 82.1026723,121.774922 C82.110949,121.838879 82.0507549,121.899073 81.9220898,121.956257 C81.7926723,122.013442 81.5970413,122.090189 81.3329393,122.188005 C81.0688374,122.286573 80.8378422,122.391913 80.6376966,122.503272 C79.9394442,122.885505 79.6091286,123.208296 79.6452451,123.470141 C79.6640558,123.611597 80.0929393,123.953199 80.9296383,124.497204 C81.2516772,124.707883 81.5518956,124.962204 81.8302937,125.259413 C82.1086917,125.557374 82.2667015,125.840286 82.3035704,126.108903" id="Fill-98" fill="#FFFFFF" mask="url(#mask-48)"></path>
                    <path d="M82.3035704,126.108903 C82.3758034,126.633345 82.1982306,127.105869 81.7738617,127.525723 C81.3479879,127.945578 80.830318,128.196888 80.2193471,128.28116 C79.6083762,128.363927 79.0824296,128.275141 78.6430121,128.011791 C78.2028422,127.749947 77.962818,127.477568 77.9251966,127.19616 C77.8988617,127.003539 77.9432549,126.900456 78.0576238,126.883903 C78.1607063,126.870359 78.3834248,126.996767 78.7257791,127.262374 C78.855949,127.355675 79.0252451,127.436937 79.2336675,127.50616 C79.4413374,127.575383 79.6542743,127.595699 79.8724782,127.565602 C80.3201723,127.503903 80.7024053,127.334607 81.0199296,127.056961 C81.3374539,126.778563 81.4774053,126.50468 81.4412888,126.236816 C81.4172112,126.063005 81.2719927,125.858345 81.0048811,125.622083 C80.7377694,125.384316 80.4488374,125.164607 80.1373325,124.962956 C79.8265801,124.760553 79.5368956,124.537835 79.2690316,124.294049 C79.000415,124.051015 78.855949,123.848612 78.8341286,123.688345 C78.8123083,123.528078 78.820585,123.355019 78.8604636,123.166913 C78.9003422,122.978806 78.9522597,122.83735 79.0184733,122.744049 C79.2299053,122.434801 79.5842985,122.129316 80.0809005,121.82684 C80.57675,121.523612 81.0041286,121.348296 81.3630364,121.298636 C81.5481335,121.273806 81.7136675,121.313684 81.8581335,121.417519 C82.0033519,121.521354 82.0846141,121.64099 82.1026723,121.774922 C82.110949,121.838879 82.0507549,121.899073 81.9220898,121.956257 C81.7926723,122.013442 81.5970413,122.090189 81.3329393,122.188005 C81.0688374,122.286573 80.8378422,122.391913 80.6376966,122.503272 C79.9394442,122.885505 79.6091286,123.208296 79.6452451,123.470141 C79.6640558,123.611597 80.0929393,123.953199 80.9296383,124.497204 C81.2516772,124.707883 81.5518956,124.962204 81.8302937,125.259413 C82.1086917,125.557374 82.2667015,125.840286 82.3035704,126.108903 Z" id="Stroke-99" stroke="#FFFFFF" stroke-width="0.5" mask="url(#mask-48)"></path>
                </g>
                <path d="M0,77.4996252 C0,35.250207 34.2494574,1 76.4996252,1 C118.749043,1 153,35.250207 153,77.4996252 C153,119.749043 118.749043,154 76.4996252,154 C34.2494574,154 0,119.749043 0,77.4996252 Z" id="Stroke-101" stroke="#E9364B" stroke-width="5"></path>
            </g>
        </g>
    </g>
</svg>