<svg height="155" viewBox="0 0 155 155" width="155" xmlns="http://www.w3.org/2000/svg" xmlns:xlink="http://www.w3.org/1999/xlink"><mask id="a" fill="#fff"><path d="m0 155h155v-155h-155z" fill="#fff" fill-rule="evenodd"/></mask><g fill="none" fill-rule="evenodd"><path d="m153 78c0 41.97404-34.026126 76-76.0003703 76-41.9735041 0-75.9996297-34.02596-75.9996297-76 0-41.9732996 34.0261256-76 75.9996297-76 41.9742443 0 76.0003703 34.0267004 76.0003703 76" fill="#fff"/><path d="m125.096764 109h-96.1942735c-1.5961835 0-2.9024905-1.298416-2.9024905-2.884052v-51.2326363c0-1.5863766 1.306307-2.8833117 2.9024905-2.8833117h96.1942735c1.596929 0 2.903236 1.2969351 2.903236 2.8833117v51.2326363c0 1.585636-1.306307 2.884052-2.903236 2.884052" fill="#ffd8dd"/><path d="m125.096786 110h-96.1935715c-1.5961718 0-2.9032145-1.306092-2.9032145-2.901103v-58.1985386c0-1.595011 1.3070427-2.9003584 2.9032145-2.9003584h96.1935715c1.596917 0 2.903214 1.3053474 2.903214 2.9003584v58.1985386c0 1.595011-1.306297 2.901103-2.903214 2.901103z" stroke="#e7364b" stroke-width="2.3"/><path d="m26 52.5h102" stroke="#e7364b" stroke-width="2.3"/><path d="m32 48.9995804c0 .552245-.4479866 1.0004196-.9991611 1.0004196-.5528523 0-1.0008389-.4481746-1.0008389-1.0004196 0-.5522451.4479866-.9995804 1.0008389-.9995804.5511745 0 .9991611.4473353.9991611.9995804" fill="#e8364b"/><path d="m34 48.9995804c0 .552245-.4473353 1.0004196-.9995804 1.0004196-.5530843 0-1.0004196-.4481746-1.0004196-1.0004196 0-.5522451.4473353-.9995804 1.0004196-.9995804.5522451 0 .9995804.4473353.9995804.9995804" fill="#e8364b"/><path d="m37 48.9995804c0 .552245-.4471477 1.0004196-.9991611 1.0004196-.5528523 0-1.0008389-.4481746-1.0008389-1.0004196 0-.5522451.4479866-.9995804 1.0008389-.9995804.5520134 0 .9991611.4473353.9991611.9995804" fill="#e8364b"/><path d="m101.34512 99h-48.6902397c-1.4600368 0-2.6548803-1.2115561-2.6548803-2.6920148v-25.6152234c0-1.4812057 1.1948435-2.6927618 2.6548803-2.6927618h48.6902397c1.460037 0 2.65488 1.2115561 2.65488 2.6927618v25.6152234c0 1.4804587-1.194843 2.6920148-2.65488 2.6920148" fill="#e8364b"/><path d="m83.7197587 62h-13.4402714c-.7042081 0-1.2794873.550036-1.2794873 1.2217423v8.5565154c0 .3434126.151548.6529878.3920645.87545l5.8364827-5.1533477-5.8364827 5.1533477c.2307148.2138229.5428585.3462923.8874228.3462923h13.4402714c.3445644 0 .657462-.1324694.8881768-.3462923l-5.8364827-5.1533477 5.8364827 5.1533477c.2405165-.2224622.3920645-.5320374.3920645-.87545v-8.5565154c0-.6717063-.5760332-1.2217423-1.2802413-1.2217423" fill="#fff"/><path d="m83.7197587 62h-13.4402714c-.7042081 0-1.2794873.550036-1.2794873 1.2217423v8.5565154c0 .3434126.151548.6529878.3920645.87545l5.8364827-5.1533477-5.8364827 5.1533477c.2307148.2138229.5428585.3462923.8874228.3462923h13.4402714c.3445644 0 .657462-.1324694.8881768-.3462923l-5.8364827-5.1533477 5.8364827 5.1533477c.2405165-.2224622.3920645-.5320374.3920645-.87545v-8.5565154c0-.6717063-.5760332-1.2217423-1.2802413-1.2217423z" stroke="#e7364b" stroke-width="1.5"/><path d="m77.3335811 68.6780822 6.6664189-6.3120244c-.2274417-.2252663-.5359001-.3660578-.875576-.3660578h-13.2495912c-.339676 0-.6473911.1407915-.8748328.3660578l6.6664189 6.3120244c.475695.4292237 1.1899807.4292237 1.6671622 0" fill="#fff"/><path d="m77.3335811 68.6780822 6.6664189-6.3120244c-.2274417-.2252663-.5359001-.3660578-.875576-.3660578h-13.2495912c-.339676 0-.6473911.1407915-.8748328.3660578l6.6664189 6.3120244c.475695.4292237 1.1899807.4292237 1.6671622 0z" stroke="#e7364b" stroke-width="1.5"/><g fill="#fff"><path d="m62.2311978 82.5156129c-.2089137 0-.3711699.0867097-.4860725.2624516-.1149025.1741936-.1720055.4188387-.1720055.7308387 0 .651871.2193593.9762581.658078.9762581.1852367 0 .408078-.0503226.6699164-.1532903v.5187096c-.2151811.1006452-.4554317.1494194-.7214485.1494194-.3823119 0-.6733983-.1285161-.8760445-.3863226-.2026463-.2570322-.3036212-.6270968-.3036212-1.1078709 0-.3034839.0501393-.5690323.1490251-.7974194.0995821-.2283871.2423398-.4025806.428273-.5256774.1859331-.1207742.4045961-.1827097.6538997-.1827097.255571 0 .511142.0689032.7688022.2067097l-.1796657.5024516c-.0981895-.051871-.1970752-.0975484-.295961-.1362581-.0995822-.0379355-.1963789-.0572903-.2931755-.0572903"/><path d="m63.5745975 82.997992c0 .190763.0329159.334672.1001789.4323962.0665474.0983936.1760286.1472557.3277281.1472557.1495527 0 .2576028-.0488621.3234347-.1465863.0658318-.0970549.0980322-.2409639.0980322-.4330656 0-.1907631-.0322004-.3346721-.0987478-.4303883-.067263-.0943775-.175313-.1419009-.3270125-.1419009-.1502683 0-.259034.0468541-.3248658.1412316-.0665474.0950469-.0987478.2389558-.0987478.4310576m1.4254025 0c0 .3139223-.0887299.5595716-.2654741.7369478-.1774597.1767068-.4243291.2650602-.7391771.2650602-.1989266 0-.3742397-.0401606-.524508-.1211513-.1516995-.0816599-.2683363-.1974565-.349195-.3493976s-.1216458-.3286479-.1216458-.5314591c0-.3152611.0880143-.560241.2640429-.7356091.1760287-.1746988.4228981-.2623829.7413238-.2623829.1982111 0 .3735242.04083.5237925.1211513.152415.0809906.2676208.1961178.3484794.3467202.0822898.1506024.1223614.3273092.1223614.5301205"/><path d="m65.107 85h.786v-3h-.786z" mask="url(#a)"/><path d="m67.107 85h.786v-3h-.786z" mask="url(#a)"/><path d="m69.0320151 82.3753764c-.1265537 0-.2252354.0354633-.2960452.105721-.0708098.0709267-.1122411.1712947-.1227872.301104h.8316384c-.0022599-.1298093-.040678-.2301773-.1145009-.301104-.0730697-.0702577-.1732581-.105721-.2983051-.105721m.0828625 1.6246236c-.3495292 0-.6229755-.0849783-.820339-.256273-.1958569-.1719639-.2945386-.4141853-.2945386-.7286718 0-.323185.0911488-.5727668.272693-.7494145.1815443-.1773168.433145-.2656407.754049-.2656407.3073446 0 .5468927.0789562.7171375.2335229.1709981.155905.2561205.3700234.2561205.6430244v.2556039h-1.4003766c.0075329.1492138.0572504.2663098.1499058.350619.0934087.08364.2237288.1257945.392467.1257945.1303202 0 .254614-.0120441.3713748-.0361324.1167608-.0240884.2372881-.0628973.3653484-.1164269v.4074941c-.1047081.0461693-.2146893.0809635-.3322034.1030445-.1190207.0227501-.2621469.033456-.4316384.033456" mask="url(#a)"/><path d="m71.1647211 84c-.775616 0-1.1647211-.3293173-1.1647211-.9886212 0-.3279785.1054907-.5783132.3173368-.7516733.2118461-.1726908.5136187-.2597055.9061824-.2597055.2888025 0 .5482058.0441767.7764808.1311914l-.2006053.4069612c-.1063554-.0327978-.206658-.0595716-.2983139-.08166-.0925205-.0207496-.1841763-.0314591-.2775616-.0314591-.3527885 0-.5291828.1941097-.5291828.5829986 0 .3775101.1763943.5655957.5291828.5655957.1314311 0 .252486-.0127175.3640294-.0394913.1115435-.0274431.2230869-.0702811.3346304-.1278447v.4504686c-.1098141.0542168-.2213576.0917001-.3337657.1124498-.1124081.0207496-.2533506.0307898-.4236922.0307898" mask="url(#a)"/><path d="m72.7525 84.4696927c.069 0 .1515-.0245278.2475-.0752749v.4939386c-.098.0752748-.2185.1116436-.361.1116436-.1575 0-.272-.066817-.3435-.2004511-.072-.1353256-.108-.3374683-.108-.6055822v-1.1756414h-.1875v-.2816464l.2165-.2224415.113-.5142374h.2515v.5184663h.4035v.499859h-.4035v1.1756414c0 .0938822.0155.1632366.047.208909.031.0456724.073.066817.1245.066817" mask="url(#a)"/><path d="m75.0312618 82.3753764c-.1258004 0-.2244821.0354633-.2952919.105721-.0708098.0709267-.1122411.1712947-.1227872.301104h.8316384c-.0022599-.1298093-.040678-.2301773-.1152542-.301104-.0723164-.0702577-.173258-.105721-.2983051-.105721m.0828625 1.6246236c-.3495292 0-.6222222-.0849783-.8195857-.256273-.1958569-.1719639-.2945386-.4141853-.2945386-.7286718 0-.323185.0911488-.5727668.272693-.7494145.1815443-.1773168.433145-.2656407.754049-.2656407.3073446 0 .5461394.0789562.7171375.2335229.1709981.155905.2561205.3700234.2561205.6430244v.2556039h-1.4003766c.0075329.1492138.0564971.2663098.1499058.350619.0934087.08364.2237288.1257945.3917137.1257945.1310735 0 .2553673-.0120441.3721281-.0361324.1167608-.0240884.2372881-.0628973.3645951-.1164269v.4074941c-.1039548.0461693-.213936.0809635-.3322034.1030445-.1182674.0227501-.2613936.033456-.4316384.033456" mask="url(#a)"/><path d="m77.7319347 84-.7319347-2h.5487845l.3702964 1.1397849c.0412921.1442942.0666001.2802637.0765901.4092959h.010656c.005328-.1144641.031302-.2511273.0772561-.4092959l.3689644-1.1397849h.5474525l-.7306027 2z" mask="url(#a)"/><path d="m80.3922179 83.072861-.2365759.0073529c-.1782101.0046791-.3105058.0320856-.3968871.0822193-.0871596.0508021-.1299611.1276738-.1299611.2306149 0 .1483958.0988327.2225936.2957198.2225936.1416343 0 .2552529-.0347593.3400778-.1049465s.1276265-.1637701.1276265-.2794118zm.1805447.8930481-.1182879-.2627005h-.0155642c-.1035019.111631-.2093385.1898395-.3190661.2319518-.1089495.0434492-.2505837.0648396-.425681.0648396-.2155642 0-.3859922-.0528075-.5089494-.1584225-.1237354-.1056149-.185214-.256016-.185214-.4512032 0-.2052139.0832685-.3556149.2490272-.4525401.1673152-.0975936.4178989-.1510695.7540856-.1610962l.3891051-.0106952v-.0842246c0-.1951872-.1159533-.2927808-.3486381-.2927808-.1797666 0-.3906615.046123-.6319066.1397059l-.2031129-.355615c.259144-.1156417.5439689-.1731283.8583658-.1731283.3011673 0 .5322957.0561497.6933852.1677807.1603113.112968.2396887.284091.2396887.5140375v1.2840909z" mask="url(#a)"/><path d="m82.107 85h.786v-3h-.786z" mask="url(#a)"/><path d="m83.033 85h.785v-2.1557827h-.785zm-.033-2.7128614c0-.1914257.142-.2871386.426-.2871386.286 0 .429.0957129.429.2871386 0 .0912263-.036.163011-.106.2131107-.072.0515952-.179.0770189-.323.0770189-.284 0-.426-.0972084-.426-.2901296z" mask="url(#a)"/><path d="m85.012254 84.5370416c.1500186 0 .2584478-.0428255.3282584-.1292149.0698107-.085651.1076866-.2318484.1143706-.4393305v-.0627615c0-.2288949-.0356479-.3920748-.1069439-.4910165-.0705533-.0982033-.1856665-.1491509-.3453398-.1491509-.1299665 0-.2309691.0561162-.3030078.165395-.0727813.1092789-.1084292.268767-.1084292.4784642 0 .2096973.0356479.3662319.1091719.4710805.0727813.105587.1767545.1565346.3119198.1565346m-.2042332.4629584c-.2517638 0-.449313-.0974649-.5933903-.290918-.1433345-.1941915-.2146305-.4636968-.2146305-.8063008 0-.3499877.0720386-.6217081.2190865-.816638.1455626-.1949298.3468251-.2923947.6037876-.2923947.2688452 0 .4745637.1041102.6164129.3123308h.0193094c-.028964-.1580114-.0438173-.3005169-.0438173-.4245632v-.6815161h.5852209v2.9623431h-.447085l-.113628-.2761506h-.0245079c-.13368.2089589-.3356852.3138075-.6067583.3138075" mask="url(#a)"/><path d="m87.6900188 82.6196289v-.0512695c.2222223-.2512207.374388-.440918.4549906-.5683594h.6644068v.0395508c-.0677966.065918-.1822976.1625976-.3450094.2915039-.1619586.1289062-.2885123.2248535-.3811676.2885742zm.341243.6020508c-.1258004 0-.2244821.0388183-.2945386.1157226-.0715631.0776368-.1129944.1875-.1235405.3303223h.8316384c-.0022599-.1428223-.040678-.2526855-.1145009-.3303223-.073823-.0769043-.1740113-.1157226-.2990584-.1157226zm.0828625 1.7783203c-.3487759 0-.6229755-.0930176-.8188324-.2805176-.1966102-.1882324-.2952919-.4533691-.2952919-.7976074 0-.3537598.0903955-.6269531.2719397-.8203125.1830509-.1933594.4338983-.2900391.7548023-.2900391.3073446 0 .5461394.0856934.7163842.2548828.1717514.1706543.2568738.4050293.2568738.7038575v.2797851h-1.4003766c.0075329.1640625.0564971.2922364.1499058.3845215.0934087.0915527.2237288.1369629.392467.1369629.1295669 0 .2538607-.0131836.3713748-.0395508.1160075-.0263672.2372881-.0681152.3645951-.126709v.4453125c-.1039548.0505371-.213936.0886231-.3322034.112793-.1182674.0249023-.2621469.0366211-.4316384.0366211z" mask="url(#a)"/><path d="m90.0312618 82.3753764c-.1258004 0-.2244821.0354633-.2952919.105721-.0708098.0709267-.1122411.1712947-.1227872.301104h.8316384c-.0022599-.1298093-.040678-.2301773-.1152542-.301104-.0723164-.0702577-.173258-.105721-.2983051-.105721m.0828625 1.6246236c-.3495292 0-.6222222-.0849783-.8195857-.256273-.1958569-.1719639-.2945386-.4141853-.2945386-.7286718 0-.323185.0911488-.5727668.272693-.7494145.1815443-.1773168.433145-.2656407.754049-.2656407.3073446 0 .5461394.0789562.7171375.2335229.1709981.155905.2561205.3700234.2561205.6430244v.2556039h-1.4003766c.0075329.1492138.0564971.2663098.1499058.350619.0934087.08364.2237288.1257945.3917137.1257945.1310735 0 .2553673-.0120441.3721281-.0361324.1160075-.0240884.2372881-.0628973.3645951-.1164269v.4074941c-.1039548.0461693-.213936.0809635-.3322034.1030445-.1182674.0227501-.2613936.033456-.4316384.033456" mask="url(#a)"/><path d="m92.771 83.9692628h-.629l-.132-1.9692628h.893zm-.771.6884606c0-.1133108.039-.1977078.117-.2555353.077-.058609.189-.0867414.337-.0867414.143 0 .254.0289138.332.0890857.078.058609.117.143006.117.253191 0 .1062776-.04.1898932-.119.2508465-.078.0609534-.189.0914301-.33.0914301-.145 0-.256-.0304767-.334-.0898672-.08-.0593904-.12-.1430059-.12-.2524094z" mask="url(#a)"/></g><path d="m2 77.9996276c0-41.9732782 34.0261827-75.9996276 76-75.9996276 41.973073 0 76 34.0263494 76 75.9996276 0 41.9732784-34.026927 76.0003724-76 76.0003724-41.9738173 0-76-34.027094-76-76.0003724z" mask="url(#a)" stroke="#ffd8dd" stroke-width="5"/></g></svg>