<svg height="224" viewBox="0 0 224 224" width="224" xmlns="http://www.w3.org/2000/svg" xmlns:xlink="http://www.w3.org/1999/xlink"><mask id="a" fill="#fff"><path d="m.98008696 109.602493c0 60.508092 49.05132364 109.559415 109.55941504 109.559415 60.508092 0 109.560484-49.051323 109.560484-109.559415 0-60.508092-49.052392-109.56048334-109.560484-109.56048334-60.5080914 0-109.55941504 49.05239134-109.55941504 109.56048334z" fill="#fff" fill-rule="evenodd"/></mask><mask id="b" fill="#fff"><path d="m.98008696 109.602493c0 60.508092 49.05132364 109.559415 109.55941504 109.559415 60.508092 0 109.560484-49.051323 109.560484-109.559415 0-60.508092-49.052392-109.56048334-109.560484-109.56048334-60.5080914 0-109.55941504 49.05239134-109.55941504 109.56048334z" fill="#fff" fill-rule="evenodd"/></mask><mask id="c" fill="#fff"><path d="m.98008696 109.602493c0 60.508092 49.05132364 109.559415 109.55941504 109.559415 60.508092 0 109.560484-49.051323 109.560484-109.559415 0-60.508092-49.052392-109.56048334-109.560484-109.56048334-60.5080914 0-109.55941504 49.05239134-109.55941504 109.56048334z" fill="#fff" fill-rule="evenodd"/></mask><mask id="d" fill="#fff"><path d="m.98008696 109.602493c0 60.508092 49.05132364 109.559415 109.55941504 109.559415 60.508092 0 109.560484-49.051323 109.560484-109.559415 0-60.508092-49.052392-109.56048334-109.560484-109.56048334-60.5080914 0-109.55941504 49.05239134-109.55941504 109.56048334z" fill="#fff" fill-rule="evenodd"/></mask><mask id="e" fill="#fff"><path d="m.98008696 109.602493c0 60.508092 49.05132364 109.559415 109.55941504 109.559415 60.508092 0 109.560484-49.051323 109.560484-109.559415 0-60.508092-49.052392-109.56048334-109.560484-109.56048334-60.5080914 0-109.55941504 49.05239134-109.55941504 109.56048334" fill="#fff" fill-rule="evenodd"/></mask><mask id="f" fill="#fff"><path d="m.98008696 109.602493c0 60.508092 49.05132364 109.559415 109.55941504 109.559415 60.508092 0 109.560484-49.051323 109.560484-109.559415 0-60.508092-49.052392-109.56048334-109.560484-109.56048334-60.5080914 0-109.55941504 49.05239134-109.55941504 109.56048334" fill="#fff" fill-rule="evenodd"/></mask><mask id="g" fill="#fff"><path d="m.98008696 109.602493c0 60.508092 49.05132364 109.559415 109.55941504 109.559415 60.508092 0 109.560484-49.051323 109.560484-109.559415 0-60.508092-49.052392-109.56048334-109.560484-109.56048334-60.5080914 0-109.55941504 49.05239134-109.55941504 109.56048334" fill="#fff" fill-rule="evenodd"/></mask><mask id="h" fill="#fff"><path d="m.98008696 109.602493c0 60.508092 49.05132364 109.559415 109.55941504 109.559415 60.508092 0 109.560484-49.051323 109.560484-109.559415 0-60.508092-49.052392-109.56048334-109.560484-109.56048334-60.5080914 0-109.55941504 49.05239134-109.55941504 109.56048334" fill="#fff" fill-rule="evenodd"/></mask><mask id="i" fill="#fff"><path d="m.98008696 109.602493c0 60.508092 49.05132364 109.559415 109.55941504 109.559415 60.508092 0 109.560484-49.051323 109.560484-109.559415 0-60.508092-49.052392-109.56048334-109.560484-109.56048334-60.5080914 0-109.55941504 49.05239134-109.55941504 109.56048334z" fill="#fff" fill-rule="evenodd"/></mask><mask id="j" fill="#fff"><path d="m.98008696 109.602493c0 60.508092 49.05132364 109.559415 109.55941504 109.559415 60.508092 0 109.560484-49.051323 109.560484-109.559415 0-60.508092-49.052392-109.56048334-109.560484-109.56048334-60.5080914 0-109.55941504 49.05239134-109.55941504 109.56048334" fill="#fff" fill-rule="evenodd"/></mask><mask id="k" fill="#fff"><path d="m.98008696 109.602493c0 60.508092 49.05132364 109.559415 109.55941504 109.559415 60.508092 0 109.560484-49.051323 109.560484-109.559415 0-60.508092-49.052392-109.56048334-109.560484-109.56048334-60.5080914 0-109.55941504 49.05239134-109.55941504 109.56048334" fill="#fff" fill-rule="evenodd"/></mask><mask id="l" fill="#fff"><path d="m.98008696 109.602493c0 60.508092 49.05132364 109.559415 109.55941504 109.559415 60.508092 0 109.560484-49.051323 109.560484-109.559415 0-60.508092-49.052392-109.56048334-109.560484-109.56048334-60.5080914 0-109.55941504 49.05239134-109.55941504 109.56048334" fill="#fff" fill-rule="evenodd"/></mask><mask id="m" fill="#fff"><path d="m.98008696 109.602493c0 60.508092 49.05132364 109.559415 109.55941504 109.559415 60.508092 0 109.560484-49.051323 109.560484-109.559415 0-60.508092-49.052392-109.56048334-109.560484-109.56048334-60.5080914 0-109.55941504 49.05239134-109.55941504 109.56048334" fill="#fff" fill-rule="evenodd"/></mask><mask id="n" fill="#fff"><path d="m.98008696 109.602493c0 60.508092 49.05132364 109.559415 109.55941504 109.559415 60.508092 0 109.560484-49.051323 109.560484-109.559415 0-60.508092-49.052392-109.56048334-109.560484-109.56048334-60.5080914 0-109.55941504 49.05239134-109.55941504 109.56048334" fill="#fff" fill-rule="evenodd"/></mask><g fill="none" fill-rule="evenodd" transform="translate(1 1)"><path d="m220 109.499466c0 60.47605-49.024484 109.500534-109.500534 109.500534-60.4749823 0-109.499466-49.024484-109.499466-109.500534 0-60.4749823 49.0244837-109.499466 109.499466-109.499466 60.47605 0 109.500534 49.0244837 109.500534 109.499466" fill="#fff"/><path d="m199.844001 59.0549884s-12.99843 4.0868986-17.641565 2.631715c-4.645271-1.4562512-13.677445-4.5438454-16.314498-4.4135942-13.030459-1.4797392-37.994918 5.6242898-37.994918 5.6242898l-15.313058 3.315c-.503922 5.6296281 4.937802 9.1634928 10.483087 8.0734396l22.975459-2.2665845-50.8278645 23.0064203c-5.9691353 2.6797585-2.7459517 10.5364686 2.9381256 8.7577926l40.6106179-14.7973916-44.0718836 18.8437196c-6.6332029 2.285802-4.4925991 11.641469 2.2527053 8.850676l46.2028793-14.194178-38.402754 13.82798c-4.18512 1.337744-1.954835 9.366343 3.676928 7.875928l42.405309-10.95071-26.385478 12.463546c-4.50114 3.068377.026691 8.247463 4.015367 6.214691l46.690787-20.634141 57.532599-26.568043-24.338826-28.267715z" fill="#f6c8a3" mask="url(#a)"/><path d="m72.5371111 98.6481527 70.9271209-22.1576522 12.671734 49.7292705-68.5110674 27.30044z" fill="#ffa2ab" mask="url(#b)"/><path d="m48.404872 88.9664309 24.1327729 9.6812947 15.0867198 54.8731254-25.2238937-12.421908z" fill="#9e223e" mask="url(#c)"/><path d="m48.404872 88.9664309 76.645362-21.4434058 18.413464 8.9670483-70.9260531 22.1576522z" fill="#e8364b" mask="url(#d)"/><g fill="#fff"><path d="m94.9125604 118.342989c-.1697536-.595739-.7847102-.941652-1.3804493-.780439 0 0-.0096087.002135-.0138792.003203-.598942.170821-.9459227.795386-.7761691 1.393261 1.0025072 3.529594 2.1406039 7.045309 3.3982754 10.509777l-9.8019372-11.240038c-.3363044-.385416-.8882706-.498585-1.3484203-.270111-.4590821.22527-.7089082.731328-.6074831 1.233115.6896908 3.444184 1.8139082 6.805092 2.8996908 10.054967 1.1210145 3.354502 2.2804638 6.823241 2.9306522 10.316536.1131691.612821.7025024 1.017454 1.3153237.903217.0298937-.005338.0597874-.012811.0896811-.020285.5605073-.151604.9202995-.713178.8135362-1.295038-.6779468-3.647034-1.8630193-7.191575-3.009657-10.620812-.578657-1.730633-1.1669227-3.492227-1.692198-5.271971l10.9293575 12.530807c.3629951.415309.9747488.508193 1.4434399.217797.469758-.290396.659797-.877594.449473-1.38899-2.1769033-5.292256-4.0740869-10.769213-5.6392366-16.274996" mask="url(#e)"/><path d="m104.267907 124.057601c-.051247.02242-.097155.051246-.143063.079005-.038435-.145198-.075802-.290396-.118507-.435594-.0363-.124913-.074735-.249826-.114237-.375807-.147333-.477232-.286126-.928841-.318155-1.346285-.016014-.207121-.007473-.436662.001068-.68115.006406-.222068.014947-.450541.007473-.693961-.013879-.477232-.08541-.930976-.1847-1.371909 1.322797 1.272619 2.619971 2.576199 3.893657 3.902199-1.037739.199647-2.050923.506058-3.023536.923502m16.481048-12.702696c-.169754-.595739-.785778-.941652-1.379382-.781507-.005338.001068-.009608.002135-.009608.002135-.605348.171889-.952329.796454-.782575 1.395396 1.003575 3.527459 2.140604 7.044242 3.399343 10.508711l-9.803005-11.238971c-.335237-.385416-.889338-.498585-1.347353-.271179-.459082.226338-.708908.732396-.60855 1.233116.690758 3.445251 1.813908 6.806159 2.900758 10.054966.671541 2.009285 1.354826 4.060208 1.936686 6.133551-3.994014-4.738155-8.323266-9.244633-12.89914-13.411604-.339507-.310681-.835957-.381145-1.248063-.182565-.415309.199647-.666203.630971-.636309 1.09112.059787.927773.321357 1.772271.572251 2.58901.238082.768696.462285 1.495754.483638 2.196121.005338.182565-.002135.36513-.008541.547695-.009609.2936-.019218.597875.005338.928841.051246.671541.24342 1.292903.412106 1.841667.0363.116372.071532.232744.106764.349116.518869 1.757323.708908 3.588314.908555 5.525.225271 2.174768.456947 4.421067 1.196817 6.57555.194309.564778.791115.876527 1.361231.722788.023488-.005338.048044-.012812.071532-.021353.590401-.20285.904285-.844497.701435-1.433831-.655527-1.911063-.864783-3.933159-1.086851-6.073763-.116372-1.128488-.238082-2.277261-.42812-3.423899.143062.01815.292531.011744.437729-.027758.050179-.012812.101425-.030961.150536-.052314 1.047348-.448406 2.152348-.752681 3.281904-.903217.223135-.030962.422782-.125981.58186-.262638 1.891845 2.041314 3.721768 4.137077 5.479091 6.277681.333102.404633.886136.515667 1.340947.306411.072599.341642.146266.683285.209256 1.025995.114237.612821.701435 1.017454 1.315324.90215.029894-.005339.059787-.011744.089681-.019218.561575-.152671.921367-.713179.812469-1.295038-.67688-3.647034-1.86302-7.192643-3.00859-10.620812-.578657-1.731701-1.16799-3.493295-1.69113-5.273039l10.927222 12.530807c.364063.416377.974749.509261 1.444507.217797.468691-.289328.659797-.877594.450541-1.387923-2.177971-5.294391-4.076222-10.77028-5.640304-16.274995" mask="url(#f)"/><path d="m130.103768 117.068983c-.051247.02242-.096087.050179-.143063.079005-.038435-.145198-.074734-.290396-.11744-.435594-.037367-.124913-.075802-.249826-.115304-.375807-.146266-.477232-.285058-.928841-.317087-1.347353-.016015-.20712-.008541-.436662 0-.681149.007473-.221.014947-.450542.007473-.692894-.013879-.477232-.08541-.930976-.183633-1.371908 1.32173 1.272618 2.619972 2.576198 3.89259 3.902198-1.036672.199647-2.050923.506058-3.023536.923502m11.975637 5.754541c-4.316439-5.260227-9.055662-10.250343-14.087415-14.832623-.339507-.310681-.835957-.381145-1.248063-.182565-.415309.200715-.666203.630971-.636309 1.091121.059787.927772.321357 1.77227.573319 2.587942.237014.769763.461217 1.496821.48257 2.197188.005338.182565-.002136.364063-.008541.546628-.009609.294667-.019218.598942.005338.928841.051246.671541.24342 1.293971.413174 1.842734.035232.116372.071531.232744.105695.349116.519938 1.757323.708909 3.588314.908556 5.526067.225271 2.173701.458014 4.42 1.196816 6.574484.19431.564777.791116.876526 1.361232.722787.023488-.005338.048044-.012812.072599-.021353.589334-.20285.903218-.844497.700367-1.433831-.655526-1.911062-.864782-3.933159-1.085782-6.073763-.11744-1.12742-.238082-2.277261-.429189-3.423898.144131.018149.292532.011744.43773-.027759.051246-.012811.101425-.030961.151604-.052314 1.04628-.448406 2.152348-.752681 3.280836-.903217.223135-.030962.422782-.125981.581859-.263706 1.891846 2.041314 3.721769 4.138145 5.479092 6.278749.395024.48257 1.107136.551966 1.58757.156942.481503-.395024.551966-1.106067.156942-1.58757" mask="url(#g)"/><path d="m133.433928 95.8549048c.333101.0170822.673676.0629904 1.009981.1088986.244488.0330966.474029.064058.702502.0854106.100358.0085411.204986.0138792.27972-.0170821.118507-.0501788.188971-.1985797.270111-.369401.033097-.0704638.069396-.1441304.109966-.2156618.294667-.5092609.907488-.8210097 1.638817-.8359565.463352-.0096087.913893.0918164 1.34842.188971.127048.0288261.251961.0555169.377942.0822077.20285.0405701.415309.0758019.619227.1099662.583995.0971546 1.187208.1985797 1.744512.4516087.330966.1516038.643783.357657.934179.6128212-.001068-.0021352-.003203-.0053381-.005338-.0074734-.653392-.9021497-1.674049-1.5897053-2.876203-1.936686-1.234184-.3565894-2.458759-.2669082-3.359841.2444879-.248758.1409276-.477232.3149517-.719584.497517-.300005.2252705-.610686.4601497-.964073.6299033-.32456.1558744-.668338.2498261-1.000372.3405749-.038435.0096087-.074734.0192174-.109966.0298937m-2.833498.8498358c.016015.0266908.037368.0512464.059788.0683285.108898.084343.291464.0480435.42385-.0234879-.16228.0106763-.327763-.0042706-.483638-.0448406m-1.885439 5.8346134h-.002135c-.052314.053382-.028827.213527-.020285.273314.016014.122778.034164.245556.053381.368333.073667-.123845.137725-.241285.155875-.364062.010676-.067261-.027759-.159078-.093952-.223136-.043773-.043773-.080073-.054449-.092884-.054449m9.56599.021353c.164416.093951.313884.193241.444135.288261.219933.160145.431324.339507.63631.513531.526343.446271 1.022792.867986 1.642019.996101.625633.130252 1.349488-.087545 1.88544-.569048.610686-.546628.884-1.291836 1.006777-1.820314.227406-.982222.149469-2.0850868-.224203-3.2007631-.020285.2348792-.059787.4665555-.119574.6918261-.353387 1.301444-1.428493 2.332778-2.677624 2.569792-.293599.055517-.589333.069396-.876526.082208-.361928.016014-.704638.032029-1.030266.125981-.242353.071531-.469758.1847-.686488.322425m-1.431695-.002136c-.067261-.002135-.13559-.001067-.203918.005339-.573319.045908-1.225643.46442-1.320662 1.083647-.023488.147333-.017082.301072-.009609.465488.002135.046976.004271.095019.005338.143063.534884-.328831 1.080445-.730261 1.648425-1.207493l.155875-.133454c.102493-.086478.204985-.174024.309613-.259435-.186835-.056584-.382212-.091816-.585062-.097155m-5.751339 2.89115c.48257.0363.945923.002136 1.374044-.069396-.057652-.006406-.114237-.014947-.167619-.024555-.045908-.006406-.091816-.01388-.136657-.019218-.316019-.036299-.642715.027759-.98756.098222-.028826.005339-.055517.009609-.082208.014947m.23488.438797c-.386484-.008541-.764426-.057652-1.128488-.143062-.569049-.134522-.991831-.346981-1.295039-.648054-.345913-.34271-.512464-.804995-.454812-1.227777-.090748-.329899-.138792-.667271-.185768-.997169-.019217-.137725-.060855-.423851.127049-.621363.13986-.147333.345913-.18043.539154-.086478.228474.112101.436662.411039.389686.717449-.034164.223136-.140927.403565-.245555.57759-.068329.113169-.131319.217797-.167619.325628-.007473.020285-.012811.041637-.018149.060855.034164.115304.074734.226338.123845.335236.200715.445203.525275.767628.890406.881865.367265.115305.765492.035232 1.188275-.049111.362995-.071531.73987-.147333 1.122082-.102493.051247.006406.102493.014947.153739.023488.144131.022421.280788.043773.385416.007474.033096-.012812.067261-.032029.100357-.055517.022421-.115305.093952-.217797.203918-.287193.101425-.062991.230609-.09502.361928-.096087.061922-.017083.124913-.025624.188971-.025624 0 0 .033096-.006405.050178-.007473.073667-.005338.147334.012812.210324.050179.027759.008541.053382.019217.079005.030961.111034-.044841.235947-.050179.346981-.02242.107831.026691.193241.083275.249826.156942.113169-.055517.226338-.115305.339507-.178295.009609-.119575.00427-.245555-.001068-.376874-.007473-.177227-.013879-.361928.014947-.549831.116372-.753749.851971-1.374044 1.70928-1.44344.438797-.035232.855174.057652 1.224575.207121.308546-.219932.639512-.408903 1.012116-.516734.374739-.108899.759087-.125981 1.131691-.143063.282923-.012812.551966-.025623.815672-.074734 1.09112-.207121 2.032772-1.115677 2.343454-2.2623145.148401-.5519662.155874-1.14557.030961-1.7252947-.471894-.8423623-1.096459-1.4647922-1.810705-1.7904203-.507126-.229541-1.055889-.3202898-1.637749-.418512-.209256-.0341643-.42385-.0704638-.635242-.1131691-.128116-.0256232-.256232-.0544493-.385415-.0832754-.429189-.0960869-.834889-.1857681-1.246995-.1793623-.448406.0085411-1.018522.1772271-1.277957.6234976-.032029.0555169-.061923.1185072-.093952.1847005-.10356.2188647-.222067.4665555-.490043.5797246-.164415.0704638-.336304.0619227-.484705.0480435-.237015-.020285-.48257-.0555169-.719585-.0875459-.896811-.1217102-1.823517-.2476908-2.485449.2519613-.068329.0523141-.134522.1110339-.203918.1729566-.115304.1035604-.234879.2103236-.377942.2957343-.244488.1441304-.630971.2306087-.922435.0032029-.160145-.1249131-.235947-.3064107-.28399-.4516087-.032029-.0907488-.056585-.1836329-.07687-.2765169-.072599-.0800725-.132386-.1740242-.176159-.2818551-.203918-.5124638.070464-.9790193.375807-1.3964638.002135-.0053381.00427-.0106763.006405-.0149468.04057-.0822078.085411-.1665508.131319-.2519614.193242-.3619275.376875-.7025024.229541-.9694106-.050178-.0896812-.140927-.1676184-.235947-.2508937-.025623-.0213527-.052314-.043773-.076869-.0661933-.380077-.3427101-.540222-.7718985-.695029-1.1882753-.100358-.2701112-.197512-.5306136-.351251-.7484107-.033097.1121015-.066194.244488-.093952.3480483-.11744.4612174-.19858.7505459-.328831.8829324-.083275.084343-.218865.084343-.303208.0021353-.083275-.084343-.084343-.2177971-.002135-.3021401.06299-.0768696.16228-.4590821.221-.6875556.136657-.5380869.200715-.7590869.388618-.8135362.085411-.0234879.175092-.0010676.241285.0629903.33417.3160194.484706.7185169.628836 1.1071353.143063.3832802.278652.7462754.579725 1.0185217.024555.0202851.048043.0416377.071531.0629904.107831.0918164.229541.197512.31602.3416425.077937-.7046377-.221-1.422087-.695029-2.221744-.231677-.389686-.466556-.7494782-.817807-.8658502-.298937-.0992899-.753749.9000145-.904285 1.2288454-.057652.1238454-.102493.2220676-.13986.2914638-.056585.1035603-.186836.1419951-.289329.084343-.104628-.0565846-.141995-.1857682-.086478-.2893285.032029-.0565846.075802-.1537392.127048-.264773.286126-.6256328.766561-1.6729807 1.426358-1.4562512.532749.1750918.845565.7046377 1.051618 1.0537536.683285 1.1519759 1.187208 2.4000387.272247 3.7142947-.060855.0875459-.127049.1761594-.195377.2669082-.0363.0480435-.072599.096087-.106763.1441305-.177227.3854154-.237015.8210096-.175092 1.2384541.212459.1590773.548763.1996473.824212.1313188.272247-.0651256.525276-.200715.792184-.3448454.160145-.084343.323493-.1729565.495382-.2476908.290396-.1259807.594671-.2081884.88827-.2882609.329899-.0886135.64058-.1729565.928841-.3128164.314951-.1516039.594671-.3629952.890405-.5861305.243421-.1836328.493247-.3715362.767629-.5274106 1.015318-.5765217 2.325304-.6768792 3.688671-.2839903 1.292903.3736715 2.3947 1.1178116 3.103609 2.0957633.370468.5124637.627768 1.0847149.763357 1.6729806.152672.2765169.288261.5754541.406768.8925411.481503 1.282227.596807 2.5623186.330966 3.7025506-.134521.589333-.444135 1.421019-1.137028 2.042382-.635242.570116-1.500025.826348-2.258044.669406-.724923-.150537-1.286498-.626701-1.83099-1.087918-.199648-.168686-.404633-.34271-.611754-.495382-.164415-.119575-.36086-.246623-.58186-.355522-.166551.129184-.328831.266909-.488976.403566l-.159077.134521c-.677947.570116-1.330271 1.036672-1.968715 1.405005-.101425.371536-.388618.712111-.793251.702503h-.004271v.002135c-.013879.057652-.050178.105695-.100357.135589-.051247.029894-.111034.038435-.166551.021353-.125981-.035232-.242353-.106763-.335237-.19858-.859444.317087-1.719956.466556-2.542033.444135" mask="url(#h)"/><path d="m129.170657 93.0555715c.755884 1.9281449-.265841 1.9879324-.265841 1.9879324l-17.555087 6.2691401s-3.884048 1.322797-4.437082-2.0071498c-.553034-3.3278116 1.779744-3.978 1.779744-3.978s16.450087-6.1912029 17.737652-6.3716328c1.286498-.1793624 1.235251.4259855 1.235251.4259855s.26157.6352415.565846 1.3804492z" mask="url(#i)"/></g><path d="m106.821257 98.530286.019218-.7121111c.76229-.8936087 1.630275-1.547 2.729937-1.9601739 1.146638-.4302561 2.283667-.8690532 3.382261-1.293971 3.758068-1.4519807 7.774502-2.9669517 11.950014-4.1274686.611754-.1697537 1.205358-.4153092 1.779744-.6523237.308546-.128116.626701-.2594348.949126-.3800773l.149469.4003623c-.314952.1174396-.630971.2487585-.936314.3747391-.585063.2412851-1.190411.4921788-1.827788.6694058-4.157362 1.1551788-8.163121 2.6658793-11.909444 4.1135894-1.10073.4259855-2.237759.8647826-3.386532 1.2961063-1.02813.3854154-2.171565 1.4199517-2.899691 2.2719227" fill="#e8364b" mask="url(#j)"/><path d="m107.113255 100.036823-.165483-.5487636c.798589-.9341787 2.258043-1.735971 3.321406-2.1352657.547695-.2049855 1.095391-.3790096 1.627072-.546628.571184-.1814976 1.160517-.3683333 1.741309-.5925362 1.248063-.4825701 2.512141-1.0099807 3.73458-1.5213768 2.640256-1.1028648 5.371261-2.2430967 8.155647-3.0181981.573319-.1590773 1.071904-.3790097 1.600382-.6096184.325628-.1430628.661932-.2903961 1.021725-.4249178l.150536.3992946c-.349116.1313189-.680082.276517-1.00144.4174445-.517802.2274058-1.053753.462285-1.656966.6299034-2.758763.7665604-5.475889 1.9025217-8.104401 3.0000483-1.225642.5124637-2.491855 1.0420096-3.745256 1.5256473-.593604.2295411-1.189343.4185121-1.765865.6010773-.52741.1665507-1.069768.3395073-1.606787.5402222-.995034.3736715-2.561251 1.4114107-3.306459 2.283667" fill="#e8364b" mask="url(#k)"/><path d="m107.685613 100.890715-.30214-.349115c.651256-.7622903 1.818179-.9181647 2.87727-1.2811599.238083-.0822077.463353-.1590773.65873-.232744.587198-.221 1.273686-.5210048 1.935618-.8124686.602145-.2637053 1.224575-.5370193 1.764797-.7452077 1.238455-.4782995 2.451285-.9843575 3.622479-1.4733333 2.625309-1.0943237 5.104352-2.1277923 7.898347-2.905029.501788-.1398599.913894-.3768744 1.349488-.6299034.357657-.2071208.727058-.421715 1.158382-.5818599l.148401.4003623c-.396092.1473334-.750546.3533865-1.093256.5508986-.439865.2551642-.894676.5188695-1.44771.6726087-2.768372.7697633-5.236739 1.7989613-7.849237 2.8879468-1.174396.4889759-2.388295.9961015-3.632087 1.4765363-.531681.2049855-1.150908.4761642-1.747715.7388019-.668338.293599-1.359096.5957391-1.956971.8210097-.201782.0747343-.429188.1526715-.670473.2370144-1.009981.3459131-2.138469.5519661-2.713923 1.2256421" fill="#e8364b" mask="url(#l)"/><path d="m109.244357 101.561189-.319222-.075802-.524208-.160145h.001068c.497517.013879 1.792555-.51887 2.833497-.945923.594672-.244488 1.156247-.4750963 1.520309-.5861301.526343-.1601449 1.105-.3672657 1.66444-.5679807.589333-.2113913 1.201087-.430256 1.761594-.5978744 2.066937-.6170918 3.81572-1.418884 5.668063-2.2676522 1.493618-.6854202 3.037416-1.3932608 4.779792-2.0060821.596807-.209256 1.180802-.3768744 1.744512-.5380869.296802-.084343.603213-.1729566.908556-.2658406l.124913.409971c-.308546.0939517-.617092.1814976-.916029.2669082-.557304.1590773-1.134894.325628-1.719956.5306135-1.72316.6053479-3.259484 1.3099855-4.743493 1.9900677-1.866222.8562415-3.629952 1.6644396-5.72358 2.2900724-.549831.1644155-1.155179.381145-1.741309.590401-.56371.2028502-1.146638.4110382-1.68259.5754542-.344845.10356-.897879.330966-1.482942.571183-1.189343.488976-1.565149.80286-2.153415.786846" fill="#e8364b" mask="url(#m)"/><path d="m133.71226 134.524353c-1.806435-3.042753-5.691551-4.118927-8.806903-2.443811l-31.2453435 13.343275c-.5498309.233812-1.1423671.354454-1.7402415.352319h-38.7305169c-2.4331353 0-4.4039855-1.97085-4.4039855-4.402918 0-2.433135 1.9708502-4.403986 4.4039855-4.403986h17.6148744c7.2972705 0 13.2108889-5.914686 13.2108889-13.211956h-36.6390242c-6.0726956.00427-11.8154928 2.768372-15.6109275 7.508662l-23.78152177 19.531275 15.54580197 28.492986 69.8007681-17.19743c2.5847391-.596807 5.0851352-1.512836 7.441401-2.729938l30.827898-15.788154c3.06731-1.92601 4.008962-5.96273 2.112846-9.050324" fill="#f6c8a3" mask="url(#n)"/><path d="m2 111.000534c0-60.1985174 48.8007094-109.000534 109-109.000534 60.198222 0 109 48.8020166 109 109.000534 0 60.198517-48.801778 108.999466-109 108.999466-60.1992906 0-109-48.800949-109-108.999466z" stroke="#ffd8dd" stroke-width="5"/></g></svg>