<?xml version="1.0" encoding="UTF-8"?>
<svg width="155px" height="155px" viewBox="0 0 155 155" version="1.1" xmlns="http://www.w3.org/2000/svg" xmlns:xlink="http://www.w3.org/1999/xlink">
    <title>Group 45</title>
    <defs>
        <polygon id="path-1" points="0 155 155 155 155 0 0 0"></polygon>
    </defs>
    <g id="Page-1" stroke="none" stroke-width="1" fill="none" fill-rule="evenodd">
        <g id="ORGANISER-UNE-COLLECTE" transform="translate(-432.000000, -1323.000000)">
            <g id="Group-45" transform="translate(432.000000, 1323.000000)">
                <path d="M153,78 C153,119.97404 118.973874,154 76.9996297,154 C35.0261256,154 1,119.97404 1,78 C1,36.0267004 35.0261256,2 76.9996297,2 C118.973874,2 153,36.0267004 153,78" id="Fill-1" fill="#FFFFFF"></path>
                <path d="M125.096764,109 L28.9024905,109 C27.306307,109 26,107.701584 26,106.115948 L26,54.8833117 C26,53.2969351 27.306307,52 28.9024905,52 L125.096764,52 C126.693693,52 128,53.2969351 128,54.8833117 L128,106.115948 C128,107.701584 126.693693,109 125.096764,109" id="Fill-3" fill="#FFD8DD"></path>
                <path d="M125.096786,110 L28.9032145,110 C27.3070427,110 26,108.693908 26,107.098897 L26,48.9003584 C26,47.3053474 27.3070427,46 28.9032145,46 L125.096786,46 C126.693703,46 128,47.3053474 128,48.9003584 L128,107.098897 C128,108.693908 126.693703,110 125.096786,110 Z" id="Stroke-5" stroke="#E7364B" stroke-width="2.3"></path>
                <line x1="26" y1="52.5" x2="128" y2="52.5" id="Stroke-7" stroke="#E7364B" stroke-width="2.3"></line>
                <path d="M32,48.9995804 C32,49.5518254 31.5520134,50 31.0008389,50 C30.4479866,50 30,49.5518254 30,48.9995804 C30,48.4473353 30.4479866,48 31.0008389,48 C31.5520134,48 32,48.4473353 32,48.9995804" id="Fill-9" fill="#E8364B"></path>
                <path d="M34,48.9995804 C34,49.5518254 33.5526647,50 33.0004196,50 C32.4473353,50 32,49.5518254 32,48.9995804 C32,48.4473353 32.4473353,48 33.0004196,48 C33.5526647,48 34,48.4473353 34,48.9995804" id="Fill-11" fill="#E8364B"></path>
                <path d="M37,48.9995804 C37,49.5518254 36.5528523,50 36.0008389,50 C35.4479866,50 35,49.5518254 35,48.9995804 C35,48.4473353 35.4479866,48 36.0008389,48 C36.5528523,48 37,48.4473353 37,48.9995804" id="Fill-13" fill="#E8364B"></path>
                <path d="M101.34512,99 L52.6548803,99 C51.1948435,99 50,97.7884439 50,96.3079852 L50,70.6927618 C50,69.2115561 51.1948435,68 52.6548803,68 L101.34512,68 C102.805157,68 104,69.2115561 104,70.6927618 L104,96.3079852 C104,97.7884439 102.805157,99 101.34512,99" id="Fill-15" fill="#E8364B"></path>
                <path d="M83.7197587,62 L70.2794873,62 C69.5752792,62 69,62.550036 69,63.2217423 L69,71.7782577 C69,72.1216703 69.151548,72.4312455 69.3920645,72.6537077 L75.2285472,67.50036 L69.3920645,72.6537077 C69.6227793,72.8675306 69.934923,73 70.2794873,73 L83.7197587,73 C84.0643231,73 84.3772207,72.8675306 84.6079355,72.6537077 L78.7714528,67.50036 L84.6079355,72.6537077 C84.848452,72.4312455 85,72.1216703 85,71.7782577 L85,63.2217423 C85,62.550036 84.4239668,62 83.7197587,62" id="Fill-17" fill="#FFFFFF"></path>
                <path d="M83.7197587,62 L70.2794873,62 C69.5752792,62 69,62.550036 69,63.2217423 L69,71.7782577 C69,72.1216703 69.151548,72.4312455 69.3920645,72.6537077 L75.2285472,67.50036 L69.3920645,72.6537077 C69.6227793,72.8675306 69.934923,73 70.2794873,73 L83.7197587,73 C84.0643231,73 84.3772207,72.8675306 84.6079355,72.6537077 L78.7714528,67.50036 L84.6079355,72.6537077 C84.848452,72.4312455 85,72.1216703 85,71.7782577 L85,63.2217423 C85,62.550036 84.4239668,62 83.7197587,62 Z" id="Stroke-19" stroke="#E7364B" stroke-width="1.5"></path>
                <path d="M77.3335811,68.6780822 L84,62.3660578 C83.7725583,62.1407915 83.4640999,62 83.124424,62 L69.8748328,62 C69.5351568,62 69.2274417,62.1407915 69,62.3660578 L75.6664189,68.6780822 C76.1421139,69.1073059 76.8563996,69.1073059 77.3335811,68.6780822" id="Fill-21" fill="#FFFFFF"></path>
                <path d="M77.3335811,68.6780822 L84,62.3660578 C83.7725583,62.1407915 83.4640999,62 83.124424,62 L69.8748328,62 C69.5351568,62 69.2274417,62.1407915 69,62.3660578 L75.6664189,68.6780822 C76.1421139,69.1073059 76.8563996,69.1073059 77.3335811,68.6780822 Z" id="Stroke-23" stroke="#E7364B" stroke-width="1.5"></path>
                <path d="M62.2311978,82.5156129 C62.0222841,82.5156129 61.8600279,82.6023226 61.7451253,82.7780645 C61.6302228,82.9522581 61.5731198,83.1969032 61.5731198,83.5089032 C61.5731198,84.1607742 61.7924791,84.4851613 62.2311978,84.4851613 C62.4164345,84.4851613 62.6392758,84.4348387 62.9011142,84.331871 L62.9011142,84.8505806 C62.6859331,84.9512258 62.4456825,85 62.1796657,85 C61.7973538,85 61.5062674,84.8714839 61.3036212,84.6136774 C61.1009749,84.3566452 61,83.9865806 61,83.5058065 C61,83.2023226 61.0501393,82.9367742 61.1490251,82.7083871 C61.2486072,82.48 61.3913649,82.3058065 61.5772981,82.1827097 C61.7632312,82.0619355 61.9818942,82 62.2311978,82 C62.4867688,82 62.7423398,82.0689032 63,82.2067097 L62.8203343,82.7091613 C62.7221448,82.6572903 62.6232591,82.6116129 62.5243733,82.5729032 C62.4247911,82.5349677 62.3279944,82.5156129 62.2311978,82.5156129" id="Fill-25" fill="#FFFFFF"></path>
                <path d="M63.5745975,82.997992 C63.5745975,83.188755 63.6075134,83.332664 63.6747764,83.4303882 C63.7413238,83.5287818 63.850805,83.5776439 64.0025045,83.5776439 C64.1520572,83.5776439 64.2601073,83.5287818 64.3259392,83.4310576 C64.391771,83.3340027 64.4239714,83.1900937 64.4239714,82.997992 C64.4239714,82.8072289 64.391771,82.6633199 64.3252236,82.5676037 C64.2579606,82.4732262 64.1499106,82.4257028 63.9982111,82.4257028 C63.8479428,82.4257028 63.7391771,82.4725569 63.6733453,82.5669344 C63.6067979,82.6619813 63.5745975,82.8058902 63.5745975,82.997992 M65,82.997992 C65,83.3119143 64.9112701,83.5575636 64.7345259,83.7349398 C64.5570662,83.9116466 64.3101968,84 63.9953488,84 C63.7964222,84 63.6211091,83.9598394 63.4708408,83.8788487 C63.3191413,83.7971888 63.2025045,83.6813922 63.1216458,83.5294511 C63.0407871,83.37751 63,83.2008032 63,82.997992 C63,82.6827309 63.0880143,82.437751 63.2640429,82.2623829 C63.4400716,82.0876841 63.686941,82 64.0053667,82 C64.2035778,82 64.3788909,82.04083 64.5291592,82.1211513 C64.6815742,82.2021419 64.79678,82.3172691 64.8776386,82.4678715 C64.9599284,82.6184739 65,82.7951807 65,82.997992" id="Fill-27" fill="#FFFFFF"></path>
                <mask id="mask-2" fill="white">
                    <use xlink:href="#path-1"></use>
                </mask>
                <g id="Clip-30"></g>
                <polygon id="Fill-29" fill="#FFFFFF" mask="url(#mask-2)" points="65.107 85 65.893 85 65.893 82 65.107 82"></polygon>
                <polygon id="Fill-31" fill="#FFFFFF" mask="url(#mask-2)" points="67.107 85 67.893 85 67.893 82 67.107 82"></polygon>
                <path d="M69.0320151,82.3753764 C68.9054614,82.3753764 68.8067797,82.4108397 68.7359699,82.4810974 C68.6651601,82.5520241 68.6237288,82.6523921 68.6131827,82.7822014 L69.4448211,82.7822014 C69.4425612,82.6523921 69.4041431,82.5520241 69.3303202,82.4810974 C69.2572505,82.4108397 69.1570621,82.3753764 69.0320151,82.3753764 M69.1148776,84 C68.7653484,84 68.4919021,83.9150217 68.2945386,83.743727 C68.0986817,83.5717631 68,83.3295417 68,83.0150552 C68,82.6918702 68.0911488,82.4422884 68.272693,82.2656407 C68.4542373,82.0883239 68.705838,82 69.026742,82 C69.3340866,82 69.5736347,82.0789562 69.7438795,82.2335229 C69.9148776,82.3894279 70,82.6035463 70,82.8765473 L70,83.1321512 L68.5996234,83.1321512 C68.6071563,83.281365 68.6568738,83.398461 68.7495292,83.4827702 C68.8429379,83.5664102 68.973258,83.6085647 69.1419962,83.6085647 C69.2723164,83.6085647 69.3966102,83.5965206 69.513371,83.5724323 C69.6301318,83.5483439 69.7506591,83.509535 69.8787194,83.4560054 L69.8787194,83.8634995 C69.7740113,83.9096688 69.6640301,83.944463 69.546516,83.966544 C69.4274953,83.9892941 69.2843691,84 69.1148776,84" id="Fill-32" fill="#FFFFFF" mask="url(#mask-2)"></path>
                <path d="M71.1647211,84 C70.3891051,84 70,83.6706827 70,83.0113788 C70,82.6834003 70.1054907,82.4330656 70.3173368,82.2597055 C70.5291829,82.0870147 70.8309555,82 71.2235192,82 C71.5123217,82 71.771725,82.0441767 72,82.1311914 L71.7993947,82.5381526 C71.6930393,82.5053548 71.5927367,82.478581 71.5010808,82.4564926 C71.4085603,82.435743 71.3169045,82.4250335 71.2235192,82.4250335 C70.8707307,82.4250335 70.6943364,82.6191432 70.6943364,83.0080321 C70.6943364,83.3855422 70.8707307,83.5736278 71.2235192,83.5736278 C71.3549503,83.5736278 71.4760052,83.5609103 71.5875486,83.5341365 C71.6990921,83.5066934 71.8106355,83.4638554 71.922179,83.4062918 L71.922179,83.8567604 C71.8123649,83.9109772 71.7008214,83.9484605 71.5884133,83.9692102 C71.4760052,83.9899598 71.3350627,84 71.1647211,84" id="Fill-33" fill="#FFFFFF" mask="url(#mask-2)"></path>
                <path d="M72.7525,84.4696927 C72.8215,84.4696927 72.904,84.4451649 73,84.3944178 L73,84.8883564 C72.902,84.9636312 72.7815,85 72.639,85 C72.4815,85 72.367,84.933183 72.2955,84.7995489 C72.2235,84.6642233 72.1875,84.4620806 72.1875,84.1939667 L72.1875,83.0183253 L72,83.0183253 L72,82.7366789 L72.2165,82.5142374 L72.3295,82 L72.581,82 L72.581,82.5184663 L72.9845,82.5184663 L72.9845,83.0183253 L72.581,83.0183253 L72.581,84.1939667 C72.581,84.2878489 72.5965,84.3572033 72.628,84.4028757 C72.659,84.4485481 72.701,84.4696927 72.7525,84.4696927" id="Fill-34" fill="#FFFFFF" mask="url(#mask-2)"></path>
                <path d="M75.0312618,82.3753764 C74.9054614,82.3753764 74.8067797,82.4108397 74.7359699,82.4810974 C74.6651601,82.5520241 74.6237288,82.6523921 74.6131827,82.7822014 L75.4448211,82.7822014 C75.4425612,82.6523921 75.4041431,82.5520241 75.3295669,82.4810974 C75.2572505,82.4108397 75.1563089,82.3753764 75.0312618,82.3753764 M75.1141243,84 C74.7645951,84 74.4919021,83.9150217 74.2945386,83.743727 C74.0986817,83.5717631 74,83.3295417 74,83.0150552 C74,82.6918702 74.0911488,82.4422884 74.272693,82.2656407 C74.4542373,82.0883239 74.705838,82 75.026742,82 C75.3340866,82 75.5728814,82.0789562 75.7438795,82.2335229 C75.9148776,82.3894279 76,82.6035463 76,82.8765473 L76,83.1321512 L74.5996234,83.1321512 C74.6071563,83.281365 74.6561205,83.398461 74.7495292,83.4827702 C74.8429379,83.5664102 74.973258,83.6085647 75.1412429,83.6085647 C75.2723164,83.6085647 75.3966102,83.5965206 75.513371,83.5724323 C75.6301318,83.5483439 75.7506591,83.509535 75.8779661,83.4560054 L75.8779661,83.8634995 C75.7740113,83.9096688 75.6640301,83.944463 75.5457627,83.966544 C75.4274953,83.9892941 75.2843691,84 75.1141243,84" id="Fill-35" fill="#FFFFFF" mask="url(#mask-2)"></path>
                <path d="M77.7319347,84 L77,82 L77.5487845,82 L77.9190809,83.1397849 C77.960373,83.2840791 77.985681,83.4200486 77.995671,83.5490808 L78.006327,83.5490808 C78.011655,83.4346167 78.037629,83.2979535 78.0835831,83.1397849 L78.4525475,82 L79,82 L78.2693973,84 L77.7319347,84 Z" id="Fill-36" fill="#FFFFFF" mask="url(#mask-2)"></path>
                <path d="M80.3922179,83.072861 L80.155642,83.0802139 C79.9774319,83.084893 79.8451362,83.1122995 79.7587549,83.1624332 C79.6715953,83.2132353 79.6287938,83.290107 79.6287938,83.3930481 C79.6287938,83.5414439 79.7276265,83.6156417 79.9245136,83.6156417 C80.0661479,83.6156417 80.1797665,83.5808824 80.2645914,83.5106952 C80.3494163,83.440508 80.3922179,83.3469251 80.3922179,83.2312834 L80.3922179,83.072861 Z M80.5727626,83.9659091 L80.4544747,83.7032086 L80.4389105,83.7032086 C80.3354086,83.8148396 80.229572,83.8930481 80.1198444,83.9351604 C80.0108949,83.9786096 79.8692607,84 79.6941634,84 C79.4785992,84 79.3081712,83.9471925 79.185214,83.8415775 C79.0614786,83.7359626 79,83.5855615 79,83.3903743 C79,83.1851604 79.0832685,83.0347594 79.2490272,82.9378342 C79.4163424,82.8402406 79.6669261,82.7867647 80.0031128,82.776738 L80.3922179,82.7660428 L80.3922179,82.6818182 C80.3922179,82.486631 80.2762646,82.3890374 80.0435798,82.3890374 C79.8638132,82.3890374 79.6529183,82.4351604 79.4116732,82.5287433 L79.2085603,82.1731283 C79.4677043,82.0574866 79.7525292,82 80.0669261,82 C80.3680934,82 80.5992218,82.0561497 80.7603113,82.1677807 C80.9206226,82.2807487 81,82.4518717 81,82.6818182 L81,83.9659091 L80.5727626,83.9659091 Z" id="Fill-37" fill="#FFFFFF" mask="url(#mask-2)"></path>
                <polygon id="Fill-38" fill="#FFFFFF" mask="url(#mask-2)" points="82.107 85 82.893 85 82.893 82 82.107 82"></polygon>
                <path d="M83.033,85 L83.818,85 L83.818,82.8442173 L83.033,82.8442173 L83.033,85 Z M83,82.2871386 C83,82.0957129 83.142,82 83.426,82 C83.712,82 83.855,82.0957129 83.855,82.2871386 C83.855,82.3783649 83.819,82.4501496 83.749,82.5002493 C83.677,82.5518445 83.57,82.5772682 83.426,82.5772682 C83.142,82.5772682 83,82.4800598 83,82.2871386 L83,82.2871386 Z" id="Fill-39" fill="#FFFFFF" mask="url(#mask-2)"></path>
                <path d="M85.012254,84.5370416 C85.1622726,84.5370416 85.2707018,84.4942161 85.3405124,84.4078267 C85.4103231,84.3221757 85.448199,84.1759783 85.454883,83.9684962 L85.454883,83.9057347 C85.454883,83.6768398 85.4192351,83.5136599 85.3479391,83.4147182 C85.2773858,83.3165149 85.1622726,83.2655673 85.0025993,83.2655673 C84.8726328,83.2655673 84.7716302,83.3216835 84.6995915,83.4309623 C84.6268102,83.5402412 84.5911623,83.6997293 84.5911623,83.9094265 C84.5911623,84.1191238 84.6268102,84.2756584 84.7003342,84.380507 C84.7731155,84.486094 84.8770887,84.5370416 85.012254,84.5370416 M84.8080208,85 C84.556257,85 84.3587078,84.9025351 84.2146305,84.709082 C84.071296,84.5148905 84,84.2453852 84,83.9027812 C84,83.5527935 84.0720386,83.2810731 84.2190865,83.0861432 C84.3646491,82.8912134 84.5659116,82.7937485 84.8228741,82.7937485 C85.0917193,82.7937485 85.2974378,82.8978587 85.439287,83.1060793 L85.4585964,83.1060793 C85.4296324,82.9480679 85.4147791,82.8055624 85.4147791,82.6815161 L85.4147791,82 L86,82 L86,84.9623431 L85.552915,84.9623431 L85.439287,84.6861925 L85.4147791,84.6861925 C85.2810991,84.8951514 85.0790939,85 84.8080208,85" id="Fill-40" fill="#FFFFFF" mask="url(#mask-2)"></path>
                <path d="M87.6900188,82.6196289 L87.6900188,82.5683594 C87.9122411,82.3171387 88.0644068,82.1274414 88.1450094,82 L88.8094162,82 L88.8094162,82.0395508 C88.7416196,82.1054688 88.6271186,82.2021484 88.4644068,82.3310547 C88.3024482,82.4599609 88.1758945,82.5559082 88.0832392,82.6196289 L87.6900188,82.6196289 Z M88.0312618,83.2216797 C87.9054614,83.2216797 87.8067797,83.260498 87.7367232,83.3374023 C87.6651601,83.4150391 87.6237288,83.5249023 87.6131827,83.6677246 L88.4448211,83.6677246 C88.4425612,83.5249023 88.4041431,83.4150391 88.3303202,83.3374023 C88.2564972,83.260498 88.1563089,83.2216797 88.0312618,83.2216797 L88.0312618,83.2216797 Z M88.1141243,85 C87.7653484,85 87.4911488,84.9069824 87.2952919,84.7194824 C87.0986817,84.53125 87,84.2661133 87,83.921875 C87,83.5681152 87.0903955,83.2949219 87.2719397,83.1015625 C87.4549906,82.9082031 87.705838,82.8115234 88.026742,82.8115234 C88.3340866,82.8115234 88.5728814,82.8972168 88.7431262,83.0664062 C88.9148776,83.2370605 89,83.4714355 89,83.7702637 L89,84.0500488 L87.5996234,84.0500488 C87.6071563,84.2141113 87.6561205,84.3422852 87.7495292,84.4345703 C87.8429379,84.526123 87.973258,84.5715332 88.1419962,84.5715332 C88.2715631,84.5715332 88.3958569,84.5583496 88.513371,84.5319824 C88.6293785,84.5056152 88.7506591,84.4638672 88.8779661,84.4052734 L88.8779661,84.8505859 C88.7740113,84.901123 88.6640301,84.939209 88.5457627,84.9633789 C88.4274953,84.9882812 88.2836158,85 88.1141243,85 L88.1141243,85 Z" id="Fill-41" fill="#FFFFFF" mask="url(#mask-2)"></path>
                <path d="M90.0312618,82.3753764 C89.9054614,82.3753764 89.8067797,82.4108397 89.7359699,82.4810974 C89.6651601,82.5520241 89.6237288,82.6523921 89.6131827,82.7822014 L90.4448211,82.7822014 C90.4425612,82.6523921 90.4041431,82.5520241 90.3295669,82.4810974 C90.2572505,82.4108397 90.1563089,82.3753764 90.0312618,82.3753764 M90.1141243,84 C89.7645951,84 89.4919021,83.9150217 89.2945386,83.743727 C89.0986817,83.5717631 89,83.3295417 89,83.0150552 C89,82.6918702 89.0911488,82.4422884 89.272693,82.2656407 C89.4542373,82.0883239 89.705838,82 90.026742,82 C90.3340866,82 90.5728814,82.0789562 90.7438795,82.2335229 C90.9148776,82.3894279 91,82.6035463 91,82.8765473 L91,83.1321512 L89.5996234,83.1321512 C89.6071563,83.281365 89.6561205,83.398461 89.7495292,83.4827702 C89.8429379,83.5664102 89.973258,83.6085647 90.1412429,83.6085647 C90.2723164,83.6085647 90.3966102,83.5965206 90.513371,83.5724323 C90.6293785,83.5483439 90.7506591,83.509535 90.8779661,83.4560054 L90.8779661,83.8634995 C90.7740113,83.9096688 90.6640301,83.944463 90.5457627,83.966544 C90.4274953,83.9892941 90.2843691,84 90.1141243,84" id="Fill-42" fill="#FFFFFF" mask="url(#mask-2)"></path>
                <path d="M92.771,83.9692628 L92.142,83.9692628 L92.01,82 L92.903,82 L92.771,83.9692628 Z M92,84.6577234 C92,84.5444126 92.039,84.4600156 92.117,84.4021881 C92.194,84.3435791 92.306,84.3154467 92.454,84.3154467 C92.597,84.3154467 92.708,84.3443605 92.786,84.4045324 C92.864,84.4631414 92.903,84.5475384 92.903,84.6577234 C92.903,84.764001 92.863,84.8476166 92.784,84.9085699 C92.706,84.9695233 92.595,85 92.454,85 C92.309,85 92.198,84.9695233 92.12,84.9101328 C92.04,84.8507424 92,84.7671269 92,84.6577234 L92,84.6577234 Z" id="Fill-43" fill="#FFFFFF" mask="url(#mask-2)"></path>
                <path d="M2,77.9996276 C2,36.0263494 36.0261827,2 78,2 C119.973073,2 154,36.0263494 154,77.9996276 C154,119.972906 119.973073,154 78,154 C36.0261827,154 2,119.972906 2,77.9996276 Z" id="Stroke-44" stroke="#E9364B" stroke-width="5" mask="url(#mask-2)"></path>
            </g>
        </g>
    </g>
</svg>