<?xml version="1.0" encoding="UTF-8"?>
<svg width="160px" height="160px" viewBox="0 0 160 160" version="1.1" xmlns="http://www.w3.org/2000/svg" xmlns:xlink="http://www.w3.org/1999/xlink">
    <!-- Generator: Sketch 61.1 (89650) - https://sketch.com -->
    <title>Group 137</title>
    <desc>Created with Sketch.</desc>
    <defs>
        <path d="M0.489660194,76.7450777 C0.489660194,119.113767 34.8361456,153.461 77.2055825,153.461 L77.2055825,153.461 C119.573524,153.461 153.920757,119.113767 153.920757,76.7450777 L153.920757,76.7450777 C153.920757,34.3756408 119.573524,0.0291553398 77.2055825,0.0291553398 L77.2055825,0.0291553398 C34.8361456,0.0291553398 0.489660194,34.3756408 0.489660194,76.7450777" id="path-1"></path>
        <path d="M0.489660194,76.7450777 C0.489660194,119.113767 34.8361456,153.461 77.2055825,153.461 L77.2055825,153.461 C119.573524,153.461 153.920757,119.113767 153.920757,76.7450777 L153.920757,76.7450777 C153.920757,34.3756408 119.573524,0.0291553398 77.2055825,0.0291553398 L77.2055825,0.0291553398 C34.8361456,0.0291553398 0.489660194,34.3756408 0.489660194,76.7450777 L0.489660194,76.7450777 Z" id="path-3"></path>
        <path d="M0.489660194,76.7450777 C0.489660194,119.113767 34.8361456,153.461 77.2055825,153.461 L77.2055825,153.461 C119.573524,153.461 153.920757,119.113767 153.920757,76.7450777 L153.920757,76.7450777 C153.920757,34.3756408 119.573524,0.0291553398 77.2055825,0.0291553398 L77.2055825,0.0291553398 C34.8361456,0.0291553398 0.489660194,34.3756408 0.489660194,76.7450777 L0.489660194,76.7450777 Z" id="path-5"></path>
        <path d="M0.489660194,76.7450777 C0.489660194,119.113767 34.8361456,153.461 77.2055825,153.461 L77.2055825,153.461 C119.573524,153.461 153.920757,119.113767 153.920757,76.7450777 L153.920757,76.7450777 C153.920757,34.3756408 119.573524,0.0291553398 77.2055825,0.0291553398 L77.2055825,0.0291553398 C34.8361456,0.0291553398 0.489660194,34.3756408 0.489660194,76.7450777 L0.489660194,76.7450777 Z" id="path-7"></path>
        <path d="M0.489660194,76.7450777 C0.489660194,119.113767 34.8361456,153.461 77.2055825,153.461 L77.2055825,153.461 C119.573524,153.461 153.920757,119.113767 153.920757,76.7450777 L153.920757,76.7450777 C153.920757,34.3756408 119.573524,0.0291553398 77.2055825,0.0291553398 L77.2055825,0.0291553398 C34.8361456,0.0291553398 0.489660194,34.3756408 0.489660194,76.7450777" id="path-9"></path>
        <path d="M0.489660194,76.7450777 C0.489660194,119.113767 34.8361456,153.461 77.2055825,153.461 L77.2055825,153.461 C119.573524,153.461 153.920757,119.113767 153.920757,76.7450777 L153.920757,76.7450777 C153.920757,34.3756408 119.573524,0.0291553398 77.2055825,0.0291553398 L77.2055825,0.0291553398 C34.8361456,0.0291553398 0.489660194,34.3756408 0.489660194,76.7450777" id="path-11"></path>
        <path d="M0.489660194,76.7450777 C0.489660194,119.113767 34.8361456,153.461 77.2055825,153.461 L77.2055825,153.461 C119.573524,153.461 153.920757,119.113767 153.920757,76.7450777 L153.920757,76.7450777 C153.920757,34.3756408 119.573524,0.0291553398 77.2055825,0.0291553398 L77.2055825,0.0291553398 C34.8361456,0.0291553398 0.489660194,34.3756408 0.489660194,76.7450777" id="path-13"></path>
        <path d="M0.489660194,76.7450777 C0.489660194,119.113767 34.8361456,153.461 77.2055825,153.461 L77.2055825,153.461 C119.573524,153.461 153.920757,119.113767 153.920757,76.7450777 L153.920757,76.7450777 C153.920757,34.3756408 119.573524,0.0291553398 77.2055825,0.0291553398 L77.2055825,0.0291553398 C34.8361456,0.0291553398 0.489660194,34.3756408 0.489660194,76.7450777 L0.489660194,76.7450777 Z" id="path-15"></path>
        <path d="M0.489660194,76.7450777 C0.489660194,119.113767 34.8361456,153.461 77.2055825,153.461 L77.2055825,153.461 C119.573524,153.461 153.920757,119.113767 153.920757,76.7450777 L153.920757,76.7450777 C153.920757,34.3756408 119.573524,0.0291553398 77.2055825,0.0291553398 L77.2055825,0.0291553398 C34.8361456,0.0291553398 0.489660194,34.3756408 0.489660194,76.7450777" id="path-17"></path>
        <path d="M0.489660194,76.7450777 C0.489660194,119.113767 34.8361456,153.461 77.2055825,153.461 L77.2055825,153.461 C119.573524,153.461 153.920757,119.113767 153.920757,76.7450777 L153.920757,76.7450777 C153.920757,34.3756408 119.573524,0.0291553398 77.2055825,0.0291553398 L77.2055825,0.0291553398 C34.8361456,0.0291553398 0.489660194,34.3756408 0.489660194,76.7450777 L0.489660194,76.7450777 Z" id="path-19"></path>
        <path d="M0.489660194,76.7450777 C0.489660194,119.113767 34.8361456,153.461 77.2055825,153.461 L77.2055825,153.461 C119.573524,153.461 153.920757,119.113767 153.920757,76.7450777 L153.920757,76.7450777 C153.920757,34.3756408 119.573524,0.0291553398 77.2055825,0.0291553398 L77.2055825,0.0291553398 C34.8361456,0.0291553398 0.489660194,34.3756408 0.489660194,76.7450777 L0.489660194,76.7450777 Z" id="path-21"></path>
        <path d="M0.489660194,76.7450777 C0.489660194,119.113767 34.8361456,153.461 77.2055825,153.461 L77.2055825,153.461 C119.573524,153.461 153.920757,119.113767 153.920757,76.7450777 L153.920757,76.7450777 C153.920757,34.3756408 119.573524,0.0291553398 77.2055825,0.0291553398 L77.2055825,0.0291553398 C34.8361456,0.0291553398 0.489660194,34.3756408 0.489660194,76.7450777 L0.489660194,76.7450777 Z" id="path-23"></path>
        <path d="M0.489660194,76.7450777 C0.489660194,119.113767 34.8361456,153.461 77.2055825,153.461 L77.2055825,153.461 C119.573524,153.461 153.920757,119.113767 153.920757,76.7450777 L153.920757,76.7450777 C153.920757,34.3756408 119.573524,0.0291553398 77.2055825,0.0291553398 L77.2055825,0.0291553398 C34.8361456,0.0291553398 0.489660194,34.3756408 0.489660194,76.7450777" id="path-25"></path>
        <path d="M0.489660194,76.7450777 C0.489660194,119.113767 34.8361456,153.461 77.2055825,153.461 L77.2055825,153.461 C119.573524,153.461 153.920757,119.113767 153.920757,76.7450777 L153.920757,76.7450777 C153.920757,34.3756408 119.573524,0.0291553398 77.2055825,0.0291553398 L77.2055825,0.0291553398 C34.8361456,0.0291553398 0.489660194,34.3756408 0.489660194,76.7450777 L0.489660194,76.7450777 Z" id="path-27"></path>
        <path d="M0.489660194,76.7450777 C0.489660194,119.113767 34.8361456,153.461 77.2055825,153.461 L77.2055825,153.461 C119.573524,153.461 153.920757,119.113767 153.920757,76.7450777 L153.920757,76.7450777 C153.920757,34.3756408 119.573524,0.0291553398 77.2055825,0.0291553398 L77.2055825,0.0291553398 C34.8361456,0.0291553398 0.489660194,34.3756408 0.489660194,76.7450777" id="path-29"></path>
        <path d="M0.489660194,76.7450777 C0.489660194,119.113767 34.8361456,153.461 77.2055825,153.461 L77.2055825,153.461 C119.573524,153.461 153.920757,119.113767 153.920757,76.7450777 L153.920757,76.7450777 C153.920757,34.3756408 119.573524,0.0291553398 77.2055825,0.0291553398 L77.2055825,0.0291553398 C34.8361456,0.0291553398 0.489660194,34.3756408 0.489660194,76.7450777" id="path-31"></path>
        <path d="M0.489660194,76.7450777 C0.489660194,119.113767 34.8361456,153.461 77.2055825,153.461 L77.2055825,153.461 C119.573524,153.461 153.920757,119.113767 153.920757,76.7450777 L153.920757,76.7450777 C153.920757,34.3756408 119.573524,0.0291553398 77.2055825,0.0291553398 L77.2055825,0.0291553398 C34.8361456,0.0291553398 0.489660194,34.3756408 0.489660194,76.7450777" id="path-33"></path>
        <path d="M0.489660194,76.7450777 C0.489660194,119.113767 34.8361456,153.461 77.2055825,153.461 L77.2055825,153.461 C119.573524,153.461 153.920757,119.113767 153.920757,76.7450777 L153.920757,76.7450777 C153.920757,34.3756408 119.573524,0.0291553398 77.2055825,0.0291553398 L77.2055825,0.0291553398 C34.8361456,0.0291553398 0.489660194,34.3756408 0.489660194,76.7450777" id="path-35"></path>
        <path d="M0.489660194,76.7450777 C0.489660194,119.113767 34.8361456,153.461 77.2055825,153.461 L77.2055825,153.461 C119.573524,153.461 153.920757,119.113767 153.920757,76.7450777 L153.920757,76.7450777 C153.920757,34.3756408 119.573524,0.0291553398 77.2055825,0.0291553398 L77.2055825,0.0291553398 C34.8361456,0.0291553398 0.489660194,34.3756408 0.489660194,76.7450777" id="path-37"></path>
        <path d="M0.489660194,76.7450777 C0.489660194,119.113767 34.8361456,153.461 77.2055825,153.461 L77.2055825,153.461 C119.573524,153.461 153.920757,119.113767 153.920757,76.7450777 L153.920757,76.7450777 C153.920757,34.3756408 119.573524,0.0291553398 77.2055825,0.0291553398 L77.2055825,0.0291553398 C34.8361456,0.0291553398 0.489660194,34.3756408 0.489660194,76.7450777" id="path-39"></path>
        <path d="M0.489660194,76.7450777 C0.489660194,119.113767 34.8361456,153.461 77.2055825,153.461 L77.2055825,153.461 C119.573524,153.461 153.920757,119.113767 153.920757,76.7450777 L153.920757,76.7450777 C153.920757,34.3756408 119.573524,0.0291553398 77.2055825,0.0291553398 L77.2055825,0.0291553398 C34.8361456,0.0291553398 0.489660194,34.3756408 0.489660194,76.7450777" id="path-41"></path>
        <path d="M0.489660194,76.7450777 C0.489660194,119.113767 34.8361456,153.461 77.2055825,153.461 L77.2055825,153.461 C119.573524,153.461 153.920757,119.113767 153.920757,76.7450777 L153.920757,76.7450777 C153.920757,34.3756408 119.573524,0.0291553398 77.2055825,0.0291553398 L77.2055825,0.0291553398 C34.8361456,0.0291553398 0.489660194,34.3756408 0.489660194,76.7450777 L0.489660194,76.7450777 Z" id="path-43"></path>
        <path d="M0.489660194,76.7450777 C0.489660194,119.113767 34.8361456,153.461 77.2055825,153.461 L77.2055825,153.461 C119.573524,153.461 153.920757,119.113767 153.920757,76.7450777 L153.920757,76.7450777 C153.920757,34.3756408 119.573524,0.0291553398 77.2055825,0.0291553398 L77.2055825,0.0291553398 C34.8361456,0.0291553398 0.489660194,34.3756408 0.489660194,76.7450777" id="path-45"></path>
        <path d="M0.489660194,76.7450777 C0.489660194,119.113767 34.8361456,153.461 77.2055825,153.461 L77.2055825,153.461 C119.573524,153.461 153.920757,119.113767 153.920757,76.7450777 L153.920757,76.7450777 C153.920757,34.3756408 119.573524,0.0291553398 77.2055825,0.0291553398 L77.2055825,0.0291553398 C34.8361456,0.0291553398 0.489660194,34.3756408 0.489660194,76.7450777" id="path-47"></path>
        <path d="M0.489660194,76.7450777 C0.489660194,119.113767 34.8361456,153.461 77.2055825,153.461 L77.2055825,153.461 C119.573524,153.461 153.920757,119.113767 153.920757,76.7450777 L153.920757,76.7450777 C153.920757,34.3756408 119.573524,0.0291553398 77.2055825,0.0291553398 L77.2055825,0.0291553398 C34.8361456,0.0291553398 0.489660194,34.3756408 0.489660194,76.7450777 L0.489660194,76.7450777 Z" id="path-49"></path>
        <path d="M0.489660194,76.7450777 C0.489660194,119.113767 34.8361456,153.461 77.2055825,153.461 L77.2055825,153.461 C119.573524,153.461 153.920757,119.113767 153.920757,76.7450777 L153.920757,76.7450777 C153.920757,34.3756408 119.573524,0.0291553398 77.2055825,0.0291553398 L77.2055825,0.0291553398 C34.8361456,0.0291553398 0.489660194,34.3756408 0.489660194,76.7450777" id="path-51"></path>
        <path d="M0.489660194,76.7450777 C0.489660194,119.113767 34.8361456,153.461 77.2055825,153.461 L77.2055825,153.461 C119.573524,153.461 153.920757,119.113767 153.920757,76.7450777 L153.920757,76.7450777 C153.920757,34.3756408 119.573524,0.0291553398 77.2055825,0.0291553398 L77.2055825,0.0291553398 C34.8361456,0.0291553398 0.489660194,34.3756408 0.489660194,76.7450777" id="path-53"></path>
        <path d="M0.489660194,76.7450777 C0.489660194,119.113767 34.8361456,153.461 77.2055825,153.461 L77.2055825,153.461 C119.573524,153.461 153.920757,119.113767 153.920757,76.7450777 L153.920757,76.7450777 C153.920757,34.3756408 119.573524,0.0291553398 77.2055825,0.0291553398 L77.2055825,0.0291553398 C34.8361456,0.0291553398 0.489660194,34.3756408 0.489660194,76.7450777" id="path-55"></path>
        <path d="M0.489660194,76.7450777 C0.489660194,119.113767 34.8361456,153.461 77.2055825,153.461 L77.2055825,153.461 C119.573524,153.461 153.920757,119.113767 153.920757,76.7450777 L153.920757,76.7450777 C153.920757,34.3756408 119.573524,0.0291553398 77.2055825,0.0291553398 L77.2055825,0.0291553398 C34.8361456,0.0291553398 0.489660194,34.3756408 0.489660194,76.7450777" id="path-57"></path>
        <path d="M0.489660194,76.7450777 C0.489660194,119.113767 34.8361456,153.461 77.2055825,153.461 L77.2055825,153.461 C119.573524,153.461 153.920757,119.113767 153.920757,76.7450777 L153.920757,76.7450777 C153.920757,34.3756408 119.573524,0.0291553398 77.2055825,0.0291553398 L77.2055825,0.0291553398 C34.8361456,0.0291553398 0.489660194,34.3756408 0.489660194,76.7450777" id="path-59"></path>
        <path d="M0.489660194,76.7450777 C0.489660194,119.113767 34.8361456,153.461 77.2055825,153.461 L77.2055825,153.461 C119.573524,153.461 153.920757,119.113767 153.920757,76.7450777 L153.920757,76.7450777 C153.920757,34.3756408 119.573524,0.0291553398 77.2055825,0.0291553398 L77.2055825,0.0291553398 C34.8361456,0.0291553398 0.489660194,34.3756408 0.489660194,76.7450777 L0.489660194,76.7450777 Z" id="path-61"></path>
        <path d="M0.489660194,76.7450777 C0.489660194,119.113767 34.8361456,153.461 77.2055825,153.461 L77.2055825,153.461 C119.573524,153.461 153.920757,119.113767 153.920757,76.7450777 L153.920757,76.7450777 C153.920757,34.3756408 119.573524,0.0291553398 77.2055825,0.0291553398 L77.2055825,0.0291553398 C34.8361456,0.0291553398 0.489660194,34.3756408 0.489660194,76.7450777 L0.489660194,76.7450777 Z" id="path-63"></path>
        <path d="M0.489660194,76.7450777 C0.489660194,119.113767 34.8361456,153.461 77.2055825,153.461 L77.2055825,153.461 C119.573524,153.461 153.920757,119.113767 153.920757,76.7450777 L153.920757,76.7450777 C153.920757,34.3756408 119.573524,0.0291553398 77.2055825,0.0291553398 L77.2055825,0.0291553398 C34.8361456,0.0291553398 0.489660194,34.3756408 0.489660194,76.7450777 L0.489660194,76.7450777 Z" id="path-65"></path>
        <path d="M0.489660194,76.7450777 C0.489660194,119.113767 34.8361456,153.461 77.2055825,153.461 L77.2055825,153.461 C119.573524,153.461 153.920757,119.113767 153.920757,76.7450777 L153.920757,76.7450777 C153.920757,34.3756408 119.573524,0.0291553398 77.2055825,0.0291553398 L77.2055825,0.0291553398 C34.8361456,0.0291553398 0.489660194,34.3756408 0.489660194,76.7450777" id="path-67"></path>
        <path d="M0.489660194,76.7450777 C0.489660194,119.113767 34.8361456,153.461 77.2055825,153.461 L77.2055825,153.461 C119.573524,153.461 153.920757,119.113767 153.920757,76.7450777 L153.920757,76.7450777 C153.920757,34.3756408 119.573524,0.0291553398 77.2055825,0.0291553398 L77.2055825,0.0291553398 C34.8361456,0.0291553398 0.489660194,34.3756408 0.489660194,76.7450777" id="path-69"></path>
        <path d="M0.489660194,76.7450777 C0.489660194,119.113767 34.8361456,153.461 77.2055825,153.461 L77.2055825,153.461 C119.573524,153.461 153.920757,119.113767 153.920757,76.7450777 L153.920757,76.7450777 C153.920757,34.3756408 119.573524,0.0291553398 77.2055825,0.0291553398 L77.2055825,0.0291553398 C34.8361456,0.0291553398 0.489660194,34.3756408 0.489660194,76.7450777" id="path-71"></path>
        <path d="M0.489660194,76.7450777 C0.489660194,119.113767 34.8361456,153.461 77.2055825,153.461 L77.2055825,153.461 C119.573524,153.461 153.920757,119.113767 153.920757,76.7450777 L153.920757,76.7450777 C153.920757,34.3756408 119.573524,0.0291553398 77.2055825,0.0291553398 L77.2055825,0.0291553398 C34.8361456,0.0291553398 0.489660194,34.3756408 0.489660194,76.7450777 L0.489660194,76.7450777 Z" id="path-73"></path>
        <path d="M0.489660194,76.7450777 C0.489660194,119.113767 34.8361456,153.461 77.2055825,153.461 L77.2055825,153.461 C119.573524,153.461 153.920757,119.113767 153.920757,76.7450777 L153.920757,76.7450777 C153.920757,34.3756408 119.573524,0.0291553398 77.2055825,0.0291553398 L77.2055825,0.0291553398 C34.8361456,0.0291553398 0.489660194,34.3756408 0.489660194,76.7450777" id="path-75"></path>
        <path d="M0.489660194,76.7450777 C0.489660194,119.113767 34.8361456,153.461 77.2055825,153.461 L77.2055825,153.461 C119.573524,153.461 153.920757,119.113767 153.920757,76.7450777 L153.920757,76.7450777 C153.920757,34.3756408 119.573524,0.0291553398 77.2055825,0.0291553398 L77.2055825,0.0291553398 C34.8361456,0.0291553398 0.489660194,34.3756408 0.489660194,76.7450777" id="path-77"></path>
        <path d="M0.489660194,76.7450777 C0.489660194,119.113767 34.8361456,153.461 77.2055825,153.461 L77.2055825,153.461 C119.573524,153.461 153.920757,119.113767 153.920757,76.7450777 L153.920757,76.7450777 C153.920757,34.3756408 119.573524,0.0291553398 77.2055825,0.0291553398 L77.2055825,0.0291553398 C34.8361456,0.0291553398 0.489660194,34.3756408 0.489660194,76.7450777" id="path-79"></path>
        <path d="M0.489660194,76.7450777 C0.489660194,119.113767 34.8361456,153.461 77.2055825,153.461 L77.2055825,153.461 C119.573524,153.461 153.920757,119.113767 153.920757,76.7450777 L153.920757,76.7450777 C153.920757,34.3756408 119.573524,0.0291553398 77.2055825,0.0291553398 L77.2055825,0.0291553398 C34.8361456,0.0291553398 0.489660194,34.3756408 0.489660194,76.7450777" id="path-81"></path>
        <path d="M0.489660194,76.7450777 C0.489660194,119.113767 34.8361456,153.461 77.2055825,153.461 L77.2055825,153.461 C119.573524,153.461 153.920757,119.113767 153.920757,76.7450777 L153.920757,76.7450777 C153.920757,34.3756408 119.573524,0.0291553398 77.2055825,0.0291553398 L77.2055825,0.0291553398 C34.8361456,0.0291553398 0.489660194,34.3756408 0.489660194,76.7450777" id="path-83"></path>
    </defs>
    <g id="Page-1" stroke="none" stroke-width="1" fill="none" fill-rule="evenodd">
        <g id="ORGANISER-UNE-COLLECTE" transform="translate(-729.000000, -1395.000000)">
            <g id="Group-137" transform="translate(732.000000, 1398.000000)">
                <path d="M155,78 C155,120.52633 120.52558,155 78,155 C35.4736698,155 1,120.52633 1,78 C1,35.4744202 35.4736698,1 78,1 C120.52558,1 155,35.4744202 155,78" id="Fill-1" fill="#FFFFFF"></path>
                <g id="Group-129" transform="translate(1.000000, 1.000000)">
                    <g id="Group-5">
                        <mask id="mask-2" fill="white">
                            <use xlink:href="#path-1"></use>
                        </mask>
                        <g id="Clip-4"></g>
                        <path d="M45.0470932,99.9696233 C45.0470932,99.9696233 37.2693456,105.726682 43.9234913,115.631274 C50.5768893,125.535118 65.4229379,143.67572 65.4229379,143.67572 C65.4229379,143.67572 70.0040641,149.751245 76.7621223,145.155167 C81.3955786,141.999662 79.6993359,135.709584 78.2333456,133.749449 C77.0387243,132.06741 57.9053456,104.332458 57.9053456,104.332458 C57.9053456,104.332458 52.3172388,95.787701 45.0470932,99.9696233" id="Fill-3" fill="#E8364B" mask="url(#mask-2)"></path>
                    </g>
                    <g id="Group-8">
                        <mask id="mask-4" fill="white">
                            <use xlink:href="#path-3"></use>
                        </mask>
                        <g id="Clip-7"></g>
                        <path d="M45.9698971,98.3846942 C35.5307903,119.403451 24.2708485,120.406694 12.0674699,98.4788883 L21.1945864,96.997199 L21.0876835,78.9410728 L36.1400621,78.8513641 L36.246965,96.9067427 L45.9698971,98.3846942 Z" id="Fill-6" fill="#5B2D0F" mask="url(#mask-4)"></path>
                    </g>
                    <g id="Group-11">
                        <mask id="mask-6" fill="white">
                            <use xlink:href="#path-5"></use>
                        </mask>
                        <g id="Clip-10"></g>
                        <path d="M19.7588728,97.1830456 C25.8052417,101.521958 34.9510476,99.5281816 37.7791155,97.1396864 L45.9702709,98.3843951 C35.5311641,119.4039 24.2704748,120.406395 12.0678437,98.4785893 L19.7588728,97.1830456 Z" id="Fill-9" fill="#FFFFFF" mask="url(#mask-6)"></path>
                    </g>
                    <g id="Group-14">
                        <mask id="mask-8" fill="white">
                            <use xlink:href="#path-7"></use>
                        </mask>
                        <g id="Clip-13"></g>
                        <path d="M56.2986621,103.883466 C56.2702544,101.168282 53.5976816,99.561 49.2834388,98.6407379 L39.3691282,96.9175825 C39.3691282,96.9175825 31.800701,108.830903 28.7917204,108.866039 C25.682565,108.903417 18.2344971,97.014767 18.2344971,97.014767 L8.18039029,98.8859417 C2.85916699,100.137379 2.01590485,102.910874 2.18709903,104.030738 C2.35978835,105.149854 6.00869126,128.854641 6.00869126,128.854641 L7.1764,149.244689 L6.11260388,176.371864 C6.11260388,176.371864 36.3810796,179.786029 56.8212155,174.83635 L56.0340214,147.25166 L51.8132252,128.581777 L56.2986621,103.883466 Z" id="Fill-12" fill="#E8364B" mask="url(#mask-8)"></path>
                    </g>
                    <g id="Group-17">
                        <mask id="mask-10" fill="white">
                            <use xlink:href="#path-9"></use>
                        </mask>
                        <g id="Clip-16"></g>
                        <path d="M9.87319417,98.929301 C9.87319417,98.929301 0.231747573,98.1077184 -1.32320388,109.938058 C-2.87666019,121.768398 -3.7288932,145.193592 -3.7288932,145.193592 C-3.7288932,145.193592 -4.30826214,152.779961 3.80140777,153.798903 C9.36409709,154.493398 12.2497282,148.653359 12.4448447,146.212534 C12.6608932,144.161194 16.6379806,110.702078 16.6379806,110.702078 C16.6379806,110.702078 18.0927573,100.597136 9.87319417,98.929301" id="Fill-15" fill="#E8364B" mask="url(#mask-10)"></path>
                    </g>
                    <g id="Group-20">
                        <mask id="mask-12" fill="white">
                            <use xlink:href="#path-11"></use>
                        </mask>
                        <g id="Clip-19"></g>
                        <path d="M40.1587146,74.5937874 C40.1587146,74.5937874 42.0687631,68.9114864 41.754035,63.5670883 L38.9312,63.984234 C38.9312,63.984234 38.1111126,72.7435447 40.1587146,74.5937874" id="Fill-18" fill="#9E223E" mask="url(#mask-12)"></path>
                    </g>
                    <g id="Group-23">
                        <mask id="mask-14" fill="white">
                            <use xlink:href="#path-13"></use>
                        </mask>
                        <g id="Clip-22"></g>
                        <path d="M18.7791039,72.9497252 C18.7791039,72.9497252 17.4551524,69.3987544 14.6211039,71.0351913 C11.7863078,72.6716282 15.4808126,80.529366 18.9174049,80.5032662 C22.3525019,80.4777835 18.7791039,72.9497252 18.7791039,72.9497252" id="Fill-21" fill="#5B2D0F" mask="url(#mask-14)"></path>
                    </g>
                    <g id="Group-26">
                        <mask id="mask-16" fill="white">
                            <use xlink:href="#path-15"></use>
                        </mask>
                        <g id="Clip-25"></g>
                        <path d="M28.7348301,62.5669107 L16.737034,62.7852019 L16.9762573,75.9260369 C16.9762573,75.9260369 17.8539078,86.1117165 22.7527524,90.5941631 C26.0667427,93.627066 31.3969369,94.2326 35.3112282,91.948765 C39.5432379,89.4787845 40.5569466,84.6419883 40.930733,80.0474058 C41.0540825,78.540299 41.1019272,76.9988039 40.9718495,75.4894544 L40.7333738,62.3486194 L28.7348301,62.5669107 Z" id="Fill-24" fill="#5B2D0F" mask="url(#mask-16)"></path>
                    </g>
                    <g id="Group-29">
                        <mask id="mask-18" fill="white">
                            <use xlink:href="#path-17"></use>
                        </mask>
                        <g id="Clip-28"></g>
                        <path d="M16.8576175,70.7774282 C16.8576175,70.7774282 19.1743456,71.0510398 19.1833165,77.5646417 C19.1833165,77.5646417 21.0941126,77.8920786 21.1015883,75.2793117 C21.1015883,75.2793117 20.9259087,65.6498262 20.9259087,65.6483311 C20.928899,65.8060689 25.1205398,66.0318359 25.3754621,66.0460398 C28.520501,66.2202243 31.6999282,66.2112534 34.8262777,65.7948553 C37.3029864,65.4659233 39.9284621,64.9059913 42.0455883,63.5110204 C45.3035107,61.3654864 45.316967,57.3248553 42.7266272,54.6365835 C38.7091709,50.4666223 32.3181709,49.2338748 26.7577243,49.8386612 C24.2810155,50.108535 21.8282291,50.7499524 19.5728019,51.8167388 C18.3923845,52.3744282 17.206734,53.1257388 16.2939476,54.0691757 C14.7868408,55.6271175 13.7903262,57.6044476 13.1698408,59.6662534 C7.04572427,59.6415835 5.3345301,73.2803019 17.0945981,79.9359427 C11.8907437,74.6393893 13.3477631,69.7345641 16.8576175,70.7774282" id="Fill-27" fill="#9E223E" mask="url(#mask-18)"></path>
                    </g>
                    <g id="Group-32">
                        <mask id="mask-20" fill="white">
                            <use xlink:href="#path-19"></use>
                        </mask>
                        <g id="Clip-31"></g>
                        <path d="M29.3407379,82.2418311 C29.4319417,83.3684233 30.3836019,84.2453262 31.5288835,84.2236466 C32.6749126,84.2034621 33.592932,83.2921709 33.643767,82.1633359 L29.3407379,82.2418311 Z" id="Fill-30" fill="#FFFFFF" mask="url(#mask-20)"></path>
                    </g>
                    <g id="Group-35">
                        <mask id="mask-22" fill="white">
                            <use xlink:href="#path-21"></use>
                        </mask>
                        <g id="Clip-34"></g>
                        <path d="M29.6714641,82.5185078 C29.8777942,83.3520515 30.6403184,83.9575854 31.5239495,83.9411388 C32.406833,83.9254398 33.1461825,83.2922456 33.3226097,82.4519738 L29.6714641,82.5185078 Z M31.7579398,84.4928476 C31.6839301,84.5003233 31.6099204,84.5055563 31.533668,84.5070515 C30.2493379,84.5302262 29.162367,83.5456728 29.0584544,82.264333 C29.0524738,82.1865854 29.0786388,82.1095854 29.1302214,82.0512748 C29.183299,81.9937117 29.2573087,81.9593233 29.3358039,81.9585757 L33.6380854,81.8800672 C33.7165806,81.879333 33.7920854,81.9099835 33.8459107,81.9660515 C33.9004835,82.0221194 33.9296388,82.0983718 33.925901,82.1761194 C33.8720757,83.3841971 32.9383573,84.3620223 31.7579398,84.4928476 L31.7579398,84.4928476 Z" id="Fill-33" fill="#FFFFFF" mask="url(#mask-22)"></path>
                    </g>
                    <g id="Group-38">
                        <mask id="mask-24" fill="white">
                            <use xlink:href="#path-23"></use>
                        </mask>
                        <g id="Clip-37"></g>
                        <path d="M25.3926563,177.999031 L-1.47137282,151.553643 C-1.47137282,151.553643 -6.76344078,146.086643 -1.17533398,140.122507 C2.66195728,136.034779 8.61263689,138.685672 10.3215883,140.437983 C11.7980447,141.879303 34.6416272,170.74608 34.6416272,170.74608 L25.3926563,177.999031 Z" id="Fill-36" fill="#E8364B" mask="url(#mask-24)"></path>
                    </g>
                    <g id="Group-41">
                        <mask id="mask-26" fill="white">
                            <use xlink:href="#path-25"></use>
                        </mask>
                        <g id="Clip-40"></g>
                        <path d="M89.6269534,106.207221 C89.6269534,106.207221 98.3130019,104.996901 100.292575,115.627386 C102.2714,126.257872 104.728672,151.249979 104.728672,151.249979 C104.728672,151.249979 105.620526,158.08728 98.3309437,159.40226 C93.3304291,160.300095 90.4365748,155.154551 90.1405359,152.95594 C89.8467398,151.108687 84.0754777,117.188318 84.0754777,117.188318 C84.0754777,117.188318 82.2700893,108.115027 89.6269534,106.207221" id="Fill-39" fill="#9E223E" mask="url(#mask-26)"></path>
                    </g>
                    <g id="Group-44">
                        <mask id="mask-28" fill="white">
                            <use xlink:href="#path-27"></use>
                        </mask>
                        <g id="Clip-43"></g>
                        <path d="M125.917801,176.30675 L93.6338689,158.294731 C93.6338689,158.294731 87.7437427,154.709372 91.2812573,148.202498 C93.7108689,143.740236 99.5352087,144.705352 101.434791,145.851382 C103.059267,146.777624 131.779519,168.449013 131.779519,168.449013 L125.917801,176.30675 Z" id="Fill-42" fill="#9E223E" mask="url(#mask-28)"></path>
                    </g>
                    <g id="Group-47">
                        <mask id="mask-30" fill="white">
                            <use xlink:href="#path-29"></use>
                        </mask>
                        <g id="Clip-46"></g>
                        <path d="M86.8155563,68.8877136 C86.5068087,68.3061019 86.1733913,67.7401893 85.8138087,67.1922184 C80.8132942,59.5722087 69.8994786,57.891665 62.8730417,62.9871214 C59.3295466,65.5565291 57.4023039,69.8543252 55.9587408,74.1311893 C54.5697505,78.244335 53.4790417,82.6378204 53.4571316,87.058966 C53.4386728,90.8461699 54.5555466,94.5974903 57.1249544,97.1743738 C59.9918961,100.049539 64.1177505,100.812811 67.8316922,101.173888 C72.3597408,101.613461 77.0552456,101.47815 81.5309641,100.529481 C85.0333427,99.7878883 88.3921874,97.5937621 89.9493816,93.9037427 C91.6202068,89.9445971 91.3166922,85.2483447 90.5556631,81.0821214 C89.7983718,76.9398204 88.7906437,72.6009078 86.8155563,68.8877136" id="Fill-45" fill="#E8364B" mask="url(#mask-30)"></path>
                    </g>
                    <g id="Group-50">
                        <mask id="mask-32" fill="white">
                            <use xlink:href="#path-31"></use>
                        </mask>
                        <g id="Clip-49"></g>
                        <path d="M53.2813835,93.6736398 C53.2813835,93.6736398 52.2796359,88.9018825 54.0147524,88.2096301 L59.3479369,66.7550379 C59.3479369,66.7550379 47.7568204,83.4416107 53.2813835,93.6736398" id="Fill-48" fill="#E8364B" mask="url(#mask-32)"></path>
                    </g>
                    <g id="Group-53">
                        <mask id="mask-34" fill="white">
                            <use xlink:href="#path-33"></use>
                        </mask>
                        <g id="Clip-52"></g>
                        <path d="M88.6567534,107.514726 C88.6567534,107.514726 80.3332777,104.051221 80.0589184,103.380649 C79.5744913,102.42226 79.4750641,98.6298233 79.6156078,96.6554835 C79.6156078,96.6554835 67.354666,79.289367 67.2761709,88.011299 C67.1976757,96.7332311 67.4795107,102.363202 66.9315398,103.156377 C66.8851903,103.225153 59.5701903,106.946571 59.4610447,107.044503 C70.6544524,121.92195 84.7551709,113.326357 88.6567534,107.514726" id="Fill-51" fill="#F5C7A3" mask="url(#mask-34)"></path>
                    </g>
                    <g id="Group-56">
                        <mask id="mask-36" fill="white">
                            <use xlink:href="#path-35"></use>
                        </mask>
                        <g id="Clip-55"></g>
                        <path d="M86.2074058,87.200332 C86.7150078,86.9484 88.5824447,80.8923126 87.7496485,79.9884971 C86.9176,79.0831864 86.2328233,79.6849825 86.2328233,79.6849825 L84.6240466,84.4425359 L85.444134,87.5180505 C85.444134,87.5180505 85.6385029,87.6787786 86.2074058,87.200332" id="Fill-54" fill="#F5C7A3" mask="url(#mask-36)"></path>
                    </g>
                    <g id="Group-59">
                        <mask id="mask-38" fill="white">
                            <use xlink:href="#path-37"></use>
                        </mask>
                        <g id="Clip-58"></g>
                        <path d="M61.957265,72.4346476 C62.0021194,74.4852398 61.9909058,76.5388223 62.3512359,81.8234146 C62.4708476,83.5577835 62.5889641,85.2936476 62.7078282,87.0287641 C62.8879932,89.671434 64.522935,92.0188126 66.0808767,94.0522107 C68.6151485,97.3639583 71.813265,99.060201 75.1564107,98.9099388 C79.8294883,98.9547932 84.8337408,92.3066282 85.697935,86.3940748 C85.9551,84.6357835 86.0926534,82.9582301 86.1801194,81.2081621 C86.2773039,79.2839097 87.0076825,72.7142398 84.5302262,69.2238223 C83.8701194,66.4495796 68.3587311,67.8654825 61.957265,72.4346476" id="Fill-57" fill="#F5C7A3" mask="url(#mask-38)"></path>
                    </g>
                    <g id="Group-62">
                        <mask id="mask-40" fill="white">
                            <use xlink:href="#path-39"></use>
                        </mask>
                        <g id="Clip-61"></g>
                        <path d="M61.4520553,87.7302864 C60.1131524,87.0447621 58.5739,80.7225388 59.5464922,79.6923835 C60.5138515,78.4080534 62.325968,79.220665 62.325968,79.220665 L64.0476282,83.9804612 L63.3254728,87.263801 C63.3254728,87.263801 63.5931039,89.2239369 61.4520553,87.7302864" id="Fill-60" fill="#F5C7A3" mask="url(#mask-40)"></path>
                    </g>
                    <g id="Group-65">
                        <mask id="mask-42" fill="white">
                            <use xlink:href="#path-41"></use>
                        </mask>
                        <g id="Clip-64"></g>
                        <path d="M63.260434,76.7346864 L68.1353563,76.7735602 C68.4822301,75.7075214 68.7087447,74.6848417 68.6272592,73.7735505 C69.0189874,75.102735 68.5689485,76.7765505 68.5689485,76.7765505 L80.4725505,76.8670068 C80.8919388,75.0945117 80.9584728,73.3414534 80.6205699,71.6108223 C81.4010359,73.0439194 81.4705602,74.8941621 81.504201,76.8744825 L87.2104243,76.9178417 C87.5804728,74.3491816 86.391832,69.8846767 84.5759777,68.3237447 C81.843599,65.9756184 60.4465699,69.1146767 60.4465699,69.1146767 L60.411434,73.7698126 L61.6008223,78.9714243 C62.6122883,77.2998515 63.5489971,74.3514243 63.8233563,71.1323757 C64.2300359,74.2811524 63.260434,76.7346864 63.260434,76.7346864" id="Fill-63" fill="#E8364B" mask="url(#mask-42)"></path>
                    </g>
                    <g id="Group-68">
                        <mask id="mask-44" fill="white">
                            <use xlink:href="#path-43"></use>
                        </mask>
                        <g id="Clip-67"></g>
                        <path d="M72.8022291,90.3621913 C72.8687631,91.6368029 73.9205981,92.6512592 75.2124039,92.6512592 C76.5034621,92.6512592 77.5545495,91.6368029 77.6210835,90.3621913 L72.8022291,90.3621913 Z" id="Fill-66" fill="#FFFFFF" mask="url(#mask-44)"></path>
                    </g>
                    <g id="Group-71">
                        <mask id="mask-46" fill="white">
                            <use xlink:href="#path-45"></use>
                        </mask>
                        <g id="Clip-70"></g>
                        <path d="M96.4828689,108.133791 C95.0729466,106.42185 85.0846262,104.169413 80.5184515,103.214762 C76.1062767,105.732587 71.427966,105.55018 66.5365971,103.214762 C61.9704223,104.169413 51.9821019,106.42185 50.5721796,108.133791 C48.7353932,110.363801 56.8203932,156.930112 56.8203932,156.930112 L89.7524709,156.930112 C89.7524709,156.930112 98.3189078,110.363801 96.4828689,108.133791" id="Fill-69" fill="#FFFFFF" mask="url(#mask-46)"></path>
                    </g>
                    <g id="Group-74">
                        <mask id="mask-48" fill="white">
                            <use xlink:href="#path-47"></use>
                        </mask>
                        <g id="Clip-73"></g>
                        <path d="M96.4828689,108.133791 C95.3106748,106.709665 88.2012573,104.911752 83.2149466,103.797869 L74.8907233,121.389005 C74.8907233,121.389005 64.4232087,103.743296 64.3977913,103.673772 C59.4010146,104.774947 51.7892282,106.655092 50.5721796,108.133791 C48.7353932,110.363801 53.5856456,173.72284 53.5856456,173.72284 L103.385209,171.598985 C103.385209,171.598985 98.3189078,110.363801 96.4828689,108.133791" id="Fill-72" fill="#9E223E" mask="url(#mask-48)"></path>
                    </g>
                    <g id="Group-77">
                        <mask id="mask-50" fill="white">
                            <use xlink:href="#path-49"></use>
                        </mask>
                        <g id="Clip-76"></g>
                        <path d="M65.2272233,183.15534 L38.9784466,157.123359 C38.9784466,157.123359 34.2687379,152.086214 39.4262427,146.770223 C42.9674951,143.126553 48.3171262,145.621951 49.8384369,147.236709 C51.154165,148.565893 72.9870291,177.163544 72.9870291,177.163544 L65.2272233,183.15534 Z" id="Fill-75" fill="#9E223E" mask="url(#mask-50)"></path>
                    </g>
                    <g id="Group-80">
                        <mask id="mask-52" fill="white">
                            <use xlink:href="#path-51"></use>
                        </mask>
                        <g id="Clip-79"></g>
                        <path d="M56.1548291,106.758407 C56.1548291,106.758407 64.5568,109.269504 61.9358097,119.760941 C59.315567,130.25163 51.1565573,154.001271 51.1565573,154.001271 C51.1565573,154.001271 49.1246544,160.591125 41.9479553,158.755834 C37.0274311,157.491688 36.5355282,151.609038 37.1814311,149.486679 C37.6815573,147.685028 46.5395476,114.436727 46.5395476,114.436727 C46.5395476,114.436727 48.6708777,105.433708 56.1548291,106.758407" id="Fill-78" fill="#9E223E" mask="url(#mask-52)"></path>
                    </g>
                    <g id="Group-83">
                        <mask id="mask-54" fill="white">
                            <use xlink:href="#path-53"></use>
                        </mask>
                        <g id="Clip-82"></g>
                        <path d="M130.960329,112.183393 C125.445484,115.895092 118.860863,118.067539 112.081125,118.513092 C104.01631,119.043869 91.9168437,115.0765 92.7331932,105.055286 C92.9739117,102.091908 94.2589893,99.3161699 95.7257272,96.7303155 C99.5099408,90.0604709 101.538106,84.5568398 102.211669,76.8291796 C102.726747,70.9151311 103.591688,64.8134417 108.104038,60.4102379 C110.372174,58.1966748 113.271261,56.8226359 116.350514,56.2058883 C119.366222,55.6011019 122.555368,55.7222087 125.494077,56.4922087 C134.231708,58.7805291 139.348844,65.714267 141.87564,73.7985194 C144.375523,81.7960534 146.03065,91.6550437 142.18962,99.450733 C139.585077,104.735325 135.661067,109.018917 130.960329,112.183393" id="Fill-81" fill="#9E223E" mask="url(#mask-54)"></path>
                    </g>
                    <g id="Group-86">
                        <mask id="mask-56" fill="white">
                            <use xlink:href="#path-55"></use>
                        </mask>
                        <g id="Clip-85"></g>
                        <path d="M104.409084,103.093506 L114.53122,100.657166 L114.948366,93.9148068 L126.530512,85.2489427 L126.852716,100.432147 C126.852716,100.432147 138.967881,103.854535 139.068803,103.951719 C128.563162,118.86804 108.071444,108.920836 104.409084,103.093506" id="Fill-84" fill="#F5C7A3" mask="url(#mask-56)"></path>
                    </g>
                    <g id="Group-89">
                        <mask id="mask-58" fill="white">
                            <use xlink:href="#path-57"></use>
                        </mask>
                        <g id="Clip-88"></g>
                        <path d="M132.652535,78.3250728 C132.652535,78.3250728 133.251341,76.4965097 134.179079,77.1439078 C135.106817,77.7913058 134.983467,85.2461019 132.154651,85.6699757 C129.325088,86.0953447 132.652535,78.3250728 132.652535,78.3250728" id="Fill-87" fill="#F5C7A3" mask="url(#mask-58)"></path>
                    </g>
                    <g id="Group-92">
                        <mask id="mask-60" fill="white">
                            <use xlink:href="#path-59"></use>
                        </mask>
                        <g id="Clip-91"></g>
                        <path d="M109.290884,78.3250728 C109.290884,78.3250728 108.692826,76.4965097 107.765088,77.1439078 C106.83735,77.7913058 106.959952,85.2461019 109.789516,85.6699757 C112.618331,86.0953447 109.290884,78.3250728 109.290884,78.3250728" id="Fill-90" fill="#F5C7A3" mask="url(#mask-60)"></path>
                    </g>
                    <g id="Group-95">
                        <mask id="mask-62" fill="white">
                            <use xlink:href="#path-61"></use>
                        </mask>
                        <g id="Clip-94"></g>
                        <path d="M112.426504,66.0350505 L120.950329,63.1083029 L129.47565,66.0350505 L132.771698,70.7462544 L132.729834,79.8830893 C132.729834,79.8830893 132.658815,84.4507592 131.986747,86.3069825 C131.315426,88.1624583 128.66229,96.2646524 120.950329,96.6922641 C113.239863,96.2646524 110.586727,88.1624583 109.915407,86.3069825 C109.242591,84.4507592 109.171572,79.8830893 109.171572,79.8830893 L109.180543,70.7462544 L112.426504,66.0350505 Z" id="Fill-93" fill="#F5C7A3" mask="url(#mask-62)"></path>
                    </g>
                    <g id="Group-98">
                        <mask id="mask-64" fill="white">
                            <use xlink:href="#path-63"></use>
                        </mask>
                        <g id="Clip-97"></g>
                        <path d="M123.502094,87.3696573 C123.431075,88.7205214 122.317191,89.7940359 120.949881,89.7940359 C119.581822,89.7940359 118.468686,88.7205214 118.397667,87.3696573 L123.502094,87.3696573 Z" id="Fill-96" fill="#FFFFFF" mask="url(#mask-64)"></path>
                    </g>
                    <g id="Group-101">
                        <mask id="mask-66" fill="white">
                            <use xlink:href="#path-65"></use>
                        </mask>
                        <g id="Clip-100"></g>
                        <path d="M132.771549,75.4826515 C131.307053,73.7116515 130.010762,71.4607097 128.991073,68.4158456 C128.991073,68.4158456 126.678083,72.9132437 120.307267,74.1444961 C120.307267,74.1444961 121.59384,73.2347 122.074529,72.3779816 C122.074529,72.3779816 118.80016,74.8853408 113.49015,74.9429039 C113.49015,74.9429039 115.346374,74.3411078 115.953403,73.5202728 C115.953403,73.5202728 109.540723,74.1646806 109.052558,76.1801369 L107.851209,72.6635544 L108.850714,67.4881078 L110.296519,65.2573505 L115.514578,61.2428845 L122.074529,59.9578068 L128.991073,62.6341175 L131.870723,64.3475544 L134.458073,68.7373019 L133.209626,72.6456126 L132.771549,75.4826515 Z" id="Fill-99" fill="#9E223E" mask="url(#mask-66)"></path>
                    </g>
                    <g id="Group-104">
                        <mask id="mask-68" fill="white">
                            <use xlink:href="#path-67"></use>
                        </mask>
                        <g id="Clip-103"></g>
                        <path d="M128.467174,75.9315689 C125.71162,75.9315689 123.46965,78.1735398 123.46965,80.9290932 C123.46965,83.6846466 125.71162,85.9266175 128.467174,85.9266175 C131.223475,85.9266175 133.464698,83.6846466 133.464698,80.9290932 C133.464698,78.1735398 131.223475,75.9315689 128.467174,75.9315689 M128.467174,86.6599864 C125.307183,86.6599864 122.736281,84.0890835 122.736281,80.9290932 C122.736281,77.7691029 125.307183,75.1982 128.467174,75.1982 C131.627912,75.1982 134.198067,77.7691029 134.198067,80.9290932 C134.198067,84.0890835 131.627912,86.6599864 128.467174,86.6599864" id="Fill-102" fill="#FFFFFF" mask="url(#mask-68)"></path>
                    </g>
                    <g id="Group-107">
                        <mask id="mask-70" fill="white">
                            <use xlink:href="#path-69"></use>
                        </mask>
                        <g id="Clip-106"></g>
                        <path d="M113.775649,75.9315689 C111.019348,75.9315689 108.778124,78.1735398 108.778124,80.9290932 C108.778124,83.6846466 111.019348,85.9266175 113.775649,85.9266175 C116.531202,85.9266175 118.773173,83.6846466 118.773173,80.9290932 C118.773173,78.1735398 116.531202,75.9315689 113.775649,75.9315689 M113.775649,86.6599864 C110.614911,86.6599864 108.044755,84.0890835 108.044755,80.9290932 C108.044755,77.7691029 110.614911,75.1982 113.775649,75.1982 C116.935639,75.1982 119.506542,77.7691029 119.506542,80.9290932 C119.506542,84.0890835 116.935639,86.6599864 113.775649,86.6599864" id="Fill-105" fill="#FFFFFF" mask="url(#mask-70)"></path>
                    </g>
                    <g id="Group-110">
                        <mask id="mask-72" fill="white">
                            <use xlink:href="#path-71"></use>
                        </mask>
                        <g id="Clip-109"></g>
                        <path d="M118.742896,78.896368 L118.532081,78.1936495 C120.363634,77.6441835 122.081556,77.6456786 123.63875,78.1996301 L123.393547,78.891135 C121.96643,78.383533 120.445119,78.3857757 118.742896,78.896368" id="Fill-108" fill="#FFFFFF" mask="url(#mask-72)"></path>
                    </g>
                    <g id="Group-113">
                        <mask id="mask-74" fill="white">
                            <use xlink:href="#path-73"></use>
                        </mask>
                        <g id="Clip-112"></g>
                        <path d="M125.506113,177.999031 C128.45753,175.26441 144.046666,165.398691 157.186753,157.713643 C157.186753,157.713643 163.577753,154.633643 160.556064,148.732303 C157.738462,144.200517 152.689355,145.177594 150.767346,146.493322 C149.120443,147.563847 120.246938,172.535769 120.246938,172.535769 L125.506113,177.999031 Z" id="Fill-111" fill="#F5C7A3" mask="url(#mask-74)"></path>
                    </g>
                    <g id="Group-116">
                        <mask id="mask-76" fill="white">
                            <use xlink:href="#path-75"></use>
                        </mask>
                        <g id="Clip-115"></g>
                        <path d="M161.361125,152.297552 C160.981358,154.612038 159.473504,156.307533 156.878679,157.340679 C155.444086,157.911077 153.984824,157.864727 152.543504,157.20462 C150.430116,156.237261 148.880397,154.156018 148.498387,153.055591 C147.806883,151.207591 133.283038,117.57429 132.751514,116.197261 C132.604989,115.843659 129.489853,108.137679 135.584067,105.101785 C135.84796,105.018057 136.896057,104.718281 138.302989,104.757902 C140.909028,104.832659 144.748562,106.06765 147.141543,111.982446 C151.334679,122.347543 161.657164,150.49665 161.361125,152.297552" id="Fill-114" fill="#F5C7A3" mask="url(#mask-76)"></path>
                    </g>
                    <g id="Group-119">
                        <mask id="mask-78" fill="white">
                            <use xlink:href="#path-77"></use>
                        </mask>
                        <g id="Clip-118"></g>
                        <path d="M135.180751,104.117083 C135.180751,104.117083 143.8668,101.056519 148.125722,111.584587 C150.414043,117.240723 153.709344,127.134102 156.269781,135.080053 C151.488305,137.668898 147.078373,139.276927 141.775839,140.457345 C137.76212,130.057112 131.761353,116.579869 131.761353,116.579869 C131.761353,116.579869 128.006295,107.617966 135.180751,104.117083" id="Fill-117" fill="#E8364B" mask="url(#mask-78)"></path>
                    </g>
                    <g id="Group-122">
                        <mask id="mask-80" fill="white">
                            <use xlink:href="#path-79"></use>
                        </mask>
                        <g id="Clip-121"></g>
                        <path d="M144.188107,105.90423 C142.707913,104.349279 138.843709,103.404347 133.962806,102.208978 C122.831447,105.245618 113.429223,103.968017 108.291903,101.847152 C103.496223,102.714337 97.9611942,103.87457 96.481,105.429521 C94.5522621,107.454696 103.653961,160.307347 103.653961,160.307347 L137.769447,149.636492 C137.769447,149.636492 146.116097,107.929405 144.188107,105.90423" id="Fill-120" fill="#E8364B" mask="url(#mask-80)"></path>
                    </g>
                    <g id="Group-125">
                        <mask id="mask-82" fill="white">
                            <use xlink:href="#path-81"></use>
                        </mask>
                        <g id="Clip-124"></g>
                        <path d="M86.6147583,162.20506 C86.6102728,162.250662 86.4435641,163.863924 87.115632,165.560915 C87.9775835,167.741584 89.8113796,169.078992 92.5661854,169.538002 C94.0897388,169.789934 95.5056417,169.435584 96.7735252,168.484672 C98.6334864,167.090449 99.707001,164.728118 99.8460495,163.570876 C100.12938,161.618963 105.481253,127.344245 105.709263,125.886478 C105.777292,125.509701 107.185719,117.317798 100.586147,115.645478 C100.309545,115.619313 99.2225738,115.549041 97.8560107,115.886196 C95.3247291,116.511915 91.8343117,118.534847 90.7525738,124.821934 C88.855234,135.841157 86.6364379,161.941915 86.6147583,162.20506" id="Fill-123" fill="#F5C7A3" mask="url(#mask-82)"></path>
                    </g>
                    <g id="Group-128">
                        <mask id="mask-84" fill="white">
                            <use xlink:href="#path-83"></use>
                        </mask>
                        <g id="Clip-127"></g>
                        <path d="M102.240824,103.736717 C102.240824,103.736717 93.1017466,102.589941 91.175999,113.781853 C90.1406107,119.794582 89.019999,130.162669 88.2051447,138.470446 C93.4269408,139.985028 98.8244165,140.629436 104.256281,140.657096 C105.970465,129.640863 108.228135,115.189533 108.228135,115.189533 C108.228135,115.189533 109.99465,105.634057 102.240824,103.736717" id="Fill-126" fill="#E8364B" mask="url(#mask-84)"></path>
                    </g>
                </g>
                <g id="Group-136">
                    <path d="M89.1207766,18.4001454 C100.197508,18.4001454 109.176835,26.0971405 109.176835,35.5910527 C109.176835,38.9813063 108.016201,42.1334234 106.039742,44.7972478 C104.58463,47.5091502 105.529664,50.9024088 108.209264,52.456682 C104.980523,53.3175795 101.699196,52.4146137 99.378679,50.3442527 C96.3745522,51.8827502 92.8746205,52.7827112 89.1207766,52.7827112 C78.0440449,52.7827112 69.064718,45.0857161 69.064718,35.5910527 C69.064718,26.0971405 78.0440449,18.4001454 89.1207766,18.4001454" id="Fill-130" fill="#E8364B"></path>
                    <path d="M89.2850683,45.0724946 L89.1205512,45.1506215 L88.9567854,45.0724946 C87.4851463,44.3693532 86.2433805,43.3732361 85.2637902,42.1141922 C85.2652927,42.0608556 85.2465122,42.0030117 85.1991854,41.9406605 C84.4201707,40.9250117 83.8124341,39.7388361 83.391,38.4151873 C82.6780927,36.1712946 82.7472049,34.3187873 82.750961,34.2406605 L82.7629805,33.94468 L83.0845024,33.9116263 C84.8040439,33.735841 86.2816927,33.0942995 87.2177122,32.5872263 C88.2205902,32.0448459 88.8471073,31.5265044 88.8749024,31.5039678 L89.1213024,31.2966312 L89.3684537,31.5054702 C89.434561,31.5603093 90.0422976,32.0561141 91.0233902,32.5872263 C91.9594098,33.0942995 93.4363073,33.735841 95.1566,33.9116263 L95.478122,33.94468 L95.4908927,34.2406605 C95.4946488,34.3187873 95.563761,36.1712946 94.8501024,38.4151873 C94.4294195,39.7388361 93.8209317,40.9250117 93.0426683,41.9406605 C92.993839,42.0045141 92.9735561,42.0631093 92.9735561,42.1179483 C91.9947171,43.3754898 90.7552049,44.3701044 89.2850683,45.0724946 M97.398239,38.84188 C97.398239,36.7978117 97.2164439,34.9407971 96.8528537,33.3091483 C95.7996439,28.5757141 93.2199561,25.7368556 89.1205512,25.7368556 C85.0684732,25.7368556 82.5000537,28.5111093 81.4243073,33.1491385 C81.0374293,34.8190995 80.8436146,36.7309532 80.8436146,38.84188 C80.8436146,39.7696361 80.8931951,40.6771093 80.9893512,41.5567873 C81.0028732,41.5530312 81.0148927,41.5492751 81.0276634,41.545519 C81.0276634,41.5552849 81.0254098,41.5642995 81.0254098,41.5733141 C81.0254098,42.606241 84.3187561,42.8008068 85.1000244,42.3327971 C86.0976439,43.598602 87.3544341,44.6022312 88.8418488,45.3128849 L89.1205512,45.4458507 L89.3992537,45.3128849 C90.8814098,44.6052361 92.1336927,43.6061141 93.1290585,42.3485727 C93.8712634,42.8421239 97.0211268,42.7377044 97.2254585,41.7791483 C97.2404829,41.7107873 97.2502488,41.6424263 97.2502488,41.5733141 L97.2502488,41.5725629 C97.3471561,40.6883776 97.398239,39.7756459 97.398239,38.84188" id="Fill-132" fill="#FFFFFF"></path>
                    <path d="M0.449003902,77.1188429 C0.449003902,34.77936 34.7722234,0.456140488 77.1124576,0.456140488 C119.45194,0.456140488 153.77516,34.77936 153.77516,77.1188429 C153.77516,119.458326 119.45194,153.782297 77.1124576,153.782297 C34.7722234,153.782297 0.449003902,119.458326 0.449003902,77.1188429 Z" id="Stroke-134" stroke="#FFD8DD" stroke-width="5"></path>
                </g>
            </g>
        </g>
    </g>
</svg>