<?xml version="1.0" encoding="UTF-8"?>
<svg width="224px" height="224px" viewBox="0 0 224 224" version="1.1" xmlns="http://www.w3.org/2000/svg" xmlns:xlink="http://www.w3.org/1999/xlink">
    <title>Group 48</title>
    <defs>
        <path d="M0.980086957,109.602493 C0.980086957,170.110585 50.0314106,219.161908 110.539502,219.161908 L110.539502,219.161908 C171.047594,219.161908 220.099986,170.110585 220.099986,109.602493 L220.099986,109.602493 C220.099986,49.094401 171.047594,0.0420096618 110.539502,0.0420096618 L110.539502,0.0420096618 C50.0314106,0.0420096618 0.980086957,49.094401 0.980086957,109.602493 L0.980086957,109.602493 Z" id="path-1"></path>
        <path d="M0.980086957,109.602493 C0.980086957,170.110585 50.0314106,219.161908 110.539502,219.161908 L110.539502,219.161908 C171.047594,219.161908 220.099986,170.110585 220.099986,109.602493 L220.099986,109.602493 C220.099986,49.094401 171.047594,0.0420096618 110.539502,0.0420096618 L110.539502,0.0420096618 C50.0314106,0.0420096618 0.980086957,49.094401 0.980086957,109.602493 L0.980086957,109.602493 Z" id="path-3"></path>
        <path d="M0.980086957,109.602493 C0.980086957,170.110585 50.0314106,219.161908 110.539502,219.161908 L110.539502,219.161908 C171.047594,219.161908 220.099986,170.110585 220.099986,109.602493 L220.099986,109.602493 C220.099986,49.094401 171.047594,0.0420096618 110.539502,0.0420096618 L110.539502,0.0420096618 C50.0314106,0.0420096618 0.980086957,49.094401 0.980086957,109.602493 L0.980086957,109.602493 Z" id="path-5"></path>
        <path d="M0.980086957,109.602493 C0.980086957,170.110585 50.0314106,219.161908 110.539502,219.161908 L110.539502,219.161908 C171.047594,219.161908 220.099986,170.110585 220.099986,109.602493 L220.099986,109.602493 C220.099986,49.094401 171.047594,0.0420096618 110.539502,0.0420096618 L110.539502,0.0420096618 C50.0314106,0.0420096618 0.980086957,49.094401 0.980086957,109.602493 L0.980086957,109.602493 Z" id="path-7"></path>
        <path d="M0.980086957,109.602493 C0.980086957,170.110585 50.0314106,219.161908 110.539502,219.161908 L110.539502,219.161908 C171.047594,219.161908 220.099986,170.110585 220.099986,109.602493 L220.099986,109.602493 C220.099986,49.094401 171.047594,0.0420096618 110.539502,0.0420096618 L110.539502,0.0420096618 C50.0314106,0.0420096618 0.980086957,49.094401 0.980086957,109.602493" id="path-9"></path>
        <path d="M0.980086957,109.602493 C0.980086957,170.110585 50.0314106,219.161908 110.539502,219.161908 L110.539502,219.161908 C171.047594,219.161908 220.099986,170.110585 220.099986,109.602493 L220.099986,109.602493 C220.099986,49.094401 171.047594,0.0420096618 110.539502,0.0420096618 L110.539502,0.0420096618 C50.0314106,0.0420096618 0.980086957,49.094401 0.980086957,109.602493" id="path-11"></path>
        <path d="M0.980086957,109.602493 C0.980086957,170.110585 50.0314106,219.161908 110.539502,219.161908 L110.539502,219.161908 C171.047594,219.161908 220.099986,170.110585 220.099986,109.602493 L220.099986,109.602493 C220.099986,49.094401 171.047594,0.0420096618 110.539502,0.0420096618 L110.539502,0.0420096618 C50.0314106,0.0420096618 0.980086957,49.094401 0.980086957,109.602493" id="path-13"></path>
        <path d="M0.980086957,109.602493 C0.980086957,170.110585 50.0314106,219.161908 110.539502,219.161908 L110.539502,219.161908 C171.047594,219.161908 220.099986,170.110585 220.099986,109.602493 L220.099986,109.602493 C220.099986,49.094401 171.047594,0.0420096618 110.539502,0.0420096618 L110.539502,0.0420096618 C50.0314106,0.0420096618 0.980086957,49.094401 0.980086957,109.602493" id="path-15"></path>
        <path d="M0.980086957,109.602493 C0.980086957,170.110585 50.0314106,219.161908 110.539502,219.161908 L110.539502,219.161908 C171.047594,219.161908 220.099986,170.110585 220.099986,109.602493 L220.099986,109.602493 C220.099986,49.094401 171.047594,0.0420096618 110.539502,0.0420096618 L110.539502,0.0420096618 C50.0314106,0.0420096618 0.980086957,49.094401 0.980086957,109.602493 L0.980086957,109.602493 Z" id="path-17"></path>
        <path d="M0.980086957,109.602493 C0.980086957,170.110585 50.0314106,219.161908 110.539502,219.161908 L110.539502,219.161908 C171.047594,219.161908 220.099986,170.110585 220.099986,109.602493 L220.099986,109.602493 C220.099986,49.094401 171.047594,0.0420096618 110.539502,0.0420096618 L110.539502,0.0420096618 C50.0314106,0.0420096618 0.980086957,49.094401 0.980086957,109.602493" id="path-19"></path>
        <path d="M0.980086957,109.602493 C0.980086957,170.110585 50.0314106,219.161908 110.539502,219.161908 L110.539502,219.161908 C171.047594,219.161908 220.099986,170.110585 220.099986,109.602493 L220.099986,109.602493 C220.099986,49.094401 171.047594,0.0420096618 110.539502,0.0420096618 L110.539502,0.0420096618 C50.0314106,0.0420096618 0.980086957,49.094401 0.980086957,109.602493" id="path-21"></path>
        <path d="M0.980086957,109.602493 C0.980086957,170.110585 50.0314106,219.161908 110.539502,219.161908 L110.539502,219.161908 C171.047594,219.161908 220.099986,170.110585 220.099986,109.602493 L220.099986,109.602493 C220.099986,49.094401 171.047594,0.0420096618 110.539502,0.0420096618 L110.539502,0.0420096618 C50.0314106,0.0420096618 0.980086957,49.094401 0.980086957,109.602493" id="path-23"></path>
        <path d="M0.980086957,109.602493 C0.980086957,170.110585 50.0314106,219.161908 110.539502,219.161908 L110.539502,219.161908 C171.047594,219.161908 220.099986,170.110585 220.099986,109.602493 L220.099986,109.602493 C220.099986,49.094401 171.047594,0.0420096618 110.539502,0.0420096618 L110.539502,0.0420096618 C50.0314106,0.0420096618 0.980086957,49.094401 0.980086957,109.602493" id="path-25"></path>
        <path d="M0,109.560483 C0,170.068575 49.0513237,219.119899 109.559415,219.119899 L109.559415,219.119899 C170.067507,219.119899 219.119899,170.068575 219.119899,109.560483 L219.119899,109.560483 C219.119899,49.0523913 170.067507,0 109.559415,0 L109.559415,0 C49.0513237,0 0,49.0523913 0,109.560483" id="path-27"></path>
    </defs>
    <g id="Page-1" stroke="none" stroke-width="1" fill="none" fill-rule="evenodd">
        <g id="ORGANISER-UNE-COLLECTE" transform="translate(-1298.000000, -1856.000000)">
            <g id="Group-48" transform="translate(1299.000000, 1857.000000)">
                <path d="M220,109.499466 C220,169.975516 170.975516,219 110.499466,219 C50.0244837,219 1,169.975516 1,109.499466 C1,49.0244837 50.0244837,0 110.499466,0 C170.975516,0 220,49.0244837 220,109.499466" id="Fill-1" fill="#FFFFFF"></path>
                <g id="Group-45">
                    <g id="Group-5">
                        <mask id="mask-2" fill="white">
                            <use xlink:href="#path-1"></use>
                        </mask>
                        <g id="Clip-4"></g>
                        <path d="M199.844001,59.0549884 C199.844001,59.0549884 186.845571,63.141887 182.202436,61.6867034 C177.557165,60.2304522 168.524991,57.142858 165.887938,57.2731092 C152.857479,55.79337 127.89302,62.897399 127.89302,62.897399 L112.579962,66.212399 C112.07604,71.8420271 117.517764,75.3758918 123.063049,74.2858386 L146.038508,72.0192541 L95.2106435,95.0256744 C89.2415082,97.7054329 92.4646918,105.562143 98.1487691,103.783467 L138.759387,88.9860754 L94.6875034,107.829795 C88.0543005,110.115597 90.1949043,119.471264 96.9402087,116.680471 L143.143088,102.486293 L104.740334,116.314273 C100.555214,117.652017 102.785499,125.680616 108.417262,124.190201 L150.822571,113.239491 L124.437093,125.703037 C119.935953,128.771414 124.463784,133.9505 128.45246,131.917728 L175.143247,111.283587 L232.675846,84.715544 L208.33702,56.447829 L199.844001,59.0549884 Z" id="Fill-3" fill="#F6C8A3" mask="url(#mask-2)"></path>
                    </g>
                    <g id="Group-8">
                        <mask id="mask-4" fill="white">
                            <use xlink:href="#path-3"></use>
                        </mask>
                        <g id="Clip-7"></g>
                        <polygon id="Fill-6" fill="#FFA2AB" mask="url(#mask-4)" points="72.5371111 98.6481527 143.464232 76.4905005 156.135966 126.219771 87.6248986 153.520211"></polygon>
                    </g>
                    <g id="Group-11">
                        <mask id="mask-6" fill="white">
                            <use xlink:href="#path-5"></use>
                        </mask>
                        <g id="Clip-10"></g>
                        <polygon id="Fill-9" fill="#9E223E" mask="url(#mask-6)" points="48.404872 88.9664309 72.5376449 98.6477256 87.6243647 153.520851 62.400471 141.098943"></polygon>
                    </g>
                    <g id="Group-14">
                        <mask id="mask-8" fill="white">
                            <use xlink:href="#path-7"></use>
                        </mask>
                        <g id="Clip-13"></g>
                        <polygon id="Fill-12" fill="#E8364B" mask="url(#mask-8)" points="48.404872 88.9664309 125.050234 67.5230251 143.463698 76.4900734 72.5376449 98.6477256"></polygon>
                    </g>
                    <g id="Group-17">
                        <mask id="mask-10" fill="white">
                            <use xlink:href="#path-9"></use>
                        </mask>
                        <g id="Clip-16"></g>
                        <path d="M94.9125604,118.342989 C94.7428068,117.74725 94.1278502,117.401337 93.5321111,117.56255 C93.5321111,117.56255 93.5225024,117.564685 93.5182319,117.565753 C92.9192899,117.736574 92.5723092,118.361139 92.7420628,118.959014 C93.74457,122.488608 94.8826667,126.004323 96.1403382,129.468791 L86.338401,118.228753 C86.0020966,117.843337 85.4501304,117.730168 84.9899807,117.958642 C84.5308986,118.183912 84.2810725,118.68997 84.3824976,119.191757 C85.0721884,122.635941 86.1964058,125.996849 87.2821884,129.246724 C88.4032029,132.601226 89.5626522,136.069965 90.2128406,139.56326 C90.3260097,140.176081 90.915343,140.580714 91.5281643,140.466477 C91.558058,140.461139 91.5879517,140.453666 91.6178454,140.446192 C92.1783527,140.294588 92.5381449,139.733014 92.4313816,139.151154 C91.7534348,135.50412 90.5683623,131.959579 89.4217246,128.530342 C88.8430676,126.799709 88.2548019,125.038115 87.7295266,123.258371 L98.6588841,135.789178 C99.0218792,136.204487 99.6336329,136.297371 100.102324,136.006975 C100.572082,135.716579 100.762121,135.129381 100.551797,134.617985 C98.3748937,129.325729 96.4777101,123.848772 94.9125604,118.342989" id="Fill-15" fill="#FFFFFF" mask="url(#mask-10)"></path>
                    </g>
                    <g id="Group-20">
                        <mask id="mask-12" fill="white">
                            <use xlink:href="#path-11"></use>
                        </mask>
                        <g id="Clip-19"></g>
                        <path d="M104.267907,124.057601 C104.21666,124.080021 104.170752,124.108847 104.124844,124.136606 C104.086409,123.991408 104.049042,123.84621 104.006337,123.701012 C103.970037,123.576099 103.931602,123.451186 103.8921,123.325205 C103.744767,122.847973 103.605974,122.396364 103.573945,121.97892 C103.557931,121.771799 103.566472,121.542258 103.575013,121.29777 C103.581419,121.075702 103.58996,120.847229 103.582486,120.603809 C103.568607,120.126577 103.497076,119.672833 103.397786,119.2319 C104.720583,120.504519 106.017757,121.808099 107.291443,123.134099 C106.253704,123.333746 105.24052,123.640157 104.267907,124.057601 M120.748955,111.354905 C120.579201,110.759166 119.963177,110.413253 119.369573,110.573398 C119.364235,110.574466 119.359965,110.575533 119.359965,110.575533 C118.754617,110.747422 118.407636,111.371987 118.57739,111.970929 C119.580965,115.498388 120.717994,119.015171 121.976733,122.47964 L112.173728,111.240669 C111.838491,110.855253 111.28439,110.742084 110.826375,110.96949 C110.367293,111.195828 110.117467,111.701886 110.217825,112.202606 C110.908583,115.647857 112.031733,119.008765 113.118583,122.257572 C113.790124,124.266857 114.473409,126.31778 115.055269,128.391123 C111.061255,123.652968 106.732003,119.14649 102.156129,114.979519 C101.816622,114.668838 101.320172,114.598374 100.908066,114.796954 C100.492757,114.996601 100.241863,115.427925 100.271757,115.888074 C100.331544,116.815847 100.593114,117.660345 100.844008,118.477084 C101.08209,119.24578 101.306293,119.972838 101.327646,120.673205 C101.332984,120.85577 101.325511,121.038335 101.319105,121.2209 C101.309496,121.5145 101.299887,121.818775 101.324443,122.149741 C101.375689,122.821282 101.567863,123.442644 101.736549,123.991408 C101.772849,124.10778 101.808081,124.224152 101.843313,124.340524 C102.362182,126.097847 102.552221,127.928838 102.751868,129.865524 C102.977139,132.040292 103.208815,134.286591 103.948685,136.441074 C104.142994,137.005852 104.7398,137.317601 105.309916,137.163862 C105.333404,137.158524 105.35796,137.15105 105.381448,137.142509 C105.971849,136.939659 106.285733,136.298012 106.082883,135.708678 C105.427356,133.797615 105.2181,131.775519 104.996032,129.634915 C104.87966,128.506427 104.75795,127.357654 104.567912,126.211016 C104.710974,126.229166 104.860443,126.22276 105.005641,126.183258 C105.05582,126.170446 105.107066,126.152297 105.156177,126.130944 C106.203525,125.682538 107.308525,125.378263 108.438081,125.227727 C108.661216,125.196765 108.860863,125.101746 109.019941,124.965089 C110.911786,127.006403 112.741709,129.102166 114.499032,131.24277 C114.832134,131.647403 115.385168,131.758437 115.839979,131.549181 C115.912578,131.890823 115.986245,132.232466 116.049235,132.575176 C116.163472,133.187997 116.75067,133.59263 117.364559,133.477326 C117.394453,133.471987 117.424346,133.465582 117.45424,133.458108 C118.015815,133.305437 118.375607,132.744929 118.266709,132.16307 C117.589829,128.516036 116.403689,124.970427 115.258119,121.542258 C114.679462,119.810557 114.090129,118.048963 113.566989,116.269219 L124.494211,128.800026 C124.858274,129.216403 125.46896,129.309287 125.938718,129.017823 C126.407409,128.728495 126.598515,128.140229 126.389259,127.6299 C124.211288,122.335509 122.313037,116.85962 120.748955,111.354905" id="Fill-18" fill="#FFFFFF" mask="url(#mask-12)"></path>
                    </g>
                    <g id="Group-23">
                        <mask id="mask-14" fill="white">
                            <use xlink:href="#path-13"></use>
                        </mask>
                        <g id="Clip-22"></g>
                        <path d="M130.103768,117.068983 C130.052521,117.091403 130.007681,117.119162 129.960705,117.147988 C129.92227,117.00279 129.885971,116.857592 129.843265,116.712394 C129.805898,116.587481 129.767463,116.462568 129.727961,116.336587 C129.581695,115.859355 129.442903,115.407746 129.410874,114.989234 C129.394859,114.782114 129.402333,114.552572 129.410874,114.308085 C129.418347,114.087085 129.425821,113.857543 129.418347,113.615191 C129.404468,113.137959 129.332937,112.684215 129.234714,112.243283 C130.556444,113.515901 131.854686,114.819481 133.127304,116.145481 C132.090632,116.345128 131.076381,116.651539 130.103768,117.068983 M142.079405,122.823524 C137.762966,117.563297 133.023743,112.573181 127.99199,107.990901 C127.652483,107.68022 127.156033,107.609756 126.743927,107.808336 C126.328618,108.009051 126.077724,108.439307 126.107618,108.899457 C126.167405,109.827229 126.428975,110.671727 126.680937,111.487399 C126.917951,112.257162 127.142154,112.98422 127.163507,113.684587 C127.168845,113.867152 127.161371,114.04865 127.154966,114.231215 C127.145357,114.525882 127.135748,114.830157 127.160304,115.160056 C127.21155,115.831597 127.403724,116.454027 127.573478,117.00279 C127.60871,117.119162 127.645009,117.235534 127.679173,117.351906 C128.199111,119.109229 128.388082,120.94022 128.587729,122.877973 C128.813,125.051674 129.045743,127.297973 129.784545,129.452457 C129.978855,130.017234 130.575661,130.328983 131.145777,130.175244 C131.169265,130.169906 131.193821,130.162432 131.218376,130.153891 C131.80771,129.951041 132.121594,129.309394 131.918743,128.72006 C131.263217,126.808998 131.053961,124.786901 130.832961,122.646297 C130.715521,121.518877 130.594879,120.369036 130.403772,119.222399 C130.547903,119.240548 130.696304,119.234143 130.841502,119.19464 C130.892748,119.181829 130.942927,119.163679 130.993106,119.142326 C132.039386,118.69392 133.145454,118.389645 134.273942,118.239109 C134.497077,118.208147 134.696724,118.113128 134.855801,117.975403 C136.747647,120.016717 138.57757,122.113548 140.334893,124.254152 C140.729917,124.736722 141.442029,124.806118 141.922463,124.411094 C142.403966,124.01607 142.474429,123.305027 142.079405,122.823524" id="Fill-21" fill="#FFFFFF" mask="url(#mask-14)"></path>
                    </g>
                    <g id="Group-26">
                        <mask id="mask-16" fill="white">
                            <use xlink:href="#path-15"></use>
                        </mask>
                        <g id="Clip-25"></g>
                        <path d="M133.433928,95.8549048 C133.767029,95.871987 134.107604,95.9178952 134.443909,95.9638034 C134.688397,95.9969 134.917938,96.0278614 135.146411,96.049214 C135.246769,96.0577551 135.351397,96.0630932 135.426131,96.0321319 C135.544638,95.9819531 135.615102,95.8335522 135.696242,95.6627309 C135.729339,95.5922671 135.765638,95.5186005 135.806208,95.4470691 C136.100875,94.9378082 136.713696,94.6260594 137.445025,94.6111126 C137.908377,94.6015039 138.358918,94.702929 138.793445,94.8000836 C138.920493,94.8289097 139.045406,94.8556005 139.171387,94.8822913 C139.374237,94.9228614 139.586696,94.9580932 139.790614,94.9922575 C140.374609,95.0894121 140.977822,95.1908372 141.535126,95.4438662 C141.866092,95.59547 142.178909,95.8015232 142.469305,96.0566874 C142.468237,96.0545522 142.466102,96.0513493 142.463967,96.049214 C141.810575,95.1470643 140.789918,94.4595087 139.587764,94.112528 C138.35358,93.7559386 137.129005,93.8456198 136.227923,94.3570159 C135.979165,94.4979435 135.750691,94.6719676 135.508339,94.8545329 C135.208334,95.0798034 134.897653,95.3146826 134.544266,95.4844362 C134.219706,95.6403106 133.875928,95.7342623 133.543894,95.8250111 C133.505459,95.8346198 133.46916,95.8442285 133.433928,95.8549048 M130.60043,96.7047406 C130.616445,96.7314314 130.637798,96.755987 130.660218,96.7730691 C130.769116,96.8574121 130.951682,96.8211126 131.084068,96.7495812 C130.921788,96.7602575 130.756305,96.7453106 130.60043,96.7047406 M128.714991,102.539354 L128.712856,102.539354 C128.660542,102.592736 128.684029,102.752881 128.692571,102.812668 C128.708585,102.935446 128.726735,103.058224 128.745952,103.181001 C128.819619,103.057156 128.883677,102.939716 128.901827,102.816939 C128.912503,102.749678 128.874068,102.657861 128.807875,102.593803 C128.764102,102.55003 128.727802,102.539354 128.714991,102.539354 M138.280981,102.560707 C138.445397,102.654658 138.594865,102.753948 138.725116,102.848968 C138.945049,103.009113 139.15644,103.188475 139.361426,103.362499 C139.887769,103.80877 140.384218,104.230485 141.003445,104.3586 C141.629078,104.488852 142.352933,104.271055 142.888885,103.789552 C143.499571,103.242924 143.772885,102.497716 143.895662,101.969238 C144.123068,100.987016 144.045131,99.8841512 143.671459,98.7684749 C143.651174,99.0033541 143.611672,99.2350304 143.551885,99.460301 C143.198498,100.761745 142.123392,101.793079 140.874261,102.030093 C140.580662,102.08561 140.284928,102.099489 139.997735,102.112301 C139.635807,102.128315 139.293097,102.14433 138.967469,102.238282 C138.725116,102.309813 138.497711,102.422982 138.280981,102.560707 M136.849286,102.558571 C136.782025,102.556436 136.713696,102.557504 136.645368,102.56391 C136.072049,102.609818 135.419725,103.02833 135.324706,103.647557 C135.301218,103.79489 135.307624,103.948629 135.315097,104.113045 C135.317232,104.160021 135.319368,104.208064 135.320435,104.256108 C135.855319,103.927277 136.40088,103.525847 136.96886,103.048615 L137.124735,102.915161 C137.227228,102.828683 137.32972,102.741137 137.434348,102.655726 C137.247513,102.599142 137.052136,102.56391 136.849286,102.558571 M131.097947,105.449721 C131.580517,105.486021 132.04387,105.451857 132.471991,105.380325 C132.414339,105.373919 132.357754,105.365378 132.304372,105.35577 C132.258464,105.349364 132.212556,105.34189 132.167715,105.336552 C131.851696,105.300253 131.525,105.364311 131.180155,105.434774 C131.151329,105.440113 131.124638,105.444383 131.097947,105.449721 M131.332827,105.888518 C130.946343,105.879977 130.568401,105.830866 130.204339,105.745456 C129.63529,105.610934 129.212508,105.398475 128.9093,105.097402 C128.563387,104.754692 128.396836,104.292407 128.454488,103.869625 C128.36374,103.539726 128.315696,103.202354 128.26872,102.872456 C128.249503,102.734731 128.207865,102.448605 128.395769,102.251093 C128.535629,102.10376 128.741682,102.070663 128.934923,102.164615 C129.163397,102.276716 129.371585,102.575654 129.324609,102.882064 C129.290445,103.1052 129.183682,103.285629 129.079054,103.459654 C129.010725,103.572823 128.947735,103.677451 128.911435,103.785282 C128.903962,103.805567 128.898624,103.826919 128.893286,103.846137 C128.92745,103.961441 128.96802,104.072475 129.017131,104.181373 C129.217846,104.626576 129.542406,104.949001 129.907537,105.063238 C130.274802,105.178543 130.673029,105.09847 131.095812,105.014127 C131.458807,104.942596 131.835682,104.866794 132.217894,104.911634 C132.269141,104.91804 132.320387,104.926581 132.371633,104.935122 C132.515764,104.957543 132.652421,104.978895 132.757049,104.942596 C132.790145,104.929784 132.82431,104.910567 132.857406,104.887079 C132.879827,104.771774 132.951358,104.669282 133.061324,104.599886 C133.162749,104.536895 133.291933,104.504866 133.423252,104.503799 C133.485174,104.486716 133.548165,104.478175 133.612223,104.478175 C133.612223,104.478175 133.645319,104.47177 133.662401,104.470702 C133.736068,104.465364 133.809735,104.483514 133.872725,104.520881 C133.900484,104.529422 133.926107,104.540098 133.95173,104.551842 C134.062764,104.507001 134.187677,104.501663 134.298711,104.529422 C134.406542,104.556113 134.491952,104.612697 134.548537,104.686364 C134.661706,104.630847 134.774875,104.571059 134.888044,104.508069 C134.897653,104.388494 134.892314,104.262514 134.886976,104.131195 C134.879503,103.953968 134.873097,103.769267 134.901923,103.581364 C135.018295,102.827615 135.753894,102.20732 136.611203,102.137924 C137.05,102.102692 137.466377,102.195576 137.835778,102.345045 C138.144324,102.125113 138.47529,101.936142 138.847894,101.828311 C139.222633,101.719412 139.606981,101.70233 139.979585,101.685248 C140.262508,101.672436 140.531551,101.659625 140.795257,101.610514 C141.886377,101.403393 142.828029,100.494837 143.138711,99.3481995 C143.287112,98.7962333 143.294585,98.2026295 143.169672,97.6229048 C142.697778,96.7805425 142.073213,96.1581126 141.358967,95.8324845 C140.851841,95.6029435 140.303078,95.5121947 139.721218,95.4139725 C139.511962,95.3798082 139.297368,95.3435087 139.085976,95.3008034 C138.95786,95.2751802 138.829744,95.2463541 138.700561,95.217528 C138.271372,95.1214411 137.865672,95.0317599 137.453566,95.0381657 C137.00516,95.0467068 136.435044,95.2153928 136.175609,95.6616633 C136.14358,95.7171802 136.113686,95.7801705 136.081657,95.8463638 C135.978097,96.0652285 135.85959,96.3129193 135.591614,96.4260884 C135.427199,96.4965522 135.25531,96.4880111 135.106909,96.4741319 C134.869894,96.4538469 134.624339,96.418615 134.387324,96.386586 C133.490513,96.2648758 132.563807,96.1388952 131.901875,96.6385473 C131.833546,96.6908614 131.767353,96.7495812 131.697957,96.8115039 C131.582653,96.9150643 131.463078,97.0218275 131.320015,97.1072382 C131.075527,97.2513686 130.689044,97.3378469 130.39758,97.1104411 C130.237435,96.985528 130.161633,96.8040304 130.11359,96.6588324 C130.081561,96.5680836 130.057005,96.4751995 130.03672,96.3823155 C129.964121,96.302243 129.904334,96.2082913 129.860561,96.1004604 C129.656643,95.5879966 129.931025,95.1214411 130.236368,94.7039966 C130.238503,94.6986585 130.240638,94.6933203 130.242773,94.6890498 C130.283343,94.606842 130.328184,94.522499 130.374092,94.4370884 C130.567334,94.0751609 130.750967,93.734586 130.603633,93.4676778 C130.553455,93.3779966 130.462706,93.3000594 130.367686,93.2167841 C130.342063,93.1954314 130.315372,93.1730111 130.290817,93.1505908 C129.91074,92.8078807 129.750595,92.3786923 129.595788,91.9623155 C129.49543,91.6922043 129.398276,91.4317019 129.244537,91.2139048 C129.21144,91.3260063 129.178343,91.4583928 129.150585,91.5619531 C129.033145,92.0231705 128.952005,92.312499 128.821754,92.4448855 C128.738479,92.5292285 128.602889,92.5292285 128.518546,92.4470208 C128.435271,92.3626778 128.434203,92.2292237 128.516411,92.1448807 C128.579401,92.0680111 128.678691,91.6857986 128.737411,91.4573251 C128.874068,90.9192382 128.938126,90.6982382 129.126029,90.6437889 C129.21144,90.620301 129.301121,90.6427213 129.367314,90.7067792 C129.701484,91.0227986 129.85202,91.4252961 129.99615,91.8139145 C130.139213,92.1971947 130.274802,92.5601899 130.575875,92.8324362 C130.60043,92.8527213 130.623918,92.8740739 130.647406,92.8954266 C130.755237,92.987243 130.876947,93.0929386 130.963426,93.2370691 C131.041363,92.5324314 130.742426,91.8149821 130.268397,91.0153251 C130.03672,90.6256391 129.801841,90.2658469 129.45059,90.1494749 C129.151653,90.050185 128.696841,91.0494894 128.546305,91.3783203 C128.488653,91.5021657 128.443812,91.6003879 128.406445,91.6697841 C128.34986,91.7733444 128.219609,91.8117792 128.117116,91.7541271 C128.012488,91.6975425 127.975121,91.5683589 128.030638,91.4647986 C128.062667,91.408214 128.10644,91.3110594 128.157686,91.2000256 C128.443812,90.5743928 128.924247,89.5270449 129.584044,89.7437744 C130.116793,89.9188662 130.429609,90.4484121 130.635662,90.797528 C131.318947,91.9495039 131.82287,93.1975667 130.907909,94.5118227 C130.847054,94.5993686 130.78086,94.6879821 130.712532,94.7787309 C130.676232,94.8267744 130.639933,94.8748179 130.605769,94.9228614 C130.428542,95.3082768 130.368754,95.743871 130.430677,96.1613155 C130.643136,96.3203928 130.97944,96.3609628 131.254889,96.2926343 C131.527136,96.2275087 131.780165,96.0919193 132.047073,95.9477889 C132.207218,95.8634459 132.370566,95.7748324 132.542455,95.7000981 C132.832851,95.5741174 133.137126,95.4919097 133.430725,95.4118372 C133.760624,95.3232237 134.071305,95.2388807 134.359566,95.0990208 C134.674517,94.9474169 134.954237,94.7360256 135.249971,94.5128903 C135.493392,94.3292575 135.743218,94.1413541 136.0176,93.9854797 C137.032918,93.408958 138.342904,93.3086005 139.706271,93.7014894 C140.999174,94.0751609 142.100971,94.819301 142.80988,95.7972527 C143.180348,96.3097164 143.437648,96.8819676 143.573237,97.4702333 C143.725909,97.7467502 143.861498,98.0456874 143.980005,98.3627744 C144.461508,99.6450014 144.576812,100.925093 144.310971,102.065325 C144.17645,102.654658 143.866836,103.486344 143.173943,104.107707 C142.538701,104.677823 141.673918,104.934055 140.915899,104.777113 C140.190976,104.626576 139.629401,104.150412 139.084909,103.689195 C138.885261,103.520509 138.680276,103.346485 138.473155,103.193813 C138.30874,103.074238 138.112295,102.94719 137.891295,102.838291 C137.724744,102.967475 137.562464,103.1052 137.402319,103.241857 L137.243242,103.376378 C136.565295,103.946494 135.912971,104.41305 135.274527,104.781383 C135.173102,105.152919 134.885909,105.493494 134.481276,105.483886 L134.477005,105.483886 L134.477005,105.486021 C134.463126,105.543673 134.426827,105.591716 134.376648,105.62161 C134.325401,105.651504 134.265614,105.660045 134.210097,105.642963 C134.084116,105.607731 133.967744,105.5362 133.87486,105.444383 C133.015416,105.76147 132.154904,105.910939 131.332827,105.888518" id="Fill-24" fill="#FFFFFF" mask="url(#mask-16)"></path>
                    </g>
                    <g id="Group-29">
                        <mask id="mask-18" fill="white">
                            <use xlink:href="#path-17"></use>
                        </mask>
                        <g id="Clip-28"></g>
                        <path d="M129.170657,93.0555715 C129.926541,94.9837164 128.904816,95.0435039 128.904816,95.0435039 L111.349729,101.312644 C111.349729,101.312644 107.465681,102.635441 106.912647,99.3054942 C106.359613,95.9776826 108.692391,95.3274942 108.692391,95.3274942 C108.692391,95.3274942 125.142478,89.1362913 126.430043,88.9558614 C127.716541,88.776499 127.665294,89.3818469 127.665294,89.3818469 C127.665294,89.3818469 127.926864,90.0170884 128.23114,90.7622961 L129.170657,93.0555715 Z" id="Fill-27" fill="#FFFFFF" mask="url(#mask-18)"></path>
                    </g>
                    <g id="Group-32">
                        <mask id="mask-20" fill="white">
                            <use xlink:href="#path-19"></use>
                        </mask>
                        <g id="Clip-31"></g>
                        <path d="M106.821257,98.530286 L106.840475,97.8181749 C107.602765,96.9245662 108.47075,96.2711749 109.570412,95.858001 C110.71705,95.4277449 111.854079,94.9889478 112.952673,94.56403 C116.710741,93.1120493 120.727175,91.5970783 124.902687,90.4365614 C125.514441,90.2668077 126.108045,90.0212522 126.682431,89.7842377 C126.990977,89.6561217 127.309132,89.5248029 127.631557,89.4041604 L127.781026,89.8045227 C127.466074,89.9219623 127.150055,90.0532812 126.844712,90.1792618 C126.259649,90.4205469 125.654301,90.6714406 125.016924,90.8486676 C120.859562,92.0038464 116.853803,93.5145469 113.10748,94.962257 C112.00675,95.3882425 110.869721,95.8270396 109.720948,96.2583633 C108.692818,96.6437787 107.549383,97.678315 106.821257,98.530286" id="Fill-30" fill="#E8364B" mask="url(#mask-20)"></path>
                    </g>
                    <g id="Group-35">
                        <mask id="mask-22" fill="white">
                            <use xlink:href="#path-21"></use>
                        </mask>
                        <g id="Clip-34"></g>
                        <path d="M107.113255,100.036823 L106.947772,99.4880594 C107.746361,98.5538807 109.205815,97.7520884 110.269178,97.3527937 C110.816873,97.1478082 111.364569,96.9737841 111.89625,96.8061657 C112.467434,96.6246681 113.056767,96.4378324 113.637559,96.2136295 C114.885622,95.7310594 116.1497,95.2036488 117.372139,94.6922527 C120.012395,93.5893879 122.7434,92.449156 125.527786,91.6740546 C126.101105,91.5149773 126.59969,91.2950449 127.128168,91.0644362 C127.453796,90.9213734 127.7901,90.7740401 128.149893,90.6395184 L128.300429,91.038813 C127.951313,91.1701319 127.620347,91.31533 127.298989,91.4562575 C126.781187,91.6836633 126.245236,91.9185425 125.642023,92.0861609 C122.88326,92.8527213 120.166134,93.9886826 117.537622,95.0862092 C116.31198,95.5986729 115.045767,96.1282188 113.792366,96.6118565 C113.198762,96.8413976 112.603023,97.0303686 112.026501,97.2129338 C111.499091,97.3794845 110.956733,97.5524411 110.419714,97.753156 C109.42468,98.1268275 107.858463,99.1645667 107.113255,100.036823" id="Fill-33" fill="#E8364B" mask="url(#mask-22)"></path>
                    </g>
                    <g id="Group-38">
                        <mask id="mask-24" fill="white">
                            <use xlink:href="#path-23"></use>
                        </mask>
                        <g id="Clip-37"></g>
                        <path d="M107.685613,100.890715 L107.383473,100.5416 C108.034729,99.7793097 109.201652,99.6234353 110.260743,99.2604401 C110.498826,99.1782324 110.724096,99.1013628 110.919473,99.0276961 C111.506671,98.8066961 112.193159,98.5066913 112.855091,98.2152275 C113.457236,97.9515222 114.079666,97.6782082 114.619888,97.4700198 C115.858343,96.9917203 117.071173,96.4856623 118.242367,95.9966865 C120.867676,94.9023628 123.346719,93.8688942 126.140714,93.0916575 C126.642502,92.9517976 127.054608,92.7147831 127.490202,92.4617541 C127.847859,92.2546333 128.21726,92.0400391 128.648584,91.8798942 L128.796985,92.2802565 C128.400893,92.4275899 128.046439,92.633643 127.703729,92.8311551 C127.263864,93.0863193 126.809053,93.3500246 126.256019,93.5037638 C123.487647,94.2735271 121.01928,95.3027251 118.406782,96.3917106 C117.232386,96.8806865 116.018487,97.3878121 114.774695,97.8682469 C114.243014,98.0732324 113.623787,98.3444111 113.02698,98.6070488 C112.358642,98.9006478 111.667884,99.2027879 111.070009,99.4280585 C110.868227,99.5027928 110.640821,99.58073 110.399536,99.6650729 C109.389555,100.010986 108.261067,100.217039 107.685613,100.890715" id="Fill-36" fill="#E8364B" mask="url(#mask-24)"></path>
                    </g>
                    <g id="Group-41">
                        <mask id="mask-26" fill="white">
                            <use xlink:href="#path-25"></use>
                        </mask>
                        <g id="Clip-40"></g>
                        <path d="M109.244357,101.561189 L108.925135,101.485387 L108.400927,101.325242 L108.401995,101.325242 C108.899512,101.339121 110.19455,100.806372 111.235492,100.379319 C111.830164,100.134831 112.391739,99.9042227 112.755801,99.7931889 C113.282144,99.633044 113.860801,99.4259232 114.420241,99.2252082 C115.009574,99.0138169 115.621328,98.7949522 116.181835,98.6273338 C118.248772,98.010242 119.997555,97.2084498 121.849898,96.3596816 C123.343516,95.6742614 124.887314,94.9664208 126.62969,94.3535995 C127.226497,94.1443435 127.810492,93.9767251 128.374202,93.8155126 C128.671004,93.7311696 128.977415,93.642556 129.282758,93.549672 L129.407671,93.959643 C129.099125,94.0535947 128.790579,94.1411406 128.491642,94.2265512 C127.934338,94.3856285 127.356748,94.5521792 126.771686,94.7571647 C125.048526,95.3625126 123.512202,96.0671502 122.028193,96.7472324 C120.161971,97.6034739 118.398241,98.411672 116.304613,99.0373048 C115.754782,99.2017203 115.149434,99.4184498 114.563304,99.6277058 C113.999594,99.830556 113.416666,100.038744 112.880714,100.20316 C112.535869,100.30672 111.982835,100.534126 111.397772,100.774343 C110.208429,101.263319 109.832623,101.577203 109.244357,101.561189" id="Fill-39" fill="#E8364B" mask="url(#mask-26)"></path>
                    </g>
                    <g id="Group-44" transform="translate(0.980087, 0.042010)">
                        <mask id="mask-28" fill="white">
                            <use xlink:href="#path-27"></use>
                        </mask>
                        <g id="Clip-43"></g>
                        <path d="M132.732173,134.482343 C130.925738,131.43959 127.040622,130.363416 123.92527,132.038532 L92.6799266,145.381807 C92.1300957,145.615619 91.5375594,145.736261 90.939685,145.734126 L52.2091681,145.734126 C49.7760329,145.734126 47.8051826,143.763276 47.8051826,141.331208 C47.8051826,138.898073 49.7760329,136.927223 52.2091681,136.927223 L69.8240425,136.927223 C77.121313,136.927223 83.0349314,131.012537 83.0349314,123.715266 L46.3959072,123.715266 C40.3232116,123.719537 34.5804145,126.483638 30.7849797,131.223928 L7.00345797,150.755203 L22.5492599,179.248189 L92.350028,162.050759 C94.9347671,161.453952 97.4351633,160.537923 99.791429,159.320822 L130.619328,143.532667 C133.686637,141.606657 134.628289,137.569938 132.732173,134.482343" id="Fill-42" fill="#F6C8A3" mask="url(#mask-28)"></path>
                    </g>
                </g>
                <path d="M2,111.000534 C2,50.8020166 50.8007094,2 111,2 C171.198222,2 220,50.8020166 220,111.000534 C220,171.199051 171.198222,220 111,220 C50.8007094,220 2,171.199051 2,111.000534 Z" id="Stroke-46" stroke="#E9364B" stroke-width="5"></path>
            </g>
        </g>
    </g>
</svg>