<svg height="155" viewBox="0 0 155 155" width="155" xmlns="http://www.w3.org/2000/svg" xmlns:xlink="http://www.w3.org/1999/xlink"><mask id="a" fill="#fff"><path d="m0 155h155v-155h-155z" fill="#fff" fill-rule="evenodd"/></mask><g fill="none" fill-rule="evenodd"><path d="m154 77.5c0 42.250185-34.249982 76.5-76.5003727 76.5-42.2496456 0-76.4996273-34.249815-76.4996273-76.5 0-42.2494397 34.2499817-76.5 76.4996273-76.5 42.2503907 0 76.5003727 34.2505603 76.5003727 76.5" fill="#fff"/><path d="m77.3866451 99.500847-31.4053092 11.022858c-4.3674962 1.533569-9.2041216-.760429-10.7478056-5.097193l-15.7538597-44.2551811c-1.544437-4.336764.7658179-9.1386085 5.133314-10.6721779l31.4053092-11.0228576c4.3674961-1.5335695 9.2041215.7604291 10.7478055 5.097193l15.7546128 44.2551807c1.5436839 4.3360162-.7665709 9.1386085-5.134067 10.6721779" fill="#e8364b"/><path d="m72.5121146 97.1210299-30.4424903 10.8789701-18.0696243-51.6767869 37.2816999-13.3232131 15.7183001 44.9521344z" fill="#fff"/><path d="m50.5885896 47.5891324-15.451818 5.2939641c-1.0978943.3762993-2.3135559-.1863086-2.7018078-1.2504035l-1.314434-3.6039311c-.3882519-1.0640949.1929862-2.2423314 1.2908806-2.6178943l15.451818-5.2939641c1.0978943-.3762993 2.3135559.1863086 2.7018078 1.2504035l1.314434 3.6031947c.3882519 1.0640949-.1929862 2.2423314-1.2908806 2.6186307" fill="#d82745"/><path d="m72.3998494 96-2.3998494-6.5954143 7-2.4045857z" fill="#ffd8dd"/><path d="m50.5577717 87 3.4422283 9.5583195-9.5577717 3.4416805-3.4422283-9.5575744z" stroke="#ffa2ab" stroke-linecap="round" stroke-linejoin="round" stroke-width="1.5"/><path d="m57.789886 67.9994855-9.789886 21.9613975.5324017 4.4929778c.0539407.4539556.5373053.6935023.9015802.4480409l3.6189303-2.4316939 9.789886-21.9613975c.3873923-.8694655.0343259-1.9060222-.7901961-2.314878l-2.0693613-1.0276846c-.8238215-.4095951-1.8059625-.0362277-2.1933548.8332378" fill="#e8364b"/><path d="m63.1527997 72c-.1206727 0-.242817-.0245865-.3590748-.0772717l-5.30739-2.3834814c-.4230902-.1903695-.6040992-.6715616-.4061666-1.0754819.2001401-.4039204.7041692-.5767281 1.1257877-.3863586l5.3073901 2.3834814c.4230901.1903694.6048349.6715615.4061665 1.0747794-.1442185.2929301-.4488434.4643328-.7667129.4643328" fill="#ffd8dd"/><g stroke="#ffa2ab" stroke-linecap="round" stroke-linejoin="round" stroke-width="1.5"><path d="m43 66.5577717-9.5577717 3.4422283-3.4422283-9.5577717 9.5577717-3.4422283z"/><path d="m49 81.5585167-9.5583195 3.4414833-3.4416805-9.5577717 9.5583195-3.4422283z"/><path d="m39 77.6529757 3.4168896 2.3470243 2.5831104-8"/><path d="m34 62.6529757 3.4176538 2.3470243 2.5823462-8"/><path d="m47 59 12-4"/><path d="m59 90 12-4"/></g><path d="m128.769178 88-29.769178-7.2302765 8.231572-33.7697235 29.768428 7.2302765z" fill="#ffd8dd"/><path d="m127.834736 88-29.834736-7.3162976.1652644-.6837024 29.8347356 7.3162976z" fill="#ffa2ab"/><path d="m127.129208 81-24.129208-5.8706468 5.87005-24.1293532 24.12995 5.8706468z" fill="#9e223e"/><path d="m110 125.005446-30.8673971.994554-1.1326029-35.0046917 30.868153-.9953083z" fill="#ffd8dd"/><path d="m110 124.82599-30.9772522 1.17401-.0227478-.82599 30.97801-1.17401z" fill="#ffa2ab"/><path d="m107 118.186935-25.1869348.813065-.8130652-25.1869348 25.187688-.8130652z" fill="#e8364b"/><path d="m86 67h31v-35h-31z" fill="#ffd8dd" mask="url(#a)"/><path d="m86 66.9645h31v-.929h-31z" fill="#ffa2ab" mask="url(#a)"/><path d="m89 60h25v-25h-25z" fill="#e8364b" mask="url(#a)"/><path d="m2 77.9996276c0-41.9732782 34.0261827-75.9996276 76-75.9996276 41.973073 0 76 34.0263494 76 75.9996276 0 41.9732784-34.026927 76.0003724-76 76.0003724-41.9738173 0-76-34.027094-76-76.0003724z" mask="url(#a)" stroke="#ffd8dd" stroke-width="5"/></g></svg>