<svg height="159" viewBox="0 0 159 159" width="159" xmlns="http://www.w3.org/2000/svg"><g fill="none" fill-rule="evenodd" transform="translate(3 2)"><path d="m155 76.4996273c0 42.2503907-34.47442 76.5003727-77 76.5003727-42.5263302 0-77-34.249982-77-76.5003727 0-42.2496456 34.4736698-76.4996273 77-76.4996273 42.52558 0 77 34.2499817 77 76.4996273" fill="#fff"/><path d="m64 73.5312845 8.0607039 4.4687155 12.9392961-5" stroke="#9e223e" stroke-linecap="round" stroke-linejoin="round" stroke-width="2.2"/><path d="m120.759179 71c-.274662 0-.540789-.1527821-.675017-.4181821-.191642-.3788052-.045001-.8434519.328198-1.037186l10.48215-5.4592053c.373198-.1945216.830192-.0456771 1.021835.3331281.190866.3780177.044225.8426644-.328974 1.0363984l-10.48215 5.4599929c-.110951.0574902-.22966.085054-.346042.085054" fill="#9e223e"/><path d="m130.757951 66c-.148968 0-.299488-.0433244-.431387-.1322534-.344488-.2333437-.429834-.6969907-.191641-1.034465l2.482024-3.5123164c.23897-.3382343.711478-.4226028 1.055966-.1884991.344489.2333437.430611.6969907.192417 1.0337049l-2.4828 3.5130765c-.147416.2090212-.384058.3207525-.624579.3207525" fill="#9e223e"/><path d="m135.330049 68c-.068488 0-.138347-.0129825-.20752-.0397589l-3.660036-1.4126586c-.352032-.1363163-.5438-.5834013-.429424-.9996528.114376-.4170629.491749-.6442567.843781-.5087518l3.66072 1.4126586c.351347.1363163.5438.5842126.429424.9996527-.092459.3351109-.354771.5485108-.636945.5485108" fill="#9e223e"/><path d="m132.703515 66c-.255152 0-.501679-.1286808-.626021-.3528772-.176809-.3190488-.040968-.7097343.304745-.8735701l3.594408-1.7020356c.344994-.1631725.769049-.0378083.945859.2812405.176809.3183855.040968.7097342-.304745.8729068l-3.594408 1.7026989c-.102061.0484211-.212028.0716367-.319838.0716367" fill="#9e223e"/><path d="m130 64-10 5" fill="#e8364b"/><path d="m119.876905 70c-.317804 0-.624989-.1733973-.77972-.4755175-.221476-.430086-.051577-.9578498.379241-1.1781932l10.246332-5.2496226c.431577-.2203434.95948-.0514892 1.180198.3793539.221477.4293287.050819.9570926-.379241 1.1774359l-10.247849 5.2496227c-.127425.0658759-.263952.0969208-.398961.0969208" fill="#e8364b"/><path d="m132 61-2 3" fill="#e8364b"/><path d="m129.838105 65c-.165496 0-.330991-.0475982-.476889-.1478427-.381076-.2617899-.475437-.7810424-.211951-1.1589429l2.322021-3.3340341c.263487-.3779005.786831-.4730968 1.16718-.211307.381076.2625111.476163.7810424.211951 1.1603853l-2.322747 3.3333129c-.161866.2329425-.423901.3584285-.689565.3584285" fill="#e8364b"/><path d="m135 66-4-1" fill="#e8364b"/><path d="m135.094215 67c-.092469 0-.187289-.014064-.280542-.0429323l-4.188533-1.28871c-.475667-.1465621-.735834-.6291807-.57989-1.0784897.154376-.4485687.665307-.6935791 1.140974-.5477572l4.187749 1.28871c.47645.1458218.735834.6291806.581458 1.0784896-.125382.3604835-.480369.5906896-.861216.5906896" fill="#e8364b"/><path d="m135 62-4 2" fill="#e8364b"/><path d="m131.790915 65c-.287185 0-.56343-.187802-.703603-.5150203-.198979-.4649944-.046497-1.0366013.341887-1.2760693l3.420238-2.1043662c.3877-.2386479.863607-.0549464 1.063269.4108681.198979.4649944.046497 1.0366013-.342571 1.2760693l-3.419554 2.1043662c-.115558.0705283-.238638.1041522-.359666.1041522" fill="#e8364b"/><path d="m45.607488 91h-3.214976c-10.1155784 0-18.392512-8.0701631-18.392512-17.933039v-3.1346609c0-9.8628759 8.2769336-17.9323001 18.392512-17.9323001h3.214976c10.1155784 0 18.392512 8.0694242 18.392512 17.9323001v3.1346609c0 9.8628759-8.2769336 17.933039-18.392512 17.933039" fill="#9e223e"/><path d="m47.6071395 91h-3.2150369c-10.1157701 0-18.3921026-8.0701631-18.3921026-17.933039v-3.1346609c0-9.8628759 8.2763325-17.9323001 18.3921026-17.9323001h3.2150369c10.116528 0 18.3928605 8.0694242 18.3928605 17.9323001v3.1346609c0 9.8628759-8.2763325 17.933039-18.3928605 17.933039" fill="#e8364b"/><path d="m103.607488 91h-3.214976c-10.1163363 0-18.392512-8.0701631-18.392512-17.933039v-3.1346609c0-9.8628759 8.2761757-17.9323001 18.392512-17.9323001h3.214976c10.115578 0 18.392512 8.0694242 18.392512 17.9323001v3.1346609c0 9.8628759-8.276934 17.933039-18.392512 17.933039" fill="#9e223e"/><path d="m46.2376124 85.4700198-.2379938.1106305-.237231-.1106305c-2.1343165-.9994127-3.9330007-2.41369-5.3533357-4.2032143.0022884-.0762454-.0259352-.1577233-.0953501-.2459288-1.1274195-1.44343-2.0092172-3.1290512-2.6194578-5.0090234-1.0351206-3.188104-.9344864-5.8200652-.9298541-5.9306957l.0183072-.4200972.4668341-.0470928c2.49207-.2504138 4.6340146-1.161621 5.9917999-1.8814672 1.4538982-.7706765 2.3623939-1.5069678 2.4020595-1.5391105l.3569908-.295264.3585164.2975065c.0961128.0777404.9763849.7826366 2.3997711 1.536868 1.3570225.7198462 3.4982043 1.6310534 5.9917999 1.8814672l.4660713.0470928.0183072.4200972c.0053396.1106305.1060293 2.7425917-.9290913 5.9306957-.6102406 1.8799722-1.4920383 3.5655934-2.6202206 5.0090234-.0701777.0897005-.0991641.1726734-.0991641.2519088-1.4195722 1.7857868-3.2167308 3.1985691-5.3487589 4.1972343m11.7623876-8.8526884c0-2.903305-.2631663-5.5412462-.7894988-7.8592557-1.5271271-6.7252923-5.2671392-10.7580757-11.2108826-10.7580757-5.8750914 0-9.5983218 3.9415879-11.1567238 10.530087-.5621841 2.3733248-.8428948 5.0890064-.8428948 8.0872444 0 1.3193443.0724661 2.608041.2112958 3.85712.01907-.004485.0366144-.0097176.0556845-.0149501-.0007628.0127076-.0030512.0261626-.0030512.0396177 0 1.4673501 4.7736071 1.743179 5.9063662 1.0786481 1.4462702 1.7977468 3.2686012 3.2232367 5.4258017 4.2331144l.4035216.1891185.4050472-.1891185c2.1472841-1.0053927 3.9635127-2.4234075 5.4067317-4.2114368 1.0770747.7019061 5.6416744.5539004 5.9384039-.8087992.0213584-.096428.0358516-.194351.0358516-.2915265v-.0007475c.1403553-1.256554.214347-2.5534732.214347-3.8810401" fill="#fff"/><g fill="#e8364b"><path d="m37.5 89v12"/><path d="m36.9995673 102c-.5521419 0-.9995673-.374346-.9995673-.836304v-11.3273921c0-.4619584.4474254-.8363039.9995673-.8363039.5530073 0 1.0004327.3743455 1.0004327.8363039v11.3273921c0 .461958-.4474254.836304-1.0004327.836304"/><path d="m53.5 89v12"/><path d="m53 102c-.552381 0-1-.374346-1-.836304v-11.3273921c0-.4619584.447619-.8363039 1-.8363039.5532468 0 1 .3743455 1 .8363039v11.3273921c0 .461958-.4467532.836304-1 .836304"/><path d="m95.5 89v12"/><path d="m95.9995673 102c-.5521419 0-.9995673-.374346-.9995673-.836304v-11.3273921c0-.4619584.4474254-.8363039.9995673-.8363039.5530073 0 1.0004327.3743455 1.0004327.8363039v11.3273921c0 .461958-.4474254.836304-1.0004327.836304"/><path d="m111.5 87v14"/><path d="m112 102c-.552381 0-1-.460915-1-1.029703v-13.9413484c0-.5680339.447619-1.0289486 1-1.0289486.553247 0 1 .4609147 1 1.0289486v13.9413484c0 .568788-.446753 1.029703-1 1.029703"/><path d="m105.607139 91h-3.215036c-10.1157705 0-18.392103-8.0701631-18.392103-17.933039v-3.1346609c0-9.8628759 8.2763325-17.9323001 18.392103-17.9323001h3.215036c10.116529 0 18.392861 8.0694242 18.392861 17.9323001v3.1346609c0 9.8628759-8.276332 17.933039-18.392861 17.933039"/></g><path d="m114.012253 65.1960093c-.907585-1.2308988-2.351403-1.9363486-4.419835-2.1676688-.168594-.0206809-.337931-.0283405-.513952-.0283405-1.837452 0-3.917767.9375359-5.07713 2.7061392-1.166046-1.7686033-3.246362-2.7061392-5.077129-2.7061392-.1767637 0-.352042.0076596-.5154371.0283405-2.0662045.2313202-3.5100225.93677-4.4198358 2.1600092-.8934737 1.2171116-1.1853567 2.8869059-.860052 4.9626595.4872143 3.0492895 4.4332044 6.8714334 7.5978689 9.9482976.915013.8877485 1.735701 1.6835816 2.271934 2.280265 0 0 .540689.6204282 1.049442.6204282.502068 0 1.031617-.6280878 1.031617-.6280878.528805-.5943855 1.347266-1.3994102 2.263764-2.2940523 3.137184-3.0669067 7.041583-6.8852208 7.523598-9.9268507.331989-2.0757536.040107-3.7378883-.854853-4.9549999" fill="#fff"/><path d="m64 71.5313577 8.0607039 4.4686423 12.9392961-5" stroke="#e7364b" stroke-linecap="round" stroke-linejoin="round" stroke-width="2.2"/><path d="m0 77.5003748c0-42.2494182 34.250207-76.5003748 76.5003748-76.5003748 42.2494182 0 76.4996252 34.2509566 76.4996252 76.5003748s-34.250207 76.4996252-76.4996252 76.4996252c-42.2501678 0-76.5003748-34.250207-76.5003748-76.4996252z" stroke="#ff9ca8" stroke-width="5"/></g></svg>