<?xml version="1.0" encoding="UTF-8"?>
<svg width="158px" height="157px" viewBox="0 0 158 157" version="1.1" xmlns="http://www.w3.org/2000/svg" xmlns:xlink="http://www.w3.org/1999/xlink">
    <title>Group 135</title>
    <defs>
        <path d="M0.629275362,77.5255825 C0.629275362,120.170146 35.2544928,154.73966 77.966087,154.73966 L77.966087,154.73966 C120.678435,154.73966 155.302899,120.170146 155.302899,77.5255825 L155.302899,77.5255825 C155.302899,34.8817718 120.678435,0.311504854 77.966087,0.311504854 L77.966087,0.311504854 C35.2544928,0.311504854 0.629275362,34.8817718 0.629275362,77.5255825 L0.629275362,77.5255825 Z" id="path-1"></path>
    </defs>
    <g id="Page-1" stroke="none" stroke-width="1" fill="none" fill-rule="evenodd">
        <g id="ORGANISER-UNE-COLLECTE" transform="translate(-431.000000, -913.000000)">
            <g id="Group-135" transform="translate(432.000000, 913.000000)">
                <g id="Group-129">
                    <path d="M155.302823,77.5999223 C155.302823,120.243733 120.678359,154.814 77.9660116,154.814 C35.2544174,154.814 0.629953623,120.243733 0.629953623,77.5999223 C0.629953623,34.9561117 35.2544174,0.38584466 77.9660116,0.38584466 C120.678359,0.38584466 155.302823,34.9561117 155.302823,77.5999223" id="Fill-1" fill="#FFFFFF"></path>
                    <path d="M121.370638,40.3885607 C121.370638,38.1982451 123.149188,36.422517 125.342986,36.422517 C127.536783,36.422517 129.315333,38.1982451 129.315333,40.3885607 C129.315333,42.5788762 127.536783,44.3546044 125.342986,44.3546044 C123.149188,44.3546044 121.370638,42.5788762 121.370638,40.3885607 M119.179101,39.1530752 L119.179101,41.5977112 C119.179101,41.8324684 119.371275,42.0243374 119.605652,42.0243374 L120.388667,42.0243374 C120.467043,42.2598471 120.563507,42.4870801 120.672029,42.7067888 L120.11887,43.2598228 C119.952319,43.4253568 119.952319,43.696983 120.11887,43.862517 L121.849942,45.5915947 C122.015739,45.7571286 122.287797,45.7571286 122.453594,45.5915947 L123.003739,45.0430752 C123.224551,45.153682 123.453652,45.2507451 123.691797,45.32975 L123.691797,46.1032451 C123.691797,46.3380024 123.883971,46.5298714 124.118348,46.5298714 L126.567623,46.5298714 C126.802,46.5298714 126.994174,46.3380024 126.994174,46.1032451 L126.994174,45.32975 C127.231565,45.2507451 127.46142,45.153682 127.682232,45.0430752 L128.231623,45.5915947 C128.398174,45.7571286 128.670232,45.7571286 128.836029,45.5915947 L130.567101,43.862517 C130.733652,43.696983 130.733652,43.4253568 130.567101,43.2598228 L130.013942,42.7067888 C130.122464,42.4870801 130.218928,42.2598471 130.297304,42.0243374 L131.080319,42.0243374 C131.314696,42.0243374 131.50687,41.8324684 131.50687,41.5977112 L131.50687,39.1530752 C131.50687,38.918318 131.314696,38.726449 131.080319,38.726449 L130.287507,38.726449 C130.20913,38.493949 130.114174,38.2697257 130.004899,38.0530267 L130.567101,37.4909636 C130.733652,37.3254296 130.733652,37.0538034 130.567101,36.8882694 L128.836029,35.1591917 C128.670232,34.9936578 128.398174,34.9936578 128.231623,35.1591917 L127.664899,35.7257694 C127.448609,35.6181723 127.22629,35.5241189 126.994174,35.4473714 L126.994174,34.6475413 C126.994174,34.412784 126.802,34.220915 126.567623,34.220915 L124.118348,34.220915 C123.883971,34.220915 123.691797,34.412784 123.691797,34.6475413 L123.691797,35.4473714 C123.459681,35.5241189 123.237362,35.6181723 123.021072,35.7257694 L122.453594,35.1591917 C122.287797,34.9936578 122.015739,34.9936578 121.849942,35.1591917 L120.11887,36.8882694 C119.952319,37.0538034 119.952319,37.3254296 120.11887,37.4909636 L120.681072,38.0530267 C120.571797,38.2697257 120.476841,38.493949 120.398464,38.726449 L119.605652,38.726449 C119.371275,38.726449 119.179101,38.918318 119.179101,39.1530752" id="Fill-3" fill="#E8364B"></path>
                    <path d="M125.342609,37.7429515 C126.806145,37.7429515 127.993101,38.9272718 127.993101,40.3884854 C127.993101,41.849699 126.806145,43.0340194 125.342609,43.0340194 C123.879826,43.0340194 122.69287,41.849699 122.69287,40.3884854 C122.69287,38.9272718 123.879826,37.7429515 125.342609,37.7429515" id="Fill-5" fill="#E8364B"></path>
                    <path d="M105.794075,47.5976408 C105.794075,45.0401408 107.871061,42.9664515 110.432626,42.9664515 C112.994191,42.9664515 115.071177,45.0401408 115.071177,47.5976408 C115.071177,50.1551408 112.994191,52.2288301 110.432626,52.2288301 C107.871061,52.2288301 105.794075,50.1551408 105.794075,47.5976408 M101.600162,46.8662816 L101.600162,48.3748981 C101.600162,48.6608204 101.833786,48.8948252 102.120916,48.8948252 L103.757032,48.8948252 C103.814307,49.1912816 103.893438,49.4787087 103.988394,49.7601165 L102.555003,50.5599466 C102.3048,50.6998981 102.215119,51.0181748 102.355293,51.2679806 L103.092336,52.5839757 C103.23251,52.8337816 103.551293,52.9240728 103.801496,52.7841214 L105.240916,51.9805291 C105.445148,52.2220583 105.668974,52.4462816 105.905612,52.6577136 L105.05251,54.0730291 C104.904046,54.3183204 104.98393,54.6396068 105.229612,54.7870825 L106.523583,55.5650922 C106.769264,55.712568 107.091814,55.6328107 107.238771,55.3875194 L108.094887,53.9691942 C108.437032,54.0940971 108.790481,54.1964272 109.155988,54.2656505 L109.155988,55.9194854 C109.155988,56.2054078 109.390365,56.4394126 109.677496,56.4394126 L111.187757,56.4394126 C111.474133,56.4394126 111.709264,56.2054078 111.709264,55.9194854 L111.709264,54.2656505 C112.015235,54.2077136 112.312916,54.1279563 112.603061,54.0301408 L113.419988,55.4687816 C113.56167,55.717835 113.880452,55.8058689 114.130655,55.665165 L115.444974,54.921767 C115.694423,54.7803107 115.782597,54.4612816 115.640916,54.2122282 L114.826249,52.7781019 C115.059119,52.5817184 115.274655,52.3665243 115.478887,52.1415485 L116.894945,52.9925437 C117.14138,53.1400194 117.462423,53.0602621 117.610887,52.8149709 L118.38938,51.5230534 C118.53709,51.2785146 118.457959,50.9564757 118.212278,50.809 L116.803003,49.9625194 C116.931119,49.6179078 117.036626,49.2627621 117.10822,48.8948252 L118.744336,48.8948252 C119.030713,48.8948252 119.265843,48.6608204 119.265843,48.3748981 L119.265843,46.8662816 C119.265843,46.5803592 119.030713,46.3463544 118.744336,46.3463544 L117.115003,46.3463544 C117.059235,46.0476408 116.98538,45.7572039 116.89193,45.4735388 L118.309496,44.6819854 C118.559699,44.5412816 118.650133,44.2230049 118.509959,43.973199 L117.772916,42.6572039 C117.632742,42.4073981 117.313206,42.3171068 117.063003,42.4570583 L115.652974,43.2448495 C115.445728,42.9980534 115.21738,42.7693155 114.977728,42.5541214 L115.812742,41.1681505 C115.960452,40.9228592 115.881322,40.6015728 115.635641,40.4540971 L114.34167,39.6760874 C114.095988,39.5286117 113.774191,39.6083689 113.626481,39.8536602 L112.793728,41.2343641 C112.444046,41.1049466 112.083061,40.9996068 111.709264,40.9288786 L111.709264,39.3216942 C111.709264,39.0357718 111.474133,38.801767 111.187757,38.801767 L109.677496,38.801767 C109.390365,38.801767 109.155988,39.0357718 109.155988,39.3216942 L109.155988,40.9288786 C108.842481,40.9883204 108.537264,41.0718398 108.239583,41.172665 L107.44451,39.7723981 C107.303583,39.5233447 106.984046,39.4353107 106.734597,39.5760146 L105.421032,40.3194126 C105.171583,40.4608689 105.083409,40.7798981 105.224336,41.0289515 L106.020916,42.4329806 C105.785032,42.6338786 105.565728,42.852835 105.359235,43.0838301 L103.970307,42.2486359 C103.724626,42.1011602 103.402075,42.1809175 103.254365,42.4262087 L102.475872,43.7181262 C102.327409,43.962665 102.408046,44.2847039 102.652974,44.4321796 L104.048684,45.2703835 C103.921322,45.6172524 103.819583,45.9754078 103.749496,46.3463544 L102.120916,46.3463544 C101.833786,46.3463544 101.600162,46.5803592 101.600162,46.8662816" id="Fill-7" fill="#E8364B"></path>
                    <path d="M110.432777,45.9766869 C111.328835,45.9766869 112.055328,46.7020267 112.055328,47.597415 C112.055328,48.4928034 111.328835,49.2181432 110.432777,49.2181432 C109.536719,49.2181432 108.809472,48.4928034 108.809472,47.597415 C108.809472,46.7020267 109.536719,45.9766869 110.432777,45.9766869" id="Fill-9" fill="#E8364B"></path>
                    <path d="M113.409061,34.6983301 C113.409061,33.5117524 114.372191,32.5493981 115.560655,32.5493981 C116.750626,32.5493981 117.713757,33.5117524 117.713757,34.6983301 C117.713757,35.8856602 116.750626,36.8472621 115.560655,36.8472621 C114.372191,36.8472621 113.409061,35.8856602 113.409061,34.6983301 M111.462452,34.3589854 L111.462452,35.0587427 C111.462452,35.1919223 111.571728,35.3002718 111.703612,35.3002718 L112.463264,35.3002718 C112.489641,35.437966 112.526568,35.5711456 112.571032,35.7013155 L111.906336,36.0730146 C111.790278,36.1377233 111.748075,36.2859515 111.812887,36.4018252 L112.155032,37.0120437 C112.219843,37.1279175 112.368307,37.1700534 112.483612,37.1053447 L113.151322,36.7321408 C113.247032,36.8450049 113.351032,36.9488398 113.460307,37.0466553 L113.064655,37.7035243 C112.995322,37.8171408 113.033003,37.9661214 113.1468,38.0345922 L113.747438,38.3957573 C113.861235,38.4642282 114.010452,38.4273592 114.079786,38.3137427 L114.476191,37.6553689 C114.635206,37.7133058 114.799496,37.7607087 114.968307,37.7930631 L114.968307,38.5597864 C114.968307,38.692966 115.077583,38.8013155 115.210974,38.8013155 L115.91109,38.8013155 C116.044481,38.8013155 116.153757,38.692966 116.153757,38.5597864 L116.153757,37.7930631 C116.295438,37.7659757 116.434104,37.7283544 116.568249,37.6832087 L116.947322,38.3506117 C117.012887,38.4664854 117.161351,38.5071165 117.277409,38.4424078 L117.886336,38.0970437 C118.003148,38.0315825 118.04309,37.8833544 117.977525,37.768233 L117.600713,37.102335 C117.707728,37.0112913 117.807959,36.9112184 117.902916,36.8066311 L118.560075,37.2024078 C118.673872,37.2701262 118.823843,37.2332573 118.89167,37.1196408 L119.253409,36.5199563 C119.322742,36.4063398 119.285061,36.2573592 119.171264,36.1888883 L118.517119,35.7953689 C118.576655,35.6358544 118.625641,35.4710728 118.6588,35.3002718 L119.418452,35.3002718 C119.55109,35.3002718 119.660365,35.1919223 119.660365,35.0587427 L119.660365,34.3589854 C119.660365,34.2265583 119.55109,34.1182087 119.418452,34.1182087 L118.662568,34.1182087 C118.636945,33.9790097 118.602278,33.8443252 118.558568,33.7126505 L119.216481,33.345466 C119.332539,33.2807573 119.374742,33.1325291 119.309177,33.0166553 L118.967786,32.4056845 C118.90222,32.2898107 118.75451,32.2484272 118.637699,32.3131359 L117.983554,32.6788155 C117.88709,32.5636942 117.781583,32.4576019 117.670046,32.3582816 L118.058162,31.7149563 C118.126742,31.6013398 118.089814,31.4523592 117.976017,31.3838883 L117.37538,31.0227233 C117.260829,30.9542524 117.111612,30.9911214 117.043032,31.1047379 L116.657177,31.7458058 C116.494394,31.6856117 116.32709,31.6367039 116.153757,31.6043495 L116.153757,30.8579417 C116.153757,30.7255146 116.044481,30.6164126 115.91109,30.6164126 L115.210974,30.6164126 C115.077583,30.6164126 114.968307,30.7255146 114.968307,30.8579417 L114.968307,31.6043495 C114.822858,31.6314369 114.681177,31.6705631 114.544017,31.7172136 L114.175496,31.0671165 C114.109177,30.9519951 113.960713,30.9106117 113.845409,30.9760728 L113.235728,31.3214369 C113.11967,31.3868981 113.078974,31.5343738 113.143786,31.6502476 L113.514568,32.3018495 C113.404539,32.3951505 113.3028,32.4967282 113.206336,32.6035728 L112.561988,32.2160728 C112.448945,32.1476019 112.298974,32.1852233 112.230394,32.2988398 L111.868655,32.8977718 C111.800075,33.0121408 111.837003,33.1611214 111.9508,33.2295922 L112.598916,33.6185971 C112.540133,33.7796165 112.491901,33.9459029 112.460249,34.1182087 L111.703612,34.1182087 C111.571728,34.1182087 111.462452,34.2265583 111.462452,34.3589854" id="Fill-11" fill="#E8364B"></path>
                    <path d="M114.817658,34.6983301 C114.817658,34.2882573 115.150006,33.9556845 115.56073,33.9556845 C115.971455,33.9556845 116.30531,34.2882573 116.30531,34.6983301 C116.30531,35.1084029 115.971455,35.4409757 115.56073,35.4409757 C115.150006,35.4409757 114.817658,35.1084029 114.817658,34.6983301 M114.292383,34.6983301 C114.292383,35.3980874 114.860614,35.9654175 115.56073,35.9654175 C116.262354,35.9654175 116.830586,35.3980874 116.830586,34.6983301 C116.830586,33.9985728 116.262354,33.4312427 115.56073,33.4312427 C114.860614,33.4312427 114.292383,33.9985728 114.292383,34.6983301" id="Fill-13" fill="#E8364B"></path>
                    <path d="M25.9858319,53.6603981 C23.7927884,53.6603981 22.0134841,51.8846699 22.0134841,49.6943544 C22.0134841,47.5040388 23.7927884,45.7283107 25.9858319,45.7283107 C28.179629,45.7283107 29.9581797,47.5040388 29.9581797,49.6943544 C29.9581797,51.8846699 28.179629,53.6603981 25.9858319,53.6603981 M31.7231652,48.0329951 L30.9311072,48.0329951 C30.8519768,47.7997427 30.7570203,47.5755194 30.6484986,47.3588204 L31.2107014,46.7967573 C31.3764986,46.6312233 31.3764986,46.3595971 31.2107014,46.1940631 L29.479629,44.4649854 C29.3130783,44.2994515 29.0417739,44.2994515 28.8752232,44.4649854 L28.3077449,45.0315631 C28.0922087,44.923966 27.8691362,44.8299126 27.6370203,44.753165 L27.6370203,43.953335 C27.6370203,43.7193301 27.4456,43.5267087 27.2104696,43.5267087 L24.7619478,43.5267087 C24.5268174,43.5267087 24.3353971,43.7193301 24.3353971,43.953335 L24.3353971,44.753165 C24.1032812,44.8299126 23.8802087,44.923966 23.6646725,45.0315631 L23.0971942,44.4649854 C22.9306435,44.2994515 22.6593391,44.2994515 22.4927884,44.4649854 L20.7617159,46.1940631 C20.5959188,46.3595971 20.5959188,46.6312233 20.7617159,46.7967573 L21.3239188,47.3588204 C21.2153971,47.5755194 21.1204406,47.7997427 21.0413101,48.0329951 L20.2492522,48.0329951 C20.0141217,48.0329951 19.8219478,48.2241117 19.8219478,48.4588689 L19.8219478,50.9035049 C19.8219478,51.1382621 20.0141217,51.3301311 20.2492522,51.3301311 L21.0322667,51.3301311 C21.1098899,51.5656408 21.2063536,51.7928738 21.315629,52.0125825 L20.7617159,52.5656165 C20.5959188,52.7319029 20.5959188,53.0027767 20.7617159,53.1690631 L22.4927884,54.8973883 C22.6593391,55.0636748 22.9306435,55.0636748 23.0971942,54.8973883 L23.6465855,54.3488689 C23.8673971,54.4602282 24.0964986,54.5565388 24.3353971,54.6355437 L24.3353971,55.4090388 C24.3353971,55.6437961 24.5268174,55.835665 24.7619478,55.835665 L27.2104696,55.835665 C27.4456,55.835665 27.6370203,55.6437961 27.6370203,55.4090388 L27.6370203,54.6355437 C27.8751652,54.5565388 28.1050203,54.4602282 28.3250783,54.3488689 L28.8752232,54.8973883 C29.0417739,55.0636748 29.3130783,55.0636748 29.479629,54.8973883 L31.2107014,53.1690631 C31.3764986,53.0027767 31.3764986,52.7319029 31.2107014,52.5656165 L30.6560348,52.0125825 C30.7660638,51.7928738 30.8625275,51.5656408 30.9401507,51.3301311 L31.7231652,51.3301311 C31.9582957,51.3301311 32.1504696,51.1382621 32.1504696,50.9035049 L32.1504696,48.4588689 C32.1504696,48.2241117 31.9582957,48.0329951 31.7231652,48.0329951" id="Fill-15" fill="#E8364B"></path>
                    <path d="M25.9858319,47.0491214 C24.5230493,47.0491214 23.3360928,48.2334417 23.3360928,49.6946553 C23.3360928,51.1558689 24.5230493,52.3401893 25.9858319,52.3401893 C27.4493681,52.3401893 28.6363246,51.1558689 28.6363246,49.6946553 C28.6363246,48.2334417 27.4493681,47.0491214 25.9858319,47.0491214" id="Fill-17" fill="#E8364B"></path>
                    <path d="M40.896342,61.5347743 C38.3347768,61.5347743 36.2585449,59.461085 36.2585449,56.903585 C36.2585449,54.346085 38.3347768,52.2723956 40.896342,52.2723956 C43.4579072,52.2723956 45.5348928,54.346085 45.5348928,56.903585 C45.5348928,59.461085 43.4579072,61.5347743 40.896342,61.5347743 M49.2080522,55.6522985 L47.5787188,55.6522985 C47.5093855,55.2813519 47.4084,54.9231966 47.2810377,54.5763277 L48.6752406,53.7381238 C48.9209217,53.5906481 49.0015594,53.2693617 48.8538493,53.023318 L48.0746029,51.7321529 C47.9268928,51.4868617 47.604342,51.4071044 47.3586609,51.5545801 L45.9697333,52.3897743 C45.7632406,52.1587791 45.5439362,51.9398228 45.3080522,51.7389248 L46.1046319,50.3348956 C46.246313,50.0858422 46.1573855,49.7668131 45.9079362,49.6253568 L44.594371,48.8819587 C44.3449217,48.7412549 44.0253855,48.8292888 43.8837043,49.0783422 L43.0886319,50.4786092 C42.792458,50.377784 42.486487,50.295017 42.1729797,50.2348228 L42.1729797,48.6283908 C42.1729797,48.341716 41.9386029,48.1077112 41.6514725,48.1077112 L40.1412116,48.1077112 C39.8548348,48.1077112 39.620458,48.341716 39.620458,48.6283908 L39.620458,50.2348228 C39.2466609,50.3063034 38.8849217,50.4108908 38.5352406,50.5403083 L37.7032406,49.1596044 C37.5547768,48.9143131 37.2337333,48.8345558 36.9872986,48.9820316 L35.6940812,49.7600413 C35.4484,49.907517 35.3677623,50.2288034 35.5154725,50.4740947 L36.3519942,51.8600655 C36.1115884,52.0752597 35.8839942,52.3032451 35.6759942,52.5507937 L34.2652116,51.7630024 C34.0150087,51.623051 33.6962261,51.7133422 33.5568058,51.9631481 L32.8190087,53.2791432 C32.6795884,53.528949 32.7692696,53.8479782 33.0194725,53.9871772 L34.4377913,54.779483 C34.344342,55.0623956 34.2697333,55.353585 34.2139652,55.6522985 L32.5846319,55.6522985 C32.2982551,55.6522985 32.0631246,55.8863034 32.0631246,56.1729782 L32.0631246,57.6800898 C32.0631246,57.9667646 32.2982551,58.2007694 32.5846319,58.2007694 L34.2215014,58.2007694 C34.292342,58.5694587 34.3978493,58.9238519 34.5259652,59.2684636 L33.1174435,60.1149442 C32.8717623,60.2624199 32.7918783,60.5837063 32.9395884,60.82975 L33.7188348,62.120915 C33.8665449,62.3662063 34.188342,62.4459636 34.4340232,62.2984879 L35.8508348,61.4474927 C36.054313,61.6732209 36.2698493,61.8869102 36.5019652,62.0832937 L35.6880522,63.5181723 C35.546371,63.7672257 35.6352986,64.0862549 35.8847478,64.2277112 L37.1990667,64.9711092 C37.4477623,65.1118131 37.7680522,65.0237791 37.9089797,64.7747257 L38.7259072,63.336085 C39.0160522,63.4339005 39.3137333,63.5136578 39.620458,63.5723471 L39.620458,65.2254296 C39.620458,65.5113519 39.8548348,65.7453568 40.1412116,65.7453568 L41.6514725,65.7453568 C41.9386029,65.7453568 42.1729797,65.5113519 42.1729797,65.2254296 L42.1729797,63.5723471 C42.5392406,63.5023714 42.8919362,63.4000413 43.2348348,63.2751383 L44.0894435,64.6934636 C44.2379072,64.9387549 44.5597043,65.0185121 44.8053855,64.8710364 L46.0993565,64.0930267 C46.3442841,63.945551 46.4249217,63.6242646 46.2772116,63.3789733 L45.4233565,61.9629053 C45.6599942,61.7522257 45.8838203,61.5280024 46.0888058,61.2864733 L47.5274725,62.0900655 C47.7776754,62.230017 48.0972116,62.1397257 48.2366319,61.8899199 L48.974429,60.5739248 C49.1138493,60.3241189 49.0234145,60.0050898 48.7732116,59.8658908 L47.3413275,59.0660607 C47.4362841,58.7846529 47.5146609,58.4972257 47.5719362,58.2007694 L49.2080522,58.2007694 C49.4951826,58.2007694 49.7295594,57.9667646 49.7295594,57.6800898 L49.7295594,56.1729782 C49.7295594,55.8863034 49.4951826,55.6522985 49.2080522,55.6522985" id="Fill-19" fill="#E8364B"></path>
                    <path d="M40.896342,55.2827816 C40.0002841,55.2827816 39.2737913,56.0081214 39.2737913,56.9035097 C39.2737913,57.7988981 40.0002841,58.5242379 40.896342,58.5242379 C41.7924,58.5242379 42.5196464,57.7988981 42.5196464,56.9035097 C42.5196464,56.0081214 41.7924,55.2827816 40.896342,55.2827816" id="Fill-21" fill="#E8364B"></path>
                    <path d="M35.7681623,46.1533568 C34.5789449,46.1533568 33.6158145,45.1910024 33.6158145,44.0044248 C33.6158145,42.8170947 34.5789449,41.8554927 35.7681623,41.8554927 C36.9566261,41.8554927 37.9197565,42.8170947 37.9197565,44.0044248 C37.9197565,45.1910024 36.9566261,46.1533568 35.7681623,46.1533568 M39.6244522,43.423551 L38.8685681,43.423551 C38.8369159,43.2519976 38.7894377,43.0857112 38.7306551,42.9246917 L39.3780174,42.5356869 C39.4918145,42.467216 39.528742,42.317483 39.4601623,42.2038665 L39.0991768,41.6049345 C39.0298435,41.4905655 38.8806261,41.4536966 38.766829,41.5221675 L38.1217275,41.9096675 C38.0260174,41.8028228 37.9242783,41.7012451 37.8150029,41.6079442 L38.1850319,40.9563422 C38.2505971,40.8404684 38.2091478,40.6929927 38.0938435,40.6267791 L37.4834087,40.2821675 C37.3681043,40.2167063 37.2196406,40.2580898 37.1540754,40.3732112 L36.7855536,41.0233083 C36.6476406,40.9759053 36.5059594,40.9375316 36.3597565,40.9096917 L36.3597565,40.1640364 C36.3597565,40.0316092 36.2519884,39.9225073 36.1185971,39.9225073 L35.4169739,39.9225073 C35.2843362,39.9225073 35.1758145,40.0316092 35.1758145,40.1640364 L35.1758145,40.9096917 C35.0017275,40.9427985 34.8344232,40.9917063 34.6723942,41.0519005 L34.2857855,40.4108325 C34.2172058,40.297216 34.0679884,40.2595947 33.9541913,40.328818 L33.3535536,40.6892306 C33.2397565,40.7584539 33.202829,40.906682 33.2714087,41.021051 L33.658771,41.6643762 C33.5479884,41.764449 33.4417275,41.8697888 33.3452638,41.9841578 L32.6911188,41.6192306 C32.5750609,41.5545218 32.4265971,41.5959053 32.3610319,41.7117791 L32.018887,42.32275 C31.9540754,42.4386238 31.9962783,42.5860995 32.1123362,42.6515607 L32.7702493,43.0187451 C32.7272928,43.1504199 32.6926261,43.2851044 32.6670029,43.423551 L31.9111188,43.423551 C31.7777275,43.423551 31.6692058,43.5326529 31.6692058,43.6650801 L31.6692058,44.3648374 C31.6692058,44.498017 31.7777275,44.6063665 31.9111188,44.6063665 L32.6700174,44.6063665 C32.7031768,44.7771675 32.7521623,44.941949 32.8116986,45.102216 L32.1583072,45.494983 C32.0445101,45.5634539 32.006829,45.7124345 32.0761623,45.826051 L32.4371478,46.4257354 C32.5057275,46.5393519 32.6549449,46.5762209 32.7694957,46.50775 L33.4266551,46.1127257 C33.520858,46.2173131 33.6203362,46.3166335 33.728858,46.4084296 L33.3512928,47.0743277 C33.2849739,47.189449 33.3264232,47.3376772 33.4417275,47.4031383 L34.0521623,47.7485024 C34.1674667,47.8139636 34.3159304,47.7725801 34.3814957,47.6574587 L34.7605681,46.9893034 C34.8954667,47.034449 35.0333797,47.0720704 35.1758145,47.0991578 L35.1758145,47.8658811 C35.1758145,47.9990607 35.2843362,48.1074102 35.4169739,48.1074102 L36.1185971,48.1074102 C36.2519884,48.1074102 36.3597565,47.9990607 36.3597565,47.8658811 L36.3597565,47.0991578 C36.5300754,47.0668034 36.6943652,47.0194005 36.8526261,46.9607112 L37.2497855,47.619085 C37.3183652,47.7334539 37.4675826,47.7703228 37.5813797,47.7018519 L38.1820174,47.3406869 C38.2958145,47.272216 38.332742,47.1232354 38.2649159,47.0096189 L37.8685101,46.35275 C37.9785391,46.254182 38.0817855,46.1503471 38.1774957,46.0382354 L38.8452058,46.4114393 C38.9605101,46.4761481 39.1097275,46.4347646 39.1745391,46.3181383 L39.5166841,45.7079199 C39.5814957,45.5912937 39.5392928,45.443818 39.4232348,45.3791092 L38.7585391,45.0081626 C38.8022493,44.8772403 38.8391768,44.7440607 38.8655536,44.6063665 L39.6244522,44.6063665 C39.7578435,44.6063665 39.8663652,44.498017 39.8663652,44.3648374 L39.8663652,43.6650801 C39.8663652,43.5326529 39.7578435,43.423551 39.6244522,43.423551" id="Fill-23" fill="#E8364B"></path>
                    <path d="M35.7681623,44.7469951 C35.3566841,44.7469951 35.0243362,44.4144223 35.0243362,44.0043495 C35.0243362,43.5942767 35.3566841,43.2617039 35.7681623,43.2617039 C36.178887,43.2617039 36.5112348,43.5942767 36.5112348,44.0043495 C36.5112348,44.4144223 36.178887,44.7469951 35.7681623,44.7469951 M35.7681623,42.7372621 C35.0665391,42.7372621 34.4983072,43.3045922 34.4983072,44.0043495 C34.4983072,44.7041068 35.0665391,45.2714369 35.7681623,45.2714369 C36.4690319,45.2714369 37.0372638,44.7041068 37.0372638,44.0043495 C37.0372638,43.3045922 36.4690319,42.7372621 35.7681623,42.7372621" id="Fill-25" fill="#E8364B"></path>
                    <line x1="89.0671826" y1="25.7603228" x2="90.4402841" y2="25.7603228" id="Stroke-27" stroke="#E7364B" stroke-width="1.2"></line>
                    <path d="M106.462313,25.7603228 C106.462313,31.0611723 102.158371,35.358284 96.8490957,35.358284 C91.5398203,35.358284 87.2358783,31.0611723 87.2358783,25.7603228 C87.2358783,20.4594733 91.5398203,16.1623617 96.8490957,16.1623617 C102.158371,16.1623617 106.462313,20.4594733 106.462313,25.7603228 Z" id="Stroke-29" stroke="#E7364B" stroke-width="1.84"></path>
                    <line x1="96.849171" y1="17.9906092" x2="96.849171" y2="19.3615316" id="Stroke-31" stroke="#E7364B" stroke-width="1.2"></line>
                    <line x1="92.9581391" y1="19.0314417" x2="93.6446899" y2="20.2187718" id="Stroke-33" stroke="#E7364B" stroke-width="1.2"></line>
                    <line x1="90.1092928" y1="21.875466" x2="91.2985101" y2="22.5609272" id="Stroke-35" stroke="#E7364B" stroke-width="1.2"></line>
                    <line x1="90.1092928" y1="29.6451796" x2="91.2985101" y2="28.9597184" id="Stroke-37" stroke="#E7364B" stroke-width="1.2"></line>
                    <line x1="92.9581391" y1="32.4892039" x2="93.6446899" y2="31.3018738" id="Stroke-39" stroke="#E7364B" stroke-width="1.2"></line>
                    <line x1="96.849171" y1="33.5300364" x2="96.849171" y2="32.1591141" id="Stroke-41" stroke="#E7364B" stroke-width="1.2"></line>
                    <line x1="100.740203" y1="32.4892039" x2="100.053652" y2="31.3018738" id="Stroke-43" stroke="#E7364B" stroke-width="1.2"></line>
                    <line x1="103.588371" y1="29.6451796" x2="102.399154" y2="28.9597184" id="Stroke-45" stroke="#E7364B" stroke-width="1.2"></line>
                    <line x1="104.631235" y1="25.7603228" x2="103.258133" y2="25.7603228" id="Stroke-47" stroke="#E7364B" stroke-width="1.2"></line>
                    <line x1="103.588371" y1="21.875466" x2="102.399154" y2="22.5609272" id="Stroke-49" stroke="#E7364B" stroke-width="1.2"></line>
                    <line x1="100.740203" y1="19.0314417" x2="100.053652" y2="20.2187718" id="Stroke-51" stroke="#E7364B" stroke-width="1.2"></line>
                    <polyline id="Stroke-53" stroke="#E7364B" stroke-width="1.2" points="93.6448406 22.5610024 96.8492464 26.6745218 99.5954493 24.3894005"></polyline>
                    <line x1="75.4275826" y1="12.5762937" x2="75.4275826" y2="15.1894733" id="Stroke-55" stroke="#E7364B" stroke-width="1.84"></line>
                    <line x1="72.0628058" y1="20.0414248" x2="73.1841971" y2="20.0414248" id="Stroke-57" stroke="#E7364B" stroke-width="1.2"></line>
                    <line x1="73.9320928" y1="20.0414248" x2="75.0534841" y2="20.0414248" id="Stroke-59" stroke="#E7364B" stroke-width="1.2"></line>
                    <line x1="72.0628058" y1="21.9078204" x2="73.1841971" y2="21.9078204" id="Stroke-61" stroke="#E7364B" stroke-width="1.2"></line>
                    <line x1="73.9320928" y1="21.9078204" x2="75.0534841" y2="21.9078204" id="Stroke-63" stroke="#E7364B" stroke-width="1.2"></line>
                    <line x1="72.0628058" y1="23.7738398" x2="73.1841971" y2="23.7738398" id="Stroke-65" stroke="#E7364B" stroke-width="1.2"></line>
                    <path d="M76.1753275,14.0694102 L78.4188638,14.0694102 C78.6246029,14.0694102 78.7926609,14.236449 78.7926609,14.4426141 L78.7926609,27.133051 C78.7926609,27.339216 78.6246029,27.5062549 78.4188638,27.5062549 L63.0909217,27.5062549 C62.884429,27.5062549 62.7171246,27.339216 62.7171246,27.133051 L62.7171246,14.4426141 C62.7171246,14.236449 62.884429,14.0694102 63.0909217,14.0694102 L65.3337043,14.0694102" id="Stroke-67" stroke="#E7364B" stroke-width="1.84"></path>
                    <line x1="62.7168232" y1="17.055267" x2="78.7923594" y2="17.055267" id="Stroke-69" stroke="#E7364B" stroke-width="1.84"></line>
                    <line x1="66.8293449" y1="14.0694102" x2="74.6798377" y2="14.0694102" id="Stroke-71" stroke="#E7364B" stroke-width="1.84"></line>
                    <line x1="66.0816754" y1="12.5762937" x2="66.0816754" y2="15.1894733" id="Stroke-73" stroke="#E7364B" stroke-width="1.84"></line>
                    <line x1="68.3248348" y1="20.0414248" x2="69.4462261" y2="20.0414248" id="Stroke-75" stroke="#E7364B" stroke-width="1.2"></line>
                    <line x1="70.1941971" y1="20.0414248" x2="71.3155884" y2="20.0414248" id="Stroke-77" stroke="#E7364B" stroke-width="1.2"></line>
                    <line x1="66.4555478" y1="21.9078204" x2="67.5769391" y2="21.9078204" id="Stroke-79" stroke="#E7364B" stroke-width="1.2"></line>
                    <line x1="68.3248348" y1="21.9078204" x2="69.4462261" y2="21.9078204" id="Stroke-81" stroke="#E7364B" stroke-width="1.2"></line>
                    <line x1="70.1941971" y1="21.9078204" x2="71.3155884" y2="21.9078204" id="Stroke-83" stroke="#E7364B" stroke-width="1.2"></line>
                    <line x1="66.4555478" y1="23.7738398" x2="67.5769391" y2="23.7738398" id="Stroke-85" stroke="#E7364B" stroke-width="1.2"></line>
                    <line x1="68.3248348" y1="23.7738398" x2="69.4462261" y2="23.7738398" id="Stroke-87" stroke="#E7364B" stroke-width="1.2"></line>
                    <line x1="70.1941971" y1="23.7738398" x2="71.3155884" y2="23.7738398" id="Stroke-89" stroke="#E7364B" stroke-width="1.2"></line>
                    <path d="M49.1626841,35.7755049 C46.3433797,35.7755049 44.0583942,33.4941456 44.0583942,30.6793155 C44.0583942,27.8644854 46.3433797,25.5831262 49.1626841,25.5831262 C51.9812348,25.5831262 54.2669739,27.8644854 54.2669739,30.6793155 C54.2669739,33.4941456 51.9812348,35.7755049 49.1626841,35.7755049 M49.1626841,23.4123738 C44.888887,23.4123738 41.4116696,26.8840728 41.4116696,31.1510874 C41.4116696,35.2615971 48.4196116,44.1500194 48.7180464,44.526233 C48.8258145,44.6616699 48.9893507,44.7414272 49.1626841,44.7414272 C49.3360174,44.7414272 49.4995536,44.6616699 49.6073217,44.526233 C49.9057565,44.1500194 56.9136986,35.2615971 56.9136986,31.1510874 C56.9136986,26.8840728 53.4364812,23.4123738 49.1626841,23.4123738" id="Fill-91" fill="#E8364B"></path>
                    <path d="M51.4316174,30.6793908 C51.4316174,31.9299248 50.4149797,32.9441966 49.162458,32.9441966 C47.9099362,32.9441966 46.8940522,31.9299248 46.8940522,30.6793908 C46.8940522,29.4281044 47.9099362,28.414585 49.162458,28.414585 C50.4149797,28.414585 51.4316174,29.4281044 51.4316174,30.6793908" id="Fill-93" fill="#E8364B"></path>
                    <path d="M70.3347478,34.2556019 C67.2328348,34.8763544 64.3125449,36.2585631 62.0268058,38.4849951 C57.4809507,42.9137816 56.6097623,49.0505777 56.0905159,54.9985146 C55.5245449,61.4874466 54.8560812,67.9124223 50.6207188,73.2456262 C47.3228638,77.3982718 43.5449507,81.4230049 41.5960812,86.3927864 C38.2319072,94.9697039 38.9508638,105.995019 48.0621681,110.748102 C52.0119072,112.808248 56.5916754,113.458345 61.0757333,113.508757 C68.2449507,113.589267 75.7231536,112.071621 81.2607768,107.651864 C83.6173565,105.770796 85.5436174,103.429995 87.2400232,100.968806 C96.9255884,86.918733 101.197878,68.3984903 96.048371,51.950432 C93.5018783,43.8197039 88.3470957,36.8454563 79.5455304,34.5437816 C76.5845449,33.769534 73.3718493,33.6476408 70.3347478,34.2556019" id="Fill-95" fill="#9E223E"></path>
                    <path d="M91.5929507,81.5956869 L81.3956754,79.1450316 L80.9759072,72.3634053 L69.308313,63.6472888 L68.9827478,78.9193034 C68.9827478,78.9193034 56.7793275,82.3609053 56.6768348,82.4587209 C67.2607188,97.4613665 87.9032116,87.4563422 91.5929507,81.5956869" id="Fill-97" fill="#F5C7A3"></path>
                    <path d="M86.7569507,56.5036699 C86.7569507,56.5036699 87.3598493,54.6647379 88.294342,55.3155874 C89.2288348,55.9671893 89.1052406,63.4643738 86.2550377,63.891 C83.4048348,64.3183786 86.7569507,56.5036699 86.7569507,56.5036699" id="Fill-99" fill="#EEC0BD"></path>
                    <path d="M63.222429,56.5036699 C63.222429,56.5036699 62.6195304,54.6647379 61.6850377,55.3155874 C60.7505449,55.9671893 60.8741391,63.4643738 63.724342,63.891 C66.5745449,64.3183786 63.222429,56.5036699 63.222429,56.5036699" id="Fill-101" fill="#EEC0BD"></path>
                    <path d="M66.3811652,44.1422694 L74.9687014,41.1987743 L83.5562377,44.1422694 L86.8767014,48.8803034 L86.8352522,58.070449 C86.8352522,58.070449 86.763658,62.6647694 86.0861507,64.5315413 C85.4093971,66.3983131 82.7370493,74.5470995 74.9687014,74.9774879 C67.2003536,74.5470995 64.5280058,66.3983131 63.8512522,64.5315413 C63.1737449,62.6647694 63.1021507,58.070449 63.1021507,58.070449 L63.1111942,48.8803034 L66.3811652,44.1422694 Z" id="Fill-103" fill="#F5C7A3"></path>
                    <path d="M77.5383304,65.6007403 C77.4674899,66.9588714 76.3453449,68.0393568 74.9677217,68.0393568 C73.5900986,68.0393568 72.4672,66.9588714 72.397113,65.6007403 L77.5383304,65.6007403 Z" id="Fill-105" fill="#FFFFFF"></path>
                    <path d="M86.8769275,53.6445971 C85.4013333,51.8628495 84.0953043,49.5995485 83.0688696,46.5371699 C83.0688696,46.5371699 80.737913,51.0600097 74.3208116,52.2985049 C74.3208116,52.2985049 75.6170435,51.3835534 76.1008696,50.5220243 C76.1008696,50.5220243 72.8015072,53.0434078 67.4537971,53.1020971 C67.4537971,53.1020971 69.3227826,52.4963932 69.933971,51.6702282 C69.933971,51.6702282 63.473913,52.3188204 62.9825507,54.3458592 L61.7722319,50.808699 L62.7790725,45.6034078 L64.2350725,43.3604223 L69.4923478,39.3221456 L76.1008696,38.0294757 L83.0688696,40.7216602 L85.9695652,42.4447184 L88.5755942,46.8599612 L87.3177971,50.7913932 L86.8769275,53.6445971 Z" id="Fill-107" fill="#9E223E"></path>
                    <path d="M51.519942,84.4224053 C53.0113623,82.8588617 56.9038261,81.9077937 61.8204638,80.705415 C73.0351304,83.7602694 82.505913,82.4758762 87.6810435,80.3419927 C92.5125217,81.2140558 98.0885797,82.3818228 99.5792464,83.9453665 C101.522841,85.9821869 92.5110145,133.444541 92.5110145,133.444541 L57.986029,128.408546 C57.986029,128.408546 49.5771014,86.4592257 51.519942,84.4224053" id="Fill-109" fill="#E8364B"></path>
                    <path d="M82.5406551,53.973784 C79.6979884,53.973784 77.3836116,56.2837354 77.3836116,59.1226432 C77.3836116,61.961551 79.6979884,64.2715024 82.5406551,64.2715024 C85.3840754,64.2715024 87.6976986,61.961551 87.6976986,59.1226432 C87.6976986,56.2837354 85.3840754,53.973784 82.5406551,53.973784 M82.5406551,64.7643422 C79.4251768,64.7643422 76.8899884,62.2339296 76.8899884,59.1226432 C76.8899884,56.0121092 79.4251768,53.4809442 82.5406551,53.4809442 C85.656887,53.4809442 88.1913217,56.0121092 88.1913217,59.1226432 C88.1913217,62.2339296 85.656887,64.7643422 82.5406551,64.7643422" id="Fill-111" fill="#FFFFFF"></path>
                    <path d="M67.7404754,53.973784 C64.8970551,53.973784 62.5826783,56.2837354 62.5826783,59.1226432 C62.5826783,61.961551 64.8970551,64.2715024 67.7404754,64.2715024 C70.583142,64.2715024 72.8975188,61.961551 72.8975188,59.1226432 C72.8975188,56.2837354 70.583142,53.973784 67.7404754,53.973784 M67.7404754,64.7643422 C64.6242435,64.7643422 62.0898087,62.2339296 62.0898087,59.1226432 C62.0898087,56.0121092 64.6242435,53.4809442 67.7404754,53.4809442 C70.8559536,53.4809442 73.391142,56.0121092 73.391142,59.1226432 C73.391142,62.2339296 70.8559536,64.7643422 67.7404754,64.7643422" id="Fill-113" fill="#FFFFFF"></path>
                    <path d="M72.7089623,56.9610704 L72.5672812,56.4892985 C74.3872812,55.9445413 76.0919768,55.9452937 77.6353971,56.4923083 L77.4696,56.9573083 C76.0279188,56.4456578 74.4257159,56.4471626 72.7089623,56.9610704" id="Fill-115" fill="#FFFFFF"></path>
                    <path d="M99.202058,128.386124 C94.4263478,128.906803 73.7408986,128.070857 58.4008986,128.193502 C58.4008986,128.193502 51.3206087,129.138551 50.5948696,122.511925 C50.4562029,117.149376 55.243971,115.179522 57.5892464,115.22241 C59.5667536,115.210371 97.6782319,120.224546 97.6782319,120.224546 L99.202058,128.386124 Z" id="Fill-117" fill="#F5C7A3"></path>
                    <path d="M63.9819304,121.846177 C63.9811768,121.892828 63.9532928,123.523337 63.0783362,125.136541 C61.9539304,127.209478 59.9590899,128.324575 57.1503362,128.450983 C55.5971188,128.520206 54.2240174,127.996517 53.0702203,126.895716 C51.3783362,125.279502 50.5900464,122.793483 50.5892928,121.621201 C50.5410609,119.638556 49.2274957,94.7445024 49.1754957,93.2622209 C49.1521333,92.8777306 48.7293507,84.5318083 55.5277855,83.6552306 C55.8066261,83.6620024 56.9023942,83.722949 58.2280174,84.2240655 C60.6833217,85.1510558 63.9299304,87.5896723 64.2554957,93.995085 C64.826742,105.222803 63.9917275,121.581323 63.9819304,121.846177" id="Fill-119" fill="#F5C7A3"></path>
                    <path d="M55.4690783,82.5861788 C55.4690783,82.5861788 64.7431652,82.5387791 65.3234551,93.9410607 C65.6347014,100.067323 65.0212522,101.974726 64.8381217,110.365041 C59.4353971,111.250648 53.9610783,111.244629 48.5274551,110.620867 C48.1370783,99.419483 48.1061797,93.2992403 48.1061797,93.2992403 C48.1061797,93.2992403 47.4889623,83.5500413 55.4690783,82.5861788" id="Fill-121" fill="#E8364B"></path>
                    <path d="M106.504968,121.005942 C106.50949,121.05184 106.677548,122.674073 106.000794,124.380578 C105.13262,126.572398 103.286243,127.917738 100.512157,128.377471 C98.9785333,128.631791 97.5519246,128.275893 96.275287,127.319558 C94.4017797,125.917034 93.3225913,123.542374 93.1816638,122.379121 C92.8960406,120.416039 88.3373739,94.8891942 88.1075188,93.4227136 C88.0389391,93.0442427 86.6213739,84.8089272 93.2668232,83.1272524 C93.5449101,83.1009175 94.6399246,83.0301893 96.0160406,83.369534 C98.5640406,83.9985631 102.078939,86.0323738 103.167925,92.3535146 C105.078359,103.432252 106.483113,120.74184 106.504968,121.005942" id="Fill-123" fill="#F5C7A3"></path>
                    <path d="M93.0803768,82.0733277 C93.0803768,82.0733277 102.282116,80.9206092 104.221942,92.1724053 C105.264203,98.2181578 104.88287,100.18425 105.704319,108.536944 C100.445536,110.059857 95.0111594,110.706192 89.5413623,110.734784 C87.8148116,99.6605607 87.0513913,93.5877209 87.0513913,93.5877209 C87.0513913,93.5877209 85.2728406,83.981483 93.0803768,82.0733277" id="Fill-125" fill="#E8364B"></path>
                    <path d="M94.1327362,119.038871 C98.7305913,104.450813 103.675867,86.5927063 104.037606,82.5326092 C103.038301,81.729017 102.25378,80.6372451 101.832504,79.3257646 C100.929664,76.520716 101.947055,73.5659345 104.150649,71.8571723 L105.360214,64.5112257 C105.463461,63.8912257 105.99778,63.43375 106.627809,63.4269172 C107.416099,63.4194539 108.028794,64.1094296 107.927055,64.890449 L107.186243,70.5246238 C110.485606,69.9587985 113.783461,71.8789927 114.83778,75.1528034 C115.853664,78.3092354 114.441374,81.6575364 111.639403,83.201517 C111.31233,85.8921966 107.002359,121.22091 106.51778,123.058337 C105.973664,125.338192 102.868736,129.478046 97.6981275,128.006299 C91.4490841,125.652706 94.1327362,119.038871 94.1327362,119.038871" id="Fill-127" fill="#F5C7A3"></path>
                </g>
                <g id="Group-132">
                    <mask id="mask-2" fill="white">
                        <use xlink:href="#path-1"></use>
                    </mask>
                    <g id="Clip-131"></g>
                    <polygon id="Fill-130" fill="#9E223E" mask="url(#mask-2)" points="140.88978 126.940862 13.0941275 126.940862 29.7085043 167.44176 77.9660116 170.801347 123.718475 160.813629 139.281548 142.453653"></polygon>
                </g>
                <path d="M1,78.5 C1,36.2503748 35.4738957,2 78,2 C120.52535,2 155,36.2503748 155,78.5 C155,120.749625 120.52535,155 78,155 C35.4738957,155 1,120.749625 1,78.5 Z" id="Stroke-133" stroke="#E9364B" stroke-width="4"></path>
            </g>
        </g>
    </g>
</svg>