<?xml version="1.0" encoding="UTF-8"?><svg id="Calque_1" xmlns="http://www.w3.org/2000/svg" viewBox="0 0 59.81 42.78"><defs><style>.cls-1{fill:#ff9a00;}</style></defs><circle class="cls-1" cx="29.91" cy="4.21" r="4.21"/><path class="cls-1" d="m40.06,11.87c-2.55-1.51-6.12-2.44-10.15-2.44s-7.61.93-10.15,2.44l1.82,2.67c.34-.19.71-.38,1.11-.55l1.17,9.99c.13,1.08,1.04,1.89,2.13,1.89h.71l.67,14.31c.06,1.36,1.18,2.43,2.54,2.43s2.48-1.07,2.54-2.43l.67-14.31h.71c1.09,0,2-.81,2.13-1.89l1.17-9.99c.4.17.77.36,1.11.55l1.82-2.67Z"/><path class="cls-1" d="m48.51,8.58c2.32,0,4.21-1.88,4.21-4.21S50.83.17,48.51.17s-4.21,1.88-4.21,4.21,1.88,4.21,4.21,4.21Z"/><path class="cls-1" d="m54.89,11.28c-.07-.04-.14-.06-.22-.08-.29-.15-.62-.24-.98-.24h-10.38c-.53,0-1,.2-1.37.51-1.11.73-4.88,3.84-4.61,12.37.03.87.74,1.56,1.61,1.56.02,0,.03,0,.05,0,.89-.03,1.59-.77,1.56-1.66-.1-3.16.41-5.32,1.05-6.79l.84,7.21c.13,1.08,1.04,1.89,2.13,1.89h.71l.67,14.31c.06,1.36,1.18,2.43,2.54,2.43s2.48-1.07,2.54-2.43l.67-14.31h.71c1.09,0,2-.81,2.13-1.89l.87-7.43c.68,1.47,1.25,3.7,1.15,7.02-.03.89.67,1.63,1.56,1.66.02,0,.04,0,.05,0,.87,0,1.58-.69,1.61-1.56.31-9.79-4.7-12.44-4.91-12.55Z"/><path class="cls-1" d="m11.18,8.58c2.32,0,4.21-1.88,4.21-4.21S13.5.17,11.18.17s-4.21,1.88-4.21,4.21,1.88,4.21,4.21,4.21Z"/><path class="cls-1" d="m17.56,11.28c-.07-.04-.14-.06-.22-.08-.29-.15-.62-.24-.98-.24H5.99c-.53,0-1,.2-1.37.51C3.51,12.19-.26,15.3.01,23.83c.03.87.74,1.56,1.61,1.56.02,0,.03,0,.05,0,.89-.03,1.59-.77,1.56-1.66-.1-3.16.41-5.32,1.05-6.79l.84,7.21c.13,1.08,1.04,1.89,2.13,1.89h.71l.67,14.31c.06,1.36,1.18,2.43,2.54,2.43s2.48-1.07,2.54-2.43l.67-14.31h.71c1.09,0,2-.81,2.13-1.89l.87-7.43c.68,1.47,1.25,3.7,1.15,7.02-.03.89.67,1.63,1.56,1.66.02,0,.04,0,.05,0,.87,0,1.58-.69,1.61-1.56.31-9.79-4.7-12.44-4.91-12.55Z"/></svg>