<?xml version="1.0" encoding="UTF-8"?>
<svg width="374px" height="227px" viewBox="0 0 374 227" version="1.1" xmlns="http://www.w3.org/2000/svg" xmlns:xlink="http://www.w3.org/1999/xlink">
    <title>Plan de travail 121</title>
    <g id="Page-1" stroke="none" stroke-width="1" fill="none" fill-rule="evenodd">
        <g id="MOBILISER" transform="translate(-1075.000000, -127.000000)" fill-rule="nonzero">
            <g id="Plan-de-travail-121" transform="translate(1075.000000, 127.000000)">
                <g id="Group" transform="translate(81.000000, 16.000000)">
                    <path d="M41.2919595,191.278776 C41.2919595,191.278776 37.9313745,208.059417 41.2919595,209.179669 C44.6525445,210.297607 58.6557548,210.112441 58.2826139,207.689085 C57.9094731,205.265729 49.0444815,202.657208 49.1348697,201.161995 C49.2252578,199.669096 50.8151622,191.278776 50.8151622,191.278776 L41.2942771,191.278776 L41.2919595,191.278776 Z" id="Path" fill="#77122A"></path>
                    <path d="M25.4693981,190.114547 L34.3761072,190.114547 L34.3761072,203.539059 C34.3761072,203.539059 34.5151659,211.184088 27.3351022,210.996607 C18.5604987,210.769779 17.0656178,210.063835 22.4796362,204.469517 C26.4010913,200.180617 25.4670804,190.112232 25.4670804,190.112232 L25.4693981,190.114547 Z" id="Path" fill="#77122A"></path>
                    <path d="M69.4606151,100.674891 L51.4687381,196.711075 C51.4687381,196.711075 47.7350122,199.761679 39.9268667,196.711075 L42.0382411,102.876049 L69.4606151,100.672577 L69.4606151,100.674891 Z" id="Path" fill="#9E223E"></path>
                    <path d="M44.8379561,103.387569 L35.115436,195.600081 C35.115436,195.600081 32.1187212,198.990927 23.2931295,195.600081 L18.2012638,100.677206 L44.8379561,103.389883 L44.8379561,103.387569 Z" id="Path" fill="#9E223E"></path>
                    <path d="M79.387088,66.8011437 L72.3252241,68.6319695 L72.3252241,105.597984 C72.3252241,105.597984 44.4903094,114.358636 14.10135,102.804297 L15.3227489,52.9276047 C15.3227489,52.9276047 14.956561,39.6789998 20.9175436,36.9940974 C23.1030827,36.0173484 26.0233152,35.0544868 28.8346184,34.2559598 C31.5902981,33.4551182 34.2393662,32.7908363 36.0448115,32.3580115 C37.4562573,32.0200841 38.3392799,31.8302893 38.3392799,31.8302893 L58.2455316,31.1937823 L60.3916708,31.1266597 C60.3916708,31.1266597 62.5517158,31.723819 65.3467955,32.7399158 C70.2764261,34.5036189 77.2154548,37.5542236 77.9200188,40.8895205 C79.0209001,46.1227657 79.387088,66.8034583 79.387088,66.8034583 L79.387088,66.8011437 Z" id="Path" fill="#FF9A00"></path>
                    <rect id="Rectangle" fill="#F7E4DD" x="5.23172317" y="49.8237649" width="75.8912808" height="44.0717479"></rect>
                    <path d="M82.3397676,71.0298651 C82.3397676,71.0298651 73.5327171,69.3055096 73.5327171,71.0298651 C73.5327171,72.7542205 79.0579824,73.6175556 79.0579824,73.6175556 C79.0579824,73.6175556 73.57907,73.226393 73.5327171,74.6961457 C73.4863642,76.1682129 78.6129946,76.6982497 78.6129946,76.6982497 C78.6129946,76.6982497 74.075046,76.6982497 73.9568461,77.9920949 C73.8386462,79.2859401 78.7311945,79.6400695 78.7311945,79.6400695 C78.7311945,79.6400695 74.4296457,80.1099274 74.6057867,81.1121367 C74.7819277,82.114346 80.7011926,83.172105 82.3397676,82.702247 C83.9783425,82.2323891 85.0630003,73.8397544 82.3397676,71.0298651 Z" id="Path" fill="#FFB27D"></path>
                    <path d="M1.66023245,64.7527483 C1.66023245,64.7527483 10.4672829,63.0283929 10.4672829,64.7527483 C10.4672829,66.4771038 4.94201757,67.3404388 4.94201757,67.3404388 C4.94201757,67.3404388 10.42093,66.9492763 10.4672829,68.4190289 C10.5136358,69.8910961 5.38700538,70.4211329 5.38700538,70.4211329 C5.38700538,70.4211329 9.92495401,70.4211329 10.0431539,71.7149781 C10.1613538,73.0088234 5.26880549,73.3629527 5.26880549,73.3629527 C5.26880549,73.3629527 9.57035434,73.8328107 9.39421334,74.8350199 C9.21807233,75.8349146 3.29880736,76.8949882 1.66023245,76.4251303 C0.0216575353,75.9552723 -1.06300026,67.5626376 1.66023245,64.7527483 L1.66023245,64.7527483 Z" id="Path" fill="#FFB27D"></path>
                    <path d="M49.4825164,30.8465966 C49.4825164,30.8465966 57.9743672,23.2802638 61.6316108,25.6272388 C65.2888543,27.9765285 61.3697169,39.3248705 52.6182899,41.2829976 C43.8668629,43.2388102 31.7363098,39.1350756 32.1187212,33.2306048 C32.1187212,33.2306048 31.4558747,26.0207159 49.4825164,30.8465966 L49.4825164,30.8465966 Z" id="Path" fill="#FF9A00"></path>
                    <path d="M53.1420776,25.6272388 L54.7088056,35.0197683 C54.7088056,35.0197683 52.6182899,39.3248705 43.8668629,37.6282899 L42.0382411,26.4095639 L53.1420776,25.6272388 L53.1420776,25.6272388 Z" id="Path" fill="#FFB27D"></path>
                    <path d="M42.9513932,22.3660082 L34.6472717,19.1047775 C34.6472717,19.1047775 28.9574536,8.58273741 34.6472717,3.66890301 C40.3370898,-1.24493139 50.5277742,-1.20095454 55.1004876,3.66890301 C59.6732009,8.53876056 53.8350535,21.8452297 53.8350535,21.8452297 L42.9513932,22.3660082 L42.9513932,22.3660082 Z" id="Path" fill="#9E223E"></path>
                    <path d="M36.9046578,17.4961506 C36.1444703,16.9591701 35.3611063,16.4129314 34.4572248,16.1907325 C33.5533433,15.9685337 32.4895443,16.1444411 31.8962272,16.8596436 C31.2426514,17.6489123 31.3724395,18.8964661 32.0167448,19.690364 C32.6610501,20.4842619 33.7063079,20.8707953 34.7283893,20.9402324 C35.7504706,21.0096695 36.7679167,20.796729 37.771457,20.586103 C37.9360097,19.4982546 37.8062216,18.1280285 36.9046578,17.4938361 L36.9046578,17.4961506 Z" id="Path" fill="#FFB27D"></path>
                    <path d="M54.027418,15.3945201 C54.4422764,14.5612745 54.8710407,13.7095123 55.5616989,13.0845782 C56.252357,12.459644 57.2721208,12.1101437 58.1342847,12.459644 C59.0845191,12.8438628 59.5642715,14.0034629 59.3765423,15.0079867 C59.1864954,16.0125106 58.451802,16.8480707 57.5850028,17.3943095 C56.7182037,17.9405483 55.7216164,18.2368134 54.738935,18.5284493 C54.0760885,17.6489123 53.5383949,16.3805274 54.0297356,15.3968347 L54.027418,15.3945201 Z" id="Path" fill="#FFB27D"></path>
                    <path d="M44.388333,5.7983084 C44.388333,5.7983084 36.2881643,3.58094931 34.9833302,8.66837654 C33.6761785,13.4942572 36.5500581,20.4101956 37.4655278,23.1483332 C38.3809976,25.8887854 42.9513932,32.5408626 49.4825164,30.844282 C56.0136396,29.1477014 55.8838515,20.2782651 55.7517458,16.6235573 C55.6219576,12.9711642 55.3600638,-1.77033902 44.3860154,5.79599383 L44.388333,5.7983084 Z" id="Path" fill="#FFB27D"></path>
                </g>
                <g id="Group" transform="translate(156.000000, 11.000000)">
                    <path d="M113.622423,51.6827304 L115.100863,51.088256 C115.100863,51.088256 118.328444,49.1591055 119.267798,49.6541153 C120.209465,50.146812 115.716301,54.7129307 115.716301,54.7129307 L113.622423,51.6827304 L113.622423,51.6827304 Z" id="Path" fill="#D9935C"></path>
                    <path d="M149.787527,71.1176491 C149.787527,71.1176491 139.299623,93.9690608 131.234141,88.3227104 C123.166345,82.6763599 121.822098,78.5104127 121.822098,78.5104127 L132.895362,64.7750465 L137.95769,64.7750465 L149.78984,71.1176491 L149.787527,71.1176491 Z" id="Path" fill="#D9935C"></path>
                    <path d="M162.801966,199.901165 C162.801966,199.901165 164.157782,209.70421 162.801966,211.820724 C161.446151,213.934925 151.446434,214.705197 149.715803,213.358955 C147.985171,212.012714 154.329277,208.644796 154.329277,206.965464 C154.329277,205.286131 154.713348,199.903478 154.713348,199.903478 L162.799653,199.903478 L162.801966,199.901165 Z" id="Path" fill="#9E223E"></path>
                    <path d="M142.83261,104.738994 L151.150283,201.668396 C151.150283,201.668396 161.649755,204.929909 168.114172,200.18568 L164.87965,149.703929 L169.992878,105.65962 L142.83261,104.736681 L142.83261,104.738994 Z" id="Path" fill="#77122A"></path>
                    <path d="M176.383258,201.670709 C176.383258,201.670709 177.739073,211.473754 176.383258,213.587955 C175.027442,215.702156 165.027725,216.472428 163.297094,215.126187 C161.566462,213.779945 167.910568,210.412028 167.910568,208.732695 C167.910568,207.053363 168.294639,201.670709 168.294639,201.670709 L176.380944,201.670709 L176.383258,201.670709 Z" id="Path" fill="#9E223E"></path>
                    <path d="M182.967986,104.738994 L194.124542,111.081597 C194.124542,111.081597 194.508613,120.824501 188.546264,131.932151 C182.583915,143.039802 178.370707,158.174612 178.370707,158.174612 L178.370707,203.167304 C178.370707,203.167304 169.752256,207.571504 164.38915,203.167304 C164.38915,203.167304 158.834008,161.845549 159.026044,154.931603 C159.218079,148.015344 167.262738,108.759214 167.262738,108.759214 L182.970299,104.736681 L182.967986,104.738994 Z" id="Path" fill="#77122A"></path>
                    <path d="M203.157142,66.812914 C203.157142,66.812914 210.838553,86.4629538 214.679259,101.597764 C215.905509,109.207962 217.344616,113.619101 217.867508,115.06712 C217.999387,115.434908 218.031779,115.818887 217.969309,116.202867 L217.483437,119.117411 C217.300656,120.216148 216.349735,121.021117 215.236856,121.021117 L210.690478,121.021117 C209.438778,121.021117 208.325899,120.234653 207.909437,119.054956 C207.43976,117.72722 207.076513,115.936857 207.678069,114.368555 C207.678069,114.368555 205.128395,118.307815 204.663346,116.339342 C204.200611,114.368555 205.706815,110.89192 205.706815,110.89192 L192.773354,75.848 L191.683611,72.9982238 L203.161769,66.812914 L203.157142,66.812914 Z" id="Path" fill="#D9935C"></path>
                    <path d="M195.3184,75.5496062 C194.409124,75.7670405 193.543809,75.8873232 192.77104,75.848 L194.126856,111.08391 C194.126856,111.08391 156.619818,116.05714 141.261622,108.821669 L145.097701,69.9819022 C145.097701,69.9819022 144.202307,70.1577001 142.834924,70.0767405 C140.340779,69.9402659 136.247882,68.9918826 132.899989,64.7773596 C132.899989,64.7773596 140.789632,48.6363381 147.14762,41.4540693 C148.353046,40.0846963 149.954111,39.1224342 151.728703,38.6898789 L168.116485,34.7459922 L174.474473,35.9118097 L192.312932,39.705343 C192.312932,39.705343 196.8408,41.9675842 199.552431,49.1914893 C202.264062,56.4292732 207.007102,69.7505892 207.007102,69.7505892 C207.007102,69.7505892 200.473275,74.3167079 195.323027,75.5519194 L195.3184,75.5496062 Z" id="Path" fill="#FFFFFF"></path>
                    <path d="M174.069579,25.8728253 L176.276828,28.6647732 L177.968127,37.0521828 C177.968127,37.0521828 180.339647,42.1341295 176.02001,44.1673708 C171.700373,46.2006122 166.78612,46.8783593 165.261406,44.1673708 C163.736692,41.4563824 167.29513,38.745394 167.29513,38.745394 L165.601517,30.4458834 L174.074207,25.8728253 L174.069579,25.8728253 Z" id="Path" fill="#D9935C"></path>
                    <path d="M173.083952,28.9816721 C173.083952,28.9816721 181.399312,29.2708133 183.817106,23.1803419 C186.234899,17.0898705 185.170607,11.9894187 185.170607,11.9894187 C185.170607,11.9894187 178.497959,4.52263491 170.1826,4.13402906 C170.1826,4.13402906 164.282721,-2.24789674 160.6086,0.847071263 C156.934479,3.93972614 157.378705,10.0463895 160.009357,12.5052467 L168.111858,22.8912006 L173.083952,28.9816721 Z" id="Path" fill="#9E223E"></path>
                    <path d="M160.009357,12.5052467 L156.987693,21.9219992 L158.868714,21.9219992 C158.868714,21.9219992 157.418037,29.657106 159.641482,31.6880342 C161.864927,33.7189624 172.01966,31.8823372 175.210223,29.9485604 C177.144458,29.0788235 176.17734,25.8890172 176.17734,25.8890172 C177.230064,25.8890172 178.224945,25.0100278 178.79411,24.1264121 C179.363275,23.2404833 179.425744,21.9752011 178.729327,21.1887369 C177.78766,20.1246971 176.094048,20.3745151 174.712782,20.7122321 C173.331516,21.0499491 171.633276,21.2905146 170.700864,20.2172223 C170.053034,19.4700813 170.062289,18.362092 170.238128,17.3905774 C170.413968,16.4167496 170.719373,15.4313562 170.543534,14.4598416 C170.27052,12.9586202 168.70416,11.8182471 167.193328,12.0148631 C164.951374,12.3063175 162.272134,12.509873 160.011671,12.509873 L160.009357,12.5052467 Z" id="Path" fill="#D9935C"></path>
                    <g transform="translate(0.000000, 7.638725)">
                        <path d="M59.5795273,179.202507 L67.3488587,184.920565 C68.2882121,185.612191 68.5080115,186.921422 67.8393585,187.879058 C65.4238784,191.332561 60.0353219,198.690628 58.6008414,197.818578 C56.7360168,196.685144 59.3851783,190.994844 59.3296501,189.521381 L53.8786242,184.675373 L59.5795273,179.200194 L59.5795273,179.202507 Z" id="Path" fill="#9E223E"></path>
                        <path d="M43.4323672,196.530165 L43.4323672,206.175917 C43.4323672,207.341735 42.5068959,208.294744 41.3408021,208.322502 C37.1275941,208.424279 28.0070746,208.447411 27.8589992,206.777331 C27.6669639,204.602989 33.8190342,203.363151 34.9735597,202.444838 L35.6445263,195.183923 L43.4346808,196.530165 L43.4323672,196.530165 Z" id="Path" fill="#9E223E"></path>
                        <path d="M16.8967919,100.028692 L23.7822982,146.911212 C24.5596941,152.205967 26.7854525,157.183823 30.2096962,161.294255 L53.2354217,188.929219 C53.2354217,188.929219 61.0880455,185.649201 62.450802,176.385115 L43.0459829,147.91511 L43.0459829,101.566924 L16.8967919,100.028692 L16.8967919,100.028692 Z" id="Path" fill="#FF9A00"></path>
                        <path d="M36.6972499,98.0232083 L31.2739882,195.938003 C31.2739882,195.938003 37.5833887,201.697697 46.2897597,198.195618 L62.450802,102.767438 L36.6949362,98.0232083 L36.6972499,98.0232083 Z" id="Path" fill="#FF9A00"></path>
                        <path d="M36.6000754,30.8152147 C36.6000754,30.8152147 50.9587623,32.0272949 56.6203329,34.4537683 C56.6203329,34.4537683 64.5076619,45.1681867 65.9236329,54.6705249 L55.2066755,55.4801205 L59.6558787,99.5545004 C59.6558787,99.5545004 41.0515923,111.483312 13.7501895,100.970136 L16.177238,62.5559853 C16.177238,62.5559853 6.26775424,63.9716209 0,57.9065939 C0,57.9065939 3.2900504,39.5079575 11.6701928,35.3443234 L29.9274275,29.9223465 L36.6000754,30.8152147 L36.6000754,30.8152147 Z" id="Path" fill="#FFE4DD"></path>
                        <path d="M18.2271569,25.858177 C18.2271569,25.858177 34.8324253,34.6665763 50.421989,24.8427129 C50.421989,24.8427129 49.1749164,5.6113497 39.9155763,1.63507914 C18.2271569,-7.6822087 18.2271569,25.8604902 18.2271569,25.8604902 L18.2271569,25.858177 Z" id="Path" fill="#77122A"></path>
                        <path d="M38.5620745,35.3443234 C35.1910454,36.9079993 31.7482923,36.9426962 28.226874,35.3443234 L28.226874,23.3160471 L38.5620745,23.3160471 L38.5620745,35.3443234 Z" id="Path" fill="#FFC5BA"></path>
                        <path d="M27.960801,4.32524939 C27.960801,4.32524939 32.4956103,9.05791347 40.4824275,7.77643943 C40.4824275,7.77643943 42.8493203,27.5907114 32.8889356,27.690176 C22.9308646,27.7896406 24.7054558,11.6208616 24.7054558,9.65007477 C24.7054558,9.65007477 24.9021185,6.29834932 27.9584874,4.32756252 L27.960801,4.32524939 Z" id="Path" fill="#FFC5BA"></path>
                        <rect id="Rectangle" fill="#FFFFFF" x="36.6972499" y="45.5082168" width="96.1981122" height="90.834304"></rect>
                        <path d="M54.9961308,45.3324189 C54.9961308,45.3324189 50.3479513,40.033038 43.9020438,39.9035027 C37.4561364,39.7739674 37.5857023,45.5082168 37.5857023,45.5082168 C37.5857023,45.5082168 38.3584709,51.2447793 39.9063216,50.7289513 C41.4541723,50.2131233 40.729991,45.5082168 40.729991,45.5082168 C40.729991,45.5082168 41.5814246,50.7289513 43.1292753,50.6017292 C44.4735223,50.4906989 43.9691405,46.7318626 43.8141241,45.7464692 C43.9876499,46.7457414 44.7326543,50.5855373 45.9658448,50.4721939 C47.3841295,50.3426586 46.9977453,45.5082168 46.9977453,45.5082168 C46.9977453,45.5082168 47.0185684,45.529035 47.0486462,45.5567925 C47.280014,47.1204685 47.8352968,50.2154365 48.6057516,50.2154365 C49.2350721,50.2154365 49.5265955,48.1567507 49.6607889,46.5468122 C50.6140243,46.5653172 53.6125512,46.2784891 55.0007582,45.3324189 L54.9961308,45.3324189 Z" id="Path" fill="#FFC5BA"></path>
                        <path d="M16.1749243,62.5582984 L13.9908121,74.6467161 L44.9964136,107.18089 C44.9964136,107.18089 46.5789695,109.001324 45.5655785,109.593485 C44.5521874,110.183333 41.1024932,107.474658 41.1024932,107.474658 C41.1024932,107.474658 44.2167041,110.52105 43.2889191,111.448615 C42.3611342,112.37618 38.6569354,108.908798 38.6569354,108.908798 C38.6569354,108.908798 42.0233371,112.966028 41.3477431,113.387018 C41.3477431,113.387018 40.9752409,115.316169 36.6949362,110.678343 C36.6949362,110.678343 39.1543762,113.470291 38.4810958,114.397856 C37.8055018,115.325421 34.1036167,111.099333 34.1036167,111.099333 C34.1036167,111.099333 29.2101873,109.244202 29.5479843,104.268659 C29.5479843,104.268659 3.65561156,86.5038207 2.13089762,80.5752684 C0.606183688,74.6467161 2.13089762,59.6136839 2.13089762,59.6136839 C2.13089762,59.6136839 7.67909794,63.5737625 16.1749243,62.5582984 L16.1749243,62.5582984 Z" id="Path" fill="#FFC5BA"></path>
                    </g>
                    <path d="M100.994367,50.66264 C100.994367,50.66264 106.496294,48.1320758 115.100863,51.088256 C115.100863,51.088256 116.84769,59.0176658 115.100863,58.8835042 C113.354036,58.7493427 111.739089,53.1446286 111.739089,53.1446286 C111.739089,53.1446286 112.814949,59.1541404 111.202315,58.8835042 C109.589682,58.612868 108.782208,53.1446286 108.782208,53.1446286 C108.782208,53.1446286 109.291217,58.9043224 107.826659,58.8927567 C106.362101,58.8811911 105.420433,53.1446286 105.420433,53.1446286 C105.420433,53.1446286 105.152047,61.1665636 103.8078,59.5543119 C102.463553,57.9420603 100.996681,50.6603269 100.996681,50.6603269 L100.994367,50.66264 Z" id="Path" fill="#D9935C"></path>
                </g>
                <g id="Group">
                    <g transform="translate(30.885918, 114.888979)" id="Path">
                        <path d="M11.2383544,96.3932967 C11.2383544,96.3932967 11.8402855,101.899634 10.2397483,103.278532 C8.63921108,104.655117 4.52024925,106.260746 4.97919293,108.78487 C5.43583035,111.308993 17.7881033,109.703364 20.3042217,108.78487 C22.82034,107.866376 22.5920213,99.6068694 21.2198028,96.3932967 L11.2383544,96.3932967 L11.2383544,96.3932967 Z" fill="#9E223E"></path>
                        <path d="M0,0 L10.1313546,100.169071 C10.1313546,100.169071 16.2590598,103.61863 23.8812148,100.169071 C23.8812148,100.169071 28.0993454,15.894344 25.6247395,3.07938455 L0,0 Z" fill="#FFE4DD"></path>
                    </g>
                    <g transform="translate(45.560584, 116.860155)" id="Path">
                        <path d="M11.2383544,96.3932967 C11.2383544,96.3932967 11.8402855,101.899634 10.2397483,103.278532 C8.63921108,104.655117 4.52024925,106.260746 4.97919293,108.78487 C5.43583035,111.308993 17.7881033,109.703364 20.3042217,108.78487 C22.82034,107.866376 22.5920213,99.6068694 21.2198028,96.3932967 L11.2383544,96.3932967 L11.2383544,96.3932967 Z" fill="#9E223E"></path>
                        <path d="M0,0 L10.1313546,100.169071 C10.1313546,100.169071 16.2590598,103.61863 23.8812148,100.169071 C23.8812148,100.169071 28.0993454,15.894344 25.6247395,3.07938455 L0,0 Z" fill="#FFE4DD"></path>
                    </g>
                    <path d="M35.1455608,73.9940117 L34.6796984,78.3828866 C34.6796984,78.3828866 25.4708436,82.7717615 20.8491194,78.3828866 C16.2273951,73.9940117 16.9492513,56.0290071 24.0271314,42.5546753 L31.1027052,46.5409861 C31.1027052,46.5409861 30.2355553,50.3653457 28.2152807,51.674836 L27.4934245,65.8779478 L30.5261428,64.4296422 L35.147867,73.9916981 L35.1455608,73.9940117 Z" id="Path" fill="#5B2D0F"></path>
                    <polygon id="Path" fill="#9E223E" points="30.3093553 31.7479096 20.5493069 44.9746875 27.1682433 49.1322037 35.1455608 33.8902913"></polygon>
                    <path d="M16.6217638,2.77485715 L19.2578071,1.89338043 C19.2578071,1.89338043 23.026219,12.4734147 27.673312,15.7494541 C32.320405,19.0254936 47.5139775,29.3533468 47.5139775,29.3533468 C47.5139775,29.3533468 47.5139775,37.6683792 41.3609035,39.5562663 L17.9294074,27.7731668 C14.0110893,25.95006 9.2071713,26.7366797 4.31792211,27.7731668 L6.82942794,17.8895223 L16.6240701,2.77254356 L16.6217638,2.77485715 Z" id="Path" fill="#9E223E"></path>
                    <path d="M17.2167762,17.8640728 C13.0332394,25.2120257 6.53422799,29.385737 2.69893488,27.1901428 C-1.13405199,24.992235 -0.850383289,17.2555994 3.33315352,9.90996005 C7.51669033,2.56200713 14.0157018,-1.61170416 17.8509949,0.586203669 C21.6839817,2.7841115 21.400313,10.5207471 17.2167762,17.8663864 L17.2167762,17.8640728 Z" id="Path" fill="#FFE4DD"></path>
                    <path d="M29.9495804,117.861938 C29.9495804,117.861938 48.5287273,127.690057 73.018792,122.775998 L75.5533604,60.0847255 L59.0844318,56.6513621 C59.0844318,56.6513621 48.6855523,53.1717269 43.9554343,55.7583174 C39.2253164,58.3449079 29.3684055,63.5643606 29.3684055,63.5643606 L34.6773921,78.3852002 L37.5694291,76.5320168 L29.9472741,117.861938 L29.9495804,117.861938 Z" id="Path" fill="#FF9A00"></path>
                    <path d="M57.6753133,42.9688074 L59.0821256,56.6513621 C59.0821256,56.6513621 56.388426,58.7173954 58.3787194,61.1697979 C60.3690129,63.6222003 66.930293,61.9448496 68.4754803,61.1697979 C70.0206675,60.3947462 69.5040676,52.7113231 69.5040676,52.7113231 L63.6162123,40.9050877 L57.6753133,42.971121 L57.6753133,42.9688074 Z" id="Path" fill="#5B2D0F"></path>
                    <path d="M58.4386819,23.9950789 C58.4386819,23.9950789 55.0923137,24.8996915 52.9059891,28.5135147 C50.7196645,32.1273379 48.5310336,34.838862 48.5310336,34.838862 L50.0762208,36.0002828 C50.0762208,36.0002828 46.7298526,42.7119993 49.1744772,44.7780326 C51.6191018,46.844066 55.6089137,46.844066 59.3381193,46.0690143 C63.0696312,45.2939626 66.2868494,42.4551911 66.930293,39.614106 L65.387412,28.7726364 L62.6844875,23.9973925 L58.4386819,23.9973925 L58.4386819,23.9950789 Z" id="Path" fill="#5B2D0F"></path>
                    <path d="M55.4313324,25.6446665 C57.1633259,24.9043186 60.2467816,25.9940182 61.155444,27.6505466 C62.0641063,29.3070751 62.1056188,31.2851921 62.1102313,33.1730793 C62.1148438,35.06328 62.1240688,37.0344563 62.9796874,38.7187478 C63.4340186,39.6094788 64.112056,40.3937849 64.4003372,41.35161 C65.0460871,43.5055597 63.5493311,45.6456278 62.9104999,47.8018911 C62.2486063,50.0368163 62.52305,52.4730236 63.2956436,54.673245 C64.0682373,56.8734665 65.3089996,58.8747194 66.6051118,60.8111919 C68.2171803,63.2196361 69.9814613,65.6141989 72.3914921,67.2198284 C74.7992167,68.8254579 77.9933725,69.5218476 80.6271095,68.3210959 C83.2608466,67.1203441 84.8659963,63.6707856 83.5053091,61.1119582 C83.5053091,61.1119582 78.2585912,49.0396602 76.7157102,41.5528921 C75.1728292,34.0661239 70.5395737,21.9359863 62.6914062,21.9336716 C56.5152698,21.9313591 55.4382512,25.6492937 55.4382512,25.6492937 L55.4313324,25.6446665 Z" id="Path" fill="#9E223E"></path>
                    <path d="M60.9963128,64.7234678 L56.803551,64.1520118 L50.4544458,68.9249421 L31.9698551,42.5569889 C31.9698551,42.5569889 27.461137,34.5010783 26.5386372,35.2691893 C25.6161373,36.0373002 27.6387183,39.5146218 27.6387183,39.5146218 C27.6387183,39.5146218 24.4607063,36.0373002 23.8841439,36.761453 C23.3075815,37.4856058 26.5409434,41.9762785 26.5409434,41.9762785 C26.5409434,41.9762785 23.0193003,38.498957 22.4404316,39.0796674 C21.861563,39.6603777 24.8965875,44.1510505 24.8965875,44.1510505 C24.8965875,44.1510505 21.7185755,40.8194849 21.2850006,41.8328361 C20.8514256,42.8461873 24.4630125,46.5432996 24.4630125,46.5432996 C24.4630125,46.5432996 24.0294376,50.8026137 28.2175869,51.6771496 C32.4057362,52.5516856 28.2175869,51.6771496 28.2175869,51.6771496 C28.2175869,51.6771496 35.1593983,79.2874992 48.2865711,83.4126251 C60.2790691,87.1791451 66.9372118,80.2476378 66.9372118,80.2476378 L66.9372118,68.9249421 L61.0009253,64.7234678 L60.9963128,64.7234678 Z" id="Path" fill="#5B2D0F"></path>
                    <path d="M56.803551,64.1520118 L66.9325993,80.2476378 C66.9325993,80.2476378 84.3355589,69.4038547 77.5782475,58.2222878 C72.3430609,50.2589207 56.803551,64.1520118 56.803551,64.1520118 Z" id="Path" fill="#FF9A00"></path>
                    <path d="M8.49454017,17.0149863 L12.0576958,10.7590465 L17.1245262,12.7279092 C17.1245262,12.7279092 16.9261888,17.3897874 12.6919145,20.7282938 L8.49454017,17.0172999 L8.49454017,17.0149863 Z" id="Path" fill="#9E223E"></path>
                    <path d="M11.9077896,14.8217057 C10.923021,16.5499553 9.39628377,17.5309163 8.49454017,17.0149863 C7.59279657,16.4990564 7.65967781,14.6782633 8.6444464,12.9523272 C9.62921498,11.2240776 11.1559522,10.2431166 12.0576958,10.7590465 C12.9594394,11.2749765 12.8925582,13.0957696 11.9077896,14.8240192 L11.9077896,14.8217057 Z" id="Path" fill="#FFFFFF"></path>
                </g>
                <path d="M130.571897,100.456911 C131.283181,100.266258 132.096409,97.4622646 132.096409,97.4622646 C132.096409,97.4622646 132.701116,97.3088123 133.586168,96.9391316 C134.473535,96.5671258 135.038856,93.9096099 135.469797,92.9168195 C135.900738,91.9240292 136.806641,92.8075429 141.231897,90.5894587 C145.657152,88.3736995 143.449158,80.5127533 143.449158,80.5127533 C143.449158,80.5127533 140.28429,72.9889373 135.446628,74.0305534 C130.611284,75.0721694 130.451419,76.3276888 129.499178,75.823156 C128.368537,75.2256218 127.314353,74.1630804 125.996044,73.9352269 C125.683264,73.8817511 125.370484,73.877101 125.057704,73.9445271 C124.761143,74.0096281 124.313983,74.395584 124.047541,74.3769837 C123.725494,74.3560584 123.174075,73.7771245 122.891414,73.6073969 C122.479008,73.358618 122.043433,73.1307645 121.566155,73.035438 C120.810849,72.8819857 119.935066,73.2656166 119.195978,73.4469694 C118.164963,73.6980733 117.138582,73.9677774 116.123786,74.2816572 C115.178495,74.5746118 114.274909,74.8675663 113.86482,75.8138559 C113.558991,76.5160167 113.301816,77.2437529 113.030741,77.959864 C113.030741,77.959864 111.316244,77.8436122 110.713853,79.194458 C110.111462,80.5453038 110.384855,82.1891042 109.00399,82.8540644 C107.623125,83.5190247 104.031949,83.1632942 102.525972,86.2114162 C101.019995,89.2595382 100.466259,92.6331652 101.610801,95.2302302 C102.331353,97.9760975 104.863712,100.263933 107.935905,101.70313 C111.008098,103.142327 113.591427,100.612688 115.08582,100.268583 C116.577895,99.9221526 117.386489,101.37995 118.697848,102.056535 C120.009206,102.733121 121.274227,101.570603 121.276544,101.568278 C121.373853,101.479927 123.563312,102.923774 123.878408,102.979575 C124.225942,103.040026 124.578108,102.956324 124.916374,102.858673 C126.885729,102.293689 128.61876,100.980044 130.56958,100.459236 L130.571897,100.456911 Z" id="Path" fill="#E9364B"></path>
                <path d="M120.530989,94.5262436 C122.984463,93.2355829 125.719598,92.0690692 128.366278,91.1485072 C129.746648,90.6683159 131.159608,90.2724508 132.605156,90.0428959 C133.969231,89.825053 135.391502,89.9749664 136.725317,89.6165796 C139.015847,89.0005293 141.560105,87.9886138 141.939532,85.3627868 C142.16067,83.8402288 141.737015,82.4019971 141.287755,80.9707926 C140.922294,79.8042789 139.230002,75.2202081 135.498579,76.1150037 C133.727143,76.5389776 132.13029,77.0964681 130.624219,78.1599163 C127.770368,80.1720352 124.490533,81.2073747 121.180438,82.2028934 C118.424353,83.0321019 115.628695,83.734821 112.80976,84.3063658 C109.641659,84.950525 105.928858,85.4307163 103.873433,88.2603318 C103.361323,88.9630509 103.014484,89.8086562 103.000518,90.6800279 C102.979568,91.8699655 103.596428,92.8607994 104.460033,93.6244208 C104.017755,96.9693636 107.455878,99.4850979 110.563458,98.9205803 C112.923821,98.4919216 115.270218,97.1473858 117.404787,96.1050191 C118.454614,95.5943766 119.499784,95.0720221 120.533316,94.528586 L120.530989,94.5262436 Z" id="Path" fill="#FFFFFF"></path>
                <g id="Group" transform="translate(207.000000, 82.000000)" fill="#E9364B">
                    <path d="M9.40605048,10.7537946 C9.48677921,10.7010236 9.85813137,10.4096364 10.098011,10.4096364 C10.2848404,10.4096364 10.390941,10.4624073 10.5500919,10.4624073 C10.7622932,10.4624073 10.9768009,10.3821038 11.1359519,10.3821038 C11.3758315,10.3821038 11.6410831,10.7537946 11.6410831,10.886869 C11.6410831,11.1254854 10.4693632,11.4421108 10.4693632,12.6351924 C10.4693632,14.0118249 11.6941334,14.5165902 13.1057329,14.5165902 C15.1285643,14.5165902 17.6334615,13.562125 17.6334615,12.0524179 C17.6334615,9.64331098 7.70152098,10.9924109 8.28738091,6.17190258 C8.36810964,5.56388987 8.2343306,4.8205083 8.66103961,4.05188846 C10.0195888,1.61524885 15.2369714,0 18.0071202,0 C18.6737088,0 19.2318904,0.0275326509 19.6839713,0.133074479 C20.4820324,0.318919873 20.5097108,0.92693258 20.5627612,1.2183198 C20.5904396,1.4041652 20.8026408,1.27109072 20.9087414,1.42940346 C21.2016714,1.80109425 21.4138726,2.14525238 21.4138726,2.59495235 C21.4138726,3.28326862 20.0830018,4.26297211 19.0981113,4.6346629 C17.7926124,5.11189552 16.9945512,5.56159548 16.5955206,5.56159548 C16.1964901,5.56159548 16.1434397,5.08436287 16.1434397,4.84574656 C16.1434397,4.65990116 16.1964901,4.26297211 16.1964901,4.26297211 C14.8909911,4.50158842 13.080361,5.29544652 11.9086411,5.93099188 C15.0778205,6.43346276 21.307772,7.36039534 21.307772,11.9445817 C21.307772,16.1570773 16.9945512,18.9103424 13.080361,18.9103424 C10.1787398,18.9103424 7.51469163,17.2675609 7.51469163,14.2756795 C7.51469163,12.8715143 8.34043122,11.52012 9.40605048,10.7515002 L9.40605048,10.7537946 Z" id="Path"></path>
                    <path d="M27.5907739,9.42993293 C27.4569948,10.93964 27.3508942,12.3965761 27.3508942,12.9265796 C27.3508942,13.7732086 27.5100451,14.8079774 28.7094434,14.8079774 C30.0679926,14.8079774 31.5856928,13.3510413 32.4368043,12.3185669 C32.5705833,12.1602541 32.6490055,12.2382633 32.6236336,12.3460995 C32.4898546,12.9013413 32.224603,13.4841158 32.1185024,13.7502647 C32.0377737,13.9361101 32.1992312,13.9085775 32.1461808,14.1219555 C31.9870299,14.7322626 31.6940999,14.9158136 31.4795922,15.3930462 C31.3988634,15.5788916 31.4519138,15.9230498 31.3734916,16.214437 C31.0275113,17.5130604 29.1638309,18.7313802 27.9390607,18.7313802 C27.3532007,18.7313802 26.6081899,18.4124603 26.2091593,18.0958348 C24.5576801,16.7719732 24.0248705,15.2875044 24.0248705,13.2753265 C24.0248705,12.082245 24.1055992,10.9442287 24.2116998,9.8062125 C23.7319405,9.91175432 23.2521812,10.1251324 23.0399799,10.1251324 C22.7747284,10.1251324 22.74705,9.91404871 22.5602206,9.88651606 C22.16119,9.83374515 22.2419188,9.72820332 22.1335116,9.56759619 C21.9213104,9.2509707 21.4946014,9.38175079 21.4946014,8.79897635 C21.4946014,8.56036004 21.6537523,8.29421108 21.6537523,8.11066008 C21.6537523,7.68619838 21.8129032,7.31680198 21.9997326,7.13095658 C22.1335116,6.9978821 23.1184021,6.65372397 23.3052315,6.65372397 C23.570483,6.65372397 23.863413,6.49541122 24.1840214,6.44264031 L24.2647501,6.44264031 L24.3985292,6.3898694 L24.4792579,6.3898694 C24.5069363,6.09848217 24.5069363,5.80709495 24.5069363,5.51570773 C24.5069363,5.17154959 24.746816,5.27709142 24.746816,5.06600777 C24.7744944,4.56353689 24.880595,3.68937522 25.0143741,3.55630074 C25.0951028,3.47599718 25.0674244,3.34521708 25.0951028,3.21214261 C25.1227812,3.07906813 25.3349825,2.9735263 25.4134046,2.86798447 C25.5471837,2.70967173 25.6532843,2.47105542 25.7593849,2.47105542 L25.8124352,2.47105542 L25.893164,2.52382633 L25.9462143,2.52382633 C26.0799933,2.55135898 26.1584155,2.20490646 26.4259736,2.12689728 C26.6658533,2.04659372 26.8526826,1.70243558 27.1179341,1.70243558 C27.4108641,1.70243558 27.5976935,2.07412637 27.6230654,2.23243911 C27.6484372,2.39075185 27.6507438,2.57659725 27.729166,2.70967173 C27.9413672,3.10660078 28.2342972,3.00105895 28.2342972,3.55630074 C28.2342972,4.29738793 28.0751462,5.01323685 27.9667391,5.75432404 C27.9390607,5.80709495 27.9390607,5.85986587 27.9390607,5.94016943 C29.1107805,5.8346276 30.1763998,5.75432404 30.9214107,5.75432404 C31.3734916,5.75432404 32.5198395,5.9654077 32.5198395,6.60095305 C32.5198395,6.91987293 32.4137389,7.05065302 32.4137389,7.36957289 C32.4137389,7.76650194 32.681297,8.00511825 32.681297,8.32403812 C32.681297,8.40434169 32.6282467,8.85404165 32.6282467,8.8815743 C32.6282467,9.0674197 32.3353167,9.12019061 32.1231155,9.12019061 C30.845295,9.17296152 28.9539362,9.33127427 27.9967241,9.41157783 C27.8375731,9.43911048 27.729166,9.43911048 27.5976935,9.43911048 L27.5907739,9.42993293 Z" id="Path"></path>
                    <path d="M36.7223466,5.10730674 L37.2805282,4.86869043 C37.5204078,4.76314861 37.6541869,4.68284504 37.8663881,4.68284504 C38.2930971,4.68284504 38.4776199,4.8939287 38.611399,4.97423226 C38.8236002,5.10730674 39.4094601,4.15284151 40.5558081,4.15284151 C41.2477687,4.15284151 41.6467993,4.47176138 42.2326592,4.81362513 C44.1240181,5.95164137 44.8690289,7.64719379 44.8690289,9.71443699 C44.8690289,13.3969291 42.3387598,17.2377339 38.3991977,17.2377339 C35.7374561,17.2377339 32.9396289,14.3238616 32.9396289,11.6486057 C32.9396289,8.5488881 34.5103794,6.29809389 36.7200401,5.10501235 L36.7223466,5.10730674 Z M37.9747953,13.3969291 C39.8384757,13.3969291 41.5706836,10.9602894 41.5706836,9.13166255 C41.5706836,8.33780445 40.9848237,7.59442287 40.1337122,7.59442287 C38.9619923,7.59442287 37.7372221,8.62689728 37.1259903,9.71443699 C36.9668394,10.0058242 36.9668394,10.164137 36.8861106,10.164137 C36.7523316,10.164137 36.6208591,9.68690434 36.5401304,9.68690434 C36.4870801,9.68690434 36.1941501,10.2169079 36.1941501,11.224144 C36.1941501,12.4424638 36.7269597,13.3969291 37.9771018,13.3969291 L37.9747953,13.3969291 Z" id="Shape"></path>
                    <path d="M49.3690791,19.4380515 L49.2099281,21.4249912 C49.1822497,21.6888457 49.1822497,21.9549947 48.8893197,22.2463819 C48.7555407,22.3794564 48.7301688,22.7236145 48.4902892,23.04024 C48.1443089,23.5174726 47.8513789,23.6230145 47.5053986,23.6230145 C47.0002674,23.6230145 46.3336788,22.2716202 46.3336788,21.8494529 C46.3336788,21.6383692 46.25295,20.6563713 46.25295,19.8625132 L46.25295,18.8828097 L46.3336788,15.5192376 L46.3336788,10.6987293 C46.3336788,9.85210025 46.3613572,6.88545711 46.9472171,5.37575009 C47.0002674,5.21743735 47.3208758,5.03159195 47.4800267,5.03159195 C47.6138058,5.03159195 47.692228,5.11189552 47.8790573,5.0040593 C48.0382083,4.92375574 47.9851579,4.73791034 48.0912586,4.63236851 C48.1719873,4.55206495 48.5963898,4.12989764 48.94237,4.12989764 C49.3944509,4.12989764 49.7404312,6.16960819 49.7150593,6.88316273 L49.7150593,6.96346629 C50.381648,6.03653371 51.1520308,5.18990469 52.083871,5.02929756 C52.5359519,4.948994 52.9626609,4.79068126 53.4147418,4.79068126 C56.1572121,4.79068126 57.6495404,8.12901518 57.6495404,10.6964349 C57.6495404,13.2638546 54.3212101,16.7627956 51.498011,16.7627956 C50.6192211,16.7627956 50.0333612,16.4438758 49.5536019,15.9161666 L49.5536019,16.285563 C49.5536019,17.3455701 49.5259234,18.1921991 49.3667725,19.4380515 L49.3690791,19.4380515 Z M49.6089587,11.2264384 C49.6089587,11.887222 49.6089587,12.5250618 49.5812803,13.1606071 C49.8742103,13.3189199 50.1925121,13.4267561 50.5407989,13.4267561 C51.2858098,13.4267561 53.0180177,12.7109072 53.2578974,12.1556654 C53.4700986,11.6531945 54.2958382,10.9901165 54.2958382,10.0907166 C54.2958382,9.29685845 53.7376567,8.76685492 52.9649674,8.76685492 C51.6594685,8.76685492 50.3032258,10.0127074 49.6089587,11.2310272 L49.6089587,11.2264384 Z" id="Shape"></path>
                    <path d="M8.99318068,37.7426756 L8.90553234,38.8370985 C8.89169313,38.9839393 8.89169313,39.1284857 8.73023567,39.2890928 C8.65642654,39.3625132 8.64258733,39.5529474 8.51111483,39.7273209 C8.31967241,39.9911754 8.15821494,40.0485351 7.96907906,40.0485351 C7.6899883,40.0485351 7.32324921,39.3051535 7.32324921,39.071126 C7.32324921,38.9541122 7.27942504,38.4149312 7.27942504,37.9767031 L7.27942504,37.4375221 L7.32324921,35.5836569 L7.32324921,32.9267561 C7.32324921,32.458701 7.33708842,30.8250971 7.66000334,29.9922344 C7.6899883,29.9050477 7.86528497,29.8018002 7.95293331,29.8018002 C8.02674244,29.8018002 8.07056661,29.8453936 8.17205415,29.7880339 C8.25970249,29.7444405 8.22971753,29.6411931 8.28968745,29.5838334 C8.33351162,29.54024 8.5687782,29.3062125 8.76022063,29.3062125 C9.00932642,29.3062125 9.20076885,30.4304624 9.1846231,30.8250971 L9.1846231,30.8686904 C9.55136219,30.357042 9.9780712,29.8912813 10.490122,29.8040946 C10.7392278,29.7605012 10.9744944,29.6733145 11.2236002,29.6733145 C12.7343807,29.6733145 13.5578138,31.5134133 13.5578138,32.9290505 C13.5578138,34.3446876 11.7241183,36.2719732 10.1672071,36.2719732 C9.6828347,36.2719732 9.35991977,36.0975997 9.09466823,35.8039181 L9.09466823,36.0081186 C9.09466823,36.5931874 9.08082902,37.0589481 8.99318068,37.74497 L8.99318068,37.7426756 Z M9.12465318,33.2181433 C9.12465318,33.5829509 9.12465318,33.9339922 9.11081397,34.2827391 C9.27227144,34.3699259 9.44756811,34.42958 9.63901053,34.42958 C10.0495738,34.42958 11.0044794,34.0349453 11.1359519,33.7297917 C11.2535852,33.4521708 11.7079726,33.0873632 11.7079726,32.5917755 C11.7079726,32.1535475 11.3988969,31.8621603 10.9744944,31.8621603 C10.2548554,31.8621603 9.50753802,32.5481821 9.12465318,33.2204377 L9.12465318,33.2181433 Z" id="Shape"></path>
                    <path d="M16.1388267,30.9260501 C16.519405,30.4442287 17.5619589,29.2465584 18.1063012,29.2465584 C18.2677586,29.2465584 18.4430553,29.5241793 18.4730403,29.6847864 C18.4868795,29.7719732 18.4730403,29.8453936 18.4730403,29.948641 C18.4730403,30.0794211 18.7659702,30.1230145 18.782116,30.256089 C18.7959552,30.357042 18.8697643,30.4602894 18.8697643,30.5337098 C18.8697643,30.6805507 18.6344977,31.0292976 18.5330102,31.1187787 C17.8733411,31.6579598 17.5204413,31.7015531 16.3602541,32.6376633 C16.3740933,32.8556301 16.3740933,33.1057183 16.3740933,33.3535122 C16.3740933,34.2873279 16.2702992,34.8288034 16.2702992,35.7924462 C16.2702992,35.9966467 16.1665051,36.0264737 16.1388267,36.0838334 C16.0950025,36.1710201 15.9035601,36.2008472 15.6982785,36.3614543 C15.6682935,36.3912813 15.566806,36.4348747 15.4791576,36.4348747 C15.3315394,36.4348747 15.2300518,36.2742676 15.1862276,36.2742676 C14.9371218,36.2444405 14.7156945,36.2008472 14.5980612,36.04024 C14.4504429,35.8498059 14.4504429,35.4115778 14.4066188,35.163784 C14.3766338,34.9595835 14.3627946,34.7393223 14.3627946,33.8789269 C14.3627946,32.9290505 14.3489554,31.3229792 14.6418853,30.4488175 C14.7295337,30.1711966 14.8771519,30.0105895 15.0386094,29.8935757 C15.1562427,29.806389 15.1862276,29.6756089 15.2577302,29.6756089 C15.3892027,29.6756089 15.5229818,29.6756089 15.5944844,29.7054359 C15.7121177,29.7490293 15.7559418,29.9234028 15.799766,30.0404165 C15.8574294,30.1872573 15.8574294,30.1711966 15.9312385,30.1574303 C15.9889019,30.143664 16.0488718,30.3042711 16.1065352,30.7424991 C16.1065352,30.7998588 16.1203744,30.8595129 16.1365201,30.9329333 L16.1388267,30.9260501 Z" id="Path"></path>
                    <path d="M24.3431723,32.2384398 C24.3431723,32.3256265 24.3869965,32.3990469 24.3869965,32.5596541 C24.3869965,32.7202612 24.2693632,32.7936816 24.1678756,32.867102 C24.1102123,32.9106954 24.0640816,32.9978821 23.9764332,33.0277091 C23.962594,33.0277091 23.9464483,33.0414755 23.9187698,33.0414755 L23.8311215,33.0713025 C23.8011366,33.0713025 23.7872973,33.0713025 23.7734581,33.0850688 C23.1576132,33.3030357 22.0712352,33.4062831 20.9986963,33.4062831 C20.8672238,33.4062831 20.6319572,33.4200494 20.3528665,33.4062831 C20.4105298,34.3561595 21.4092596,34.3699259 21.8198228,34.3699259 C22.8024068,34.3699259 23.962594,33.7412637 24.8436905,32.9841158 C24.9174996,32.9244617 24.9474845,33.0139428 24.9474845,33.0713025 C24.9474845,33.3190964 24.816012,33.4659372 24.712218,33.6265443 C24.6084239,33.7871514 24.6545546,33.8445111 24.6084239,33.9179315 C24.5346147,34.0349453 24.3293331,34.1817861 24.3293331,34.3263325 C24.3293331,34.42958 24.4308207,34.3859866 24.4308207,34.4869396 C24.4308207,34.7347335 24.225539,34.938934 24.0940665,35.1293682 C23.7411666,35.6249559 22.7885676,36.4279915 21.5983955,36.4279915 C19.9538359,36.4279915 18.5745278,34.938934 18.5745278,33.1860219 C18.5745278,31.4331098 20.5558416,29.3750441 22.3756978,29.3750441 C23.5935484,29.3750441 24.6660872,30.031239 24.6660872,31.2426756 C24.6660872,31.6373103 24.548454,31.9286975 24.3431723,32.2361454 L24.3431723,32.2384398 Z M20.747284,31.9745852 L20.9664048,31.9745852 C21.6122347,31.9745852 22.4056828,31.9447582 23.079191,31.8002118 C23.0930303,31.7428521 23.109176,31.683198 23.109176,31.5960113 C23.109176,31.2885634 22.9777035,30.9237557 22.419522,30.9237557 C21.6860438,30.9237557 21.1140231,31.3918108 20.747284,31.9745852 L20.747284,31.9745852 Z M23.3006184,26.0183551 C23.3882668,25.9885281 23.56587,25.9609954 23.6811967,25.9609954 C23.8564934,25.9609954 24.0479358,26.1078362 24.1794083,26.1651959 C24.5161625,26.2386163 24.7675748,26.3395694 24.7675748,26.8076244 C24.781414,26.9384045 24.548454,26.9980586 24.3270266,27.1724321 C23.7111817,27.6680198 23.0930303,28.2530886 22.6086579,28.7922697 C22.5786729,28.8220967 22.5348487,28.8656901 22.4472004,28.8656901 C22.4333612,28.8656901 22.4033762,28.8656901 22.389537,28.8519238 C21.9051646,28.705083 21.669898,28.8220967 21.669898,28.5169432 L21.669898,28.4733498 C21.669898,28.2989764 21.4046465,28.1521355 21.4046465,27.918108 L21.4046465,27.9043417 C21.536119,27.47988 22.945412,26.1376633 23.2983119,26.0206495 L23.3006184,26.0183551 Z" id="Shape"></path>
                    <path d="M27.2194217,32.1374868 C27.2194217,32.7202612 27.6161457,33.1883163 28.2020057,33.1883163 C28.9354839,33.1883163 29.5374896,32.7799153 30.0218619,32.2980939 C30.0956711,32.2246735 30.1971586,32.1971408 30.2571285,32.1237204 L30.5938827,31.6854924 C30.651546,31.612072 30.7253552,31.6258383 30.7691793,31.5684786 C30.9167976,31.3941052 31.1059335,31.1164843 31.1659034,31.1164843 C31.1797426,31.1164843 31.2235668,31.3069185 31.2235668,31.3344511 C31.2235668,31.4216378 31.1359184,31.4950582 31.1197727,31.641899 C31.0897877,31.9929403 30.8406819,32.0503 30.810697,32.2705612 C30.7668728,32.5619485 30.8406819,32.7822097 30.6192546,33.204377 C30.5754304,33.2915637 30.5615912,33.4384045 30.5016213,33.5554183 C30.4439579,33.6724321 30.2363697,33.8903989 30.1487214,33.9638193 C29.4890523,34.5626544 28.8432225,35.0307095 27.8583319,35.0307095 C26.3175664,35.0307095 25.406485,33.7596188 25.406485,32.4908224 C25.406485,29.6595482 28.1651011,28.184257 29.7358516,28.184257 C30.2340632,28.184257 30.4116664,28.4756442 30.6008023,28.8840452 C30.6446264,28.9849982 30.7922447,28.9574656 30.8937322,29.0584186 C31.0413505,29.2052594 31.0851747,29.4232263 31.0851747,29.5998941 C31.0851747,29.8637487 30.9537022,29.9647017 30.8199231,30.1689022 C30.6146415,30.4901165 30.2179174,30.7815037 29.7496908,30.9122838 C29.5144242,30.9719379 29.4706,31.0728909 29.2653184,31.0866573 C29.1776701,31.0866573 29.0162126,31.173844 28.9124185,31.173844 C28.8685944,31.173844 28.7648003,31.1440169 28.7648003,31.0705965 C28.7648003,30.9834098 28.8224636,30.866396 28.8224636,30.806742 C28.8224636,30.7057889 28.7186696,30.6461348 28.7186696,30.4419343 C28.7186696,30.3685139 28.7486545,30.2950935 28.8063179,30.2377339 C28.8501421,30.1941405 28.9377904,30.1207201 28.9816146,30.019767 C27.9828848,30.5153547 27.2055825,31.2610307 27.2055825,32.1374868 L27.2194217,32.1374868 Z" id="Path"></path>
                    <path d="M35.4214608,34.3859866 C34.9509276,34.8379809 34.3350827,35.1156018 33.5716196,35.1156018 C32.3975932,35.1156018 31.63413,34.2552065 31.63413,33.1309566 C31.63413,31.4078715 33.8806953,30.7516767 35.2600033,30.7516767 C35.2300184,30.0220614 34.9947518,29.7444405 34.5703493,29.7444405 C34.2612736,29.7444405 33.8368711,29.8912813 33.8368711,30.0082951 C33.8368711,30.0954818 33.8945345,30.1390752 33.8945345,30.2124956 C33.8945345,30.285916 33.629283,30.3432757 33.336353,30.4304624 C32.9257897,30.5474762 32.5429049,30.7516767 32.4252716,30.7516767 C32.2499749,30.7516767 32.2338292,30.5910695 32.1461808,30.5038828 C32.0423868,30.4006354 32.0723717,30.2996823 32.0723717,30.1689022 C32.0723717,30.0082951 32.0423868,29.8614543 32.0423868,29.8178609 C32.0423868,29.54024 32.2176834,29.2190258 32.3952866,28.9849982 C32.909644,28.2989764 33.7307705,27.9915284 34.6856761,27.9915284 C35.6405816,27.9915284 36.8422865,28.8978115 37.1813472,29.9050477 C37.2390105,30.0954818 37.2390105,30.8250971 37.2390105,30.9719379 C37.2390105,31.6877868 37.1813472,32.5917755 37.1813472,33.1470173 C37.1813472,33.4980586 37.1513622,34.6498412 36.844593,34.9435228 C36.7569447,35.0307095 36.6254722,35.0169432 36.4916931,35.0605365 C36.387899,35.0903636 36.3602206,35.1339569 36.2425873,35.1913166 C36.184924,35.2211437 36.0073207,35.23491 35.8458633,35.23491 C35.7582149,35.23491 35.5967575,35.0880692 35.5967575,35.0008825 C35.5967575,34.8402753 35.465285,34.5764208 35.4214608,34.388281 L35.4214608,34.3859866 Z M35.2899883,31.8598659 C34.5565101,31.8896929 33.4562928,32.4724673 33.4562928,33.0873632 C33.4562928,33.2915637 33.6754137,33.3512178 33.9406652,33.3512178 C34.5726559,33.3512178 35.0270433,33.0735969 35.3338125,32.8992234 L35.2899883,31.8621603 L35.2899883,31.8598659 Z" id="Shape"></path>
                    <path d="M40.0575965,29.5975997 C40.4381748,29.1157783 41.4807287,27.918108 42.025071,27.918108 C42.1865285,27.918108 42.3618252,28.1957289 42.3918101,28.356336 C42.4056493,28.4435228 42.3918101,28.5169432 42.3918101,28.6201906 C42.3918101,28.7509707 42.6847401,28.7945641 42.7008858,28.9276385 C42.7147251,29.0285916 42.7885342,29.131839 42.7885342,29.2052594 C42.7885342,29.3521002 42.5532676,29.7008472 42.45178,29.7903283 C41.792111,30.3295094 41.4392111,30.3731027 40.2790239,31.3092128 C40.2928631,31.5271797 40.2928631,31.7772679 40.2928631,32.0250618 C40.2928631,32.9588775 40.189069,33.500353 40.189069,34.4639958 C40.189069,34.6681963 40.0852749,34.6980233 40.0575965,34.755383 C40.0137724,34.8425697 39.8223299,34.8723968 39.6170483,35.0330039 C39.5870633,35.0628309 39.4855758,35.1064243 39.3979275,35.1064243 C39.2503092,35.1064243 39.1488217,34.9458172 39.1049975,34.9458172 C38.8558917,34.9159901 38.6344643,34.8723968 38.516831,34.7117896 C38.3692128,34.5213555 38.3692128,34.0831274 38.3253886,33.8353336 C38.2954036,33.6311331 38.2815644,33.4108719 38.2815644,32.5504765 C38.2815644,31.6006001 38.2677252,29.9945288 38.5606552,29.1203671 C38.6483035,28.8427462 38.7959218,28.6821391 38.9573792,28.5651253 C39.0750125,28.4779386 39.1049975,28.3471585 39.1765001,28.3471585 C39.3079726,28.3471585 39.4417516,28.3471585 39.5132542,28.3769855 C39.6308875,28.4205789 39.6747117,28.5949523 39.7185359,28.7119661 C39.7761992,28.8588069 39.7761992,28.8427462 39.8500084,28.8289799 C39.9076717,28.8152136 39.9676417,28.9758207 40.025305,29.4140487 C40.025305,29.4714084 40.0391442,29.5310625 40.05529,29.6044829 L40.0575965,29.5975997 Z" id="Path"></path>
                    <path d="M43.593515,27.4661137 C43.2406151,27.4661137 42.9615243,26.7938581 42.9615243,26.5162372 C42.9615243,25.8302153 43.826475,25.070773 44.2393448,25.070773 C44.3869631,25.070773 44.4584657,25.1143664 44.5184356,25.1579598 C44.6499081,25.2589128 44.709878,25.4654077 44.8551897,25.5365337 C45.3534013,25.7843276 45.4133712,25.8279209 45.4133712,26.3831627 C45.4133712,26.5139428 45.3257229,26.5437699 45.3257229,26.6309566 C45.3257229,26.7479703 45.0466321,27.2297917 44.7975263,27.3743382 C44.7398629,27.4041652 44.1655357,27.6083657 44.1078723,27.6083657 C43.9602541,27.6083657 43.9164299,27.4339922 43.8287815,27.4339922 C43.7711182,27.4339922 43.6811633,27.4638193 43.593515,27.4638193 L43.593515,27.4661137 Z M43.5358516,28.7372044 C43.5796757,28.693611 44.1378573,28.4297564 44.2116664,28.4297564 C44.3592846,28.4297564 44.446933,28.4595835 44.5207421,28.5903636 C44.5645663,28.6775503 44.6683604,28.693611 44.7398629,28.7372044 C44.9313054,28.8542181 44.9889687,29.7742676 45.0051145,29.9784681 C45.0350994,30.5910695 45.0350994,31.0591246 45.0350994,31.8621603 C45.0350994,32.825803 45.0051145,33.3076244 44.9912753,33.4384045 C44.9774361,33.6724321 44.8874812,33.8766325 44.8874812,34.0670667 C44.8874812,34.1680198 44.843657,34.4915284 44.7121845,34.6223085 C44.5945512,34.7393223 44.3454454,34.8999294 44.1978272,34.8999294 C44.0063848,34.8999294 43.9187364,34.7530886 43.8172489,34.6360748 C43.7595855,34.5626544 43.6696306,34.489234 43.598128,34.489234 C43.5543039,34.489234 43.5243189,34.5190611 43.4943339,34.5190611 C43.4205248,34.5190611 43.3190373,34.0945994 43.2890523,33.8032121 C43.201404,33.0598306 43.201404,32.1971408 43.201404,31.3941052 C43.201404,30.8388634 43.1137556,29.102012 43.5381581,28.7372044 L43.5358516,28.7372044 Z" id="Shape"></path>
                    <path d="M48.7301688,29.9050477 C48.6563597,30.7379103 48.5986963,31.540946 48.5986963,31.8323332 C48.5986963,32.3003883 48.6863446,32.8693964 49.3460137,32.8693964 C50.0933311,32.8693964 50.9306034,32.0663607 51.4011366,31.4973526 C51.4749457,31.4101659 51.5187698,31.4537593 51.5049306,31.511119 C51.4311215,31.8185669 51.2858098,32.1397812 51.2258399,32.2843276 C51.1820157,32.387575 51.269664,32.3715143 51.2396791,32.4885281 C51.1520308,32.8235086 50.9905733,32.9267561 50.87294,33.1883163 C50.8291158,33.2915637 50.8591008,33.4797035 50.8152766,33.6403106 C50.6238342,34.3561595 49.597426,35.0261207 48.9216112,35.0261207 C48.5986963,35.0261207 48.188133,34.8517473 47.9667057,34.6750794 C47.0579308,33.9454642 46.7626943,33.1286622 46.7626943,32.0181786 C46.7626943,31.3619838 46.8065185,30.7333216 46.8664884,30.1046594 C46.6012368,30.1620191 46.3382918,30.2790328 46.2206585,30.2790328 C46.0730403,30.2790328 46.0592011,30.1620191 45.955407,30.1482527 C45.7362861,30.1184257 45.7801103,30.061066 45.7201404,29.9738793 C45.6025071,29.7995058 45.3672405,29.8729262 45.3672405,29.551712 C45.3672405,29.4209319 45.4548889,29.2740911 45.4548889,29.173138 C45.4548889,28.9391105 45.5425372,28.73491 45.6463313,28.6339569 C45.7201404,28.5605365 46.2621762,28.3701024 46.3659702,28.3701024 C46.5135885,28.3701024 46.675046,28.2829156 46.8503426,28.2530886 L46.8941668,28.2530886 L46.9679759,28.2232616 L47.0118001,28.2232616 C47.0256393,28.0626544 47.0256393,27.9020473 47.0256393,27.7414402 C47.0256393,27.551006 47.1571118,27.6106601 47.1571118,27.4936463 C47.170951,27.2160254 47.2309209,26.734204 47.3047301,26.6607836 C47.3485542,26.6171903 47.334715,26.5437699 47.3485542,26.4703495 C47.3623934,26.3969291 47.4800267,26.3395694 47.5238509,26.2799153 C47.59766,26.1927286 47.6553234,26.0619485 47.7152933,26.0619485 L47.7452783,26.0619485 L47.7891025,26.0917755 L47.8190874,26.0917755 C47.8928965,26.1055418 47.9367207,25.917402 48.084339,25.8738087 C48.2158115,25.8302153 48.3196055,25.6397812 48.4649173,25.6397812 C48.6263747,25.6397812 48.7301688,25.8439816 48.744008,25.9311684 C48.7578472,26.0183551 48.7578472,26.1216025 48.8016714,26.1950229 C48.9193047,26.4129898 49.0807622,26.3556301 49.0807622,26.663078 C49.0807622,27.071479 48.9931138,27.4661137 48.9331439,27.8745146 C48.9193047,27.9043417 48.9193047,27.9341687 48.9193047,27.9777621 C49.5651345,27.9204024 50.153301,27.8745146 50.5638643,27.8745146 C50.8129701,27.8745146 51.4449607,27.9915284 51.4449607,28.3425697 C51.4449607,28.5169432 51.3872973,28.5903636 51.3872973,28.7670314 C51.3872973,28.9849982 51.5349156,29.1180727 51.5349156,29.2924462 C51.5349156,29.3360395 51.5049306,29.5838334 51.5049306,29.5998941 C51.5049306,29.7008472 51.3434732,29.7306742 51.2258399,29.7306742 C50.5223466,29.7605012 49.4797927,29.847688 48.9515962,29.8912813 C48.8639479,29.9050477 48.8039779,29.9050477 48.7324753,29.9050477 L48.7301688,29.9050477 Z" id="Path"></path>
                    <path d="M57.3750627,30.9122838 C57.3750627,30.9994705 57.4188868,31.0728909 57.4188868,31.2334981 C57.4188868,31.3941052 57.3012536,31.4675256 57.199766,31.540946 C57.1421026,31.5845394 57.0959719,31.6717261 57.0083236,31.7015531 C56.9944844,31.7015531 56.9783386,31.7153194 56.9506602,31.7153194 L56.8630119,31.7451465 C56.8330269,31.7451465 56.8191877,31.7451465 56.8053485,31.7589128 C56.1895036,31.9768796 55.1031255,32.0801271 54.0305867,32.0801271 C53.8991142,32.0801271 53.6638476,32.0938934 53.3847568,32.0801271 C53.4424202,33.0300035 54.4411499,33.0437699 54.8517132,33.0437699 C55.8342972,33.0437699 56.9944844,32.4151077 57.8755808,31.6579598 C57.9493899,31.5983057 57.9793749,31.6877868 57.9793749,31.7451465 C57.9793749,31.9929403 57.8479024,32.1397812 57.7441083,32.3003883 C57.6403142,32.4609954 57.6864449,32.5183551 57.6403142,32.5917755 C57.5665051,32.7087893 57.3612235,32.8556301 57.3612235,33.0001765 C57.3612235,33.1034239 57.4650175,33.0598306 57.4650175,33.1607836 C57.4650175,33.4085775 57.2597359,33.612778 57.1282634,33.8032121 C56.7753635,34.2987999 55.8227645,35.1018355 54.6325923,35.1018355 C52.9880328,35.1018355 51.6087247,33.612778 51.6087247,31.8598659 C51.6087247,30.1069538 53.5900384,28.0488881 55.4098947,28.0488881 C56.6277453,28.0488881 57.7002841,28.705083 57.7002841,29.9165196 C57.7002841,30.3111543 57.5826508,30.6025415 57.3773692,30.9099894 L57.3750627,30.9122838 Z M53.7791743,30.6484292 L53.9982952,30.6484292 C54.644125,30.6484292 55.4375731,30.6186022 56.1110814,30.4740558 C56.1249206,30.4166961 56.1410664,30.357042 56.1410664,30.2698553 C56.1410664,29.9624073 56.0095938,29.5975997 55.4514123,29.5975997 C54.7179341,29.5975997 54.1459134,30.0656548 53.7791743,30.6484292 L53.7791743,30.6484292 Z M56.3325088,24.6921991 C56.4201571,24.662372 56.5977603,24.6348394 56.7130871,24.6348394 C56.8883838,24.6348394 57.0798262,24.7816802 57.2112987,24.8390399 C57.5480528,24.9124603 57.7994652,25.0134133 57.7994652,25.4814684 C57.8133044,25.6122485 57.5803443,25.6719026 57.3589169,25.846276 C56.743072,26.3418637 56.1272271,26.9269326 55.6428548,27.4661137 C55.6128698,27.4959407 55.5690456,27.5395341 55.4813973,27.5395341 C55.4675581,27.5395341 55.4375731,27.5395341 55.4237339,27.5257677 C54.9393615,27.3789269 54.7040949,27.4959407 54.7040949,27.1907872 L54.7040949,27.1471938 C54.7040949,26.9728203 54.4388434,26.8259795 54.4388434,26.591952 L54.4388434,26.5781857 C54.5703159,26.153724 55.9796089,24.8115072 56.3325088,24.6944935 L56.3325088,24.6921991 Z" id="Shape"></path>
                    <path d="M1.94902223,46.3626897 C2.64559585,45.5160607 3.42059168,44.9470526 4.28554237,44.9470526 C4.8575631,44.9470526 5.36961391,45.4862337 5.63255892,46.1011295 C6.34527829,45.3783975 7.00956042,44.8988705 7.66000334,44.8988705 C8.07748621,44.8988705 8.46498412,45.0824215 8.76022063,45.3761031 C9.36453284,45.9772326 9.28611065,46.9316978 9.28611065,47.7163784 C9.28611065,48.7029651 9.23997994,49.7331451 9.23997994,50.7816802 C9.23997994,51.2887399 8.94704997,51.7361454 8.38886846,51.7361454 C8.1420692,51.7361454 8.1420692,51.5663607 7.97138559,51.4585245 C7.8929634,51.4126368 7.81684774,51.4424638 7.73842554,51.4424638 C7.67614909,51.4424638 7.58388768,51.3965761 7.53775698,51.3506883 C7.22868126,51.0432404 7.22868126,50.010766 7.22868126,49.3958701 C7.22868126,48.826862 7.35323416,47.856336 7.35323416,47.4869396 C7.35323416,47.2552065 7.29095771,46.9638193 6.981882,46.9638193 C6.73508273,46.9638193 6.20688618,47.4112248 5.8216948,47.796682 C5.80554906,48.5354748 5.75941835,49.152665 5.6971419,49.9511119 C5.66715694,50.2906813 5.6510112,50.7679139 5.61871971,51.1212496 C5.60257396,51.2749735 5.55644326,51.3529827 5.32578974,51.4286975 C5.20123684,51.4745852 5.15510613,51.5525944 5.06284473,51.5525944 C4.90830687,51.5525944 4.78375397,51.5067067 4.75376901,51.5067067 C4.59923115,51.5227674 4.55310045,51.7384398 4.3662711,51.7384398 C3.68584322,51.7384398 3.65355173,51.2910342 3.65355173,50.7059654 C3.65355173,49.8891634 3.80808959,49.2903283 3.80808959,47.3194493 C3.80808959,47.0578892 3.77810463,46.9500529 3.68353669,46.9500529 C3.31218452,46.9500529 2.13585158,47.6590187 1.93518302,48.6134839 L1.93518302,49.2283798 C1.93518302,49.5060007 1.96516798,50.7839746 1.96516798,51.0455348 C1.96516798,51.1235439 1.85676082,51.4608189 1.79448437,51.5067067 C1.53153936,51.6902577 1.2847401,51.8141546 1.081765,51.8141546 C0.94337289,51.8141546 0.864950694,51.6764914 0.75654354,51.6764914 C0.461307037,51.6764914 0.415176333,51.6306036 0.246799265,51.6145429 C0.108407154,51.5984822 0.0922614073,51.4608189 0.0461307037,50.9514649 C0.0161457463,50.5820685 0,50.1805507 0,49.1503706 C0,48.7350865 0.1245529,45.4242852 0.387497911,45.2246735 C0.449774361,45.1787857 0.465920107,45.0548888 0.604312218,45.0388281 C0.682734414,45.0227674 0.728865118,44.9470526 0.804980779,44.9470526 C0.929533679,44.9470526 1.00564934,45.0548888 1.14634799,45.132898 C1.22477018,45.1787857 1.31703159,45.132898 1.36316229,45.132898 C1.42543874,45.132898 1.5015544,45.1787857 1.51770015,45.1787857 C2.02744443,45.3026827 1.99745947,45.7477939 1.96747451,46.1951994 C1.96747451,46.2250265 1.95132876,46.2869749 1.95132876,46.3649841 L1.94902223,46.3626897 Z" id="Path"></path>
                    <path d="M16.2195554,47.5190611 C16.2195554,47.6108366 16.2656861,47.6888457 16.2656861,47.8586304 C16.2656861,48.0284151 16.1411332,48.1041299 16.0327261,48.1821391 C15.9704496,48.2280268 15.9243189,48.3198023 15.8320575,48.3519238 C15.8159117,48.3519238 15.8020725,48.3679845 15.769781,48.3679845 L15.6775196,48.3978115 C15.6475347,48.3978115 15.6313889,48.3978115 15.6152432,48.4138722 C14.9648003,48.6456054 13.8184523,48.7534416 12.6905566,48.7534416 C12.5521645,48.7534416 12.3030587,48.7695023 12.0101287,48.7534416 C12.0724051,49.7537946 13.1241852,49.7698553 13.5578138,49.7698553 C14.5957546,49.7698553 15.8182183,49.1067773 16.747752,48.306036 C16.8261742,48.2440875 16.8561591,48.335863 16.8561591,48.3978115 C16.8561591,48.6593717 16.717767,48.8130957 16.6093599,48.9828803 C16.5009527,49.152665 16.5470834,49.2146135 16.5009527,49.2903283 C16.4225305,49.4142252 16.2057162,49.5679492 16.2057162,49.7216731 C16.2057162,49.8295094 16.3141233,49.7836216 16.3141233,49.8914578 C16.3141233,50.153018 16.097309,50.3686904 15.9589169,50.5683022 C15.5875648,51.0914225 14.5819154,51.9380515 13.3271603,51.9380515 C11.5926458,51.9380515 10.1372221,50.366396 10.1372221,48.519414 C10.1372221,46.6724321 12.226943,44.499647 14.1459803,44.499647 C15.4307204,44.499647 16.5609226,45.1925521 16.5609226,46.4705259 C16.5609226,46.8858101 16.4363697,47.193258 16.2195554,47.5167667 L16.2195554,47.5190611 Z M12.4276116,47.2414402 L12.6605716,47.2414402 C13.3409995,47.2414402 14.1782718,47.2116131 14.8886846,47.0555948 C14.9048304,46.9936463 14.9186696,46.9316978 14.9186696,46.8399223 C14.9186696,46.5164137 14.7802775,46.1309566 14.192111,46.1309566 C13.4171152,46.1309566 12.8151095,46.6242499 12.4276116,47.2391458 L12.4276116,47.2414402 Z" id="Shape"></path>
                    <path d="M19.1903727,46.2709142 C19.6401471,45.6399576 20.2283136,45.0227674 20.58352,44.9768796 C20.8303192,44.9470526 20.9848571,44.7451465 21.4507772,44.7451465 C23.2452616,44.7451465 23.2452616,47.6544299 23.2452616,49.1021885 C23.2452616,49.5014119 23.2614073,50.2883869 23.1207087,51.011119 C23.0907237,51.1809036 23.0422865,51.2107307 22.9500251,51.2726791 C22.8877486,51.3025062 22.8254722,51.3506883 22.7032258,51.3506883 C22.6409494,51.3506883 22.5486879,51.3346276 22.5025572,51.3346276 C22.3780043,51.3346276 22.3641651,51.3965761 22.2857429,51.5044123 C22.2234665,51.5961878 22.0389437,51.5961878 21.8682601,51.5961878 C21.2962393,51.5961878 21.2800936,51.1487822 21.2800936,50.6715496 C21.2800936,50.1644899 21.372355,49.6253089 21.372355,48.5469467 C21.372355,47.7622661 21.2339629,47.021179 20.8003343,47.021179 C20.4289821,47.021179 19.9953535,47.2987999 19.3910413,48.0995411 C19.4210262,48.714437 19.407187,49.2536181 19.407187,49.4394635 C19.407187,50.040593 19.3610563,50.4558772 19.3449106,50.7334981 C19.3287648,50.9491705 19.2826341,50.9950582 19.2826341,51.0570067 C19.2826341,51.1487822 19.3449106,51.1648429 19.3449106,51.2887399 C19.3449106,51.5342393 19.2664884,51.7499118 18.9574127,51.7499118 C18.7244526,51.7499118 18.7106134,51.6719026 18.5860605,51.6719026 C18.4937991,51.6719026 18.4776534,51.7957995 18.3992312,51.7957995 C18.3692462,51.7957995 17.8410496,51.6260148 17.8110647,51.6099541 C17.5642654,51.4562301 17.4696975,50.6853159 17.4696975,48.9140487 C17.4696975,47.4662902 17.4996824,45.7730321 17.7487882,45.2177903 C17.8110647,45.0801271 18.0740097,45.1260148 18.1985626,45.1099541 C18.3853919,45.0778327 18.3531005,44.9562301 18.4776534,44.8942817 C18.5076383,44.878221 18.6321912,44.8644546 18.6783219,44.8644546 C18.7567441,44.8644546 18.8028748,44.9562301 18.8951362,45.0181786 C18.9873976,45.0801271 19.0335283,45.2636781 19.0958048,45.3416873 C19.1580812,45.4196964 19.1257897,45.6812566 19.1419355,45.7890928 C19.1419355,45.9129898 19.1580812,46.0827744 19.1880662,46.2663255 L19.1903727,46.2709142 Z" id="Path"></path>
                    <path d="M24.4054488,49.2582068 C24.4677252,49.2123191 24.5761324,49.2582068 24.6384088,49.1664313 C24.716831,49.0425344 25.0420525,48.8750441 25.1343139,48.8750441 C25.1804446,48.8750441 25.2265753,48.9048712 25.2265753,48.9668196 C25.2265753,49.0287681 25.2104296,49.1366043 25.2104296,49.3522767 C25.2104296,49.7216731 25.6602039,49.9075185 26.0154103,49.9075185 C26.4167475,49.9075185 26.7742604,49.8616308 27.1755975,49.7537946 C27.3462811,49.7079068 27.1917433,49.6918461 27.3624269,49.6000706 C27.5953869,49.4624073 27.9505933,49.4302859 27.9505933,49.1388987 C27.9505933,48.969114 27.8122012,48.9232263 27.6253719,48.8933992 C26.7581147,48.7236145 25.2404145,48.6777268 24.746816,48.3083304 C24.4054488,48.0467702 24.1747953,47.4754677 24.1747953,47.0303565 C24.1747953,45.8143311 25.7063346,45.0755383 26.652014,44.6740205 C27.0533512,44.5042358 27.7360856,44.2725026 28.2458299,44.2725026 C28.4326592,44.2725026 28.7878656,44.3803389 28.9585492,44.4721144 C29.0508106,44.5180021 29.0508106,44.7038475 29.1130871,44.795623 C29.23764,44.9814684 29.3460471,44.8736322 29.4383085,44.949347 C29.5467157,45.0411225 29.7012536,45.2269679 29.7012536,45.4885281 C29.7012536,45.7340275 29.6712686,45.9359336 29.4682935,46.1194846 C28.9424035,46.612778 28.0751462,46.9202259 27.7037941,46.9202259 C27.5953869,46.9202259 27.5953869,46.8743382 27.5953869,46.8123897 C27.5953869,46.7504412 27.6253719,46.7045535 27.6253719,46.5508295 C27.6253719,46.4728203 27.7037941,46.3810448 27.7037941,46.3190964 C27.7037941,46.2571479 27.5331105,46.2410872 27.5031255,46.2410872 C27.1317734,46.2410872 25.893164,46.8422167 25.893164,47.0418285 C25.893164,47.0877162 25.9554404,47.1198376 26.0315561,47.133604 C27.4869798,47.3951641 29.7612235,46.9339922 29.7612235,49.2283798 C29.7612235,50.9376986 27.763764,52 26.1999331,52 C25.1158616,52 23.9718202,51.4768796 23.9718202,50.3205083 C23.9718202,49.8593364 24.2347652,49.4119308 24.4054488,49.2582068 L24.4054488,49.2582068 Z" id="Path"></path>
                    <path d="M33.4147752,45.0571832 C33.336353,45.9359336 33.2763831,46.7825627 33.2763831,47.0900106 C33.2763831,47.5833039 33.3686445,48.1844335 34.0652181,48.1844335 C34.8540532,48.1844335 35.7374561,47.3378044 36.2333612,46.7366749 C36.3117834,46.6448994 36.3579141,46.6907872 36.3417683,46.7527356 C36.2633461,47.0762443 36.1088083,47.4158136 36.0488384,47.5695376 C36.0027077,47.6773738 36.0949691,47.6613131 36.0649841,47.78521 C35.9727227,48.1385457 35.8020391,48.2463819 35.6774862,48.5240028 C35.6313555,48.631839 35.6613405,48.8314508 35.6152098,49.0012354 C35.4145412,49.756089 34.3304697,50.4650547 33.6177503,50.4650547 C33.2763831,50.4650547 32.8427545,50.2792093 32.612101,50.0956583 C31.6525823,49.3247441 31.3435066,48.4643487 31.3435066,47.2942111 C31.3435066,46.601306 31.3896373,45.938228 31.4519138,45.2774444 C31.172823,45.3393929 30.8937322,45.4632898 30.7714859,45.4632898 C30.616948,45.4632898 30.6008023,45.3393929 30.4923951,45.3256265 C30.2594351,45.2957995 30.3055658,45.233851 30.2455959,45.1397812 C30.121043,44.9562301 29.8742437,45.0319449 29.8742437,44.6923756 C29.8742437,44.5547123 29.9665051,44.398694 29.9665051,44.2908577 C29.9665051,44.0453583 30.0587665,43.8296858 30.1671737,43.7218496 C30.2455959,43.6438405 30.8176166,43.4442287 30.9260237,43.4442287 C31.0805616,43.4442287 31.2512452,43.3524532 31.435768,43.3203318 L31.4818987,43.3203318 L31.5603209,43.2905048 L31.6064516,43.2905048 C31.6225974,43.1207201 31.6225974,42.9509354 31.6225974,42.7834451 C31.6225974,42.5838334 31.7609895,42.6457819 31.7609895,42.5218849 C31.7771352,42.2304977 31.8394117,41.7211437 31.9155273,41.6431345 C31.961658,41.5972467 31.9455123,41.5192376 31.961658,41.4435228 C31.9778038,41.3655136 32.1000501,41.3058595 32.1484874,41.243911 C32.2269096,41.1521355 32.2868795,41.0121779 32.3491559,41.0121779 L32.3791409,41.0121779 L32.4252716,41.0420049 L32.4552566,41.0420049 C32.5336788,41.0580657 32.5798095,40.8561595 32.7343473,40.8102718 C32.8727394,40.764384 32.9811466,40.5647723 33.1356844,40.5647723 C33.306368,40.5647723 33.4147752,40.7804448 33.4309209,40.8722203 C33.4470667,40.9639958 33.4470667,41.071832 33.4931974,41.1498412 C33.6177503,41.3815743 33.7884339,41.3196258 33.7884339,41.6431345 C33.7884339,42.0744794 33.6961725,42.4897635 33.633896,42.9211084 C33.6177503,42.9532298 33.6177503,42.9830568 33.6177503,43.0289446 C34.2981782,42.9669961 34.9186361,42.9211084 35.3522648,42.9211084 C35.6152098,42.9211084 36.2817984,43.0450053 36.2817984,43.4144017 C36.2817984,43.6002471 36.219522,43.6759619 36.219522,43.8618073 C36.219522,44.0935404 36.3740598,44.2312037 36.3740598,44.4170491 C36.3740598,44.4629368 36.3440749,44.724497 36.3440749,44.7405577 C36.3440749,44.8483939 36.1733913,44.878221 36.0511449,44.878221 C35.3084406,44.908048 34.2082233,45.0021179 33.6523483,45.0480056 C33.5600869,45.0640664 33.4978105,45.0640664 33.4193883,45.0640664 L33.4147752,45.0571832 Z" id="Path"></path>
                    <path d="M38.7705499,44.7336745 C39.171887,44.2266149 40.2721043,42.9624073 40.844125,42.9624073 C41.0148086,42.9624073 41.1993314,43.2537946 41.2316229,43.4235792 C41.2477687,43.5153547 41.2316229,43.5933639 41.2316229,43.7012001 C41.2316229,43.8388634 41.5406986,43.8847511 41.5568444,44.0247088 C41.5729901,44.132545 41.6491058,44.2403812 41.6491058,44.316096 C41.6491058,44.46982 41.4023065,44.8392164 41.2938994,44.9332863 C40.5973258,45.5022944 40.2259736,45.5481821 39.0035099,46.5347688 C39.0196557,46.7665019 39.0196557,47.0280621 39.0196557,47.2896223 C39.0196557,48.276209 38.9112485,48.8452171 38.9112485,49.8616308 C38.9112485,50.0773032 38.8028414,50.1071303 38.7728564,50.1690787 C38.7267257,50.2608542 38.5260572,50.2929756 38.3092429,50.4604659 C38.2792579,50.490293 38.1708507,50.5384751 38.0762828,50.5384751 C37.9217449,50.5384751 37.8133378,50.3686904 37.7672071,50.3686904 C37.5042621,50.3388634 37.271302,50.2906813 37.1490557,50.123191 C36.9945178,49.9235792 36.9945178,49.460113 36.9483871,49.1985528 C36.9184021,48.9828803 36.9022564,48.7511472 36.9022564,47.8425697 C36.9022564,46.8422167 36.8861106,45.1466643 37.1951864,44.2243205 C37.2874478,43.9329333 37.4419856,43.7631486 37.6126692,43.6392517 C37.7372221,43.5474762 37.7672071,43.4075185 37.8456293,43.4075185 C37.9840214,43.4075185 38.12472,43.4075185 38.2008357,43.43964 C38.3253886,43.4855277 38.3715193,43.6713731 38.41765,43.7929756 C38.4799265,43.9466996 38.4799265,43.9306389 38.5560421,43.9168726 C38.6183186,43.9008119 38.680595,44.0705965 38.7428715,44.5340628 C38.7428715,44.5960113 38.7590172,44.6579598 38.7728564,44.7336745 L38.7705499,44.7336745 Z" id="Path"></path>
                    <path d="M45.9369547,46.9202259 C45.9531005,46.2112601 45.9830854,45.9497 45.9992312,45.7500882 C46.0453619,45.1810801 45.920809,44.4721144 46.1998997,43.9168726 C46.3083069,43.6851394 46.416714,43.7333216 46.5251212,43.5773032 C46.6173826,43.43964 46.7257897,43.315743 46.9126191,43.315743 C47.0671569,43.315743 47.2539863,43.4855277 47.3462477,43.4855277 C47.4846398,43.4855277 47.7475848,43.6392517 47.7475848,43.7631486 C47.7475848,43.8250971 47.8721377,43.8870455 47.8721377,44.0545358 C47.8721377,44.0843629 47.9344142,44.1164843 47.9505599,44.1463113 C47.9805449,44.2243205 47.9805449,44.4858807 47.9805449,44.7772679 C47.9805449,45.6858454 47.855992,46.6104836 47.855992,48.4574656 C47.855992,48.5951288 47.8859769,49.3821038 47.7475848,49.6115425 C47.6853084,49.7193788 47.6853084,49.7950935 47.6391777,49.857042 C47.5469163,49.9648782 47.4846398,50.010766 47.3600869,50.010766 C47.330102,50.010766 47.2816647,49.9947053 47.2216948,49.9947053 C47.1617249,49.9947053 47.0833027,50.194317 46.9887347,50.2103777 C46.8341969,50.2402047 46.7419355,50.2723262 46.6473675,50.2723262 C46.3682768,50.2723262 46.1376233,49.8409813 46.0292161,49.5174726 C45.9507939,49.3178609 45.9369547,49.1021885 45.9369547,48.8865161 C45.1781046,50.0864808 44.5276617,50.3021532 43.8172489,50.3021532 C42.4241016,50.3021532 41.8359351,48.5010589 41.8359351,47.3309213 C41.8359351,46.1607836 41.9443423,45.1283092 42.2234331,44.2197317 C42.3156945,43.8962231 42.5325088,43.357042 42.6870466,43.357042 C42.7493231,43.357042 42.7654688,43.386869 42.8577302,43.386869 C42.9361524,43.386869 42.9361524,43.3409813 43.0745445,43.3409813 C43.136821,43.3409813 43.166806,43.2790328 43.2452281,43.2790328 C43.4620425,43.2790328 43.399766,43.4488175 43.7249875,43.4786445 C43.8956711,43.5084716 43.9418018,44.2793858 43.9418018,44.4331098 C43.9418018,45.357748 43.7249875,46.2800918 43.7711182,47.1886693 C43.8011031,47.8035651 43.9717867,48.1270738 44.4377068,48.1270738 C44.9635969,48.1270738 45.6140398,47.4800565 45.9392612,46.9110484 L45.9369547,46.9202259 Z" id="Path"></path>
                    <path d="M54.837874,47.1680198 C54.837874,47.2597953 54.8840047,47.3378044 54.8840047,47.5075891 C54.8840047,47.6773738 54.7594518,47.7530886 54.6510446,47.8310978 C54.5887682,47.8769855 54.5426375,47.968761 54.4503761,48.0008825 C54.4342303,48.0008825 54.4203911,48.0169432 54.3880996,48.0169432 L54.2958382,48.0467702 C54.2658533,48.0467702 54.2497075,48.0467702 54.2335618,48.0628309 C53.5831188,48.2945641 52.4367709,48.4024003 51.3088751,48.4024003 C51.170483,48.4024003 50.9213772,48.418461 50.6284473,48.4024003 C50.6907237,49.4027533 51.7425038,49.418814 52.1761324,49.418814 C53.2140732,49.418814 54.4365369,48.755736 55.3660705,47.9549947 C55.4444927,47.8930462 55.4744777,47.9848217 55.4744777,48.0467702 C55.4744777,48.3083304 55.3360856,48.4620544 55.2276784,48.631839 C55.1192713,48.8016237 55.165402,48.8635722 55.1192713,48.939287 C55.0408491,49.0631839 54.8263413,49.2169079 54.8263413,49.3706318 C54.8263413,49.4784681 54.9347485,49.4325803 54.9347485,49.5404165 C54.9347485,49.8019767 54.7179341,50.0176491 54.579542,50.2172609 C54.2081899,50.7403812 53.2025405,51.5870102 51.9477854,51.5870102 C50.2132709,51.5870102 48.7578472,50.0153547 48.7578472,48.1683727 C48.7578472,46.3213908 50.8475681,44.1486057 52.7666054,44.1486057 C54.0513455,44.1486057 55.1815477,44.8415108 55.1815477,46.1194846 C55.1815477,46.5347688 55.0569948,46.8422167 54.8401805,47.1657254 L54.837874,47.1680198 Z M51.0459301,46.8903989 L51.2788902,46.8903989 C51.9593181,46.8903989 52.7965903,46.8605718 53.5070032,46.7045535 C53.5231489,46.642605 53.5369881,46.5806565 53.5369881,46.488881 C53.5369881,46.1653724 53.398596,45.7799153 52.8104296,45.7799153 C52.0354337,45.7799153 51.433428,46.2732086 51.0459301,46.8881045 L51.0459301,46.8903989 Z" id="Shape"></path>
                    <path d="M56.6784891,41.7624426 C56.6784891,41.7165549 56.7707505,41.409107 56.7868962,41.3012707 C56.803042,41.2232616 56.803042,41.0695376 56.9114491,41.0695376 C56.9737256,41.0695376 57.0498412,41.1314861 57.0821327,41.1314861 C57.1444092,41.1314861 57.2828013,40.8400988 57.4534849,40.8400988 C57.6541534,40.8400988 57.8409828,40.8699259 57.8871135,40.918108 C58.0255056,41.0557713 58.2584657,41.3953406 58.2584657,41.6408401 C58.2584657,41.764737 58.2123349,43.2583833 58.1961892,44.9516414 C58.1800435,46.9064596 58.2584657,49.3408048 58.2423199,50.0015884 L58.2423199,50.1094246 L58.1961892,50.3411578 L58.1961892,50.448994 C58.1800435,50.7105542 58.2261742,50.9262266 58.117767,51.1097776 C57.9793749,51.3415108 57.6380077,51.4631133 57.3750627,51.4631133 C57.2205248,51.4631133 57.1882333,51.2313802 57.0959719,51.2313802 C57.0175497,51.2313802 56.9252883,51.2612072 56.8168812,51.2612072 C56.708474,51.2612072 56.6162126,51.2451465 56.5377904,51.183198 C56.2586996,50.9376986 56.2125689,49.3201553 56.2125689,48.9346982 C56.2125689,46.7642076 56.3509611,44.0843629 56.6761825,41.7578539 L56.6784891,41.7624426 Z" id="Path"></path>
                    <path d="M59.8338292,41.7624426 C59.8338292,41.7165549 59.9260906,41.409107 59.9422363,41.3012707 C59.9583821,41.2232616 59.9583821,41.0695376 60.0667892,41.0695376 C60.1290657,41.0695376 60.2051813,41.1314861 60.2374728,41.1314861 C60.2997493,41.1314861 60.4381414,40.8400988 60.608825,40.8400988 C60.8094936,40.8400988 60.9963229,40.8699259 61.0424536,40.918108 C61.1808457,41.0557713 61.4138058,41.3953406 61.4138058,41.6408401 C61.4138058,41.764737 61.3676751,43.2583833 61.3515293,44.9516414 C61.3353836,46.9064596 61.4138058,49.3408048 61.39766,50.0015884 L61.39766,50.1094246 L61.3515293,50.3411578 L61.3515293,50.448994 C61.3353836,50.7105542 61.3815143,50.9262266 61.2731071,51.1097776 C61.134715,51.3415108 60.7933478,51.4631133 60.5304028,51.4631133 C60.375865,51.4631133 60.3435735,51.2313802 60.2513121,51.2313802 C60.1728899,51.2313802 60.0806284,51.2612072 59.9722213,51.2612072 C59.8638141,51.2612072 59.7715527,51.2451465 59.6931305,51.183198 C59.4140398,50.9376986 59.3679091,49.3201553 59.3679091,48.9346982 C59.3679091,46.7642076 59.5063012,44.0843629 59.8315226,41.7578539 L59.8338292,41.7624426 Z" id="Path"></path>
                    <path d="M68.3633963,47.1680198 C68.3633963,47.2597953 68.409527,47.3378044 68.409527,47.5075891 C68.409527,47.6773738 68.2849741,47.7530886 68.1765669,47.8310978 C68.1142905,47.8769855 68.0681598,47.968761 67.9758984,48.0008825 C67.9597526,48.0008825 67.9459134,48.0169432 67.9136219,48.0169432 L67.8213605,48.0467702 C67.7913756,48.0467702 67.7752298,48.0467702 67.7590841,48.0628309 C67.1086411,48.2945641 65.9622932,48.4024003 64.8343975,48.4024003 C64.6960053,48.4024003 64.4468995,48.418461 64.1539696,48.4024003 C64.216246,49.4027533 65.2680261,49.418814 65.7016547,49.418814 C66.7395955,49.418814 67.9620592,48.755736 68.8915928,47.9549947 C68.970015,47.8930462 69,47.9848217 69,48.0467702 C69,48.3083304 68.8616079,48.4620544 68.7532007,48.631839 C68.6447936,48.8016237 68.6909243,48.8635722 68.6447936,48.939287 C68.5663714,49.0631839 68.3495571,49.2169079 68.3495571,49.3706318 C68.3495571,49.4784681 68.4579642,49.4325803 68.4579642,49.5404165 C68.4579642,49.8019767 68.2411499,50.0176491 68.1027578,50.2172609 C67.7314056,50.7403812 66.7257563,51.5870102 65.4710012,51.5870102 C63.7364867,51.5870102 62.281063,50.0153547 62.281063,48.1683727 C62.281063,46.3213908 64.3707839,44.1486057 66.2898212,44.1486057 C67.5745613,44.1486057 68.7047635,44.8415108 68.7047635,46.1194846 C68.7047635,46.5347688 68.5802106,46.8422167 68.3633963,47.1657254 L68.3633963,47.1680198 Z M64.5714524,46.8903989 L64.8044125,46.8903989 C65.4848404,46.8903989 66.3221127,46.8605718 67.0325255,46.7045535 C67.0486712,46.642605 67.0625104,46.5806565 67.0625104,46.488881 C67.0625104,46.1653724 66.9241183,45.7799153 66.3359519,45.7799153 C65.560956,45.7799153 64.9589504,46.2732086 64.5714524,46.8881045 L64.5714524,46.8903989 Z" id="Shape"></path>
                </g>
                <path d="M339.706266,79.7158501 C339.967066,78.0642997 340.05479,76.5421443 339.967066,75.1776155 C339.713378,71.2204819 337.975497,68.6019982 334.637247,68.0820656 C331.336932,67.569191 328.894888,69.4865893 327.427291,73.0955327 C326.898577,74.3965403 326.497892,75.9163431 326.227608,77.6196515 C326.109062,78.3701423 326.035564,79.10887 326,79.8311292 C326.011855,79.8311292 326.021338,79.8287766 326.033193,79.826424 C326.033193,79.8334819 326.028451,79.8405398 326.028451,79.8475977 C325.89568,80.6827834 328.553477,81.2544739 329.248155,80.9768629 C329.900157,82.1249492 330.793992,83.0942352 331.915436,83.8564892 L332.124076,84 L332.36828,83.9270683 C333.665172,83.5435886 334.810324,82.8942611 335.7824,82.0049648 C336.322968,82.4966657 338.900154,82.8119189 339.189406,82.0637807 C339.210744,82.00967 339.227341,81.9555594 339.234453,81.9014488 L339.234453,81.9014488 C339.426498,81.1980107 339.582978,80.4686935 339.703895,79.7134974 L339.706266,79.7158501 Z M332.306637,83.722389 L332.162011,83.7647364 L332.038723,83.6800415 C330.929134,82.9248454 330.047154,81.96497 329.409377,80.8239416 C329.41649,80.7815941 329.409377,80.7321888 329.378555,80.6757255 C328.87355,79.7558449 328.529767,78.7206851 328.356691,77.5984778 C328.062697,75.6951953 328.356691,74.2083295 328.366174,74.1448083 L328.413593,73.9071921 L328.679135,73.9213079 C330.101685,73.9965922 331.38435,73.6648706 332.2118,73.3754964 C333.096152,73.0649484 333.672284,72.7238162 333.698364,72.7097004 L333.925972,72.5732475 L334.10142,72.7732216 C334.148838,72.8249796 334.580345,73.3025647 335.310587,73.8577867 C336.007637,74.3847772 337.12908,75.0905679 338.506582,75.4505212 L338.765012,75.5187477 L338.736561,75.7587165 C338.729448,75.8222377 338.549259,77.3279246 337.683874,79.0500541 C337.171756,80.0663928 336.526867,80.9486313 335.763432,81.6685378 C335.716014,81.7132379 335.692305,81.757938 335.685192,81.8026381 C334.727342,82.6942871 333.591673,83.341262 332.306637,83.722389 L332.306637,83.722389 Z" id="Shape" fill="#E9364B"></path>
            </g>
        </g>
    </g>
</svg>