<?xml version="1.0" encoding="UTF-8"?>
<svg width="143px" height="143px" viewBox="0 0 143 143" version="1.1" xmlns="http://www.w3.org/2000/svg" xmlns:xlink="http://www.w3.org/1999/xlink">
    <!-- Generator: Sketch 61.1 (89650) - https://sketch.com -->
    <title>Group 8</title>
    <desc>Created with Sketch.</desc>
    <defs>
        <polygon id="path-1" points="0 0.0818496376 59.8996452 0.0818496376 59.8996452 46.9746905 0 46.9746905"></polygon>
        <polygon id="path-3" points="0.127371313 0.115535791 70.9709724 0.115535791 70.9709724 51.2876712 0.127371313 51.2876712"></polygon>
    </defs>
    <g id="Page-1" stroke="none" stroke-width="1" fill="none" fill-rule="evenodd">
        <g id="DONS-FINANCIER" transform="translate(-738.000000, -930.000000)">
            <g id="Group-8" transform="translate(738.000000, 930.000000)">
                <g id="Group-3-Copy" fill="#FFD8DD">
                    <circle id="Oval-Copy-3" cx="71.5" cy="71.5" r="71.5"></circle>
                </g>
                <g id="Group-37" transform="translate(29.000000, 30.000000)">
                    <g id="Group-3">
                        <mask id="mask-2" fill="white">
                            <use xlink:href="#path-1"></use>
                        </mask>
                        <g id="Clip-2"></g>
                        <path d="M47.789,0.212974895 C49.1246863,-0.232246862 50.5674314,0.493008368 51.0113529,1.83260669 L59.769,28.2700084 C60.2127255,29.6096067 59.4895882,31.0565774 58.1537059,31.5014059 L12.1105686,46.8436611 C10.7748824,47.2886862 9.33213725,46.563431 8.88841176,45.2238326 L0.130568627,18.786431 C-0.312960784,17.4468326 0.409980392,16.0000586 1.74586275,15.5550335" id="Fill-1" fill="#E8364B" mask="url(#mask-2)"></path>
                    </g>
                    <polygon id="Fill-4" fill="#C5E2E0" points="54 8.63164164 2.83129881 26 1 20.3683584 52.1687012 3"></polygon>
                    <polygon id="Fill-6" fill="#F0F7FB" points="53 15.7467815 7.5607173 31 6 26.2532185 51.4390844 11"></polygon>
                    <polygon id="Fill-8" fill="#FFFFFF" points="37 27.4745386 9.78053888 37 9 34.5254614 36.2194611 25"></polygon>
                    <polygon id="Fill-10" fill="#FFFFFF" points="29 33.460415 10.7576298 40 10 37.539585 28.2423702 31"></polygon>
                    <g id="Group-14" transform="translate(12.000000, 35.000000)">
                        <mask id="mask-4" fill="white">
                            <use xlink:href="#path-3"></use>
                        </mask>
                        <g id="Clip-13"></g>
                        <path d="M60.9176077,51.2315914 L2.66034254,40.0251363 C0.970267956,39.7001823 -0.139058011,38.0530362 0.182991713,36.3466815 L6.53749171,2.67266193 C6.85954144,0.966307251 8.49077624,-0.153308552 10.1808508,0.17164538 L68.4383122,11.3781006 C70.1283867,11.7032525 71.2373204,13.3502006 70.9154669,15.0565553 L64.5607707,48.7303769 C64.2389171,50.4367315 62.6076823,51.5567434 60.9176077,51.2315914" id="Fill-12" fill="#FFFFFF" mask="url(#mask-4)"></path>
                    </g>
                    <polygon id="Fill-15" fill="#E8364B" points="30.3761908 61 17 58.3735817 17.6238092 55 31 57.6259941"></polygon>
                    <polygon id="Fill-17" fill="#E8364B" points="61.4334331 74 55 72.8325691 55.5667539 70 62 71.1672528"></polygon>
                    <polygon id="Fill-19" fill="#E8364B" points="52.4332612 72 46 70.8325691 46.5667388 68 53 69.1672528"></polygon>
                    <polygon id="Fill-21" fill="#E8364B" points="46.3761908 64 33 61.3737938 33.6236034 58 47 60.6262062"></polygon>
                    <polygon id="Fill-23" fill="#E8364B" points="75.3763874 70 62 67.3737938 62.6236126 64 76 66.6262062"></polygon>
                    <polygon id="Fill-25" fill="#E8364B" points="59.3763874 67 46 64.3737938 46.6236126 61 60 63.6262062"></polygon>
                    <polygon id="Fill-27" fill="#E8364B" points="77.443496 54 49 48.1524497 49.556504 45 78 50.8475503"></polygon>
                    <polygon id="Fill-29" fill="#FFFFFF" points="39.4418098 75 16 70.7730899 16.5583882 68 40 72.2267227"></polygon>
                    <path d="M29.1598241,55.9746715 L20.0736281,54.0947347 C19.3600412,53.9470744 18.8872109,53.1922707 19.0233765,52.4171075 L20.29544,45.1658921 C20.4314083,44.3909432 21.1264452,43.8776681 21.8400321,44.0253285 L30.9264255,45.9054796 C31.6400124,46.0529256 32.1126454,46.8079436 31.9766771,47.5828925 L30.7046136,54.8341079 C30.5686453,55.6090568 29.8734111,56.1223319 29.1598241,55.9746715" id="Fill-31" fill="#E8364B"></path>
                    <path d="M72.9374875,80.1549464 C72.5758827,82.0535398 70.7436471,83.2993165 68.8450536,82.9374875 C66.9464602,82.5758827 65.7006835,80.7436471 66.0625125,78.8450536 C66.4241173,76.9464602 68.2563529,75.7006835 70.1549464,76.0625125 C72.0535398,76.4241173 73.2993165,78.2563529 72.9374875,80.1549464" id="Fill-33" fill="#C5E2E0"></path>
                    <path d="M69.9375496,80.1548297 C69.5759496,82.0533978 67.7435142,83.299158 65.8451703,82.937558 C63.9466022,82.575958 62.700842,80.7435226 63.062442,78.8449545 C63.424042,76.9463864 65.2564774,75.7008505 67.1550455,76.0624504 C69.0536136,76.4240504 70.2991495,78.2564858 69.9375496,80.1548297" id="Fill-35" fill="#E8364B"></path>
                </g>
            </g>
        </g>
    </g>
</svg>