<?xml version="1.0" encoding="UTF-8"?>
<svg width="143px" height="143px" viewBox="0 0 143 143" version="1.1" xmlns="http://www.w3.org/2000/svg" xmlns:xlink="http://www.w3.org/1999/xlink">
    <!-- Generator: Sketch 61.1 (89650) - https://sketch.com -->
    <title>Group 7</title>
    <desc>Created with Sketch.</desc>
    <g id="Page-1" stroke="none" stroke-width="1" fill="none" fill-rule="evenodd">
        <g id="DONS-FINANCIER" transform="translate(-538.000000, -930.000000)">
            <g id="Group-7" transform="translate(538.000000, 930.000000)">
                <g id="Group-3" fill="#FFD8DD">
                    <circle id="Oval-Copy-3" cx="71.5" cy="71.5" r="71.5"></circle>
                </g>
                <g id="Group-25" transform="translate(39.000000, 30.000000)">
                    <polygon id="Fill-1" fill="#E8364B" points="1 44.9675087 11.2216975 81 74 63.032813 63.7783025 27"></polygon>
                    <g id="Group-24">
                        <path d="M52.0187478,49.8983612 C54.311597,57.9575679 49.6474531,66.3515595 41.6005483,68.6479139 C33.5536434,70.9442684 25.1726248,66.2729941 22.8796155,58.2137873 C20.5867664,50.1547409 25.2509102,41.760589 33.2978151,39.4643949 C41.3445599,37.1680405 49.7258986,41.8391544 52.0187478,49.8983612" id="Fill-2" fill="#E8364B"></path>
                        <path d="M33.2220752,68.6118219 C28.3898339,67.1984464 24.3609383,63.4208937 22.8795995,58.2137713 C21.3982608,53.0068093 22.8339731,47.6699738 26.1965624,43.9179148 L14.8559081,47.1543283 C14.9253884,47.334708 14.9895856,47.5178135 15.0435369,47.7074928 C16.0138594,51.1175519 14.039755,54.668708 10.6360218,55.6400329 C10.4464719,55.6940667 10.2574023,55.7359148 10.0675323,55.7718304 L13.2769128,67.0523789 C13.4571773,66.9829527 13.6400032,66.918497 13.829393,66.8646236 C17.2329661,65.8931384 20.7795021,67.8688177 21.7498246,71.2788768 C21.8037759,71.4685561 21.8454,71.6580751 21.8814209,71.8482354 L33.2220752,68.6118219 Z" id="Fill-4" fill="#C5E2E0"></path>
                        <path d="M61.0690023,41.2477975 C57.6641485,42.219443 54.1187332,40.2432827 53.1485708,36.833384 C53.0944594,36.6435443 53.0528353,36.4541857 53.0169745,36.2640253 L41.6761601,39.5005992 C46.5084014,40.9139747 50.537297,44.6913671 52.0187958,49.8983291 C53.5001346,55.1054515 52.0642622,60.4422869 48.7016729,64.1941857 L60.0424872,60.9579325 C59.9728469,60.7775527 59.9086497,60.5944473 59.8546984,60.4047679 C58.884536,56.9947089 60.8576798,53.4437131 64.2623735,52.4722278 C64.4517633,52.4181941 64.640993,52.3761857 64.830703,52.3404304 L61.6213225,41.0597215 C61.4412181,41.1294684 61.2583921,41.1936034 61.0690023,41.2477975" id="Fill-6" fill="#C5E2E0"></path>
                        <path d="M9.6779464,52.2727359 C8.13241044,52.7136641 6.51819466,51.8140101 6.07777935,50.2661114 C5.63736404,48.7182127 6.53580487,47.1015291 8.08118074,46.6604405 C9.62671671,46.2193519 11.2410926,47.1190059 11.6815079,48.667065 C12.1219232,50.2148034 11.2233223,51.8316473 9.6779464,52.2727359" id="Fill-8" fill="#FFFFFF"></path>
                        <path d="M60.1109429,37.8804042 C58.5655671,38.3214928 56.9511912,37.4216785 56.5107759,35.8737797 C56.0705206,34.3260414 56.9688014,32.7091975 58.5141773,32.2681089 C60.0598733,31.8270203 61.6740891,32.7268346 62.1145044,34.2747333 C62.5549197,35.8224717 61.6564789,37.4393156 60.1109429,37.8804042" id="Fill-10" fill="#FFFFFF"></path>
                        <path d="M16.384026,75.8440717 C14.8386501,76.2851603 13.2242742,75.3855063 12.784019,73.8374473 C12.3436037,72.2897089 13.2418845,70.672865 14.7872603,70.2317764 C16.3329564,69.7908481 17.9471722,70.6905021 18.3875875,72.2384008 C18.8280028,73.7862996 17.9295619,75.4029831 16.384026,75.8440717" id="Fill-12" fill="#FFFFFF"></path>
                        <path d="M66.8171666,61.4517401 C65.2716306,61.8928287 63.6574148,60.9931747 63.2169995,59.4451156 C62.7765842,57.8973772 63.674865,56.2805333 65.2204009,55.8396051 C66.7659369,55.3985165 68.3803128,56.2981705 68.820568,57.8460692 C69.2609833,59.3939679 68.3625425,61.0106515 66.8171666,61.4517401" id="Fill-14" fill="#FFFFFF"></path>
                        <path d="M43.2511691,54.6954844 L48.2582318,53.8715097 C48.6832782,55.6636025 48.4490624,57.2639316 47.5560647,58.6713747 C46.662907,60.0789781 45.2497677,61.2294 43.3169673,62.1232819 C41.0876749,63.1544127 38.9989441,63.4808599 37.0499742,63.1021426 C35.1008443,62.7231046 33.4317167,61.6704886 32.0437121,59.9423705 L29.7191645,61.0174338 L28.923023,59.2907586 L30.9864592,58.3364295 C30.7423176,57.89967 30.5604522,57.5498135 30.4397422,57.2879823 C30.3191923,57.0264717 30.2354638,56.822362 30.1882364,56.6745308 L28.1510555,57.6168346 L27.3549139,55.8899992 L29.5752411,54.8631975 C29.0105937,52.5856025 29.2137515,50.5289527 30.1848745,48.6935688 C31.1553571,46.8596278 32.7990299,45.4061679 35.1149325,44.3351131 C36.9255821,43.49767 38.6681923,43.1410793 40.3422828,43.2661426 C42.0162132,43.3916869 43.3204893,44.0099485 44.2557515,45.1217291 L40.94119,49.0668346 C40.5603292,48.333611 40.0413084,47.9178557 39.383487,47.8194084 C38.7255056,47.7222439 38.0135729,47.8501932 37.2476889,48.2043789 C36.3073037,48.6393747 35.6550856,49.194784 35.2908745,49.8709274 C34.9263432,50.5478726 34.8320485,51.3739316 35.0079905,52.3505477 L40.0232179,50.0309443 L40.0357051,52.1201426 L35.5689557,54.1859316 L35.8462364,54.7873578 C36.071487,55.276227 36.2450276,55.6299316 36.3670183,55.8478304 L40.7812573,53.8062523 L40.8982852,55.847189 L37.4767817,57.4295603 C38.0419093,58.0144717 38.6621088,58.3627249 39.3367399,58.4735181 C40.0108907,58.5852734 40.7836587,58.4393662 41.6542434,58.0367586 C43.1344615,57.3521173 43.6664499,56.2387333 43.2511691,54.6954844" id="Fill-16" fill="#FFFFFF"></path>
                        <path d="M41.3039443,22.8933806 C41.3039443,33.6080979 32.6310766,42.2942245 21.9327146,42.2942245 C11.2343527,42.2942245 2.56148492,33.6080979 2.56148492,22.8933806 C2.56148492,12.1786633 11.2343527,3.49253671 21.9327146,3.49253671 C32.6310766,3.49253671 41.3039443,12.1786633 41.3039443,22.8933806" id="Fill-18" fill="#FFFFFF"></path>
                        <path d="M38.7424594,19.526292 C38.7424594,30.2410093 30.0695916,38.9271359 19.3712297,38.9271359 C8.67286775,38.9271359 0,30.2410093 0,19.526292 C0,8.81157468 8.67286775,0.125448101 19.3712297,0.125448101 C30.0695916,0.125448101 38.7424594,8.81157468 38.7424594,19.526292" id="Fill-20" fill="#E8364B"></path>
                        <path d="M23.2566021,22.6046447 L28.1474374,23.959016 C27.782906,25.7644169 26.9004745,27.1187882 25.500623,28.0218093 C24.1004513,28.92467 22.3360684,29.3756996 20.2069942,29.3756996 C17.7513306,29.3756996 15.7186323,28.7951173 14.1077784,27.6328304 C12.4966044,26.4703831 11.4219014,24.8139359 10.8852703,22.6620456 L8.32474594,22.6620456 L8.32474594,20.7602819 L10.5977436,20.7602819 C10.5590012,20.2613114 10.5402703,19.867362 10.5402703,19.5789148 C10.5402703,19.2907882 10.5497158,19.0703241 10.5687668,18.9164 L8.32474594,18.9164 L8.32474594,17.0144759 L10.7704838,17.0144759 C11.2113794,14.7096236 12.2566253,12.9276321 13.9065418,11.669303 C15.5554977,10.4117755 17.6560754,9.7822903 20.2069942,9.7822903 C22.2012703,9.7822903 23.932674,10.1903494 25.4002448,11.0067882 C26.8674954,11.823708 27.7925116,12.9327629 28.1762541,14.3347544 L23.5156323,16.5244844 C23.4768898,15.6990667 23.1799176,15.103573 22.6235951,14.7380034 C22.0671125,14.3735561 21.3671868,14.190611 20.5234977,14.190611 C19.4876972,14.190611 18.6630592,14.4211764 18.0494234,14.8821468 C17.4349872,15.3435983 17.0035371,16.054054 16.7544327,17.0144759 L22.2787552,17.0144759 L21.4155348,18.9164 L16.4954026,18.9164 L16.4954026,19.5789148 C16.4954026,20.1171679 16.504848,20.5111173 16.5242193,20.7602819 L21.386558,20.7602819 L20.6384443,22.6620456 L16.8696995,22.6620456 C17.137855,23.4305435 17.5552169,24.006957 18.1213051,24.3911257 C18.6864327,24.7754549 19.4492749,24.9673789 20.4082309,24.9673789 C22.038616,24.9673789 22.9876462,24.1799612 23.2566021,22.6046447" id="Fill-22" fill="#FFFFFF"></path>
                    </g>
                </g>
            </g>
        </g>
    </g>
</svg>