<svg id="Calque_1" data-name="Calque 1" xmlns="http://www.w3.org/2000/svg" viewBox="0 0 1456.15 1018.5"><defs><style>.cls-1{fill:#ff9a00;}.cls-2{fill:#9e223e;}.cls-3{fill:#5b2d0f;}.cls-4{fill:#fff;}.cls-5{fill:#aa6305;}.cls-6{fill:#ffce8d;}.cls-7{fill:#ffe4dd;}.cls-8{fill:#77122a;}</style></defs><path class="cls-1" d="M236.64,647.21C321.22,637,384,641.72,384,641.72s6.26,79.82-39.7,91.68S211.69,718,211.69,718l-34.48-58.12C191.72,654.34,211.33,650.28,236.64,647.21Z"/><path class="cls-2" d="M285.39,381.1c5.6-47.35,63.18-69.57,97.3-36.26q1.56,1.53,3.11,3.22c37,40.38,1.7,57.81,39.65,107.44s-102.9,97.38-139.39-12.33A254.73,254.73,0,0,1,285.39,381.1Z"/><path class="cls-3" d="M145.08,596.77s-10.67-4.71-20.66-8.28-11.62-5-13.78-4-.78,4.19,15.35,12.64c-34.82,2.76-38.6,2.34-38.56,5.22s23.73,2.78,23.73,2.78-25.81.55-25.69,4.71,26.23,1.51,26.23,1.51-24.12,2.11-24,5.21,26,1.07,26,1.07-18.71,3-18.38,5.06,6.46,2,33.5-1.08c12.34-1.49,18.41-8.45,18.41-8.45Z"/><path class="cls-3" d="M284.87,477.2l-50,95.55L133.3,597.41,123.64,615s75.18,2.54,111.27,2.54c39,0,68.31-68.69,95.49-100a30.36,30.36,0,0,0-3.25-42.93h0A30.41,30.41,0,0,0,284.87,477.2Z"/><path class="cls-4" d="M320.15,532.67l-51.21-43.76s26.19-38.51,57.32-18.44S331.67,521.14,320.15,532.67Z"/><path class="cls-4" d="M346.87,464.67s46.51,1.76,62.31,62.31,25.45,125.5,25.45,125.5-40,26.62-105.82,8.19c-97.82-118.12-23.9-193.29-23.9-193.29Z"/><path class="cls-1" d="M177.21,659.88,211.69,718s41.87,63,52.5,148.26l-16.83,28.47s-76.22-114-96.19-165C137.17,694,143.23,672.86,177.21,659.88Z"/><path class="cls-4" d="M35.33,465.63l89.52-7.22s37.75,38.42,37.75,130.45H81.11S81.69,506.38,35.33,465.63Z"/><path class="cls-1" d="M434.63,653.48s13.16,79-31.6,94.78-175.51,16.18-175.51,16.18-21.24,78.89-71.67,148.5l-21.36,5.85S155.77,784.45,176,733.55s38.4-48.48,121.77-66S434.63,653.48,434.63,653.48Z"/><path class="cls-4" d="M105,936l30.55-33.06,33.19-13c19.29,21.59,10,40.78,10,40.78L86.53,964.68C79.86,946.56,105,936,105,936Z"/><path class="cls-4" d="M263,936.13l-17.67-41.4,15.31-39.21c15.47-2,27.72,11.2,27.72,11.2l-6.69,98C262.44,963.36,263,936.13,263,936.13Z"/><path class="cls-3" d="M339.56,496.41l-58.41,88.14L175.94,530.62l-6.87,18.81S252.3,634.28,288,628.78c38.52-5.94,80.64-64.39,102.74-99.46A30.38,30.38,0,0,0,381,487.38h0A30.41,30.41,0,0,0,339.56,496.41Z"/><path class="cls-3" d="M346.54,431.34l6.75,30.73c6,16.83-3.7,27-24,38.65-8.1,4.65-11.38,1.38-13.47-3.19a30.23,30.23,0,0,1-2.08-6.78L305,446.19Z"/><path class="cls-3" d="M310.47,348.73s-23.43-2-25.41,38.09c-11.45,43.6-5.55,69.55,23,68.66s38.89-21.83,47.22-45.24S352.14,348.73,310.47,348.73Z"/><path class="cls-2" d="M360.59,385.77s-44.3,8.82-78-9.89c0-24.86,21.66-39.56,53.2-36.62C366.55,360.64,360.59,385.77,360.59,385.77Z"/><path class="cls-3" d="M116.37,542.77c-.06-4.16,25.76-4.31,25.76-4.31s-23.68-.27-23.68-3.15,3.78-2.4,38.63-4.62l-1.44-8.64c9.94,3.73,20.53,8.6,20.53,8.6l2,16.39s-6.18,6.86-18.54,8.16c-27.08,2.62-33.22-1.74-33.51-3.83s18.45-.37,18.45-.37-25.91-.6-26-3.7c-.08-2.69,18.09-2.13,22.89-2.52C136.34,545.15,116.42,546.41,116.37,542.77Z"/><path class="cls-4" d="M384.32,546.69,327,511.25s20-42.06,53.84-27S394,533.55,384.32,546.69Z"/><path class="cls-4" d="M275.41,859.69l-14-23.64a2.29,2.29,0,0,0-4.17-.6c-4.26,6.86-13.65,19.55-28.89,27.81a2.28,2.28,0,0,0-.9,3.18l27.09,45Z"/><path class="cls-4" d="M175.21,906.76l9.9-38.93a2.29,2.29,0,0,0-2.53-3.37c-7.86,1.84-23.47,4.17-40.09-.76a2.28,2.28,0,0,0-2.89,1.61l-12.67,51Z"/><path class="cls-5" d="M1220.69,855.59v78c0,12.6-140.62,22.82-314.07,22.82s-314.07-10.22-314.07-22.82v-78Z"/><path class="cls-1" d="M993.4,955.5V855.59h227.29v78C1220.69,944,1124.65,952.76,993.4,955.5Z"/><path class="cls-1" d="M982.82,955.7c-24.4.45-49.92.68-76.2.68-39.16,0-76.65-.52-111.22-1.47V855.59H982.82Z"/><path class="cls-1" d="M782.81,954.54c-111.89-3.49-190.26-11.57-190.26-21v-78H782.81Z"/><ellipse class="cls-5" cx="906.62" cy="854.76" rx="314.07" ry="22.82"/><path class="cls-1" d="M648,854.76c0,8.74,115.79,15.83,258.63,15.83s258.63-7.09,258.63-15.83-115.8-15.82-258.63-15.82S648,846,648,854.76Z"/><path class="cls-5" d="M1274.42,773.08v78c0,12.61-140.61,22.82-314.07,22.82s-314.07-10.21-314.07-22.82v-78Z"/><path class="cls-1" d="M1047.13,873V773.08h227.29v78C1274.42,861.47,1178.38,870.26,1047.13,873Z"/><path class="cls-1" d="M1036.56,873.2c-24.4.44-49.93.67-76.21.67-39.16,0-76.65-.52-111.22-1.47V773.08h187.43Z"/><path class="cls-1" d="M836.55,872c-111.9-3.49-190.27-11.57-190.27-21v-78H836.55Z"/><ellipse class="cls-5" cx="960.35" cy="772.26" rx="314.07" ry="22.82"/><ellipse class="cls-1" cx="960.35" cy="772.26" rx="258.63" ry="15.82"/><path class="cls-5" d="M1238.62,688.39v78c0,12.61-140.61,22.83-314.07,22.83S610.48,779,610.48,766.35v-78Z"/><path class="cls-1" d="M1011.33,788.29v-99.9h227.29v78C1238.62,776.77,1142.58,785.56,1011.33,788.29Z"/><path class="cls-1" d="M1000.75,788.5c-24.39.44-49.92.68-76.2.68-39.16,0-76.65-.52-111.22-1.48V688.39h187.42Z"/><path class="cls-1" d="M800.75,787.34c-111.9-3.5-190.27-11.58-190.27-21v-78H800.75Z"/><ellipse class="cls-5" cx="924.55" cy="687.56" rx="314.07" ry="22.82"/><ellipse class="cls-1" cx="924.55" cy="687.56" rx="258.63" ry="15.82"/><path class="cls-5" d="M1274.42,604.85v78c0,12.6-140.61,22.82-314.07,22.82s-314.07-10.22-314.07-22.82v-78Z"/><path class="cls-1" d="M1047.13,704.76V604.85h227.29v78C1274.42,693.23,1178.38,702,1047.13,704.76Z"/><path class="cls-1" d="M1036.56,705c-24.4.44-49.93.68-76.21.68-39.16,0-76.65-.52-111.22-1.47V604.85h187.43Z"/><path class="cls-1" d="M836.55,703.8c-111.9-3.49-190.27-11.57-190.27-21v-78H836.55Z"/><ellipse class="cls-5" cx="960.35" cy="604.02" rx="314.07" ry="22.82"/><ellipse class="cls-6" cx="960.35" cy="604.02" rx="258.63" ry="15.82"/><path class="cls-5" d="M1420.56,510.1,1401.69,576c-3,10.65-124.31-14.74-270.85-56.72S868,434.62,871,424l18.87-65.87Z"/><path class="cls-1" d="M1204.37,539.51l24.17-84.4,192,55L1401.69,576C1399.17,584.77,1315.91,569,1204.37,539.51Z"/><path class="cls-1" d="M1195.38,537.12c-20.71-5.53-42.34-11.51-64.54-17.87-33.08-9.47-64.62-19-93.6-28.15l24-83.91,158.33,45.36Z"/><path class="cls-1" d="M1026.7,487.74C933,457.71,868.76,431.92,871,424l18.87-65.87,160.73,46Z"/><path class="cls-5" d="M890.11,357.41c-3.05,10.65,113.26,53.3,259.8,95.28s267.8,67.36,270.85,56.71S1307.49,456.1,1161,414.13,893.16,346.76,890.11,357.41Z"/><path class="cls-6" d="M936.94,370.82c-2.11,7.39,94,41.39,214.66,76s220.21,56.59,222.32,49.21-94-41.39-214.66-75.95S939.06,363.44,936.94,370.82Z"/><path class="cls-5" d="M1249,56.78l20.09,65.5c3.25,10.59-112.26,55.4-258,100.1s-266.5,72.33-269.75,61.74l-20.09-65.5Z"/><path class="cls-1" d="M1083.74,199.28,1058,115.34l191-58.56,20.09,65.5C1271.72,131,1193.3,163.16,1083.74,199.28Z"/><path class="cls-1" d="M1074.9,202.17c-20.38,6.66-41.77,13.43-63.84,20.21-32.9,10.09-64.53,19.31-93.82,27.41l-25.59-83.44,157.46-48.29Z"/><path class="cls-1" d="M906.57,252.73c-94.91,25.89-162.83,39.3-165.26,31.39l-20.09-65.5,159.85-49Z"/><path class="cls-5" d="M721,217.92c3.25,10.59,124-17,269.74-61.74s261.24-89.51,258-100.1-124,17.06-269.75,61.75S717.76,207.33,721,217.92Z"/><path class="cls-6" d="M767.59,203.64C769.84,211,869,187.1,989,150.3s215.46-72.59,213.21-79.93S1100.8,86.91,980.8,123.71,765.33,196.3,767.59,203.64Z"/><rect class="cls-2" x="288.73" y="760.57" width="550.21" height="200.25" transform="translate(1127.67 1721.4) rotate(180)"/><rect class="cls-4" x="288.73" y="789.76" width="550.21" height="25.76" transform="translate(1127.67 1605.28) rotate(180)"/><rect class="cls-4" x="288.73" y="840.08" width="550.21" height="25.76" transform="translate(1127.67 1705.92) rotate(180)"/><rect class="cls-4" x="288.73" y="890.4" width="550.21" height="25.76" transform="translate(1127.67 1806.56) rotate(180)"/><rect class="cls-4" x="288.73" y="935.07" width="550.21" height="25.76" transform="translate(1127.67 1895.89) rotate(180)"/><rect class="cls-7" x="493.55" y="760.57" width="114.43" height="200.25" transform="translate(1101.53 1721.4) rotate(180)"/><rect class="cls-8" x="832.26" y="760.57" width="83.09" height="200.25" transform="translate(1747.62 1721.4) rotate(180)"/></svg>