<?xml version="1.0" encoding="UTF-8"?>
<svg width="143px" height="143px" viewBox="0 0 143 143" version="1.1" xmlns="http://www.w3.org/2000/svg" xmlns:xlink="http://www.w3.org/1999/xlink">
    <title>Group 10</title>
    <g id="Page-1" stroke="none" stroke-width="1" fill="none" fill-rule="evenodd">
        <g id="DONS-FINANCIER" transform="translate(-1316.000000, -863.000000)">
            <g id="Group-10" transform="translate(1316.000000, 863.000000)">
                <g id="Group-3-Copy-3" fill="#FFE4DD">
                    <circle id="Oval-Copy-3" cx="71.5" cy="71.5" r="71.5"></circle>
                </g>
                <g id="Group-12" transform="translate(41.000000, 30.000000)">
                    <polygon id="Fill-1" fill="#E8364B" points="46.6835582 0 46.6835582 10.5457327 0 10.5457327 0 69 5.48677249 69 5.48677249 16.0509589 46.6835582 16.0509589 46.6835582 26.4807546 53.8416984 19.8606874 61 13.2404583 53.8416984 6.62022913"></polygon>
                    <polygon id="Fill-2" fill="#FFFFFF" points="55.5132275 14 55.5132275 66.9490035 14.3164418 66.9490035 14.3164418 56.5190213 7.15830159 63.1391041 0 69.7595107 7.15830159 76.3795934 14.3164418 83 14.3164418 72.4544044 61 72.4544044 61 14"></polygon>
                    <g id="Group-11" transform="translate(16.000000, 0.000000)">
                        <path d="M30.6451613,42.6007695 C30.6451613,50.5250576 24.2103226,56.9488288 16.2729032,56.9488288 C8.33516129,56.9488288 1.90048387,50.5250576 1.90048387,42.6007695 C1.90048387,34.6766424 8.33516129,28.2528712 16.2729032,28.2528712 C24.2103226,28.2528712 30.6451613,34.6766424 30.6451613,42.6007695" id="Fill-3" fill="#FFFFFF"></path>
                        <path d="M28.7446452,40.1106746 C28.7446452,48.0349627 22.3099677,54.4585729 14.3723871,54.4585729 C6.43480645,54.4585729 -3.22580645e-05,48.0349627 -3.22580645e-05,40.1106746 C-3.22580645e-05,32.1865475 6.43480645,25.7627763 14.3723871,25.7627763 C22.3099677,25.7627763 28.7446452,32.1865475 28.7446452,40.1106746" id="Fill-5" fill="#E8364B"></path>
                        <path d="M17.2550645,42.3872449 L20.8837742,43.3889314 C20.6132903,44.7242449 19.9586129,45.7257703 18.9199032,46.3936686 C17.8810323,47.0612449 16.5721613,47.3950331 14.9924839,47.3950331 C13.1705484,47.3950331 11.6623226,46.9656008 10.467,46.1059314 C9.27183871,45.2462619 8.47458065,44.0210839 8.07635484,42.4299144 L6.17651613,42.4299144 L6.17651613,41.0232703 L7.86296774,41.0232703 C7.83409677,40.6542195 7.82022581,40.3629398 7.82022581,40.1495924 C7.82022581,39.9365669 7.82732258,39.7734568 7.84151613,39.6596178 L6.17651613,39.6596178 L6.17651613,38.2531347 L7.99087097,38.2531347 C8.31812903,36.5484483 9.0936129,35.2306856 10.3178065,34.3000076 C11.5411935,33.3699737 13.0997419,32.9044737 14.9924839,32.9044737 C16.4721613,32.9044737 17.7565161,33.2062195 18.8453871,33.8100331 C19.9339355,34.4141686 20.6203871,35.234389 20.9052258,36.2713381 L17.4471613,37.8906856 C17.4184516,37.2801093 17.1979677,36.839889 16.7853871,36.5695415 C16.3724839,36.2999992 15.8532903,36.1645839 15.2273226,36.1645839 C14.4586129,36.1645839 13.8468387,36.3351008 13.3916774,36.6759737 C12.9357097,37.0173297 12.6157097,37.542728 12.430871,38.2531347 L16.5294194,38.2531347 L15.8890968,39.6596178 L12.2386129,39.6596178 L12.2386129,40.1495924 C12.2386129,40.5476263 12.2455484,40.8390669 12.2600645,41.0232703 L15.8674839,41.0232703 L15.3124839,42.4299144 L12.5163548,42.4299144 C12.7153871,42.9981432 13.0249032,43.4243551 13.4449032,43.708389 C13.8644194,43.9927449 14.4300645,44.1347619 15.1416774,44.1347619 C16.3513548,44.1347619 17.0555484,43.5523636 17.2550645,42.3872449" id="Fill-7" fill="#FFFFFF"></path>
                        <polyline id="Fill-9" fill="#E8364B" points="30.6451613 16.1016949 30.6451613 26.4731186 37.7995161 19.8899407 44.9540323 13.3069237 37.7995161 6.72374576 30.6451613 0.140567797 30.6451613 10.6271186"></polyline>
                    </g>
                </g>
            </g>
        </g>
    </g>
</svg>