<?xml version="1.0" encoding="UTF-8"?>
<svg id="a" data-name="Calque 3" xmlns="http://www.w3.org/2000/svg" width="904.369" height="358.14" viewBox="0 0 904.369 358.14">
  <g id="b" data-name="Calque 1">
    <g>
      <rect x="0" width="904.369" height="358.14" fill="none"/>
      <g>
        <g>
          <g>
            <path d="M427.196,199.508h-22.241c-6.495,0-8.069-4.724-8.462-10.825l-1.575-31.296c-.591-9.841-5.314-12.794-11.81-12.794h-7.478v54.914h-27.557V65.862h43.499c20.864,0,33.066,10.63,33.066,31.492v13.975c0,13.384-8.66,19.88-16.73,22.438v.591c7.086,1.575,14.172,7.479,14.959,21.06l1.772,29.918c.394,5.117.788,8.66,2.558,10.825v3.346ZM397.082,111.526v-8.267c0-7.873-4.133-11.415-12.007-11.415h-9.447v31.688h9.447c8.07,0,12.007-3.739,12.007-12.006Z" fill="#e30033"/>
            <path d="M439.927,65.862h65.346v27.162h-37.594v27.557h26.966v22.241h-26.966v29.524h37.987v27.162h-65.739V65.862Z" fill="#e30033"/>
            <path d="M580.515,180.023c-2.953,12.399-11.022,21.454-30.508,21.454-17.716,0-32.476-12.991-32.476-40.743v-56.096c0-27.555,17.518-40.742,40.152-40.742,23.423,0,37.791,13.187,37.791,40.742v6.298l-22.634,1.575v-4.527c0-12.007-5.708-16.928-13.779-16.928s-13.581,4.921-13.581,16.928v49.009c0,12.597,5.512,17.321,13.974,17.321,8.267,0,14.172-6.298,14.172-18.895v-7.677h-16.14v-20.075h39.957v71.841h-16.927v-19.485Z" fill="#e30033"/>
            <path d="M612.12,65.862h27.555v106.484h33.854v27.162h-61.409V65.862Z" fill="#e30033"/>
            <path d="M685.711,65.862h65.346v27.162h-37.595v27.557h26.967v22.241h-26.967v29.524h37.988v27.162h-65.739V65.862Z" fill="#e30033"/>
            <path d="M762.349,161.521v-7.48l21.257-1.967v6.495c0,15.746,3.544,20.666,12.99,20.666,7.874,0,13.386-5.314,13.386-16.729,0-7.676-3.544-12.4-9.055-15.943l-17.32-11.81c-15.352-10.629-19.88-18.108-19.88-35.429,0-17.911,11.613-35.428,36.216-35.428,20.47,0,37.004,8.857,37.004,33.46v9.645l-21.257,1.968v-7.677c0-9.841-2.953-16.534-11.613-16.534-7.676,0-11.613,6.103-11.613,14.37,0,8.462,2.755,12.203,11.022,17.123l18.304,12.401c11.613,7.676,17.518,16.533,17.518,34.445,0,20.469-10.235,38.381-38.382,38.381-23.619,0-38.577-10.825-38.577-39.956Z" fill="#e30033"/>
            <path d="M448.605,56.35c0-7.069,4.802-15.104,13.603-15.104,10.659,0,22.052,12.707,34.78,14.272v.832h-48.383Z" fill="#e30033"/>
          </g>
          <g>
            <path d="M348.197,226.416h32.203v13.386h-18.527v13.581h13.289v10.96h-13.289v14.55h18.72v13.386h-32.396v-65.862Z" fill="#490320"/>
            <path d="M387.659,226.416h13.579v52.476h16.684v13.386h-30.263v-65.862Z" fill="#490320"/>
            <path d="M424.532,226.416h32.204v13.386h-18.526v13.581h13.289v10.96h-13.289v14.55h18.72v13.386h-32.398v-65.862Z" fill="#490320"/>
            <path d="M463.995,226.416h18.624l8.73,41.322,7.469-41.322h18.139v65.862h-12.706v-48.887l-8.73,48.887h-11.737l-9.505-48.693v48.693h-10.283v-65.862Z" fill="#490320"/>
            <path d="M525.61,226.416h32.205v13.386h-18.527v13.581h13.289v10.96h-13.289v14.55h18.72v13.386h-32.398v-65.862Z" fill="#490320"/>
            <path d="M581.174,226.416l13.095,39.09v-39.09h10.573v65.862h-13.386l-15.908-43.26v43.26h-10.476v-65.862h16.101Z" fill="#490320"/>
            <path d="M644.564,239.801h-10.293v52.476h-13.678v-52.476h-10.099v-13.386h34.07v13.386Z" fill="#490320"/>
            <path d="M656.794,226.416h17.751l12.805,65.862h-16.297l-2.036-12.028h-12.319l-2.23,12.028h-12.222l14.549-65.862ZM658.056,269.192h9.7l-4.657-26.093-5.042,26.093Z" fill="#490320"/>
            <path d="M754.918,292.278h-10.96c-3.202,0-3.978-2.328-4.172-5.335l-.776-15.423c-.29-4.85-2.619-6.305-5.819-6.305h-3.686v27.062h-13.581v-65.862h21.436c10.283,0,16.297,5.238,16.297,15.521v6.886c0,6.596-4.268,9.797-8.246,11.058v.29c3.492.776,6.984,3.687,7.373,10.379l.873,14.743c.194,2.522.387,4.268,1.26,5.336v1.648ZM740.076,248.92v-4.074c0-3.879-2.036-5.625-5.915-5.625h-4.655v15.615h4.655c3.976,0,5.915-1.843,5.915-5.917Z" fill="#490320"/>
            <path d="M761.809,226.416h32.203v13.386h-18.527v13.581h13.289v10.96h-13.289v14.55h18.72v13.386h-32.396v-65.862Z" fill="#490320"/>
            <path d="M800.156,273.558v-3.687l10.476-.97v3.202c0,7.759,1.746,10.184,6.401,10.184,3.879,0,6.595-2.619,6.595-8.244,0-3.782-1.746-6.111-4.462-7.857l-8.535-5.82c-7.567-5.238-9.797-8.924-9.797-17.459,0-8.827,5.722-17.46,17.847-17.46,10.087,0,18.234,4.365,18.234,16.49v4.752l-10.476.97v-3.782c0-4.85-1.454-8.147-5.722-8.147-3.782,0-5.722,3.006-5.722,7.081,0,4.17,1.357,6.013,5.432,8.438l9.02,6.111c5.722,3.783,8.633,8.147,8.633,16.974,0,10.089-5.045,18.915-18.916,18.915-11.639,0-19.011-5.335-19.011-19.69Z" fill="#490320"/>
            <rect x="693.871" y="226.416" width="13.581" height="65.862" fill="#490320"/>
            <ellipse cx="700.661" cy="215.118" rx="7.628" ry="6.412" fill="#490320"/>
            <path d="M377.793,221.129c0-3.916-2.661-8.368-7.537-8.368-5.905,0-12.217,7.04-19.269,7.907v.461s26.806,0,26.806,0Z" fill="#490320"/>
            <path d="M454.134,221.129c0-3.916-2.661-8.368-7.537-8.368-5.905,0-12.217,7.04-19.269,7.907v.461s26.806,0,26.806,0Z" fill="#490320"/>
          </g>
        </g>
        <path d="M246.055,50.645c-14,0-40.85,11.643-55.552,46.974-.046.109,0,.236.105.291,7.165,3.757,12.057,11.259,12.035,19.915-.03,11.765-9.463,21.717-21.212,22.337-12.938.683-23.643-9.606-23.643-22.395,0-8.702,4.968-16.226,12.211-19.944.106-.055.153-.182.107-.292-14.541-34.609-41.81-46.886-55.73-46.886-18.826,0-51.823,21.871-51.823,91.005,0,90.436,57.675,154.216,117.662,164.798,61.187-10.583,117.662-74.362,117.662-164.798,0-69.134-32.996-91.005-51.823-91.005ZM180.215,285.947c-17.444,0-35.616-12.621-35.616-39.775,0-36.198,28.072-50.382,35.209-89.174.042-.23.224-.345.407-.345.182,0,.364.115.407.345,7.137,38.792,35.209,52.976,35.209,89.174,0,27.154-18.172,39.775-35.616,39.775Z" fill="#e30033"/>
      </g>
    </g>
  </g>
</svg>