<?xml version="1.0" encoding="UTF-8"?>
<svg width="374px" height="304px" viewBox="0 0 374 304" version="1.1" xmlns="http://www.w3.org/2000/svg" xmlns:xlink="http://www.w3.org/1999/xlink">
    <title>Group 34</title>
    <defs>
        <polygon id="path-1" points="0 -4.09058334e-14 38.713849 -4.09058334e-14 38.713849 34.6073139 0 34.6073139"></polygon>
        <polygon id="path-3" points="0 2.04529167e-14 26.9595216 2.04529167e-14 26.9595216 17.6016195 0 17.6016195"></polygon>
        <polygon id="path-5" points="0 0 30.201072 0 30.201072 21.8884109 0 21.8884109"></polygon>
    </defs>
    <g id="Page-1" stroke="none" stroke-width="1" fill="none" fill-rule="evenodd">
        <g id="DEVENIR-PARTENAIRE" transform="translate(-1099.000000, -151.000000)">
            <g id="Group-34" transform="translate(1099.000000, 151.000000)">
                <g id="Group-72">
                    <polygon id="Fill-1" fill="#EA7F3B" points="144.11264 285.745395 216.634746 285.745395 216.634746 217.479795 144.11264 217.479795"></polygon>
                    <polygon id="Fill-2" fill="#F49750" points="216.634746 285.745395 245.055605 285.745395 245.055605 217.479795 216.634746 217.479795"></polygon>
                    <polygon id="Fill-3" fill="#EC9455" points="176.484415 222.839187 184.26333 222.839187 184.26333 217.479795 176.484415 217.479795"></polygon>
                    <polygon id="Fill-4" fill="#FFB665" points="226.327841 222.839187 231.932369 222.839187 231.932369 217.479795 226.327841 217.479795"></polygon>
                    <polygon id="Fill-5" fill="#EA7F3B" points="151.906291 217.480155 210.194966 217.480155 210.194966 149.214555 151.906291 149.214555"></polygon>
                    <polygon id="Fill-6" fill="#F49750" points="210.194966 217.480155 233.037893 217.480155 233.037893 149.214555 210.194966 149.214555"></polygon>
                    <polygon id="Fill-7" fill="#EC9455" points="177.924542 154.573948 184.176714 154.573948 184.176714 149.214555 177.924542 149.214555"></polygon>
                    <polygon id="Fill-8" fill="#FFB665" points="217.985741 154.573948 222.490497 154.573948 222.490497 149.214555 217.985741 149.214555"></polygon>
                    <g id="Group-71" transform="translate(0.000000, -0.000000)">
                        <path d="M123.050446,150.357604 L100.493604,150.357604 C100.295214,150.357604 100.134201,150.196409 100.134201,149.997793 L100.134201,146.302169 C100.134201,146.103553 100.295214,145.942357 100.493604,145.942357 L123.050446,145.942357 C123.249196,145.942357 123.409849,146.103553 123.409849,146.302169 L123.409849,149.997793 C123.409849,150.196409 123.249196,150.357604 123.050446,150.357604" id="Fill-9" fill="#77122A"></path>
                        <path d="M255.530042,288.281346 L136.646405,288.281346 C133.434422,288.281346 130.821563,285.665516 130.821563,282.449161 L130.821563,150.603428 C130.821563,150.061551 130.381654,149.621502 129.841112,149.621502 L114.651309,149.621502 C113.839418,149.621502 113.180992,148.963407 113.180992,148.149873 C113.180992,147.336339 113.839418,146.678244 114.651309,146.678244 L129.841112,146.678244 C132.00292,146.678244 133.761478,148.438802 133.761478,150.603428 L133.761478,282.449161 C133.761478,284.041687 135.055688,285.338088 136.646405,285.338088 L255.530042,285.338088 C256.342652,285.338088 257,285.996183 257,286.809717 C257,287.623251 256.342652,288.281346 255.530042,288.281346" id="Fill-11" fill="#77122A"></path>
                        <path d="M83.2716659,280.963571 C83.2716659,280.963571 83.8237087,291.913715 83.252977,294.42412 C82.8030046,296.402004 75.1577869,296.71468 74.4098696,295.66583 C73.6615928,294.616979 73.1016432,281.789339 73.1016432,281.789339" id="Fill-13" fill="#5B2D0F"></path>
                        <path d="M17.6967812,281.301938 C17.6967812,281.301938 14.177149,288.043007 13.2772042,289.892798 C12.3769,291.742949 4.51208726,287.951975 5.11444646,286.791582 C7.07283264,283.01752 10.9403668,272.969423 10.9403668,272.969423" id="Fill-15" fill="#5B2D0F"></path>
                        <path d="M79.8406624,134.41889 L70.9321438,169.062982 C69.8298552,173.021988 68.624418,177.186806 67.4186214,181.395881 C66.963258,182.999921 66.5075352,184.60432 66.0370768,186.178856 C64.978276,189.887793 63.9349295,193.522609 62.9645418,196.966365 C62.0383606,200.248565 61.156386,203.353739 60.3919361,206.179339 C59.8758336,208.078064 59.4290958,212.598376 58.5618567,215.480826 C57.3046655,219.658238 55.6399115,222.084447 55.5701873,222.206423 C49.7784102,231.463294 19.279843,280.341529 15.3404282,286.552236 C11.7241166,285.610249 7.45009782,282.482768 6.24466063,281.584678 C11.9041775,267.839159 17.0846103,241.608539 27.3308264,226.140962 C28.4478505,224.448408 33.5100398,217.644013 34.8182662,216.216281 C38.2480477,203.952465 41.384197,175.4795 42.1044404,166.104971 C42.3251137,163.058447 42.1633824,159.997171 41.6048704,156.995263 C41.6048704,156.965759 41.5901349,156.965759 41.5901349,156.951006 C40.326115,150.41611 38.341133,137.3769 48.7347043,126.986623 C48.9550183,126.766059 49.2784809,126.692297 49.5577369,126.810315 C51.9100286,127.825704 62.9645418,132.387754 72.0347917,133.00591 L79.1642663,133.491655 C79.6347246,133.52116 79.9581872,133.962649 79.8406624,134.41889" id="Fill-17" fill="#FF9A00"></path>
                        <path d="M50.3271465,164.298897 C49.2327648,163.787965 44.7560428,161.261009 42.0508175,153.12639 C42.0508175,153.12639 74.716584,129.216915 82.1655677,131.59347 C84.2849663,132.279271 89.4862445,204.748188 89.4556953,206.179518 C89.440241,206.886188 89.4866039,214.999578 89.4546171,215.848733 C88.9722984,227.97798 83.6186334,287.869686 83.6186334,287.869686 C82.354973,288.334922 77.954085,288.203231 72.1899819,288.11004 C70.5360099,272.986442 64.4638986,243.811125 69.6216891,217.141176 C69.9749821,215.312254 69.0311902,213.528669 67.7977195,207.831053 C62.9256544,195.264636 53.7109244,172.281676 50.6815177,164.674541 C50.6125124,164.501831 50.4957065,164.377696 50.3271465,164.298897" id="Fill-19" fill="#FF9A00"></path>
                        <path d="M37.2266966,86.0804434 C37.2622775,89.9174734 37.4915765,93.7365129 37.7916779,97.4145062 C38.1981626,101.923304 38.6865911,109.767915 38.9834578,113.687342 C40.1259995,128.793309 37.2172983,142.876331 37.2172983,142.876331 C37.8355251,143.141512 41.3860659,143.653884 44.710183,144.65452 C61.2067743,149.620638 85.2281832,141.987237 85.2281832,141.987237 C85.0739994,140.209049 83.1997135,123.990185 83.2529051,122.540144 C83.3057373,121.196248 82.9172228,116.634558 82.1578046,110.322025 C81.8929247,108.076441 81.5752125,105.636199 81.2039494,103.01965 C80.903848,100.809328 80.550555,98.4752305 80.1796512,96.0706102 C79.7383045,93.2766738 79.3670414,90.5363492 78.996497,87.866188 C78.5903718,84.8426918 78.2018573,81.9073495 77.7777619,79.0076285 C77.0007329,74.0040895 76.1176801,69.194489 74.7753104,64.544285 C73.6802099,60.6896242 72.6041577,57.6038807 70.7140581,53.9442377 C66.2103809,45.2623457 54.9589149,43.2376863 53.0691747,43.060659 C52.8923485,43.0433881 52.7158817,43.0786496 52.5746364,43.184794 C44.4323646,48.6305413 40.2823398,58.0018322 38.4454317,68.6108747 C37.4739658,74.2336493 37.1562537,80.1924878 37.2266966,86.0804434" id="Fill-21" fill="#FFFFFF"></path>
                        <path d="M79.3735106,93.3740387 C79.1805113,93.6485749 82.0794547,101.75225 84.7404735,105.617345 C88.4092579,110.946154 101.373638,132.129697 107.416638,139.641842 L102.133775,143.734698 C101.941854,143.415185 91.5651744,133.661774 85.0704053,127.055275 C78.3477748,120.199426 70.9286216,110.612608 68.4120828,106.186927 C68.1231229,105.671677 66.0375081,100.79767 65.9853947,100.112589" id="Fill-23" fill="#5B2D0F"></path>
                        <path d="M86.668598,16.6526526 C86.5654494,17.2413043 85.06638,25.5417961 82.302572,32.9003014 C81.3911264,35.2991648 80.3474205,37.5951221 79.1714543,39.4934876 C77.4071457,42.3341996 76.186973,43.4524938 73.6880449,43.467246 L73.6585739,43.467246 C72.3208764,43.467246 70.6007743,43.1434157 68.2341065,42.5842686 C66.9406156,42.2751905 66.7494133,42.9962528 66.617153,43.4082369 C65.838327,45.9837678 65.7790256,46.2633413 65.838327,48.220716 C63.6330311,48.1325621 56.5474037,47.6029196 53.6365999,44.7917122 C53.6222238,44.7773198 53.6074883,44.7622077 53.6074883,44.7478152 C53.1222944,44.2912144 52.7107782,43.7615718 52.3873156,43.1729202 C54.8129255,41.1122797 54.6659297,34.4161874 54.6659297,34.4161874 L54.6806652,34.4161874 C53.5190752,32.4145559 52.7398898,29.6627174 53.1075589,25.9685326 C54.0779466,16.4173359 61.5308838,7.66060305 62.0451892,7.45443106 C62.5451186,7.24825906 77.2748854,9.97131261 77.8632279,10.088971 C78.3775334,10.2066293 84.7867646,14.7981841 86.389342,15.9463426 C86.6096559,16.1082578 86.7271806,16.3730791 86.668598,16.6526526" id="Fill-25" fill="#5B2D0F"></path>
                        <path d="M76.2003068,79.1159677 C73.5824164,82.2905847 60.1087626,86.8832189 55.7704107,87.1829419 C53.3505512,80.881203 43.744791,54.9567833 56.6584951,51.8717594 C68.3229149,49.085379 72.853188,67.1198518 76.2003068,79.1159677" id="Fill-27" fill="#FFFFFF"></path>
                        <g id="Group-31" transform="translate(50.058610, -0.000000)">
                            <mask id="mask-2" fill="white">
                                <use xlink:href="#path-1"></use>
                            </mask>
                            <g id="Clip-30"></g>
                            <path d="M38.2727655,20.5861481 C32.9356331,23.6524618 20.661666,20.1554537 18.4006626,21.4914339 C16.136784,22.8137412 15.3022506,28.3897403 14.2660921,28.5649685 C13.1609283,28.7524303 13.4171826,27.0724703 13.5411765,25.0316194 C13.6817031,23.0019226 12.3145346,19.1141592 9.07631481,20.7552595 C5.355417,22.6406719 7.9186782,26.2395066 6.77793352,29.8329442 C5.91033502,32.5639137 5.22243794,33.8178568 4.72897782,34.3719665 C4.3997648,34.7422126 3.79237396,34.6608952 3.5458236,34.2312802 C0.886961245,29.5958285 -1.1677449,21.7263908 0.752544575,15.594483 C1.91629104,8.09025398 6.00018573,2.02095334 14.2463249,2.1008315 C14.4058998,2.10263055 14.5403165,2.00692069 14.6894687,1.95150972 C37.5988852,-6.5166543 39.9885548,14.9770464 38.2727655,20.5861481" id="Fill-29" fill="#FF9A00" mask="url(#mask-2)"></path>
                        </g>
                        <path d="M73.8011849,292.243159 C73.8011849,292.243159 72.5759806,294.350935 72.0117181,296.613789 C71.5653397,298.403492 71.5782782,300.383175 71.8093743,301.932163 C71.9872787,303.126378 73.0198431,304 74.2259991,304 L88.4094736,304 L100.892972,304 C102.8625,304 104.149881,301.827818 103.104378,300.156853 C102.602292,299.354474 101.669283,298.61758 100.017827,298.172493 C94.7381985,296.749438 89.7363889,295.14288 88.2067703,294.343738 C86.0241168,293.203855 83.4806227,291.874712 83.4806227,291.874712 C83.4806227,291.874712 81.1028134,293.378004 73.8011849,292.243159" id="Fill-32" fill="#FFFFFF"></path>
                        <g id="Group-36" transform="translate(0.000000, 285.813543)">
                            <mask id="mask-4" fill="white">
                                <use xlink:href="#path-3"></use>
                            </mask>
                            <g id="Clip-35"></g>
                            <path d="M26.8017135,15.8651692 C26.3898378,16.9539588 25.2437021,17.6016195 24.0821121,17.6016195 L15.3058537,17.6016195 C12.6894008,17.6016195 10.5868941,15.7327585 10.5868941,15.7327585 C9.44039898,14.6141045 7.91149921,13.2457413 5.83882292,12.4066609 C3.53073775,11.4650341 1.95799084,9.9048914 0.929020452,8.88914349 C-0.0999499353,7.85900312 0.00283928259,7.16708558 0.00283928259,7.16708558 C1.89904877,1.6778011 5.60377345,2.04529167e-14 5.60377345,2.04529167e-14 C11.1752366,4.79772675 13.4096442,3.8118432 13.4096442,3.8118432 C13.4096442,3.8118432 14.644193,6.01964666 17.7019925,8.21197822 C19.2456278,9.34574431 22.2250775,11.4035064 23.9153492,12.3897497 C27.0026197,14.1704569 27.2132298,14.6878659 26.8017135,15.8651692" id="Fill-34" fill="#FFFFFF" mask="url(#mask-4)"></path>
                        </g>
                        <path d="M116.761939,146.459766 C117.126373,146.361178 117.617317,146.283459 118.318512,146.264389 C119.748576,146.225169 120.201783,144.861843 119.78847,144.608536 C119.375157,144.355588 116.41188,144.263837 115.492887,143.987861 C115.15433,143.886034 114.746407,143.720161 114.3658,143.55141 C114.304342,143.4942 114.243243,143.450663 114.182864,143.425836 C112.757112,142.837184 110.37535,141.600872 108.949599,140.865057 C107.523488,140.11449 105.891799,137.656618 105.891799,137.656618 L101.20267,138.363287 L99.5120389,141.159383 C99.5120389,141.159383 103.054673,144.308813 104.980353,147.487748 C105.509754,148.355973 105.642014,149.548028 106.538724,150.946256 C106.538724,150.946256 106.538724,150.961008 106.55346,150.975761 C106.582931,151.03441 106.626778,151.078667 106.670984,151.137316 C106.876922,151.402497 107.494376,151.887883 109.199384,152.153064 C111.064325,152.434077 114.450619,152.285834 115.947172,152.200199 C116.166408,152.216391 116.409724,152.208835 116.696527,152.153064 C118.479165,151.806206 118.66282,150.357604 118.66282,150.357604 L117.697824,150.357604 C116.526889,150.357604 116.135499,148.564304 116.135499,148.564304 L116.134421,148.565023 C116.108185,148.439089 116.076557,148.320711 116.049243,148.196217 C116.045289,148.178946 116.050321,148.167791 116.045289,148.149801 C115.781847,147.207455 116.717373,146.493229 116.761939,146.459766" id="Fill-37" fill="#5B2D0F"></path>
                        <polygon id="Fill-39" fill="#77122A" points="154.127544 296.60868 148.615023 296.60868 145.215432 286.552308 157.527136 286.552308"></polygon>
                        <path d="M144.633558,296.670172 C144.633558,292.944683 147.650386,289.924785 151.371284,289.924785 C155.092541,289.924785 158.109009,292.944683 158.109009,296.670172 C158.109009,300.39566 155.092541,303.415198 151.371284,303.415198 C147.650386,303.415198 144.633558,300.39566 144.633558,296.670172" id="Fill-41" fill="#EA7F3B"></path>
                        <path d="M148.61488,296.670172 C148.61488,295.14637 149.849069,293.910417 151.37114,293.910417 C152.893571,293.910417 154.127401,295.14637 154.127401,296.670172 C154.127401,298.193973 152.893571,299.429566 151.37114,299.429566 C149.849069,299.429566 148.61488,298.193973 148.61488,296.670172" id="Fill-43" fill="#77122A"></path>
                        <polygon id="Fill-45" fill="#77122A" points="244.614402 296.60868 239.101881 296.60868 235.70229 286.552308 248.013994 286.552308"></polygon>
                        <path d="M235.120596,296.670172 C235.120596,292.944683 238.137064,289.924785 241.858322,289.924785 C245.579219,289.924785 248.595688,292.944683 248.595688,296.670172 C248.595688,300.39566 245.579219,303.415198 241.858322,303.415198 C238.137064,303.415198 235.120596,300.39566 235.120596,296.670172" id="Fill-47" fill="#EA7F3B"></path>
                        <path d="M239.101738,296.670172 C239.101738,295.14637 240.335927,293.910417 241.857998,293.910417 C243.380429,293.910417 244.614259,295.14637 244.614259,296.670172 C244.614259,298.193973 243.380429,299.429566 241.857998,299.429566 C240.335927,299.429566 239.101738,298.193973 239.101738,296.670172" id="Fill-49" fill="#77122A"></path>
                        <path d="M63.2809241,22.5646077 C62.846406,21.6323361 61.5353044,19.2381502 58.9925292,19.881853 C56.4501133,20.5259157 54.594157,25.8511261 57.6749583,30.5517037 C59.5736836,33.4492659 63.3359127,29.4834233 63.5547891,27.0403032 C63.7880415,24.4345482 63.668001,23.3943331 63.2809241,22.5646077" id="Fill-51" fill="#5B2D0F"></path>
                        <path d="M188.378745,271.147086 C189.195667,270.979054 190.299394,267.863086 190.299394,267.863086 C190.299394,267.863086 190.993401,267.730316 192.021293,267.368345 C193.049185,267.006375 193.862873,264.040448 194.415275,262.94878 C194.967677,261.857112 195.935549,262.91172 201.091543,260.69708 C206.247536,258.4828 204.25932,249.458367 204.25932,249.458367 C204.25932,249.458367 201.164142,240.751648 195.619994,241.611957 C190.076204,242.471907 189.81384,243.879849 188.767619,243.24802 C187.525163,242.497813 186.40131,241.229118 184.923086,240.885498 C184.573028,240.803821 184.217219,240.777555 183.861051,240.833685 C183.520696,240.887297 182.98878,241.294964 182.689038,241.257183 C182.326401,241.211127 181.739855,240.522808 181.428972,240.311239 C180.977921,240.00432 180.498478,239.71719 179.966561,239.577583 C179.121605,239.35522 178.105933,239.730143 177.255226,239.886301 C176.071713,240.103628 174.891074,240.339664 173.722296,240.628233 C172.633665,240.897372 171.591397,241.169749 171.063434,242.212483 C170.672403,242.985358 170.333127,243.790256 169.979834,244.581122 C169.979834,244.581122 168.045887,244.33717 167.274249,245.824991 C166.502971,247.312811 166.707112,249.18671 165.099862,249.848403 C163.492253,250.510456 159.448971,249.87287 157.545933,253.218398 C155.643254,256.563925 154.795063,260.339427 155.923588,263.346732 C156.560091,266.495802 159.278973,269.246561 162.664548,271.072605 C166.050123,272.898288 169.140269,270.211216 170.853902,269.918689 C172.567175,269.626162 173.386614,271.323393 174.828538,272.175067 C176.269384,273.026021 177.777798,271.795826 177.781033,271.793307 C177.896401,271.699396 180.282117,273.474706 180.636129,273.557103 C181.024284,273.647776 181.430769,273.576533 181.820002,273.489099 C184.087115,272.979966 186.134274,271.608724 188.378745,271.147086" id="Fill-53" fill="#FFFFFF"></path>
                        <path d="M177.253573,264.092117 C180.103278,262.803632 183.260992,261.675983 186.30154,260.815314 C187.888304,260.366269 189.507413,260.014733 191.149885,259.851019 C192.701786,259.6963 194.2943,259.955364 195.820684,259.63981 C198.44109,259.098653 201.375615,258.128242 201.973302,255.21089 C202.320485,253.516897 201.935564,251.878675 201.521173,250.244411 C201.184053,248.913109 199.573928,243.662379 195.309973,244.421222 C193.285816,244.781753 191.451424,245.30384 189.685318,246.396587 C186.33784,248.467662 182.575251,249.413966 178.780676,250.314575 C175.620446,251.064782 172.425714,251.671064 169.210137,252.129464 C165.59706,252.644714 161.383421,252.942638 158.883774,255.980886 C158.262007,256.736491 157.815988,257.660127 157.74267,258.636295 C157.643115,259.969757 158.274586,261.120074 159.196454,262.032197 C158.481602,265.754447 162.194593,268.799531 165.732555,268.368117 C168.420529,268.040689 171.150912,266.685279 173.62612,265.657298 C174.84198,265.152122 176.053886,264.634713 177.253573,264.092117" id="Fill-55" fill="#E8364B"></path>
                        <path d="M187.455295,176.824836 C187.79529,176.555337 188.166553,176.309945 188.533144,176.067432 C188.799102,175.891125 189.049966,175.725252 189.289328,175.550743 C189.395711,175.472664 189.503173,175.389548 189.548817,175.295277 C189.621057,175.145595 189.563552,174.940863 189.496703,174.703747 C189.46867,174.605518 189.439918,174.503692 189.419432,174.399346 C189.272076,173.650579 189.602368,172.821933 190.302484,172.183267 C190.746706,171.77776 191.271794,171.49135 191.778911,171.214295 C191.925188,171.134776 192.071825,171.054538 192.215945,170.971782 C192.449557,170.837572 192.686044,170.691129 192.914624,170.549723 C193.566222,170.146014 194.240102,169.728633 195.000239,169.499793 C195.451649,169.363424 195.93253,169.297219 196.433538,169.298658 C196.429225,169.297579 196.424912,169.296499 196.420599,169.29578 C195.014256,168.974468 193.431805,169.176682 191.965442,169.865002 C190.458465,170.572391 189.341801,171.705797 188.900454,172.974852 C188.778257,173.326029 188.702782,173.690158 188.622995,174.075156 C188.5238,174.552986 188.421729,175.046647 188.222261,175.514042 C188.039325,175.943657 187.783789,176.329015 187.53652,176.70178 C187.509205,176.743158 187.48225,176.784177 187.455295,176.824836 M185.419637,180.076452 C185.45989,180.087247 185.499425,180.093364 185.537521,180.091205 C185.715066,180.08113 185.862062,179.888991 185.92963,179.705847 C185.780478,179.854089 185.606886,179.981462 185.419637,180.076452 M188.564412,187.378107 L188.561896,187.380626 C188.556865,187.477775 188.715721,187.614144 188.775382,187.665597 C188.89686,187.769942 189.019416,187.875367 189.14377,187.978273 C189.109267,187.795129 189.070092,187.624938 188.984554,187.491088 C188.936754,187.416247 188.819948,187.359037 188.700626,187.352921 C188.621917,187.348603 188.576632,187.368033 188.564412,187.378107 M197.904574,179.224059 C198.145014,179.174045 198.375392,179.143101 198.583845,179.125111 C198.934982,179.094527 199.294025,179.08841 199.641568,179.082653 C200.535403,179.068261 201.37964,179.054228 202.091617,178.650879 C202.812939,178.242133 203.331557,177.412048 203.443691,176.484094 C203.571638,175.429127 203.202531,174.46807 202.870443,173.847755 C202.253348,172.694559 201.237317,171.686727 199.919386,170.91709 C200.100885,171.162482 200.259741,171.422266 200.393079,171.694643 C201.160404,173.264501 200.994001,175.191651 199.978688,176.489851 C199.740763,176.794252 199.463663,177.060512 199.195549,177.318137 C198.855913,177.644127 198.535326,177.952485 198.298479,178.323091 C198.122731,178.598706 197.998378,178.903467 197.904574,179.224059 M196.507934,180.444899 C196.440367,180.50103 196.375315,180.560759 196.313138,180.625165 C195.793801,181.160564 195.516342,182.1245 195.9505,182.81102 C196.053649,182.974015 196.192379,183.119378 196.339015,183.273737 C196.381424,183.318354 196.424193,183.363331 196.466603,183.409027 C196.705965,182.630395 196.896449,181.772244 197.041648,180.821982 L197.081182,180.55788 C197.106699,180.38589 197.132217,180.213181 197.160969,180.040471 C196.931311,180.145176 196.7092,180.277587 196.507934,180.444899 M193.371426,188.182286 C193.872433,187.804124 194.29581,187.374869 194.6509,186.940217 C194.589442,186.983034 194.527625,187.022254 194.467604,187.059674 C194.417288,187.091338 194.366612,187.123361 194.318093,187.156823 C193.977379,187.391061 193.715374,187.733601 193.437196,188.096651 C193.415273,188.125076 193.393349,188.153861 193.371426,188.182286 M193.975941,188.409687 C193.590661,188.729919 193.181661,189.005895 192.752534,189.233655 C192.084044,189.588789 191.49067,189.743868 190.938268,189.709686 C190.308235,189.669747 189.752239,189.361389 189.446387,188.89975 C189.076202,188.655438 188.741957,188.367589 188.414541,188.086217 C188.277968,187.968918 187.992962,187.723886 188.006978,187.370911 C188.017761,187.107169 188.190993,186.898479 188.459107,186.826157 C188.777179,186.740162 189.235058,186.853502 189.451419,187.192445 C189.608837,187.439635 189.657356,187.707335 189.704438,187.966399 C189.734987,188.133352 189.76338,188.290589 189.819806,188.427318 C189.830229,188.452864 189.842089,188.478411 189.854309,188.502518 C189.98621,188.584915 190.120986,188.659036 190.261153,188.722723 C190.836557,188.986105 191.427415,189.022086 191.88206,188.822031 C192.338142,188.620537 192.65873,188.202436 192.997647,187.759508 C193.2902,187.377748 193.592458,186.983034 194.004334,186.699863 C194.059323,186.662442 194.115749,186.626101 194.172894,186.59048 C194.332828,186.489373 194.484137,186.394743 194.55422,186.268449 C194.577222,186.22743 194.593036,186.181015 194.605615,186.129561 C194.529062,185.996071 194.511092,185.836315 194.559611,185.67512 C194.604537,185.526158 194.702654,185.384752 194.830242,185.271411 C194.875526,185.202327 194.930156,185.13972 194.992692,185.084309 C195.005271,185.067398 195.019647,185.050847 195.035101,185.035375 C195.102669,184.966651 195.188566,184.922034 195.28273,184.903324 C195.316154,184.889291 195.350298,184.876698 195.385879,184.865544 C195.455243,184.728455 195.572768,184.615115 195.70395,184.54855 C195.832616,184.482704 195.964517,184.463634 196.08312,184.488101 C196.144937,184.336621 196.204239,184.181902 196.261384,184.023945 C196.168299,183.89801 196.056165,183.779992 195.938281,183.656217 C195.779425,183.489265 195.615178,183.316915 195.482558,183.107864 C194.953876,182.272382 195.140047,181.038948 195.915638,180.238727 C196.313138,179.828902 196.800129,179.563721 197.28712,179.39389 C197.399253,178.915341 197.560985,178.449385 197.831974,178.024447 C198.104042,177.598071 198.463805,177.252292 198.812066,176.918027 C199.078024,176.662561 199.328887,176.421487 199.542732,176.14839 C200.430098,175.013545 200.571702,173.321711 199.895666,171.938595 C199.569687,171.271145 199.069758,170.686811 198.453382,170.228051 C197.273103,169.809591 196.133436,169.736909 195.159814,170.030155 C194.469761,170.238126 193.855901,170.618807 193.2061,171.021076 C192.973567,171.16536 192.733485,171.314322 192.491248,171.45285 C192.343533,171.537765 192.194022,171.619443 192.044151,171.70148 C191.543503,171.974576 191.070888,172.232561 190.675545,172.592733 C190.246418,172.984208 189.833823,173.636546 189.962849,174.292482 C189.979022,174.374519 190.003461,174.461234 190.029338,174.553346 C190.114517,174.855227 190.211556,175.198128 190.046949,175.53707 C189.945957,175.746121 189.770928,175.885008 189.615306,175.998708 C189.365881,176.180773 189.097766,176.35816 188.838637,176.52979 C187.86142,177.176731 186.85042,177.845261 186.632622,178.898429 C186.60962,179.007812 186.595963,179.121872 186.581227,179.242769 C186.557147,179.441745 186.532348,179.647557 186.464421,179.854089 C186.349772,180.202027 186.046436,180.617249 185.569149,180.644595 C185.306066,180.659707 185.076767,180.547446 184.906051,180.447418 C184.798589,180.385171 184.69544,180.316447 184.596245,180.242325 C184.457156,180.226494 184.318786,180.186915 184.184729,180.118191 C183.547148,179.792921 183.417045,179.103882 183.356305,178.434992 C183.354508,178.428156 183.352711,178.421319 183.350914,178.414843 C183.320006,178.300423 183.291972,178.179886 183.263579,178.05755 C183.143898,177.538342 183.030686,177.048638 182.659064,176.915508 C182.533992,176.870892 182.379448,176.871971 182.21628,176.872691 C182.172073,176.87305 182.127866,176.87341 182.084019,176.872691 C181.42164,176.864055 180.898709,176.581603 180.393029,176.308146 C180.063097,176.13004 179.747182,175.959849 179.4115,175.878531 C179.474395,176.01454 179.554901,176.173577 179.617797,176.298431 C179.895975,176.848223 180.063816,177.199759 180.04944,177.440113 C180.040095,177.593393 179.908554,177.709612 179.756167,177.700257 C179.60414,177.690902 179.488412,177.56065 179.496319,177.40845 C179.493443,177.279637 179.262347,176.822317 179.123977,176.54886 C178.799077,175.906237 178.672567,175.636738 178.8095,175.42373 C178.871317,175.32694 178.979497,175.272609 179.09846,175.276567 C179.692912,175.300674 180.182419,175.564776 180.655752,175.820242 C181.123335,176.07283 181.564682,176.311385 182.090848,176.318221 C182.13146,176.318941 182.172073,176.318581 182.213404,176.318221 C182.398497,176.317142 182.60695,176.316062 182.813607,176.382627 C182.287801,175.628822 181.383184,175.184095 180.238845,174.808812 C179.681411,174.626028 179.144104,174.477066 178.703117,174.664527 C178.3279,174.822844 178.7369,176.18689 178.870598,176.634855 C178.920915,176.804326 178.961168,176.938536 178.983451,177.039283 C179.016875,177.188605 178.923071,177.336488 178.77356,177.37031 C178.624407,177.403053 178.476333,177.309502 178.442909,177.15982 C178.424939,177.078503 178.385404,176.946452 178.33976,176.793172 C178.084584,175.9379 177.65977,174.50585 178.486756,174.153955 C179.155245,173.869704 179.911429,174.117974 180.411358,174.282048 C182.060299,174.823564 183.617951,175.608313 183.847609,177.673631 C183.863063,177.811439 183.874205,177.955363 183.884987,178.101447 C183.891097,178.179166 183.896847,178.256526 183.903317,178.332806 C184.060016,178.861009 184.373416,179.33596 184.79176,179.690375 C185.133553,179.663749 185.495471,179.415838 185.706441,179.114676 C185.915254,178.817112 186.046076,178.468815 186.184447,178.100368 C186.26639,177.881602 186.351569,177.65564 186.455077,177.436515 C186.631184,177.06555 186.856889,176.725168 187.075047,176.395581 C187.319441,176.026774 187.549818,175.678836 187.712987,175.296356 C187.890532,174.879695 187.982898,174.434248 188.080656,173.962895 C188.160443,173.577177 188.243106,173.178146 188.377163,172.792428 C188.874577,171.362537 190.065638,170.144935 191.730392,169.363424 C193.308171,168.622213 195.01785,168.406685 196.543875,168.754983 C197.34103,168.937407 198.080681,169.27563 198.714668,169.733311 C199.099588,169.874357 199.487384,170.048505 199.873742,170.256117 C201.437504,171.096636 202.642582,172.247673 203.358872,173.585812 C203.728338,174.27701 204.138776,175.352127 203.993577,176.5503 C203.860598,177.649884 203.237034,178.639365 202.364404,179.133746 C201.529511,179.606179 200.574218,179.62201 199.650553,179.637123 C199.312714,179.64252 198.963734,179.648636 198.632365,179.677421 C198.37,179.700449 198.06918,179.744706 197.761531,179.827463 C197.709418,180.096242 197.669165,180.369339 197.629271,180.639557 L197.589018,180.906178 C197.415426,182.042103 197.177861,183.053893 196.870572,183.959898 C197.089089,184.408223 197.100949,184.98716 196.698058,185.321785 C196.696261,185.323584 196.694824,185.325023 196.694824,185.325023 C196.693746,185.327542 196.694464,185.328981 196.694824,185.33006 C196.730405,185.396985 196.736874,185.475784 196.713153,185.547386 C196.689433,185.619709 196.63696,185.678718 196.568314,185.710741 C196.416646,185.782703 196.242336,185.813647 196.073416,185.803932 C195.506638,186.847026 194.79538,187.728564 193.975941,188.409687" id="Fill-57" fill="#FFFFFF"></path>
                        <path d="M180.912007,177.737714 C183.293769,178.972946 182.349977,179.905218 182.349977,179.905218 L170.594988,201.025794 C170.594988,201.025794 167.93972,205.63498 164.559176,202.860473 C161.178274,200.085967 162.896579,197.456824 162.896579,197.456824 C162.896579,197.456824 173.63913,177.357753 174.7407,176.081861 C175.84191,174.806329 176.307337,175.439957 176.307337,175.439957 C176.307337,175.439957 177.105571,175.837549 178.037862,176.302066 L180.912007,177.737714 Z" id="Fill-59" fill="#FFFFFF"></path>
                        <path d="M163.806695,202.181329 L163.217274,201.470701 C163.198944,199.946899 163.486107,198.567742 164.205272,197.224565 C164.955346,195.823819 165.68745,194.424512 166.395833,193.071261 C168.817489,188.443365 171.438974,183.531938 174.516181,178.831361 C174.967591,178.141242 175.336698,177.395353 175.693585,176.673571 C175.885147,176.285694 176.083537,175.884864 176.294506,175.49159 L176.782216,175.754253 C176.575559,176.138891 176.379326,176.536123 176.18992,176.919682 C175.825486,177.656216 175.449191,178.417577 174.979451,179.135042 C171.915901,183.81475 169.301605,188.712504 166.886418,193.328526 C166.177675,194.682857 165.444853,196.083603 164.693342,197.486508 C164.020899,198.74225 163.788725,200.72841 163.806695,202.181329" id="Fill-61" fill="#E8364B"></path>
                        <path d="M165.378004,203.401666 L164.74833,203.008392 C164.728563,201.414427 165.466776,199.38545 166.162221,198.08653 C166.519827,197.41836 166.906544,196.779335 167.280323,196.161179 C167.682136,195.496607 168.097246,194.809367 168.471744,194.094421 C169.275728,192.558026 170.05671,190.961902 170.812175,189.418311 C172.443145,186.085736 174.129464,182.639822 176.182373,179.503704 C176.60539,178.857843 176.904413,178.218458 177.221047,177.541652 C177.416562,177.123911 177.618547,176.691777 177.854315,176.252807 L178.342025,176.51511 C178.113804,176.940767 177.914695,177.365704 177.722773,177.776609 C177.411531,178.441541 177.090224,179.128781 176.645643,179.807745 C174.611423,182.914718 172.933012,186.344801 171.309589,189.661903 C170.552327,191.209093 169.769548,192.808815 168.962329,194.351686 C168.580283,195.082104 168.160142,195.77654 167.754016,196.448308 C167.384191,197.060347 167.001067,197.693256 166.65065,198.348113 C166.00013,199.562477 165.359674,201.913485 165.378004,203.401666" id="Fill-63" fill="#E8364B"></path>
                        <path d="M166.664522,203.746041 L166.072586,203.663644 C166.056772,202.362926 167.059506,201.213328 167.781547,199.953628 C167.943997,199.670456 168.097462,199.403116 168.225409,199.163842 C168.609611,198.446377 169.020768,197.567358 169.418627,196.717483 C169.779467,195.944968 170.153246,195.146546 170.501507,194.480895 C171.300101,192.954934 172.049096,191.426455 172.774012,189.948349 C174.397434,186.636644 175.930647,183.508443 177.990025,180.36261 C178.359492,179.798426 178.557163,179.214092 178.766695,178.595576 C178.93849,178.087162 179.116394,177.561838 179.398166,177.037232 L179.885875,177.299535 C179.626027,177.783482 179.45567,178.286858 179.291064,178.773683 C179.079735,179.397596 178.861218,180.043098 178.453296,180.666291 C176.412606,183.783698 174.886582,186.896788 173.270706,190.192661 C172.544713,191.674005 171.79392,193.205723 170.992452,194.73816 C170.649581,195.392657 170.278678,196.185682 169.919994,196.95244 C169.5189,197.809151 169.104868,198.695367 168.713478,199.425425 C168.581577,199.671895 168.426315,199.942834 168.262068,200.229603 C167.573452,201.430654 166.650146,202.597523 166.664522,203.746041" id="Fill-65" fill="#E8364B"></path>
                        <path d="M168.756211,203.067869 L168.380635,203.265765 L167.732632,203.558292 L167.733351,203.557572 C168.230045,203.145228 169.037624,201.51888 169.687065,200.212045 C170.057968,199.465436 170.408386,198.760205 170.668953,198.340665 C171.045248,197.734742 171.431606,197.038507 171.805385,196.3653 C172.200369,195.654312 172.60865,194.918497 173.01226,194.275514 C174.498391,191.907595 175.518376,189.629628 176.598382,187.218171 C177.469215,185.27375 178.369519,183.262763 179.544407,181.175856 C179.946219,180.461631 180.372471,179.799577 180.784706,179.159833 C181.001067,178.823409 181.224975,178.475831 181.442773,178.124655 L181.91359,178.416822 C181.693277,178.772316 181.467931,179.121693 181.250133,179.460275 C180.842211,180.093184 180.420631,180.748041 180.026725,181.448234 C178.864417,183.512832 177.969503,185.511945 177.103702,187.444852 C176.01543,189.875019 174.987538,192.169897 173.480921,194.57056 C173.085578,195.20095 172.68089,195.929928 172.289501,196.634798 C171.912487,197.313763 171.522535,198.015755 171.139052,198.633551 C170.892502,199.030423 170.547834,199.7245 170.182681,200.459235 C169.440874,201.952453 169.342757,202.580684 168.756211,203.067869" id="Fill-67" fill="#E8364B"></path>
                        <path d="M173.33928,287.438056 L170.064042,262.792406 C169.645338,259.644775 167.526658,257.033623 164.53391,255.978296 L131.741634,244.424748 L132.473738,242.343958 L165.266373,253.897506 C169.045495,255.228089 171.721608,258.525761 172.25029,262.502038 L175.525528,287.147328 L173.33928,287.438056 Z" id="Fill-69" fill="#77122A"></path>
                    </g>
                </g>
                <g id="Group-52" transform="translate(276.000000, 11.000000)">
                    <path d="M97.8717674,281.172701 C96.9540668,283.527169 93.6424744,284.354755 88.6673239,286.081796 C83.7069751,287.794104 75.5920755,291.547526 71.7642313,292.717573 C67.9363872,293.88798 66.8898041,291.119539 68.5815214,289.90637 C70.2732386,288.69356 73.0544997,285.867623 74.9899021,283.555917 C76.9397452,281.243852 82.0582187,276.348772 82.1441403,275.050436 C82.1585809,274.736363 82.1585809,274.422291 82.1296997,274.108577 C81.9863767,272.338773 81.1834789,270.754753 81.1834789,270.754753 L85.3986923,268.85702 L90.0009141,268.243249 C90.0009141,268.243249 90.7178902,269.456418 91.8359543,271.111589 C92.2948046,271.824901 92.8395766,272.610083 93.4273093,273.423654 C95.6352783,276.491794 98.3450583,279.931143 97.8717674,281.172701" id="Fill-1" fill="#FFA17E"></path>
                    <path d="M31.8320876,291.007134 C30.1688906,292.890852 26.7710155,292.548391 21.5095801,292.477239 C16.2477835,292.405728 7.32998613,293.176177 3.33029875,292.962363 C-0.669749639,292.762564 -0.69826984,289.808339 1.30861364,289.251704 C3.31585814,288.681054 6.90001703,286.968746 9.52387549,285.455878 C12.1332933,283.94301 19.2156895,281.088685 19.559737,279.833112 C19.9182251,278.591554 19.5023356,275.180953 19.5023356,275.180953 L24.3338019,275.180953 L28.6493776,275.409141 C28.6493776,275.409141 29.0793467,277.449536 29.6959607,279.833112 C29.8822445,280.603561 30.0974096,281.417131 30.3270152,282.201954 C31.3447171,285.841103 32.7064664,289.994123 31.8320876,291.007134" id="Fill-3" fill="#FFA17E"></path>
                    <path d="M90.9208169,268.243069 C87.2074146,270.155176 82.5921963,271.213465 80.9289993,271.427279 C80.3412665,270.200095 79.7250136,268.9014 79.1224792,267.560302 L43.3303495,198.103487 L65.5670806,193.380176 C65.5670806,193.380176 65.3374749,194.33605 67.1869558,198.203746 C69.0364366,202.09983 72.8502012,205.224747 80.7784559,226.01752 C88.4345052,246.239643 88.311399,258.110806 90.9208169,268.243069" id="Fill-5" fill="#FF9A00"></path>
                    <path d="M17.0025941,126.83141 C17.0025941,126.83141 25.527607,172.653704 43.3296274,198.099714 C52.7925578,198.822009 59.3756699,195.756026 65.5714127,193.38359 C65.3291715,191.89372 64.4345759,182.072655 64.9959545,170.554734 C65.3414461,163.461863 67.2671011,154.455446 67.1858727,146.767849 C67.0519361,134.110785 65.9591431,124.009426 62.6681285,118.512073 L17.0025941,126.83141 Z" id="Fill-7" fill="#FF9A00"></path>
                    <path d="M51.1023207,153.985235 C58.615769,135.665158 56.5410147,141.00799 61.3320474,121.739944 L17.2867492,118.640181 C17.2867492,118.640181 10.3664489,144.483633 6.53102339,188.480424 C6.33751925,190.696902 6.42488493,192.933503 6.77434764,195.130575 L18.4412758,268.544924 C18.7279219,271.185076 19.1008506,273.710955 19.4019372,275.85161 C21.8247102,276.436633 25.2229463,276.750706 29.1081918,275.694573 C29.136712,275.066427 29.1511526,274.495778 29.1222714,273.99628 C29.5381609,263.307382 34.3696273,251.876424 33.2660039,229.656668 C32.1331382,207.450927 29.3374365,202.474633 28.7641444,198.207339 C28.2049318,193.954779 28.495549,192.398429 28.495549,192.398429 C29.1800339,186.874125 48.9744972,159.183608 51.1023207,153.985235" id="Fill-9" fill="#FF9A00"></path>
                    <path d="M66.7569505,131.813202 C66.7569505,131.813202 25.6575364,140.316167 13.9306797,129.73184 C15.8606669,121.258701 18.3639463,115.946054 20.4152347,106.13577 C22.466523,96.3157826 21.063979,88.8890738 21.063979,88.8890738 L56.2131407,87.4549036 C56.2131407,89.6961763 56.3755975,92.0513633 56.7095366,94.5395102 C57.2344527,98.5189642 58.6088375,104.151433 60.5742043,108.682491 C65.6814863,120.455911 66.7569505,131.813202 66.7569505,131.813202" id="Fill-11" fill="#FFFFFF"></path>
                    <path d="M61.1841394,72.3163767 C61.1841394,72.3163767 56.2707226,89.914518 57.1768708,96.0781078 C57.1768708,96.0781078 44.1532475,100.893053 21.455139,96.1733359 C21.455139,96.1733359 20.9017027,75.8969509 18.0395742,70.9964801 C18.0395742,70.9964801 18.5926495,69.0969503 19.0699115,66.2192668 C21.3024295,67.0170262 22.8862032,66.1718325 22.9721248,62.2876066 C23.2869301,48.4407312 21.7605578,46.9878748 21.7605578,46.9878748 L34.7650473,44.3761111 L48.1702636,44.7271971 C48.1702636,44.7271971 55.3927336,46.6838638 62.8253145,49.6373703 C62.8253145,49.6373703 58.0927663,63.2467146 61.1841394,72.3163767" id="Fill-13" fill="#FFFFFF"></path>
                    <path d="M21.7604856,46.987767 C21.7604856,46.987767 13.8932424,48.493448 12.7993664,59.4859977 C12.0163244,67.3539897 15.7030116,97.5847591 15.7030116,97.5847591 C15.7030116,97.5847591 20.2647997,94.6786869 21.5976678,89.8152293 C22.9301749,84.9517717 21.5236596,76.7722223 22.1157246,73.2351296 C22.7081505,69.6980369 23.2875799,63.6314718 23.3330678,59.7946803 C23.3778337,56.0355086 23.4525638,48.3188034 21.7604856,46.987767" id="Fill-15" fill="#FFFFFF"></path>
                    <path d="M73.4940718,103.486598 C74.4215198,100.17913 74.8431856,93.2684495 74.283973,87.8113439 C73.6864929,81.9841067 72.1955001,73.7930581 70.4604611,61.8263076 C68.725783,49.8599165 60.8726194,48.9432118 60.8726194,48.9432118 C53.5241551,59.8045984 61.1841755,72.3164845 61.1841755,72.3164845 L61.884545,99.4956445 C61.884545,99.4956445 70.1081102,97.1537534 73.4940718,103.486598" id="Fill-17" fill="#FFA17E"></path>
                    <path d="M57.0795411,75.7404176 C66.4883191,78.2972005 73.6862402,75.1460509 73.6862402,75.1460509 C73.6862402,75.1460509 72.9064473,70.966079 72.043621,65.810469 C70.9320552,59.1667862 68.5966479,51.0389833 60.8727277,48.9432478 C60.8727277,48.9432478 57.5275609,51.242376 56.6315212,56.1478777 C55.7354815,61.0533793 57.0795411,75.7404176 57.0795411,75.7404176" id="Fill-19" fill="#FFFFFF"></path>
                    <polygon id="Fill-21" fill="#EA7F3B" points="60.5356117 111.884668 9.02415825 105.499718 14.9682735 57.9870365 66.479366 64.3716273"></polygon>
                    <polygon id="Fill-23" fill="#F49750" points="65.5566833 71.7482426 14.0452298 65.3632925 14.9683457 57.9868928 66.4794382 64.3718429"></polygon>
                    <polygon id="Fill-25" fill="#EA7F3B" points="66.9395881 69.6133737 13.7725189 63.0232342 14.6829993 55.7434999 67.8504295 62.3336395"></polygon>
                    <path d="M19.717284,67.6251561 C17.7818815,70.2081717 15.559472,70.9786204 15.559472,70.9786204 C15.559472,70.9786204 14.5847309,73.8757088 13.2370612,74.7891793 C12.9789353,74.9602304 12.8070921,75.3742029 12.7211705,75.9736005 L14.5562107,61.2603296 C15.7605574,61.16043 17.0219445,61.2031928 17.982606,61.5312804 C20.5775832,62.4447508 21.7104489,64.9422409 19.717284,67.6251561" id="Fill-27" fill="#EA7F3B"></path>
                    <path d="M20.7442639,67.0738756 C18.8088615,69.6568912 15.5597247,70.9785845 15.5597247,70.9785845 C15.5597247,70.9785845 14.5846226,73.8756729 13.2369529,74.7891434 C12.978827,74.9601945 12.8069838,75.3741669 12.7210622,75.9735645 C12.7066216,76.0590901 12.692181,76.1589897 12.6781014,76.2448746 C12.6781014,76.2876374 12.6636608,76.3304002 12.6636608,76.3731629 L9.55640295,101.245648 C6.9895849,100.536289 3.22961161,92.3851286 3.67438234,86.8762765 C4.11879205,81.3677837 7.94663619,73.7330105 8.29068367,68.4243169 C8.63509217,63.129638 8.46288792,62.473463 10.5990148,61.9308428 C10.5990148,61.9308428 15.0319205,60.2282374 19.0095859,60.9799999 C21.7135897,61.4913565 22.7370678,64.3909604 20.7442639,67.0738756" id="Fill-29" fill="#FFA17E"></path>
                    <path d="M46.8535329,36.9675135 C46.8535329,36.9675135 46.168687,42.6851486 47.5235771,44.1836427 C49.4810015,45.1578434 51.4124328,45.6749497 51.4124328,45.6749497 C51.4124328,45.6749497 46.6293424,54.2149282 39.1754616,52.8608933 C33.2140177,51.7778091 32.7865757,44.7751345 32.7865757,44.7751345 C32.7865757,44.7751345 35.1313694,44.3963785 35.4198205,43.9471896 C35.7079107,43.4972821 35.4198205,40.3504446 35.4198205,40.3504446 L46.8535329,36.9675135 Z" id="Fill-31" fill="#FFA17E"></path>
                    <path d="M31.0525836,10.8166367 C29.0244002,13.9020251 30.2049199,17.2615984 29.826576,20.9294949 C29.565923,23.4517802 25.717501,38.6659864 33.8269854,40.4275254 C36.7930862,41.0718419 44.2624907,40.2852224 48.3910605,37.3769941 C52.5203523,34.4684064 55.2268833,29.6480709 55.55288,24.6236241 C55.6705709,22.8114165 55.4947565,20.9877098 55.1351854,19.2071251 C54.2102645,14.6300704 51.8734131,10.1137459 47.8762528,7.67267401 C43.8783705,5.23124273 38.0718021,5.47847628 35.0226677,9.02527149" id="Fill-33" fill="#FFA17E"></path>
                    <path d="M42.9163733,3.23166955 C42.6932659,2.7839181 42.1647397,2.77241887 41.6986691,2.85147611 C38.9040504,3.32366343 36.0523914,5.86858782 34.5978611,9.18899185 C34.1177109,10.2850127 33.7779956,11.5495691 34.0375655,12.5747978 C34.1974953,13.2058183 34.5671748,13.6747714 34.9527391,14.0905406 C39.8376357,19.3557528 48.2395424,18.6198017 52.6305703,24.5232214 C53.8291407,21.2347996 54.0396126,17.686567 53.5154185,14.5609312 C52.9915855,11.4345768 51.7673829,8.70566464 50.2359565,6.36125816 C48.9727643,4.42794932 47.2153423,2.63191259 44.9867955,3.14398789" id="Fill-35" fill="#FFFFFF"></path>
                    <path d="M49.8014025,18.8278301 C50.9447376,20.1599445 51.4649605,22.0009002 51.1866178,23.7311756 C50.90647,25.4682788 49.8721614,27.193164 50.38372,28.8778019 C50.4230706,29.0071683 50.4765009,29.1412062 50.5848054,29.2224196 C51.0573743,29.5745836 51.5999802,28.5644477 52.1693011,28.7204061 C52.665697,29.6737645 52.4443947,30.8427336 52.0346425,31.8356207 C51.6248902,32.8285077 51.0367965,33.758149 50.7963603,34.8045793 C50.7606198,34.9605377 50.7331827,35.1258392 50.7848079,35.277126 C50.8920294,35.5915582 51.2768716,35.7040351 51.6090056,35.7370954 C53.6451313,35.9394101 55.6000286,34.8764495 57.1874124,33.5910507 C61.1744642,30.3629999 63.7286468,25.5117603 64.4023011,20.4402384 C64.6008595,18.9442598 64.6405712,17.3983315 64.20988,15.951584 C63.7791889,14.5048365 62.8250257,13.1608635 61.4510019,12.5240933 C61.8452305,10.62097 62.1033563,8.54392071 61.2134539,6.81472329 C60.6311364,5.68204867 59.6188498,4.83398011 58.5885124,4.08149894 C53.5234692,0.383416917 44.6554918,-2.14605537 39.3593989,2.5794114 C38.50632,3.340517 37.79512,4.30034375 37.556489,5.40966055 C37.0557609,7.73933363 38.6940479,9.99821456 40.3568839,11.7823927 C42.6262254,14.2173556 45.1291438,16.4464104 47.8208731,18.4289504" id="Fill-37" fill="#FFFFFF"></path>
                    <path d="M39.8155055,3.96984855 C36.2909141,2.81417546 31.9399589,4.9127858 30.6756837,7.59713841 C27.9875646,13.3054304 29.2067129,18.7794255 29.826576,20.929423 C30.3410226,16.6031953 30.84861,15.3637934 32.225522,12.8849896 C33.6024339,10.4069045 36.6865868,8.90230155 39.0970852,7.39769856" id="Fill-39" fill="#FFFFFF"></path>
                    <path d="M47.7183448,33.3176564 C48.7071654,31.622238 50.1486991,28.4466524 50.4440095,28.3352536 C51.0404066,28.1102998 51.6483562,27.8824712 52.284826,27.851567 C52.9216568,27.8199441 53.6028925,28.0165092 54.0047024,28.5091795 C54.3841294,28.9752579 54.4541663,29.619215 54.4162597,30.2182533 C54.2841282,32.3197384 52.9306822,34.301919 51.0165796,35.1970626 C50.2461732,35.5578511 49.3284726,35.745073 48.5497628,35.4033301 C47.771053,35.0615872 47.2746571,34.0399521 47.7183448,33.3176564" id="Fill-41" fill="#FFA17E"></path>
                    <path d="M72.5109913,97.481302 C69.0726825,95.060713 64.2913973,97.5812016 62.1332484,99.2859631 C59.9754606,100.991084 55.8685517,106.461126 55.1710703,106.846351 C51.8024375,108.707789 49.0955455,107.840675 46.3305301,107.417719 L46.3330573,107.415203 C46.3330573,107.415203 46.3157285,107.414844 46.3124794,107.414844 C45.4778123,107.287993 44.6352028,107.211811 43.7694883,107.255292 C43.1489032,107.19564 42.4604472,107.116223 41.7257813,107.003387 C39.4257535,106.438487 36.9174199,105.909522 35.9535093,106.483047 C33.8928346,107.709153 38.8019192,109.190757 38.8019192,109.190757 C31.3166301,107.419516 28.248723,107.761977 29.6119163,108.788643 C31.3364859,110.087338 35.1574708,110.718359 38.7986701,111.477667 C41.6127835,112.064488 51.0385293,113.06025 55.2414683,112.904651 C58.1079289,112.799001 61.1483989,112.706648 66.542688,110.666253 C70.3954422,109.209084 73.3424093,105.846636 73.8709355,101.778422 C74.1153428,99.8947038 73.7554107,98.3573999 72.5109913,97.481302" id="Fill-43" fill="#FFA17E"></path>
                    <path d="M31.8320876,291.007134 C30.1688906,292.890852 26.7710155,292.548391 21.5095801,292.477239 C16.2477835,292.405728 7.32998613,293.176177 3.33029875,292.962363 C-0.669749639,292.762564 -0.69826984,289.808339 1.30861364,289.251704 C3.31585814,288.681054 6.90001703,286.968746 9.52387549,285.455878 C12.1332933,283.94301 19.2156895,281.088685 19.559737,279.833112 C19.559737,279.833112 24.6063684,280.717834 29.6959607,279.833112 C29.8822445,280.603561 30.8966972,282.021201 31.1833433,282.787337 C32.885891,287.336003 32.7064664,289.994123 31.8320876,291.007134" id="Fill-45" fill="#FFFFFF"></path>
                    <g id="Group-49" transform="translate(67.798928, 271.111589)">
                        <mask id="mask-6" fill="white">
                            <use xlink:href="#path-5"></use>
                        </mask>
                        <g id="Clip-48"></g>
                        <path d="M30.0728394,10.0611117 C29.1551387,12.41558 25.8435463,13.2431655 20.8683959,14.9702069 C15.9080471,16.6825148 7.79314745,20.4359369 3.9653033,21.605984 C0.137459161,22.7763905 -0.909123898,20.0079497 0.782593319,18.7947805 C2.47431054,17.5819705 5.25557162,14.7560336 7.1909741,12.4443281 C9.14081718,10.1322632 14.2592907,5.23718272 14.3452123,3.93884725 C14.3596529,3.6247744 14.3596529,3.31070155 14.3307717,2.99698805 C14.3307717,2.99698805 20.4239862,3.68191122 24.0370263,0 C24.4958766,0.713311904 25.8691784,1.89054606 26.5565513,2.62254422 C29.7825831,6.05614384 30.5461303,8.81955369 30.0728394,10.0611117" id="Fill-47" fill="#FFFFFF" mask="url(#mask-6)"></path>
                    </g>
                    <path d="M57.6855773,7.09153143 C57.6855773,7.09153143 63.5878147,-0.567318249 69.8633419,1.76954186 C78.4056835,4.95087702 80.7587806,22.5195516 61.7390559,20.5596508" id="Fill-50" fill="#FFFFFF"></path>
                </g>
            </g>
        </g>
    </g>
</svg>