<?xml version="1.0" encoding="UTF-8"?>
<svg width="492px" height="379px" viewBox="0 0 492 379" version="1.1" xmlns="http://www.w3.org/2000/svg" xmlns:xlink="http://www.w3.org/1999/xlink">
    <title>Group 132</title>
    <defs>
        <polygon id="path-1" points="0.965014414 0.3973 33.9726441 0.3973 33.9726441 15 0.965014414 15"></polygon>
        <polygon id="path-3" points="0.0122 0.6053 75.083 0.6053 75.083 207.287712 0.0122 207.287712"></polygon>
        <polygon id="path-5" points="0 377.111 491.083 377.111 491.083 0 0 0"></polygon>
    </defs>
    <g id="Page-1" stroke="none" stroke-width="1" fill="none" fill-rule="evenodd">
        <g id="DEVENIR-PARTENAIRE" transform="translate(-1062.000000, -255.000000)">
            <g id="Group-132" transform="translate(1062.000000, 255.000000)">
                <path d="M360.4689,360.1673 C359.3429,363.0713 355.2769,364.0933 349.1679,366.2233 C343.0779,368.3353 333.1149,372.9643 328.4149,374.4073 C323.7159,375.8513 322.4299,372.4373 324.5079,370.9393 C326.5849,369.4433 329.9989,365.9583 332.3759,363.1063 C334.7699,360.2553 341.0539,354.2183 341.1589,352.6153 C341.1769,352.2293 341.1769,351.8413 341.1419,351.4543 C340.9659,349.2713 339.9799,347.3173 339.9799,347.3173 L345.1549,344.9773 L350.8049,344.2203 C350.8049,344.2203 351.6859,345.7163 353.0579,347.7583 C353.6219,348.6383 354.2909,349.6053 355.0119,350.6093 C357.7229,354.3943 361.0499,358.6363 360.4689,360.1673" id="Fill-1" fill="#FFA17E"></path>
                <path d="M279.3883,372.2982 C277.3463,374.6212 273.1743,374.1982 266.7143,374.1102 C260.2543,374.0232 249.3053,374.9742 244.3943,374.7092 C239.4833,374.4632 239.4483,370.8192 241.9123,370.1332 C244.3773,369.4292 248.7773,367.3172 251.9983,365.4502 C255.2023,363.5842 263.8983,360.0652 264.3203,358.5152 C264.7603,356.9842 264.2503,352.7772 264.2503,352.7772 L270.1823,352.7772 L275.4803,353.0592 C275.4803,353.0592 276.0083,355.5752 276.7653,358.5152 C276.9943,359.4662 277.2583,360.4692 277.5403,361.4372 C278.7893,365.9262 280.4623,371.0482 279.3883,372.2982" id="Fill-3" fill="#FFA17E"></path>
                <path d="M351.9347,344.2201 C347.3757,346.5781 341.7097,347.8831 339.6677,348.1481 C338.9457,346.6341 338.1887,345.0321 337.4497,343.3771 L293.5047,257.7061 L320.8067,251.8801 C320.8067,251.8801 320.5247,253.0591 322.7957,257.8301 C325.0657,262.6351 329.7487,266.4901 339.4827,292.1371 C348.8827,317.0791 348.7307,331.7221 351.9347,344.2201" id="Fill-5" fill="#9E223E"></path>
                <path d="M261.1813,169.7957 C261.1813,169.7957 271.6473,226.3157 293.5043,257.7017 C305.1223,258.5927 313.2043,254.8107 320.8123,251.8847 C320.5143,250.0467 319.4163,237.9327 320.1053,223.7257 C320.5303,214.9777 322.8933,203.8687 322.7943,194.3867 C322.6293,178.7747 321.2883,166.3157 317.2473,159.5347 L261.1813,169.7957 Z" id="Fill-7" fill="#9E223E"></path>
                <path d="M303.0475,203.2889 C312.2725,180.6919 309.7245,187.2819 315.6075,163.5159 L261.5295,159.6929 C261.5295,159.6929 253.0335,191.5689 248.3245,245.8369 C248.0875,248.5709 248.1935,251.3289 248.6235,254.0389 L262.9475,344.5919 C263.2995,347.8479 263.7565,350.9639 264.1265,353.6039 C267.1015,354.3259 271.2735,354.7129 276.0435,353.4109 C276.0785,352.6359 276.0965,351.9319 276.0615,351.3159 C276.5715,338.1319 282.5035,324.0329 281.1485,296.6249 C279.7575,269.2359 276.3255,263.0979 275.6215,257.8339 C274.9345,252.5889 275.2915,250.6689 275.2915,250.6689 C276.1315,243.8559 300.4355,209.7009 303.0475,203.2889" id="Fill-9" fill="#9E223E"></path>
                <path d="M322.2677,175.9408 C322.2677,175.9408 271.8077,186.4288 257.4097,173.3738 C259.7787,162.9218 262.8517,156.3698 265.3707,144.2688 C267.8897,132.1568 266.1677,122.9958 266.1677,122.9958 L309.3227,121.2268 C309.3227,123.9918 309.5217,126.8968 309.9317,129.9658 C310.5757,134.8738 312.2637,141.8218 314.6767,147.4098 C320.9477,161.9318 322.2677,175.9408 322.2677,175.9408" id="Fill-11" fill="#E8364B"></path>
                <path d="M315.4254,102.5545 C315.4254,102.5545 309.3924,124.2615 310.5054,131.8635 C310.5054,131.8635 294.5154,137.8025 266.6474,131.9805 C266.6474,131.9805 265.9684,106.9715 262.4534,100.9265 C262.4534,100.9265 263.1334,98.5835 263.7184,95.0335 C266.4604,96.0175 268.4044,94.9755 268.5104,90.1845 C268.8964,73.1055 267.0224,71.3125 267.0224,71.3125 L282.9884,68.0915 L299.4474,68.5245 C299.4474,68.5245 308.3154,70.9375 317.4404,74.5805 C317.4404,74.5805 311.6304,91.3675 315.4254,102.5545" id="Fill-13" fill="#E8364B"></path>
                <path d="M267.0226,71.3128 C267.0226,71.3128 257.3636,73.1698 256.0206,86.7288 C255.0596,96.4338 259.5856,133.7218 259.5856,133.7218 C259.5856,133.7218 265.1866,130.1378 266.8226,124.1388 C268.4586,118.1398 266.7316,108.0508 267.4586,103.6878 C268.1866,99.3248 268.8976,91.8418 268.9536,87.1098 C269.0076,82.4728 269.0996,72.9548 267.0226,71.3128" id="Fill-15" fill="#E8364B"></path>
                <path d="M330.5392,141.0013 C331.6782,136.9213 332.1952,128.3973 331.5082,121.6673 C330.7752,114.4793 328.9442,104.3753 326.8142,89.6153 C324.6852,74.8553 315.0432,73.7253 315.0432,73.7253 C306.0212,87.1223 315.4252,102.5543 315.4252,102.5543 L316.2852,136.0783 C316.2852,136.0783 326.3822,133.1903 330.5392,141.0013" id="Fill-17" fill="#FFA17E"></path>
                <path d="M310.3859,106.7781 C321.9379,109.9311 330.7749,106.0451 330.7749,106.0451 C330.7749,106.0451 329.8179,100.8891 328.7589,94.5291 C327.3929,86.3351 324.5259,76.3101 315.0429,73.7251 C315.0429,73.7251 310.9359,76.5601 309.8359,82.6111 C308.7359,88.6621 310.3859,106.7781 310.3859,106.7781" id="Fill-19" fill="#E8364B"></path>
                <polygon id="Fill-21" fill="#EA7F3B" points="314.6291 151.3597 251.3851 143.4847 258.6831 84.8797 321.9271 92.7547"></polygon>
                <polygon id="Fill-23" fill="#F49750" points="320.7941 101.8538 257.5501 93.9788 258.6831 84.8798 321.9271 92.7548"></polygon>
                <polygon id="Fill-25" fill="#EA7F3B" points="322.4919 99.2205 257.2149 91.0925 258.3329 82.1125 323.6099 90.2415"></polygon>
                <path d="M264.5138,96.7679 C262.1378,99.9539 259.4098,100.9049 259.4098,100.9049 C259.4098,100.9049 258.2128,104.4779 256.5578,105.6039 C256.2408,105.8159 256.0298,106.3259 255.9238,107.0649 L258.1778,88.9169 C259.6558,88.7939 261.2048,88.8469 262.3848,89.2519 C265.5708,90.3779 266.9608,93.4589 264.5138,96.7679" id="Fill-27" fill="#EA7F3B"></path>
                <path d="M265.7751,96.0882 C263.3991,99.2742 259.4091,100.9042 259.4091,100.9042 C259.4091,100.9042 258.2131,104.4782 256.5581,105.6042 C256.2411,105.8162 256.0301,106.3262 255.9241,107.0652 C255.9061,107.1712 255.8891,107.2942 255.8711,107.4002 C255.8711,107.4532 255.8541,107.5052 255.8541,107.5582 L252.0391,138.2372 C248.8881,137.3622 244.2711,127.3082 244.8171,120.5132 C245.3631,113.7192 250.0631,104.3022 250.4851,97.7542 C250.9071,91.2232 250.6961,90.4132 253.3191,89.7452 C253.3191,89.7452 258.7611,87.6442 263.6451,88.5722 C266.9651,89.2022 268.2221,92.7792 265.7751,96.0882" id="Fill-29" fill="#FFA17E"></path>
                <path d="M297.8307,58.9534 C297.8307,58.9534 296.9897,66.0054 298.6537,67.8544 C301.0567,69.0554 303.4287,69.6944 303.4287,69.6944 C303.4287,69.6944 297.5557,80.2274 288.4037,78.5574 C281.0847,77.2214 280.5597,68.5834 280.5597,68.5834 C280.5597,68.5834 283.4387,68.1174 283.7927,67.5624 C284.1467,67.0084 283.7927,63.1264 283.7927,63.1264 L297.8307,58.9534 Z" id="Fill-31" fill="#FFA17E"></path>
                <path d="M278.4313,26.6981 C275.9403,30.5031 277.3903,34.6471 276.9253,39.1711 C276.6053,42.2821 271.8803,61.0491 281.8373,63.2211 C285.4793,64.0161 294.6503,63.0461 299.7183,59.4581 C304.7883,55.8711 308.1113,49.9261 308.5123,43.7281 C308.6563,41.4931 308.4403,39.2431 307.9983,37.0471 C306.8633,31.4021 303.9943,25.8311 299.0863,22.8201 C294.1783,19.8081 287.0493,20.1131 283.3053,24.4881" id="Fill-33" fill="#FFA17E"></path>
                <path d="M292.9972,17.3421 C292.7232,16.7901 292.0742,16.7761 291.5022,16.8731 C288.0702,17.4561 284.5692,20.5941 282.7842,24.6901 C282.1942,26.0421 281.7772,27.6021 282.0962,28.8661 C282.2922,29.6451 282.7462,30.2231 283.2202,30.7361 C289.2172,37.2301 299.5322,36.3221 304.9232,43.6041 C306.3952,39.5481 306.6532,35.1711 306.0102,31.3161 C305.3672,27.4601 303.8642,24.0941 301.9832,21.2021 C300.4332,18.8181 298.2752,16.6021 295.5392,17.2341" id="Fill-35" fill="#77122A"></path>
                <path d="M301.4499,36.5789 C302.8539,38.2219 303.4929,40.4929 303.1509,42.6269 C302.8069,44.7699 301.5369,46.8979 302.1649,48.9749 C302.2129,49.1349 302.2789,49.2999 302.4119,49.3999 C302.9919,49.8349 303.6579,48.5889 304.3569,48.7819 C304.9669,49.9569 304.6949,51.3989 304.1919,52.6239 C303.6889,53.8489 302.9669,54.9959 302.6719,56.2859 C302.6279,56.4779 302.5949,56.6819 302.6579,56.8689 C302.7889,57.2569 303.2619,57.3949 303.6699,57.4359 C306.1699,57.6849 308.5699,56.3739 310.5179,54.7889 C315.4139,50.8069 318.5499,44.8239 319.3769,38.5679 C319.6199,36.7229 319.6689,34.8159 319.1399,33.0309 C318.6119,31.2469 317.4399,29.5889 315.7529,28.8039 C316.2379,26.4559 316.5539,23.8949 315.4609,21.7619 C314.7459,20.3649 313.5039,19.3189 312.2389,18.3909 C306.0199,13.8289 295.1329,10.7089 288.6299,16.5369 C287.5829,17.4759 286.7099,18.6609 286.4159,20.0279 C285.8019,22.9019 287.8129,25.6879 289.8549,27.8889 C292.6409,30.8919 295.7139,33.6419 299.0179,36.0869" id="Fill-37" fill="#77122A"></path>
                <path d="M289.1896,18.2528 C284.8626,16.8268 279.5206,19.4158 277.9686,22.7268 C274.6676,29.7678 276.1646,36.5198 276.9256,39.1708 C277.5576,33.8358 278.1806,32.3068 279.8716,29.2498 C281.5616,26.1918 285.3486,24.3368 288.3076,22.4808" id="Fill-39" fill="#77122A"></path>
                <path d="M298.8927,54.4515 C300.1067,52.3605 301.8767,48.4435 302.2397,48.3055 C302.9717,48.0285 303.7177,47.7475 304.4987,47.7095 C305.2807,47.6705 306.1177,47.9125 306.6107,48.5205 C307.0767,49.0955 307.1627,49.8895 307.1167,50.6285 C306.9537,53.2215 305.2917,55.6655 302.9417,56.7705 C301.9967,57.2145 300.8697,57.4465 299.9137,57.0245 C298.9577,56.6025 298.3477,55.3425 298.8927,54.4515" id="Fill-41" fill="#FFA17E"></path>
                <path d="M329.3322,133.5941 C325.1102,130.6091 319.2402,133.7181 316.5912,135.8201 C313.9412,137.9231 308.8992,144.6701 308.0432,145.1451 C303.9072,147.4421 300.5832,146.3711 297.1882,145.8501 L297.1922,145.8471 C297.1922,145.8471 297.1702,145.8461 297.1662,145.8461 C296.1422,145.6901 295.1072,145.5961 294.0442,145.6501 C293.2822,145.5761 292.4372,145.4781 291.5352,145.3391 C288.7112,144.6421 285.6312,143.9901 284.4482,144.6971 C281.9182,146.2101 287.9452,148.0371 287.9452,148.0371 C278.7552,145.8521 274.9882,146.2751 276.6622,147.5411 C278.7792,149.1431 283.4712,149.9211 287.9412,150.8581 C291.3962,151.5821 302.9692,152.8101 308.1292,152.6181 C311.6482,152.4881 315.3812,152.3741 322.0042,149.8571 C326.7342,148.0601 330.3532,143.9121 331.0012,138.8941 C331.3022,136.5711 330.8602,134.6751 329.3322,133.5941" id="Fill-43" fill="#FFA17E"></path>
                <path d="M279.3883,372.2982 C277.3463,374.6212 273.1743,374.1982 266.7143,374.1102 C260.2543,374.0232 249.3053,374.9742 244.3943,374.7092 C239.4833,374.4632 239.4483,370.8192 241.9123,370.1332 C244.3773,369.4292 248.7773,367.3172 251.9983,365.4502 C255.2023,363.5842 263.8983,360.0652 264.3203,358.5152 C264.3203,358.5152 270.5163,359.6072 276.7653,358.5152 C276.9943,359.4662 278.2403,361.2142 278.5913,362.1592 C280.6813,367.7702 280.4623,371.0482 279.3883,372.2982" id="Fill-45" fill="#77122A"></path>
                <path d="M360.4689,360.1673 C359.3429,363.0713 355.2769,364.0933 349.1679,366.2233 C343.0779,368.3353 333.1149,372.9643 328.4149,374.4073 C323.7159,375.8513 322.4299,372.4373 324.5079,370.9393 C326.5849,369.4433 329.9989,365.9583 332.3759,363.1063 C334.7699,360.2553 341.0539,354.2183 341.1589,352.6153 C341.1769,352.2293 341.1769,351.8413 341.1419,351.4543 C341.1419,351.4543 348.6229,352.2993 353.0579,347.7583 C353.6219,348.6383 355.3079,350.0903 356.1519,350.9923 C360.1129,355.2283 361.0499,358.6363 360.4689,360.1673" id="Fill-47" fill="#77122A"></path>
                <path d="M311.13,22.1033 C311.13,22.1033 318.377,12.6563 326.081,15.5393 C336.569,19.4623 339.459,41.1323 316.107,38.7153" id="Fill-49" fill="#77122A"></path>
                <path d="M437.4909,118.0321 C431.7769,124.8671 427.1149,141.0021 421.2809,147.7341 C418.4119,151.0441 397.7969,168.9151 383.9279,176.5591 C383.2869,172.4051 374.4999,174.9901 377.6229,172.1771 C387.3349,163.4311 404.1299,154.5161 409.8429,138.4791 C413.6019,127.9271 427.5259,104.4801 427.5259,104.4801" id="Fill-51" fill="#F7AD8F"></path>
                <polygon id="Fill-53" fill="#F49750" points="357.5221 181.7401 422.3921 178.7391 419.6111 118.6271 354.7401 121.6281"></polygon>
                <polygon id="Fill-55" fill="#EA7F3B" points="429.6989 178.4007 422.3919 178.7387 419.6109 118.6267 426.9179 118.2887"></polygon>
                <polygon id="Fill-57" fill="#F49750" points="355.1725 130.9608 420.0425 127.9598 419.6105 118.6268 354.7405 121.6278"></polygon>
                <polygon id="Fill-59" fill="#F49750" points="427.3493 127.6209 420.0423 127.9589 419.6113 118.6269 426.9173 118.2879"></polygon>
                <polygon id="Fill-61" fill="#F49750" points="353.6554 128.1517 419.9094 125.0857 419.4834 115.8757 353.2294 118.9417"></polygon>
                <polygon id="Fill-63" fill="#EA7F3B" points="429.1003 124.6605 419.9103 125.0855 419.4833 115.8755 428.6743 115.4505"></polygon>
                <path d="M449.2926,176.6077 L475.4356,155.1597 C475.4356,155.1597 487.2376,171.6377 482.4906,187.3117 C480.1566,195.0197 477.3076,198.8177 476.0426,202.4737 C474.8606,205.8887 466.4136,254.3387 466.9446,257.8977 C467.4776,261.4557 471.5166,271.4457 472.9676,281.9137 C474.7116,294.5037 473.8226,335.4327 475.1606,346.3067 C476.4976,357.1807 466.4496,358.8787 465.9486,355.1997 C461.6696,323.7517 449.8996,274.6737 448.3746,258.9597 C446.8506,243.2457 447.9516,214.5237 449.2926,176.6077" id="Fill-65" fill="#965E42"></path>
                <path d="M464.3463,345.097 C464.3463,345.097 466.5963,356.518 465.9283,357.96 C465.2613,359.403 462.8753,363.589 460.4703,365.08 C457.9463,366.647 452.3793,368.472 451.9263,369.159 C451.4743,369.847 451.4313,370.858 452.2123,371.49 C454.2323,373.121 457.7633,373.951 460.0853,373.601 C467.6153,372.464 468.4373,369.153 472.8223,368.681 C473.5783,368.6 474.9623,369.737 477.0683,368.696 C479.1723,367.655 480.2143,365.737 480.0603,363.915 C479.7933,360.774 478.0673,358.165 476.8453,355.827 C475.6223,353.491 474.8863,342.863 474.8863,342.863" id="Fill-67" fill="#965E42"></path>
                <path d="M450.2692,372.1986 C449.7342,371.2546 449.6152,369.8346 450.1282,369.4956 C450.8422,369.0246 454.7292,367.2266 456.1952,366.5766 C457.6622,365.9256 459.9802,365.3666 459.1602,365.7956 C458.3402,366.2226 459.8162,367.8876 461.1812,367.8226 C465.8942,367.5996 469.4092,364.5166 472.1012,363.8846 C475.9862,362.9696 477.6702,358.4216 477.8502,357.6816 C478.5762,358.1576 480.2282,361.8606 480.5572,363.0226 C480.8552,364.0726 481.3872,365.9926 481.0762,367.0786 C480.8602,367.8286 480.3832,369.3376 480.5932,370.9316 C480.5932,370.9316 479.8222,371.5076 477.7962,371.8966 C476.5142,372.1436 474.7992,371.8996 474.7992,371.8996 C474.7992,371.8996 473.4472,369.4076 472.1012,369.6656 C470.7572,369.9246 468.5512,371.1706 468.4192,371.3236 C467.8732,371.9576 467.4272,373.1226 466.7102,373.4706 C464.8152,374.3926 462.9132,374.8196 460.5132,374.9266 C455.4592,375.1506 451.1832,373.8126 450.2692,372.1986" id="Fill-69" fill="#77122A"></path>
                <path d="M413.3346,369.9945 C413.8906,369.3815 419.8766,368.4065 422.6856,367.2335 C425.3596,366.1155 428.6016,362.5205 429.2316,360.9965 C429.8626,359.4725 429.7186,351.7435 429.6376,348.4995 C429.0776,326.1495 424.9476,271.5355 424.3496,258.4555 C423.3106,235.7225 426.2616,212.2575 435.0086,175.7635 L467.5776,150.7675 C467.5776,150.7675 476.6986,167.7235 473.6456,183.9375 C471.8736,193.3435 464.0706,194.7905 462.7516,198.4455 C461.4336,202.1005 441.7286,261.0445 441.7286,261.0445 C441.7286,261.0445 445.5616,273.7855 445.7836,287.7465 C445.9746,299.6635 440.5686,335.6115 439.5666,349.3075 C439.4486,351.9835 438.9886,358.3905 439.7766,360.4295 C440.7426,362.9285 443.2056,365.8635 443.0826,369.0155 C443.0116,370.8435 441.6896,372.5885 439.3816,373.3035 C437.0736,374.0185 435.7866,372.6855 434.9946,372.6525 C430.4026,372.4625 429.1306,375.6205 421.2036,375.617502 C418.7586,375.617502 415.2146,374.2655 413.3346,372.3465 C412.6056,371.6025 412.7786,370.6075 413.3346,369.9945" id="Fill-71" fill="#965E42"></path>
                <g id="Group-75" transform="translate(410.000000, 362.111000)">
                    <mask id="mask-2" fill="white">
                        <use xlink:href="#path-1"></use>
                    </mask>
                    <g id="Clip-74"></g>
                    <path d="M1.2497,10.7643 C0.8167,9.7473 0.8737,8.3243 1.4477,8.0653 C2.2447,7.7053 6.4767,6.3883 8.0747,5.9633 C9.6737,5.5383 12.1427,5.3313 11.2397,5.6333 C10.3377,5.9353 11.6507,7.8053 13.0697,7.9463 C17.9707,8.4313 21.9957,5.9043 24.8587,5.6803 C28.9907,5.3563 30.5077,1.1033 30.7877,0.3973 C31.4777,0.9773 33.5177,4.8943 33.7107,6.0943 C33.8847,7.1803 34.1907,9.1613 33.7307,10.1913 C33.4117,10.9013 32.7277,12.3253 32.7417,13.9363 C32.7417,13.9363 31.8717,14.3913 29.7287,14.4733 C28.3707,14.5263 26.6297,14.0273 26.6297,14.0273 C26.6297,14.0273 25.5487,11.3553 24.1247,11.4103 C22.7027,11.4633 20.9447,12.1903 20.0867,12.8373 C19.4137,13.3453 18.7047,14.1983 17.9107,14.3973 C15.6187,14.9733 13.9717,15.1383 11.4777,14.8843 C6.2257,14.3493 1.9887,12.5003 1.2497,10.7643" id="Fill-73" fill="#77122A" mask="url(#mask-2)"></path>
                </g>
                <g id="Group-78" transform="translate(416.000000, 149.111000)">
                    <mask id="mask-4" fill="white">
                        <use xlink:href="#path-3"></use>
                    </mask>
                    <g id="Clip-77"></g>
                    <path d="M58.2702,4.2873 C66.6262,12.8543 77.5792,22.8073 74.5752,36.4423 C73.7802,40.0523 75.4572,66.3363 74.5752,69.9353 C72.5672,78.1253 66.8612,190.2403 66.2022,199.7203 C53.3322,207.4633 10.5822,210.4623 0.0122,202.9463 C0.9532,189.3363 8.1162,63.5253 10.3572,47.7423 C13.7392,23.9333 8.2372,18.7623 11.7762,9.2293 C12.1902,7.5553 22.7092,2.5793 23.0962,0.6053" id="Fill-76" fill="#FCCAB4" mask="url(#mask-4)"></path>
                </g>
                <path d="M439.4254,75.4368 C437.3824,76.1148 438.1454,80.9848 436.1014,81.6628 C434.6204,82.1538 431.7194,81.5008 430.3604,82.2678 C423.1574,86.3288 425.0044,94.4358 424.1344,104.4798 C421.0874,112.1878 420.2744,119.1728 422.7044,123.4788 C425.7204,128.8218 416.3504,138.7028 420.0524,143.1298 C422.8214,146.4418 423.7294,153.2488 424.2974,160.5638 C424.3954,161.8228 423.3474,164.0308 423.6524,165.2558 C424.2364,167.6058 441.1764,161.0358 445.1624,161.0368 C462.8204,161.0418 480.4844,156.4258 480.1084,154.1538 C479.8464,152.5678 480.7364,148.8498 480.1084,145.7808 C478.7254,139.0218 473.6754,124.0708 472.5984,118.3428 C469.8394,103.6718 467.8224,92.7628 461.8094,79.2418" id="Fill-79" fill="#E8364B"></path>
                <path d="M413.2663,55.6209 C412.4303,52.1869 411.8163,48.5239 411.9343,45.4919 C412.1593,39.6719 412.8963,31.2429 422.5683,27.7799 C432.2403,24.3169 442.9103,26.3949 446.0773,33.3699 C449.2453,40.3459 448.5073,50.9049 448.9703,56.5489 C449.4333,62.1939 453.5723,68.9509 453.5723,68.9509 L432.7453,77.9169 C432.7453,77.9169 429.3423,70.5189 427.9433,69.6339 C426.5433,68.7479 426.0543,72.2699 421.4153,71.8789 C419.4453,71.7129 417.3423,68.1769 415.7513,63.8269 C415.7043,63.6969 415.6503,63.5349 415.6013,63.3979 C414.5713,63.3429 413.3913,63.2649 413.1233,63.1849 C411.6873,62.7569 411.8013,62.1209 412.1233,61.2099 C412.8203,59.2399 413.1263,57.1579 413.2663,55.6209" id="Fill-81" fill="#965E42"></path>
                <path d="M384.4479,174.91 C384.4479,176.604 381.1869,181.206 378.6929,181.913 C377.8919,182.14 377.0209,182.176 376.2489,181.851 C375.1169,182.359 371.5219,182.756 372.8619,180.641 C370.5789,182.557 367.9859,182.458 365.0909,182.317 C364.1219,182.269 364.1539,181.138 366.2729,180.563 C369.2169,179.763 371.3369,177.81 372.8809,175.002 C372.4399,174.665 372.0859,175.284 370.8879,175.473 C369.5599,175.684 368.8499,175.087 368.8079,174.508 C368.7769,174.07 370.3709,173.56 370.7189,173.33 C372.0449,172.454 373.3709,171.577 374.6969,170.702 C376.1539,169.738 377.1239,169.294 378.8769,169.171 C379.1689,169.151 382.0269,169.32 381.3179,170.361" id="Fill-83" fill="#965E42"></path>
                <path d="M431.3913,108.1868 C427.9413,115.3188 418.8753,138.9618 417.4693,141.6878 C411.9283,152.4248 383.5353,175.7238 383.5353,175.7238 C383.5353,175.7238 378.7183,174.9258 378.7183,170.1158 C386.8483,164.4758 402.1073,140.2618 405.2703,137.3658 C407.3193,135.4878 416.5353,98.1138 416.5353,98.1138" id="Fill-85" fill="#965E42"></path>
                <path d="M423.6237,81.8509 C431.5377,78.8269 439.1047,78.8099 445.1667,72.7499 C451.3167,77.4809 437.7397,104.8389 434.3837,105.5729 C430.9527,106.3239 427.0647,121.2529 425.6427,123.4779 C414.6847,123.1889 410.6767,117.2139 410.6767,117.2139 C412.8517,104.3489 415.9527,84.7819 423.6237,81.8509" id="Fill-87" fill="#E8364B"></path>
                <path d="M429.9713,82.597 C430.5163,80.538 432.0713,78.903 432.4193,76.8 C432.7483,74.816 432.3603,72.269 431.2553,70.564 C430.5743,69.512 429.5233,68.779 428.5443,68.008 C424.1903,64.574 422.6733,61.737 424.1343,56.601 C424.6123,54.923 425.0473,53.186 424.8743,51.447 C424.7173,49.873 424.3973,48.23 422.7043,48.032 C421.5273,47.894 420.7693,48.18 420.3553,49.173 C420.0663,49.868 420.6363,54.847 418.9863,52.027 C417.4053,49.326 415.9993,49.121 416.0753,42.896 C416.0843,42.159 416.3363,39.155 415.8783,38.713 C412.9903,40.822 412.1503,44.441 411.8123,47.084 C409.6373,46.166 409.0253,43.034 409.023255,41.84 C409.0193,39.395 409.2803,37.513 410.1683,35.604 C413.9503,27.491 417.9633,26.002 421.3483,24.565 C424.6363,23.169 428.0483,21.748 431.6113,21.844 C435.1723,21.94 439.5883,22.998 440.6173,25.668 C445.5543,24.396 448.3763,28.709 449.5423,30.26 C451.2053,32.471 452.4993,34.967 453.3543,37.611 C454.6153,41.51 454.9093,45.661 455.9063,49.639 C456.7163,52.876 458.1043,56.226 460.6083,58.49 C463.0133,60.665 466.3933,60.866 469.0053,62.86 C472.3233,65.393 474.1773,69.595 473.9963,73.787 C473.8173,77.965 471.6683,82.469 474.1913,86.301 C475.0113,87.547 476.1603,88.543 476.9693,89.797 C478.8303,92.686 478.5603,96.67 476.7813,99.612 C475.0013,102.554 471.5303,105.913 468.2713,106.882 C465.0123,107.85 462.4603,108.334 459.0713,108.147 C453.0713,107.817 448.0233,108.16 441.6753,102.736 C438.0813,99.665 440.3813,97.91 436.9313,94.652 C434.9963,92.825 432.2513,91.852 430.8353,89.48 C429.6633,87.519 429.4233,85.053 429.9123,82.838 C429.9303,82.757 429.9503,82.677 429.9713,82.597" id="Fill-89" fill="#77122A"></path>
                <path d="M420.2077,53.6585 C420.2077,53.6585 418.3537,48.8495 421.6197,47.6295 C424.8867,46.4085 425.7827,51.2185 425.2447,53.6585 C424.7067,56.0985 422.8507,60.2255 420.2077,53.6585" id="Fill-91" fill="#965E42"></path>
                <mask id="mask-6" fill="white">
                    <use xlink:href="#path-5"></use>
                </mask>
                <g id="Clip-94"></g>
                <polygon id="Fill-93" fill="#EA7F3B" mask="url(#mask-6)" points="177.73 352.001 267.169 352.001 267.169 267.906 177.73 267.906"></polygon>
                <polygon id="Fill-95" fill="#F49750" mask="url(#mask-6)" points="267.169 352.001 302.219 352.001 302.219 267.906 267.169 267.906"></polygon>
                <polygon id="Fill-96" fill="#EC9455" mask="url(#mask-6)" points="217.653 274.508 227.246 274.508 227.246 267.906 217.653 267.906"></polygon>
                <polygon id="Fill-97" fill="#FFB665" mask="url(#mask-6)" points="279.123 274.508 286.035 274.508 286.035 267.906 279.123 267.906"></polygon>
                <polygon id="Fill-98" fill="#EA7F3B" mask="url(#mask-6)" points="187.341 267.907 259.227 267.907 259.227 183.813 187.341 183.813"></polygon>
                <polygon id="Fill-99" fill="#F49750" mask="url(#mask-6)" points="259.228 267.907 287.399 267.907 287.399 183.813 259.228 183.813"></polygon>
                <polygon id="Fill-100" fill="#EC9455" mask="url(#mask-6)" points="219.429 190.414 227.139 190.414 227.139 183.812 219.429 183.812"></polygon>
                <polygon id="Fill-101" fill="#FFB665" mask="url(#mask-6)" points="268.835 190.414 274.39 190.414 274.39 183.812 268.835 183.812"></polygon>
                <path d="M151.1974,185.2205 L124.4924,185.2205 C123.9404,185.2205 123.4924,184.7725 123.4924,184.2205 L123.4924,180.7825 C123.4924,180.2295 123.9404,179.7815 124.4924,179.7815 L151.1974,179.7815 C151.7494,179.7815 152.1974,180.2295 152.1974,180.7825 L152.1974,184.2205 C152.1974,184.7725 151.7494,185.2205 151.1974,185.2205" id="Fill-102" fill="#77122A" mask="url(#mask-6)"></path>
                <path d="M315.1374,355.1244 L168.5224,355.1244 C164.5604,355.1244 161.3384,351.9024 161.3384,347.9394 L161.3384,185.5234 C161.3384,184.8554 160.7954,184.3144 160.1294,184.3144 L141.3954,184.3144 C140.3944,184.3144 139.5824,183.5034 139.5824,182.5004 C139.5824,181.4994 140.3944,180.6884 141.3954,180.6884 L160.1294,180.6884 C162.7954,180.6884 164.9644,182.8574 164.9644,185.5234 L164.9644,347.9394 C164.9644,349.9014 166.5604,351.4984 168.5224,351.4984 L315.1374,351.4984 C316.1394,351.4984 316.9504,352.3104 316.9504,353.3124 C316.9504,354.3134 316.1394,355.1244 315.1374,355.1244" id="Fill-103" fill="#77122A" mask="url(#mask-6)"></path>
                <path d="M102.6965,346.1097 C102.6965,346.1097 103.3775,359.5987 102.6735,362.6917 C102.1185,365.1287 92.6905,365.5127 91.7675,364.2207 C90.8445,362.9287 90.1545,347.1277 90.1545,347.1277" id="Fill-104" fill="#5B2D0F" mask="url(#mask-6)"></path>
                <path d="M21.8249,346.5267 C21.8249,346.5267 17.4839,354.8317 16.3739,357.1097 C15.2639,359.3877 5.5649,354.7187 6.3069,353.2897 C8.7229,348.6397 13.4919,336.2617 13.4919,336.2617" id="Fill-105" fill="#5B2D0F" mask="url(#mask-6)"></path>
                <path d="M98.465,165.5863 L87.479,208.2633 C86.119,213.1403 84.632,218.2713 83.146,223.4563 C82.584,225.4323 82.022,227.4083 81.442,229.3483 C80.136,233.9163 78.849,238.3943 77.652,242.6363 C76.51,246.6793 75.422,250.5053 74.48,253.9853 C73.843,256.3253 73.292,261.8933 72.222,265.4433 C70.672,270.5903 68.619,273.5783 68.533,273.7293 C61.39,285.1323 23.777,345.3443 18.919,352.9943 C14.459,351.8343 9.188,347.9823 7.701,346.8753 C14.681,329.9423 21.07,297.6293 33.706,278.5753 C35.084,276.4903 41.327,268.1083 42.94,266.3503 C47.171,251.2423 51.038,216.1683 51.926,204.6193 C52.198,200.8663 51.999,197.0953 51.31,193.3973 C51.31,193.3603 51.292,193.3603 51.292,193.3423 C49.733,185.2933 47.285,169.2303 60.103,156.4313 C60.375,156.1593 60.774,156.0683 61.118,156.2133 C64.019,157.4643 77.652,163.0843 88.838,163.8463 L97.631,164.4443 C98.211,164.4803 98.61,165.0243 98.465,165.5863" id="Fill-106" fill="#9E223E" mask="url(#mask-6)"></path>
                <path d="M62.0671,202.3949 C60.7171,201.7649 55.1961,198.6519 51.8591,188.6319 C51.8591,188.6319 92.1461,159.1779 101.3321,162.1049 C103.9461,162.9509 110.3601,252.2229 110.3231,253.9859 C110.3041,254.8569 110.3611,264.8519 110.3211,265.8969 C109.7271,280.8379 103.1251,354.6179 103.1251,354.6179 C101.5661,355.1909 96.1381,355.0289 89.0291,354.9139 C86.9901,336.2839 79.5021,300.3429 85.8621,267.4899 C86.2981,265.2359 85.1341,263.0389 83.6131,256.0199 C77.6051,240.5399 66.2401,212.2279 62.5041,202.8569 C62.4191,202.6449 62.2751,202.4919 62.0671,202.3949" id="Fill-107" fill="#9E223E" mask="url(#mask-6)"></path>
                <path d="M45.9103,106.0399 C45.9543,110.7659 46.2373,115.4709 46.6073,120.0019 C47.1083,125.5559 47.7113,135.2189 48.0773,140.0479 C49.4863,158.6569 45.8983,176.0049 45.8983,176.0049 C46.6613,176.3319 51.0403,176.9629 55.1393,178.1949 C75.4843,184.3129 105.1093,174.9099 105.1093,174.9099 C104.9193,172.7189 102.6073,152.7399 102.6733,150.9539 C102.7383,149.2979 102.2593,143.6779 101.3233,135.9019 C100.9963,133.1359 100.6033,130.1299 100.1463,126.9069 C99.7763,124.1839 99.3403,121.3089 98.8833,118.3459 C98.3383,114.9049 97.8813,111.5289 97.4243,108.2399 C96.9233,104.5149 96.4443,100.8989 95.9213,97.3269 C94.9623,91.1629 93.8733,85.2379 92.2183,79.5099 C90.8683,74.7609 89.5403,70.9599 87.2093,66.4519 C81.6553,55.7569 67.7793,53.2629 65.4483,53.0449 C65.2303,53.0229 65.0133,53.0669 64.8383,53.1979 C54.7973,59.9069 49.6793,71.4509 47.4133,84.5189 C46.2153,91.4459 45.8233,98.7869 45.9103,106.0399" id="Fill-108" fill="#E8364B" mask="url(#mask-6)"></path>
                <path d="M97.8888,115.0242 C97.6508,115.3622 101.2258,125.3452 104.5078,130.1072 C109.0328,136.6702 125.0208,162.7662 132.4738,172.0202 L125.9578,177.0622 C125.7218,176.6682 112.9248,164.6532 104.9148,156.5152 C96.6238,148.0692 87.4738,136.2602 84.3708,130.8082 C84.0138,130.1732 81.4418,124.1692 81.3778,123.3252" id="Fill-109" fill="#5B2D0F" mask="url(#mask-6)"></path>
                <path d="M106.8854,20.514 C106.7584,21.239 104.9094,31.464 101.5014,40.529 C100.3774,43.484 99.0904,46.312 97.6394,48.651 C95.4644,52.15 93.9594,53.528 90.8774,53.546 L90.8414,53.546 C89.1914,53.546 87.0704,53.147 84.1514,52.458 C82.5554,52.077 82.3204,52.966 82.1564,53.473 C81.1964,56.646 81.1234,56.991 81.1964,59.402 C78.4764,59.293 69.7384,58.64 66.1484,55.178 C66.1304,55.16 66.1124,55.141 66.1124,55.123 C65.5134,54.561 65.0064,53.909 64.6074,53.183 C67.5984,50.645 67.4174,42.396 67.4174,42.396 L67.4354,42.396 C66.0034,39.931 65.0424,36.54 65.4954,31.99 C66.6924,20.223 75.8844,9.437 76.5184,9.183 C77.1354,8.929 95.3014,12.283 96.0264,12.428 C96.6604,12.573 104.5654,18.229 106.5414,19.643 C106.8134,19.843 106.9584,20.169 106.8854,20.514" id="Fill-110" fill="#5B2D0F" mask="url(#mask-6)"></path>
                <path d="M93.9758,97.4603 C90.7468,101.3713 74.1308,107.0283 68.7798,107.3983 C65.7958,99.6343 53.9488,67.6993 69.8748,63.8993 C84.2608,60.4663 89.8478,82.6823 93.9758,97.4603" id="Fill-111" fill="#E8364B" mask="url(#mask-6)"></path>
                <path d="M108.9362,25.3592 C102.3542,29.1372 87.2172,24.8292 84.4282,26.4742 C81.6362,28.1032 80.6072,34.9722 79.3292,35.1882 C77.9662,35.4192 78.2832,33.3502 78.4362,30.8352 C78.6092,28.3352 76.9232,23.5462 72.9292,25.5672 C68.3402,27.8902 71.5022,32.3232 70.0942,36.7502 C69.0242,40.1142 68.1762,41.6592 67.5682,42.3422 C67.1622,42.7972 66.4132,42.6972 66.1092,42.1682 C62.8292,36.4582 60.2952,26.7642 62.6642,19.2102 C64.0992,9.9662 69.1352,2.4892 79.3052,2.5882 C79.5022,2.5902 79.6682,2.4722 79.8522,2.4042 C108.1052,-8.0278 111.0522,18.4492 108.9362,25.3592" id="Fill-112" fill="#77122A" mask="url(#mask-6)"></path>
                <path d="M91.0168,360.0052 C91.0168,360.0052 89.5058,362.6022 88.8098,365.3892 C88.2598,367.5942 88.2758,370.0322 88.5598,371.9412 C88.7798,373.4112 90.0538,374.4872 91.5408,374.4872 L109.0328,374.4872 L124.4288,374.4872 C126.8578,374.4872 128.4448,371.8122 127.1558,369.7542 C126.5368,368.7652 125.3858,367.8572 123.3488,367.3092 C116.8378,365.5562 110.6698,363.5772 108.7828,362.5922 C106.0908,361.1892 102.9538,359.5512 102.9538,359.5512 C102.9538,359.5512 100.0218,361.4022 91.0168,360.0052" id="Fill-113" fill="#77122A" mask="url(#mask-6)"></path>
                <path d="M33.0539,371.6283 C32.5459,372.9703 31.1319,373.7683 29.6999,373.7683 L18.8759,373.7683 C15.6489,373.7683 13.0569,371.4653 13.0569,371.4653 C11.6429,370.0873 9.7569,368.4013 7.2009,367.3673 C4.3549,366.2073 2.4149,364.2853 1.1459,363.0353 C-0.1231,361.7663 0.0039,360.9133 0.0039,360.9133 C2.3419,354.1513 6.9109,352.0853 6.9109,352.0853 C13.7819,357.9953 16.5379,356.7803 16.5379,356.7803 C16.5379,356.7803 18.0599,359.4993 21.8309,362.2003 C23.7349,363.5973 27.4089,366.1323 29.4939,367.3473 C33.3019,369.5403 33.5609,370.1783 33.0539,371.6283" id="Fill-114" fill="#77122A" mask="url(#mask-6)"></path>
                <path d="M143.9987,180.4193 C144.4487,180.2973 145.0537,180.2023 145.9187,180.1783 C147.6827,180.1303 148.2417,178.4503 147.7307,178.1393 C147.2217,177.8273 143.5667,177.7133 142.4337,177.3743 C142.0167,177.2493 141.5137,177.0443 141.0437,176.8363 C140.9677,176.7653 140.8927,176.7123 140.8187,176.6813 C139.0597,175.9563 136.1227,174.4333 134.3637,173.5273 C132.6057,172.6023 130.5937,169.5753 130.5937,169.5753 L124.8097,170.4453 L122.7257,173.8893 C122.7257,173.8893 127.0947,177.7693 129.4697,181.6853 C130.1217,182.7553 130.2847,184.2233 131.3907,185.9453 C131.3907,185.9453 131.3907,185.9633 131.4087,185.9823 C131.4457,186.0543 131.4997,186.1083 131.5537,186.1813 C131.8077,186.5073 132.5697,187.1063 134.6727,187.4323 C136.9727,187.7783 141.1487,187.5963 142.9947,187.4903 C143.2647,187.5103 143.5647,187.5013 143.9187,187.4323 C146.1167,187.0053 146.3437,185.2203 146.3437,185.2203 L145.1537,185.2203 C143.7087,185.2203 143.2267,183.0113 143.2267,183.0113 L143.2257,183.0123 C143.1927,182.8573 143.1537,182.7113 143.1207,182.5583 C143.1157,182.5373 143.1217,182.5233 143.1147,182.5013 C142.7907,181.3393 143.9437,180.4603 143.9987,180.4193" id="Fill-115" fill="#5B2D0F" mask="url(#mask-6)"></path>
                <polygon id="Fill-116" fill="#77122A" mask="url(#mask-6)" points="190.0807 365.3831 183.2827 365.3831 179.0897 352.9941 194.2727 352.9941"></polygon>
                <path d="M178.3722,365.4583 C178.3722,360.8693 182.0922,357.1483 186.6812,357.1483 C191.2702,357.1483 194.9912,360.8693 194.9912,365.4583 C194.9912,370.0473 191.2702,373.7683 186.6812,373.7683 C182.0922,373.7683 178.3722,370.0473 178.3722,365.4583" id="Fill-117" fill="#EA7F3B" mask="url(#mask-6)"></path>
                <path d="M183.2824,365.4583 C183.2824,363.5813 184.8044,362.0593 186.6814,362.0593 C188.5584,362.0593 190.0804,363.5813 190.0804,365.4583 C190.0804,367.3353 188.5584,368.8573 186.6814,368.8573 C184.8044,368.8573 183.2824,367.3353 183.2824,365.4583" id="Fill-118" fill="#77122A" mask="url(#mask-6)"></path>
                <polygon id="Fill-119" fill="#77122A" mask="url(#mask-6)" points="301.6754 365.3831 294.8774 365.3831 290.6844 352.9941 305.8674 352.9941"></polygon>
                <path d="M289.9669,365.4583 C289.9669,360.8693 293.6869,357.1483 298.2759,357.1483 C302.8649,357.1483 306.5859,360.8693 306.5859,365.4583 C306.5859,370.0473 302.8649,373.7683 298.2759,373.7683 C293.6869,373.7683 289.9669,370.0473 289.9669,365.4583" id="Fill-120" fill="#EA7F3B" mask="url(#mask-6)"></path>
                <path d="M294.8771,365.4583 C294.8771,363.5813 296.3981,362.0593 298.2761,362.0593 C300.1531,362.0593 301.6751,363.5813 301.6751,365.4583 C301.6751,367.3353 300.1531,368.8573 298.2761,368.8573 C296.3981,368.8573 294.8771,367.3353 294.8771,365.4583" id="Fill-121" fill="#77122A" mask="url(#mask-6)"></path>
                <path d="M78.0426,27.7967 C77.5066,26.6487 75.8896,23.6987 72.7536,24.4917 C69.6176,25.2847 67.3296,31.8447 71.1286,37.6357 C73.4706,41.2047 78.1096,36.3197 78.3796,33.3097 C78.6676,30.0997 78.5196,28.8187 78.0426,27.7967" id="Fill-122" fill="#5B2D0F" mask="url(#mask-6)"></path>
                <path d="M232.3219,334.0179 C233.3289,333.8099 234.6909,329.9719 234.6909,329.9719 C234.6909,329.9719 235.5469,329.8079 236.8139,329.3629 C238.0819,328.9159 239.0849,325.2629 239.7659,323.9179 C240.4469,322.5739 241.6409,323.8719 247.9999,321.1449 C254.3589,318.4159 251.9069,307.2989 251.9069,307.2989 C251.9069,307.2989 248.0899,296.5749 241.2519,297.6339 C234.4149,298.6939 234.0919,300.4279 232.8009,299.6499 C231.2689,298.7249 229.8829,297.1629 228.0599,296.7389 C227.6279,296.6389 227.1899,296.6059 226.7499,296.6749 C226.3299,296.7419 225.6749,297.2439 225.3049,297.1969 C224.8569,297.1399 224.1339,296.2919 223.7509,296.0319 C223.1949,295.6539 222.6029,295.2999 221.9469,295.1269 C220.9049,294.8539 219.6529,295.3159 218.6039,295.5079 C217.1439,295.7759 215.6879,296.0669 214.2459,296.4219 C212.9039,296.7529 211.6179,297.0889 210.9679,298.3739 C210.4849,299.3269 210.0669,300.3179 209.6309,301.2919 C209.6309,301.2919 207.2459,300.9919 206.2949,302.8239 C205.3429,304.6569 205.5949,306.9649 203.6129,307.7809 C201.6299,308.5949 196.6439,307.8099 194.2969,311.9319 C191.9499,316.0529 190.9039,320.7039 192.2959,324.4089 C193.0809,328.2879 196.4339,331.6759 200.6089,333.9249 C204.7849,336.1749 208.5959,332.8649 210.7089,332.5039 C212.8219,332.1439 213.8319,334.2349 215.6109,335.2839 C217.3879,336.3319 219.2479,334.8169 219.2519,334.8139 C219.3939,334.6979 222.3369,336.8849 222.7729,336.9869 C223.2519,337.0979 223.7529,337.0099 224.2329,336.9029 C227.0289,336.2749 229.5539,334.5859 232.3219,334.0179" id="Fill-123" fill="#FFFFFF" mask="url(#mask-6)"></path>
                <path d="M218.6012,325.3265 C222.1162,323.7395 226.0102,322.3495 229.7602,321.2905 C231.7172,320.7365 233.7132,320.3045 235.7392,320.1015 C237.6532,319.9115 239.6172,320.2305 241.4992,319.8425 C244.7312,319.1755 248.3502,317.9795 249.0872,314.3865 C249.5162,312.3005 249.0402,310.2805 248.5302,308.2675 C248.1142,306.6285 246.1282,300.1595 240.8702,301.0955 C238.3732,301.5385 236.1112,302.1815 233.9332,303.5285 C229.8052,306.0795 225.1642,307.2445 220.4852,308.3545 C216.5872,309.2785 212.6472,310.0245 208.6812,310.5905 C204.2262,311.2245 199.0292,311.5925 195.9462,315.3345 C195.1802,316.2645 194.6292,317.4035 194.5392,318.6055 C194.4162,320.2485 195.1952,321.6655 196.3322,322.7895 C195.4512,327.3745 200.0292,331.1255 204.3932,330.5945 C207.7082,330.1905 211.0752,328.5205 214.1272,327.2555 C215.6272,326.6335 217.1222,325.9955 218.6012,325.3265" id="Fill-124" fill="#E8364B" mask="url(#mask-6)"></path>
                <path d="M231.1828,217.8245 C231.6018,217.4925 232.0598,217.1905 232.5128,216.8915 C232.8398,216.6745 233.1498,216.4705 233.4448,216.2555 C233.5768,216.1595 233.7078,216.0565 233.7648,215.9405 C233.8538,215.7565 233.7828,215.5045 233.7008,215.2115 C233.6658,215.0905 233.6308,214.9655 233.6058,214.8365 C233.4238,213.9145 233.8308,212.8935 234.6948,212.1065 C235.2428,211.6075 235.8898,211.2545 236.5148,210.9135 C236.6958,210.8155 236.8758,210.7165 237.0538,210.6145 C237.3428,210.4495 237.6338,210.2685 237.9158,210.0945 C238.7198,209.5975 239.5508,209.0835 240.4878,208.8015 C241.0438,208.6335 241.6378,208.5515 242.2558,208.5535 C242.2498,208.5525 242.2448,208.5515 242.2398,208.5505 C240.5048,208.1545 238.5538,208.4035 236.7448,209.2515 C234.8868,210.1225 233.5088,211.5185 232.9648,213.0825 C232.8138,213.5145 232.7218,213.9635 232.6228,214.4375 C232.5008,215.0255 232.3748,215.6345 232.1288,216.2105 C231.9028,216.7395 231.5878,217.2145 231.2828,217.6735 C231.2488,217.7235 231.2158,217.7745 231.1828,217.8245 M228.6728,221.8305 C228.7218,221.8445 228.7708,221.8515 228.8178,221.8485 C229.0368,221.8365 229.2188,221.5995 229.3018,221.3735 C229.1178,221.5565 228.9038,221.7135 228.6728,221.8305 M232.5508,230.8245 L232.5478,230.8275 C232.5418,230.9485 232.7378,231.1165 232.8108,231.1795 C232.9608,231.3075 233.1118,231.4375 233.2658,231.5645 C233.2228,231.3395 233.1748,231.1295 233.0688,230.9645 C233.0098,230.8715 232.8658,230.8015 232.7188,230.7935 C232.6218,230.7885 232.5658,230.8125 232.5508,230.8245 M244.0698,220.7805 C244.3668,220.7195 244.6498,220.6805 244.9078,220.6585 C245.3408,220.6205 245.7838,220.6135 246.2118,220.6065 C247.3138,220.5885 248.3548,220.5715 249.2338,220.0745 C250.1228,219.5715 250.7628,218.5475 250.9008,217.4045 C251.0578,216.1055 250.6028,214.9215 250.1938,214.1575 C249.4328,212.7365 248.1798,211.4945 246.5548,210.5475 C246.7788,210.8495 246.9748,211.1695 247.1388,211.5055 C248.0848,213.4395 247.8798,215.8125 246.6278,217.4125 C246.3338,217.7865 245.9928,218.1155 245.6618,218.4325 C245.2428,218.8345 244.8478,219.2135 244.5558,219.6705 C244.3388,220.0095 244.1848,220.3855 244.0698,220.7805 M242.3478,222.2835 C242.2638,222.3535 242.1838,222.4275 242.1068,222.5065 C241.4668,223.1655 241.1238,224.3535 241.6598,225.1995 C241.7868,225.3995 241.9578,225.5785 242.1388,225.7685 C242.1908,225.8235 242.2438,225.8795 242.2968,225.9355 C242.5918,224.9765 242.8268,223.9195 243.0058,222.7485 L243.0548,222.4235 C243.0858,222.2115 243.1178,221.9985 243.1528,221.7855 C242.8698,221.9145 242.5958,222.0775 242.3478,222.2835 M238.4788,231.8165 C239.0968,231.3495 239.6188,230.8215 240.0568,230.2855 C239.9808,230.3385 239.9048,230.3865 239.8308,230.4325 C239.7688,230.4715 239.7058,230.5115 239.6468,230.5525 C239.2258,230.8415 238.9038,231.2625 238.5598,231.7105 C238.5338,231.7455 238.5058,231.7805 238.4788,231.8165 M239.2248,232.0955 C238.7498,232.4905 238.2448,232.8305 237.7158,233.1115 C236.8908,233.5485 236.1598,233.7395 235.4788,233.6975 C234.7018,233.6485 234.0158,233.2675 233.6388,232.6995 C233.1828,232.3985 232.7698,232.0435 232.3658,231.6975 C232.1968,231.5525 231.8458,231.2505 231.8638,230.8165 C231.8768,230.4915 232.0908,230.2345 232.4208,230.1445 C232.8128,230.0385 233.3778,230.1785 233.6448,230.5965 C233.8388,230.9005 233.8988,231.2305 233.9568,231.5495 C233.9948,231.7555 234.0298,231.9495 234.0988,232.1175 C234.1118,232.1495 234.1258,232.1805 234.1418,232.2105 C234.3038,232.3115 234.4708,232.4035 234.6428,232.4815 C235.3528,232.8055 236.0818,232.8505 236.6418,232.6035 C237.2048,232.3555 237.5998,231.8405 238.0178,231.2945 C238.3788,230.8245 238.7518,230.3385 239.2598,229.9895 C239.3278,229.9435 239.3968,229.8985 239.4678,229.8545 C239.6648,229.7305 239.8508,229.6135 239.9378,229.4585 C239.9658,229.4075 239.9858,229.3505 240.0008,229.2865 C239.9068,229.1225 239.8848,228.9255 239.9448,228.7265 C239.9998,228.5435 240.1208,228.3695 240.2778,228.2295 C240.3338,228.1445 240.4018,228.0675 240.4778,227.9995 C240.4948,227.9785 240.5118,227.9585 240.5308,227.9395 C240.6148,227.8545 240.7208,227.7995 240.8358,227.7765 C240.8778,227.7595 240.9198,227.7435 240.9638,227.7295 C241.0488,227.5605 241.1938,227.4215 241.3558,227.3395 C241.5148,227.2585 241.6768,227.2355 241.8238,227.2645 C241.8998,227.0785 241.9728,226.8875 242.0438,226.6935 C241.9288,226.5375 241.7898,226.3925 241.6448,226.2405 C241.4488,226.0345 241.2458,225.8225 241.0828,225.5645 C240.4308,224.5355 240.6608,223.0155 241.6168,222.0305 C242.1068,221.5255 242.7078,221.1995 243.3078,220.9895 C243.4468,220.3995 243.6458,219.8255 243.9798,219.3025 C244.3158,218.7775 244.7598,218.3515 245.1888,217.9395 C245.5168,217.6245 245.8268,217.3275 246.0898,216.9915 C247.1838,215.5935 247.3588,213.5095 246.5248,211.8055 C246.1228,210.9835 245.5068,210.2635 244.7468,209.6985 C243.2908,209.1825 241.8858,209.0935 240.6848,209.4545 C239.8328,209.7115 239.0768,210.1795 238.2748,210.6755 C237.9888,210.8525 237.6918,211.0355 237.3928,211.2075 C237.2118,211.3115 237.0268,211.4125 236.8418,211.5125 C236.2248,211.8495 235.6418,212.1675 235.1548,212.6115 C234.6248,213.0935 234.1168,213.8965 234.2758,214.7045 C234.2958,214.8065 234.3258,214.9135 234.3578,215.0265 C234.4628,215.3985 234.5818,215.8205 234.3788,216.2385 C234.2548,216.4955 234.0388,216.6675 233.8468,216.8065 C233.5388,217.0315 233.2088,217.2495 232.8888,217.4615 C231.6838,218.2585 230.4368,219.0815 230.1678,220.3795 C230.1408,220.5145 230.1228,220.6545 230.1048,220.8035 C230.0758,221.0485 230.0448,221.3025 229.9608,221.5565 C229.8198,221.9845 229.4458,222.4965 228.8568,222.5305 C228.5328,222.5495 228.2488,222.4105 228.0388,222.2875 C227.9068,222.2105 227.7788,222.1255 227.6568,222.0345 C227.4858,222.0155 227.3148,221.9665 227.1498,221.8825 C226.3638,221.4815 226.2028,220.6325 226.1278,219.8085 C226.1258,219.8005 226.1228,219.7915 226.1208,219.7835 C226.0828,219.6425 226.0488,219.4935 226.0138,219.3435 C225.8658,218.7035 225.7258,218.1005 225.2678,217.9365 C225.1138,217.8815 224.9238,217.8825 224.7218,217.8835 C224.6668,217.8845 224.6128,217.8845 224.5578,217.8835 C223.7418,217.8735 223.0968,217.5255 222.4728,217.1885 C222.0668,216.9695 221.6768,216.7595 221.2628,216.6595 C221.3408,216.8265 221.4398,217.0225 221.5168,217.1765 C221.8608,217.8535 222.0668,218.2865 222.0498,218.5825 C222.0378,218.7715 221.8758,218.9145 221.6878,218.9035 C221.4998,218.8915 221.3578,218.7315 221.3678,218.5435 C221.3638,218.3855 221.0788,217.8215 220.9088,217.4845 C220.5078,216.6935 220.3508,216.3615 220.5198,216.0985 C220.5968,215.9795 220.7298,215.9125 220.8768,215.9175 C221.6098,215.9475 222.2138,216.2725 222.7978,216.5875 C223.3738,216.8985 223.9188,217.1925 224.5668,217.2005 C224.6178,217.2015 224.6678,217.2005 224.7178,217.2005 C224.9468,217.1995 225.2038,217.1985 225.4588,217.2805 C224.8098,216.3515 223.6948,215.8035 222.2838,215.3415 C221.5958,215.1165 220.9328,214.9325 220.3898,215.1635 C219.9258,215.3585 220.4308,217.0385 220.5958,217.5905 C220.6578,217.7995 220.7068,217.9645 220.7348,218.0885 C220.7758,218.2725 220.6608,218.4555 220.4758,218.4965 C220.2918,218.5375 220.1098,218.4215 220.0678,218.2375 C220.0458,218.1365 219.9968,217.9745 219.9408,217.7855 C219.6268,216.7325 219.1018,214.9685 220.1218,214.5345 C220.9468,214.1845 221.8788,214.4905 222.4958,214.6925 C224.5298,215.3595 226.4508,216.3265 226.7338,218.8705 C226.7528,219.0405 226.7658,219.2175 226.7798,219.3975 C226.7868,219.4925 226.7948,219.5885 226.8028,219.6825 C226.9958,220.3335 227.3818,220.9175 227.8978,221.3545 C228.3198,221.3215 228.7658,221.0165 229.0258,220.6455 C229.2838,220.2795 229.4448,219.8505 229.6158,219.3955 C229.7168,219.1265 229.8218,218.8475 229.9498,218.5785 C230.1658,218.1215 230.4448,217.7015 230.7138,217.2955 C231.0158,216.8425 231.2998,216.4135 231.5008,215.9425 C231.7198,215.4285 231.8338,214.8805 231.9538,214.2995 C232.0528,213.8245 232.1548,213.3325 232.3198,212.8575 C232.9328,211.0955 234.4018,209.5955 236.4548,208.6335 C238.4008,207.7205 240.5098,207.4545 242.3918,207.8845 C243.3748,208.1085 244.2868,208.5255 245.0688,209.0895 C245.5438,209.2625 246.0218,209.4775 246.4978,209.7335 C248.4268,210.7685 249.9128,212.1865 250.7958,213.8345 C251.2518,214.6855 251.7578,216.0105 251.5788,217.4865 C251.4148,218.8415 250.6458,220.0605 249.5698,220.6695 C248.5398,221.2515 247.3618,221.2705 246.2228,221.2895 C245.8068,221.2965 245.3758,221.3035 244.9668,221.3385 C244.6438,221.3665 244.2728,221.4225 243.8928,221.5235 C243.8288,221.8545 243.7798,222.1905 243.7298,222.5235 L243.6808,222.8525 C243.4668,224.2515 243.1738,225.4975 242.7948,226.6145 C243.0638,227.1665 243.0788,227.8795 242.5818,228.2925 C242.5798,228.2945 242.5778,228.2955 242.5778,228.2955 C242.5768,228.2995 242.5768,228.3005 242.5778,228.3025 C242.6218,228.3845 242.6298,228.4815 242.5998,228.5705 C242.5708,228.6585 242.5068,228.7315 242.4218,228.7715 C242.2348,228.8595 242.0198,228.8985 241.8108,228.8865 C241.1128,230.1715 240.2348,231.2565 239.2248,232.0955" id="Fill-125" fill="#FFFFFF" mask="url(#mask-6)"></path>
                <path d="M223.1134,218.9491 C226.0504,220.4701 224.8864,221.6191 224.8864,221.6191 L210.3894,247.6371 C210.3894,247.6371 207.1144,253.3151 202.9454,249.8971 C198.7764,246.4801 200.8954,243.2411 200.8954,243.2411 C200.8954,243.2411 214.1434,218.4811 215.5024,216.9101 C216.8604,215.3381 217.4344,216.1191 217.4344,216.1191 C217.4344,216.1191 218.4184,216.6081 219.5684,217.1811 L223.1134,218.9491 Z" id="Fill-126" fill="#FFFFFF" mask="url(#mask-6)"></path>
                <path d="M202.0177,249.0609 L201.2907,248.1859 C201.2677,246.3089 201.6227,244.6089 202.5097,242.9549 C203.4347,241.2289 204.3377,239.5049 205.2107,237.8379 C208.1977,232.1379 211.4307,226.0869 215.2257,220.2969 C215.7827,219.4469 216.2377,218.5279 216.6777,217.6389 C216.9137,217.1609 217.1587,216.6669 217.4187,216.1829 L218.0197,216.5059 C217.7657,216.9799 217.5227,217.4689 217.2887,217.9409 C216.8407,218.8489 216.3757,219.7869 215.7967,220.6709 C212.0187,226.4359 208.7947,232.4689 205.8157,238.1549 C204.9417,239.8239 204.0377,241.5489 203.1107,243.2769 C202.2817,244.8249 201.9957,247.2709 202.0177,249.0609" id="Fill-127" fill="#E8364B" mask="url(#mask-6)"></path>
                <path d="M203.9557,250.5643 L203.1787,250.0793 C203.1547,248.1163 204.0647,245.6163 204.9227,244.0163 C205.3637,243.1933 205.8407,242.4063 206.3017,241.6443 C206.7967,240.8263 207.3097,239.9803 207.7707,239.0983 C208.7627,237.2063 209.7257,235.2403 210.6577,233.3383 C212.6687,229.2333 214.7487,224.9883 217.2807,221.1253 C217.8017,220.3293 218.1707,219.5413 218.5607,218.7083 C218.8027,218.1933 219.0517,217.6613 219.3427,217.1203 L219.9437,217.4433 C219.6617,217.9673 219.4167,218.4913 219.1797,218.9973 C218.7967,219.8163 218.3997,220.6633 217.8517,221.4993 C215.3427,225.3273 213.2727,229.5523 211.2707,233.6383 C210.3367,235.5443 209.3717,237.5153 208.3757,239.4153 C207.9047,240.3153 207.3867,241.1703 206.8857,241.9983 C206.4297,242.7523 205.9567,243.5323 205.5247,244.3383 C204.7227,245.8353 203.9337,248.7313 203.9557,250.5643" id="Fill-128" fill="#E8364B" mask="url(#mask-6)"></path>
                <path d="M205.5422,250.9881 L204.8122,250.8861 C204.7922,249.2841 206.0292,247.8681 206.9202,246.3161 C207.1202,245.9681 207.3092,245.6381 207.4672,245.3431 C207.9402,244.4601 208.4482,243.3771 208.9382,242.3301 C209.3842,241.3781 209.8452,240.3951 210.2742,239.5741 C211.2592,237.6951 212.1832,235.8121 213.0772,233.9911 C215.0792,229.9111 216.9702,226.0581 219.5092,222.1831 C219.9652,221.4881 220.2092,220.7681 220.4672,220.0061 C220.6792,219.3801 220.8992,218.7331 221.2462,218.0861 L221.8482,218.4091 C221.5272,219.0061 221.3172,219.6261 221.1142,220.2251 C220.8542,220.9941 220.5842,221.7891 220.0812,222.5571 C217.5642,226.3971 215.6822,230.2321 213.6892,234.2921 C212.7942,236.1171 211.8682,238.0041 210.8792,239.8911 C210.4572,240.6981 209.9992,241.6751 209.5572,242.6191 C209.0632,243.6751 208.5512,244.7661 208.0692,245.6661 C207.9062,245.9691 207.7152,246.3031 207.5122,246.6561 C206.6632,248.1361 205.5242,249.5731 205.5422,250.9881" id="Fill-129" fill="#E8364B" mask="url(#mask-6)"></path>
                <path d="M208.1217,250.1527 L207.6587,250.3967 L206.8597,250.7567 L206.8607,250.7567 C207.4727,250.2477 208.4687,248.2447 209.2697,246.6347 C209.7267,245.7157 210.1597,244.8467 210.4807,244.3297 C210.9447,243.5827 211.4217,242.7257 211.8817,241.8967 C212.3697,241.0197 212.8727,240.1137 213.3707,239.3217 C215.2037,236.4047 216.4617,233.5987 217.7927,230.6277 C218.8677,228.2327 219.9777,225.7557 221.4267,223.1847 C221.9217,222.3047 222.4477,221.4897 222.9557,220.7007 C223.2237,220.2867 223.4987,219.8587 223.7677,219.4257 L224.3487,219.7857 C224.0767,220.2237 223.7987,220.6547 223.5307,221.0707 C223.0277,221.8507 222.5077,222.6577 222.0207,223.5197 C220.5877,226.0637 219.4837,228.5267 218.4167,230.9077 C217.0747,233.9007 215.8067,236.7277 213.9487,239.6857 C213.4607,240.4617 212.9617,241.3597 212.4787,242.2287 C212.0147,243.0647 211.5337,243.9297 211.0607,244.6907 C210.7567,245.1797 210.3307,246.0337 209.8807,246.9397 C208.9657,248.7787 208.8447,249.5527 208.1217,250.1527" id="Fill-130" fill="#E8364B" mask="url(#mask-6)"></path>
                <path d="M213.7741,354.0853 L209.7341,323.7263 C209.2181,319.8483 206.6051,316.6313 202.9151,315.3313 L162.4731,301.0993 L163.3761,298.5353 L203.8171,312.7683 C208.4781,314.4073 211.7791,318.4693 212.4311,323.3673 L216.4701,353.7283 L213.7741,354.0853 Z" id="Fill-131" fill="#77122A" mask="url(#mask-6)"></path>
            </g>
        </g>
    </g>
</svg>