<?xml version="1.0" encoding="UTF-8"?>
<svg width="322px" height="302px" viewBox="0 0 402 385" version="1.1" xmlns="http://www.w3.org/2000/svg" xmlns:xlink="http://www.w3.org/1999/xlink">
    <title>Group 100</title>
    <defs>
        <polygon id="path-1" points="0 0 56.911715 0 56.911715 56.8763987 0 56.8763987"></polygon>
        <polygon id="path-3" points="0 0 108.22031 0 108.22031 77.8435082 0 77.8435082"></polygon>
    </defs>
    <g id="Page-1" stroke="none" stroke-width="1" fill="none" fill-rule="evenodd">
        <g id="NOS-PARTENAIRES-REDISTRIBUTEURS" transform="translate(-1069.000000, -196.000000)">
            <g id="Group-100" transform="translate(1069.387424, 196.000000)">
                <polygon id="Fill-6" fill="#5B2D0F" points="80.8959761 344.6341 81.7159761 362.9751 94.6249761 361.1801 93.7089761 343.1521"></polygon>
                <g id="Group-99" transform="translate(0.000000, -0.000000)">
                    <path d="M79.0942761,358.8528 C79.4462761,357.8988 80.4952761,357.5708 81.1862761,358.2188 C82.5402761,359.4888 84.9862761,361.0508 88.6752761,360.7818 C92.5042761,360.4988 94.0022761,358.2888 94.5882761,356.6908 C94.8952761,355.8488 95.7272761,355.4388 96.4392761,355.8208 L119.299276,368.0748 C120.689276,368.8178 121.749276,370.1668 122.254276,371.8238 C122.726276,373.3808 121.650276,375.0108 120.201276,374.9328 L80.1982761,372.7658 C78.6222761,372.6818 77.4562761,371.1068 77.6392761,369.3138 L78.5382761,360.5168 C78.5522761,360.3728 78.5872761,360.2288 78.6352761,360.0938 L79.0942761,358.8528 Z" id="Fill-7" fill="#FFFFFF"></path>
                    <polygon id="Fill-9" fill="#5B2D0F" points="7.57567608 347.4622 2.99667608 365.5812 15.8186761 365.5962 21.2976761 346.6802"></polygon>
                    <path d="M1.47507608,361.7278 C1.82607608,360.7748 2.87407608,360.4448 3.56507608,361.0918 C4.92007608,362.3638 7.36807608,363.9258 11.0550761,363.6558 C14.8840761,363.3738 16.3820761,361.1638 16.9670761,359.5658 C17.2760761,358.7248 18.1060761,358.3138 18.8190761,358.6958 L41.6800761,370.9478 C43.0670761,371.6928 44.1310761,373.0428 44.6330761,374.6988 C45.1060761,376.2548 44.0300761,377.8858 42.5810761,377.8078 L2.57907608,375.6418 C1.00407608,375.5558 -0.164923925,373.9808 0.0190760753,372.1898 L0.919076075,363.3928 C0.933076075,363.2468 0.968076075,363.1048 1.01607608,362.9678 L1.47507608,361.7278 Z" id="Fill-11" fill="#FFFFFF"></path>
                    <polygon id="Fill-13" fill="#FF9A00" points="90.9535761 148.7703 99.9315761 236.7043 97.8305761 349.7663 74.8905761 348.3303 75.8355761 236.6253 62.9445761 148.4513"></polygon>
                    <polygon id="Fill-15" fill="#FF9A00" points="39.6283761 148.1883 34.5353761 234.0823 3.33437608 353.2423 23.7663761 354.5203 61.1643761 236.8173 79.6503761 148.8503"></polygon>
                    <path d="M179.161576,227.2928 C177.650576,224.5928 174.038576,212.0338 174.038576,212.0338 C174.038576,212.0338 172.642576,207.4998 172.987576,204.9868 C173.330576,202.4718 172.975576,199.3378 171.377576,198.2288 C169.777576,197.1178 167.471576,196.3338 164.498576,197.0418 C161.526576,197.7488 159.821576,199.4878 158.893576,201.1988 C157.967576,202.9108 159.063576,205.8658 160.504576,207.9568 C161.942576,210.0468 162.743576,214.7208 162.743576,214.7208 C162.743576,214.7208 165.180576,227.5598 165.050576,230.6498 C164.921576,233.7018 168.010576,238.3528 173.697576,237.1398 L173.699576,237.1458 C173.737576,237.1368 173.773576,237.1258 173.810576,237.1158 C173.848576,237.1068 173.884576,237.1008 173.922576,237.0928 L173.921576,237.0858 C179.557576,235.6058 180.652576,229.9588 179.161576,227.2928" id="Fill-17" fill="#C5E2E0"></path>
                    <path d="M178.256376,227.1707 C176.744376,224.4707 173.131376,211.9117 173.131376,211.9117 C173.131376,211.9117 171.737376,207.3787 172.081376,204.8647 C172.424376,202.3507 172.069376,199.2167 170.471376,198.1077 C168.871376,196.9967 166.564376,196.2117 163.592376,196.9187 C160.620376,197.6267 158.915376,199.3657 157.987376,201.0777 C157.061376,202.7897 158.157376,205.7447 159.598376,207.8347 C161.037376,209.9237 161.837376,214.5997 161.837376,214.5997 C161.837376,214.5997 164.275376,227.4377 164.143376,230.5277 C164.015376,233.5807 167.104376,238.2317 172.791376,237.0177 L172.793376,237.0227 C172.832376,237.0157 172.867376,237.0037 172.905376,236.9947 C172.942376,236.9847 172.979376,236.9797 173.016376,236.9717 L173.015376,236.9647 C178.652376,235.4837 179.746376,229.8367 178.256376,227.1707" id="Fill-19" fill="#FFFFFF"></path>
                    <polygon id="Fill-21" fill="#E7364B" points="175.560076 231.0662 168.248076 232.8052 161.119076 202.8802 168.430076 201.1402"></polygon>
                    <path d="M189.641076,193.9129 C189.130076,193.4529 186.521076,194.2439 186.521076,194.2439 C186.521076,194.2439 186.093076,193.8479 185.350076,193.3439 C184.606076,192.8379 182.240076,193.7489 181.244076,193.9159 C180.248076,194.0819 180.474076,192.9259 176.478076,190.5849 C172.483076,188.2449 167.469076,193.9779 167.469076,193.9779 C167.469076,193.9779 163.207076,200.2929 166.495076,203.5519 C169.783076,206.8119 170.845076,206.2989 170.939076,207.3019 C171.049076,208.4939 170.758076,209.8589 171.255076,211.0089 C171.372076,211.2819 171.529076,211.5299 171.741076,211.7399 C171.943076,211.9389 172.474076,212.0929 172.596076,212.3109 C172.744076,212.5749 172.574076,213.2999 172.586076,213.6089 C172.604076,214.0599 172.648076,214.5179 172.815076,214.9399 C173.081076,215.6089 173.828076,216.0999 174.348076,216.5889 C175.073076,217.2689 175.808076,217.9359 176.573076,218.5709 C177.286076,219.1619 177.976076,219.7209 178.926076,219.5609 C179.631076,219.4429 180.330076,219.2749 181.030076,219.1219 C181.030076,219.1219 181.814076,220.5249 183.179076,220.3089 C184.544076,220.0949 185.689076,219.0419 186.915076,219.7849 C188.142076,220.5289 189.701076,223.5249 192.853076,223.1519 C196.004076,222.7799 198.926076,221.4949 200.370076,219.2759 C202.146076,217.3129 202.639076,214.1619 202.192076,211.0209 C201.744076,207.8809 198.447076,207.1429 197.414076,206.1489 C196.379076,205.1539 197.104076,203.7799 196.963076,202.4059 C196.821076,201.0349 195.267076,200.6339 195.263076,200.6329 C195.145076,200.6029 195.154076,198.1499 195.035076,197.8749 C194.905076,197.5729 194.659076,197.3379 194.410076,197.1219 C192.960076,195.8649 191.048076,195.1779 189.641076,193.9129" id="Fill-23" fill="#C5E2E0"></path>
                    <path d="M188.418476,193.7713 C187.906476,193.3113 185.298476,194.1033 185.298476,194.1033 C185.298476,194.1033 184.870476,193.7073 184.126476,193.2013 C183.382476,192.6963 181.015476,193.6063 180.020476,193.7743 C179.025476,193.9413 179.251476,192.7833 175.255476,190.4433 C171.259476,188.1033 166.244476,193.8363 166.244476,193.8363 C166.244476,193.8363 161.984476,200.1513 165.271476,203.4113 C168.558476,206.6703 169.620476,206.1563 169.715476,207.1603 C169.826476,208.3523 169.534476,209.7173 170.030476,210.8673 C170.148476,211.1393 170.306476,211.3883 170.518476,211.5983 C170.720476,211.7973 171.250476,211.9513 171.371476,212.1693 C171.519476,212.4323 171.351476,213.1583 171.362476,213.4683 C171.379476,213.9173 171.423476,214.3753 171.591476,214.7983 C171.858476,215.4673 172.605476,215.9583 173.124476,216.4473 C173.850476,217.1263 174.584476,217.7943 175.349476,218.4293 C176.061476,219.0203 176.752476,219.5803 177.702476,219.4183 C178.406476,219.3013 179.107476,219.1323 179.805476,218.9793 C179.805476,218.9793 180.591476,220.3833 181.956476,220.1673 C183.321476,219.9533 184.464476,218.8993 185.691476,219.6433 C186.918476,220.3873 188.477476,223.3843 191.629476,223.0103 C194.781476,222.6373 197.702476,221.3533 199.145476,219.1333 C200.922476,217.1713 201.415476,214.0203 200.968476,210.8793 C200.521476,207.7393 197.223476,207.0003 196.189476,206.0073 C195.156476,205.0133 195.881476,203.6383 195.738476,202.2643 C195.598476,200.8923 194.042476,200.4923 194.039476,200.4913 C193.921476,200.4603 193.929476,198.0073 193.811476,197.7323 C193.681476,197.4323 193.435476,197.1963 193.185476,196.9803 C191.736476,195.7243 189.824476,195.0353 188.418476,193.7713" id="Fill-25" fill="#FFFFFF"></path>
                    <path d="M189.187976,204.6077 C186.936976,203.3467 184.641976,201.8017 182.580976,200.2037 C181.503976,199.3697 180.477976,198.4677 179.563976,197.4567 C178.701976,196.5037 178.092976,195.3187 177.136976,194.4587 C175.492976,192.9847 173.410976,191.5117 171.182976,192.5417 C169.888976,193.1387 168.989976,194.1957 168.107976,195.2707 C167.390976,196.1457 164.695976,199.7827 167.287976,202.2417 C168.519976,203.4097 169.764976,204.3717 171.353976,205.0097 C174.369976,206.2197 176.839976,208.2547 179.296976,210.3337 C181.343976,212.0637 183.310976,213.8887 185.190976,215.7987 C187.302976,217.9457 189.564976,220.5977 192.806976,220.7717 C193.612976,220.8157 194.443976,220.6577 195.127976,220.2297 C196.060976,219.6437 196.515976,218.6617 196.668976,217.6037 C199.488976,216.2567 199.690976,212.3037 197.669976,210.1647 C196.135976,208.5417 193.898976,207.3917 192.002976,206.2517 C191.072976,205.6907 190.135976,205.1397 189.187976,204.6077" id="Fill-27" fill="#E7364B"></path>
                    <path d="M148.587376,202.7786 C148.587376,197.5386 152.837376,193.2916 158.080376,193.2916 C163.322376,193.2916 167.572376,197.5386 167.572376,202.7786 C167.572376,208.0186 163.322376,212.2656 158.080376,212.2656 C152.837376,212.2656 148.587376,208.0186 148.587376,202.7786" id="Fill-29" fill="#5B2D0F"></path>
                    <path d="M161.749476,189.8817 C161.749476,184.6417 165.998476,180.3947 171.240476,180.3947 C176.482476,180.3947 180.733476,184.6417 180.733476,189.8817 C180.733476,195.1217 176.482476,199.3687 171.240476,199.3687 C165.998476,199.3687 161.749476,195.1217 161.749476,189.8817" id="Fill-31" fill="#5B2D0F"></path>
                    <path d="M160.682076,86.2566 C138.586076,86.2566 137.110076,150.3376 137.110076,150.3376 L162.217076,185.1556 L175.620076,182.0846 L171.524076,144.6216 C171.524076,144.6216 182.779076,86.2566 160.682076,86.2566" id="Fill-33" fill="#FFE4DD"></path>
                    <path d="M39.0287761,137.515 L20.4177761,196.122 C20.4177761,196.122 33.0047761,208.2 65.3527761,215.945 C85.8717761,220.859 114.590776,218.582 114.590776,218.582 L112.684776,178.049 C112.684776,178.049 59.7477761,138.568 39.0287761,137.515" id="Fill-35" fill="#FFE4DD"></path>
                    <path d="M111.638176,168.2967 L138.879176,143.3057 C138.879176,143.3057 191.039176,102.4997 160.179176,78.3807 C124.009176,50.1147 92.6261761,68.8677 92.6261761,68.8677 C92.6261761,68.8677 57.9911761,89.7877 39.0291761,137.5157 C39.0291761,137.5157 84.3271761,183.4887 100.482176,182.0847 C116.635176,180.6807 111.638176,168.2967 111.638176,168.2967" id="Fill-37" fill="#FF9A00"></path>
                    <g id="Group-41" transform="translate(133.962523, 0.000000)">
                        <mask id="mask-2" fill="white">
                            <use xlink:href="#path-1"></use>
                        </mask>
                        <g id="Clip-40"></g>
                        <path d="M55.9022532,35.9183 C51.7682532,51.0673 36.1292532,59.9993 20.9702532,55.8673 C5.81125318,51.7363 -3.12374682,36.1063 1.00925318,20.9573 C5.14225318,5.8083 20.7822532,-3.1237 35.9412532,1.0093 C51.0982532,5.1403 60.0362532,20.7693 55.9022532,35.9183" id="Fill-39" fill="#FFFFFF" mask="url(#mask-2)"></path>
                    </g>
                    <path d="M145.638176,80.4529 L145.638176,80.4529 C139.878176,78.7609 136.579176,72.7229 138.273176,66.9649 L143.228176,50.1159 L164.087176,56.2399 L159.133176,73.0909 C157.441176,78.8489 151.399176,82.1429 145.638176,80.4529" id="Fill-42" fill="#5B2D0F"></path>
                    <path d="M152.854976,64.1277 L151.016976,63.5357 C141.818976,60.5747 136.764976,50.7247 139.726976,41.5307 L143.100976,31.0587 C146.062976,21.8667 155.919976,16.8147 165.118976,19.7737 L166.957976,20.3657 C176.153976,23.3257 181.209976,33.1787 178.248976,42.3717 L174.872976,52.8417 C171.910976,62.0357 162.051976,67.0867 152.854976,64.1277" id="Fill-44" fill="#5B2D0F"></path>
                    <path d="M145.247576,46.4695 C145.623576,47.2475 145.946576,48.4145 145.934576,50.1175 C145.920576,52.2875 146.838576,54.4405 148.541576,55.7855 C153.458576,59.6625 158.174576,51.2765 165.734576,53.4665 C165.734576,53.4665 168.700576,54.1785 169.022576,57.5735 C169.346576,60.9675 174.023576,55.4805 175.287576,51.5615 C176.550576,47.6435 175.019576,71.4385 156.227576,67.8245 C156.227576,67.8245 146.696576,66.7145 141.071576,56.4215 C140.452576,55.2885 140.144576,54.0015 140.215576,52.7135 C140.320576,50.7975 140.838576,47.9415 142.822576,46.0315 C143.549576,45.3335 144.807576,45.5635 145.247576,46.4695" id="Fill-46" fill="#FFFFFF"></path>
                    <path d="M145.684076,41.0857 C144.626076,44.3667 141.109076,46.1687 137.825076,45.1117 C134.541076,44.0567 132.739076,40.5397 133.793076,37.2587 C134.851076,33.9787 138.372076,32.1747 141.655076,33.2317 C144.937076,34.2877 146.742076,37.8047 145.684076,41.0857" id="Fill-48" fill="#5B2D0F"></path>
                    <path d="M86.2065761,179.4593 C86.2065761,179.4593 55.4125761,80.5303 97.4425761,73.4763 C139.475576,66.4193 110.787576,155.9463 110.787576,155.9463 L155.060576,191.9983 L148.503576,205.4223 L86.2065761,179.4593 Z" id="Fill-50" fill="#FFE4DD"></path>
                    <path d="M134.894976,59.9568 L145.254976,66.2738 L146.483976,82.5928 C146.483976,82.5928 129.453976,88.9098 134.894976,59.9568" id="Fill-52" fill="#FF9A00"></path>
                    <path d="M166.017076,71.5662 L156.667076,71.5662 L141.148076,81.5242 C141.148076,81.5242 152.799076,97.8992 166.017076,71.5662" id="Fill-54" fill="#FF9A00"></path>
                    <path d="M79.7631761,137.515 L114.590176,134.707 C114.590176,134.707 110.145176,149.818 108.037176,155.785 L120.147176,166.292 L100.482176,182.084 L88.1921761,176.119 L79.7631761,137.515 Z" id="Fill-56" fill="#FF9A00"></path>
                    <path d="M140.153776,144.1824 L138.880776,149.0964 L144.552776,154.1844 L171.240776,149.1834 L168.958776,142.7794 C168.958776,142.7794 173.034776,137.3394 169.942776,128.2154 L157.912776,126.8104 C157.912776,126.8104 142.250776,146.2884 140.153776,144.1824" id="Fill-58" fill="#FF9A00"></path>
                    <path d="M245.623576,310.845 L255.908576,361.614 C255.908576,361.614 242.000576,367.293 235.679576,372.294 C233.426576,374.078 227.620576,378.487 232.914576,383.086 C235.942576,385.718 282.735576,376.857 282.735576,376.857 L288.968576,337.876 C288.968576,337.876 289.674576,338.877 288.530576,335.139 C287.385576,331.402 271.178576,296.207 245.623576,310.845" id="Fill-60" fill="#FFFFFF"></path>
                    <polygon id="Fill-62" fill="#FFFFFF" points="173.748576 358.5521 216.451576 358.5521 213.492576 381.8581 169.943576 381.8581"></polygon>
                    <polygon id="Fill-64" fill="#919191" points="216.451676 358.5521 221.313676 378.6371 213.491676 381.8581"></polygon>
                    <g id="Group-68" transform="translate(293.162828, 306.326492)">
                        <mask id="mask-4" fill="white">
                            <use xlink:href="#path-3"></use>
                        </mask>
                        <g id="Clip-67"></g>
                        <path d="M2.38944836,43.6787082 C2.40444836,47.4597082 -1.29855164,51.2157082 0.486448359,54.5497082 C1.33244836,56.1297082 3.15844836,56.9057082 4.36144836,58.2347082 C6.96744836,61.1107082 6.07444836,65.5547082 5.77044836,69.4227082 C5.72544836,70.0047082 5.70744836,70.6347082 6.03144836,71.1207082 C6.41044836,71.6957082 7.14344836,71.9037082 7.81444836,72.0537082 C17.8694484,74.3177082 28.3344484,73.5787082 38.5924484,74.5767082 C48.8194484,75.5707082 58.9394484,78.2957082 69.2024484,77.7797082 C74.4574484,77.5137082 79.6454484,76.3987082 84.9024484,76.1597082 C90.9964484,75.8807082 97.2014484,76.7747082 103.152448,75.4297082 C104.667448,75.0887082 106.281448,74.5047082 107.073448,73.1707082 C107.814448,71.9237082 107.642448,70.3587082 107.402448,68.9297082 C105.830448,59.6207082 102.358448,49.8507082 105.827448,41.0707082 C106.657448,38.9727082 107.874448,36.9827082 108.155448,34.7447082 C108.503448,31.9527082 107.345448,29.1997082 107.182448,26.3927082 C107.010448,23.4067082 107.947448,20.2557082 106.785448,17.4987082 C105.089448,13.4797082 100.015448,12.4047082 96.4424484,9.89970819 C94.2444484,8.35770819 92.5534484,6.18170819 91.2544484,3.83170819 C90.1904484,1.90770819 88.5844484,-0.532291813 86.4804484,0.102708187 C85.6304484,0.359708187 85.0204484,1.08870819 84.4954484,1.80470819 C83.3684484,3.34870819 82.4004484,5.00870819 81.6094484,6.74970819 C79.8434484,10.6407082 78.8334484,15.1337082 75.5994484,17.9267082 C74.1884484,19.1457082 72.4584484,19.9297082 70.7344484,20.6427082 C59.7684484,25.1747082 47.8774484,27.4567082 36.0124484,27.3077082 C32.3044484,27.2617082 28.4314484,27.0107082 25.0544484,28.5427082 C23.5064484,29.2437082 22.1444484,30.2877082 20.6834484,31.1547082 C15.2534484,34.3747082 10.8324484,33.2367082 5.04344836,33.5967082 C-1.22555164,33.9867082 2.37644836,39.6227082 2.38944836,43.6787082" id="Fill-66" fill="#FF9A00" mask="url(#mask-4)"></path>
                    </g>
                    <path d="M248.428176,315.5169 C248.428176,315.5169 242.818176,292.7809 241.572176,284.3709 C240.325176,275.9629 237.520176,257.5869 256.842176,257.8969 C276.164176,258.2089 302.656176,274.4049 311.694176,280.6339 C320.732176,286.8629 336.917176,306.4849 340.979176,310.2229 C345.040176,313.9599 353.317176,330.5689 353.317176,330.5689 C353.317176,330.5689 316.991176,333.5809 302.656176,326.7299 C288.319176,319.8779 277.100176,318.6309 271.179176,318.3199 C265.258176,318.0089 250.127176,322.5589 248.428176,315.5169" id="Fill-69" fill="#FFE4DD"></path>
                    <path d="M246.905776,305.9046 C246.419776,306.2046 245.950776,306.5876 245.504776,307.0776 C242.982776,309.8396 243.168776,314.2546 245.118776,317.2706 C247.102776,320.3436 250.604776,322.1806 254.184776,322.9426 C262.557776,324.7246 271.176776,323.3316 279.599776,324.6036 C286.301776,325.6166 292.103776,329.2926 297.962776,332.4546 C304.500776,335.9806 311.447776,336.9166 318.811776,336.9026 C325.918776,336.8886 333.097776,336.2606 340.082776,337.5796 C343.094776,338.1476 346.105776,339.0796 349.161776,338.8246 C353.238776,338.4836 357.348776,334.6156 356.702776,330.3396 C355.575776,322.9006 343.269776,321.4126 337.484776,320.9776 C331.431776,320.5236 325.517776,319.6866 319.583776,318.3646 C306.862776,315.5286 294.560776,311.1566 282.104776,307.3826 C275.854776,305.4886 268.702776,303.1866 262.079776,303.9316 C257.908776,304.4016 250.499776,303.6946 246.905776,305.9046" id="Fill-71" fill="#FFE4DD"></path>
                    <path d="M358.041476,329.8372 C362.465476,331.7982 368.970476,333.1212 371.154476,328.9722 C371.941476,327.4782 371.411476,325.6142 370.528476,324.1752 C368.566476,320.9792 365.146476,319.0222 362.416476,316.4492 C360.651476,314.7882 359.165476,312.8562 357.713476,310.9122 C351.661476,302.8122 346.051476,294.3392 339.207476,286.8942 C332.363476,279.4472 324.093476,272.9722 314.412476,270.0352 C311.763476,269.2332 308.541476,268.8262 306.532476,270.7292 C303.193476,273.8922 305.301476,280.1132 307.097476,283.4952 C309.774476,288.5382 314.001476,292.4952 317.410476,297.0152 C319.731476,300.0932 321.650476,303.4732 323.105476,307.0412 C327.168476,317.0092 336.563476,313.5352 344.259476,318.2832 C348.468476,320.8822 350.967476,325.3432 354.964476,328.1502 C355.734476,328.6922 356.808476,329.2882 358.041476,329.8372" id="Fill-73" fill="#FFE4DD"></path>
                    <path d="M327.139176,212.4056 L327.139176,212.4056 C329.445176,211.8766 331.664176,210.3696 333.278176,209.0296 C334.873176,207.7046 335.555176,205.5786 335.091176,203.5586 L326.402176,166.6096 L310.222176,170.3186 L318.804176,206.8036 C319.768176,210.9986 323.442176,213.2536 327.139176,212.4056" id="Fill-75" fill="#F5C7A3"></path>
                    <path d="M295.914576,173.6009 C298.443576,184.6179 309.431576,191.4959 320.452576,188.9689 C331.475576,186.4399 338.360576,175.4619 335.831576,164.4469 C333.301576,153.4319 322.314576,146.5519 311.294576,149.0789 C300.270576,151.6059 293.386576,162.5849 295.914576,173.6009" id="Fill-77" fill="#F5C7A3"></path>
                    <path d="M314.985876,196.9935 L314.985876,196.9935 C320.217876,195.7935 323.487876,190.5805 322.284876,185.3505 L319.152876,171.7015 L295.914876,173.6005 L298.984876,186.9735 C300.634876,194.1565 307.798876,198.6395 314.985876,196.9935" id="Fill-79" fill="#F5C7A3"></path>
                    <path d="M297.520976,177.9232 L294.636976,185.3402 C294.257976,186.5282 295.354976,187.6302 296.626976,187.3382 L301.898976,187.1332 L297.520976,177.9232 Z" id="Fill-81" fill="#F5C7A3"></path>
                    <path d="M317.275876,177.9695 L312.778876,178.0845 L310.221876,170.3185 C310.221876,170.3185 292.320876,175.4875 288.654876,167.1405 C288.654876,167.1405 296.121876,136.9595 322.848876,145.5945 C342.674876,152.0025 339.452876,173.3555 334.030876,181.7385 C332.224876,184.5295 331.608876,187.9635 332.221876,191.2305 C332.296876,191.6265 332.382876,192.0405 332.485876,192.4725 L323.244876,176.3335 L317.275876,177.9695 Z" id="Fill-83" fill="#5B2D0F"></path>
                    <path d="M322.298376,168.8817 C319.327376,167.9697 316.177376,169.6377 315.266376,172.6057 C314.354376,175.5747 316.021376,178.7207 318.992376,179.6327 C321.963376,180.5437 325.111376,178.8767 326.024376,175.9097 C326.935376,172.9407 325.268376,169.7927 322.298376,168.8817" id="Fill-85" fill="#F5C7A3"></path>
                    <path d="M316.086376,184.1414 C317.238376,186.1144 319.774376,186.7814 321.749376,185.6284 C323.725376,184.4754 324.391376,181.9414 323.236376,179.9674 C322.084376,177.9944 319.549376,177.3274 317.573376,178.4804 C315.598376,179.6334 314.933376,182.1674 316.086376,184.1414" id="Fill-87" fill="#FF9A00"></path>
                    <path d="M302.831576,250.6033 C299.440576,245.9903 297.603576,240.9973 300.475576,236.4083 C303.591576,231.4233 312.005576,211.1793 312.005576,211.1793 L308.576576,204.9503 L343.170576,177.8533 C343.948576,181.4523 344.039576,187.7943 346.779576,190.3613 C356.886576,199.8323 366.149576,211.1023 372.314576,223.5703 C378.451576,235.9803 380.270576,250.0813 380.602576,263.7713 C380.870576,274.8063 380.238576,285.8633 378.722576,296.7983 C377.563576,305.1373 376.809576,316.4553 370.283576,322.6813 C363.369576,329.2773 338.298576,289.5933 334.943576,284.5413 C333.787576,282.7993 332.789576,280.5213 331.327576,279.0773 C326.269576,274.0783 321.213576,269.0793 316.155576,264.0793 C313.027576,260.9873 306.844576,256.0623 302.831576,250.6033" id="Fill-89" fill="#FFE4DD"></path>
                    <path d="M305.894076,260.9691 C305.894076,260.9691 309.946076,201.7951 335.501076,211.4501 C361.056076,221.1061 345.474076,281.2171 326.152076,288.6921 C306.830076,296.1671 285.949076,281.5271 281.586076,270.9391 C277.222076,260.3491 289.376076,258.9291 289.376076,258.9291 L305.894076,260.9691 Z" id="Fill-91" fill="#FFFFFF"></path>
                    <path d="M274.308076,320.095 C264.618076,317.65 254.854076,314.602 244.872076,315.086 C244.559076,315.102 244.224076,315.128 243.975076,315.32 C243.371076,315.783 243.705076,316.724 243.955076,317.442 C244.996076,320.426 243.514076,323.663 241.894076,326.38 C240.277076,329.096 238.413076,331.972 238.663076,335.122 C248.188076,336.09 257.739076,337.062 267.078076,339.165 C274.658076,340.873 282.121076,343.328 289.870076,343.907 C298.342076,344.541 306.797076,342.907 315.258076,342.129 C323.956076,341.329 332.739076,341.438 341.413076,342.451 C343.862076,342.739 346.942076,342.792 348.097076,340.616 C349.070076,338.783 347.924076,336.508 346.425076,335.074 C344.936076,333.648 342.985076,331.439 341.098076,330.671 C338.519076,329.62 334.491076,329.918 331.730076,329.604 C325.258076,328.866 318.792076,328.089 312.340076,327.201 C299.559076,325.443 286.823076,323.253 274.308076,320.095" id="Fill-93" fill="#FFFFFF"></path>
                    <path d="M294.561076,148.4515 C294.561076,148.4515 304.472076,132.1625 323.803076,140.4975 C343.134076,148.8325 346.631076,165.2865 343.170076,177.8535 C339.709076,190.4195 328.912076,196.6485 328.912076,196.6485 C328.912076,196.6485 323.946076,154.6505 294.561076,148.4515" id="Fill-95" fill="#FFE4DD"></path>
                </g>
            </g>
        </g>
    </g>
</svg>