<?xml version="1.0" encoding="UTF-8"?>
<svg width="448px" height="386px" viewBox="0 0 448 386" version="1.1" xmlns="http://www.w3.org/2000/svg" xmlns:xlink="http://www.w3.org/1999/xlink">
    <title>Group 100</title>
    <defs>
        <polygon id="path-1" points="0.349946816 0.83 57.2616618 0.83 57.2616618 57.7063987 0.349946816 57.7063987"></polygon>
        <polygon id="path-3" points="0.550251641 0.156491813 108.770562 0.156491813 108.770562 78 0.550251641 78"></polygon>
    </defs>
    <g id="Page-1" stroke="none" stroke-width="1" fill="none" fill-rule="evenodd">
        <g id="NOS-PARTENAIRES-REDISTRIBUTEURS" transform="translate(-1073.000000, -296.000000)">
            <g id="Group-100" transform="translate(1073.000000, 296.000000)">
                <g id="Group-5" transform="translate(0.000000, 348.170000)" fill="#000000" opacity="0.126162574">
                    <path d="M0.0002,16.9504 C0.0002,25.9054 46.0182,33.1654 102.7832,33.1654 C159.5482,33.1654 205.5652,25.9054 205.5652,16.9504 C205.5652,7.9954 159.5482,0.7354 102.7832,0.7354 C46.0182,0.7354 0.0002,7.9954 0.0002,16.9504" id="Fill-1"></path>
                    <path d="M241.9846,16.9504 C241.9846,25.9054 288.0026,33.1654 344.7676,33.1654 C401.5326,33.1654 447.5496,25.9054 447.5496,16.9504 C447.5496,7.9954 401.5326,0.7354 344.7676,0.7354 C288.0026,0.7354 241.9846,7.9954 241.9846,16.9504" id="Fill-3"></path>
                </g>
                <polygon id="Fill-6" fill="#5B2D0F" points="84.2834 345.6341 85.1034 363.9751 98.0124 362.1801 97.0964 344.1521"></polygon>
                <g id="Group-99" transform="translate(3.000000, 0.170000)">
                    <path d="M79.4817,359.6828 C79.8337,358.7288 80.8827,358.4008 81.5737,359.0488 C82.9277,360.3188 85.3737,361.8808 89.0627,361.6118 C92.8917,361.3288 94.3897,359.1188 94.9757,357.5208 C95.2827,356.6788 96.1147,356.2688 96.8267,356.6508 L119.6867,368.9048 C121.0767,369.6478 122.1367,370.9968 122.6417,372.6538 C123.1137,374.2108 122.0377,375.8408 120.5887,375.7628 L80.5857,373.5958 C79.0097,373.5118 77.8437,371.9368 78.0267,370.1438 L78.9257,361.3468 C78.9397,361.2028 78.9747,361.0588 79.0227,360.9238 L79.4817,359.6828 Z" id="Fill-7" fill="#FF9CA8"></path>
                    <polygon id="Fill-9" fill="#5B2D0F" points="7.9631 348.2922 3.3841 366.4112 16.2061 366.4262 21.6851 347.5102"></polygon>
                    <path d="M1.8625,362.5578 C2.2135,361.6048 3.2615,361.2748 3.9525,361.9218 C5.3075,363.1938 7.7555,364.7558 11.4425,364.4858 C15.2715,364.2038 16.7695,361.9938 17.3545,360.3958 C17.6635,359.5548 18.4935,359.1438 19.2065,359.5258 L42.0675,371.7778 C43.4545,372.5228 44.5185,373.8728 45.0205,375.5288 C45.4935,377.0848 44.4175,378.7158 42.9685,378.6378 L2.9665,376.4718 C1.3915,376.3858 0.2225,374.8108 0.4065,373.0198 L1.3065,364.2228 C1.3205,364.0768 1.3555,363.9348 1.4035,363.7978 L1.8625,362.5578 Z" id="Fill-11" fill="#FF9CA8"></path>
                    <polygon id="Fill-13" fill="#E9364B" points="91.341 149.6003 100.319 237.5343 98.218 350.5963 75.278 349.1603 76.223 237.4553 63.332 149.2813"></polygon>
                    <polygon id="Fill-15" fill="#E9364B" points="40.0158 149.0183 34.9228 234.9123 3.7218 354.0723 24.1538 355.3503 61.5518 237.6473 80.0378 149.6803"></polygon>
                    <path d="M179.549,228.1228 C178.038,225.4228 174.426,212.8638 174.426,212.8638 C174.426,212.8638 173.03,208.3298 173.375,205.8168 C173.718,203.3018 173.363,200.1678 171.765,199.0588 C170.165,197.9478 167.859,197.1638 164.886,197.8718 C161.914,198.5788 160.209,200.3178 159.281,202.0288 C158.355,203.7408 159.451,206.6958 160.892,208.7868 C162.33,210.8768 163.131,215.5508 163.131,215.5508 C163.131,215.5508 165.568,228.3898 165.438,231.4798 C165.309,234.5318 168.398,239.1828 174.085,237.9698 L174.087,237.9758 C174.125,237.9668 174.161,237.9558 174.198,237.9458 C174.236,237.9368 174.272,237.9308 174.31,237.9228 L174.309,237.9158 C179.945,236.4358 181.04,230.7888 179.549,228.1228" id="Fill-17" fill="#C5E2E0"></path>
                    <path d="M178.6438,228.0007 C177.1318,225.3007 173.5188,212.7417 173.5188,212.7417 C173.5188,212.7417 172.1248,208.2087 172.4688,205.6947 C172.8118,203.1807 172.4568,200.0467 170.8588,198.9377 C169.2588,197.8267 166.9518,197.0417 163.9798,197.7487 C161.0078,198.4567 159.3028,200.1957 158.3748,201.9077 C157.4488,203.6197 158.5448,206.5747 159.9858,208.6647 C161.4248,210.7537 162.2248,215.4297 162.2248,215.4297 C162.2248,215.4297 164.6628,228.2677 164.5308,231.3577 C164.4028,234.4107 167.4918,239.0617 173.1788,237.8477 L173.1808,237.8527 C173.2198,237.8457 173.2548,237.8337 173.2928,237.8247 C173.3298,237.8147 173.3668,237.8097 173.4038,237.8017 L173.4028,237.7947 C179.0398,236.3137 180.1338,230.6667 178.6438,228.0007" id="Fill-19" fill="#FFFFFF"></path>
                    <polygon id="Fill-21" fill="#E7364B" points="175.9475 231.8962 168.6355 233.6352 161.5065 203.7102 168.8175 201.9702"></polygon>
                    <path d="M190.0285,194.7429 C189.5175,194.2829 186.9085,195.0739 186.9085,195.0739 C186.9085,195.0739 186.4805,194.6779 185.7375,194.1739 C184.9935,193.6679 182.6275,194.5789 181.6315,194.7459 C180.6355,194.9119 180.8615,193.7559 176.8655,191.4149 C172.8705,189.0749 167.8565,194.8079 167.8565,194.8079 C167.8565,194.8079 163.5945,201.1229 166.8825,204.3819 C170.1705,207.6419 171.2325,207.1289 171.3265,208.1319 C171.4365,209.3239 171.1455,210.6889 171.6425,211.8389 C171.7595,212.1119 171.9165,212.3599 172.1285,212.5699 C172.3305,212.7689 172.8615,212.9229 172.9835,213.1409 C173.1315,213.4049 172.9615,214.1299 172.9735,214.4389 C172.9915,214.8899 173.0355,215.3479 173.2025,215.7699 C173.4685,216.4389 174.2155,216.9299 174.7355,217.4189 C175.4605,218.0989 176.1955,218.7659 176.9605,219.4009 C177.6735,219.9919 178.3635,220.5509 179.3135,220.3909 C180.0185,220.2729 180.7175,220.1049 181.4175,219.9519 C181.4175,219.9519 182.2015,221.3549 183.5665,221.1389 C184.9315,220.9249 186.0765,219.8719 187.3025,220.6149 C188.5295,221.3589 190.0885,224.3549 193.2405,223.9819 C196.3915,223.6099 199.3135,222.3249 200.7575,220.1059 C202.5335,218.1429 203.0265,214.9919 202.5795,211.8509 C202.1315,208.7109 198.8345,207.9729 197.8015,206.9789 C196.7665,205.9839 197.4915,204.6099 197.3505,203.2359 C197.2085,201.8649 195.6545,201.4639 195.6505,201.4629 C195.5325,201.4329 195.5415,198.9799 195.4225,198.7049 C195.2925,198.4029 195.0465,198.1679 194.7975,197.9519 C193.3475,196.6949 191.4355,196.0079 190.0285,194.7429" id="Fill-23" fill="#C5E2E0"></path>
                    <path d="M188.8059,194.6013 C188.2939,194.1413 185.6859,194.9333 185.6859,194.9333 C185.6859,194.9333 185.2579,194.5373 184.5139,194.0313 C183.7699,193.5263 181.4029,194.4363 180.4079,194.6043 C179.4129,194.7713 179.6389,193.6133 175.6429,191.2733 C171.6469,188.9333 166.6319,194.6663 166.6319,194.6663 C166.6319,194.6663 162.3719,200.9813 165.6589,204.2413 C168.9459,207.5003 170.0079,206.9863 170.1029,207.9903 C170.2139,209.1823 169.9219,210.5473 170.4179,211.6973 C170.5359,211.9693 170.6939,212.2183 170.9059,212.4283 C171.1079,212.6273 171.6379,212.7813 171.7589,212.9993 C171.9069,213.2623 171.7389,213.9883 171.7499,214.2983 C171.7669,214.7473 171.8109,215.2053 171.9789,215.6283 C172.2459,216.2973 172.9929,216.7883 173.5119,217.2773 C174.2379,217.9563 174.9719,218.6243 175.7369,219.2593 C176.4489,219.8503 177.1399,220.4103 178.0899,220.2483 C178.7939,220.1313 179.4949,219.9623 180.1929,219.8093 C180.1929,219.8093 180.9789,221.2133 182.3439,220.9973 C183.7089,220.7833 184.8519,219.7293 186.0789,220.4733 C187.3059,221.2173 188.8649,224.2143 192.0169,223.8403 C195.1689,223.4673 198.0899,222.1833 199.5329,219.9633 C201.3099,218.0013 201.8029,214.8503 201.3559,211.7093 C200.9089,208.5693 197.6109,207.8303 196.5769,206.8373 C195.5439,205.8433 196.2689,204.4683 196.1259,203.0943 C195.9859,201.7223 194.4299,201.3223 194.4269,201.3213 C194.3089,201.2903 194.3169,198.8373 194.1989,198.5623 C194.0689,198.2623 193.8229,198.0263 193.5729,197.8103 C192.1239,196.5543 190.2119,195.8653 188.8059,194.6013" id="Fill-25" fill="#FFFFFF"></path>
                    <path d="M189.5754,205.4377 C187.3244,204.1767 185.0294,202.6317 182.9684,201.0337 C181.8914,200.1997 180.8654,199.2977 179.9514,198.2867 C179.0894,197.3337 178.4804,196.1487 177.5244,195.2887 C175.8804,193.8147 173.7984,192.3417 171.5704,193.3717 C170.2764,193.9687 169.3774,195.0257 168.4954,196.1007 C167.7784,196.9757 165.0834,200.6127 167.6754,203.0717 C168.9074,204.2397 170.1524,205.2017 171.7414,205.8397 C174.7574,207.0497 177.2274,209.0847 179.6844,211.1637 C181.7314,212.8937 183.6984,214.7187 185.5784,216.6287 C187.6904,218.7757 189.9524,221.4277 193.1944,221.6017 C194.0004,221.6457 194.8314,221.4877 195.5154,221.0597 C196.4484,220.4737 196.9034,219.4917 197.0564,218.4337 C199.8764,217.0867 200.0784,213.1337 198.0574,210.9947 C196.5234,209.3717 194.2864,208.2217 192.3904,207.0817 C191.4604,206.5207 190.5234,205.9697 189.5754,205.4377" id="Fill-27" fill="#E7364B"></path>
                    <path d="M148.9748,203.6086 C148.9748,198.3686 153.2248,194.1216 158.4678,194.1216 C163.7098,194.1216 167.9598,198.3686 167.9598,203.6086 C167.9598,208.8486 163.7098,213.0956 158.4678,213.0956 C153.2248,213.0956 148.9748,208.8486 148.9748,203.6086" id="Fill-29" fill="#5B2D0F"></path>
                    <path d="M162.1369,190.7117 C162.1369,185.4717 166.3859,181.2247 171.6279,181.2247 C176.8699,181.2247 181.1209,185.4717 181.1209,190.7117 C181.1209,195.9517 176.8699,200.1987 171.6279,200.1987 C166.3859,200.1987 162.1369,195.9517 162.1369,190.7117" id="Fill-31" fill="#5B2D0F"></path>
                    <path d="M161.0695,87.0866 C138.9735,87.0866 137.4975,151.1676 137.4975,151.1676 L162.6045,185.9856 L176.0075,182.9146 L171.9115,145.4516 C171.9115,145.4516 183.1665,87.0866 161.0695,87.0866" id="Fill-33" fill="#EFB784"></path>
                    <path d="M39.4162,138.345 L20.8052,196.952 C20.8052,196.952 33.3922,209.03 65.7402,216.775 C86.2592,221.689 114.9782,219.412 114.9782,219.412 L113.0722,178.879 C113.0722,178.879 60.1352,139.398 39.4162,138.345" id="Fill-35" fill="#EFB784"></path>
                    <path d="M112.0256,169.1267 L139.2666,144.1357 C139.2666,144.1357 191.4266,103.3297 160.5666,79.2107 C124.3966,50.9447 93.0136,69.6977 93.0136,69.6977 C93.0136,69.6977 58.3786,90.6177 39.4166,138.3457 C39.4166,138.3457 84.7146,184.3187 100.8696,182.9147 C117.0226,181.5107 112.0256,169.1267 112.0256,169.1267" id="Fill-37" fill="#FF800D"></path>
                    <g id="Group-41" transform="translate(134.000000, 0.000000)">
                        <mask id="mask-2" fill="white">
                            <use xlink:href="#path-1"></use>
                        </mask>
                        <g id="Clip-40"></g>
                        <path d="M56.2522,36.7483 C52.1182,51.8973 36.4792,60.8293 21.3202,56.6973 C6.1612,52.5663 -2.7738,36.9363 1.3592,21.7873 C5.4922,6.6383 21.1322,-2.2937 36.2912,1.8393 C51.4482,5.9703 60.3862,21.5993 56.2522,36.7483" id="Fill-39" fill="#9E223E" mask="url(#mask-2)"></path>
                    </g>
                    <path d="M146.0256,81.2829 L146.0256,81.2829 C140.2656,79.5909 136.9666,73.5529 138.6606,67.7949 L143.6156,50.9459 L164.4746,57.0699 L159.5206,73.9209 C157.8286,79.6789 151.7866,82.9729 146.0256,81.2829" id="Fill-42" fill="#5B2D0F"></path>
                    <path d="M153.2424,64.9577 L151.4044,64.3657 C142.2064,61.4047 137.1524,51.5547 140.1144,42.3607 L143.4884,31.8887 C146.4504,22.6967 156.3074,17.6447 165.5064,20.6037 L167.3454,21.1957 C176.5414,24.1557 181.5974,34.0087 178.6364,43.2017 L175.2604,53.6717 C172.2984,62.8657 162.4394,67.9167 153.2424,64.9577" id="Fill-44" fill="#5B2D0F"></path>
                    <path d="M145.635,47.2995 C146.011,48.0775 146.334,49.2445 146.322,50.9475 C146.308,53.1175 147.226,55.2705 148.929,56.6155 C153.846,60.4925 158.562,52.1065 166.122,54.2965 C166.122,54.2965 169.088,55.0085 169.41,58.4035 C169.734,61.7975 174.411,56.3105 175.675,52.3915 C176.938,48.4735 175.407,72.2685 156.615,68.6545 C156.615,68.6545 147.084,67.5445 141.459,57.2515 C140.84,56.1185 140.532,54.8315 140.603,53.5435 C140.708,51.6275 141.226,48.7715 143.21,46.8615 C143.937,46.1635 145.195,46.3935 145.635,47.2995" id="Fill-46" fill="#9E223E"></path>
                    <path d="M146.0715,41.9157 C145.0135,45.1967 141.4965,46.9987 138.2125,45.9417 C134.9285,44.8867 133.1265,41.3697 134.1805,38.0887 C135.2385,34.8087 138.7595,33.0047 142.0425,34.0617 C145.3245,35.1177 147.1295,38.6347 146.0715,41.9157" id="Fill-48" fill="#5B2D0F"></path>
                    <path d="M86.594,180.2893 C86.594,180.2893 55.8,81.3603 97.83,74.3063 C139.863,67.2493 111.175,156.7763 111.175,156.7763 L155.448,192.8283 L148.891,206.2523 L86.594,180.2893 Z" id="Fill-50" fill="#EFB784"></path>
                    <path d="M135.2824,60.7868 L145.6424,67.1038 L146.8714,83.4228 C146.8714,83.4228 129.8414,89.7398 135.2824,60.7868" id="Fill-52" fill="#FF800D"></path>
                    <path d="M166.4045,72.3962 L157.0545,72.3962 L141.5355,82.3542 C141.5355,82.3542 153.1865,98.7292 166.4045,72.3962" id="Fill-54" fill="#FF800D"></path>
                    <path d="M80.1506,138.345 L114.9776,135.537 C114.9776,135.537 110.5326,150.648 108.4246,156.615 L120.5346,167.122 L100.8696,182.914 L88.5796,176.949 L80.1506,138.345 Z" id="Fill-56" fill="#FF800D"></path>
                    <path d="M140.5412,145.0124 L139.2682,149.9264 L144.9402,155.0144 L171.6282,150.0134 L169.3462,143.6094 C169.3462,143.6094 173.4222,138.1694 170.3302,129.0454 L158.3002,127.6404 C158.3002,127.6404 142.6382,147.1184 140.5412,145.0124" id="Fill-58" fill="#FF800D"></path>
                    <path d="M246.011,311.675 L256.296,362.444 C256.296,362.444 242.388,368.123 236.067,373.124 C233.814,374.908 228.008,379.317 233.302,383.916 C236.33,386.548 283.123,377.687 283.123,377.687 L289.356,338.706 C289.356,338.706 290.062,339.707 288.918,335.969 C287.773,332.232 271.566,297.037 246.011,311.675" id="Fill-60" fill="#FF9CA8"></path>
                    <polygon id="Fill-62" fill="#E9364B" points="174.136 359.3821 216.839 359.3821 213.88 382.6881 170.331 382.6881"></polygon>
                    <polygon id="Fill-64" fill="#919191" points="216.8391 359.3821 221.7011 379.4671 213.8791 382.6881"></polygon>
                    <g id="Group-68" transform="translate(293.000000, 307.000000)">
                        <mask id="mask-4" fill="white">
                            <use xlink:href="#path-3"></use>
                        </mask>
                        <g id="Clip-67"></g>
                        <path d="M2.9397,43.8352 C2.9547,47.6162 -0.7483,51.3722 1.0367,54.7062 C1.8827,56.2862 3.7087,57.0622 4.9117,58.3912 C7.5177,61.2672 6.6247,65.7112 6.3207,69.5792 C6.2757,70.1612 6.2577,70.7912 6.5817,71.2772 C6.9607,71.8522 7.6937,72.0602 8.3647,72.2102 C18.4197,74.4742 28.8847,73.7352 39.1427,74.7332 C49.3697,75.7272 59.4897,78.4522 69.7527,77.9362 C75.0077,77.6702 80.1957,76.5552 85.4527,76.3162 C91.5467,76.0372 97.7517,76.9312 103.7027,75.5862 C105.2177,75.2452 106.8317,74.6612 107.6237,73.3272 C108.3647,72.0802 108.1927,70.5152 107.9527,69.0862 C106.3807,59.7772 102.9087,50.0072 106.3777,41.2272 C107.2077,39.1292 108.4247,37.1392 108.7057,34.9012 C109.0537,32.1092 107.8957,29.3562 107.7327,26.5492 C107.5607,23.5632 108.4977,20.4122 107.3357,17.6552 C105.6397,13.6362 100.5657,12.5612 96.9927,10.0562 C94.7947,8.5142 93.1037,6.3382 91.8047,3.9882 C90.7407,2.0642 89.1347,-0.3758 87.0307,0.2592 C86.1807,0.5162 85.5707,1.2452 85.0457,1.9612 C83.9187,3.5052 82.9507,5.1652 82.1597,6.9062 C80.3937,10.7972 79.3837,15.2902 76.1497,18.0832 C74.7387,19.3022 73.0087,20.0862 71.2847,20.7992 C60.3187,25.3312 48.4277,27.6132 36.5627,27.4642 C32.8547,27.4182 28.9817,27.1672 25.6047,28.6992 C24.0567,29.4002 22.6947,30.4442 21.2337,31.3112 C15.8037,34.5312 11.3827,33.3932 5.5937,33.7532 C-0.6753,34.1432 2.9267,39.7792 2.9397,43.8352" id="Fill-66" fill="#9E223E" mask="url(#mask-4)"></path>
                    </g>
                    <path d="M248.8156,316.3469 C248.8156,316.3469 243.2056,293.6109 241.9596,285.2009 C240.7126,276.7929 237.9076,258.4169 257.2296,258.7269 C276.5516,259.0389 303.0436,275.2349 312.0816,281.4639 C321.1196,287.6929 337.3046,307.3149 341.3666,311.0529 C345.4276,314.7899 353.7046,331.3989 353.7046,331.3989 C353.7046,331.3989 317.3786,334.4109 303.0436,327.5599 C288.7066,320.7079 277.4876,319.4609 271.5666,319.1499 C265.6456,318.8389 250.5146,323.3889 248.8156,316.3469" id="Fill-69" fill="#E9364B"></path>
                    <path d="M247.2932,306.7346 C246.8072,307.0346 246.3382,307.4176 245.8922,307.9076 C243.3702,310.6696 243.5562,315.0846 245.5062,318.1006 C247.4902,321.1736 250.9922,323.0106 254.5722,323.7726 C262.9452,325.5546 271.5642,324.1616 279.9872,325.4336 C286.6892,326.4466 292.4912,330.1226 298.3502,333.2846 C304.8882,336.8106 311.8352,337.7466 319.1992,337.7326 C326.3062,337.7186 333.4852,337.0906 340.4702,338.4096 C343.4822,338.9776 346.4932,339.9096 349.5492,339.6546 C353.6262,339.3136 357.7362,335.4456 357.0902,331.1696 C355.9632,323.7306 343.6572,322.2426 337.8722,321.8076 C331.8192,321.3536 325.9052,320.5166 319.9712,319.1946 C307.2502,316.3586 294.9482,311.9866 282.4922,308.2126 C276.2422,306.3186 269.0902,304.0166 262.4672,304.7616 C258.2962,305.2316 250.8872,304.5246 247.2932,306.7346" id="Fill-71" fill="#FF9CA8"></path>
                    <path d="M358.4289,330.6672 C362.8529,332.6282 369.3579,333.9512 371.5419,329.8022 C372.3289,328.3082 371.7989,326.4442 370.9159,325.0052 C368.9539,321.8092 365.5339,319.8522 362.8039,317.2792 C361.0389,315.6182 359.5529,313.6862 358.1009,311.7422 C352.0489,303.6422 346.4389,295.1692 339.5949,287.7242 C332.7509,280.2772 324.4809,273.8022 314.7999,270.8652 C312.1509,270.0632 308.9289,269.6562 306.9199,271.5592 C303.5809,274.7222 305.6889,280.9432 307.4849,284.3252 C310.1619,289.3682 314.3889,293.3252 317.7979,297.8452 C320.1189,300.9232 322.0379,304.3032 323.4929,307.8712 C327.5559,317.8392 336.9509,314.3652 344.6469,319.1132 C348.8559,321.7122 351.3549,326.1732 355.3519,328.9802 C356.1219,329.5222 357.1959,330.1182 358.4289,330.6672" id="Fill-73" fill="#FF9CA8"></path>
                    <path d="M327.5266,213.2356 L327.5266,213.2356 C329.8326,212.7066 332.0516,211.1996 333.6656,209.8596 C335.2606,208.5346 335.9426,206.4086 335.4786,204.3886 L326.7896,167.4396 L310.6096,171.1486 L319.1916,207.6336 C320.1556,211.8286 323.8296,214.0836 327.5266,213.2356" id="Fill-75" fill="#F5C7A3"></path>
                    <path d="M296.302,174.4309 C298.831,185.4479 309.819,192.3259 320.84,189.7989 C331.863,187.2699 338.748,176.2919 336.219,165.2769 C333.689,154.2619 322.702,147.3819 311.682,149.9089 C300.658,152.4359 293.774,163.4149 296.302,174.4309" id="Fill-77" fill="#F5C7A3"></path>
                    <path d="M315.3733,197.8235 L315.3733,197.8235 C320.6053,196.6235 323.8753,191.4105 322.6723,186.1805 L319.5403,172.5315 L296.3023,174.4305 L299.3723,187.8035 C301.0223,194.9865 308.1863,199.4695 315.3733,197.8235" id="Fill-79" fill="#F5C7A3"></path>
                    <path d="M297.9084,178.7532 L295.0244,186.1702 C294.6454,187.3582 295.7424,188.4602 297.0144,188.1682 L302.2864,187.9632 L297.9084,178.7532 Z" id="Fill-81" fill="#F5C7A3"></path>
                    <path d="M317.6633,178.7995 L313.1663,178.9145 L310.6093,171.1485 C310.6093,171.1485 292.7083,176.3175 289.0423,167.9705 C289.0423,167.9705 296.5093,137.7895 323.2363,146.4245 C343.0623,152.8325 339.8403,174.1855 334.4183,182.5685 C332.6123,185.3595 331.9963,188.7935 332.6093,192.0605 C332.6843,192.4565 332.7703,192.8705 332.8733,193.3025 L323.6323,177.1635 L317.6633,178.7995 Z" id="Fill-83" fill="#5B2D0F"></path>
                    <path d="M322.6858,169.7117 C319.7148,168.7997 316.5648,170.4677 315.6538,173.4357 C314.7418,176.4047 316.4088,179.5507 319.3798,180.4627 C322.3508,181.3737 325.4988,179.7067 326.4118,176.7397 C327.3228,173.7707 325.6558,170.6227 322.6858,169.7117" id="Fill-85" fill="#F5C7A3"></path>
                    <path d="M316.4738,184.9714 C317.6258,186.9444 320.1618,187.6114 322.1368,186.4584 C324.1128,185.3054 324.7788,182.7714 323.6238,180.7974 C322.4718,178.8244 319.9368,178.1574 317.9608,179.3104 C315.9858,180.4634 315.3208,182.9974 316.4738,184.9714" id="Fill-87" fill="#E7364B"></path>
                    <path d="M303.219,251.4333 C299.828,246.8203 297.991,241.8273 300.863,237.2383 C303.979,232.2533 312.393,212.0093 312.393,212.0093 L308.964,205.7803 L343.558,178.6833 C344.336,182.2823 344.427,188.6243 347.167,191.1913 C357.274,200.6623 366.537,211.9323 372.702,224.4003 C378.839,236.8103 380.658,250.9113 380.99,264.6013 C381.258,275.6363 380.626,286.6933 379.11,297.6283 C377.951,305.9673 377.197,317.2853 370.671,323.5113 C363.757,330.1073 338.686,290.4233 335.331,285.3713 C334.175,283.6293 333.177,281.3513 331.715,279.9073 C326.657,274.9083 321.601,269.9093 316.543,264.9093 C313.415,261.8173 307.232,256.8923 303.219,251.4333" id="Fill-89" fill="#FF9CA8"></path>
                    <path d="M306.2815,261.7991 C306.2815,261.7991 310.3335,202.6251 335.8885,212.2801 C361.4435,221.9361 345.8615,282.0471 326.5395,289.5221 C307.2175,296.9971 286.3365,282.3571 281.9735,271.7691 C277.6095,261.1791 289.7635,259.7591 289.7635,259.7591 L306.2815,261.7991 Z" id="Fill-91" fill="#FFFFFF"></path>
                    <path d="M274.6955,320.925 C265.0055,318.48 255.2415,315.432 245.2595,315.916 C244.9465,315.932 244.6115,315.958 244.3625,316.15 C243.7585,316.613 244.0925,317.554 244.3425,318.272 C245.3835,321.256 243.9015,324.493 242.2815,327.21 C240.6645,329.926 238.8005,332.802 239.0505,335.952 C248.5755,336.92 258.1265,337.892 267.4655,339.995 C275.0455,341.703 282.5085,344.158 290.2575,344.737 C298.7295,345.371 307.1845,343.737 315.6455,342.959 C324.3435,342.159 333.1265,342.268 341.8005,343.281 C344.2495,343.569 347.3295,343.622 348.4845,341.446 C349.4575,339.613 348.3115,337.338 346.8125,335.904 C345.3235,334.478 343.3725,332.269 341.4855,331.501 C338.9065,330.45 334.8785,330.748 332.1175,330.434 C325.6455,329.696 319.1795,328.919 312.7275,328.031 C299.9465,326.273 287.2105,324.083 274.6955,320.925" id="Fill-93" fill="#E9364B"></path>
                    <path d="M294.9485,149.2815 C294.9485,149.2815 304.8595,132.9925 324.1905,141.3275 C343.5215,149.6625 347.0185,166.1165 343.5575,178.6835 C340.0965,191.2495 329.2995,197.4785 329.2995,197.4785 C329.2995,197.4785 324.3335,155.4805 294.9485,149.2815" id="Fill-95" fill="#FF9CA8"></path>
                </g>
            </g>
        </g>
    </g>
</svg>