<?xml version="1.0" encoding="UTF-8"?>
<svg width="157px" height="157px" viewBox="0 0 157 157" version="1.1" xmlns="http://www.w3.org/2000/svg" xmlns:xlink="http://www.w3.org/1999/xlink">
    <title>Group 102</title>
    <defs>
        <path d="M0,76.879 C0,119.129 34.25,153.379 76.5,153.379 L76.5,153.379 C118.749,153.379 153,119.129 153,76.879 L153,76.879 C153,34.63 118.749,0.379 76.5,0.379 L76.5,0.379 C34.25,0.379 0,34.63 0,76.879 L0,76.879 Z" id="path-1"></path>
        <path d="M0,76.879 C0,119.129 34.25,153.379 76.5,153.379 L76.5,153.379 C118.749,153.379 153,119.129 153,76.879 L153,76.879 C153,34.63 118.749,0.379 76.5,0.379 L76.5,0.379 C34.25,0.379 0,34.63 0,76.879" id="path-3"></path>
        <path d="M0,76.879 C0,119.129 34.25,153.379 76.5,153.379 L76.5,153.379 C118.749,153.379 153,119.129 153,76.879 L153,76.879 C153,34.63 118.749,0.379 76.5,0.379 L76.5,0.379 C34.25,0.379 0,34.63 0,76.879" id="path-5"></path>
        <path d="M0,76.879 C0,119.129 34.25,153.379 76.5,153.379 L76.5,153.379 C118.749,153.379 153,119.129 153,76.879 L153,76.879 C153,34.63 118.749,0.379 76.5,0.379 L76.5,0.379 C34.25,0.379 0,34.63 0,76.879" id="path-7"></path>
        <path d="M0,76.879 C0,119.129 34.25,153.379 76.5,153.379 L76.5,153.379 C118.749,153.379 153,119.129 153,76.879 L153,76.879 C153,34.63 118.749,0.379 76.5,0.379 L76.5,0.379 C34.25,0.379 0,34.63 0,76.879" id="path-9"></path>
        <path d="M0,76.879 C0,119.129 34.25,153.379 76.5,153.379 L76.5,153.379 C118.749,153.379 153,119.129 153,76.879 L153,76.879 C153,34.63 118.749,0.379 76.5,0.379 L76.5,0.379 C34.25,0.379 0,34.63 0,76.879" id="path-11"></path>
        <path d="M0,76.879 C0,119.129 34.25,153.379 76.5,153.379 L76.5,153.379 C118.749,153.379 153,119.129 153,76.879 L153,76.879 C153,34.63 118.749,0.379 76.5,0.379 L76.5,0.379 C34.25,0.379 0,34.63 0,76.879" id="path-13"></path>
        <path d="M0,76.879 C0,119.129 34.25,153.379 76.5,153.379 L76.5,153.379 C118.749,153.379 153,119.129 153,76.879 L153,76.879 C153,34.63 118.749,0.379 76.5,0.379 L76.5,0.379 C34.25,0.379 0,34.63 0,76.879" id="path-15"></path>
        <path d="M0,76.879 C0,119.129 34.25,153.379 76.5,153.379 L76.5,153.379 C118.749,153.379 153,119.129 153,76.879 L153,76.879 C153,34.63 118.749,0.379 76.5,0.379 L76.5,0.379 C34.25,0.379 0,34.63 0,76.879 L0,76.879 Z" id="path-17"></path>
        <path d="M0,76.879 C0,119.129 34.25,153.379 76.5,153.379 L76.5,153.379 C118.749,153.379 153,119.129 153,76.879 L153,76.879 C153,34.63 118.749,0.379 76.5,0.379 L76.5,0.379 C34.25,0.379 0,34.63 0,76.879" id="path-19"></path>
        <path d="M0,76.879 C0,119.129 34.25,153.379 76.5,153.379 L76.5,153.379 C118.749,153.379 153,119.129 153,76.879 L153,76.879 C153,34.63 118.749,0.379 76.5,0.379 L76.5,0.379 C34.25,0.379 0,34.63 0,76.879" id="path-21"></path>
        <path d="M0,76.879 C0,119.129 34.25,153.379 76.5,153.379 L76.5,153.379 C118.749,153.379 153,119.129 153,76.879 L153,76.879 C153,34.63 118.749,0.379 76.5,0.379 L76.5,0.379 C34.25,0.379 0,34.63 0,76.879 L0,76.879 Z" id="path-23"></path>
        <path d="M0,76.879 C0,119.129 34.25,153.379 76.5,153.379 L76.5,153.379 C118.749,153.379 153,119.129 153,76.879 L153,76.879 C153,34.63 118.749,0.379 76.5,0.379 L76.5,0.379 C34.25,0.379 0,34.63 0,76.879" id="path-25"></path>
        <path d="M0,76.879 C0,119.129 34.25,153.379 76.5,153.379 L76.5,153.379 C118.749,153.379 153,119.129 153,76.879 L153,76.879 C153,34.63 118.749,0.379 76.5,0.379 L76.5,0.379 C34.25,0.379 0,34.63 0,76.879" id="path-27"></path>
        <path d="M0,76.879 C0,119.129 34.25,153.379 76.5,153.379 L76.5,153.379 C118.749,153.379 153,119.129 153,76.879 L153,76.879 C153,34.63 118.749,0.379 76.5,0.379 L76.5,0.379 C34.25,0.379 0,34.63 0,76.879" id="path-29"></path>
        <path d="M0,76.879 C0,119.129 34.25,153.379 76.5,153.379 L76.5,153.379 C118.749,153.379 153,119.129 153,76.879 L153,76.879 C153,34.63 118.749,0.379 76.5,0.379 L76.5,0.379 C34.25,0.379 0,34.63 0,76.879" id="path-31"></path>
        <path d="M0,76.879 C0,119.129 34.25,153.379 76.5,153.379 L76.5,153.379 C118.749,153.379 153,119.129 153,76.879 L153,76.879 C153,34.63 118.749,0.379 76.5,0.379 L76.5,0.379 C34.25,0.379 0,34.63 0,76.879" id="path-33"></path>
        <path d="M0,76.879 C0,119.129 34.25,153.379 76.5,153.379 L76.5,153.379 C118.749,153.379 153,119.129 153,76.879 L153,76.879 C153,34.63 118.749,0.379 76.5,0.379 L76.5,0.379 C34.25,0.379 0,34.63 0,76.879 L0,76.879 Z" id="path-35"></path>
        <path d="M0,76.879 C0,119.129 34.25,153.379 76.5,153.379 L76.5,153.379 C118.749,153.379 153,119.129 153,76.879 L153,76.879 C153,34.63 118.749,0.379 76.5,0.379 L76.5,0.379 C34.25,0.379 0,34.63 0,76.879 L0,76.879 Z" id="path-37"></path>
        <path d="M0,76.879 C0,119.129 34.25,153.379 76.5,153.379 L76.5,153.379 C118.749,153.379 153,119.129 153,76.879 L153,76.879 C153,34.63 118.749,0.379 76.5,0.379 L76.5,0.379 C34.25,0.379 0,34.63 0,76.879 L0,76.879 Z" id="path-39"></path>
        <path d="M0,76.879 C0,119.129 34.25,153.379 76.5,153.379 L76.5,153.379 C118.749,153.379 153,119.129 153,76.879 L153,76.879 C153,34.63 118.749,0.379 76.5,0.379 L76.5,0.379 C34.25,0.379 0,34.63 0,76.879" id="path-41"></path>
        <path d="M0,76.879 C0,119.129 34.25,153.379 76.5,153.379 L76.5,153.379 C118.749,153.379 153,119.129 153,76.879 L153,76.879 C153,34.63 118.749,0.379 76.5,0.379 L76.5,0.379 C34.25,0.379 0,34.63 0,76.879" id="path-43"></path>
        <path d="M0,76.879 C0,119.129 34.25,153.379 76.5,153.379 L76.5,153.379 C118.749,153.379 153,119.129 153,76.879 L153,76.879 C153,34.63 118.749,0.379 76.5,0.379 L76.5,0.379 C34.25,0.379 0,34.63 0,76.879" id="path-45"></path>
        <path d="M0,76.879 C0,119.129 34.25,153.379 76.5,153.379 L76.5,153.379 C118.749,153.379 153,119.129 153,76.879 L153,76.879 C153,34.63 118.749,0.379 76.5,0.379 L76.5,0.379 C34.25,0.379 0,34.63 0,76.879 L0,76.879 Z" id="path-47"></path>
        <path d="M0,76.879 C0,119.129 34.25,153.379 76.5,153.379 L76.5,153.379 C118.749,153.379 153,119.129 153,76.879 L153,76.879 C153,34.63 118.749,0.379 76.5,0.379 L76.5,0.379 C34.25,0.379 0,34.63 0,76.879" id="path-49"></path>
        <path d="M0,76.879 C0,119.129 34.25,153.379 76.5,153.379 L76.5,153.379 C118.749,153.379 153,119.129 153,76.879 L153,76.879 C153,34.63 118.749,0.379 76.5,0.379 L76.5,0.379 C34.25,0.379 0,34.63 0,76.879" id="path-51"></path>
        <path d="M0,76.879 C0,119.129 34.25,153.379 76.5,153.379 L76.5,153.379 C118.749,153.379 153,119.129 153,76.879 L153,76.879 C153,34.63 118.749,0.379 76.5,0.379 L76.5,0.379 C34.25,0.379 0,34.63 0,76.879" id="path-53"></path>
        <path d="M0,76.879 C0,119.129 34.25,153.379 76.5,153.379 L76.5,153.379 C118.749,153.379 153,119.129 153,76.879 L153,76.879 C153,34.63 118.749,0.379 76.5,0.379 L76.5,0.379 C34.25,0.379 0,34.63 0,76.879" id="path-55"></path>
        <path d="M0,76.879 C0,119.129 34.25,153.379 76.5,153.379 L76.5,153.379 C118.749,153.379 153,119.129 153,76.879 L153,76.879 C153,34.63 118.749,0.379 76.5,0.379 L76.5,0.379 C34.25,0.379 0,34.63 0,76.879" id="path-57"></path>
        <path d="M0,76.879 C0,119.129 34.25,153.379 76.5,153.379 L76.5,153.379 C118.749,153.379 153,119.129 153,76.879 L153,76.879 C153,34.63 118.749,0.379 76.5,0.379 L76.5,0.379 C34.25,0.379 0,34.63 0,76.879" id="path-59"></path>
        <path d="M0,76.879 C0,119.129 34.25,153.379 76.5,153.379 L76.5,153.379 C118.749,153.379 153,119.129 153,76.879 L153,76.879 C153,34.63 118.749,0.379 76.5,0.379 L76.5,0.379 C34.25,0.379 0,34.63 0,76.879" id="path-61"></path>
    </defs>
    <g id="Page-1" stroke="none" stroke-width="1" fill="none" fill-rule="evenodd">
        <g id="Group-99" transform="translate(1.000000, 0.000000)">
            <path d="M152.9997,78.3817 C152.9997,120.0797 119.1977,153.8817 77.4997,153.8817 C35.8027,153.8817 1.9997,120.0797 1.9997,78.3817 C1.9997,36.6847 35.8027,2.8817 77.4997,2.8817 C119.1977,2.8817 152.9997,36.6847 152.9997,78.3817" id="Fill-1" fill="#FFFFFF"></path>
            <g id="Group-96" transform="translate(0.000000, 0.778000)">
                <g id="Group-5">
                    <mask id="mask-2" fill="white">
                        <use xlink:href="#path-1"></use>
                    </mask>
                    <g id="Clip-4"></g>
                    <path d="M125.6471,178.1515 L93.3631,160.1395 C93.3631,160.1395 87.4731,156.5535 91.0101,150.0475 C93.4401,145.5855 99.2641,146.5495 101.1641,147.6955 C102.7881,148.6225 131.5081,170.2935 131.5081,170.2935 L125.6471,178.1515 Z" id="Fill-3" fill="#9E223E" mask="url(#mask-2)"></path>
                </g>
                <g id="Group-8">
                    <mask id="mask-4" fill="white">
                        <use xlink:href="#path-3"></use>
                    </mask>
                    <g id="Clip-7"></g>
                    <path d="M59.1745,70.7326 C58.8655,70.1506 58.5325,69.5846 58.1725,69.0366 C53.1725,61.4166 42.2585,59.7366 35.2325,64.8316 C31.6885,67.4006 29.7615,71.6986 28.3175,75.9756 C26.9285,80.0886 25.8385,84.4826 25.8162618,88.9036 C25.7975,92.6906 26.9145,96.4416 29.4845,99.0196 C32.3505,101.8946 36.4765,102.6576 40.1905,103.0186 C44.7185,103.4586 49.4145,103.3226 53.8895,102.3746 C57.3925,101.6326 60.7515,99.4386 62.3085,95.7486 C63.9795,91.7896 63.6755,87.0926 62.9145,82.9266 C62.1575,78.7846 61.1495,74.4456 59.1745,70.7326" id="Fill-6" fill="#E8364B" mask="url(#mask-4)"></path>
                </g>
                <g id="Group-11">
                    <mask id="mask-6" fill="white">
                        <use xlink:href="#path-5"></use>
                    </mask>
                    <g id="Clip-10"></g>
                    <path d="M25.6403,95.5182 C25.6403,95.5182 24.6383,90.7472 26.3733,90.0542 L31.7063,68.6002 C31.7063,68.6002 20.1163,85.2862 25.6403,95.5182" id="Fill-9" fill="#E8364B" mask="url(#mask-6)"></path>
                </g>
                <g id="Group-14">
                    <mask id="mask-8" fill="white">
                        <use xlink:href="#path-7"></use>
                    </mask>
                    <g id="Clip-13"></g>
                    <path d="M61.0158,109.3595 C61.0158,109.3595 52.6918,105.8955 52.4178,105.2255 C51.9328,104.2665 51.8338,100.4745 51.9738,98.5005 C51.9738,98.5005 39.7138,81.1335 39.6348,89.8565 C39.5568,98.5775 39.8388,104.2075 39.2898,105.0015 C39.2438,105.0695 31.9288,108.7915 31.8198,108.8895 C43.0138,123.7665 57.1138,115.1715 61.0158,109.3595" id="Fill-12" fill="#632F21" mask="url(#mask-8)"></path>
                </g>
                <g id="Group-17">
                    <mask id="mask-10" fill="white">
                        <use xlink:href="#path-9"></use>
                    </mask>
                    <g id="Clip-16"></g>
                    <path d="M58.5661,89.0451 C59.0741,88.7931 60.9411,82.7371 60.1081,81.8331 C59.2761,80.9281 58.5911,81.5291 58.5911,81.5291 L56.9831,86.2871 L57.8031,89.3631 C57.8031,89.3631 57.9971,89.5241 58.5661,89.0451" id="Fill-15" fill="#632F21" mask="url(#mask-10)"></path>
                </g>
                <g id="Group-20">
                    <mask id="mask-12" fill="white">
                        <use xlink:href="#path-11"></use>
                    </mask>
                    <g id="Clip-19"></g>
                    <path d="M34.3161,74.2794 C34.3611,76.3294 34.3501,78.3834 34.7101,83.6684 C34.8301,85.4024 34.9481,87.1384 35.0661,88.8734 C35.2471,91.5164 36.8821,93.8634 38.4401,95.8974 C40.9741,99.2084 44.1721,100.9044 47.5151,100.7544 C52.1881,100.7994 57.1921,94.1514 58.0571,88.2384 C58.3141,86.4804 58.4511,84.8024 58.5391,83.0524 C58.6361,81.1284 59.3661,74.5584 56.8891,71.0684 C56.2291,68.2944 40.7171,69.7104 34.3161,74.2794" id="Fill-18" fill="#632F21" mask="url(#mask-12)"></path>
                </g>
                <g id="Group-23">
                    <mask id="mask-14" fill="white">
                        <use xlink:href="#path-13"></use>
                    </mask>
                    <g id="Clip-22"></g>
                    <path d="M33.8107,89.5748 C32.4717,88.8888 30.9327,82.5668 31.9057,81.5368 C32.8727,80.2528 34.6847,81.0658 34.6847,81.0658 L36.4067,85.8248 L35.6847,89.1088 C35.6847,89.1088 35.9517,91.0688 33.8107,89.5748" id="Fill-21" fill="#632F21" mask="url(#mask-14)"></path>
                </g>
                <g id="Group-26">
                    <mask id="mask-16" fill="white">
                        <use xlink:href="#path-15"></use>
                    </mask>
                    <g id="Clip-25"></g>
                    <path d="M35.6193,78.5792 L40.4943,78.6182 C40.8413,77.5522 41.0673,76.5292 40.9863,75.6182 C41.3773,76.9472 40.9283,78.6212 40.9283,78.6212 L52.8313,78.7112 C53.2503,76.9392 53.3173,75.1862 52.9793,73.4552 C53.7603,74.8892 53.8293,76.7392 53.8633,78.7192 L59.5693,78.7622 C59.9393,76.1942 58.7503,71.7292 56.9343,70.1682 C54.2023,67.8202 32.8053,70.9592 32.8053,70.9592 L32.7703,75.6142 L33.9593,80.8162 C34.9713,79.1442 35.9083,76.1962 36.1823,72.9772 C36.5893,76.1252 35.6193,78.5792 35.6193,78.5792" id="Fill-24" fill="#E8364B" mask="url(#mask-16)"></path>
                </g>
                <g id="Group-29">
                    <mask id="mask-18" fill="white">
                        <use xlink:href="#path-17"></use>
                    </mask>
                    <g id="Clip-28"></g>
                    <path d="M45.1613,92.2067 C45.2273,93.4817 46.2793,94.4957 47.5713,94.4957 C48.8623,94.4957 49.9133,93.4817 49.9803,92.2067 L45.1613,92.2067 Z" id="Fill-27" fill="#FFFFFF" mask="url(#mask-18)"></path>
                </g>
                <g id="Group-32">
                    <mask id="mask-20" fill="white">
                        <use xlink:href="#path-19"></use>
                    </mask>
                    <g id="Clip-31"></g>
                    <path d="M68.842,109.9787 C67.432,108.2667 57.444,106.0147 52.877,105.0597 C48.465,107.5777 43.787,107.3947 38.896,105.0597 C34.329,106.0147 24.341,108.2667 22.931,109.9787 C21.094,112.2087 29.179,158.7747 29.179,158.7747 L62.112,158.7747 C62.112,158.7747 70.678,112.2087 68.842,109.9787" id="Fill-30" fill="#FFFFFF" mask="url(#mask-20)"></path>
                </g>
                <g id="Group-35">
                    <mask id="mask-22" fill="white">
                        <use xlink:href="#path-21"></use>
                    </mask>
                    <g id="Clip-34"></g>
                    <path d="M68.842,109.9787 C67.67,108.5547 60.56,106.7567 55.574,105.6427 L47.25,123.2337 C47.25,123.2337 36.782,105.5877 36.757,105.5187 C31.76,106.6197 24.148,108.4997 22.931,109.9787 C21.094,112.2087 25.945,175.5677 25.945,175.5677 L75.744,173.4437 C75.744,173.4437 70.678,112.2087 68.842,109.9787" id="Fill-33" fill="#9E223E" mask="url(#mask-22)"></path>
                </g>
                <g id="Group-38">
                    <mask id="mask-24" fill="white">
                        <use xlink:href="#path-23"></use>
                    </mask>
                    <g id="Clip-37"></g>
                    <path d="M64.9562,185.0001 L38.7072,158.9681 C38.7072,158.9681 33.9982,153.9311 39.1552,148.6151 C42.6962,144.9711 48.0462,147.4661 49.5672,149.0811 C50.8832,150.4111 72.7162,179.0081 72.7162,179.0081 L64.9562,185.0001 Z" id="Fill-36" fill="#9E223E" mask="url(#mask-24)"></path>
                </g>
                <g id="Group-41">
                    <mask id="mask-26" fill="white">
                        <use xlink:href="#path-25"></use>
                    </mask>
                    <g id="Clip-40"></g>
                    <path d="M28.5138,108.6032 C28.5138,108.6032 36.9158,111.1142 34.2948,121.6052 C31.6748,132.0962 23.5148,155.8462 23.5148,155.8462 C23.5148,155.8462 21.4838,162.4362 14.3068,160.6012 C9.3868,159.3362 8.8938,153.4542 9.5398,151.3312 C10.0398,149.5302 18.8988,116.2812 18.8988,116.2812 C18.8988,116.2812 21.0298,107.2782 28.5138,108.6032" id="Fill-39" fill="#9E223E" mask="url(#mask-26)"></path>
                </g>
                <g id="Group-44">
                    <mask id="mask-28" fill="white">
                        <use xlink:href="#path-27"></use>
                    </mask>
                    <g id="Clip-43"></g>
                    <path d="M130.6891,114.028 C125.1741,117.74 118.5891,119.912 111.8101,120.358 C103.7461,120.888 91.6461,116.921 92.4621,106.9 C92.7031,103.937 93.9881,101.161 95.4551,98.575 C99.2391,91.905 101.2671,86.402 101.9411,78.674 C102.4561,72.76 103.3211,66.658 107.8331,62.255 C110.1011,60.041 113.0011,58.667 116.0801,58.05 C119.0951,57.446 122.2851,57.567 125.2231,58.337 C133.9601,60.625 139.0781,67.559 141.6041,75.643 C144.1041,83.641 145.7591,93.5 141.9181,101.296 C139.3141,106.58 135.3901,110.863 130.6891,114.028" id="Fill-42" fill="#9E223E" mask="url(#mask-28)"></path>
                </g>
                <g id="Group-47">
                    <mask id="mask-30" fill="white">
                        <use xlink:href="#path-29"></use>
                    </mask>
                    <g id="Clip-46"></g>
                    <path d="M104.1384,104.9381 L114.2604,102.5011 L114.6774,95.7591 L126.2594,87.0931 L126.5814,102.2771 C126.5814,102.2771 138.6974,105.6991 138.7974,105.7961 C128.2914,120.7121 107.8004,110.7651 104.1384,104.9381" id="Fill-45" fill="#F5C7A3" mask="url(#mask-30)"></path>
                </g>
                <g id="Group-50">
                    <mask id="mask-32" fill="white">
                        <use xlink:href="#path-31"></use>
                    </mask>
                    <g id="Clip-49"></g>
                    <path d="M132.3815,80.1696 C132.3815,80.1696 132.9805,78.3406 133.9075,78.9886 C134.8355,79.6356 134.7125,87.0906 131.8835,87.5146 C129.0545,87.9406 132.3815,80.1696 132.3815,80.1696" id="Fill-48" fill="#F5C7A3" mask="url(#mask-32)"></path>
                </g>
                <g id="Group-53">
                    <mask id="mask-34" fill="white">
                        <use xlink:href="#path-33"></use>
                    </mask>
                    <g id="Clip-52"></g>
                    <path d="M109.0202,80.1696 C109.0202,80.1696 108.4212,78.3406 107.4942,78.9886 C106.5662,79.6356 106.6892,87.0906 109.5182,87.5146 C112.3472,87.9406 109.0202,80.1696 109.0202,80.1696" id="Fill-51" fill="#F5C7A3" mask="url(#mask-34)"></path>
                </g>
                <g id="Group-56">
                    <mask id="mask-36" fill="white">
                        <use xlink:href="#path-35"></use>
                    </mask>
                    <g id="Clip-55"></g>
                    <path d="M112.1559,67.8795 L120.6789,64.9525 L129.2049,67.8795 L132.5009,72.5905 L132.4589,81.7275 C132.4589,81.7275 132.3869,86.2955 131.7159,88.1515 C131.0449,90.0065 128.3909,98.1095 120.6789,98.5365 C112.9679,98.1095 110.3159,90.0065 109.6439,88.1515 C108.9709,86.2955 108.8999,81.7275 108.8999,81.7275 L108.9099,72.5905 L112.1559,67.8795 Z" id="Fill-54" fill="#F5C7A3" mask="url(#mask-36)"></path>
                </g>
                <g id="Group-59">
                    <mask id="mask-38" fill="white">
                        <use xlink:href="#path-37"></use>
                    </mask>
                    <g id="Clip-58"></g>
                    <path d="M123.2311,89.2145 C123.1601,90.5655 122.0461,91.6385 120.6781,91.6385 C119.3111,91.6385 118.1981,90.5655 118.1271,89.2145 L123.2311,89.2145 Z" id="Fill-57" fill="#FFFFFF" mask="url(#mask-38)"></path>
                </g>
                <g id="Group-62">
                    <mask id="mask-40" fill="white">
                        <use xlink:href="#path-39"></use>
                    </mask>
                    <g id="Clip-61"></g>
                    <path d="M132.5007,77.3273 C131.0357,75.5563 129.7397,73.3053 128.7207,70.2603 C128.7207,70.2603 126.4067,74.7583 120.0357,75.9893 C120.0357,75.9893 121.3227,75.0793 121.8037,74.2233 C121.8037,74.2233 118.5287,76.7303 113.2197,76.7873 C113.2197,76.7873 115.0747,76.1853 115.6827,75.3653 C115.6827,75.3653 109.2707,76.0093 108.7817,78.0253 L107.5797,74.5083 L108.5797,69.3323 L110.0247,67.1023 L115.2437,63.0873 L121.8037,61.8023 L128.7207,64.4783 L131.5997,66.1923 L134.1877,70.5823 L132.9377,74.4903 L132.5007,77.3273 Z" id="Fill-60" fill="#9E223E" mask="url(#mask-40)"></path>
                </g>
                <g id="Group-65">
                    <mask id="mask-42" fill="white">
                        <use xlink:href="#path-41"></use>
                    </mask>
                    <g id="Clip-64"></g>
                    <path d="M128.196,88.5045 C125.036,88.5045 122.466,85.9335 122.466,82.7735 C122.466,79.6135 125.036,77.0425 128.196,77.0425 C131.357,77.0425 133.927,79.6135 133.927,82.7735 C133.927,85.9335 131.357,88.5045 128.196,88.5045 M128.196,77.7755 C125.441,77.7755 123.199,80.0185 123.199,82.7735 C123.199,85.5295 125.441,87.7715 128.196,87.7715 C130.953,87.7715 133.194,85.5295 133.194,82.7735 C133.194,80.0185 130.953,77.7755 128.196,77.7755" id="Fill-63" fill="#FFFFFF" mask="url(#mask-42)"></path>
                </g>
                <g id="Group-68">
                    <mask id="mask-44" fill="white">
                        <use xlink:href="#path-43"></use>
                    </mask>
                    <g id="Clip-67"></g>
                    <path d="M113.5046,88.5045 C110.3436,88.5045 107.7746,85.9335 107.7746,82.7735 C107.7746,79.6135 110.3436,77.0425 113.5046,77.0425 C116.6646,77.0425 119.2356,79.6135 119.2356,82.7735 C119.2356,85.9335 116.6646,88.5045 113.5046,88.5045 M113.5046,77.7755 C110.7486,77.7755 108.5076,80.0185 108.5076,82.7735 C108.5076,85.5295 110.7486,87.7715 113.5046,87.7715 C116.2606,87.7715 118.5026,85.5295 118.5026,82.7735 C118.5026,80.0185 116.2606,77.7755 113.5046,77.7755" id="Fill-66" fill="#FFFFFF" mask="url(#mask-44)"></path>
                </g>
                <g id="Group-71">
                    <mask id="mask-46" fill="white">
                        <use xlink:href="#path-45"></use>
                    </mask>
                    <g id="Clip-70"></g>
                    <path d="M118.4723,80.7409 L118.2613,80.0379 C120.0923,79.4889 121.8103,79.4909 123.3683,80.0439 L123.1223,80.7359 C121.6953,80.2279 120.1743,80.2309 118.4723,80.7409" id="Fill-69" fill="#FFFFFF" mask="url(#mask-46)"></path>
                </g>
                <g id="Group-74">
                    <mask id="mask-48" fill="white">
                        <use xlink:href="#path-47"></use>
                    </mask>
                    <g id="Clip-73"></g>
                    <path d="M125.235,179.8439 C128.186,177.1089 143.776,167.2429 156.916,159.5579 C156.916,159.5579 163.306,156.4779 160.285,150.5769 C157.467,146.0449 152.419,147.0219 150.497,148.3379 C148.849,149.4079 119.976,174.3809 119.976,174.3809 L125.235,179.8439 Z" id="Fill-72" fill="#F5C7A3" mask="url(#mask-48)"></path>
                </g>
                <g id="Group-77">
                    <mask id="mask-50" fill="white">
                        <use xlink:href="#path-49"></use>
                    </mask>
                    <g id="Clip-76"></g>
                    <path d="M161.0905,154.1422 C160.7105,156.4562 159.2025,158.1522 156.6085,159.1852 C155.1735,159.7552 153.7135,159.7092 152.2725,159.0492 C150.1585,158.0812 148.6095,156.0002 148.2275,154.9002 C147.5355,153.0522 133.0125,119.4192 132.4805,118.0422 C132.3335,117.6882 129.2185,109.9822 135.3135,106.9462 C135.5765,106.8632 136.6245,106.5632 138.0315,106.6022 C140.6385,106.6772 144.4775,107.9122 146.8705,113.8272 C151.0645,124.1922 161.3865,152.3412 161.0905,154.1422" id="Fill-75" fill="#F5C7A3" mask="url(#mask-50)"></path>
                </g>
                <g id="Group-80">
                    <mask id="mask-52" fill="white">
                        <use xlink:href="#path-51"></use>
                    </mask>
                    <g id="Clip-79"></g>
                    <path d="M134.9098,105.9616 C134.9098,105.9616 143.5958,102.9006 147.8548,113.4296 C150.1428,119.0856 153.4378,128.9786 155.9988,136.9246 C151.2178,139.5136 146.8068,141.1216 141.5048,142.3016 C137.4908,131.9016 131.4898,118.4246 131.4898,118.4246 C131.4898,118.4246 127.7348,109.4626 134.9098,105.9616" id="Fill-78" fill="#E8364B" mask="url(#mask-52)"></path>
                </g>
                <g id="Group-83">
                    <mask id="mask-54" fill="white">
                        <use xlink:href="#path-53"></use>
                    </mask>
                    <g id="Clip-82"></g>
                    <path d="M143.9167,107.7487 C142.4377,106.1937 138.5727,105.2487 133.6917,104.0537 C122.5607,107.0907 113.1577,105.8127 108.0207,103.6917 C103.2257,104.5597 97.6897,105.7197 96.2097,107.2737 C94.2807,109.2997 103.3827,162.1517 103.3827,162.1517 L137.4987,151.4807 C137.4987,151.4807 145.8457,109.7737 143.9167,107.7487" id="Fill-81" fill="#E8364B" mask="url(#mask-54)"></path>
                </g>
                <g id="Group-86">
                    <mask id="mask-56" fill="white">
                        <use xlink:href="#path-55"></use>
                    </mask>
                    <g id="Clip-85"></g>
                    <path d="M86.3439,164.0499 C86.3389,164.0949 86.1729,165.7089 86.8439,167.4049 C87.7069,169.5859 89.5409,170.9239 92.2959,171.3829 C93.8189,171.6339 95.2349,171.2799 96.5029,170.3289 C98.3619,168.9349 99.4359,166.5729 99.5749,165.4159 C99.8579,163.4639 105.2109,129.1889 105.4379,127.7309 C105.5069,127.3539 106.9149,119.1619 100.3149,117.4899 C100.0389,117.4639 98.9519,117.3939 97.5849,117.7309 C95.0529,118.3569 91.5629,120.3799 90.4809,126.6669 C88.5849,137.6859 86.3649,163.7869 86.3439,164.0499" id="Fill-84" fill="#F5C7A3" mask="url(#mask-56)"></path>
                </g>
                <g id="Group-89">
                    <mask id="mask-58" fill="white">
                        <use xlink:href="#path-57"></use>
                    </mask>
                    <g id="Clip-88"></g>
                    <path d="M101.9694,105.5812 C101.9694,105.5812 92.8304,104.4352 90.9054,115.6262 C89.8694,121.6392 88.7484,132.0072 87.9344,140.3152 C93.1564,141.8302 98.5534,142.4742 103.9854,142.5012 C105.6994,131.4852 107.9564,117.0342 107.9564,117.0342 C107.9564,117.0342 109.7234,107.4782 101.9694,105.5812" id="Fill-87" fill="#E8364B" mask="url(#mask-58)"></path>
                </g>
                <g id="Group-92">
                    <mask id="mask-60" fill="white">
                        <use xlink:href="#path-59"></use>
                    </mask>
                    <g id="Clip-91"></g>
                    <path d="M74.7375,18.8624 C62.4155,18.8624 52.4265,27.4254 52.4265,37.9864 C52.4265,41.7574 53.7175,45.2634 55.9165,48.2274 C57.5355,51.2434 56.4845,55.0184 53.5035,56.7474 C57.0945,57.7054 60.7455,56.7004 63.3265,54.3974 C66.6685,56.1094 70.5615,57.1104 74.7375,57.1104 C87.0595,57.1104 97.0485,48.5484 97.0485,37.9864 C97.0485,27.4254 87.0595,18.8624 74.7375,18.8624" id="Fill-90" fill="#E8364B" mask="url(#mask-60)"></path>
                </g>
                <g id="Group-95">
                    <mask id="mask-62" fill="white">
                        <use xlink:href="#path-61"></use>
                    </mask>
                    <g id="Clip-94"></g>
                    <path d="M83.9455,41.6022 C83.9455,39.3282 83.7435,37.2622 83.3395,35.4472 C82.1675,30.1822 79.2975,27.0242 74.7375,27.0242 C70.2295,27.0242 67.3725,30.1102 66.1755,35.2692 C65.7455,37.1272 65.5295,39.2542 65.5295,41.6022 C65.5295,42.6342 65.5855,43.6442 65.6925,44.6222 C65.7075,44.6182 65.7205,44.6142 65.7345,44.6102 C65.7345,44.6212 65.7325,44.6302 65.7325,44.6412 C65.7325,45.7892 69.3955,46.0062 70.2645,45.4852 C71.3745,46.8942 72.7725,48.0102 74.4275,48.8012 L74.7375,48.9482 L75.0475,48.8012 C76.6955,48.0132 78.0895,46.9022 79.1965,45.5032 C80.0225,46.0522 83.5265,45.9362 83.7535,44.8702 C83.7705,44.7932 83.7805,44.7172 83.7805,44.6412 L83.7805,44.6402 C83.8885,43.6562 83.9455,42.6412 83.9455,41.6022 M74.9205,48.5332 L74.7375,48.6202 L74.5555,48.5332 C72.9185,47.7512 71.5365,46.6432 70.4465,45.2422 C70.4485,45.1832 70.4275,45.1192 70.3755,45.0492 C69.5085,43.9192 68.8325,42.6002 68.3635,41.1272 C67.5705,38.6312 67.6475,36.5702 67.6515,36.4832 L67.6655,36.1542 L68.0225,36.1182 C69.9355,35.9222 71.5795,35.2082 72.6205,34.6442 C73.7365,34.0412 74.4335,33.4642 74.4645,33.4392 L74.7375,33.2082 L75.0125,33.4412 C75.0865,33.5022 75.7625,34.0542 76.8545,34.6442 C77.8955,35.2082 79.5385,35.9222 81.4515,36.1182 L81.8095,36.1542 L81.8235,36.4832 C81.8275,36.5702 81.9045,38.6312 81.1115,41.1272 C80.6435,42.6002 79.9665,43.9192 79.1005,45.0492 C79.0465,45.1202 79.0235,45.1852 79.0235,45.2472 C77.9345,46.6452 76.5555,47.7522 74.9205,48.5332" id="Fill-93" fill="#FFFFFF" mask="url(#mask-62)"></path>
                </g>
            </g>
            <path d="M1.0002,78.5003 C1.0002,36.2503 35.2502,2.0003 77.5002,2.0003 C119.7502,2.0003 154.0002,36.2503 154.0002,78.5003 C154.0002,120.7503 119.7502,155.0003 77.5002,155.0003 C35.2502,155.0003 1.0002,120.7503 1.0002,78.5003 Z" id="Stroke-97" stroke="#FFD8DD" stroke-width="4"></path>
        </g>
    </g>
</svg>