<?xml version="1.0" encoding="UTF-8"?>
<svg width="158px" height="158px" viewBox="0 0 158 158" version="1.1" xmlns="http://www.w3.org/2000/svg" xmlns:xlink="http://www.w3.org/1999/xlink">
    <title>Group</title>
    <g id="Page-1" stroke="none" stroke-width="1" fill="none" fill-rule="evenodd">
        <g id="Group" transform="translate(2.500200, 2.000000)">
            <circle id="Oval" fill="#FFFFFF" cx="76.9998" cy="76.5" r="76.5"></circle>
            <g id="Group-63" transform="translate(0.000000, 0.499900)">
                <path d="M135.0948,81.3579 L104.8668,91.9679 C100.6628,93.4439 96.0078,91.2359 94.5218,87.0619 L79.3588,44.4649 C77.8718,40.2909 80.0948,35.6699 84.2998,34.1929 L114.5278,23.5839 C118.7308,22.1079 123.3868,24.3159 124.8718,28.4899 L140.0368,71.0859 C141.5218,75.2589 139.2988,79.8819 135.0948,81.3579" id="Fill-1" fill="#E8364B"></path>
                <polygon id="Fill-3" fill="#FFFFFF" points="130.4029 79.0674 101.1019 89.5384 83.7089 39.7984 119.5929 26.9754 134.7229 70.2424"></polygon>
                <path d="M109.3013,31.3921 L94.4283,36.4881 C93.3713,36.8501 92.2013,36.3091 91.8283,35.2841 L90.5633,31.8151 C90.1893,30.7911 90.7483,29.6571 91.8053,29.2951 L106.6773,24.2001 C107.7353,23.8381 108.9053,24.3791 109.2783,25.4041 L110.5433,28.8711 C110.9173,29.8961 110.3583,31.0301 109.3013,31.3921" id="Fill-5" fill="#D82745"></path>
                <polygon id="Fill-7" fill="#FFD8DD" points="130.295 77.9883 127.985 71.6403 134.723 69.3253"></polygon>
                <polyline id="Stroke-9" stroke="#FFA2AB" stroke-width="1.5" stroke-linecap="round" stroke-linejoin="round" points="109.2715 69.3257 112.5845 78.5257 103.3855 81.8387 100.0715 72.6387 109.2715 69.3257"></polyline>
                <path d="M116.2325,51.0376 L106.8095,72.1756 L107.3225,76.5006 C107.3745,76.9366 107.8395,77.1676 108.1905,76.9316 L111.6735,74.5906 L121.0965,53.4526 C121.4685,52.6156 121.1285,51.6186 120.3355,51.2246 L118.3435,50.2356 C117.5505,49.8416 116.6055,50.2006 116.2325,51.0376" id="Fill-11" fill="#E8364B"></path>
                <path d="M121.3946,54.8882 C121.2786,54.8882 121.1606,54.8642 121.0486,54.8132 L115.9406,52.5192 C115.5336,52.3362 115.3586,51.8732 115.5496,51.4842 C115.7426,51.0962 116.2276,50.9292 116.6326,51.1122 L121.7416,53.4072 C122.1486,53.5902 122.3236,54.0532 122.1326,54.4412 C121.9936,54.7232 121.7006,54.8882 121.3946,54.8882" id="Fill-13" fill="#FFD8DD"></path>
                <polygon id="Stroke-15" stroke="#FFA2AB" stroke-width="1.5" stroke-linecap="round" stroke-linejoin="round" points="101.9971 49.6499 92.7971 52.9629 89.4841 43.7639 98.6841 40.4499"></polygon>
                <polygon id="Stroke-17" stroke="#FFA2AB" stroke-width="1.5" stroke-linecap="round" stroke-linejoin="round" points="107.772 64.0884 98.572 67.4014 95.259 58.2014 104.459 54.8884"></polygon>
                <polyline id="Stroke-19" stroke="#FFA2AB" stroke-width="1.5" stroke-linecap="round" stroke-linejoin="round" points="98.147 60.3291 101.436 62.5881 103.922 54.8881"></polyline>
                <polyline id="Stroke-21" stroke="#FFA2AB" stroke-width="1.5" stroke-linecap="round" stroke-linejoin="round" points="93.3345 45.8916 96.6245 48.1506 99.1095 40.4506"></polyline>
                <line x1="105.8472" y1="42.3755" x2="117.3972" y2="38.5255" id="Stroke-23" stroke="#FFA2AB" stroke-width="1.5" stroke-linecap="round" stroke-linejoin="round"></line>
                <line x1="117.3975" y1="72.2134" x2="128.9475" y2="68.3634" id="Stroke-25" stroke="#FFA2AB" stroke-width="1.5" stroke-linecap="round" stroke-linejoin="round"></line>
                <path d="M44.1382,39.8536 C41.0362,40.4746 38.1162,41.8566 35.8302,44.0826 C31.2842,48.5116 30.4132,54.6486 29.8942,60.5966 C29.3282,67.0856 28.6592,73.5106 24.4242,78.8436 C21.1262,82.9966 17.3482,87.0206 15.4002,91.9906 C12.0352,100.5676 12.7542,111.5926 21.8662,116.3456 C25.8152,118.4066 30.3952,119.0566 34.8792,119.1066 C42.0492,119.1866 49.5272,117.6696 55.0642,113.2496 C57.4212,111.3686 59.3472,109.0276 61.0432,106.5666 C70.7292,92.5166 75.0012,73.9966 69.8522,57.5486 C67.3052,49.4176 62.1512,42.4436 53.3492,40.1416 C50.3882,39.3676 47.1752,39.2456 44.1382,39.8536" id="Fill-27" fill="#9E223E"></path>
                <path d="M65.3965,87.1934 L55.1995,84.7424 L54.7795,77.9614 L43.1115,69.2454 L42.7865,84.5174 C42.7865,84.5174 30.5835,87.9584 30.4805,88.0564 C41.0645,103.0594 61.7075,93.0544 65.3965,87.1934" id="Fill-29" fill="#F5C7A3"></path>
                <path d="M60.5606,62.1016 C60.5606,62.1016 61.1636,60.2626 62.0986,60.9136 C63.0326,61.5646 62.9086,69.0616 60.0586,69.4886 C57.2086,69.9156 60.5606,62.1016 60.5606,62.1016" id="Fill-31" fill="#EEC0BD"></path>
                <path d="M37.0259,62.1016 C37.0259,62.1016 36.4229,60.2626 35.4889,60.9136 C34.5539,61.5646 34.6779,69.0616 37.5279,69.4886 C40.3789,69.9156 37.0259,62.1016 37.0259,62.1016" id="Fill-33" fill="#EEC0BD"></path>
                <path d="M40.1846,49.7403 L48.7726,46.7963 L57.3596,49.7403 L60.6806,54.4783 L60.6386,63.6683 C60.6386,63.6683 60.5676,68.2623 59.8896,70.1293 C59.2126,71.9963 56.5406,80.1453 48.7726,80.5753 C41.0036,80.1453 38.3316,71.9963 37.6546,70.1293 C36.9776,68.2623 36.9056,63.6683 36.9056,63.6683 L36.9146,54.4783 L40.1846,49.7403 Z" id="Fill-35" fill="#F5C7A3"></path>
                <path d="M51.3418,71.1988 C51.2708,72.5568 50.1488,73.6368 48.7718,73.6368 C47.3938,73.6368 46.2708,72.5568 46.2008,71.1988 L51.3418,71.1988 Z" id="Fill-37" fill="#FFFFFF"></path>
                <path d="M60.6807,59.2422 C59.2047,57.4602 57.8987,55.1972 56.8727,52.1352 C56.8727,52.1352 54.5417,56.6582 48.1247,57.8962 C48.1247,57.8962 49.4207,56.9812 49.9047,56.1192 C49.9047,56.1192 46.6047,58.6412 41.2577,58.7002 C41.2577,58.7002 43.1267,58.0942 43.7377,57.2682 C43.7377,57.2682 37.2777,57.9162 36.7857,59.9442 L35.5757,56.4072 L36.5827,51.2012 L38.0387,48.9582 L43.2957,44.9202 L49.9047,43.6272 L56.8727,46.3192 L59.7737,48.0422 L62.3797,52.4582 L61.1217,56.3892 L60.6807,59.2422 Z" id="Fill-39" fill="#9E223E"></path>
                <path d="M25.3238,90.0201 C26.8148,88.4571 30.7078,87.5061 35.6238,86.3031 C46.8388,89.3581 56.3098,88.0741 61.4848,85.9401 C66.3158,86.8121 71.8918,87.9791 73.3828,89.5431 C75.3268,91.5801 65.3968,153.0001 65.3968,153.0001 L28.1928,135.8191 C28.1928,135.8191 23.3808,92.0571 25.3238,90.0201" id="Fill-41" fill="#E8364B"></path>
                <path d="M56.3443,70.3623 C53.2293,70.3623 50.6943,67.8313 50.6943,64.7203 C50.6943,61.6103 53.2293,59.0783 56.3443,59.0783 C59.4603,59.0783 61.9953,61.6103 61.9953,64.7203 C61.9953,67.8313 59.4603,70.3623 56.3443,70.3623 M56.3443,59.5713 C53.5013,59.5713 51.1873,61.8813 51.1873,64.7203 C51.1873,67.5593 53.5013,69.8693 56.3443,69.8693 C59.1873,69.8693 61.5013,67.5593 61.5013,64.7203 C61.5013,61.8813 59.1873,59.5713 56.3443,59.5713" id="Fill-43" fill="#FFFFFF"></path>
                <path d="M41.544,70.3623 C38.428,70.3623 35.894,67.8313 35.894,64.7203 C35.894,61.6103 38.428,59.0783 41.544,59.0783 C44.66,59.0783 47.195,61.6103 47.195,64.7203 C47.195,67.8313 44.66,70.3623 41.544,70.3623 M41.544,59.5713 C38.701,59.5713 36.386,61.8813 36.386,64.7203 C36.386,67.5593 38.701,69.8693 41.544,69.8693 C44.387,69.8693 46.701,67.5593 46.701,64.7203 C46.701,61.8813 44.387,59.5713 41.544,59.5713" id="Fill-45" fill="#FFFFFF"></path>
                <path d="M46.5127,62.5591 L46.3707,62.0871 C48.1907,61.5421 49.8957,61.5431 51.4387,62.0901 L51.2737,62.5551 C49.8317,62.0431 48.2297,62.0451 46.5127,62.5591" id="Fill-47" fill="#FFFFFF"></path>
                <path d="M73.0059,133.9839 C68.2299,134.5049 47.5449,133.6689 32.2049,133.7919 C32.2049,133.7919 25.1239,134.7359 24.3989,128.1099 C24.2599,122.7469 29.0479,120.7769 31.3929,120.8199 C33.3709,120.8079 71.4819,125.8219 71.4819,125.8219 L73.0059,133.9839 Z" id="Fill-49" fill="#F5C7A3"></path>
                <path d="M37.7857,127.4439 C37.7847,127.4909 37.7567,129.1209 36.8817,130.7349 C35.7577,132.8069 33.7627,133.9229 30.9537,134.0489 C29.4007,134.1179 28.0277,133.5939 26.8737,132.4939 C25.1817,130.8779 24.3937,128.3909 24.3927,127.2189 C24.3447,125.2359 23.0317,100.3419 22.9787,98.8599 C22.9557,98.4759 22.5337,90.1299 29.3317,89.2529 C29.6107,89.2599 30.7057,89.3209 32.0317,89.8219 C34.4867,90.7489 37.7337,93.1879 38.0587,99.5929 C38.6307,110.8209 37.7957,127.1789 37.7857,127.4439" id="Fill-51" fill="#F5C7A3"></path>
                <path d="M29.273,88.1840969 C29.273,88.1840969 38.547,88.1371 39.127,99.5391 C39.439,105.6651 38.825,107.5731 38.642,115.9631 C33.239,116.8491 27.765,116.8421 22.331,116.2191 C21.941,105.0171 21.91,98.8971 21.91,98.8971 C21.91,98.8971 21.293,89.1481 29.273,88.1840969" id="Fill-53" fill="#E8364B"></path>
                <path d="M80.3086,126.604 C80.3126,126.65 80.4806,128.272 79.8046,129.979 C78.9356,132.17 77.0896,133.516 74.3156,133.975 C72.7826,134.229 71.3556,133.874 70.0796,132.917 C68.2056,131.515 67.1266,129.14 66.9856,127.977 C66.6996,126.014 62.1416,100.487 61.9116,99.021 C61.8426,98.642 60.4246,90.407 67.0706,88.725 C67.3486,88.699 68.4436,88.628 69.8196,88.967 C72.3676,89.596 75.8826,91.63 76.9716,97.951 C78.8816,109.03 80.2866,126.34 80.3086,126.604" id="Fill-55" fill="#F5C7A3"></path>
                <path d="M66.8838,87.6714 C66.8838,87.6714 76.0858,86.5184 78.0258,97.7704 C79.0678,103.8164 78.6868,105.7824 79.5078,114.1344 C74.2488,115.6574 68.8148,116.3044 63.3448,116.3324 C61.6188,105.2584 60.8548,99.1854 60.8548,99.1854 C60.8548,99.1854 59.0768,89.5794 66.8838,87.6714" id="Fill-57" fill="#E8364B"></path>
                <path d="M67.9366,124.6368 C72.5346,110.0488 77.4796,92.1908 77.8416,88.1308 C76.8416,87.3268 76.0576,86.2348 75.6366,84.9238 C74.7336,82.1188 75.7506,79.1638 77.9546,77.4548 L79.1646,70.1088 C79.2676,69.4898 79.8016,69.0318 80.4316,69.0247311 C81.2196,69.0168 81.8326,69.7068 81.7306,70.4888 L80.9896,76.1228 C84.2896,75.5568 87.5866,77.4768 88.6416,80.7508 C89.6576,83.9078 88.2456,87.2558 85.4426,88.7998 C85.1166,91.4908 80.8066,126.8188 80.3216,128.6568 C79.7776,130.9358 76.6726,135.0758 71.5016,133.6038 C65.2526,131.2508 67.9366,124.6368 67.9366,124.6368" id="Fill-59" fill="#F5C7A3"></path>
                <path d="M0,76.5 C0,34.25 34.25,0 76.5,0 C118.75,0 153,34.25 153,76.5 C153,118.75 118.75,153 76.5,153 C34.25,153 0,118.75 0,76.5 Z" id="Stroke-61" stroke="#E9364B" stroke-width="4"></path>
            </g>
        </g>
    </g>
</svg>