<?xml version="1.0" encoding="UTF-8"?>
<svg width="157px" height="158px" viewBox="0 0 157 158" version="1.1" xmlns="http://www.w3.org/2000/svg" xmlns:xlink="http://www.w3.org/1999/xlink">
    <title>Group 97</title>
    <defs>
        <path d="M0.383,78.164 C0.383,121.242 35.305,156.165 78.385,156.165 L78.385,156.165 C121.463,156.165 156.387,121.242 156.387,78.164 L156.387,78.164 C156.387,35.085 121.463,0.162 78.385,0.162 L78.385,0.162 C35.305,0.162 0.383,35.085 0.383,78.164" id="path-1"></path>
        <path d="M0.383,78.164 C0.383,121.242 35.305,156.165 78.385,156.165 L78.385,156.165 C121.463,156.165 156.387,121.242 156.387,78.164 L156.387,78.164 C156.387,35.085 121.463,0.162 78.385,0.162 L78.385,0.162 C35.305,0.162 0.383,35.085 0.383,78.164" id="path-3"></path>
        <path d="M0.383,78.164 C0.383,121.242 35.305,156.165 78.385,156.165 L78.385,156.165 C121.463,156.165 156.387,121.242 156.387,78.164 L156.387,78.164 C156.387,35.085 121.463,0.162 78.385,0.162 L78.385,0.162 C35.305,0.162 0.383,35.085 0.383,78.164 L0.383,78.164 Z" id="path-5"></path>
        <path d="M0.383,78.164 C0.383,121.242 35.305,156.165 78.385,156.165 L78.385,156.165 C121.463,156.165 156.387,121.242 156.387,78.164 L156.387,78.164 C156.387,35.085 121.463,0.162 78.385,0.162 L78.385,0.162 C35.305,0.162 0.383,35.085 0.383,78.164 L0.383,78.164 Z" id="path-7"></path>
        <path d="M0.383,78.164 C0.383,121.242 35.305,156.165 78.385,156.165 L78.385,156.165 C121.463,156.165 156.387,121.242 156.387,78.164 L156.387,78.164 C156.387,35.085 121.463,0.162 78.385,0.162 L78.385,0.162 C35.305,0.162 0.383,35.085 0.383,78.164" id="path-9"></path>
        <path d="M0.383,78.164 C0.383,121.242 35.305,156.165 78.385,156.165 L78.385,156.165 C121.463,156.165 156.387,121.242 156.387,78.164 L156.387,78.164 C156.387,35.085 121.463,0.162 78.385,0.162 L78.385,0.162 C35.305,0.162 0.383,35.085 0.383,78.164 L0.383,78.164 Z" id="path-11"></path>
        <path d="M0.383,78.164 C0.383,121.242 35.305,156.165 78.385,156.165 L78.385,156.165 C121.463,156.165 156.387,121.242 156.387,78.164 L156.387,78.164 C156.387,35.085 121.463,0.162 78.385,0.162 L78.385,0.162 C35.305,0.162 0.383,35.085 0.383,78.164 L0.383,78.164 Z" id="path-13"></path>
        <path d="M0.383,78.164 C0.383,121.242 35.305,156.165 78.385,156.165 L78.385,156.165 C121.463,156.165 156.387,121.242 156.387,78.164 L156.387,78.164 C156.387,35.085 121.463,0.162 78.385,0.162 L78.385,0.162 C35.305,0.162 0.383,35.085 0.383,78.164" id="path-15"></path>
        <path d="M0.383,78.164 C0.383,121.242 35.305,156.165 78.385,156.165 L78.385,156.165 C121.463,156.165 156.387,121.242 156.387,78.164 L156.387,78.164 C156.387,35.085 121.463,0.162 78.385,0.162 L78.385,0.162 C35.305,0.162 0.383,35.085 0.383,78.164" id="path-17"></path>
        <path d="M0.383,78.164 C0.383,121.242 35.305,156.165 78.385,156.165 L78.385,156.165 C121.463,156.165 156.387,121.242 156.387,78.164 L156.387,78.164 C156.387,35.085 121.463,0.162 78.385,0.162 L78.385,0.162 C35.305,0.162 0.383,35.085 0.383,78.164" id="path-19"></path>
        <path d="M0.383,78.164 C0.383,121.242 35.305,156.165 78.385,156.165 L78.385,156.165 C121.463,156.165 156.387,121.242 156.387,78.164 L156.387,78.164 C156.387,35.085 121.463,0.162 78.385,0.162 L78.385,0.162 C35.305,0.162 0.383,35.085 0.383,78.164" id="path-21"></path>
        <path d="M0.383,78.164 C0.383,121.242 35.305,156.165 78.385,156.165 L78.385,156.165 C121.463,156.165 156.387,121.242 156.387,78.164 L156.387,78.164 C156.387,35.085 121.463,0.162 78.385,0.162 L78.385,0.162 C35.305,0.162 0.383,35.085 0.383,78.164" id="path-23"></path>
        <path d="M0.383,78.164 C0.383,121.242 35.305,156.165 78.385,156.165 L78.385,156.165 C121.463,156.165 156.387,121.242 156.387,78.164 L156.387,78.164 C156.387,35.085 121.463,0.162 78.385,0.162 L78.385,0.162 C35.305,0.162 0.383,35.085 0.383,78.164 L0.383,78.164 Z" id="path-25"></path>
        <path d="M0.383,78.164 C0.383,121.242 35.305,156.165 78.385,156.165 L78.385,156.165 C121.463,156.165 156.387,121.242 156.387,78.164 L156.387,78.164 C156.387,35.085 121.463,0.162 78.385,0.162 L78.385,0.162 C35.305,0.162 0.383,35.085 0.383,78.164" id="path-27"></path>
        <path d="M0.383,78.164 C0.383,121.242 35.305,156.165 78.385,156.165 L78.385,156.165 C121.463,156.165 156.387,121.242 156.387,78.164 L156.387,78.164 C156.387,35.085 121.463,0.162 78.385,0.162 L78.385,0.162 C35.305,0.162 0.383,35.085 0.383,78.164 L0.383,78.164 Z" id="path-29"></path>
        <path d="M0.383,78.164 C0.383,121.242 35.305,156.165 78.385,156.165 L78.385,156.165 C121.463,156.165 156.387,121.242 156.387,78.164 L156.387,78.164 C156.387,35.085 121.463,0.162 78.385,0.162 L78.385,0.162 C35.305,0.162 0.383,35.085 0.383,78.164 L0.383,78.164 Z" id="path-31"></path>
        <path d="M0.383,78.164 C0.383,121.242 35.305,156.165 78.385,156.165 L78.385,156.165 C121.463,156.165 156.387,121.242 156.387,78.164 L156.387,78.164 C156.387,35.085 121.463,0.162 78.385,0.162 L78.385,0.162 C35.305,0.162 0.383,35.085 0.383,78.164 L0.383,78.164 Z" id="path-33"></path>
        <path d="M0.383,78.164 C0.383,121.242 35.305,156.165 78.385,156.165 L78.385,156.165 C121.463,156.165 156.387,121.242 156.387,78.164 L156.387,78.164 C156.387,35.085 121.463,0.162 78.385,0.162 L78.385,0.162 C35.305,0.162 0.383,35.085 0.383,78.164 L0.383,78.164 Z" id="path-35"></path>
        <path d="M0.383,78.164 C0.383,121.242 35.305,156.165 78.385,156.165 L78.385,156.165 C121.463,156.165 156.387,121.242 156.387,78.164 L156.387,78.164 C156.387,35.085 121.463,0.162 78.385,0.162 L78.385,0.162 C35.305,0.162 0.383,35.085 0.383,78.164 L0.383,78.164 Z" id="path-37"></path>
        <path d="M0.383,78.164 C0.383,121.242 35.305,156.165 78.385,156.165 L78.385,156.165 C121.463,156.165 156.387,121.242 156.387,78.164 L156.387,78.164 C156.387,35.085 121.463,0.162 78.385,0.162 L78.385,0.162 C35.305,0.162 0.383,35.085 0.383,78.164" id="path-39"></path>
        <path d="M0.383,78.164 C0.383,121.242 35.305,156.165 78.385,156.165 L78.385,156.165 C121.463,156.165 156.387,121.242 156.387,78.164 L156.387,78.164 C156.387,35.085 121.463,0.162 78.385,0.162 L78.385,0.162 C35.305,0.162 0.383,35.085 0.383,78.164 L0.383,78.164 Z" id="path-41"></path>
        <path d="M0.383,78.164 C0.383,121.242 35.305,156.165 78.385,156.165 L78.385,156.165 C121.463,156.165 156.387,121.242 156.387,78.164 L156.387,78.164 C156.387,35.085 121.463,0.162 78.385,0.162 L78.385,0.162 C35.305,0.162 0.383,35.085 0.383,78.164 L0.383,78.164 Z" id="path-43"></path>
        <path d="M0.383,78.164 C0.383,121.242 35.305,156.165 78.385,156.165 L78.385,156.165 C121.463,156.165 156.387,121.242 156.387,78.164 L156.387,78.164 C156.387,35.085 121.463,0.162 78.385,0.162 L78.385,0.162 C35.305,0.162 0.383,35.085 0.383,78.164" id="path-45"></path>
        <path d="M0.383,78.164 C0.383,121.242 35.305,156.165 78.385,156.165 L78.385,156.165 C121.463,156.165 156.387,121.242 156.387,78.164 L156.387,78.164 C156.387,35.085 121.463,0.162 78.385,0.162 L78.385,0.162 C35.305,0.162 0.383,35.085 0.383,78.164 L0.383,78.164 Z" id="path-47"></path>
        <path d="M0.383,78.164 C0.383,121.242 35.305,156.165 78.385,156.165 L78.385,156.165 C121.463,156.165 156.387,121.242 156.387,78.164 L156.387,78.164 C156.387,35.085 121.463,0.162 78.385,0.162 L78.385,0.162 C35.305,0.162 0.383,35.085 0.383,78.164 L0.383,78.164 Z" id="path-49"></path>
        <path d="M0.383,78.164 C0.383,121.242 35.305,156.165 78.385,156.165 L78.385,156.165 C121.463,156.165 156.387,121.242 156.387,78.164 L156.387,78.164 C156.387,35.085 121.463,0.162 78.385,0.162 L78.385,0.162 C35.305,0.162 0.383,35.085 0.383,78.164 L0.383,78.164 Z" id="path-51"></path>
        <path d="M0.383,78.164 C0.383,121.242 35.305,156.165 78.385,156.165 L78.385,156.165 C121.463,156.165 156.387,121.242 156.387,78.164 L156.387,78.164 C156.387,35.085 121.463,0.162 78.385,0.162 L78.385,0.162 C35.305,0.162 0.383,35.085 0.383,78.164 L0.383,78.164 Z" id="path-53"></path>
        <path d="M0.383,78.164 C0.383,121.242 35.305,156.165 78.385,156.165 L78.385,156.165 C121.463,156.165 156.387,121.242 156.387,78.164 L156.387,78.164 C156.387,35.085 121.463,0.162 78.385,0.162 L78.385,0.162 C35.305,0.162 0.383,35.085 0.383,78.164 L0.383,78.164 Z" id="path-55"></path>
        <path d="M0.383,78.164 C0.383,121.242 35.305,156.165 78.385,156.165 L78.385,156.165 C121.463,156.165 156.387,121.242 156.387,78.164 L156.387,78.164 C156.387,35.085 121.463,0.162 78.385,0.162 L78.385,0.162 C35.305,0.162 0.383,35.085 0.383,78.164 L0.383,78.164 Z" id="path-57"></path>
        <path d="M0.383,78.164 C0.383,121.242 35.305,156.165 78.385,156.165 L78.385,156.165 C121.463,156.165 156.387,121.242 156.387,78.164 L156.387,78.164 C156.387,35.085 121.463,0.162 78.385,0.162 L78.385,0.162 C35.305,0.162 0.383,35.085 0.383,78.164 L0.383,78.164 Z" id="path-59"></path>
        <path d="M0.383,78.164 C0.383,121.242 35.305,156.165 78.385,156.165 L78.385,156.165 C121.463,156.165 156.387,121.242 156.387,78.164 L156.387,78.164 C156.387,35.085 121.463,0.162 78.385,0.162 L78.385,0.162 C35.305,0.162 0.383,35.085 0.383,78.164 L0.383,78.164 Z" id="path-61"></path>
    </defs>
    <g id="Page-1" stroke="none" stroke-width="1" fill="none" fill-rule="evenodd">
        <g id="Group-94">
            <g id="Group-3" transform="translate(0.000000, 0.967000)">
                <mask id="mask-2" fill="white">
                    <use xlink:href="#path-1"></use>
                </mask>
                <g id="Clip-2"></g>
                <path d="M154.5162,78.0557 C154.5162,119.7537 120.7132,153.5557 79.0162,153.5557 C37.3182,153.5557 3.5162,119.7537 3.5162,78.0557 C3.5162,36.3587 37.3182,2.5557 79.0162,2.5557 C120.7132,2.5557 154.5162,36.3587 154.5162,78.0557" id="Fill-1" fill="#FFFFFF" mask="url(#mask-2)"></path>
            </g>
            <g id="Group-6" transform="translate(0.000000, 0.967000)">
                <mask id="mask-4" fill="white">
                    <use xlink:href="#path-3"></use>
                </mask>
                <g id="Clip-5"></g>
                <path d="M155.9703,77.9024 C155.9703,120.1524 121.7203,154.4034 79.4713,154.4034 C37.2203,154.4034 2.9703,120.1524 2.9703,77.9024 C2.9703,35.6534 37.2203,1.4034 79.4713,1.4034 C121.7203,1.4034 155.9703,35.6534 155.9703,77.9024" id="Fill-4" fill="#FFFFFF" mask="url(#mask-4)"></path>
            </g>
            <g id="Group-9" transform="translate(0.000000, 0.967000)">
                <mask id="mask-6" fill="white">
                    <use xlink:href="#path-5"></use>
                </mask>
                <g id="Clip-8"></g>
                <polygon id="Fill-7" fill="#9E223E" mask="url(#mask-6)" points="162.6568 114.0865 -0.0002 114.0865 21.1468 165.7175 82.5688 170.0005 140.8018 157.2685 160.6098 133.8625"></polygon>
            </g>
            <g id="Group-12" transform="translate(0.000000, 0.967000)">
                <mask id="mask-8" fill="white">
                    <use xlink:href="#path-7"></use>
                </mask>
                <g id="Clip-11"></g>
                <path d="M94.8941,98.1382 C94.8941,99.9362 93.4781,101.3932 91.7311,101.3932 L31.5731,101.3932 C29.8261,101.3932 28.4101,99.9362 28.4101,98.1382 L28.4101,50.8542 C28.4101,49.0552 29.8261,47.5982 31.5731,47.5982 L91.7311,47.5982 C93.4781,47.5982 94.8941,49.0552 94.8941,50.8542 L94.8941,98.1382 Z" id="Fill-10" fill="#E8364B" mask="url(#mask-8)"></path>
            </g>
            <g id="Group-15" transform="translate(0.000000, 0.967000)">
                <mask id="mask-10" fill="white">
                    <use xlink:href="#path-9"></use>
                </mask>
                <g id="Clip-14"></g>
                <path d="M124.6529,82.983 L117.7249,67.829 C116.6089,65.8 115.2169,64.573 113.4699,64.573 L98.0569,64.573 C96.3099,64.573 94.8939,66.031 94.8939,67.829 L94.8939,98.138 C94.8939,99.936 96.3099,101.393 98.0569,101.393 L112.0019,101.393 L116.7459,101.393 L126.2349,101.393 C127.9819,101.393 129.3969,99.936 129.3969,98.138 L129.3969,88.059 C129.3969,83.873 126.3999,82.983 124.6529,82.983" id="Fill-13" fill="#FFA2AB" mask="url(#mask-10)"></path>
            </g>
            <g id="Group-18" transform="translate(0.000000, 0.967000)">
                <mask id="mask-12" fill="white">
                    <use xlink:href="#path-11"></use>
                </mask>
                <g id="Clip-17"></g>
                <path d="M119.3795,82.983 L114.7815,72.925 C114.0165,71.533 113.0595,70.691 111.8595,70.691 L101.2785,70.691 C100.0795,70.691 99.1085,71.691 99.1085,72.925 L99.1085,82.983 L119.3795,82.983 Z" id="Fill-16" fill="#FFFFFF" mask="url(#mask-12)"></path>
            </g>
            <g id="Group-21" transform="translate(0.000000, 0.967000)">
                <mask id="mask-14" fill="white">
                    <use xlink:href="#path-13"></use>
                </mask>
                <g id="Clip-20"></g>
                <path d="M131.8824,102.7745 C131.8824,103.0365 131.6784,103.2465 131.4244,103.2465 L27.3624,103.2465 C27.1094,103.2465 26.9034,103.0365 26.9034,102.7745 L26.9034,98.6095 C26.9034,98.3495 27.1094,98.1385 27.3624,98.1385 L131.4244,98.1385 C131.6784,98.1385 131.8824,98.3495 131.8824,98.6095 L131.8824,102.7745 Z" id="Fill-19" fill="#FFA2AB" mask="url(#mask-14)"></path>
            </g>
            <g id="Group-24" transform="translate(0.000000, 0.967000)">
                <mask id="mask-16" fill="white">
                    <use xlink:href="#path-15"></use>
                </mask>
                <g id="Clip-23"></g>
                <path d="M52.8844,105.2662 C52.8844,110.6602 48.6364,115.0322 43.3964,115.0322 C38.1554,115.0322 33.9064,110.6602 33.9064,105.2662 C33.9064,99.8722 38.1554,95.4992 43.3964,95.4992 C48.6364,95.4992 52.8844,99.8722 52.8844,105.2662" id="Fill-22" fill="#9E223E" mask="url(#mask-16)"></path>
            </g>
            <g id="Group-27" transform="translate(0.000000, 0.967000)">
                <mask id="mask-18" fill="white">
                    <use xlink:href="#path-17"></use>
                </mask>
                <g id="Clip-26"></g>
                <path d="M47.6881,105.2662 C47.6881,107.7062 45.7661,109.6842 43.3961,109.6842 C41.0251,109.6842 39.1031,107.7062 39.1031,105.2662 C39.1031,102.8262 41.0251,100.8482 43.3961,100.8482 C45.7661,100.8482 47.6881,102.8262 47.6881,105.2662" id="Fill-25" fill="#FFFFFF" mask="url(#mask-18)"></path>
            </g>
            <g id="Group-30" transform="translate(0.000000, 0.967000)">
                <mask id="mask-20" fill="white">
                    <use xlink:href="#path-19"></use>
                </mask>
                <g id="Clip-29"></g>
                <path d="M122.8394,105.2662 C122.8394,110.6602 118.5904,115.0322 113.3504,115.0322 C108.1104,115.0322 103.8614,110.6602 103.8614,105.2662 C103.8614,99.8722 108.1104,95.4992 113.3504,95.4992 C118.5904,95.4992 122.8394,99.8722 122.8394,105.2662" id="Fill-28" fill="#9E223E" mask="url(#mask-20)"></path>
            </g>
            <g id="Group-33" transform="translate(0.000000, 0.967000)">
                <mask id="mask-22" fill="white">
                    <use xlink:href="#path-21"></use>
                </mask>
                <g id="Clip-32"></g>
                <path d="M117.6432,105.2662 C117.6432,107.7062 115.7212,109.6842 113.3512,109.6842 C110.9792,109.6842 109.0582,107.7062 109.0582,105.2662 C109.0582,102.8262 110.9792,100.8482 113.3512,100.8482 C115.7212,100.8482 117.6432,102.8262 117.6432,105.2662" id="Fill-31" fill="#FFFFFF" mask="url(#mask-22)"></path>
            </g>
            <g id="Group-36" transform="translate(0.000000, 0.967000)">
                <mask id="mask-24" fill="white">
                    <use xlink:href="#path-23"></use>
                </mask>
                <g id="Clip-35"></g>
                <path d="M74.565,77.9136 C74.565,74.7256 74.282,71.8286 73.715,69.2826 C72.072,61.8976 68.047,57.4696 61.652,57.4696 C55.33,57.4696 51.323,61.7976 49.645,69.0326 C49.041,71.6376 48.738,74.6206 48.738,77.9136 C48.738,79.3616 48.817,80.7766 48.966,82.1486 C48.987,82.1436 49.005,82.1376 49.026,82.1316 C49.025,82.1456 49.022,82.1606 49.022,82.1756 C49.022,83.7876 54.16,84.0906 55.378,83.3596 C56.935,85.3346 58.896,86.9006 61.217,88.0086 L61.652,88.2156 L62.086,88.0086 C64.398,86.9036 66.352,85.3476 67.906,83.3846 C69.064,84.1546 73.977,83.9916 74.296,82.4966 C74.319,82.3906 74.334,82.2836 74.334,82.1756 L74.334,82.1746 C74.486,80.7946 74.565,79.3706 74.565,77.9136 M61.908,87.6336 L61.652,87.7556 L61.396,87.6336 C59.099,86.5366 57.164,84.9826 55.635,83.0186 C55.638,82.9346 55.609,82.8456 55.534,82.7486 C54.32,81.1636 53.372,79.3126 52.714,77.2476 C51.6,73.7476 51.71,70.8566 51.714,70.7356 L51.734,70.2736 L52.235,70.2226 C54.918,69.9476 57.222,68.9476 58.683,68.1566 C60.248,67.3106 61.226,66.5016 61.268,66.4666 L61.653,66.1426 L62.039,66.4696 C62.141,66.5546 63.089,67.3286 64.62,68.1566 C66.081,68.9476 68.384,69.9476 71.068,70.2226 L71.57,70.2736 L71.59,70.7356 C71.594,70.8566 71.704,73.7476 70.59,77.2476 C69.933,79.3126 68.984,81.1636 67.769,82.7486 C67.694,82.8466 67.663,82.9386 67.663,83.0256 C66.136,84.9866 64.202,86.5376 61.908,87.6336" id="Fill-34" fill="#FFFFFF" mask="url(#mask-24)"></path>
            </g>
            <g id="Group-39" transform="translate(0.000000, 0.967000)">
                <mask id="mask-26" fill="white">
                    <use xlink:href="#path-25"></use>
                </mask>
                <g id="Clip-38"></g>
                <path d="M2.2926,78.1993 C2.2926,36.1343 36.3926,2.0333 78.4576,2.0333 C120.5216,2.0333 154.6226,36.1343 154.6226,78.1993 C154.6226,120.2633 120.5216,154.3643 78.4576,154.3643 C36.3926,154.3643 2.2926,120.2633 2.2926,78.1993 Z" id="Stroke-37" stroke="#FFD8DD" stroke-width="4" mask="url(#mask-26)"></path>
            </g>
            <g id="Group-42" transform="translate(0.000000, 0.967000)">
                <mask id="mask-28" fill="white">
                    <use xlink:href="#path-27"></use>
                </mask>
                <g id="Clip-41"></g>
                <path d="M91.6305,21.0172 L91.6305,21.0172 C90.9015,20.9062 90.4005,20.2242 90.5125,19.4952 L90.6825,18.3842 C90.7935,17.6552 91.4755,17.1542 92.2045,17.2662 C92.9345,17.3772 93.4355,18.0592 93.3225,18.7882 L93.1525,19.8982 C93.0415,20.6282 92.3595,21.1292 91.6305,21.0172" id="Fill-40" fill="#9E223E" mask="url(#mask-28)"></path>
            </g>
            <g id="Group-45" transform="translate(0.000000, 0.967000)">
                <mask id="mask-30" fill="white">
                    <use xlink:href="#path-29"></use>
                </mask>
                <g id="Clip-44"></g>
                <polygon id="Fill-43" fill="#FFA2AB" mask="url(#mask-30)" points="87.2125 28.3507 85.6035 28.1047 85.8655 26.3827 87.4765 26.6287"></polygon>
            </g>
            <g id="Group-48" transform="translate(0.000000, 0.967000)">
                <mask id="mask-32" fill="white">
                    <use xlink:href="#path-31"></use>
                </mask>
                <g id="Clip-47"></g>
                <polygon id="Fill-46" fill="#FFA2AB" mask="url(#mask-32)" points="89.8961 28.7613 88.2871 28.5153 88.5501 26.7933 90.1601 27.0393"></polygon>
            </g>
            <g id="Group-51" transform="translate(0.000000, 0.967000)">
                <mask id="mask-34" fill="white">
                    <use xlink:href="#path-33"></use>
                </mask>
                <g id="Clip-50"></g>
                <polygon id="Fill-49" fill="#FFA2AB" mask="url(#mask-34)" points="86.8033 31.0303 85.1933 30.7833 85.4553 29.0623 87.0663 29.3083"></polygon>
            </g>
            <g id="Group-54" transform="translate(0.000000, 0.967000)">
                <mask id="mask-36" fill="white">
                    <use xlink:href="#path-35"></use>
                </mask>
                <g id="Clip-53"></g>
                <polygon id="Fill-52" fill="#FFA2AB" mask="url(#mask-36)" points="89.4869 31.4405 87.8769 31.1945 88.1399 29.4725 89.7499 29.7185"></polygon>
            </g>
            <g id="Group-57" transform="translate(0.000000, 0.967000)">
                <mask id="mask-38" fill="white">
                    <use xlink:href="#path-37"></use>
                </mask>
                <g id="Clip-56"></g>
                <polygon id="Fill-55" fill="#FFA2AB" mask="url(#mask-38)" points="86.3932 33.7095 84.7832 33.4625 85.0462 31.7415 86.6572 31.9875"></polygon>
            </g>
            <g id="Group-60" transform="translate(0.000000, 0.967000)">
                <mask id="mask-40" fill="white">
                    <use xlink:href="#path-39"></use>
                </mask>
                <g id="Clip-59"></g>
                <path d="M93.0182,40.6778 L71.0122,37.3108 C69.9882,37.1548 69.2822,36.1938 69.4382,35.1708 L72.2262,16.9508 C72.3822,15.9278 73.3432,15.2218 74.3682,15.3788 L77.5872,15.8718 L77.1832,18.5128 L74.7472,18.1398 L72.2002,34.7898 L92.6382,37.9158 L95.1852,21.2668 L92.7482,20.8938 L93.1532,18.2528 L96.3732,18.7458 C97.3982,18.9028 98.1032,19.8628 97.9472,20.8858 L95.1602,39.1058 C95.0022,40.1288 94.0422,40.8338 93.0182,40.6778" id="Fill-58" fill="#E7364B" mask="url(#mask-40)"></path>
            </g>
            <g id="Group-63" transform="translate(0.000000, 0.967000)">
                <mask id="mask-42" fill="white">
                    <use xlink:href="#path-41"></use>
                </mask>
                <g id="Clip-62"></g>
                <polygon id="Fill-61" fill="#E7364B" mask="url(#mask-42)" points="95.8492 25.755 72.7712 22.224 73.1742 19.583 96.2532 23.113"></polygon>
            </g>
            <g id="Group-66" transform="translate(0.000000, 0.967000)">
                <mask id="mask-44" fill="white">
                    <use xlink:href="#path-43"></use>
                </mask>
                <g id="Clip-65"></g>
                <polygon id="Fill-64" fill="#E7364B" mask="url(#mask-44)" points="90.6012 20.566 79.3302 18.841 79.7352 16.2 91.0052 17.924"></polygon>
            </g>
            <g id="Group-69" transform="translate(0.000000, 0.967000)">
                <mask id="mask-46" fill="white">
                    <use xlink:href="#path-45"></use>
                </mask>
                <g id="Clip-68"></g>
                <path d="M78.2135,18.9649 L78.2135,18.9649 C77.4845,18.8529 76.9835,18.1719 77.0945,17.4419 L77.2645,16.3319 C77.3755,15.6019 78.0585,15.1009 78.7865,15.2129 C79.5165,15.3239 80.0175,16.0069 79.9055,16.7359 L79.7355,17.8459 C79.6245,18.5749 78.9425,19.0759 78.2135,18.9649" id="Fill-67" fill="#9E223E" mask="url(#mask-46)"></path>
            </g>
            <g id="Group-72" transform="translate(0.000000, 0.967000)">
                <mask id="mask-48" fill="white">
                    <use xlink:href="#path-47"></use>
                </mask>
                <g id="Clip-71"></g>
                <polygon id="Fill-70" fill="#FFA2AB" mask="url(#mask-48)" points="81.8463 27.5299 80.2363 27.2829 80.4993 25.5619 82.1103 25.8079"></polygon>
            </g>
            <g id="Group-75" transform="translate(0.000000, 0.967000)">
                <mask id="mask-50" fill="white">
                    <use xlink:href="#path-49"></use>
                </mask>
                <g id="Clip-74"></g>
                <polygon id="Fill-73" fill="#FFA2AB" mask="url(#mask-50)" points="84.5299 27.9405 82.9199 27.6935 83.1829 25.9725 84.7939 26.2185"></polygon>
            </g>
            <g id="Group-78" transform="translate(0.000000, 0.967000)">
                <mask id="mask-52" fill="white">
                    <use xlink:href="#path-51"></use>
                </mask>
                <g id="Clip-77"></g>
                <polygon id="Fill-76" fill="#FFA2AB" mask="url(#mask-52)" points="78.7525 29.7984 77.1435 29.5524 77.4065 27.8304 79.0165 28.0764"></polygon>
            </g>
            <g id="Group-81" transform="translate(0.000000, 0.967000)">
                <mask id="mask-54" fill="white">
                    <use xlink:href="#path-53"></use>
                </mask>
                <g id="Clip-80"></g>
                <polygon id="Fill-79" fill="#FFA2AB" mask="url(#mask-54)" points="81.4371 30.2091 79.8271 29.9631 80.0891 28.2411 81.7001 28.4871"></polygon>
            </g>
            <g id="Group-84" transform="translate(0.000000, 0.967000)">
                <mask id="mask-56" fill="white">
                    <use xlink:href="#path-55"></use>
                </mask>
                <g id="Clip-83"></g>
                <polygon id="Fill-82" fill="#FFA2AB" mask="url(#mask-56)" points="84.1197 30.6197 82.5107 30.3727 82.7727 28.6517 84.3837 28.8977"></polygon>
            </g>
            <g id="Group-87" transform="translate(0.000000, 0.967000)">
                <mask id="mask-58" fill="white">
                    <use xlink:href="#path-57"></use>
                </mask>
                <g id="Clip-86"></g>
                <polygon id="Fill-85" fill="#FFA2AB" mask="url(#mask-58)" points="78.3424 32.4776 76.7334 32.2316 76.9964 30.5096 78.6064 30.7556"></polygon>
            </g>
            <g id="Group-90" transform="translate(0.000000, 0.967000)">
                <mask id="mask-60" fill="white">
                    <use xlink:href="#path-59"></use>
                </mask>
                <g id="Clip-89"></g>
                <polygon id="Fill-88" fill="#FFA2AB" mask="url(#mask-60)" points="81.0269 32.8883 79.4169 32.6423 79.6799 30.9203 81.2909 31.1663"></polygon>
            </g>
            <g id="Group-93" transform="translate(0.000000, 0.967000)">
                <mask id="mask-62" fill="white">
                    <use xlink:href="#path-61"></use>
                </mask>
                <g id="Clip-92"></g>
                <polygon id="Fill-91" fill="#FFA2AB" mask="url(#mask-62)" points="83.7105 33.2989 82.1005 33.0529 82.3635 31.3309 83.9735 31.5769"></polygon>
            </g>
        </g>
    </g>
</svg>