<?xml version="1.0" encoding="UTF-8"?>
<svg width="157px" height="157px" viewBox="0 0 157 157" version="1.1" xmlns="http://www.w3.org/2000/svg" xmlns:xlink="http://www.w3.org/1999/xlink">
    <title>Group 58</title>
    <g id="Page-1" stroke="none" stroke-width="1" fill="none" fill-rule="evenodd">
        <g id="Group-55" transform="translate(2.000000, 2.000000)">
            <path d="M151.6628,77.1947 C151.6628,118.8927 117.8598,152.6947 76.1628,152.6947 C34.4648,152.6947 0.6628,118.8927 0.6628,77.1947 C0.6628,35.4977 34.4648,1.6947 76.1628,1.6947 C117.8598,1.6947 151.6628,35.4977 151.6628,77.1947" id="Fill-1" fill="#FFFFFF"></path>
            <polygon id="Fill-3" fill="#FFD8DD" points="91.1892 69.5644 60.6262 80.4864 42.4852 28.6054 79.9152 15.2294 95.6952 60.3594"></polygon>
            <polygon id="Fill-5" fill="#E8364B" points="91.1892 68.9125 88.7802 62.2905 95.8072 59.8765"></polygon>
            <path d="M51.6824,33.7558 C51.0574,33.7558 50.4764,33.3178 50.2664,32.6248 C50.0054,31.7568 50.4294,30.8188 51.2104,30.5298 L74.1974,22.0328 C74.9844,21.7358 75.8234,22.2148 76.0854,23.0798 C76.3464,23.9468 75.9224,24.8848 75.1414,25.1728 L52.1554,33.6708 C51.9974,33.7288 51.8384,33.7558 51.6824,33.7558" id="Fill-7" fill="#FFFFFF"></path>
            <path d="M53.6667,41.4648 C53.3167,41.4648 52.9927,41.2338 52.8747,40.8678 C52.7297,40.4098 52.9667,39.9158 53.4027,39.7628 L66.2537,35.2798 C66.6927,35.1238 67.1627,35.3758 67.3097,35.8328 C67.4547,36.2898 67.2177,36.7848 66.7807,36.9368 L53.9317,41.4198 C53.8437,41.4508 53.7537,41.4648 53.6667,41.4648" id="Fill-9" fill="#FFFFFF"></path>
            <path d="M54.989,45.5556 C54.639,45.5556 54.314,45.3246 54.197,44.9586 C54.052,44.5006 54.288,44.0066 54.724,43.8536 L67.575,39.3706 C68.014,39.2146 68.484,39.4666 68.631,39.9236 C68.776,40.3806 68.54,40.8756 68.102,41.0276 L55.253,45.5106 C55.165,45.5416 55.076,45.5556 54.989,45.5556" id="Fill-11" fill="#FFFFFF"></path>
            <path d="M56.9617,50.018 C56.6117,50.018 56.2867,49.787 56.1697,49.421 C56.0247,48.963 56.2607,48.469 56.6977,48.316 L69.5477,43.833 C69.9877,43.677 70.4567,43.929 70.6037,44.386 C70.7487,44.843 70.5127,45.338 70.0757,45.49 L57.2257,49.973 C57.1377,50.004 57.0487,50.018 56.9617,50.018" id="Fill-13" fill="#FFFFFF"></path>
            <path d="M58.283,54.1088 C57.933,54.1088 57.608,53.8778 57.491,53.5118 C57.346,53.0538 57.583,52.5598 58.019,52.4068 L70.869,47.9238 C71.309,47.7668 71.778,48.0198 71.926,48.4758 C72.071,48.9338 71.834,49.4278 71.397,49.5808 L58.548,54.0638 C58.459,54.0938 58.37,54.1088 58.283,54.1088" id="Fill-15" fill="#FFFFFF"></path>
            <path d="M60.6326,58.9018 C60.2826,58.9018 59.9576,58.6708 59.8406,58.3048 C59.6956,57.8468 59.9316,57.3528 60.3686,57.1998 L73.2186,52.7168 C73.6586,52.5608 74.1276,52.8128 74.2746,53.2698 C74.4196,53.7268 74.1836,54.2218 73.7466,54.3738 L60.8966,58.8568 C60.8086,58.8878 60.7196,58.9018 60.6326,58.9018" id="Fill-17" fill="#FFFFFF"></path>
            <path d="M61.9539,62.9926 C61.6039,62.9926 61.2789,62.7616 61.1619,62.3956 C61.0169,61.9376 61.2539,61.4436 61.6899,61.2906 L74.5399,56.8076 C74.9799,56.6506 75.4489,56.9036 75.5969,57.3596 C75.7419,57.8176 75.5049,58.3126 75.0679,58.4646 L62.2189,62.9476 C62.1309,62.9786 62.0409,62.9926 61.9539,62.9926" id="Fill-19" fill="#FFFFFF"></path>
            <path d="M90.4636,34.8256 L80.6356,56.8736 L81.1696,61.3846 C81.2246,61.8406 81.7096,62.0806 82.0746,61.8346 L85.7086,59.3926 L95.5366,37.3446 C95.9256,36.4716 95.5706,35.4306 94.7436,35.0206 L92.6656,33.9886 C91.8386,33.5776 90.8536,33.9526 90.4636,34.8256" id="Fill-21" fill="#9E223E"></path>
            <polygon id="Fill-23" fill="#FFFFFF" points="89.7205 36.4936 88.7805 38.6036 93.9295 40.9506 94.9225 38.7216"></polygon>
            <path d="M72.5007,64.0922 C72.7187,65.9712 73.5387,67.7632 74.7937,69.1722 C74.8997,68.3122 74.7017,67.3382 74.2187,66.4102 C73.7727,65.5572 73.1477,64.8062 72.5007,64.0922 M72.2957,72.1772 C72.2337,72.1772 72.1727,72.1752 72.1097,72.1702 C71.0907,72.0912 70.1087,71.3612 69.6087,70.3112 C69.2087,69.4712 69.0837,68.4372 69.2347,67.2372 C69.3107,66.6492 69.4857,65.8122 70.1277,65.3272 C70.2197,65.2572 70.3487,65.2572 70.4397,65.3262 C71.4707,66.0972 72.3797,67.0112 73.1417,68.0442 C73.2277,68.1602 73.2027,68.3232 73.0867,68.4092 C72.9707,68.4932 72.8087,68.4712 72.7217,68.3542 C72.0317,67.4192 71.2167,66.5852 70.2967,65.8722 C70.0147,66.1652 69.8387,66.6272 69.7527,67.3022 C69.6127,68.4022 69.7237,69.3392 70.0797,70.0872 C70.5007,70.9712 71.3137,71.5852 72.1507,71.6512 C73.2027,71.7302 74.2817,70.9322 74.6567,69.7902 C73.0087,68.0772 71.9997,65.7622 71.9257,63.3722 C71.9227,63.2632 71.9857,63.1642 72.0867,63.1232 C72.1867,63.0832 72.3037,63.1072 72.3777,63.1872 C73.2177,64.0942 74.0877,65.0322 74.6807,66.1692 C75.2977,67.3522 75.4917,68.5712 75.2407,69.6392 C75.6547,70.0432 76.1087,70.4072 76.5977,70.7242 C76.9287,70.9382 77.3217,71.0442 77.5607,70.9812 C77.6547,70.9562 77.7177,70.9062 77.7597,70.8242 C77.8107,70.7262 77.8157,70.5872 77.7747,70.3752 C77.6227,69.5482 77.1857,68.8332 76.5967,68.1402 C76.5697,68.1422 76.5397,68.1452 76.5107,68.1442 C75.9527,68.1442 75.5307,67.6542 75.3177,66.7572 C75.2917,66.6442 75.3427,66.5272 75.4427,66.4702 C75.5447,66.4132 75.6707,66.4292 75.7527,66.5092 C76.1057,66.8522 76.4447,67.1882 76.7537,67.5282 C76.8797,67.4222 76.9677,67.2412 76.9827,67.0712 C77.0147,66.7642 76.8927,66.4362 76.7737,66.1402 C76.7657,66.1202 76.7587,66.1002 76.7507,66.0802 C76.6967,65.9462 76.7627,65.7952 76.8967,65.7422 C77.0267,65.6922 77.1827,65.7542 77.2347,65.8872 C77.2427,65.9082 77.2517,65.9282 77.2597,65.9492 C77.3847,66.2572 77.5377,66.5582 77.7857,66.7352 C77.9957,66.8862 78.3427,66.9212 78.5047,66.7322 C78.5377,66.6922 78.5637,66.6472 78.5917,66.6022 C78.6497,66.5062 78.7177,66.3962 78.8277,66.3072 C79.0217,66.1512 79.2597,66.1272 79.4857,66.1242 C80.1847,66.1152 80.8607,66.2102 81.5227,66.4052 C81.6607,66.4462 81.7397,66.5922 81.6997,66.7302 C81.6587,66.8672 81.5187,66.9472 81.3747,66.9062 C80.7647,66.7252 80.1547,66.6322 79.4917,66.6462 C79.3587,66.6472 79.2257,66.6562 79.1547,66.7132 C79.1137,66.7462 79.0787,66.8052 79.0367,66.8732 C78.9947,66.9422 78.9527,67.0102 78.8987,67.0712 C78.5427,67.4882 77.8977,67.4462 77.4967,67.1702 C77.4577,67.4492 77.3137,67.7332 77.0947,67.9222 C77.6847,68.6392 78.1247,69.3922 78.2887,70.2792 C78.3297,70.5032 78.3607,70.7952 78.2247,71.0622 C78.1137,71.2762 77.9307,71.4222 77.6927,71.4852 C77.2347,71.6092 76.6617,71.3872 76.3137,71.1622 C75.8687,70.8732 75.4517,70.5472 75.0637,70.1902 C74.5767,71.3622 73.4437,72.1772 72.2957,72.1772" id="Fill-25" fill="#E8364B"></path>
            <path d="M-0.0002,76.4999 C-0.0002,34.2499 34.2498,-0.0001 76.4998,-0.0001 C118.7498,-0.0001 152.9998,34.2499 152.9998,76.4999 C152.9998,118.7499 118.7498,152.9999 76.4998,152.9999 C34.2498,152.9999 -0.0002,118.7499 -0.0002,76.4999 Z" id="Stroke-27" stroke="#FFD8DD" stroke-width="4"></path>
            <path d="M123.1882,89.9696 C122.8562,89.9696 122.5362,89.7886 122.3752,89.4736 C122.1432,89.0246 122.3212,88.4746 122.7702,88.2446 L133.4582,82.7686 C133.9082,82.5396 134.4582,82.7156 134.6882,83.1646 C134.9192,83.6126 134.7422,84.1626 134.2922,84.3926 L123.6042,89.8686 C123.4712,89.9376 123.3292,89.9696 123.1882,89.9696" id="Fill-29" fill="#E8364B"></path>
            <path d="M133.5779,84.7543 C133.4049,84.7543 133.2329,84.7043 133.0809,84.6003 C132.6829,84.3273 132.5849,83.7853 132.8589,83.3913 L135.2809,79.9143 C135.5569,79.5193 136.1019,79.4203 136.4989,79.6933 C136.8959,79.9673 136.9959,80.5083 136.7199,80.9033 L134.2979,84.3803 C134.1289,84.6233 133.8549,84.7543 133.5779,84.7543" id="Fill-31" fill="#E8364B"></path>
            <path d="M139.0603,86.8402 C138.9633,86.8402 138.8653,86.8252 138.7673,86.7962 L134.3993,85.4512 C133.9033,85.2982 133.6313,84.7952 133.7933,84.3262 C133.9553,83.8592 134.4883,83.6032 134.9843,83.7552 L139.3523,85.0992 C139.8493,85.2512 140.1203,85.7562 139.9583,86.2242 C139.8283,86.6002 139.4573,86.8402 139.0603,86.8402" id="Fill-33" fill="#E8364B"></path>
            <path d="M135.615,84.7543 C135.315,84.7543 135.027,84.5583 134.881,84.2173 C134.674,83.7323 134.833,83.1363 135.238,82.8863 L138.805,80.6913 C139.21,80.4423 139.706,80.6333 139.914,81.1193 C140.122,81.6053 139.963,82.2013 139.556,82.4503 L135.99,84.6463 C135.87,84.7193 135.741,84.7543 135.615,84.7543" id="Fill-35" fill="#E8364B"></path>
            <path d="M47.8074,111.8734 L44.4534,111.8734 C33.9024,111.8734 25.2704,103.4564 25.2704,93.1684 L25.2704,89.8984 C25.2704,79.6114 33.9024,71.1944 44.4534,71.1944 L47.8074,71.1944 C58.3594,71.1944 66.9924,79.6114 66.9924,89.8984 L66.9924,93.1684 C66.9924,103.4564 58.3594,111.8734 47.8074,111.8734" id="Fill-37" fill="#E8364B"></path>
            <path d="M56.0476,95.8715 C56.0476,93.4725 55.8296,91.2925 55.3956,89.3765 C54.1336,83.8185 51.0426,80.4865 46.1306,80.4865 C41.2756,80.4865 38.1986,83.7435 36.9106,89.1885 C36.4456,91.1495 36.2146,93.3935 36.2146,95.8715 C36.2146,96.9615 36.2746,98.0265 36.3886,99.0595 C36.4046,99.0555 36.4186,99.0505 36.4356,99.0465 C36.4346,99.0575 36.4326,99.0685 36.4326,99.0795 C36.4326,100.2915 40.3776,100.5195 41.3136,99.9705 C42.5086,101.4565 44.0146,102.6345 45.7976,103.4685 L46.1306,103.6245 L46.4656,103.4685 C48.2396,102.6385 49.7406,101.4665 50.9336,99.9885 C51.8226,100.5685 55.5956,100.4465 55.8406,99.3205 C55.8586,99.2405 55.8706,99.1595 55.8706,99.0795 L55.8706,99.0785 C55.9856,98.0405 56.0476,96.9685 56.0476,95.8715 M46.3266,103.1865 L46.1306,103.2785 L45.9346,103.1865 C44.1706,102.3615 42.6846,101.1925 41.5106,99.7135 C41.5126,99.6505 41.4886,99.5835 41.4316,99.5105 C40.4996,98.3175 39.7716,96.9245 39.2676,95.3715 C38.4116,92.7365 38.494696,90.5615 38.4986,90.4705 L38.5136,90.1225 L38.8996,90.0835 C40.9586,89.8765 42.7296,89.1235 43.8516,88.5295 C45.0526,87.8925 45.8036,87.2835 45.8366,87.2575 L46.1316,87.0135 L46.4276,87.2595 C46.5066,87.3235 47.2346,87.9055 48.4106,88.5295 C49.5316,89.1235 51.3016,89.8765 53.3616,90.0835 L53.7476,90.1225 L53.7626,90.4705 C53.7676,90.5615 53.8506,92.7365 52.9946,95.3715 C52.4896,96.9245 51.7616,98.3175 50.8296,99.5105 C50.7716,99.5845 50.7476,99.6535 50.7476,99.7185 C49.5736,101.1945 48.0896,102.3615 46.3266,103.1865" id="Fill-39" fill="#FFFFFF"></path>
            <path d="M36.7429,123.3471 C36.1669,123.3471 35.7009,122.9561 35.7009,122.4751 L35.7009,110.6591 C35.7009,110.1781 36.1669,109.7871 36.7429,109.7871 C37.3199,109.7871 37.7869,110.1781 37.7869,110.6591 L37.7869,122.4751 C37.7869,122.9561 37.3199,123.3471 36.7429,123.3471" id="Fill-41" fill="#E8364B"></path>
            <path d="M53.4324,123.3471 C52.8564,123.3471 52.3894,122.9561 52.3894,122.4751 L52.3894,110.6591 C52.3894,110.1781 52.8564,109.7871 53.4324,109.7871 C54.0094,109.7871 54.4754,110.1781 54.4754,110.6591 L54.4754,122.4751 C54.4754,122.9561 54.0094,123.3471 53.4324,123.3471" id="Fill-43" fill="#E8364B"></path>
            <path d="M98.283,123.3471 C97.707,123.3471 97.24,122.9561 97.24,122.4751 L97.24,110.6591 C97.24,110.1781 97.707,109.7871 98.283,109.7871 C98.859,109.7871 99.326,110.1781 99.326,110.6591 L99.326,122.4751 C99.326,122.9561 98.859,123.3471 98.283,123.3471" id="Fill-45" fill="#E8364B"></path>
            <path d="M114.9724,123.3471 C114.3964,123.3471 113.9284,122.8661 113.9284,122.2731 L113.9284,107.7311 C113.9284,107.1391 114.3964,106.6581 114.9724,106.6581 C115.5484,106.6581 116.0154,107.1391 116.0154,107.7311 L116.0154,122.2731 C116.0154,122.8661 115.5484,123.3471 114.9724,123.3471" id="Fill-47" fill="#E8364B"></path>
            <path d="M108.3035,111.8734 L104.9505,111.8734 C94.3995,111.8734 85.7665,103.4564 85.7665,93.1684 L85.7665,89.8984 C85.7665,79.6114 94.3995,71.1944 104.9505,71.1944 L108.3035,71.1944 C118.8565,71.1944 127.4895,79.6114 127.4895,89.8984 L127.4895,93.1684 C127.4895,103.4564 118.8565,111.8734 108.3035,111.8734" id="Fill-49" fill="#E8364B"></path>
            <path d="M115.1716,86.4389 C114.3976,85.3889 113.1656,84.7869 111.4006,84.5889 C111.2566,84.5709 111.1116,84.5649 110.9616,84.5649 C109.3936,84.5649 107.6176,85.3649 106.6286,86.8739 C105.6336,85.3649 103.8586,84.5649 102.2956,84.5649 C102.1456,84.5649 101.9956,84.5709 101.8566,84.5889 C100.0926,84.7869 98.8606,85.3889 98.0836,86.4319 C97.3216,87.4709 97.0726,88.8959 97.3506,90.6679 C97.7666,93.2699 101.1336,96.5319 103.8336,99.1569 C104.6146,99.9149 105.3156,100.5939 105.7736,101.1039 C105.7736,101.1039 106.2336,101.6329 106.6686,101.6329 C107.0976,101.6329 107.5496,101.0969 107.5496,101.0969 C108.0006,100.5889 108.6986,99.9019 109.4816,99.1389 C112.1576,96.5219 115.4896,93.2629 115.9016,90.6679 C116.1856,88.8959 115.9366,87.4779 115.1716,86.4389" id="Fill-51" fill="#FFFFFF"></path>
            <polyline id="Stroke-53" stroke="#E7364B" stroke-width="2.2" stroke-linecap="round" stroke-linejoin="round" points="64.906 91.5668 73.313 96.2278 86.809 91.0128"></polyline>
        </g>
    </g>
</svg>