<?xml version="1.0" encoding="UTF-8"?>
<svg width="158px" height="158px" viewBox="0 0 158 158" version="1.1" xmlns="http://www.w3.org/2000/svg" xmlns:xlink="http://www.w3.org/1999/xlink">
    <title>Group 40</title>
    <g id="Page-1" stroke="none" stroke-width="1" fill="none" fill-rule="evenodd">
        <g id="Group" transform="translate(2.000000, 2.000000)">
            <circle id="Oval" fill="#FFFFFF" cx="77.5" cy="76.5" r="76.5"></circle>
            <g id="Group-63">
                <path d="M135.595,81.8578 L105.367,92.4678 C101.163,93.9438 96.508,91.7358 95.022,87.5618 L79.859,44.9648 C78.372,40.7908 80.595,36.1698 84.8,34.6928 L115.028,24.0838 C119.231,22.6078 123.887,24.8158 125.372,28.9898 L140.537,71.5858 C142.022,75.7588 139.799,80.3818 135.595,81.8578" id="Fill-1" fill="#E8364B"></path>
                <polygon id="Fill-3" fill="#FFFFFF" points="130.9031 79.5673 101.6021 90.0383 84.2091 40.2983 120.0931 27.4753 135.2231 70.7423"></polygon>
                <path d="M109.8015,31.892 L94.9285,36.988 C93.8715,37.35 92.7015,36.809 92.3285,35.784 L91.0635,32.315 C90.6895,31.291 91.2485,30.157 92.3055,29.795 L107.1775,24.7 C108.2355,24.338 109.4055,24.879 109.7785,25.904 L111.0435,29.371 C111.4175,30.396 110.8585,31.53 109.8015,31.892" id="Fill-5" fill="#D82745"></path>
                <polygon id="Fill-7" fill="#FFD8DD" points="130.7952 78.4882 128.4852 72.1402 135.2232 69.8252"></polygon>
                <polyline id="Stroke-9" stroke="#FFA2AB" stroke-width="1.5" stroke-linecap="round" stroke-linejoin="round" points="109.7717 69.8256 113.0847 79.0256 103.8857 82.3386 100.5717 73.1386 109.7717 69.8256"></polyline>
                <path d="M116.7327,51.5375 L107.3097,72.6755 L107.8227,77.0005 C107.8747,77.4365 108.3397,77.6675 108.6907,77.4315 L112.1737,75.0905 L121.5967,53.9525 C121.9687,53.1155 121.6287,52.1185 120.8357,51.7245 L118.8437,50.7355 C118.0507,50.3415 117.1057,50.7005 116.7327,51.5375" id="Fill-11" fill="#E8364B"></path>
                <path d="M121.8948,55.3881 C121.7788,55.3881 121.6608,55.3641 121.5488,55.3131 L116.4408,53.0191 C116.0338,52.8361 115.8588,52.3731 116.0498,51.9841 C116.2428,51.5961 116.7278,51.4291 117.1328,51.6121 L122.2418,53.9071 C122.6488,54.0901 122.8238,54.5531 122.6328,54.9411 C122.4938,55.2231 122.2008,55.3881 121.8948,55.3881" id="Fill-13" fill="#FFD8DD"></path>
                <polygon id="Stroke-15" stroke="#FFA2AB" stroke-width="1.5" stroke-linecap="round" stroke-linejoin="round" points="102.4973 50.1498 93.2973 53.4628 89.9843 44.2638 99.1843 40.9498"></polygon>
                <polygon id="Stroke-17" stroke="#FFA2AB" stroke-width="1.5" stroke-linecap="round" stroke-linejoin="round" points="108.2722 64.5883 99.0722 67.9013 95.7592 58.7013 104.9592 55.3883"></polygon>
                <polyline id="Stroke-19" stroke="#FFA2AB" stroke-width="1.5" stroke-linecap="round" stroke-linejoin="round" points="98.6472 60.829 101.9362 63.088 104.4222 55.388"></polyline>
                <polyline id="Stroke-21" stroke="#FFA2AB" stroke-width="1.5" stroke-linecap="round" stroke-linejoin="round" points="93.8347 46.3915 97.1247 48.6505 99.6097 40.9505"></polyline>
                <line x1="106.3474" y1="42.8754" x2="117.8974" y2="39.0254" id="Stroke-23" stroke="#FFA2AB" stroke-width="1.5" stroke-linecap="round" stroke-linejoin="round"></line>
                <line x1="117.8977" y1="72.7133" x2="129.4477" y2="68.8633" id="Stroke-25" stroke="#FFA2AB" stroke-width="1.5" stroke-linecap="round" stroke-linejoin="round"></line>
                <path d="M44.6384,40.3535 C41.5364,40.9745 38.6164,42.3565 36.3304,44.5825 C31.7844,49.0115 30.9134,55.1485 30.3944,61.0965 C29.8284,67.5855 29.1594,74.0105 24.9244,79.3435 C21.6264,83.4965 17.8484,87.5205 15.9004,92.4905 C12.5354,101.0675 13.2544,112.0925 22.3664,116.8455 C26.3154,118.9065 30.8954,119.5565 35.3794,119.6065 C42.5494,119.6865 50.0274,118.1695 55.5644,113.7495 C57.9214,111.8685 59.8474,109.5275 61.5434,107.0665 C71.2294,93.0165 75.5014,74.4965 70.3524,58.0485 C67.8054,49.9175 62.6514,42.9435 53.8494,40.6415 C50.8884,39.8675 47.6754,39.7455 44.6384,40.3535" id="Fill-27" fill="#9E223E"></path>
                <path d="M65.8967,87.6933 L55.6997,85.2423 L55.2797,78.4613 L43.6117,69.7453 L43.2867,85.0173 C43.2867,85.0173 31.0837,88.4583 30.9807,88.5563 C41.5647,103.5593 62.2077,93.5543 65.8967,87.6933" id="Fill-29" fill="#F5C7A3"></path>
                <path d="M61.0608,62.6015 C61.0608,62.6015 61.6638,60.7625 62.5988,61.4135 C63.5328,62.0645 63.4088,69.5615 60.5588,69.9885 C57.7088,70.4155 61.0608,62.6015 61.0608,62.6015" id="Fill-31" fill="#EEC0BD"></path>
                <path d="M37.5261,62.6015 C37.5261,62.6015 36.9231,60.7625 35.9891,61.4135 C35.0541,62.0645 35.1781,69.5615 38.0281,69.9885 C40.8791,70.4155 37.5261,62.6015 37.5261,62.6015" id="Fill-33" fill="#EEC0BD"></path>
                <path d="M40.6848,50.2402 L49.2728,47.2962 L57.8598,50.2402 L61.1808,54.9782 L61.1388,64.1682 C61.1388,64.1682 61.0678,68.7622 60.3898,70.6292 C59.7128,72.4962 57.0408,80.6452 49.2728,81.0752 C41.5038,80.6452 38.8318,72.4962 38.1548,70.6292 C37.4778,68.7622 37.4058,64.1682 37.4058,64.1682 L37.4148,54.9782 L40.6848,50.2402 Z" id="Fill-35" fill="#F5C7A3"></path>
                <path d="M51.842,71.6987 C51.771,73.0567 50.649,74.1367 49.272,74.1367 C47.894,74.1367 46.771,73.0567 46.701,71.6987 L51.842,71.6987 Z" id="Fill-37" fill="#FFFFFF"></path>
                <path d="M61.1809,59.7421 C59.7049,57.9601 58.3989,55.6971 57.3729,52.6351 C57.3729,52.6351 55.0419,57.1581 48.6249,58.3961 C48.6249,58.3961 49.9209,57.4811 50.4049,56.6191 C50.4049,56.6191 47.1049,59.1411 41.7579,59.2001 C41.7579,59.2001 43.6269,58.5941 44.2379,57.7681 C44.2379,57.7681 37.7779,58.4161 37.2859,60.4441 L36.0759,56.9071 L37.0829,51.7011 L38.5389,49.4581 L43.7959,45.4201 L50.4049,44.1271 L57.3729,46.8191 L60.2739,48.5421 L62.8799,52.9581 L61.6219,56.8891 L61.1809,59.7421 Z" id="Fill-39" fill="#9E223E"></path>
                <path d="M25.824,90.52 C27.315,88.957 31.208,88.006 36.124,86.803 C47.339,89.858 56.81,88.574 61.985,86.44 C66.816,87.312 72.392,88.479 73.883,90.043 C75.827,92.08 65.897,153.5 65.897,153.5 L28.693,136.319 C28.693,136.319 23.881,92.557 25.824,90.52" id="Fill-41" fill="#E8364B"></path>
                <path d="M56.8445,70.8622 C53.7295,70.8622 51.1945,68.3312 51.1945,65.2202 C51.1945,62.1102 53.7295,59.5782 56.8445,59.5782 C59.9605,59.5782 62.4955,62.1102 62.4955,65.2202 C62.4955,68.3312 59.9605,70.8622 56.8445,70.8622 M56.8445,60.0712 C54.0015,60.0712 51.6875,62.3812 51.6875,65.2202 C51.6875,68.0592 54.0015,70.3692 56.8445,70.3692 C59.6875,70.3692 62.0015,68.0592 62.0015,65.2202 C62.0015,62.3812 59.6875,60.0712 56.8445,60.0712" id="Fill-43" fill="#FFFFFF"></path>
                <path d="M42.0442,70.8622 C38.9282,70.8622 36.3942,68.3312 36.3942,65.2202 C36.3942,62.1102 38.9282,59.5782 42.0442,59.5782 C45.1602,59.5782 47.6952,62.1102 47.6952,65.2202 C47.6952,68.3312 45.1602,70.8622 42.0442,70.8622 M42.0442,60.0712 C39.2012,60.0712 36.8862,62.3812 36.8862,65.2202 C36.8862,68.0592 39.2012,70.3692 42.0442,70.3692 C44.8872,70.3692 47.2012,68.0592 47.2012,65.2202 C47.2012,62.3812 44.8872,60.0712 42.0442,60.0712" id="Fill-45" fill="#FFFFFF"></path>
                <path d="M47.0129,63.059 L46.8709,62.587 C48.6909,62.042 50.3959,62.043 51.9389,62.59 L51.7739,63.055 C50.3319,62.543 48.7299,62.545 47.0129,63.059" id="Fill-47" fill="#FFFFFF"></path>
                <path d="M73.5061,134.4838 C68.7301,135.0048 48.0451,134.1688 32.7051,134.2918 C32.7051,134.2918 25.6241,135.2358 24.8991,128.6098 C24.7601,123.2468 29.5481,121.2768 31.8931,121.3198 C33.8711,121.3078 71.9821,126.3218 71.9821,126.3218 L73.5061,134.4838 Z" id="Fill-49" fill="#F5C7A3"></path>
                <path d="M38.2859,127.9438 C38.2849,127.9908 38.2569,129.6208 37.3819,131.2348 C36.2579,133.3068 34.2629,134.4228 31.4539,134.5488 C29.9009,134.6178 28.5279,134.0938 27.3739,132.9938 C25.6819,131.3778 24.8939,128.8908 24.8929,127.7188 C24.8449,125.7358 23.5319,100.8418 23.4789,99.3598 C23.4559,98.9758 23.0339,90.6298 29.8319,89.7528 C30.1109,89.7598 31.2059,89.8208 32.5319,90.3218 C34.9869,91.2488 38.2339,93.6878 38.5589,100.0928 C39.1309,111.3208 38.2959,127.6788 38.2859,127.9438" id="Fill-51" fill="#F5C7A3"></path>
                <path d="M29.7732,88.6839969 C29.7732,88.6839969 39.0472,88.637 39.6272,100.039 C39.9392,106.165 39.3252,108.073 39.1422,116.463 C33.7392,117.349 28.2652,117.342 22.8312,116.719 C22.4412,105.517 22.4102,99.397 22.4102,99.397 C22.4102,99.397 21.7932,89.648 29.7732,88.6839969" id="Fill-53" fill="#E8364B"></path>
                <path d="M80.8088,127.1039 C80.8128,127.1499 80.9808,128.7719 80.3048,130.4789 C79.4358,132.6699 77.5898,134.0159 74.8158,134.4749 C73.2828,134.7289 71.8558,134.3739 70.5798,133.4169 C68.7058,132.0149 67.6268,129.6399 67.4858,128.4769 C67.1998,126.5139 62.6418,100.9869 62.4118,99.5209 C62.3428,99.1419 60.9248,90.9069 67.5708,89.2249 C67.8488,89.1989 68.9438,89.1279 70.3198,89.4669 C72.8678,90.0959 76.3828,92.1299 77.4718,98.4509 C79.3818,109.5299 80.7868,126.8399 80.8088,127.1039" id="Fill-55" fill="#F5C7A3"></path>
                <path d="M67.384,88.1713 C67.384,88.1713 76.586,87.0183 78.526,98.2703 C79.568,104.3163 79.187,106.2823 80.008,114.6343 C74.749,116.1573 69.315,116.8043 63.845,116.8323 C62.119,105.7583 61.355,99.6853 61.355,99.6853 C61.355,99.6853 59.577,90.0793 67.384,88.1713" id="Fill-57" fill="#E8364B"></path>
                <path d="M68.4368,125.1367 C73.0348,110.5487 77.9798,92.6907 78.3418,88.6307 C77.3418,87.8267 76.5578,86.7347 76.1368,85.4237 C75.2338,82.6187 76.2508,79.6637 78.4548,77.9547 L79.6648,70.6087 C79.7678,69.9897 80.3018,69.5317 80.9318,69.5246311 C81.7198,69.5167 82.3328,70.2067 82.2308,70.9887 L81.4898,76.6227 C84.7898,76.0567 88.0868,77.9767 89.1418,81.2507 C90.1578,84.4077 88.7458,87.7557 85.9428,89.2997 C85.6168,91.9907 81.3068,127.3187 80.8218,129.1567 C80.2778,131.4357 77.1728,135.5757 72.0018,134.1037 C65.7528,131.7507 68.4368,125.1367 68.4368,125.1367" id="Fill-59" fill="#F5C7A3"></path>
                <path d="M0.5002,76.9999 C0.5002,34.7499 34.7502,0.4999 77.0002,0.4999 C119.2502,0.4999 153.5002,34.7499 153.5002,76.9999 C153.5002,119.2499 119.2502,153.4999 77.0002,153.4999 C34.7502,153.4999 0.5002,119.2499 0.5002,76.9999 Z" id="Stroke-61" stroke="#FFD8DD" stroke-width="4"></path>
            </g>
        </g>
    </g>
</svg>