<?xml version="1.0" encoding="UTF-8"?>
<svg width="157px" height="157px" viewBox="0 0 157 157" version="1.1" xmlns="http://www.w3.org/2000/svg" xmlns:xlink="http://www.w3.org/1999/xlink">
    <title>Group 55</title>
    <g id="Page-1" stroke="none" stroke-width="1" fill="none" fill-rule="evenodd">
        <g id="Group-55" transform="translate(1.999800, 1.999900)">
            <path d="M151.663,77.1948 C151.663,118.8928 117.86,152.6948 76.163,152.6948 C34.465,152.6948 0.663,118.8928 0.663,77.1948 C0.663,35.4978 34.465,1.6948 76.163,1.6948 C117.86,1.6948 151.663,35.4978 151.663,77.1948" id="Fill-1" fill="#FFFFFF"></path>
            <polygon id="Fill-3" fill="#FFD8DD" points="91.1894 69.5645 60.6264 80.4865 42.4854 28.6055 79.9154 15.2295 95.6954 60.3595"></polygon>
            <polygon id="Fill-5" fill="#E8364B" points="91.1894 68.9126 88.7804 62.2906 95.8074 59.8766"></polygon>
            <path d="M51.6826,33.7559 C51.0576,33.7559 50.4766,33.3179 50.2666,32.6249 C50.0056,31.7569 50.4296,30.8189 51.2106,30.5299 L74.1976,22.0329 C74.9846,21.7359 75.8236,22.2149 76.0856,23.0799 C76.3466,23.9469 75.9226,24.8849 75.1416,25.1729 L52.1556,33.6709 C51.9976,33.7289 51.8386,33.7559 51.6826,33.7559" id="Fill-7" fill="#FFFFFF"></path>
            <path d="M53.6669,41.4649 C53.3169,41.4649 52.9929,41.2339 52.8749,40.8679 C52.7299,40.4099 52.9669,39.9159 53.4029,39.7629 L66.2539,35.2799 C66.6929,35.1239 67.1629,35.3759 67.3099,35.8329 C67.4549,36.2899 67.2179,36.7849 66.7809,36.9369 L53.9319,41.4199 C53.8439,41.4509 53.7539,41.4649 53.6669,41.4649" id="Fill-9" fill="#FFFFFF"></path>
            <path d="M54.9892,45.5557 C54.6392,45.5557 54.3142,45.3247 54.1972,44.9587 C54.0522,44.5007 54.2882,44.0067 54.7242,43.8537 L67.5752,39.3707 C68.0142,39.2147 68.4842,39.4667 68.6312,39.9237 C68.7762,40.3807 68.5402,40.8757 68.1022,41.0277 L55.2532,45.5107 C55.1652,45.5417 55.0762,45.5557 54.9892,45.5557" id="Fill-11" fill="#FFFFFF"></path>
            <path d="M56.9619,50.0181 C56.6119,50.0181 56.2869,49.7871 56.1699,49.4211 C56.0249,48.9631 56.2609,48.4691 56.6979,48.3161 L69.5479,43.8331 C69.9879,43.6771 70.4569,43.9291 70.6039,44.3861 C70.7489,44.8431 70.5129,45.3381 70.0759,45.4901 L57.2259,49.9731 C57.1379,50.0041 57.0489,50.0181 56.9619,50.0181" id="Fill-13" fill="#FFFFFF"></path>
            <path d="M58.2832,54.1089 C57.9332,54.1089 57.6082,53.8779 57.4912,53.5119 C57.3462,53.0539 57.5832,52.5599 58.0192,52.4069 L70.8692,47.9239 C71.3092,47.7669 71.7782,48.0199 71.9262,48.4759 C72.0712,48.9339 71.8342,49.4279 71.3972,49.5809 L58.5482,54.0639 C58.4592,54.0939 58.3702,54.1089 58.2832,54.1089" id="Fill-15" fill="#FFFFFF"></path>
            <path d="M60.6328,58.9019 C60.2828,58.9019 59.9578,58.6709 59.8408,58.3049 C59.6958,57.8469 59.9318,57.3529 60.3688,57.1999 L73.2188,52.7169 C73.6588,52.5609 74.1278,52.8129 74.2748,53.2699 C74.4198,53.7269 74.1838,54.2219 73.7468,54.3739 L60.8968,58.8569 C60.8088,58.8879 60.7198,58.9019 60.6328,58.9019" id="Fill-17" fill="#FFFFFF"></path>
            <path d="M61.9541,62.9927 C61.6041,62.9927 61.2791,62.7617 61.1621,62.3957 C61.0171,61.9377 61.2541,61.4437 61.6901,61.2907 L74.5401,56.8077 C74.9801,56.6507 75.4491,56.9037 75.5971,57.3597 C75.7421,57.8177 75.5051,58.3127 75.0681,58.4647 L62.2191,62.9477 C62.1311,62.9787 62.0411,62.9927 61.9541,62.9927" id="Fill-19" fill="#FFFFFF"></path>
            <path d="M90.4638,34.8257 L80.6358,56.8737 L81.1698,61.3847 C81.2248,61.8407 81.7098,62.0807 82.0748,61.8347 L85.7088,59.3927 L95.5368,37.3447 C95.9258,36.4717 95.5708,35.4307 94.7438,35.0207 L92.6658,33.9887 C91.8388,33.5777 90.8538,33.9527 90.4638,34.8257" id="Fill-21" fill="#9E223E"></path>
            <polygon id="Fill-23" fill="#FFFFFF" points="89.7207 36.4937 88.7807 38.6037 93.9297 40.9507 94.9227 38.7217"></polygon>
            <path d="M72.5009,64.0923 C72.7189,65.9713 73.5389,67.7633 74.7939,69.1723 C74.8999,68.3123 74.7019,67.3383 74.2189,66.4103 C73.7729,65.5573 73.1479,64.8063 72.5009,64.0923 M72.2959,72.1773 C72.2339,72.1773 72.1729,72.1753 72.1099,72.1703 C71.0909,72.0913 70.1089,71.3613 69.6089,70.3113 C69.2089,69.4713 69.0839,68.4373 69.2349,67.2373 C69.3109,66.6493 69.4859,65.8123 70.1279,65.3273 C70.2199,65.2573 70.3489,65.2573 70.4399,65.3263 C71.4709,66.0973 72.3799,67.0113 73.1419,68.0443 C73.2279,68.1603 73.2029,68.3233 73.0869,68.4093 C72.9709,68.4933 72.8089,68.4713 72.7219,68.3543 C72.0319,67.4193 71.2169,66.5853 70.2969,65.8723 C70.0149,66.1653 69.8389,66.6273 69.7529,67.3023 C69.6129,68.4023 69.7239,69.3393 70.0799,70.0873 C70.5009,70.9713 71.3139,71.5853 72.1509,71.6513 C73.2029,71.7303 74.2819,70.9323 74.6569,69.7903 C73.0089,68.0773 71.9999,65.7623 71.9259,63.3723 C71.9229,63.2633 71.9859,63.1643 72.0869,63.1233 C72.1869,63.0833 72.3039,63.1073 72.3779,63.1873 C73.2179,64.0943 74.0879,65.0323 74.6809,66.1693 C75.2979,67.3523 75.4919,68.5713 75.2409,69.6393 C75.6549,70.0433 76.1089,70.4073 76.5979,70.7243 C76.9289,70.9383 77.3219,71.0443 77.5609,70.9813 C77.6549,70.9563 77.7179,70.9063 77.7599,70.8243 C77.8109,70.7263 77.8159,70.5873 77.7749,70.3753 C77.6229,69.5483 77.1859,68.8333 76.5969,68.1403 C76.5699,68.1423 76.5399,68.1453 76.5109,68.1443 C75.9529,68.1443 75.5309,67.6543 75.3179,66.7573 C75.2919,66.6443 75.3429,66.5273 75.4429,66.4703 C75.5449,66.4133 75.6709,66.4293 75.7529,66.5093 C76.1059,66.8523 76.4449,67.1883 76.7539,67.5283 C76.8799,67.4223 76.9679,67.2413 76.9829,67.0713 C77.0149,66.7643 76.8929,66.4363 76.7739,66.1403 C76.7659,66.1203 76.7589,66.1003 76.7509,66.0803 C76.6969,65.9463 76.7629,65.7953 76.8969,65.7423 C77.0269,65.6923 77.1829,65.7543 77.2349,65.8873 C77.2429,65.9083 77.2519,65.9283 77.2599,65.9493 C77.3849,66.2573 77.5379,66.5583 77.7859,66.7353 C77.9959,66.8863 78.3429,66.9213 78.5049,66.7323 C78.5379,66.6923 78.5639,66.6473 78.5919,66.6023 C78.6499,66.5063 78.7179,66.3963 78.8279,66.3073 C79.0219,66.1513 79.2599,66.1273 79.4859,66.1243 C80.1849,66.1153 80.8609,66.2103 81.5229,66.4053 C81.6609,66.4463 81.7399,66.5923 81.6999,66.7303 C81.6589,66.8673 81.5189,66.9473 81.3749,66.9063 C80.7649,66.7253 80.1549,66.6323 79.4919,66.6463 C79.3589,66.6473 79.2259,66.6563 79.1549,66.7133 C79.1139,66.7463 79.0789,66.8053 79.0369,66.8733 C78.9949,66.9423 78.9529,67.0103 78.8989,67.0713 C78.5429,67.4883 77.8979,67.4463 77.4969,67.1703 C77.4579,67.4493 77.3139,67.7333 77.0949,67.9223 C77.6849,68.6393 78.1249,69.3923 78.2889,70.2793 C78.3299,70.5033 78.3609,70.7953 78.2249,71.0623 C78.1139,71.2763 77.9309,71.4223 77.6929,71.4853 C77.2349,71.6093 76.6619,71.3873 76.3139,71.1623 C75.8689,70.8733 75.4519,70.5473 75.0639,70.1903 C74.5769,71.3623 73.4439,72.1773 72.2959,72.1773" id="Fill-25" fill="#E8364B"></path>
            <path d="M0,76.5 C0,34.25 34.25,0 76.5,0 C118.75,0 153,34.25 153,76.5 C153,118.75 118.75,153 76.5,153 C34.25,153 0,118.75 0,76.5 Z" id="Stroke-27" stroke="#E9364B" stroke-width="4"></path>
            <path d="M123.1884,89.9697 C122.8564,89.9697 122.5364,89.7887 122.3754,89.4737 C122.1434,89.0247 122.3214,88.4747 122.7704,88.2447 L133.4584,82.7687 C133.9084,82.5397 134.4584,82.7157 134.6884,83.1647 C134.9194,83.6127 134.7424,84.1627 134.2924,84.3927 L123.6044,89.8687 C123.4714,89.9377 123.3294,89.9697 123.1884,89.9697" id="Fill-29" fill="#E8364B"></path>
            <path d="M133.5781,84.7544 C133.4051,84.7544 133.2331,84.7044 133.0811,84.6004 C132.6831,84.3274 132.5851,83.7854 132.8591,83.3914 L135.2811,79.9144 C135.5571,79.5194 136.1021,79.4204 136.4991,79.6934 C136.8961,79.9674 136.9961,80.5084 136.7201,80.9034 L134.2981,84.3804 C134.1291,84.6234 133.8551,84.7544 133.5781,84.7544" id="Fill-31" fill="#E8364B"></path>
            <path d="M139.0605,86.8403 C138.9635,86.8403 138.8655,86.8253 138.7675,86.7963 L134.3995,85.4513 C133.9035,85.2983 133.6315,84.7953 133.7935,84.3263 C133.9555,83.8593 134.4885,83.6033 134.9845,83.7553 L139.3525,85.0993 C139.8495,85.2513 140.1205,85.7563 139.9585,86.2243 C139.8285,86.6003 139.4575,86.8403 139.0605,86.8403" id="Fill-33" fill="#E8364B"></path>
            <path d="M135.6152,84.7544 C135.3152,84.7544 135.0272,84.5584 134.8812,84.2174 C134.6742,83.7324 134.8332,83.1364 135.2382,82.8864 L138.8052,80.6914 C139.2102,80.4424 139.7062,80.6334 139.9142,81.1194 C140.1222,81.6054 139.9632,82.2014 139.5562,82.4504 L135.9902,84.6464 C135.8702,84.7194 135.7412,84.7544 135.6152,84.7544" id="Fill-35" fill="#E8364B"></path>
            <path d="M47.8076,111.8735 L44.4536,111.8735 C33.9026,111.8735 25.2706,103.4565 25.2706,93.1685 L25.2706,89.8985 C25.2706,79.6115 33.9026,71.1945 44.4536,71.1945 L47.8076,71.1945 C58.3596,71.1945 66.9926,79.6115 66.9926,89.8985 L66.9926,93.1685 C66.9926,103.4565 58.3596,111.8735 47.8076,111.8735" id="Fill-37" fill="#E8364B"></path>
            <path d="M56.0478,95.8716 C56.0478,93.4726 55.8298,91.2926 55.3958,89.3766 C54.1338,83.8186 51.0428,80.4866 46.1308,80.4866 C41.2758,80.4866 38.1988,83.7436 36.9108,89.1886 C36.4458,91.1496 36.2148,93.3936 36.2148,95.8716 C36.2148,96.9616 36.2748,98.0266 36.3888,99.0596 C36.4048,99.0556 36.4188,99.0506 36.4358,99.0466 C36.4348,99.0576 36.4328,99.0686 36.4328,99.0796 C36.4328,100.2916 40.3778,100.5196 41.3138,99.9706 C42.5088,101.4566 44.0148,102.6346 45.7978,103.4686 L46.1308,103.6246 L46.4658,103.4686 C48.2398,102.6386 49.7408,101.4666 50.9338,99.9886 C51.8228,100.5686 55.5958,100.4466 55.8408,99.3206 C55.8588,99.2406 55.8708,99.1596 55.8708,99.0796 L55.8708,99.0786 C55.9858,98.0406 56.0478,96.9686 56.0478,95.8716 M46.3268,103.1866 L46.1308,103.2786 L45.9348,103.1866 C44.1708,102.3616 42.6848,101.1926 41.5108,99.7136 C41.5128,99.6506 41.4888,99.5836 41.4318,99.5106 C40.4998,98.3176 39.7718,96.9246 39.2678,95.3716 C38.4118,92.7366 38.494896,90.5616 38.4988,90.4706 L38.5138,90.1226 L38.8998,90.0836 C40.9588,89.8766 42.7298,89.1236 43.8518,88.5296 C45.0528,87.8926 45.8038,87.2836 45.8368,87.2576 L46.1318,87.0136 L46.4278,87.2596 C46.5068,87.3236 47.2348,87.9056 48.4108,88.5296 C49.5318,89.1236 51.3018,89.8766 53.3618,90.0836 L53.7478,90.1226 L53.7628,90.4706 C53.7678,90.5616 53.8508,92.7366 52.9948,95.3716 C52.4898,96.9246 51.7618,98.3176 50.8298,99.5106 C50.7718,99.5846 50.7478,99.6536 50.7478,99.7186 C49.5738,101.1946 48.0898,102.3616 46.3268,103.1866" id="Fill-39" fill="#FFFFFF"></path>
            <path d="M36.7431,123.3472 C36.1671,123.3472 35.7011,122.9562 35.7011,122.4752 L35.7011,110.6592 C35.7011,110.1782 36.1671,109.7872 36.7431,109.7872 C37.3201,109.7872 37.7871,110.1782 37.7871,110.6592 L37.7871,122.4752 C37.7871,122.9562 37.3201,123.3472 36.7431,123.3472" id="Fill-41" fill="#E8364B"></path>
            <path d="M53.4326,123.3472 C52.8566,123.3472 52.3896,122.9562 52.3896,122.4752 L52.3896,110.6592 C52.3896,110.1782 52.8566,109.7872 53.4326,109.7872 C54.0096,109.7872 54.4756,110.1782 54.4756,110.6592 L54.4756,122.4752 C54.4756,122.9562 54.0096,123.3472 53.4326,123.3472" id="Fill-43" fill="#E8364B"></path>
            <path d="M98.2832,123.3472 C97.7072,123.3472 97.2402,122.9562 97.2402,122.4752 L97.2402,110.6592 C97.2402,110.1782 97.7072,109.7872 98.2832,109.7872 C98.8592,109.7872 99.3262,110.1782 99.3262,110.6592 L99.3262,122.4752 C99.3262,122.9562 98.8592,123.3472 98.2832,123.3472" id="Fill-45" fill="#E8364B"></path>
            <path d="M114.9726,123.3472 C114.3966,123.3472 113.9286,122.8662 113.9286,122.2732 L113.9286,107.7312 C113.9286,107.1392 114.3966,106.6582 114.9726,106.6582 C115.5486,106.6582 116.0156,107.1392 116.0156,107.7312 L116.0156,122.2732 C116.0156,122.8662 115.5486,123.3472 114.9726,123.3472" id="Fill-47" fill="#E8364B"></path>
            <path d="M108.3037,111.8735 L104.9507,111.8735 C94.3997,111.8735 85.7667,103.4565 85.7667,93.1685 L85.7667,89.8985 C85.7667,79.6115 94.3997,71.1945 104.9507,71.1945 L108.3037,71.1945 C118.8567,71.1945 127.4897,79.6115 127.4897,89.8985 L127.4897,93.1685 C127.4897,103.4565 118.8567,111.8735 108.3037,111.8735" id="Fill-49" fill="#E8364B"></path>
            <path d="M115.1718,86.439 C114.3978,85.389 113.1658,84.787 111.4008,84.589 C111.2568,84.571 111.1118,84.565 110.9618,84.565 C109.3938,84.565 107.6178,85.365 106.6288,86.874 C105.6338,85.365 103.8588,84.565 102.2958,84.565 C102.1458,84.565 101.9958,84.571 101.8568,84.589 C100.0928,84.787 98.8608,85.389 98.0838,86.432 C97.3218,87.471 97.0728,88.896 97.3508,90.668 C97.7668,93.27 101.1338,96.532 103.8338,99.157 C104.6148,99.915 105.3158,100.594 105.7738,101.104 C105.7738,101.104 106.2338,101.633 106.6688,101.633 C107.0978,101.633 107.5498,101.097 107.5498,101.097 C108.0008,100.589 108.6988,99.902 109.4818,99.139 C112.1578,96.522 115.4898,93.263 115.9018,90.668 C116.1858,88.896 115.9368,87.478 115.1718,86.439" id="Fill-51" fill="#FFFFFF"></path>
            <polyline id="Stroke-53" stroke="#E7364B" stroke-width="2.2" stroke-linecap="round" stroke-linejoin="round" points="64.9062 91.5669 73.3132 96.2279 86.8092 91.0129"></polyline>
        </g>
    </g>
</svg>