<?xml version="1.0" encoding="UTF-8"?>
<svg width="282px" height="302px" viewBox="0 0 352 379" version="1.1" xmlns="http://www.w3.org/2000/svg" xmlns:xlink="http://www.w3.org/1999/xlink">
    <title>Group 64</title>
    <defs>
        <polygon id="path-1" points="0 0 137.123212 0 137.123212 142.703811 0 142.703811"></polygon>
    </defs>
    <g id="Page-1" stroke="none" stroke-width="1" fill="none" fill-rule="evenodd">
        <g id="PAGES-PARTENAIRES-INITIALE" transform="translate(-1112.000000, -175.000000)">
            <g id="Group-64" transform="translate(1112.000000, 175.000000)">
                <path d="M89.2302979,234.171302 C89.4927362,236.627033 92.9699177,236.538115 96.8999927,235.950158 C100.829568,235.361202 99.8138069,236.393748 105.340006,236.286847 C110.865706,236.179946 112.708772,234.29269 112.949715,233.494927 C113.165164,232.78758 110.485795,232.287042 107.615971,231.689095 C107.255555,231.615163 106.893141,231.536736 106.530726,231.457809 C103.294988,230.748963 101.090506,228.419615 98.275169,226.415467 C95.6082967,224.516721 93.8112197,215.81526 93.8112197,215.81526 L85.9560686,215.768803 C85.9560686,215.768803 88.4244876,223.638033 89.7096851,226.375004 C90.4660071,227.984018 89.6601967,230.051108 89.4072563,231.600677 C89.2707884,232.443898 89.1368199,233.305601 89.2302979,234.171302" id="Fill-1" fill="#A75118"></path>
                <path d="M96.8998927,235.949958 C100.829468,235.361003 99.8137069,236.394048 105.339906,236.287147 C110.865606,236.180246 112.708672,234.292989 112.949615,233.495226 C113.165064,232.78788 110.485695,232.286843 107.615871,231.689395 L107.583878,231.742346 C107.583878,231.742346 104.0912,233.767974 99.5277742,233.462257 C95.8076498,233.213986 91.9735522,231.793299 89.4071563,231.600976 C89.2706884,232.443698 89.13672,233.305402 89.2301979,234.171102 C89.4931361,236.626833 92.9703176,236.538415 96.8998927,235.949958" id="Fill-3" fill="#FF9A00"></path>
                <path d="M27.8165028,233.781562 C27.9864628,236.246285 31.4646442,236.288246 35.4132148,235.848153 C39.3627852,235.408059 38.3085333,236.401142 43.8347326,236.503047 C49.360932,236.604454 51.2739817,234.787632 51.5449179,233.99986 C51.786861,233.300506 49.1274869,232.699062 46.2826565,231.993713 C45.9252406,231.906294 45.5663251,231.814379 45.2074096,231.721965 C42.0001644,230.892231 39.8851623,228.481458 37.1468068,226.372407 C34.5539171,224.374253 36.686915,216.087409 36.686915,216.087409 L30.726318,213.274008 C30.726318,213.274008 29.9070108,221.815117 29.4646149,226.134626 C29.2836575,227.903992 28.4018651,229.68085 28.0899385,231.220428 C27.9224779,232.057654 27.7555172,232.913863 27.8165028,233.781562" id="Fill-5" fill="#A75118"></path>
                <path d="M35.4133648,235.848003 C39.3624353,235.407909 38.3086833,236.400992 43.8348826,236.503397 C49.360582,236.604803 51.2741316,234.787482 51.5450679,233.99971 C51.7870109,233.300356 49.1276369,232.698912 46.2828064,231.993564 L46.2488144,232.046015 C46.2488144,232.046015 42.6821539,233.938767 38.1327247,233.461208 C34.4250974,233.072567 30.6474865,231.508512 28.0900885,231.220278 C27.9226279,232.057505 27.7556672,232.913714 27.8166528,233.781412 C27.9866128,236.246135 31.4647942,236.288096 35.4133648,235.848003" id="Fill-7" fill="#FF9A00"></path>
                <path d="M41.2059514,110.792637 C41.2059514,110.792637 39.55484,118.781756 37.9007293,159.296825 C37.9007293,159.296825 34.8339512,166.797895 32.6094747,175.970921 C30.3849983,185.143447 28.8153677,223.417087 28.8153677,223.417087 C28.8153677,223.417087 29.7016591,224.694907 32.3950252,224.856258 C34.5940076,224.988635 36.3051049,224.025025 36.3051049,224.025025 C36.3051049,224.025025 51.7704648,173.895338 59.298193,154.433818 C66.8259212,134.971798 71.236883,107.181972 71.236883,107.181972 L41.2059514,110.792637 Z" id="Fill-9" fill="#FFFFFF"></path>
                <path d="M59.8055736,114.213326 C59.8055736,114.213326 61.0247866,122.278875 73.5103479,160.860731 C73.5103479,160.860731 73.2324133,168.959249 74.3241564,178.334088 C75.4153995,187.708927 88.052925,224.619826 88.052925,224.619826 C88.052925,224.619826 89.7310301,225.202787 92.2494373,224.537902 C94.5898864,223.920972 96.4254544,222.514271 96.4254544,222.514271 C96.4254544,222.514271 91.5805947,169.757012 91.8995197,148.894785 C92.2184446,128.03206 86.727737,100.435056 86.727737,100.435056 L59.8055736,114.213326 Z" id="Fill-11" fill="#FFFFFF"></path>
                <path d="M81.9175691,2.47475727 C79.9605297,1.22990734 77.5530964,0.984633943 75.8599949,1.00011964 C76.3168873,0.573014223 77.1796843,0.452625445 77.1796843,0.452625445 C76.1404289,0.244817431 73.7524909,1.16596642 73.7524909,1.16596642 C59.4703525,-5.16918078 56.1091436,16.1436291 56.1661302,21.1375155 C56.2211173,26.1299032 55.971676,31.8621074 48.4779398,35.963818 C33.7349098,44.0338624 45.0367497,59.9731367 45.0367497,59.9731367 C42.3823745,67.5826066 52.2070621,76.9054936 52.2070621,76.9054936 C52.0406012,72.8642271 70.603732,47.1180131 80.6123763,41.2439399 C83.1447803,37.8915371 84.2900107,31.8026623 84.3774901,31.3231054 C83.7266433,36.1636334 82.7583712,38.8491524 81.9375644,40.3472683 C90.5210441,33.2098623 87.1043483,5.77320996 81.9175691,2.47475727" id="Fill-13" fill="#FF9A00"></path>
                <path d="M78.8065014,38.486887 C78.8569895,38.5098658 74.1241035,40.9650975 70.5629416,39.9924961 C67.21373,39.0798392 65.0257449,34.7398488 65.0707343,34.729858 C66.4889006,34.4486178 66.899304,32.5009173 66.8688111,24.1326484 L67.5101602,24.2585321 L77.9037139,26.3166307 L78.2911227,26.3915615 C78.2911227,26.3915615 78.0441808,29.7814297 78.0366826,32.9759784 C78.0341831,33.6518539 78.0441808,34.3177388 78.0696748,34.9406633 C78.1396583,36.7954497 78.3461097,38.2705869 78.8065014,38.486887" id="Fill-15" fill="#A75118"></path>
                <path d="M66.3963223,23.0855657 C66.3963223,23.0855657 63.2350664,18.0941771 62.476245,13.8256206 C61.9338727,10.7779363 63.4880069,-0.517128636 74.8458336,1.10936871 C74.8458336,1.10936871 78.1455569,1.43406873 81.2463271,3.52763456 C83.7127466,5.19209683 87.2719089,8.78527723 83.2923455,18.6416713 L82.258089,21.9720944 L66.3963223,23.0855657 Z" id="Fill-17" fill="#FF9A00"></path>
                <path d="M78.9260732,31.4104247 C78.9260732,31.4104247 64.7744041,29.5411517 66.0750979,20.7517718 C67.3757918,11.962392 66.4250156,5.80208329 75.5158759,6.62382411 C84.6062363,7.44556494 85.8614409,11.0587269 86.1418748,14.0979191 C86.4213091,17.1371113 82.6411988,31.6701847 78.9260732,31.4104247" id="Fill-19" fill="#A75118"></path>
                <path d="M81.9771051,7.36623822 C81.9771051,7.36623822 76.5748766,17.1002453 70.4153264,17.7416528 C64.256276,18.3825607 61.919826,16.4108822 61.919826,16.4108822 C61.919826,16.4108822 67.0086282,13.4760936 68.8931847,7.31178853 C68.8931847,7.31178853 79.7931191,2.02517263 81.9771051,7.36623822" id="Fill-21" fill="#FF9A00"></path>
                <path d="M80.8948598,8.06039692 C80.8948598,8.06039692 83.4382612,10.7918734 83.8081741,13.1342094 C84.1780871,15.477045 83.8076742,20.1307456 85.1748525,20.1742054 C85.1748525,20.1742054 89.132421,13.6007784 86.4500523,9.14939084 C83.6067215,4.42875205 80.8948598,8.06039692 80.8948598,8.06039692" id="Fill-23" fill="#FF9A00"></path>
                <path d="M173.87614,126.473975 C170.907338,120.189781 162.653781,114.989585 155.699418,114.987088 C150.563127,114.985589 146.033693,116.736971 142.528518,119.590335 C140.524489,121.221328 137.501201,120.145822 136.957829,117.620155 L130.871262,89.3592641 C129.983471,85.2390706 125.920927,82.6164935 121.796897,83.5036739 L23.3045794,104.687103 C19.2760276,105.553803 16.712631,109.520138 17.579427,113.546419 L38.7539431,211.863587 C39.3598005,214.675489 41.4233149,216.797029 43.9817127,217.612276 L42.6890169,217.978937 L46.512617,217.978937 L46.5436097,217.973442 C47.0114996,217.959955 47.4843883,217.905505 47.9587766,217.803599 L50.1032719,217.342525 L75.3813222,211.905548 C78.9289872,211.143253 80.3686483,206.854215 77.9852093,204.120241 C75.6822514,201.479181 74.0261411,198.208203 73.3198074,194.502626 C71.3302757,184.060273 77.7907551,173.716829 88.0573386,170.937397 C99.4771508,167.845254 111.009936,174.969172 113.467358,186.379631 C114.39214,190.672165 113.896257,194.939722 112.295134,198.693754 C111.67328,200.151907 112.187659,201.666508 113.255408,202.53021 L111.780755,203.248546 L115.197451,203.246548 C115.45339,203.253042 115.716828,203.231062 115.986265,203.173116 L146.169161,196.681613 C150.29469,195.793933 152.919072,191.732685 152.031281,187.609994 L145.982205,159.523442 C145.422337,156.924343 147.794278,154.646448 150.371172,155.308336 C153.350471,156.07313 156.548718,156.176534 159.760962,155.485672 C172.390489,152.769682 179.772752,138.955944 173.87614,126.473975" id="Fill-25" fill="#FF9A00"></path>
                <path d="M117.184668,78.6099689 C117.184668,78.6099689 123.328222,79.6160394 124.938343,83.608351 C126.547964,87.6006627 124.299994,90.304165 123.435197,90.2951957 C122.569401,90.2856821 120.912291,89.6472719 120.135474,87.5761853 C119.359656,85.5060978 117.184668,78.6099689 117.184668,78.6099689" id="Fill-27" fill="#A75118"></path>
                <path d="M32.6093248,96.42506 C32.6093248,96.42506 39.5057016,96.415569 41.9866176,100.489305 C44.4675337,104.562542 42.498997,107.922938 41.5512201,108.069303 C40.6039431,108.215168 38.6773965,107.815537 37.4546843,105.692998 C36.2314722,103.569959 32.6093248,96.42506 32.6093248,96.42506" id="Fill-29" fill="#A75118"></path>
                <path d="M117.355528,83.2438878 C116.744172,83.1130087 114.071301,82.798799 110.670602,82.2642928 C104.410075,81.2822001 95.6806297,79.5542964 92.7518191,76.8547904 C91.9590057,76.1214679 90.1109406,72.0886936 88.1903927,67.4649653 C86.2483498,77.7010086 86.1408751,85.5522552 86.655254,91.5292332 L44.3352149,100.631324 C47.9648605,93.3005968 53.5805388,84.2109943 52.5272867,76.8547904 C52.1368786,74.1273102 50.6417305,70.3852674 50.082862,66.1816509 C50.0353732,65.819985 49.9958825,65.4583192 49.9633902,65.0911584 C44.028787,69.9736476 37.1724008,75.3606708 37.0084393,76.4381753 C36.7350037,78.2435074 41.3559161,98.2370362 41.3559161,98.2370362 C40.2081862,100.876098 35.2248591,100.321111 35.2248591,100.321111 C30.5539585,96.9886895 23.6855751,78.1026376 24.2369454,73.9195022 C24.7858162,69.7353678 41.815308,45.8923954 45.936338,40.1936602 C50.0078797,34.5633618 64.8713813,34.7037322 65.229297,34.7062298 L65.2322963,34.7062298 L65.2362954,34.7062298 C77.0565133,41.7981779 78.1222624,35.9041232 78.1222624,35.9041232 C78.1222624,35.9041232 88.7867523,37.9307508 90.6203208,41.0778434 C92.4538892,44.226934 100.490498,68.1003783 101.058864,68.9416011 C102.248584,70.6994771 121.678011,77.7339782 122.025929,79.7705966 C122.378846,81.8072151 119.097118,83.6130467 117.355528,83.2438878" id="Fill-31" fill="#FFFFFF"></path>
                <g id="Group-35" transform="translate(0.000000, 236.296189)">
                    <mask id="mask-2" fill="white">
                        <use xlink:href="#path-1"></use>
                    </mask>
                    <g id="Clip-34"></g>
                    <path d="M137.048143,138.814255 L108.876774,10.9963409 L116.631449,10.9963409 C118.469516,10.9963409 119.973162,9.49372911 119.973162,7.65692606 L119.973162,3.33991438 C119.973162,1.50261179 118.469516,0 116.631449,0 L18.2636013,0 C16.4250341,0 14.921388,1.50261179 14.921388,3.33991438 L14.921388,7.65692606 C14.921388,9.49372911 16.4250341,10.9963409 18.2636013,10.9963409 L28.2472515,10.9963409 L0.074882375,138.814255 C-0.304028441,140.532667 0.789214243,142.249082 2.50381068,142.628731 C4.21790723,143.00838 5.93100402,141.912892 6.30941496,140.194979 L34.7852126,10.9963409 L102.337813,10.9963409 L130.81361,140.194979 C131.192521,141.912892 132.905118,143.00838 134.619715,142.628731 C136.333811,142.249082 137.427054,140.532667 137.048143,138.814255" id="Fill-33" fill="#FFE4DD" mask="url(#mask-2)"></path>
                </g>
                <path d="M256.189501,232.613191 L253.503633,234.793177 C253.503633,234.793177 246.154863,232.16011 244.496253,240.886048 C244.496253,240.886048 244.055357,244.605112 246.412302,244.612194 C248.769247,244.619099 247.796976,244.205482 251.13519,244.302892 C254.473405,244.401301 257.240254,242.641926 257.729138,239.934927 L259.325763,237.641546 L256.189501,232.613191 Z" id="Fill-36" fill="#EA8E50"></path>
                <path d="M256.493629,237.291469 C254.350634,235.055035 254.523093,233.402562 254.523093,233.402562 C254.523093,233.402562 279.339752,213.09832 281.85666,211.444348 C283.571756,210.317389 301.848454,194.125848 310.391443,184.254468 C314.629446,179.357992 319.87871,181.258236 325.883797,182.980145 L330.829633,184.397835 C336.801727,186.110253 338.355362,194.457042 333.455015,198.512795 C319.655263,209.935242 296.697666,222.783872 292.402677,225.483378 C281.739187,232.187185 260.8661,240.152326 260.8661,240.152326 C260.8661,240.152326 258.334196,239.212195 256.493629,237.291469" id="Fill-38" fill="#FF9A00"></path>
                <path d="M227.449715,361.828264 C227.449715,361.828264 221.427133,366.337099 212.198805,363.9548 C212.198805,363.9548 204.758056,362.260365 203.12644,365.968439 C203.12644,365.968439 214.537754,371.762087 217.425575,373.346123 C219.601563,374.54002 221.873028,376.425279 223.47865,377.881933 C224.749351,379.034868 226.728385,378.879012 227.81163,377.547742 C228.314012,376.930812 228.887877,376.19649 229.517729,375.344277 C231.276815,372.961479 235.37685,365.26459 235.37685,365.26459 L227.449715,361.828264 Z" id="Fill-40" fill="#FF9A00"></path>
                <path d="M224.637377,359.745738 C224.637377,359.745738 228.305014,368.195931 236.770022,366.642866 C236.770022,366.642866 254.044456,352.387037 265.893167,337.577219 C269.741261,332.767662 273.01799,327.89966 274.943537,323.444775 C282.800687,305.265071 304.008196,278.150621 317.492022,264.408317 L283.756462,252.212584 C283.756462,252.212584 272.950506,273.934516 258.57389,300.615866 C248.212328,319.839606 235.999203,341.639966 224.637377,359.745738" id="Fill-42" fill="#FFFFFF"></path>
                <path d="M286.237129,366.621736 C286.237129,366.621736 286.604542,373.364506 278.424967,374.264175 C278.424967,374.264175 273.750568,374.289152 273.737071,378.580188 L297.511475,378.655618 C297.511475,378.655618 298.201812,376.924218 298.369273,373.216643 C298.497243,370.369274 295.607423,362.92565 295.607423,362.92565 L286.237129,366.621736 Z" id="Fill-44" fill="#FF9A00"></path>
                <path d="M294.821558,252.212784 C294.821558,252.212784 279.793095,268.715038 270.253341,298.44657 C265.062562,314.622626 279.766602,355.292552 282.632927,369.422998 C282.632927,369.422998 292.497105,370.259725 299.241518,367.653632 C299.241518,367.653632 299.753897,338.468096 295.809825,315.973378 C293.602345,303.384009 315.597668,289.048753 325.208906,266.300769 C331.746867,250.826065 323.792739,251.088323 314.01704,250.717166 L294.821558,252.212784 Z" id="Fill-46" fill="#FFFFFF"></path>
                <path d="M312.170475,178.587903 C320.532506,183.306044 337.650477,178.954564 337.650477,178.954564 C337.650477,178.954564 330.698114,171.012901 333.85737,158.221719 L327.291916,161.55364 L320.240075,165.132834 C320.240075,165.132834 319.784183,167.391747 319.467257,171.449498 C319.386776,172.494033 319.314293,173.661454 319.263805,174.936277 C314.971315,176.237075 312.170475,178.587903 312.170475,178.587903" id="Fill-48" fill="#FFB07B"></path>
                <path d="M281.510241,251.360022 C281.510241,252.828665 283.202843,253.532015 283.562258,253.60295 C286.934964,254.21938 296.351248,257.879998 304.834251,258.719223 C311.97707,259.467032 318.609009,258.757188 325.894794,257.295039 C326.859567,257.100718 329.124034,256.491281 329.284996,255.567634 C329.486449,254.558567 357.387382,198.727647 335.696987,174.744804 C335.188107,174.182323 330.906115,175.195387 326.991036,176.124529 C323.375387,176.981237 320.058168,176.503179 317.096365,175.316276 L313.424729,177.246992 C308.915291,179.758172 300.383299,188.67893 299.385034,195.678963 C298.877653,199.238675 296.840633,201.874739 296.251272,205.006346 C296.032323,206.164776 295.808876,207.296231 295.580929,208.398712 C295.137034,210.561214 294.678642,212.619313 294.207253,214.577004 C292.932053,219.871113 291.58537,224.428902 290.263181,228.366265 C288.855512,232.546902 287.475837,236.02419 286.243127,238.932003 C284.644004,242.704518 283.291822,245.523414 282.44802,247.682419 C281.851661,249.202015 281.510241,250.393415 281.510241,251.360022" id="Fill-50" fill="#FF9A00"></path>
                <path d="M171.196856,208.244604 L179.63287,181.511302 C180.452677,178.9157 183.141044,177.686336 185.488492,178.346726 L185.49549,178.348225 C185.620461,178.384191 185.743432,178.426652 185.865903,178.47211 L188.824207,179.459698 C188.824207,179.459698 193.454617,184.225794 196.780334,185.187406 C206.997929,188.141677 216.696646,182.699205 220.424769,172.743902 C224.570793,161.670632 219.759925,149.511366 208.622047,146.000609 C204.810944,144.799719 197.310209,147.038151 197.310209,147.038151 L194.299918,146.038574 C192.664303,145.541533 191.541067,143.778162 192.12543,141.926873 L201.411244,112.503056 C202.680445,108.480772 206.971435,106.248335 210.996488,107.517163 L238.414535,116.15768 C240.951937,116.957441 243.442851,114.809925 243.02395,112.18485 C242.540563,109.148655 242.735518,105.957104 243.724285,102.826496 C247.60937,90.5138713 262.061469,84.4584657 273.947171,91.4909686 C279.931263,95.0316975 284.341725,103.728663 283.694377,110.64827 C283.21649,115.758049 281.0485,120.101536 277.878246,123.32306 C276.066172,125.164859 276.855987,128.272987 279.320906,129.049769 L306.909413,137.744237 C310.932466,139.012066 313.164941,143.298606 311.896239,147.318392 L281.594871,243.336185 C280.355163,247.263556 276.164149,249.444042 272.233575,248.204687 L176.255665,217.957131 C172.174625,216.671319 169.909658,212.322837 171.196856,208.244604" id="Fill-52" fill="#FFE4DD"></path>
                <path d="M259.404594,236.935848 L256.000895,238.182696 C256.000895,238.182696 249.185499,233.366645 244.941998,241.199908 C244.941998,241.199908 243.406859,244.621247 245.836288,245.364061 C248.266716,246.106875 247.382924,245.407521 250.79762,246.543971 C254.212816,247.680921 257.577024,246.862177 258.867221,244.42393 L261.180176,242.728496 L259.404594,236.935848 Z" id="Fill-54" fill="#FFB07B"></path>
                <path d="M256.603503,241.745404 C255.3448,238.464435 254.770435,236.978808 254.770435,236.978808 C254.770435,236.978808 280.487382,216.030661 283.107765,214.234321 C284.893845,213.009952 302.670161,199.73122 311.337121,189.38278 C315.636609,184.249023 322.414514,181.902691 328.97147,183.276422 L334.3692,184.407876 C340.888165,185.774114 343.006667,194.019496 337.949357,198.351494 C323.707209,210.552222 299.686863,224.703648 295.208417,227.64643 C284.089534,234.953679 259.497822,245.19222 259.497822,245.19222 C259.497822,245.19222 257.591771,244.322523 256.603503,241.745404" id="Fill-56" fill="#FF9A00"></path>
                <path d="M315.964032,163.012942 C315.964032,163.012942 328.422599,171.947688 333.870817,164.10843 C339.319535,156.269672 344.596792,152.143484 336.872611,146.10756 C329.147929,140.071637 325.507286,141.978875 323.051864,144.152866 C320.596441,146.327857 312.863761,160.486776 315.964032,163.012942" id="Fill-58" fill="#FFB07B"></path>
                <path d="M321.735623,137.073507 C322.182518,134.06029 323.187282,131.93975 323.187282,131.93975 C323.187282,131.93975 323.969597,135.176259 329.888204,134.729672 C335.806811,134.283584 345.187603,135.311634 348.314867,142.051408 C348.513321,142.480012 348.691279,142.922103 348.848242,143.373187 C349.414609,141.879067 349.551076,139.640135 349.551076,139.640135 C350.675812,142.541455 349.551076,146.171102 349.551076,146.171102 C349.567573,146.276504 349.581569,146.382906 349.596566,146.489308 C350.902758,147.592788 352,151.023119 352,151.023119 C351.605593,150.067002 350.644319,149.44208 349.787021,149.057435 C349.814015,154.30209 347.685515,159.429353 343.949895,160.955943 C338.487181,163.187381 338.53067,161.484954 333.036463,165.12609 C333.036463,165.12609 331.56331,163.299278 332.568074,162.071412 C333.573837,160.844046 337.369943,159.058695 335.248443,157.272845 C333.126442,155.486995 332.345126,157.496139 331.56331,156.268273 C330.781494,155.040907 334.690074,151.469207 329.664757,148.1218 C324.63944,144.773893 321.288728,140.086223 321.735623,137.073507" id="Fill-60" fill="#FFFFFF"></path>
                <path d="M89.2351968,154.205179 L88.9407661,154.456947 L88.5598557,154.387011 C85.1406605,153.758592 82.0338917,152.399847 79.3190307,150.354737 C79.292537,150.24334 79.2210538,150.135939 79.0880851,150.033533 C76.9225948,148.377563 75.0120445,146.276005 73.4104214,143.787804 C70.6950606,139.5702 69.8087692,135.722255 69.7722777,135.560904 L69.6338103,134.944973 L70.2771589,134.698701 C73.7168493,133.381418 76.4002177,131.242893 78.0463303,129.681336 C79.8079157,128.009381 80.8096799,126.595187 80.8531696,126.533744 L81.2450774,125.970264 L81.8704302,126.261995 C82.036891,126.338424 83.5620321,127.021293 85.8764873,127.568788 C88.0834679,128.091305 91.4791686,128.589345 95.1168124,127.996393 L95.7971523,127.885995 L95.9871076,128.487939 C96.0370958,128.645793 97.2093199,132.416809 96.9873721,137.426181 C96.856403,140.38195 96.2645423,143.159384 95.2267865,145.679556 C95.1623017,145.836411 95.1538037,145.969288 95.1842965,146.082683 C93.8691061,149.211293 91.8700766,151.944768 89.2351968,154.205179 M102.467582,136.889177 C101.33185,132.687059 99.9266803,128.968994 98.2725697,125.815408 C93.4751988,116.66686 86.5898194,112.263428 78.1558045,114.539325 C69.8167673,116.789246 66.0741482,123.91866 66.4380625,134.051798 C66.5680319,137.700927 67.2313758,141.739696 68.4040998,146.079686 C68.9194785,147.988423 69.5273354,149.826225 70.213174,151.581104 C70.2376682,151.567117 70.2611627,151.551631 70.2856569,151.537644 C70.2901559,151.556626 70.2916555,151.576608 70.2961544,151.59559 C70.8705193,153.720127 77.7533992,152.291447 79.1015819,150.895737 C81.8574333,152.943845 85.0011933,154.310082 88.4573798,154.944496 L89.1042276,155.063386 L89.6046098,154.635282 C92.2599848,152.357886 94.2825088,149.609425 95.6321911,146.469826 C97.434267,147.072769 103.855756,145.110082 103.744282,143.024509 C103.736784,142.876645 103.719288,142.730281 103.680297,142.587912 L103.679797,142.587413 C103.388366,140.714643 102.98646,138.809403 102.467582,136.889177" id="Fill-62" fill="#FFFFFF"></path>
            </g>
        </g>
    </g>
</svg>