<svg width="385" height="301" viewBox="0 0 385 301" fill="none" xmlns="http://www.w3.org/2000/svg">
<g clip-path="url(#clip0_190_15)">
<path d="M334.648 78.04L333.95 76.6689C336.865 75.192 339.025 72.8251 341.31 70.3187C342.499 69.015 343.73 67.6632 345.072 66.4653C349.426 62.5686 355.117 61.8614 360.111 61.6786C368.611 61.3707 377.295 60.144 383.212 53.3416L384.371 54.3518C378.069 61.5968 369.016 62.8957 360.169 63.2132C355.213 63.3912 350.08 64.0503 346.102 67.6103C344.822 68.7552 343.615 70.0782 342.451 71.353C340.17 73.8498 337.818 76.4332 334.648 78.04Z" fill="#643F92" stroke="#643F92" stroke-miterlimit="10"/>
<path d="M324.453 64.5314L261.966 102.017C254.447 106.524 251.989 116.367 256.497 123.886C261.004 131.406 270.847 133.864 278.366 129.356L340.897 91.8468C342.831 90.6875 343.456 88.181 342.297 86.2471L330.125 65.9553C328.951 63.9974 326.411 63.3623 324.453 64.5362V64.5314Z" fill="white" stroke="#643F92" stroke-miterlimit="10"/>
<path d="M261.967 127.812L262.27 127.105C266.542 128.947 272.146 128.317 276.899 125.469L338.799 88.3398L339.194 88.9989L277.294 126.133C272.339 129.106 266.465 129.751 261.967 127.817V127.812Z" fill="#643F92"/>
<path d="M255.607 117.214C256.016 112.336 259.349 107.458 264.305 104.485L326.161 67.3793L326.556 68.0384L264.699 105.144C259.951 107.992 256.756 112.644 256.372 117.281L255.607 117.219V117.214Z" fill="#643F92"/>
<path d="M260.552 125.272L260.6 124.507C263.905 124.719 268.937 123.064 273.729 120.192L335.629 83.0576L336.023 83.7167L274.123 120.851C269.207 123.8 264.006 125.493 260.552 125.277V125.272Z" fill="#643F92"/>
<path d="M257.18 119.658C258.614 116.502 262.558 112.711 267.47 109.767L329.332 72.6616L329.726 73.3206L267.869 110.426C263.078 113.298 259.253 116.959 257.882 119.98L257.185 119.663L257.18 119.658Z" fill="#643F92"/>
<path d="M276.086 130.338C276.572 129.866 277.597 128.88 277.111 128.13C276.418 127.062 274.619 127.345 273.715 126.499C272.598 125.45 273.888 123.891 274.701 123.112C276.808 121.087 280.844 120.033 281.224 116.666C281.344 115.607 281.017 113.173 279.589 113.178C278.925 113.178 278.285 113.563 277.688 113.813C277.174 114.029 276.683 114.279 276.187 114.534C274.277 115.521 271.569 117.022 269.635 115.27C267.725 113.539 270.212 111.816 270.799 110.2C271.896 107.179 268.755 104.639 265.94 105.808C264.767 106.294 263.679 107.198 262.371 107.294C260.956 107.395 260.206 106.101 259.739 104.961C259.605 104.629 259.46 104.326 259.292 104.052C253.938 109.069 252.586 117.354 256.507 123.887C260.523 130.583 268.769 133.253 275.836 130.569C275.923 130.492 276.009 130.42 276.091 130.338H276.086Z" fill="#E7374C"/>
</g>
<g clip-path="url(#clip1_190_15)">
<path d="M249.21 295.517C249.984 298.238 242.234 300.431 241.466 297.708L231.006 260.744L238.75 258.553L249.21 295.517Z" fill="#FFAE00"/>
<path d="M249.607 188.106L217.172 197.283L184.738 206.461C184.738 206.461 187.858 220.569 194.053 222.127C194.053 222.127 215.458 273.124 237.788 270.114C258.383 260.976 249.887 206.326 249.887 206.326C254.343 201.753 249.608 188.101 249.608 188.101L249.607 188.106Z" fill="white" stroke="#643F92" stroke-miterlimit="10"/>
<path d="M213.426 184.036C204.136 186.667 195.521 189.648 189.166 192.435C181.292 195.89 176.66 198.911 177.899 203.294C179.137 207.677 184.663 207.822 193.183 206.635C200.059 205.68 208.96 203.707 218.25 201.076C227.54 198.445 236.156 195.464 242.51 192.677C250.383 189.226 255.015 186.205 253.776 181.822C252.537 177.44 247.012 177.294 238.492 178.482C231.616 179.437 222.715 181.41 213.429 184.042L213.426 184.036Z" fill="#FFAE00"/>
<path d="M214.091 186.39C232.945 181.053 248.924 179.168 249.775 182.173C250.624 185.182 236.028 191.942 217.172 197.283C198.314 202.618 182.338 204.51 181.485 201.499C180.636 198.49 195.232 191.729 214.087 186.388" fill="white"/>
<path d="M182.807 199.657L182.368 199.185C186.247 195.603 198.958 190.337 213.998 186.081L214.174 186.7C199.456 190.868 186.555 196.193 182.807 199.657Z" fill="#643F92"/>
<path d="M214.179 186.702L214.003 186.082C228.322 182.031 241.282 179.859 247.024 180.544L246.949 181.184C241.372 180.514 228.207 182.731 214.183 186.703L214.179 186.702Z" fill="#643F92"/>
<path d="M193.996 222.445L194.105 221.807C205.94 223.816 238.15 214.696 249.694 206.067L250.079 206.584C238.443 215.286 205.947 224.473 193.996 222.445Z" fill="#643F92"/>
<path d="M184.916 207.574L184.939 206.928C186.979 207.003 189.583 206.805 193.133 206.311C199.989 205.359 208.876 203.386 218.154 200.761C227.432 198.137 236.032 195.16 242.372 192.373C245.655 190.932 247.974 189.737 249.671 188.605L250.03 189.144C248.3 190.299 245.947 191.511 242.629 192.966C236.263 195.759 227.63 198.749 218.325 201.379C209.019 204.014 200.101 205.992 193.215 206.949C189.623 207.449 186.986 207.645 184.907 207.571L184.916 207.574Z" fill="#643F92"/>
<path d="M233.548 270.361L233.724 269.741C235.696 270.301 239.293 269.519 241.153 267.631L241.612 268.086C239.738 269.989 235.97 271.05 233.548 270.361Z" fill="#643F92"/>
<path d="M240.514 294.967L240.69 294.347C242.662 294.907 246.259 294.125 248.119 292.237L248.578 292.692C246.704 294.595 242.936 295.656 240.514 294.967Z" fill="#643F92"/>
<path d="M238.229 286.904L238.405 286.284C240.377 286.844 243.974 286.062 245.834 284.174L246.293 284.629C244.419 286.532 240.651 287.593 238.229 286.904Z" fill="#643F92"/>
<path d="M235.945 278.837L236.121 278.216C238.093 278.776 241.69 277.995 243.55 276.107L244.009 276.562C242.135 278.465 238.367 279.526 235.945 278.837Z" fill="#643F92"/>
<path d="M221.234 264.049L221.543 263.483C226.369 266.11 244.695 260.911 248.045 255.963L248.58 256.326C246.689 259.117 240.431 261.731 235.641 263.122C230.564 264.6 224.118 265.614 221.235 264.045L221.234 264.049Z" fill="#643F92"/>
<path d="M225.303 266.797L225.373 266.157C231.35 266.827 241.559 263.793 246.38 259.917L246.784 260.422C241.856 264.384 231.414 267.487 225.297 266.8L225.303 266.797Z" fill="#643F92"/>
<path d="M227.681 268.517L227.799 267.882C232.863 268.802 241.333 266.261 245.224 262.658L245.663 263.131C241.646 266.848 232.907 269.465 227.686 268.518L227.681 268.517Z" fill="#643F92"/>
</g>
<g clip-path="url(#clip2_190_15)">
<path d="M154.077 144.139C164.981 135.936 171.797 118.669 176.109 104.911C181.079 89.6883 189.656 81.5575 191.806 79.6973L192.825 78.9085C211.794 64.1915 215.271 36.6308 200.561 17.6611C185.844 -1.30865 158.283 -4.78578 139.314 9.92465L138.814 10.3125C138.814 10.3125 128.324 18.4499 109.952 19.633C95.557 20.3889 77.1394 22.696 66.4845 31.2212C55.5798 39.4244 48.9016 56.2842 44.5897 70.0415C38.7529 87.3615 25.8763 97.9309 25.8763 97.9309L17.7652 104.221C-1.20453 118.938 -4.68165 146.499 10.0288 165.469C24.7458 184.438 52.3065 187.916 71.2762 173.205L79.7751 166.612C82.1349 164.995 94.6433 156.911 111.03 155.701C125.425 154.945 143.415 152.664 154.077 144.139Z" fill="white" stroke="#643F92" stroke-miterlimit="10"/>
<path d="M45.3851 164.128C37.9576 163.53 31.0888 160.217 26.4877 154.281L24.9496 152.296C15.5107 140.13 19.0864 121.502 32.9161 110.775C48.7834 98.4108 57.44 94.0988 66.6028 89.5372C71.1251 87.2826 75.7985 84.9558 81.6222 81.5575C88.8262 77.2325 95.511 72.0464 101.492 66.1438C106.547 61.0037 110.018 56.9941 113.376 53.116C120.12 45.3336 125.951 38.6028 141.903 26.2324C148.568 21.0594 156.634 18.4828 164.62 18.9692C164.817 18.9823 165.021 18.9955 165.218 19.0086C172.968 19.6331 179.659 23.1102 184.102 28.8353L185.64 30.8203C195.079 42.987 191.503 61.615 177.68 72.3421C161.728 84.7191 153.768 88.6892 144.546 93.2838C139.958 95.5712 135.212 97.9375 128.974 101.559C121.77 105.884 115.079 111.07 109.104 116.973C104.365 121.758 100.953 125.709 97.6472 129.527C90.9493 137.27 84.6195 144.586 68.6996 156.884C61.6205 162.379 53.2004 164.752 45.3983 164.128H45.3851Z" fill="#FFDEAE"/>
<path d="M144.697 60.984L145.078 61.4769C149.686 67.419 147.924 76.5818 141.154 81.8336C129.382 90.9635 126.45 90.8386 116.952 96.3534C113.35 98.5159 110.018 101.099 107.027 104.05C99.7835 111.373 98.6727 114.83 86.953 123.881C80.1827 129.133 70.8753 128.568 66.2611 122.619L65.8798 122.126L65.4986 121.633C60.8909 115.691 62.6525 106.528 69.4227 101.277C81.1095 92.173 84.7313 91.9561 93.6246 86.7568C97.2266 84.5943 100.559 82.0111 103.55 79.0598C111.247 71.2313 111.858 68.3589 123.63 59.229C130.401 53.9771 139.708 54.5424 144.322 60.491L144.704 60.984H144.697Z" fill="#E7374C"/>
<path d="M30.7733 94.3881L30.2474 93.7111L136.139 11.5614L136.665 12.2384L30.7733 94.3881Z" fill="#643F92"/>
<path d="M84.6328 163.812L84.1069 163.142L189.998 80.9922L190.524 81.6693L84.6328 163.812Z" fill="#643F92"/>
</g>
<defs>
<clipPath id="clip0_190_15">
<rect width="130.713" height="78.8531" fill="white" transform="translate(254 53)"/>
</clipPath>
<clipPath id="clip1_190_15">
<rect width="97.7675" height="116.686" fill="white" transform="translate(191.667 159) rotate(18.3145)"/>
</clipPath>
<clipPath id="clip2_190_15">
<rect width="209.41" height="182.158" fill="white" transform="translate(0.589966 0.48584)"/>
</clipPath>
</defs>
</svg>
