<svg width="134" height="134" viewBox="0 0 134 134" fill="none" xmlns="http://www.w3.org/2000/svg">
<g clip-path="url(#clip0_157_157)">
<path d="M66.6955 133.391C103.53 133.391 133.391 103.53 133.391 66.6955C133.391 29.8606 103.53 0 66.6955 0C29.8606 0 0 29.8606 0 66.6955C0 103.53 29.8606 133.391 66.6955 133.391Z" fill="white"/>
<path d="M28.9402 99.1792C34.3671 97.9317 39.8474 96.9123 45.3616 96.1259C46.5218 100.067 47.6868 104.009 48.8469 107.951C54.1816 98.4511 59.5114 88.9516 64.8461 79.4521C65.8897 77.5929 66.9624 75.6319 67.0013 73.5009C67.0401 71.2292 65.88 69.0788 64.3606 67.3896C61.3802 64.0742 49.5459 58.492 47.5023 65.1955C45.2646 72.5398 39.2358 78.9036 35.4738 85.7139C33.0613 90.0826 30.877 94.5775 28.9402 99.1792Z" fill="#643F92"/>
<path d="M110.193 92.5339C104.625 92.6601 99.0626 93.0193 93.5241 93.6115C93.3639 97.7181 93.2086 101.825 93.0484 105.926C85.5439 98.0288 78.0443 90.1311 70.5399 82.2335C69.0691 80.685 67.5497 79.0492 66.9867 76.991C66.3896 74.797 66.9867 72.4282 68.0449 70.4186C70.1176 66.4722 80.219 58.1571 83.845 64.1519C87.8205 70.7195 95.223 75.4086 100.543 81.0879C103.956 84.7334 107.174 88.5535 110.183 92.5339H110.193Z" fill="#643F92"/>
<path d="M49.3955 104.033L46.2501 93.364C41.5319 94.0435 36.7845 94.927 32.144 95.9949L31.6829 96.1017L31.8673 95.6648C33.5566 91.665 35.4788 87.7041 37.5806 83.8887C38.7893 81.6995 40.2844 79.5297 41.7357 77.4328C44.2405 73.8019 46.8325 70.0497 48.0606 66.0207C48.5169 64.5208 49.5314 63.584 51.075 63.2442C54.9826 62.3802 61.2687 65.7101 63.186 67.8459C64.2879 69.074 65.5937 71.0253 65.5549 73.3456C65.5209 75.3115 64.5209 77.0881 63.6423 78.656L49.3955 104.033ZM46.5947 92.8203L49.5314 102.791L63.2152 78.4182C64.0646 76.8988 65.0306 75.1805 65.0646 73.3359C65.0937 71.6467 64.2976 69.8118 62.822 68.1663C60.9726 66.1081 54.9195 62.885 51.177 63.715C49.8178 64.016 48.9247 64.8412 48.5218 66.1615C47.2694 70.2632 44.6579 74.0446 42.1289 77.7046C40.6872 79.7919 39.197 81.9519 37.9981 84.1169C35.9788 87.7769 34.1245 91.5728 32.4886 95.4124C37.0661 94.3736 41.7357 93.5144 46.3811 92.8494L46.5898 92.8203H46.5947Z" fill="#FAFAFA"/>
<path d="M91.4273 102.053L71.3846 80.952C70.1468 79.6462 68.744 78.1706 68.2246 76.2726C67.613 74.03 68.3993 71.8166 69.1663 70.3603C70.5012 67.8216 75.7776 63.0452 79.7774 62.9238C81.3453 62.8899 82.5685 63.5306 83.384 64.8752C85.5635 68.4769 89.0002 71.4816 92.3204 74.3844C94.2378 76.0639 96.2231 77.7968 97.9318 79.622C100.912 82.8014 103.747 86.1702 106.363 89.6311L106.65 90.0098L106.174 90.0195C101.407 90.1263 96.592 90.4321 91.8544 90.9369V91.1117L91.4273 102.053ZM79.9327 63.4044C79.8842 63.4044 79.8405 63.4044 79.7919 63.4044C75.9572 63.5209 70.8847 68.1274 69.5983 70.5788C68.5692 72.535 68.2489 74.5106 68.6954 76.1416C69.1809 77.923 70.54 79.3501 71.739 80.6122L90.9904 100.878L91.3884 90.4903L91.5971 90.4661C96.2571 89.9661 101 89.6554 105.693 89.5341C103.164 86.2187 100.436 82.9907 97.5774 79.9375C95.8882 78.1318 93.9126 76.4037 92 74.7339C88.6507 71.8069 85.1897 68.7779 82.9665 65.113C82.2772 63.9723 81.253 63.3947 79.9327 63.3947V63.4044Z" fill="#FAFAFA"/>
<path d="M83.4859 83.3451C80.219 81.5636 76.1756 83.6169 75.695 87.3109C75.0106 92.5485 67.9187 93.6698 65.6567 88.8982C64.0597 85.5343 59.5842 84.8256 57.0212 87.5293C53.3904 91.3641 46.9926 88.107 47.9683 82.9131C48.6528 79.2531 45.449 76.0493 41.789 76.7289C36.5951 77.6997 33.338 71.302 37.1776 67.6712C39.8814 65.113 39.1775 60.6375 35.8136 59.0357C31.042 56.7688 32.1682 49.677 37.4058 48.9974C41.0998 48.5168 43.1579 44.4782 41.3764 41.2114C38.8523 36.5709 43.9297 31.4983 48.5654 34.0273C51.8322 35.8088 55.8757 33.7555 56.3562 30.0615C57.0407 24.8239 64.1325 23.7026 66.3945 28.4742C67.9915 31.8381 72.467 32.5468 75.03 29.8431C78.6609 26.0083 85.0586 29.2654 84.0829 34.4593C83.3985 38.1193 86.6022 41.323 90.2622 40.6435C95.4561 39.6726 98.7132 46.0704 94.8736 49.7012C92.1699 52.2593 92.8737 56.7348 96.2376 58.3367C101.009 60.6036 99.883 67.6954 94.6455 68.375C90.9515 68.8556 88.8933 72.8942 90.6748 76.161C93.1989 80.8015 88.1215 85.8741 83.4859 83.3451Z" fill="#FFAE00"/>
<path d="M82.8201 75.4801C92.0955 66.2047 92.0955 51.1663 82.8201 41.8909C73.5447 32.6155 58.5063 32.6155 49.2309 41.8909C39.9555 51.1663 39.9555 66.2047 49.2309 75.4801C58.5063 84.7555 73.5447 84.7555 82.8201 75.4801Z" fill="white"/>
<path d="M85.5875 62.8023C87.8602 51.999 80.9448 41.3989 70.1415 39.1262C59.3382 36.8535 48.738 43.769 46.4654 54.5722C44.1927 65.3755 51.1081 75.9757 61.9114 78.2484C72.7147 80.521 83.3149 73.6056 85.5875 62.8023Z" fill="#FFAE00"/>
<path d="M66.0257 79.2822C54.6671 79.2822 45.4297 70.04 45.4297 58.6862C45.4297 47.3324 54.6719 38.0902 66.0257 38.0902C77.3795 38.0902 86.6217 47.3324 86.6217 58.6862C86.6217 70.04 77.3795 79.2822 66.0257 79.2822ZM66.0257 38.5708C54.934 38.5708 45.9151 47.5946 45.9151 58.6813C45.9151 69.7681 54.9389 78.7919 66.0257 78.7919C77.1125 78.7919 86.1363 69.7681 86.1363 58.6813C86.1363 47.5946 77.1125 38.5708 66.0257 38.5708ZM66.0257 78.5492C55.07 78.5492 46.1578 69.6371 46.1578 58.6813C46.1578 47.7256 55.07 38.8135 66.0257 38.8135C76.9814 38.8135 85.8936 47.7256 85.8936 58.6813C85.8936 69.6371 76.9814 78.5492 66.0257 78.5492ZM66.0257 39.2989C55.3369 39.2989 46.6432 47.9926 46.6432 58.6813C46.6432 69.3701 55.3369 78.0638 66.0257 78.0638C76.7144 78.0638 85.4081 69.3701 85.4081 58.6813C85.4081 47.9926 76.7144 39.2989 66.0257 39.2989Z" fill="#FAFAFA"/>
<g opacity="0.44">
<path d="M48.9828 55.6864C48.711 56.7688 48.5119 57.9047 48.7207 59.0017C48.9294 60.0987 49.6138 61.1618 50.6623 61.5598C51.206 61.7637 51.8564 61.7686 52.3418 61.4433C52.6865 61.2103 52.9098 60.8463 53.0894 60.4725C53.866 58.8561 53.934 57.0067 54.2835 55.2495C55.1184 51.0264 57.6814 47.1771 61.2588 44.784C62.2297 44.1336 64.6227 41.6919 61.9336 41.9104C60.72 42.0123 59.3318 42.6191 58.3173 43.2792C55.5261 45.085 52.9729 47.3276 51.2545 50.1964C50.2303 51.9001 49.4731 53.7641 48.9828 55.6864Z" fill="white"/>
</g>
<g opacity="0.44">
<path d="M83.0297 62.0258C83.3403 60.9531 83.5782 59.8269 83.4083 58.7202C83.2384 57.6134 82.5879 56.5261 81.5589 56.0941C81.0201 55.8708 80.3745 55.8417 79.8793 56.1524C79.5298 56.3708 79.292 56.73 79.0978 57.0989C78.2678 58.6862 78.1319 60.5308 77.7241 62.2782C76.7436 66.4673 74.0398 70.2244 70.3847 72.4913C69.3896 73.1078 66.914 75.462 69.608 75.3358C70.8264 75.2776 72.2293 74.7193 73.268 74.0932C76.1223 72.3845 78.7483 70.2341 80.5686 67.4285C81.6511 65.7635 82.4763 63.9286 83.0297 62.021V62.0258Z" fill="white"/>
</g>
<path d="M51.3078 61.9967C51.0312 61.9967 50.7399 61.9433 50.4584 61.8365C49.4147 61.4433 48.6138 60.3948 48.3662 59.0988C48.1381 57.9047 48.3711 56.696 48.6284 55.6766C49.1283 53.6962 49.9001 51.8273 50.9244 50.1187C52.4874 47.512 54.8222 45.2257 58.0648 43.1239C59.2831 42.3327 60.6763 41.8084 61.7927 41.7162C62.0985 41.6919 63.0354 41.6143 63.2538 42.2308C63.5693 43.1385 61.8024 44.6772 61.2733 45.0267C57.7298 47.4004 55.2251 51.1575 54.3999 55.3417C54.3028 55.832 54.2252 56.3417 54.1523 56.8319C53.9582 58.1086 53.7592 59.4289 53.1864 60.623C53.0165 60.9725 52.7738 61.4093 52.3563 61.6909C52.0602 61.8899 51.6913 61.9918 51.3078 61.9918V61.9967ZM49.0992 55.7931C48.8565 56.764 48.6332 57.9047 48.842 59.0066C49.0555 60.1376 49.7448 61.0453 50.6283 61.3802C51.1477 61.5792 51.7059 61.5404 52.0845 61.288C52.4049 61.0744 52.6087 60.7055 52.7495 60.4143C53.2883 59.2881 53.4825 58.0018 53.6718 56.7591C53.7495 56.264 53.8223 55.7495 53.9242 55.2446C54.7737 50.939 57.3561 47.0654 61.0015 44.6238C61.7879 44.0996 62.948 42.8375 62.7927 42.3909C62.7344 42.2259 62.3752 42.1531 61.8316 42.1968C60.7928 42.2841 59.4822 42.7793 58.3269 43.5268C55.1523 45.5849 52.866 47.8227 51.3418 50.3662C50.3419 52.0312 49.5895 53.8564 49.0992 55.7931Z" fill="#FAFAFA"/>
<path d="M69.2585 75.6319C68.8556 75.6319 68.21 75.5639 68.0547 75.0591C67.7683 74.1417 69.5935 72.666 70.1323 72.3311C73.7534 70.0836 76.3941 66.4188 77.3649 62.2685C77.4814 61.7831 77.5736 61.2783 77.6658 60.788C77.9037 59.5162 78.1464 58.2056 78.7629 57.0309C78.9425 56.6863 79.2046 56.2591 79.6318 55.9922C80.156 55.6669 80.8696 55.6378 81.5346 55.9145C82.5636 56.3465 83.3306 57.4241 83.5296 58.725C83.7141 59.9288 83.4374 61.1229 83.1461 62.1375C82.5733 64.0985 81.7384 65.9431 80.656 67.608C79.0007 70.1565 76.5882 72.3602 73.2729 74.3456C72.0302 75.0931 70.6177 75.5688 69.4964 75.6222C69.4381 75.6222 69.3556 75.627 69.2585 75.627V75.6319ZM80.6123 56.2154C80.3453 56.2154 80.0881 56.2785 79.8842 56.4048C79.559 56.6086 79.3405 56.9678 79.19 57.2542C78.6075 58.361 78.3697 59.6376 78.1415 60.8754C78.0493 61.3705 77.9522 61.8802 77.8357 62.3753C76.8358 66.6518 74.1175 70.4283 70.3895 72.7388C69.5837 73.2388 68.3799 74.4572 68.5207 74.9086C68.5741 75.0737 68.9284 75.161 69.4721 75.1368C70.5157 75.0882 71.8409 74.6368 73.0205 73.9281C76.2679 71.9816 78.6318 69.8264 80.2434 67.3411C81.3016 65.7149 82.1171 63.9141 82.6753 61.9967C82.9568 61.0356 83.219 59.9046 83.0442 58.7978C82.8695 57.662 82.2142 56.73 81.3404 56.3611C81.0977 56.2591 80.8453 56.2106 80.6074 56.2106L80.6123 56.2154Z" fill="#FAFAFA"/>
<path d="M72.5059 62.6229C72.5059 66.4188 69.4284 69.4963 65.6325 69.4963C61.8365 69.4963 58.759 66.4188 58.759 62.6229C58.759 58.8269 65.6325 45.8762 65.6325 46.0995C65.6325 46.182 72.5059 58.8269 72.5059 62.6229Z" fill="#E7374C"/>
<path d="M65.6325 69.739C61.7055 69.739 58.5164 66.545 58.5164 62.6229H59.0018C59.0018 66.278 61.9773 69.2536 65.6325 69.2536C69.2876 69.2536 72.2632 66.278 72.2632 62.6229H72.7486C72.7486 66.5498 69.5546 69.739 65.6325 69.739Z" fill="#FAFAFA"/>
<path d="M67.7002 67.4139L67.54 66.9576C68.6905 66.5547 69.6079 65.7247 70.1321 64.6276C70.6564 63.5306 70.7243 62.2928 70.3166 61.1472L70.7729 60.9871C71.2195 62.2588 71.1466 63.6277 70.569 64.8412C69.9914 66.0548 68.972 66.9722 67.7002 67.4188V67.4139Z" fill="#FAFAFA"/>
</g>
<defs>
<clipPath id="clip0_157_157">
<rect width="133.391" height="133.391" fill="white"/>
</clipPath>
</defs>
</svg>
