<svg width="134" height="134" viewBox="0 0 134 134" fill="none" xmlns="http://www.w3.org/2000/svg">
<g clip-path="url(#clip0_157_179)">
<path d="M66.6955 133.391C103.53 133.391 133.391 103.53 133.391 66.6955C133.391 29.8606 103.53 0 66.6955 0C29.8606 0 0 29.8606 0 66.6955C0 103.53 29.8606 133.391 66.6955 133.391Z" fill="white"/>
<path d="M49.5897 46.9199C49.8567 47.8713 50.3518 48.7547 51.0265 49.4731C50.0072 49.8566 49.1237 50.5168 48.2597 51.1721C44.2939 54.167 40.2795 57.2203 35.6584 59.06C35.8186 58.9969 35.2264 57.2543 35.1584 57.0844C34.8381 56.2689 34.6536 56.1815 35.5371 55.8951C36.8477 55.4631 38.1389 55.0408 39.3961 54.4729C41.8765 53.3564 44.2065 51.9002 46.2889 50.1527C47.4685 49.1625 48.5752 48.0848 49.5849 46.9199H49.5897Z" fill="#E7374C"/>
<path d="M82.6607 46.9199C82.3937 47.8713 81.8986 48.7547 81.2239 49.4731C82.2432 49.8566 83.1267 50.5168 83.9907 51.1721C87.9565 54.167 91.9709 57.2203 96.592 59.06C96.4318 58.9969 97.024 57.2543 97.092 57.0844C97.4123 56.2689 97.5968 56.1815 96.7133 55.8951C95.4027 55.4631 94.1115 55.0408 92.8543 54.4729C90.3739 53.3564 88.0439 51.9002 85.9615 50.1527C84.7819 49.1625 83.6752 48.0848 82.6655 46.9199H82.6607Z" fill="#E7374C"/>
<path d="M58.8076 74.2825C58.9532 74.7582 58.9775 75.2339 59.0018 75.7387C59.0212 76.1222 59.2057 78.4279 59.2105 78.8356C59.3125 86.9566 60.7638 100.33 61.2298 105.892C61.3269 107.019 61.5648 107.965 61.3512 108.946C61.2978 109.188 61.225 109.436 61.157 109.674C60.9823 110.281 60.7978 110.907 60.89 111.548L61.3221 111.577L61.0842 111.601C62.2104 110.203 62.5259 108.451 62.5938 107.227C62.6763 105.664 63.0258 103.985 62.7928 102.475C62.5841 101.15 62.0308 99.8491 62.0647 98.4802C62.0987 97.1017 62.1327 95.6746 61.924 94.33C61.7735 93.3689 61.5114 92.4174 61.2589 91.5C60.7493 89.6555 60.3367 75.6513 60.691 73.8116C60.725 73.6369 60.8269 73.3408 61.0114 73.3651C61.0696 73.3748 61.123 73.4136 61.1861 73.4524L61.2153 73.4718C61.822 73.8844 62.6861 73.9378 63.521 73.6078C64.2588 73.3214 64.8656 72.8117 65.4578 72.3214L65.5403 72.2486L65.2393 71.8991C65.283 71.7389 65.3849 71.6176 65.4966 71.4817C65.6131 71.3457 65.7296 71.205 65.7975 71.0157C65.8315 70.9186 65.8703 70.8215 65.9383 70.7827C66.0839 70.6953 66.2878 70.87 66.3897 71.0205C66.5839 71.3118 66.7053 71.6613 66.8266 71.9962C67.0014 72.4865 67.181 72.9961 67.5839 73.3553C68.045 73.7582 68.7246 73.9039 69.6129 73.7922C69.8216 73.7631 70.0352 73.7291 70.2439 73.6903C70.6953 73.6078 71.1662 73.5252 71.6225 73.5592C71.7487 73.5689 71.904 73.5883 72.0108 73.6757C72.1758 73.8116 72.1904 74.0835 72.1856 74.3068C72.1613 75.3552 70.8701 88.539 70.6468 89.5535L70.1954 93.6067C69.7391 95.694 69.9527 97.6016 69.8993 99.6889C69.8653 101.111 69.5449 102.64 69.3799 104.087C69.1275 106.329 69.7682 108.698 70.9526 110.708C71.0837 110.931 71.0448 110.761 71.307 110.771C71.4429 110.776 71.5594 110.722 71.637 110.611C71.7244 110.489 71.7099 110.586 71.7001 110.446C71.671 109.868 71.5691 109.722 71.4283 109.174C71.3604 108.892 71.2875 108.601 71.2293 108.315C70.9963 107.135 71.0157 105.926 71.0642 104.684C71.2196 100.368 71.6322 96.0143 72.2875 91.7427C72.5011 90.3496 72.9234 76.6659 73.2583 75.297C73.4379 74.564 73.6272 73.8068 73.7874 73.0641C74.1418 71.4477 74.4767 69.608 74.6757 67.9333C74.7922 66.9139 74.8553 65.8558 74.9136 64.8364C75.0737 62.0404 75.2436 65.5499 76.6174 63.118C76.9863 62.4579 77.3406 61.7589 77.6804 61.0842C78.1464 60.157 78.627 59.1959 79.1706 58.3222C79.3357 58.06 79.5056 57.7931 79.6754 57.5358C80.1075 56.8708 80.554 56.1864 80.8987 55.4534C81.3501 54.502 81.6365 53.4729 81.9083 52.4827C82.0637 51.9196 82.3452 51.3565 82.6219 50.8129C83.1025 49.8566 83.6024 48.8664 83.4519 47.8276C83.4034 47.4926 83.5636 47.2354 83.7044 47.08C83.9956 46.7645 84.4616 46.5704 84.8985 46.5898C85.5392 46.6238 86.1314 46.9538 86.6993 47.2694C86.8061 47.3325 86.9178 47.3907 87.0246 47.449C88.4177 48.2013 89.7283 48.4974 90.9176 48.3276C91.903 48.1868 92.801 47.7256 93.6698 47.2791C94.063 47.0752 94.4708 46.8665 94.8785 46.6917C96.7668 45.8762 98.9074 45.7015 100.902 46.1966C101.208 46.2743 101.519 46.3665 101.82 46.4539C102.315 46.6043 102.83 46.7597 103.354 46.8422C104.524 47.0267 105.718 46.8616 106.868 46.7014C107.067 46.6723 107.266 46.648 107.465 46.6189C108.218 46.5218 109.281 46.4636 109.81 47.1334C110.271 47.7159 110.174 48.6188 109.519 49.8081C108.965 50.8129 108.179 51.9827 106.97 52.138C106.732 52.1672 106.48 52.1574 106.237 52.1429C105.912 52.1283 105.572 52.1089 105.247 52.1914C104.873 52.2885 104.524 52.604 104.402 52.9584C104.32 53.2059 104.354 53.4486 104.499 53.6331C104.606 53.769 104.761 53.8661 104.985 53.9438C105.32 54.0603 105.684 54.0991 106.033 54.1379C106.582 54.1962 107.101 54.2544 107.485 54.5894C107.975 55.0165 108.048 55.7349 108.121 56.4291C108.135 56.5553 108.145 56.6815 108.159 56.8077C108.281 57.7979 108.635 58.7639 109.179 59.6037C109.281 59.7638 109.407 59.9386 109.596 60.0405C109.79 60.1425 110.004 60.1425 110.222 60.0502C110.523 59.9192 110.795 59.6085 110.892 59.2736C110.975 58.9823 110.984 58.6862 110.989 58.395C110.989 58.1765 110.999 57.9533 111.038 57.7397C111.193 56.8659 111.897 56.2155 112.572 55.5893C112.727 55.4437 112.887 55.2932 113.043 55.1427C113.712 54.4826 114.266 53.7253 114.688 52.8856C115.717 50.8517 115.868 48.4586 115.081 46.4733C114.397 44.7452 113.072 42.658 110.654 42.556C107.985 42.4444 105.271 42.3861 102.601 42.3764C99.2715 42.3716 95.762 42.4784 92.699 43.8278C92.6359 43.8569 92.5728 43.8812 92.5146 43.9103C92.0292 44.1287 91.5292 44.352 91.0146 44.3326C90.5487 44.3181 90.0924 44.0996 89.6895 43.9055C88.8352 43.4977 87.9566 43.0754 87.2576 42.4201C86.9081 42.09 86.6023 41.7017 86.311 41.3231C86.0974 41.0512 85.879 40.7649 85.6363 40.5027C85.0295 39.8377 84.2917 39.3038 83.583 38.7892L81.6122 37.3573L81.3841 37.0854C81.3598 37.0563 81.3307 37.0369 81.2967 37.0223C77.1707 34.372 72.404 32.7604 67.5159 32.3478C60.5502 31.7653 53.7982 33.7652 49.0023 37.8378C47.5072 39.1096 46.3665 40.6823 45.7986 42.2696C45.4248 42.5123 45.1627 42.8715 44.9054 43.221C44.687 43.5171 44.4637 43.8181 44.1822 44.0414C43.3279 44.7112 42.0901 44.5656 41.1047 44.3666C40.3426 44.2113 39.5611 44.0122 38.8087 43.8181C36.668 43.2744 34.4545 42.7065 32.2411 43.0172C31.9013 43.0657 31.5566 43.1337 31.2217 43.2016C30.3965 43.3667 29.5422 43.5365 28.7218 43.3861C28.2947 43.3084 27.8772 43.1434 27.4792 42.9832C27.1879 42.8667 26.8821 42.7453 26.5715 42.658C25.2172 42.2696 23.7367 42.4929 22.5474 42.6774C21.8241 42.789 21.0087 42.9104 20.2708 43.2404C19.499 43.5851 18.9214 44.1724 18.6496 44.8908C18.169 46.1626 17.669 47.4732 17.5817 48.8664C17.436 51.1526 18.1447 53.3855 19.6301 55.3175C19.9262 55.7058 20.2757 55.9728 20.6155 56.2349C20.863 56.4242 21.096 56.6038 21.3096 56.8271C21.7902 57.3271 21.8484 57.861 21.9115 58.4824C21.9358 58.7154 21.9601 58.9581 22.0135 59.2105C22.1397 59.8367 22.3872 59.9483 22.5717 59.9337C22.9552 59.9046 23.2755 59.2639 23.2998 58.7105C23.3192 58.3173 23.2998 57.929 23.2755 57.5504C23.2318 56.764 23.1882 56.0262 23.4745 55.2738C23.9163 54.1234 24.6104 53.6331 25.7948 53.6282C26.6443 53.6282 27.6879 53.536 27.8481 53.1283C27.9112 52.9681 27.8432 52.7885 27.6394 52.5943C27.4306 52.3953 26.8336 52.3468 26.2608 52.3031C25.955 52.2788 25.6686 52.2545 25.5181 52.2108C24.4551 51.905 23.6444 51.3225 23.0474 50.4342C22.2173 49.2013 22.4892 47.9198 23.227 47.3956C23.8386 46.9587 24.4017 47.1286 25.0473 47.3276C25.1492 47.3567 25.256 47.3907 25.3579 47.4198C26.4744 47.7305 27.2996 47.682 28.4306 47.4829C28.9063 47.4004 29.3966 47.2985 29.8723 47.2014C32.1246 46.7451 34.4497 46.2743 36.6292 47.0898C37.0515 47.2499 37.4738 47.4635 37.9204 47.6965C38.7359 48.1188 39.5805 48.5557 40.4591 48.6139C41.7309 48.7062 43.2745 48.2353 44.5123 47.8567C44.6773 47.8082 44.8375 47.7596 44.9928 47.7111C45.2015 47.648 45.4103 47.58 45.6141 47.5121C46.5461 47.1965 47.4247 46.9004 48.3664 47.3859C49.4683 47.9489 49.6625 48.8906 49.8906 49.978C49.9343 50.177 49.9731 50.3808 50.0217 50.5896C50.1819 51.2594 50.3081 51.9633 50.4294 52.6429C50.7207 54.2787 51.0265 55.9631 51.8128 57.429L51.7886 57.4484L51.9439 57.6669L51.9585 57.6572C53.0506 59.0066 54.2642 60.691 55.5796 62.6715C56.2349 63.6568 56.9048 64.7247 57.2543 65.9189" fill="#FF8ACD"/>
<path d="M25.3433 53.2544C25.353 53.4389 25.3675 53.6233 25.3772 53.8078C25.3675 53.8078 25.3627 53.8175 25.353 53.8175C25.4015 53.8612 25.4549 53.9049 25.5034 53.9437L25.3433 53.2496V53.2544Z" fill="#FBD3D8"/>
<path d="M106.582 53.036L106.422 53.7301C106.47 53.6865 106.524 53.6428 106.572 53.6039C106.562 53.6039 106.558 53.5942 106.548 53.5942C106.558 53.4098 106.572 53.2253 106.582 53.0409V53.036Z" fill="#FBD3D8"/>
<path d="M44.187 44.085C44.187 44.085 49.4974 31.5566 66.0888 31.2847C78.6415 31.0809 88.7478 43.6773 88.7478 43.6773C88.7478 43.6773 78.1221 34.8574 66.1713 34.8331C53.9875 34.8137 44.1919 44.0802 44.1919 44.0802L44.187 44.085Z" fill="#FBD3D8"/>
<path d="M65.2198 66.1955C64.5984 66.9236 63.5597 67.3702 62.5694 67.1955C62.0889 67.1129 61.6326 66.9091 61.1423 66.9139C59.7103 66.9236 60.2103 68.3799 60.3365 69.1808C60.5307 70.4089 60.3948 89.738 60.5889 90.966C60.8219 92.4417 61.0549 93.9222 61.186 95.4076C61.2734 96.4318 61.3171 97.4608 61.4918 98.4754C61.6617 99.451 61.9529 100.407 62.1374 101.383C62.5646 103.645 62.4044 105.965 62.1374 108.247C62.0403 109.067 61.885 110.086 61.3656 110.771C61.1229 111.091 61.3025 111.562 61.6957 111.649C61.7539 111.664 61.817 111.679 61.8753 111.693C62.5451 111.887 63.2587 112.028 63.9431 111.887C64.6276 111.746 65.2732 111.261 65.3751 110.615C66.045 111.48 67.2002 111.999 68.341 111.946C69.4817 111.892 70.5787 111.271 71.1515 110.349C70.4768 109.31 70.069 108.135 69.8797 106.936C69.5642 104.96 69.8118 102.946 70.0642 100.961C70.6758 96.126 72.1708 73.2485 73.2485 68.4867C73.3601 67.9867 72.8553 67.278 72.3699 67.0401C72.0155 66.8702 71.5932 67.0401 71.2146 67.1566C69.8069 67.5887 67.9963 66.977 67.5546 65.6567C67.4672 65.3994 67.4332 65.1276 67.3653 64.8655L65.5498 64.6713" fill="#FBD3D8"/>
<path d="M67.5741 65.0111C67.0741 65.0111 66.6518 64.6276 66.6081 64.1228C66.4819 62.6666 66.4383 61.1909 66.4771 59.7347C66.4965 59.0211 66.545 58.2639 66.8897 57.5455C66.9237 57.4727 66.9625 57.3999 67.0013 57.327C67.011 57.3076 67.0256 57.2834 67.0353 57.2639C66.8897 57.0601 66.8217 56.8028 66.8606 56.5407C66.9091 56.23 67.1033 55.9679 67.3751 55.8271L67.3799 55.6718C67.3945 55.3514 67.4091 54.8854 67.6761 54.4631C67.6324 54.2981 67.6032 54.0942 67.6469 53.8612C67.7149 53.502 67.9188 53.2642 68.1129 53.104C68.0498 52.5797 68.3265 52.1623 68.5498 51.8953C68.5255 51.8273 68.5061 51.7545 68.4964 51.6769C68.4479 51.274 68.6566 50.8856 69.0158 50.7012C68.9818 50.5895 68.9672 50.473 68.9672 50.3565C68.9672 50.109 69.0401 49.7109 69.4429 49.4246C69.4527 49.3372 69.4672 49.245 69.5012 49.1527C69.6225 48.7935 69.8653 48.5945 70.0254 48.4829C70.0303 48.4489 70.0351 48.4149 70.04 48.3761C70.0546 48.2741 70.074 48.1722 70.0934 48.08C70.1711 47.7547 70.3458 47.4538 70.5788 47.2305C70.6225 46.8616 70.8118 46.614 70.9283 46.4927C71.1419 46.2694 71.3846 46.1772 71.5739 46.1238C71.5982 46.0704 71.6224 46.017 71.6564 45.9587C71.9234 45.4927 72.5156 45.3325 72.9816 45.5995C73.4476 45.8665 73.6078 46.4587 73.3408 46.9247V46.9538C73.2777 47.1189 73.1709 47.4344 72.8699 47.6771C72.7971 47.7353 72.7243 47.7839 72.6467 47.8227C72.6467 48.0848 72.5447 48.3421 72.3506 48.5314C72.2341 48.6479 72.0884 48.7256 71.938 48.7693C71.8894 49.0751 71.7875 49.5168 71.4089 49.8614C71.4089 50.0653 71.3652 50.308 71.205 50.541C71.1759 50.5847 71.1419 50.6284 71.1079 50.6672C71.1273 50.808 71.1225 50.9536 71.0933 51.0944C71.0254 51.439 70.8409 51.7157 70.6274 51.9293C70.6079 52.2982 70.4575 52.672 70.2002 52.9583L70.1468 53.0166C70.1662 53.0846 70.1856 53.1622 70.1953 53.2447C70.2584 53.8127 69.9526 54.167 69.6905 54.3709C69.7196 54.5505 69.7245 54.7641 69.642 54.9922C69.5594 55.2301 69.4235 55.3903 69.3362 55.4776C69.3264 55.5456 69.3216 55.6621 69.3167 55.7446C69.3167 55.8126 69.3119 55.8805 69.307 55.9436C69.2828 56.3077 69.1808 56.6378 69.0206 56.9047C69.0498 57.0989 69.0449 57.3076 69.0012 57.5115C68.9381 57.8125 68.8071 58.0503 68.7051 58.2396C68.6808 58.2882 68.6517 58.3367 68.6323 58.3852C68.4527 58.759 68.4236 59.259 68.409 59.7832C68.3702 61.1667 68.4139 62.5695 68.5352 63.9529C68.5838 64.4869 68.1857 64.9577 67.6518 65.0063C67.6227 65.0063 67.5935 65.0063 67.5644 65.0063L67.5741 65.0111Z" fill="#EE2E45"/>
<path d="M71.2923 111.077C71.1175 111.077 71.0253 110.916 70.9816 110.844C69.7001 108.664 69.1322 106.261 69.3749 104.072C69.4331 103.567 69.506 103.053 69.5836 102.538C69.7244 101.592 69.87 100.611 69.8894 99.6986C69.904 99.1112 69.8991 98.5385 69.8894 97.9705C69.87 96.49 69.8554 95.092 70.1904 93.5678L70.637 89.5389C70.87 88.4759 72.1514 75.2921 72.1709 74.3164L72.6563 74.3261C72.6369 75.3067 71.3408 88.573 71.1127 89.6166L70.6661 93.6455C70.3409 95.1406 70.3554 96.5094 70.3748 97.9608C70.3797 98.5336 70.3894 99.1112 70.3748 99.7083C70.3506 100.655 70.2049 101.645 70.0642 102.606C69.9865 103.116 69.9137 103.626 69.8554 104.126C69.6225 106.193 70.1613 108.475 71.3699 110.552C71.4185 110.543 71.4816 110.533 71.5544 110.538C71.6078 110.538 71.6466 110.523 71.6757 110.48C71.6806 110.47 71.6903 110.46 71.6952 110.455C71.6757 110.086 71.6223 109.912 71.5447 109.654C71.5107 109.538 71.4719 109.412 71.433 109.247C71.3554 108.946 71.2874 108.659 71.2292 108.378C70.9913 107.169 71.0107 105.946 71.0593 104.693C71.2146 100.368 71.6272 96.0046 72.2874 91.7281C72.3747 91.1505 72.5058 88.2623 72.6466 85.2091C72.8407 80.9277 73.064 76.0736 73.263 75.263C73.4426 74.53 73.6271 73.7776 73.7921 73.0398C74.1853 71.2389 74.5008 69.4284 74.6756 67.9333C74.7921 66.9236 74.8552 65.8703 74.9134 64.8558C74.9765 63.8073 75.0299 63.5791 75.2484 63.4918C75.4425 63.419 75.5833 63.5597 75.6804 63.652C75.7823 63.7539 75.8648 63.8219 75.9474 63.8121C76.0299 63.8024 76.258 63.7005 76.6415 63.0209C77.0153 62.3608 77.3745 61.6375 77.6948 60.9968C78.1657 60.0551 78.6511 59.0939 79.1948 58.2154C79.3598 57.9484 79.5345 57.6814 79.6996 57.4241C80.1268 56.7688 80.5685 56.0893 80.9083 55.3708C81.35 54.4389 81.6315 53.4195 81.9034 52.439C82.0635 51.8516 82.3548 51.2788 82.6363 50.7206C83.1023 49.7983 83.5829 48.8421 83.4421 47.8761C83.379 47.4489 83.578 47.1286 83.7576 46.9295C84.0926 46.5606 84.6362 46.3325 85.141 46.3616C85.84 46.3956 86.4565 46.7402 87.0487 47.0752C87.1555 47.1334 87.2623 47.1965 87.3691 47.2548C88.7185 47.9829 89.9757 48.2693 91.1165 48.1042C92.063 47.9683 92.9416 47.5169 93.7911 47.08C94.1891 46.8762 94.6017 46.6626 95.0143 46.4878C96.9511 45.6529 99.1452 45.4733 101.194 45.9781C101.504 46.0558 101.82 46.148 102.121 46.2403C102.611 46.3907 103.116 46.5412 103.625 46.6189C104.757 46.7985 105.931 46.6334 107.072 46.4781C107.271 46.449 107.47 46.4247 107.669 46.3956C108.48 46.2888 109.63 46.2354 110.237 46.9975C110.766 47.6625 110.679 48.6576 109.97 49.9391C109.387 50.9924 108.557 52.2254 107.237 52.3953C106.975 52.4293 106.713 52.4147 106.46 52.405C106.15 52.3904 105.834 52.3759 105.538 52.4487C105.242 52.5215 104.956 52.7787 104.863 53.0603C104.824 53.1768 104.8 53.3515 104.922 53.5069C104.999 53.604 105.116 53.6768 105.295 53.7399C105.606 53.8467 105.951 53.8855 106.29 53.9243C106.853 53.9874 107.436 54.0505 107.878 54.434C108.441 54.9243 108.523 55.7252 108.596 56.4339C108.611 56.5601 108.62 56.6815 108.635 56.8028C108.751 57.7591 109.091 58.6911 109.615 59.4968C109.703 59.6279 109.805 59.7784 109.946 59.8512C110.072 59.9191 110.213 59.9191 110.363 59.8512C110.601 59.7493 110.819 59.4968 110.892 59.2299C110.97 58.9726 110.975 58.6862 110.979 58.4144C110.979 58.1862 110.989 57.9532 111.028 57.7251C111.198 56.7737 111.931 56.0941 112.635 55.4388C112.805 55.2786 112.955 55.1378 113.096 54.9971C113.746 54.3563 114.285 53.6185 114.698 52.803C115.698 50.8323 115.843 48.512 115.081 46.5898C114.421 44.9248 113.159 42.9249 110.868 42.8278C108.198 42.7162 105.489 42.6579 102.825 42.6482C99.5141 42.6482 96.0385 42.7502 93.0193 44.0753L92.8348 44.1578C92.3494 44.3763 91.796 44.6141 91.2281 44.6044C90.7087 44.585 90.233 44.3569 89.8107 44.1578C88.937 43.7404 88.039 43.3084 87.3157 42.6288C86.9516 42.289 86.641 41.891 86.3449 41.5075C86.1361 41.2357 85.9177 40.959 85.6847 40.7017C85.0925 40.0561 84.3692 39.527 83.6702 39.0222L81.6558 37.5514L81.4277 37.2796C77.3017 34.6389 72.5786 33.0371 67.7293 32.6342C60.8317 32.0614 54.1427 34.037 49.3905 38.0659C47.9246 39.3086 46.813 40.8425 46.2596 42.3958L46.2305 42.4735L46.1625 42.5172C45.8276 42.7356 45.5752 43.0802 45.3325 43.4103C45.1043 43.721 44.8713 44.0365 44.5655 44.2792C43.6335 45.0122 42.3229 44.8617 41.289 44.6481C40.5221 44.4879 39.7454 44.2938 38.993 44.0996C36.8669 43.5559 34.6777 42.9977 32.5128 43.2987C32.1778 43.3424 31.8429 43.4103 31.5177 43.4783C30.6585 43.6482 29.7848 43.8229 28.9159 43.6627C28.4693 43.5802 28.0421 43.4103 27.6295 43.2501C27.3528 43.1385 27.0422 43.0171 26.7412 42.9298C25.4355 42.556 23.9841 42.7793 22.8191 42.954C22.1153 43.0608 21.3143 43.1822 20.6056 43.4977C19.8921 43.8181 19.363 44.3569 19.1106 45.0122C18.6349 46.2645 18.1446 47.5606 18.0572 48.9197C17.9165 51.1478 18.6106 53.3224 20.0523 55.2058C20.3338 55.5699 20.6687 55.8271 20.994 56.0795C21.2464 56.2737 21.4891 56.463 21.7172 56.696C22.256 57.2591 22.3191 57.8562 22.3871 58.492C22.4114 58.7202 22.4356 58.958 22.4842 59.1959C22.5521 59.526 22.6638 59.725 22.7803 59.725C22.7803 59.725 22.7803 59.725 22.7851 59.725C22.9841 59.7104 23.2657 59.225 23.2851 58.7347C23.2997 58.3561 23.2851 57.9775 23.2608 57.6086C23.2123 56.7931 23.1686 56.0261 23.4793 55.2252C23.955 53.9826 24.7413 53.4292 26.0228 53.4243C27.6975 53.4195 27.8431 53.0943 27.848 53.0797C27.8819 52.9972 27.7509 52.8661 27.6975 52.8127C27.547 52.672 26.9208 52.6234 26.4645 52.5846C26.149 52.5603 25.8481 52.536 25.6733 52.4875C24.552 52.1671 23.6977 51.5507 23.0667 50.6138C22.1541 49.2595 22.4745 47.8324 23.3094 47.2451C24.0181 46.7402 24.6637 46.9344 25.3432 47.1431C25.4452 47.1723 25.5471 47.2062 25.6539 47.2354C26.7218 47.5363 27.5227 47.4878 28.6198 47.2936C29.0955 47.2111 29.5857 47.1091 30.0566 47.0169C32.3429 46.5558 34.702 46.0752 36.9446 46.915C37.3814 47.0752 37.8086 47.2985 38.26 47.5315C39.0561 47.9441 39.8813 48.3664 40.7065 48.4246C41.9346 48.5168 43.4539 48.0508 44.6723 47.6771L45.1529 47.5315C45.3567 47.4684 45.5606 47.4004 45.7548 47.3373C46.7013 47.0169 47.6722 46.6917 48.7061 47.2208C49.9099 47.8421 50.1283 48.8809 50.3565 49.9828C50.4002 50.1818 50.439 50.3857 50.4875 50.5895C50.6477 51.2594 50.7739 51.9584 50.8953 52.6331C51.1865 54.269 51.4875 55.9339 52.2593 57.3659L52.3806 57.5552C53.4777 58.9095 54.7009 60.6036 56.0164 62.5889C56.6814 63.5937 57.361 64.6713 57.7202 65.9043L57.2542 66.0402C56.9144 64.8752 56.2591 63.8316 55.6135 62.8607C54.3611 60.9725 53.1913 59.3512 52.1428 58.0358H52.1331L51.6865 57.4484L51.7351 57.4096C50.9972 55.9582 50.706 54.3224 50.4196 52.7399C50.2934 52.0506 50.172 51.3565 50.0167 50.7012C49.9682 50.4925 49.9245 50.2886 49.8808 50.0896C49.6575 49.0168 49.4827 48.1673 48.4828 47.6577C47.6333 47.2208 46.8373 47.4878 45.9198 47.7984C45.7062 47.8712 45.5024 47.9392 45.2936 48.0023L44.8131 48.1479C43.5559 48.5314 41.9928 49.0071 40.6677 48.9149C39.7405 48.8469 38.8765 48.4003 38.0367 47.9683C37.595 47.7402 37.1776 47.5266 36.7698 47.3713C34.6583 46.5849 32.3671 47.046 30.1488 47.4975C29.6731 47.5946 29.178 47.6916 28.7023 47.779C27.5325 47.9829 26.6781 48.0363 25.518 47.7111C25.4112 47.6819 25.3044 47.648 25.1976 47.6188C24.5617 47.4247 24.1006 47.2887 23.5861 47.6528C22.9405 48.1091 22.722 49.245 23.4696 50.3565C24.0326 51.1963 24.7996 51.7448 25.8044 52.0361C25.9306 52.0749 26.2315 52.0943 26.4985 52.1186C27.1441 52.172 27.7509 52.2205 28.0227 52.4778C28.3771 52.8079 28.3625 53.0943 28.2897 53.2739C28.1829 53.5506 27.8237 53.9195 26.0131 53.9243C24.9306 53.9243 24.3239 54.3612 23.921 55.4145C23.6492 56.1184 23.6928 56.8319 23.7365 57.5892C23.756 57.9775 23.7802 58.3707 23.7608 58.7736C23.7317 59.4434 23.3434 60.1861 22.8094 60.2298C22.5813 60.2541 22.1638 60.1473 21.9988 59.3124C21.9454 59.0503 21.9211 58.8027 21.8968 58.5649C21.8337 57.9678 21.7852 57.4921 21.3629 57.0504C21.1639 56.8416 20.9357 56.6669 20.6979 56.4824C20.3629 56.2252 19.9892 55.9388 19.6688 55.5213C18.1495 53.5408 17.4262 51.2546 17.5718 48.91C17.6592 47.4829 18.164 46.1529 18.6543 44.8617C18.9504 44.085 19.5717 43.4491 20.4018 43.0754C21.1687 42.7307 22.0036 42.6045 22.7414 42.4929C23.955 42.3084 25.4646 42.0803 26.8674 42.4832C27.1927 42.5754 27.513 42.7065 27.7946 42.8181C28.1878 42.9734 28.5906 43.1336 28.9935 43.2064C29.7702 43.3472 30.6003 43.1822 31.4012 43.022C31.7458 42.954 32.0953 42.8861 32.4351 42.8375C34.6971 42.522 36.9349 43.0948 39.0949 43.6482C39.8473 43.8423 40.624 44.0365 41.3764 44.1918C42.3084 44.386 43.4782 44.5219 44.2549 43.9151C44.5121 43.7161 44.7257 43.4249 44.9296 43.1433C45.1869 42.7938 45.449 42.4395 45.8179 42.1774C46.4101 40.5755 47.5605 38.9931 49.0653 37.7164C53.9145 33.605 60.7249 31.5808 67.7585 32.1682C72.6854 32.5808 77.4861 34.2069 81.6461 36.8767C81.6752 36.8815 81.7383 36.9301 81.7869 36.9883L81.9907 37.2359L83.9372 38.6484C84.6556 39.1727 85.4032 39.7115 86.0245 40.3959C86.2721 40.6677 86.4953 40.9541 86.7089 41.2308C86.9953 41.5997 87.2963 41.9832 87.6312 42.2987C88.3011 42.9249 89.1651 43.3424 90 43.7404C90.3835 43.9249 90.8155 44.1287 91.2281 44.1433C91.6795 44.1578 92.1601 43.9443 92.6212 43.7404L92.8057 43.6579C95.9123 42.289 99.4413 42.1919 102.81 42.1871C105.485 42.1919 108.198 42.2502 110.873 42.3667C113.421 42.4735 114.805 44.6384 115.518 46.4344C116.329 48.478 116.178 50.9536 115.115 53.0457C114.678 53.9049 114.11 54.6864 113.421 55.366C113.275 55.5116 113.12 55.6524 112.975 55.7932C112.3 56.4193 111.635 57.0358 111.489 57.8319C111.455 58.0212 111.45 58.2348 111.445 58.4435C111.441 58.7347 111.431 59.0697 111.339 59.39C111.222 59.7978 110.902 60.1619 110.533 60.322C110.247 60.4434 109.96 60.4385 109.698 60.3026C109.465 60.1813 109.315 59.9823 109.188 59.7832C108.625 58.9143 108.261 57.9095 108.135 56.8853C108.12 56.7591 108.106 56.6329 108.091 56.5019C108.023 55.8563 107.955 55.1864 107.538 54.8223C107.213 54.5359 106.752 54.4874 106.218 54.4291C105.854 54.3903 105.475 54.3466 105.116 54.2204C104.844 54.1233 104.655 54.002 104.519 53.8272C104.32 53.5748 104.271 53.2447 104.383 52.9244C104.533 52.4875 104.941 52.1137 105.397 51.9972C105.761 51.905 106.116 51.9244 106.46 51.939C106.693 51.9487 106.936 51.9633 107.154 51.9341C108.256 51.7934 108.999 50.6818 109.523 49.7255C110.13 48.6285 110.232 47.8179 109.834 47.3179C109.382 46.7451 108.407 46.8033 107.713 46.8956C107.514 46.9198 107.319 46.949 107.12 46.9781C105.951 47.1431 104.742 47.313 103.533 47.1189C102.994 47.0315 102.475 46.8762 101.97 46.7257C101.669 46.6383 101.363 46.5461 101.063 46.4684C99.116 45.9879 97.0288 46.1577 95.1891 46.9538C94.791 47.1237 94.3881 47.3324 93.9998 47.5315C93.1115 47.9877 92.1941 48.4586 91.1699 48.6091C89.9272 48.7887 88.5681 48.4829 87.1264 47.7062C87.0147 47.648 86.9079 47.5849 86.7963 47.5217C86.2478 47.2159 85.6847 46.9004 85.1022 46.8713C84.743 46.8713 84.3401 47.0169 84.1023 47.279C83.9469 47.4489 83.879 47.6334 83.9081 47.8276C84.0683 48.944 83.5538 49.9682 83.0538 50.9585C82.7868 51.4924 82.5053 52.0458 82.3596 52.5846C82.083 53.5894 81.7966 54.6233 81.3354 55.5941C80.9811 56.3417 80.5296 57.0358 80.0928 57.7057C79.9277 57.9629 79.753 58.2251 79.5928 58.4872C79.0588 59.3464 78.5783 60.2978 78.1171 61.2152C77.7871 61.8705 77.423 62.6035 77.0444 63.2733C76.6755 63.9286 76.3405 64.2587 75.9959 64.3073C75.7483 64.3412 75.5687 64.2296 75.4377 64.1228C75.4183 64.2733 75.3988 64.516 75.3746 64.8898C75.3163 65.9188 75.2532 66.9722 75.1319 68.0012C74.9086 69.9332 74.5251 71.87 74.2436 73.1563C74.0834 73.899 73.8941 74.6611 73.7145 75.3941C73.5252 76.161 73.297 81.1996 73.1126 85.2479C72.9669 88.4516 72.8407 91.2136 72.7485 91.8204C72.0932 96.0774 71.6854 100.422 71.5301 104.732C71.4864 105.956 71.4622 107.15 71.6903 108.305C71.7437 108.577 71.8117 108.853 71.8796 109.125C71.9233 109.31 71.9621 109.431 71.9961 109.543C72.0786 109.815 72.1417 110.033 72.166 110.47L72.1806 110.649L72.0689 110.771C71.9233 110.97 71.7291 111.062 71.5156 111.052C71.467 111.052 71.4524 111.057 71.4233 111.072C71.3699 111.096 71.3165 111.106 71.2729 111.106L71.2923 111.077Z" fill="#643F92"/>
<path d="M60.225 112.198L60.657 111.659V111.615C60.5502 110.873 60.7541 110.164 60.9337 109.543C61.0016 109.31 61.0696 109.077 61.1181 108.844C61.2589 108.203 61.1812 107.562 61.089 106.82C61.055 106.533 61.0162 106.242 60.9919 105.936C60.8851 104.698 60.7347 103.067 60.5599 101.199C59.958 94.8154 59.0503 85.1751 58.9726 78.8453C58.9726 78.6075 58.895 77.5687 58.8416 76.8115C58.8076 76.326 58.7785 75.9086 58.7687 75.7678C58.7445 75.297 58.7251 74.8504 58.594 74.4281L59.5211 74.1465C59.6862 74.6805 59.7104 75.2096 59.7347 75.7193C59.7396 75.8601 59.7735 76.2678 59.8075 76.7435C59.8852 77.7774 59.9386 78.5832 59.9434 78.8356C60.0211 85.1266 60.9288 94.7474 61.5259 101.111C61.7006 102.985 61.856 104.616 61.9579 105.858C61.9822 106.155 62.0161 106.431 62.0501 106.708C62.1424 107.455 62.2297 108.164 62.0938 108.912C62.2491 108.3 62.3171 107.708 62.3462 107.213C62.3705 106.722 62.4239 106.213 62.4773 105.723C62.5889 104.655 62.7006 103.548 62.5501 102.563C62.4773 102.092 62.3608 101.631 62.2346 101.14C62.0161 100.291 61.7929 99.4122 61.8171 98.4851C61.8511 97.1259 61.8851 95.7231 61.6812 94.4222C61.5356 93.4853 61.2783 92.5485 61.0259 91.6456C60.5162 89.8059 60.0648 75.7484 60.4483 73.7388C60.5551 73.1757 60.89 72.8456 61.3123 72.9039C61.4822 72.9233 61.6084 73.0155 61.6958 73.0738L61.1909 73.865C61.3269 73.8796 61.4239 73.8116 61.4482 73.7679C61.4385 73.7825 61.4142 73.8456 61.3997 73.9184C61.0405 75.7969 61.487 89.67 61.9579 91.3835C62.2152 92.3155 62.4821 93.2766 62.6375 94.2717C62.8559 95.66 62.8171 97.1065 62.7831 98.5093C62.7637 99.3054 62.9627 100.082 63.1714 100.902C63.2976 101.393 63.4287 101.902 63.5064 102.417C63.6811 103.524 63.5598 104.693 63.4384 105.824C63.385 106.324 63.3365 106.8 63.3122 107.266C63.2394 108.562 62.9044 110.421 61.6958 111.916L61.5987 111.839V112.072L60.2153 112.203L60.225 112.198Z" fill="#643F92"/>
<path d="M54.7349 43.09C54.2058 42.8473 53.5893 42.9589 53.0165 43.0754C51.7739 43.3278 50.5264 43.5754 49.2837 43.8278C48.5313 43.9783 47.779 44.1287 47.046 44.3569C46.0849 44.653 45.1674 45.0753 44.1918 45.3131C42.9637 45.6092 41.6628 45.6044 40.4395 45.2937C38.9105 44.9054 37.5077 44.0559 35.9446 43.8326C34.3039 43.5948 32.6487 44.0656 30.9886 44.1239C29.1198 44.1918 27.2752 43.7404 25.4112 43.6385C23.5472 43.5365 21.5182 43.8472 20.1882 45.1627C18.5912 46.7451 18.4795 49.3809 19.3242 51.4633C20.1639 53.5457 21.7755 55.2107 23.3482 56.8174C23.4793 56.9485 23.6395 57.0941 23.8239 57.0649C23.9404 57.0455 24.0326 56.963 24.1103 56.8756C24.9209 55.9485 24.8433 54.269 25.9597 53.7787C25.2704 53.2011 24.5812 52.6186 23.8919 52.0409C23.1589 51.4245 22.3968 50.7643 22.0861 49.8614C21.8823 49.2741 21.892 48.6382 21.9065 48.012C21.9163 47.4101 21.9454 46.7645 22.3143 46.2888C22.7463 45.7306 23.5181 45.5801 24.222 45.5364C26.3432 45.3957 28.4693 45.8471 30.5857 45.6626C31.6876 45.5656 32.7749 45.2986 33.8768 45.3034C37.1436 45.3131 40.2308 47.6625 43.4297 47.0121C44.2112 46.8519 44.949 46.517 45.6917 46.2257C48.1818 45.2549 50.8613 44.7743 53.5359 44.8132C53.9291 45.0268 54.4436 45.0365 54.8999 44.9491C54.9679 44.9345 60.5987 45.5607 60.6618 45.551L60.7055 44.0899C60.5938 43.9394 54.8854 43.1725 54.7155 43.0997L54.7349 43.09Z" fill="#FBD3D8"/>
<path d="M112.955 44.9393C111.63 43.6239 109.601 43.3084 107.732 43.4151C105.863 43.5219 104.019 43.9685 102.155 43.9006C100.495 43.8375 98.8395 43.3715 97.1989 43.6093C95.6358 43.8375 94.2378 44.6869 92.7039 45.0704C91.4807 45.3811 90.1798 45.3859 88.9517 45.0898C87.976 44.852 87.0538 44.4297 86.0975 44.1336C85.3645 43.9054 84.6121 43.7549 83.8597 43.6045C82.6171 43.352 81.3696 43.1045 80.1269 42.8521C79.5542 42.7356 78.9377 42.6288 78.4086 42.8666C78.2435 42.9394 78.1028 43.0608 77.9911 43.2064C77.5834 43.2501 71.3653 44.1627 70.9624 44.2403C70.9041 44.187 70.8507 44.1287 70.7925 44.0753L71.4866 46.2257C72.4089 45.8568 79.1804 44.7355 80.1609 44.5801C82.6414 44.6141 85.1218 45.0947 87.4324 45.9927C88.1799 46.2839 88.9129 46.6189 89.6944 46.779C92.8933 47.4295 95.9805 45.0801 99.2473 45.0704C100.354 45.0704 101.436 45.3325 102.538 45.4296C104.655 45.6141 106.786 45.1675 108.902 45.3034C109.606 45.3519 110.378 45.5024 110.81 46.0558C111.179 46.5315 111.208 47.1771 111.218 47.779C111.227 48.4003 111.242 49.0362 111.038 49.6284C110.727 50.5313 109.965 51.1914 109.232 51.8079C108.543 52.3855 107.854 52.968 107.164 53.5457C108.286 54.0359 108.203 55.7155 109.014 56.6426C109.091 56.73 109.184 56.8174 109.3 56.8319C109.485 56.861 109.645 56.7154 109.776 56.5844C111.349 54.9776 112.96 53.3127 113.8 51.2303C114.64 49.1479 114.533 46.5121 112.936 44.9296L112.955 44.9393Z" fill="#FBD3D8"/>
<path d="M73.2486 43.7258C73.2389 43.92 72.9234 43.8957 72.7826 43.7598C72.637 43.6287 72.4671 43.4346 72.2875 43.5122C72.2147 43.5414 72.1613 43.6142 72.0933 43.653C71.9186 43.7549 71.705 43.6287 71.5157 43.5462C71.3312 43.4637 71.0351 43.488 71.0157 43.687C70.9283 43.2889 70.2682 43.2016 70.0837 43.5656C69.9041 43.3812 69.7245 43.1967 69.5449 43.0123C69.5061 43.3229 69.0012 43.4588 68.8459 43.1482C68.8119 43.0851 68.7634 43.0268 68.6954 43.0074C68.5207 42.954 68.477 43.1385 68.3848 43.2452C68.1469 43.5268 67.7052 43.2113 67.4868 42.9152C67.5159 43.1627 67.2101 43.3472 66.9674 43.2889C66.7247 43.2307 66.5451 43.022 66.414 42.8132C66.3412 43.0123 66.2004 43.1821 66.016 43.2889L65.6713 42.8812C65.4626 43.2161 64.9044 43.2501 64.6568 42.9443C64.5306 43.153 64.3995 43.3666 64.2733 43.5753L63.8365 43.0462C63.6763 43.119 63.5646 43.2841 63.5549 43.454C63.3122 43.4297 63.0889 43.2938 62.9482 43.0948C62.7831 43.5268 62.1133 43.653 61.8026 43.3084C61.8463 43.5025 61.657 43.687 61.4579 43.7161C61.2589 43.7452 61.0648 43.6676 60.8803 43.5899C60.9725 43.7986 60.6716 43.9685 60.4483 43.9394C60.225 43.9103 59.9823 43.7986 59.7833 43.9054C59.6668 43.9685 59.5988 44.0899 59.492 44.1724C59.2299 44.3714 58.9095 44.2646 58.5989 44.119C58.5843 44.0899 58.5649 44.0656 58.5455 44.0413L58.5164 45.051C58.6329 45.0316 58.7494 45.017 58.861 45.0413C59.0406 45.0801 59.1814 45.2063 59.3173 45.3325C59.8415 45.8179 60.3706 46.3033 60.8949 46.7888C61.191 47.0606 61.4919 47.3373 61.7492 47.6479C61.6909 47.6188 61.589 47.6673 61.5744 47.7402C61.5599 47.8372 61.6327 47.9246 61.6958 47.9974C62.1958 48.5508 62.7152 49.1624 62.7831 49.9051C62.7977 50.0459 62.7928 50.2012 62.8656 50.3225C63.0452 50.6381 63.6083 50.6526 63.6714 51.0118C63.72 51.3079 63.3559 51.5458 63.3753 51.8467C63.3996 52.1671 63.8413 52.3127 63.919 52.6234C63.9627 52.803 63.8801 52.9923 63.9141 53.1719C63.9384 53.2836 64.0064 53.3855 64.0646 53.4826C64.1908 53.6913 64.2927 53.9097 64.385 54.133C64.6277 54.7107 64.8267 55.3077 64.9917 55.9096C65.1665 56.5504 65.2927 57.2008 65.4189 57.8513C65.681 59.1959 65.948 60.5744 65.7538 61.9336C65.6082 62.9529 65.2053 63.9917 65.4772 64.9868C65.6762 65.7149 66.2538 66.5304 66.0596 67.2585C66.0354 67.3411 66.0062 67.4284 65.9674 67.511L67.2295 67.6469C67.2004 67.5304 67.1615 67.4187 67.0984 67.3168C67.0353 67.2148 66.9382 67.1275 66.8266 67.0692C66.9237 66.5498 67.2295 65.8897 67.3557 65.3557C67.4673 64.88 67.4139 64.3849 67.3751 63.8995C67.2489 62.4772 67.2101 61.0501 67.244 59.623C67.2586 59.0114 67.2974 58.3804 67.5644 57.827C67.6712 57.6086 67.8071 57.4047 67.8605 57.1717C67.9091 56.9387 67.8411 56.6523 67.6227 56.5455C67.9673 56.497 68.1226 56.0892 68.1469 55.7397C68.1712 55.3951 68.1421 55.0068 68.3653 54.7446C68.4236 54.6767 68.5013 54.6184 68.5304 54.5311C68.6032 54.3223 68.3605 54.1136 68.4042 53.8952C68.4673 53.5748 69.0692 53.5311 69.0352 53.2059C69.0255 53.104 68.943 53.0214 68.9042 52.9243C68.7974 52.638 69.0838 52.3807 69.2876 52.1574C69.4915 51.9341 69.5643 51.4681 69.2634 51.4147C69.6857 51.2254 70.2051 50.7934 69.8167 50.3856C69.7682 50.3371 69.7391 50.274 69.7391 50.206C69.7391 49.9536 70.0934 50.0216 70.2099 49.8468C70.3118 49.6964 70.1614 49.4828 70.2196 49.308C70.2682 49.1624 70.4381 49.1042 70.5497 49.0022C70.7778 48.7984 70.7681 48.444 70.8409 48.143C70.9089 47.8421 71.2147 47.5217 71.4817 47.6819C71.3652 47.4683 71.2632 47.1868 71.4283 47.012C71.5885 46.847 71.8797 46.915 72.0593 46.7742C72.2001 46.6577 72.2147 46.4441 72.3069 46.2888C72.3943 46.1334 72.5544 46.0364 72.7049 45.949C73.0884 45.7257 73.4913 45.5315 73.9039 45.3665L73.4233 43.8763C73.3651 43.8229 73.3117 43.7646 73.2534 43.7112L73.2486 43.7258Z" fill="#FBD3D8"/>
<path d="M65.9528 63.0403C65.9091 63.0403 65.8606 63.0403 65.812 63.0306C65.2829 62.953 64.914 62.4627 64.9917 61.9336C65.1664 60.7249 64.914 59.4289 64.6665 58.1765C64.5354 57.5212 64.4189 56.9047 64.2539 56.298C64.1034 55.7349 63.9092 55.1767 63.6859 54.6427C63.6131 54.468 63.5306 54.2787 63.4335 54.1282C63.3413 53.9777 63.2102 53.7738 63.1568 53.4972C63.1229 53.3321 63.1277 53.1816 63.1374 53.0603C62.9433 52.8758 62.6423 52.5603 62.6035 52.0506C62.584 51.8176 62.6326 51.6089 62.7005 51.4439C62.5306 51.3274 62.351 51.1672 62.22 50.9342C62.0549 50.6429 62.0355 50.3565 62.021 50.1867V50.1284C61.9773 49.6915 61.5792 49.2255 61.1764 48.7838C60.9482 48.5314 60.822 48.2644 60.8026 47.9829C60.6812 47.8664 60.555 47.7499 60.4337 47.6382L58.8561 46.182C58.4629 45.818 58.4386 45.2063 58.8027 44.8083C59.1668 44.4151 59.7784 44.3908 60.1764 44.7549L61.754 46.2111C62.0549 46.4878 62.3899 46.7985 62.6957 47.1625C62.8559 47.3519 62.9287 47.5897 62.919 47.8276C63.4092 48.41 63.8607 49.0848 63.9481 49.9245C64.2247 50.0653 64.715 50.3468 64.8266 50.9876C64.8897 51.3468 64.7878 51.6429 64.681 51.8613C64.8266 52.0167 64.982 52.2351 65.0596 52.5312C65.1179 52.7642 65.1033 52.9681 65.0888 53.1088V53.1137C65.2538 53.3807 65.3752 53.6525 65.4771 53.9001C65.7344 54.5165 65.9528 55.1524 66.1227 55.798C66.3023 56.4679 66.4382 57.1475 66.5644 57.7979C66.8265 59.1522 67.1275 60.6764 66.9091 62.2103C66.8411 62.6957 66.4236 63.0403 65.9479 63.0403H65.9528Z" fill="#EE2E45"/>
<path d="M59.3755 45.386C58.9484 45.386 58.5843 45.2209 58.3998 45.1335C57.9096 44.9103 57.696 44.3375 57.9193 43.8472C58.1426 43.3569 58.7154 43.1434 59.2056 43.3666C59.2202 43.3715 59.2347 43.3812 59.2493 43.3861C59.3221 43.3181 59.4144 43.2453 59.526 43.187C59.8464 43.0172 60.157 43.0074 60.3949 43.0366C60.6327 42.7987 60.9774 42.7016 61.2977 42.7744C61.3754 42.6968 61.4628 42.6288 61.5647 42.5754C61.8463 42.4347 62.1666 42.4347 62.4385 42.5706C62.5938 42.4055 62.8025 42.2939 63.0355 42.2648C63.2103 42.2453 63.385 42.2745 63.5452 42.3424C63.5743 42.3279 63.6034 42.3133 63.6326 42.2987C63.8607 42.192 64.1131 42.1822 64.3413 42.2599C64.4772 42.1725 64.6325 42.124 64.7976 42.1094C64.982 42.0949 65.1616 42.1386 65.317 42.2211C65.4577 42.124 65.6276 42.0609 65.8024 42.0463C65.9237 42.0366 66.0402 42.0512 66.147 42.0852C66.2587 42.0221 66.3849 41.9832 66.5208 41.9687C66.778 41.9395 67.0353 42.0269 67.2295 42.1968C67.2635 42.1774 67.2974 42.1628 67.3363 42.1483C67.6712 42.0172 68.045 42.0852 68.3119 42.3085C68.6808 42.1046 69.0401 42.1822 69.1711 42.2211C69.2245 42.2356 69.2779 42.2551 69.3313 42.2793C69.3653 42.2648 69.3993 42.2502 69.4332 42.2356C69.7876 42.1143 70.1808 42.2065 70.4429 42.4783L70.4866 42.522C70.6225 42.5026 70.7681 42.5026 70.9137 42.522C71.0982 42.5463 71.2681 42.5997 71.4234 42.6774C71.6322 42.6677 71.8603 42.7016 72.069 42.7842C72.0836 42.7793 72.0981 42.7696 72.1176 42.7647C72.6175 42.556 73.035 42.7259 73.3117 42.9104C73.6078 42.8618 73.9184 42.9589 74.1417 43.1773L74.3116 43.3424C74.6951 43.7161 74.6999 44.3326 74.3213 44.7161C74.0689 44.9734 73.7146 45.0607 73.3893 44.9782C73.0932 45.0073 72.7777 44.9248 72.5156 44.7598C72.1807 44.8617 71.87 44.7938 71.6419 44.7112C71.5302 44.7646 71.404 44.7986 71.2778 44.8035C71.0497 44.8132 70.8264 44.7452 70.6516 44.619C70.5837 44.6433 70.5157 44.6627 70.4429 44.6773C70.1419 44.7209 69.841 44.6287 69.6274 44.42C69.6177 44.42 69.608 44.42 69.5983 44.4248C69.3507 44.4685 69.108 44.4443 68.8896 44.3617C68.7148 44.4394 68.5207 44.4782 68.3168 44.4734C68.1081 44.4637 67.9236 44.4151 67.7537 44.3375C67.5013 44.4248 67.2246 44.4443 66.9674 44.386C66.8703 44.3617 66.778 44.3326 66.6907 44.2938C66.3654 44.4685 65.982 44.4394 65.6859 44.2404C65.6082 44.255 65.5354 44.2647 65.4529 44.2695C65.3995 44.2695 65.3412 44.2695 65.2878 44.2695C65.1228 44.5122 64.851 44.6675 64.5597 44.687C64.351 44.6967 64.152 44.653 63.9821 44.5462C63.8801 44.5705 63.7733 44.5753 63.6666 44.5656C63.5209 44.5511 63.3753 44.5122 63.2394 44.4637C63.1083 44.5219 62.9724 44.5656 62.8268 44.5947C62.6715 44.6239 62.521 44.6287 62.3705 44.619C62.2055 44.7209 62.021 44.7938 61.8268 44.8229C61.7103 44.8374 61.6036 44.8423 61.4968 44.8374C61.2201 45.0122 60.8754 45.0947 60.5454 45.051C60.492 45.0462 60.4434 45.0365 60.39 45.0268C60.3609 45.051 60.3366 45.0753 60.3075 45.0947C60.0066 45.3277 59.691 45.4054 59.3998 45.4054L59.3755 45.386Z" fill="#EE2E45"/>
<path d="M60.9045 46.9781C62.0355 48.0411 63.2005 49.143 63.6374 50.6818C63.8752 51.5118 63.9578 52.3759 64.1519 53.2205C64.3461 54.0651 64.7053 54.9049 65.0548 55.7203C65.3752 56.4727 66.6858 55.9291 66.3848 55.1573C65.4674 52.7788 64.5451 50.4002 63.6277 48.0217C63.4869 47.6528 63.1374 47.4004 62.7297 47.512C62.3656 47.614 62.0938 48.0314 62.22 48.4101C62.487 49.2061 62.817 49.9731 63.2102 50.7158L64.4674 49.9828C63.817 48.9925 63.2296 47.9635 62.7151 46.9004C62.5743 46.614 62.186 46.4878 61.8948 46.5655C61.5598 46.6577 61.3996 46.9441 61.3608 47.2693C61.2395 48.279 61.6424 49.2255 62.0598 50.1187C62.5064 51.0701 62.953 52.0167 63.4044 52.9632C63.7296 53.6525 64.7441 53.269 64.7635 52.5943C64.7733 52.2982 64.7393 52.007 64.681 51.7157C64.6034 51.3322 64.1471 51.1089 63.783 51.206C63.3753 51.3177 63.2054 51.7109 63.2733 52.104C63.4335 53.002 64.6956 52.8467 64.8606 52.0458C64.9965 51.3856 64.3607 50.5604 63.9869 50.0702C63.7685 49.7838 63.4384 49.6139 63.0792 49.7741C62.7782 49.9051 62.5161 50.2934 62.6569 50.6332C63.1471 51.8273 63.6374 53.0166 64.1277 54.2107C64.2781 54.5748 64.6131 54.832 65.0257 54.7204C65.3703 54.6282 65.6858 54.1913 65.5353 53.8224C65.0451 52.6283 64.5548 51.439 64.0646 50.2449L62.7345 50.808C63.0161 51.1769 63.3267 51.6041 63.4626 52.0506V51.6623L63.4384 51.7788L63.7733 51.3419L63.7005 51.3711L64.2636 51.2983L64.1908 51.2691L64.7004 51.7788L64.6907 51.7157L63.2879 52.104C63.3219 52.2691 63.3267 52.4244 63.3219 52.5992L64.681 52.2302C64.283 51.3808 63.8801 50.5362 63.4821 49.6867C63.118 48.9149 62.7345 48.1431 62.8365 47.2693L61.4773 47.6383C61.9918 48.7062 62.5792 49.7352 63.2296 50.7206C63.7442 51.5021 64.9286 50.8177 64.4869 49.9876C64.1519 49.3566 63.8752 48.7062 63.6471 48.0266L62.2443 48.4149C63.1617 50.7934 64.084 53.1719 65.0014 55.5505L66.3314 54.9874C65.9771 54.1573 65.6664 53.3273 65.4868 52.439C65.3072 51.5507 65.215 50.6769 64.9043 49.8372C64.3218 48.2644 63.1423 47.08 61.9433 45.949C61.2637 45.3083 60.2298 46.3325 60.9142 46.9781H60.9045Z" fill="#EE2E45"/>
<path d="M61.6085 45.0316C64.8898 44.6627 68.1906 44.5801 71.4866 44.7889C72.4234 44.8471 72.4186 43.3957 71.4866 43.3326C70.176 43.2453 68.8605 43.1579 67.5499 43.0705L65.6277 42.9443C64.9918 42.9006 64.3705 42.8472 63.7443 43.0074C62.8948 43.2307 63.1666 44.3471 63.9384 44.4394C64.7685 44.5364 65.5985 44.551 66.4334 44.4879C67.3557 44.4151 67.3849 43.0414 66.4334 43.0317C64.7636 43.0171 63.0987 43.1627 61.4531 43.4443C60.759 43.5656 60.759 44.7258 61.4531 44.8471C63.0501 45.1286 64.6568 45.1384 66.2733 45.0753C67.8897 45.0121 69.5983 44.9248 71.2584 44.8471C72.0302 44.8131 72.3021 43.5511 71.4526 43.4151C70.6031 43.2792 69.8556 43.4249 69.045 43.488C68.2343 43.5511 67.4188 43.5947 66.6082 43.6142C64.9481 43.6481 63.288 43.585 61.6376 43.4249C60.8269 43.3472 60.6376 44.7112 61.4434 44.8568C64.4772 45.3956 67.5402 45.3908 70.574 44.8423C71.4963 44.6772 71.1031 43.2744 70.1857 43.4394C67.4285 43.9345 64.5889 43.9394 61.8317 43.454L61.6376 44.8859C63.2249 45.0364 64.8219 45.1044 66.414 45.0753C67.1955 45.0607 67.9771 45.0267 68.7537 44.9685C69.4915 44.9151 70.3313 44.7063 71.0691 44.8228L71.2633 43.3909C69.6663 43.4637 68.0644 43.5414 66.4674 43.6093C64.8704 43.6773 63.3705 43.7112 61.8415 43.4394V44.8423C63.3608 44.5801 64.8947 44.4685 66.4334 44.4831V43.0268C65.5985 43.0899 64.7685 43.0754 63.9384 42.9783L64.1326 44.4102C64.7005 44.2598 65.3364 44.3811 65.9141 44.4151L67.7392 44.5364C68.9867 44.619 70.2342 44.7015 71.4817 44.784V43.3278C68.1858 43.119 64.885 43.2016 61.6036 43.5705C61.2104 43.6142 60.8803 43.8714 60.8755 44.2986C60.8755 44.6578 61.2153 45.0704 61.6036 45.0267L61.6085 45.0316Z" fill="#EE2E45"/>
<path d="M69.6807 48.5314C69.6079 50.5022 68.9138 52.3807 67.7439 53.9583L69.1031 54.3272C69.1468 53.8515 69.3409 53.3855 69.5157 52.9438C69.705 52.4681 69.8992 51.9973 70.1225 51.5361C70.5787 50.6041 71.2826 49.8129 71.6321 48.8275C71.7631 48.4586 71.4816 48.0315 71.1224 47.9295C70.7195 47.8179 70.3603 48.0654 70.2244 48.4392C70.0642 48.8955 69.7632 49.2935 69.4963 49.6916C69.205 50.1333 68.9478 50.5944 68.7293 51.0798C68.2585 52.1041 67.7488 53.1865 67.642 54.3224C67.6129 54.6379 67.8896 54.9437 68.176 55.0262C68.5109 55.1185 68.8021 54.9534 68.9963 54.6913C70.3166 52.9098 71.0496 50.7401 71.1321 48.5266C71.1467 48.1334 70.7875 47.7985 70.404 47.7985C69.9962 47.7985 69.6904 48.1334 69.6759 48.5266L69.6807 48.5314Z" fill="#EE2E45"/>
<path d="M70.5641 47.2548C69.4671 48.3955 69.0254 49.9148 68.6079 51.4002C68.3798 52.2157 68.1565 53.0409 68.0109 53.8758C67.8944 54.5505 67.9381 55.3611 67.5012 55.9242H68.7584C68.5254 55.4728 69.0011 54.6039 69.1467 54.1767C69.3943 53.468 69.6467 52.7545 69.9185 52.0555C70.4476 50.6915 71.069 49.3614 71.8553 48.1236C72.3602 47.3324 71.0981 46.5995 70.5981 47.3907C69.6904 48.8226 69.006 50.376 68.4041 51.9584C68.108 52.7351 67.8361 53.5214 67.5691 54.3029C67.3022 55.0844 67.0983 55.8708 67.506 56.6572C67.7827 57.196 68.4574 57.0552 68.7633 56.6572C69.2195 56.065 69.2632 55.3271 69.3652 54.6184C69.4768 53.8175 69.6758 53.0263 69.8943 52.2448C70.268 50.8759 70.5933 49.3372 71.6078 48.279C72.2582 47.6043 71.2291 46.5703 70.5787 47.2499L70.5641 47.2548Z" fill="#EE2E45"/>
<path d="M67.2927 54.9874C67.1956 55.2932 67.0985 55.6038 67.05 55.9194C67.0208 56.1087 67.0014 56.298 66.9966 56.4921C66.9966 56.5553 66.9966 56.6184 66.9917 56.6815C66.9917 56.7251 66.9917 56.764 66.982 56.8077C66.9723 56.895 66.9723 56.8902 66.982 56.798C67.0014 56.9096 66.9043 57.1135 66.8703 57.2203C66.8315 57.361 66.7927 57.5018 66.7733 57.6474C66.7102 58.0552 66.7247 58.4532 66.8461 58.8512C66.9577 59.2153 67.3606 59.4823 67.7441 59.3609C68.1276 59.2396 68.3703 58.8561 68.2538 58.4629C68.2295 58.3804 68.2101 58.2979 68.1907 58.2154C68.2149 58.3416 68.1907 58.2154 68.1907 58.1571C68.1907 58.094 68.1907 58.0309 68.1907 57.9678C68.1955 57.8853 68.2004 57.8804 68.1907 57.9678C68.1955 57.929 68.2052 57.8853 68.2149 57.8464C68.2829 57.5358 68.3848 57.2445 68.4237 56.9242C68.4382 56.7882 68.4479 56.6572 68.4528 56.5213C68.4528 56.4485 68.4528 56.3756 68.4625 56.3028C68.4625 56.2737 68.4965 56.0844 68.4625 56.2446C68.5207 55.9485 68.6033 55.6621 68.6955 55.3757C68.812 55.0116 68.5596 54.5651 68.1858 54.4777C67.7878 54.3855 67.414 54.599 67.2878 54.9874H67.2927Z" fill="#EE2E45"/>
<path d="M70.6419 46.6917C69.2099 48.4003 68.8507 50.5264 68.4187 52.6477C68.1906 53.769 67.8848 54.8223 67.3848 55.8514C67.1567 56.3222 66.9237 56.8125 66.8217 57.327C66.7441 57.7154 66.8169 58.3221 66.5013 58.6085L67.744 59.1231C67.7683 57.7591 68.8216 56.6669 68.7488 55.2592C68.7148 54.5942 67.7294 54.1961 67.3896 54.8903C66.8605 55.9776 66.7198 57.1232 66.9819 58.3027L68.2003 57.594C67.9673 57.3173 68.142 56.7979 68.2148 56.4873C68.3313 55.997 68.4721 55.5165 68.6177 55.0359C68.8896 54.133 69.1614 53.235 69.4769 52.3516C70.0885 50.6381 70.8895 48.9877 72.1758 47.6771C72.836 47.0072 71.8069 45.9781 71.1467 46.648C69.5886 48.2304 68.6566 50.2497 67.943 52.3273C67.579 53.4001 67.2392 54.4874 66.9431 55.5796C66.647 56.6717 66.3994 57.7251 67.1664 58.6231C67.6712 59.2104 68.5304 58.5697 68.3847 57.9144C68.2148 57.1329 68.2974 56.3417 68.6469 55.6232L67.2877 55.2543C67.3605 56.6086 66.3072 57.7493 66.2829 59.1182C66.2683 59.7735 67.0741 60.0453 67.5256 59.6327C68.2731 58.958 68.0692 57.9095 68.4187 57.0455C68.8556 55.9727 69.3653 54.9971 69.6371 53.8612C70.1322 51.7933 70.2439 49.4148 71.6661 47.7159C72.2632 47.0023 71.239 45.9684 70.637 46.6868L70.6419 46.6917Z" fill="#EE2E45"/>
<path d="M66.3364 58.9775C66.317 59.2445 66.3703 59.5163 66.4335 59.7735C66.4626 59.89 66.4917 60.0065 66.516 60.123C66.5257 60.1716 66.5354 60.225 66.5451 60.2735C66.5451 60.2929 66.5839 60.5017 66.5645 60.3803C66.5451 60.259 66.5742 60.4628 66.5742 60.4871C66.5742 60.5356 66.5839 60.589 66.5839 60.6376C66.5888 60.7492 66.5936 60.8609 66.5888 60.9677C66.5839 61.0744 66.5791 61.1909 66.5694 61.2977C66.5694 61.3414 66.5694 61.4045 66.5548 61.4482C66.5694 61.3366 66.5694 61.3269 66.5548 61.4045C66.5499 61.4385 66.5451 61.4725 66.5354 61.5065C66.5014 61.7055 66.5063 61.8899 66.6082 62.0695C66.6956 62.22 66.8703 62.3656 67.0451 62.4045C67.3994 62.487 67.8703 62.2977 67.9431 61.8948C68.0353 61.3851 68.0741 60.8706 68.011 60.356C67.9771 60.0794 67.9334 59.8075 67.8654 59.5357C67.8363 59.4192 67.812 59.3027 67.7829 59.1862C67.7489 59.0212 67.7829 59.3464 67.7829 59.1765C67.7829 59.1085 67.7829 59.0406 67.7829 58.9726C67.8072 58.594 67.4285 58.2299 67.0548 58.2445C66.6373 58.2639 66.3558 58.5649 66.3267 58.9726L66.3364 58.9775Z" fill="#EE2E45"/>
<path d="M64.8897 55.3271C64.9868 56.2446 65.0791 57.1669 65.1761 58.0843C65.215 58.4629 65.4819 58.8318 65.9043 58.8124C66.2974 58.793 66.6372 58.492 66.6324 58.0843C66.6227 57.094 66.4916 56.1038 66.2538 55.1475C66.0596 54.3612 64.7927 54.5117 64.8218 55.3417C64.8752 56.7688 65.0645 58.1959 65.3703 59.5939C65.4528 59.9677 65.9043 60.2201 66.2683 60.1036C66.6615 59.9774 66.8654 59.6085 66.778 59.2056C66.4819 57.8658 66.3314 56.7203 66.278 55.3417L64.8461 55.5359C64.8995 55.7495 64.948 55.963 64.9868 56.1766C65.0111 56.2883 65.0305 56.4048 65.0499 56.5164C65.0596 56.5649 65.0645 56.6183 65.0742 56.6669L65.0839 56.7445C65.0791 56.6912 65.0791 56.6912 65.0839 56.7445C65.1373 57.1911 65.1664 57.6377 65.1713 58.0891H66.6275C66.5304 57.1717 66.4382 56.2494 66.3411 55.332C66.3023 54.9534 66.0353 54.5845 65.613 54.6039C65.2538 54.6184 64.8412 54.9243 64.8849 55.332L64.8897 55.3271Z" fill="#EE2E45"/>
<path d="M23.8047 52.9923C24.0425 52.8321 24.3386 52.7982 24.625 52.769C26.3579 52.6088 28.1054 52.6234 29.8335 52.8176C31.3674 52.9875 32.9401 53.3224 34.1925 54.2204C35.8526 55.4145 36.7457 57.5892 36.4011 59.6085C36.2458 60.5065 35.8283 61.4093 35.0614 61.8948C34.5517 62.22 33.9352 62.3316 33.3381 62.419C31.5227 62.6763 29.6539 62.7442 27.8627 62.3365C26.0715 61.9336 24.3532 61.0307 23.2028 59.5988C22.9503 59.2881 22.7271 58.9532 22.596 58.5745C22.4067 58.0357 22.4212 57.4532 22.3533 56.8853C22.2611 56.1232 22.0232 55.3757 21.6543 54.7058C21.9747 54.6087 22.3387 54.6427 22.6348 54.8029C22.6348 54.4388 22.5523 54.0845 22.4164 53.7447C23.1445 53.8563 23.2659 53.3515 23.8095 52.9875L23.8047 52.9923Z" fill="#643F92"/>
<path d="M108.373 53.3224C108.135 53.1622 107.839 53.1282 107.552 53.0991C105.82 52.9389 104.072 52.9535 102.344 53.1476C100.81 53.3175 99.2374 53.6525 97.985 54.5505C96.3249 55.7446 95.4318 57.9192 95.7764 59.9386C95.9317 60.8366 96.3492 61.7394 97.1162 62.2248C97.6258 62.5501 98.2423 62.6617 98.8394 62.7491C100.655 63.0063 102.524 63.0743 104.315 62.6666C106.106 62.2588 107.824 61.3608 108.975 59.9288C109.227 59.6182 109.45 59.2832 109.582 58.9046C109.771 58.3658 109.756 57.7833 109.824 57.2154C109.916 56.4533 110.154 55.7058 110.523 55.0359C110.203 54.9388 109.839 54.9728 109.543 55.133C109.543 54.7689 109.625 54.4146 109.761 54.0748C109.033 54.1864 108.912 53.6816 108.368 53.3175L108.373 53.3224Z" fill="#643F92"/>
</g>
<defs>
<clipPath id="clip0_157_179">
<rect width="133.391" height="133.391" fill="white"/>
</clipPath>
</defs>
</svg>
