<svg width="307" height="247" viewBox="0 0 307 247" fill="none" xmlns="http://www.w3.org/2000/svg">
<g clip-path="url(#clip0_159_503)">
<path d="M210.85 132.485C211.887 136.462 210.506 140.962 207.416 143.686C205.388 145.473 202.743 146.51 200.892 148.478C198.51 151.016 197.822 154.897 198.864 158.209C199.906 161.522 202.531 164.23 205.676 165.725C209.965 167.769 215.25 167.588 219.392 165.257C224.54 162.363 227.539 156.553 228.298 150.714C229.056 144.874 227.863 138.959 226.315 133.28" fill="#FFAE00"/>
<path d="M275.766 235.454C281.097 234.588 286.088 236.204 291.363 237.367C292.784 237.679 294.271 237.951 295.682 237.594C297.968 237.015 299.591 234.8 299.945 232.479C300.254 230.47 299.723 228.366 298.6 226.669C298.125 225.949 297.528 225.29 296.774 224.867C296.006 224.429 295.11 224.263 294.225 224.177C291.014 223.87 287.752 224.58 284.834 225.939C281.916 227.299 279.321 229.292 277.041 231.563C275.923 232.675 276.262 233.959 275.766 235.449" fill="#643F92"/>
<path d="M167.741 149.873C166.892 144.839 166.998 139.648 168.05 134.655C168.561 132.223 169.314 129.802 170.68 127.727C171.175 126.972 171.792 126.237 172.632 125.9C173.795 125.437 175.181 125.865 176.101 126.716C177.3 127.823 177.795 129.535 177.745 131.166C177.694 132.797 177.158 134.368 176.561 135.888C174.498 141.123 171.256 145.473 167.736 149.873" fill="#643F92"/>
<path d="M270.966 169.028C272.18 169.884 298.969 227.284 298.969 227.284C296.82 226.362 294.438 226.131 292.147 226.614L290.695 227.002C288.096 227.691 285.628 228.814 283.402 230.314L275.766 235.454C275.149 235.107 274.744 234.482 274.679 233.778L274.658 233.556L253.903 198.095L270.966 169.028Z" fill="#FF8ACD"/>
<path d="M170.492 77.6775L177.628 118.067C179.929 123.499 206.718 156.432 206.718 156.432L197.858 184.765L162.674 136.875C159.407 133.396 157.627 128.79 157.718 124.027L159.093 80.8792L170.492 77.6825V77.6775Z" fill="#FFC4A3"/>
<path d="M208.478 150.104L226.852 151.489L242.873 153.961C242.873 153.961 270.972 161.311 270.972 164.376C270.972 165.398 263.295 189.713 259.021 204.287C257.175 210.575 256.437 215.051 256.437 215.051L270.977 247.189H201.848V217.719C201.848 217.719 197.206 179.056 198.005 173.78C198.804 168.499 208.483 150.11 208.483 150.11L208.478 150.104Z" fill="#FF8ACD"/>
<path d="M161.799 61.3617C161.905 57.2487 162.325 53.1459 163.058 49.0933C163.165 48.5195 163.397 47.8197 163.979 47.7442C164.697 47.6485 165.061 48.5698 165.157 49.2846C165.794 54.1577 165.587 59.1366 164.555 63.9392" fill="#FFA275"/>
<path d="M169.967 146.878C177.851 139.865 178.119 127.712 177.441 118.047C177.391 117.332 177.34 116.557 177.75 115.968C178.498 114.9 180.334 115.293 181.068 116.375C181.801 117.458 181.76 118.862 181.695 120.166C182.099 119.064 183.834 119.069 184.643 119.919C185.457 120.77 185.594 122.044 185.69 123.217C185.776 124.294 185.867 125.376 185.953 126.454L208.979 148.302C208.979 148.302 209.611 146.339 211.305 147.461C212.994 148.584 214.092 151.021 214.092 151.021L197.863 186.28L167.747 149.802C167.747 149.802 168.692 148.01 169.977 146.872L169.967 146.878Z" fill="#FF8ACD"/>
<path d="M201.221 171.278C198.89 174.374 196.943 177.808 195.936 181.543C194.93 185.278 194.894 189.341 196.28 192.955C198.227 198.05 203.067 201.941 208.478 202.762" fill="#FF8ACD"/>
<path d="M275.766 235.454L274.891 247.184H291.96L295.96 226.468C290.761 226.181 285.633 227.777 281.531 230.969L275.766 235.454Z" fill="#FFC4A3"/>
<path d="M177.988 144.285C177.988 144.285 178.099 143.943 178.362 143.354C178.63 142.77 178.989 141.909 179.393 140.836C179.808 139.764 180.233 138.465 180.638 137C181.027 135.535 181.386 133.904 181.644 132.173C181.892 130.441 182.013 128.775 182.064 127.259C182.094 125.744 182.064 124.375 181.973 123.232C181.892 122.089 181.796 121.163 181.705 120.524C181.624 119.884 181.588 119.532 181.614 119.527C181.639 119.527 181.715 119.869 181.841 120.503C181.973 121.138 182.104 122.064 182.221 123.212C182.342 124.36 182.403 125.739 182.387 127.264C182.357 128.795 182.241 130.471 181.993 132.223C181.73 133.97 181.361 135.611 180.951 137.086C180.526 138.556 180.071 139.855 179.626 140.922C179.186 141.989 178.792 142.84 178.488 143.409C178.19 143.983 178.013 144.295 177.993 144.28L177.988 144.285Z" fill="#643F92"/>
<path d="M183.004 138.133C182.954 138.108 183.278 137.484 183.718 136.452C184.158 135.42 184.689 133.96 185.078 132.294C185.462 130.627 185.629 129.082 185.685 127.964C185.746 126.841 185.73 126.147 185.786 126.142C185.826 126.142 185.928 126.836 185.928 127.969C185.928 129.102 185.801 130.678 185.412 132.369C185.017 134.061 184.441 135.53 183.935 136.547C183.434 137.569 183.035 138.148 182.999 138.128L183.004 138.133Z" fill="#643F92"/>
<path d="M210.051 156.463C210.001 156.432 210.274 155.999 210.435 155.219C210.607 154.444 210.597 153.321 210.264 152.148C209.93 150.975 209.429 149.963 209.105 149.218C208.772 148.473 208.6 147.995 208.645 147.975C208.691 147.955 208.938 148.393 209.328 149.113C209.707 149.833 210.248 150.839 210.597 152.058C210.946 153.281 210.916 154.474 210.673 155.28C210.435 156.09 210.076 156.488 210.051 156.463Z" fill="#643F92"/>
<path d="M206.046 203.155C206.046 203.155 205.939 203.109 205.757 202.994C205.545 202.853 205.282 202.681 204.968 202.475C204.291 202.017 203.31 201.342 202.157 200.436C201.004 199.53 199.663 198.382 198.419 196.877C197.18 195.377 196.068 193.469 195.526 191.274C194.97 189.084 194.925 186.909 195.142 184.981C195.36 183.048 195.82 181.347 196.28 179.957C196.745 178.568 197.216 177.475 197.549 176.73C197.721 176.358 197.858 176.071 197.954 175.879C198.05 175.688 198.111 175.587 198.121 175.592C198.146 175.603 197.974 176.02 197.676 176.781C197.377 177.541 196.948 178.638 196.518 180.028C196.088 181.417 195.658 183.103 195.461 185.011C195.263 186.914 195.314 189.049 195.86 191.188C196.386 193.333 197.458 195.191 198.662 196.676C199.871 198.166 201.181 199.319 202.308 200.245C203.436 201.171 204.392 201.871 205.044 202.364C205.343 202.591 205.591 202.782 205.793 202.933C205.965 203.064 206.051 203.14 206.041 203.15L206.046 203.155Z" fill="#643F92"/>
<path d="M243.773 209.709C243.773 209.709 243.677 209.755 243.48 209.815C243.283 209.865 242.994 209.966 242.615 210.036C241.862 210.213 240.744 210.384 239.353 210.424C236.592 210.525 232.622 209.89 228.991 207.61C225.365 205.324 223.084 202.022 221.996 199.495C221.435 198.226 221.116 197.149 220.95 196.394C220.853 196.021 220.818 195.719 220.783 195.518C220.752 195.316 220.742 195.211 220.752 195.211C220.783 195.206 220.874 195.624 221.081 196.359C221.283 197.099 221.637 198.156 222.219 199.394C223.352 201.861 225.623 205.078 229.178 207.318C232.733 209.553 236.627 210.218 239.353 210.182C240.729 210.172 241.836 210.036 242.595 209.906C243.354 209.775 243.773 209.679 243.778 209.709H243.773Z" fill="#643F92"/>
<path d="M254.368 222.592C254.277 222.567 255.157 218.902 256.336 214.411C257.514 209.916 258.546 206.291 258.637 206.316C258.728 206.341 257.848 210.001 256.669 214.502C255.491 218.997 254.459 222.622 254.368 222.597V222.592Z" fill="#643F92"/>
<path d="M263.684 214.814C263.603 214.864 260.923 210.505 257.706 205.083C254.485 199.661 251.946 195.226 252.027 195.175C252.108 195.125 254.783 199.485 258.005 204.907C261.221 210.328 263.765 214.764 263.684 214.809V214.814Z" fill="#643F92"/>
<path d="M289.218 225.547C289.223 225.612 288.247 225.693 286.73 226.075C285.972 226.262 285.081 226.549 284.126 226.936C283.175 227.339 282.153 227.842 281.142 228.472C280.135 229.111 279.24 229.811 278.472 230.495C277.713 231.19 277.066 231.865 276.575 232.469C275.579 233.672 275.083 234.513 275.027 234.477C275.007 234.467 275.119 234.246 275.336 233.863C275.548 233.476 275.902 232.942 276.383 232.313C276.858 231.678 277.495 230.979 278.254 230.259C279.028 229.549 279.933 228.829 280.955 228.18C281.986 227.54 283.028 227.032 284.004 226.644C284.985 226.272 285.896 226 286.675 225.844C287.448 225.683 288.086 225.592 288.531 225.567C288.971 225.537 289.218 225.532 289.218 225.552V225.547Z" fill="#643F92"/>
<path d="M292.481 221.555C292.475 221.625 291.408 221.499 289.699 221.645C288.844 221.711 287.838 221.882 286.746 222.164C285.658 222.466 284.485 222.884 283.317 223.458C282.153 224.047 281.117 224.731 280.222 225.421C279.342 226.126 278.598 226.825 278.037 227.47C276.899 228.743 276.363 229.67 276.302 229.635C276.282 229.624 276.408 229.388 276.651 228.97C276.772 228.759 276.924 228.507 277.137 228.235C277.339 227.958 277.556 227.631 277.85 227.309C278.396 226.634 279.134 225.904 280.019 225.174C280.919 224.459 281.971 223.75 283.16 223.15C284.353 222.567 285.552 222.149 286.665 221.857C287.782 221.59 288.814 221.439 289.684 221.404C290.119 221.363 290.513 221.389 290.857 221.389C291.201 221.389 291.499 221.414 291.737 221.444C292.218 221.494 292.486 221.534 292.481 221.56V221.555Z" fill="#643F92"/>
<path d="M189.038 157.736C188.942 157.721 189.25 155.36 189.721 152.46C190.191 149.561 190.651 147.225 190.742 147.24C190.838 147.255 190.53 149.616 190.059 152.516C189.589 155.415 189.129 157.751 189.038 157.736Z" fill="#FAFAFA"/>
<path d="M182.018 156.271C181.932 156.327 180.784 154.736 179.206 152.908C177.634 151.076 176.223 149.707 176.293 149.631C176.354 149.566 177.881 150.834 179.469 152.682C181.067 154.529 182.094 156.221 182.018 156.271Z" fill="#FAFAFA"/>
<path d="M188.042 139.2C188.077 139.225 187.799 139.689 187.288 140.393C186.782 141.098 186.049 142.05 185.184 143.062C184.324 144.068 183.5 144.944 182.883 145.559C182.266 146.173 181.856 146.52 181.821 146.49C181.75 146.419 183.207 144.849 184.921 142.84C186.636 140.831 187.961 139.145 188.037 139.205L188.042 139.2Z" fill="#FAFAFA"/>
<path d="M185.69 130.854C185.594 130.894 185.214 130.048 184.476 129.208C183.748 128.362 182.964 127.868 183.015 127.778C183.05 127.697 183.96 128.08 184.739 128.981C185.523 129.877 185.776 130.829 185.69 130.854Z" fill="#FAFAFA"/>
<path d="M179.621 135.994C179.636 136.089 178.862 136.291 177.891 136.442C176.92 136.593 176.121 136.643 176.106 136.547C176.091 136.452 176.865 136.25 177.836 136.099C178.807 135.948 179.606 135.898 179.621 135.994Z" fill="#FAFAFA"/>
<path d="M194.94 143.359C194.834 143.343 195.096 141.944 194.717 140.273C194.363 138.596 193.544 137.433 193.635 137.373C193.691 137.307 194.682 138.44 195.056 140.197C195.445 141.954 195.016 143.389 194.94 143.354V143.359Z" fill="#FAFAFA"/>
<path d="M203.128 152.123C203.032 152.173 202.334 150.769 200.983 149.43C199.648 148.076 198.242 147.371 198.293 147.275C198.318 147.195 199.84 147.784 201.226 149.183C202.627 150.573 203.204 152.098 203.123 152.118L203.128 152.123Z" fill="#FAFAFA"/>
<path d="M189.989 167.331C190.019 167.412 188.664 167.9 186.914 167.835C185.164 167.779 183.844 167.2 183.879 167.125C183.91 167.024 185.235 167.442 186.924 167.492C188.608 167.558 189.958 167.231 189.984 167.336L189.989 167.331Z" fill="#FAFAFA"/>
<path d="M196.153 170.473C196.057 170.438 196.578 168.907 197.008 166.974C197.448 165.041 197.635 163.44 197.736 163.445C197.827 163.445 197.792 165.086 197.347 167.05C196.907 169.013 196.234 170.508 196.153 170.473Z" fill="#FAFAFA"/>
<path d="M209.621 170.991C209.55 171.057 208.251 169.748 206.713 168.071C205.176 166.395 203.992 164.98 204.063 164.92C204.134 164.86 205.434 166.163 206.971 167.84C208.503 169.516 209.692 170.931 209.621 170.991Z" fill="#FAFAFA"/>
<path d="M215.902 186.476C215.832 186.542 214.861 185.651 213.733 184.488C212.6 183.325 211.74 182.323 211.811 182.258C211.882 182.192 212.853 183.083 213.981 184.246C215.108 185.409 215.973 186.411 215.902 186.476Z" fill="#FAFAFA"/>
<path d="M204.235 187.957C204.296 188.022 203.183 189.049 201.575 189.97C199.972 190.902 198.525 191.355 198.495 191.269C198.46 191.173 199.82 190.584 201.398 189.668C202.976 188.762 204.169 187.871 204.23 187.951L204.235 187.957Z" fill="#FAFAFA"/>
<path d="M209.606 202.697C209.505 202.671 209.904 200.93 210.102 198.75C210.309 196.565 210.243 194.783 210.344 194.778C210.43 194.768 210.658 196.565 210.446 198.785C210.243 201 209.687 202.727 209.601 202.702L209.606 202.697Z" fill="#FAFAFA"/>
<path d="M229.785 190.71C229.734 190.781 228.308 189.789 226.902 188.188C225.491 186.592 224.697 185.052 224.773 185.011C224.864 184.956 225.779 186.396 227.16 187.961C228.536 189.537 229.846 190.63 229.78 190.71H229.785Z" fill="#FAFAFA"/>
<path d="M237.158 196.968C237.077 196.907 238.089 195.528 239.217 193.761C240.355 191.994 241.179 190.504 241.27 190.549C241.351 190.589 240.653 192.165 239.51 193.947C238.367 195.734 237.229 197.028 237.158 196.968Z" fill="#FAFAFA"/>
<path d="M236.081 181.664C236.056 181.754 234.539 181.432 232.698 180.939C230.852 180.446 229.38 179.972 229.405 179.882C229.431 179.791 230.943 180.113 232.789 180.607C234.635 181.1 236.106 181.573 236.081 181.664Z" fill="#FAFAFA"/>
<path d="M230.705 208.592C230.609 208.587 230.614 207.177 230.715 205.45C230.817 203.719 230.978 202.324 231.074 202.329C231.171 202.334 231.165 203.744 231.064 205.47C230.963 207.202 230.801 208.597 230.705 208.592Z" fill="#FAFAFA"/>
<path d="M235.353 217.814C235.257 217.769 235.955 216.395 236.192 214.547C236.45 212.699 236.142 211.189 236.248 211.174C236.324 211.144 236.804 212.674 236.536 214.592C236.283 216.515 235.419 217.865 235.353 217.814Z" fill="#FAFAFA"/>
<path d="M223.306 215.775C223.22 215.79 223.013 214.23 223.382 212.347C223.741 210.464 224.515 209.095 224.586 209.135C224.682 209.176 224.07 210.58 223.721 212.413C223.362 214.24 223.412 215.77 223.306 215.775Z" fill="#FAFAFA"/>
<path d="M212.322 220.447C212.256 220.518 210.906 219.375 209.196 218.031C207.487 216.682 206.061 215.64 206.116 215.559C206.167 215.483 207.694 216.405 209.414 217.764C211.138 219.118 212.387 220.387 212.327 220.452L212.322 220.447Z" fill="#FAFAFA"/>
<path d="M219.761 207.444C219.807 207.529 218.057 208.541 215.857 209.704C213.657 210.867 211.836 211.743 211.791 211.657C211.745 211.572 213.495 210.56 215.695 209.397C217.895 208.234 219.715 207.358 219.761 207.444Z" fill="#FAFAFA"/>
<path d="M242.873 236.627C242.873 236.627 242.727 236.677 242.443 236.738C242.155 236.793 241.74 236.899 241.189 236.969C240.097 237.146 238.494 237.302 236.506 237.266C234.524 237.236 232.157 236.964 229.618 236.3C227.079 235.635 224.379 234.533 221.794 232.947C219.225 231.336 217.045 229.403 215.331 227.42C213.611 225.441 212.332 223.443 211.432 221.681C210.532 219.919 209.965 218.418 209.647 217.361C209.47 216.838 209.384 216.42 209.303 216.138C209.232 215.856 209.201 215.71 209.212 215.705C209.222 215.705 209.277 215.846 209.368 216.118C209.47 216.39 209.576 216.802 209.773 217.316C210.132 218.353 210.724 219.833 211.649 221.56C212.565 223.291 213.859 225.255 215.574 227.203C217.283 229.151 219.443 231.054 221.981 232.645C224.53 234.216 227.195 235.313 229.704 235.988C232.212 236.667 234.549 236.959 236.516 237.02C238.483 237.085 240.076 236.969 241.174 236.833C241.725 236.783 242.145 236.698 242.433 236.667C242.721 236.627 242.873 236.617 242.878 236.627H242.873Z" fill="#643F92"/>
<path d="M222.978 233.199C222.897 233.224 222.649 231.744 223.291 230.067C223.918 228.381 225.081 227.43 225.127 227.5C225.208 227.57 224.206 228.587 223.62 230.188C223.008 231.779 223.089 233.199 222.983 233.199H222.978Z" fill="#FAFAFA"/>
<path d="M217.495 230.918C217.546 231.009 216.545 231.497 215.761 232.559C214.962 233.606 214.775 234.699 214.673 234.679C214.587 234.689 214.623 233.491 215.488 232.353C216.337 231.21 217.485 230.833 217.495 230.918Z" fill="#FAFAFA"/>
<path d="M238.569 243.403C238.569 243.489 237.052 243.368 235.504 242.396C233.947 241.44 233.168 240.131 233.249 240.101C233.335 240.035 234.2 241.193 235.692 242.104C237.168 243.035 238.6 243.297 238.574 243.403H238.569Z" fill="#FAFAFA"/>
<path d="M241.846 225.038C241.932 225.038 241.74 226.418 240.653 227.681C239.581 228.955 238.241 229.368 238.225 229.282C238.175 229.187 239.378 228.658 240.39 227.46C241.417 226.277 241.745 225.008 241.846 225.038Z" fill="#FAFAFA"/>
<path d="M251.162 238.731C251.081 238.666 251.961 237.558 252.77 236.033C253.589 234.513 254.019 233.164 254.12 233.194C254.206 233.214 253.918 234.634 253.079 236.194C252.249 237.76 251.228 238.792 251.162 238.731Z" fill="#FAFAFA"/>
<path d="M263.477 240.539C263.517 240.634 262.303 241.112 261.085 242.114C259.856 243.101 259.137 244.188 259.052 244.128C258.971 244.093 259.583 242.879 260.867 241.847C262.142 240.805 263.462 240.453 263.477 240.539Z" fill="#FAFAFA"/>
<path d="M254.085 224.837C253.984 224.867 253.402 222.929 252.179 220.784C250.97 218.625 249.604 217.13 249.685 217.059C249.716 217.029 250.1 217.366 250.641 217.985C251.182 218.605 251.865 219.521 252.482 220.613C253.099 221.706 253.534 222.763 253.787 223.543C254.04 224.323 254.131 224.827 254.09 224.837H254.085Z" fill="#FAFAFA"/>
<path d="M255.926 205.103C255.946 205.194 254.535 205.601 252.77 206.004C251.005 206.412 249.554 206.664 249.534 206.568C249.513 206.477 250.924 206.069 252.689 205.667C254.454 205.259 255.906 205.007 255.926 205.103Z" fill="#FAFAFA"/>
<path d="M250.262 199.203C250.186 199.263 249.276 198.216 248.224 196.872C247.172 195.528 246.383 194.39 246.459 194.33C246.535 194.269 247.445 195.316 248.497 196.661C249.549 198.005 250.338 199.142 250.262 199.203Z" fill="#FAFAFA"/>
<path d="M264.296 195.664C264.286 195.754 262.839 195.664 261.105 195.251C259.37 194.843 258.035 194.279 258.065 194.194C258.101 194.098 259.471 194.516 261.186 194.919C262.9 195.327 264.311 195.568 264.296 195.664Z" fill="#FAFAFA"/>
<path d="M274.274 195.488C274.183 195.442 274.734 194.244 275.291 192.724C275.852 191.204 276.211 189.94 276.307 189.96C276.398 189.98 276.186 191.299 275.614 192.845C275.048 194.39 274.35 195.533 274.269 195.488H274.274Z" fill="#FAFAFA"/>
<path d="M272.029 208.954C272.008 209.04 270.623 208.692 269.126 207.801C267.624 206.915 266.658 205.873 266.723 205.813C266.794 205.737 267.841 206.643 269.303 207.504C270.759 208.375 272.064 208.858 272.029 208.954Z" fill="#FAFAFA"/>
<path d="M278.522 208.546C278.431 208.526 278.755 206.764 279.255 204.61C279.751 202.455 280.232 200.728 280.323 200.748C280.414 200.768 280.09 202.53 279.589 204.685C279.094 206.84 278.613 208.566 278.522 208.546Z" fill="#FAFAFA"/>
<path d="M273.101 223.604C273.025 223.659 271.968 222.355 270.744 220.689C269.52 219.023 268.59 217.623 268.67 217.568C268.746 217.512 269.803 218.816 271.027 220.482C272.251 222.149 273.177 223.548 273.101 223.604Z" fill="#FAFAFA"/>
<path d="M282.351 217.844C282.26 217.885 281.648 216.692 280.692 215.353C279.741 214.008 278.81 213.042 278.881 212.966C278.942 212.901 280.004 213.777 280.975 215.151C281.956 216.52 282.437 217.809 282.351 217.844Z" fill="#FAFAFA"/>
<path d="M291.019 216.551C290.933 216.601 290.063 215.302 288.885 213.777C287.711 212.246 286.68 211.069 286.755 211.003C286.821 210.938 287.979 212.02 289.163 213.57C290.351 215.111 291.1 216.51 291.019 216.556V216.551Z" fill="#FAFAFA"/>
<path d="M288.981 222.269C288.879 222.269 288.945 221.122 288.187 220.009C287.458 218.876 286.366 218.489 286.412 218.393C286.422 218.353 286.715 218.393 287.135 218.6C287.554 218.806 288.08 219.219 288.48 219.818C288.874 220.417 289.051 221.061 289.077 221.524C289.107 221.993 289.021 222.269 288.986 222.269H288.981Z" fill="#FAFAFA"/>
<path d="M282.219 230.113C282.169 230.098 282.184 229.937 282.133 229.7C282.083 229.468 281.946 229.156 281.678 228.94C281.405 228.728 281.066 228.673 280.828 228.683C280.586 228.688 280.434 228.744 280.404 228.698C280.378 228.663 280.505 228.522 280.788 228.441C281.061 228.361 281.516 228.381 281.89 228.668C282.265 228.96 282.391 229.393 282.376 229.675C282.371 229.967 282.26 230.123 282.219 230.108V230.113Z" fill="#FAFAFA"/>
<path d="M212.944 242.648C212.924 242.728 211.194 242.079 209.616 240.498C208.028 238.928 207.371 237.206 207.452 237.186C207.548 237.136 208.322 238.736 209.859 240.252C211.381 241.782 212.989 242.552 212.939 242.648H212.944Z" fill="#FAFAFA"/>
<path d="M170.553 78.1306C169.486 68.0522 167.549 58.5678 167.023 48.6806C166.998 48.1873 166.942 47.6285 166.553 47.3164C166.022 46.8935 165.172 47.2308 164.828 47.8148C164.479 48.3937 164.489 49.1136 164.489 49.7882C164.51 55.0287 163.615 60.2744 161.85 65.2179C160.707 68.4247 159.194 71.5157 158.33 74.8081C157.465 78.1055 159.078 79.2231 160.57 82.2889" fill="#FFC4A3"/>
<path d="M160.57 82.2839C157.915 80.3105 156.504 76.8067 157.055 73.5596C157.389 71.5711 158.38 69.7638 159.169 67.9062C159.958 66.0486 160.565 63.9947 160.08 62.0364C159.897 61.2863 159.554 60.5613 159.549 59.7911C159.549 59.0209 160.044 58.16 160.818 58.1248C161.405 58.0996 161.895 58.5426 162.264 58.9957C163.559 60.5916 164.601 65.2633 163.948 68.7469" fill="#FFC4A3"/>
<path d="M163.954 68.7418C163.918 68.7368 164.019 68.2082 164.06 67.2417C164.095 66.2751 164.05 64.8655 163.716 63.174C163.549 62.3283 163.306 61.407 162.922 60.4757C162.73 60.0126 162.502 59.5393 162.178 59.1265C161.86 58.7238 161.435 58.316 160.929 58.2858C160.424 58.2456 159.984 58.6886 159.817 59.2121C159.63 59.7357 159.751 60.3348 159.928 60.9187C160.11 61.5027 160.328 62.132 160.393 62.7965C160.459 63.4559 160.434 64.1356 160.317 64.8001C159.852 67.4883 158.411 69.6631 157.683 71.8127C157.308 72.885 157.081 73.9472 157.086 74.954C157.081 75.9609 157.243 76.8972 157.495 77.7128C158.006 79.3589 158.851 80.5168 159.498 81.2266C160.15 81.9415 160.596 82.2536 160.575 82.2838C160.57 82.2939 160.454 82.2184 160.247 82.0673C160.034 81.9163 159.746 81.6696 159.402 81.3223C158.719 80.6276 157.824 79.4697 157.268 77.7883C156.995 76.9526 156.813 75.9911 156.803 74.954C156.782 73.912 157.005 72.8044 157.384 71.707C158.117 69.507 159.539 67.3323 159.979 64.7397C160.09 64.1003 160.11 63.4559 160.049 62.8317C159.994 62.2024 159.791 61.6235 159.604 61.0144C159.427 60.4203 159.281 59.7357 159.508 59.1064C159.614 58.7993 159.781 58.5124 160.034 58.2909C160.277 58.0694 160.621 57.9435 160.955 57.9636C161.637 58.0241 162.087 58.5124 162.426 58.9352C162.775 59.3883 163.003 59.8817 163.195 60.3599C163.579 61.3215 163.807 62.2578 163.964 63.1187C164.272 64.8454 164.277 66.2701 164.201 67.2417C164.156 67.73 164.11 68.1025 164.055 68.3542C164.004 68.6059 163.974 68.7368 163.959 68.7368L163.954 68.7418Z" fill="#FFA275"/>
<path d="M251.01 122.577C251.359 124.485 253.185 125.955 255.122 126.117C257.064 126.278 259.001 125.241 260.139 123.665C261.277 122.089 261.646 120.045 261.383 118.122C260.999 115.333 259.138 112.65 256.432 111.814C253.731 110.979 250.363 112.464 249.62 115.182L246.504 119.517L251.01 122.583V122.577Z" fill="#FFAE00"/>
<path d="M247.324 114.07C248.588 104.016 241.285 94.829 231.029 93.8574C221.364 92.9412 212.772 100.105 211.326 109.665C210.056 118.042 208.964 126.499 209.004 129.57C209.121 138.833 214.567 142.437 216.772 143.52C217.278 143.766 218.664 144.048 219.22 144.124C219.255 144.124 219.281 144.164 219.271 144.194L217.202 154.826C216.267 161.794 220.171 168.006 227.16 169.018C234.17 170.035 239.652 164.683 240.719 157.711L247.324 114.06V114.07Z" fill="#FFC4A3"/>
<path d="M212.924 115.077C213.075 115.293 214.304 114.639 215.882 114.87C217.46 115.082 218.497 116.053 218.694 115.887C218.79 115.817 218.654 115.444 218.203 115.006C217.763 114.573 216.969 114.095 215.988 113.959C215.007 113.823 214.127 114.06 213.601 114.362C213.06 114.664 212.848 114.981 212.924 115.082V115.077Z" fill="#643F92"/>
<path d="M226.938 118.097C227.089 118.314 228.323 117.659 229.896 117.891C231.474 118.102 232.511 119.074 232.708 118.908C232.804 118.837 232.673 118.465 232.217 118.027C231.777 117.594 230.983 117.115 230.002 116.979C229.021 116.844 228.141 117.08 227.615 117.382C227.079 117.684 226.862 118.001 226.938 118.102V118.097Z" fill="#643F92"/>
<path d="M221.491 125.512C221.511 125.427 220.555 125.115 218.997 124.682C218.603 124.581 218.234 124.445 218.203 124.163C218.153 123.861 218.38 123.453 218.643 123.015C219.164 122.099 219.705 121.143 220.277 120.141C222.563 116.038 224.282 112.645 224.115 112.554C223.949 112.464 221.961 115.716 219.67 119.814C219.114 120.826 218.588 121.792 218.082 122.713C217.865 123.146 217.526 123.625 217.642 124.254C217.708 124.571 217.971 124.828 218.219 124.933C218.466 125.049 218.689 125.084 218.886 125.125C220.469 125.442 221.46 125.593 221.481 125.502L221.491 125.512Z" fill="#643F92"/>
<path d="M219.281 144.134C219.281 144.134 225.289 145.513 233.563 142.065C233.563 142.065 229.992 149.717 218.724 146.998L219.281 144.134Z" fill="#FFA275"/>
<path d="M221.602 129.384C222.28 128.719 223.331 128.457 224.297 128.704C224.97 128.875 225.612 129.303 225.946 129.917C226.28 130.532 226.255 131.332 225.799 131.805C225.289 132.339 224.378 132.349 223.66 132.027C222.942 131.704 222.366 131.121 221.824 130.537C221.673 130.375 221.521 130.209 221.44 130.008C221.359 129.807 221.374 129.56 221.526 129.424" fill="#FFA275"/>
<path d="M225.967 127.269C225.714 127.219 225.461 128.92 223.817 129.912C222.179 130.914 220.383 130.456 220.338 130.693C220.297 130.798 220.697 131.08 221.46 131.216C222.209 131.352 223.347 131.271 224.353 130.662C225.355 130.053 225.886 129.117 226.042 128.427C226.214 127.727 226.083 127.274 225.967 127.269Z" fill="#643F92"/>
<path d="M228.025 112.997C228.116 113.445 229.719 113.471 231.534 113.964C233.36 114.417 234.771 115.172 235.075 114.825C235.211 114.659 235.009 114.221 234.468 113.717C233.932 113.219 233.036 112.69 231.944 112.403C230.852 112.121 229.81 112.152 229.097 112.323C228.379 112.494 227.989 112.781 228.025 112.992V112.997Z" fill="#FFAE00"/>
<path d="M214.517 110.244C214.744 110.641 215.882 110.43 217.187 110.601C218.502 110.727 219.564 111.19 219.872 110.853C220.009 110.687 219.887 110.304 219.452 109.901C219.028 109.499 218.269 109.106 217.369 109.005C216.469 108.905 215.644 109.116 215.139 109.413C214.623 109.71 214.42 110.057 214.517 110.249V110.244Z" fill="#FFAE00"/>
<path d="M209.495 107.586C211.422 110.511 217.531 108.703 221.223 106.695C225.112 109.257 230.513 108.144 233.204 104.223C235.312 106.901 239.606 106.015 241.169 103C242.732 99.9841 241.852 95.8309 239.702 93.1929C237.553 90.555 234.412 89.221 231.307 88.6521C223.949 87.2979 215.938 90.1372 211.533 96.7622C209.5 99.8179 208.281 103.931 209.49 107.591" fill="#FFAE00"/>
<path d="M229.83 89.6941C229.825 89.82 228.091 89.4928 225.365 89.9458C222.689 90.3939 218.922 91.7833 216.12 94.8995C213.379 98.0609 212.135 101.806 211.68 104.48C211.219 107.193 211.573 108.91 211.452 108.92C211.417 108.925 211.305 108.507 211.199 107.732C211.108 106.956 211.078 105.814 211.255 104.419C211.614 101.66 212.812 97.7941 215.665 94.4967C218.603 91.2346 222.538 89.8703 225.304 89.523C226.705 89.3417 227.853 89.382 228.632 89.4676C229.416 89.5532 229.835 89.6639 229.83 89.6941Z" fill="white"/>
<path d="M219.883 103.307C219.847 103.307 219.771 102.944 219.736 102.265C219.7 101.585 219.756 100.593 220.034 99.4051C220.555 97.0592 222.27 93.8121 225.562 91.8639C228.874 89.9409 232.556 90.0264 234.872 90.706C236.051 91.0383 236.951 91.4712 237.528 91.8337C238.109 92.1911 238.392 92.4378 238.372 92.468C238.311 92.5788 237.082 91.6676 234.766 91.1239C232.501 90.5701 229.001 90.5701 225.87 92.3875C222.755 94.23 221.061 97.2757 220.449 99.5209C219.802 101.801 220.004 103.317 219.883 103.312V103.307Z" fill="white"/>
<path d="M237.538 100.135C236.921 102.743 236.299 105.386 236.299 108.064C236.299 110.747 236.971 113.516 238.691 115.58C241.26 118.666 245.548 119.602 249.503 120.352C251.622 115.127 252.265 109.317 251.344 103.76C250.894 101.046 250.019 98.2825 248.092 96.304C245.316 93.4496 240.481 92.8757 237.108 95.0002" fill="#FFAE00"/>
<path d="M239.738 112.967C238.696 115.207 238.772 117.8 239.131 120.242C239.49 122.683 240.112 125.11 240.092 127.576C240.066 130.043 239.277 132.661 237.335 134.191C236.784 134.629 236.147 134.972 235.682 135.5C235.216 136.029 234.969 136.839 235.338 137.438C235.707 138.037 236.83 138.022 236.991 137.338L236.89 137.509C236.466 138.234 236.981 139.18 237.826 139.165C239.146 139.14 240.496 138.445 241.381 137.428C242.656 135.963 243.156 133.995 243.49 132.087C244.517 126.232 244.315 120.171 245.938 114.452" fill="#FFAE00"/>
<path d="M217.157 151.403C218.067 155.375 220.783 158.904 224.399 160.817C228.015 162.73 232.47 162.997 236.289 161.522C239.738 160.193 242.514 157.61 245.205 155.083C246.16 160.812 244.567 166.919 240.926 171.459C237.29 176 231.666 178.905 225.84 179.252C221.43 179.514 216.686 178.175 213.91 174.752C211.973 172.361 211.189 169.199 211.219 166.133C211.25 163.062 212.039 160.052 212.959 157.122C213.748 154.615 214.992 151.806 217.536 151.121" fill="#FF8ACD"/>
<path d="M248.75 120.564C251.385 121.994 252.836 124.969 253.347 127.914C253.858 130.859 253.6 133.874 253.726 136.859C253.853 139.845 254.424 142.961 256.321 145.277C258.333 147.738 261.479 148.906 264.286 150.412C270.496 153.744 275.599 159.382 277.47 166.153C279.342 172.924 277.642 180.753 272.55 185.606C267.912 190.026 261.166 191.581 254.748 191.561C250.171 191.546 245.144 190.579 242.287 187.015C239.465 183.496 239.591 178.467 240.623 174.082C241.654 169.698 243.45 165.429 243.521 160.928C242.843 163.707 241.644 166.36 240.006 168.706C239.535 169.375 238.731 170.1 238.008 169.718C237.204 169.29 237.507 168.092 237.882 167.266C243.399 155.048 241.477 130.426 244.744 116.939" fill="#FFAE00"/>
<path d="M244.203 119.169C244.37 119.114 250.808 117.901 249.979 124.239C249.154 130.577 242.934 128.442 242.944 128.261C242.959 128.08 244.203 119.169 244.203 119.169Z" fill="#FFC4A3"/>
<path d="M245.205 126.111C245.235 126.096 245.306 126.202 245.483 126.313C245.655 126.419 245.963 126.519 246.307 126.439C247.01 126.278 247.718 125.291 247.895 124.153C247.986 123.579 247.936 123.015 247.789 122.532C247.657 122.044 247.394 121.681 247.066 121.576C246.737 121.455 246.474 121.626 246.373 121.792C246.267 121.958 246.287 122.089 246.251 122.094C246.231 122.109 246.13 121.968 246.216 121.717C246.257 121.596 246.353 121.455 246.52 121.354C246.686 121.248 246.919 121.218 247.152 121.274C247.637 121.369 248.022 121.878 248.183 122.406C248.37 122.94 248.441 123.574 248.335 124.224C248.128 125.497 247.314 126.605 246.363 126.751C245.897 126.811 245.543 126.625 245.372 126.454C245.194 126.273 245.179 126.127 245.205 126.116V126.111Z" fill="#FFA275"/>
<path d="M210.572 165.066C210.526 165.041 210.961 164.301 211.654 163.108C212.337 161.915 213.293 160.253 213.95 158.275C214.608 156.296 214.724 154.373 214.527 153.029C214.345 151.675 213.955 150.9 214.016 150.875C214.036 150.865 214.147 151.051 214.304 151.408C214.461 151.766 214.643 152.304 214.769 152.994C215.037 154.368 214.962 156.357 214.284 158.386C213.606 160.409 212.605 162.071 211.867 163.239C211.492 163.823 211.179 164.286 210.951 164.603C210.729 164.92 210.592 165.086 210.572 165.071V165.066Z" fill="#643F92"/>
<path d="M213.824 157.746C213.728 157.772 213.546 157.208 212.979 156.825C212.423 156.422 211.831 156.453 211.816 156.352C211.811 156.312 211.958 156.236 212.221 156.231C212.479 156.226 212.848 156.312 213.176 156.543C213.505 156.775 213.718 157.087 213.799 157.328C213.884 157.575 213.864 157.736 213.824 157.746Z" fill="#FAFAFA"/>
<path d="M217.93 157.741C217.839 157.792 217.334 156.88 216.292 156.211C215.26 155.521 214.218 155.421 214.234 155.315C214.218 155.229 215.361 155.174 216.484 155.919C217.617 156.654 218.022 157.721 217.93 157.736V157.741Z" fill="#FAFAFA"/>
<path d="M220.52 171.188C220.424 171.167 220.596 169.954 220.904 168.479C221.213 167.004 221.536 165.821 221.627 165.841C221.718 165.861 221.552 167.075 221.243 168.55C220.935 170.025 220.611 171.208 220.52 171.188Z" fill="#FAFAFA"/>
<path d="M230.907 173.216C230.811 173.216 230.776 171.933 230.821 170.357C230.872 168.781 230.988 167.503 231.084 167.508C231.181 167.508 231.216 168.791 231.17 170.367C231.12 171.943 231.003 173.221 230.907 173.216Z" fill="#FAFAFA"/>
<path d="M18.8132 202.671L8.54688 247.184L30.258 247.249L40.2917 208.103L18.8132 202.671Z" fill="#BF8C79"/>
<path d="M125.452 147.99C123.389 145.236 121.017 142.588 119.93 139.326C119.404 137.75 119.196 136.079 118.64 134.519C118.079 132.953 117.062 131.428 115.504 130.839C113.947 130.25 112.763 130.849 111.747 131.951L104.297 153.648L108.596 170.317C112.88 169.355 118.256 168.217 122.256 166.42C126.261 164.623 128.942 161.748 129.195 157.384C129.392 153.95 127.521 150.754 125.457 148L125.452 147.99Z" fill="#643F92"/>
<path d="M57.6434 144.154C57.6434 144.154 31.7398 155.38 28.5031 160.445C25.2664 165.509 14.6309 201.614 14.6309 201.614L41.9 209.604L41.4499 247.189H108.373L107.822 180.924L99.4271 144.295C99.4271 144.295 84.6496 143.349 83.2841 142.679C81.9186 142.01 57.6434 144.164 57.6434 144.164V144.154Z" fill="#FFAE00"/>
<path d="M149.692 52.275C149.904 50.7546 148.837 49.0833 149.606 47.7543C150.031 47.0193 150.885 46.6619 151.679 46.3598C152.089 46.2037 152.514 46.0426 152.954 46.0577C153.394 46.0729 153.859 46.3044 154.001 46.7223C154.173 47.2055 153.854 47.7291 153.49 48.0916C153.126 48.454 152.681 48.7712 152.483 49.2444C152.22 49.8787 152.463 51.8722 152.726 52.5065C153.181 53.5939 154.789 58.4268 154.926 59.5997" fill="#BF8C79"/>
<path d="M144.225 52.7986C144.321 50.4979 146.192 41.4314 146.288 39.1307C147.851 39.609 148.756 41.2652 149.05 42.8711C149.343 44.477 149.191 46.1283 149.469 47.7342C149.844 49.8888 150.966 51.832 152.099 53.7047C153.232 55.5774 154.415 57.4703 154.926 59.5997C155.437 61.7242 157.369 67.2316 155.867 68.8274" fill="#BF8C79"/>
<path d="M143.79 68.309L134.53 112.111C134.201 114.09 99.4219 144.29 99.4219 144.29L106.29 171.605L151.603 127.506C154.87 124.027 156.651 119.421 156.56 114.659L155.791 73.5596L143.785 68.314L143.79 68.309Z" fill="#BF8C79"/>
<path d="M142.212 53.0755L143.795 68.309L155.801 73.5546C155.801 73.5546 155.948 72.4722 156.463 67.1964C157.035 61.3719 150.744 58.8749 147.942 54.5757C146.743 52.7382 147.057 49.3552 146.131 45.1668C146.025 44.6835 145.358 41.7587 144.993 40.183C144.796 39.312 144.301 38.5267 143.557 38.0283C143.016 37.6659 142.404 37.4846 141.954 38.0283C141.494 38.577 142.217 53.0755 142.217 53.0755H142.212Z" fill="#BF8C79"/>
<path d="M149.692 70.8663C151.057 69.7185 151.345 67.6646 150.845 65.958C150.339 64.2514 149.186 62.8217 148.018 61.4775C146.85 60.1334 145.616 58.7993 144.892 57.1733C144.387 56.0305 144.149 54.772 143.593 53.6544C143.031 52.5318 142.015 51.5048 140.76 51.4545C141.762 57.7573 141.742 61.3819 143.795 68.3089" fill="#BF8C79"/>
<path d="M141.979 58.6281C141.979 58.6281 141.934 58.457 141.858 58.1247C141.767 57.722 141.661 57.2437 141.534 56.6799C141.256 55.3609 140.892 53.6594 140.477 51.7212L140.437 51.535L140.629 51.5199C141.418 51.4594 142.242 51.8068 142.87 52.3555C143.916 53.2416 144.397 54.49 144.746 55.5472C145.095 56.6195 145.393 57.576 145.798 58.311C146.167 59.0661 146.678 59.5293 146.971 59.9169C147.259 60.2995 147.386 60.5361 147.371 60.5462C147.35 60.5613 147.183 60.3549 146.87 60.0025C146.566 59.6601 146 59.197 145.585 58.4268C145.14 57.6817 144.807 56.7 144.442 55.6479C144.078 54.6008 143.613 53.4329 142.642 52.6173C142.06 52.1139 141.337 51.8118 140.649 51.8572L140.801 51.6558C141.595 55.6479 142.116 58.6382 141.974 58.6332L141.979 58.6281Z" fill="#835343"/>
<path d="M147.36 54.7569C147.264 54.772 146.769 51.988 146.253 48.5396C145.737 45.0912 145.398 42.2821 145.489 42.267C145.585 42.2519 146.081 45.0358 146.597 48.4893C147.113 51.9377 147.451 54.7468 147.36 54.7619V54.7569Z" fill="#835343"/>
<path d="M151.179 55.2654C151.179 55.2654 151.224 55.3358 151.265 55.4969L151.164 55.5171C150.941 54.9683 150.415 53.2517 149.955 51.1826C149.667 49.904 149.459 48.736 149.333 47.8852C149.206 47.0345 149.166 46.5059 149.211 46.4958C149.308 46.4807 149.717 48.5598 150.294 51.1071C150.754 53.1661 151.174 54.9029 151.265 55.4869L151.164 55.507C151.153 55.3409 151.164 55.2603 151.179 55.2603V55.2654Z" fill="#835343"/>
<path d="M153.54 63.6623C153.49 63.6925 153.252 63.32 152.767 62.8065C152.286 62.293 151.533 61.6688 150.572 61.2006C149.606 60.7375 148.645 60.5411 147.942 60.4858C147.239 60.4304 146.794 60.4707 146.789 60.4153C146.784 60.3801 147.219 60.2441 147.952 60.2441C148.68 60.2391 149.707 60.4052 150.723 60.8885C151.735 61.3768 152.509 62.0715 152.954 62.6454C153.409 63.2193 153.576 63.6422 153.54 63.6623Z" fill="#835343"/>
<path d="M144.877 69.5121C144.837 69.5272 144.513 68.8476 144.088 67.7099C143.664 66.5721 143.148 64.9713 142.713 63.169C142.278 61.3668 142.015 59.7055 141.878 58.4973C141.742 57.2891 141.716 56.539 141.762 56.534C141.813 56.5289 141.924 57.2689 142.121 58.4621C142.318 59.6552 142.622 61.2963 143.052 63.0885C143.481 64.8806 143.957 66.4815 144.321 67.6293C144.685 68.7821 144.928 69.492 144.877 69.5121Z" fill="#835343"/>
<path d="M91.3 145.065C92.4177 143.218 95.1487 142.583 96.9744 143.746C101.865 139.789 106.861 135.908 111.747 131.951C110.154 139.885 109.102 151.001 112.657 158.27C112.657 158.27 117.163 166.612 124.34 165.338L117.942 171.605L107.822 180.919" fill="#FFAE00"/>
<path d="M89.7119 148.791C89.6259 148.791 89.7169 147.315 90.6525 145.8C91.5729 144.275 92.8525 143.515 92.8879 143.59C92.9536 143.671 91.8258 144.522 90.9509 145.981C90.0557 147.426 89.8181 148.816 89.7119 148.796V148.791Z" fill="#643F92"/>
<path d="M94.9868 153.664C94.9565 153.679 94.6631 153.15 94.4305 152.214C94.1928 151.282 94.0714 149.923 94.3294 148.468C94.5923 147.008 95.1739 145.78 95.7201 144.985C96.2613 144.184 96.7164 143.792 96.7417 143.817C96.7872 143.857 96.4029 144.305 95.9275 145.116C95.4521 145.921 94.9261 147.124 94.6733 148.529C94.4255 149.938 94.5064 151.242 94.6733 152.163C94.8402 153.09 95.0475 153.643 94.9919 153.664H94.9868Z" fill="#643F92"/>
<path d="M119.459 170.719C119.459 170.719 118.943 171.077 117.866 171.359C116.799 171.646 115.13 171.777 113.203 171.218C111.276 170.679 109.203 169.3 107.595 167.216C105.961 165.142 104.854 162.398 104.252 159.453C103.104 153.533 103.154 148.045 103.453 144.134C103.61 142.171 103.827 140.595 104.009 139.513C104.095 138.969 104.181 138.551 104.237 138.269C104.297 137.987 104.333 137.836 104.343 137.841C104.353 137.841 104.343 137.997 104.307 138.284C104.267 138.606 104.211 139.019 104.146 139.538C104.009 140.625 103.822 142.201 103.701 144.159C103.463 148.061 103.458 153.528 104.596 159.393C105.198 162.307 106.275 164.996 107.853 167.029C109.41 169.078 111.413 170.438 113.279 170.991C115.15 171.565 116.784 171.475 117.841 171.233C118.913 170.996 119.449 170.689 119.464 170.725L119.459 170.719Z" fill="#FAFAFA"/>
<path d="M42.0416 220.754C41.9455 220.754 41.8696 211.33 41.8696 199.711C41.8696 188.092 41.9455 178.668 42.0416 178.668C42.1377 178.668 42.2135 188.087 42.2135 199.711C42.2135 211.335 42.1377 220.754 42.0416 220.754Z" fill="#643F92"/>
<path d="M41.5055 171.394C41.4346 171.394 41.4549 170.453 41.1262 168.988C40.9694 168.253 40.6912 167.402 40.2968 166.496C39.8821 165.6 39.3409 164.648 38.6531 163.737C37.9502 162.836 37.1713 162.066 36.4127 161.431C35.639 160.812 34.8854 160.319 34.2178 159.977C32.8827 159.277 31.9623 159.045 31.9825 158.98C31.9876 158.955 32.2202 159.005 32.6349 159.116C32.8422 159.166 33.0951 159.236 33.3783 159.357C33.6615 159.468 33.9953 159.579 34.3291 159.76C35.027 160.082 35.8109 160.566 36.615 161.185C37.404 161.824 38.2131 162.604 38.9313 163.531C39.6393 164.467 40.1855 165.444 40.5951 166.375C40.9845 167.311 41.2475 168.187 41.374 168.942C41.4599 169.315 41.4802 169.662 41.5156 169.964C41.556 170.266 41.5611 170.528 41.551 170.74C41.551 171.168 41.5358 171.399 41.5105 171.399L41.5055 171.394Z" fill="#643F92"/>
<path d="M87.1176 143.867C87.1176 143.867 87.1682 144.058 87.2289 144.426C87.3047 144.793 87.3603 145.342 87.4008 146.052C87.4767 147.467 87.3452 149.556 86.5714 151.987C85.7723 154.394 84.2754 157.152 81.7467 159.423C79.2484 161.713 75.6526 163.279 71.7484 163.581C67.8391 163.863 64.0511 162.846 61.2342 160.953C58.392 159.085 56.4955 156.573 55.3475 154.313C54.2146 152.022 53.7746 149.979 53.6381 148.569C53.5774 147.859 53.547 147.31 53.5673 146.938C53.5673 146.565 53.5824 146.369 53.5926 146.369C53.6027 146.369 53.6178 146.565 53.6381 146.938C53.6381 147.31 53.6937 147.854 53.7746 148.554C53.9516 149.948 54.427 151.957 55.57 154.202C56.7332 156.417 58.6145 158.869 61.4112 160.686C64.1776 162.529 67.8896 163.51 71.7231 163.239C75.5515 162.942 79.0764 161.416 81.5343 159.186C84.0276 156.976 85.5245 154.273 86.3388 151.907C87.1328 149.52 87.2997 147.456 87.2693 146.057C87.2491 145.352 87.2137 144.808 87.1631 144.436C87.1227 144.068 87.1125 143.872 87.1227 143.867H87.1176Z" fill="#643F92"/>
<path d="M41.4649 201.373C41.4346 201.463 35.9373 199.737 29.1807 197.516C22.4241 195.296 16.9774 193.419 17.0077 193.328C17.038 193.237 22.5354 194.964 29.2919 197.184C36.0435 199.404 41.4953 201.277 41.4649 201.368V201.373Z" fill="#FAFAFA"/>
<path d="M107.175 192.175C107.175 192.271 92.4883 192.407 74.378 192.487C56.2576 192.563 41.5762 192.548 41.5762 192.452C41.5762 192.356 56.2576 192.22 74.378 192.14C92.4883 192.064 107.175 192.079 107.175 192.175Z" fill="#FAFAFA"/>
<path d="M107.504 197.944C107.504 198.04 92.7413 198.116 74.54 198.116C56.3387 198.116 41.5713 198.04 41.5713 197.944C41.5713 197.849 56.3286 197.773 74.54 197.773C92.7514 197.773 107.504 197.849 107.504 197.944Z" fill="#FAFAFA"/>
<path d="M98.4612 204.957C98.4612 204.957 98.4055 205.143 98.274 205.491C98.1274 205.863 97.9251 206.366 97.6773 207.001C97.5458 207.333 97.3991 207.695 97.2373 208.093C97.0653 208.486 96.858 208.904 96.6456 209.362C96.2056 210.263 95.7504 211.315 95.1183 212.413C94.8148 212.966 94.4962 213.55 94.1624 214.154C93.8286 214.758 93.4291 215.353 93.0397 215.992C92.2811 217.276 91.3455 218.559 90.3897 219.929C88.392 222.612 86.0201 225.436 83.2639 228.149C80.4824 230.838 77.6047 233.148 74.8687 235.081C73.4729 236.008 72.1631 236.914 70.8583 237.644C70.2109 238.016 69.604 238.404 68.9921 238.726C68.3802 239.043 67.7885 239.35 67.2271 239.642C66.1145 240.252 65.0474 240.685 64.1371 241.102C63.6769 241.304 63.252 241.505 62.8525 241.666C62.453 241.817 62.0838 241.958 61.75 242.084C61.1077 242.321 60.5969 242.507 60.2176 242.648C59.8687 242.774 59.6816 242.834 59.6765 242.824C59.6765 242.814 59.8485 242.728 60.1924 242.582C60.5666 242.426 61.0673 242.22 61.6944 241.958C62.0231 241.822 62.3872 241.676 62.7817 241.515C63.1762 241.344 63.5959 241.138 64.0511 240.926C64.9564 240.493 66.0083 240.045 67.1108 239.426C67.6671 239.129 68.2537 238.817 68.8606 238.495C69.4675 238.167 70.0693 237.78 70.7065 237.402C71.9962 236.667 73.2959 235.756 74.6816 234.825C77.3923 232.887 80.2548 230.581 83.0211 227.908C85.7622 225.209 88.129 222.405 90.1317 219.747C91.0926 218.388 92.0333 217.114 92.797 215.846C93.1864 215.217 93.5909 214.628 93.9298 214.029C94.2686 213.429 94.5923 212.856 94.9008 212.307C95.5431 211.224 96.0134 210.182 96.4686 209.291C96.686 208.843 96.9035 208.43 97.0856 208.038C97.2525 207.645 97.4092 207.288 97.5508 206.961C97.8239 206.336 98.0465 205.843 98.2083 205.475C98.36 205.138 98.446 204.962 98.4612 204.967V204.957Z" fill="#643F92"/>
<path d="M49.1926 92.765C46.3807 94.9599 46.1936 99.0628 46.3352 102.617C46.4768 106.171 46.5173 110.214 43.9279 112.665C41.7937 114.689 38.0665 115.439 37.4545 118.303C37.1663 119.643 37.8085 121.128 38.9818 121.837C40.1551 122.552 41.7735 122.447 42.8406 121.586C41.9353 123.831 42.345 126.711 44.2667 128.186C46.1885 129.661 49.5567 128.971 50.29 126.665C49.8399 128.191 50.8918 129.988 52.4495 130.345C54.0072 130.703 55.7469 129.555 56.02 127.989" fill="#643F92"/>
<path d="M89.975 118.495C90.5616 120.292 92.7717 121.364 94.5569 120.725C96.3421 120.08 97.3486 117.845 96.6405 116.093C96.0893 114.719 94.6732 113.677 94.6024 112.197C94.5215 110.405 96.4079 109.222 98.0667 108.522C99.7255 107.822 101.673 106.901 101.936 105.129C102.188 103.417 100.707 102.003 99.4676 100.789C98.2285 99.5762 97.0401 97.7337 97.9099 96.2385C98.355 95.4733 99.2299 95.0605 99.8115 94.391C101.101 92.9109 100.585 90.4291 99.0933 89.1454C97.6014 87.8617 95.4622 87.5898 93.51 87.8466C91.5579 88.0983 89.6968 88.8131 87.7851 89.2813C81.4787 90.8218 74.5349 89.5783 69.1641 85.9386" fill="#643F92"/>
<path d="M51.0993 106.433L57.957 145.966C59.1607 152.919 65.8212 157.565 72.8003 156.327C79.3192 155.169 83.8708 149.239 83.2841 142.669C82.9706 139.165 82.7025 136.26 82.7025 136.26C82.7025 136.26 92.6503 133.718 91.7906 123.65C91.3759 118.787 89.7019 108.834 88.0785 99.8531C86.3388 90.2076 77.4379 83.5121 67.6368 84.4636L66.6607 84.5593C56.2123 86.1903 49.1775 96.0825 51.1044 106.433H51.0993Z" fill="#BF8C79"/>
<path d="M85.9492 106.377C86.0503 107.133 85.489 107.842 84.7 107.963C83.9111 108.084 83.1879 107.571 83.0867 106.815C82.9856 106.06 83.547 105.35 84.3359 105.23C85.1248 105.109 85.848 105.627 85.9492 106.382V106.377Z" fill="#643F92"/>
<path d="M86.3892 104.998C86.2274 105.204 85.0592 104.505 83.5066 104.661C81.954 104.792 80.8919 105.698 80.7048 105.527C80.6138 105.451 80.7604 105.094 81.2257 104.686C81.6809 104.278 82.4799 103.85 83.4459 103.76C84.4118 103.669 85.2615 103.946 85.7621 104.263C86.2729 104.58 86.4702 104.902 86.3892 104.998Z" fill="#643F92"/>
<path d="M70.7673 108.139C70.8684 108.895 70.3071 109.604 69.5181 109.725C68.7292 109.846 68.006 109.332 67.9048 108.577C67.8037 107.822 68.3651 107.112 69.154 106.992C69.943 106.871 70.6661 107.389 70.7673 108.144V108.139Z" fill="#643F92"/>
<path d="M71.1617 106.765C70.9999 106.972 69.8266 106.272 68.279 106.428C66.7264 106.559 65.6644 107.465 65.4773 107.294C65.3862 107.218 65.5329 106.861 65.9982 106.453C66.4533 106.045 67.2473 105.617 68.2183 105.527C69.1843 105.436 70.0339 105.713 70.5346 106.03C71.0454 106.347 71.2426 106.669 71.1617 106.765Z" fill="#643F92"/>
<path d="M77.9131 117.679C77.8979 117.594 78.8436 117.332 80.3912 116.979C80.7857 116.899 81.1498 116.788 81.1902 116.511C81.256 116.219 81.0486 115.807 80.8109 115.369C80.3457 114.452 79.8551 113.486 79.3443 112.479C77.2961 108.361 75.7738 104.958 75.9407 104.877C76.1076 104.797 77.903 108.069 79.9512 112.187C80.4468 113.204 80.9171 114.17 81.3723 115.102C81.5645 115.535 81.873 116.018 81.7314 116.632C81.6555 116.939 81.3824 117.181 81.1346 117.271C80.8868 117.372 80.6643 117.397 80.4721 117.428C78.9094 117.664 77.9333 117.765 77.9182 117.679H77.9131Z" fill="#643F92"/>
<path d="M70.9695 100.674C70.8582 101.107 69.2905 101.061 67.4901 101.454C65.6846 101.811 64.2635 102.486 63.9853 102.134C63.8589 101.962 64.0764 101.545 64.6327 101.081C65.1789 100.618 66.0841 100.14 67.1613 99.9136C68.2436 99.687 69.2601 99.7625 69.9479 99.9689C70.6408 100.17 71.01 100.467 70.9644 100.674H70.9695Z" fill="#643F92"/>
<path d="M85.3777 100.583C85.14 100.961 84.0325 100.699 82.7479 100.81C81.4583 100.87 80.3962 101.278 80.108 100.93C79.9815 100.764 80.1181 100.397 80.5631 100.014C80.9981 99.6366 81.7567 99.2893 82.6417 99.2339C83.5267 99.1785 84.3258 99.4201 84.8062 99.7373C85.2968 100.054 85.4789 100.402 85.3777 100.583Z" fill="#643F92"/>
<path d="M60.9864 94.3458C60.9864 94.3458 60.951 94.381 60.9358 94.3961C59.454 95.8158 58.569 97.7489 58.483 99.7978C58.483 99.8683 58.4779 99.9388 58.4729 100.004C58.3565 102.909 58.7156 105.819 58.574 108.723C58.4324 111.628 57.7193 114.639 55.7874 116.818C54.9934 117.715 53.5015 118.424 52.6873 117.543C52.3737 117.201 52.2776 116.718 52.1967 116.265C50.9779 109.393 48.4796 103.433 47.7817 96.1933C47.5946 94.2199 48.343 92.2818 49.84 90.9779C51.2561 89.7445 53.0059 88.4357 54.776 89.07C56.5511 89.7043 59.0494 92.6442 60.4907 93.8524" fill="#643F92"/>
<path d="M54.9529 110.652C54.7759 110.596 47.812 109.282 48.7071 116.134C49.6022 122.985 56.3285 120.68 56.3133 120.483C56.2981 120.287 54.9529 110.652 54.9529 110.652Z" fill="#BF8C79"/>
<path d="M53.8706 118.158C53.8352 118.137 53.7593 118.258 53.5722 118.374C53.3851 118.49 53.0564 118.595 52.6771 118.51C51.9134 118.339 51.1548 117.266 50.9576 116.038C50.8564 115.419 50.9121 114.805 51.0688 114.286C51.2155 113.758 51.4936 113.365 51.8527 113.254C52.2067 113.123 52.495 113.31 52.6012 113.491C52.7175 113.672 52.6922 113.813 52.7327 113.818C52.7529 113.833 52.8642 113.682 52.7731 113.41C52.7276 113.279 52.6265 113.128 52.4444 113.018C52.2624 112.907 52.0095 112.867 51.7566 112.927C51.2307 113.033 50.816 113.581 50.644 114.15C50.4417 114.729 50.3659 115.414 50.4771 116.114C50.6996 117.488 51.5796 118.691 52.6113 118.847C53.112 118.913 53.4963 118.711 53.6835 118.525C53.8756 118.329 53.8908 118.173 53.8655 118.163L53.8706 118.158Z" fill="#835343"/>
<path d="M54.6494 90.1522C52.6821 87.5697 56.9505 83.1648 60.2529 81.7653C63.5554 80.3658 68.2081 81.5841 71.7078 82.3744C73.9178 82.8728 76.1481 83.6531 78.3885 83.341C79.8905 83.1346 81.2813 82.4449 82.6569 81.8056C84.0325 81.1662 85.4688 80.552 86.991 80.5067C88.5082 80.4614 90.1417 81.1108 90.8498 82.4499C91.5578 83.789 90.9256 85.7775 89.4489 86.1299C91.2594 84.9016 94.1573 86.0041 94.6782 88.1235C95.1991 90.2429 93.1407 92.5535 90.9661 92.2968C91.8764 91.4611 93.4998 92.5384 93.4998 93.7718C93.4998 95.0052 92.4732 96.002 91.396 96.601C88.6397 98.1415 85.2412 98.0609 82.1663 97.3562C79.0864 96.6463 76.1734 95.3576 73.1137 94.5723C70.054 93.7869 64.9158 92.3421 62.0533 93.6711C59.9444 94.6478 58.6801 97.4166 57.3905 96.9585C56.1464 96.5155 55.2664 95.3475 54.9023 94.0789C54.5381 92.8103 54.5938 91.4712 54.6545 90.1522" fill="#643F92"/>
<path d="M55.0339 111.824C55.2312 115.454 55.4335 119.114 56.2882 122.648C57.1378 126.187 58.6853 129.635 61.2494 132.228C64.6075 135.626 68.9466 138.883 73.6752 139.658C78.8337 140.504 85.1503 139.437 89.3479 136.331C91.3405 134.861 92.7919 131.684 92.1749 129.293C93.8692 128.523 95.0728 126.766 95.1739 124.913C95.2751 123.061 94.1423 120.74 92.6655 120.493C93.7731 120.312 94.0866 118.565 93.6719 117.573C93.237 116.541 91.7906 116.29 90.6881 116.501C89.5856 116.713 88.6197 117.362 87.7144 118.027C86.8091 118.691 85.8988 119.391 84.8267 119.738C81.2562 120.891 77.6402 117.76 73.8927 117.906C70.5043 118.037 67.4851 120.841 64.127 120.367C62.2507 120.106 60.6324 118.812 59.5956 117.231C58.5589 115.65 59.009 109.796 58.6044 107.953" fill="#643F92"/>
<g opacity="0.6">
<path d="M82.2372 127.602C82.2119 127.647 81.9135 127.491 81.4129 127.355C80.9122 127.214 80.1839 127.113 79.4102 127.254C78.6313 127.395 77.9891 127.743 77.5693 128.05C77.1445 128.357 76.922 128.603 76.8815 128.568C76.8512 128.548 77.013 128.241 77.4226 127.868C77.8272 127.501 78.51 127.088 79.3495 126.932C80.194 126.781 80.9779 126.932 81.4837 127.133C81.9995 127.34 82.2574 127.566 82.2372 127.597V127.602Z" fill="#FFAE00"/>
</g>
<path d="M74.9495 119.985C75.2023 119.945 75.3692 121.621 76.9269 122.673C78.4845 123.725 80.2597 123.363 80.2951 123.599C80.3305 123.7 79.9259 123.962 79.1723 124.058C78.4289 124.153 77.3214 124.022 76.3706 123.378C75.4198 122.734 74.9444 121.797 74.823 121.113C74.6916 120.418 74.8382 119.985 74.9545 119.985H74.9495Z" fill="white"/>
<path d="M69.9428 138.541C69.9428 138.541 70.0995 138.586 70.3777 138.702C70.6609 138.808 71.0807 138.954 71.637 139.11C72.7395 139.417 74.378 139.749 76.4313 139.86C77.4529 139.92 78.5807 139.915 79.7793 139.794C80.9778 139.694 82.2472 139.452 83.5368 139.064C84.8366 138.692 86.1363 138.103 87.3754 137.323C88.6144 136.547 89.7978 135.566 90.698 134.312C91.7601 132.832 92.3012 130.979 92.0129 129.343L91.9876 129.202L92.109 129.152C92.9587 128.79 93.6566 128.145 94.1876 127.445C94.4556 127.093 94.6832 126.721 94.8552 126.333C95.0271 125.95 95.1131 125.538 95.1535 125.135C95.3103 123.499 94.577 121.978 93.5504 121.123L93.4543 121.042L93.5301 120.946C94.2078 120.111 94.2533 119.003 93.9398 118.218C93.6313 117.412 92.9688 116.939 92.4074 116.723C91.8359 116.496 91.3403 116.496 91.0217 116.531C90.698 116.567 90.5311 116.627 90.5261 116.612C90.5261 116.612 90.6829 116.521 91.0116 116.461C91.3353 116.406 91.8511 116.38 92.458 116.592C93.0497 116.798 93.7729 117.276 94.1269 118.142C94.4759 118.978 94.4607 120.166 93.7274 121.102L93.7122 120.926C94.8147 121.822 95.6036 123.413 95.457 125.16C95.4165 125.593 95.3255 126.031 95.1434 126.454C94.9614 126.872 94.7186 127.259 94.4455 127.637C93.8892 128.372 93.166 129.056 92.2355 129.459L92.3366 129.263C92.6552 131.055 92.0787 132.953 90.9762 134.508C90.0456 135.812 88.8218 136.819 87.5524 137.604C86.283 138.4 84.9478 138.994 83.6279 139.366C82.3079 139.754 81.0183 139.991 79.7995 140.076C78.5857 140.187 77.4428 140.177 76.4111 140.101C74.3426 139.96 72.699 139.588 71.5965 139.236C71.0453 139.064 70.6255 138.893 70.3524 138.767C70.0793 138.631 69.9377 138.556 69.9428 138.546V138.541Z" fill="#FFAE00"/>
<path d="M39.7556 121.047C39.7556 121.047 39.6191 121.022 39.4067 120.876C39.1943 120.735 38.906 120.458 38.7088 120C38.5216 119.547 38.4154 118.923 38.5722 118.233C38.7189 117.538 39.2094 116.843 39.8972 116.295C40.585 115.741 41.4701 115.333 42.4259 114.986C43.3767 114.633 44.4185 114.321 45.3693 113.742C46.32 113.169 47.0938 112.247 47.5894 111.145C48.0952 110.042 48.3379 108.789 48.3733 107.5C48.4289 104.907 47.8271 102.451 47.7614 100.16C47.6552 97.8847 48.0952 95.7402 49.142 94.3104C50.1737 92.8707 51.5443 92.2112 52.5001 92.04C52.9805 91.9393 53.3649 91.9696 53.6178 91.9847C53.8706 92.0249 54.0021 92.0501 54.0021 92.0602C54.0021 92.1055 53.461 91.9544 52.5304 92.1709C51.6151 92.3723 50.3103 93.0519 49.3443 94.4514C48.3683 95.8408 47.9637 97.9099 48.08 100.15C48.1609 102.4 48.7728 104.852 48.7223 107.51C48.6869 108.834 48.434 110.138 47.903 111.286C47.3871 112.434 46.5527 113.415 45.5412 114.014C44.5348 114.613 43.4728 114.915 42.527 115.258C41.5763 115.59 40.7216 115.973 40.054 116.486C39.3915 117 38.9212 117.634 38.7644 118.278C38.6026 118.923 38.6784 119.517 38.8402 119.95C39.1943 120.841 39.8062 121.012 39.7657 121.047H39.7556Z" fill="white"/>
<path d="M89.6765 85.9941C89.6765 85.9941 89.7776 85.9387 89.9799 85.8531C90.0811 85.8078 90.2075 85.7574 90.3693 85.7222C90.5261 85.6719 90.7132 85.6316 90.9256 85.6115C91.7601 85.4856 93.1458 85.687 94.3191 86.8247V86.8297C95.103 87.8064 95.5733 89.3116 95.3508 90.9376C95.1637 92.5637 94.1826 94.2602 92.6199 95.4281C91.0723 96.6212 89.0039 97.3059 86.8292 97.4317C84.6495 97.5626 82.3737 97.2354 80.103 96.6967C76.401 95.8057 73.0733 94.2199 70.3474 92.3975C68.9718 91.5115 67.667 90.6658 66.347 90.0818C65.0321 89.4827 63.7071 89.1807 62.4832 89.1001C60.0203 88.9391 58.0581 89.5734 56.819 90.1473C55.5699 90.7363 54.9782 91.2346 54.9529 91.1994C54.9529 91.1994 55.5142 90.6557 56.7583 90.0264C57.9923 89.4072 59.9799 88.7226 62.4984 88.8535C63.7476 88.9189 65.1181 89.2159 66.4634 89.815C67.8137 90.404 69.1387 91.2497 70.5193 92.1257C73.2402 93.9229 76.5224 95.4785 80.1839 96.3594C82.4293 96.8931 84.6748 97.2203 86.8039 97.0944C88.928 96.9837 90.9256 96.3242 92.4277 95.1865C93.9449 94.0689 94.8906 92.463 95.0878 90.9074C95.3205 89.3468 94.8906 87.907 94.1573 86.9556C93.07 85.8632 91.7348 85.6266 90.9256 85.7222C90.0912 85.8128 89.6765 86.0394 89.6664 86.0041L89.6765 85.9941Z" fill="white"/>
<path d="M86.1466 80.1543C86.1466 80.1543 86.1921 80.7232 85.8331 81.6696C85.4689 82.6009 84.5738 83.8645 82.9858 84.7606C82.2019 85.2137 81.2663 85.5812 80.2093 85.7523C79.1574 85.9285 78.0094 85.9185 76.826 85.7675C74.449 85.4755 71.9912 84.5441 69.4069 83.7387C66.8327 82.9382 64.2231 82.46 61.9321 82.9533C59.6462 83.4215 57.8509 84.7052 56.6776 85.999C55.4891 87.3029 54.862 88.6218 54.5484 89.5532C54.2399 90.4946 54.1843 91.0433 54.1439 91.0382C54.1337 91.0382 54.1439 90.9023 54.1793 90.6405C54.2045 90.3788 54.2905 90.0012 54.422 89.5129C54.7002 88.5564 55.302 87.1921 56.4955 85.8379C57.6688 84.4938 59.4996 83.1446 61.8664 82.6412C64.2383 82.1126 66.9136 82.6009 69.508 83.4064C72.1125 84.2169 74.5451 85.1432 76.8715 85.4503C78.0246 85.6114 79.1473 85.6265 80.1689 85.4704C81.1904 85.3194 82.1058 84.9771 82.8695 84.5492C84.4221 83.7034 85.3172 82.5053 85.7117 81.6142C86.1011 80.7081 86.1062 80.1392 86.1517 80.1493L86.1466 80.1543Z" fill="white"/>
<path d="M155.493 32.0325V17.6046" stroke="#643F92" stroke-miterlimit="10"/>
<path d="M147.522 32.3195L143.163 18.0677" stroke="#643F92" stroke-miterlimit="10"/>
<path d="M138.121 34.016L130.509 25.6744" stroke="#643F92" stroke-miterlimit="10"/>
<path d="M135.557 41.9549L122.731 40.2433" stroke="#643F92" stroke-miterlimit="10"/>
<path d="M164.879 32.3195L169.233 18.0677" stroke="#643F92" stroke-miterlimit="10"/>
<path d="M174.275 34.016L181.892 25.6744" stroke="#643F92" stroke-miterlimit="10"/>
<path d="M176.84 41.9549L189.67 40.2433" stroke="#643F92" stroke-miterlimit="10"/>
</g>
<defs>
<clipPath id="clip0_159_503">
<rect width="307" height="247" fill="white"/>
</clipPath>
</defs>
</svg>
