<?xml version="1.0" encoding="UTF-8"?><svg id="Calque_1" xmlns="http://www.w3.org/2000/svg" viewBox="0 0 484.17 516.53"><polygon points="407.63 441.01 412.86 451.6 424.55 453.3 416.09 461.55 418.09 473.19 407.63 467.7 397.17 473.19 399.17 461.55 390.71 453.3 402.4 451.6 407.63 441.01" fill="#ff8acd"/><polygon points="432.58 431.62 435.04 436.61 440.55 437.41 436.56 441.3 437.5 446.78 432.58 444.19 427.65 446.78 428.59 441.3 424.6 437.41 430.11 436.61 432.58 431.62" fill="#ff8acd"/><path d="M397.99,416.39l-253.42,79.79c-6.15,1.94-12.71-1.48-14.64-7.63L13.73,119.52c-1.94-6.15,1.48-12.71,7.63-14.64L274.78,25.08c6.15-1.94,12.71,1.48,14.64,7.63l116.19,369.03c1.94,6.15-1.48,12.71-7.63,14.64Z" fill="#e6daea"/><path d="M397.99,416.39s.28-.11.84-.33c.55-.22,1.35-.61,2.33-1.26.95-.68,2.05-1.67,3.02-3.12.95-1.45,1.75-3.37,1.89-5.66.1-1.14-.03-2.36-.34-3.59-.32-1.24-.78-2.51-1.19-3.87-.85-2.7-1.79-5.66-2.8-8.86-2.02-6.4-4.36-13.79-6.99-22.1-10.5-33.27-25.68-81.4-44.45-140.87-9.37-29.74-19.64-62.32-30.67-97.29-5.51-17.49-11.21-35.57-17.08-54.2-2.93-9.31-5.91-18.76-8.93-28.34-1.51-4.79-3.04-9.6-4.57-14.45-.8-2.36-2.44-4.41-4.53-5.8-2.11-1.35-4.66-2.04-7.17-1.81-1.26.1-2.47.46-3.7.86-1.23.39-2.47.78-3.7,1.17-2.47.78-4.95,1.56-7.44,2.34-4.98,1.57-9.98,3.14-15.01,4.73-10.07,3.17-20.25,6.38-30.54,9.62-20.58,6.48-41.6,13.1-63,19.84-42.79,13.48-87.1,27.43-132.48,41.72-2.78.86-5.18,2.83-6.57,5.37-1.41,2.53-1.8,5.6-1.05,8.39,1.71,5.63,3.53,11.26,5.28,16.86,3.53,11.21,7.03,22.34,10.51,33.39,6.96,22.1,13.81,43.89,20.55,65.29,13.47,42.8,26.47,84.09,38.84,123.42,12.37,39.33,24.13,76.71,35.14,111.69,1.38,4.37,2.74,8.71,4.09,13,.69,2.14,1.33,4.3,2.04,6.4.73,2.07,2.09,3.88,3.81,5.2,1.72,1.32,3.82,2.12,5.96,2.31,1.07.09,2.15.02,3.2-.18,1.04-.23,2.07-.58,3.11-.9,4.14-1.3,8.24-2.59,12.3-3.87,16.24-5.11,31.82-10.01,46.69-14.68,59.49-18.69,107.64-33.82,140.91-44.27,16.64-5.21,29.56-9.26,38.32-12.01,4.38-1.37,7.72-2.41,9.97-3.11,2.25-.7,3.4-1.04,3.4-1.04,0,0-1.14.38-3.39,1.1-2.25.71-5.58,1.77-9.95,3.16-8.76,2.77-21.67,6.85-38.29,12.11-33.26,10.49-81.39,25.68-140.86,44.44-14.87,4.69-30.45,9.6-46.68,14.72-4.06,1.28-8.16,2.57-12.3,3.88-1.03.32-2.06.67-3.16.92-1.09.2-2.21.27-3.33.18-2.22-.2-4.4-1.03-6.19-2.4-1.79-1.37-3.2-3.25-3.96-5.4-.73-2.13-1.36-4.27-2.05-6.42-1.35-4.3-2.72-8.63-4.1-13-11.02-34.97-22.8-72.35-35.19-111.67-12.39-39.33-25.39-80.61-38.88-123.41-6.74-21.4-13.6-43.18-20.56-65.28-3.48-11.05-6.99-22.19-10.52-33.39-1.75-5.61-3.56-11.2-5.29-16.89-.79-2.93-.38-6.15,1.1-8.8,1.46-2.67,3.98-4.73,6.89-5.63,45.38-14.29,89.69-28.23,132.48-41.71,21.4-6.73,42.42-13.35,63-19.83,10.29-3.24,20.48-6.44,30.55-9.61,5.03-1.58,10.04-3.16,15.02-4.73,2.49-.78,4.97-1.56,7.44-2.34,1.24-.39,2.47-.78,3.7-1.17,1.21-.4,2.5-.78,3.82-.88,2.63-.24,5.3.49,7.5,1.9,2.18,1.45,3.9,3.59,4.73,6.06,1.53,4.85,3.06,9.68,4.57,14.47,3.01,9.58,5.99,19.03,8.92,28.35,5.86,18.63,11.55,36.72,17.05,54.21,11,34.98,21.25,67.56,30.6,97.31,18.69,59.49,33.82,107.64,44.28,140.92,2.61,8.32,4.93,15.71,6.94,22.12,1,3.2,1.93,6.16,2.78,8.86.41,1.36.86,2.63,1.18,3.88.31,1.25.43,2.48.33,3.63-.16,2.31-.97,4.25-1.93,5.7-.98,1.45-2.1,2.45-3.06,3.12-.99.65-1.79,1.03-2.35,1.24-.56.2-.85.3-.85.3Z" fill="#643f92"/><g opacity=".3"><polygon points="156.53 481.73 387.31 407.68 375.89 362.18 360.33 337.47 142.74 445.29 156.53 481.73" fill="#643f92"/></g><g opacity=".3"><polygon points="217.89 43.87 228.06 57.81 230.46 65.45 224.53 67.32 217.89 43.87" fill="#643f92"/></g><polygon points="27.33 120.55 140.51 480 391.61 400.94 371.37 336.66 278.43 41.48 27.33 120.55" fill="#fff"/><path d="M27.33,120.55c1.79-.57,98.43-31.09,251.03-79.28l.22-.07.07.22c31.47,99.89,70.74,224.55,113.22,359.41v.03s.09.27.09.27l-.27.09c-89.77,28.26-175.01,55.09-251.11,79.04l-.25.08-.08-.25C73.58,267.8,28.02,122.74,27.33,120.55c.69,2.19,46.45,147.19,113.42,359.38l-.32-.17c76.09-23.97,161.33-50.81,251.09-79.09l-.19.35v-.03c-42.45-134.87-81.69-259.54-113.13-359.44l.29.15C125.82,89.63,29.12,119.98,27.33,120.55Z" fill="#643f92"/><path d="M96.57,52.44h120.55c3.49,0,6.33,2.83,6.33,6.33v32.31H90.25v-32.31c0-3.49,2.83-6.33,6.33-6.33Z" transform="translate(-14.31 50.42) rotate(-17.48)" fill="#ffae00"/><polygon points="162.85 34.38 130.51 44.56 143.02 71.09 167.38 63.42 162.85 34.38" fill="#ffae00"/><path d="M206.41,35.9c.05.15-24.71,8.07-55.28,17.7-30.58,9.63-55.4,17.31-55.45,17.17-.05-.15,24.7-8.07,55.28-17.7,30.57-9.63,55.4-17.31,55.44-17.16Z" fill="#3e5963"/><path d="M100.09,103.34c-.15.05-1.91-5.13-3.93-11.56-2.02-6.43-3.55-11.68-3.4-11.73.15-.05,1.91,5.13,3.93,11.56,2.02,6.43,3.55,11.68,3.4,11.73Z" fill="#3e5963"/><path d="M219.32,62.77c-.15.05-1.76-4.65-3.59-10.49-1.84-5.84-3.21-10.61-3.06-10.65.15-.05,1.76,4.65,3.59,10.49,1.84,5.84,3.21,10.61,3.06,10.65Z" fill="#3e5963"/><path d="M214.73,69.6c.05.15-25.36,8.28-56.74,18.16-31.39,9.88-56.87,17.77-56.92,17.63-.05-.15,25.36-8.28,56.75-18.16,31.38-9.88,56.86-17.77,56.91-17.63Z" fill="#3e5963"/><path d="M155.71,182.07c.05.15-17.09,5.68-38.26,12.34-21.18,6.67-38.39,11.95-38.44,11.8-.05-.15,17.08-5.68,38.27-12.35,21.18-6.67,38.39-11.95,38.43-11.8Z" fill="#643f92"/><path d="M284.75,156.2c.05.15-44.74,14.38-100.02,31.79-55.3,17.41-100.15,31.4-100.2,31.25-.05-.15,44.73-14.38,100.03-31.79,55.28-17.41,100.14-31.4,100.19-31.25Z" fill="#643f92"/><path d="M288.64,168.55c.05.15-44.74,14.38-100.02,31.79-55.3,17.41-100.15,31.4-100.2,31.25-.05-.15,44.73-14.38,100.03-31.79,55.28-17.41,100.14-31.4,100.19-31.25Z" fill="#643f92"/><path d="M292.53,180.9c.05.15-44.74,14.38-100.02,31.79-55.3,17.41-100.15,31.4-100.2,31.25-.05-.15,44.73-14.38,100.03-31.79,55.28-17.41,100.14-31.4,100.19-31.25Z" fill="#643f92"/><path d="M296.42,193.26c.05.15-44.74,14.38-100.02,31.79-55.3,17.41-100.15,31.4-100.2,31.25-.05-.15,44.73-14.38,100.03-31.79,55.28-17.41,100.14-31.4,100.19-31.25Z" fill="#643f92"/><path d="M300.31,205.61c.05.15-44.74,14.38-100.02,31.79-55.3,17.41-100.15,31.4-100.2,31.25-.05-.15,44.73-14.38,100.03-31.79,55.28-17.41,100.14-31.4,100.19-31.25Z" fill="#643f92"/><path d="M126.13,315.23s-.07-.15-.16-.42c-.1-.31-.24-.69-.4-1.17-.35-1.07-.84-2.55-1.46-4.41-1.23-3.82-2.97-9.18-5.04-15.6l.31.16c-6.31,2-13.74,4.35-21.66,6.86-.04.08.35-.67.18-.35h0s0,.02,0,.02v.02s.02.05.02.05l.03.09.06.19.12.37.23.74c.15.49.31.98.46,1.47.31.98.61,1.94.91,2.9.6,1.91,1.19,3.78,1.76,5.61,1.14,3.64,2.21,7.08,3.19,10.23l-.31-.16c6.45-1.98,11.84-3.63,15.68-4.81,1.88-.56,3.37-1.01,4.45-1.33.49-.14.88-.25,1.19-.35.27-.08.42-.11.43-.11.01,0-.11.05-.36.14-.29.1-.67.23-1.13.39-1.06.35-2.52.83-4.36,1.44-3.85,1.25-9.27,3-15.75,5.09l-.23.08-.07-.24c-1-3.15-2.09-6.58-3.25-10.22-.58-1.82-1.17-3.69-1.77-5.6-.3-.96-.61-1.92-.91-2.9-.15-.49-.31-.98-.46-1.47l-.23-.74-.12-.37-.06-.19-.03-.09v-.05s-.02-.02-.02-.02h0s0-.02,0-.02c-.17.32.22-.44.19-.36,7.93-2.48,15.37-4.81,21.69-6.79l.24-.07.07.23c2,6.51,3.66,11.95,4.85,15.83.56,1.85,1,3.33,1.32,4.4.14.47.24.85.33,1.15.07.26.1.39.09.38Z" fill="#643f92"/><rect x="150.08" y="263.3" width="158.51" height="13.22" transform="translate(-70.47 81.34) rotate(-17.48)" fill="#e1e1e1"/><path d="M137.97,352.83s-.07-.15-.16-.42c-.1-.31-.24-.69-.4-1.17-.35-1.07-.84-2.55-1.46-4.41-1.23-3.82-2.97-9.18-5.04-15.6l.31.16c-6.31,2-13.74,4.35-21.66,6.86-.04.08.35-.67.18-.35h0s0,.02,0,.02v.02s.02.05.02.05l.03.09.06.19.12.37.23.74c.15.49.31.98.46,1.47.31.98.61,1.94.91,2.9.6,1.91,1.19,3.78,1.76,5.61,1.14,3.64,2.21,7.08,3.19,10.23l-.31-.16c6.45-1.98,11.84-3.63,15.68-4.81,1.88-.56,3.37-1.01,4.45-1.33.49-.14.88-.26,1.19-.35.27-.08.42-.11.43-.11.01,0-.11.05-.36.14-.29.1-.67.23-1.13.39-1.06.35-2.52.83-4.36,1.44-3.85,1.25-9.27,3-15.75,5.09l-.23.08-.07-.24c-1-3.15-2.09-6.58-3.25-10.22-.58-1.82-1.17-3.69-1.77-5.6-.3-.96-.61-1.92-.91-2.9-.15-.49-.31-.98-.46-1.47l-.23-.74-.12-.37-.06-.19-.03-.09v-.05s-.02-.02-.02-.02h0s0-.02,0-.02c-.17.32.22-.44.19-.36,7.93-2.48,15.37-4.81,21.69-6.79l.24-.07.07.23c2,6.51,3.66,11.95,4.85,15.83.56,1.85,1,3.33,1.32,4.4.14.47.24.85.33,1.15.07.26.1.39.09.38Z" fill="#643f92"/><rect x="161.92" y="300.9" width="158.51" height="13.22" transform="translate(-81.22 86.63) rotate(-17.48)" fill="#e1e1e1"/><path d="M149.81,390.43s-.07-.15-.16-.42c-.1-.31-.24-.69-.4-1.17-.35-1.07-.84-2.55-1.46-4.41-1.23-3.82-2.97-9.18-5.04-15.6l.31.16c-6.31,2-13.74,4.35-21.66,6.86-.04.08.35-.67.18-.35h0s0,.02,0,.02v.02s.02.05.02.05l.03.09.06.19.12.37.23.74c.15.49.31.98.46,1.47.31.98.61,1.94.91,2.9.6,1.91,1.19,3.78,1.76,5.61,1.14,3.64,2.21,7.08,3.19,10.23l-.31-.16c6.45-1.98,11.84-3.63,15.68-4.81,1.88-.56,3.37-1.01,4.45-1.33.49-.14.88-.26,1.19-.35.27-.08.42-.11.43-.11.01,0-.11.05-.36.14-.29.1-.67.23-1.13.39-1.06.35-2.52.83-4.36,1.44-3.85,1.25-9.27,3-15.75,5.09l-.23.08-.07-.24c-1-3.15-2.09-6.58-3.25-10.22-.58-1.82-1.17-3.69-1.77-5.6-.3-.96-.61-1.92-.91-2.9-.15-.49-.31-.98-.46-1.47l-.23-.74-.12-.37-.06-.19-.03-.09v-.05s-.02-.02-.02-.02h0s0-.02,0-.02c-.17.32.22-.44.19-.36,7.93-2.48,15.37-4.81,21.69-6.79l.24-.07.07.23c2,6.51,3.66,11.95,4.85,15.83.56,1.85,1,3.33,1.32,4.4.14.47.24.85.33,1.15.07.26.1.39.09.38Z" fill="#643f92"/><rect x="173.76" y="338.5" width="158.51" height="13.22" transform="translate(-91.96 91.92) rotate(-17.48)" fill="#e1e1e1"/><polygon points="104.22 309.14 106.22 305.3 113.44 308.53 121.14 294.4 124.78 296.47 114.79 314.3 104.22 309.14" fill="#ffae00"/><polygon points="115.66 345.48 117.67 341.64 124.88 344.87 132.59 330.75 136.22 332.81 126.23 350.64 115.66 345.48" fill="#ffae00"/><polygon points="127.4 382.74 129.4 378.9 136.61 382.13 144.32 368.01 147.95 370.08 137.97 387.9 127.4 382.74" fill="#ffae00"/><path d="M219.31,417.52c.05.15-12.71,4.3-28.48,9.27-15.78,4.97-28.61,8.88-28.66,8.73-.05-.15,12.7-4.3,28.49-9.27,15.78-4.97,28.61-8.87,28.65-8.73Z" fill="#643f92"/><path d="M247.74,408.09c.05.15-4.64,1.76-10.46,3.59-5.83,1.83-10.59,3.2-10.63,3.05-.05-.15,4.64-1.76,10.46-3.59,5.83-1.83,10.59-3.2,10.63-3.05Z" fill="#643f92"/><path d="M341.26,369.57c.05.15-11.43,3.9-25.63,8.37-14.2,4.47-25.75,7.98-25.8,7.83-.05-.15,11.43-3.89,25.63-8.37,14.2-4.47,25.75-7.97,25.8-7.83Z" fill="#643f92"/><path d="M331.79,406.11s.08-.38.17-1.09c.1-.72.01-1.8-.43-3.1-.45-1.3-1.28-2.77-2.26-4.48-.95-1.7-2.16-3.71-2.4-6.27-.18-2.51.69-5.4,2.79-7.55,2.07-2.19,5.53-3.19,8.81-2.44,1.63.38,3.24,1.15,4.5,2.43.6.66,1.11,1.47,1.23,2.43.17.98-.5,2.03-1.38,2.41-.87.42-1.73.6-2.6.88-.87.26-1.75.52-2.63.78-1.77.51-3.58,1-5.43,1.41-3.7.82-7.45,1.21-11.02,1.01-1.74-.03-3.56.09-4.77,1.2-1.21,1.1-1.73,2.76-2.58,4.19-.42.72-.97,1.42-1.73,1.84-.75.43-1.67.5-2.46.32-1.6-.39-2.83-1.33-4.13-1.93-.64-.31-1.3-.54-1.96-.55-.65,0-1.28.21-1.77.61-.98.83-1.42,2.1-2.02,3.19-1.18,2.3-3.43,3.53-5.41,3.77-2.02.27-3.74-.45-4.86-1.27-1.14-.84-1.75-1.78-2.09-2.42-.33-.66-.4-1.04-.4-1.04.03-.01.14.36.5.99.36.62.99,1.52,2.12,2.3,1.11.77,2.77,1.42,4.69,1.13,1.88-.26,4.01-1.46,5.1-3.65.58-1.06,1-2.37,2.1-3.34.55-.47,1.3-.73,2.05-.73.76,0,1.48.27,2.15.58,1.34.61,2.59,1.53,4.03,1.87.71.16,1.47.09,2.11-.28.64-.35,1.14-.97,1.53-1.66.82-1.36,1.31-3.07,2.67-4.33.67-.62,1.56-.99,2.44-1.17.89-.18,1.8-.2,2.7-.19,3.56.19,7.21-.2,10.89-1.01,1.84-.4,3.63-.89,5.4-1.39.88-.26,1.76-.52,2.62-.78.85-.28,1.76-.48,2.5-.84.75-.35,1.2-1.07,1.09-1.86-.08-.78-.53-1.53-1.08-2.12-1.14-1.18-2.68-1.93-4.22-2.29-3.12-.73-6.39.21-8.36,2.26-2.01,2.03-2.87,4.78-2.73,7.19.2,2.43,1.35,4.43,2.27,6.14.95,1.71,1.77,3.23,2.19,4.56.42,1.34.47,2.46.33,3.18-.12.72-.28,1.08-.28,1.08Z" fill="#643f92"/><path d="M358.17,386.47s-.23.11-.69.27c-.51.17-1.17.39-2,.67-1.8.58-4.3,1.4-7.36,2.39-6.22,2.02-14.79,4.85-24.21,8.11-9.42,3.27-17.91,6.37-24.04,8.64-3.02,1.12-5.48,2.03-7.26,2.69-.82.29-1.47.53-1.98.71-.46.16-.7.23-.7.21,0-.02.22-.13.66-.32.5-.21,1.14-.48,1.94-.81,1.69-.7,4.15-1.67,7.2-2.86,6.1-2.37,14.56-5.52,23.99-8.8,9.43-3.27,18.03-6.04,24.28-7.96,3.13-.96,5.66-1.72,7.42-2.22.84-.23,1.51-.42,2.03-.57.47-.12.71-.18.72-.16Z" fill="#643f92"/><rect x="120.16" y="116.02" width="107.6" height="20.22" transform="translate(-29.85 58.07) rotate(-17.48)" fill="#e6daea"/><polygon points="289.51 432.19 318.56 585.68 345.11 536.63 395.44 566.16 342.02 416.7 289.51 432.19" fill="#ff8acd"/><g opacity=".3"><path d="M299.28,483.82c5.37,1.11,11.64-.79,15.45-4.74,2.65-2.74,4.41-6.46,7.75-8.29,3-1.65,6.69-1.41,9.99-.5s6.4,2.44,9.71,3.3c6.49,1.68,13.64.62,19.36-2.87l-8.38-23.27-38.91-4.86-18.55,22.29,3.59,18.96Z" fill="#643f92"/></g><path d="M343.22,530.53c-.16.04-4.49-15.9-9.66-35.6-5.18-19.71-9.24-35.72-9.08-35.76.16-.04,4.49,15.9,9.66,35.61,5.17,19.7,9.24,35.71,9.08,35.75Z" fill="#643f92"/><polygon points="293.76 440.18 264.71 593.67 238.15 544.61 187.83 574.15 241.25 424.68 293.76 440.18" fill="#ff8acd"/><g opacity=".3"><path d="M225.27,469.39s8.26,6.8,18.12,3.67c9.86-3.13,15.98-3.79,21.31,0,5.33,3.79,19.77,16.16,19.77,16.16l3.35-17.71-19.39-26.63-20.25,4.09-14.42,1.44-5.36,10.15-3.13,8.83Z" fill="#643f92"/></g><path d="M464.1,301.62c0,11.01-14.08,20.5-16.14,30.91-2.12,10.72,7.21,24.86,3.12,34.73-4.16,10.04-20.8,13.42-26.78,22.34-6.02,8.99-2.81,25.65-10.43,33.27-7.62,7.62-24.28,4.41-33.27,10.43-8.92,5.97-12.3,22.61-22.34,26.78-9.87,4.09-24-5.24-34.73-3.12-10.41,2.06-19.89,16.14-30.91,16.14s-20.5-14.08-30.91-16.14c-10.72-2.12-24.86,7.21-34.73,3.12-10.04-4.16-13.42-20.8-22.34-26.78-8.99-6.02-25.65-2.81-33.27-10.43-7.62-7.62-4.41-24.28-10.43-33.27-5.97-8.92-22.61-12.3-26.78-22.34-4.09-9.87,5.24-24,3.12-34.73-2.06-10.41-16.14-19.89-16.14-30.91s14.08-20.5,16.14-30.91c2.12-10.72-7.21-24.86-3.12-34.73,4.16-10.04,20.8-13.42,26.78-22.34,6.02-8.99,2.81-25.65,10.43-33.27,7.62-7.62,24.28-4.41,33.27-10.43,8.92-5.97,12.3-22.61,22.34-26.78,9.87-4.09,24,5.24,34.73,3.12,10.41-2.06,19.89-16.14,30.91-16.14s20.5,14.08,30.91,16.14c10.72,2.12,24.86-7.21,34.73-3.12,10.04,4.16,13.42,20.8,22.34,26.78,8.99,6.02,25.65,2.81,33.27,10.43,7.62,7.62,4.41,24.28,10.43,33.27,5.97,8.92,22.61,12.3,26.78,22.34,4.09,9.87-5.24,24-3.12,34.73,2.06,10.41,16.14,19.89,16.14,30.91Z" fill="#ff8acd"/><path d="M252.51,205.51s-.13-.15-.31-.47c-.21-.38-.47-.85-.79-1.41-.68-1.23-1.61-3.03-2.73-5.28-2.24-4.5-5.13-10.81-7.92-17.95-2.78-7.15-4.93-13.75-6.33-18.57-.7-2.41-1.23-4.37-1.57-5.74-.15-.63-.27-1.15-.38-1.57-.08-.36-.11-.55-.09-.56.02,0,.09.18.21.53.13.42.29.93.48,1.54.44,1.43,1.03,3.35,1.75,5.68,1.5,4.78,3.71,11.35,6.48,18.48,2.78,7.12,5.61,13.45,7.74,17.98,1.05,2.2,1.91,4.01,2.56,5.36.27.58.5,1.06.69,1.46.15.34.22.52.2.53Z" fill="#643f92"/><path d="M267.77,199.7s-.2-.44-.44-1.28c-.25-.83-.58-2.04-.96-3.55-.76-3.01-1.71-7.19-2.57-11.85-.85-4.66-1.45-8.91-1.81-11.99-.18-1.54-.3-2.79-.36-3.66-.07-.87-.08-1.35-.04-1.35s.14.47.27,1.32c.15.98.33,2.19.55,3.63.46,3.06,1.13,7.29,1.98,11.93.85,4.64,1.73,8.83,2.39,11.86.3,1.42.56,2.62.77,3.59.18.85.25,1.32.21,1.33Z" fill="#643f92"/><path d="M294.69,197.03c-.17,0-.6-12.98-.96-29.01-.36-16.03-.52-29.02-.35-29.02.17,0,.6,12.98.96,29.01.36,16.02.52,29.02.35,29.02Z" fill="#643f92"/><path d="M321.78,170.34c.16.05-1.71,6.54-4.17,14.5-2.47,7.96-4.59,14.38-4.75,14.33-.16-.05,1.71-6.54,4.17-14.51,2.46-7.96,4.59-14.38,4.75-14.33Z" fill="#643f92"/><path d="M332.84,203.9s.03-.2.15-.55c.14-.42.32-.92.53-1.53.47-1.32,1.19-3.22,2.09-5.56,1.81-4.68,4.41-11.1,7.37-18.16,2.96-7.06,5.71-13.42,7.74-18.01,1-2.22,1.82-4.05,2.44-5.42.28-.58.5-1.06.69-1.46.16-.33.26-.5.28-.49s-.04.19-.17.54c-.16.41-.35.91-.59,1.5-.57,1.38-1.33,3.24-2.26,5.49-1.97,4.71-4.64,11.06-7.58,18.07-2.93,7.02-5.57,13.38-7.53,18.09-.93,2.25-1.69,4.11-2.26,5.49-.25.59-.46,1.08-.63,1.49-.15.34-.24.51-.26.5Z" fill="#643f92"/><path d="M347.31,211.45s.2-.44.66-1.18c.46-.74,1.14-1.79,2.01-3.07,1.74-2.57,4.24-6.06,7.15-9.79,2.91-3.73,5.69-7,7.76-9.32,1.03-1.16,1.89-2.08,2.49-2.7.6-.62.95-.96.98-.93.03.03-.26.41-.81,1.08-.63.77-1.42,1.71-2.34,2.82-1.98,2.38-4.7,5.68-7.6,9.41-2.9,3.72-5.45,7.16-7.27,9.66-.86,1.17-1.58,2.16-2.17,2.96-.52.7-.82,1.07-.85,1.05Z" fill="#643f92"/><path d="M368.36,228.71c-.11-.12,9.05-8.83,20.46-19.45,11.42-10.62,20.76-19.13,20.87-19.01.11.12-9.05,8.83-20.46,19.45-11.41,10.62-20.76,19.13-20.87,19Z" fill="#643f92"/><path d="M405.14,232.31c.04.08-1.32.76-3.49,1.9-2.17,1.13-5.13,2.77-8.4,4.6-3.27,1.83-6.27,3.42-8.5,4.46-1.11.52-2.02.92-2.66,1.18-.64.26-1,.38-1.02.34-.04-.08,1.32-.76,3.49-1.9,2.17-1.13,5.13-2.77,8.4-4.61,3.27-1.83,6.27-3.42,8.5-4.46,1.11-.52,2.02-.92,2.66-1.18.64-.26,1-.38,1.02-.34Z" fill="#643f92"/><path d="M439.19,246.43c.06.16-10.85,4.14-24.36,8.89-13.51,4.76-24.5,8.48-24.56,8.33-.06-.16,10.85-4.14,24.36-8.89,13.5-4.75,24.5-8.48,24.56-8.33Z" fill="#643f92"/><path d="M450.02,308.34c-.02.17-11.87-.83-26.47-2.22-14.61-1.39-26.43-2.65-26.41-2.82.02-.17,11.86.83,26.47,2.22,14.6,1.39,26.43,2.65,26.41,2.82Z" fill="#643f92"/><path d="M441.31,363.87c-.07.15-11.15-4.93-24.75-11.36-13.6-6.42-24.56-11.75-24.49-11.9.07-.15,11.15,4.93,24.75,11.36,13.59,6.42,24.56,11.75,24.49,11.9Z" fill="#643f92"/><path d="M404.86,416.7c-.13.11-8.12-9.16-17.85-20.7-9.73-11.54-17.52-20.98-17.39-21.09.13-.11,8.12,9.16,17.85,20.7,9.73,11.54,17.51,20.98,17.39,21.09Z" fill="#643f92"/><path d="M374.43,423.68s-.38-.44-.97-1.3c-.59-.86-1.42-2.12-2.43-3.69-2.01-3.13-4.71-7.52-7.55-12.44-2.84-4.93-5.29-9.46-6.99-12.77-.85-1.66-1.53-3-1.98-3.94-.45-.94-.68-1.47-.64-1.49s.34.47.85,1.38c.56,1.01,1.28,2.3,2.14,3.85,1.8,3.26,4.3,7.75,7.14,12.67,2.84,4.92,5.47,9.33,7.39,12.52.91,1.52,1.67,2.79,2.26,3.78.53.9.8,1.41.77,1.43Z" fill="#643f92"/><path d="M355.53,450.25s-.12-.15-.3-.47c-.21-.39-.46-.85-.76-1.41-.65-1.23-1.55-3.04-2.61-5.29-2.13-4.5-4.88-10.83-7.48-17.98-2.6-7.15-4.57-13.76-5.84-18.58-.63-2.41-1.11-4.37-1.4-5.73-.13-.62-.24-1.14-.33-1.57-.07-.36-.1-.55-.08-.56.02,0,.09.18.19.53.12.42.26.93.44,1.54.4,1.43.94,3.35,1.59,5.68,1.37,4.78,3.4,11.35,5.99,18.49,2.6,7.13,5.27,13.46,7.31,18,1,2.2,1.82,4.01,2.44,5.37.26.58.48,1.07.66,1.46.14.34.21.52.19.53Z" fill="#643f92"/><path d="M317.25,431.62c-.09,0-.23-1.54-.5-4.03-.27-2.49-.69-5.92-1.32-9.69-.63-3.77-1.35-7.15-1.91-9.59-.56-2.44-.93-3.95-.84-3.97.04-.01.18.35.4,1.02.22.67.52,1.64.85,2.85.67,2.42,1.46,5.81,2.09,9.6.63,3.79.99,7.25,1.15,9.75.08,1.25.12,2.27.13,2.97,0,.7,0,1.09-.05,1.09Z" fill="#643f92"/><path d="M292.21,464.95s-.04-.2-.05-.59c0-.46-.02-1.02-.03-1.7-.02-1.48,0-3.62.04-6.26.09-5.29.33-12.58.75-20.64.42-8.06.94-15.34,1.36-20.61.22-2.63.41-4.76.56-6.23.08-.68.14-1.24.19-1.69.05-.39.09-.59.11-.59.02,0,.02.21.01.6-.02.46-.05,1.02-.08,1.7-.09,1.57-.22,3.68-.37,6.25-.31,5.36-.73,12.6-1.19,20.61-.42,8.05-.73,15.34-.93,20.62-.1,2.57-.18,4.69-.23,6.25-.03.68-.06,1.24-.09,1.7-.03.39-.05.59-.07.59Z" fill="#643f92"/><path d="M271.85,406.64c.08.01-.04,1.14-.35,2.95-.3,1.81-.79,4.3-1.43,7.03-.64,2.73-1.31,5.17-1.84,6.93-.53,1.76-.92,2.82-1,2.8-.08-.02.16-1.13.59-2.91.48-1.99,1.04-4.35,1.67-6.95.6-2.61,1.14-4.98,1.6-6.97.41-1.79.68-2.89.77-2.87Z" fill="#643f92"/><path d="M235.04,388.95c.13.1-2.14,3.32-5.07,7.18-2.93,3.86-5.41,6.92-5.55,6.81-.13-.1,2.14-3.31,5.07-7.18,2.93-3.86,5.41-6.91,5.55-6.81Z" fill="#643f92"/><path d="M215.73,375.98c.13.11-7.06,8.55-16.05,18.84-8.99,10.3-16.38,18.56-16.5,18.45-.13-.11,7.06-8.55,16.05-18.85,8.99-10.3,16.38-18.56,16.5-18.45Z" fill="#643f92"/><path d="M206.07,361.62c.11.13-3.89,3.6-8.93,7.75-5.04,4.15-9.21,7.41-9.31,7.28s3.89-3.6,8.93-7.75c5.04-4.15,9.21-7.41,9.31-7.28Z" fill="#643f92"/><path d="M194.77,339.95c.07.15-9.94,5.12-22.35,11.11-12.42,5.98-22.54,10.71-22.62,10.56-.07-.15,9.93-5.12,22.35-11.11,12.42-5.98,22.54-10.71,22.61-10.56Z" fill="#643f92"/><path d="M190.23,329.14s-.36.15-1.04.31c-.68.16-1.66.36-2.88.59-2.44.45-5.84.97-9.62,1.35-3.78.38-7.21.54-9.7.58-1.24.02-2.25.02-2.94,0-.7-.02-1.08-.05-1.08-.1,0-.09,1.53-.17,4.01-.32,2.48-.15,5.89-.38,9.65-.76,3.76-.38,7.16-.83,9.61-1.17,2.46-.34,3.98-.57,3.99-.48Z" fill="#643f92"/><path d="M186.56,304.2s-.72.02-2.03-.04c-1.4-.07-3.26-.17-5.51-.28-4.65-.23-11.08-.44-18.18-.4-7.1.04-13.53.32-18.17.6-2.25.14-4.1.26-5.5.34-1.3.08-2.02.11-2.02.07,0-.04.71-.15,2-.3,1.29-.16,3.17-.34,5.49-.53,4.65-.38,11.08-.73,18.2-.78,7.12-.04,13.55.25,18.2.58,2.33.17,4.2.33,5.5.47,1.3.14,2.01.24,2.01.28Z" fill="#643f92"/><path d="M188.83,282.28c-.04.16-7.54-1.79-16.74-4.36-9.21-2.57-16.63-4.78-16.58-4.94.04-.16,7.54,1.79,16.75,4.36,9.2,2.57,16.63,4.78,16.58,4.94Z" fill="#643f92"/><path d="M193.68,263.91s-.19-.02-.55-.12c-.42-.13-.92-.28-1.53-.46-1.33-.41-3.23-1.06-5.57-1.91-4.67-1.7-11.04-4.29-17.85-7.64-6.81-3.36-12.75-6.82-16.94-9.49-2.1-1.33-3.77-2.45-4.91-3.25-.52-.37-.95-.68-1.3-.93-.29-.22-.44-.34-.43-.36s.18.07.5.26c.37.23.82.5,1.36.84,1.17.74,2.88,1.8,5,3.08,4.24,2.57,10.2,5.97,16.98,9.31,6.79,3.34,13.11,5.99,17.73,7.78,2.31.9,4.19,1.61,5.49,2.09.59.23,1.09.42,1.49.57.34.14.51.22.51.24Z" fill="#643f92"/><path d="M204.58,245.45c-.1.14-5.96-3.83-13.09-8.85-7.14-5.03-12.84-9.21-12.74-9.34.1-.14,5.96,3.83,13.09,8.85,7.13,5.02,12.84,9.21,12.74,9.34Z" fill="#643f92"/><path d="M181.54,189.16s.16.1.44.32c.32.28.71.61,1.18,1.01,1.08.96,2.52,2.23,4.26,3.78,3.66,3.26,8.58,7.66,14.03,12.51,5.47,4.83,10.41,9.21,14.08,12.45,1.74,1.55,3.18,2.83,4.26,3.79.45.42.83.76,1.14,1.05.26.25.38.38.37.4-.01.02-.17-.09-.45-.31-.33-.26-.73-.58-1.21-.96-1.05-.85-2.54-2.09-4.38-3.64-3.68-3.1-8.71-7.45-14.21-12.33-5.49-4.88-10.4-9.36-13.91-12.65-1.76-1.64-3.17-2.98-4.14-3.92-.44-.43-.8-.79-1.1-1.09-.25-.25-.37-.4-.36-.41Z" fill="#643f92"/><path d="M217.66,190.22s.31.26.79.8c.48.54,1.14,1.34,1.95,2.35,1.61,2.01,3.76,4.85,5.98,8.1,2.22,3.25,4.09,6.28,5.38,8.51.64,1.12,1.15,2.03,1.48,2.67.33.64.5,1,.46,1.02-.08.04-.93-1.3-2.3-3.47-1.38-2.17-3.3-5.15-5.51-8.39-2.21-3.23-4.3-6.11-5.82-8.18-1.52-2.07-2.47-3.35-2.4-3.41Z" fill="#643f92"/><g opacity=".2"><path d="M227.46,143.06l24.6,61.57,15.72-4.92-5.24-53.4s-2.71.63-8.71-.13c-5.82-.74-19.94-6.26-26.37-3.11Z" fill="#643f92"/></g><g opacity=".3"><path d="M293.04,130.17l1.65,66.86,14.73.71,14.92-51.31c-.28-.03-4.13-.69-8.67-3.59-5.1-3.26-15.49-13.19-22.63-12.66Z" fill="#643f92"/></g><g opacity=".2"><path d="M357.28,142.8l-24.44,61.64,13.31,6.36,33.64-41.52c-.25-.13-3.44-2.79-6.39-7.51-3.21-5.14-8.67-16.91-16.11-18.97Z" fill="#643f92"/></g><g opacity=".2"><path d="M414.69,181.26l-45.53,47.45,10.15,13.67,44.49-29.69s-1.87-2.96-2.93-8.66c-1.07-5.77-1.23-16.27-6.18-22.77Z" fill="#643f92"/></g><g opacity=".2"><path d="M450.63,234.83l-61.31,25.23,5.09,15.66,53.34-5.79s-.33-1.65.37-7.66c.68-5.82,6.8-18.84,2.51-27.45Z" fill="#643f92"/></g><g opacity=".2"><path d="M464.19,301.62l-66.84,2.34-.56,14.74,50.99,14.92c.02-.28.48-3.16,2.02-6.09,3.75-7.1,14.38-17.11,14.38-25.91Z" fill="#643f92"/></g><g opacity=".2"><path d="M451.88,364.82l-61.54-23.99-6.22,13.37,41.87,33.21c.13-.25,2.58-2.52,7.27-5.52,5.1-3.26,17.21-8.52,18.63-17.08Z" fill="#643f92"/></g><g opacity=".2"><path d="M361.36,363.87l-15.23,12.78c1.15,1.21,21.46,35.71,33.96,57.04.17-.13.33-.27.51-.39,8.24-5.52,22.9-3.31,31.16-8.76l-50.4-60.67Z" fill="#643f92"/><path d="M333.37,388.05l-22.74,7.75,10.77,61.74c.71-.25,1.42-.45,2.14-.59,10.72-2.12,24.86,7.21,34.73,3.12,1.36-.56,2.58-1.37,3.73-2.33l-28.62-69.7Z" fill="#643f92"/><path d="M291.84,473.06l3.63-80.66-19.66-4.98-14.63,69.45c.18.03.36.05.54.09,10.16,2.01,19.44,15.46,30.12,16.1Z" fill="#643f92"/><path d="M242.4,378.7s-25.98,34.8-39.57,53.55c.64.32,1.25.66,1.82,1.05,8.92,5.97,12.3,22.61,22.34,26.78.46.19.93.34,1.41.48l36.3-68.71-22.31-13.14Z" fill="#643f92"/><path d="M215.73,350.68l-55.42,38.09c.21.27.44.54.63.82,6.02,8.99,2.81,25.65,10.43,33.27.7.7,1.5,1.29,2.34,1.82,19.58-22.07,54.74-61.69,56.01-63.07l-14-10.94Z" fill="#643f92"/><path d="M203.04,323.49l-65.52,10.58c1.04,10.51-7.24,23.78-3.34,33.19.24.58.53,1.12.84,1.66,22.93-11.42,70.84-35.16,72.83-35.29l-4.81-10.13Z" fill="#643f92"/><path d="M199.46,286.99l-61.94-17.87c-.05.54-.12,1.07-.22,1.6-2.06,10.41-16.14,19.9-16.14,30.91,0,.74.07,1.47.19,2.2h75.6l2.51-16.82Z" fill="#643f92"/><path d="M134.43,235.49c23.14,12.4,68.41,37.49,68.41,37.49l11.14-21.15-52.32-39.39c-.22.41-.44.82-.7,1.21-5.87,8.77-22.02,12.2-26.53,21.85Z" fill="#643f92"/></g><path d="M464.1,301.62s-.03-.25-.07-.73c-.06-.48-.04-1.22-.31-2.15-.36-1.89-1.42-4.61-3.47-7.76-1.99-3.2-5-6.77-8.15-11.3-1.53-2.28-3.13-4.85-3.98-7.94-.85-3.09-.69-6.57-.02-10.08.64-3.53,1.69-7.17,2.61-11.02.85-3.84,1.77-8.03.91-12.29-.45-2.11-1.45-4.11-2.88-5.86-1.44-1.74-3.24-3.2-5.15-4.57-3.84-2.73-8.26-4.91-12.49-7.76-2.1-1.43-4.19-3.02-5.91-5.05-1.74-2.02-2.86-4.55-3.62-7.16-1.49-5.26-1.82-10.9-2.95-16.53-.58-2.8-1.36-5.65-2.85-8.17-1.46-2.54-3.83-4.51-6.6-5.71-2.76-1.22-5.79-1.86-8.85-2.37-3.07-.51-6.21-.86-9.37-1.42-3.14-.57-6.37-1.31-9.28-2.92-2.93-1.6-5.22-4.17-7.14-6.91-1.92-2.76-3.57-5.73-5.33-8.65-1.76-2.92-3.62-5.85-6.02-8.34-2.4-2.47-5.6-4.25-9.13-4.48-3.52-.26-7.08.41-10.59,1.24-3.52.85-7.04,1.87-10.69,2.56-3.62.71-7.51.96-11.18-.21-3.61-1.26-6.8-3.45-9.88-5.71-3.08-2.27-6.09-4.68-9.4-6.69-3.29-1.94-7.04-3.56-10.94-3.12l-.72.06c-.24.04-.47.1-.71.15-.47.11-.95.2-1.42.33-.92.34-1.86.61-2.73,1.07-1.8.8-3.47,1.88-5.13,2.98-3.3,2.25-6.41,4.83-9.78,7.12-1.67,1.17-3.46,2.2-5.33,3.08-1.89.85-3.94,1.37-6.03,1.52-4.19.21-8.31-.74-12.35-1.76-4.05-1.01-8.1-2.18-12.28-2.58-2.08-.17-4.2-.09-6.22.42-2.04.49-3.84,1.65-5.45,2.99-3.19,2.79-5.43,6.54-7.65,10.22-2.21,3.71-4.32,7.57-7.26,10.9-1.48,1.63-3.2,3.12-5.21,4.13-2.01.99-4.15,1.65-6.32,2.16-4.35.96-8.8,1.36-13.18,2.16-4.33.79-8.84,2.02-12.05,5.13-1.55,1.59-2.63,3.57-3.42,5.66-.81,2.09-1.28,4.32-1.69,6.54-.81,4.47-1.19,9.05-2.27,13.56-.52,2.25-1.29,4.49-2.46,6.52-1.18,2.04-2.81,3.8-4.64,5.25-3.66,2.94-7.82,5.12-11.8,7.55-1.98,1.23-3.94,2.5-5.74,3.98-1.77,1.49-3.39,3.21-4.49,5.24-1.12,2.01-1.63,4.34-1.61,6.67,0,2.33.34,4.67.81,6.99.98,4.63,2.45,9.19,3.23,13.95.41,2.37.56,4.82.24,7.25-.31,2.43-1.25,4.74-2.42,6.87-2.41,4.23-5.56,7.94-8.35,11.88-1.41,1.96-2.71,4-3.73,6.18-1.02,2.17-1.73,4.5-1.75,6.9.01,2.39.72,4.73,1.73,6.91,1.02,2.18,2.32,4.22,3.73,6.18,2.79,3.94,5.94,7.65,8.36,11.88,1.17,2.12,2.12,4.43,2.44,6.86.32,2.42.18,4.88-.23,7.25-.78,4.76-2.25,9.32-3.23,13.95-.47,2.31-.83,4.65-.82,6.99-.03,2.33.49,4.66,1.6,6.68,1.1,2.03,2.71,3.75,4.48,5.25,1.8,1.47,3.76,2.75,5.74,3.98,3.98,2.44,8.14,4.61,11.8,7.55,1.83,1.45,3.47,3.21,4.65,5.25,1.18,2.04,1.95,4.27,2.47,6.52,1.09,4.51,1.46,9.1,2.27,13.57.41,2.23.88,4.45,1.69,6.55.79,2.09,1.87,4.08,3.42,5.67,3.21,3.12,7.72,4.35,12.05,5.14,4.38.79,8.83,1.2,13.18,2.16,2.17.51,4.31,1.17,6.32,2.16,2.01,1.01,3.73,2.5,5.21,4.13,2.94,3.33,5.05,7.19,7.26,10.9,2.22,3.69,4.45,7.44,7.65,10.22,1.6,1.35,3.41,2.5,5.45,2.99,2.02.5,4.13.59,6.22.42,4.18-.4,8.23-1.56,12.28-2.58,4.04-1.02,8.16-1.96,12.35-1.76,2.09.16,4.14.67,6.03,1.53,1.87.88,3.66,1.91,5.33,3.08,3.38,2.3,6.49,4.88,9.78,7.13,1.66,1.1,3.33,2.18,5.13,2.98.88.46,1.82.73,2.73,1.07.47.13.95.22,1.42.33.24.05.47.11.71.15l.72.06c3.9.44,7.65-1.19,10.94-3.13,3.3-2.01,6.31-4.42,9.4-6.69,3.08-2.26,6.27-4.45,9.88-5.7,3.67-1.16,7.56-.91,11.18-.2,3.65.69,7.17,1.71,10.69,2.56,3.51.83,7.07,1.5,10.59,1.24,3.53-.24,6.73-2.01,9.13-4.49,2.4-2.49,4.26-5.43,6.02-8.34,1.76-2.93,3.41-5.89,5.33-8.65,1.92-2.74,4.21-5.31,7.14-6.91,2.91-1.61,6.14-2.35,9.28-2.92,3.16-.56,6.3-.92,9.37-1.42,3.06-.51,6.1-1.14,8.85-2.37,2.76-1.2,5.13-3.17,6.59-5.71,1.49-2.53,2.27-5.37,2.85-8.17,1.13-5.63,1.46-11.26,2.95-16.53.76-2.61,1.89-5.14,3.62-7.16,1.72-2.03,3.81-3.62,5.91-5.05,4.23-2.84,8.64-5.03,12.49-7.76,1.91-1.37,3.71-2.83,5.15-4.57,1.42-1.75,2.42-3.76,2.87-5.86.49-2.11.37-4.26.18-6.31-.2-2.06-.67-4.05-1.09-5.98-.92-3.86-1.97-7.49-2.61-11.02-.66-3.51-.82-6.99.02-10.08.85-3.09,2.45-5.66,3.98-7.93,3.14-4.53,6.16-8.1,8.14-11.3,2.05-3.16,3.11-5.87,3.47-7.76.26-.93.24-1.67.31-2.15.04-.49.07-.73.07-.73,0,0,0,.25-.04.73-.05.48-.02,1.23-.28,2.16-.34,1.9-1.39,4.64-3.43,7.81-1.98,3.22-4.98,6.81-8.1,11.33-1.52,2.28-3.09,4.84-3.93,7.89-.83,3.05-.66,6.49,0,9.99.64,3.51,1.7,7.14,2.64,11,.43,1.94.9,3.93,1.11,6.01.19,2.07.33,4.25-.17,6.4-.46,2.15-1.48,4.21-2.92,5.99-1.46,1.77-3.28,3.25-5.2,4.64-3.86,2.75-8.28,4.95-12.48,7.78-2.09,1.42-4.15,3-5.83,4.99-1.7,1.98-2.8,4.45-3.54,7.04-1.47,5.21-1.79,10.84-2.92,16.5-.58,2.82-1.36,5.71-2.88,8.3-1.49,2.61-3.95,4.66-6.76,5.88-2.81,1.25-5.87,1.9-8.95,2.41-3.09.51-6.23.87-9.37,1.43-3.13.56-6.31,1.31-9.15,2.88-2.85,1.55-5.09,4.06-6.99,6.78-1.9,2.74-3.55,5.69-5.31,8.63-1.76,2.93-3.63,5.89-6.08,8.44-2.43,2.53-5.79,4.39-9.42,4.63-3.61.27-7.21-.41-10.74-1.24-3.54-.85-7.05-1.87-10.67-2.55-3.59-.7-7.39-.93-10.94.2-3.52,1.22-6.67,3.38-9.74,5.64-3.07,2.26-6.09,4.69-9.43,6.73-.86.47-1.68,1.01-2.59,1.39-.45.2-.89.43-1.34.62l-1.4.5c-1.89.57-3.91.96-5.91.7l-.75-.06c-.25-.04-.49-.1-.74-.16-.49-.11-.99-.21-1.47-.34-.94-.35-1.91-.63-2.81-1.09-1.84-.82-3.53-1.91-5.21-3.02-3.32-2.26-6.44-4.85-9.79-7.12-1.66-1.16-3.42-2.17-5.25-3.03-1.85-.83-3.82-1.32-5.84-1.48-4.08-.2-8.16.73-12.19,1.75-4.04,1.01-8.11,2.19-12.37,2.6-2.13.18-4.3.09-6.41-.43-2.13-.51-4.02-1.72-5.67-3.11-3.29-2.88-5.54-6.67-7.77-10.36-2.22-3.71-4.32-7.56-7.2-10.81-1.45-1.6-3.11-3.03-5.05-4-1.95-.95-4.05-1.6-6.19-2.11-4.3-.94-8.74-1.35-13.16-2.15-2.2-.43-4.43-.88-6.55-1.72-2.12-.82-4.16-1.95-5.82-3.58-1.62-1.66-2.74-3.73-3.55-5.87-.83-2.15-1.3-4.4-1.72-6.65-.82-4.5-1.19-9.08-2.27-13.53-.51-2.22-1.27-4.4-2.41-6.36-1.14-1.96-2.71-3.66-4.51-5.08-3.59-2.88-7.74-5.06-11.74-7.5-2-1.23-3.97-2.53-5.81-4.03-1.81-1.53-3.48-3.3-4.63-5.42-1.16-2.11-1.7-4.56-1.67-6.96,0-2.4.36-4.78.83-7.12.99-4.67,2.46-9.23,3.22-13.92.4-2.34.54-4.74.23-7.07-.31-2.34-1.22-4.56-2.37-6.65-2.37-4.16-5.51-7.86-8.32-11.83-1.42-1.98-2.74-4.05-3.78-6.28-1.04-2.22-1.77-4.65-1.79-7.16.02-2.51.77-4.93,1.81-7.15,1.05-2.23,2.37-4.3,3.79-6.27,2.81-3.97,5.95-7.67,8.32-11.83,1.15-2.09,2.05-4.31,2.35-6.65.31-2.34.17-4.73-.24-7.07-.77-4.69-2.24-9.25-3.23-13.92-.47-2.34-.83-4.71-.82-7.12-.02-2.39.51-4.84,1.69-6.95,1.16-2.12,2.83-3.89,4.64-5.41,1.84-1.5,3.82-2.79,5.81-4.02,4-2.44,8.14-4.62,11.73-7.5,1.8-1.43,3.37-3.13,4.5-5.09,1.13-1.96,1.89-4.14,2.4-6.36,1.07-4.45,1.45-9.03,2.26-13.53.42-2.25.89-4.5,1.72-6.65.82-2.14,1.93-4.2,3.56-5.87,1.66-1.62,3.7-2.76,5.82-3.57,2.12-.84,4.34-1.29,6.55-1.72,4.42-.8,8.86-1.21,13.16-2.15,2.14-.5,4.24-1.15,6.18-2.11,1.94-.97,3.59-2.41,5.04-4,2.88-3.25,4.98-7.1,7.2-10.81,2.23-3.69,4.47-7.48,7.77-10.36,1.65-1.39,3.54-2.59,5.67-3.11,2.11-.53,4.28-.61,6.41-.43,4.26.41,8.33,1.59,12.36,2.6,4.03,1.02,8.11,1.95,12.18,1.75,2.02-.16,4-.64,5.84-1.48,1.83-.86,3.59-1.87,5.25-3.03,3.35-2.27,6.46-4.85,9.79-7.12,1.68-1.11,3.37-2.2,5.21-3.02.89-.47,1.86-.75,2.8-1.1.48-.14.98-.23,1.47-.34.25-.05.49-.12.74-.16l.75-.06c2.01-.26,4.02.12,5.91.69l1.4.5c.46.19.9.41,1.35.62.91.39,1.73.93,2.59,1.39,3.34,2.03,6.36,4.46,9.43,6.72,3.06,2.25,6.22,4.42,9.73,5.64,3.55,1.13,7.34.9,10.94.2,3.62-.68,7.14-1.7,10.67-2.55,3.53-.83,7.13-1.52,10.74-1.25,3.63.24,6.98,2.1,9.42,4.63,2.45,2.55,4.31,5.51,6.08,8.43,1.76,2.94,3.41,5.89,5.31,8.63,1.9,2.72,4.14,5.23,6.98,6.79,2.83,1.57,6.02,2.32,9.15,2.88,3.14.56,6.28.92,9.37,1.43,3.08.52,6.14,1.16,8.95,2.41,2.82,1.22,5.28,3.26,6.77,5.88,1.53,2.59,2.31,5.48,2.89,8.3,1.13,5.67,1.45,11.29,2.92,16.51.75,2.59,1.85,5.06,3.54,7.04,1.68,1.99,3.74,3.57,5.83,5,4.2,2.84,8.62,5.03,12.48,7.78,1.92,1.38,3.74,2.86,5.2,4.63,1.44,1.78,2.47,3.84,2.93,5.99.5,2.15.36,4.33.17,6.4-.21,2.08-.68,4.07-1.11,6.01-.93,3.86-1.99,7.49-2.64,11-.67,3.49-.84,6.94,0,9.99.83,3.05,2.41,5.61,3.92,7.89,3.12,4.53,6.12,8.12,8.1,11.34,2.04,3.18,3.08,5.91,3.43,7.81.26.94.22,1.68.28,2.16.03.49.04.73.04.73Z" fill="#643f92"/><path d="M260.47,460.74c.16.04-4.11,17.37-9.55,38.7-5.43,21.34-9.97,38.59-10.13,38.55s4.11-17.37,9.55-38.7c5.43-21.33,9.97-38.59,10.13-38.55Z" fill="#643f92"/><circle cx="292.63" cy="301.62" r="105.11" fill="#fff"/><path d="M227.91,265.2c-1.45,1.45-9.42,15.94-10.14,27.9-.72,11.96.99,79.1.99,79.1l.31,4.45c18.92,22.13,87.7,55.06,149.65-.11h0l3.47-41.3-10.22-87.43-35.51-8.7-8.33-13.5-55.49,12.99-4.95,11.7-29.78,14.89Z" fill="#e7374c"/><path d="M313.36,154.57c-.45-23.59-14.55-42.98-38.11-41.88l-2.17.23c-21.85,2.3-38.29,21-37.75,42.97.5,20.44,1.32,43.02,2.6,53.88,2.65,22.48,25.53,23.61,25.53,23.61.05,0,1.05,14.78,1.05,14.78l9.67,10.51,44.82-27.76-5.65-76.33Z" fill="#ffc4a3"/><path d="M263.47,233.55s14.28-.66,28.4-11.75c0,0-4.73,20.39-27.4,20.73l-.99-8.98Z" fill="#ffa275"/><path d="M248.28,174.22c.12,1.7,1.66,3.01,3.44,2.92,1.78-.09,3.13-1.54,3.01-3.25-.12-1.7-1.66-3.01-3.44-2.92-1.78.09-3.13,1.55-3.01,3.25Z" fill="#643f92"/><path d="M241.13,164.72c.44.38,2.69-1.68,6.15-2.04,3.45-.4,6.18,1.11,6.51.64.16-.21-.32-.92-1.51-1.61-1.17-.69-3.11-1.27-5.27-1.03-2.15.24-3.88,1.22-4.84,2.15-.98.93-1.26,1.72-1.04,1.89Z" fill="#643f92"/><path d="M278.84,171.63c.12,1.7,1.66,3.01,3.44,2.92,1.78-.09,3.13-1.54,3.01-3.25-.12-1.7-1.66-3.01-3.44-2.92-1.78.09-3.13,1.55-3.01,3.25Z" fill="#643f92"/><path d="M275.16,162.55c.44.38,2.69-1.68,6.15-2.04,3.45-.4,6.18,1.11,6.51.64.16-.21-.32-.92-1.51-1.61-1.17-.69-3.11-1.27-5.26-1.04-2.15.24-3.88,1.22-4.84,2.15-.97.93-1.26,1.72-1.04,1.89Z" fill="#643f92"/><path d="M265.56,190.44c0-.2-2.19-.34-5.73-.42-.89,0-1.75-.09-1.96-.67-.28-.62,0-1.61.31-2.68.61-2.22,1.24-4.56,1.9-7,2.62-9.96,4.41-18.11,4.01-18.21-.4-.1-2.85,7.89-5.47,17.85-.62,2.45-1.22,4.79-1.79,7.03-.23,1.04-.68,2.24-.09,3.52.31.64,1.01,1.05,1.59,1.14.58.11,1.08.07,1.52.05,3.53-.18,5.7-.39,5.7-.59Z" fill="#643f92"/><path d="M275.99,191.76c-.57.03-.18,3.78-3.11,6.79-2.93,3.01-6.97,3.01-6.95,3.54-.03.24.97.64,2.66.5,1.66-.12,4.03-.91,5.82-2.74,1.79-1.84,2.4-4.11,2.37-5.66-.02-1.59-.54-2.47-.79-2.42Z" fill="#643f92"/><path d="M273.87,148.49c.44.9,3.85.09,7.96.16,4.11-.02,7.51.82,7.96-.08.2-.43-.47-1.25-1.89-2.02-1.41-.77-3.59-1.41-6.06-1.43-2.46,0-4.65.61-6.07,1.37-1.43.76-2.1,1.58-1.91,2.01Z" fill="#643f92"/><path d="M241.35,153.07c.69.72,2.99-.35,5.85-.69,2.85-.44,5.35-.03,5.82-.91.2-.42-.26-1.17-1.4-1.8-1.12-.63-2.94-1.05-4.9-.79-1.96.27-3.59,1.16-4.51,2.07-.93.91-1.17,1.76-.87,2.11Z" fill="#643f92"/><path d="M313.28,171.44c.37-.21,14.99-6.21,16.12,9.24,1.13,15.44-14.61,13.39-14.66,12.95-.06-.44-1.45-22.19-1.45-22.19Z" fill="#ffc4a3"/><path d="M319.02,187.43c.06-.05.28.17.75.34.46.17,1.23.25,2.01-.11,1.59-.72,2.77-3.41,2.64-6.2-.06-1.41-.46-2.72-1.04-3.8-.55-1.1-1.34-1.83-2.17-1.92-.83-.13-1.38.41-1.53.85-.18.45-.05.75-.14.78-.04.04-.35-.23-.27-.88.04-.31.2-.69.54-1.01.35-.33.88-.52,1.46-.5,1.2,0,2.35,1.01,2.99,2.19.7,1.18,1.18,2.65,1.25,4.24.13,3.12-1.25,6.15-3.44,6.96-1.07.36-2,.1-2.49-.23-.51-.35-.61-.69-.56-.72Z" fill="#ffa275"/><path d="M243.68,129.65c-2.59-1.22,4.39-9.8,10.36-12.98,9.02-4.81,23.03-8.32,31.75-6.44,10.5,2.26,19.39,6.84,25.17,15.89,5.78,9.05,8.43,19.86,8.82,30.59.12,3.27,0,6.7-1.57,9.58-1.94,3.56-5.94,5.97-5.46,10.67.18,1.72-.2,3.49-1.3,4.82-2.63,3.19-6.27.59-8.05-2.14-3.79-5.83-4.63-13.03-5.37-19.95-.53-4.91-1.05-9.93.03-14.76.59-2.62,1.65-5.14,2.09-7.79.44-2.65.17-5.61-1.59-7.64-.29-.33-.75-.74-1.34-1.19-4.62-3.55-10.82-4.31-16.18-2.01-8.5,3.64-23.07,9.19-27.14,6.49-5.86-3.89-7.37-6.57-7.37-6.57l-2.86,3.44Z" fill="#643f92"/><path d="M227.91,265.2c-.89,1.24-13.55,5.44-18.35,13.44-4.8,8-9.55,43.92-9.55,43.92l-3.06,23.65c6.02,9.52,14.1,22.13,22.67,31.03l8.29-112.03Z" fill="#e7374c"/><g opacity=".3"><path d="M323,299.88c.53,4.82,1.08,9.69,2.73,14.25,1.66,4.56,4.56,8.84,8.81,11.18,1.78.98,3.78,1.63,5.27,3.01,1.6,1.49,2.4,3.64,3.85,5.27,1.68,1.9,4.1,2.96,6.5,3.81,7.08,2.51,14.05,3.7,21.56,3.43.23-2.48.24-11.58.47-14.06l-49.19-26.9Z" fill="#643f92"/></g><path d="M361.97,247.81s15.96,4.72,20.63,11.52,12.96,33.15,14.66,38.03c1.7,4.89.21,16.22-2.97,24.36-3.19,8.15-8.72,15.16-18.28,16.22-9.56,1.06-24.65-4.46-28.05-8.07-3.39-3.61-4.82-11.72-4.82-11.72,4.24-.75,8.43-1.8,12.53-3.14" fill="#e7374c"/><path d="M355.68,315s-.06.04-.2.09c-.16.06-.35.13-.6.22-.53.18-1.33.45-2.39.77-2.11.63-5.23,1.49-9.31,2.23l.13-.18c.36,1.8.87,3.79,1.63,5.86.38,1.03.82,2.09,1.38,3.13.57,1.03,1.23,2.08,2.14,2.91.91.83,2.05,1.51,3.23,2.13,1.18.64,2.45,1.19,3.76,1.73,2.63,1.06,5.47,1.97,8.48,2.68,3.01.7,6.21,1.21,9.52,1.22.83.04,1.66-.07,2.49-.12.83-.14,1.67-.21,2.49-.44,1.66-.37,3.28-.99,4.8-1.86,3.05-1.7,5.64-4.33,7.61-7.43,1.99-3.09,3.45-6.6,4.52-10.26.83-2.81,1.45-5.66,1.84-8.49.4-2.83.6-5.65.42-8.4-.11-1.38-.36-2.68-.83-3.96-.43-1.3-.86-2.58-1.28-3.85-.85-2.54-1.68-5.02-2.49-7.45-1.64-4.84-3.26-9.42-4.89-13.66-1.65-4.22-3.2-8.19-5.13-11.5-.94-1.67-2.24-2.97-3.6-4.03-1.34-1.09-2.74-1.96-4.06-2.72-2.66-1.51-5.08-2.59-7.07-3.42-1.99-.83-3.57-1.4-4.64-1.78-.51-.18-.92-.32-1.22-.43-.27-.1-.42-.15-.41-.16,0,0,.15.02.43.1.31.09.72.22,1.24.37,1.09.34,2.68.89,4.69,1.68,2.01.8,4.45,1.85,7.15,3.34,1.34.76,2.76,1.62,4.13,2.71,1.39,1.05,2.75,2.41,3.73,4.11,1.99,3.36,3.55,7.32,5.23,11.55,1.65,4.24,3.29,8.82,4.95,13.66.82,2.42,1.65,4.91,2.51,7.45.42,1.27.85,2.55,1.29,3.85.47,1.28.76,2.71.87,4.11.19,2.81,0,5.67-.41,8.53-.4,2.86-1.02,5.73-1.86,8.58-1.09,3.71-2.56,7.26-4.6,10.42-2.01,3.16-4.67,5.87-7.82,7.61-1.56.89-3.24,1.53-4.95,1.91-.84.24-1.71.31-2.56.45-.86.04-1.71.15-2.55.11-3.38-.02-6.61-.56-9.64-1.27-3.04-.73-5.89-1.66-8.54-2.75-1.32-.55-2.6-1.11-3.79-1.77-1.2-.64-2.34-1.33-3.31-2.22-.96-.89-1.63-1.98-2.2-3.04-.57-1.07-1-2.14-1.38-3.19-.75-2.1-1.24-4.09-1.59-5.93l-.03-.16.16-.03c4.07-.7,7.21-1.5,9.32-2.08,1.03-.29,1.83-.52,2.41-.69.25-.07.45-.13.61-.18.14-.04.21-.05.21-.05Z" fill="#643f92"/><path d="M384.95,306.47c-.12.03-.48-1.96-1.82-4.9-1.31-2.93-3.66-6.81-7.2-10.22-1.76-1.71-3.72-3.01-5.6-3.98-.48-.22-.95-.43-1.41-.63-.46-.21-.94-.3-1.38-.45-.89-.32-1.76-.4-2.56-.53-.2-.03-.39-.06-.58-.09-.19,0-.37,0-.56,0-.36,0-.7,0-1.02,0-.64-.04-1.18.08-1.63.14-.89.13-1.4.18-1.41.14-.01-.04.47-.17,1.37-.38.45-.1.99-.25,1.65-.25.33-.02.68-.03,1.05-.05.19,0,.38-.02.57-.02.2.02.39.05.6.07.82.1,1.73.16,2.65.47.46.14.96.23,1.44.44.48.2.96.41,1.46.63,1.94.97,3.97,2.3,5.77,4.05,3.62,3.48,5.95,7.47,7.18,10.49.31.76.59,1.44.76,2.07.19.62.37,1.15.44,1.6.18.9.27,1.39.22,1.4Z" fill="#643f92"/><path d="M393.66,292.15c-.13.05-.56-2.05-2.41-4.86-1.8-2.76-5.25-6.23-10.17-7.7-4.9-1.49-9.65-1.03-12.98-.71-1.58.19-2.91.35-3.97.47-.94.11-1.46.16-1.47.12,0-.04.5-.17,1.43-.35.93-.18,2.27-.43,3.95-.67,3.32-.43,8.15-.98,13.21.56,2.51.76,4.71,2.05,6.43,3.51,1.74,1.45,3.01,3.08,3.92,4.53.9,1.45,1.42,2.75,1.7,3.65.29.91.37,1.43.34,1.44Z" fill="#643f92"/><path d="M381.63,275.02c-.04.2-4.2-1.14-9.49-.91-5.29.18-9.33,1.84-9.39,1.65-.03-.06.94-.56,2.61-1.1,1.67-.53,4.06-1.05,6.75-1.16,2.68-.1,5.11.22,6.82.62,1.71.4,2.71.82,2.69.89Z" fill="#643f92"/><path d="M355.81,251.79c.09.02-.14,1.63-.32,4.24-.19,2.61-.27,6.24.09,10.22.33,3.83,1.02,7.26,1.63,9.75l-.42.13c-.47-1.34-.85-2.42-1.09-3.18s-.36-1.18-.32-1.2c.04-.02.23.38.55,1.11.31.73.75,1.79,1.27,3.11l-.42.13c-.72-2.49-1.48-5.94-1.81-9.81-.36-4.02-.21-7.69.09-10.31.15-1.31.32-2.37.46-3.09.15-.72.25-1.12.29-1.11Z" fill="#643f92"/><path d="M333.24,222.08s-8.28,0-9.32,9.95c-.8,7.64,0,15.06,0,18.41s-1.47,15.25-1.47,15.25c0,0-5.65,5.01-5.56,11.04.1,6.05,4.4,7.9,4.4,7.9,0,0-2.63,5.74,2.39,11,0,0-2.41,5.55-.43,9.29,1.53,2.89,4.97,3.86,4.97,3.86,0,0-2.45,5.47,3.43,7.77,3.47,1.36,8.61,1.06,8.61,1.06l6.18-.12,5.45,3.01s9.32-4.06,9.56-9.56l.24-5.5s-2.63-9.08-2.87-11.95c-.24-2.87,2.15-9.8.72-12.91-1.43-3.11-6.45-4.93-5.98-9.28.48-4.35-.48-6.74-2.63-9.13-2.15-2.39-11.66-7.17-11.66-7.17,0,0-2.44-6.93-2.44-11.71s4.78-19.36-3.59-21.19Z" fill="#ffc4a3"/><path d="M338.83,256.8c.04.07-.84.64-2.29,1.49-1.46.85-3.49,1.99-5.75,3.22-2.26,1.23-4.33,2.31-5.84,3.07-1.51.76-2.46,1.19-2.5,1.12s.84-.64,2.3-1.49c1.46-.85,3.49-1.99,5.75-3.22,2.26-1.23,4.32-2.31,5.83-3.07,1.51-.76,2.46-1.19,2.5-1.12Z" fill="#ffa275"/><path d="M344.26,275.51s-.23.26-.72.65c-.49.39-1.22.91-2.16,1.52-1.87,1.21-4.58,2.7-7.76,3.92-3.18,1.21-6.2,1.92-8.4,2.27-1.1.17-2,.28-2.62.31-.62.04-.97.04-.97,0-.01-.1,1.35-.28,3.51-.73,2.16-.45,5.12-1.21,8.26-2.41,3.14-1.21,5.85-2.61,7.76-3.72,1.91-1.11,3.05-1.88,3.1-1.8Z" fill="#ffa275"/><path d="M351.37,269.56c.15.05-.16,1.12-1.14,2-.98.89-2.06,1.1-2.1.95-.06-.16.83-.6,1.69-1.4.88-.79,1.39-1.63,1.55-1.56Z" fill="#ffa275"/><path d="M347.96,291.91c.02.07-1.28.6-3.47,1.27-2.18.67-5.24,1.43-8.68,1.99-3.44.55-6.59.78-8.87.83-2.28.05-3.69-.04-3.69-.12,0-.09,1.41-.15,3.67-.31,2.26-.16,5.38-.46,8.8-1,3.41-.55,6.47-1.25,8.66-1.81,2.2-.56,3.55-.94,3.58-.86Z" fill="#ffa275"/><path d="M355.53,290.53c-.08-.05.28-.68.64-1.77.36-1.08.66-2.67.45-4.39-.21-1.72-.87-3.19-1.47-4.16-.6-.98-1.1-1.51-1.04-1.57.05-.05.66.37,1.39,1.33.72.95,1.5,2.48,1.72,4.33.22,1.84-.17,3.52-.65,4.61-.48,1.1-.98,1.66-1.04,1.62Z" fill="#ffa275"/><path d="M348.39,308.67c.01.07-1.1.39-2.94.69-1.84.31-4.42.57-7.28.57-2.86-.01-5.44-.29-7.28-.61-1.84-.32-2.95-.64-2.94-.71.02-.09,1.16.08,3,.29,1.84.21,4.39.42,7.22.43,2.82,0,5.38-.19,7.22-.39,1.84-.2,2.98-.36,3-.27Z" fill="#ffa275"/><path d="M333.69,243.41c.03.06-.37.37-1.15.65-.77.28-1.92.47-3.17.33-1.25-.15-2.33-.61-3.01-1.06-.69-.45-1.01-.85-.96-.9.1-.15,1.68,1.11,4.04,1.37,2.36.3,4.18-.55,4.25-.38Z" fill="#ffa275"/><path d="M357.25,291.23s.1.31.13.89c.02.58-.06,1.43-.29,2.44-.22,1.01-.61,2.18-.97,3.48-.35,1.29-.69,2.74-.43,4.22.2,1.46,1.3,2.65,1.47,4.14.2,1.46-.38,2.7-.91,3.58-.55.89-1.1,1.53-1.5,1.95-.39.42-.64.63-.67.61-.09-.07.8-1.02,1.79-2.77.46-.87.93-2.03.73-3.29-.14-1.26-1.25-2.44-1.51-4.12-.28-1.64.11-3.17.49-4.47.4-1.31.82-2.45,1.09-3.43.58-1.95.47-3.23.57-3.23Z" fill="#ffa275"/><path d="M360.36,298.5s.18.38.39,1.09c.21.71.48,1.75.75,3.05.25,1.3.51,2.87.55,4.65.04,1.76-.14,3.78-1.05,5.67-.93,1.87-2.27,3.33-3.56,4.53-1.3,1.2-2.58,2.14-3.68,2.89-1.1.75-2.02,1.3-2.67,1.66-.65.36-1.02.54-1.04.51-.05-.08,1.34-.95,3.46-2.52,1.05-.79,2.29-1.75,3.54-2.94,1.24-1.2,2.52-2.63,3.4-4.39.85-1.77,1.04-3.69,1.03-5.4-.01-1.73-.22-3.28-.42-4.58-.43-2.6-.81-4.19-.72-4.22Z" fill="#643f92"/><path d="M272.99,259.96s-.5-.33-1.34-1c-.92-.76-2.09-1.73-3.51-2.9-.74-.63-1.55-1.3-2.4-2.03-.43-.36-.87-.74-1.37-.98-.49-.25-1.05-.31-1.55-.05-1,.52-1.67,1.81-2.52,2.87-.82,1.11-1.68,2.26-2.55,3.44-1.4,1.87-2.75,3.67-3.99,5.33l-.75,1,.24-1.23c.81-4.19,1.95-7.69,2.88-10.1.47-1.21.88-2.15,1.18-2.79.3-.64.48-.97.51-.96.03.01-.09.38-.34,1.04-.24.66-.6,1.62-1.02,2.84-.84,2.44-1.89,5.93-2.65,10.09l-.51-.22c1.23-1.67,2.57-3.47,3.96-5.35.88-1.17,1.73-2.32,2.56-3.43.42-.55.82-1.1,1.22-1.63.41-.53.88-1.07,1.53-1.39.66-.34,1.46-.22,2.02.08.58.3,1.03.71,1.46,1.08.84.74,1.63,1.44,2.36,2.08,1.36,1.23,2.5,2.25,3.38,3.05.79.73,1.21,1.15,1.19,1.18Z" fill="#643f92"/><path d="M321.88,250.17s-.14.16-.45.4c-.37.29-.82.64-1.37,1.07-1.27.96-3,2.26-5.1,3.84-4.41,3.25-10.39,7.65-17.04,12.54l-.26.19-.17-.27c-.13-.21-.28-.44-.42-.66-3.14-4.95-6.07-9.58-8.55-13.5l.31.1c-4.09,1.63-7.3,3.41-9.49,4.73-1.1.66-1.94,1.21-2.52,1.58-.57.38-.89.57-.9.55-.02-.02.26-.26.81-.68.55-.41,1.37-1,2.45-1.71,2.15-1.41,5.35-3.27,9.46-4.96l.2-.08.12.18c2.5,3.9,5.46,8.51,8.62,13.45.14.23.29.45.42.66l-.43-.08c6.68-4.83,12.7-9.18,17.14-12.39,2.15-1.52,3.91-2.77,5.21-3.69.58-.39,1.05-.72,1.43-.98.33-.22.51-.32.52-.31Z" fill="#643f92"/><path d="M217.97,296.22s.04.28.06.82c.02.6.04,1.37.06,2.34.04,2.1.09,5.03.16,8.62.14,7.28.43,17.32.81,28.42.38,11.1.6,21.16.63,28.44.01,3.64,0,6.59-.03,8.62-.02.97-.04,1.75-.05,2.34-.02.54-.04.82-.06.82s-.04-.28-.06-.82c-.02-.6-.04-1.37-.06-2.34-.04-2.1-.09-5.03-.16-8.62-.14-7.28-.43-17.33-.81-28.43-.38-11.1-.6-21.16-.63-28.44-.01-3.64,0-6.59.03-8.62.02-.97.04-1.75.05-2.34.02-.54.04-.82.06-.82Z" fill="#643f92"/><path d="M273.37,400.81s-.03-.11-.06-.33c-.03-.26-.07-.58-.11-.98-.09-.91-.21-2.18-.37-3.79-.32-3.29-.69-8.06-1.06-13.95-.38-5.9-.69-12.93-.89-20.74-.17-7.81-.21-16.4-.03-25.42.21-9.02.62-17.6,1.13-25.4.54-7.8,1.15-14.81,1.79-20.68.63-5.88,1.2-10.62,1.67-13.89.23-1.6.41-2.86.54-3.77.06-.4.11-.72.15-.98.04-.22.06-.33.07-.33.01,0,0,.12-.01.34-.02.26-.06.58-.09.99-.1.91-.24,2.17-.42,3.78-.39,3.28-.9,8.03-1.48,13.91-.58,5.88-1.15,12.88-1.66,20.67-.48,7.79-.88,16.37-1.08,25.38-.18,9.01-.16,17.59-.02,25.39.17,7.8.43,14.83.76,20.73.31,5.9.62,10.67.87,13.96.11,1.61.2,2.88.26,3.8.02.41.04.73.05.99,0,.22,0,.34,0,.34Z" fill="#643f92"/><path d="M238.87,211.28s-.41.29-1.22.82c-.82.54-2.04,1.32-3.62,2.35-1.59,1.04-3.43,2.5-5.67,4.13-1.11.84-2.22,1.84-3.45,2.85-.61.51-1.24,1.04-1.89,1.59-.64.56-1.25,1.18-1.91,1.8-5.26,4.9-11.24,11.48-16.75,20.1-.68,1.09-1.36,2.19-2.06,3.31-.73,1.11-1.29,2.33-1.96,3.52-.63,1.21-1.33,2.41-1.93,3.68-.58,1.28-1.18,2.58-1.78,3.9-.29.66-.62,1.32-.89,2-.26.69-.52,1.38-.79,2.08-.52,1.4-1.08,2.8-1.59,4.24-.86,2.94-1.94,5.9-2.58,9.05-1.6,6.23-2.49,12.95-2.85,19.95-.4,7.01.01,14.35,1.22,21.81,2.44,14.9,8.32,30.42,18.31,44.21,9.86,13.83,23.8,25.87,40.54,33.77,16.7,7.96,36.25,11.4,55.77,9.37,19.55-2.03,37.86-9.72,52.53-20.97,3.7-2.78,7.09-5.88,10.36-9.03.79-.82,1.57-1.64,2.35-2.45.79-.81,1.55-1.64,2.28-2.5.74-.85,1.47-1.7,2.2-2.54.69-.88,1.38-1.75,2.07-2.63,5.5-7,9.85-14.64,13.28-22.41,3.42-7.79,5.69-15.82,7.09-23.75.72-3.96,1.11-7.92,1.38-11.82.12-1.95.12-3.89.19-5.81-.04-1.92-.14-3.83-.21-5.72-.04-.94-.07-1.89-.11-2.82-.06-.93-.21-1.86-.31-2.78-.22-1.84-.44-3.67-.66-5.48-.29-1.8-.7-3.56-1.04-5.32-.36-1.75-.66-3.5-1.21-5.18-.49-1.69-.97-3.36-1.44-5.01-.21-.83-.51-1.64-.82-2.43-.3-.8-.6-1.59-.89-2.38-.62-1.57-1.12-3.16-1.81-4.65-.7-1.49-1.39-2.97-2.07-4.42-5.59-11.6-12.77-20.98-19.98-28.22-7.23-7.25-14.51-12.34-20.64-16.09-1.56-.9-3.04-1.74-4.42-2.54-.68-.42-1.38-.74-2.06-1.06-.67-.32-1.32-.63-1.95-.93-1.25-.6-2.41-1.15-3.46-1.65-1.05-.53-2.07-.83-2.94-1.2-1.76-.68-3.11-1.2-4.02-1.56-.91-.35-1.37-.55-1.37-.55,0,0,.47.16,1.39.49.92.34,2.28.85,4.05,1.51.88.36,1.91.65,2.96,1.17,1.06.5,2.22,1.04,3.48,1.63.63.29,1.28.6,1.96.92.68.31,1.38.63,2.07,1.05,1.39.79,2.87,1.63,4.44,2.52,6.16,3.72,13.48,8.79,20.76,16.05,7.25,7.24,14.48,16.63,20.12,28.27.69,1.46,1.38,2.94,2.09,4.44.7,1.5,1.21,3.1,1.83,4.67.3.79.6,1.59.9,2.39.31.8.61,1.6.83,2.44.48,1.66.97,3.34,1.46,5.03.55,1.68.86,3.44,1.22,5.2.34,1.76.76,3.53,1.06,5.34.22,1.82.45,3.66.67,5.51.1.93.26,1.85.31,2.79.04.94.08,1.89.12,2.83.07,1.9.18,3.81.22,5.74-.06,1.93-.06,3.88-.18,5.84-.26,3.92-.65,7.89-1.37,11.88-1.39,7.97-3.67,16.05-7.1,23.88-3.44,7.81-7.8,15.49-13.33,22.54-.69.88-1.39,1.76-2.08,2.64-.74.85-1.47,1.7-2.21,2.56-.73.87-1.49,1.7-2.29,2.51-.79.82-1.57,1.64-2.36,2.47-3.28,3.18-6.69,6.29-10.41,9.09-14.74,11.32-33.16,19.06-52.83,21.1-19.63,2.04-39.29-1.43-56.09-9.44-16.83-7.96-30.84-20.07-40.74-33.99-10.03-13.87-15.92-29.48-18.35-44.45-1.2-7.5-1.61-14.87-1.19-21.91.37-7.04,1.27-13.78,2.9-20.03.66-3.17,1.75-6.14,2.62-9.08.52-1.45,1.08-2.85,1.61-4.25.27-.7.53-1.39.8-2.08.27-.69.6-1.34.9-2,.61-1.32,1.21-2.62,1.8-3.91.61-1.28,1.31-2.48,1.95-3.69.67-1.19,1.24-2.42,1.97-3.53.7-1.12,1.4-2.23,2.08-3.32,5.55-8.64,11.57-15.21,16.87-20.09.66-.61,1.28-1.24,1.92-1.79.65-.54,1.29-1.07,1.9-1.58,1.24-1.01,2.36-2.01,3.47-2.84,2.26-1.62,4.11-3.07,5.72-4.09,1.6-1.01,2.82-1.78,3.65-2.31.82-.52,1.26-.77,1.26-.77Z" fill="#643f92"/><path d="M399.21,6.43c-38.61,0-69.92,31.3-69.92,69.92,0,20.18,8.56,38.35,22.23,51.11l-11.45,26.1,33.33-12.23c7.99,3.17,16.69,4.94,25.8,4.94,38.61,0,69.92-31.3,69.92-69.92S437.82,6.43,399.21,6.43Z" fill="#fff"/><path d="M379.53,56.96c.29,1.05.84,2.02,1.59,2.82-1.12.42-2.1,1.15-3.06,1.88-4.38,3.3-8.81,6.68-13.9,8.71.18-.07-.48-1.99-.55-2.18-.36-.9-.56-.99.42-1.31,1.44-.48,2.87-.94,4.26-1.57,2.74-1.23,5.31-2.84,7.61-4.77,1.3-1.09,2.52-2.28,3.64-3.57Z" fill="#e7374c"/><path d="M416.02,56.96c-.29,1.05-.84,2.02-1.59,2.82,1.12.42,2.1,1.15,3.06,1.88,4.38,3.3,8.81,6.68,13.9,8.71-.18-.07.48-1.99.55-2.18.36-.9.56-.99-.42-1.31-1.44-.48-2.87-.94-4.26-1.57-2.74-1.23-5.31-2.84-7.61-4.77-1.3-1.09-2.52-2.28-3.64-3.57Z" fill="#e7374c"/><path d="M389.7,87.15c.16.53.19,1.05.21,1.61.02.43.22,2.97.23,3.42.11,8.96,1.71,23.72,2.23,29.86.11,1.25.37,2.29.13,3.37-.06.27-.14.54-.21.8-.19.67-.39,1.36-.3,2.07l.47.03-.26.02c1.24-1.54,1.59-3.48,1.67-4.83.09-1.72.48-3.58.22-5.24-.23-1.46-.84-2.9-.81-4.41.04-1.52.07-3.1-.16-4.58-.17-1.06-.46-2.11-.74-3.13-.56-2.04-1.02-17.49-.63-19.52.04-.19.15-.52.35-.49.06,0,.12.05.19.1l.03.02c.67.46,1.62.51,2.55.15.81-.32,1.49-.88,2.14-1.42l.09-.08-.33-.38c.05-.18.16-.31.29-.46.13-.15.26-.3.33-.51.04-.11.08-.21.16-.26.16-.1.39.09.5.26.21.32.35.7.48,1.08.19.54.39,1.11.84,1.5.51.45,1.26.61,2.24.48.23-.03.47-.07.69-.11.5-.09,1.02-.18,1.52-.14.14.01.31.03.43.13.18.15.2.45.2.69-.02,1.16-1.45,15.71-1.7,16.83l-.5,4.47c-.5,2.3-.27,4.41-.32,6.71-.04,1.57-.39,3.26-.57,4.85-.28,2.48.43,5.09,1.74,7.3.15.25.1.06.39.07.15,0,.28-.05.36-.18.1-.13.08-.02.07-.18-.03-.64-.15-.8-.3-1.4-.08-.31-.16-.63-.22-.95-.26-1.3-.23-2.64-.18-4.01.17-4.76.63-9.57,1.35-14.28.24-1.54.7-16.64,1.07-18.15.2-.81.41-1.65.58-2.46.39-1.78.76-3.81.98-5.66.13-1.13.2-2.29.26-3.42.18-3.09.36.79,1.88-1.9.41-.73.8-1.5,1.17-2.24.51-1.02,1.04-2.08,1.65-3.05.18-.29.37-.58.56-.87.48-.73.97-1.49,1.35-2.3.5-1.05.81-2.18,1.12-3.28.17-.62.48-1.24.79-1.84.53-1.06,1.08-2.15.92-3.3-.05-.37.12-.65.28-.82.32-.35.84-.56,1.32-.54.71.03,1.36.4,1.99.75.12.07.24.13.36.2,1.54.83,2.99,1.15,4.3.97,1.09-.16,2.08-.67,3.04-1.16.43-.22.88-.45,1.33-.65,2.08-.9,4.45-1.09,6.65-.55.34.08.68.19,1.01.29.55.16,1.11.34,1.69.43,1.29.21,2.61.02,3.88-.16.22-.03.44-.06.66-.09.83-.11,2-.17,2.59.57.51.64.4,1.64-.32,2.95-.61,1.11-1.48,2.4-2.81,2.57-.26.03-.54.02-.81,0-.36-.02-.73-.04-1.09.06-.42.1-.8.45-.93.85-.09.27-.05.54.11.75.12.15.29.26.54.35.37.13.77.17,1.16.22.61.07,1.18.13,1.6.5.54.47.62,1.26.7,2.03.01.14.03.28.05.42.14,1.09.52,2.16,1.12,3.09.11.17.25.37.46.48.21.11.45.11.69.01.33-.14.63-.49.74-.86.09-.32.1-.65.11-.97,0-.24,0-.49.05-.72.17-.96.95-1.68,1.69-2.37.17-.16.35-.33.52-.49.74-.73,1.35-1.57,1.82-2.49,1.14-2.24,1.3-4.89.43-7.08-.76-1.91-2.22-4.21-4.89-4.32-2.95-.12-5.94-.19-8.89-.2-3.67,0-7.55.11-10.93,1.6-.07.03-.14.06-.21.09-.53.24-1.09.49-1.66.47-.52-.02-1.02-.26-1.46-.47-.94-.45-1.91-.92-2.68-1.64-.39-.36-.72-.79-1.05-1.21-.24-.3-.48-.62-.74-.9-.67-.73-1.48-1.32-2.27-1.89l-2.17-1.58-.25-.3s-.06-.05-.09-.07c-4.56-2.92-9.81-4.71-15.21-5.16-7.69-.64-15.14,1.57-20.43,6.06-1.65,1.4-2.91,3.14-3.53,4.89-.41.27-.7.67-.99,1.05-.24.32-.49.66-.8.9-.94.74-2.31.58-3.4.36-.84-.17-1.7-.39-2.53-.6-2.36-.6-4.81-1.23-7.25-.89-.38.05-.76.13-1.13.2-.91.18-1.85.37-2.76.2-.47-.09-.93-.27-1.37-.44-.32-.13-.66-.26-1-.36-1.5-.43-3.13-.18-4.44.02-.8.12-1.7.26-2.51.62-.85.38-1.49,1.03-1.79,1.82-.53,1.4-1.08,2.85-1.18,4.39-.16,2.52.62,4.99,2.26,7.12.33.43.71.72,1.09,1.01.27.21.53.41.77.65.53.55.59,1.14.66,1.83.03.26.06.53.11.8.14.69.41.81.61.8.43-.03.77-.74.8-1.35.02-.43,0-.86-.03-1.28-.05-.87-.1-1.68.22-2.51.49-1.27,1.25-1.81,2.56-1.82.93,0,2.09-.1,2.26-.55.07-.18,0-.38-.23-.59-.23-.22-.89-.27-1.52-.32-.34-.03-.65-.05-.82-.1-1.18-.34-2.07-.98-2.73-1.96-.91-1.36-.62-2.77.2-3.35.68-.48,1.29-.29,2.01-.08.11.03.23.07.35.1,1.23.34,2.14.29,3.39.07.53-.09,1.07-.2,1.59-.31,2.48-.5,5.05-1.02,7.45-.13.47.17.93.41,1.43.67.9.47,1.83.95,2.8,1.01,1.4.1,3.11-.42,4.48-.84.18-.06.36-.11.53-.16.23-.07.46-.15.68-.22,1.03-.35,2-.67,3.04-.14,1.22.62,1.43,1.66,1.68,2.86.05.22.09.45.15.68.18.74.31,1.51.45,2.26.32,1.8.66,3.66,1.53,5.28l-.03.02.17.24h.02c1.2,1.48,2.55,3.34,4,5.52.72,1.09,1.46,2.26,1.85,3.58" fill="#ff8acd"/><path d="M352.77,63.94c.01.2.03.41.04.61,0,0-.02,0-.03.01.06.05.11.09.17.14l-.18-.77Z" fill="#fbd3d8"/><path d="M442.42,63.7l-.18.77c.06-.05.11-.09.17-.14,0,0-.02,0-.03-.01.01-.2.03-.41.04-.61Z" fill="#fbd3d8"/><path d="M373.56,53.82s5.86-13.83,24.17-14.13c13.85-.23,25,13.68,25,13.68,0,0-11.72-9.73-24.92-9.76-13.45-.02-24.26,10.21-24.26,10.21Z" fill="#fbd3d8"/><path d="M396.78,78.22c-.69.81-1.83,1.3-2.92,1.1-.53-.09-1.04-.32-1.57-.31-1.58.01-1.03,1.62-.89,2.5.21,1.35.06,22.69.28,24.04.26,1.63.51,3.26.66,4.9.1,1.13.14,2.27.34,3.39.19,1.08.51,2.13.71,3.21.47,2.49.3,5.05,0,7.57-.11.9-.28,2.03-.85,2.79-.27.36-.07.87.36.97.07.02.13.03.2.05.74.21,1.53.37,2.28.22.76-.15,1.47-.69,1.58-1.41.74.96,2.01,1.53,3.28,1.47,1.26-.06,2.47-.75,3.1-1.76-.74-1.14-1.19-2.44-1.41-3.77-.35-2.18-.07-4.4.2-6.59.68-5.33,2.33-30.58,3.51-35.84.12-.55-.43-1.34-.97-1.59-.39-.19-.86,0-1.28.13-1.56.48-3.55-.2-4.04-1.65-.1-.28-.13-.58-.21-.87l-2.01-.21" fill="#fbd3d8"/><path d="M399.37,76.27c-.22,0-.4-.16-.42-.38-.14-1.58-.19-3.18-.14-4.77.02-.72.07-1.47.39-2.15.04-.07.07-.15.11-.22.08-.15.15-.28.18-.41.02-.11-.01-.21-.03-.22-.17-.08-.26-.26-.23-.44.03-.18.17-.33.36-.35.09-.01.2-.23.21-.5,0-.06,0-.12,0-.18.01-.36.03-.81.33-1.16.02-.03.05-.05.07-.08,0,0,0,0,.01-.01,0-.02-.02-.05-.03-.07-.06-.14-.15-.34-.1-.59.07-.35.37-.53.56-.64.02-.01.05-.03.08-.05-.02-.04-.05-.09-.07-.15-.2-.52.2-.95.44-1.2l.07-.08s.07-.12.08-.17c-.12-.06-.2-.18-.21-.32-.02-.18.08-.36.25-.43.33-.15.51-.35.51-.42h0s0-.02-.03-.04c-.13-.14-.2-.31-.2-.49,0-.45.39-.59.54-.64-.02-.12-.05-.29,0-.48.08-.24.27-.37.4-.45.03-.02.06-.04.09-.06.08-.07.11-.25.14-.44.02-.1.03-.19.05-.28.07-.32.29-.62.55-.77-.04-.32.07-.54.2-.68.18-.19.42-.23.58-.26.05,0,.13-.02.15-.04,0-.01.03-.09.05-.14.03-.09.06-.18.12-.28.12-.2.37-.27.57-.16.2.12.27.37.16.57-.02.03-.04.09-.06.14-.05.15-.12.36-.31.51-.18.15-.38.18-.53.21-.03,0-.07.01-.1.02,0,.04.03.12.1.25.09.17.06.37-.08.5-.12.12-.3.15-.45.08-.04.04-.11.12-.13.22-.02.07-.03.15-.04.23-.05.3-.11.67-.41.94-.06.06-.12.1-.18.13-.02.01-.04.03-.05.04,0,.02,0,.04,0,.05.03.15.08.4-.08.63-.09.14-.22.21-.33.26.11.18.15.39.11.59-.06.33-.31.59-.55.76.08.35-.08.75-.28.98l-.08.08c-.09.09-.25.27-.26.34,0,0,.02.02.03.04.05.08.12.2.14.36.05.46-.33.68-.54.8-.05.03-.11.06-.15.09,0,.03.02.06.03.08.07.16.17.39.08.67-.05.16-.15.26-.22.33-.01.01-.03.03-.04.04-.11.13-.12.38-.13.65,0,.07,0,.14,0,.21-.03.41-.16.74-.37.97.08.22.09.46.05.66-.05.24-.16.45-.26.63-.03.06-.07.12-.1.18-.26.53-.29,1.16-.31,1.81-.04,1.55,0,3.13.14,4.67.02.23-.15.43-.38.45-.01,0-.02,0-.04,0Z" fill="#ee2e45"/><path d="M397.74,80.8l.24.86c.07.26.14.52.15.78,0,.61-.41,1.14-.42,1.74s.27,1.3.34,1.93" fill="#f77f96"/><path d="M398.04,86.64c-.26,0-.49-.2-.52-.47-.03-.23-.08-.47-.15-.74-.1-.41-.2-.83-.19-1.26,0-.38.13-.72.24-1.02.09-.25.18-.49.18-.71,0-.2-.06-.42-.13-.65l-.24-.86c-.08-.28.09-.57.37-.65.28-.08.57.09.65.37l.24.86c.08.27.16.58.16.92,0,.41-.13.76-.24,1.08-.09.24-.17.47-.18.68,0,.3.08.64.16,1,.07.28.14.57.17.86.03.29-.17.55-.46.58-.02,0-.04,0-.06,0Z" fill="#ef2e45"/><path d="M398.93,87.28c.35,1.35.24.77-.2,2.07-.18.54.1,1.18-.19,1.68" fill="#f77f96"/><path d="M398.54,91.55c-.09,0-.18-.02-.26-.07-.25-.15-.34-.47-.19-.72.08-.14.07-.36.06-.62-.01-.29-.03-.63.09-.96.13-.39.24-.63.31-.78.03-.07.07-.16.07-.18,0-.05-.06-.33-.14-.62l-.05-.2c-.07-.28.1-.57.38-.64.28-.07.57.09.64.38l.05.19c.21.81.25.95,0,1.49-.07.15-.16.35-.27.69-.05.15-.04.36-.03.58.02.35.03.79-.2,1.19-.1.17-.27.26-.45.26Z" fill="#ef2e45"/><path d="M397.72,93.76c.09.3.11.62.06.92" fill="#f77f96"/><path d="M397.77,95.21s-.07,0-.1,0c-.29-.05-.47-.33-.42-.61.04-.22.03-.45-.04-.67-.09-.28.07-.57.34-.66.28-.09.57.07.66.34.12.38.14.79.07,1.18-.05.25-.27.43-.52.43Z" fill="#ef2e45"/><path d="M403.48,127.7c-.16,0-.25-.14-.3-.23-1.41-2.39-2.03-5.03-1.76-7.43.06-.56.15-1.13.23-1.69.15-1.05.31-2.13.34-3.14.02-.65,0-1.29,0-1.91-.02-1.63-.04-3.16.33-4.83l.5-4.49c.25-1.15,1.67-15.71,1.69-16.79h.42c-.02,1.09-1.44,15.63-1.7,16.86l-.5,4.49c-.36,1.63-.34,3.15-.32,4.75,0,.62.01,1.27,0,1.92-.03,1.04-.19,2.13-.34,3.19-.08.55-.17,1.13-.23,1.68-.26,2.31.34,4.85,1.7,7.17.06-.02.13-.03.23-.03.08,0,.14-.02.18-.09.01-.02.02-.03.03-.04,0,0,0,0,0,0-.02-.42-.08-.62-.17-.91-.04-.13-.08-.27-.12-.45-.08-.32-.16-.64-.22-.96-.26-1.33-.24-2.67-.19-4.05.17-4.77.63-9.58,1.35-14.3.1-.64.24-3.83.4-7.2.22-4.72.46-10.08.68-10.97.2-.81.4-1.64.58-2.46.31-1.41.73-3.53.97-5.64.13-1.12.2-2.27.26-3.4.07-1.13.12-1.37.34-1.46.18-.07.31.06.42.17.13.12.23.21.35.19.12-.02.39-.16.81-.9.41-.72.79-1.49,1.16-2.23.52-1.04,1.05-2.1,1.66-3.07.18-.29.37-.59.56-.87.47-.73.96-1.48,1.34-2.28.49-1.04.8-2.16,1.1-3.25.18-.64.49-1.27.8-1.88.52-1.03,1.05-2.09.89-3.17-.07-.45.15-.79.33-1,.36-.4.94-.63,1.48-.61.75.04,1.43.41,2.08.78.12.07.24.13.36.2,1.5.81,2.9,1.12,4.17.94,1.05-.15,2.03-.65,2.97-1.14.44-.23.89-.46,1.35-.65,2.13-.92,4.53-1.11,6.78-.56.34.08.69.19,1.02.29.54.16,1.1.33,1.67.42,1.26.2,2.56.02,3.82-.16.23-.03.45-.06.66-.09.88-.12,2.13-.17,2.78.64.57.72.47,1.79-.3,3.18-.63,1.15-1.54,2.5-2.97,2.68-.28.04-.57.02-.85,0-.35-.02-.7-.03-1.03.05-.34.09-.67.39-.79.71-.07.21-.04.4.08.55.09.12.23.2.44.28.35.12.73.16,1.11.21.61.07,1.25.14,1.72.55.6.53.69,1.36.77,2.17.02.15.03.28.04.41.13,1.06.51,2.1,1.09,3,.1.15.22.32.38.41.16.08.33.08.51,0,.27-.12.53-.41.62-.72.08-.29.09-.61.1-.92,0-.25.01-.5.05-.75.19-1.03.98-1.77,1.76-2.49.17-.16.35-.32.51-.49.72-.71,1.32-1.53,1.78-2.44,1.11-2.19,1.27-4.77.43-6.9-.73-1.85-2.14-4.08-4.7-4.19-2.94-.12-5.93-.19-8.88-.2-3.66-.01-7.5.11-10.84,1.58l-.2.09c-.55.25-1.12.51-1.75.49-.56-.02-1.08-.27-1.54-.49-.95-.46-1.94-.93-2.74-1.67-.4-.37-.74-.81-1.07-1.23-.23-.3-.47-.61-.73-.89-.66-.72-1.46-1.3-2.23-1.86l-2.21-1.62-.25-.3-.05-.02c-4.53-2.9-9.75-4.68-15.11-5.12-7.63-.64-15.03,1.55-20.28,6.01-1.62,1.38-2.86,3.08-3.47,4.8l-.02.07-.06.04c-.38.25-.66.63-.93,1-.25.34-.5.68-.84.94-1.01.79-2.44.63-3.57.4-.85-.17-1.71-.39-2.54-.61-2.34-.6-4.77-1.21-7.17-.88-.37.05-.75.13-1.11.2-.93.18-1.89.38-2.84.2-.49-.09-.96-.28-1.41-.46-.32-.13-.65-.26-.98-.35-1.45-.42-3.06-.17-4.35.03-.78.12-1.67.25-2.46.61-.8.36-1.4.96-1.68,1.7-.53,1.39-1.07,2.82-1.17,4.33-.16,2.47.61,4.89,2.22,6.98.31.41.69.69,1.05.97.28.22.54.42.79.68.58.61.65,1.26.72,1.95.03.25.05.51.11.78.04.19.15.63.38.63,0,0,0,0,.01,0,.28-.02.58-.6.61-1.15.02-.42,0-.85-.03-1.26-.05-.89-.1-1.73.24-2.6.52-1.34,1.36-1.95,2.75-1.95,1.82,0,2.04-.35,2.07-.42.04-.11-.07-.26-.18-.36-.18-.17-.85-.22-1.39-.27-.37-.03-.68-.05-.86-.11-1.22-.35-2.16-1.02-2.84-2.05-.99-1.47-.65-3,.25-3.64.76-.54,1.46-.33,2.19-.11.11.03.23.07.34.1,1.19.33,2.08.28,3.3.07.52-.09,1.06-.2,1.58-.31,2.52-.51,5.12-1.04,7.58-.12.48.18.95.42,1.45.68.88.46,1.8.93,2.72.99,1.37.1,3.05-.42,4.4-.83.18-.06.36-.11.53-.16.23-.07.46-.14.68-.22,1.02-.35,2.08-.7,3.2-.13,1.31.67,1.54,1.8,1.79,3.01.05.23.09.45.15.67.18.74.32,1.52.45,2.27.32,1.79.65,3.64,1.51,5.22l.08.16h0s.06.06.06.06c1.21,1.49,2.56,3.36,4.01,5.55.73,1.1,1.48,2.29,1.87,3.64l-.4.12c-.38-1.29-1.11-2.45-1.82-3.53-1.4-2.11-2.7-3.91-3.87-5.37h0s-.13-.15-.13-.15l-.29-.41.05-.04c-.83-1.61-1.15-3.43-1.47-5.19-.13-.75-.27-1.52-.45-2.25-.05-.22-.1-.45-.14-.67-.25-1.21-.45-2.16-1.57-2.73-.96-.49-1.85-.19-2.87.15-.22.08-.46.15-.69.22-.17.05-.35.1-.53.16-1.38.42-3.11.95-4.55.84-1.01-.07-1.96-.56-2.88-1.04-.49-.25-.95-.49-1.4-.66-2.35-.88-4.88-.36-7.34.13-.53.11-1.07.22-1.6.31-1.28.23-2.22.28-3.49-.08-.12-.03-.24-.07-.35-.1-.69-.21-1.24-.37-1.83.05-.73.52-.99,1.81-.14,3.06.63.94,1.49,1.55,2.61,1.88.14.04.46.07.78.09.71.06,1.37.11,1.65.38.37.34.36.63.28.82-.07.17-.27.67-2.46.68-1.22,0-1.91.49-2.36,1.68-.3.79-.26,1.58-.21,2.43.02.42.05.86.03,1.3-.03.71-.44,1.51-1,1.55-.29.02-.67-.13-.84-.97-.06-.29-.09-.56-.11-.82-.07-.67-.13-1.2-.61-1.7-.22-.23-.48-.43-.74-.63-.38-.3-.78-.6-1.12-1.05-1.67-2.17-2.46-4.69-2.3-7.26.1-1.57.65-3.03,1.19-4.45.32-.84.99-1.53,1.9-1.94.84-.38,1.76-.52,2.57-.64,1.33-.2,2.99-.45,4.53-.01.35.1.69.23,1.01.36.44.18.89.35,1.34.44.87.16,1.79-.02,2.68-.2.35-.07.75-.15,1.14-.2,2.48-.34,4.95.28,7.33.89.83.21,1.68.43,2.52.6,1.04.21,2.35.37,3.22-.32.29-.23.53-.55.76-.86.28-.38.57-.78.98-1.06.65-1.77,1.91-3.51,3.57-4.91,5.34-4.53,12.84-6.75,20.59-6.11,5.42.45,10.71,2.24,15.29,5.18.06.03.12.07.16.12l.23.28,2.15,1.56c.79.58,1.61,1.17,2.3,1.92.27.3.52.61.75.92.32.41.65.83,1.02,1.18.75.7,1.7,1.16,2.63,1.6.42.2.91.43,1.38.45.52.02,1.05-.22,1.56-.45l.21-.09c3.41-1.5,7.31-1.63,11.01-1.62,2.95,0,5.95.07,8.9.2,2.78.12,4.3,2.49,5.07,4.45.89,2.24.72,4.95-.44,7.25-.48.94-1.1,1.8-1.86,2.55-.17.17-.35.33-.52.5-.72.67-1.47,1.36-1.63,2.26-.04.22-.04.45-.05.68,0,.34-.01.68-.11,1.03-.13.43-.46.82-.86.99-.3.13-.6.12-.87-.02-.25-.13-.41-.34-.54-.55-.62-.95-1.02-2.05-1.15-3.17-.02-.13-.03-.27-.04-.41-.08-.74-.15-1.49-.63-1.9-.37-.33-.92-.39-1.49-.45-.4-.04-.81-.09-1.2-.23-.29-.1-.49-.23-.63-.41-.21-.27-.26-.6-.14-.94.16-.47.59-.86,1.08-.98.39-.1.78-.08,1.16-.06.26.01.53.03.77,0,1.24-.16,2.07-1.4,2.66-2.47.68-1.23.79-2.15.34-2.72-.52-.65-1.62-.59-2.4-.49-.21.03-.42.06-.64.09-1.31.18-2.64.37-3.96.16-.59-.09-1.17-.27-1.72-.43-.33-.1-.67-.2-1-.28-2.16-.53-4.47-.34-6.52.54-.44.19-.88.42-1.31.64-.98.5-1.99,1.02-3.11,1.18-1.36.19-2.85-.14-4.43-.99-.12-.06-.24-.13-.36-.2-.61-.34-1.24-.69-1.9-.73-.42-.02-.87.16-1.15.47-.13.14-.27.37-.23.65.18,1.21-.39,2.34-.94,3.42-.3.59-.61,1.21-.77,1.81-.31,1.1-.62,2.25-1.13,3.31-.39.82-.88,1.58-1.36,2.32-.19.29-.38.58-.56.87-.6.96-1.12,2.01-1.64,3.03-.38.75-.76,1.52-1.18,2.25-.4.71-.75,1.06-1.12,1.11-.3.04-.51-.13-.65-.26-.03.16-.06.45-.09.96-.07,1.14-.13,2.3-.27,3.43-.25,2.13-.67,4.26-.98,5.68-.18.82-.39,1.66-.59,2.47-.21.85-.46,6.42-.67,10.89-.16,3.53-.3,6.58-.4,7.24-.72,4.7-1.17,9.5-1.35,14.26-.05,1.35-.07,2.68.18,3.96.06.31.14.62.21.92.05.19.09.33.12.45.09.3.16.53.18,1.01,0,.03,0,.05,0,.06,0,.04.01.14-.09.22,0,0-.02.02-.03.03-.13.18-.33.27-.54.26-.07,0-.09,0-.13.02-.05.02-.1.03-.14.03Z" fill="#643f92"/><path d="M392,128.6l.09-.12h-.02s-.02-.17-.02-.17c-.1-.75.1-1.47.3-2.16.08-.26.15-.53.21-.79.17-.76.08-1.5-.03-2.35-.04-.31-.08-.63-.11-.96-.12-1.37-.28-3.16-.48-5.23-.66-7.04-1.66-17.67-1.75-24.65,0-.27-.08-1.37-.15-2.26-.04-.53-.07-.99-.08-1.15-.03-.54-.05-1.06-.21-1.56l.4-.12c.17.55.19,1.09.22,1.66,0,.16.04.61.08,1.14.06.89.15,2,.15,2.28.09,6.96,1.09,17.58,1.75,24.61.2,2.07.36,3.86.48,5.23.03.33.07.64.1.95.11.85.2,1.66.02,2.49-.06.27-.14.55-.22.81-.17.58-.34,1.17-.31,1.76,1.1-1.47,1.41-3.26,1.48-4.53.03-.54.09-1.09.14-1.63.12-1.2.25-2.44.08-3.57-.08-.53-.22-1.07-.36-1.6-.23-.92-.48-1.86-.45-2.84.04-1.51.07-3.08-.15-4.54-.16-1.05-.45-2.09-.73-3.1-.56-2.02-1.05-17.42-.63-19.62.07-.35.26-.71.59-.66.11.01.2.08.28.13l.03.02-.24.35-.03-.02s-.07-.05-.09-.06c-.03.03-.1.15-.13.32-.4,2.09.1,17.52.62,19.42.28,1.02.57,2.08.74,3.15.23,1.5.2,3.09.16,4.62-.02.92.21,1.84.44,2.73.14.53.28,1.09.36,1.64.18,1.18.05,2.45-.08,3.68-.06.53-.11,1.08-.14,1.61-.07,1.34-.41,3.24-1.6,4.8v.2s-.76.07-.76.07Z" fill="#643f92"/><path d="M385.21,52.73c-.59-.27-1.27-.14-1.9-.02-1.37.28-2.75.55-4.12.83-.83.17-1.66.33-2.47.58-1.06.33-2.07.79-3.15,1.05-1.36.33-2.79.32-4.14-.02-1.69-.43-3.24-1.36-4.96-1.61-1.81-.26-3.64.25-5.47.32-2.06.08-4.1-.42-6.16-.54-2.06-.11-4.3.23-5.76,1.68-1.76,1.75-1.88,4.65-.95,6.96.93,2.3,2.71,4.14,4.44,5.91.14.15.32.31.53.27.13-.02.23-.11.31-.21.9-1.02.81-2.88,2.04-3.42-.76-.64-1.52-1.28-2.28-1.92-.81-.68-1.65-1.41-1.99-2.41-.22-.65-.21-1.35-.2-2.04.01-.66.04-1.38.45-1.9.48-.61,1.33-.78,2.11-.83,2.34-.15,4.69.34,7.03.14,1.21-.11,2.41-.4,3.63-.4,3.6.01,7.01,2.6,10.54,1.88.87-.18,1.68-.55,2.5-.87,2.75-1.07,5.71-1.6,8.66-1.56.43.24,1,.25,1.51.15.07-.01,6.29.68,6.36.66l.05-1.61c-.12-.17-6.43-1.01-6.61-1.1Z" fill="#fbd3d8"/><path d="M449.46,54.77c-1.46-1.45-3.7-1.8-5.76-1.68s-4.1.61-6.16.54c-1.83-.07-3.66-.59-5.47-.32-1.72.25-3.27,1.19-4.96,1.61-1.35.34-2.79.35-4.14.02-1.08-.26-2.09-.73-3.15-1.05-.81-.25-1.64-.42-2.47-.58-1.37-.28-2.75-.55-4.12-.83-.63-.13-1.31-.25-1.9.02-.18.08-.34.22-.46.38-.45.05-7.31,1.05-7.76,1.14-.06-.06-.12-.12-.19-.18l.77,2.37c1.02-.41,8.49-1.64,9.57-1.82,2.74.04,5.47.57,8.03,1.56.82.32,1.63.69,2.5.87,3.53.72,6.94-1.87,10.54-1.88,1.22,0,2.42.29,3.63.4,2.34.2,4.69-.29,7.03-.14.78.05,1.63.22,2.11.83.41.52.44,1.24.45,1.9.01.69.02,1.39-.2,2.04-.34,1-1.19,1.73-1.99,2.41-.76.64-1.52,1.28-2.28,1.92,1.24.54,1.15,2.4,2.04,3.42.09.1.19.19.31.21.2.03.38-.13.53-.27,1.74-1.77,3.51-3.61,4.44-5.91.93-2.3.81-5.21-.95-6.96Z" fill="#fbd3d8"/><path d="M405.64,53.43c-.01.22-.36.19-.52.04-.16-.15-.35-.36-.55-.27-.08.03-.14.11-.21.16-.2.11-.43-.03-.63-.12-.21-.09-.53-.07-.55.16-.09-.44-.82-.54-1.03-.13-.2-.2-.4-.41-.6-.61-.04.34-.6.49-.77.15-.04-.07-.09-.13-.17-.16-.19-.06-.24.14-.34.26-.27.31-.75-.04-.99-.37.03.27-.3.48-.57.41-.27-.06-.46-.29-.61-.52-.08.22-.24.41-.44.52l-.38-.45c-.23.37-.85.41-1.12.07-.14.23-.28.46-.43.7l-.48-.58c-.17.08-.3.26-.31.45-.27-.03-.52-.18-.67-.4-.18.48-.92.61-1.26.23.05.22-.16.42-.38.45-.22.03-.43-.05-.64-.14.1.23-.23.42-.48.39-.25-.03-.51-.15-.73-.04-.13.07-.2.2-.32.29-.29.22-.64.1-.99-.06-.02-.03-.04-.06-.06-.09l-.03,1.12c.13-.02.25-.04.38-.01.2.04.35.18.5.32.58.54,1.16,1.07,1.74,1.61.33.3.66.61.94.95-.06-.03-.18.02-.19.1-.02.11.06.2.13.28.55.61,1.12,1.29,1.2,2.11.01.16.01.32.09.46.2.35.82.36.89.76.06.33-.35.59-.33.92.03.36.51.51.6.86.05.2-.04.41,0,.6.02.13.1.23.17.34.14.23.25.47.35.72.27.64.49,1.29.67,1.96.19.71.33,1.43.47,2.14.29,1.49.58,3.01.37,4.5-.16,1.13-.61,2.27-.3,3.37.22.8.86,1.7.64,2.51-.02.09-.06.19-.1.28l1.39.15c-.03-.13-.07-.25-.14-.37-.07-.11-.18-.21-.3-.27.11-.57.44-1.3.58-1.89.12-.52.07-1.07.02-1.61-.14-1.57-.18-3.15-.14-4.72.02-.68.06-1.37.35-1.98.12-.24.27-.46.33-.72.06-.26-.02-.57-.26-.69.38-.05.55-.51.58-.89.02-.38,0-.81.24-1.1.06-.08.15-.14.18-.23.08-.23-.18-.46-.14-.7.07-.36.74-.4.69-.76-.01-.11-.1-.2-.14-.31-.12-.31.2-.6.43-.85.23-.25.3-.76-.03-.82.47-.21,1.04-.69.61-1.13-.05-.05-.09-.12-.09-.2,0-.28.39-.21.52-.4.11-.17-.05-.4.01-.59.05-.16.24-.23.37-.34.25-.23.24-.62.32-.95.08-.33.41-.68.71-.51-.13-.23-.24-.55-.06-.74.17-.18.5-.1.69-.26.16-.13.17-.36.27-.54.1-.17.27-.28.44-.38.42-.25.87-.46,1.32-.64l-.53-1.64c-.06-.06-.12-.12-.19-.18Z" fill="#fbd3d8"/><path d="M397.58,74.09s-.04,0-.06,0c-.23-.03-.39-.25-.36-.48.21-1.44-.08-2.93-.36-4.36-.14-.7-.28-1.43-.47-2.12-.17-.65-.39-1.29-.65-1.91-.09-.22-.2-.45-.32-.66l-.02-.04c-.07-.11-.16-.26-.2-.44-.03-.16-.01-.31,0-.43,0-.06.02-.13,0-.16-.01-.04-.11-.14-.18-.2-.17-.16-.41-.38-.43-.73-.02-.3.12-.53.23-.7.03-.05.08-.13.1-.18-.04-.04-.15-.09-.22-.13-.21-.1-.46-.23-.62-.5-.11-.2-.12-.39-.14-.55v-.08c-.07-.68-.56-1.27-1.1-1.86-.09-.09-.29-.31-.24-.62,0-.02,0-.05.02-.07-.2-.21-.42-.41-.64-.61l-1.74-1.61c-.17-.16-.18-.42-.02-.59.16-.17.42-.18.59-.02l1.74,1.61c.31.29.67.62.98.99.12.14.13.34.04.49.58.64,1.12,1.35,1.2,2.24v.09c.01.07.02.17.04.2.03.05.16.12.26.17.24.12.6.3.67.73.06.33-.1.58-.22.76-.04.06-.1.16-.1.2.01.03.11.12.17.18.16.15.35.33.42.61.04.18.02.34,0,.47,0,.06-.02.13-.01.16,0,.03.05.1.09.16l.03.04c.16.26.28.53.38.78.27.65.5,1.33.69,2.01.19.72.34,1.45.48,2.17.28,1.44.6,3.07.37,4.65-.03.21-.21.36-.42.36ZM392.97,58.27s0,0,0,0c0,0,0,0,0,0Z" fill="#ee2e45"/><path d="M390.32,54.61c-.32,0-.62-.13-.8-.22-.21-.1-.3-.34-.21-.56s.34-.3.56-.21c.36.17.49.16.56.11.02-.01.05-.05.08-.08.07-.07.16-.18.3-.25.3-.16.6-.09.82-.04.06.01.11.03.17.03h0c0-.1.05-.19.12-.26.12-.12.3-.16.46-.09.14.06.3.13.41.11,0,0,.01,0,.02,0-.01-.16.08-.32.23-.4.17-.09.38-.05.5.09.06.07.18.1.3.07.12-.02.22-.09.26-.18.06-.15.19-.25.34-.27.16-.02.31.05.4.18.03.04.06.07.09.1.09-.13.22-.23.36-.3.17-.08.38-.03.5.11l.11.13.12-.19c.07-.12.2-.19.33-.2.14,0,.27.05.35.16.04.05.13.08.22.08.09,0,.18-.05.21-.1.07-.11.19-.19.33-.2.13,0,.27.05.35.15l.08.1s.01-.03.02-.04c.05-.15.19-.26.35-.28.16-.02.31.06.4.19.13.2.25.32.35.34.01,0,.04,0,.06-.01,0-.17.11-.32.27-.38.18-.07.38-.01.49.14.12.17.28.27.36.31,0,0,0,0,0-.01.2-.31.45-.43.75-.34.17.05.31.17.4.33,0,0,0,0,0,0,.03-.15.13-.27.28-.32.15-.05.32-.01.44.1l.32.33c.17-.08.37-.12.59-.09.19.02.36.1.5.2.23-.06.48-.02.64.06.03.01.06.03.09.04.05.02.14.06.19.08,0,0,0,0,0,0,.05-.04.13-.11.23-.16.43-.18.77.13.95.3h0s.08-.06.13-.08c.15-.06.33-.02.45.09l.19.18c.17.16.17.43,0,.59-.13.14-.34.16-.5.07-.26.07-.58-.01-.79-.2l-.06-.05s-.06-.06-.1-.09c-.03.03-.07.05-.12.08-.36.2-.72.04-.93-.06l-.08-.04s-.02,0-.03,0c-.07.12-.19.19-.34.2-.21,0-.39-.13-.43-.33,0-.01-.05-.04-.12-.05-.07,0-.12.01-.13.02-.06.12-.18.21-.31.23-.13.02-.27-.02-.36-.12l-.27-.27c-.09.06-.2.1-.32.12-.27.05-.52-.03-.7-.2-.15.16-.36.24-.58.24-.22,0-.44-.1-.62-.24-.22.15-.49.21-.75.16-.19-.04-.35-.13-.48-.24-.08.08-.17.14-.26.2-.18.1-.4.06-.53-.09l-.11-.13c-.14.07-.3.12-.47.13-.16,0-.32-.01-.47-.07l-.2.33c-.07.12-.19.19-.33.2-.14,0-.27-.05-.35-.15l-.13-.16s-.04.05-.07.08c-.09.07-.2.11-.32.1-.2-.02-.4-.09-.58-.2-.15.12-.34.2-.54.24-.2.04-.39.03-.57-.02-.14.14-.32.24-.52.27-.16.02-.31,0-.45-.02-.19.2-.5.31-.78.27-.08-.01-.16-.03-.24-.05-.08-.02-.2-.05-.24-.03-.01,0-.05.05-.07.08-.05.05-.11.12-.19.18-.2.15-.41.21-.62.21ZM405.44,53.55h0s0,0,0,0Z" fill="#ee2e45"/><path d="M392.36,56.67c1.27,1.2,2.58,2.45,3.1,4.17.28.92.37,1.88.58,2.81.21.96.59,1.86.98,2.76.14.32.7.09.58-.24-1.01-2.62-2.03-5.25-3.04-7.87-.14-.37-.74-.22-.61.17.28.84.63,1.65,1.04,2.43l.54-.32c-.72-1.09-1.37-2.23-1.94-3.4-.11-.23-.54-.19-.58.08-.15,1.08.26,2.06.71,3.02.49,1.04.98,2.07,1.47,3.1.14.3.58.13.59-.16s-.02-.56-.08-.84c-.06-.29-.55-.31-.61,0-.11.64.89.64.81-.02-.03-.29-.23-.59-.36-.84-.16-.3-.35-.58-.56-.85-.1-.13-.24-.2-.39-.13-.13.05-.24.23-.18.37.54,1.32,1.08,2.63,1.63,3.95.15.37.76.21.61-.17-.54-1.32-1.08-2.63-1.63-3.95l-.58.24c.18.23.34.47.49.73.07.12.14.24.2.37.03.06.05.11.08.17.02.04.04.08.05.12.04.15.18.14.4-.03l.03.24v-.04h-.6c.05.23.06.44.05.67l.59-.16c-.45-.94-.89-1.89-1.34-2.83-.41-.86-.91-1.82-.78-2.81l-.58.08c.57,1.18,1.21,2.31,1.94,3.4.22.34.74.04.54-.32-.39-.73-.72-1.49-.98-2.28l-.61.17c1.01,2.62,2.03,5.25,3.04,7.87l.58-.24c-.4-.94-.77-1.88-.97-2.89-.19-.94-.29-1.9-.61-2.8-.59-1.7-1.9-2.97-3.18-4.18-.29-.28-.74.17-.45.45h0Z" fill="#ee2e45"/><path d="M392.79,54.38c3.62-.41,7.27-.5,10.9-.27.41.03.4-.6,0-.63l-4.28-.28-2.09-.14c-.68-.04-1.38-.14-2.04.05-.36.1-.25.58.08.62.92.11,1.84.13,2.76.05.4-.03.41-.63,0-.63-1.8-.02-3.59.13-5.36.44-.3.05-.3.55,0,.61,1.74.31,3.51.3,5.27.23s3.61-.16,5.42-.25c.34-.02.45-.55.08-.62-.85-.15-1.73.04-2.58.1-.91.07-1.82.12-2.72.13-1.8.04-3.6-.04-5.4-.21-.35-.03-.43.56-.08.62,3.25.58,6.57.58,9.82-.01.4-.07.23-.68-.17-.61-3.13.57-6.35.57-9.48.01l-.08.62c1.76.17,3.53.24,5.3.21.88-.02,1.75-.06,2.62-.12.44-.03.89-.07,1.33-.12s.86-.1,1.29-.02l.08-.62c-1.77.08-3.55.17-5.32.24-1.74.07-3.49.1-5.21-.2v.61c1.72-.3,3.46-.43,5.2-.42v-.63c-.92.07-1.84.06-2.76-.05l.08.62c.63-.18,1.33-.06,1.98-.02l2.09.14c1.39.09,2.78.18,4.17.28v-.63c-3.63-.23-7.28-.14-10.9.27-.4.05-.4.68,0,.63h0Z" fill="#ee2e45"/><path d="M402.19,58.73c-.08,2.25-.86,4.43-2.21,6.24l.59.16c.05-.59.27-1.14.49-1.69.22-.55.45-1.1.71-1.64.48-.99,1.25-1.83,1.62-2.87.13-.38-.47-.55-.61-.17-.19.53-.51.99-.82,1.45-.33.49-.62,1-.86,1.54-.24.53-.47,1.07-.68,1.61-.23.57-.42,1.15-.47,1.76-.03.35.42.38.59.16,1.41-1.89,2.21-4.2,2.29-6.56.01-.41-.62-.4-.63,0h0Z" fill="#ee2e45"/><path d="M403.02,57.67c-1.15,1.18-1.6,2.8-2.03,4.35-.25.9-.5,1.8-.66,2.71-.13.74-.07,1.73-.57,2.35l.49.06c-.19-.34-.13-.72-.03-1.08.1-.39.25-.76.38-1.14.28-.8.56-1.6.86-2.38.6-1.56,1.3-3.09,2.2-4.5.22-.34-.33-.66-.54-.32-.97,1.51-1.7,3.16-2.34,4.83-.32.83-.61,1.68-.9,2.52-.26.76-.61,1.61-.18,2.38.09.16.37.22.49.06.51-.64.55-1.41.66-2.18.13-.94.37-1.86.62-2.77.43-1.55.82-3.26,1.98-4.45.28-.29-.16-.74-.45-.45h0Z" fill="#ee2e45"/><path d="M399.53,65.98c-.11.34-.22.68-.27,1.03-.05.32-.02.65-.08.96s-.18.62-.23.94c-.05.36-.02.72.08,1.07.12.39.73.22.61-.17-.09-.31-.12-.62-.04-.94.07-.3.17-.58.21-.89s.02-.59.06-.88c.05-.33.16-.65.26-.96.12-.39-.48-.55-.61-.17h0Z" fill="#ee2e45"/><path d="M397.56,76.82c0,.32-.03.64-.02.96s.14.64.46.73c.35.1.66-.16.77-.47s-.02-.62-.19-.88c-.04-.06-.08-.12-.12-.19-.02-.04-.04-.07-.06-.11,0-.01-.04-.09-.03-.06-.03-.08-.06-.17-.08-.25,0-.02,0-.03,0-.05,0,0-.01-.06,0-.04,0,.03,0-.03,0-.04,0-.03,0-.06,0-.08,0-.16-.14-.32-.32-.32-.17,0-.32.14-.32.32.01.35.12.69.31.99.04.07.09.13.13.2.02.03.03.05.04.08,0,.01.05.12.03.06.01.04.02.07.03.11.02.06,0-.04,0,.02,0,.04,0,.03,0,0,0,.02,0,.03-.01.05-.01.03-.01.03,0,0,0,.01-.01.02-.02.03-.04.07.03-.01-.02.03-.01.01-.02.02-.03.03.03-.02.04-.03,0,0,.04-.01.05-.02.02,0-.02,0-.01,0,.03,0-.04,0-.03,0,.02,0-.03,0-.03,0,0,0-.03-.02-.03-.01,0,.01-.02-.02-.02-.02,0,.02-.01-.02-.02-.04-.03-.06.04.07,0-.01,0-.04,0-.02,0-.03,0-.05,0,.04,0,.05,0,.02,0-.15,0-.3,0-.45,0-.19,0-.37.01-.56,0-.16-.15-.32-.32-.32s-.31.14-.32.32h0Z" fill="#ee2e45"/><path d="M391.79,55.95c1.56.57,2.56,2.08,3.12,3.58.7,1.88.89,3.91,1.62,5.78.15.37.75.22.61-.17-.36-.97-.72-1.94-1.08-2.91s-.68-1.91-1.07-2.85c-.36-.85-.81-1.62-1.43-2.31s-1.32-1.27-2.03-1.85c-.22-.18-.51-.06-.54.22-.01.1,0,.19.06.29.02.04.05.08.08.12.05.08.05.08.02,0l.14-.19-.03.02.24-.03.13.21-.16.27.03-.02c.32-.24,0-.79-.32-.54-.16.12-.24.29-.14.48.07.13.22.22.37.22.18,0,.32-.14.36-.31.02-.11,0-.21-.04-.31-.02-.05-.12-.16-.12-.21l-.54.22c.67.55,1.35,1.11,1.94,1.75.63.68,1.08,1.45,1.43,2.3.74,1.84,1.39,3.72,2.08,5.58l.61-.17c-1.12-2.85-1.06-6.25-3.3-8.57-.53-.55-1.17-.97-1.88-1.23-.38-.14-.55.47-.17.61h0Z" fill="#ee2e45"/><path d="M391.83,54.47c2.17.13,4.35.13,6.53,0,1.05-.07,2.09-.18,3.14-.22,1.08-.04,2.17,0,3.25.09v-.63c-2,.18-4.01.38-6.01.52-1.93.13-3.89.15-5.79-.31l-.17.61c3.25.47,6.55.4,9.78-.22.4-.08.23-.68-.17-.61-3.11.59-6.31.67-9.44.22-.39-.06-.57.51-.17.61,1.92.46,3.9.46,5.85.34s4.08-.35,6.11-.53c.41-.04.41-.59,0-.63-1.08-.1-2.16-.13-3.25-.09-1.05.04-2.09.16-3.14.22-2.17.14-4.35.14-6.53,0-.4-.02-.4.61,0,.63h0Z" fill="#ee2e45"/><path d="M403.11,57.05c-1.2,1.4-1.7,3.19-2.05,4.96-.2.98-.37,1.97-.63,2.93-.14.48-.29.96-.5,1.42-.19.43-.41.84-.6,1.27-.2.47-.32.93-.38,1.43-.05.41-.06.87-.41,1.15l.54.22c0-1.51,1.23-2.73,1.11-4.27-.02-.29-.44-.46-.59-.16-.53,1.05-.67,2.24-.4,3.39l.53-.31c-.54-.56-.14-1.62.03-2.25.23-.87.5-1.73.77-2.58.5-1.58,1.06-3.15,1.9-4.58.47-.81,1.03-1.55,1.68-2.21.29-.29-.16-.73-.45-.45-1.27,1.27-2.14,2.84-2.82,4.48-.71,1.72-1.26,3.53-1.73,5.32-.23.87-.54,1.98.17,2.72.22.24.6-.01.53-.31-.23-.98-.11-2.01.34-2.9l-.59-.16c.12,1.51-1.11,2.75-1.11,4.27,0,.29.33.39.54.22.65-.52.5-1.43.69-2.15.25-.93.81-1.75,1.12-2.66.64-1.83.77-3.79,1.35-5.64.3-.98.74-1.92,1.41-2.7.26-.31-.18-.75-.45-.45h0Z" fill="#ee2e45"/><path d="M398.49,70.26c-.03.51.18.99.24,1.48s.05.97-.03,1.44c-.03.17.05.34.22.39.15.04.36-.05.39-.22.09-.52.12-1.05.06-1.57-.03-.26-.08-.52-.14-.78s-.12-.49-.11-.75c.01-.17-.15-.32-.32-.32-.18,0-.3.14-.32.32h0Z" fill="#ee2e45"/><path d="M396.9,66.23c.1,1.01.21,2.03.31,3.04.04.39.63.41.63,0-.01-1.05-.15-2.09-.4-3.11-.09-.34-.63-.27-.62.08.06,1.54.26,3.06.59,4.56.09.4.7.23.61-.17-.32-1.45-.51-2.91-.57-4.4l-.62.08c.24.97.37,1.95.38,2.95h.63c-.1-1.01-.21-2.03-.31-3.04-.04-.4-.67-.4-.63,0h0Z" fill="#ee2e45"/><path d="M351.07,63.65c.26-.18.59-.22.91-.25,1.91-.18,3.84-.16,5.75.05,1.69.19,3.43.55,4.81,1.55,1.83,1.32,2.82,3.72,2.44,5.94-.17.99-.63,1.99-1.48,2.52-.56.36-1.24.48-1.9.58-2.01.29-4.07.36-6.04-.09s-3.87-1.44-5.14-3.02c-.28-.34-.53-.71-.67-1.13-.21-.59-.19-1.24-.27-1.87-.1-.84-.36-1.66-.77-2.41.36-.11.75-.07,1.08.11,0-.4-.09-.8-.24-1.17.81.12.94-.44,1.54-.84Z" fill="#643f92"/><path d="M444.4,64.02c-.26-.18-.59-.22-.91-.25-1.91-.18-3.84-.16-5.75.05-1.69.19-3.43.55-4.81,1.55-1.83,1.32-2.82,3.72-2.44,5.94.17.99.63,1.99,1.48,2.52.56.36,1.24.48,1.9.58,2.01.29,4.07.36,6.04-.09s3.87-1.44,5.14-3.02c.28-.34.53-.71.67-1.13.21-.59.19-1.24.27-1.87.1-.84.36-1.66.77-2.41-.36-.11-.75-.07-1.08.11,0-.4.09-.8.24-1.17-.81.12-.94-.44-1.54-.84Z" fill="#643f92"/></svg>