<svg width="319" height="237" viewBox="0 0 319 237" fill="none" xmlns="http://www.w3.org/2000/svg">
<g clip-path="url(#clip0_159_644)">
<path d="M74.7752 160.509C74.7752 160.509 69.3201 155.37 67.222 154.007C65.1239 152.645 60.4197 150.768 58.6584 150.596C56.9027 150.424 48.6814 152.811 48.6814 152.811C48.6814 152.811 36.5455 151.731 34.5082 153.155C32.4653 154.578 32.6364 156.057 33.4867 157.137C34.337 158.216 37.6277 157.873 41.2552 157.934C44.8827 157.989 45.849 158.333 45.849 158.333L40.5761 163.965L54.2414 167.775L62.5786 167.46L65.5822 171.248L74.7807 160.509H74.7752Z" fill="#FFC4A3"/>
<path d="M34.1992 161.7H30.6545C30.6545 161.7 26.0331 154.074 21.7983 156.666L22.77 158.172C22.77 158.172 20.8652 157.308 19.656 158.914L31.3226 169.177H31.8581L44.2866 168.374L34.1992 161.7Z" fill="#FFC4A3"/>
<path d="M36.3138 164.021C36.3138 164.059 35.9383 164.037 35.3089 164.065C34.6905 164.098 33.774 164.142 32.8519 164.558L32.7304 164.613L32.6531 164.502C32.2942 163.993 31.847 163.445 31.3943 162.874C30.4501 161.706 29.5943 160.648 28.8765 159.762C28.2361 158.959 27.8441 158.466 27.8772 158.432C27.9103 158.399 28.3686 158.842 29.0532 159.607C29.7379 160.371 30.6655 161.445 31.6483 162.664C32.1065 163.24 32.5427 163.788 32.9071 164.331L32.7139 164.275C33.7353 163.843 34.6684 163.854 35.3034 163.871C35.9438 163.899 36.3083 163.987 36.3083 164.021H36.3138Z" fill="#FFA275"/>
<path d="M61.524 156.97C61.5516 157.081 59.5584 157.485 57.4216 158.709C55.2794 159.928 53.9101 161.434 53.8328 161.357C53.8052 161.329 54.1088 160.919 54.6941 160.349C55.2794 159.773 56.1628 159.047 57.256 158.421C58.3492 157.801 59.4259 157.408 60.2154 157.197C61.0105 156.987 61.5129 156.932 61.524 156.97Z" fill="#FFA275"/>
<path d="M49.8961 153.83C49.9623 153.897 49.1562 154.766 48.2286 155.885C47.2955 156.998 46.5833 157.945 46.5005 157.895C46.4287 157.845 47.025 156.804 47.9691 155.674C48.9133 154.539 49.8353 153.769 49.8906 153.83H49.8961Z" fill="#FFA275"/>
<path d="M31.858 169.177C31.858 169.177 31.6096 169.204 31.2396 168.999C30.8697 168.8 30.3949 168.423 29.8703 167.903C28.8158 166.867 27.5348 165.283 26.2152 163.472C24.8956 161.656 23.7803 159.961 22.9963 158.72C22.6043 158.1 22.2951 157.591 22.0908 157.236C21.8865 156.882 21.7816 156.677 21.8037 156.666C21.8258 156.655 21.9638 156.832 22.2012 157.17C22.4773 157.569 22.8086 158.045 23.1951 158.593C24.0288 159.8 25.1772 161.467 26.4913 163.278C27.8054 165.084 29.0477 166.679 30.047 167.742C30.5439 168.274 30.9801 168.667 31.3114 168.894C31.6427 169.121 31.8691 169.155 31.8635 169.182L31.858 169.177Z" fill="#FFA275"/>
<path d="M190.618 58.7331C185.113 37.6933 180.034 13.2142 149.368 15.4129C149.368 15.4129 130.469 19.0626 121.497 33.0522C116.218 41.2821 111.641 76.7545 110.736 104.772C110.736 104.772 110.736 104.784 110.736 104.789C110.697 105.93 111.172 113.883 111.139 114.996L192.313 121.775H206.939C206.939 121.775 206.023 106.91 201.617 92.4942C197.327 78.4713 192.573 66.182 190.624 58.7331H190.618Z" fill="#643F92"/>
<path d="M145.288 23.4323L147.21 21.5991L167.942 29.9785C170.94 30.1446 173.314 32.587 173.408 35.5998L173.226 103.36C173.254 107.957 172.337 111.933 169.571 115.6L166.661 119.454C160.025 128.243 146.365 127.524 141.108 117.837C140.739 117.161 140.485 116.569 140.374 116.087C140.264 115.483 140.098 115.085 140.065 114.57C139.447 109.12 139.413 104.39 139.413 104.39C139.043 98.4034 138.922 95.95 138.922 96.0054C138.922 96.0054 126.223 94.5433 122.789 78.1889C121.083 70.0587 121.403 58.8715 121.883 47.8615C122.546 32.6258 133.086 23.4212 145.294 23.4378L145.288 23.4323Z" fill="#FFC4A3"/>
<path d="M150.627 58.7275C150.644 59.8463 151.599 60.7545 152.764 60.7601C153.924 60.7601 154.857 59.8629 154.84 58.7441C154.824 57.6254 153.868 56.7171 152.703 56.7116C151.538 56.7116 150.605 57.6088 150.622 58.7275H150.627Z" fill="#643F92"/>
<path d="M128.978 59.2924C128.995 60.4111 129.95 61.3194 131.115 61.3249C132.274 61.3249 133.207 60.4277 133.191 59.309C133.174 58.1903 132.219 57.282 131.054 57.2765C129.889 57.2765 128.956 58.1737 128.973 59.2924H128.978Z" fill="#643F92"/>
<path d="M124.048 52.209C124.324 52.4693 125.859 51.2066 128.128 51.0958C130.392 50.9573 132.114 52.0428 132.346 51.7493C132.462 51.6219 132.169 51.1346 131.419 50.6417C130.679 50.1488 129.436 49.7002 128.023 49.7777C126.609 49.8552 125.45 50.4367 124.793 51.0072C124.125 51.5776 123.91 52.0871 124.048 52.209Z" fill="#643F92"/>
<path d="M146.541 51.4392C146.845 51.6718 148.242 50.254 150.489 49.9162C152.725 49.5451 154.553 50.4479 154.752 50.1322C154.851 49.9937 154.514 49.5396 153.714 49.1298C152.93 48.7144 151.649 48.3987 150.252 48.6202C148.855 48.8418 147.762 49.5451 147.165 50.1765C146.558 50.8134 146.398 51.3451 146.547 51.4447L146.541 51.4392Z" fill="#643F92"/>
<path d="M139.137 69.0065C139.137 68.8791 137.718 68.7019 135.421 68.5247C134.842 68.4914 134.284 68.4084 134.168 68.0151C134.008 67.5998 134.223 66.9629 134.466 66.2761C134.941 64.8417 135.438 63.3409 135.957 61.768C138.022 55.3492 139.485 50.0879 139.226 50.0048C138.966 49.9217 137.083 55.0612 135.024 61.4745C134.527 63.0584 134.058 64.5648 133.605 66.0048C133.417 66.6749 133.08 67.4447 133.417 68.2976C133.594 68.724 134.036 69.0176 134.411 69.1006C134.787 69.1948 135.112 69.1837 135.399 69.1892C137.702 69.2003 139.132 69.1339 139.132 69.0065H139.137Z" fill="#643F92"/>
<path d="M138.917 95.9999C138.917 95.9999 150.003 96.1605 160.626 89.0051C160.626 89.0051 155.663 100.691 139.143 99.9763L138.917 95.9999Z" fill="#FFA275"/>
<path d="M146.227 73.6309C145.586 72.8556 144.57 72.4291 143.582 72.3737C142.158 72.2907 141.153 72.4734 140.391 73.5921C140.032 74.2124 140.065 75.165 140.231 75.4308C140.396 75.6911 140.275 75.6967 140.529 75.885C141.451 76.5496 142.511 76.9815 143.61 77.2363C144.708 77.4911 145.978 77.2252 146.547 76.3336C147.05 75.5416 146.867 74.4063 146.232 73.6309H146.227Z" fill="#FFA275"/>
<path d="M145.995 40.9885C146.288 41.57 148.242 40.9719 150.638 40.9276C153.035 40.8334 155.044 41.3097 155.271 40.7171C155.37 40.4347 154.95 39.9085 154.095 39.4322C153.244 38.956 151.947 38.5794 150.511 38.6237C149.076 38.668 147.822 39.1166 147.027 39.6427C146.227 40.1688 145.862 40.7116 145.995 40.9885Z" fill="#643F92"/>
<path d="M124.373 48.0941C124.799 48.5925 126.334 47.9778 128.211 47.8559C130.082 47.6676 131.695 48.0276 132.037 47.4682C132.186 47.1969 131.91 46.6929 131.187 46.2388C130.48 45.7846 129.309 45.4468 128.023 45.5465C126.737 45.6517 125.638 46.1778 125.014 46.7372C124.379 47.3021 124.186 47.8448 124.373 48.0885V48.0941Z" fill="#643F92"/>
<path d="M172.994 64.515C172.994 64.515 164.265 66.6306 151.881 39.8809C147.662 30.776 139.474 21.5991 139.474 21.5991L147.154 20.486C147.154 20.486 170.057 26.9602 170.443 27.2482C170.83 27.5361 176.219 39.1277 176.219 39.1277L172.989 64.515H172.994Z" fill="#643F92"/>
<path d="M170.129 63.4461C170.068 62.2166 171.338 59.2537 172.541 59.0044C175.744 58.3399 181.574 58.3066 182.038 66.5254C182.673 77.7569 171.299 76.0788 171.26 75.7632C171.233 75.5139 170.333 67.6884 170.129 63.4516V63.4461Z" fill="#FFC4A3"/>
<path d="M174.441 71.3049C174.491 71.2661 174.645 71.4322 174.982 71.5652C175.313 71.6925 175.871 71.7645 176.445 71.5098C177.605 71.0058 178.493 69.0674 178.433 67.0404C178.405 66.0158 178.135 65.0522 177.726 64.2713C177.34 63.4682 176.776 62.9255 176.175 62.8535C175.573 62.7483 175.175 63.1304 175.054 63.4572C174.921 63.7784 175.004 63.9999 174.949 64.0221C174.921 64.0498 174.7 63.8504 174.761 63.3796C174.794 63.1526 174.91 62.8812 175.164 62.6486C175.418 62.416 175.81 62.2775 176.224 62.2997C177.091 62.3108 177.914 63.064 178.361 63.9279C178.858 64.7919 179.184 65.8718 179.217 67.0183C179.272 69.2834 178.239 71.471 176.644 72.0304C175.871 72.2796 175.197 72.0802 174.844 71.8365C174.479 71.5818 174.408 71.3325 174.446 71.3104L174.441 71.3049Z" fill="#FFA275"/>
<path d="M147.668 74.0851C147.635 74.3731 145.719 74.3288 143.45 74.7718C141.175 75.1872 139.408 75.9293 139.27 75.669C139.132 75.4475 140.81 74.2401 143.267 73.786C145.719 73.3153 147.723 73.8248 147.673 74.0851H147.668Z" fill="#643F92"/>
<path d="M235.192 161.141C235.192 161.141 244.573 153.083 247.289 152.867C250.006 152.651 257.156 153.985 257.156 153.985C257.156 153.985 261.672 154.024 263.914 153.742C267.293 153.315 269.606 153.67 270.959 154.085C271.638 154.29 272.483 155.979 270.49 157.131C269.645 157.618 261.446 158.172 261.446 158.172L281.969 164.054L279.302 166.258C278.948 166.552 278.507 166.718 278.048 166.734L248.504 167.787L247.151 171.098L235.192 161.135V161.141Z" fill="#FFC4A3"/>
<path d="M285.983 154.589C285.983 154.589 285.867 154.794 285.607 155.115C285.348 155.442 284.967 155.907 284.492 156.472C283.542 157.607 282.212 159.164 280.726 160.869C279.213 162.547 277.96 164.187 276.856 165.2C276.309 165.71 275.829 166.086 275.476 166.302C275.117 166.518 274.89 166.59 274.885 166.574C274.874 166.546 275.072 166.441 275.404 166.192C275.729 165.948 276.182 165.555 276.696 165.029C277.739 163.987 278.954 162.342 280.472 160.653C281.958 158.948 283.321 157.413 284.315 156.311C284.812 155.763 285.221 155.32 285.508 155.021C285.795 154.722 285.961 154.561 285.977 154.578L285.983 154.589Z" fill="#FFA275"/>
<path d="M280.726 155.043C280.759 155.076 280.312 155.597 279.561 156.417C278.81 157.236 277.761 158.349 276.585 159.568C275.619 160.565 274.719 161.478 274.001 162.187L273.974 162.21L273.946 162.221C272.521 162.669 271.588 162.913 271.572 162.835C271.572 162.819 271.787 162.73 272.185 162.581C272.671 162.403 273.228 162.198 273.858 161.966L273.802 161.999C274.493 161.257 275.37 160.327 276.337 159.33C277.513 158.111 278.595 157.026 279.384 156.25C280.18 155.475 280.682 155.01 280.715 155.043H280.726Z" fill="#FFA275"/>
<path d="M203.394 113.323C203.394 113.323 217.17 116.885 218.517 135.665C219.285 146.365 213.609 180.729 213.609 180.729L233.949 159.773L252.076 172.428C252.076 172.428 227.412 202.677 221.72 207.224C216.027 211.771 206.967 219.087 204.013 218.495C201.064 217.902 201.064 204.261 201.064 204.261V128.941L203.389 113.329L203.394 113.323Z" fill="#FFAE00"/>
<path d="M104.375 115.622C104.375 115.622 92.1177 119.665 92.6201 143.673C93.1226 167.681 92.7251 175.767 92.7251 175.767L74.3611 156.273L59.1057 173.153C59.1057 173.153 76.1721 198.59 88.1203 210.952C99.3727 222.598 109.377 212.486 112.629 204.295C115.263 197.66 117.383 172.439 117.383 172.439L104.375 115.622Z" fill="#FFAE00"/>
<g opacity="0.3">
<path d="M204.466 156.577C205.57 149.549 205.868 141.895 202.671 135.443C194.814 154.916 195.168 177.274 197.984 197.904L204.206 215.748C208.126 203.791 204.399 191.053 204.482 178.553C204.532 171.453 203.361 163.605 204.466 156.577Z" fill="#FFAE00"/>
</g>
<path d="M101.819 130.913C101.819 130.913 110.012 186.179 111.597 191.019C113.182 195.86 113.182 210.121 113.182 210.121C113.182 210.121 104.585 226.176 104.055 237.336L207.596 237.552L200.866 191.69C200.634 189.978 200.617 184.706 200.711 182.984C201.147 174.909 201.771 157.58 204.074 146.935C206.757 134.557 203.146 113.368 203.146 113.368L172.216 105.725C164.894 116.275 146.63 116.419 139.43 105.725L104.524 115.622L101.813 130.913H101.819Z" fill="#FFAE00"/>
<path d="M202.903 189.496C202.903 189.496 202.997 189.308 203.212 189.004C203.428 188.699 203.753 188.267 204.162 187.746C204.99 186.705 206.172 185.276 207.718 183.93C209.264 182.585 210.892 181.66 212.102 181.106C212.709 180.835 213.211 180.63 213.565 180.513C213.918 180.392 214.117 180.336 214.122 180.353C214.194 180.486 210.986 181.516 207.933 184.18C206.415 185.503 205.217 186.899 204.344 187.896C203.477 188.904 202.942 189.53 202.903 189.496Z" fill="#643F92"/>
<path d="M107.025 188.328C106.965 188.345 106.722 187.204 105.938 185.514C105.17 183.836 103.762 181.627 101.603 179.794C99.4501 177.96 97.0428 176.925 95.2649 176.437C93.476 175.939 92.3165 175.889 92.322 175.823C92.322 175.8 92.6147 175.795 93.1337 175.839C93.6582 175.878 94.4091 175.989 95.3201 176.21C97.1366 176.648 99.6102 177.667 101.813 179.539C104.016 181.411 105.419 183.692 106.147 185.42C106.517 186.284 106.744 187.015 106.871 187.525C106.998 188.034 107.042 188.322 107.02 188.328H107.025Z" fill="#643F92"/>
<path d="M107.688 158.377C107.688 158.377 107.511 158.305 107.218 158.122C106.926 157.94 106.523 157.657 106.031 157.292C105.049 156.555 103.762 155.447 102.476 154.085C101.189 152.723 100.14 151.388 99.4113 150.408C98.6825 149.427 98.2629 148.79 98.3015 148.768C98.3402 148.741 98.8205 149.322 99.599 150.264C100.378 151.205 101.449 152.507 102.724 153.858C104 155.209 105.247 156.333 106.186 157.109C107.125 157.884 107.726 158.338 107.699 158.383L107.688 158.377Z" fill="#643F92"/>
<path d="M179.968 188.295C179.968 188.295 179.945 188.339 179.885 188.422C179.813 188.516 179.719 188.633 179.614 188.777C179.366 189.081 179.023 189.552 178.521 190.1C177.555 191.235 176.053 192.792 174.038 194.542C172.028 196.297 169.466 198.192 166.479 200.063C163.492 201.935 160.074 203.769 156.414 205.53C152.747 207.285 149.208 208.842 146.006 210.287C142.798 211.727 139.932 213.062 137.558 214.258C135.184 215.449 133.296 216.484 132.009 217.226C131.358 217.586 130.872 217.897 130.53 218.085C130.375 218.173 130.248 218.245 130.143 218.306C130.055 218.356 130.005 218.378 130.005 218.373C130.005 218.373 130.044 218.334 130.127 218.279C130.226 218.212 130.347 218.129 130.497 218.029C130.828 217.819 131.308 217.492 131.949 217.116C133.219 216.335 135.09 215.271 137.459 214.047C139.822 212.824 142.688 211.461 145.89 210.005C149.087 208.542 152.626 206.981 156.281 205.231C159.931 203.475 163.343 201.658 166.33 199.809C169.311 197.959 171.873 196.093 173.894 194.37C175.92 192.653 177.439 191.125 178.433 190.017C178.946 189.48 179.305 189.026 179.57 188.738C179.692 188.605 179.785 188.494 179.868 188.405C179.934 188.333 179.973 188.295 179.979 188.3L179.968 188.295Z" fill="#643F92"/>
<path d="M104.298 236.466C104.298 236.466 104.298 236.422 104.298 236.328C104.298 236.223 104.309 236.09 104.314 235.924C104.337 235.552 104.37 235.032 104.414 234.362C104.596 233.01 104.883 231.017 105.584 228.585C106.92 223.706 109.549 216.988 113.557 209.523L113.541 209.606C113.126 203.591 112.508 196.879 111.79 189.812C110.427 176.476 108.991 164.419 107.947 155.697C107.423 151.349 106.992 147.827 106.7 145.368C106.556 144.16 106.446 143.219 106.368 142.56C106.335 142.25 106.308 142.012 106.291 141.829C106.274 141.663 106.269 141.58 106.274 141.58C106.28 141.58 106.297 141.663 106.324 141.823C106.352 142 106.39 142.244 106.435 142.549C106.528 143.208 106.661 144.149 106.832 145.351C107.152 147.805 107.616 151.327 108.185 155.669C109.289 164.386 110.763 176.437 112.127 189.779C112.845 196.846 113.458 203.564 113.85 209.584V209.628L113.833 209.667C109.819 217.094 107.158 223.784 105.772 228.63C105.049 231.05 104.74 233.021 104.524 234.367C104.463 235.032 104.414 235.552 104.381 235.918C104.364 236.084 104.348 236.212 104.337 236.317C104.325 236.405 104.32 236.45 104.314 236.45L104.298 236.466Z" fill="#643F92"/>
<path d="M205.36 132.203C205.36 132.203 205.371 132.298 205.371 132.475C205.371 132.669 205.371 132.94 205.371 133.278C205.366 133.987 205.382 135.028 205.316 136.368C205.244 139.054 204.968 142.931 204.493 147.71C204.024 152.49 203.334 158.161 202.633 164.469C201.937 170.772 201.241 177.717 201.02 185.033C200.783 192.349 201.501 199.31 202.434 205.574C203.356 211.849 204.438 217.459 205.277 222.189C206.133 226.913 206.763 230.745 207.121 233.409C207.315 234.738 207.42 235.774 207.497 236.477C207.53 236.815 207.558 237.081 207.58 237.275C207.596 237.458 207.602 237.546 207.596 237.546C207.591 237.546 207.574 237.458 207.547 237.275C207.519 237.081 207.48 236.815 207.431 236.477C207.331 235.78 207.204 234.744 206.994 233.42C206.602 230.767 205.934 226.941 205.051 222.227C204.184 217.509 203.074 211.899 202.136 205.618C201.181 199.349 200.457 192.36 200.695 185.022C200.916 177.689 201.622 170.738 202.334 164.436C203.052 158.128 203.765 152.462 204.267 147.688C204.769 142.92 205.084 139.049 205.195 136.368C205.283 135.028 205.283 133.987 205.31 133.283C205.322 132.94 205.333 132.674 205.338 132.48C205.349 132.298 205.355 132.209 205.36 132.209V132.203Z" fill="#643F92"/>
<g opacity="0.3">
<path d="M106.562 144.044C104.712 161.412 106.926 179.926 112.563 196.447L106.562 144.044Z" fill="#FFAE00"/>
</g>
<g opacity="0.3">
<path d="M170.609 205.269C162.763 212.497 154.89 218.677 145.239 222.117C152.516 222.737 159.853 219.946 165.48 215.277C171.106 210.608 175.103 205.685 177.682 198.834L170.609 205.275V205.269Z" fill="#FFAE00"/>
</g>
<path d="M161.67 213.233C161.609 213.167 166.49 208.675 172.569 203.204C178.653 197.732 183.634 193.351 183.694 193.423C183.755 193.49 178.874 197.981 172.79 203.453C166.711 208.925 161.731 213.3 161.664 213.233H161.67Z" fill="#643F92"/>
<path d="M179.023 77.6129C179.023 79.8282 177.229 81.6281 175.021 81.6281C172.812 81.6281 171.018 79.8282 171.018 77.6129C171.018 75.3976 172.812 73.5977 175.021 73.5977C177.229 73.5977 179.023 75.3976 179.023 77.6129Z" fill="white"/>
<path d="M202.859 130.381C201.677 120.568 200.496 110.748 199.32 100.934L173.988 93.264C173.497 110.798 170.438 130.487 166.043 147.461C175.379 150.496 185.351 151.537 195.107 150.496C195.538 145.755 195.968 141.015 196.399 136.268C197.034 139.841 197.663 143.418 198.298 146.99C200.96 145.495 202.522 142.521 203.058 139.508C203.588 136.495 203.223 133.411 202.859 130.376V130.381Z" fill="#643F92"/>
<path d="M183.037 150.579C183.037 150.579 183.06 150.452 183.109 150.208C183.17 149.953 183.253 149.593 183.358 149.128C183.584 148.17 183.91 146.774 184.335 144.98C185.163 141.375 186.389 136.163 187.587 129.656C188.791 123.159 189.961 115.35 190.342 106.617C190.723 97.8995 190.193 88.2131 187.786 78.416C185.417 68.6188 181.271 59.7576 176.042 52.785C175.379 51.921 174.75 51.046 174.043 50.254C173.348 49.451 172.696 48.6258 171.973 47.8892C171.619 47.5126 171.272 47.1415 170.918 46.7705C170.559 46.4105 170.2 46.056 169.847 45.7016C169.146 44.9871 168.411 44.3226 167.71 43.658C164.867 41.0162 162.09 38.7012 159.605 36.5192C157.12 34.3426 154.901 32.3378 153.062 30.4548C152.593 29.9951 152.173 29.5188 151.754 29.0758C151.328 28.6383 150.936 28.2007 150.578 27.7687C150.213 27.3423 149.86 26.9325 149.523 26.5448C149.208 26.1405 148.905 25.7528 148.623 25.3873C148.038 24.6729 147.591 23.9751 147.182 23.3935C146.762 22.8176 146.459 22.297 146.21 21.8761C145.967 21.4662 145.78 21.1505 145.647 20.9235C145.52 20.7075 145.465 20.5912 145.465 20.5912C145.465 20.5912 145.542 20.6964 145.675 20.9069C145.813 21.1284 146.011 21.4385 146.265 21.8428C146.519 22.2582 146.84 22.7677 147.265 23.3382C147.684 23.9141 148.132 24.6009 148.728 25.3098C149.015 25.6698 149.319 26.0519 149.639 26.4506C149.976 26.8383 150.329 27.2426 150.699 27.6635C151.063 28.09 151.455 28.5219 151.886 28.9595C152.311 29.397 152.736 29.8677 153.206 30.3219C155.05 32.1883 157.275 34.1765 159.771 36.3419C162.261 38.5074 165.049 40.8168 167.909 43.453C168.616 44.1232 169.35 44.7822 170.057 45.4967C170.416 45.8511 170.775 46.2056 171.139 46.5655C171.487 46.9366 171.84 47.3132 172.199 47.6898C172.928 48.4264 173.585 49.2571 174.286 50.0602C174.998 50.8521 175.633 51.7327 176.301 52.6022C181.569 59.6026 185.743 68.508 188.123 78.3384C190.541 88.1743 191.06 97.894 190.662 106.633C190.259 115.389 189.061 123.204 187.83 129.7C186.604 136.208 185.34 141.413 184.473 145.008C184.031 146.808 183.683 148.198 183.435 149.139C183.314 149.599 183.22 149.959 183.153 150.214C183.087 150.457 183.048 150.574 183.048 150.574L183.037 150.579Z" fill="white"/>
<path d="M47.3895 148.248C47.3895 148.248 50.6526 142.654 47.7263 143.391C44.8 144.127 38.8811 152.141 32.5095 151.931L36.0432 154.423L47.3895 148.248Z" fill="#F2CEC1"/>
<path d="M27.9324 126.444C23.9074 124.694 19.8879 122.943 15.8628 121.199C15.2831 120.95 14.7033 120.695 14.1236 120.446C14.0463 120.412 13.9745 120.418 13.9138 120.446C13.831 120.479 13.7647 120.551 13.7537 120.656C13.7537 120.678 13.7537 120.706 13.7537 120.728C13.9966 127.972 14.3997 135.205 14.9076 142.432C15.0236 144.1 15.145 145.761 15.272 147.428C15.3935 149.078 15.3162 150.928 16.0119 152.462C17.0885 154.849 19.3136 156.865 21.3013 158.477C22.5988 159.529 23.9681 160.515 25.4147 161.346C26.3092 161.861 27.3637 162.531 28.4349 162.536C28.5784 162.536 28.6778 162.398 28.6723 162.265C28.606 158.255 28.5342 154.246 28.468 150.236C28.3576 143.845 28.2471 137.454 28.1367 131.062C28.1091 129.595 28.087 128.127 28.0594 126.66C28.0594 126.577 27.9987 126.482 27.9214 126.449L27.9324 126.444Z" fill="#643F92"/>
<path d="M63.3019 124.372C61.9326 123.464 60.4473 122.733 58.9676 122.03C56.0413 120.64 53.0377 119.349 49.9789 118.264C49.9679 118.264 49.9568 118.264 49.9458 118.258C49.9347 118.258 49.9237 118.247 49.9126 118.241C47.3176 117.339 44.7723 117.488 42.0724 117.66C39.3172 117.832 36.5676 118.003 33.8125 118.175C28.766 118.485 23.7195 118.79 18.673 119.128C17.3755 119.216 15.835 119.094 14.5872 119.532C13.9909 119.742 13.5382 120.208 13.8087 120.867C14.3553 122.196 16.4148 123.049 17.5687 123.636C19.976 124.854 22.4551 125.956 24.9231 127.053C26.1765 127.612 27.4298 128.16 28.6997 128.67C29.0144 128.797 29.3733 129.002 29.7101 129.035C30.0359 129.069 30.4169 128.986 30.7371 128.958C31.5818 128.897 32.4266 128.836 33.2714 128.775C39.2344 128.343 45.1974 127.906 51.166 127.474C54.0426 127.263 56.9192 127.053 59.7958 126.842C61.3639 126.726 62.9595 126.687 64.5221 126.499C64.5938 126.488 64.6711 126.488 64.7429 126.482C64.8865 126.471 64.9803 126.349 64.9803 126.211C64.9803 125.397 63.865 124.749 63.2908 124.372H63.3019Z" fill="#E6DAEA"/>
<path d="M25.6301 126.488C25.6301 126.488 25.6467 126.477 25.6522 126.471C29.6772 122.755 35.0163 121.564 40.2892 120.933C42.437 120.678 44.5903 120.457 46.7492 120.302C48.9466 120.147 51.1993 119.953 53.4024 120.124C53.6619 120.147 53.8661 119.759 53.568 119.648C52.3754 119.188 51.1883 118.696 49.9847 118.264C47.743 117.455 45.5345 117.444 43.1824 117.593C41.8352 117.682 40.488 117.765 39.1408 117.848C37.7273 117.937 36.2531 117.909 34.8507 118.125C33.1115 118.391 31.4385 119.427 30.0748 120.496C28.1092 122.035 26.4914 123.979 25.2546 126.15C25.1884 126.222 25.1829 126.3 25.2105 126.366C25.2602 126.527 25.4921 126.615 25.6301 126.488Z" fill="#643F92"/>
<path d="M55.4231 120.706C54.363 120.54 53.2035 120.662 52.1324 120.7C50.7907 120.75 49.4545 120.822 48.1184 120.916C45.3301 121.116 42.5474 121.393 39.7757 121.753C37.0757 122.107 34.4642 122.7 31.9299 123.708C30.6986 124.195 29.4839 124.76 28.3244 125.402C27.7171 125.74 27.1208 126.1 26.5466 126.499C26.0662 126.831 25.4533 127.147 25.1938 127.69C25.1938 127.701 25.1938 127.712 25.2104 127.712C25.7184 127.668 26.138 127.324 26.5742 127.075C27.1815 126.732 27.7889 126.388 28.4017 126.061C29.6164 125.413 30.8532 124.815 32.1342 124.311C34.7623 123.276 37.4567 122.694 40.2505 122.34C42.9228 122.002 45.6062 121.736 48.2951 121.548C49.5429 121.459 50.7907 121.393 52.0385 121.343C53.1373 121.304 54.2912 121.398 55.3789 121.249C55.6716 121.21 55.7489 120.75 55.4176 120.7L55.4231 120.706Z" fill="#A489B9"/>
<path d="M67.0565 144.216C66.8191 140.71 66.6535 137.193 66.3332 133.693C66.1731 131.926 65.9688 130.165 65.7149 128.404C65.4222 126.444 64.7983 124.594 62.645 124.106C60.569 123.636 58.25 123.857 56.1464 123.94C51.4146 124.129 46.6773 124.428 41.9511 124.705C39.2898 124.86 36.634 125.031 33.9783 125.247C31.8526 125.425 29.5557 125.458 27.4797 125.989C26.3533 126.277 25.1331 126.876 24.3049 127.706C23.4878 128.526 23.1289 129.717 22.9632 130.841C22.781 132.082 22.8583 133.355 22.8804 134.601C22.908 136.047 22.9577 137.492 23.0185 138.943C23.2724 144.781 23.7252 150.607 24.327 156.417C24.5589 158.648 24.719 161.119 27.038 162.165C28.468 162.813 30.29 162.669 31.8139 162.664C37.1199 162.647 42.4259 162.248 47.7153 161.866C52.2042 161.539 56.7482 161.373 61.2095 160.753C62.9376 160.515 65.8253 160.349 66.6921 158.504C67.0124 157.823 67.0841 156.998 67.1614 156.261C67.2829 155.115 67.3326 153.958 67.3547 152.806C67.4099 149.937 67.2498 147.079 67.0565 144.216Z" fill="#BCA8CC"/>
<path d="M66.648 137.802C66.6369 137.675 66.5596 137.603 66.4602 137.581C66.3608 137.542 66.2449 137.564 66.1842 137.67C66.1676 137.686 66.1566 137.708 66.151 137.736C63.6885 143.291 59.531 147.982 54.9869 151.925C50.1005 156.162 44.3197 158.837 38.7266 161.966C38.5002 162.093 38.6438 162.448 38.8812 162.431C45.9154 162.06 52.9772 161.634 59.9837 160.897C60.9886 160.792 61.988 160.648 62.9818 160.465C64.2296 160.232 65.8418 159.911 66.5707 158.737C67.0731 157.923 67.1173 156.788 67.2001 155.868C67.3381 154.34 67.3712 152.8 67.3657 151.266C67.3492 146.774 66.9461 142.283 66.6535 137.808L66.648 137.802Z" fill="#FF8ACD"/>
<path d="M48.5435 126.887C48.7257 127.579 49.3496 128.277 50.0784 128.62C50.4649 128.803 50.6747 129.24 50.5367 129.645C50.1281 130.841 50.5036 132.314 51.5913 133.051C52.7011 133.798 54.1532 133.571 55.1691 132.785C55.539 132.497 56.0746 132.624 56.3065 133.029C56.8752 134.009 57.9463 134.696 59.1113 134.635C60.4364 134.563 61.5242 133.533 61.872 132.292C61.9879 131.882 62.4186 131.655 62.8327 131.766C63.5726 131.96 64.3897 131.904 65.0578 131.55C65.3339 131.406 65.632 131.179 65.8805 130.913C66.0682 130.714 66.1621 130.442 66.14 130.171C66.1289 130.01 66.1124 129.844 66.0958 129.683C65.9964 128.598 65.875 127.512 65.7148 126.433C65.5382 125.225 65.1517 124.09 63.8265 123.791C62.5511 123.503 61.1211 123.636 59.8291 123.686C56.9194 123.802 54.0041 123.985 51.0944 124.156C50.6913 124.178 50.2938 124.206 49.8907 124.228C49.6423 124.245 49.4048 124.356 49.2392 124.538C48.6595 125.17 48.3337 126.117 48.538 126.887H48.5435Z" fill="white"/>
<path d="M60.9608 127.59C60.3479 128.066 59.9062 128.731 59.2492 129.152C58.94 129.351 58.802 129.351 58.7633 128.963C58.7412 128.77 58.7799 128.587 58.8517 128.415C58.951 128.255 59.0449 128.088 59.1222 127.917C59.5639 126.97 58.2498 126.349 57.7032 127.197C57.637 127.296 57.5818 127.407 57.5321 127.524C57.1787 128.133 56.6155 128.698 55.8646 128.62C55.8315 128.62 55.7984 128.609 55.7652 128.603C56.2125 128.243 56.6045 127.845 56.8971 127.396C57.267 126.831 57.7143 125.945 57.1069 125.375C56.5051 124.804 55.6217 125.242 55.18 125.773C54.6168 126.46 53.9874 127.856 54.153 128.903C53.7555 129.196 53.3469 129.479 52.9383 129.755C52.7561 129.877 52.8997 130.187 53.1095 130.104C53.5181 129.938 53.9487 129.744 54.3794 129.512C54.5395 129.755 54.7825 129.955 55.1358 130.071C56.0082 130.365 56.8474 130.182 57.5542 129.733C57.7805 130.198 58.1725 130.553 58.7523 130.642C59.4645 130.752 60.1878 130.293 60.7068 129.85C61.3142 129.329 61.6896 128.775 61.6951 127.961C61.6951 127.607 61.2258 127.368 60.9498 127.59H60.9608ZM56.6376 126.538C56.6376 126.538 56.6321 126.538 56.6266 126.538H56.6376Z" fill="#FFAE00"/>
<path d="M50.4593 144.127C50.4593 144.127 50.4317 144.077 50.4151 144.055C50.3985 144.033 50.382 144.011 50.3599 143.994C48.9796 142.41 47.0526 142.222 45.0594 142.106C43.6073 142.023 42.1221 141.912 40.8963 141.037C39.897 140.322 39.2013 139.242 38.6823 138.146C37.7989 136.279 37.4952 134.031 36.148 132.414C35.0272 131.062 33.2824 130.708 31.7475 131.583C27.7335 133.881 29.7157 139.813 31.615 142.853C33.9836 146.636 37.6222 148.962 42.0006 149.588C44.4079 149.931 47.6876 149.992 49.7581 148.48C51.1108 147.494 51.3427 145.49 50.4482 144.133L50.4593 144.127Z" fill="white"/>
<path d="M48.1073 143.933C48.1073 143.933 48.0907 143.933 48.0797 143.928C48.0631 143.922 48.0466 143.917 48.03 143.911C46.219 143.413 44.2921 143.911 42.4424 143.44C40.1842 142.864 38.434 141.308 37.291 139.309C36.7996 138.451 36.4408 137.531 36.2365 136.562C36.0653 135.764 35.9825 134.906 35.5518 134.197C34.8285 133.001 33.3764 132.552 32.2777 133.549C31.1016 134.613 31.2618 136.617 31.4881 138.041C31.7642 139.807 32.4709 141.497 33.5034 142.953C35.7064 146.043 39.483 147.971 43.2154 148.364C45.043 148.552 47.5828 148.602 49.0735 147.328C50.3987 146.193 49.4821 144.504 48.1128 143.939L48.1073 143.933ZM48.3999 147.046C47.5883 147.605 46.5006 147.716 45.5454 147.766C43.889 147.854 42.2768 147.683 40.6922 147.184C37.5229 146.187 34.7181 144.216 33.1666 141.214C32.4323 139.791 32.0071 138.196 31.9795 136.595C31.963 135.792 31.9685 134.801 32.5317 134.164C33.4758 133.095 34.7844 133.793 35.2205 134.917C35.7285 136.219 35.7727 137.603 36.3855 138.894C36.9818 140.145 37.8045 141.314 38.8481 142.233C40.0241 143.269 41.4817 143.928 43.0167 144.194C44.6123 144.471 46.3074 144.088 47.8644 144.509C48.9797 144.991 49.6422 146.199 48.3944 147.051L48.3999 147.046Z" fill="#EFF0F5"/>
<path d="M46.6718 145.744C44.0933 145.994 40.9296 145.545 38.7211 144.138C37.4788 143.346 36.4408 142.167 35.7009 140.904C34.812 139.386 34.6022 137.758 34.1273 136.102C34.0666 135.881 33.7022 135.897 33.6746 136.13C33.2494 139.348 35.585 142.953 38.1745 144.698C40.4161 146.204 44.2093 147.168 46.727 145.883C46.7932 145.85 46.7491 145.739 46.6828 145.744H46.6718Z" fill="#EFF0F5"/>
<path d="M51.8784 144.797C51.8784 144.797 51.8784 144.759 51.8674 144.742C51.8674 144.72 51.8563 144.703 51.8453 144.687C50.8183 141.469 46.6718 141.209 43.8007 140.987C44.8884 139.719 46.1031 137.98 44.4633 136.639C42.713 135.205 40.7806 136.119 39.4941 137.587C38.8481 135.272 38.1303 132.846 36.3249 131.173C34.5967 129.573 32.1894 129.855 30.406 131.284C28.6889 132.657 28.3245 134.912 28.5784 136.988C28.8876 139.475 29.7324 142.023 31.2673 144.027C29.2796 145.008 27.6288 147.378 29.3404 149.355C31.3557 151.687 34.3648 150.961 35.7948 148.508C38.9088 150.258 42.7462 151.355 46.3295 150.867C48.0025 150.64 50.0674 150.114 51.1386 148.685C51.9723 147.572 52.1545 146.132 51.8839 144.797H51.8784ZM50.0674 149.062C48.5711 150.175 46.3405 150.502 44.524 150.48C41.4873 150.441 38.423 149.461 35.8114 147.949C35.6954 147.882 35.5408 147.949 35.4801 148.059C34.3151 150.297 31.7808 151.144 29.8759 149.206C28.1091 147.411 29.8539 145.141 31.7366 144.36C31.8691 144.304 31.9685 144.122 31.8636 143.989C30.4115 142.194 29.5778 139.935 29.1858 137.67C28.849 135.737 28.8655 133.516 30.3287 132.021C31.2231 131.107 32.6697 130.47 33.9562 130.553C34.9776 130.619 35.7506 131.251 36.4298 131.971C37.9868 133.627 38.561 136.052 39.1628 138.19C39.2125 138.362 39.472 138.417 39.5824 138.273C40.6646 136.861 42.3541 135.681 44.0547 136.95C45.7221 138.19 44.0878 139.935 43.1216 141.026C43.0112 141.153 43.0609 141.419 43.2541 141.436C44.6455 141.552 46.081 141.541 47.4393 141.895C49.0018 142.3 50.9067 143.241 51.4091 144.903C51.7293 146.398 51.3484 148.115 50.0729 149.067L50.0674 149.062Z" fill="#EFF0F5"/>
<path d="M30.6874 146.276C30.0966 146.996 29.9531 148.098 30.6212 148.824C31.2064 149.455 32.3493 149.638 33.034 149.056C33.4039 148.741 33.045 148.165 32.6088 148.419C31.3279 149.178 30.4169 147.594 30.9856 146.481C31.0794 146.298 30.8199 146.11 30.6819 146.276H30.6874Z" fill="white"/>
<path d="M41.8241 137.454C41.9014 137.592 42.0947 137.581 42.2272 137.642C42.4536 137.747 42.6634 137.852 42.84 138.035C42.9836 138.19 43.0719 138.362 43.0664 138.578C43.0664 138.672 43.0333 138.755 43.0002 138.849C42.9836 138.905 42.945 139.121 42.9173 139.154C42.7351 139.381 43.0002 139.691 43.2486 139.536C43.4363 139.42 43.5744 139.42 43.6903 139.204C43.7787 139.032 43.8228 138.827 43.8284 138.633C43.8394 138.24 43.6959 137.83 43.4087 137.553C43.1327 137.287 42.6854 137.116 42.3045 137.193C42.2603 137.204 41.7413 137.31 41.8241 137.454Z" fill="white"/>
<path d="M35.7174 162.376C40.6701 160.587 45.4405 157.834 49.7471 154.827C54.0979 151.792 58.0788 148.214 61.4854 144.144C63.3351 141.929 64.8645 139.614 66.0074 136.955C66.173 136.573 65.5933 136.28 65.4332 136.662C63.4234 141.369 59.9726 145.257 56.2733 148.729C52.4857 152.291 48.2287 155.326 43.7068 157.868C41.0565 159.357 38.2959 160.581 35.5518 161.894C35.2592 162.032 35.3972 162.498 35.7174 162.381V162.376Z" fill="white"/>
<path d="M24.2828 157.602C23.2338 156.068 22.135 154.589 21.1964 152.983C20.2191 151.31 19.3909 149.577 18.6511 147.788C17.9609 146.121 17.3536 144.415 16.8567 142.676C16.3321 140.843 16.034 138.966 15.5757 137.121C15.5094 136.855 15.1009 136.95 15.1174 137.21C15.2168 139.076 15.7027 140.943 16.2162 142.737C16.7462 144.615 17.4033 146.464 18.2149 148.242C19.7388 151.576 21.6547 155.015 24.1227 157.746C24.2111 157.84 24.3657 157.701 24.2939 157.596L24.2828 157.602Z" fill="#BCA8CC"/>
<path d="M24.338 156.045C23.8245 154.689 23.0901 153.393 22.4994 152.069C21.8975 150.734 21.3344 149.377 20.8154 148.009C19.805 145.368 18.8829 142.693 18.1154 139.968C16.5087 134.302 15.6861 128.581 15.1339 122.733C15.0953 122.334 14.5045 122.373 14.5155 122.772C14.7309 128.57 15.8848 134.457 17.4805 140.018C18.2866 142.837 19.2363 145.623 20.3792 148.325C20.9534 149.677 21.5552 151.017 22.1957 152.34C22.8086 153.603 23.4104 154.96 24.222 156.112C24.2662 156.173 24.3766 156.129 24.3435 156.051L24.338 156.045Z" fill="#BCA8CC"/>
<path d="M18.8001 156.466C18.7559 156.466 18.7063 156.45 18.6676 156.417C15.6861 153.908 15.3217 151.128 15.3051 151.011L13.9082 129.102C13.9027 128.991 13.9855 128.891 14.1015 128.886C14.2119 128.875 14.3113 128.963 14.3168 129.08L15.7137 150.978C15.7137 150.978 16.0836 153.708 18.9326 156.106C19.021 156.178 19.032 156.306 18.9602 156.394C18.9216 156.444 18.8608 156.466 18.8056 156.466H18.8001Z" fill="white"/>
<path d="M56.3727 121.077C56.3285 121.077 56.2788 121.06 56.2402 121.027C54.4513 119.504 50.0066 118.48 47.8699 117.987C47.4668 117.893 47.1521 117.821 46.9423 117.765C45.9374 117.499 34.4806 118.258 28.5673 118.696C28.4569 118.701 28.3575 118.618 28.3465 118.507C28.3409 118.397 28.4238 118.297 28.5342 118.286C29.2354 118.236 45.7221 117.018 47.0472 117.366C47.2515 117.422 47.5662 117.494 47.9582 117.582C50.1281 118.081 54.6335 119.122 56.4997 120.712C56.588 120.784 56.5935 120.916 56.5218 121C56.4831 121.049 56.4224 121.072 56.3672 121.072L56.3727 121.077Z" fill="white"/>
<path d="M23.4435 147.633C23.3385 147.633 23.2447 147.55 23.2392 147.439C23.195 146.769 22.1791 131.068 22.8582 129.6C22.9079 129.495 22.9521 129.395 22.9962 129.285C23.6091 127.895 24.371 126.161 29.7322 125.436C35.3364 124.682 40.2448 124.616 40.2945 124.616C40.405 124.616 40.4988 124.705 40.4988 124.821C40.4988 124.932 40.4105 125.026 40.2945 125.026C40.2448 125.026 35.3585 125.092 29.7819 125.845C24.6471 126.538 23.9625 128.083 23.3606 129.451C23.3109 129.562 23.2668 129.667 23.2171 129.772C22.687 130.913 23.3385 142.892 23.6367 147.411C23.6422 147.522 23.5594 147.622 23.4435 147.627H23.4324L23.4435 147.633Z" fill="white"/>
<path d="M33.7242 147.677L34.0555 159.806L34.6407 161.312L40.6037 168.606L55.1524 167.643L43.5577 163.112L39.4332 159.972L37.8376 154.788C37.8376 154.788 38.3345 146.797 33.7131 147.677H33.7242Z" fill="#FFC4A3"/>
<path d="M38.2959 165.604C38.2959 165.604 38.191 165.516 38.0198 165.328C37.8266 165.112 37.5781 164.829 37.2689 164.491C36.9376 164.115 36.5456 163.666 36.0984 163.151C35.872 162.885 35.6291 162.608 35.3696 162.309C35.1156 162.01 34.823 161.706 34.58 161.323C34.0942 160.576 33.7574 159.607 33.7518 158.543C33.7298 157.508 33.7132 156.405 33.6856 155.248C33.6469 152.922 33.6028 150.369 33.5586 147.683V147.533L33.6911 147.517C33.8126 147.5 33.9451 147.483 34.0776 147.461C34.9334 147.367 35.8555 147.666 36.4297 148.297C37.0094 148.918 37.3352 149.682 37.556 150.43C37.9812 151.942 38.0474 153.426 37.9922 154.799V154.75C38.5775 156.716 39.102 158.466 39.5437 159.944L39.5051 159.889C40.7529 160.869 41.7688 161.661 42.5031 162.237C42.8289 162.498 43.0884 162.714 43.2982 162.88C43.4749 163.029 43.5688 163.112 43.5632 163.118C43.5577 163.129 43.4528 163.062 43.2651 162.93C43.0498 162.774 42.7737 162.575 42.4369 162.331C41.686 161.778 40.6535 161.008 39.3781 160.066L39.3505 160.044L39.3394 160.011C38.8756 158.543 38.329 156.799 37.7106 154.838V154.816L37.7051 154.788C37.7438 153.454 37.6665 151.975 37.2524 150.529C37.037 149.815 36.7223 149.089 36.1978 148.536C35.6788 147.976 34.9003 147.722 34.1107 147.799C33.9893 147.816 33.8678 147.832 33.7574 147.849L33.8899 147.683C33.923 150.369 33.9561 152.922 33.9837 155.248C34.0776 157.552 33.7187 159.745 34.7678 161.202C34.9941 161.562 35.2702 161.872 35.5187 162.176C35.7671 162.481 36.0045 162.763 36.2254 163.035C36.6561 163.561 37.037 164.026 37.3517 164.414C37.6389 164.774 37.8707 165.062 38.053 165.294C38.2131 165.499 38.2904 165.61 38.2793 165.616L38.2959 165.604Z" fill="#FFA275"/>
<path d="M57.0684 160.293L47.2184 160.808L45.2969 155.53L45.0098 152.662C44.8608 151.15 43.9608 149.787 42.5915 149.134C42.1167 148.907 41.8351 148.901 41.5259 148.907L41.8848 157.602L43.2044 163.001L48.422 166.086L63.5836 164.818L63.2192 164.026C62.1259 161.634 59.6855 160.155 57.0684 160.288V160.293Z" fill="#FFC4A3"/>
<path d="M53.6397 161.24L47.2184 160.808L45.2969 155.53L44.9436 151.98C44.7724 150.247 43.3258 148.879 41.5866 148.901C41.5645 148.901 41.5424 148.901 41.5259 148.901L41.8848 157.596L43.2044 162.996L48.422 166.081" fill="#FFC4A3"/>
<path d="M53.1925 161.246C52.8667 161.229 52.4416 161.213 51.9115 161.191C50.7575 161.124 49.1619 161.035 47.2129 160.925H47.1356L47.108 160.847C46.5393 159.308 45.8822 157.535 45.1589 155.58V155.564L45.1479 155.542C45.0816 154.905 45.0154 154.246 44.9436 153.575C44.9105 153.238 44.8718 152.9 44.8387 152.551C44.8 152.202 44.7835 151.853 44.7007 151.532C44.408 150.219 43.1547 149.078 41.7026 149.067C41.6418 149.067 41.5866 149.067 41.5314 149.067L41.6915 148.896C41.813 152.019 41.9345 154.977 42.0339 157.596V157.569C42.5087 159.59 42.9504 161.423 43.3148 162.979L43.2596 162.907C44.8387 163.871 46.1252 164.652 47.0527 165.217C47.4724 165.477 47.8092 165.693 48.0687 165.854C48.3006 166.003 48.4165 166.086 48.411 166.097C48.4055 166.108 48.2785 166.042 48.0355 165.915C47.765 165.765 47.4171 165.571 46.9865 165.328C46.0423 164.785 44.7393 164.037 43.1381 163.112L43.094 163.09L43.0829 163.04C42.6964 161.49 42.2381 159.662 41.7302 157.646V157.629V157.613C41.6142 154.999 41.4872 152.041 41.3547 148.918V148.752L41.5149 148.746C41.5756 148.746 41.6363 148.746 41.7026 148.746C43.3148 148.757 44.6896 150.02 45.0098 151.465C45.1037 151.831 45.1148 152.185 45.1534 152.529C45.1865 152.872 45.2197 153.215 45.2528 153.553C45.319 154.229 45.3798 154.882 45.4405 155.525L45.4295 155.486C46.1307 157.452 46.7656 159.23 47.3178 160.775L47.2129 160.698C49.1619 160.853 50.7575 160.98 51.906 161.069C52.4305 161.119 52.8557 161.157 53.1814 161.185" fill="#FFA275"/>
<path d="M260.021 111.103C255.748 110.111 251.48 109.126 247.206 108.134C246.593 107.99 245.975 107.852 245.362 107.708C245.279 107.691 245.207 107.708 245.158 107.746C245.08 107.791 245.031 107.874 245.042 107.985C245.042 108.007 245.042 108.029 245.053 108.057C246.599 115.134 248.305 122.174 250.11 129.191C250.524 130.808 254.798 148.303 255.223 149.915C255.643 151.515 255.902 153.348 256.863 154.733C258.359 156.893 260.921 158.471 263.174 159.701C264.775 160.57 266.437 161.307 268.149 161.916C269.021 162.226 270.004 162.542 270.904 162.381C271.042 162.354 271.114 162.198 271.091 162.071C270.302 158.139 269.507 154.207 268.717 150.28C267.453 144.016 262.34 121.869 261.076 115.605C260.783 114.165 260.496 112.725 260.203 111.285C260.187 111.202 260.11 111.125 260.027 111.103H260.021Z" fill="#FFAE00"/>
<path d="M294.419 102.629C293.602 102.28 292.774 101.965 291.923 101.721C288.103 100.63 284.177 99.6828 280.229 99.0514C280.218 99.0514 280.207 99.0514 280.196 99.0514C280.185 99.0514 280.174 99.0459 280.163 99.0404C277.447 98.625 274.973 99.2342 272.35 99.8932C269.673 100.563 267 101.234 264.322 101.898C259.414 103.122 254.505 104.335 249.603 105.587C248.344 105.908 246.803 106.068 245.66 106.722C245.108 107.038 244.749 107.575 245.136 108.173C245.843 109.264 247.692 109.751 248.962 110.1C251.242 110.737 253.528 111.346 255.825 111.9C257.608 112.332 259.392 112.77 261.192 113.135C261.457 113.191 261.76 113.285 262.042 113.312C262.18 113.323 262.318 113.296 262.456 113.263C263.538 112.98 264.621 112.698 265.708 112.415C271.495 110.903 277.281 109.391 283.067 107.879C285.861 107.148 288.649 106.423 291.443 105.692C292.967 105.293 294.524 104.961 296.026 104.496C296.098 104.473 296.169 104.457 296.241 104.44C296.379 104.401 296.451 104.268 296.429 104.13C296.285 103.321 295.049 102.889 294.425 102.624L294.419 102.629Z" fill="#C98B73"/>
<path d="M305.854 138.484C304.871 134.701 300.266 116.519 299.399 113.506C298.908 111.8 298.102 107.846 297.533 106.163C296.893 104.291 295.943 102.585 293.74 102.496C292.117 102.43 290.427 102.79 288.804 103.166C284.409 104.191 280.019 105.254 275.63 106.323C272.328 107.132 269.032 107.94 265.752 108.832C263.693 109.391 261.44 109.846 259.497 110.743C258.442 111.23 257.349 112.039 256.681 113.008C255.985 114.016 255.875 115.339 255.941 116.519C255.968 117.006 256.04 117.494 256.129 117.981C256.521 120.091 256.968 122.196 257.448 124.289C258.751 129.983 264.101 151.51 265.747 157.114C266.376 159.269 266.984 161.667 269.452 162.276C270.97 162.653 272.742 162.182 274.239 161.899C279.451 160.919 284.602 159.562 289.731 158.222C294.082 157.087 298.527 156.095 302.8 154.672C304.457 154.124 307.267 153.437 307.781 151.465C307.968 150.74 307.891 149.915 307.836 149.178C307.742 147.915 307.554 146.664 307.344 145.418C306.952 143.086 306.439 140.771 305.848 138.484H305.854Z" fill="#FFDEAE"/>
<path d="M256.466 142.394C256.421 142.405 256.372 142.394 256.328 142.372C252.943 140.444 252.082 137.78 252.043 137.67L246.709 116.375C246.682 116.264 246.748 116.154 246.858 116.126C246.963 116.093 247.079 116.165 247.107 116.275L252.441 137.559C252.441 137.559 253.296 140.178 256.532 142.017C256.631 142.072 256.664 142.2 256.609 142.294C256.576 142.349 256.526 142.383 256.466 142.394Z" fill="white"/>
<path d="M287.026 100.757C286.982 100.768 286.932 100.757 286.888 100.735C284.851 99.561 280.296 99.3616 278.109 99.2675C277.701 99.2508 277.369 99.2342 277.159 99.2176C276.121 99.1401 264.996 101.965 259.254 103.471C259.143 103.499 259.033 103.432 259.005 103.327C258.978 103.216 259.044 103.105 259.149 103.078C259.828 102.901 275.823 98.7025 277.187 98.8133C277.397 98.8299 277.717 98.841 278.126 98.8632C280.345 98.9628 284.972 99.1622 287.092 100.386C287.192 100.442 287.225 100.569 287.17 100.663C287.136 100.718 287.087 100.752 287.032 100.763L287.026 100.757Z" fill="white"/>
<path d="M259.441 132.857C259.337 132.879 259.232 132.813 259.204 132.707C259.038 132.059 255.201 116.796 255.604 115.229C255.632 115.118 255.659 115.007 255.687 114.896C256.04 113.418 256.476 111.573 261.617 109.89C266.995 108.129 271.809 107.17 271.859 107.159C271.969 107.137 272.074 107.209 272.096 107.32C272.118 107.431 272.047 107.536 271.936 107.558C271.886 107.569 267.094 108.522 261.744 110.272C256.819 111.884 256.427 113.534 256.084 114.985C256.057 115.101 256.029 115.212 256.002 115.328C255.687 116.547 258.492 128.21 259.602 132.602C259.629 132.713 259.563 132.824 259.452 132.851H259.441V132.857Z" fill="white"/>
<path d="M262.257 118.341C262.186 118.037 262.241 117.749 262.417 117.466C262.594 117.184 262.837 116.94 263.135 116.724C263.433 116.508 263.754 116.32 264.096 116.165C264.438 116.01 264.736 115.899 264.99 115.838C265.244 115.777 265.515 115.755 265.797 115.782C266.078 115.81 266.338 115.871 266.57 115.982C266.801 116.093 267.006 116.253 267.171 116.469C267.337 116.685 267.442 116.957 267.475 117.278C267.541 117.771 267.486 118.236 267.304 118.673C267.122 119.111 266.868 119.499 266.531 119.842C266.194 120.185 265.819 120.479 265.388 120.717C264.957 120.955 264.532 121.127 264.107 121.227C264.19 121.575 264.289 121.924 264.4 122.262C264.51 122.6 264.626 122.943 264.742 123.287C264.858 123.63 264.974 123.974 265.084 124.311C265.195 124.649 265.294 124.998 265.377 125.347C265.405 125.452 265.416 125.552 265.416 125.646C265.416 125.74 265.349 125.829 265.211 125.912L264.863 125.707C264.863 125.707 264.814 125.569 264.725 125.319C264.637 125.07 264.516 124.749 264.367 124.35C264.217 123.951 264.052 123.508 263.864 123.004C263.676 122.5 263.494 121.996 263.317 121.487C263.141 120.977 262.964 120.49 262.793 120.019C262.622 119.548 262.484 119.144 262.362 118.801L262.346 118.729L262.313 118.601L262.279 118.457L262.252 118.341H262.257ZM263.174 118.662C263.224 118.862 263.268 119.044 263.312 119.216C263.356 119.388 263.411 119.548 263.472 119.704C263.533 119.859 263.605 120.019 263.682 120.18C263.759 120.34 263.859 120.523 263.974 120.728C264.256 120.612 264.587 120.435 264.957 120.208C265.327 119.98 265.681 119.704 266.001 119.388C266.321 119.072 266.57 118.734 266.757 118.374C266.945 118.014 266.989 117.649 266.901 117.278C266.851 117.078 266.763 116.912 266.63 116.779C266.498 116.646 266.349 116.547 266.178 116.475C266.006 116.403 265.824 116.364 265.631 116.353C265.438 116.342 265.255 116.353 265.084 116.392C264.808 116.458 264.543 116.558 264.278 116.691C264.013 116.824 263.787 116.99 263.599 117.184C263.411 117.377 263.273 117.605 263.19 117.854C263.108 118.103 263.097 118.38 263.168 118.673L263.174 118.662Z" fill="#643F92"/>
<path d="M269.8 115.439C270.147 115.356 270.479 115.384 270.788 115.528C271.097 115.672 271.39 115.888 271.666 116.181C271.942 116.475 272.196 116.829 272.439 117.245C272.682 117.66 272.897 118.097 273.101 118.568C273.306 119.039 273.488 119.515 273.653 120.003C273.819 120.49 273.963 120.95 274.084 121.382C274.206 121.814 274.311 122.207 274.399 122.556C274.487 122.905 274.553 123.182 274.603 123.381L274.261 123.464L273.007 120.59C272.947 120.551 272.836 120.551 272.671 120.579C272.505 120.606 272.312 120.662 272.091 120.734C271.87 120.806 271.638 120.889 271.384 120.983C271.13 121.077 270.893 121.16 270.661 121.232C270.429 121.304 270.225 121.359 270.032 121.398C269.838 121.437 269.695 121.443 269.601 121.404L270.319 124.406L269.595 124.577C269.59 124.55 269.579 124.494 269.562 124.411C269.546 124.328 269.529 124.245 269.513 124.162C269.496 124.079 269.479 123.996 269.468 123.918C269.457 123.841 269.452 123.785 269.446 123.758C269.374 123.193 269.286 122.628 269.181 122.052C269.076 121.476 268.988 120.922 268.911 120.379C268.833 119.836 268.773 119.316 268.74 118.812C268.706 118.308 268.717 117.843 268.773 117.411C268.828 116.979 268.938 116.597 269.098 116.264C269.259 115.932 269.49 115.655 269.8 115.439ZM269.507 112.393C269.424 112.581 269.336 112.759 269.242 112.925C269.148 113.091 269.065 113.246 268.982 113.401C268.9 113.556 268.817 113.717 268.728 113.877C268.64 114.038 268.552 114.215 268.458 114.409L267.994 114.293L269.275 111.247C269.485 111.374 269.678 111.524 269.855 111.695C270.032 111.867 270.203 112.044 270.368 112.232C270.534 112.421 270.7 112.62 270.871 112.82C271.042 113.019 271.219 113.218 271.417 113.412C271.434 113.479 271.428 113.528 271.406 113.556C271.384 113.584 271.346 113.617 271.301 113.639C271.257 113.661 271.202 113.695 271.141 113.722C271.081 113.75 271.02 113.794 270.954 113.85C270.782 113.672 270.644 113.528 270.545 113.423C270.446 113.318 270.352 113.218 270.269 113.119C270.186 113.019 270.092 112.925 269.982 112.82C269.871 112.714 269.717 112.57 269.513 112.393H269.507ZM270.181 116.037C269.932 116.098 269.75 116.231 269.628 116.447C269.507 116.663 269.424 116.923 269.386 117.228C269.347 117.533 269.341 117.865 269.369 118.219C269.397 118.574 269.435 118.917 269.496 119.249C269.557 119.582 269.617 119.886 269.678 120.169C269.739 120.451 269.789 120.667 269.827 120.817C270.291 120.706 270.755 120.556 271.219 120.368C271.682 120.18 272.119 119.997 272.527 119.82C272.527 119.781 272.522 119.715 272.505 119.632C272.488 119.548 272.472 119.449 272.45 119.344C272.428 119.238 272.411 119.139 272.395 119.039C272.378 118.939 272.367 118.878 272.356 118.851C272.279 118.535 272.196 118.241 272.091 117.965C271.986 117.688 271.859 117.427 271.693 117.178C271.528 116.929 271.329 116.713 271.086 116.519C270.843 116.325 270.545 116.165 270.181 116.032V116.037Z" fill="#643F92"/>
<path d="M273.201 115.821L273.25 115.029C273.25 115.029 273.328 114.99 273.46 114.941C273.593 114.891 273.769 114.83 273.99 114.752C274.211 114.675 274.459 114.586 274.735 114.492C275.012 114.398 275.299 114.298 275.586 114.199C275.873 114.099 276.166 113.999 276.447 113.905C276.729 113.811 276.988 113.717 277.226 113.628L277.634 113.528L277.932 113.456L278.115 113.412C278.341 113.357 278.507 113.362 278.611 113.429C278.716 113.495 278.805 113.667 278.871 113.955L276.359 114.874C276.48 115.478 276.64 116.098 276.834 116.746C277.027 117.394 277.231 118.042 277.446 118.696C277.662 119.349 277.877 119.997 278.081 120.639C278.291 121.282 278.462 121.902 278.606 122.5C278.628 122.583 278.617 122.65 278.573 122.694C278.529 122.738 278.473 122.777 278.402 122.805C278.33 122.833 278.258 122.849 278.181 122.849C278.103 122.849 278.032 122.849 277.971 122.849C277.916 122.733 277.833 122.528 277.734 122.229C277.634 121.93 277.518 121.581 277.397 121.182C277.275 120.783 277.137 120.346 276.994 119.881L276.569 118.48C276.425 118.014 276.293 117.566 276.16 117.139C276.027 116.713 275.917 116.342 275.818 116.021C275.718 115.699 275.647 115.45 275.586 115.273C275.525 115.096 275.503 115.035 275.503 115.085L273.178 115.838L273.201 115.821Z" fill="#643F92"/>
<path d="M278.821 114.553C278.921 114.298 279.075 114.066 279.291 113.844C279.506 113.623 279.755 113.429 280.036 113.252C280.318 113.074 280.632 112.914 280.969 112.77C281.306 112.626 281.648 112.504 281.98 112.393C282.311 112.282 282.642 112.183 282.957 112.1C283.272 112.016 283.559 111.939 283.807 111.884C283.824 111.884 283.868 111.872 283.934 111.861C284 111.85 284.072 111.839 284.15 111.823C284.227 111.806 284.293 111.795 284.359 111.778L284.492 111.745C284.58 111.944 284.591 112.094 284.53 112.194C284.47 112.293 284.376 112.365 284.254 112.41C284.133 112.454 283.995 112.482 283.846 112.493C283.697 112.504 283.592 112.526 283.531 112.559C283.437 112.592 283.294 112.653 283.1 112.742C282.907 112.831 282.692 112.936 282.46 113.047C282.228 113.157 281.98 113.279 281.715 113.407C281.45 113.534 281.201 113.656 280.964 113.767C280.726 113.877 280.511 113.983 280.323 114.077C280.136 114.171 279.997 114.237 279.909 114.282C279.771 114.376 279.705 114.464 279.705 114.559C279.705 114.653 279.721 114.752 279.749 114.863C279.799 115.063 279.859 115.284 279.942 115.522C280.025 115.76 280.113 115.998 280.202 116.237C280.29 116.475 280.378 116.685 280.461 116.874C280.544 117.062 280.599 117.206 280.632 117.3C280.671 117.3 280.743 117.289 280.848 117.261L281.063 117.211C281.278 117.162 281.488 117.09 281.687 117.001C281.886 116.912 282.085 116.818 282.278 116.724C282.471 116.63 282.675 116.536 282.885 116.453C283.095 116.37 283.31 116.298 283.542 116.242L283.669 116.768C283.575 116.79 283.443 116.829 283.277 116.885C283.112 116.94 282.929 117.012 282.736 117.095C282.543 117.178 282.344 117.272 282.145 117.366C281.947 117.461 281.77 117.549 281.61 117.638C281.45 117.726 281.323 117.809 281.223 117.881C281.124 117.953 281.085 118.014 281.096 118.064L281.803 121.022C282.245 120.916 282.686 120.795 283.117 120.662C283.548 120.529 283.984 120.39 284.42 120.252C284.856 120.113 285.292 119.975 285.729 119.842C286.165 119.709 286.607 119.587 287.054 119.482C287.081 119.598 287.065 119.698 287.004 119.787C286.943 119.875 286.872 119.953 286.783 120.019C286.695 120.086 286.595 120.141 286.485 120.191L286.242 120.296C286.209 120.313 286.093 120.357 285.9 120.424C285.707 120.49 285.469 120.579 285.182 120.684C284.895 120.789 284.58 120.911 284.232 121.033C283.884 121.155 283.537 121.282 283.194 121.404C282.852 121.526 282.532 121.642 282.228 121.747C281.924 121.852 281.67 121.941 281.466 122.013C281.439 122.03 281.4 122.046 281.339 122.057C281.035 120.789 280.688 119.515 280.301 118.236C279.915 116.962 279.418 115.733 278.816 114.553H278.821Z" fill="#643F92"/>
<path d="M288.092 119.277C288.114 119.15 288.169 119.061 288.263 119.011C288.357 118.961 288.478 119.006 288.633 119.15C288.633 119.166 288.688 119.183 288.787 119.194C288.887 119.205 289.008 119.216 289.157 119.227C289.306 119.238 289.477 119.244 289.671 119.238C289.864 119.233 290.057 119.233 290.245 119.222C290.433 119.211 290.615 119.2 290.791 119.183C290.968 119.166 291.117 119.144 291.239 119.111C291.559 119.033 291.841 118.895 292.078 118.69C292.315 118.485 292.503 118.253 292.647 117.992C292.79 117.732 292.879 117.444 292.917 117.139C292.956 116.835 292.939 116.536 292.867 116.242C292.845 116.159 292.796 116.01 292.718 115.805C292.641 115.6 292.542 115.395 292.426 115.201C292.31 115.007 292.177 114.83 292.028 114.686C291.879 114.542 291.73 114.487 291.576 114.525C290.62 114.874 289.825 115.112 289.19 115.24C288.555 115.367 288.042 115.411 287.639 115.378C287.236 115.345 286.943 115.234 286.744 115.057C286.546 114.88 286.413 114.653 286.336 114.381C286.253 114.038 286.258 113.689 286.358 113.329C286.457 112.969 286.601 112.637 286.811 112.327C287.02 112.016 287.263 111.751 287.556 111.524C287.849 111.297 288.152 111.147 288.472 111.069C288.738 111.009 289.019 110.975 289.328 110.97C289.638 110.964 289.925 111.003 290.201 111.086C290.477 111.169 290.725 111.297 290.935 111.485C291.145 111.673 291.288 111.917 291.36 112.232C291.134 112.288 290.907 112.271 290.692 112.188C290.477 112.105 290.25 112.016 290.03 111.917C289.809 111.817 289.577 111.734 289.339 111.657C289.102 111.579 288.842 111.573 288.572 111.64C288.346 111.695 288.13 111.806 287.926 111.978C287.722 112.149 287.55 112.343 287.407 112.57C287.263 112.797 287.164 113.03 287.098 113.285C287.031 113.54 287.026 113.778 287.087 114.016C287.109 114.11 287.136 114.21 287.164 114.32C287.192 114.431 287.241 114.525 287.302 114.619C287.363 114.714 287.44 114.78 287.539 114.824C287.639 114.869 287.76 114.874 287.909 114.841L291.725 113.927C291.885 113.888 292.039 113.905 292.177 113.977C292.315 114.049 292.448 114.149 292.564 114.282C292.68 114.415 292.785 114.57 292.884 114.747C292.983 114.924 293.066 115.101 293.144 115.273C293.221 115.445 293.282 115.611 293.326 115.76C293.37 115.91 293.409 116.032 293.425 116.12C293.513 116.491 293.547 116.851 293.519 117.206C293.491 117.56 293.409 117.887 293.26 118.203C293.11 118.518 292.906 118.79 292.63 119.028C292.354 119.266 292.023 119.454 291.625 119.593C291.432 119.659 291.172 119.715 290.847 119.764C290.521 119.814 290.19 119.836 289.853 119.831C289.516 119.825 289.185 119.787 288.865 119.709C288.544 119.632 288.296 119.493 288.108 119.299L288.092 119.277Z" fill="#643F92"/>
<path d="M270.76 127.994L294.579 151.82" stroke="#FFAE00" stroke-miterlimit="10"/>
<path d="M273.283 126.261L290.057 152.695" stroke="#FFAE00" stroke-miterlimit="10"/>
<path d="M276.591 125.33L285.259 153.431" stroke="#FFAE00" stroke-miterlimit="10"/>
<path d="M279.219 125.004L282.581 154.445" stroke="#FFAE00" stroke-miterlimit="10"/>
<path d="M272.593 127.656L296.412 151.476" stroke="#FFAE00" stroke-miterlimit="10"/>
<path d="M275.122 125.923L291.89 152.357" stroke="#FFAE00" stroke-miterlimit="10"/>
<path d="M278.424 124.993L287.092 153.094" stroke="#FFAE00" stroke-miterlimit="10"/>
<path d="M281.052 124.666L284.414 154.107" stroke="#FFAE00" stroke-miterlimit="10"/>
<path d="M271.693 128.775L295.512 152.595" stroke="#FFAE00" stroke-miterlimit="10"/>
<path d="M274.217 127.042L290.99 153.476" stroke="#FFAE00" stroke-miterlimit="10"/>
<path d="M277.524 126.111L286.192 154.212" stroke="#FFAE00" stroke-miterlimit="10"/>
<path d="M280.152 125.785L283.514 155.226" stroke="#FFAE00" stroke-miterlimit="10"/>
<path d="M258.149 160.631H267.734C267.734 160.631 271.097 156.156 272.312 154.29C273.377 152.662 274.658 152.18 275.773 152.562C276.066 152.662 276.304 152.878 276.453 153.149C276.679 153.548 276.685 154.03 276.469 154.434L272.256 162.326L274.465 161.578C274.465 161.578 278.888 157.231 279.749 156.228C280.605 155.226 283.752 150.989 286.546 154.074L282.681 158.377L286.546 155.652C286.546 155.652 289.621 152.999 291.266 156.156L279.782 165.87" fill="#FFC4A3"/>
<path d="M248.178 156.649C248.178 156.649 248.305 156.594 248.559 156.516C248.818 156.444 249.188 156.3 249.702 156.25C250.707 156.079 252.242 156.106 254.008 156.699C254.886 156.998 255.825 157.419 256.775 157.973C257.25 158.255 257.73 158.56 258.21 158.898C258.448 159.069 258.691 159.241 258.939 159.418C259.171 159.584 259.458 159.806 259.646 159.906C262.07 160.094 264.847 160.26 267.757 160.465L267.624 160.52C268.519 159.451 269.407 158.288 270.263 157.07C270.595 156.599 270.915 156.117 271.23 155.647C271.539 155.17 271.831 154.683 272.174 154.229C272.51 153.775 272.875 153.343 273.3 152.972C273.51 152.783 273.747 152.623 273.996 152.49C274.261 152.368 274.509 152.246 274.874 152.296H274.818C275.326 152.241 275.901 152.296 276.331 152.656C276.756 153.027 276.878 153.586 276.834 154.096V154.124L276.817 154.151C274.99 157.436 273.405 160.293 272.174 162.509L272.185 162.486C271.909 163.434 271.147 163.987 270.495 164.281C269.816 164.574 269.187 164.635 268.69 164.663C268.187 164.685 267.806 164.663 267.547 164.652C267.287 164.635 267.155 164.624 267.155 164.613C267.155 164.602 267.287 164.597 267.547 164.591C267.806 164.585 268.187 164.591 268.684 164.547C269.176 164.502 269.788 164.425 270.429 164.126C271.053 163.832 271.749 163.29 271.986 162.426V162.414L271.997 162.403C273.206 160.171 274.769 157.303 276.558 153.996L276.541 154.052C276.574 153.642 276.464 153.16 276.138 152.894C275.818 152.623 275.332 152.562 274.863 152.612H274.851H274.807C274.642 152.59 274.366 152.673 274.156 152.783C273.935 152.9 273.72 153.049 273.526 153.227C273.129 153.57 272.775 153.991 272.45 154.434C271.815 155.326 271.23 156.333 270.55 157.275C269.689 158.499 268.8 159.667 267.889 160.747L267.834 160.808H267.751C264.825 160.587 262.103 160.421 259.596 160.199C259.232 160.022 259.049 159.839 258.79 159.656C258.547 159.479 258.31 159.308 258.072 159.136C257.597 158.798 257.128 158.493 256.664 158.211C255.737 157.652 254.82 157.225 253.959 156.921C252.231 156.311 250.734 156.25 249.741 156.383C249.233 156.411 248.863 156.538 248.603 156.588C248.344 156.644 248.206 156.671 248.206 156.66L248.178 156.649Z" fill="#FFA275"/>
</g>
<defs>
<clipPath id="clip0_159_644">
<rect width="319" height="237" fill="white"/>
</clipPath>
</defs>
</svg>
