<?xml version="1.0" encoding="UTF-8"?><svg id="Calque_1" xmlns="http://www.w3.org/2000/svg" viewBox="0 0 818.24 828.73"><path d="M761.42,97.79c-29.49,0-53.4,23.91-53.4,53.4,0,15.41,6.54,29.29,16.98,39.03l-8.75,19.93,25.46-9.34c6.1,2.42,12.74,3.77,19.71,3.77,29.49,0,53.4-23.91,53.4-53.4s-23.91-53.4-53.4-53.4Z" fill="#fff"/><path d="M277.3,1.07c-22.99,0-41.62,18.63-41.62,41.62,0,12.01,5.1,22.83,13.23,30.43l-6.82,15.54,19.84-7.28c4.75,1.89,9.93,2.94,15.36,2.94,22.99,0,41.62-18.63,41.62-41.62S300.28,1.07,277.3,1.07Z" fill="#fff"/><path d="M748.63,136.37c.22.8.64,1.55,1.21,2.15-.86.32-1.6.88-2.33,1.43-3.34,2.52-6.73,5.1-10.62,6.65.14-.05-.36-1.52-.42-1.67-.27-.69-.42-.76.32-1,1.1-.36,2.19-.72,3.25-1.2,2.09-.94,4.05-2.17,5.81-3.64,1-.83,1.93-1.74,2.78-2.72Z" fill="#e7374c"/><path d="M776.5,136.37c-.22.8-.64,1.55-1.21,2.15.86.32,1.6.88,2.33,1.43,3.34,2.52,6.73,5.1,10.62,6.65-.14-.05.36-1.52.42-1.67.27-.69.42-.76-.32-1-1.1-.36-2.19-.72-3.25-1.2-2.09-.94-4.05-2.17-5.81-3.64-1-.83-1.93-1.74-2.78-2.72Z" fill="#e7374c"/><path d="M756.4,159.43c.12.4.14.8.16,1.23.02.32.17,2.27.17,2.61.09,6.84,1.31,18.11,1.7,22.8.08.95.28,1.75.1,2.58-.04.2-.1.41-.16.61-.15.51-.3,1.04-.23,1.58l.36.03-.2.02c.95-1.18,1.22-2.65,1.27-3.69.07-1.32.36-2.73.17-4-.17-1.12-.64-2.21-.62-3.37.03-1.16.06-2.36-.12-3.5-.13-.81-.35-1.61-.56-2.39-.43-1.55-.78-13.36-.48-14.91.03-.15.12-.4.27-.37.05,0,.1.04.15.07l.02.02c.51.35,1.24.39,1.95.12.62-.24,1.13-.67,1.63-1.09l.07-.06-.25-.29c.04-.13.12-.24.22-.35.1-.11.2-.23.25-.39.03-.08.06-.16.12-.2.12-.07.3.07.38.2.16.24.27.54.37.82.15.42.3.84.64,1.14.39.34.96.46,1.71.37.18-.02.36-.05.53-.09.38-.07.78-.14,1.16-.11.11,0,.24.03.33.1.14.11.15.34.15.53-.02.88-1.11,12-1.3,12.85l-.38,3.42c-.38,1.76-.21,3.37-.25,5.13-.03,1.2-.3,2.49-.44,3.7-.21,1.89.33,3.89,1.33,5.58.11.19.08.04.3.05.11,0,.21-.04.28-.13.07-.1.06-.02.05-.14-.03-.49-.11-.61-.23-1.07-.06-.24-.12-.48-.17-.72-.2-.99-.18-2.01-.14-3.06.13-3.64.48-7.31,1.03-10.91.18-1.17.54-12.71.82-13.86.15-.62.31-1.26.45-1.88.3-1.36.58-2.91.75-4.32.1-.86.15-1.75.2-2.61.14-2.36.28.6,1.43-1.45.31-.56.61-1.14.89-1.71.39-.78.8-1.59,1.26-2.33.14-.22.28-.45.42-.66.36-.56.74-1.14,1.03-1.75.38-.8.62-1.67.85-2.5.13-.47.37-.95.6-1.41.41-.81.83-1.64.7-2.52-.04-.28.09-.5.21-.63.24-.27.64-.43,1.01-.41.54.03,1.04.3,1.52.57.09.05.18.1.28.15,1.18.63,2.28.88,3.28.74.83-.12,1.59-.51,2.32-.89.33-.17.67-.35,1.02-.49,1.59-.69,3.4-.83,5.08-.42.26.06.52.14.77.22.42.13.85.26,1.29.33.99.16,1.99.02,2.96-.12.17-.02.33-.05.5-.07.63-.08,1.53-.13,1.98.43.39.49.31,1.25-.24,2.25-.47.85-1.13,1.83-2.15,1.97-.2.03-.41.02-.62,0-.27-.01-.56-.03-.84.04-.32.08-.61.35-.71.65-.07.21-.04.41.08.57.09.11.22.2.41.26.28.1.59.13.88.16.46.05.9.1,1.23.38.41.36.48.97.54,1.55.01.11.02.21.03.32.1.84.4,1.65.86,2.36.09.13.19.28.35.37.16.08.34.09.53,0,.26-.11.48-.37.56-.65.07-.24.08-.5.08-.74,0-.18,0-.37.04-.55.13-.74.72-1.28,1.29-1.81.13-.12.27-.25.4-.37.56-.56,1.03-1.2,1.39-1.9.87-1.71.99-3.73.33-5.4-.58-1.46-1.69-3.21-3.73-3.3-2.25-.09-4.54-.15-6.79-.15-2.81,0-5.76.08-8.35,1.22-.05.02-.1.05-.16.07-.41.18-.83.37-1.26.36-.39-.01-.78-.2-1.12-.36-.72-.34-1.46-.7-2.05-1.25-.3-.28-.55-.61-.8-.92-.18-.23-.37-.47-.57-.69-.51-.56-1.13-1.01-1.73-1.44l-1.66-1.21-.19-.23s-.05-.04-.07-.05c-3.48-2.23-7.49-3.59-11.61-3.94-5.87-.49-11.56,1.2-15.61,4.63-1.26,1.07-2.22,2.4-2.7,3.73-.31.21-.54.51-.75.8-.18.25-.37.5-.61.69-.72.57-1.76.44-2.59.27-.64-.13-1.3-.3-1.93-.46-1.81-.46-3.67-.94-5.54-.68-.29.04-.58.1-.86.15-.7.14-1.41.28-2.11.15-.36-.07-.71-.2-1.05-.34-.25-.1-.5-.2-.76-.27-1.14-.33-2.39-.14-3.39.02-.61.09-1.3.2-1.92.48-.65.29-1.14.79-1.37,1.39-.41,1.07-.83,2.18-.9,3.35-.12,1.93.48,3.81,1.73,5.44.25.33.55.55.83.77.21.16.41.31.58.5.4.42.45.87.51,1.39.02.2.04.4.09.61.11.53.31.62.47.61.33-.03.59-.57.61-1.03.01-.33,0-.66-.02-.98-.04-.66-.07-1.29.17-1.92.37-.97.96-1.38,1.95-1.39.71,0,1.59-.08,1.73-.42.05-.14,0-.29-.18-.45-.18-.17-.68-.21-1.16-.25-.26-.02-.5-.04-.63-.08-.9-.26-1.58-.75-2.08-1.5-.7-1.04-.47-2.12.15-2.56.52-.37.99-.22,1.54-.06.09.03.17.05.26.08.94.26,1.64.22,2.59.05.4-.07.82-.15,1.22-.24,1.9-.38,3.86-.78,5.69-.1.36.13.71.32,1.09.51.69.36,1.4.72,2.14.78,1.07.08,2.37-.32,3.42-.64.14-.04.27-.08.4-.12.18-.05.35-.11.52-.17.78-.26,1.53-.51,2.32-.11.93.48,1.09,1.27,1.28,2.19.03.17.07.34.11.52.13.56.24,1.16.34,1.73.25,1.38.5,2.8,1.17,4.03l-.02.02.13.19h.01c.92,1.13,1.94,2.55,3.05,4.22.55.83,1.12,1.73,1.41,2.74" fill="#ff8acd"/><path d="M728.19,141.7c0,.16.02.31.03.47,0,0-.01,0-.02,0,.04.04.09.07.13.11l-.14-.58Z" fill="#fbd3d8"/><path d="M796.66,141.52l-.14.58s.09-.07.13-.11c0,0-.01,0-.02,0,0-.16.02-.31.03-.47Z" fill="#fbd3d8"/><path d="M744.07,133.98s4.48-10.56,18.46-10.79c10.58-.17,19.1,10.45,19.1,10.45,0,0-8.95-7.43-19.03-7.45-10.27-.02-18.53,7.79-18.53,7.79Z" fill="#fbd3d8"/><path d="M761.8,152.61c-.52.62-1.4.99-2.23.84-.4-.07-.79-.24-1.2-.24-1.21,0-.78,1.24-.68,1.91.16,1.03.05,17.33.21,18.36.2,1.24.39,2.49.5,3.74.08.86.11,1.73.26,2.59.14.82.39,1.63.54,2.45.36,1.91.23,3.86,0,5.78-.08.69-.21,1.55-.65,2.13-.21.27-.05.67.28.74.05.01.1.02.15.04.56.16,1.17.28,1.74.16.58-.12,1.12-.53,1.21-1.07.56.73,1.54,1.17,2.5,1.12s1.89-.57,2.37-1.35c-.57-.87-.91-1.87-1.07-2.88-.27-1.67-.06-3.36.16-5.03.52-4.07,1.78-23.36,2.68-27.37.09-.42-.33-1.02-.74-1.22-.3-.14-.66,0-.98.1-1.19.36-2.71-.15-3.08-1.26-.07-.22-.1-.45-.16-.67l-1.53-.16" fill="#fbd3d8"/><path d="M763.78,151.12c-.16,0-.3-.13-.32-.29-.11-1.21-.14-2.43-.11-3.64.01-.55.05-1.12.3-1.64.03-.06.06-.11.09-.17.06-.11.12-.22.14-.31.02-.08,0-.16-.02-.17-.13-.06-.2-.2-.18-.34.02-.14.13-.25.27-.27.07,0,.15-.17.16-.38,0-.05,0-.09,0-.14.01-.27.02-.62.26-.89.02-.02.04-.04.05-.06,0,0,0,0,0,0,0-.02-.02-.04-.02-.05-.05-.1-.11-.26-.08-.45.05-.27.28-.4.43-.49.02-.01.04-.02.06-.04-.02-.03-.04-.07-.06-.12-.15-.4.15-.72.33-.92l.05-.06s.05-.09.06-.13c-.09-.05-.15-.14-.16-.24-.02-.14.06-.27.19-.33.25-.11.39-.27.39-.32h0s0-.01-.03-.03c-.1-.1-.16-.24-.16-.37,0-.35.3-.45.42-.49-.02-.09-.04-.22,0-.37.06-.19.21-.28.3-.35.02-.02.05-.03.07-.05.06-.05.08-.19.11-.34.01-.07.02-.15.04-.22.06-.24.22-.47.42-.59-.03-.25.05-.41.16-.52.14-.15.32-.18.45-.2.04,0,.1-.02.12-.03,0,0,.02-.07.04-.1.02-.07.05-.14.09-.22.09-.15.28-.21.44-.12.15.09.21.28.12.44-.01.02-.03.07-.04.11-.04.11-.09.27-.24.39-.13.11-.29.14-.4.16-.02,0-.06.01-.08.02,0,.03.02.09.08.19.07.13.04.28-.06.38-.09.09-.23.11-.35.06-.03.03-.09.09-.1.17-.01.06-.02.11-.03.17-.04.23-.08.51-.31.72-.05.04-.1.07-.14.1-.01,0-.03.02-.04.03,0,.01,0,.03,0,.04.02.11.06.3-.06.48-.07.1-.17.16-.25.2.08.14.11.3.08.45-.05.25-.24.45-.42.58.06.27-.06.57-.22.75l-.06.06c-.07.07-.19.21-.2.26,0,0,.01.02.02.03.04.06.09.15.1.27.04.35-.25.52-.41.61-.04.02-.08.05-.11.07,0,.02.02.04.03.06.05.12.13.3.06.51-.04.12-.12.2-.17.25-.01.01-.02.02-.03.03-.09.1-.09.29-.1.49,0,.05,0,.11,0,.16-.02.31-.12.57-.28.74.06.16.07.35.04.51-.04.19-.12.34-.2.48-.03.05-.05.09-.07.14-.2.4-.22.88-.24,1.38-.03,1.19,0,2.39.11,3.57.02.18-.12.33-.29.35,0,0-.02,0-.03,0Z" fill="#ee2e45"/><path d="M762.54,154.58l.18.66c.05.2.11.4.11.6,0,.47-.31.87-.32,1.33s.2,1,.26,1.47" fill="#f77f96"/><path d="M762.77,159.04c-.2,0-.37-.15-.4-.36-.02-.17-.06-.36-.11-.56-.08-.31-.15-.64-.15-.96,0-.29.1-.55.18-.78.07-.19.14-.38.14-.54,0-.15-.05-.32-.1-.5l-.18-.66c-.06-.21.07-.43.28-.49.21-.06.43.07.49.28l.18.66c.06.21.12.45.13.7,0,.31-.1.58-.18.82-.07.19-.13.36-.13.52,0,.23.06.49.12.76.05.21.1.44.13.66.02.22-.13.42-.35.44-.02,0-.03,0-.05,0Z" fill="#ef2e45"/><path d="M763.45,159.53c.27,1.03.18.59-.15,1.58-.14.41.07.9-.14,1.28" fill="#f77f96"/><path d="M763.15,162.79c-.07,0-.14-.02-.2-.05-.19-.11-.26-.36-.14-.55.06-.1.05-.27.04-.47,0-.22-.02-.48.07-.74.1-.3.18-.48.24-.6.02-.05.05-.12.06-.14,0-.04-.05-.25-.11-.47l-.04-.15c-.06-.21.07-.43.29-.49.21-.06.43.07.49.29l.04.15c.16.62.19.73,0,1.14-.05.11-.12.27-.21.53-.04.12-.03.27-.03.44.01.27.03.6-.15.91-.07.13-.21.2-.35.2Z" fill="#ef2e45"/><path d="M762.52,164.48c.07.23.09.47.04.71" fill="#f77f96"/><path d="M762.56,165.58s-.05,0-.07,0c-.22-.04-.36-.25-.32-.47.03-.17.02-.35-.03-.51-.07-.21.05-.44.26-.5.21-.07.44.05.5.26.09.29.11.6.05.9-.04.19-.2.33-.39.33Z" fill="#ef2e45"/><path d="M766.92,190.4c-.12,0-.19-.11-.23-.18-1.08-1.83-1.55-3.84-1.35-5.68.05-.43.11-.87.18-1.29.12-.8.24-1.63.26-2.4.01-.49,0-.98,0-1.46-.01-1.24-.03-2.41.25-3.69l.38-3.43c.19-.87,1.27-11.99,1.29-12.82h.32c-.02.83-1.1,11.94-1.3,12.88l-.38,3.43c-.27,1.24-.26,2.4-.24,3.63,0,.48.01.97,0,1.47-.02.79-.14,1.63-.26,2.44-.06.42-.13.86-.17,1.28-.2,1.76.26,3.71,1.3,5.47.04-.01.1-.02.17-.02.06,0,.11-.02.14-.07,0-.01.02-.02.02-.03,0,0,0,0,0,0-.02-.32-.06-.47-.13-.7-.03-.1-.06-.21-.1-.34-.06-.25-.12-.49-.17-.73-.2-1.01-.18-2.04-.14-3.1.13-3.64.48-7.32,1.03-10.92.08-.49.19-2.92.3-5.5.16-3.61.35-7.7.52-8.38.15-.62.31-1.25.45-1.88.24-1.08.56-2.7.74-4.31.1-.85.15-1.74.2-2.59.05-.86.09-1.05.26-1.11.14-.05.24.05.32.13.1.1.17.16.26.15.09-.01.3-.12.62-.69.31-.55.6-1.13.89-1.7.4-.79.8-1.6,1.27-2.35.14-.22.28-.45.43-.66.36-.56.74-1.13,1.02-1.74.38-.79.61-1.65.84-2.48.14-.49.38-.97.61-1.44.39-.79.8-1.6.68-2.42-.05-.34.11-.6.25-.76.27-.3.72-.48,1.13-.46.58.03,1.09.32,1.59.59.09.05.18.1.27.15,1.14.62,2.21.86,3.18.72.8-.12,1.55-.5,2.27-.87.34-.17.68-.35,1.03-.5,1.62-.7,3.46-.85,5.18-.43.26.06.53.14.78.22.41.12.84.25,1.27.32.96.15,1.95.01,2.92-.12.18-.02.34-.05.5-.07.67-.09,1.63-.13,2.12.49.43.55.36,1.37-.23,2.43-.48.88-1.18,1.91-2.27,2.05-.22.03-.44.02-.65,0-.26-.01-.54-.03-.79.04-.26.07-.52.29-.6.54-.05.16-.03.3.06.42.07.09.18.16.34.21.26.09.56.13.85.16.47.05.95.1,1.31.42.46.4.53,1.04.59,1.65.01.11.02.22.03.32.1.81.39,1.6.83,2.29.08.12.17.25.29.31.12.06.25.06.39,0,.21-.09.4-.32.47-.55.06-.22.07-.47.07-.7,0-.19,0-.39.04-.58.14-.79.75-1.35,1.34-1.9.13-.12.27-.25.39-.37.55-.54,1.01-1.17,1.36-1.86.85-1.67.97-3.64.33-5.27-.56-1.41-1.64-3.12-3.59-3.2-2.25-.09-4.53-.14-6.78-.15-2.79-.01-5.73.08-8.28,1.21l-.16.07c-.42.19-.86.39-1.34.37-.43-.01-.83-.21-1.18-.38-.73-.35-1.48-.71-2.09-1.28-.3-.29-.56-.62-.82-.94-.18-.23-.36-.46-.56-.68-.5-.55-1.11-.99-1.71-1.42l-1.69-1.23-.19-.23-.04-.02c-3.46-2.22-7.45-3.57-11.54-3.91-5.83-.49-11.48,1.19-15.49,4.59-1.24,1.05-2.18,2.35-2.65,3.67l-.02.05-.04.03c-.29.19-.5.48-.71.76-.19.26-.38.52-.64.72-.77.61-1.86.48-2.72.3-.65-.13-1.31-.3-1.94-.46-1.79-.46-3.64-.93-5.47-.67-.29.04-.57.1-.85.15-.71.14-1.44.29-2.17.15-.38-.07-.73-.21-1.08-.35-.25-.1-.5-.2-.75-.27-1.11-.32-2.34-.13-3.32.02-.6.09-1.28.19-1.88.46-.61.27-1.07.74-1.28,1.3-.4,1.06-.82,2.16-.89,3.31-.12,1.89.47,3.73,1.69,5.33.24.31.52.53.8.74.21.16.42.32.6.52.44.46.5.96.55,1.49.02.19.04.39.08.6.03.15.12.48.29.48,0,0,0,0,0,0,.21-.02.44-.46.46-.88.01-.32,0-.65-.02-.96-.04-.68-.08-1.32.18-1.99.39-1.03,1.04-1.49,2.1-1.49,1.39,0,1.56-.27,1.58-.32.03-.09-.06-.2-.14-.27-.14-.13-.65-.17-1.06-.2-.28-.02-.52-.04-.66-.08-.94-.27-1.65-.78-2.17-1.56-.75-1.12-.49-2.29.19-2.78.58-.41,1.11-.25,1.67-.08.09.03.17.05.26.08.91.26,1.59.21,2.52.05.4-.07.81-.15,1.2-.23,1.93-.39,3.91-.79,5.79-.09.37.14.73.32,1.11.52.67.35,1.37.71,2.08.76,1.05.07,2.33-.32,3.36-.63.14-.04.27-.08.41-.12.18-.05.35-.11.52-.17.78-.26,1.59-.54,2.44-.1,1,.51,1.18,1.38,1.37,2.3.04.17.07.34.11.51.13.57.24,1.16.34,1.73.25,1.37.5,2.78,1.15,3.99l.06.12h0s.05.05.05.05c.92,1.14,1.95,2.57,3.06,4.24.56.84,1.13,1.75,1.43,2.78l-.31.09c-.29-.99-.84-1.87-1.39-2.69-1.07-1.61-2.06-2.99-2.95-4.1h0s-.1-.11-.1-.11l-.22-.31.04-.03c-.63-1.23-.88-2.62-1.12-3.96-.1-.57-.21-1.16-.34-1.72-.04-.17-.08-.34-.11-.51-.19-.93-.34-1.65-1.2-2.09-.73-.38-1.41-.15-2.2.12-.17.06-.35.12-.53.17-.13.04-.27.08-.4.12-1.06.32-2.38.72-3.48.65-.77-.05-1.5-.43-2.2-.79-.37-.19-.72-.37-1.07-.5-1.79-.67-3.73-.28-5.61.1-.41.08-.82.17-1.22.24-.98.17-1.69.21-2.66-.06-.09-.03-.18-.05-.27-.08-.53-.16-.94-.29-1.4.04-.56.4-.75,1.38-.11,2.34.48.72,1.13,1.19,1.99,1.43.11.03.36.05.59.07.54.04,1.04.08,1.26.29.28.26.27.48.22.62-.05.13-.2.52-1.88.52-.93,0-1.46.38-1.81,1.28-.23.6-.2,1.21-.16,1.85.02.32.04.66.02.99-.02.55-.34,1.15-.76,1.18-.22.02-.51-.1-.64-.74-.04-.22-.07-.43-.09-.63-.05-.51-.1-.92-.46-1.3-.17-.18-.36-.33-.57-.48-.29-.23-.6-.46-.86-.8-1.27-1.66-1.88-3.58-1.76-5.54.08-1.2.5-2.32.91-3.4.24-.64.76-1.17,1.45-1.48.64-.29,1.34-.39,1.96-.49,1.02-.15,2.28-.35,3.46-.01.27.08.52.18.77.28.34.13.68.27,1.03.33.66.12,1.37-.02,2.05-.15.27-.05.57-.11.87-.16,1.9-.26,3.78.22,5.6.68.63.16,1.28.33,1.93.46.8.16,1.79.28,2.46-.24.22-.17.4-.42.58-.66.21-.29.44-.59.75-.81.49-1.35,1.46-2.68,2.73-3.75,4.08-3.46,9.81-5.16,15.72-4.66,4.14.35,8.18,1.71,11.68,3.96.05.02.09.05.12.09l.18.21,1.64,1.19c.61.44,1.23.89,1.75,1.47.21.23.39.47.58.7.24.31.5.64.78.9.57.53,1.3.89,2.01,1.22.32.16.69.33,1.05.34.4.01.8-.17,1.19-.34l.16-.07c2.61-1.15,5.58-1.24,8.41-1.24,2.26,0,4.54.05,6.79.15,2.13.09,3.28,1.9,3.87,3.4.68,1.71.55,3.78-.34,5.54-.37.72-.84,1.38-1.42,1.94-.13.13-.27.25-.4.38-.55.51-1.12,1.04-1.24,1.72-.03.16-.03.35-.04.52,0,.26-.01.52-.09.78-.1.33-.35.63-.65.76-.23.1-.46.09-.67-.01-.19-.1-.31-.26-.41-.42-.47-.73-.78-1.56-.88-2.42-.01-.1-.02-.21-.03-.31-.06-.56-.12-1.13-.48-1.45-.29-.25-.7-.29-1.14-.34-.31-.03-.62-.07-.92-.17-.22-.08-.37-.18-.48-.32-.16-.2-.2-.46-.11-.72.12-.36.45-.66.83-.75.3-.08.6-.06.88-.05.2.01.4.02.59,0,.95-.12,1.58-1.07,2.03-1.88.52-.94.61-1.64.26-2.08-.4-.5-1.23-.45-1.83-.37-.16.02-.32.04-.49.07-1,.14-2.02.28-3.03.12-.45-.07-.89-.2-1.31-.33-.25-.08-.51-.15-.77-.22-1.65-.41-3.42-.26-4.98.41-.34.15-.68.32-1,.49-.75.39-1.52.78-2.38.9-1.04.15-2.17-.11-3.38-.76-.09-.05-.18-.1-.27-.15-.47-.26-.95-.53-1.45-.56-.32-.01-.67.13-.88.36-.1.11-.21.28-.17.5.13.93-.3,1.78-.71,2.61-.23.45-.46.92-.59,1.38-.23.84-.47,1.72-.86,2.53-.3.62-.68,1.21-1.04,1.77-.14.22-.29.44-.42.66-.45.73-.86,1.54-1.25,2.32-.29.57-.58,1.16-.9,1.72-.3.54-.58.81-.85.85-.23.03-.39-.1-.5-.2-.02.12-.04.34-.07.73-.05.87-.1,1.76-.2,2.62-.19,1.62-.51,3.26-.75,4.34-.14.63-.29,1.27-.45,1.89-.16.65-.35,4.9-.51,8.32-.12,2.7-.23,5.02-.31,5.53-.55,3.59-.9,7.26-1.03,10.89-.04,1.03-.06,2.04.14,3.02.05.23.11.47.16.7.04.15.07.25.09.34.07.23.12.41.14.77,0,.02,0,.04,0,.04,0,.03.01.11-.07.17,0,0-.02.02-.02.03-.1.14-.25.21-.42.2-.05,0-.07,0-.1.02-.04.02-.08.03-.11.03Z" fill="#643f92"/><path d="M758.15,191.08l.07-.09h-.01s-.02-.13-.02-.13c-.08-.57.08-1.12.23-1.65.06-.2.12-.41.16-.6.13-.58.06-1.14-.02-1.79-.03-.24-.06-.48-.08-.74-.09-1.04-.22-2.41-.37-3.99-.51-5.38-1.27-13.5-1.34-18.82,0-.21-.06-1.05-.11-1.72-.03-.41-.06-.76-.06-.88-.02-.42-.04-.81-.16-1.19l.31-.09c.13.42.15.83.17,1.27,0,.12.03.47.06.87.05.68.11,1.52.11,1.74.07,5.31.83,13.43,1.34,18.8.15,1.58.28,2.95.37,4,.02.25.05.49.08.72.08.65.16,1.26.02,1.9-.05.21-.11.42-.16.62-.13.44-.26.9-.24,1.35.84-1.12,1.08-2.49,1.13-3.46.02-.41.07-.83.11-1.24.09-.92.19-1.87.06-2.73-.06-.41-.17-.82-.27-1.22-.18-.7-.36-1.42-.35-2.17.03-1.15.06-2.35-.12-3.47-.12-.8-.34-1.6-.56-2.36-.43-1.54-.81-13.3-.48-14.99.05-.27.2-.54.45-.5.08.01.15.06.22.1l.02.02-.18.26-.02-.02s-.05-.04-.07-.04c-.03.03-.07.12-.1.24-.3,1.59.07,13.38.48,14.83.22.78.44,1.59.57,2.41.18,1.15.15,2.36.12,3.53-.02.7.16,1.41.34,2.09.1.41.21.83.28,1.25.14.9.04,1.87-.06,2.81-.04.41-.09.83-.11,1.23-.06,1.02-.31,2.48-1.22,3.67v.15s-.58.06-.58.06Z" fill="#643f92"/><path d="M752.96,133.14c-.45-.2-.97-.11-1.45-.01-1.05.21-2.1.42-3.15.63-.63.13-1.27.26-1.88.45-.81.25-1.58.6-2.41.8-1.04.25-2.13.25-3.16-.02-1.29-.33-2.47-1.04-3.79-1.23-1.38-.2-2.78.19-4.18.25-1.57.06-3.13-.32-4.7-.41-1.57-.09-3.28.18-4.4,1.29-1.35,1.33-1.44,3.55-.73,5.31.71,1.76,2.07,3.16,3.39,4.51.11.11.25.23.4.21.1-.02.18-.09.24-.16.68-.78.62-2.2,1.56-2.61-.58-.49-1.16-.98-1.74-1.47-.62-.52-1.26-1.08-1.52-1.84-.17-.5-.16-1.03-.15-1.56,0-.51.03-1.05.34-1.45.37-.47,1.02-.6,1.61-.64,1.79-.12,3.58.26,5.37.1.93-.08,1.84-.31,2.77-.3,2.75,0,5.36,1.99,8.05,1.44.66-.13,1.28-.42,1.91-.66,2.1-.82,4.36-1.22,6.61-1.19.33.18.77.19,1.15.12.06-.01,4.8.52,4.86.51l.04-1.23c-.09-.13-4.91-.77-5.05-.84Z" fill="#fbd3d8"/><path d="M802.04,134.7c-1.12-1.11-2.83-1.37-4.4-1.29s-3.13.47-4.7.41c-1.4-.05-2.79-.45-4.18-.25-1.32.19-2.5.91-3.79,1.23-1.03.26-2.13.27-3.16.02-.82-.2-1.6-.55-2.41-.8-.62-.19-1.25-.32-1.88-.45-1.05-.21-2.1-.42-3.15-.63-.48-.1-1-.19-1.45.01-.14.06-.26.17-.35.29-.35.03-5.58.8-5.92.87-.05-.05-.09-.09-.14-.14l.59,1.81c.78-.31,6.48-1.26,7.31-1.39,2.09.03,4.18.43,6.13,1.19.63.24,1.25.53,1.91.66,2.7.55,5.3-1.43,8.05-1.44.93,0,1.85.22,2.77.3,1.78.16,3.58-.22,5.37-.1.59.04,1.24.17,1.61.64.31.4.33.95.34,1.45.01.52.02,1.06-.15,1.56-.26.76-.91,1.32-1.52,1.84-.58.49-1.16.98-1.74,1.47.94.41.88,1.83,1.56,2.61.06.07.14.15.24.16.16.02.29-.1.4-.21,1.33-1.35,2.68-2.76,3.39-4.51.71-1.76.62-3.98-.73-5.31Z" fill="#fbd3d8"/><path d="M768.57,133.68c0,.17-.27.14-.39.03-.12-.11-.27-.27-.42-.21-.06.03-.1.09-.16.12-.15.08-.33-.02-.48-.09-.16-.07-.41-.05-.42.12-.07-.34-.63-.41-.79-.1-.15-.16-.3-.31-.46-.47-.03.26-.46.38-.59.11-.03-.05-.07-.1-.13-.12-.15-.04-.18.11-.26.2-.2.24-.57-.03-.76-.28.02.21-.23.36-.44.32-.21-.05-.35-.22-.47-.4-.06.17-.18.31-.33.4l-.29-.34c-.18.28-.65.31-.85.05-.11.18-.22.35-.32.53l-.37-.45c-.13.06-.23.2-.24.34-.2-.02-.39-.14-.51-.3-.14.37-.7.47-.96.18.04.16-.12.32-.29.34-.17.02-.33-.04-.49-.11.08.17-.17.32-.36.29-.19-.02-.39-.12-.56-.03-.1.05-.16.16-.24.22-.22.17-.49.08-.75-.04-.01-.02-.03-.05-.04-.07l-.03.85c.1-.02.19-.03.29,0,.15.03.27.14.38.24.44.41.89.82,1.33,1.23.25.23.5.46.72.72-.05-.03-.14.01-.15.08-.01.08.05.15.1.21.42.47.86.98.92,1.61.01.12,0,.25.07.35.15.27.63.28.68.58.04.25-.27.45-.25.7.02.27.39.39.46.66.04.15-.03.31,0,.46.02.1.08.18.13.26.11.17.19.36.27.55.2.49.37.99.51,1.5.15.54.25,1.09.36,1.64.22,1.13.44,2.3.28,3.44-.12.86-.46,1.74-.23,2.57.17.61.66,1.3.49,1.92-.02.07-.05.14-.08.21l1.06.11c-.02-.1-.06-.19-.11-.28-.05-.09-.13-.16-.23-.21.08-.44.34-.99.45-1.44.09-.4.05-.82.02-1.23-.1-1.2-.14-2.4-.11-3.61.01-.52.04-1.05.27-1.51.09-.18.21-.35.25-.55.04-.2-.02-.44-.2-.53.29-.04.42-.39.44-.68.02-.29,0-.62.19-.84.05-.06.11-.11.14-.18.06-.18-.14-.35-.11-.53.05-.27.56-.31.53-.58,0-.09-.08-.16-.11-.24-.09-.24.15-.46.32-.65.17-.19.23-.58-.02-.63.36-.16.79-.52.47-.87-.04-.04-.07-.09-.07-.15,0-.21.3-.16.4-.3.09-.13-.04-.31,0-.45.04-.12.18-.17.28-.26.19-.17.19-.47.24-.72.06-.25.32-.52.54-.39-.1-.18-.19-.42-.05-.56.13-.14.38-.08.53-.2.12-.1.13-.28.21-.41.07-.13.21-.21.34-.29.32-.19.66-.35,1.01-.49l-.41-1.26s-.09-.09-.14-.14Z" fill="#fbd3d8"/><path d="M762.42,149.46s-.03,0-.05,0c-.18-.03-.3-.19-.27-.36.16-1.1-.06-2.24-.28-3.33-.11-.54-.21-1.09-.36-1.62-.13-.49-.3-.99-.5-1.46-.07-.17-.15-.35-.25-.5l-.02-.03c-.05-.09-.12-.2-.15-.34-.02-.12-.01-.24,0-.33,0-.04.01-.1,0-.12,0-.03-.09-.1-.14-.15-.13-.12-.31-.29-.33-.56-.02-.23.09-.41.17-.54.03-.04.06-.1.07-.13-.03-.03-.11-.07-.17-.1-.16-.08-.35-.18-.47-.38-.08-.15-.1-.3-.1-.42v-.06c-.05-.52-.43-.97-.84-1.42-.07-.07-.22-.24-.18-.48,0-.02,0-.04.01-.06-.16-.16-.32-.32-.49-.47l-1.33-1.23c-.13-.12-.14-.32-.02-.45.12-.13.32-.14.45-.02l1.33,1.23c.24.22.51.47.75.75.09.11.1.26.03.37.44.49.86,1.03.92,1.71v.07c0,.05.02.13.03.15.02.04.13.09.2.13.18.09.46.23.51.56.04.25-.08.44-.17.58-.03.05-.08.12-.08.15,0,.02.08.09.13.13.12.11.27.25.32.47.03.14.02.26,0,.36,0,.05-.01.1,0,.12,0,.03.04.08.07.12l.02.03c.12.2.21.4.29.6.21.5.38,1.02.53,1.54.15.55.26,1.11.36,1.65.22,1.1.46,2.34.28,3.55-.02.16-.16.28-.32.28ZM758.89,137.37s0,0,0,0c0,0,0,0,0,0Z" fill="#ee2e45"/><path d="M756.87,134.57c-.25,0-.47-.1-.61-.16-.16-.07-.23-.26-.16-.42s.26-.23.42-.16c.28.13.37.12.43.08.01-.01.04-.04.06-.06.05-.06.12-.13.23-.19.23-.12.46-.07.63-.03.04,0,.08.02.13.03h0c0-.07.04-.15.09-.2.09-.09.23-.12.35-.07.1.04.23.1.32.09,0,0,.01,0,.02,0,0-.13.06-.25.17-.31.13-.07.29-.04.38.07.05.05.14.07.23.06.09-.02.17-.07.2-.14.04-.11.14-.19.26-.2.12-.01.23.04.3.14.02.03.04.05.07.08.07-.1.17-.18.28-.23.13-.06.29-.02.38.09l.08.1.09-.15c.05-.09.15-.15.25-.15.1,0,.21.04.27.12.03.04.1.06.17.06.07,0,.13-.04.16-.08.05-.09.15-.14.25-.15.1,0,.2.03.27.11l.06.08s0-.02.01-.03c.04-.12.14-.2.27-.21.12-.02.24.04.31.15.1.16.19.24.27.26.01,0,.03,0,.05-.01,0-.13.08-.24.2-.29.14-.05.29,0,.37.11.09.13.21.21.27.23,0,0,0,0,0-.01.15-.24.34-.33.57-.26.13.04.23.13.31.25,0,0,0,0,0,0,.02-.11.1-.2.21-.24.12-.04.25,0,.33.08l.24.25c.13-.06.29-.09.45-.07.15.02.28.07.38.15.18-.05.36-.01.49.04.02.01.05.02.07.03.04.02.1.05.14.06,0,0,0,0,0,0,.04-.03.1-.08.18-.12.33-.14.58.1.72.23h0s.06-.04.1-.06c.12-.05.25-.02.34.07l.14.14c.13.12.13.33,0,.45-.1.1-.26.12-.38.06-.2.05-.44,0-.6-.15l-.04-.04s-.05-.05-.07-.07c-.02.02-.05.04-.09.06-.27.15-.55.03-.71-.05l-.06-.03s-.01,0-.02,0c-.05.09-.15.15-.26.15-.16,0-.3-.1-.33-.25,0,0-.03-.03-.09-.04-.05,0-.09,0-.1.02-.05.09-.14.16-.24.17-.1.02-.21-.02-.28-.09l-.2-.21c-.07.04-.15.08-.24.09-.2.04-.4-.02-.53-.15-.12.12-.27.19-.44.18-.17,0-.33-.08-.47-.18-.16.12-.38.16-.57.12-.15-.03-.27-.1-.37-.19-.06.06-.13.11-.2.15-.13.08-.31.05-.41-.07l-.08-.1c-.11.06-.23.09-.36.1-.12,0-.25-.01-.36-.05l-.15.25c-.05.09-.15.15-.25.15-.1,0-.2-.04-.27-.12l-.1-.12s-.03.04-.05.06c-.07.06-.15.08-.24.07-.16-.02-.31-.07-.44-.15-.12.09-.26.15-.41.18-.15.03-.3.02-.43-.02-.1.11-.25.18-.4.21-.12.02-.24,0-.34-.02-.14.15-.38.23-.6.21-.06,0-.12-.02-.18-.04-.06-.01-.15-.04-.18-.03,0,0-.04.04-.06.06-.04.04-.08.09-.14.14-.15.12-.32.16-.47.16ZM768.41,133.77h0s0,0,0,0Z" fill="#ee2e45"/><path d="M758.43,136.15c.97.91,1.97,1.87,2.37,3.18.21.7.29,1.43.44,2.15.16.73.45,1.42.75,2.11.11.25.54.07.44-.19-.77-2-1.55-4.01-2.32-6.01-.11-.28-.56-.17-.46.13.21.64.48,1.26.8,1.85l.42-.24c-.55-.83-1.04-1.7-1.48-2.6-.08-.17-.41-.15-.44.06-.11.82.2,1.57.54,2.31.37.79.75,1.58,1.12,2.37.11.23.44.1.45-.12s-.01-.43-.06-.64c-.05-.22-.42-.23-.46,0-.09.49.68.49.62-.02-.03-.22-.17-.45-.28-.64-.12-.23-.27-.44-.43-.65-.07-.1-.18-.15-.3-.1-.1.04-.19.17-.14.28.41,1.01.83,2.01,1.24,3.02.12.28.58.16.46-.13-.41-1.01-.83-2.01-1.24-3.02l-.44.19c.14.18.26.36.37.55.05.09.1.18.15.28.02.04.04.08.06.13.02.03.03.06.04.09.03.11.14.11.3-.02l.02.19v-.03h-.46c.04.17.05.34.04.51l.45-.12c-.34-.72-.68-1.44-1.02-2.16-.31-.66-.7-1.39-.59-2.14l-.44.06c.43.9.93,1.77,1.48,2.6.17.26.56.03.42-.24-.3-.56-.55-1.14-.75-1.74l-.46.13c.77,2,1.55,4.01,2.32,6.01l.44-.19c-.31-.72-.59-1.44-.74-2.21-.14-.72-.22-1.45-.47-2.14-.45-1.3-1.45-2.27-2.43-3.19-.23-.21-.57.13-.34.34h0Z" fill="#ee2e45"/><path d="M758.76,134.4c2.76-.31,5.55-.38,8.32-.2.31.02.31-.46,0-.48l-3.27-.22-1.59-.11c-.52-.03-1.05-.11-1.56.04-.28.08-.19.44.06.47.7.08,1.4.1,2.1.04.3-.02.31-.48,0-.48-1.37-.01-2.74.1-4.1.34-.23.04-.23.42,0,.46,1.33.24,2.68.23,4.03.18s2.76-.13,4.14-.19c.26-.01.34-.42.06-.47-.65-.12-1.32.03-1.97.08-.69.05-1.39.09-2.08.1-1.38.03-2.75-.03-4.12-.16-.27-.03-.33.42-.06.47,2.48.44,5.02.44,7.5-.01.3-.06.18-.52-.13-.46-2.39.43-4.85.44-7.24.01l-.06.47c1.34.13,2.69.18,4.04.16.67-.01,1.34-.04,2-.09.34-.03.68-.06,1.02-.09s.66-.08.98-.02l.06-.47c-1.35.06-2.71.13-4.06.18s-2.66.08-3.98-.16v.46c1.31-.23,2.64-.33,3.97-.32v-.48c-.7.06-1.41.04-2.1-.04l.06.47c.48-.14,1.02-.05,1.51-.01l1.59.11c1.06.07,2.13.14,3.19.21v-.48c-2.77-.18-5.56-.11-8.32.2-.3.03-.31.52,0,.48h0Z" fill="#ee2e45"/><path d="M765.94,137.72c-.06,1.72-.66,3.38-1.68,4.76l.45.12c.04-.45.2-.87.37-1.29.17-.42.34-.84.54-1.25.37-.75.96-1.4,1.24-2.19.1-.29-.36-.42-.46-.13-.14.4-.39.75-.62,1.1-.25.38-.47.77-.66,1.18s-.36.82-.52,1.23c-.18.44-.32.88-.36,1.35-.02.26.32.29.45.12,1.08-1.45,1.68-3.21,1.75-5.01.01-.31-.47-.31-.48,0h0Z" fill="#ee2e45"/><path d="M766.57,136.92c-.88.9-1.22,2.14-1.55,3.32-.19.68-.38,1.37-.5,2.07-.1.57-.06,1.32-.43,1.79l.38.05c-.14-.26-.1-.55-.02-.82.08-.29.19-.58.29-.87.21-.61.43-1.22.66-1.82.46-1.19.99-2.36,1.68-3.44.17-.26-.25-.5-.42-.24-.74,1.16-1.3,2.41-1.78,3.69-.24.64-.47,1.28-.69,1.93-.2.58-.46,1.23-.14,1.82.07.12.28.17.38.05.39-.49.42-1.07.5-1.67.1-.72.28-1.42.47-2.12.33-1.19.62-2.49,1.51-3.4.22-.22-.12-.56-.34-.34h0Z" fill="#ee2e45"/><path d="M763.91,143.27c-.08.26-.17.52-.21.79-.04.24-.02.49-.06.74s-.14.47-.18.72c-.04.28-.02.55.06.82.09.3.55.17.46-.13-.07-.24-.09-.48-.03-.72.05-.23.13-.44.16-.68s.02-.45.05-.67c.04-.25.12-.49.2-.73.1-.3-.37-.42-.46-.13h0Z" fill="#ee2e45"/><path d="M762.4,151.54c0,.24-.03.49-.01.73s.1.49.35.56c.27.07.5-.12.59-.36s-.02-.47-.14-.67c-.03-.05-.06-.09-.09-.14-.02-.03-.03-.05-.05-.08,0,0-.03-.07-.02-.05-.03-.06-.05-.13-.06-.19,0-.01,0-.02,0-.04,0,0,0-.05,0-.03,0,.03,0-.03,0-.03,0-.02,0-.04,0-.06,0-.13-.11-.25-.24-.24-.13,0-.25.11-.24.24,0,.27.09.53.23.76.03.05.07.1.1.15.01.02.02.04.03.06,0,0,.04.09.02.04.01.03.02.06.03.08.01.05,0-.03,0,.02,0,.03,0,.03,0,0,0,.01,0,.03,0,.04,0,.03,0,.02,0,0,0,0,0,.02-.01.03-.03.05.02,0-.01.02,0,0-.02.02-.03.03.03-.02.03-.02,0,0,.03-.01.04-.01.02,0-.02,0-.01,0,.02,0-.03,0-.02,0,.01,0-.03,0-.02,0,0,0-.02-.01-.02-.01,0,0-.02-.02-.02-.01,0,.01,0-.01-.02-.03-.03-.04.03.06,0,0,0-.03,0-.01,0-.02,0-.04,0,.03,0,.04,0,.02,0-.11,0-.23,0-.35,0-.14,0-.28,0-.42,0-.13-.11-.25-.24-.24s-.24.11-.24.24h0Z" fill="#ee2e45"/><path d="M758,135.61c1.19.43,1.95,1.59,2.38,2.73.54,1.44.68,2.99,1.24,4.42.11.28.57.17.46-.13-.27-.74-.55-1.48-.82-2.22s-.52-1.46-.82-2.18c-.27-.65-.62-1.24-1.09-1.76s-1.01-.97-1.55-1.41c-.17-.14-.39-.04-.41.17,0,.08,0,.15.04.22.02.03.04.06.06.09.04.06.04.06.01,0l.11-.14h-.03c.06,0,.12,0,.19,0l.1.16-.12.21.02-.02c.24-.19,0-.6-.24-.42-.12.09-.18.22-.11.37.05.1.17.17.28.17.13,0,.25-.11.28-.24.02-.08,0-.16-.03-.23-.02-.04-.09-.12-.09-.16l-.41.17c.51.42,1.03.84,1.48,1.33.48.52.83,1.11,1.09,1.76.57,1.4,1.06,2.84,1.59,4.26l.46-.13c-.86-2.17-.81-4.77-2.52-6.54-.41-.42-.89-.74-1.44-.94-.29-.11-.42.36-.13.46h0Z" fill="#ee2e45"/><path d="M758.03,134.47c1.66.1,3.32.1,4.98,0,.8-.05,1.6-.14,2.4-.17s1.66,0,2.48.07v-.48c-1.53.14-3.06.29-4.59.4-1.48.1-2.97.11-4.42-.23l-.13.46c2.48.36,5,.3,7.47-.17.3-.06.18-.52-.13-.46-2.37.45-4.82.51-7.21.17-.3-.04-.44.39-.13.46,1.46.35,2.98.35,4.47.26s3.11-.26,4.67-.4c.31-.03.31-.45,0-.48-.82-.08-1.65-.1-2.48-.07s-1.6.12-2.4.17c-1.66.11-3.32.11-4.98,0-.31-.02-.31.46,0,.48h0Z" fill="#ee2e45"/><path d="M766.64,136.44c-.92,1.07-1.3,2.43-1.57,3.79-.15.75-.28,1.5-.48,2.24-.1.37-.22.74-.38,1.09-.15.33-.32.64-.46.97-.15.36-.25.71-.29,1.09-.04.31-.05.66-.31.87l.41.17c0-1.15.94-2.08.85-3.26-.02-.22-.33-.35-.45-.12-.4.8-.51,1.71-.31,2.59l.4-.23c-.41-.43-.11-1.24.03-1.72.18-.66.38-1.32.59-1.97.38-1.2.81-2.4,1.45-3.5.36-.62.78-1.19,1.29-1.69.22-.22-.12-.56-.34-.34-.97.97-1.64,2.17-2.15,3.42-.54,1.31-.96,2.69-1.32,4.07-.18.67-.41,1.51.13,2.08.17.18.46,0,.4-.23-.18-.75-.09-1.53.26-2.22l-.45-.12c.09,1.16-.85,2.1-.85,3.26,0,.22.26.3.41.17.49-.4.38-1.09.53-1.64.19-.71.62-1.34.86-2.03.49-1.4.59-2.9,1.03-4.31.23-.75.56-1.47,1.07-2.06.2-.23-.14-.58-.34-.34h0Z" fill="#ee2e45"/><path d="M763.11,146.53c-.03.39.13.75.19,1.13s.04.74-.02,1.1c-.02.13.03.26.17.3.12.03.27-.04.3-.17.07-.4.09-.8.05-1.2-.02-.2-.06-.4-.11-.59s-.09-.37-.08-.57c0-.13-.12-.24-.24-.24-.14,0-.23.11-.24.24h0Z" fill="#ee2e45"/><path d="M761.9,143.45c.08.77.16,1.55.24,2.32.03.3.48.32.48,0,0-.8-.11-1.6-.31-2.38-.06-.26-.48-.21-.47.06.05,1.17.2,2.34.45,3.48.07.3.53.17.46-.13-.24-1.1-.39-2.23-.43-3.36l-.47.06c.18.74.28,1.49.29,2.25h.48c-.08-.77-.16-1.55-.24-2.32-.03-.3-.51-.31-.48,0h0Z" fill="#ee2e45"/><path d="M726.9,141.48c.2-.13.45-.17.69-.19,1.46-.14,2.93-.12,4.39.04,1.29.14,2.62.42,3.68,1.18,1.4,1.01,2.15,2.84,1.86,4.54-.13.76-.48,1.52-1.13,1.93-.43.27-.95.37-1.45.44-1.53.22-3.11.27-4.62-.07s-2.96-1.1-3.93-2.31c-.21-.26-.4-.55-.51-.86-.16-.45-.15-.95-.2-1.42-.08-.64-.28-1.27-.59-1.84.27-.08.58-.05.83.08,0-.31-.07-.61-.19-.89.62.09.71-.33,1.17-.64Z" fill="#643f92"/><path d="M798.17,141.77c-.2-.13-.45-.17-.69-.19-1.46-.14-2.93-.12-4.39.04-1.29.14-2.62.42-3.68,1.18-1.4,1.01-2.15,2.84-1.86,4.54.13.76.48,1.52,1.13,1.93.43.27.95.37,1.45.44,1.53.22,3.11.27,4.62-.07s2.96-1.1,3.93-2.31c.21-.26.4-.55.51-.86.16-.45.15-.95.2-1.42.08-.64.28-1.27.59-1.84-.27-.08-.58-.05-.83.08,0-.31.07-.61.19-.89-.62.09-.71-.33-1.17-.64Z" fill="#643f92"/><path d="M527.16,535.53s-18.47-2.54-29.74,26.14c-13.14,33.43-22.08,59.48-20.73,98.24,1.11,31.9,17.45,125.18,23.2,157.17,1.14,6.32,6.64,10.92,13.06,10.92h36.35c6.68,0,12.33-4.97,13.17-11.6,4.23-33.38,15.63-129.56,11.56-165.05-4.96-43.26-12.62-113.11-46.87-115.81Z" fill="#ebebeb"/><path d="M568.91,607.22s0,.52-.07,1.52c-.07,1.11-.17,2.55-.29,4.35-.19,1.88-.55,4.18-.9,6.85-.58,2.63-1.01,5.67-1.98,8.93-1.71,6.55-4.41,14.22-8.57,22.16-4.15,7.94-9.75,16.16-16.81,23.73-7.02,7.63-14.93,13.68-22.62,18.27-7.74,4.49-14.98,8.14-20.14,12.52-5.21,4.32-8.27,9.02-9.69,12.51-.72,1.74-1.06,3.18-1.29,4.14-.18.98-.29,1.49-.29,1.49,0,0,.05-.52.2-1.51.2-.98.51-2.42,1.22-4.19,1.37-3.53,4.43-8.3,9.64-12.68,5.18-4.45,12.43-8.14,20.13-12.64,7.66-4.59,15.52-10.63,22.51-18.22,7.03-7.54,12.62-15.71,16.77-23.62,4.17-7.91,6.89-15.53,8.63-22.05.98-3.24,1.43-6.27,2.04-8.89.37-2.66.76-4.94.97-6.82.15-1.8.28-3.24.37-4.34.09-.99.16-1.51.16-1.51Z" fill="#fafafa"/><path d="M564.59,592.34s-.37,1.1-1.11,3.18c-.7,2.1-1.88,5.14-3.47,9.03-3.21,7.75-8.48,18.77-16.68,31.37-8.24,12.54-19.59,26.59-34.58,39.66-1.84,1.67-3.83,3.21-5.78,4.85-1.96,1.62-4.04,3.17-6.34,4.43-2.29,1.24-4.9,2.16-7.62,2.02-2.72-.1-5.34-1.43-7.23-3.4-1.93-1.96-3.26-4.48-3.99-7.16-.73-2.68-.94-5.49-.96-8.28.07-5.59.16-11.24.49-16.97.36-5.72,1.13-11.39,2.82-16.74,1.72-5.32,4.35-10.33,8.05-14.34,3.64-4.02,8.45-6.98,13.64-7.89,5.15-.97,10.56-.12,14.84,2.52,4.35,2.6,7.04,7.24,7.76,11.91.79,4.69.04,9.41-1.62,13.51-1.65,4.13-4.11,7.7-6.7,10.88-2.64,3.15-5.31,6.04-8.11,8.57-2.82,2.46-5.94,4.51-9.34,5.14-3.39.67-6.8-.6-8.84-2.82-2.1-2.2-3.11-4.95-3.49-7.48-.38-2.55-.04-4.93.5-6.96,1.12-4.07,2.81-6.92,3.86-8.85,1.1-1.92,1.72-2.9,1.72-2.9,0,0-.57,1.01-1.64,2.94-1.03,1.94-2.69,4.8-3.77,8.85-.52,2.02-.84,4.37-.45,6.88.38,2.49,1.4,5.2,3.46,7.33,2.01,2.16,5.3,3.38,8.61,2.71,3.31-.62,6.39-2.65,9.18-5.1,2.77-2.51,5.44-5.41,8.06-8.55,2.57-3.17,5-6.72,6.62-10.8,1.63-4.05,2.36-8.71,1.57-13.31-.72-4.59-3.34-9.09-7.59-11.63-4.19-2.57-9.5-3.4-14.55-2.45-5.09.9-9.8,3.8-13.39,7.76-3.64,3.95-6.24,8.91-7.95,14.18-1.67,5.3-2.43,10.94-2.79,16.64-.33,5.7-.42,11.38-.49,16.94.02,2.78.23,5.54.94,8.17.71,2.61,2.01,5.07,3.87,6.97,1.84,1.92,4.33,3.18,6.94,3.28,2.61.14,5.15-.75,7.4-1.97,2.27-1.23,4.33-2.77,6.28-4.38,1.94-1.63,3.93-3.17,5.77-4.83,14.97-13.03,26.33-27.03,34.59-39.53,8.23-12.56,13.53-23.54,16.78-31.27,1.61-3.88,2.81-6.9,3.54-8.99.77-2.07,1.19-3.15,1.19-3.15Z" fill="#fafafa"/><path d="M564,571.02s-.08.37-.27,1.07c-.2.69-.45,1.73-.95,3.01-.93,2.57-2.58,6.24-5.51,10.2-2.89,3.96-7.11,8.2-12.71,11.53-2.79,1.66-5.91,3.13-9.31,4.12-3.4,1.01-7.05,1.55-10.79,1.78-7.49.42-14.62-.1-21.06.45-6.44.47-12.09,2.36-16.25,4.87-2.09,1.26-3.8,2.67-5.14,4.06-1.31,1.42-2.26,2.81-2.9,4.01-1.26,2.42-1.49,3.96-1.57,3.93,0,0,.08-.37.27-1.07.16-.7.55-1.71,1.15-2.94.62-1.23,1.56-2.64,2.87-4.1,1.34-1.43,3.06-2.87,5.16-4.16,4.19-2.58,9.89-4.52,16.38-5.01,6.48-.58,13.62-.07,21.07-.49,3.72-.23,7.33-.76,10.69-1.75,3.37-.97,6.46-2.42,9.23-4.05,5.56-3.28,9.76-7.46,12.67-11.36,2.94-3.9,4.63-7.53,5.61-10.07.53-1.26.81-2.29,1.03-2.97.22-.69.36-1.04.36-1.04Z" fill="#fafafa"/><path d="M488.52,601.92s.1-1.2.93-3.17c.81-1.97,2.51-4.65,5.36-7.22,2.82-2.61,6.81-4.9,11.29-7.16,4.51-2.23,9.35-4.9,13.92-8.47,4.54-3.59,8.42-7.56,11.52-11.51,3.09-3.95,5.44-7.84,7.17-11.22,1.76-3.37,2.8-6.27,3.56-8.26.3-.9.55-1.66.77-2.32.18-.53.3-.8.3-.8,0,0-.06.29-.21.83-.2.67-.42,1.44-.69,2.35-.71,2-1.71,4.94-3.44,8.34-1.7,3.41-4.03,7.34-7.12,11.33-3.1,3.98-7,7.99-11.57,11.6-4.59,3.59-9.5,6.28-14.01,8.48-4.49,2.24-8.46,4.48-11.27,7.03-2.84,2.51-4.56,5.13-5.41,7.06-.44.96-.69,1.75-.85,2.28-.14.54-.24.82-.24.82Z" fill="#fafafa"/><path d="M543.84,723.29s-.19,0-.56-.02c-.37-.01-.92-.08-1.65-.08-1.45-.05-3.6,0-6.32.42-2.71.42-6,1.3-9.53,2.98-3.5,1.69-7.32,4.2-10.45,7.97-1.51,1.91-2.83,4.2-3.39,6.8-.6,2.57-.14,5.57,1.77,7.71,1.9,2.13,4.88,3.28,7.91,3.34,3.06.07,6.15-.88,9.13-2.13,5.98-2.53,11.87-6.16,17.13-10.9,5.2-4.72,10.12-10.5,12.52-17.62,1.17-3.54,1.59-7.31.89-10.88-.68-3.55-2.29-6.91-4.72-9.44-2.42-2.55-5.73-4.07-9.09-4.3-3.38-.25-6.68.53-9.72,1.61-12.12,4.77-21.92,11.56-29.36,17.97-7.45,6.46-12.55,12.66-15.84,17.07-1.63,2.22-2.86,3.98-3.64,5.2-.8,1.21-1.23,1.84-1.23,1.84,0,0,1.5-2.67,4.73-7.15,3.25-4.45,8.33-10.69,15.78-17.21,7.44-6.46,17.23-13.3,29.43-18.12,3.07-1.1,6.43-1.9,9.9-1.65,3.46.23,6.89,1.8,9.38,4.42,2.5,2.6,4.15,6.02,4.84,9.66.72,3.65.28,7.51-.9,11.1-2.44,7.24-7.42,13.05-12.65,17.81-5.3,4.77-11.23,8.42-17.26,10.96-3.01,1.26-6.15,2.22-9.3,2.15-3.12-.07-6.2-1.25-8.18-3.49-2-2.25-2.46-5.39-1.83-8.03.59-2.67,1.94-4.99,3.48-6.92,3.2-3.82,7.06-6.31,10.59-8,3.56-1.67,6.88-2.53,9.61-2.93,2.74-.4,4.9-.41,6.35-.33,1.45.08,2.21.19,2.21.19Z" fill="#fafafa"/><path d="M572.75,723.58s-.15.3-.49.85c-.41.66-.89,1.45-1.47,2.39-.63,1.05-1.43,2.31-2.48,3.68-1.04,1.39-2.13,3.04-3.59,4.66-.71.84-1.45,1.71-2.21,2.61-.78.9-1.68,1.76-2.56,2.69-1.74,1.89-3.82,3.68-5.97,5.61-4.43,3.7-9.6,7.41-15.43,10.66-5.87,3.18-11.78,5.56-17.27,7.31-2.78.77-5.41,1.58-7.94,2.03-1.26.25-2.46.55-3.64.72-1.18.16-2.31.32-3.39.47-2.16.36-4.13.4-5.86.53-1.73.15-3.22.15-4.44.12-1.11-.02-2.03-.03-2.81-.04-.64-.01-.98-.04-.98-.04,0,0,.34-.03.98-.05.77-.01,1.7-.03,2.8-.04,1.22,0,2.7-.02,4.43-.19,1.72-.16,3.69-.22,5.84-.59,1.08-.16,2.21-.32,3.38-.49,1.17-.18,2.37-.49,3.62-.74,2.52-.46,5.13-1.28,7.89-2.06,5.47-1.76,11.34-4.14,17.18-7.31,5.8-3.23,10.96-6.91,15.38-10.58,2.14-1.91,4.23-3.68,5.97-5.56.89-.92,1.79-1.76,2.57-2.66.77-.9,1.52-1.76,2.23-2.58,1.47-1.61,2.58-3.24,3.63-4.61,1.07-1.36,1.89-2.6,2.54-3.63.61-.93,1.12-1.7,1.54-2.34.36-.53.56-.8.56-.8Z" fill="#fafafa"/><path d="M569.94,753.1s-.28.19-.83.5c-.67.38-1.47.82-2.42,1.36-1.06.58-2.35,1.3-3.8,2.2-1.46.9-3.16,1.86-4.94,3.07-3.63,2.32-7.81,5.31-12.29,8.84-4.43,3.58-9.14,7.72-13.78,12.39-4.6,4.7-8.68,9.47-12.19,13.96-3.46,4.53-6.39,8.75-8.66,12.42-1.19,1.8-2.13,3.51-3,4.98-.88,1.47-1.59,2.76-2.15,3.83-.52.96-.96,1.77-1.33,2.44-.31.56-.49.84-.49.84,0,0,2.19-4.89,6.7-12.26,2.24-3.7,5.15-7.95,8.6-12.5,3.5-4.51,7.58-9.3,12.2-14.02,4.65-4.68,9.38-8.83,13.84-12.4,4.5-3.52,8.71-6.49,12.37-8.78,7.31-4.61,12.16-6.87,12.16-6.87Z" fill="#fafafa"/><path d="M559.27,805.52c.01.11-2.17.11-5.53.95-1.68.4-3.63,1.1-5.7,2.07-2.05,1.01-4.21,2.32-6.28,3.96-2.04,1.67-3.77,3.51-5.2,5.3-1.38,1.82-2.48,3.58-3.22,5.14-1.53,3.11-1.99,5.24-2.1,5.21,0,0,.34-2.16,1.81-5.34.72-1.6,1.8-3.39,3.18-5.25,1.42-1.83,3.17-3.7,5.24-5.4,2.1-1.67,4.29-2.98,6.38-3.98,2.11-.96,4.09-1.63,5.81-2,3.42-.77,5.61-.64,5.61-.64Z" fill="#fafafa"/><rect x="515.83" y="557.87" width="20.67" height="30.53" fill="#643f92"/><path d="M554.68,567.75c0,7.1-1.67,12.85-3.73,12.85s-3.73-5.76-3.73-12.85,1.67-12.85,3.73-12.85,3.73,5.76,3.73,12.85Z" fill="#643f92"/><path d="M550.95,554.89h12.46c2.01,0,3.83,1.25,4.49,3.15,1.29,3.74,2.61,10.57-.21,19.35-.62,1.93-2.47,3.21-4.5,3.21h-12.23v-25.71Z" fill="#643f92"/><path d="M550.76,554.85c.01-.06.45-.04,1.04.44.59.47,1.17,1.43,1.52,2.65.66,2.44,1.26,5.84,1.42,9.66.07,1.91.04,3.73-.09,5.38-.13,1.64-.25,3.15-.72,4.4-.45,1.25-1.24,2.07-1.87,2.44-.64.38-1.07.37-1.08.31-.1-.13,1.58-.66,2.2-2.99.32-1.12.37-2.58.44-4.21.07-1.62.07-3.41,0-5.28-.15-3.73-.62-7.12-1.07-9.51-.24-1.18-.63-2.05-1.06-2.54-.41-.5-.78-.66-.74-.75Z" fill="#ff8acd"/><path d="M502.69,564.92h48.21c1.22,1.15,1.03,2.43,0,3.79l-12.82,3.57s-2.51,10.49-11.27,9.55c-8.77-.94-11.43-8.69-11.43-8.69l-12.68-2.25v-5.97Z" fill="#e1e1e1"/><path d="M528.99,579.17c-3.18,0-5.77-2.59-5.77-5.77s2.59-5.77,5.77-5.77,5.77,2.59,5.77,5.77-2.59,5.77-5.77,5.77ZM528.99,569.78c-2,0-3.62,1.63-3.62,3.63s1.63,3.62,3.62,3.62,3.63-1.63,3.63-3.62-1.63-3.63-3.63-3.63Z" fill="#643f92"/><path d="M491.31,567.98c0,7.1-1.67,12.85-3.73,12.85s-3.73-5.76-3.73-12.85,1.67-12.85,3.73-12.85,3.73,5.76,3.73,12.85Z" fill="#643f92"/><path d="M487.58,555.12h12.46c2.01,0,3.83,1.25,4.49,3.15,1.29,3.74,2.61,10.57-.21,19.35-.62,1.93-2.47,3.21-4.5,3.21h-12.23v-25.71Z" fill="#643f92"/><path d="M487.39,555.09c.01-.06.45-.04,1.04.44.59.47,1.17,1.43,1.52,2.65.66,2.43,1.26,5.84,1.42,9.66.07,1.91.04,3.73-.09,5.38-.13,1.64-.25,3.15-.72,4.4-.45,1.25-1.24,2.07-1.87,2.44-.64.38-1.07.37-1.08.31-.1-.13,1.58-.66,2.2-2.99.32-1.12.37-2.58.44-4.21.07-1.62.07-3.41,0-5.28-.15-3.73-.62-7.12-1.07-9.51-.24-1.18-.63-2.05-1.06-2.54-.41-.5-.78-.66-.74-.75Z" fill="#ff8acd"/><rect x="524.09" y="783.09" width="20.67" height="30.53" fill="#643f92"/><path d="M562.95,792.96c0,7.1-1.67,12.86-3.73,12.86s-3.73-5.76-3.73-12.86,1.67-12.85,3.73-12.85,3.73,5.76,3.73,12.85Z" fill="#643f92"/><path d="M559.22,780.1h12.46c2.01,0,3.83,1.25,4.49,3.15,1.29,3.74,2.61,10.57-.21,19.35-.62,1.93-2.47,3.21-4.5,3.21h-12.23v-25.71Z" fill="#643f92"/><path d="M559.03,780.07c.01-.06.45-.04,1.04.44.59.47,1.17,1.43,1.52,2.65.66,2.44,1.26,5.84,1.42,9.66.07,1.91.04,3.73-.09,5.38-.13,1.64-.25,3.15-.72,4.4-.45,1.25-1.24,2.07-1.87,2.44-.64.38-1.07.37-1.08.31-.1-.13,1.58-.66,2.2-2.99.32-1.12.37-2.58.44-4.21.07-1.62.07-3.41,0-5.28-.15-3.73-.62-7.12-1.07-9.51-.24-1.18-.63-2.05-1.06-2.54-.41-.5-.78-.66-.74-.75Z" fill="#ff8acd"/><path d="M510.96,790.13h48.21c1.22,1.15,1.03,2.43,0,3.79l-12.82,3.57s-2.51,10.49-11.27,9.55c-8.77-.94-11.43-8.69-11.43-8.69l-12.68-2.25v-5.97Z" fill="#e1e1e1"/><path d="M537.26,804.39c-3.18,0-5.77-2.59-5.77-5.77s2.59-5.77,5.77-5.77,5.77,2.59,5.77,5.77-2.59,5.77-5.77,5.77ZM537.26,794.99c-2,0-3.63,1.63-3.63,3.62s1.63,3.63,3.63,3.63,3.63-1.63,3.63-3.63-1.63-3.62-3.63-3.62Z" fill="#643f92"/><path d="M499.58,793.19c0,7.1-1.67,12.85-3.73,12.85s-3.73-5.76-3.73-12.85,1.67-12.85,3.73-12.85,3.73,5.76,3.73,12.85Z" fill="#643f92"/><path d="M495.85,780.34h12.46c2.01,0,3.83,1.25,4.49,3.15,1.29,3.74,2.61,10.57-.21,19.35-.62,1.93-2.47,3.21-4.5,3.21h-12.23v-25.71Z" fill="#643f92"/><path d="M495.66,780.3c.01-.06.45-.04,1.04.44.59.46,1.17,1.43,1.52,2.65.66,2.44,1.26,5.84,1.42,9.66.07,1.91.04,3.73-.09,5.38-.13,1.64-.26,3.15-.72,4.4-.45,1.25-1.24,2.07-1.87,2.44-.64.38-1.07.37-1.08.31-.1-.13,1.58-.66,2.2-2.99.32-1.12.37-2.58.44-4.21.07-1.62.07-3.41,0-5.28-.15-3.73-.62-7.12-1.07-9.51-.24-1.18-.63-2.05-1.06-2.54-.41-.5-.78-.66-.74-.75Z" fill="#ff8acd"/><path d="M547.25,550.9c-.1.03-.29-1.13-1.36-3.03-1.11-1.83-3.34-4.37-7.17-5.95-3.74-1.55-9.11-2.4-14.59-.29-5.51,2.03-10.68,6.67-14.93,12.69-8.39,12.2-15.43,28.78-19.42,47.99-4.09,19.22-4.88,40.98-3.44,63.59.7,11.32,1.84,22.35,3.05,32.98,1.22,10.64,2.56,20.88,3.92,30.62,2.74,19.49,5.57,36.98,7.96,51.67,1.21,7.34,2.3,13.98,3.26,19.82.99,5.83,1.63,10.9,2.91,14.83,1.24,3.95,3.1,6.69,4.74,8.1,1.63,1.44,2.75,1.85,2.7,1.92,0,0-1.14-.34-2.85-1.75-1.73-1.39-3.69-4.15-5.01-8.14-1.37-3.98-2.06-9.06-3.12-14.86-1.01-5.84-2.16-12.47-3.42-19.79-2.49-14.68-5.4-32.16-8.2-51.66-1.4-9.75-2.76-19.99-3.99-30.64-1.23-10.64-2.38-21.69-3.08-33.04-1.45-22.68-.63-44.55,3.54-63.87,4.07-19.32,11.22-35.96,19.78-48.24,4.34-6.07,9.67-10.78,15.35-12.81,5.7-2.12,11.19-1.17,14.99.48,3.9,1.68,6.13,4.34,7.2,6.24.49.99.83,1.76.95,2.32.16.54.23.82.21.82Z" fill="#643f92"/><path d="M558.64,574.16s.08.21.18.63c.11.48.24,1.1.42,1.87.36,1.72.86,4.13,1.5,7.2.66,3.13,1.42,6.96,2.15,11.43.75,4.47,1.72,9.55,2.47,15.21.41,2.83.83,5.79,1.28,8.87.44,3.09.76,6.31,1.17,9.65.86,6.66,1.44,13.81,2.12,21.33,1.15,15.06,1.92,31.65,1.93,49.08-.07,17.44-.9,34.03-2.1,49.09-.71,7.52-1.31,14.67-2.19,21.33-.42,3.33-.75,6.56-1.2,9.64-.45,3.08-.89,6.04-1.31,8.87-.77,5.66-1.75,10.73-2.52,15.2-.75,4.47-1.52,8.3-2.19,11.43-.65,3.06-1.16,5.47-1.52,7.19-.17.77-.31,1.38-.42,1.86-.1.42-.16.63-.18.63-.02,0,0-.22.07-.65.08-.49.18-1.11.31-1.89.31-1.73.75-4.15,1.31-7.23.6-3.13,1.31-6.97,2-11.45.71-4.48,1.63-9.55,2.36-15.21.39-2.83.81-5.78,1.23-8.87.42-3.08.74-6.31,1.13-9.64.84-6.65,1.41-13.8,2.08-21.31,1.14-15.03,1.94-31.6,2-49.01-.01-17.4-.75-33.97-1.84-49-.65-7.51-1.2-14.65-2.01-21.31-.39-3.33-.69-6.55-1.1-9.64-.42-3.08-.82-6.04-1.21-8.87-.71-5.66-1.61-10.74-2.31-15.22-.68-4.48-1.37-8.32-1.96-11.46-.55-3.08-.98-5.5-1.29-7.23-.13-.78-.23-1.4-.31-1.89-.06-.43-.09-.65-.07-.65Z" fill="#643f92"/><path d="M548.53,543.77c0,.94-1.06,73.14,0,82.16s2.6,21.83,7.4,26.23c8.45,7.74,54.18,54.99,54.18,54.99l5.31-55.97-13.27-25.72,10.62-41.8-64.24-39.89Z" fill="#ffc4a3"/><polygon points="607.94 636.69 586.84 683.22 608.44 705.71 613.8 648.04 607.94 636.69" fill="#e1e1e1"/><path d="M755.01,436.12c-4.45-13.75-10.4-27.19-12.01-41.55-1.75-15.55,1.7-31.31.2-46.88-1.51-15.57-10.3-32.45-25.67-35.39l-52.34-8.17c-12.38,45.42-8.64,93.8.77,139.93,4.69,23.01,12.85,48.42,33.86,58.9,21.32,10.63,50.72-1.68,58.1-24.33,4.48-13.74,1.53-28.77-2.91-42.51Z" fill="#fff"/><path d="M718.31,319.5s.04.17.06.51c.02.39.05.89.09,1.51.07,1.4.16,3.34.27,5.8.25,5.04.68,12.32,1.52,21.3,1.66,17.94,5.25,42.67,12.31,69.26,3.51,13.28,7.62,25.83,9.09,37.76.78,5.94.91,11.68.34,16.99-.64,5.31-2,10.15-3.83,14.31-3.71,8.35-9.2,13.72-13.45,16.42-.53.34-1.04.66-1.51.97-.49.26-.96.5-1.39.73-.86.46-1.6.82-2.23,1.04-.58.22-1.04.4-1.41.55-.32.12-.49.17-.49.16-.07-.14,2.67-.94,6.83-3.76,4.14-2.76,9.47-8.12,13.04-16.38,1.77-4.11,3.07-8.89,3.66-14.12.53-5.23.37-10.91-.42-16.79-1.5-11.81-5.61-24.31-9.14-37.63-7.07-26.65-10.56-51.46-12.05-69.44-.76-9-1.09-16.3-1.22-21.34-.08-2.52-.08-4.48-.09-5.81,0-.62,0-1.12,0-1.51,0-.34.02-.52.03-.52Z" fill="#643f92"/><path d="M752.61,432.16c.17.17-2.7,2.59-7.1,3.58-4.4,1.03-8.03.11-7.95-.12.03-.29,3.56.18,7.74-.81,4.19-.94,7.16-2.9,7.32-2.65Z" fill="#643f92"/><path d="M727.66,317.76s.25.33.65,1c.42.67.93,1.7,1.53,3.07,1.18,2.74,2.41,6.93,2.98,12.24.63,5.3.55,11.65.63,18.65.09,7,.41,14.7,1.06,22.76,1.27,16.13,3.69,30.6,5.82,40.98,1.05,5.19,2.02,9.37,2.69,12.26.32,1.37.57,2.47.77,3.33.17.76.24,1.17.21,1.18-.03,0-.17-.38-.39-1.13-.24-.85-.56-1.94-.95-3.29-.78-2.87-1.85-7.03-2.99-12.22-2.31-10.36-4.84-24.86-6.11-41.04-.65-8.08-.94-15.8-.98-22.83-.03-7.02.11-13.33-.42-18.59-.48-5.26-1.59-9.42-2.65-12.17-1.07-2.75-1.93-4.16-1.84-4.21Z" fill="#643f92"/><path d="M619.88,585.59l-21.35,219.09h30s34.78-134.44,37.21-151.48c2.43-17.04,18.91-81.78,18.91-81.78l-64.77,14.17Z" fill="#ffc4a3"/><path d="M610.62,673.27s52.29-1.06,52.04,0l-32.66,131.42h-31.47l12.09-131.42Z" fill="#ebebeb"/><path d="M599.87,772.36l-5.62,37.56s-37.64,12.49-37.86,19.53l73.55.53,9.04-56.36-39.11-1.26Z" fill="#fff"/><g opacity=".6"><path d="M616.88,806.05c1.43.35,2.47,1.92,2.18,3.36-.29,1.45-1.87,2.51-3.31,2.19-1.44-.32-2.74-2.17-2.29-3.57.45-1.41,2.38-2.55,3.7-1.9" fill="#fff"/></g><g opacity=".6"><path d="M629.94,829.98l.85-5.32-72.04,1.33s-2.36,1.02-2.74,3.99h73.92Z" fill="#fff"/></g><path d="M593.05,809.59c.02.36,1.82.47,3.62,1.57,1.83,1.05,2.79,2.58,3.11,2.43.33-.08-.27-2.21-2.48-3.5-2.19-1.31-4.35-.82-4.26-.49Z" fill="#643f92"/><path d="M585.43,813.01c-.07.35,1.5.91,2.77,2.39,1.31,1.44,1.67,3.08,2.02,3.05.34.05.52-2.06-1.08-3.88-1.59-1.83-3.71-1.91-3.7-1.57Z" fill="#643f92"/><path d="M581.33,822.37c.33.07.77-1.74-.21-3.68-.97-1.95-2.68-2.67-2.83-2.37-.19.3.93,1.32,1.71,2.93.82,1.58.97,3.09,1.32,3.12Z" fill="#643f92"/><path d="M594.77,801.72c.16.32,1.79-.22,3.83-.15,2.03.04,3.63.67,3.81.36.2-.27-1.38-1.55-3.78-1.6-2.39-.07-4.04,1.12-3.86,1.4Z" fill="#643f92"/><path d="M595.94,796.24c0,.15,1.43.33,3.68-.13,1.12-.23,2.44-.64,3.82-1.3.69-.33,1.39-.72,2.08-1.19.33-.23.73-.46,1.09-.9.39-.39.58-1.35.11-1.91-.39-.55-1.07-.78-1.6-.77-.54,0-.98.12-1.37.23-.81.22-1.57.52-2.26.85-1.39.68-2.5,1.52-3.33,2.33-1.66,1.63-2.2,2.99-2.07,3.06.17.11.96-1.04,2.66-2.39.85-.67,1.93-1.38,3.23-1.95.65-.28,1.35-.53,2.09-.72.77-.23,1.43-.25,1.64.09.08.13.09.18-.07.41-.16.22-.47.43-.8.66-.64.44-1.28.83-1.91,1.17-1.26.67-2.48,1.15-3.52,1.47-2.09.65-3.47.79-3.46.99Z" fill="#643f92"/><path d="M596.42,796.74c.13.05.8-1.26.86-3.59.03-1.15-.14-2.55-.62-4.02-.25-.73-.58-1.48-1.01-2.21-.45-.71-1.01-1.67-2.4-1.79-.73,0-1.32.58-1.51,1.07-.23.5-.26.93-.34,1.36-.11.86-.07,1.7.07,2.48.28,1.56.96,2.84,1.69,3.76,1.49,1.86,3.01,2.24,3.03,2.12.11-.18-1.16-.84-2.31-2.64-.57-.89-1.09-2.06-1.27-3.42-.09-.68-.1-1.4,0-2.13.09-.78.36-1.42.66-1.35.37-.02,1,.55,1.32,1.17.4.65.72,1.31.97,1.97.5,1.31.74,2.58.82,3.65.17,2.15-.18,3.51.02,3.56Z" fill="#643f92"/><polygon points="550.29 484.07 540.16 585.59 612.52 585.59 619.88 528.28 619.88 585.59 684.65 585.59 704.21 491.44 550.29 484.07" fill="#643f92"/><path d="M562.38,499.8s.02.31-.03.9c-.08.69-.17,1.54-.28,2.55-.26,2.21-.7,5.41-1.27,9.35-1.15,7.89-2.9,18.76-5.14,30.71-2.25,11.96-4.55,22.72-6.34,30.49-.9,3.88-1.65,7.02-2.21,9.18-.26.99-.48,1.81-.66,2.48-.16.56-.26.86-.29.85-.03,0,0-.31.11-.89.13-.69.29-1.52.49-2.52.48-2.33,1.13-5.45,1.91-9.24,1.62-7.8,3.82-18.58,6.06-30.52,2.24-11.94,4.1-22.78,5.42-30.64.64-3.82,1.17-6.96,1.57-9.3.18-1.01.34-1.84.46-2.52.12-.58.19-.88.23-.87Z" fill="#fff"/><path d="M697.67,497.44s0,.32-.07.91c-.11.7-.23,1.55-.39,2.59-.36,2.24-.92,5.48-1.67,9.47-1.49,7.98-3.74,18.98-6.57,31.05-2.84,12.07-5.73,22.92-7.96,30.73-1.11,3.91-2.05,7.06-2.73,9.22-.32.99-.59,1.81-.8,2.49-.19.57-.31.86-.34.85-.03,0,.02-.32.16-.9.17-.69.38-1.52.63-2.54.61-2.34,1.44-5.48,2.44-9.3,2.06-7.85,4.84-18.71,7.68-30.77,2.83-12.05,5.19-23.01,6.84-30.96.81-3.86,1.47-7.04,1.96-9.41.23-1.02.41-1.86.57-2.55.14-.58.23-.88.26-.88Z" fill="#fff"/><path d="M596.78,216.73s-50.29,16.54-56.62,23.26v1.58l35.19,114.59s-21.75,20.28-24.52,41.42c-2.77,21.14-5.14,97.06-5.14,97.06l1.19,5.14,158.17-3.16,11.86-4.35-17-124.95-12.28-139.17-46.3-14.13s-3.9,16.48-19.32,16.48-25.23-13.77-25.23-13.77Z" fill="#ff8acd"/><polygon points="621.77 289.64 629.62 305.53 647.15 308.08 634.46 320.45 637.46 337.91 621.77 329.67 606.09 337.91 609.08 320.45 596.39 308.08 613.93 305.53 621.77 289.64" fill="#643f92"/><path d="M540.16,239.99s-12.46,8.16-14.72,22.44c-2.27,14.29-2.71,83.86-2.71,83.86l61.16-21.22s-8.04-32.28-11.61-40.32c-3.57-8.04-32.12-44.76-32.12-44.76Z" fill="#ff8acd"/><path d="M670.31,219.74s-22.73,48.09-17.8,97.02h17.81s5.67-83.3,17.81-88.62c0,0-6.09-10.98-17.82-8.41Z" fill="#fff"/><path d="M687.63,228.15s20.04,9.96,25.16,21.38c5.12,11.42,4.09,78.2,4.09,78.2l-46.55-10.96,5.86-57.33c.71-4.35,1.93-8.61,3.64-12.68l7.81-18.61Z" fill="#ff8acd"/><path d="M670.32,316.76h-88.26l4.34,19.81s41.65,17.46,48.19,21.64c6.54,4.18,20.65,8.65,36.83,9.68,16.18,1.03,27.88,2.41,33.39-1.72,5.51-4.13,8.95-4.47,9.98-14.11,1.03-9.64,2.11-25.58,2.11-25.58l-46.59-9.72Z" fill="#ffc4a3"/><path d="M532.17,342.87c.18,1.85,3.29,21.24,9.48,30.19,6.2,8.95,9.29,10.33,16.52,11.02,7.23.69,100.65-17.69,101.6-17.54.95.15-73.37-29.97-73.37-29.97l-2.52-11.51-51.71,17.8Z" fill="#ffc4a3"/><path d="M659.78,366.54s-.35-.07-.98-.28c-.73-.26-1.63-.58-2.73-.97-2.36-.87-5.77-2.17-9.96-3.83-8.38-3.31-19.86-8.13-32.56-13.37-5.12-2.11-10.06-4.11-14.67-5.93-4.62-1.82-8.85-3.66-12.62-5.23l-.17-.07-.04-.16c-1.61-6.04-2.42-11.02-3.11-14.49-.29-1.65-.52-2.98-.7-4.02-.15-.93-.2-1.42-.17-1.43s.17.47.39,1.38c.23,1.03.54,2.35.91,3.98.81,3.42,1.75,8.46,3.41,14.33l-.21-.23c3.79,1.51,8.02,3.3,12.65,5.09,4.63,1.8,9.58,3.78,14.71,5.89,12.61,5.3,24.03,10.09,32.45,13.62,4.06,1.7,7.39,3.09,9.84,4.11,1.08.46,1.96.84,2.67,1.14.61.27.92.43.91.46Z" fill="#ffa275"/><path d="M582.06,316.76c-.06.02-.27-.55-.6-1.6-.33-1.04-.76-2.57-1.27-4.46-1.01-3.78-2.25-9.04-3.54-14.86-1.29-5.82-2.5-11.07-3.43-14.86-.92-3.79-1.5-6.14-1.37-6.18.06-.02.29.54.64,1.58.36,1.03.83,2.55,1.38,4.43,1.1,3.76,2.42,9,3.71,14.83,1.25,5.69,2.37,10.83,3.27,14.91.84,3.81,1.35,6.18,1.22,6.21Z" fill="#643f92"/><path d="M675.29,265.84c.07,0,.03.72-.09,1.99-.16,1.48-.35,3.27-.57,5.37-.51,4.77-1.17,10.92-1.91,17.72-.63,6.81-1.21,12.97-1.65,17.74-.2,2.11-.37,3.9-.51,5.38-.13,1.27-.24,1.97-.31,1.97s-.09-.71-.07-1.99c.02-1.28.09-3.12.2-5.4.23-4.56.68-10.86,1.37-17.79.7-6.93,1.51-13.19,2.19-17.71.34-2.26.64-4.08.87-5.34.23-1.26.39-1.95.46-1.94Z" fill="#643f92"/><path d="M650.25,368.6c.06.03-.45,1.03-1.43,2.8-.48.89-1.09,1.97-1.87,3.19-.77,1.22-1.6,2.63-2.66,4.11-2.02,3.02-4.64,6.46-7.74,10.12-3.15,3.62-6.8,7.44-10.93,11.15-4.15,3.68-8.36,6.88-12.32,9.59-3.99,2.67-7.71,4.88-10.94,6.54-1.59.88-3.09,1.55-4.38,2.17-1.29.63-2.44,1.12-3.38,1.49-1.88.77-2.92,1.16-2.95,1.1s.97-.57,2.8-1.44c.92-.43,2.03-.96,3.3-1.63,1.27-.67,2.74-1.37,4.3-2.29,3.17-1.73,6.82-3.98,10.76-6.67,3.9-2.74,8.06-5.93,12.18-9.58,4.09-3.68,7.74-7.44,10.9-11.01,3.12-3.6,5.78-6.98,7.85-9.93,1.09-1.44,1.95-2.83,2.76-4.01.82-1.18,1.47-2.23,2-3.09,1.07-1.71,1.69-2.65,1.75-2.61Z" fill="#643f92"/><path d="M644.51,101.08c3.99-.53,13.36,4.84,16.01,7.87,2.65,3.03,4.22,6.83,5.75,10.55,6.27,15.27,12.63,30.93,13.29,47.43.24,5.92-1.05,13.03-6.5,15.36-.52-1.54-1.03-3.09-1.55-4.63-2.84,7.2-7.17,13.81-12.63,19.29-1.65,1.66-3.49,3.39-3.87,5.69-.6,3.69,2.76,6.72,5.76,8.94-2.53,1.71-6.24,1.36-8.4-.79-.13,3.38.93,6.8,2.94,9.52-5.8,1.44-14.22-1.98-15.03-7.91-.81-5.92-1.05-16.59,2.48-21.41,3.53-4.82,10.28-6.41,13.1-11.68,4.96-9.28,4.31-17.87,3.96-28.38-.24-7.2.46-17.43-3.96-23.12-3.11-4.01-5.32-6.45-8.1-10.69-3.06-4.66-6.23-10.19-3.26-14.9" fill="#643f92"/><path d="M593.72,139.13l2.83,76.44c.48,13,11.74,22.95,24.7,21.83h0c12.09-1.05,20.53-11.25,20.07-23.38-.22-5.75-.1-12.56-.08-13.16,0,0,19.15-4.3,19.84-23.61.33-9.33.11-25.02-.88-42.45-1.07-18.72-16.36-33.47-35.1-33.91l-1.86-.04c-20.13.7-30.77,18.19-29.51,38.29Z" fill="#ffc4a3"/><path d="M641.33,200.96s-12.23.71-25.02-7.75c0,0,5.63,14.04,24.94,12.75l.07-5.01Z" fill="#ffa275"/><path d="M654.58,150.04c.02,1.46-1.2,2.67-2.73,2.72-1.52.05-2.77-1.1-2.79-2.55-.02-1.46,1.2-2.68,2.72-2.72,1.52-.05,2.77,1.1,2.79,2.56Z" fill="#643f92"/><path d="M655.83,144.19c-.35.35-2.4-1.24-5.37-1.31-2.96-.1-5.18,1.37-5.49,1-.15-.16.21-.81,1.17-1.47.95-.67,2.56-1.3,4.41-1.25,1.85.05,3.39.77,4.27,1.49.9.72,1.19,1.38,1.02,1.54Z" fill="#643f92"/><path d="M626.31,150.04c.02,1.46-1.2,2.67-2.73,2.72-1.52.05-2.77-1.1-2.79-2.55-.02-1.46,1.2-2.68,2.72-2.72,1.52-.05,2.77,1.1,2.79,2.56Z" fill="#643f92"/><path d="M626.64,144.06c-.35.35-2.41-1.24-5.37-1.31-2.96-.1-5.18,1.37-5.49,1-.15-.16.21-.81,1.17-1.47.95-.67,2.56-1.3,4.41-1.25,1.85.05,3.39.77,4.27,1.49.89.72,1.19,1.38,1.02,1.54Z" fill="#643f92"/><path d="M636.9,166.32c0-.17,1.84-.45,4.84-.76.76-.06,1.48-.19,1.62-.71.19-.54-.11-1.37-.45-2.26-.67-1.85-1.37-3.79-2.11-5.82-2.92-8.29-5.02-15.1-4.68-15.22.34-.11,2.97,6.51,5.89,14.8.7,2.04,1.37,3.99,2.01,5.86.27.87.74,1.86.32,2.98-.22.56-.78.96-1.27,1.08-.49.14-.92.14-1.29.15-3.01.09-4.88.06-4.89-.11Z" fill="#643f92"/><path d="M626.3,134.56c-.31.8-3.27.35-6.76.69-3.5.27-6.33,1.22-6.78.49-.2-.35.31-1.1,1.46-1.85,1.14-.75,2.96-1.45,5.05-1.64,2.1-.18,4,.2,5.26.74,1.27.54,1.9,1.19,1.76,1.57Z" fill="#643f92"/><path d="M654.94,135.57c-.54.66-2.57-.09-5.03-.18-2.45-.18-4.55.35-5.01-.37-.2-.35.14-1.02,1.07-1.63.91-.62,2.42-1.1,4.11-1.01,1.69.09,3.14.74,3.98,1.45.85.71,1.12,1.41.88,1.74Z" fill="#643f92"/><path d="M594.97,153.48c-.33-.15-13.18-4.24-13.07,8.98.11,13.22,13.36,10.38,13.38,10,.02-.38-.31-18.98-.31-18.98Z" fill="#ffc4a3"/><path d="M591.2,167.48c-.06-.04-.23.16-.62.34-.38.18-1.03.3-1.72.05-1.4-.5-2.6-2.71-2.68-5.09-.04-1.2.2-2.35.62-3.3.4-.97,1.01-1.65,1.72-1.78.7-.17,1.2.25,1.36.62.18.37.1.63.17.65.04.03.28-.22.17-.77-.06-.26-.21-.57-.53-.82-.32-.26-.79-.38-1.28-.33-1.02.08-1.93,1.02-2.39,2.07-.52,1.05-.82,2.34-.77,3.69.11,2.66,1.49,5.14,3.41,5.68.93.23,1.71-.05,2.1-.37.41-.33.47-.63.43-.65Z" fill="#ffa275"/><path d="M616.48,156.45c-.18.03-.35-.1-.38-.3-.03-.19.08-.38.26-.41.18-.03.35.1.38.3.03.19-.08.38-.26.41Z" fill="#ffa275"/><path d="M622.18,155.29c-.18.03-.35-.12-.39-.35-.04-.22.07-.43.25-.46.18-.03.35.12.39.35.04.22-.07.43-.25.46Z" fill="#ffa275"/><path d="M626,155.29c-.18.02-.35-.21-.38-.5-.03-.29.09-.55.27-.57.18-.02.35.21.38.5.03.29-.09.55-.27.57Z" fill="#ffa275"/><path d="M619.18,160.07c-.18,0-.33-.1-.32-.22,0-.12.15-.21.33-.2.18,0,.32.1.32.22,0,.12-.15.21-.33.2Z" fill="#ffa275"/><path d="M624.41,158.99c-.18.01-.34-.15-.35-.35-.01-.21.12-.38.3-.39.18-.01.34.15.35.35.01.21-.12.38-.3.39Z" fill="#ffa275"/><path d="M651.56,156.39c-.18.03-.35-.11-.39-.31-.04-.2.08-.39.26-.42.18-.03.35.11.39.31.04.2-.08.39-.26.42Z" fill="#ffa275"/><path d="M655.43,156.13c-.18.01-.34-.16-.36-.39-.02-.23.12-.42.3-.44.18-.01.34.16.36.39.02.23-.12.42-.3.44Z" fill="#ffa275"/><path d="M648.15,156.41c-.18.03-.34-.07-.37-.23-.03-.16.09-.31.27-.34.18-.03.34.07.37.23.03.16-.09.31-.27.34Z" fill="#ffa275"/><path d="M650.92,160.34c-.17.07-.37-.03-.45-.22-.08-.19,0-.41.16-.48.17-.07.37.03.45.22.08.19,0,.41-.16.48Z" fill="#ffa275"/><path d="M654.24,159.76c-.17-.05-.28-.21-.23-.36.04-.15.22-.22.39-.17.17.05.28.21.23.36-.04.15-.22.22-.39.17Z" fill="#ffa275"/><path d="M647.06,107.27c-2.25-9.94-11.97-17.02-21.94-17.81-9.97-.79-19.83,3.86-27.19,10.76-7.36,6.9-12.52,15.88-16.88,25.06-2.85,6.01-5.8,12.6-11.59,15.73-2.41,1.3-5.78,3-5.02,5.67.25.88.94,1.54,1.41,2.31,1.08,1.77.99,4,.82,6.08-.3,3.73-.76,7.44-1.36,11.13-.38,2.32-.82,4.68-.5,7.01.32,2.33,1.56,4.68,3.68,5.62-1.51,1.34-3.03,2.67-4.54,4.01.31,2.25,2.4,3.9,4.58,4.38s4.44.05,6.63-.39c6.62-1.31,13.57-2.79,18.67-7.28,5.49-4.83,7.89-12.38,8.98-19.69,1.01-6.83,1.09-13.76,1.94-20.61.85-6.85,2.55-13.77,6.43-19.43,3.88-5.66,10.26-9.88,17.03-9.67,3.47.11,6.88,1.34,10.34,1.06,3.46-.28,7.21-2.95,6.83-6.47" fill="#643f92"/><path d="M598.31,163.12c-2.99,9.08,4.51,43.84,10.36,48.63-1.27.63-2.86.53-4.05-.25,2.89,3.98,4.39,9,4.17,13.95-5.26.09-10.37-3.62-12-8.71-2.13,4.28-5.82,7.72-10.18,9.52.83-2.71,1.65-5.42,2.48-8.13-3.82,2.21-8.71,2.38-12.68.44,3.61-1.08,6.62-4.03,7.81-7.66-.88.88-1.81,1.79-2.98,2.18-1.17.39-2.67.09-3.27-1.01-1.38-2.52,2.95-5.15,2.24-7.94-3.32,2.56-8.01,3.14-11.83,1.45,9.06-6.93,6.27-22.24,9.2-33.39" fill="#643f92"/><path d="M596.67,157.76c-.33-.15-13.18-4.24-13.07,8.98.11,13.22,13.36,10.38,13.38,10,.02-.38-.31-18.98-.31-18.98Z" fill="#ffc4a3"/><path d="M592.9,171.76c-.06-.04-.23.16-.62.34-.38.18-1.03.3-1.72.05-1.4-.5-2.59-2.71-2.68-5.09-.04-1.2.2-2.35.62-3.3.4-.97,1.01-1.65,1.72-1.78.7-.17,1.2.25,1.36.62.18.37.1.63.17.65.04.03.28-.22.17-.77-.06-.26-.21-.57-.53-.82-.32-.26-.79-.38-1.28-.33-1.02.08-1.93,1.02-2.39,2.07-.52,1.05-.82,2.34-.77,3.69.11,2.66,1.49,5.14,3.41,5.68.93.23,1.71-.05,2.1-.37.41-.33.47-.63.43-.65Z" fill="#ffa275"/><path d="M591.28,177.23c.1.06-.08.54-.79.8-.34.12-.81.16-1.3-.02-.5-.18-.94-.62-1.15-1.17-.21-.55-.19-1.17.06-1.64.24-.47.61-.75.94-.9.69-.29,1.15-.06,1.12.05,0,.14-.39.2-.78.53-.4.32-.72.93-.45,1.6.25.68.9.91,1.41.87.51-.02.83-.23.93-.14Z" fill="#e1e1e1"/><path d="M596.43,177.5c.11-.08.43.84-.52,1.72-.45.42-1.27.67-2.07.43-.79-.2-1.56-.84-1.9-1.71-.69-1.73,0-3.51,1.02-4.18,1.05-.68,1.86-.28,1.78-.18,0,.14-.7.08-1.36.71-.65.57-1.07,2.02-.55,3.29.5,1.28,2,1.63,2.68,1.11.77-.48.79-1.19.93-1.18Z" fill="#e1e1e1"/><path d="M572.62,183.04s-.1-.07-.26-.24c-.16-.18-.42-.42-.69-.79-.58-.72-1.35-1.87-2.01-3.51-1.34-3.2-2.13-8.7.35-14.61,1.19-2.93,3.11-5.88,5.62-8.6,2.5-2.77,5.71-5.11,8.79-7.79,1.54-1.35,3.05-2.8,4.32-4.49,1.29-1.67,2.26-3.62,2.98-5.7,1.46-4.18,1.85-8.83,2.56-13.54.66-4.74,1.96-9.34,4.08-13.38,2.1-4.04,5.03-7.49,8.47-9.91,3.42-2.43,7.3-3.88,11.04-4.14,3.74-.3,7.21.4,10.19,1.38,3,.99,5.54,2.3,7.69,3.55,2.16,1.25,3.86,2.64,4.98,4.02,1.14,1.37,1.61,2.73,1.76,3.64.13.93.01,1.41.01,1.41-.05,0-.02-.49-.2-1.38-.2-.88-.71-2.15-1.85-3.44-1.13-1.29-2.81-2.61-4.97-3.79-2.15-1.2-4.68-2.44-7.63-3.37-2.94-.92-6.32-1.55-9.91-1.23-3.59.28-7.31,1.7-10.59,4.06-3.3,2.36-6.12,5.69-8.15,9.63-2.05,3.94-3.31,8.4-3.96,13.09-.71,4.67-1.1,9.38-2.62,13.71-.75,2.15-1.78,4.2-3.14,5.94-1.33,1.76-2.9,3.24-4.47,4.6-3.16,2.7-6.33,4.98-8.79,7.66-2.48,2.64-4.38,5.49-5.58,8.33-2.49,5.7-1.83,11.04-.63,14.21,1.22,3.25,2.74,4.6,2.61,4.68Z" fill="#fff"/><path d="M658.7,687.51c0,.07-.69.13-1.94.18-1.25.06-3.05.09-5.28.09-4.46,0-10.63-.16-17.42-.64-6.8-.48-12.93-1.17-17.35-1.79-2.21-.31-3.99-.59-5.22-.82-1.23-.23-1.9-.38-1.89-.45,0-.07.7-.03,1.94.08,1.45.14,3.2.32,5.25.52,4.43.45,10.56,1.03,17.33,1.51,6.78.47,12.92.74,17.37.91,2.06.08,3.82.16,5.27.22,1.25.06,1.94.13,1.94.19Z" fill="#e7374c"/><path d="M658.15,692.14c0,.07-.69.13-1.94.18-1.25.06-3.05.09-5.28.09-4.46,0-10.63-.16-17.42-.64-6.8-.48-12.93-1.17-17.35-1.79-2.21-.31-3.99-.59-5.22-.82-1.23-.23-1.9-.38-1.89-.45,0-.07.7-.03,1.94.08,1.45.14,3.2.32,5.25.52,4.43.45,10.56,1.03,17.33,1.51,6.78.47,12.92.74,17.37.91,2.06.08,3.82.16,5.27.22,1.25.06,1.94.13,1.94.19Z" fill="#e7374c"/><path d="M611.84,643.24c.06.02-.07.71-.36,1.95-.29,1.24-.77,3.01-1.41,5.19-1.28,4.36-3.28,10.32-5.92,16.74-2.65,6.42-5.42,12.06-7.59,16.05-1.08,2-1.99,3.6-2.66,4.68-.66,1.08-1.06,1.67-1.11,1.64-.06-.03.23-.68.79-1.81.66-1.32,1.45-2.93,2.38-4.81,2-4.06,4.67-9.72,7.3-16.11,2.63-6.39,4.72-12.28,6.16-16.57.66-1.99,1.23-3.69,1.69-5.09.4-1.2.66-1.86.72-1.84Z" fill="#e7374c"/><path d="M612.94,660.82c.11.03-.21,2.1-1.07,5.39-.86,3.28-2.33,7.76-4.47,12.49-2.15,4.73-4.55,8.78-6.46,11.59-1.9,2.81-3.26,4.42-3.35,4.35-.12-.09,1.04-1.83,2.78-4.72,1.75-2.88,4.03-6.95,6.16-11.62,2.12-4.68,3.67-9.07,4.69-12.29,1.02-3.21,1.58-5.23,1.72-5.2Z" fill="#e7374c"/><path d="M222.27,294.23l-4.92,68.36s-5.16,91.49-5.17,91.73c-.38,6.76,2.06,13.15,2.42,19.83.44,8.05-2.74,12.87-7.35,19.05l-14.28-.51,6.4-187.53,22.9-10.93Z" fill="#c27460"/><path d="M164.49,762.21l-2.07,43.09s42.44,16.61,42.82,24.61l-82.43-1.08.51-67.27,41.17.65Z" fill="#ff8acd"/><path d="M136.98,801.34c-1.6.42-2.73,2.23-2.38,3.87.35,1.64,2.15,2.82,3.76,2.43,1.61-.39,3.02-2.52,2.5-4.11-.53-1.59-2.72-2.86-4.18-2.08" fill="#e1e1e1"/><path d="M122.81,828.83l.31-6.78,78.92,3.57s3.65,1.67,3.2,4.29l-82.43-1.08Z" fill="#e7374c"/><path d="M163.76,804.89c-.02.41-2.03.57-4.03,1.86-2.03,1.24-3.07,2.99-3.44,2.83-.37-.08.26-2.52,2.71-4.04,2.43-1.54,4.86-1.02,4.77-.65Z" fill="#fff"/><path d="M172.36,808.64c.09.4-1.67,1.07-3.05,2.78-1.44,1.67-1.81,3.53-2.21,3.51-.38.06-.63-2.34,1.14-4.43,1.75-2.11,4.12-2.25,4.12-1.86Z" fill="#fff"/><path d="M177.14,819.21c-.37.08-.9-1.97.16-4.19,1.05-2.23,2.96-3.09,3.12-2.75.22.34-1.01,1.52-1.86,3.36-.89,1.82-1.02,3.54-1.42,3.58Z" fill="#fff"/><path d="M163.16,795.02c-.17.37-2.01-.22-4.29-.09-2.28.08-4.06.83-4.27.48-.23-.3,1.52-1.79,4.2-1.9,2.68-.13,4.55,1.19,4.35,1.51Z" fill="#fff"/><path d="M67.36,776.62l-4.46,52,8.15,42.16c.59,3.04-1.48,5.95-4.51,6.34h0c-1.69.22-3.38-.4-4.53-1.68-7.35-8.13-34.23-38.19-33.69-41.97.62-4.39,1.12-55.16,1.12-55.16l37.92-1.67Z" fill="#ff8acd"/><g opacity=".6"><path d="M40.13,813.82c1.23.99,1.52,2.99.6,4.27-.92,1.29-2.92,1.61-4.17.64-1.24-.96-1.67-3.35-.62-4.53,1.06-1.17,3.43-1.42,4.41-.18" fill="#fff"/></g><path d="M50.07,828.28c.12.32,3.03-.7,6.72-.59,3.7.05,6.56,1.2,6.69.88.16-.25-2.7-1.96-6.67-2.03-3.97-.1-6.89,1.49-6.75,1.74Z" fill="#fff"/><path d="M51,812.99c.14.31,3.1-1.24,6.98-.81,3.89.35,6.5,2.46,6.69,2.18.09-.1-.43-.79-1.57-1.56-1.13-.77-2.92-1.54-5.01-1.75-2.09-.21-4,.19-5.26.72-1.27.53-1.91,1.1-1.84,1.22Z" fill="#fff"/><path d="M58.08,809.27c.07,0,.23-.69.19-1.97-.03-1.27-.28-3.15-1.22-5.26-.49-1-.99-2.29-2.38-3.07-.69-.39-1.76-.33-2.41.32-.65.63-.89,1.47-.96,2.3-.16,3.31,2.44,6.69,6.07,7.4,3.65.65,7.12-1.27,8.75-4.03.37-.72.64-1.61.3-2.52-.34-.91-1.36-1.33-2.1-1.25-1.54.13-2.56.96-3.49,1.56-1.86,1.33-3.05,2.77-3.76,3.82-.71,1.05-.96,1.72-.9,1.75.17.15,1.46-2.47,5.1-4.89.91-.55,1.97-1.26,3.08-1.29.54-.02.98.23,1.15.68.17.43.02,1.08-.29,1.64-1.38,2.26-4.55,4-7.63,3.4-3.07-.57-5.34-3.54-5.24-6.21.03-.64.24-1.28.6-1.63.36-.35.87-.42,1.33-.2.97.47,1.57,1.61,2.06,2.56,1.92,3.97,1.51,6.91,1.74,6.88Z" fill="#fff"/><path d="M203.21,409.81s6.25,24.57,3.98,54.51c-.88,11.58-39.38,332.03-39.38,332.03h-51.98l14.61-301.18-4.26.94s-28.38,128.45-30.69,149.25c-2.08,18.69-27.56,165.63-27.56,165.63l-49.04-.55,18.25-189.65,17.66-172.36,6.65-50.17,141.76,11.57Z" fill="#643f92"/><path d="M115.16,204.03l-1.11-91.23c-1.02-22.69,11.34-42.19,34.05-42.57l2.1.09c21.14.87,38.07,17.83,38.9,38.96.77,19.67,1.37,41.41.81,51.92-1.17,21.76-23.08,24.25-23.08,24.25-.05,0-.14,13.25-.12,19.64l5.11,14.94-17.91-4.36-38.73-11.63Z" fill="#c27460"/><path d="M166.82,185.44s-13.76.24-28-9.55c0,0,6.14,16.65,27.95,15.59l.05-6.04Z" fill="#7c4235"/><path d="M182.14,128.06c0,1.64-1.41,2.99-3.13,3.01-1.71.02-3.1-1.29-3.09-2.94,0-1.64,1.41-2.99,3.12-3.02,1.72-.02,3.1,1.29,3.09,2.94Z" fill="#643f92"/><path d="M184.07,118.7c-.4.39-2.69-1.45-6.03-1.58-3.34-.18-5.87,1.44-6.21,1.02-.17-.19.25-.9,1.35-1.64,1.08-.73,2.91-1.41,4.99-1.32,2.08.1,3.8.94,4.78,1.76,1,.83,1.31,1.58,1.12,1.75Z" fill="#643f92"/><path d="M152.06,128.06c0,1.64-1.41,2.99-3.13,3.01-1.71.02-3.1-1.29-3.09-2.94,0-1.64,1.41-2.99,3.12-3.02,1.72-.02,3.1,1.29,3.09,2.94Z" fill="#643f92"/><path d="M151.24,118.12c-.4.39-2.69-1.45-6.03-1.58-3.34-.18-5.87,1.44-6.21,1.02-.17-.19.25-.9,1.35-1.64,1.08-.73,2.91-1.41,4.99-1.32,2.08.1,3.8.94,4.78,1.76.99.83,1.31,1.58,1.12,1.75Z" fill="#643f92"/><path d="M162.18,144.33c0-.19,2.09-.46,5.47-.76.86-.05,1.67-.19,1.84-.77.23-.61-.09-1.54-.47-2.56-.72-2.1-1.47-4.3-2.26-6.61-3.13-9.41-5.35-17.13-4.97-17.25.38-.12,3.22,7.4,6.35,16.81.75,2.32,1.47,4.53,2.15,6.64.28.98.79,2.11.3,3.37-.26.63-.9,1.07-1.46,1.19-.56.14-1.04.13-1.46.14-3.4.04-5.5-.03-5.51-.22Z" fill="#643f92"/><path d="M152.75,107.7c-.49.84-3.7-.2-7.65-.44-3.94-.33-7.27.23-7.63-.67-.16-.43.54-1.17,1.96-1.8,1.41-.63,3.55-1.09,5.92-.92,2.37.18,4.42.94,5.72,1.77,1.31.83,1.9,1.67,1.68,2.07Z" fill="#643f92"/><path d="M184.63,108.87c-.72.74-3.42-.12-6.7-.24-3.27-.22-6.07.35-6.68-.46-.27-.39.19-1.14,1.42-1.83,1.21-.69,3.23-1.22,5.48-1.1,2.25.12,4.18.86,5.3,1.67,1.14.81,1.5,1.61,1.18,1.97Z" fill="#643f92"/><path d="M115.16,128.99c-.36-.18-14.78-5.04-14.92,9.86-.14,14.9,14.85,11.97,14.88,11.54.03-.43.03-21.4.03-21.4Z" fill="#c27460"/><path d="M110.63,144.71c-.06-.05-.26.18-.7.38-.43.19-1.17.32-1.94.02-1.57-.59-2.87-3.1-2.92-5.79-.03-1.36.27-2.65.76-3.71.47-1.09,1.18-1.84,1.97-1.97.79-.17,1.35.3,1.53.73.2.42.1.71.18.74.04.04.32-.25.21-.86-.06-.3-.23-.65-.58-.94-.35-.29-.88-.45-1.43-.39-1.15.07-2.19,1.12-2.73,2.29-.6,1.17-.97,2.62-.94,4.15.07,3,1.58,5.83,3.73,6.47,1.05.28,1.92-.02,2.38-.37.46-.36.55-.7.49-.72Z" fill="#7c4235"/><path d="M219.17,89.67c-.23-.88-.86-1.61-1.64-2.08-1.7-1.03-3.66-.92-5.56-.97-4.73-.13-9.41-1.39-13.6-3.58,1.48-.73,2.86-1.62,4.04-2.77,2.44-2.38,3.86-6.04,2.8-9.27-.2-.61-.54-1.24-1.15-1.44-.96-.31-1.82.63-2.51,1.38-2.25,2.46-4.31,3.5-7.62,3.12-2.05-.23-4.04-.71-5.65-1.74-.06-.07-.12-.14-.18-.21-.77-.81-1.51-1.58-2.25-2.33,0,0,0,0,0,0h0c-5.54-5.62-10.32-9.53-15.26-11.58-7.24-3.01-19.4-4.34-27.01-2.43-7.61,1.9-14.49,7.98-15.64,15.74-4.21-3.65-10.6-3.69-15.81-1.66l-.13-.06c-5.79,1.99-9.14,8.05-10.91,13.92-.1.32-.18.65-.27.97-1.99,3.07-4.67,5.69-7.85,7.5-.56.32-1.21.71-1.28,1.35-.08.63.46,1.17.97,1.55,1.37,1.01,2.98,1.68,4.65,1.99-.54,1.39-1.18,2.74-1.96,4.03-.66,1.1-1.45,2.41-.9,3.56.43.89,1.55,1.27,2.54,1.14.98-.13,1.86-.67,2.7-1.19-.66,1.53-1.32,3.07-1.98,4.6,2.08.39,4.25.24,6.28-.35,1.16,5.52,1.97,15.72,3.34,19.47,3.96.11,4.92-.31,6.91.38,2.57.89,1.53,5.44,4.91,4.18,1.72-.64,4.42-7.09,5.01-8.83,3.93-11.51,5.33-23.88,4.09-35.98,2.42-2.52,5.33-4.57,8.52-6l-.26.23c6.12-2.05,13.03-4.05,18.78-1.12,4.46,2.27,7.04,6.95,10.35,10.71,6.27,7.11,13.43,10.95,22.89,11.46.78,6.59.91,17.35,1.16,23.5l5.38-12.23v.05c.44-.72.79-1.44,1.14-2.16l.12-.22v-.03c.55-1.16,1.07-2.33,1.77-3.47.02.02.04.04.06.05,3.29,2.97,8.25-1.46,5.66-5.07-.51-.72-1.13-1.35-1.83-1.88,1.5,1.44,3.76,2.15,5.76,1.56,2-.59,3.57-2.59,3.42-4.67-.1-1.42-1.1-2.7-2.38-3.28,2.68.24,5.44-.32,7.8-1.63,1.55-.86,3.07-2.28,2.57-4.22Z" fill="#643f92"/><path d="M134.78,74.09c.04.06-.92.57-2.21,1.98-1.28,1.4-2.72,3.85-3.43,7.2-.36,1.66-.6,3.53-.62,5.54-.03,2.01.11,4.16.23,6.43.12,2.27.26,4.67.08,7.15-.09,1.24-.25,2.51-.54,3.77-.29,1.24-.63,2.58-1.58,3.64-.76.86-2.01,1.23-3.09,1-1.09-.2-2.05-.8-2.75-1.6-1.38-1.65-1.71-3.73-2.04-5.57l.46.06c-.77,1.64-1.55,3.25-2.71,4.54-1.13,1.29-2.69,2.14-4.27,2.26-.79.06-1.57-.07-2.24-.42-.68-.34-1.18-.92-1.51-1.52-.32-.62-.48-1.29-.44-1.94.04-.65.3-1.26.72-1.69l.23.21c-1.7,1.9-3.49,2.91-4.73,3.46-.62.28-1.12.44-1.46.55-.34.1-.52.14-.52.12,0-.01.17-.08.49-.2.33-.13.81-.32,1.42-.62,1.2-.6,2.93-1.63,4.56-3.52l.23.21c-.74.77-.8,2.13-.18,3.24.31.55.76,1.06,1.37,1.35.6.3,1.32.42,2.03.36,1.45-.13,2.9-.92,3.96-2.15,1.09-1.23,1.85-2.8,2.61-4.44l.32-.7.14.76c.33,1.83.68,3.83,1.94,5.32.63.72,1.51,1.25,2.46,1.43.95.2,1.97-.11,2.63-.85.83-.91,1.18-2.19,1.46-3.41.28-1.23.44-2.47.53-3.69.18-2.45.05-4.83-.05-7.09-.11-2.27-.24-4.43-.19-6.46.04-2.03.3-3.92.69-5.61.76-3.39,2.29-5.87,3.64-7.26,1.36-1.39,2.36-1.84,2.36-1.84Z" fill="#3e5963"/><path d="M202.02,96.08s-.05.06-.18.15c-.15.11-.33.23-.55.39-.24.18-.55.38-.93.58-.38.21-.81.47-1.33.68-2.04.94-5.3,1.86-9.36,1.57-4.02-.27-8.83-1.75-13.11-5.01-4.32-3.18-8.09-7.84-11.16-13.16-1.56-2.66-2.82-5.38-4.22-7.9-1.39-2.52-2.93-4.85-4.8-6.7-1.85-1.86-4.01-3.24-6.24-3.89-1.11-.34-2.24-.43-3.31-.42-1.08.04-2.1.25-3.04.55-1.89.61-3.42,1.63-4.58,2.69-1.17,1.06-1.95,2.19-2.5,3.16-1.01,1.99-1.08,3.28-1.16,3.26,0,0,0-.08.02-.23.03-.18.07-.4.11-.67.11-.58.37-1.43.86-2.45.53-1,1.3-2.17,2.48-3.28,1.17-1.1,2.72-2.17,4.66-2.82.97-.32,2.02-.54,3.14-.6,1.11-.03,2.29.06,3.44.41,2.32.65,4.55,2.07,6.45,3.96,1.93,1.88,3.5,4.25,4.9,6.79,1.41,2.53,2.68,5.25,4.22,7.88,3.04,5.28,6.76,9.89,11,13.04,4.2,3.23,8.9,4.71,12.85,5.03,3.99.33,7.21-.52,9.25-1.4,2.05-.89,3.03-1.68,3.07-1.62Z" fill="#3e5963"/><path d="M204.11,86.52s-.26.22-.79.54c-.52.33-1.32.73-2.33,1.15-1.01.43-2.26.83-3.68,1.16-1.42.3-3.01.53-4.7.57-1.68.02-3.28-.13-4.72-.37-1.43-.27-2.7-.62-3.73-1.01-1.03-.38-1.84-.75-2.37-1.05-.54-.29-.83-.47-.81-.5.04-.09,1.24.55,3.3,1.21,1.03.34,2.28.65,3.69.89,1.41.22,2.98.35,4.63.33,1.65-.04,3.21-.24,4.61-.52,1.4-.3,2.64-.66,3.65-1.04,2.03-.75,3.2-1.43,3.25-1.35Z" fill="#3e5963"/><path d="M208.44,220.02c6.5,4.8,11.76,11.51,13.43,23.8l10.05,59.87-28.63,8.11-9.91-68.06,15.06-23.72Z" fill="#fff"/><path d="M176.39,202.17l32.05,17.85c2.69,17.88-1.35,118.82-1.35,118.82l1.5,96.78c-44.93,22.24-96.73,14.1-151.65-3.8-.36-4.19-.27-8.08,1.15-11.08l8.81-84.84s-2.28-65.56-2.28-66.79-4.91-62.23-4.91-62.23l52.74-15.76s22.36,18.56,40.2,19.45c15.39.77,14.57-13.05,14.57-13.05l9.17,4.66Z" fill="#fff"/><path d="M209.36,243.89c-.07,0-.13,1.04-.19,2.93-.04,2.06-.1,4.75-.16,7.98-.08,6.91-.2,16.13-.32,26.33-.15,10.28-.37,19.59-.6,26.32-.12,3.23-.21,5.92-.28,7.97-.07,1.88-.07,2.93,0,2.93.07,0,.2-1.03.38-2.91.18-1.88.4-4.6.59-7.97.41-6.73.74-16.05.89-26.34.15-10.29.11-19.6.03-26.34-.06-3.24-.11-5.92-.15-7.98-.06-1.88-.12-2.93-.19-2.93Z" fill="#643f92"/><path d="M120.38,355.49c.68,1.71,17.15,10.49,17.15,10.49h7.51s4.82-6.66,4.54-7.66-3.12-11.91.85-11.34c3.97.57,6.66,7.63,7.23,9.49.57,1.85-.71,4.83-.71,4.83,0,0,6.81-8.36,11.48-6.24,4.68,2.13,2.41,5.1,2.41,5.1l-13.61,11.77s9.22-1.13,9.07,5.53l-8.22,3.83-13.41,2.27c-1.62.28-3.29.14-4.84-.4l-3.28-1.13s-7.96-.89-12.36-2.45c-4.39-1.56-9.01-6.68-9.01-6.68l-17.22-18.98s-2.41-9.78,3.12-12.48c5.53-2.69,3.69-.14,5.53-2.69,1.84-2.55,8.98-5.69,9.36,1.99.29,5.95-2.27,7.37-2.69,7.37s4.4.57,7.09,7.37Z" fill="#c27460"/><path d="M144.15,365.98c.05.26,3.25-.17,7.19-.97l.09-.02.08-.05c.07-.04.14-.09.21-.13,3.47-2.22,6.1-4.52,5.71-4.87-.08-.02-.67.45-1.82,1.19-1.58,1.02-2.95,1.91-4.42,2.86-.07.04-.14.09-.2.13l.17-.07c-3.94.81-7.05,1.66-7,1.92Z" fill="#7c4235"/><path d="M121.9,364.73c0,.1.56.14,1.46.48.88.34,2.13,1.07,3.19,2.3l-.03-.04c.8,1.3,1.65,2.7,2.56,4.17l.09.14.18.06c.87.29,1.81.65,2.72,1.07,1.68.76,3.2,1.65,4.4,2.65,1.21,1,2.07,2.15,1.95,3.26-.08,1.1-.74,1.9-1.16,2.4-.45.5-.73.75-.7.81.03.05.4-.09.96-.54.52-.45,1.36-1.22,1.58-2.6.1-.68-.06-1.47-.46-2.16-.42-.68-.96-1.28-1.59-1.85-1.26-1.12-2.85-2.07-4.59-2.86-.96-.44-1.9-.8-2.85-1.09l.26.2c-.95-1.44-1.85-2.81-2.69-4.09l-.02-.03h-.01c-1.28-1.35-2.66-1.98-3.67-2.23-1.01-.23-1.6-.11-1.59-.05Z" fill="#7c4235"/><path d="M113.29,348.11c-.08-.13-.49,0-1.15.11-.66.11-1.58.19-2.62.2-2.08.02-3.8-.13-3.86.14-.06.25,1.65.86,3.87.84,1.11,0,2.12-.21,2.81-.51.69-.31,1.01-.67.95-.77Z" fill="#7c4235"/><path d="M97.98,353.93s-8.87-2.43-18.02-5.22l-20.36-7.31,6.32-36.61-42.76-14.97s-7.36,53.47-5.56,67.08c1.77,13.31,9.19,16.48,19.58,19.86,10.4,3.38,86.49-.39,87.56,1.25,1.06,1.64-10.37-15.05-10.37-15.05l-16.4-9.04Z" fill="#c27460"/><path d="M111.93,368.91c-.22.13,1.32,2.93,4.19,5.57,2.85,2.66,5.76,3.98,5.87,3.76.14-.25-2.46-1.9-5.21-4.47-2.77-2.55-4.61-5.02-4.85-4.86Z" fill="#7c4235"/><path d="M40.75,348.56c.2.24,3.59-3.02,8.85-5.1,5.24-2.14,9.94-2.14,9.92-2.44.06-.23-4.82-.69-10.28,1.54-5.48,2.17-8.69,5.88-8.49,6.01Z" fill="#7c4235"/><path d="M135.11,369.39c-.04.13,1.78.85,4.61,2.27.74.37,1.51.76,2.31,1.17.42.21.85.43,1.3.66l.35.17.2.09c.11.05.32.08.34.06l.78-.08c2.14-.22,4.42-.46,6.82-.71,1.21-.14,2.39-.27,3.53-.4,1.14-.14,2.24-.27,3.25-.28,2.04-.03,3.9.3,5.17,1.1,1.32.75,1.93,1.9,2.2,2.7.26.82.27,1.32.34,1.32.06,0,.19-.5.02-1.41-.17-.88-.76-2.25-2.2-3.18-1.4-.98-3.4-1.4-5.55-1.42-1.1-.02-2.19.09-3.32.22-1.14.12-2.31.25-3.51.38-2.38.28-4.65.54-6.77.79l-.77.1c.05.05-.35-.13-.52-.21-.45-.21-.88-.41-1.31-.61-.83-.37-1.62-.73-2.38-1.07-2.93-1.27-4.86-1.77-4.9-1.65Z" fill="#7c4235"/><path d="M59.7,206.87c-1.23.41-15.51,4.62-23.29,25.09-7.78,20.47-18.06,73.97-18.06,73.97l48.77,9.85,7.32-66.28-14.74-42.63Z" fill="#fff"/><path d="M77.42,254.94c-.07,0-.23.84-.46,2.38-.25,1.73-.56,3.91-.93,6.51-.78,5.49-1.91,13.07-3.36,21.41-1.46,8.34-2.96,15.86-4.08,21.29-.53,2.57-.97,4.73-1.32,6.44-.3,1.52-.44,2.37-.38,2.39.07.02.33-.8.74-2.3.42-1.5.98-3.68,1.63-6.38,1.3-5.4,2.91-12.92,4.37-21.27,1.45-8.36,2.48-15.97,3.09-21.49.3-2.76.52-5,.63-6.55.11-1.55.15-2.41.08-2.42Z" fill="#643f92"/><path d="M61.11,212.49c-.2.27,6.12,3.26,11.03,9.99,5.02,6.66,6.05,13.57,6.36,13.46.1-.01,0-1.73-.76-4.4-.75-2.66-2.3-6.22-4.82-9.64-2.54-3.4-5.5-5.92-7.83-7.41-2.33-1.5-3.95-2.09-3.99-2Z" fill="#643f92"/><path d="M302.96,758.67l2.34,42.66s-42.58,16.7-42.91,24.63l82.88-1.56-.91-66.62-41.39.89Z" fill="#643f92"/><path d="M345.26,824.4l-.09-6.45-79.6,3.75s-3.66,1.68-3.19,4.27l82.88-1.56Z" fill="#ff8acd"/><path d="M303.94,800.94c.02.4,2.05.55,4.06,1.81,2.05,1.21,3.11,2.95,3.48,2.78.37-.09-.28-2.49-2.74-3.98-2.45-1.51-4.89-.98-4.8-.61Z" fill="#fff"/><path d="M295.32,804.7c-.09.39,1.68,1.05,3.09,2.74,1.46,1.64,1.84,3.49,2.24,3.46.38.06.62-2.32-1.17-4.38-1.77-2.08-4.15-2.2-4.16-1.82Z" fill="#fff"/><path d="M290.58,815.19c.37.08.89-1.95-.19-4.15-1.07-2.21-2.99-3.04-3.16-2.7-.22.34,1.03,1.5,1.89,3.32.9,1.8,1.05,3.5,1.45,3.53Z" fill="#fff"/><path d="M460.29,753.48l13.93,49.78,22.37,36.2c1.61,2.61.68,6.04-2.03,7.47h0c-1.52.8-3.32.82-4.85.05-9.75-4.94-45.53-23.28-46.34-26.98-.94-4.29-18.18-51.53-18.18-51.53l35.11-14.98Z" fill="#643f92"/><path d="M494.55,846.92l-52.21-30.27.64,2.1c.55,1.81,1.72,3.37,3.31,4.39,4.26,2.73,16.2,10.02,43.26,23.88,1.57.81,3.46.77,5-.1h0Z" fill="#ff8acd"/><path d="M476.67,828.76c.32.05.65-2.88,3.16-5.17,2.45-2.36,5.39-2.5,5.36-2.82,0-.13-.74-.33-1.94-.14-1.2.18-2.82.85-4.19,2.13-1.37,1.29-2.14,2.86-2.4,4.05-.27,1.19-.12,1.95.01,1.95Z" fill="#fff"/><path d="M482.2,834.31c.3.14,1.4-1.95,3.73-3.46,2.3-1.56,4.65-1.76,4.64-2.09.07-.3-2.63-.62-5.27,1.15-2.65,1.74-3.4,4.35-3.1,4.41Z" fill="#fff"/><path d="M467.52,822.27c.3.16,1.97-3.06,5.4-5.73,3.38-2.72,6.9-3.61,6.81-3.94,0-.29-3.88.14-7.52,3.05-3.66,2.87-4.98,6.55-4.69,6.62Z" fill="#fff"/><path d="M462.03,807.49c.22.26,2.61-1.72,6.12-2.93,3.5-1.26,6.59-1.22,6.61-1.56.06-.28-3.22-.86-6.98.48-3.77,1.31-5.97,3.82-5.74,4Z" fill="#fff"/><path d="M457.51,795.87c.24.24,2.48-2.25,6.29-3.22,3.79-1.06,6.97-.02,7.06-.35.05-.13-.68-.58-2.02-.9-1.33-.32-3.29-.39-5.33.15-2.04.55-3.7,1.59-4.69,2.53-1.01.94-1.41,1.7-1.3,1.78Z" fill="#fff"/><path d="M269.62,403.61c-1.27,1.3-21.89,47.22-20.56,79.11,1.33,31.89,20.56,142.88,20.56,142.88l30.73,171.71h44.62s0-109.77-4-139.82c-4-30.05-8.66-46.61-9.99-68.68-1.33-22.08-1.71-68.51-3.04-66.67-1.33,1.84,102.95,269.04,102.95,269.04l43.87-2.9s-15.89-91.71-19.22-109.1c-3.33-17.39-16.65-70.74-26.64-97.72-9.99-26.98-13.49-94.28-27.31-123.23-13.81-28.95-13.93-38.05-13.93-38.05l-118.04-16.56Z" fill="#ffae00"/><path d="M302.77,181.32c-.42-.57-.94-1.14-1.51-1.66-1.55-1.4-3.63-2.17-5.71-2.01-.26.02-.51.05-.76.1-1.93.47-3.73,1.64-4.83,3.31-1.91,2.91-1.79,6.91-.01,9.91,1.55,2.6,4.5,4.53,7.5,4.16,2.76-.34,5.03-2.55,6.1-5.11,1.17-2.81,1.03-6.24-.77-8.69Z" fill="#ffae00"/><path d="M352.52,269.15l24.99-125.53c.7-4.24-1.96-8.3-6.13-9.36l-41.86-17.25c-13.7-3.48-25.43,12.32-28.32,26.16-3.22,15.37-6.54,34.27-6.37,46.11.34,23.81,17.75,29.35,17.75,29.35.02-.08-1.59,19.1-1.59,19.1l-4.28,29.76,45.82,1.67Z" fill="#c27460"/><path d="M303.36,163.31c-.28,1.57.81,3.1,2.44,3.43,1.63.32,3.18-.68,3.47-2.25.28-1.57-.81-3.1-2.44-3.43-1.63-.33-3.19.68-3.47,2.25Z" fill="#643f92"/><path d="M303.89,153.63c.31.44,2.82-.9,6.03-.43,3.21.43,5.33,2.42,5.74,2.08.2-.15-.08-.91-1-1.8-.9-.89-2.52-1.86-4.52-2.14-2-.28-3.79.22-4.87.83-1.1.61-1.53,1.27-1.38,1.47Z" fill="#643f92"/><path d="M333.34,168.34c-.28,1.57.81,3.1,2.44,3.43,1.63.32,3.18-.68,3.47-2.25.28-1.57-.81-3.1-2.44-3.43-1.63-.33-3.19.68-3.47,2.25Z" fill="#643f92"/><path d="M335.38,158.79c.32.44,2.82-.9,6.03-.43,3.21.43,5.33,2.42,5.74,2.08.2-.15-.08-.91-1-1.8-.9-.89-2.52-1.86-4.52-2.14-2-.28-3.79.22-4.87.83-1.09.62-1.53,1.27-1.38,1.47Z" fill="#643f92"/><path d="M320.28,180.93c.04-.18-1.91-.81-5.08-1.69-.81-.2-1.56-.48-1.62-1.06-.11-.62.36-1.46.9-2.35,1.06-1.87,2.17-3.84,3.33-5.9,4.65-8.41,8.15-15.37,7.81-15.55-.34-.18-4.39,6.48-9.04,14.89-1.13,2.08-2.2,4.05-3.23,5.95-.45.89-1.13,1.87-.89,3.16.13.64.67,1.18,1.18,1.39.5.24.96.31,1.37.39,3.23.65,5.25.95,5.29.77Z" fill="#643f92"/><path d="M312.57,218.62s15.51,3.27,32.38-3.82c0,0-9.87,14.9-32.85,9.36l.48-5.54Z" fill="#7c4235"/><path d="M332.99,188.02c-.7-1.59-1.28-2.89-2.95-3.19l-8.56,5.05c.15.53.21.91.55,1.31,1.24,1.45,1.7,2.8,3.45,3.5,1.75.7,4.66.05,6.08-1.53,1.27-1.4,2.12-3.55,1.42-5.15Z" fill="#7c4235"/><path d="M335.34,149.89c.19.92,3.46.97,7.16,1.97,3.72.92,6.6,2.47,7.22,1.75.28-.34-.13-1.24-1.24-2.26-1.1-1.02-2.92-2.1-5.15-2.68-2.23-.57-4.35-.51-5.8-.15-1.46.36-2.26.94-2.18,1.38Z" fill="#643f92"/><path d="M306.41,144.5c.46.81,2.78.37,5.45.72,2.68.26,4.84,1.2,5.47.51.28-.34.03-1.12-.85-1.95-.87-.83-2.41-1.63-4.25-1.83-1.84-.21-3.52.23-4.55.84-1.05.61-1.47,1.32-1.27,1.71Z" fill="#643f92"/><path d="M392.52,107.18c3.96-.22,7.17-4.09,7.21-8.06.04-3.97-2.68-7.66-6.25-9.39-3.57-1.73-7.82-1.69-11.61-.52-2.26-6.94-7.74-12.76-14.54-15.42-6.8-2.66-14.78-2.11-21.15,1.46-1.25.7-2.47,1.55-3.24,2.75-.77,1.21-.99,2.86-.22,4.07-2.57-1.36-6.02-.73-7.95,1.44-1.92,2.17-2.13,5.68-.46,8.06l46.5,31.3c3.38,1.87,7.53,2.53,11.17,1.25,3.64-1.28,6.6-4.66,6.88-8.5.27-3.85-2.51-7.83-6.32-8.44Z" fill="#643f92"/><path d="M383.11,132.3c5.28-4.23,4.22-9.98,1.85-16.32-2.37-6.34-7.54-11.23-13.1-15.09-8.27-5.76-15.62-9.32-25.51-11.23-8.06-1.56-15.66-.59-19.3,4.27-3.76,5.02-2.41,8.39-2.41,8.39,0,0-8.5,2.28-16.56,7.97-11.61,8.19-15.73,17.5-17.24,27.35-1.1,7.16-.86,20.85,6.21,27.87,1.17-7.51,1.8-11.07,3.27-18.12.14-.67,3.07-6.63,3.25-7.31,6.86-9.47,15.63-13.84,28.5-15.01,7.52,2.91,19.84,10.16,28.44,27.77,6.63,13.59,7.9,28.9,8.12,35.36l-.65,3.24,2.08.76c8.27-6.69,15.71-18.66,17.68-29.11,1.97-10.45.62-21.55-4.64-30.8Z" fill="#ff8acd"/><path d="M383.11,132.3c-.05.09-1.43-.64-4.04-1.72-2.6-1.09-6.43-2.52-11.31-3.78-4.87-1.27-10.8-2.37-17.44-2.76-3.32-.2-6.81-.16-10.44,0-3.62.18-7.36.52-11.12,1.21-3.76.72-7.36,1.76-10.66,3.2-3.27,1.47-6.27,3.3-8.76,5.44-5.01,4.32-7.59,9.98-9,14.75-1.44,4.81-1.97,8.89-2.4,11.68-.21,1.4-.37,2.49-.51,3.22-.14.73-.23,1.12-.26,1.11-.04,0-.01-.4.06-1.14.08-.85.19-1.93.32-3.24.31-2.81.73-6.92,2.1-11.83,1.35-4.86,3.91-10.73,9.08-15.26,2.56-2.24,5.61-4.13,8.97-5.65,3.37-1.49,7.05-2.56,10.88-3.29,3.83-.7,7.61-1.04,11.26-1.21,3.65-.16,7.18-.18,10.54.05,6.72.45,12.68,1.64,17.57,3.01,4.9,1.36,8.72,2.91,11.29,4.12,1.28.61,2.26,1.11,2.91,1.49.65.37.98.57.97.6Z" fill="#643f92"/><path d="M383.72,132.19c-.07.05-.68-.7-1.81-2.02-1.13-1.32-2.83-3.18-5.1-5.3-4.5-4.26-11.53-9.34-20.18-13.22-8.65-3.9-17.02-6.04-23.1-7.36-3.04-.66-5.52-1.13-7.24-1.45-1.71-.33-2.66-.52-2.65-.6,0-.07.98,0,2.71.2,1.74.2,4.24.56,7.32,1.13,6.14,1.14,14.62,3.19,23.38,7.13,8.75,3.94,15.83,9.19,20.26,13.64,2.23,2.21,3.86,4.16,4.91,5.57,1.05,1.41,1.55,2.23,1.5,2.27Z" fill="#643f92"/><path d="M374.34,189.55c-.42-.57-.94-1.14-1.51-1.66-1.55-1.4-3.63-2.17-5.71-2.01-.26.02-.51.05-.76.1-1.93.47-3.73,1.64-4.83,3.31-1.91,2.91-1.79,6.91-.01,9.91,1.55,2.6,4.5,4.53,7.5,4.16,2.76-.34,5.03-2.55,6.09-5.11,1.17-2.81,1.03-6.24-.77-8.69Z" fill="#ffae00"/><path d="M327.5,195.08c-.04-.15,1.46-.04,3.13-1.37.81-.65,1.6-1.7,1.84-3.04.25-1.32-.05-2.92-1-4.16-.48-.6-1.09-1.18-1.64-1.09-.58.08-1.27.6-1.89.95-1.19.69-2.3,1.35-3.33,1.95-1.91,1.09-3.12,1.72-3.17,1.62s1.05-.89,2.89-2.1c1.01-.65,2.09-1.35,3.25-2.09.64-.35,1.16-.89,2.16-1.08.51-.08,1.04.14,1.4.42.37.28.67.6.95.96,1.1,1.44,1.41,3.27,1.08,4.78-.32,1.54-1.28,2.68-2.21,3.34-1.95,1.34-3.52.99-3.47.93Z" fill="#643f92"/><path d="M226.81,301.29l33.26,39.19.63-10.78,36.81,7.89s-9.2,53.11-16.83,57.06c-7.63,3.94-13.15,5.52-31.03-17.62-17.88-23.14-37.67-62.09-37.67-62.09l14.83-13.65Z" fill="#c27460"/><path d="M225.75,300.22s-2-5.28-10.83-6.81c-8.82-1.53-26.47,2.35-28.36,2.94-1.88.59-15.53-2.12-18.71,1.29-3.18,3.41-2.24,4.47-2.24,4.47l37.06,6.35,23.06-8.25Z" fill="#c27460"/><path d="M226.81,301.29s-6-7.53-19.06-5.65c-6.41.92-19.41,4.35-21.3,4.35s-13.18-2.82-16-1.41c-2.82,1.41-2.52,3.93-2.52,3.93,0,0-10.42-5.1-12.66-1.75l-.59.88s-6.24-2.47-6.59,2.47l9.35,5.19s-8.88-2.95-9.35,3.28c0,0,16.24,5.41,18.71,5.29,2.47-.12,7.18-1.88,7.18-1.88,0,0,8.47,1.18,12.41.94,3.94-.24,24.53-2.12,25.59-2s14.83-13.65,14.83-13.65Z" fill="#c27460"/><path d="M169.02,302.8c-.05.11-1.52-.59-4.13-1.44-1.3-.42-2.9-.88-4.74-1.14-.92-.12-1.89-.19-2.85,0-.93.15-1.92.74-2.15,1.53l-.03.11-.06.09c-.31.44-.31.98.15,1.37.44.4,1.22.67,1.93.99,1.48.59,3.01,1.21,4.57,1.84,3.22,1.26,6.3,2.46,9.13,3.56,1.39.53,2.76,1.1,3.96,1.51,1.23.32,2.49.47,3.61.64,4.51.6,7.32.89,7.3,1.04,0,.07-.71.09-1.99.05-1.28-.05-3.12-.14-5.4-.36-1.15-.12-2.37-.22-3.75-.54-1.34-.42-2.64-.93-4.07-1.45-2.83-1.04-5.93-2.22-9.17-3.49-1.58-.62-3.11-1.23-4.59-1.87-.73-.35-1.49-.57-2.21-1.2-.34-.31-.63-.79-.66-1.32-.02-.53.14-.97.44-1.37l-.1.2c.49-1.48,1.83-2,2.92-2.2,1.13-.19,2.18-.08,3.14.08,1.91.33,3.52.88,4.82,1.38,2.59,1.02,3.98,1.9,3.93,1.99Z" fill="#7c4235"/><path d="M175,316.14c.04.12-1.7.57-4.41-.17-2.65-.89-5.89-2.63-9.57-4.49-3.65-1.89-6.91-3.67-9.25-5.01-2.34-1.34-3.75-2.23-3.68-2.36.07-.13,1.6.54,4.02,1.71,2.42,1.17,5.74,2.85,9.38,4.74,3.65,1.84,6.92,3.72,9.32,4.71,2.48.87,4.18.7,4.18.86Z" fill="#7c4235"/><path d="M222.85,298.7c-.04.06-1.03-.64-3-1.53-1.95-.86-4.97-1.98-8.8-1.87-3.82.21-8.36,1.25-13.34,2.45-2.5.63-5.11,1.29-7.82,1.98-1.38.3-2.68.78-4.29.85-1.57,0-3-.42-4.45-.74-2.8-.69-5.54-1.15-8.23-1.13-1.3.02-2.67.12-3.62.71-1,.54-.99,1.79-.46,2.75l-.26-.21c7.4,2.49,13.91,3.93,18.52,4.79,2.31.43,4.15.72,5.41.93,1.26.2,1.94.32,1.93.38,0,.05-.7.03-1.97-.07-1.28-.11-3.13-.31-5.47-.66-4.67-.7-11.25-2.02-18.73-4.46l-.18-.06-.08-.15c-.35-.65-.56-1.33-.49-2.12.06-.79.58-1.55,1.23-1.94,1.31-.8,2.76-.85,4.15-.9,2.78-.04,5.66.43,8.47,1.13,1.44.33,2.86.73,4.2.72,1.28-.04,2.72-.51,4.06-.81,2.72-.66,5.34-1.31,7.84-1.92,5.02-1.15,9.58-2.13,13.55-2.25,4-.01,7.06,1.25,8.99,2.24.97.51,1.69.97,2.16,1.31.47.34.69.55.66.58Z" fill="#7c4235"/><path d="M254.73,329.92s-1.39-53.97,3.61-65.68c5-11.71,11.93-14.64,18.48-17.15,6.54-2.51,34.32-11.25,34.32-11.25,0,0,8.18,12.32,19.8,12.03,18.87-.47,29.21-16.53,29.21-16.53,0,0,29.47-.99,40.25,1.1l10.17,76.03s-15.97,102.91-22.9,111.69c-6.93,8.79-58.48,28.56-83.89,20.61-25.41-7.95-42.42-25.5-40.16-35.7,2.46-11.11,14.19-49.86,11.67-63.03-.39-1.67-20.55-12.13-20.55-12.13Z" fill="#643f92"/><path d="M400.13,232.12s6.2,1.71,18.85,8.36c12.65,6.66,51.25,44.93,51.25,44.93l-37.05,41.41-28.45-23.43-23.03-38.61,18.43-32.66Z" fill="#643f92"/><path d="M266.86,287.52c.07,0,.14.79.21,2.23.08,1.65.17,3.68.29,6.07.26,5.12.73,12.18,1.86,19.91,1.12,7.73,2.74,14.62,4.07,19.57,1.35,4.94,2.33,7.96,2.18,8.02-.07.02-.38-.71-.9-2.05-.53-1.34-1.2-3.31-1.97-5.76-1.52-4.91-3.27-11.84-4.39-19.62-1.13-7.78-1.49-14.9-1.56-20.04-.04-2.57-.02-4.65.04-6.09.05-1.44.11-2.23.19-2.23Z" fill="#643f92"/><path d="M406.37,235.84c.1.15-2.01,1.42-4.8,4.16-2.79,2.71-6.15,7.08-8.11,12.7-1.96,5.62-2.05,11.13-1.56,14.99.48,3.88,1.35,6.18,1.17,6.24-.06.02-.34-.53-.72-1.57-.39-1.04-.83-2.6-1.17-4.56-.69-3.91-.72-9.62,1.31-15.43,2.03-5.81,5.6-10.26,8.58-12.89,1.49-1.33,2.81-2.27,3.76-2.84.95-.58,1.51-.84,1.54-.78Z" fill="#643f92"/><path d="M436.19,323.72c3.64,2.06,16.65,14.21,16.65,14.21l-54.15,49.95,8.92,16.85s55.41-32.27,70.96-39.6c15.56-7.34,24.98-16.8,22.67-31.7-2.31-14.89-35.26-43.29-35.26-43.29l-29.8,33.57Z" fill="#c27460"/><path d="M404.4,382.87c-.34.3-13.16,9.17-15,18.84,0,0-2.15,11.49-4.29,24.18-2.17,12.89-2.83,17.58-1.64,19.1,2.28,2.9,5.63,1.7,6.7-1.73,1.07-3.43,1.83-15.34,1.83-15.34,0,0,2,13.05,2.08,13.58l6.62,14.88s1.46-6.26,1.88-11.64c.6-7.64-2.04-20.52-1.17-30.94.43-5.22,17.94-15.83,17.94-15.83,0,0-14.61-15.38-14.95-15.08Z" fill="#c27460"/><path d="M473.16,329.41c.01.33-5.28.04-11.21,2.33-5.96,2.21-9.74,5.92-9.95,5.66-.22-.12,3.37-4.32,9.58-6.63,6.18-2.37,11.65-1.6,11.57-1.36Z" fill="#7c4235"/><path d="M260.12,64.56c-.73,1.07,2.32,3.14,3.05,2.07l9.86-14.55-3.05-2.07-9.86,14.55Z" fill="#ffae00"/><path d="M275.39,17.86l12.76,8.65,12.76,8.65s-3.38,5.68-6.3,5.46c0,0-16.62,19.07-25.89,14.55-7.63-6.93,3.91-29.44,3.91-29.44-1.28-2.63,2.74-7.87,2.74-7.87Z" fill="#fff" stroke="#643f92" stroke-miterlimit="10"/><path d="M291.69,21.3c3.66,2.48,6.97,5.01,9.33,7.13,2.92,2.63,4.5,4.61,3.33,6.33-1.17,1.72-3.59.99-7.12-.75-2.85-1.4-6.43-3.54-10.08-6.02s-6.97-5.01-9.33-7.13c-2.92-2.63-4.5-4.61-3.33-6.33,1.17-1.72,3.59-.99,7.12.75,2.85,1.4,6.43,3.54,10.08,6.02h0Z" fill="#ffae00"/><path d="M291.06,22.22c-7.42-5.03-14.09-8.14-14.89-6.96-.8,1.18,4.56,6.22,11.99,11.25,7.42,5.03,14.09,8.14,14.89,6.96.8-1.18-4.56-6.22-11.99-11.25" fill="#fff"/><path d="M302.73,32.48l.26-.14c-1.17-2.11-5.93-6.23-11.85-10.24l-.17.24c5.79,3.92,10.63,8.09,11.76,10.14Z" fill="#643f92"/><path d="M290.98,22.34l.17-.24c-5.63-3.82-10.95-6.62-13.54-7.15l-.06.29c2.52.51,7.92,3.37,13.44,7.11Z" fill="#643f92"/><path d="M294.6,40.77l.04-.29c-5.43-.83-18.1-9.42-21.87-14.82l-.24.17c3.8,5.45,16.59,14.11,22.07,14.95Z" fill="#643f92"/><path d="M300.68,35.61l.08-.28c-.9-.26-2-.72-3.47-1.45-2.84-1.4-6.42-3.53-10.07-6.01-3.65-2.47-6.96-5-9.31-7.12-1.22-1.1-2.05-1.95-2.63-2.69l-.23.18c.59.75,1.43,1.62,2.66,2.72,2.36,2.13,5.68,4.67,9.34,7.15,3.66,2.48,7.25,4.62,10.1,6.03,1.49.73,2.6,1.2,3.52,1.46Z" fill="#643f92"/><path d="M270.54,55.89v-.3c-.93-.04-2.37-.9-2.91-1.98l-.26.13c.54,1.1,2.02,2.1,3.17,2.15Z" fill="#643f92"/><path d="M263.98,65.57v-.3c-.92-.04-2.37-.9-2.91-1.98l-.26.13c.54,1.1,2.02,2.1,3.17,2.15Z" fill="#643f92"/><path d="M266.13,62.4v-.3c-.92-.04-2.37-.9-2.91-1.98l-.26.13c.54,1.1,2.02,2.1,3.17,2.15Z" fill="#643f92"/><path d="M268.28,59.22v-.3c-.92-.04-2.37-.9-2.91-1.98l-.26.13c.54,1.1,2.02,2.1,3.17,2.15Z" fill="#643f92"/><path d="M276.79,54.92l-.05-.29c-2.47.45-9.68-4.44-10.43-7.07l-.28.08c.42,1.48,2.76,3.52,4.64,4.81,1.99,1.37,4.65,2.74,6.12,2.47Z" fill="#643f92"/><path d="M274.63,55.53l.06-.29c-2.69-.57-6.69-3.35-8.23-5.73l-.25.16c1.57,2.43,5.66,5.28,8.41,5.86Z" fill="#643f92"/><path d="M273.35,55.93l.04-.29c-2.33-.33-5.64-2.65-6.82-4.77l-.26.14c1.21,2.19,4.63,4.58,7.03,4.92Z" fill="#643f92"/></svg>