<svg width="134" height="134" viewBox="0 0 134 134" fill="none" xmlns="http://www.w3.org/2000/svg">
<g clip-path="url(#clip0_157_45)">
<path d="M66.6955 133.391C103.53 133.391 133.391 103.53 133.391 66.6955C133.391 29.8606 103.53 0 66.6955 0C29.8606 0 0 29.8606 0 66.6955C0 103.53 29.8606 133.391 66.6955 133.391Z" fill="white"/>
<path d="M76.4716 46.9781C72.9524 45.3811 69.4331 43.7793 65.9139 42.1823C65.4091 41.9541 64.8994 41.7211 64.3946 41.493C64.3266 41.4638 64.2635 41.4638 64.2101 41.493C64.1373 41.5221 64.0742 41.5803 64.0693 41.6774C64.0693 41.6968 64.0693 41.7211 64.0693 41.7405C64.1713 48.1091 64.4188 54.4777 64.7586 60.8366C64.8363 62.3025 65.477 78.1221 65.5644 79.588C65.6469 81.0394 65.5498 82.6655 66.1372 84.0247C67.0546 86.1459 68.9914 87.9565 70.7243 89.4079C71.9524 90.437 73.263 91.3641 74.6367 92.1893C75.3357 92.6068 76.1269 93.0533 76.9376 93.0728C77.0638 93.0728 77.1512 92.9514 77.1512 92.8398C77.1512 89.3157 77.1512 85.7867 77.1512 82.2627C77.1512 76.6416 76.5929 56.6669 76.5929 51.0459C76.5929 49.7547 76.5929 48.4635 76.5929 47.1723C76.5929 47.0995 76.5395 47.017 76.4716 46.9878V46.9781Z" fill="#E5A18C"/>
<path d="M107.679 45.6918C107.033 45.25 106.373 44.8326 105.679 44.4734C102.567 42.8618 99.3395 41.3619 96.0387 40.1289C96.029 40.1289 96.0193 40.1241 96.0096 40.1192C95.9999 40.1192 95.9902 40.1095 95.9805 40.1047C93.7039 39.2698 91.4613 39.3669 89.0779 39.4736C86.646 39.5853 84.2189 39.6921 81.787 39.7989C77.331 39.993 72.8749 40.1823 68.4237 40.4008C67.2781 40.459 65.9238 40.328 64.8171 40.692C64.288 40.8668 63.8802 41.2697 64.1132 41.8522C64.5307 42.9152 66.05 43.6579 67.0839 44.1821C68.9431 45.1287 70.8119 46.051 72.705 46.9344C74.1709 47.6188 75.6369 48.3033 77.1271 48.9343C77.3455 49.0265 77.5882 49.1624 77.8309 49.2353C77.9474 49.2692 78.0736 49.2692 78.195 49.2644C79.1804 49.211 80.1658 49.1576 81.1511 49.0993C86.4179 48.8081 91.6797 48.5169 96.9464 48.2305C99.4851 48.0897 102.029 47.9489 104.567 47.8082C105.951 47.7305 107.358 47.7159 108.737 47.58C108.8 47.5752 108.868 47.5752 108.931 47.5703C109.057 47.5654 109.145 47.4587 109.145 47.3373C109.159 46.614 108.169 46.0267 107.674 45.6869L107.679 45.6918Z" fill="#C98B73"/>
<path d="M111.31 78.5881C111.12 75.1611 110.31 58.6814 110.086 55.9388C109.96 54.3855 109.955 50.8323 109.756 49.2838C109.528 47.5557 109.009 45.9199 107.116 45.4636C105.723 45.1238 104.203 45.1335 102.732 45.1772C98.7521 45.2937 94.7765 45.4394 90.7962 45.5947C87.806 45.7112 84.8111 45.8374 81.8209 46.0267C79.9472 46.1481 77.9182 46.1432 76.0785 46.5801C75.0834 46.8131 73.9961 47.3228 73.2534 48.0363C72.4768 48.7838 72.1467 49.9051 72.0011 50.9342C71.9379 51.3614 71.9137 51.7934 71.9088 52.2254C71.8797 54.1137 71.904 56.0019 71.9525 57.8902C72.0836 63.021 72.9573 82.5102 73.399 87.6264C73.5689 89.5924 73.6757 91.767 75.6999 92.7233C76.9474 93.3106 78.559 93.2184 79.9035 93.2378C84.5829 93.3058 89.2671 93.0388 93.9368 92.7767C97.8977 92.5582 101.912 92.4805 105.854 92.0048C107.383 91.8204 109.931 91.7233 110.717 90.1117C111.009 89.5195 111.082 88.7963 111.164 88.1458C111.305 87.0439 111.358 85.9324 111.397 84.8208C111.465 82.7432 111.426 80.6608 111.31 78.5832V78.5881Z" fill="#FFDEAE"/>
<path d="M67.9479 73.3165C67.9091 73.3165 67.8654 73.3019 67.8314 73.2728C65.2442 71.0205 64.9578 68.574 64.9481 68.4721L64.05 49.1916C64.05 49.0945 64.1229 49.0071 64.2199 49.0022C64.317 48.9925 64.4044 49.0751 64.4093 49.1721L65.3073 68.443C65.3073 68.443 65.5937 70.8506 68.0644 73.001C68.1372 73.0641 68.1469 73.1806 68.0838 73.2534C68.0498 73.2971 67.9964 73.3165 67.943 73.3165H67.9479Z" fill="white"/>
<path d="M101.616 42.789C101.572 42.789 101.533 42.7744 101.499 42.7453C99.9461 41.3765 96.0433 40.4105 94.1697 39.9445C93.8202 39.8571 93.5386 39.7892 93.359 39.7358C92.4756 39.4833 82.3645 39.9785 77.1414 40.2697C77.0443 40.2697 76.957 40.1969 76.9521 40.0998C76.9473 40.0027 77.0249 39.9154 77.122 39.9105C77.7433 39.8765 92.296 39.061 93.4561 39.3911C93.6357 39.4397 93.9124 39.5125 94.257 39.595C96.1598 40.0658 100.121 41.0512 101.742 42.4783C101.815 42.5463 101.825 42.6579 101.757 42.7307C101.723 42.7744 101.669 42.7939 101.621 42.7939L101.616 42.789Z" fill="white"/>
<path d="M72.1759 65.6228C72.0837 65.6228 72.006 65.5451 72.0011 65.4529C71.972 64.8655 71.3167 51.0459 71.938 49.7644C71.9817 49.677 72.0254 49.5848 72.0691 49.4925C72.6322 48.279 73.3312 46.7645 78.0688 46.216C83.02 45.6384 87.3547 45.6578 87.3935 45.6578C87.4906 45.6578 87.5731 45.7403 87.5683 45.8374C87.5683 45.9345 87.4858 46.017 87.3887 46.017C87.345 46.017 83.0345 46.0024 78.1076 46.5752C73.569 47.1043 72.9428 48.4538 72.3943 49.6479C72.3506 49.745 72.3069 49.8372 72.2633 49.9294C71.7778 50.9245 72.171 61.4628 72.3603 65.4432C72.3603 65.5402 72.2875 65.6276 72.1904 65.6325H72.1807L72.1759 65.6228Z" fill="white"/>
<path d="M77.1464 53.6088C77.1367 53.337 77.2338 53.0943 77.4377 52.8856C77.6415 52.6768 77.8891 52.5069 78.1852 52.371C78.4813 52.2351 78.792 52.1332 79.1123 52.0555C79.4327 51.9778 79.7142 51.939 79.9424 51.9293C80.1705 51.9196 80.4084 51.9536 80.6462 52.0215C80.8841 52.0895 81.0977 52.1914 81.2821 52.3273C81.4666 52.4633 81.6122 52.638 81.719 52.8516C81.8258 53.0652 81.8646 53.3176 81.8403 53.5991C81.8112 54.036 81.685 54.4292 81.452 54.769C81.219 55.1087 80.9278 55.4048 80.5831 55.6427C80.2336 55.8805 79.855 56.065 79.4424 56.1961C79.0298 56.3271 78.6318 56.3999 78.2483 56.4096C78.258 56.7252 78.2823 57.0407 78.3211 57.3513C78.3599 57.662 78.3988 57.9775 78.4376 58.293C78.4764 58.6086 78.5153 58.9241 78.5541 59.2347C78.5929 59.5454 78.6124 59.8609 78.6269 60.1764C78.6269 60.2687 78.6269 60.3609 78.6124 60.4386C78.5978 60.5162 78.525 60.5842 78.3891 60.6327L78.1221 60.3997C78.1221 60.3997 78.1027 60.2735 78.0687 60.0405C78.0347 59.8075 77.9862 59.5114 77.9279 59.1425C77.8697 58.7736 77.8017 58.361 77.7289 57.895C77.6561 57.429 77.5881 56.963 77.5202 56.4922C77.4522 56.0213 77.3891 55.5699 77.326 55.133C77.2629 54.6961 77.2095 54.3224 77.1658 54.0069V53.9438C77.1658 53.9098 77.1658 53.8709 77.161 53.8273V53.7011C77.1561 53.6574 77.1561 53.6234 77.1513 53.5991L77.1464 53.6088ZM77.8842 54.0457C77.8891 54.2253 77.8988 54.3903 77.9085 54.5457C77.9182 54.701 77.9376 54.8515 77.9619 54.9922C77.9862 55.133 78.0202 55.2883 78.059 55.4388C78.0978 55.5893 78.1512 55.7641 78.2192 55.9631C78.4813 55.9097 78.7968 55.8174 79.1609 55.6864C79.5249 55.5553 79.8744 55.3806 80.2045 55.1621C80.5346 54.9437 80.8113 54.6961 81.0346 54.4195C81.2579 54.1428 81.3598 53.837 81.3501 53.502C81.3452 53.3224 81.2967 53.1622 81.2045 53.0263C81.1122 52.8904 81.0006 52.7739 80.8647 52.6865C80.7288 52.5992 80.5783 52.5312 80.4132 52.4827C80.2482 52.4341 80.088 52.4147 79.9327 52.4244C79.6851 52.4341 79.4327 52.473 79.1851 52.5409C78.9376 52.6089 78.7094 52.7108 78.5153 52.8467C78.3211 52.9826 78.1609 53.1525 78.0444 53.3516C77.9279 53.5506 77.8745 53.7884 77.8842 54.0505V54.0457Z" fill="#643F92"/>
<path d="M84.1653 52.4244C84.4809 52.4147 84.7624 52.4972 85.0051 52.6719C85.2478 52.8467 85.4614 53.0894 85.6458 53.3904C85.8303 53.6913 85.9905 54.0408 86.1264 54.4437C86.2623 54.8466 86.374 55.2592 86.4662 55.7009C86.5584 56.1378 86.6361 56.5844 86.6943 57.0309C86.7526 57.4775 86.7963 57.8998 86.8302 58.293C86.8594 58.6862 86.8836 59.0405 86.8982 59.3609C86.9128 59.6813 86.9225 59.924 86.9322 60.1084L86.6215 60.1182L86.039 57.4241C85.9953 57.3804 85.8982 57.361 85.7478 57.3562C85.5973 57.3513 85.4226 57.361 85.2235 57.3853C85.0245 57.4096 84.8061 57.4387 84.5682 57.4775C84.3304 57.5164 84.1119 57.5455 83.9032 57.5649C83.6945 57.5843 83.5052 57.594 83.3304 57.5989C83.1557 57.6037 83.0343 57.5795 82.9567 57.5261L83.0537 60.2395L82.3984 60.2638C82.3984 60.2395 82.3984 60.191 82.3984 60.1182C82.3984 60.0453 82.3984 59.9725 82.3984 59.8949C82.3984 59.8172 82.3984 59.7444 82.4033 59.6764C82.4081 59.6085 82.413 59.5599 82.413 59.5357C82.447 59.0357 82.4712 58.5309 82.481 58.0212C82.4907 57.5115 82.5101 57.0164 82.5392 56.531C82.5683 56.0456 82.6072 55.5893 82.6654 55.1475C82.7237 54.7058 82.8159 54.3078 82.9372 53.9486C83.0586 53.5894 83.2236 53.2787 83.4178 53.0166C83.612 52.7545 83.8644 52.5603 84.1702 52.4292L84.1653 52.4244ZM84.4469 49.7498C84.3401 49.9002 84.2333 50.0362 84.1265 50.1575C84.0197 50.2789 83.9178 50.4051 83.8158 50.5216C83.7139 50.6381 83.6168 50.7643 83.5149 50.8856C83.4129 51.007 83.3013 51.1478 83.1897 51.2982L82.811 51.1186L84.4517 48.7207C84.6119 48.8712 84.7527 49.0314 84.874 49.2061C84.9954 49.3809 85.1119 49.5653 85.2235 49.7595C85.3352 49.9536 85.442 50.1527 85.5536 50.3517C85.6653 50.5507 85.7866 50.7546 85.9225 50.9584C85.9225 51.0167 85.9128 51.0604 85.8885 51.0798C85.8643 51.0992 85.8254 51.1186 85.7818 51.1332C85.7381 51.1478 85.6847 51.1623 85.6313 51.1769C85.5779 51.1914 85.5148 51.2157 85.4468 51.2545C85.3303 51.0701 85.2381 50.9245 85.1653 50.8128C85.0925 50.7012 85.0342 50.5992 84.9808 50.5022C84.9274 50.4051 84.8595 50.3031 84.7818 50.1915C84.7041 50.0799 84.5925 49.9342 84.4517 49.7401L84.4469 49.7498ZM84.3935 53.0069C84.1702 53.0166 83.9857 53.0991 83.845 53.2642C83.7042 53.4292 83.5877 53.6379 83.5003 53.8952C83.4129 54.1525 83.3498 54.434 83.311 54.7447C83.2722 55.0553 83.2479 55.3563 83.2382 55.6524C83.2285 55.9485 83.2285 56.2252 83.2382 56.4776C83.2479 56.73 83.2479 56.9241 83.2528 57.0649C83.6702 57.0504 84.1022 57.0018 84.5342 56.9241C84.9711 56.8465 85.3789 56.764 85.7623 56.6814C85.772 56.6475 85.772 56.5892 85.7769 56.5115C85.7818 56.4339 85.7769 56.3465 85.7769 56.2543C85.7769 56.1621 85.7769 56.0698 85.7769 55.9825C85.7769 55.8951 85.7769 55.8417 85.7769 55.8174C85.7672 55.5359 85.7429 55.264 85.7041 55.0116C85.6653 54.7592 85.5973 54.5068 85.5002 54.2641C85.4031 54.0214 85.2672 53.7981 85.0925 53.5894C84.9177 53.3806 84.6847 53.1865 84.3983 53.0069H84.3935Z" fill="#643F92"/>
<path d="M87.0439 53.3516L87.2284 52.6768C87.2284 52.6768 87.3012 52.6526 87.4274 52.638C87.5536 52.6234 87.7138 52.5992 87.9225 52.57C88.1313 52.5409 88.3594 52.5118 88.6118 52.473C88.8642 52.4341 89.1312 52.405 89.3982 52.3662C89.6652 52.3273 89.9321 52.2982 90.1943 52.2594C90.4564 52.2206 90.6942 52.1914 90.9175 52.1574L91.2913 52.1429L91.5631 52.1332H91.7282C91.932 52.1186 92.0777 52.1526 92.1553 52.2303C92.233 52.3079 92.2815 52.4681 92.2864 52.7254L89.9564 53.0749C89.9564 53.6137 89.9855 54.1816 90.0438 54.769C90.0972 55.3612 90.1603 55.9534 90.2331 56.5553C90.3059 57.1572 90.3739 57.7542 90.4418 58.3416C90.5098 58.9289 90.5535 59.4969 90.5729 60.0357C90.5729 60.1133 90.5535 60.1667 90.5098 60.2007C90.4661 60.2347 90.4078 60.2541 90.3447 60.2638C90.2816 60.2735 90.2137 60.2735 90.1457 60.2638C90.0778 60.2541 90.0147 60.2395 89.9661 60.225C89.937 60.1133 89.903 59.924 89.869 59.6473C89.8351 59.3707 89.7962 59.0551 89.7574 58.6862C89.7186 58.3173 89.6797 57.9193 89.636 57.4921C89.5924 57.065 89.5535 56.6378 89.5147 56.2106C89.4759 55.7835 89.4322 55.3757 89.3933 54.9874C89.3545 54.5991 89.3205 54.2544 89.2914 53.9632C89.2623 53.6719 89.2429 53.4389 89.2234 53.2787C89.204 53.1186 89.1943 53.0555 89.1846 53.0991L87.0439 53.3418V53.3516Z" fill="#643F92"/>
<path d="M92.1213 53.235C92.2524 53.0312 92.4271 52.8564 92.6504 52.7059C92.8737 52.5555 93.1213 52.4292 93.398 52.3273C93.6747 52.2254 93.9708 52.138 94.2911 52.0798C94.6115 52.0215 94.9222 51.9681 95.2328 51.9293C95.5435 51.8904 95.8396 51.8662 96.1308 51.8468C96.4221 51.8273 96.6794 51.8128 96.9026 51.8079C96.9221 51.8079 96.956 51.8079 97.0191 51.8079C97.0822 51.8079 97.1453 51.8079 97.2133 51.8128C97.2813 51.8176 97.3444 51.8128 97.3978 51.8128H97.5191C97.5579 51.9972 97.5434 52.1283 97.4754 52.2011C97.4075 52.2739 97.3104 52.3225 97.1987 52.3419C97.0871 52.3613 96.9609 52.3564 96.8298 52.3419C96.6988 52.3273 96.6065 52.3273 96.5483 52.3419C96.4609 52.3516 96.3299 52.3807 96.1454 52.4244C95.9609 52.4681 95.7619 52.5215 95.5386 52.5749C95.3153 52.6283 95.0823 52.6914 94.8299 52.7545C94.5775 52.8176 94.3397 52.8807 94.1164 52.9341C93.8931 52.9875 93.6892 53.0409 93.5096 53.0894C93.33 53.1379 93.199 53.1719 93.1164 53.1913C92.9805 53.2496 92.9077 53.3127 92.8931 53.3904C92.8786 53.468 92.8737 53.5603 92.8786 53.6622C92.8834 53.8418 92.9028 54.0408 92.932 54.2641C92.9611 54.4874 92.9951 54.7058 93.0339 54.9243C93.0727 55.1427 93.1067 55.3417 93.1456 55.5165C93.1844 55.6912 93.2038 55.8271 93.2184 55.9145C93.2523 55.9242 93.3155 55.9242 93.4125 55.9194H93.6067C93.8057 55.9048 93.995 55.8805 94.1843 55.8417C94.3736 55.8029 94.5581 55.7543 94.7474 55.7058C94.9367 55.6572 95.126 55.6135 95.3202 55.5747C95.5144 55.5359 95.7182 55.5165 95.9221 55.5068L95.9367 55.9825C95.8493 55.9825 95.7328 55.997 95.5775 56.0164C95.4221 56.0359 95.2571 56.065 95.0726 56.1038C94.8882 56.1426 94.7037 56.1863 94.5193 56.2349C94.3348 56.2834 94.1601 56.3271 94.0096 56.3756C93.8591 56.4242 93.7329 56.4727 93.6358 56.5164C93.5387 56.5601 93.4902 56.6086 93.4902 56.6523L93.5824 59.3269C93.9853 59.3124 94.3834 59.2881 94.7814 59.2444C95.1794 59.2056 95.5775 59.1619 95.9804 59.1182C96.3832 59.0745 96.7813 59.0308 97.1842 58.992C97.5871 58.9532 97.99 58.924 98.3928 58.9095C98.3928 59.0114 98.3637 59.0988 98.3006 59.1619C98.2375 59.225 98.155 59.2833 98.0676 59.3221C97.9803 59.3609 97.8832 59.3949 97.7812 59.4143L97.5531 59.4629C97.5191 59.4726 97.4123 59.4871 97.2327 59.5114C97.0531 59.5357 96.8298 59.5696 96.5677 59.6133C96.3056 59.657 96.0095 59.7007 95.6843 59.7492C95.359 59.7978 95.0387 59.8415 94.7231 59.8852C94.4076 59.9289 94.1067 59.9725 93.8251 60.0114C93.5436 60.0502 93.3106 60.0842 93.1213 60.1085C93.097 60.1182 93.0582 60.123 93.0048 60.123C92.966 58.9726 92.8883 57.8173 92.7718 56.6523C92.6601 55.4873 92.4466 54.3418 92.131 53.2205L92.1213 53.235Z" fill="#643F92"/>
<path d="M99.3053 58.9289C99.3441 58.827 99.4072 58.759 99.4995 58.7299C99.5917 58.7007 99.6888 58.7639 99.7956 58.9143C99.7956 58.9337 99.8393 58.9532 99.9218 58.9823C100.004 59.0114 100.106 59.0405 100.232 59.0745C100.359 59.1085 100.504 59.1425 100.674 59.1765C100.844 59.2104 101.009 59.2396 101.174 59.2638C101.339 59.2881 101.499 59.3075 101.655 59.3221C101.81 59.3366 101.941 59.3463 102.053 59.3415C102.344 59.3318 102.611 59.259 102.849 59.1279C103.087 58.9969 103.291 58.827 103.46 58.6231C103.63 58.4192 103.757 58.1911 103.844 57.9338C103.931 57.6765 103.965 57.4193 103.96 57.1523C103.96 57.0746 103.941 56.9387 103.907 56.7494C103.873 56.5601 103.824 56.3659 103.757 56.1766C103.689 55.9873 103.606 55.8174 103.499 55.6621C103.392 55.5067 103.276 55.4388 103.14 55.4436C102.252 55.5796 101.524 55.6427 100.951 55.6427C100.378 55.6427 99.9266 55.5893 99.5868 55.4922C99.2471 55.3951 99.0092 55.2495 98.8684 55.0602C98.7277 54.8709 98.65 54.6524 98.6354 54.4049C98.6257 54.0942 98.6937 53.7981 98.8345 53.502C98.9801 53.2108 99.1645 52.9486 99.3975 52.7156C99.6305 52.4826 99.8926 52.2982 100.184 52.1526C100.475 52.0069 100.766 51.9341 101.058 51.9244C101.295 51.9147 101.548 51.939 101.815 51.9875C102.082 52.0361 102.325 52.1234 102.553 52.2399C102.781 52.3564 102.965 52.5118 103.116 52.7108C103.266 52.9098 103.344 53.1476 103.354 53.4292C103.15 53.434 102.956 53.3855 102.781 53.2739C102.606 53.1622 102.431 53.0457 102.252 52.9244C102.072 52.803 101.893 52.6865 101.698 52.5749C101.504 52.4632 101.286 52.4147 101.038 52.4244C100.834 52.4292 100.626 52.4923 100.422 52.5991C100.218 52.7059 100.033 52.8467 99.8684 53.0166C99.7033 53.1865 99.5771 53.3709 99.4752 53.5748C99.3733 53.7787 99.3296 53.9874 99.3344 54.2058C99.3344 54.2932 99.3441 54.3854 99.349 54.4825C99.3538 54.5796 99.3781 54.6767 99.4169 54.7641C99.4558 54.8514 99.5092 54.9243 99.5868 54.9825C99.6645 55.0407 99.7664 55.065 99.9072 55.0602L103.363 54.9388C103.509 54.934 103.635 54.9728 103.747 55.0602C103.858 55.1475 103.951 55.2543 104.028 55.3902C104.106 55.5262 104.169 55.6766 104.223 55.8465C104.276 56.0164 104.32 56.1815 104.354 56.3417C104.388 56.5018 104.412 56.6572 104.426 56.7979C104.441 56.9387 104.446 57.0504 104.451 57.1232C104.46 57.4581 104.426 57.7736 104.344 58.0746C104.261 58.3755 104.13 58.6425 103.946 58.8852C103.761 59.1279 103.538 59.3269 103.261 59.4871C102.985 59.6473 102.659 59.7492 102.295 59.7978C102.116 59.8221 101.883 59.8269 101.596 59.8075C101.31 59.7881 101.019 59.7541 100.723 59.691C100.427 59.6279 100.15 59.5357 99.8878 59.4095C99.6257 59.2832 99.4315 59.1231 99.3053 58.924V58.9289Z" fill="#643F92"/>
<path d="M83.0091 63.2745L82.605 63.5435L99.0394 88.2324L99.4434 87.9634L83.0091 63.2745Z" fill="#FFAE00"/>
<path d="M85.519 62.2821L85.0659 62.4563L94.9514 88.1685L95.4045 87.9944L85.519 62.2821Z" fill="#FFAE00"/>
<path d="M88.5538 62.1184L88.0708 62.1671L90.6614 87.8948L91.1444 87.8462L88.5538 62.1184Z" fill="#FFAE00"/>
<path d="M90.4054 62.2873L88.1665 88.2429L88.6501 88.2846L90.889 62.329L90.4054 62.2873Z" fill="#FFAE00"/>
<path d="M84.6572 63.3043L84.2532 63.5733L100.688 88.2623L101.092 87.9933L84.6572 63.3043Z" fill="#FFAE00"/>
<path d="M87.1674 62.311L86.7144 62.4852L96.5998 88.1974L97.0529 88.0232L87.1674 62.311Z" fill="#FFAE00"/>
<path d="M90.199 62.1481L89.7161 62.1967L92.3067 87.9245L92.7897 87.8758L90.199 62.1481Z" fill="#FFAE00"/>
<path d="M92.0511 62.3201L89.8123 88.2758L90.2959 88.3175L92.5347 62.3618L92.0511 62.3201Z" fill="#FFAE00"/>
<path d="M83.68 64.108L83.2759 64.377L99.7103 89.0659L100.114 88.7969L83.68 64.108Z" fill="#FFAE00"/>
<path d="M86.1897 63.1126L85.7366 63.2868L95.622 88.999L96.0751 88.8249L86.1897 63.1126Z" fill="#FFAE00"/>
<path d="M89.2264 62.9548L88.7434 63.0035L91.3341 88.7312L91.817 88.6826L89.2264 62.9548Z" fill="#FFAE00"/>
<path d="M91.0765 63.1236L88.8376 89.0792L89.3213 89.1209L91.5601 63.1653L91.0765 63.1236Z" fill="#FFAE00"/>
<path d="M52.57 80.8015C52.57 80.8015 55.2543 75.7727 52.701 76.5202C50.1478 77.2677 45.2063 84.5101 39.5901 84.5489L42.7889 86.6168L52.5748 80.8015H52.57Z" fill="#F2CEC1"/>
<path d="M34.6778 62.3171C31.0712 60.9191 27.4694 59.5211 23.8628 58.1232C23.3434 57.9241 22.824 57.7203 22.3047 57.5212C22.2367 57.4921 22.1736 57.5018 22.1202 57.531C22.0474 57.5601 21.9891 57.628 21.9891 57.7251C21.9891 57.7445 21.9891 57.7688 21.9891 57.7882C22.4503 64.1423 23.057 70.4817 23.756 76.8163C23.9162 78.2726 24.0813 79.7337 24.2463 81.1899C24.4113 82.6364 24.4065 84.2626 25.0715 85.5877C26.1054 87.6459 28.1296 89.34 29.9402 90.6894C31.1197 91.568 32.3575 92.3883 33.6633 93.0679C34.4691 93.4854 35.4205 94.0387 36.367 94.0096C36.4932 94.0096 36.5757 93.8785 36.566 93.762C36.367 90.2428 36.168 86.7236 35.969 83.1995C35.6535 77.5881 35.3379 71.9768 35.0176 66.3654C34.9448 65.0791 34.8719 63.7879 34.7991 62.5016C34.7991 62.4288 34.7409 62.3462 34.6681 62.3171H34.6778Z" fill="#643F92"/>
<path d="M65.7732 59.2784C64.5354 58.5309 63.2005 57.9387 61.8753 57.3707C59.2493 56.2494 56.5552 55.2203 53.8272 54.3757C53.8175 54.3757 53.8078 54.3757 53.7981 54.3709C53.7884 54.3709 53.7787 54.3612 53.769 54.3612C51.4487 53.6573 49.2158 53.8806 46.8421 54.1233C44.4248 54.3709 42.0026 54.6136 39.5852 54.8563C35.1486 55.3029 30.7119 55.7446 26.2753 56.2154C25.1346 56.3368 23.7754 56.2834 22.6881 56.7106C22.1687 56.9144 21.7852 57.3416 22.0473 57.9095C22.5764 59.0551 24.421 59.7347 25.4549 60.2104C27.6199 61.2006 29.8382 62.0792 32.0517 62.9578C33.173 63.4044 34.2991 63.8413 35.435 64.249C35.7165 64.3509 36.0369 64.516 36.3378 64.5354C36.6242 64.5548 36.9543 64.4674 37.2407 64.4335C37.9834 64.3509 38.7261 64.2684 39.4639 64.1859C44.7063 63.5985 49.9439 63.0112 55.1864 62.4239C57.7154 62.1423 60.2444 61.8559 62.7733 61.5744C64.1519 61.419 65.5547 61.3268 66.9236 61.1084C66.9867 61.0987 67.0547 61.0938 67.1178 61.089C67.244 61.0744 67.3216 60.9676 67.3168 60.8414C67.2925 60.1279 66.2829 59.5939 65.7683 59.2832L65.7732 59.2784Z" fill="#E6DAEA"/>
<path d="M32.6488 62.4336C32.6488 62.4336 32.6633 62.4239 32.6682 62.419C36.0855 59.0163 40.7503 57.7882 45.3762 57.0504C47.2596 56.7494 49.1479 56.4825 51.0458 56.2737C52.9778 56.0602 54.9582 55.8126 56.9047 55.8903C57.1329 55.9 57.3028 55.5553 57.0358 55.4631C55.9679 55.099 54.9049 54.7107 53.8272 54.3709C51.8273 53.735 49.876 53.803 47.8081 54.0166C46.6237 54.1379 45.4393 54.2593 44.2549 54.3806C43.0123 54.5068 41.7114 54.536 40.4881 54.7738C38.964 55.0699 37.5271 56.0359 36.3621 57.0164C34.6826 58.4387 33.3235 60.2007 32.309 62.1521C32.2556 62.2152 32.2507 62.2831 32.275 62.3462C32.3235 62.487 32.5274 62.555 32.6488 62.4385V62.4336Z" fill="#643F92"/>
<path d="M58.7008 56.332C57.7591 56.2203 56.7446 56.3708 55.8029 56.4388C54.6233 56.5261 53.4486 56.6378 52.2691 56.7688C49.8177 57.0407 47.3761 57.3756 44.9491 57.7931C42.5851 58.196 40.3037 58.8076 38.1048 59.7784C37.0369 60.2492 35.9884 60.7881 34.9884 61.3948C34.4642 61.7152 33.9497 62.0501 33.4594 62.419C33.0468 62.7297 32.5177 63.0258 32.309 63.5112C32.309 63.5209 32.309 63.5306 32.3235 63.5306C32.7652 63.4724 33.1293 63.1569 33.5031 62.9239C34.0273 62.6035 34.5516 62.2783 35.0807 61.9676C36.1291 61.356 37.1971 60.7881 38.3086 60.3026C40.5901 59.3027 42.9443 58.7008 45.3956 58.293C47.7402 57.8999 50.0944 57.5795 52.4584 57.3222C53.5554 57.2009 54.6476 57.0989 55.7495 57.0164C56.7154 56.9436 57.7348 56.9873 58.6911 56.8174C58.9483 56.7737 58.9969 56.366 58.7056 56.332H58.7008Z" fill="#A489B9"/>
<path d="M69.7633 76.5833C69.4332 73.5107 69.1663 70.4283 68.7634 67.3654C68.5595 65.8169 68.3217 64.2782 68.0353 62.7443C67.71 61.0356 67.0984 59.4289 65.181 59.0794C63.3365 58.7396 61.3026 59.0115 59.4483 59.1571C55.2835 59.4872 51.1235 59.9143 46.9684 60.3172C44.6287 60.5454 42.2939 60.7881 39.9591 61.0696C38.0951 61.2977 36.0661 61.4094 34.2604 61.9433C33.2798 62.2346 32.2216 62.8025 31.5226 63.5598C30.8285 64.3073 30.5567 65.3655 30.4499 66.3557C30.3334 67.4528 30.445 68.5692 30.5081 69.6614C30.5809 70.9332 30.6732 72.2001 30.78 73.467C31.2023 78.5832 31.8042 83.6898 32.5323 88.772C32.8138 90.7234 33.042 92.8883 35.1195 93.7281C36.401 94.2475 38.0029 94.0582 39.3475 94.0048C44.022 93.8106 48.6868 93.2766 53.3322 92.7524C57.2737 92.3107 61.2783 92.0097 65.1859 91.3107C66.7004 91.0389 69.2391 90.7962 69.9381 89.1458C70.1953 88.539 70.2293 87.8109 70.273 87.1605C70.341 86.1508 70.3458 85.1314 70.3215 84.1169C70.273 81.5928 70.0303 79.0881 69.7633 76.5785V76.5833Z" fill="#BCA8CC"/>
<path d="M69.1808 70.9622C69.1711 70.8506 69.0934 70.7875 69.0109 70.7729C68.9236 70.7438 68.8216 70.7632 68.7682 70.8603C68.7585 70.8797 68.7488 70.8991 68.7391 70.9185C66.7635 75.8843 63.254 80.1462 59.3901 83.7674C55.2301 87.6555 50.2304 90.2088 45.4102 93.1455C45.2112 93.2669 45.3568 93.5727 45.5656 93.5532C51.7497 92.9853 57.963 92.364 64.1083 91.4757C64.9917 91.3495 65.8655 91.1893 66.7343 90.9951C67.8265 90.7476 69.2342 90.4126 69.8361 89.3496C70.2487 88.6215 70.2536 87.6167 70.2924 86.806C70.3604 85.4566 70.3361 84.1072 70.2779 82.7577C70.108 78.8162 69.5983 74.8795 69.1857 70.9574L69.1808 70.9622Z" fill="#643F92"/>
<path d="M52.8516 61.9967C53.036 62.5987 53.6137 63.1909 54.2641 63.4675C54.6088 63.6132 54.8078 63.9918 54.701 64.351C54.3806 65.414 54.7641 66.7004 55.7495 67.3071C56.7543 67.9236 58.0261 67.676 58.8949 66.9528C59.2105 66.6858 59.6862 66.7829 59.9095 67.1275C60.4434 67.9673 61.4094 68.5352 62.4336 68.4381C63.5986 68.3265 64.5209 67.3848 64.7878 66.2878C64.8752 65.9237 65.249 65.7101 65.6179 65.7927C66.278 65.9383 66.9916 65.8606 67.5741 65.5305C67.8119 65.3946 68.0644 65.1859 68.2779 64.9432C68.4381 64.7587 68.5109 64.5209 68.477 64.2782C68.4575 64.1374 68.443 63.9918 68.4236 63.851C68.2974 62.8996 68.1517 61.9482 67.977 61.0065C67.778 59.9532 67.3993 58.9678 66.2198 58.7493C65.0839 58.5406 63.8316 58.7057 62.6957 58.7979C60.1327 59.0018 57.5746 59.2639 55.0165 59.5114C54.6622 59.5454 54.3127 59.5794 53.9632 59.6182C53.7447 59.6425 53.5409 59.7493 53.3952 59.9143C52.905 60.4871 52.6526 61.3317 52.8613 61.9967H52.8516Z" fill="white"/>
<path d="M63.817 62.186C63.2927 62.6277 62.9238 63.2248 62.3607 63.618C62.0986 63.8024 61.9773 63.8073 61.9287 63.4675C61.9044 63.2976 61.9287 63.1374 61.987 62.9869C62.0695 62.8413 62.1471 62.6908 62.2103 62.5404C62.5646 61.6909 61.3851 61.1958 60.9385 61.9579C60.8851 62.0501 60.8365 62.1472 60.7977 62.2491C60.5065 62.7976 60.0308 63.3122 59.3657 63.2733C59.3366 63.2733 59.3075 63.2636 59.2784 63.2588C59.657 62.9287 59.9919 62.5598 60.2346 62.1569C60.5404 61.6472 60.9045 60.856 60.3511 60.3754C59.8026 59.8997 59.0357 60.3123 58.6716 60.7929C58.2008 61.4142 57.6911 62.6666 57.8755 63.5743C57.5357 63.8461 57.1814 64.1083 56.8319 64.3655C56.6766 64.4772 56.8125 64.749 56.9969 64.6665C57.3513 64.5063 57.7251 64.3218 58.094 64.1034C58.2444 64.3121 58.4677 64.4772 58.7784 64.5694C59.555 64.7975 60.2929 64.6082 60.8996 64.1908C61.1132 64.5888 61.4724 64.8898 61.987 64.948C62.618 65.0208 63.2442 64.5937 63.681 64.1859C64.1956 63.7102 64.5111 63.2102 64.4868 62.4918C64.4771 62.1812 64.0548 61.9919 63.817 62.1909V62.186ZM59.9725 61.4142C59.9725 61.4142 59.9677 61.4142 59.9628 61.4142H59.9725Z" fill="#FFAE00"/>
<path d="M55.133 77.0784C55.133 77.0784 55.1087 77.0347 55.0893 77.0153C55.0747 76.9959 55.0553 76.9765 55.0408 76.9619C53.769 75.6173 52.0652 75.5154 50.308 75.4863C49.0265 75.462 47.7111 75.4183 46.6043 74.6902C45.6966 74.0931 45.051 73.1757 44.5559 72.2243C43.7113 70.6176 43.3666 68.6517 42.1288 67.2731C41.0949 66.1275 39.5464 65.8751 38.2261 66.6955C34.77 68.8507 36.7165 73.996 38.498 76.6027C40.7163 79.8404 43.9977 81.7626 47.8809 82.1607C50.0168 82.3791 52.905 82.3208 54.6816 80.918C55.8417 80.0054 55.9776 78.2385 55.1378 77.0736L55.133 77.0784Z" fill="white"/>
<path d="M53.0506 76.991C53.0506 76.991 53.0361 76.991 53.0264 76.9862C53.0118 76.9813 52.9972 76.9765 52.9827 76.9716C51.3663 76.593 49.6867 77.1027 48.046 76.7483C46.0364 76.3212 44.4394 75.0154 43.3667 73.2971C42.9055 72.5592 42.556 71.768 42.3425 70.9234C42.1629 70.2293 42.0609 69.4769 41.658 68.8653C40.9833 67.841 39.6873 67.4964 38.7504 68.409C37.7505 69.3846 37.9592 71.137 38.2068 72.3796C38.5126 73.9232 39.1873 75.3843 40.1533 76.627C42.1968 79.2628 45.5947 80.8306 48.8955 81.0442C50.5119 81.151 52.7545 81.1025 54.0215 79.9326C55.1525 78.889 54.2884 77.4376 53.0555 76.991H53.0506ZM53.4147 79.719C52.7206 80.2384 51.7643 80.3744 50.9245 80.452C49.4683 80.5879 48.046 80.4957 46.6286 80.1074C43.8035 79.3404 41.2649 77.7046 39.7941 75.1222C39.0951 73.8941 38.6679 72.5107 38.5854 71.103C38.5465 70.3992 38.5126 69.5303 38.9883 68.9478C39.7843 67.9721 40.959 68.5449 41.3862 69.5157C41.8813 70.6419 41.9638 71.8554 42.5463 72.967C43.1143 74.0446 43.8812 75.0445 44.8326 75.8115C45.9054 76.6804 47.2111 77.2095 48.5751 77.3939C49.9925 77.5832 51.4682 77.1901 52.8565 77.5007C53.8564 77.8842 54.4826 78.923 53.4098 79.719H53.4147Z" fill="#EFF0F5"/>
<path d="M51.8516 78.6269C49.5896 78.9375 46.7839 78.6463 44.7937 77.491C43.6724 76.8357 42.7161 75.8358 42.0171 74.7533C41.1822 73.4524 40.9395 72.0253 40.4638 70.5933C40.4007 70.404 40.0803 70.4283 40.0658 70.6322C39.8037 73.4718 41.9832 76.5639 44.3228 78.0007C46.3519 79.2482 49.7255 79.9618 51.8953 78.7482C51.9535 78.7143 51.9098 78.622 51.8516 78.6269Z" fill="#EFF0F5"/>
<path d="M56.4048 77.6124C56.4048 77.6124 56.3999 77.5784 56.3951 77.5639C56.3902 77.5445 56.3854 77.5299 56.3757 77.5153C55.3612 74.7242 51.6963 74.6417 49.1625 74.5446C50.0799 73.3893 51.0895 71.8263 49.5993 70.705C48.0072 69.506 46.3374 70.3749 45.25 71.7098C44.5996 69.6954 43.886 67.5935 42.2356 66.1858C40.6581 64.8412 38.5465 65.1713 37.0223 66.4916C35.5564 67.7586 35.3137 69.7487 35.6098 71.5642C35.969 73.7388 36.8039 75.9475 38.2213 77.6561C36.5078 78.5832 35.1341 80.7239 36.7068 82.4034C38.5611 84.3839 41.1871 83.6412 42.3618 81.4375C45.1675 82.8694 48.5848 83.6946 51.7254 83.1461C53.1914 82.8888 54.9922 82.3549 55.8854 81.0637C56.5795 80.0589 56.6912 78.7823 56.4048 77.6221V77.6124ZM54.9534 81.4229C53.6719 82.4568 51.7206 82.816 50.1187 82.8597C47.4392 82.9325 44.7064 82.1753 42.3521 80.9375C42.2453 80.8841 42.1094 80.9423 42.0609 81.0443C41.1095 83.049 38.9057 83.8791 37.1582 82.2432C35.5418 80.7287 36.998 78.6706 38.6339 77.9231C38.7504 77.8697 38.8329 77.7046 38.731 77.593C37.3912 76.064 36.5757 74.1077 36.1534 72.137C35.7894 70.4477 35.7263 68.5012 36.9689 67.1372C37.7262 66.3072 38.9785 65.6956 40.1144 65.7198C41.0173 65.7441 41.7162 66.2684 42.3424 66.88C43.7744 68.2828 44.3617 70.3943 44.9636 72.2486C45.0122 72.3991 45.2452 72.4379 45.3374 72.3069C46.2403 71.0302 47.6868 69.9332 49.2304 70.9914C50.74 72.0205 49.3615 73.6126 48.546 74.6077C48.4538 74.7242 48.5071 74.9524 48.677 74.9621C49.91 75.0155 51.1721 74.9621 52.3807 75.2193C53.7739 75.5203 55.4777 76.2824 55.9825 77.7241C56.3174 79.0298 56.0359 80.5492 54.9486 81.4277L54.9534 81.4229Z" fill="#EFF0F5"/>
<path d="M37.7844 79.6463C37.2893 80.3016 37.2019 81.2724 37.8135 81.884C38.3475 82.4228 39.3669 82.5393 39.9494 82.0054C40.26 81.719 39.9251 81.219 39.5562 81.4617C38.4543 82.1753 37.5951 80.8113 38.0611 79.8162C38.1388 79.6511 37.9009 79.5007 37.7893 79.6463H37.7844Z" fill="white"/>
<path d="M47.2985 71.5156C47.3713 71.6321 47.5412 71.6176 47.6577 71.6661C47.8616 71.7486 48.0509 71.836 48.2111 71.9913C48.3421 72.1224 48.4295 72.2729 48.4295 72.4622C48.4295 72.5495 48.4053 72.6224 48.381 72.7C48.3664 72.7486 48.3421 72.9379 48.3179 72.967C48.1674 73.1709 48.4101 73.4378 48.6237 73.2922C48.7839 73.1854 48.9101 73.1806 49.0023 72.9816C49.0751 72.8262 49.1042 72.6466 49.1042 72.4767C49.1042 72.1272 48.9586 71.7777 48.6965 71.5447C48.4441 71.3215 48.0412 71.1855 47.7111 71.2681C47.6723 71.2778 47.2208 71.3894 47.2985 71.5108V71.5156Z" fill="white"/>
<path d="M42.7696 93.6164C47.0752 91.8738 51.1818 89.2914 54.8757 86.5003C58.6037 83.6849 61.987 80.4035 64.8509 76.7095C66.4043 74.6999 67.676 72.6127 68.5838 70.239C68.7148 69.8992 68.1954 69.6614 68.0644 70.0011C66.4528 74.2048 63.5452 77.7386 60.4094 80.918C57.196 84.1751 53.5457 86.9857 49.6479 89.3788C47.3616 90.7816 44.9734 91.9514 42.6046 93.1989C42.3521 93.33 42.4881 93.7329 42.7696 93.6212V93.6164Z" fill="white"/>
<path d="M32.5322 89.8156C31.5565 88.505 30.5372 87.243 29.6537 85.8644C28.7363 84.4276 27.9451 82.9325 27.2315 81.3889C26.5665 79.9472 25.9743 78.4716 25.4743 76.9619C24.9501 75.3698 24.6249 73.734 24.154 72.1273C24.0861 71.8943 23.7317 71.9962 23.7511 72.2243C23.9016 73.8602 24.3967 75.4863 24.9064 77.0445C25.4404 78.6754 26.0811 80.2773 26.8529 81.8112C28.3091 84.6897 30.1197 87.641 32.3866 89.9564C32.4691 90.0389 32.5953 89.9079 32.5322 89.8205V89.8156Z" fill="#BCA8CC"/>
<path d="M32.5274 88.4468C32.0322 87.2721 31.3381 86.1556 30.7702 85.0149C30.1974 83.8596 29.6537 82.6946 29.144 81.5054C28.1635 79.2191 27.2606 76.8988 26.4888 74.5349C24.8821 69.6128 23.955 64.6179 23.2706 59.4968C23.222 59.1522 22.7026 59.2007 22.7269 59.5502C23.1152 64.6373 24.3385 69.7681 25.9306 74.598C26.7364 77.0493 27.6684 79.4618 28.7703 81.7966C29.3188 82.9665 29.8964 84.1217 30.508 85.2625C31.0905 86.3498 31.6682 87.5245 32.4206 88.505C32.4642 88.5584 32.5565 88.5147 32.5274 88.4468Z" fill="#BCA8CC"/>
<path d="M27.6588 89.0099C27.6199 89.0099 27.5763 89.0001 27.5423 88.971C24.8288 86.8692 24.4114 84.4421 24.392 84.3402L22.4066 65.1422C22.3969 65.0451 22.4697 64.9529 22.5668 64.9432C22.6639 64.9286 22.7561 65.0063 22.7658 65.1034L24.7512 84.2917C24.7512 84.2917 25.1686 86.6799 27.7656 88.6846C27.8432 88.7477 27.8578 88.8594 27.7995 88.937C27.7656 88.9807 27.717 89.005 27.6636 89.005L27.6588 89.0099Z" fill="white"/>
<path d="M59.5551 56.6232C59.5163 56.6232 59.4726 56.6135 59.4386 56.5844C57.8076 55.3078 53.8564 54.5602 51.9584 54.201C51.6041 54.1331 51.3177 54.0797 51.1332 54.0408C50.24 53.8418 40.1726 54.9049 34.9739 55.4922C34.8768 55.5019 34.7846 55.434 34.7748 55.332C34.7651 55.2349 34.8331 55.1427 34.935 55.133C35.5515 55.0651 50.0362 53.4244 51.2157 53.6865C51.3953 53.7253 51.6769 53.7787 52.0264 53.8467C53.9534 54.2107 57.9629 54.968 59.6619 56.298C59.7395 56.3611 59.7541 56.4727 59.691 56.5504C59.657 56.5941 59.6085 56.6184 59.5551 56.6184V56.6232Z" fill="white"/>
<path d="M31.4498 81.088C31.3575 81.088 31.275 81.02 31.2653 80.9278C31.2022 80.3404 29.7654 66.5839 30.3139 65.2684C30.3527 65.1762 30.3916 65.084 30.4255 64.9869C30.9158 63.7442 31.5323 62.1958 36.2311 61.3754C41.1434 60.5211 45.4684 60.2929 45.5121 60.2881C45.6092 60.2881 45.6917 60.3609 45.7014 60.458C45.7063 60.5551 45.6286 60.6424 45.5315 60.6473C45.4879 60.6473 41.1823 60.8754 36.2942 61.7298C31.7944 62.5161 31.2459 63.8995 30.7605 65.1179C30.7216 65.215 30.6828 65.3121 30.644 65.4043C30.2168 66.4237 31.2022 76.928 31.6197 80.8889C31.6294 80.986 31.5566 81.0782 31.4595 81.088H31.4498Z" fill="white"/>
</g>
<defs>
<clipPath id="clip0_157_45">
<rect width="133.391" height="133.391" fill="white"/>
</clipPath>
</defs>
</svg>
