<svg width="134" height="134" viewBox="0 0 134 134" fill="none" xmlns="http://www.w3.org/2000/svg">
<g clip-path="url(#clip0_157_177)">
<path d="M66.6955 133.391C103.53 133.391 133.391 103.53 133.391 66.6955C133.391 29.8606 103.53 0 66.6955 0C29.8606 0 0 29.8606 0 66.6955C0 103.53 29.8606 133.391 66.6955 133.391Z" fill="white"/>
<path d="M21.29 61.1909C46.1139 47.3179 69.0156 38.7552 95.1599 33.5662C103.392 43.022 108.455 53.2836 112.106 67.045C94.024 69.7293 84.942 81.2093 83.1896 93.2523C77.5492 96.1502 71.6854 98.3491 65.5886 99.8345C53.0941 92.0388 44.5315 90.4709 28.843 95.7085C24.7704 84.8207 21.3386 71.4962 21.2852 61.1958L21.29 61.1909Z" fill="white"/>
<path d="M65.5499 100.087L65.4625 100.034C52.4195 91.8981 43.8811 90.9418 28.9256 95.9318L28.7023 96.0046L28.6198 95.7862C23.9259 83.2335 21.0959 70.3021 21.0474 61.191V61.0453L21.1736 60.9774C46.08 47.0606 68.8846 38.532 95.1162 33.3235L95.2522 33.2944L95.3444 33.4012C103.393 42.6482 108.635 53.0021 112.343 66.9771L112.411 67.2392L112.144 67.278C88.505 70.7875 84.1945 88.0682 83.4324 93.2815L83.413 93.4028L83.3013 93.4611C77.6414 96.3687 71.7049 98.5919 65.6469 100.063L65.5499 100.087ZM44.6044 92.3786C51.5603 92.3786 57.793 94.6843 65.6324 99.5627C71.5738 98.1065 77.4085 95.927 82.9664 93.0825C83.7868 87.6604 88.2477 70.4526 111.8 66.8363C108.082 52.9438 103.067 43.0463 95.0677 33.8235C68.9914 39.0174 46.2985 47.5024 21.5328 61.3269C21.6104 70.3264 24.3918 83.0296 28.9935 95.393C34.9835 93.4077 39.959 92.3786 44.6044 92.3786Z" fill="#643F92"/>
<path d="M50.1479 49.9974C49.2499 50.3517 48.3325 50.6575 47.4587 51.075C46.5607 51.5022 45.6773 51.9827 44.7113 52.2303C44.7113 52.3371 44.6967 52.4438 44.7113 52.5555C44.8132 53.735 45.5899 54.7301 46.6918 55.1573C47.7888 55.5845 49.5363 55.5602 50.245 54.4729C50.7984 53.6234 50.8615 52.3953 50.7595 51.4148C50.7013 50.8468 50.478 50.3711 50.1479 49.9974Z" fill="#FFAE00"/>
<path d="M66.8168 81.2141C66.9187 82.3937 67.6954 83.3888 68.7972 83.8159C69.8943 84.2431 71.6418 84.2188 72.3505 83.1315C72.9038 82.282 72.9669 81.054 72.865 80.0734C72.7048 78.5007 71.2971 77.6027 69.7923 77.6852C67.8798 77.792 66.6663 79.423 66.8168 81.2141Z" fill="#FFAE00"/>
<path d="M67.3363 99.3831C72.3554 98.0385 77.2193 96.1988 81.9229 93.8834C81.9423 93.2426 82.1656 85.2867 86.4858 79.588C73.5253 78.8502 62.7055 83.0053 53.8127 91.568C62.8705 94.194 66.7587 99.5384 67.3363 99.3831Z" fill="#E7374C"/>
<path d="M53.7642 91.733C46.0753 89.471 37.0903 89.8302 27.7802 92.7669L27.6782 92.4417C37.0515 89.4807 46.1044 89.1215 53.8613 91.4029L53.7642 91.7281V91.733Z" fill="#643F92"/>
<path d="M65.8848 44.0705C65.3217 44.2744 64.7829 44.5316 64.215 44.7307C63.584 44.954 62.9481 45.1578 62.3025 45.3326C61.7248 45.4879 61.1375 45.6384 60.6084 45.9248C60.9579 46.4247 61.453 46.8228 62.0452 47.0509C63.1422 47.4781 64.8897 47.4538 65.5984 46.3665C66.0304 45.6966 66.1615 44.7986 66.1518 43.9686C66.0644 44.0025 65.9722 44.0365 65.8848 44.0705Z" fill="#FFAE00"/>
<path d="M90.4321 74.5689C90.8836 74.2291 91.301 73.8699 91.7282 73.501C92.1651 73.1224 92.6213 72.7777 93.0776 72.4234C93.5145 72.0884 93.8834 71.6758 94.2863 71.3021C93.83 70.1953 92.6553 69.5789 91.4078 69.6468C89.4953 69.7536 88.2818 71.3846 88.4322 73.1757C88.5051 74.0641 88.9662 74.8407 89.6555 75.3601C89.7865 75.0203 90.1409 74.7873 90.4321 74.5689Z" fill="#FFAE00"/>
<path d="M86.6314 79.6803L86.345 79.4958C91.335 71.802 99.9171 66.3266 111.169 63.6617L111.247 63.9918C100.082 66.6373 91.568 72.0593 86.6265 79.6803H86.6314Z" fill="#643F92"/>
<path d="M21.4456 63.7976L21.2805 63.5015C44.7744 50.6769 70.1517 41.1871 96.7037 35.2943L96.7765 35.6243C70.2536 41.5075 44.9103 50.9876 21.4456 63.7976Z" fill="#643F92"/>
<path d="M36.7213 76.1756C36.5903 75.7096 36.4058 75.2581 36.2844 74.7873C36.1679 74.3407 36.1388 73.8796 36.0903 73.4233C35.6437 73.2291 35.1389 73.1369 34.6195 73.166C32.707 73.2728 31.4934 74.9038 31.6439 76.695C31.7458 77.8745 32.5225 78.8696 33.6244 79.2968C34.7214 79.7239 36.4689 79.6996 37.1776 78.6123C37.1825 78.6026 37.1873 78.5929 37.1922 78.5832C37.1436 78.2191 37.0999 77.8551 37.0514 77.4959C36.9495 77.0542 36.8475 76.6173 36.7262 76.1804L36.7213 76.1756Z" fill="#FFAE00"/>
<path d="M94.6552 59.4143C94.2523 58.8318 93.8251 58.2639 93.4902 57.6377C93.2572 57.2057 93.0679 56.7494 92.8592 56.3028C92.6504 55.8562 92.4272 55.4194 92.233 54.9679C92.1116 54.9631 91.9854 54.9534 91.8592 54.9582C89.9467 55.065 88.7332 56.696 88.8837 58.4872C88.9856 59.6667 89.7623 60.6618 90.8641 61.089C91.9612 61.5161 93.7086 61.4919 94.4173 60.4045C94.5678 60.1715 94.6795 59.9094 94.762 59.6327C94.7232 59.5599 94.6892 59.4871 94.6503 59.4143H94.6552Z" fill="#FFAE00"/>
<path d="M87.272 47.4829C87.1021 47.2742 86.9565 47.0461 86.8157 46.8228C86.5099 46.3471 86.1895 45.8859 85.8837 45.4151C85.5682 44.9297 85.2964 44.4054 84.942 43.9491C84.6314 43.5511 84.243 43.2162 83.8984 42.8521C82.8887 43.4783 82.3111 44.6481 82.4179 45.9053C82.5198 47.0849 83.2965 48.08 84.3984 48.5072C85.408 48.8955 86.9516 48.9003 87.7477 48.0557C87.6361 47.8373 87.4322 47.6674 87.2817 47.4781L87.272 47.4829Z" fill="#FFAE00"/>
<path d="M40.3861 90.1894C36.6096 79.8016 34.6583 68.5643 34.5854 56.7931H34.9252C34.998 68.5255 36.9445 79.7239 40.7065 90.0729L40.3861 90.1894Z" fill="#643F92"/>
<path d="M98.4996 68.5498C94.5289 58.2202 88.6263 48.4392 80.9617 39.4882L81.2189 39.2698C88.9079 48.2547 94.825 58.0649 98.8151 68.4333L98.4996 68.5546V68.5498Z" fill="#643F92"/>
<path d="M40.9591 65.7781C41.061 66.9576 41.8377 67.9527 42.9396 68.3799C44.0366 68.807 45.7841 68.7828 46.4928 67.6954C47.0462 66.846 47.1093 65.6179 47.0073 64.6373C46.8471 63.0646 45.4394 62.1666 43.9347 62.2491C42.0222 62.3559 40.8086 63.9869 40.9591 65.7781Z" fill="#FFAE00"/>
<path d="M44.6966 83.2237C44.7986 84.4033 45.5752 85.3984 46.6771 85.8256C47.7742 86.2527 49.5216 86.2284 50.2303 85.1411C50.7837 84.2917 50.8468 83.0636 50.7449 82.083C50.5847 80.5103 49.177 79.6123 47.6722 79.6948C45.7597 79.8016 44.5462 81.4326 44.6966 83.2237Z" fill="#FFAE00"/>
<path d="M55.7301 73.3602C55.832 74.5398 56.6087 75.5349 57.7106 75.962C58.8076 76.3892 60.5551 76.3649 61.2638 75.2776C61.8172 74.4281 61.8803 73.2 61.7783 72.2195C61.6181 70.6468 60.2104 69.7488 58.7057 69.8313C56.7931 69.9381 55.5796 71.5691 55.7301 73.3602Z" fill="#FFAE00"/>
<path d="M56.1039 59.3707C56.2058 60.5502 56.9825 61.5453 58.0844 61.9725C59.1814 62.3996 60.9289 62.3754 61.6376 61.288C62.1909 60.4386 62.254 59.2105 62.1521 58.2299C61.9919 56.6572 60.5842 55.7592 59.0794 55.8417C57.1669 55.9485 55.9534 57.5795 56.1039 59.3707Z" fill="#FFAE00"/>
<path d="M74.4086 68.4381C74.5105 69.6177 75.2872 70.6127 76.389 71.0399C77.4861 71.4671 79.2336 71.4428 79.9423 70.3555C80.4956 69.506 80.5587 68.2779 80.4568 67.2974C80.2966 65.7247 78.8889 64.8266 77.3841 64.9092C75.4716 65.016 74.2581 66.6469 74.4086 68.4381Z" fill="#FFAE00"/>
<path d="M70.4039 53.2156C70.5059 54.3952 71.2825 55.3903 72.3844 55.8174C73.4814 56.2446 75.2289 56.2203 75.9376 55.133C76.491 54.2835 76.5541 53.0554 76.4521 52.0749C76.292 50.5022 74.8843 49.6042 73.3795 49.6867C71.467 49.7935 70.2534 51.4245 70.4039 53.2156Z" fill="#FFAE00"/>
<path d="M94.4852 50.7012C94.5872 51.8807 95.3638 52.8758 96.4657 53.303C97.5627 53.7301 99.3102 53.7059 100.019 52.6185C100.572 51.7691 100.635 50.541 100.533 49.5604C100.373 47.9877 98.9656 47.0897 97.4608 47.1722C95.5483 47.279 94.3347 48.91 94.4852 50.7012Z" fill="#FFAE00"/>
<path d="M26.2996 71.4719C26.8529 70.6225 26.916 69.3944 26.8141 68.4138C26.6539 66.8411 25.2462 65.9431 23.7415 66.0256C22.8677 66.0742 22.1493 66.4528 21.6348 67.0061C21.8047 68.6177 22.0328 70.2681 22.3143 71.9476C22.4551 72.0253 22.5959 72.0981 22.7512 72.1564C23.8482 72.5835 25.5957 72.5593 26.3044 71.4719H26.2996Z" fill="#FFAE00"/>
<path d="M94.6503 40.726C94.7522 41.9055 95.5289 42.9006 96.6307 43.3278C97.7278 43.7549 99.4752 43.7307 100.184 42.6433C100.524 42.1191 100.679 41.4492 100.723 40.7842C99.9024 39.5755 99.0481 38.3814 98.1452 37.2116C97.9753 37.197 97.8006 37.1873 97.6258 37.197C95.7133 37.3038 94.4998 38.9348 94.6503 40.726Z" fill="#FFAE00"/>
<path d="M104.761 58.6183C104.863 59.7978 105.64 60.7929 106.742 61.2201C107.805 61.6327 109.465 61.6132 110.213 60.6279C109.591 58.7202 108.931 56.8756 108.227 55.099C108.067 55.0845 107.902 55.0796 107.737 55.0845C105.824 55.1913 104.611 56.8222 104.761 58.6134V58.6183Z" fill="#FFAE00"/>
<path d="M28.3917 89.704C28.945 88.8545 29.0081 87.6264 28.9062 86.6459C28.746 85.0732 27.3383 84.1752 25.8335 84.2577C25.5908 84.2722 25.3578 84.3111 25.1394 84.3693C25.7316 86.4614 26.3675 88.5293 27.0374 90.5535C27.5907 90.4321 28.0859 90.17 28.3917 89.6991V89.704Z" fill="#FFAE00"/>
</g>
<defs>
<clipPath id="clip0_157_177">
<rect width="133.391" height="133.391" fill="white"/>
</clipPath>
</defs>
</svg>
