<svg width="134" height="134" viewBox="0 0 134 134" fill="none" xmlns="http://www.w3.org/2000/svg">
<g clip-path="url(#clip0_157_180)">
<path d="M66.6955 133.391C103.53 133.391 133.391 103.53 133.391 66.6955C133.391 29.8606 103.53 0 66.6955 0C29.8606 0 0 29.8606 0 66.6955C0 103.53 29.8606 133.391 66.6955 133.391Z" fill="white"/>
<mask id="mask0_157_180" style="mask-type:luminance" maskUnits="userSpaceOnUse" x="0" y="0" width="134" height="134">
<path d="M66.6955 133.391C103.53 133.391 133.391 103.53 133.391 66.6955C133.391 29.8606 103.53 0 66.6955 0C29.8606 0 0 29.8606 0 66.6955C0 103.53 29.8606 133.391 66.6955 133.391Z" fill="white"/>
</mask>
<g mask="url(#mask0_157_180)">
<path d="M19.1883 88.6555L11.3732 79.7919C9.25679 77.6804 8.53352 76.661 8.95583 76.2872C9.51891 75.7921 9.28106 75.9572 13.6692 79.2531C13.6692 79.2531 7.4462 74.4961 9.60628 74.4669C9.9849 74.4621 11.0431 75.0786 12.1741 75.8212C10.6354 74.5106 10.2082 73.632 10.4994 73.2097C10.9994 72.4816 14.8099 75.1223 16.5574 76.394C15.1254 75.3261 12.3974 73.2534 11.912 72.603C11.2518 71.7147 12.5867 71.7875 13.674 72.1564C14.8924 72.5738 21.6299 76.0106 23.6298 76.9037C25.0035 77.5153 25.4841 76.2727 25.4841 76.2727C26.2171 73.1855 28.4402 71.1759 29.2994 70.9137C30.1586 70.6516 30.8042 71.7438 30.1974 72.5253C29.7072 73.1612 29.212 74.4621 28.882 75.4572C28.6101 76.2775 28.4694 77.1319 28.4839 77.9862C28.4985 78.9813 28.5519 79.8259 28.6198 80.5443L35.7602 90.3447L23.8143 97.2716L19.1932 88.6555H19.1883Z" fill="#BF8C79"/>
<path d="M16.3777 80.6122C16.2951 80.7239 14.9069 79.7676 13.2759 78.4813C11.6449 77.1901 10.3925 76.0591 10.4848 75.9571C10.577 75.8552 11.9653 76.8066 13.5865 78.0881C15.2078 79.3696 16.4602 80.5006 16.3777 80.6122Z" fill="#A16854"/>
<path d="M17.897 79.0541C17.8194 79.1657 16.2806 78.2337 14.4652 76.9668C12.6497 75.6999 11.242 74.5834 11.3197 74.4718C11.3974 74.3601 12.9361 75.2921 14.7516 76.559C16.567 77.826 17.9747 78.9424 17.897 79.0541Z" fill="#A16854"/>
<path d="M19.0039 77.3988C18.9262 77.5153 17.4554 76.6513 15.7225 75.4766C13.9896 74.3019 12.645 73.2583 12.7227 73.1418C12.8004 73.0253 14.2663 73.8893 16.0041 75.064C17.737 76.2387 19.0816 77.2823 19.0039 77.3988Z" fill="#A16854"/>
<path d="M29.2799 81.8937L57.7542 118.003L51.2351 133.187C51.2351 133.187 43.4248 131.459 41.056 128.168C38.6872 124.877 19.1882 88.6555 19.1882 88.6555L29.2799 81.8937Z" fill="#BF8C79"/>
<path d="M101.567 31.3672C103.616 33.1439 103.611 36.2748 103.373 38.9736C103.135 41.6725 102.956 44.75 104.829 46.7159C106.373 48.3324 109.169 49.0411 109.528 51.2497C109.698 52.2788 109.154 53.3855 108.242 53.8855C107.329 54.3854 106.106 54.2447 105.325 53.5505C105.926 55.2932 105.509 57.4727 103.999 58.526C102.49 59.5793 99.9607 58.9337 99.4899 57.1474C99.7763 58.327 98.9123 59.657 97.7181 59.8706C96.524 60.089 95.2474 59.1473 95.0969 57.9435" fill="#643F92"/>
<path d="M72.2243 49.5896C71.7146 50.9342 69.9962 51.672 68.6711 51.1186C67.341 50.5653 66.6615 48.8226 67.2634 47.512C67.7342 46.483 68.8458 45.7451 68.9526 44.619C69.0788 43.2598 67.6954 42.289 66.4624 41.6968C65.2295 41.1046 63.7878 40.3328 63.6568 38.9688C63.5257 37.6533 64.7052 36.634 65.6858 35.7554C66.6712 34.8768 67.642 33.5176 67.0304 32.3478C66.7197 31.7459 66.0741 31.4012 65.6566 30.8721C64.7344 29.6974 65.2149 27.8286 66.3945 26.9063C67.5692 25.984 69.205 25.8578 70.6758 26.12C72.1466 26.3821 73.53 26.9937 74.962 27.4209C79.6899 28.8286 84.9954 28.1296 89.1991 25.5569" fill="#643F92"/>
<path d="M80.9667 81.4278C86.2722 82.5005 91.4613 79.1172 92.6166 73.8262L99.621 41.7066C101.461 33.8914 96.4901 26.1006 88.6313 24.4793L87.8984 24.3725C80.4958 23.2901 73.5059 28.0665 71.8312 35.3574C70.2731 42.1386 68.6372 49.6479 68.147 53.337C67.1228 60.9725 74.5738 63.2734 74.5738 63.2734L73.2389 69.7051C72.1225 75.0834 75.5932 80.3453 80.9764 81.4375L80.9667 81.4278Z" fill="#BF8C79"/>
<path d="M73.1999 40.3862C73.0931 40.959 73.4912 41.5172 74.0882 41.6386C74.6804 41.7599 75.2484 41.391 75.3552 40.8231C75.462 40.2503 75.0639 39.6921 74.4669 39.5707C73.8698 39.4494 73.3067 39.8183 73.1999 40.3862Z" fill="#643F92"/>
<path d="M72.9183 39.3231C73.03 39.4833 73.9474 38.9931 75.1172 39.1678C76.2871 39.3231 77.0589 40.0561 77.2094 39.9299C77.2822 39.8765 77.1802 39.5998 76.8453 39.2698C76.5152 38.9445 75.9279 38.5902 75.1949 38.4834C74.4668 38.3814 73.8115 38.5611 73.4183 38.7843C73.0154 39.0076 72.8601 39.2455 72.9135 39.3183L72.9183 39.3231Z" fill="#643F92"/>
<path d="M84.646 42.2842C84.5392 42.8569 84.9372 43.4152 85.5343 43.5365C86.1265 43.6579 86.6944 43.2938 86.8012 42.721C86.908 42.1482 86.51 41.59 85.9129 41.4687C85.3159 41.3473 84.7528 41.7162 84.646 42.2842Z" fill="#643F92"/>
<path d="M84.3984 41.226C84.5149 41.3862 85.4274 40.9008 86.5973 41.0755C87.7671 41.2309 88.5389 41.959 88.6894 41.8376C88.7622 41.7842 88.6603 41.5075 88.3253 41.1775C87.9953 40.8522 87.4079 40.4979 86.6749 40.3911C85.9468 40.2892 85.2915 40.4688 84.8983 40.6921C84.5003 40.9153 84.3401 41.1532 84.3935 41.226H84.3984Z" fill="#643F92"/>
<path d="M78.8744 49.2886C78.8889 49.2207 78.1802 48.9925 77.0201 48.6673C76.724 48.5945 76.4522 48.4926 76.4327 48.279C76.3939 48.0508 76.5687 47.7499 76.7628 47.4198C77.1511 46.7354 77.554 46.0218 77.9812 45.2743C79.685 42.2113 80.9616 39.6775 80.8403 39.6095C80.7141 39.5416 79.2336 41.9686 77.5346 45.0316C77.122 45.7888 76.7288 46.5072 76.3502 47.1965C76.1852 47.5218 75.9376 47.8761 76.025 48.3469C76.0735 48.5799 76.2677 48.779 76.4522 48.8566C76.6366 48.944 76.8017 48.9731 76.9473 49.0023C78.1268 49.2401 78.8598 49.3517 78.8744 49.2886Z" fill="#643F92"/>
<path d="M84.7673 36.5952C84.8353 36.9301 86.0294 36.9495 87.3788 37.3184C88.738 37.6582 89.7865 38.2213 90.0098 37.964C90.1117 37.8378 89.9612 37.5126 89.5583 37.1388C89.1603 36.7651 88.4953 36.3719 87.6847 36.1583C86.874 35.9496 86.0974 35.969 85.5683 36.1001C85.0343 36.2311 84.7431 36.4447 84.7722 36.6L84.7673 36.5952Z" fill="#643F92"/>
<path d="M73.8456 35.9981C74.0107 36.2942 74.8601 36.134 75.8309 36.2651C76.8066 36.3622 77.5978 36.7068 77.826 36.4544C77.9279 36.333 77.8405 36.0467 77.5153 35.7408C77.1998 35.4399 76.6367 35.1486 75.9669 35.071C75.297 34.9933 74.6854 35.1486 74.3068 35.3719C73.9233 35.5952 73.7728 35.8525 73.8408 35.9981H73.8456Z" fill="#643F92"/>
<path d="M92.5679 32.1391C92.5679 32.1391 92.5921 32.1633 92.6067 32.1779C93.6795 33.3138 94.2814 34.8185 94.2668 36.3815C94.2668 36.4349 94.2668 36.4883 94.2668 36.5369C94.2474 38.7552 93.8688 40.959 93.8688 43.1773C93.8688 45.3956 94.3008 47.711 95.6842 49.444C96.2521 50.1575 97.3589 50.7497 98.0093 50.109C98.2617 49.8614 98.3491 49.4974 98.4268 49.1527C99.6015 43.9637 101.718 39.5173 102.509 34.0273C102.728 32.5322 102.228 31.0275 101.14 29.979C100.111 28.9887 98.8345 27.9257 97.4705 28.3431C96.1017 28.7606 94.1018 30.911 92.9611 31.775" fill="#643F92"/>
<path d="M96.5433 44.7792C96.6792 44.7404 102.004 43.9977 101.077 49.1819C100.15 54.3661 95.1308 52.3662 95.1502 52.2157C95.1696 52.0652 96.5433 44.7792 96.5433 44.7792Z" fill="#BF8C79"/>
<path d="M97.087 50.5313C97.1112 50.5167 97.1646 50.609 97.3054 50.706C97.4413 50.7983 97.6889 50.8953 97.9801 50.8419C98.5626 50.74 99.1791 49.9536 99.3733 49.0217C99.4703 48.5508 99.4509 48.0848 99.3538 47.6819C99.2616 47.2742 99.0675 46.9635 98.8005 46.8664C98.5384 46.7548 98.3102 46.8858 98.2228 47.0169C98.1258 47.148 98.1403 47.2596 98.1112 47.2645C98.0966 47.2742 98.0141 47.1577 98.0966 46.949C98.1355 46.8519 98.218 46.7402 98.3588 46.6626C98.4995 46.5849 98.6937 46.5655 98.883 46.6189C99.2762 46.716 99.5723 47.1528 99.6839 47.5946C99.815 48.0411 99.849 48.5702 99.7373 49.0945C99.5189 50.1332 98.8053 51.0167 98.019 51.0992C97.6355 51.1283 97.354 50.9633 97.218 50.8128C97.0821 50.6575 97.0724 50.5361 97.0918 50.5313H97.087Z" fill="#A16854"/>
<path d="M97.5287 29.1732C99.116 27.2753 96.0385 23.7706 93.5872 22.5813C91.1358 21.3921 87.5632 22.1493 84.8789 22.625C83.1848 22.926 81.4664 23.4357 79.7772 23.1153C78.6462 22.9017 77.6171 22.3289 76.5978 21.7901C75.5784 21.2513 74.5105 20.7319 73.3601 20.6445C72.2096 20.5572 70.9524 20.9892 70.3651 21.9843C69.7777 22.9745 70.1855 24.5133 71.2922 24.8385C69.967 23.8337 67.7293 24.5715 67.2536 26.1637C66.7827 27.7558 68.2535 29.5955 69.9136 29.479C69.2535 28.8092 67.9817 29.5713 67.938 30.5081C67.8943 31.4449 68.6322 32.241 69.4331 32.741C71.467 34.0128 74.0445 34.0807 76.4036 33.6536C78.7627 33.2264 81.0199 32.3527 83.3692 31.8673C85.7186 31.3818 89.665 30.4693 91.7863 31.5857C93.3493 32.4061 94.2036 34.5613 95.1987 34.2603C96.1598 33.9691 96.8685 33.1099 97.1889 32.1585C97.5141 31.2071 97.519 30.1829 97.519 29.1781" fill="#643F92"/>
<path d="M76.5349 53.172C76.6222 53.6768 76.7096 54.1913 76.9378 54.6476C77.1659 55.1088 77.5494 55.5165 78.0445 55.6427C78.5736 55.7786 79.1512 55.5699 79.5444 55.1913C79.9327 54.8078 80.1512 54.2787 80.2386 53.7399C80.3162 53.2545 80.2191 52.6283 79.7483 52.473C79.5541 52.4099 79.3405 52.4438 79.1367 52.4778C78.2241 52.6429 77.3115 52.8079 76.4038 52.9729" fill="#A16854"/>
<path d="M77.0153 55.2446C77.0542 55.1718 77.5202 55.565 78.3745 55.5019C78.7871 55.4728 79.2822 55.3077 79.6511 54.9194C80.0152 54.5359 80.2579 53.9389 80.1948 53.3272C80.1851 53.1768 80.1414 53.0263 80.0977 52.8904C80.0346 52.7593 80.0492 52.769 79.9375 52.7496C79.8307 52.7448 79.6414 52.769 79.4958 52.7787C79.3405 52.7884 79.19 52.803 79.0395 52.8127C78.4473 52.8564 77.9134 52.8904 77.4619 52.9098C76.5639 52.9535 76.0057 52.9486 75.996 52.8855C75.9863 52.8224 76.5396 52.7108 77.4279 52.5894C77.8745 52.5263 78.4036 52.4584 78.9958 52.3904C79.1463 52.3758 79.2968 52.3564 79.4521 52.3419C79.6123 52.3273 79.7434 52.2982 79.9569 52.303C80.0637 52.303 80.1996 52.337 80.3161 52.4292C80.4278 52.5215 80.4812 52.638 80.52 52.7302C80.5831 52.9098 80.6317 53.0942 80.6462 53.2836C80.719 54.0457 80.4132 54.7641 79.9424 55.2204C79.4618 55.6863 78.8502 55.8368 78.3745 55.8271C77.8891 55.8223 77.5202 55.6669 77.2969 55.5262C77.0736 55.3854 76.9862 55.264 77.0008 55.2446H77.0153Z" fill="#643F92"/>
<path d="M74.5688 63.2685C74.5688 63.2685 79.5443 65.1567 84.3887 63.783C84.3887 63.783 80.7335 66.846 74.0688 65.6713L74.5688 63.2685Z" fill="#A16854"/>
<path d="M82.1607 134.046C82.1607 134.046 81.9034 133.872 81.4763 133.527C81.2627 133.352 81.0005 133.139 80.6802 132.915C80.3647 132.687 80.0152 132.41 79.5977 132.148C79.19 131.877 78.7385 131.58 78.2337 131.299C77.7434 130.993 77.1852 130.721 76.6124 130.425C75.4426 129.862 74.1174 129.323 72.6855 128.886C71.2486 128.464 69.8409 128.187 68.5546 128.018C67.909 127.95 67.2974 127.872 66.7197 127.857C66.1421 127.814 65.6033 127.818 65.113 127.818C64.6228 127.809 64.1762 127.848 63.7879 127.862C63.3947 127.877 63.0598 127.906 62.7879 127.94C62.2394 127.993 61.9336 128.017 61.9336 127.998C61.9336 127.979 62.2297 127.925 62.7782 127.838C63.05 127.789 63.385 127.746 63.7782 127.717C64.1713 127.687 64.6179 127.634 65.113 127.634C65.6082 127.619 66.1518 127.605 66.7343 127.639C67.3168 127.644 67.9381 127.717 68.5886 127.775C69.8895 127.935 71.3117 128.207 72.7631 128.634C74.2096 129.076 75.5494 129.629 76.7241 130.207C77.3017 130.513 77.8599 130.794 78.3502 131.11C78.855 131.401 79.3016 131.711 79.7094 131.993C80.122 132.265 80.4666 132.556 80.7773 132.794C81.0928 133.032 81.3452 133.255 81.5491 133.444C81.9617 133.818 82.1801 134.027 82.1655 134.041L82.1607 134.046Z" fill="#FAFAFA"/>
<path d="M53.1429 108.693L57.1961 91.1505C58.7445 84.5538 60.5794 78.2143 63.6666 77.4668V79.5104L62.3463 129.624C62.3463 129.624 54.0943 139.022 43.5706 133.799C40.2844 132.168 34.2847 120.688 34.2847 120.688C34.2847 120.688 20.3485 95.7813 20.9262 94.6503C21.5038 93.5193 30.0325 82.5296 30.9062 81.9859L53.1478 108.693H53.1429Z" fill="#FFAE00"/>
<path d="M94.8008 73.0835C102.849 74.6271 111.912 79.321 116.076 91.3398C117.601 95.7328 128.678 128.119 128.678 128.119L109.781 127.726L106.703 121.047L108.203 131.881L109.485 147.337H61.7734L62.1084 124.857L62.5647 78.5492C62.5647 78.5492 63.1035 77.8454 71.3263 73.3068C76.4377 70.4865 94.7911 73.0786 94.7911 73.0786L94.8008 73.0835Z" fill="#FFAE00"/>
<path d="M71.3359 77.758L71.4961 76.7435L73.0203 66.9916C73.1125 66.4042 73.6416 65.9868 74.2387 66.0353L93.0241 67.6032C94.2037 67.7003 95.0871 68.7342 94.9997 69.9138L94.5823 75.5834L88.7185 83.2383L80.2724 84.5538" fill="#FFAE00"/>
<path d="M61.9045 96.1017C61.9773 96.1017 62.0307 103.742 62.0307 113.169C62.0307 122.595 61.9725 130.236 61.9045 130.236C61.8366 130.236 61.7783 122.595 61.7783 113.169C61.7783 103.742 61.8366 96.1017 61.9045 96.1017Z" fill="white"/>
<path d="M110.188 128.726C110.188 128.726 110.164 128.692 110.125 128.615C110.086 128.527 110.033 128.416 109.97 128.28C109.829 127.964 109.64 127.532 109.397 126.984C108.902 125.833 108.198 124.197 107.334 122.188C105.611 118.115 103.242 112.518 100.621 106.334C99.32 103.232 98.0822 100.281 96.956 97.5919C96.359 96.2667 95.9609 94.9027 95.7425 93.6261C95.5144 92.3446 95.427 91.1311 95.4173 90.0244C95.393 87.8109 95.7231 86.0197 96.1697 84.8644C96.223 84.7188 96.2716 84.5829 96.325 84.4567C96.3832 84.3353 96.4415 84.2188 96.4949 84.112C96.5968 83.8985 96.6939 83.7189 96.791 83.5878C96.8784 83.4664 96.9463 83.3645 96.9997 83.282C97.0483 83.214 97.0725 83.1801 97.0774 83.1849C97.1114 83.2043 96.6599 83.7383 96.2619 84.9033C95.8541 86.0585 95.5532 87.8303 95.5969 90.0244C95.6551 92.2038 95.9561 94.8639 97.1745 97.5045C98.3103 100.189 99.553 103.14 100.859 106.237C103.451 112.431 105.795 118.037 107.499 122.12C108.329 124.144 109.009 125.785 109.484 126.945C109.708 127.503 109.883 127.94 110.014 128.26C110.067 128.401 110.111 128.513 110.145 128.605C110.174 128.682 110.183 128.726 110.183 128.726H110.188Z" fill="white"/>
<path d="M94.626 73.0932C94.626 73.0932 94.5484 73.1223 94.3979 73.1515C94.2183 73.1855 93.9998 73.2243 93.7426 73.268C93.1698 73.3602 92.3446 73.4864 91.3155 73.6272C89.2622 73.9039 86.4177 74.2291 83.2674 74.4572C81.6947 74.5737 80.185 74.6757 78.8065 74.6174C77.4328 74.5689 76.195 74.3407 75.2047 74.0009C74.2145 73.6709 73.4767 73.234 73.0058 72.8894C72.768 72.7195 72.5981 72.569 72.4864 72.467C72.3748 72.3603 72.3214 72.302 72.3262 72.2972C72.3408 72.2777 72.5835 72.4913 73.0641 72.8068C73.5446 73.1175 74.2824 73.5204 75.263 73.8262C76.2386 74.1369 77.457 74.3407 78.8162 74.3796C80.1753 74.4232 81.6753 74.3165 83.248 74.2C86.3934 73.967 89.238 73.6757 91.2912 73.4476C92.2863 73.3359 93.1115 73.2389 93.728 73.1709C94.3008 73.1078 94.6212 73.0787 94.626 73.0932Z" fill="white"/>
<path d="M128.44 131.046C130.003 139.172 123.823 146.735 115.547 146.817L78.1511 146.4L79.1317 134.289L111.193 129.508" fill="#BF8C79"/>
<path d="M81.4471 134.847C81.2772 134.905 79.1171 133.935 77.1803 133.041C75.1271 132.09 72.8748 131.653 70.6127 131.77L61.7006 132.221C61.7006 132.221 62.2491 133.692 63.1957 134.216C64.1422 134.74 69.6807 134.852 69.6807 134.852L69.3992 135.143C68.2294 136.347 66.6372 137.041 64.9625 137.085L64.1131 137.104C63.482 137.056 62.8559 136.935 62.254 136.74L60.055 135.852C59.39 135.551 58.6862 135.6 58.3998 136.269C58.1377 136.876 58.3318 137.711 60.1473 138.624C61.1618 139.133 64.9237 140.434 64.9237 140.434C64.9237 140.434 64.9771 141.473 65.1421 142.022C65.3072 142.57 66.7828 143.119 66.7828 143.119C66.7828 143.119 67.7148 145.036 68.0983 145.473C68.2682 145.667 69.6079 146.085 71.035 146.487C73.3359 147.133 75.7727 147.118 78.0589 146.434L81.4568 145.419V135.071" fill="#BF8C79"/>
<path d="M82.3547 133.211L81.447 146.905L116.673 146.919C119.066 146.919 121.411 146.269 123.459 145.041C128.216 142.182 130.673 136.653 129.6 131.207C129.236 128.983 128.391 126.382 127.328 123.61L109.62 126.522L110.188 128.726L82.3547 133.211Z" fill="#FFAE00"/>
<path d="M118.343 127.585C118.343 127.585 118.222 127.624 117.989 127.668C117.727 127.717 117.387 127.775 116.96 127.852C116.038 128.008 114.751 128.221 113.169 128.483C109.941 128.998 105.524 129.702 100.65 130.474C95.7668 131.221 91.3496 131.896 88.1167 132.391C86.5343 132.619 85.2382 132.808 84.3159 132.944C83.8839 133.003 83.5441 133.046 83.282 133.08C83.0442 133.109 82.918 133.119 82.918 133.109C82.918 133.1 83.0393 133.071 83.2723 133.027C83.5344 132.978 83.8742 132.92 84.3014 132.842C85.2237 132.687 86.51 132.474 88.0924 132.211C91.3204 131.697 95.7328 130.993 100.611 130.221C105.49 129.474 109.912 128.799 113.14 128.304C114.722 128.076 116.018 127.886 116.94 127.75C117.372 127.692 117.717 127.649 117.974 127.615C118.212 127.585 118.338 127.576 118.338 127.585H118.343Z" fill="#643F92"/>
</g>
</g>
<defs>
<clipPath id="clip0_157_180">
<rect width="133.391" height="133.391" fill="white"/>
</clipPath>
</defs>
</svg>
