<?xml version="1.0" encoding="UTF-8"?><svg id="Calque_2" xmlns="http://www.w3.org/2000/svg" xmlns:xlink="http://www.w3.org/1999/xlink" viewBox="0 0 623.43 555.67"><defs><clipPath id="clippath"><rect x="249.3" y="49.39" width="60.37" height="17.72" rx="8.86" ry="8.86" transform="translate(468.38 272.31) rotate(-143.2)" fill="none"/></clipPath></defs><path d="M568.81,542.87s-2.32,27.29-6.97,46.46c-4.65,19.16-2.9,116.02-2.9,116.02l7.85,37.17c4.29,20.3,6.13,41.05,5.47,61.79l-3.04,96.62h-43.08l-37.44-177.09-45.26-164.3,62.68-49.77,62.68,33.1Z" fill="#1e2e34"/><path d="M443.44,545.29l-23.28,7.19-10.95,110.87-6.71,55.23,16.35,180.04h47.53l6.93-113.48c.22-3.61.24-7.22.05-10.83l-3.22-61.43,17.01-71.73,1.3-98.47-45.01,2.6Z" fill="#1e2e34"/><path d="M391.83,254.5c-.4-1.87-2.29-2.98-3.86-4.11-5.61-4.06-8.63-11.31-7.54-18.09,1.09-6.78,6.25-12.77,12.85-14.93,1.63-.53,3.39-.88,4.73-1.94,3.33-2.64,2.26-7.82,3.53-11.84,2.68-8.53,15.02-10.2,19.44-18,2.7-4.75,1.8-10.58,1.56-16.02-.24-5.44.8-11.78,5.59-14.5,2.58-1.46,5.79-1.56,8.31-3.12,5.19-3.22,4.97-10.55,6.89-16.29,3.02-9.04,13.32-15.1,22.82-13.42,0,0-3.78-8.19,6.23-12.38,12.09-5.06,12.86,3.5,18.43-1.83,5.92-5.67,16.05-6.38,22.71-1.6,2.08,1.49,3.83,3.43,6.1,4.61,2.77,1.44,6.02,1.59,9.08,2.26,11.67,2.54,20.76,13.74,20.72,25.52l-76.37,131.36c-2.65,12.49,5.09,18.09-5.74,25.11-2.27,1.47-18.54,5.81-21.21,6.27-3.34.57-11.37.86-14.47-.49-6.73-2.94-16.88-7.39-19.57-14.14-7.24,3.19-16.5,1.09-21.58-4.9-5.08-5.99-5.53-15.34-1.06-21.8,1.22-1.76,2.85-3.65,2.41-5.74Z" fill="#643f92"/><path d="M548.02,158.5l1.06-9-53.94-15.41c-16.77-3.34-36.71,11.68-39.42,28.34-3,18.5-5.93,41.21-5.04,55.31,1.78,28.35,23.16,33.92,23.16,33.92l-4.94,48.21.85,12.4,53.38-47.16,24.9-106.6Z" fill="#ffc4a3"/><path d="M461.83,185.87c-.25,1.88,1.16,3.65,3.15,3.94,1.99.29,3.81-1,4.06-2.88.25-1.89-1.16-3.65-3.15-3.94-1.99-.29-3.81,1-4.07,2.88Z" fill="#643f92"/><path d="M460.56,174.85c.4.51,3.35-1.24,7.26-.87,3.91.32,6.59,2.57,7.06,2.14.23-.19-.15-1.07-1.31-2.09-1.14-1.01-3.16-2.07-5.59-2.29-2.44-.21-4.57.48-5.84,1.27-1.29.8-1.78,1.6-1.58,1.83Z" fill="#643f92"/><path d="M496.19,190.66c-.25,1.88,1.16,3.65,3.15,3.94,1.99.29,3.81-1,4.06-2.88.25-1.89-1.16-3.65-3.15-3.94-1.99-.29-3.81,1-4.06,2.88Z" fill="#643f92"/><path d="M498.93,179.15c.41.51,3.36-1.24,7.26-.87,3.91.32,6.59,2.57,7.06,2.14.23-.19-.14-1.07-1.31-2.09-1.14-1.01-3.16-2.07-5.59-2.29-2.44-.21-4.57.48-5.84,1.27-1.29.8-1.78,1.6-1.58,1.83Z" fill="#643f92"/><path d="M481.96,206.41c.04-.22-2.35-.86-6.24-1.72-.99-.19-1.92-.48-2.02-1.17-.17-.73.36-1.76.95-2.86,1.17-2.29,2.4-4.7,3.68-7.22,5.14-10.29,8.96-18.79,8.54-18.99-.42-.2-4.93,7.98-10.07,18.27-1.24,2.54-2.43,4.96-3.56,7.28-.49,1.08-1.26,2.29-.89,3.81.2.76.88,1.36,1.5,1.59.62.25,1.18.32,1.67.39,3.94.58,6.4.83,6.44.61Z" fill="#643f92"/><path d="M473.84,251.73s19.92,3.02,39.9-6.41c0,0-11.64,19.62-40.72,14.33l.82-7.92Z" fill="#ffa275"/><path d="M499.39,163.95c.28,1.08,4.24.95,8.77,1.92,4.56.88,8.13,2.55,8.83,1.67.32-.42-.23-1.47-1.63-2.62-1.38-1.15-3.66-2.33-6.38-2.89-2.73-.55-5.29-.36-7.03.16-1.75.51-2.68,1.26-2.56,1.77Z" fill="#643f92"/><path d="M463.09,163.83c.6.94,3.39.28,6.63.54,3.25.15,5.93,1.14,6.65.29.32-.42-.03-1.34-1.15-2.28-1.1-.94-3.01-1.79-5.24-1.94-2.23-.14-4.24.48-5.45,1.27-1.23.79-1.7,1.66-1.43,2.12Z" fill="#643f92"/><path d="M454.66,141.68c6.82-7.56,16.41-12.9,26.76-14.9l45.66,7.3,12.18,7.58c1.01-2.67,1.65-4.33,1.65-4.33,4.48-2.91,16.68-8.78,26.56,1.83,3.57,3.83,6.19,13.73,6.01,18.81-.07,1.92-.39,4.26,1.28,5.39.58.39,1.31.55,2,.72,11.56,2.87,19.21,15.34,16.06,26.14-.21.71-.46,1.44-.37,2.17.14,1.15,1.09,2.05,1.9,2.93,5.27,5.73,6.15,14.63,2.1,21.21-1.25,2.03-2.94,3.91-3.46,6.2-.93,4.1,2.1,7.91,4.42,11.48,6.95,10.71,7.75,25.88-1.55,34.98-2.26,2.21-5.13,4.15-6.09,7.07-.47,1.43-.42,2.95-.49,4.44-.34,7.55-5.06,15.83-13.05,17.09-4.43.7-9.7-.68-12.98,2.21-1.43,1.26-2.1,3.06-3.06,4.67-3.64,6.11-12.28,9.16-19.3,6.81-7.02-2.35-11.58-9.81-10.18-16.67-8.48-3.29-14.11-12.04-13.25-20.6,0,0,5.01-26.38,2.84-33.68-2.17-7.29,3.77-22.38,7.09-29.68,3.32-7.31.75-24.75.34-31.65-.07-1.21.29-3.28.92-5.86h0s0,0,0-.01c.41-1.66.93-3.52,1.53-5.52.28-1.87.4-3.78.46-5.53.23-6.5-6.52-11.45-13.22-9.65-1.62.43-3.31.65-4.99.63-5.44-.09-10.75-2.72-13.86-6.87-6.56,5.94-16.76,8.1-25.38,5.36-3.79,4.48-7.65,9.01-12.56,12.41-4.91,3.4-11.1,5.59-17.12,4.71.34-9.85,4.33-19.59,11.15-27.15Z" fill="#643f92"/><path d="M459.08,150.78c.08,0,0-1.02.24-2.84.25-1.81.9-4.47,2.71-7.28,1.78-2.78,4.83-5.71,9.16-7.04,4.25-1.35,9.67-1.15,14.25,1.52l.32.19.25-.28c1.81-1.97,4.03-3.72,6.52-5.11,5.55-3.03,11.86-3.99,17.26-3.04,5.45.89,9.87,3.52,12.96,6.24,3.12,2.76,4.96,5.63,6.05,7.66,1.07,2.06,1.45,3.3,1.54,3.27.03,0-.05-.32-.23-.91-.17-.6-.5-1.44-.98-2.51-1.01-2.11-2.8-5.1-5.93-7.98-3.11-2.85-7.62-5.63-13.26-6.6-5.59-1.03-12.12-.07-17.87,3.07-2.58,1.44-4.88,3.26-6.75,5.31l.58-.09c-4.86-2.81-10.54-2.97-14.97-1.5-4.52,1.45-7.66,4.58-9.42,7.48-1.8,2.95-2.37,5.7-2.52,7.55-.08.93-.07,1.66-.02,2.14.04.49.08.74.1.74Z" fill="#fff"/><path d="M590.07,194.38c.02-.22-4.34.01-10.96-1.89-6.53-1.85-15.38-6.32-21.82-14.52-.33-.43-.66-.86-.97-1.25l-.14-.17-.21-.02c-4.99-.4-9.5-2.4-12.89-5.01-3.43-2.6-5.85-5.71-7.35-8.55-3.06-5.75-2.72-9.99-2.99-9.93-.03,0-.04.25-.04.73.03.48-.02,1.19.13,2.09.2,1.82.84,4.43,2.32,7.39,1.46,2.96,3.89,6.2,7.4,8.92,3.47,2.73,8.13,4.85,13.35,5.26l-.35-.19c.31.41.65.84.99,1.28,3.28,4.16,7.23,7.43,11.17,9.8,3.92,2.41,7.86,3.87,11.21,4.78,3.37.89,6.18,1.21,8.12,1.3.97.07,1.73.02,2.24.02.51-.01.78-.03.78-.07Z" fill="#fff"/><path d="M583.59,273.98s-.51.53-1.68,1.21c-.59.34-1.36.67-2.32.92-.96.22-2.1.34-3.37.21-1.26-.14-2.66-.51-3.96-1.34-.66-.4-1.26-.93-1.82-1.55-.52-.65-1.01-1.36-1.33-2.2-.68-1.65-.84-3.63-.42-5.6.45-1.95,1.53-3.93,3.34-5.23l.5-.36h-.62c-3.14-.02-6.48-.95-9.52-2.77-3.01-1.87-5.76-4.52-7.87-7.79-.57-.79-1.01-1.67-1.51-2.53-.42-.9-.9-1.78-1.24-2.73-.78-1.86-1.32-3.85-1.68-5.9-.74-4.1-.74-8.44-.27-12.79.72-6.62,2.43-12.89,3.98-18.74l.04-.17-.14-.1c-6.7-4.69-11.64-10.8-14.76-16.88-1.64-3.01-2.74-6.07-3.65-8.93-.36-1.46-.83-2.84-1.04-4.21-.13-.68-.26-1.35-.38-2-.13-.65-.17-1.3-.25-1.93-.59-5.02-.34-9.08.04-11.83.14-1.38.42-2.42.53-3.13.06-.34.11-.61.14-.81.03-.18.04-.28.03-.28,0,0-.41,1.46-.87,4.2-.43,2.74-.73,6.83-.18,11.89.08.63.12,1.28.24,1.94.12.66.25,1.33.37,2.02.21,1.38.66,2.78,1.02,4.25.9,2.89,1.99,5.98,3.63,9.02,3.12,6.15,8.08,12.34,14.86,17.09l-.1-.27c-1.56,5.85-3.28,12.13-4.01,18.81-.48,4.39-.48,8.78.28,12.93.37,2.08.92,4.11,1.71,6,.35.97.84,1.86,1.27,2.77.51.87.96,1.76,1.54,2.57,2.16,3.31,4.96,6.01,8.04,7.91,3.11,1.86,6.54,2.79,9.75,2.79l-.12-.36c-1.9,1.38-3.01,3.45-3.46,5.47-.42,2.05-.24,4.09.48,5.8.33.87.86,1.61,1.4,2.27.58.63,1.21,1.18,1.9,1.58,1.35.85,2.8,1.2,4.09,1.33,1.3.12,2.46-.02,3.44-.26.97-.27,1.75-.62,2.33-.98.58-.36,1-.69,1.25-.94.26-.24.38-.38.38-.38Z" fill="#fff"/><path d="M427,290.14s-.09-.07-.27-.19c-.2-.13-.48-.31-.83-.53-.37-.22-.82-.52-1.32-.9-.51-.37-1.11-.79-1.73-1.35-2.52-2.1-5.95-5.66-8.45-11.14-1.24-2.73-2.21-5.92-2.61-9.45-.38-3.53-.12-7.4,1.04-11.27,1.14-3.86,3.13-7.73,5.98-11.14,2.8-3.44,6.55-6.35,10.89-8.32l.33-.15-.25-.25c-3.74-3.77-6.51-8.81-7.59-14.36-.38-1.78-.54-3.59-.55-5.37-.03-1.79.14-3.56.48-5.28.31-1.73.83-3.39,1.48-4.98.63-1.6,1.45-3.09,2.34-4.51,3.61-5.67,9.01-9.63,14.54-11.52l.24-.08-.11-.23c-2.81-5.89-2.98-12.22-1.64-17.31,1.34-5.15,4.17-9.05,6.91-11.66,2.77-2.65,5.47-4.09,7.33-4.93.94-.41,1.68-.7,2.18-.86.24-.08.42-.15.57-.2.13-.05.19-.07.19-.08,0,0-1.09.22-3,1.01-1.89.8-4.63,2.22-7.46,4.86-2.8,2.61-5.7,6.54-7.09,11.76-1.39,5.16-1.25,11.59,1.59,17.6l.13-.31c-5.62,1.9-11.13,5.91-14.81,11.68-.91,1.44-1.75,2.96-2.39,4.59-.66,1.62-1.2,3.31-1.52,5.07-.34,1.75-.52,3.56-.49,5.38.01,1.82.18,3.66.56,5.47,1.1,5.64,3.91,10.78,7.73,14.61l.07-.4c-4.41,2.01-8.21,4.98-11.05,8.48-2.88,3.47-4.89,7.39-6.03,11.31-1.16,3.92-1.41,7.86-1.01,11.43.42,3.58,1.43,6.79,2.7,9.54,2.57,5.52,6.07,9.07,8.63,11.14.63.54,1.24.95,1.77,1.32.51.38.97.66,1.35.87.36.21.64.37.85.49.19.11.29.16.3.15Z" fill="#fff"/><path d="M492.49,213.1c-3.64.54-7.22,1.52-10.63,2.92l-.03.09c.32,2.48.94,5.22,3.02,6.62,1.55,1.04,3.67,1.06,5.32.18,1.64-.88,2.73-2.31,3.1-4.14s-.26-3.93-.78-5.67Z" fill="#ffa275"/><path d="M487.02,223.23c-.02.06.29.29.97.41.67.11,1.73.04,2.82-.57,1.09-.57,2.23-1.72,2.74-3.31.54-1.57.51-3.43.05-5.21-.15-.49-.19-.79-.48-1.39-.12-.35-.84-.66-1.15-.53-.32.07-.44.12-.67.17-.78.22-1.54.44-2.3.65-1.31.4-2.59.79-3.87,1.17-2.19.7-3.53,1.22-3.48,1.38.04.16,1.46-.06,3.71-.55,1.3-.3,2.6-.61,3.94-.92.76-.19,1.53-.39,2.31-.58l.55-.14c.04.09.03-.24.05-.2.04,0-.2.19-.13.16.08.17.25.72.34,1.07.42,1.61.47,3.22.06,4.56-.38,1.34-1.23,2.32-2.12,2.91-1.82,1.22-3.33.7-3.35.9Z" fill="#643f92"/><path d="M554.82,289.68s-13.36-15.65-20.88-21.65c-7.52-6-9.76-13.3-9.76-13.3l-54.29,22.42-8.76,17.33-14.22,19.26-11.5,16.17c-7.98,11.23-12.74,24.43-13.74,38.17l-5.35,72.96-3.16,143.18s52.04-1.88,65.52-9.71c5.21-3.03,14.52-6.29,24-9.15,18.77-5.67,38.86-5.2,57.39,1.21l13.88,4.8s-7.21-68.31-11.91-88.37c-1.16-4.93-2.1-9.38-2.88-13.27-2.78-14.01-7.42-27.58-13.69-40.41h0l18.05-87.72s2.47-17.84-.7-30.18-8-21.77-8-21.77Z" fill="#ff8acd"/><path d="M518.04,275.79c-13.52,5.58-27.04,11.16-40.56,16.73-2.04-4.91-4.07-9.82-6.11-14.73-1.3,2.84-2.6,5.68-3.89,8.52" fill="#ff8acd"/><path d="M467.48,286.31c.07.03.51-.74,1.24-2.17.82-1.68,1.83-3.73,3.03-6.17h-.76c1.64,4.06,3.67,9.12,5.95,14.78l.22.54.55-.23c2.7-1.11,5.59-2.29,8.59-3.52,8.83-3.64,16.8-7.01,22.55-9.5,2.68-1.19,4.94-2.19,6.78-3.01,1.59-.74,2.45-1.18,2.42-1.26-.03-.08-.96.22-2.6.82-1.88.72-4.19,1.6-6.93,2.65-5.83,2.29-13.85,5.52-22.68,9.17-2.99,1.24-5.87,2.44-8.57,3.56l.77.32c-2.4-5.61-4.54-10.63-6.27-14.67l-.39-.9-.38.89c-1.06,2.51-1.96,4.61-2.69,6.33-.61,1.49-.9,2.33-.83,2.36Z" fill="#643f92"/><path d="M471.25,463.68c.02.08.95-.09,2.61-.48,1.66-.38,4.04-1.02,6.96-1.89,5.84-1.75,13.79-4.58,22.24-8.49,8.45-3.92,15.75-8.16,20.86-11.48,2.55-1.66,4.58-3.06,5.94-4.09,1.37-1.02,2.1-1.61,2.05-1.68-.05-.07-.87.39-2.32,1.29-1.67,1.02-3.72,2.27-6.13,3.75-5.2,3.12-12.52,7.21-20.91,11.11-8.39,3.88-16.25,6.83-21.99,8.78-2.69.89-4.96,1.64-6.83,2.26-1.62.52-2.5.85-2.48.94Z" fill="#643f92"/><path d="M392.34,319.33s-3.78-10.08-7.05-16.62c-3.27-6.55-6.55-17.38-6.55-17.38,0,0,3.53-9.32,1.26-12.34-2.27-3.02-3.73-2.52-3.73-2.52,0,0-1.28-4.28-5.2-3.53-3.92.76-2.66,10.01-2.66,10.01l-1.26,21.48,3.92,34.49,22.53,19.85,2.77-9.96c.55.25,3.73-3.84,4.11-10.53.31-5.56-.33-8.15-.33-8.15,0,0,.22-3.48.19-10.28-.02-3.93-.32-6.5-2.24-9.86-1.29-2.25-6-2.53-6,2s.25,13.35.25,13.35Z" fill="#ffc4a3"/><path d="M367.49,303.98c.35.07,1.48-4.29,3.33-9.5,1.84-5.22,3.7-9.32,3.38-9.48-.28-.16-2.67,3.76-4.53,9.07-1.89,5.3-2.5,9.85-2.18,9.9Z" fill="#ffa275"/><path d="M385.46,325.33s.37-.62.15-1.83c-.19-1.2-1.09-2.8-2.6-4.26-1.49-1.48-3.31-3.02-4.1-5.57-.8-2.53-1.83-5.42-2.14-8.41-.36-3.02.72-5.78,1.58-8.38.88-2.59,1.38-5.2.88-7.35-.49-2.16-1.82-3.54-2.86-4.11-1.08-.59-1.78-.51-1.78-.45-.02.11.63.2,1.52.85.87.63,1.95,1.96,2.27,3.88.34,1.93-.18,4.3-1.1,6.82-.89,2.49-2.12,5.53-1.73,8.86.35,3.27,1.4,6.08,2.3,8.7.49,1.3,1.2,2.54,2.07,3.46.85.93,1.74,1.65,2.48,2.34,1.52,1.33,2.42,2.7,2.73,3.75.34,1.05.2,1.7.31,1.72Z" fill="#ffa275"/><path d="M376.08,285.03c.32.05,1.08-3.19,1.04-7.28-.02-4.09-.83-7.32-1.15-7.26-.35.05-.09,3.29-.07,7.27.04,3.98-.17,7.22.18,7.27Z" fill="#ffa275"/><path d="M376.32,304.72c.24.25,1.53-.65,3.36-.9,1.82-.29,3.32.2,3.47-.11.2-.26-1.4-1.44-3.65-1.1-2.26.32-3.45,1.91-3.18,2.11Z" fill="#ffa275"/><path d="M461.12,294.49l-56.78,61.04-7.53-10.12-24.22-.13s3.26,54.62,13.44,74.2c10.18,19.58,30.27,21.57,30.27,21.57l44.81-146.57Z" fill="#ff8acd"/><path d="M415.8,451.26s.1-.59.16-1.7c.05-1.24.13-2.87.21-4.9.11-4.39.26-10.51.44-18.01.16-7.6.36-16.65.97-26.68.57-10.03,1.65-21.02,4.21-32.3,2.56-11.27,6.32-21.7,10.87-30.62,4.5-8.96,9.52-16.5,13.93-22.67,4.43-6.17,8.21-11.03,10.72-14.47,1.27-1.7,2.21-3.07,2.86-3.98.64-.92.96-1.41.93-1.44-.03-.02-.42.42-1.12,1.29-.77.97-1.78,2.25-3.04,3.84-2.63,3.34-6.51,8.12-11.04,14.25-4.52,6.13-9.65,13.67-14.24,22.67-4.64,8.97-8.48,19.49-11.06,30.86-2.59,11.36-3.64,22.47-4.15,32.51-.55,10.06-.66,19.12-.71,26.73-.02,7.5-.04,13.62-.06,18.02,0,2.03.01,3.66.02,4.9.02,1.12.04,1.71.09,1.71Z" fill="#643f92"/><path d="M325.94,328.36l15.91,2.85,23.99,2.61s5.46-.47,7.84,0c2.37.48,16.15,9.74,16.15,9.74l6.89,7.84,40.8,22.1-21.7,31.58-28.36-25.89s-30.16-6.89-31.82-7.6c-1.66-.71-10.21-9.74-10.21-9.74l-4.04-3.09-8.16-7.96c-1.86-1.81-2.56-4.51-1.81-7l-2.34-1.85c-2.3-1.83-3.01-5.02-1.7-7.65-4.04-2.85-1.43-5.94-1.43-5.94Z" fill="#ffc4a3"/><path d="M325.94,328.36s-.51.41-.84,1.57c-.14.57-.18,1.37.17,2.2.33.84,1.05,1.64,1.98,2.32l-.06-.23c-.69,1.32-1.01,3.2-.33,5.09.32.94.91,1.85,1.74,2.6.83.71,1.7,1.38,2.61,2.13l-.1-.32c-.4,1.3-.45,2.8,0,4.26.39,1.47,1.48,2.81,2.64,3.85,2.27,2.23,4.72,4.65,7.34,7.23l.02.02.02.02c1.24.96,2.61,2.02,4.02,3.11l-.05-.05c2.26,2.38,4.65,4.88,7.29,7.39.66.63,1.34,1.25,2.08,1.85.35.26.84.67,1.34.77.49.17.92.26,1.39.4,1.84.46,3.71.93,5.61,1.41,7.65,1.8,15.86,3.74,24.51,5.77l-.25-.13c8.75,8.01,18.33,16.77,28.33,25.92l.51.47.4-.57c3.12-4.53,6.41-9.33,9.75-14.18,4.06-5.91,8.05-11.73,11.95-17.39l.38-.55-.59-.32c-14.6-7.88-28.36-15.31-40.83-22.04l.15.12c-2.38-2.69-4.67-5.29-6.91-7.82l-.05-.05-.05-.04c-4.12-2.73-8.07-5.29-11.93-7.56-.96-.57-1.94-1.1-2.92-1.6-.49-.23-1.03-.49-1.63-.61-.56-.1-1.1-.13-1.64-.16-2.15-.08-4.19.05-6.19.21h.08c-6.21-.64-11.83-1.22-16.76-1.73-2.46-.25-4.75-.48-6.86-.7-2.1-.31-4.02-.67-5.74-.94-3.37-.55-6-.98-7.88-1.29-.84-.13-1.51-.23-2.03-.31-.45-.06-.68-.09-.67-.07,0,.02.25.08.71.18.53.11,1.2.25,2.05.42,1.87.36,4.49.87,7.83,1.52,1.7.31,3.57.71,5.65,1.04,2.11.24,4.39.51,6.85.8,4.93.56,10.55,1.21,16.76,1.92h.04s.05,0,.05,0c1.96-.14,4.01-.24,6.07-.15.51.03,1.03.07,1.52.16.45.1.9.31,1.38.54.95.49,1.9,1.02,2.85,1.59,3.81,2.28,7.75,4.86,11.83,7.6l-.1-.09c2.22,2.54,4.5,5.15,6.87,7.85l.06.07.09.05c12.45,6.77,26.19,14.23,40.77,22.15l-.21-.87c-3.89,5.66-7.89,11.47-11.96,17.39-3.34,4.86-6.63,9.65-9.75,14.19l.91-.1c-10.02-9.13-19.61-17.87-28.39-25.86l-.11-.1-.15-.03c-8.65-2-16.87-3.89-24.52-5.66-1.9-.47-3.77-.92-5.6-1.37-.44-.12-.93-.24-1.32-.37-.44-.09-.67-.34-1.06-.61-.7-.56-1.37-1.17-2.03-1.78-2.62-2.46-5.04-4.94-7.31-7.3l-.03-.03-.03-.02c-1.42-1.08-2.8-2.12-4.05-3.07l.04.03c-2.64-2.55-5.12-4.94-7.41-7.15-2.51-1.95-3.32-5.01-2.56-7.43l.06-.19-.16-.13c-.91-.72-1.79-1.41-2.62-2.06-.77-.67-1.32-1.5-1.64-2.37-.66-1.73-.4-3.49.21-4.75l.07-.15-.13-.09c-.91-.63-1.6-1.36-1.94-2.13-.35-.76-.35-1.49-.24-2.05.25-1.12.7-1.59.65-1.61Z" fill="#ffa275"/><path d="M365.77,334.01c-.05.28,2.8,1.41,6.14,3.35,3.36,1.88,6.11,3.43,6.31,3.14.18-.27-2.28-2.28-5.71-4.2-3.41-1.98-6.67-2.67-6.73-2.28Z" fill="#ffa275"/><path d="M354.38,344.08c-9.61-3.1-19.02-6.84-28.14-11.17" fill="#ffc4a3"/><path d="M326.25,332.91c-.14.29,5.86,3.52,13.66,6.61,7.8,3.11,14.38,4.87,14.48,4.56.11-.33-6.27-2.61-14.03-5.69-7.76-3.07-13.96-5.79-14.11-5.48Z" fill="#ffa275"/><path d="M351.54,353.88c-7.33-2.58-14.37-6.02-20.92-10.21" fill="#ffc4a3"/><path d="M330.61,343.68c-.18.26,4.06,3.42,9.9,6.25,5.83,2.86,10.93,4.26,11.02,3.95.11-.34-4.74-2.23-10.49-5.05-5.76-2.8-10.24-5.45-10.43-5.16Z" fill="#ffa275"/><path d="M350.12,362.09c-3.94-1.39-7.63-3.46-10.87-6.1" fill="#ffc4a3"/><path d="M339.25,355.99c-.22.24,1.79,2.33,4.87,4.05,3.08,1.74,5.9,2.36,6,2.05.11-.33-2.44-1.44-5.4-3.12-2.97-1.65-5.24-3.25-5.47-2.99Z" fill="#ffa275"/><path d="M361.03,338.51c-1.81.44-3.42,1.62-4.37,3.21-.96,1.59-1.24,3.57-.78,5.37" fill="#ffc4a3"/><path d="M355.88,347.09c.34-.06-.19-2.59,1.3-5.05,1.47-2.47,3.96-3.2,3.85-3.53-.03-.15-.71-.2-1.72.18-1,.37-2.3,1.26-3.18,2.71-.87,1.45-1.04,3.02-.9,4.08.13,1.07.5,1.65.65,1.61Z" fill="#ffa275"/><path d="M356.19,349.79c-1.29,1.64-1.77,3.89-1.27,5.92" fill="#ffc4a3"/><path d="M354.92,355.71c.34-.1.21-1.44.56-2.98.31-1.55.97-2.72.71-2.94-.23-.24-1.5.8-1.9,2.69-.41,1.88.33,3.35.63,3.23Z" fill="#ffa275"/><path d="M354.36,358.92c-.72,1.1-.96,2.5-.66,3.78" fill="#ffc4a3"/><path d="M353.7,362.7c.33-.1.38-.92.55-1.85.15-.93.39-1.73.11-1.93-.26-.21-1.1.48-1.31,1.72-.22,1.24.34,2.17.66,2.06Z" fill="#ffa275"/><path d="M557.49,342.8s-27.87,77.28-37.03,91.28c-9.16,14-13.7,17.97-27.69,15.55-13.99-2.42-76.95-23.33-76.95-23.33l1.05-13.56,58.25,13.56,32.81-6.81,29.96-46.61,19.61-30.07Z" opacity=".3"/><path d="M437.98,372.87l3.09-5.1,15.02,3.61,22.71,5.13s13.18-77.64,32.23-90.09c19.04-12.45,32.96-10.25,44.68,11.72,11.72,21.97,5.41,34.78,5.41,34.78,0,0-30.31,85.57-50.09,103.04-19.78,17.47-84.97-15.5-84.97-15.5l-13.21-11.08,25.13-36.5Z" fill="#ff8acd"/><path d="M437.98,372.87s-.17.19-.46.59c-.32.44-.74,1.03-1.29,1.8-1.15,1.64-2.81,4-4.97,7.05-4.34,6.24-10.66,15.32-18.69,26.86l-.18.26.24.2c3.99,3.36,8.43,7.11,13.18,11.12l.04.03.04.02c10.1,4.97,21.76,10,34.93,14.35,6.6,2.13,13.58,4.09,21,5.34,3.71.6,7.53,1.04,11.44,1.08,3.9.03,7.94-.31,11.81-1.66.95-.39,1.94-.67,2.83-1.22l1.37-.74c.43-.29.84-.62,1.26-.93.89-.58,1.55-1.38,2.27-2.13l2.15-2.26c1.33-1.59,2.51-3.32,3.78-4.98,1.25-1.69,2.28-3.52,3.44-5.3,4.42-7.22,8.46-14.9,12.24-22.88,7.65-15.93,14.64-32.95,21.42-50.55,2.04-5.34,4.03-10.64,5.88-15.81l-.03.07c1.94-4.81,1.97-9.84,1.47-14.69-.6-4.85-1.96-9.52-3.76-13.93-1.79-4.42-4.02-8.59-6.61-12.47-2.59-3.87-5.64-7.48-9.48-10.09-3.8-2.62-8.46-3.99-12.97-3.71-4.52.28-8.76,1.78-12.65,3.65-1.91,1.01-3.81,2.01-5.59,3.17-1.85,1-3.52,2.51-4.97,4.02-2.81,3.17-4.91,6.75-6.76,10.32-3.64,7.2-6.28,14.5-8.59,21.54-2.28,7.06-4.18,13.89-5.83,20.41-3.29,13.05-5.69,24.85-7.47,35.05l.42-.28c-9.09-2.01-16.84-3.73-23.19-5.14-6.28-1.46-11.16-2.59-14.58-3.39l-.09-.02-.05.08c-.99,1.69-1.74,2.97-2.27,3.86-.5.86-.71,1.3-.71,1.3,0,0,.29-.4.83-1.23.55-.88,1.34-2.14,2.38-3.8l-.14.06c3.41.85,8.27,2.05,14.53,3.61,6.34,1.46,14.08,3.25,23.15,5.34l.35.08.07-.36c1.85-10.16,4.31-21.94,7.66-34.95,1.67-6.5,3.6-13.31,5.89-20.33,2.32-7,4.98-14.26,8.6-21.36,1.84-3.52,3.92-7.03,6.63-10.07,1.43-1.46,2.88-2.8,4.75-3.81,1.76-1.14,3.62-2.11,5.49-3.1,3.8-1.83,7.91-3.26,12.21-3.52,4.29-.25,8.64,1.03,12.26,3.53,3.65,2.48,6.62,5.99,9.15,9.78,2.53,3.81,4.73,7.93,6.48,12.27,1.77,4.33,3.09,8.9,3.67,13.61.5,4.66.39,9.68-1.36,14.01l-.03.07c-1.84,5.15-3.83,10.46-5.87,15.78-6.77,17.58-13.74,34.58-21.35,50.47-3.76,7.97-7.78,15.62-12.14,22.79-1.15,1.76-2.17,3.59-3.4,5.25-1.25,1.64-2.41,3.35-3.7,4.91l-2.08,2.2c-.7.72-1.34,1.51-2.16,2.04-.39.29-.77.6-1.18.87l-1.29.7c-.83.52-1.78.79-2.68,1.16-3.69,1.29-7.62,1.64-11.44,1.62-3.83-.03-7.6-.45-11.28-1.04-7.35-1.22-14.3-3.14-20.87-5.23-13.13-4.27-24.79-9.24-34.87-14.14l.08.05c-4.78-3.98-9.24-7.7-13.25-11.04l.06.46c7.92-11.62,14.15-20.77,18.43-27.05,2.09-3.1,3.7-5.49,4.82-7.15.52-.79.92-1.4,1.22-1.85.27-.42.4-.63.38-.64Z" fill="#643f92"/><path d="M489.55,415.62c.14,0,.43-2.29.35-6.01-.08-3.72-.63-8.88-2.07-14.4-1.45-5.52-3.49-10.28-5.25-13.57-1.75-3.29-3.13-5.15-3.25-5.07-.17.1.94,2.11,2.47,5.45,1.54,3.34,3.42,8.07,4.84,13.5,1.41,5.42,2.09,10.47,2.39,14.14.3,3.67.32,5.96.52,5.97Z" fill="#643f92"/><path d="M426.06,420.45c.06.06.65-.49,1.67-1.53,1.02-1.03,2.44-2.58,4.15-4.53,3.41-3.91,7.93-9.51,12.18-16.23,4.25-6.72,7.25-13.32,8.86-18.28.82-2.47,1.37-4.51,1.64-5.94.29-1.43.41-2.22.33-2.24-.21-.05-.95,3.07-2.78,7.89-1.8,4.83-4.87,11.27-9.08,17.92-4.21,6.64-8.59,12.29-11.81,16.32-3.23,4.03-5.29,6.49-5.15,6.62Z" fill="#643f92"/><path d="M46.65,496.98l.15,33.24,11.61,158.27s-6.45,76.83-10.43,120.2c-3.46,37.67,2.75,103.21,2.75,103.21l63.53-.28,21.77-218.77,13.51-136.44,24.27-62.18-127.15,2.74Z" fill="#344066"/><polygon points="212.16 493.41 202.75 716.86 139.21 882.51 136.3 892.49 98.31 883.48 124.81 492.02 212.16 493.41" fill="#344066"/><path d="M145.62,545.09s-.05.22.22.46c.26.23.84.39,1.45.06.64-.36.93-1.19,1.05-2.02.13-.87.26-1.79.4-2.77.57-4.1,1.27-9.78,1.98-16.06.71-6.28,1.28-11.98,1.63-16.11.36-4.13.5-6.69.33-6.71-.16-.02-.59,2.51-1.16,6.62-.57,4.1-1.27,9.78-1.98,16.07-.71,6.28-1.28,11.97-1.63,16.1-.25,2.02-.05,3.91-.86,4.49-.4.28-.86.24-1.08.13-.24-.12-.3-.28-.35-.26Z" fill="#fff"/><path d="M138.86,504.86c0-.07-.34-.18-.97-.08-.62.1-1.53.49-2.27,1.39-.74.85-1.32,2.39-.72,3.95.56,1.5,2.1,2.77,3.99,2.88,1.96.1,3.51-1.3,4.09-2.72.65-1.44.38-3.07-.36-3.99-.71-.95-1.65-1.35-2.3-1.39-.65-.05-.97.16-.95.22-.04.16,1.52-.07,2.56,1.64.49.79.61,1.97.06,3.08-.51,1.09-1.69,2.08-3.05,1.99-1.36-.07-2.59-1.02-3.03-2.11-.48-1.09-.16-2.27.38-3.04,1.13-1.64,2.63-1.62,2.57-1.81Z" fill="#3e5963"/><path d="M177.84,508.72c.3.1,1.23-1.92,1.65-4.61.44-2.68.19-4.89-.13-4.89-.33,0-.62,2.12-1.04,4.71-.41,2.59-.81,4.69-.49,4.79Z" fill="#3e5963"/><path d="M170.84,508.73c.32.06,1.01-2.13,1.55-4.89.53-2.76.71-5.05.39-5.11s-1.01,2.13-1.55,4.89c-.53,2.76-.71,5.05-.39,5.11Z" fill="#3e5963"/><path d="M100.39,508.73c.32.07.91-1.4,1.33-3.28.41-1.88.49-3.46.17-3.54-.32-.07-.91,1.4-1.33,3.28-.41,1.88-.49,3.46-.17,3.53Z" fill="#3e5963"/><path d="M45.74,534.69c-.02.06.63.39,1.91.75,1.27.37,3.2.67,5.58.56,4.74-.16,11.37-2.53,16.45-7.85,5.04-5.32,7.47-11.64,8.72-16.12.63-2.27,1-4.14,1.19-5.43.2-1.3.24-2.02.17-2.04-.19-.04-.73,2.81-2.16,7.23-1.44,4.37-3.93,10.45-8.77,15.55-4.86,5.07-11.12,7.46-15.66,7.83-4.6.43-7.38-.73-7.43-.48Z" fill="#fff"/><path d="M112.24,166.4c-4.7-9.42-9.37-18.91-12.38-29-3.01-10.08-4.3-20.87-2.14-31.17.33-1.56,3.53-12.18,5.12-12.26,1.14-.06-.36,9.63.35,10.52,6.81,8.49,9.95,19.46,10.69,30.31.74,10.86-.05,20.84-1.66,31.6" fill="#643f92"/><path d="M179.25,215.35c-1.02-7.36-1.81-13.18-1.75-13.19,0,0,24.84-6.32,22.75-31.56-1.01-12.19-5.13-37.13-9.13-59.66-4.29-24.21-26.46-41.06-50.94-38.73l-2.43.23c-26.08,4.03-37.23,28.44-32.48,54.4l13.73,91.34,69.66,61.61-9.41-64.45Z" fill="#c27460"/><path d="M177.5,202.16s-15.8,2.45-33.75-6.58c0,0,9.75,17.57,34.69,12.91l-.94-6.33Z" fill="#99584b"/><path d="M186.81,132.29c.25,1.89-1.15,3.67-3.13,3.96-1.97.29-3.77-1-4.02-2.89-.25-1.89,1.15-3.67,3.12-3.97,1.97-.3,3.78,1,4.02,2.89Z" fill="#643f92"/><path d="M186.74,121.92c-.4.51-3.32-1.25-7.2-.87-3.87.32-6.53,2.59-6.99,2.15-.23-.19.15-1.08,1.3-2.1,1.13-1.01,3.13-2.08,5.54-2.3,2.41-.22,4.53.48,5.78,1.28,1.28.8,1.76,1.61,1.56,1.84Z" fill="#643f92"/><path d="M150.81,136.54c.25,1.89-1.15,3.67-3.13,3.96-1.97.3-3.77-1-4.02-2.89-.25-1.89,1.15-3.67,3.12-3.97,1.97-.3,3.78,1,4.02,2.89Z" fill="#643f92"/><path d="M148.94,127.1c-.4.51-3.33-1.25-7.2-.87-3.87.32-6.53,2.59-6.99,2.15-.23-.19.14-1.08,1.3-2.1,1.13-1.01,3.13-2.08,5.54-2.3,2.41-.22,4.53.48,5.78,1.28,1.28.8,1.76,1.61,1.56,1.84Z" fill="#643f92"/><path d="M165.67,155.55c-.04-.22,2.33-.86,6.18-1.73.98-.2,1.9-.48,2-1.17.16-.74-.35-1.76-.94-2.87-1.16-2.31-2.37-4.72-3.64-7.25-5.08-10.34-8.87-18.88-8.45-19.08.42-.2,4.88,8.02,9.96,18.35,1.23,2.55,2.41,4.98,3.52,7.31.48,1.09,1.25,2.3.88,3.83-.2.76-.87,1.37-1.49,1.6-.62.25-1.17.32-1.66.39-3.91.59-6.34.83-6.38.62Z" fill="#643f92"/><path d="M147.23,111.4c-.28,1.09-4.2.96-8.69,1.94-4.51.89-8.05,2.57-8.74,1.68-.31-.43.23-1.48,1.62-2.64,1.37-1.16,3.62-2.35,6.32-2.91,2.7-.56,5.24-.36,6.96.15,1.73.51,2.65,1.26,2.53,1.78Z" fill="#643f92"/><path d="M183.91,109.19c-.6.94-3.35.29-6.57.55-3.22.15-5.87,1.16-6.58.29-.32-.42.03-1.34,1.14-2.29,1.09-.94,2.98-1.81,5.2-1.95,2.21-.14,4.2.48,5.4,1.27,1.22.8,1.68,1.67,1.42,2.12Z" fill="#643f92"/><path d="M109.11,145.32c-.45-.15-17.81-3.47-15.62,13.71,2.19,17.18,18.99,11.44,18.96,10.94-.03-.5-3.34-24.65-3.34-24.65Z" fill="#c27460"/><path d="M106.37,164.13c-.08-.05-.27.25-.75.54-.46.29-1.29.55-2.23.33-1.9-.43-3.8-3.12-4.28-6.21-.24-1.56-.11-3.09.29-4.39.36-1.32,1.07-2.31,1.96-2.59.88-.33,1.6.14,1.87.6.29.45.23.81.32.83.05.04.33-.34.1-1.03-.11-.33-.37-.71-.81-.99-.45-.28-1.08-.38-1.71-.23-1.31.26-2.35,1.63-2.79,3.06-.51,1.45-.7,3.17-.43,4.92.55,3.45,2.74,6.46,5.31,6.86,1.25.16,2.21-.33,2.68-.8.48-.49.52-.89.46-.91Z" fill="#643f92"/><path d="M176.14,84.02c2.57-1.91-7-9.77-14.25-11.93-10.96-3.27-27.1-4-36.25,0-11.01,4.81-19.75,11.81-24.07,23.02-4.33,11.21-4.83,23.65-2.87,35.5.6,3.62,1.49,7.35,3.85,10.16,2.92,3.47,7.84,5.23,8.35,10.49.19,1.92,1,3.78,2.5,5,3.6,2.91,7.01-.75,8.35-4.14,2.85-7.24,2.18-15.32,1.46-23.07-.51-5.51-1.05-11.13-3.31-16.18-1.23-2.75-2.95-5.27-4.02-8.08s-1.44-6.12.05-8.73c.24-.43.66-.98,1.2-1.6,4.28-4.92,10.91-7.13,17.3-5.81,10.13,2.1,27.34,4.95,31.2,1.08,5.56-5.57,6.62-8.85,6.62-8.85l3.91,3.14Z" fill="#643f92"/><path d="M174.05,168.46c-.05-1.42-.45-3.17-1.4-4.29h0c-2.4-1.15-5.57-.54-7.25,1.54-1.67,2.07-1.53,5.44.42,7.25,1.95,1.81,5.46,1.63,7.09-.47.87-1.12,1.18-2.6,1.13-4.02Z" fill="#99584b"/><path d="M172.45,172.98c.11.06-.91,1.24-3.18,1.4-1.1.07-2.53-.11-3.78-1.09-1.26-1.01-1.9-2.75-1.79-4.5.11-1.75,1-3.38,2.28-4.25,1.18-.87,2.53-1.33,3.66-1.33,2.3.06,3.36,1.09,3.3,1.14-.07.21-1.29-.51-3.25-.35-1.85.18-4.76,1.83-4.87,4.86-.09,1.43.43,2.86,1.34,3.63.93.8,2.14,1.06,3.11,1.09,2.01.06,3.11-.78,3.2-.61Z" fill="#643f92"/><path d="M231.96,341.68s7.74,117.77,3.41,133.17c-4.32,15.4-24.55,45.06-24.55,45.06,0,0,.75-4.71.19-8.66s.38-6.21.38-6.21c0,0,1.66-12.42-2.37-31.37-4.03-18.96-3.43-130.34-3.43-130.34l26.37-1.64Z" fill="#c27460"/><path d="M215.61,250.19s13.73,11.52,15.63,34.69c1.72,20.89,4.13,60.95,4.13,60.95l-24.84-.54,5.08-95.1Z" fill="#4a5689"/><path d="M219.55,255.82c-2.06-8.25-39.19-32.72-39.19-32.72,0,0,2.58,26.53-10.83,28.59-13.41,2.06-52.13-44.13-52.13-44.13l-49.04,14.15s-10.23,8.83-15.88,20.19c-5.65,11.36-9.39,161.4-9.39,161.4l6.22,62.59s-1.4,12.3-2.26,20.14c-.68,6.26-5.57,13.04,11.23,18.54,17.15,5.61,85.1,25.75,117.62,9.03,29.87-15.35,37.18,11.01,35.11-24.19-1.09-18.6-2.29-30.43-4.35-64.46-2.06-34.03,14.95-160.88,12.89-169.14Z" fill="#4a5689"/><path d="M213.19,277.3c.08,0,.11,1.36.09,3.81-.01,2.45-.08,5.99-.21,10.37-.24,8.75-.75,20.84-1.41,34.17-.68,13.25-1.29,25.24-1.74,34.16-.23,4.23-.42,7.72-.56,10.35-.15,2.44-.27,3.79-.34,3.79-.08,0-.11-1.36-.09-3.81.01-2.45.08-5.99.21-10.37.24-8.75.75-20.84,1.41-34.18.68-13.25,1.29-25.24,1.74-34.15.23-4.23.42-7.72.56-10.35.15-2.44.27-3.79.34-3.79Z" fill="#fff"/><path d="M210.28,246.88c.24-.15,2.53,3.82,3.34,9.32.86,5.5-.15,9.97-.42,9.9-.34-.04.15-4.43-.69-9.73-.78-5.31-2.55-9.35-2.24-9.49Z" fill="#fff"/><path d="M168.48,485.9c.01.08-1.3.33-3.7.74-2.39.42-5.87.87-10.19,1.28-8.64.83-20.68,1.2-33.89,0-13.21-1.23-24.98-3.8-33.32-6.2-4.17-1.2-7.51-2.28-9.79-3.13-2.28-.83-3.52-1.33-3.5-1.4.03-.07,1.32.28,3.63.99,2.31.72,5.68,1.69,9.86,2.78,8.36,2.2,20.08,4.62,33.21,5.85,13.13,1.2,25.1.96,33.72.33,4.31-.31,7.8-.64,10.2-.93,2.41-.27,3.74-.38,3.75-.3Z" fill="#fff"/><path d="M183.78,462.48c.04.07-.61.54-1.82,1.33-1.21.8-3.01,1.89-5.28,3.15-4.53,2.53-11.02,5.66-18.49,8.32-7.48,2.66-14.48,4.34-19.6,5.24-2.56.46-4.64.76-6.08.9-1.44.15-2.25.2-2.26.12-.02-.18,3.14-.69,8.18-1.79,5.04-1.1,11.96-2.88,19.38-5.52,7.41-2.65,13.9-5.63,18.5-7.97,4.61-2.34,7.38-3.94,7.47-3.79Z" fill="#fff"/><g opacity=".3"><path d="M204.5,362.65c-2.8-1.98-6.46-2.13-9.88-2.05-27.02.7-52.51,12.1-76.66,24.23-24.15,12.14-47.07,25.49-73.65,30.41h0c-.12,6.37,5.15,9.72,11.28,11.42,11.7,3.25,24.34,1.47,35.74-2.73,11.4-4.2,21.77-10.71,32.05-17.18,16.86-10.6,33.72-21.2,50.58-31.79,5.36-3.37,11.53-6.88,17.66-5.32,2.52.64,4.76,2.1,7.24,2.92,2.47.82,5.52.84,7.33-1.04,2.37-2.47,1.09-6.91-1.7-8.88Z"/></g><path d="M35.36,323.79s-1.14,67.12,0,78.98c1.14,11.86,10.94,16.5,25.89,14.95,14.95-1.55,95.65-40.28,111.93-50.17l-7.03-27.02s-58.93,14.51-73.54,19.28c0,0,7.31-10.82,5.77-36.04-1.88-30.81-63.02,0-63.02,0Z" fill="#c27460"/><path d="M187.29,327.92s-8.23,2.48-13.1,7.04c-4.87,4.57-16.52,10.06-16.52,10.06l10.31,24.65s11.38-5.16,18.99-5.63c7.61-.46,28.32,5.63,34.1,5.63s42-18.82,42-18.82c0,0-2.71-2.2-6.37-2.81-3.65-.61-8.53.92-8.53.92h-28.46l-17.41-6.96c-1.61-.64-1.91-2.86-.47-3.82,1.32-.89,3.12-1.66,5.35-1.66,5.21,0,14.36-1.13,14.8-5.09s-2.67-4.67-10.59-4.67-18.02-1.29-24.11,1.15Z" fill="#c27460"/><path d="M92.61,359.83c-.02.19-2.13-.05-5.49.24-3.33.28-7.99,1.26-12.36,3.92-4.34,2.67-7.2,6.51-9,9.33-1.81,2.85-2.67,4.79-2.83,4.72-.12-.04.48-2.1,2.16-5.12,1.67-2.97,4.51-7.05,9.1-9.88,4.57-2.79,9.46-3.67,12.89-3.75,3.46-.09,5.55.44,5.53.55Z" fill="#fff"/><path d="M248.41,356.77c.02.16-2.57.57-6.72,1.49-4.15.82-9.89,2.43-16.53,2.34-6.56-.21-12.41-1.59-16.39-3.19-1.99-.8-3.54-1.59-4.57-2.21-1.03-.62-1.55-1.03-1.52-1.08.09-.17,2.36,1.19,6.35,2.56,3.97,1.38,9.72,2.61,16.15,2.82,6.39.09,12.15-1.37,16.34-2,4.2-.73,6.85-.87,6.87-.72Z" fill="#fff"/><path d="M248.41,356.77c-.06-.15,1.43.03,2.92-1.56.7-.76,1.28-2.07.82-3.42-.41-1.36-2.03-2.34-3.81-2.14h-.01s-.03,0-.03,0c-4.98,0-10.88-.02-17.25-.03-4-.05-7.81-.09-11.32-.13h-.1s-.09-.04-.09-.04c-5.09-2.08-9.42-3.89-12.46-5.2-3.04-1.31-4.8-2.13-4.76-2.24.04-.11,1.88.51,4.99,1.66,3.11,1.15,7.49,2.82,12.61,4.82l-.19-.04c3.51.01,7.32.03,11.32.05,6.37.09,12.28.17,17.25.23h-.04c2.11-.2,4.15,1.1,4.59,2.83.5,1.72-.31,3.23-1.14,4.01-1.8,1.65-3.38,1.23-3.3,1.2Z" fill="#fff"/><path d="M113.3,208.89s-37.45,9.36-44.94,12.82c-7.49,3.46-31.21,21.7-33.51,51.08s-3.77,51.01-3.77,51.01l72.93.25,9.28-115.15Z" fill="#4a5689"/><path d="M104.02,324.04c0,.31-16.6.56-37.07.56s-37.07-.25-37.07-.56,16.59-.56,37.07-.56,37.07.25,37.07.56Z" fill="#fff"/><path d="M105.23,272.79c.31,0,.25,11.31-.12,25.24-.37,13.93-.93,25.22-1.24,25.21-.31,0-.25-11.31.12-25.24.37-13.93.93-25.22,1.24-25.21Z" fill="#fff"/><path d="M263.08,350.86c.03.07-.9.62-2.63,1.55-1.73.93-4.24,2.25-7.37,3.84-6.26,3.17-14.91,7.54-24.71,11.91-1.23.54-2.46,1.05-3.69,1.52-.63.21-1.25.49-1.96.56-.75.1-1.37.02-2.03,0-2.56-.21-4.96-.64-7.26-1.02-4.58-.81-8.67-1.67-12.1-2.41-3.43-.75-6.19-1.4-8.1-1.88-1.9-.48-2.95-.79-2.93-.86.02-.08,1.09.09,3.02.44,2.14.4,4.88.92,8.16,1.53,3.44.65,7.55,1.42,12.11,2.17,2.28.35,4.69.75,7.16.94.6.02,1.26.09,1.78,0,.56-.05,1.15-.31,1.75-.51,1.2-.46,2.41-.97,3.63-1.51,9.75-4.35,18.46-8.61,24.81-11.59,3.03-1.42,5.55-2.6,7.52-3.52,1.79-.81,2.79-1.23,2.82-1.17Z" fill="#fff"/><path d="M103.44,247.29c-.2.06-.8-2.56-2.75-6.33-1.92-3.76-5.46-8.63-10.79-12.3-5.33-3.67-11.14-5.24-15.34-5.7-4.23-.49-6.88-.11-6.9-.32,0-.07.64-.23,1.84-.38,1.2-.15,2.96-.24,5.13-.09,4.31.27,10.37,1.76,15.9,5.57,5.52,3.81,9.08,8.94,10.86,12.87.91,1.97,1.46,3.65,1.74,4.83.29,1.18.37,1.84.3,1.86Z" fill="#fff"/><polygon points="112.94 198.78 147.95 223.62 169.03 254.12 170.54 286.12 164.52 285.74 163.01 255.62 106.92 211.58 112.94 198.78" fill="#344066"/><path d="M179.01,212.75l11.29,7.2-10.21,15.2s.48-15.62-1.08-22.4Z" fill="#344066"/><path d="M168.42,262.87s12.28-13.69,11.72-28.38c0,0-5.51,18.49-11.58,20.05l-.71,3.67" fill="#344066"/><polygon points="104.16 316.61 144.56 314.73 181.08 312.47 209.32 311.72 209.32 317.74 163.39 318.49 115.58 321.51 104.02 324.04 104.16 316.61" fill="#3d87f2"/><path d="M95.77,110.82l.23.99s48-19.76,59.29-20.89,28.24-2.82,28.24-2.82l-7.8-13.1c-3.99-6.71-11.32-10.7-19.12-10.44-13.09.45-32.51,1.91-39.72,6.6-1.66,1.08-3.41,2.13-5.19,3.14-12.81,7.26-19.22,22.17-15.93,36.53Z" fill="#4a5689"/><path d="M181.08,83.39s29.55-.94,32.38,8.66-74.54,11.29-74.54,11.29l-24.28.56s51.15-21.76,66.45-20.52Z" fill="#344066"/><path d="M140.87,83.77c8.82-2.41,17.8-4.25,26.86-5.48" fill="none" stroke="#fff" stroke-miterlimit="10"/><path d="M112.37,318.49c14.03-.51,28.06-1.03,42.09-1.54" fill="none" stroke="#fff" stroke-miterlimit="10"/><path d="M162.35,323.12c4.33-.17,8.66-.19,12.99-.08" fill="none" stroke="#fff" stroke-miterlimit="10"/><path d="M162.63,326.95c4.9-.01,9.81-.28,14.68-.82" fill="none" stroke="#fff" stroke-miterlimit="10"/><path d="M232.23,298.59s-6.73,2.4-5.41,15.76,7.11,11.62,7.11,11.62l-1.69-27.39Z" fill="#fff"/><path d="M135.91,501.36l-46.31-4.09-43.91-13.55.14,27.53s34.45,9.04,46.31,10.31,53.93.99,54.49.99,43.76-5.93,43.76-5.93l21.18-8s1.54-17.14.94-19.58-62.07,10.64-62.07,10.64l-14.54,1.69Z" fill="#26393f"/><polygon points="128.56 498.26 129.27 525.36 157.51 524.23 156.8 496.99 128.56 498.26" fill="#1e2e34"/><polygon points="78.87 492.47 79.63 521.23 86.35 521.83 85.59 492.92 78.87 492.47" fill="#1e2e34"/><polygon points="189.55 491.2 190.26 518.3 196.47 518.87 195.76 491.62 189.55 491.2" fill="#1e2e34"/><path d="M384.76,96.2c29.49,0,53.4,23.91,53.4,53.4,0,15.41-6.54,29.29-16.98,39.03l8.75,19.93-25.46-9.34c-6.1,2.42-12.74,3.77-19.71,3.77-29.49,0-53.4-23.91-53.4-53.4s23.91-53.4,53.4-53.4Z" fill="#fff"/><path d="M280.93,3.45c-29.49,0-53.4,23.91-53.4,53.4,0,15.41,6.54,29.29,16.98,39.03l-8.75,19.93,25.46-9.34c6.1,2.42,12.74,3.77,19.71,3.77,29.49,0,53.4-23.91,53.4-53.4S310.42,3.45,280.93,3.45Z" fill="#fff"/><path d="M397.56,134.77c-.22.8-.64,1.55-1.21,2.15.86.32,1.6.88,2.33,1.43,3.34,2.52,6.73,5.1,10.62,6.65-.14-.05.36-1.52.42-1.67.27-.69.42-.76-.32-1-1.1-.36-2.19-.72-3.25-1.2-2.09-.94-4.05-2.17-5.81-3.64-1-.83-1.93-1.74-2.78-2.72Z" fill="#e7374c"/><path d="M369.68,134.77c.22.8.64,1.55,1.21,2.15-.86.32-1.6.88-2.33,1.43-3.34,2.52-6.73,5.1-10.62,6.65.14-.05-.36-1.52-.42-1.67-.27-.69-.42-.76.32-1,1.1-.36,2.19-.72,3.25-1.2,2.09-.94,4.05-2.17,5.81-3.64,1-.83,1.93-1.74,2.78-2.72Z" fill="#e7374c"/><path d="M389.79,157.84c-.12.4-.14.8-.16,1.23-.02.32-.17,2.27-.17,2.61-.09,6.84-1.31,18.11-1.7,22.8-.08.95-.28,1.75-.1,2.58.04.2.1.41.16.61.15.51.3,1.04.23,1.58l-.36.03.2.02c-.95-1.18-1.22-2.65-1.27-3.69-.07-1.32-.36-2.73-.17-4,.17-1.12.64-2.21.62-3.37-.03-1.16-.06-2.36.12-3.5.13-.81.35-1.61.56-2.39.43-1.55.78-13.36.48-14.91-.03-.15-.12-.4-.27-.37-.05,0-.1.04-.15.07l-.02.02c-.51.35-1.24.39-1.95.12-.62-.24-1.13-.67-1.63-1.09l-.07-.06.25-.29c-.04-.13-.12-.24-.22-.35-.1-.11-.2-.23-.25-.39-.03-.08-.06-.16-.12-.2-.12-.07-.3.07-.38.2-.16.24-.27.54-.37.82-.15.42-.3.84-.64,1.14-.39.34-.96.46-1.71.37-.18-.02-.36-.05-.53-.09-.38-.07-.78-.14-1.16-.11-.11,0-.24.03-.33.1-.14.11-.15.34-.15.53.02.88,1.11,12,1.3,12.85l.38,3.42c.38,1.76.21,3.37.25,5.13.03,1.2.3,2.49.44,3.7.21,1.89-.33,3.89-1.33,5.58-.11.19-.08.04-.3.05-.11,0-.21-.04-.28-.13-.07-.1-.06-.02-.05-.14.03-.49.11-.61.23-1.07.06-.24.12-.48.17-.72.2-.99.18-2.01.14-3.06-.13-3.64-.48-7.31-1.03-10.91-.18-1.17-.54-12.71-.82-13.86-.15-.62-.31-1.26-.45-1.88-.3-1.36-.58-2.91-.75-4.32-.1-.86-.15-1.75-.2-2.61-.14-2.36-.28.6-1.43-1.45-.31-.56-.61-1.14-.89-1.71-.39-.78-.8-1.59-1.26-2.33-.14-.22-.28-.45-.42-.66-.36-.56-.74-1.14-1.03-1.75-.38-.8-.62-1.67-.85-2.5-.13-.47-.37-.95-.6-1.41-.41-.81-.83-1.64-.7-2.52.04-.28-.09-.5-.21-.63-.24-.27-.64-.43-1.01-.41-.54.03-1.04.3-1.52.57-.09.05-.18.1-.28.15-1.18.63-2.28.88-3.28.74-.83-.12-1.59-.51-2.32-.89-.33-.17-.67-.35-1.02-.49-1.59-.69-3.4-.83-5.08-.42-.26.06-.52.14-.77.22-.42.13-.85.26-1.29.33-.99.16-1.99.02-2.96-.12-.17-.02-.33-.05-.5-.07-.63-.08-1.53-.13-1.98.43-.39.49-.31,1.25.24,2.25.47.85,1.13,1.83,2.15,1.97.2.03.41.02.62,0,.27-.01.56-.03.84.04.32.08.61.35.71.65.07.21.04.41-.08.57-.09.11-.22.2-.41.26-.28.1-.59.13-.88.16-.46.05-.9.1-1.23.38-.41.36-.48.97-.54,1.55-.01.11-.02.21-.03.32-.1.84-.4,1.65-.86,2.36-.09.13-.19.28-.35.37-.16.08-.34.09-.53,0-.26-.11-.48-.37-.56-.65-.07-.24-.08-.5-.08-.74,0-.18,0-.37-.04-.55-.13-.74-.72-1.28-1.29-1.81-.13-.12-.27-.25-.4-.37-.56-.56-1.03-1.2-1.39-1.9-.87-1.71-.99-3.73-.33-5.4.58-1.46,1.69-3.21,3.73-3.3,2.25-.09,4.54-.15,6.79-.15,2.81,0,5.76.08,8.35,1.22.05.02.1.05.16.07.41.18.83.37,1.26.36.39-.01.78-.2,1.12-.36.72-.34,1.46-.7,2.05-1.25.3-.28.55-.61.8-.92.18-.23.37-.47.57-.69.51-.56,1.13-1.01,1.73-1.44l1.66-1.21.19-.23s.05-.04.07-.05c3.48-2.23,7.49-3.59,11.61-3.94,5.87-.49,11.56,1.2,15.61,4.63,1.26,1.07,2.22,2.4,2.7,3.73.31.21.54.51.75.8.18.25.37.5.61.69.72.57,1.76.44,2.59.27.64-.13,1.3-.3,1.93-.46,1.81-.46,3.67-.94,5.54-.68.29.04.58.1.86.15.7.14,1.41.28,2.11.15.36-.07.71-.2,1.05-.34.25-.1.5-.2.76-.27,1.14-.33,2.39-.14,3.39.02.61.09,1.3.2,1.92.48.65.29,1.14.79,1.37,1.39.41,1.07.83,2.18.9,3.35.12,1.93-.48,3.81-1.73,5.44-.25.33-.55.55-.83.77-.21.16-.41.31-.58.5-.4.42-.45.87-.51,1.39-.02.2-.04.4-.09.61-.11.53-.31.62-.47.61-.33-.03-.59-.57-.61-1.03-.01-.33,0-.66.02-.98.04-.66.07-1.29-.17-1.92-.37-.97-.96-1.38-1.95-1.39-.71,0-1.59-.08-1.73-.42-.05-.14,0-.29.18-.45.18-.17.68-.21,1.16-.25.26-.02.5-.04.63-.08.9-.26,1.58-.75,2.08-1.5.7-1.04.47-2.12-.15-2.56-.52-.37-.99-.22-1.54-.06-.09.03-.17.05-.26.08-.94.26-1.64.22-2.59.05-.4-.07-.82-.15-1.22-.24-1.9-.38-3.86-.78-5.69-.1-.36.13-.71.32-1.09.51-.69.36-1.4.72-2.14.78-1.07.08-2.37-.32-3.42-.64-.14-.04-.27-.08-.4-.12-.18-.05-.35-.11-.52-.17-.78-.26-1.53-.51-2.32-.11-.93.48-1.09,1.27-1.28,2.19-.03.17-.07.34-.11.52-.13.56-.24,1.16-.34,1.73-.25,1.38-.5,2.8-1.17,4.03l.02.02-.13.19h-.01c-.92,1.13-1.94,2.55-3.05,4.22-.55.83-1.12,1.73-1.41,2.74" fill="#ff8acd"/><path d="M417.99,140.11c0,.16-.02.31-.03.47,0,0,.01,0,.02,0-.04.04-.09.07-.13.11l.14-.58Z" fill="#fbd3d8"/><path d="M349.52,139.92l.14.58s-.09-.07-.13-.11c0,0,.01,0,.02,0,0-.16-.02-.31-.03-.47Z" fill="#fbd3d8"/><path d="M402.11,132.38s-4.48-10.56-18.46-10.79c-10.58-.17-19.1,10.45-19.1,10.45,0,0,8.95-7.43,19.03-7.45,10.27-.02,18.53,7.79,18.53,7.79Z" fill="#fbd3d8"/><path d="M384.38,151.02c.52.62,1.4.99,2.23.84.4-.07.79-.24,1.2-.24,1.21,0,.78,1.24.68,1.91-.16,1.03-.05,17.33-.21,18.36-.2,1.24-.39,2.49-.5,3.74-.08.86-.11,1.73-.26,2.59-.14.82-.39,1.63-.54,2.45-.36,1.91-.23,3.86,0,5.78.08.69.21,1.55.65,2.13.21.27.05.67-.28.74-.05.01-.1.02-.15.04-.56.16-1.17.28-1.74.16-.58-.12-1.12-.53-1.21-1.07-.56.73-1.54,1.17-2.5,1.12s-1.89-.57-2.37-1.35c.57-.87.91-1.87,1.07-2.88.27-1.67.06-3.36-.16-5.03-.52-4.07-1.78-23.36-2.68-27.37-.09-.42.33-1.02.74-1.22.3-.14.66,0,.98.1,1.19.36,2.71-.15,3.08-1.26.07-.22.1-.45.16-.67l1.53-.16" fill="#fbd3d8"/><path d="M382.4,149.52c.16,0,.3-.13.32-.29.11-1.21.14-2.43.11-3.64-.01-.55-.05-1.12-.3-1.64-.03-.06-.06-.11-.09-.17-.06-.11-.12-.22-.14-.31-.02-.08,0-.16.02-.17.13-.06.2-.2.18-.34-.02-.14-.13-.25-.27-.27-.07,0-.15-.17-.16-.38,0-.05,0-.09,0-.14-.01-.27-.02-.62-.26-.89-.02-.02-.04-.04-.05-.06,0,0,0,0,0,0,0-.02.02-.04.02-.05.05-.1.11-.26.08-.45-.05-.27-.28-.4-.43-.49-.02-.01-.04-.02-.06-.04.02-.03.04-.07.06-.12.15-.4-.15-.72-.33-.92l-.05-.06s-.05-.09-.06-.13c.09-.05.15-.14.16-.24.02-.14-.06-.27-.19-.33-.25-.11-.39-.27-.39-.32h0s0-.01.03-.03c.1-.1.16-.24.16-.37,0-.35-.3-.45-.42-.49.02-.09.04-.22,0-.37-.06-.19-.21-.28-.3-.35-.02-.02-.05-.03-.07-.05-.06-.05-.08-.19-.11-.34-.01-.07-.02-.15-.04-.22-.06-.24-.22-.47-.42-.59.03-.25-.05-.41-.16-.52-.14-.15-.32-.18-.45-.2-.04,0-.1-.02-.12-.03,0,0-.02-.07-.04-.1-.02-.07-.05-.14-.09-.22-.09-.15-.28-.21-.44-.12-.15.09-.21.28-.12.44.01.02.03.07.04.11.04.11.09.27.24.39.13.11.29.14.4.16.02,0,.06.01.08.02,0,.03-.02.09-.08.19-.07.13-.04.28.06.38.09.09.23.11.35.06.03.03.09.09.1.17.01.06.02.11.03.17.04.23.08.51.31.72.05.04.1.07.14.1.01,0,.03.02.04.03,0,.01,0,.03,0,.04-.02.11-.06.3.06.48.07.1.17.16.25.2-.08.14-.11.3-.08.45.05.25.24.45.42.58-.06.27.06.57.22.75l.06.06c.07.07.19.21.2.26,0,0-.01.02-.02.03-.04.06-.09.15-.1.27-.04.35.25.52.41.61.04.02.08.05.11.07,0,.02-.02.04-.03.06-.05.12-.13.3-.06.51.04.12.12.2.17.25.01.01.02.02.03.03.09.1.09.29.1.49,0,.05,0,.11,0,.16.02.31.12.57.28.74-.06.16-.07.35-.04.51.04.19.12.34.2.48.03.05.05.09.07.14.2.4.22.88.24,1.38.03,1.19,0,2.39-.11,3.57-.02.18.12.33.29.35,0,0,.02,0,.03,0Z" fill="#ee2e45"/><path d="M383.65,152.99l-.18.66c-.05.2-.11.4-.11.6,0,.47.31.87.32,1.33s-.2,1-.26,1.47" fill="#f77f96"/><path d="M383.41,157.45c.2,0,.37-.15.4-.36.02-.17.06-.36.11-.56.08-.31.15-.64.15-.96,0-.29-.1-.55-.18-.78-.07-.19-.14-.38-.14-.54,0-.15.05-.32.1-.5l.18-.66c.06-.21-.07-.43-.28-.49-.21-.06-.43.07-.49.28l-.18.66c-.06.21-.12.45-.13.7,0,.31.1.58.18.82.07.19.13.36.13.52,0,.23-.06.49-.12.76-.05.21-.1.44-.13.66-.02.22.13.42.35.44.02,0,.03,0,.05,0Z" fill="#ef2e45"/><path d="M382.73,157.93c-.27,1.03-.18.59.15,1.58.14.41-.07.9.14,1.28" fill="#f77f96"/><path d="M383.03,161.2c.07,0,.14-.02.2-.05.19-.11.26-.36.14-.55-.06-.1-.05-.27-.04-.47,0-.22.02-.48-.07-.74-.1-.3-.18-.48-.24-.6-.02-.05-.05-.12-.06-.14,0-.04.05-.25.11-.47l.04-.15c.06-.21-.07-.43-.29-.49-.21-.06-.43.07-.49.29l-.04.15c-.16.62-.19.73,0,1.14.05.11.12.27.21.53.04.12.03.27.03.44-.01.27-.03.6.15.91.07.13.21.2.35.2Z" fill="#ef2e45"/><path d="M383.66,162.88c-.07.23-.09.47-.04.71" fill="#f77f96"/><path d="M383.62,163.99s.05,0,.07,0c.22-.04.36-.25.32-.47-.03-.17-.02-.35.03-.51.07-.21-.05-.44-.26-.5-.21-.07-.44.05-.5.26-.09.29-.11.6-.05.9.04.19.2.33.39.33Z" fill="#ef2e45"/><path d="M379.26,188.8c.12,0,.19-.11.23-.18,1.08-1.83,1.55-3.84,1.35-5.68-.05-.43-.11-.87-.18-1.29-.12-.8-.24-1.63-.26-2.4-.01-.49,0-.98,0-1.46.01-1.24.03-2.41-.25-3.69l-.38-3.43c-.19-.87-1.27-11.99-1.29-12.82h-.32c.02.83,1.1,11.94,1.3,12.88l.38,3.43c.27,1.24.26,2.4.24,3.63,0,.48-.01.97,0,1.47.02.79.14,1.63.26,2.44.06.42.13.86.17,1.28.2,1.76-.26,3.71-1.3,5.47-.04-.01-.1-.02-.17-.02-.06,0-.11-.02-.14-.07,0-.01-.02-.02-.02-.03,0,0,0,0,0,0,.02-.32.06-.47.13-.7.03-.1.06-.21.1-.34.06-.25.12-.49.17-.73.2-1.01.18-2.04.14-3.1-.13-3.64-.48-7.32-1.03-10.92-.08-.49-.19-2.92-.3-5.5-.16-3.61-.35-7.7-.52-8.38-.15-.62-.31-1.25-.45-1.88-.24-1.08-.56-2.7-.74-4.31-.1-.85-.15-1.74-.2-2.59-.05-.86-.09-1.05-.26-1.11-.14-.05-.24.05-.32.13-.1.1-.17.16-.26.15-.09-.01-.3-.12-.62-.69-.31-.55-.6-1.13-.89-1.7-.4-.79-.8-1.6-1.27-2.35-.14-.22-.28-.45-.43-.66-.36-.56-.74-1.13-1.02-1.74-.38-.79-.61-1.65-.84-2.48-.14-.49-.38-.97-.61-1.44-.39-.79-.8-1.6-.68-2.42.05-.34-.11-.6-.25-.76-.27-.3-.72-.48-1.13-.46-.58.03-1.09.32-1.59.59-.09.05-.18.1-.27.15-1.14.62-2.21.86-3.18.72-.8-.12-1.55-.5-2.27-.87-.34-.17-.68-.35-1.03-.5-1.62-.7-3.46-.85-5.18-.43-.26.06-.53.14-.78.22-.41.12-.84.25-1.27.32-.96.15-1.95.01-2.92-.12-.18-.02-.34-.05-.5-.07-.67-.09-1.63-.13-2.12.49-.43.55-.36,1.37.23,2.43.48.88,1.18,1.91,2.27,2.05.22.03.44.02.65,0,.26-.01.54-.03.79.04.26.07.52.29.6.54.05.16.03.3-.06.42-.07.09-.18.16-.34.21-.26.09-.56.13-.85.16-.47.05-.95.1-1.31.42-.46.4-.53,1.04-.59,1.65-.01.11-.02.22-.03.32-.1.81-.39,1.6-.83,2.29-.08.12-.17.25-.29.31-.12.06-.25.06-.39,0-.21-.09-.4-.32-.47-.55-.06-.22-.07-.47-.07-.7,0-.19,0-.39-.04-.58-.14-.79-.75-1.35-1.34-1.9-.13-.12-.27-.25-.39-.37-.55-.54-1.01-1.17-1.36-1.86-.85-1.67-.97-3.64-.33-5.27.56-1.41,1.64-3.12,3.59-3.2,2.25-.09,4.53-.14,6.78-.15,2.79-.01,5.73.08,8.28,1.21l.16.07c.42.19.86.39,1.34.37.43-.01.83-.21,1.18-.38.73-.35,1.48-.71,2.09-1.28.3-.29.56-.62.82-.94.18-.23.36-.46.56-.68.5-.55,1.11-.99,1.71-1.42l1.69-1.23.19-.23.04-.02c3.46-2.22,7.45-3.57,11.54-3.91,5.83-.49,11.48,1.19,15.49,4.59,1.24,1.05,2.18,2.35,2.65,3.67l.02.05.04.03c.29.19.5.48.71.76.19.26.38.52.64.72.77.61,1.86.48,2.72.3.65-.13,1.31-.3,1.94-.46,1.79-.46,3.64-.93,5.47-.67.29.04.57.1.85.15.71.14,1.44.29,2.17.15.38-.07.73-.21,1.08-.35.25-.1.5-.2.75-.27,1.11-.32,2.34-.13,3.32.02.6.09,1.28.19,1.88.46.61.27,1.07.74,1.28,1.3.4,1.06.82,2.16.89,3.31.12,1.89-.47,3.73-1.69,5.33-.24.31-.52.53-.8.74-.21.16-.42.32-.6.52-.44.46-.5.96-.55,1.49-.02.19-.04.39-.08.6-.03.15-.12.48-.29.48,0,0,0,0,0,0-.21-.02-.44-.46-.46-.88-.01-.32,0-.65.02-.96.04-.68.08-1.32-.18-1.99-.39-1.03-1.04-1.49-2.1-1.49-1.39,0-1.56-.27-1.58-.32-.03-.09.06-.2.14-.27.14-.13.65-.17,1.06-.2.28-.02.52-.04.66-.08.94-.27,1.65-.78,2.17-1.56.75-1.12.49-2.29-.19-2.78-.58-.41-1.11-.25-1.67-.08-.09.03-.17.05-.26.08-.91.26-1.59.21-2.52.05-.4-.07-.81-.15-1.2-.23-1.93-.39-3.91-.79-5.79-.09-.37.14-.73.32-1.11.52-.67.35-1.37.71-2.08.76-1.05.07-2.33-.32-3.36-.63-.14-.04-.27-.08-.41-.12-.18-.05-.35-.11-.52-.17-.78-.26-1.59-.54-2.44-.1-1,.51-1.18,1.38-1.37,2.3-.04.17-.07.34-.11.51-.13.57-.24,1.16-.34,1.73-.25,1.37-.5,2.78-1.15,3.99l-.06.12h0s-.05.05-.05.05c-.92,1.14-1.95,2.57-3.06,4.24-.56.84-1.13,1.75-1.43,2.78l.31.09c.29-.99.84-1.87,1.39-2.69,1.07-1.61,2.06-2.99,2.95-4.1h0s.1-.11.1-.11l.22-.31-.04-.03c.63-1.23.88-2.62,1.12-3.96.1-.57.21-1.16.34-1.72.04-.17.08-.34.11-.51.19-.93.34-1.65,1.2-2.09.73-.38,1.41-.15,2.2.12.17.06.35.12.53.17.13.04.27.08.4.12,1.06.32,2.38.72,3.48.65.77-.05,1.5-.43,2.2-.79.37-.19.72-.37,1.07-.5,1.79-.67,3.73-.28,5.61.1.41.08.82.17,1.22.24.98.17,1.69.21,2.66-.06.09-.03.18-.05.27-.08.53-.16.94-.29,1.4.04.56.4.75,1.38.11,2.34-.48.72-1.13,1.19-1.99,1.43-.11.03-.36.05-.59.07-.54.04-1.04.08-1.26.29-.28.26-.27.48-.22.62.05.13.2.52,1.88.52.93,0,1.46.38,1.81,1.28.23.6.2,1.21.16,1.85-.02.32-.04.66-.02.99.02.55.34,1.15.76,1.18.22.02.51-.1.64-.74.04-.22.07-.43.09-.63.05-.51.1-.92.46-1.3.17-.18.36-.33.57-.48.29-.23.6-.46.86-.8,1.27-1.66,1.88-3.58,1.76-5.54-.08-1.2-.5-2.32-.91-3.4-.24-.64-.76-1.17-1.45-1.48-.64-.29-1.34-.39-1.96-.49-1.02-.15-2.28-.35-3.46-.01-.27.08-.52.18-.77.28-.34.13-.68.27-1.03.33-.66.12-1.37-.02-2.05-.15-.27-.05-.57-.11-.87-.16-1.9-.26-3.78.22-5.6.68-.63.16-1.28.33-1.93.46-.8.16-1.79.28-2.46-.24-.22-.17-.4-.42-.58-.66-.21-.29-.44-.59-.75-.81-.49-1.35-1.46-2.68-2.73-3.75-4.08-3.46-9.81-5.16-15.72-4.66-4.14.35-8.18,1.71-11.68,3.96-.05.02-.09.05-.12.09l-.18.21-1.64,1.19c-.61.44-1.23.89-1.75,1.47-.21.23-.39.47-.58.7-.24.31-.5.64-.78.9-.57.53-1.3.89-2.01,1.22-.32.16-.69.33-1.05.34-.4.01-.8-.17-1.19-.34l-.16-.07c-2.61-1.15-5.58-1.24-8.41-1.24-2.26,0-4.54.05-6.79.15-2.13.09-3.28,1.9-3.87,3.4-.68,1.71-.55,3.78.34,5.54.37.72.84,1.38,1.42,1.94.13.13.27.25.4.38.55.51,1.12,1.04,1.24,1.72.03.16.03.35.04.52,0,.26.01.52.09.78.1.33.35.63.65.76.23.1.46.09.67-.01.19-.1.31-.26.41-.42.47-.73.78-1.56.88-2.42.01-.1.02-.21.03-.31.06-.56.12-1.13.48-1.45.29-.25.7-.29,1.14-.34.31-.03.62-.07.92-.17.22-.08.37-.18.48-.32.16-.2.2-.46.11-.72-.12-.36-.45-.66-.83-.75-.3-.08-.6-.06-.88-.05-.2.01-.4.02-.59,0-.95-.12-1.58-1.07-2.03-1.88-.52-.94-.61-1.64-.26-2.08.4-.5,1.23-.45,1.83-.37.16.02.32.04.49.07,1,.14,2.02.28,3.03.12.45-.07.89-.2,1.31-.33.25-.08.51-.15.77-.22,1.65-.41,3.42-.26,4.98.41.34.15.68.32,1,.49.75.39,1.52.78,2.38.9,1.04.15,2.17-.11,3.38-.76.09-.05.18-.1.27-.15.47-.26.95-.53,1.45-.56.32-.01.67.13.88.36.1.11.21.28.17.5-.13.93.3,1.78.71,2.61.23.45.46.92.59,1.38.23.84.47,1.72.86,2.53.3.62.68,1.21,1.04,1.77.14.22.29.44.42.66.45.73.86,1.54,1.25,2.32.29.57.58,1.16.9,1.72.3.54.58.81.85.85.23.03.39-.1.5-.2.02.12.04.34.07.73.05.87.1,1.76.2,2.62.19,1.62.51,3.26.75,4.34.14.63.29,1.27.45,1.89.16.65.35,4.9.51,8.32.12,2.7.23,5.02.31,5.53.55,3.59.9,7.26,1.03,10.89.04,1.03.06,2.04-.14,3.02-.05.23-.11.47-.16.7-.04.15-.07.25-.09.34-.07.23-.12.41-.14.77,0,.02,0,.04,0,.04,0,.03-.01.11.07.17,0,0,.02.02.02.03.1.14.25.21.42.2.05,0,.07,0,.1.02.04.02.08.03.11.03Z" fill="#643f92"/><path d="M388.03,189.49l-.07-.09h.01s.02-.13.02-.13c.08-.57-.08-1.12-.23-1.65-.06-.2-.12-.41-.16-.6-.13-.58-.06-1.14.02-1.79.03-.24.06-.48.08-.74.09-1.04.22-2.41.37-3.99.51-5.38,1.27-13.5,1.34-18.82,0-.21.06-1.05.11-1.72.03-.41.06-.76.06-.88.02-.42.04-.81.16-1.19l-.31-.09c-.13.42-.15.83-.17,1.27,0,.12-.03.47-.06.87-.05.68-.11,1.52-.11,1.74-.07,5.31-.83,13.43-1.34,18.8-.15,1.58-.28,2.95-.37,4-.02.25-.05.49-.08.72-.08.65-.16,1.26-.02,1.9.05.21.11.42.16.62.13.44.26.9.24,1.35-.84-1.12-1.08-2.49-1.13-3.46-.02-.41-.07-.83-.11-1.24-.09-.92-.19-1.87-.06-2.73.06-.41.17-.82.27-1.22.18-.7.36-1.42.35-2.17-.03-1.15-.06-2.35.12-3.47.12-.8.34-1.6.56-2.36.43-1.54.81-13.3.48-14.99-.05-.27-.2-.54-.45-.5-.08.01-.15.06-.22.1l-.02.02.18.26.02-.02s.05-.04.07-.04c.03.03.07.12.1.24.3,1.59-.07,13.38-.48,14.83-.22.78-.44,1.59-.57,2.41-.18,1.15-.15,2.36-.12,3.53.02.7-.16,1.41-.34,2.09-.1.41-.21.83-.28,1.25-.14.9-.04,1.87.06,2.81.04.41.09.83.11,1.23.06,1.02.31,2.48,1.22,3.67v.15s.58.06.58.06Z" fill="#643f92"/><path d="M393.22,131.54c.45-.2.97-.11,1.45-.01,1.05.21,2.1.42,3.15.63.63.13,1.27.26,1.88.45.81.25,1.58.6,2.41.8,1.04.25,2.13.25,3.16-.02,1.29-.33,2.47-1.04,3.79-1.23,1.38-.2,2.78.19,4.18.25,1.57.06,3.13-.32,4.7-.41,1.57-.09,3.28.18,4.4,1.29,1.35,1.33,1.44,3.55.73,5.31-.71,1.76-2.07,3.16-3.39,4.51-.11.11-.25.23-.4.21-.1-.02-.18-.09-.24-.16-.68-.78-.62-2.2-1.56-2.61.58-.49,1.16-.98,1.74-1.47.62-.52,1.26-1.08,1.52-1.84.17-.5.16-1.03.15-1.56,0-.51-.03-1.05-.34-1.45-.37-.47-1.02-.6-1.61-.64-1.79-.12-3.58.26-5.37.1-.93-.08-1.84-.31-2.77-.3-2.75,0-5.36,1.99-8.05,1.44-.66-.13-1.28-.42-1.91-.66-2.1-.82-4.36-1.22-6.61-1.19-.33.18-.77.19-1.15.12-.06-.01-4.8.52-4.86.51l-.04-1.23c.09-.13,4.91-.77,5.05-.84Z" fill="#fbd3d8"/><path d="M344.15,133.1c1.12-1.11,2.83-1.37,4.4-1.29s3.13.47,4.7.41c1.4-.05,2.79-.45,4.18-.25,1.32.19,2.5.91,3.79,1.23,1.03.26,2.13.27,3.16.02.82-.2,1.6-.55,2.41-.8.62-.19,1.25-.32,1.88-.45,1.05-.21,2.1-.42,3.15-.63.48-.1,1-.19,1.45.01.14.06.26.17.35.29.35.03,5.58.8,5.92.87.05-.05.09-.09.14-.14l-.59,1.81c-.78-.31-6.48-1.26-7.31-1.39-2.09.03-4.18.43-6.13,1.19-.63.24-1.25.53-1.91.66-2.7.55-5.3-1.43-8.05-1.44-.93,0-1.85.22-2.77.3-1.78.16-3.58-.22-5.37-.1-.59.04-1.24.17-1.61.64-.31.4-.33.95-.34,1.45-.01.52-.02,1.06.15,1.56.26.76.91,1.32,1.52,1.84.58.49,1.16.98,1.74,1.47-.94.41-.88,1.83-1.56,2.61-.06.07-.14.15-.24.16-.16.02-.29-.1-.4-.21-1.33-1.35-2.68-2.76-3.39-4.51-.71-1.76-.62-3.98.73-5.31Z" fill="#fbd3d8"/><path d="M377.62,132.08c0,.17.27.14.39.03.12-.11.27-.27.42-.21.06.03.1.09.16.12.15.08.33-.02.48-.09.16-.07.41-.05.42.12.07-.34.63-.41.79-.1.15-.16.3-.31.46-.47.03.26.46.38.59.11.03-.05.07-.1.13-.12.15-.04.18.11.26.2.2.24.57-.03.76-.28-.02.21.23.36.44.32.21-.05.35-.22.47-.4.06.17.18.31.33.4l.29-.34c.18.28.65.31.85.05.11.18.22.35.32.53l.37-.45c.13.06.23.2.24.34.2-.02.39-.14.51-.3.14.37.7.47.96.18-.04.16.12.32.29.34.17.02.33-.04.49-.11-.08.17.17.32.36.29.19-.02.39-.12.56-.03.1.05.16.16.24.22.22.17.49.08.75-.04.01-.02.03-.05.04-.07l.03.85c-.1-.02-.19-.03-.29,0-.15.03-.27.14-.38.24-.44.41-.89.82-1.33,1.23-.25.23-.5.46-.72.72.05-.03.14.01.15.08.01.08-.05.15-.1.21-.42.47-.86.98-.92,1.61-.01.12,0,.25-.07.35-.15.27-.63.28-.68.58-.04.25.27.45.25.7-.02.27-.39.39-.46.66-.04.15.03.31,0,.46-.02.1-.08.18-.13.26-.11.17-.19.36-.27.55-.2.49-.37.99-.51,1.5-.15.54-.25,1.09-.36,1.64-.22,1.13-.44,2.3-.28,3.44.12.86.46,1.74.23,2.57-.17.61-.66,1.3-.49,1.92.02.07.05.14.08.21l-1.06.11c.02-.1.06-.19.11-.28.05-.09.13-.16.23-.21-.08-.44-.34-.99-.45-1.44-.09-.4-.05-.82-.02-1.23.1-1.2.14-2.4.11-3.61-.01-.52-.04-1.05-.27-1.51-.09-.18-.21-.35-.25-.55-.04-.2.02-.44.2-.53-.29-.04-.42-.39-.44-.68-.02-.29,0-.62-.19-.84-.05-.06-.11-.11-.14-.18-.06-.18.14-.35.11-.53-.05-.27-.56-.31-.53-.58,0-.09.08-.16.11-.24.09-.24-.15-.46-.32-.65-.17-.19-.23-.58.02-.63-.36-.16-.79-.52-.47-.87.04-.04.07-.09.07-.15,0-.21-.3-.16-.4-.3-.09-.13.04-.31,0-.45-.04-.12-.18-.17-.28-.26-.19-.17-.19-.47-.24-.72-.06-.25-.32-.52-.54-.39.1-.18.19-.42.05-.56-.13-.14-.38-.08-.53-.2-.12-.1-.13-.28-.21-.41-.07-.13-.21-.21-.34-.29-.32-.19-.66-.35-1.01-.49l.41-1.26s.09-.09.14-.14Z" fill="#fbd3d8"/><path d="M383.76,147.86s.03,0,.05,0c.18-.03.3-.19.27-.36-.16-1.1.06-2.24.28-3.33.11-.54.21-1.09.36-1.62.13-.49.3-.99.5-1.46.07-.17.15-.35.25-.5l.02-.03c.05-.09.12-.2.15-.34.02-.12.01-.24,0-.33,0-.04-.01-.1,0-.12,0-.03.09-.1.14-.15.13-.12.31-.29.33-.56.02-.23-.09-.41-.17-.54-.03-.04-.06-.1-.07-.13.03-.03.11-.07.17-.1.16-.08.35-.18.47-.38.08-.15.1-.3.1-.42v-.06c.05-.52.43-.97.84-1.42.07-.07.22-.24.18-.48,0-.02,0-.04-.01-.06.16-.16.32-.32.49-.47l1.33-1.23c.13-.12.14-.32.02-.45-.12-.13-.32-.14-.45-.02l-1.33,1.23c-.24.22-.51.47-.75.75-.09.11-.1.26-.03.37-.44.49-.86,1.03-.92,1.71v.07c0,.05-.02.13-.03.15-.02.04-.13.09-.2.13-.18.09-.46.23-.51.56-.04.25.08.44.17.58.03.05.08.12.08.15,0,.02-.08.09-.13.13-.12.11-.27.25-.32.47-.03.14-.02.26,0,.36,0,.05.01.1,0,.12,0,.03-.04.08-.07.12l-.02.03c-.12.2-.21.4-.29.6-.21.5-.38,1.02-.53,1.54-.15.55-.26,1.11-.36,1.65-.22,1.1-.46,2.34-.28,3.55.02.16.16.28.32.28ZM387.29,135.78s0,0,0,0c0,0,0,0,0,0Z" fill="#ee2e45"/><path d="M389.31,132.98c.25,0,.47-.1.61-.16.16-.07.23-.26.16-.42s-.26-.23-.42-.16c-.28.13-.37.12-.43.08-.01-.01-.04-.04-.06-.06-.05-.06-.12-.13-.23-.19-.23-.12-.46-.07-.63-.03-.04,0-.08.02-.13.03h0c0-.07-.04-.15-.09-.2-.09-.09-.23-.12-.35-.07-.1.04-.23.1-.32.09,0,0-.01,0-.02,0,0-.13-.06-.25-.17-.31-.13-.07-.29-.04-.38.07-.05.05-.14.07-.23.06-.09-.02-.17-.07-.2-.14-.04-.11-.14-.19-.26-.2-.12-.01-.23.04-.3.14-.02.03-.04.05-.07.08-.07-.1-.17-.18-.28-.23-.13-.06-.29-.02-.38.09l-.08.1-.09-.15c-.05-.09-.15-.15-.25-.15-.1,0-.21.04-.27.12-.03.04-.1.06-.17.06-.07,0-.13-.04-.16-.08-.05-.09-.15-.14-.25-.15-.1,0-.2.03-.27.11l-.06.08s0-.02-.01-.03c-.04-.12-.14-.2-.27-.21-.12-.02-.24.04-.31.15-.1.16-.19.24-.27.26-.01,0-.03,0-.05-.01,0-.13-.08-.24-.2-.29-.14-.05-.29,0-.37.11-.09.13-.21.21-.27.23,0,0,0,0,0-.01-.15-.24-.34-.33-.57-.26-.13.04-.23.13-.31.25,0,0,0,0,0,0-.02-.11-.1-.2-.21-.24-.12-.04-.25,0-.33.08l-.24.25c-.13-.06-.29-.09-.45-.07-.15.02-.28.07-.38.15-.18-.05-.36-.01-.49.04-.02.01-.05.02-.07.03-.04.02-.1.05-.14.06,0,0,0,0,0,0-.04-.03-.1-.08-.18-.12-.33-.14-.58.1-.72.23h0s-.06-.04-.1-.06c-.12-.05-.25-.02-.34.07l-.14.14c-.13.12-.13.33,0,.45.1.1.26.12.38.06.2.05.44,0,.6-.15l.04-.04s.05-.05.07-.07c.02.02.05.04.09.06.27.15.55.03.71-.05l.06-.03s.01,0,.02,0c.05.09.15.15.26.15.16,0,.3-.1.33-.25,0,0,.03-.03.09-.04.05,0,.09,0,.1.02.05.09.14.16.24.17.1.02.21-.02.28-.09l.2-.21c.07.04.15.08.24.09.2.04.4-.02.53-.15.12.12.27.19.44.18.17,0,.33-.08.47-.18.16.12.38.16.57.12.15-.03.27-.1.37-.19.06.06.13.11.2.15.13.08.31.05.41-.07l.08-.1c.11.06.23.09.36.1.12,0,.25-.01.36-.05l.15.25c.05.09.15.15.25.15.1,0,.2-.04.27-.12l.1-.12s.03.04.05.06c.07.06.15.08.24.07.16-.02.31-.07.44-.15.12.09.26.15.41.18.15.03.3.02.43-.02.1.11.25.18.4.21.12.02.24,0,.34-.02.14.15.38.23.6.21.06,0,.12-.02.18-.04.06-.01.15-.04.18-.03,0,0,.04.04.06.06.04.04.08.09.14.14.15.12.32.16.47.16ZM377.77,132.17h0s0,0,0,0Z" fill="#ee2e45"/><path d="M387.75,134.56c-.97.91-1.97,1.87-2.37,3.18-.21.7-.29,1.43-.44,2.15-.16.73-.45,1.42-.75,2.11-.11.25-.54.07-.44-.19.77-2,1.55-4.01,2.32-6.01.11-.28.56-.17.46.13-.21.64-.48,1.26-.8,1.85l-.42-.24c.55-.83,1.04-1.7,1.48-2.6.08-.17.41-.15.44.06.11.82-.2,1.57-.54,2.31-.37.79-.75,1.58-1.12,2.37-.11.23-.44.1-.45-.12s.01-.43.06-.64c.05-.22.42-.23.46,0,.09.49-.68.49-.62-.02.03-.22.17-.45.28-.64.12-.23.27-.44.43-.65.07-.1.18-.15.3-.1.1.04.19.17.14.28-.41,1.01-.83,2.01-1.24,3.02-.12.28-.58.16-.46-.13.41-1.01.83-2.01,1.24-3.02l.44.19c-.14.18-.26.36-.37.55-.05.09-.1.18-.15.28-.02.04-.04.08-.06.13-.02.03-.03.06-.04.09-.03.11-.14.11-.3-.02l-.02.19v-.03h.46c-.04.17-.05.34-.04.51l-.45-.12c.34-.72.68-1.44,1.02-2.16.31-.66.7-1.39.59-2.14l.44.06c-.43.9-.93,1.77-1.48,2.6-.17.26-.56.03-.42-.24.3-.56.55-1.14.75-1.74l.46.13c-.77,2-1.55,4.01-2.32,6.01l-.44-.19c.31-.72.59-1.44.74-2.21.14-.72.22-1.45.47-2.14.45-1.3,1.45-2.27,2.43-3.19.23-.21.57.13.34.34h0Z" fill="#ee2e45"/><path d="M387.42,132.81c-2.76-.31-5.55-.38-8.32-.2-.31.02-.31-.46,0-.48,1.09-.07,2.18-.14,3.27-.22l1.59-.11c.52-.03,1.05-.11,1.56.04.28.08.19.44-.06.47-.7.08-1.4.1-2.1.04-.3-.02-.31-.48,0-.48,1.37-.01,2.74.1,4.1.34.23.04.23.42,0,.46-1.33.24-2.68.23-4.03.18s-2.76-.13-4.14-.19c-.26-.01-.34-.42-.06-.47.65-.12,1.32.03,1.97.08.69.05,1.39.09,2.08.1,1.38.03,2.75-.03,4.12-.16.27-.03.33.42.06.47-2.48.44-5.02.44-7.5-.01-.3-.06-.18-.52.13-.46,2.39.43,4.85.44,7.24.01l.06.47c-1.34.13-2.69.18-4.04.16-.67-.01-1.34-.04-2-.09-.34-.03-.68-.06-1.02-.09s-.66-.08-.98-.02l-.06-.47c1.35.06,2.71.13,4.06.18s2.66.08,3.98-.16v.46c-1.31-.23-2.64-.33-3.97-.32v-.48c.7.06,1.41.04,2.1-.04l-.06.47c-.48-.14-1.02-.05-1.51-.01l-1.59.11c-1.06.07-2.13.14-3.19.21v-.48c2.77-.18,5.56-.11,8.32.2.3.03.31.52,0,.48h0Z" fill="#ee2e45"/><path d="M380.25,136.13c.06,1.72.66,3.38,1.68,4.76l-.45.12c-.04-.45-.2-.87-.37-1.29-.17-.42-.34-.84-.54-1.25-.37-.75-.96-1.4-1.24-2.19-.1-.29.36-.42.46-.13.14.4.39.75.62,1.1.25.38.47.77.66,1.18s.36.82.52,1.23c.18.44.32.88.36,1.35.02.26-.32.29-.45.12-1.08-1.45-1.68-3.21-1.75-5.01-.01-.31.47-.31.48,0h0Z" fill="#ee2e45"/><path d="M379.61,135.32c.88.9,1.22,2.14,1.55,3.32.19.68.38,1.37.5,2.07.1.57.06,1.32.43,1.79l-.38.05c.14-.26.1-.55.02-.82-.08-.29-.19-.58-.29-.87-.21-.61-.43-1.22-.66-1.82-.46-1.19-.99-2.36-1.68-3.44-.17-.26.25-.5.42-.24.74,1.16,1.3,2.41,1.78,3.69.24.64.47,1.28.69,1.93.2.58.46,1.23.14,1.82-.07.12-.28.17-.38.05-.39-.49-.42-1.07-.5-1.67-.1-.72-.28-1.42-.47-2.12-.33-1.19-.62-2.49-1.51-3.4-.22-.22.12-.56.34-.34h0Z" fill="#ee2e45"/><path d="M382.27,141.67c.08.26.17.52.21.79.04.24.02.49.06.74s.14.47.18.72c.04.28.02.55-.06.82-.09.3-.55.17-.46-.13.07-.24.09-.48.03-.72-.05-.23-.13-.44-.16-.68s-.02-.45-.05-.67c-.04-.25-.12-.49-.2-.73-.1-.3.37-.42.46-.13h0Z" fill="#ee2e45"/><path d="M383.78,149.95c0,.24.03.49.01.73s-.1.49-.35.56c-.27.07-.5-.12-.59-.36s.02-.47.14-.67c.03-.05.06-.09.09-.14.02-.03.03-.05.05-.08,0,0,.03-.07.02-.05.03-.06.05-.13.06-.19,0-.01,0-.02,0-.04,0,0,0-.05,0-.03,0,.03,0-.03,0-.03,0-.02,0-.04,0-.06,0-.13.11-.25.24-.24.13,0,.25.11.24.24,0,.27-.09.53-.23.76-.03.05-.07.1-.1.15-.01.02-.02.04-.03.06,0,0-.04.09-.02.04-.01.03-.02.06-.03.08-.01.05,0-.03,0,.02,0,.03,0,.03,0,0,0,.01,0,.03,0,.04,0,.03,0,.02,0,0,0,0,0,.02.01.03.03.05-.02,0,.01.02,0,0,.02.02.03.03-.03-.02-.03-.02,0,0-.03-.01-.04-.01-.02,0,.02,0,.01,0-.02,0,.03,0,.02,0-.01,0,.03,0,.02,0,0,0,.02-.01.02-.01,0,0,.02-.02.02-.01,0,.01,0-.01.02-.03.03-.04-.03.06,0,0,0-.03,0-.01,0-.02,0-.04,0,.03,0,.04,0,.02,0-.11,0-.23,0-.35,0-.14,0-.28,0-.42,0-.13.11-.25.24-.24s.24.11.24.24h0Z" fill="#ee2e45"/><path d="M388.19,134.01c-1.19.43-1.95,1.59-2.38,2.73-.54,1.44-.68,2.99-1.24,4.42-.11.28-.57.17-.46-.13.27-.74.55-1.48.82-2.22s.52-1.46.82-2.18c.27-.65.62-1.24,1.09-1.76s1.01-.97,1.55-1.41c.17-.14.39-.04.41.17,0,.08,0,.15-.04.22-.02.03-.04.06-.06.09-.04.06-.04.06-.01,0l-.11-.14h.03c-.06,0-.12,0-.19,0l-.1.16.12.21-.02-.02c-.24-.19,0-.6.24-.42.12.09.18.22.11.37-.05.1-.17.17-.28.17-.13,0-.25-.11-.28-.24-.02-.08,0-.16.03-.23.02-.04.09-.12.09-.16l.41.17c-.51.42-1.03.84-1.48,1.33-.48.52-.83,1.11-1.09,1.76-.57,1.4-1.06,2.84-1.59,4.26l-.46-.13c.86-2.17.81-4.77,2.52-6.54.41-.42.89-.74,1.44-.94.29-.11.42.36.13.46h0Z" fill="#ee2e45"/><path d="M388.16,132.88c-1.66.1-3.32.1-4.98,0-.8-.05-1.6-.14-2.4-.17-.83-.03-1.66,0-2.48.07v-.48c1.53.14,3.06.29,4.59.4s2.97.11,4.42-.23l.13.46c-2.48.36-5,.3-7.47-.17-.3-.06-.18-.52.13-.46,2.37.45,4.82.51,7.21.17.3-.04.44.39.13.46-1.46.35-2.98.35-4.47.26s-3.11-.26-4.67-.4c-.31-.03-.31-.45,0-.48.82-.08,1.65-.1,2.48-.07.8.03,1.6.12,2.4.17,1.66.11,3.32.11,4.98,0,.31-.02.31.46,0,.48h0Z" fill="#ee2e45"/><path d="M379.55,134.84c.92,1.07,1.3,2.43,1.57,3.79.15.75.28,1.5.48,2.24.1.37.22.74.38,1.09.15.33.32.64.46.97.15.36.25.71.29,1.09.04.31.05.66.31.87l-.41.17c0-1.15-.94-2.08-.85-3.26.02-.22.33-.35.45-.12.4.8.51,1.71.31,2.59l-.4-.23c.41-.43.11-1.24-.03-1.72-.18-.66-.38-1.32-.59-1.97-.38-1.2-.81-2.4-1.45-3.5-.36-.62-.78-1.19-1.29-1.69-.22-.22.12-.56.34-.34.97.97,1.64,2.17,2.15,3.42.54,1.31.96,2.69,1.32,4.07.18.67.41,1.51-.13,2.08-.17.18-.46,0-.4-.23.18-.75.09-1.53-.26-2.22l.45-.12c-.09,1.16.85,2.1.85,3.26,0,.22-.26.3-.41.17-.49-.4-.38-1.09-.53-1.64-.19-.71-.62-1.34-.86-2.03-.49-1.4-.59-2.9-1.03-4.31-.23-.75-.56-1.47-1.07-2.06-.2-.23.14-.58.34-.34h0Z" fill="#ee2e45"/><path d="M383.07,144.93c.03.39-.13.75-.19,1.13s-.04.74.02,1.1c.02.13-.03.26-.17.3-.12.03-.27-.04-.3-.17-.07-.4-.09-.8-.05-1.2.02-.2.06-.4.11-.59s.09-.37.08-.57c0-.13.12-.24.24-.24.14,0,.23.11.24.24h0Z" fill="#ee2e45"/><path d="M384.28,141.86c-.08.77-.16,1.55-.24,2.32-.03.3-.48.32-.48,0,0-.8.11-1.6.31-2.38.06-.26.48-.21.47.06-.05,1.17-.2,2.34-.45,3.48-.07.3-.53.17-.46-.13.24-1.1.39-2.23.43-3.36l.47.06c-.18.74-.28,1.49-.29,2.25h-.48c.08-.77.16-1.55.24-2.32.03-.3.51-.31.48,0h0Z" fill="#ee2e45"/><path d="M419.29,139.89c-.2-.13-.45-.17-.69-.19-1.46-.14-2.93-.12-4.39.04-1.29.14-2.62.42-3.68,1.18-1.4,1.01-2.15,2.84-1.86,4.54.13.76.48,1.52,1.13,1.93.43.27.95.37,1.45.44,1.53.22,3.11.27,4.62-.07s2.96-1.1,3.93-2.31c.21-.26.4-.55.51-.86.16-.45.15-.95.2-1.42.08-.64.28-1.27.59-1.84-.27-.08-.58-.05-.83.08,0-.31.07-.61.19-.89-.62.09-.71-.33-1.17-.64Z" fill="#643f92"/><path d="M348.01,140.17c.2-.13.45-.17.69-.19,1.46-.14,2.93-.12,4.39.04,1.29.14,2.62.42,3.68,1.18,1.4,1.01,2.15,2.84,1.86,4.54-.13.76-.48,1.52-1.13,1.93-.43.27-.95.37-1.45.44-1.53.22-3.11.27-4.62-.07-1.51-.34-2.96-1.1-3.93-2.31-.21-.26-.4-.55-.51-.86-.16-.45-.15-.95-.2-1.42-.08-.64-.28-1.27-.59-1.84.27-.08.58-.05.83.08,0-.31-.07-.61-.19-.89.62.09.71-.33,1.17-.64Z" fill="#643f92"/><path d="M264.31,74.22c-3.3-2.49-5.37-7.71-6.67-11.88-1.51-4.61-4.1-7.07-4.76-7.64l-.31-.24c-5.75-4.46-6.8-12.81-2.34-18.55h0c4.46-5.75,12.81-6.8,18.55-2.34l.15.12s3.18,2.47,8.74,2.82c4.36.23,9.94.93,13.17,3.51,3.3,2.49,5.33,7.59,6.63,11.76,1.77,5.25,5.67,8.45,5.67,8.45l2.46,1.91c5.75,4.46,6.8,12.81,2.34,18.55h0c-4.46,5.75-12.81,6.8-18.55,2.34l-2.58-2c-.71-.49-4.5-2.94-9.47-3.3-4.36-.23-9.81-.92-13.04-3.5Z" fill="#fff" stroke="#643f92" stroke-miterlimit="10"/><polygon points="301.66 59.15 301.82 58.94 269.74 34.06 269.58 34.26 301.66 59.15" fill="#643f92"/><polygon points="285.34 80.18 285.5 79.98 253.43 55.09 253.27 55.3 285.34 80.18" fill="#643f92"/><circle cx="288.93" cy="42.76" r="1.61" fill="#e7374c"/><circle cx="265.66" cy="70.41" r="1.61" fill="#e7374c"/><circle cx="265.66" cy="70.41" r=".77" fill="#fff"/><g clip-path="url(#clippath)"><path d="M309.16,70.93c-.41.47-1.05.64-1.65.47-.6-.17-1.33-.73-1.28-1.41.04-.53.39-1.07.75-1.45.56-.61,1.44-.55,2.05-.04.77.65.77,1.72.14,2.42Z" fill="#ffae00"/><path d="M301.6,65.28c-.41.47-1.05.64-1.65.47-.6-.17-1.33-.73-1.28-1.41.04-.53.39-1.07.75-1.45.56-.61,1.44-.55,2.05-.04.77.65.77,1.72.14,2.42Z" fill="#ffae00"/><path d="M293.5,59.21c-.41.47-1.05.64-1.65.47-.6-.17-1.33-.73-1.28-1.41.04-.53.39-1.07.75-1.45.56-.61,1.44-.55,2.05-.04.77.65.77,1.72.14,2.42Z" fill="#ffae00"/><path d="M285.93,53.56c-.41.47-1.05.64-1.65.47-.6-.17-1.33-.73-1.28-1.41.04-.53.39-1.07.75-1.45.56-.61,1.44-.55,2.05-.04.77.65.77,1.72.14,2.42Z" fill="#ffae00"/><path d="M277.83,47.49c-.41.47-1.05.64-1.65.47-.6-.17-1.33-.73-1.28-1.41.04-.53.39-1.07.75-1.45.56-.61,1.44-.55,2.05-.04.77.65.77,1.72.14,2.42Z" fill="#ffae00"/><path d="M270.27,41.84c-.41.47-1.05.64-1.65.47-.6-.17-1.33-.73-1.28-1.41.04-.53.39-1.07.75-1.45.56-.61,1.44-.55,2.05-.04.77.65.77,1.72.14,2.42Z" fill="#ffae00"/><path d="M262.49,37.28c-.41.47-1.05.64-1.65.47-.6-.17-1.33-.73-1.28-1.41.04-.53.39-1.07.75-1.45.56-.61,1.44-.55,2.05-.04.77.65.77,1.72.14,2.42Z" fill="#ffae00"/><path d="M254.92,30.36c-.41.47-1.05.64-1.65.47-.6-.17-1.33-.73-1.28-1.41.04-.53.39-1.07.75-1.45.56-.61,1.44-.55,2.05-.04.77.65.77,1.72.14,2.42Z" fill="#ffae00"/><path d="M310.04,78.33c-.41.47-1.05.64-1.65.47-.6-.17-1.33-.73-1.28-1.41.04-.53.39-1.07.75-1.45.56-.61,1.44-.55,2.05-.04.77.65.77,1.72.14,2.42Z" fill="#ffae00"/><path d="M302.47,72.67c-.41.47-1.05.64-1.65.47-.6-.17-1.33-.73-1.28-1.41.04-.53.39-1.07.75-1.45.56-.61,1.44-.55,2.05-.04.77.65.77,1.72.14,2.42Z" fill="#ffae00"/><path d="M294.37,66.61c-.41.47-1.05.64-1.65.47-.6-.17-1.33-.73-1.28-1.41.04-.53.39-1.07.75-1.45.56-.61,1.44-.55,2.05-.04.77.65.77,1.72.14,2.42Z" fill="#ffae00"/><path d="M286.81,60.95c-.41.47-1.05.64-1.65.47-.6-.17-1.33-.73-1.28-1.41.04-.53.39-1.07.75-1.45.56-.61,1.44-.55,2.05-.04.77.65.77,1.72.14,2.42Z" fill="#ffae00"/><path d="M278.7,54.89c-.41.47-1.05.64-1.65.47-.6-.17-1.33-.73-1.28-1.41.04-.53.39-1.07.75-1.45.56-.61,1.44-.55,2.05-.04.77.65.77,1.72.14,2.42Z" fill="#ffae00"/><path d="M271.14,49.23c-.41.47-1.05.64-1.65.47-.6-.17-1.33-.73-1.28-1.41.04-.53.39-1.07.75-1.45.56-.61,1.44-.55,2.05-.04.77.65.77,1.72.14,2.42Z" fill="#ffae00"/><path d="M263.36,43.41c-.41.47-1.05.64-1.65.47-.6-.17-1.33-.73-1.28-1.41.04-.53.39-1.07.75-1.45.56-.61,1.44-.55,2.05-.04.77.65.77,1.72.14,2.42Z" fill="#ffae00"/><path d="M255.8,37.75c-.41.47-1.05.64-1.65.47-.6-.17-1.33-.73-1.28-1.41.04-.53.39-1.07.75-1.45.56-.61,1.44-.55,2.05-.04.77.65.77,1.72.14,2.42Z" fill="#ffae00"/><path d="M303.02,79.15c-.41.47-1.05.64-1.65.47-.6-.17-1.33-.73-1.28-1.41.04-.53.39-1.07.75-1.45.56-.61,1.44-.55,2.05-.04.77.65.77,1.72.14,2.42Z" fill="#ffae00"/><path d="M295.46,73.49c-.41.47-1.05.64-1.65.47-.6-.17-1.33-.73-1.28-1.41.04-.53.39-1.07.75-1.45.56-.61,1.44-.55,2.05-.04.77.65.77,1.72.14,2.42Z" fill="#ffae00"/><path d="M287.35,67.43c-.41.47-1.05.64-1.65.47-.6-.17-1.33-.73-1.28-1.41.04-.53.39-1.07.75-1.45.56-.61,1.44-.55,2.05-.04.77.65.77,1.72.14,2.42Z" fill="#ffae00"/><path d="M279.79,61.77c-.41.47-1.05.64-1.65.47-.6-.17-1.33-.73-1.28-1.41.04-.53.39-1.07.75-1.45.56-.61,1.44-.55,2.05-.04.77.65.77,1.72.14,2.42Z" fill="#ffae00"/><path d="M271.69,55.71c-.41.47-1.05.64-1.65.47-.6-.17-1.33-.73-1.28-1.41.04-.53.39-1.07.75-1.45.56-.61,1.44-.55,2.05-.04.77.65.77,1.72.14,2.42Z" fill="#ffae00"/><path d="M264.12,50.05c-.41.47-1.05.64-1.65.47-.6-.17-1.33-.73-1.28-1.41.04-.53.39-1.07.75-1.45.56-.61,1.44-.55,2.05-.04.77.65.77,1.72.14,2.42Z" fill="#ffae00"/><path d="M256.34,44.23c-.41.47-1.05.64-1.65.47-.6-.17-1.33-.73-1.28-1.41.04-.53.39-1.07.75-1.45.56-.61,1.44-.55,2.05-.04.77.65.77,1.72.14,2.42Z" fill="#ffae00"/><path d="M248.78,38.57c-.41.47-1.05.64-1.65.47-.6-.17-1.33-.73-1.28-1.41.04-.53.39-1.07.75-1.45.56-.61,1.44-.55,2.05-.04.77.65.77,1.72.14,2.42Z" fill="#ffae00"/><path d="M303.89,86.54c-.41.47-1.05.64-1.65.47-.6-.17-1.33-.73-1.28-1.41.04-.53.39-1.07.75-1.45.56-.61,1.44-.55,2.05-.04.77.65.77,1.72.14,2.42Z" fill="#ffae00"/><path d="M296.33,80.88c-.41.47-1.05.64-1.65.47-.6-.17-1.33-.73-1.28-1.41.04-.53.39-1.07.75-1.45.56-.61,1.44-.55,2.05-.04.77.65.77,1.72.14,2.42Z" fill="#ffae00"/><path d="M288.23,74.82c-.41.47-1.05.64-1.65.47-.6-.17-1.33-.73-1.28-1.41.04-.53.39-1.07.75-1.45.56-.61,1.44-.55,2.05-.04.77.65.77,1.72.14,2.42Z" fill="#ffae00"/><path d="M280.66,69.16c-.41.47-1.05.64-1.65.47-.6-.17-1.33-.73-1.28-1.41.04-.53.39-1.07.75-1.45.56-.61,1.44-.55,2.05-.04.77.65.77,1.72.14,2.42Z" fill="#ffae00"/><path d="M272.56,63.1c-.41.47-1.05.64-1.65.47-.6-.17-1.33-.73-1.28-1.41.04-.53.39-1.07.75-1.45.56-.61,1.44-.55,2.05-.04.77.65.77,1.72.14,2.42Z" fill="#ffae00"/><path d="M265,57.44c-.41.47-1.05.64-1.65.47-.6-.17-1.33-.73-1.28-1.41.04-.53.39-1.07.75-1.45.56-.61,1.44-.55,2.05-.04.77.65.77,1.72.14,2.42Z" fill="#ffae00"/><path d="M257.22,51.62c-.41.47-1.05.64-1.65.47-.6-.17-1.33-.73-1.28-1.41.04-.53.39-1.07.75-1.45.56-.61,1.44-.55,2.05-.04.77.65.77,1.72.14,2.42Z" fill="#ffae00"/><path d="M249.65,45.96c-.41.47-1.05.64-1.65.47-.6-.17-1.33-.73-1.28-1.41.04-.53.39-1.07.75-1.45.56-.61,1.44-.55,2.05-.04.77.65.77,1.72.14,2.42Z" fill="#ffae00"/></g></svg>