<svg id="Calque_1" data-name="Calque 1" xmlns="http://www.w3.org/2000/svg" viewBox="0 0 1563.54 1081.19"><defs><style>.cls-1{fill:#ffb27d;}.cls-2{fill:#ffe4dd;}.cls-3{fill:#fff;}.cls-4{fill:#ff9a00;}.cls-5{fill:#c65447;}.cls-6{fill:#9e223e;}.cls-7{fill:#77122a;}.cls-8{fill:#5b2d0f;}.cls-9{fill:#d9935c;}.cls-10{fill:#cb7d45;}.cls-11{fill:#eaeaea;}.cls-12{fill:#e58638;}.cls-13{fill:#ea7f3b;}.cls-14{fill:#f49750;}.cls-15{fill:#ec9455;}.cls-16{fill:#ffb665;}.cls-17{fill:#e9364b;}</style></defs><path class="cls-1" d="M414.72,551.37s33.09,11.44,28.44,49.55c0,0-3.06,15.47-12.58,8.61s-5.07-5.59-18.67-15S389.42,570.38,391,558.63Z"/><path class="cls-2" d="M416.23,553.82l-19.6,23.78a3.93,3.93,0,0,1-3.76,1.36c-18.37-3.37-81.61-44.13-102.32-60.77a61.18,61.18,0,0,1-5.12-4.47c-7.73-7.87-34.36-46.7-53.26-81.27C221.29,412.53,213,394,212.31,383.66c-2.36-37,17.11-88.78,17.11-88.78,57.6,20.05,63.66,66,63.66,66L325,479.75l90.44,67.6A4.49,4.49,0,0,1,416.23,553.82Z"/><path class="cls-1" d="M257.36,860.58l-9.79,40.83-6.06,25.28-20.17,84.12s-17.27,5.32-35.21,0a306.84,306.84,0,0,1-6.84-62.56c-.1-18.16,1.56-38.21,6.87-57.14a130.82,130.82,0,0,1,8.41-22.34C223,810.64,257.36,860.58,257.36,860.58Z"/><path class="cls-3" d="M274.08,1035.39h-94.8s-1.5-14.35,2.68-28.07a47.48,47.48,0,0,1,2.25-6s21.17,4.79,39.41,0c0,0,17.16,14.61,27.54,19.09S273,1022.44,274.08,1035.39Z"/><path class="cls-1" d="M181.8,860.58,172,901.41,166,926.69l-20.18,84.12s-17.27,5.32-35.21,0a306.84,306.84,0,0,1-6.84-62.56c-.11-18.16,1.57-38.21,6.87-57.14A130.82,130.82,0,0,1,119,868.77C147.46,810.64,181.8,860.58,181.8,860.58Z"/><path class="cls-3" d="M108.64,1001.29s21.16,4.81,39.42,0c0,0,17.16,14.62,27.53,19.1s21.83,2.05,22.92,15h-94.8S101.73,1016.47,108.64,1001.29Z"/><path class="cls-4" d="M277.14,898.71A19.31,19.31,0,0,1,258.49,913h-152a19.62,19.62,0,0,1-19.58-21.14c1.59-20.7,7.29-54.52,9.78-77.35,1-9.49,1.5-17.08.91-21-15.35-101.53-28.22-221.11-26.66-244,.22-3.22.38-4.88.38-4.88s11.07-.93,27.91-1.59c49-1.93,146.66-1.59,162.9,30.42,16.54,32.61,26.52,249.13,26.52,249.13C291.07,842.79,282.53,878.77,277.14,898.71Z"/><path class="cls-3" d="M171.88,144.22c0-11.27,7.05-20.83,19.2-17.8,10.93,2.74,21.6,2.61,21.6,13.88s-9.13,24.32-20.4,24.32A20.4,20.4,0,0,1,171.88,144.22Z"/><path class="cls-3" d="M184.81,243.24s-63.26-57-6-97.3c0,0,17.08-4.56,25.77-2.93,0,0,31.13-9.11,49.34,12s26.13,36.43,10.52,55.29S184.81,243.24,184.81,243.24Z"/><path class="cls-1" d="M112.22,587.32s15.62,31.33-14.4,55.28c0,0-13,8.9-15-2.67s.31-7.53-2.84-23.76.88-33,10.22-40.3Z"/><path class="cls-1" d="M236.63,242.71s-.78,8.53-2.23,20.06c-.7,5.63-1.57,12-2.58,18.41-.72,4.61-1.52,9.26-2.4,13.7L209.84,361l-46-74.43s10.81-8.94,25.45-57.4c.14-.51.24-.79.24-.79Z"/><path class="cls-2" d="M263.42,569c.6,7.44-1.28,8.79-1.28,8.79s-28.28,10.25-99.4,6.7c-7.69-.38-14.94-.77-21.71-1.17-45.83-2.71-70.34-5.53-70.34-5.53s-37.54-86.65,33-193.4A342.69,342.69,0,0,1,132,347.53c11.42-13,13.94-30.45,18.27-47,1.23-4.75-2.34-5.8-.56-10.28,0,0,12.86-3.64,14.19-3.64,7.3,6.44,16.94,18.95,40.85,21.42,16.17,1.69,22.5-7.42,24.8-12.88,6.17,2.22,12.55,6.07,17.79,8.58,43.33,20.81,47.31,61.16,47.31,61.16s-39.82,130.94-42.3,147.29C251.2,519.44,260.34,530.75,263.42,569Z"/><path class="cls-1" d="M244.84,269.32s-56.25,1.8-56.83-33.24-8.24-58.41,27.65-61.05,43.08,10.62,46.12,22.27S259.45,267.94,244.84,269.32Z"/><path class="cls-3" d="M249.75,169.78s-3.53,58.51-72.1,52.23C177.65,222,179.11,141,249.75,169.78Z"/><path class="cls-5" d="M236.63,175.6s19.21,23.78,27.92,31.36C264.55,207,285.93,176.3,236.63,175.6Z"/><path class="cls-3" d="M233.63,173.6s22.26,29.15,31,36.74c1.74-2.68,24.26-36-26-36.74Z"/><path class="cls-2" d="M163.85,286.6s-54.41,11.17-78.65,39.24C66.62,347.35,46.3,452.51,46.3,469.89c0,16.6,19.09,104.89,31,121.81a4,4,0,0,0,3.64,1.68l30.64-3.25a4.51,4.51,0,0,0,4-5.17L98.34,473.36l60.44-107.18S194.41,323.94,163.85,286.6Z"/><path class="cls-6" d="M397.28,1005.18s4.61,9,14.82,11.22a25.56,25.56,0,0,1,15.37,9.44,6,6,0,0,1-4.82,9.55H370.81a7.44,7.44,0,0,1-7.41-8.2c.38-3.84.79-8.32,1-11.75.39-7.48,7.88-13.51,7.88-13.51Z"/><path class="cls-2" d="M409,874.44c2.17,39.42-3.21,129-3.21,129s-3.62,10-26.44,12.37a68.2,68.2,0,0,1-23.23-1.9q-6.92-31.8-12.79-60.72C315.17,815,304.18,729.58,304.18,729.58l111.23-25.86s-4.87,78-6.3,131.27C408.66,851.6,408.55,865.8,409,874.44Z"/><path class="cls-6" d="M303.58,525s-43-19.59-75.6-2.45-12.66,158.6,33.91,172.31h0S349.12,722.72,303.58,525Z"/><path class="cls-1" d="M428.09,736.7h0a5.7,5.7,0,0,0-.42-.55c-1.78-2.71-5.66-12.42-5.66-12.42l-7,9.15c-.18.2-2.94-2-3.09-1.73l.68,23.66,6.95-1.64a5.29,5.29,0,0,0,.87-.31h0a4.94,4.94,0,0,0,2.11-1.85l5.61-8.89A5,5,0,0,0,428.09,736.7Z"/><path class="cls-1" d="M396,503s13.71,0,21.9,19.31c17,39.93,9.59,126.14,8.56,138.48,0,0,5.83,24.51-2.83,66.89l-11.28,6.69s-17.38-167.48-15.26-184S396,503,396,503Z"/><path class="cls-6" d="M307,1005.18s4.61,9,14.83,11.22a25.59,25.59,0,0,1,15.37,9.44,6,6,0,0,1-4.82,9.55H280.57a7.45,7.45,0,0,1-7.42-8.2c.39-3.84.79-8.32,1-11.75.38-7.48,7.88-13.51,7.88-13.51Z"/><path class="cls-6" d="M343.1,345c-11.09,0-25,4.77-32.49,12-7.94,7.71-16.19,8.11-22.07,17.21-6.14,9.5-9.93,19.36-6.85,32.72,3.36,14.59,2.68,28.7,11.84,39.41,4.54,5.31,11.93,5.9,17.08,10.78,9.46,8.94,20.22,11.77,32.49,11.77,23.13,0,37.52-13.7,49.36-30.77,9.49-13.68,7.61-22.9,9.83-34.61C409.29,366.71,378.57,345,343.1,345Z"/><path class="cls-1" d="M375.66,493.46l-44.21,22.6-8.86-30.68s5.63-10.61,8.18-28a116.5,116.5,0,0,0,.91-25.25l36,18.45a68.55,68.55,0,0,0-1.44,8.24,60.09,60.09,0,0,0,.63,19.28C368.2,483.94,370.81,489.52,375.66,493.46Z"/><path class="cls-2" d="M273.23,715.72s-8.4,111.42-6.53,289a68.43,68.43,0,0,0,22.37,6.55c22.84,2.27,28.4-6.78,28.4-6.78s23.35-86.66,29.19-125.71c5.38-36,40.73-165.91,40.73-165.91Z"/><path class="cls-4" d="M404.89,496.55c-3.93-1.84-16.26-6.78-34.82-9.83.2,6.35-1.5,12.28-12.65,13.74-14.84,1.94-28.11-8.19-34.83-15.07h0s-10.46,1.13-22.66,3.8a141.51,141.51,0,0,0-18.52,5.24c-7.13,2.62-13.29,5.89-16.58,9.92h0c-11.42,14-30.21,56.21-30.21,56.21s31.28,11.6,39.16,18.36l.18,1.51,4.9,40.64L264.28,702a12.73,12.73,0,0,0-.19,2.11,11.94,11.94,0,0,0,9.14,11.59s1.25.21,3.56.53c15.45,2.17,78.18,9.65,127.36-3.7a23.88,23.88,0,0,0,17.43-25l-8-100.61c4.28-.74,9.22-1.52,13.23-2,3.34-.37,6-.49,7.14-.16C433.93,584.82,428.37,506.25,404.89,496.55Z"/><path class="cls-6" d="M266.89,687.56l3.78-21c64.11-92.76,69-109.4,40.14-151-8.26-11.93-23.28-19.38-29.4-21.07a141.51,141.51,0,0,1,18.52-5.24c6.08,2.85,11.68,5.66,16,9.42C403.94,574.78,266.89,687.56,266.89,687.56Z"/><path class="cls-1" d="M304.67,599.56c1.59-.12,8.51-3.59,8.51-3.59s3.47-25.72,28.57-27.45c0,0,10.46.06,8.31,7.2s-2.36,4-5.16,14.18S334.8,607.75,327,608.21l-8,2.15S300.49,599.86,304.67,599.56Z"/><path class="cls-1" d="M313.18,596s-42.13,3.83-48.35,6.59c0,0,3.42-9.24,9.49-23.22-5.49-5.4-23.54-13.43-35.49-17.12-9.12,23.25-12.62,46.28-7.51,68.47a5.37,5.37,0,0,0,5,4.13c13.48.63,58.21.41,90.7-26.9Z"/><path class="cls-1" d="M368.85,465.73s-45.26,5.51-46.23-26.37,17.9-52.54,30.49-52.31c25.11.47,29.25,10.62,32.16,21.18S389.68,463.48,368.85,465.73Z"/><path class="cls-6" d="M364.32,387.35s-38.68,0-29.79,26.53c5.6,16.73-13,19.34-13,19.34l-9-26.83,5.62-20.9Z"/><path class="cls-6" d="M1290.86,201.22s-37.33-1.87-38.38-23.41-31.88-37.25-23-54.54c11-21.21,1-41.6,14.79-55.86,15.23-15.71,34.48-7.18,44.63-16.33s28.72-17.59,47-6.29,32.29,5.23,44.32,16.12c13.3,12,8.26,27.18,19.23,35.4,10,7.54,6,28.14-2.52,44.88-6.1,12.06,8,23.37-16.18,37.24-10,5.77-7.87,20.29-38.39,22.79C1328.7,202.35,1298.87,195.91,1290.86,201.22Z"/><path class="cls-7" d="M1219.63,1030.5s0-15.11,2.16-20.14,10-25.49,10-25.49h30.88s5.74,18.67,6.1,24.77,0,20.86,0,20.86Z"/><path class="cls-7" d="M1415.67,1030.5s0-15.11-2.15-20.14-10.06-25.49-10.06-25.49h-30.87s-5.75,18.67-6.11,24.77,0,20.86,0,20.86Z"/><path class="cls-8" d="M1292,182.12s-1.08,33.65-5.39,48.73l-34.1,23.79,128.35,19.2-30.61-42.29s-9.24-45.12-4.39-61.82S1292,182.12,1292,182.12Z"/><path class="cls-8" d="M1318.86,201.22c-13.85-.25-39.34-18.69-39.34-41.53V124c0-8.34,5.81-15.16,12.92-15.16h52.85c7.11,0,12.92,6.82,12.92,15.16v33.63C1358.21,181.62,1334.75,201.5,1318.86,201.22Z"/><path class="cls-4" d="M1223.5,507s5.41,165-2.67,259.07.06,225.11.06,225.11,25.83,14.24,53.83,0c0,0,30.71-181.83,30.52-225.11-.21-46.08,33.42-251.88,33.42-251.88Z"/><path class="cls-4" d="M1414.55,991.21s-25.83,14.25-53.83,0c0,0-30.71-181.82-30.51-225.1.08-19.46-5.86-67.42-12.76-116.32-9.45-66.89-20.67-135.56-20.67-135.56l119.62-7.47s-9.86,165.24-1.78,259.35S1414.55,991.21,1414.55,991.21Z"/><path class="cls-3" d="M1393.85,239.53v.08a339.38,339.38,0,0,0-43.63-8.06c-11.91,15.83-20.46,19.5-31.35,23.81-17.53-2.43-32.29-24-32.29-24.51-19.09,2-32,5.46-37.2,7.09-1,.12-57,7.52-136.29,168.85,0,0,4.26,14.85,25.05,40.75,14.79,18.42,38,42.44,73.89,70.67a123.42,123.42,0,0,0,6.48-19s-21.36-41.56-34.22-69.71c-6.25-13.7-10.49-24.21-9.27-25.22,2.31-1.92,28.15-24.35,47.23-40.93-.15,4.14-.2,7.91-.1,11.18,1,36,2.49,71.07-2.15,109.86-6.11,51,4.23,50.07,4.23,50.07s13.91,2.73,33.32,5.3c17.56,2.35,39.61,4.58,59.9,4.58,46.53,0,97.52-9.88,97.52-9.88,14.68.19-4.11-91.34-6.86-146.41-.63-12.79-1.23-24.46-1.78-35.13,17.54,15.23,56.38,49,59.24,51.36,1.22,1-3,11.52-9.27,25.22-12.86,28.15-34.22,69.71-34.22,69.71a123.42,123.42,0,0,0,6.48,19c35.93-28.23,59.1-52.25,73.89-70.67,20.79-25.9,25-40.75,25-40.75C1447.5,243.94,1393.85,239.53,1393.85,239.53Z"/><path class="cls-8" d="M1214.25,501.28s19.38-17.95,27.28-7.9,9.34,25.85,3.23,24.77-18.67-6.82-20.46-3.94-9.84,8.36-12.28,4S1214.25,501.28,1214.25,501.28Z"/><path class="cls-8" d="M1218.51,499.23a123.42,123.42,0,0,1-6.48,19c-35.93-28.23-59.1-52.25-73.89-70.67,11.15-.83,27.42-4.81,46.15-18C1197.15,457.67,1218.51,499.23,1218.51,499.23Z"/><path class="cls-8" d="M1426.34,501.28s-19.39-17.95-27.29-7.9-9.33,25.85-3.23,24.77,18.67-6.82,20.47-3.94,9.83,8.36,12.27,4S1426.34,501.28,1426.34,501.28Z"/><path class="cls-8" d="M1422.08,499.23a123.42,123.42,0,0,0,6.48,19c35.93-28.23,59.1-52.25,73.89-70.67-11.15-.83-27.43-4.81-46.15-18C1443.43,457.67,1422.08,499.23,1422.08,499.23Z"/><path class="cls-6" d="M1279.52,138.5s9.61-29.35,41.11-24.77,34.23,11.3,37.58,19.11S1368,104.3,1368,104.3l-37.15-11s-45,5.12-48.2,12.66l-3.23,7.54Z"/><path class="cls-4" d="M1299.59,160.39c-5.44,0-16.32-1.21-18.22-10.66a8.53,8.53,0,0,1,1.56-7.35,10.12,10.12,0,0,1,8-3.38h16.72c3.18,0,5.4.91,6.6,2.71,2,3,.47,7.59-.29,9.41-2.6,6.22-6.19,9.12-11.28,9.13A27.79,27.79,0,0,1,1299.59,160.39Zm-8.7-20.29a9,9,0,0,0-7.11,3,7.52,7.52,0,0,0-1.34,6.44c1,4.84,4.62,7.94,10.83,9.2a33.1,33.1,0,0,0,9.28.44h.06c4.61,0,7.88-2.68,10.29-8.45.54-1.29,2.17-5.71.39-8.38-1-1.47-2.9-2.22-5.68-2.22Z"/><path class="cls-4" d="M1338.15,160.39a28,28,0,0,1-3.05-.14c-5.09,0-8.67-2.91-11.27-9.13-.76-1.82-2.31-6.37-.29-9.41,1.2-1.8,3.42-2.71,6.6-2.71h16.72a10.12,10.12,0,0,1,8,3.38,8.59,8.59,0,0,1,1.56,7.35C1354.47,159.18,1343.59,160.39,1338.15,160.39Zm-8-20.29c-2.79,0-4.7.75-5.69,2.22-1.77,2.67-.15,7.09.39,8.38,2.42,5.77,5.68,8.45,10.29,8.45h.07a33,33,0,0,0,9.27-.44c6.21-1.26,9.85-4.36,10.83-9.2a7.49,7.49,0,0,0-1.33-6.44,9,9,0,0,0-7.11-3Z"/><path class="cls-4" d="M1312.88,146.73a.68.68,0,0,1-.6-.39.66.66,0,0,1,.33-.87c.28-.13,6.83-3.06,12.64,0a.66.66,0,1,1-.61,1.16c-5.25-2.78-11.42,0-11.48,0A.67.67,0,0,1,1312.88,146.73Z"/><path class="cls-9" d="M1004.36,483.07c-42.59-10.84-89.42-76.93-89.42-76.93l12-10.4c12.41,14.64,64,39.85,64,39.85-.28-13.4.07-25.62.91-36.74,5.73-75.59,34.23-100.78,42-106.3a17,17,0,0,1,2-1.27s0,.54.07,1.58c.11,2.25.32,6.78.53,13C1038.07,352.11,1040,492.13,1004.36,483.07Z"/><path class="cls-9" d="M926.94,395.74c-.18-1.79-1.38-27.76-6.54-32.7s-15.35-11.68-18.28-11.14S889.26,369,894,380.38s21,25.76,21,25.76Z"/><path class="cls-3" d="M930.23,399.06l-25.44,1.07a3,3,0,0,1-3.12-2.87l-2.13-50.88a3,3,0,0,1,2.87-3.12l25.44-1.06a3,3,0,0,1,3.12,2.86L933.1,396A3,3,0,0,1,930.23,399.06Z"/><path class="cls-9" d="M900,353.89s7.64-8.54,15.29-2-.51,20.46-7.14,24.27-8.76,5.8-8.76,5.8Z"/><path class="cls-10" d="M1097.12,922.56c-2.6,10.32-5.45,20.14-8.36,29.28-.62,2-1.24,3.89-1.86,5.78-.31.93-.63,1.86-.93,2.78q-.92,2.72-1.82,5.32c-.78,2.26-1.57,4.47-2.35,6.6q-.85,2.37-1.7,4.65c-8.64,23.17-15.87,37.85-15.87,37.85l-17.22-1.19s6.47-30.73,7.76-74.76c0-1.58.09-3.16.12-4.76.06-3.42.11-6.9.11-10.45,0-1.46,0-2.93,0-4.42-.34-37.92-5-82.74-20-125.53a818.69,818.69,0,0,1-27.4-96.75c-20.61-95-15.77-157.33-15.77-157.33L1088.61,551l4.51.53c.41,44.47,1.55,104.85,2.56,152,.17,8.2.33,16,.49,23.25.67,30.3,1.17,51,1.17,51C1116,817.9,1109.2,874.49,1097.12,922.56Z"/><path class="cls-7" d="M1069.4,207.18s22.9,19.51,1.9,41.95c0,0,17.5,1.72,23.43-3.12a16.26,16.26,0,0,1-2.25,3.42s19.57.71,27.65-5.4,2.89-106.21-51.42-95c0,0-46-3.48-41.75,49.79s-13.09,53.26-13.09,53.26,4.84,2.38,7.17,2.38c0,0,3.41-1.3,4.08-3.18,0,0-.67,3-1.54,3.9,0,0,18.76,1.78,28.12-5.3S1072.07,218.17,1069.4,207.18Z"/><path class="cls-9" d="M1143.32,528.77c-18.3-41-27-52.65-27.36-65.56-.24-10.21,4.79-21.23,14.57-48.24a99.5,99.5,0,0,0,4.87-19.53c7.74-52.08-22.38-108.38-41.1-112.21-5.2-1.38-14-20.19-13.92-50.5l-2.35.46-39.41,7.8s.9,12.41.92,24.09c0,9.74-.5,19.65-2.7,20.81-2.84.26-5.42.77-5.42.77s-33.36,23.43-35.51,55.2c-2.88,42.44,27,92.75.51,177.58C969.32,606.07,1153.43,551.44,1143.32,528.77Z"/><path class="cls-7" d="M1082.1,228.9s11.56-18.26,14.33-33.88c2-11.15-3.69-52.47-45.22-46.52a56.5,56.5,0,0,0-23.4,8.84c-9,6.09-22,19.24-7.48,55.3l3.78,12.18Z"/><path class="cls-9" d="M1031.25,252.06s52.18.86,52.22-31.65,6.8-54.28-26.52-56.21-39.8,10.48-42.45,21.32S1017.68,251,1031.25,252.06Z"/><path class="cls-7" d="M1033.18,163.41s14.29,38.13,36.22,43.77,31.44-.23,31.44-.23-16.82-13.37-20.31-36.69C1080.53,170.26,1044,145.26,1033.18,163.41Z"/><path class="cls-7" d="M1036.72,166.5s-10.67,8.52-13.27,16.8-3.77,25.31-8.73,24.73c0,0-10.77-25.92,1.33-40.58C1028.88,151.9,1036.72,166.5,1036.72,166.5Z"/><path class="cls-9" d="M1211.19,572.36l-15.67,4.69s-51.68-85.74-56.38-108c-1.53-7.26-5.29-21.8-9.67-38.08-9.08-33.73-20.79-75-20.79-75l-3.85-16.7-13.16-57s25.19,2.57,39.92,8.73c4.88,2,8.6,4.47,9.9,7.32,10.83,23.8,21.63,83.86,29.23,126.71,4.23,23.88,7.46,42.41,9.14,46.34C1184.56,482.31,1198.92,542.6,1211.19,572.36Z"/><path class="cls-9" d="M1210.07,569.75s4.77,11.22,9.73,14.35,9.67,10.65,10.7,16.71c1.89,11.11-6.63,18-12.89,18s-12.26-8.54-15.94-28.93c-.2-1.12-6.15-12.83-6.15-12.83Z"/><path class="cls-9" d="M1152.66,914.22c-5.57,59.41-30.08,97.84-30.08,97.84l-8.37,7.62s-7.62-43.5-13.13-93.31c-5.24-47.33-12.44-97.43-20.57-112.72-12.16-22.84-21.12-69.57-27.57-118.93-10.66-81.68-14.44-170.61-14.44-170.61l98.17-4.87c9.87,16.6,14.17,43.83,15.19,74.78,1.08,32.55-1.48,69.22-5,102-5,45.88-11.88,84.12-13.48,92.72a.08.08,0,0,1,0,0,5.11,5.11,0,0,0,.65,3.29C1153.51,830.73,1156.34,875,1152.66,914.22Z"/><path class="cls-4" d="M1038.1,392.34c-2.21,53.93-10.28,107.33-33.76,103.89-28.78-4.2-36.27-31.06-37.8-51A114.42,114.42,0,0,1,967,423s14.16-.07,16.46-2.18c10.87-10,7.64-108.6,13-118.83s40.32-16.8,40.32-16.8S1040.29,339,1038.1,392.34Z"/><path class="cls-11" d="M1097.12,922.56c-2.6,10.32-5.45,20.14-8.36,29.28-.62,2-1.24,3.89-1.86,5.78-.31.93-.63,1.86-.93,2.78q-.92,2.72-1.82,5.32c-.78,2.26-1.57,4.47-2.35,6.6q-.85,2.37-1.7,4.65c-8.64,23.17-15.87,37.85-15.87,37.85l-17.22-1.19s6.47-30.73,7.76-74.76c0-1.58.09-3.16.12-4.76.06-3.42.11-6.9.11-10.45,0-1.46,0-2.93,0-4.42-.34-37.92-5-82.74-20-125.53a818.69,818.69,0,0,1-27.4-96.75c10.23,2.11,19.24,0,45.39-2.24,2.75-.23,15.88,16,28.86,37.57.67,30.31,15.54,45.53,15.54,45.53C1116,817.9,1109.2,874.49,1097.12,922.56Z"/><path class="cls-3" d="M1152.66,914.22c-5.57,59.41-30.08,97.84-30.08,97.84l-8.37,7.62s-7.62-43.5-13.13-93.31c-5.24-47.33-12.44-97.43-20.57-112.72-12.16-22.84-21.12-69.57-27.57-118.93,9,3.76,39.79,13.53,93.88,1.3-5,45.88-11.88,84.12-13.48,92.72a.08.08,0,0,1,0,0,5.11,5.11,0,0,0,.65,3.29C1153.51,830.73,1156.34,875,1152.66,914.22Z"/><path class="cls-7" d="M1007.55,465.59s57.75,14.5,108.41-2.38c0,0,27.82,59.06,35.47,84.37s20,77.55,20,77.55-102.86,31.77-187.41,0c0,0-3.85-69.6,7.23-105.89S1007.55,465.59,1007.55,465.59Z"/><path class="cls-4" d="M1216.89,492.65c0,13.55-13.82,21.87-28.65,25.92-14.26,3.9-29.45,3.85-34.2.67-8.2-5.49-21.55-66.56-25.45-85.15-.7-3.37-1.1-5.34-1.1-5.34s-10.65,25.41-11,27.79c-.15,1.06-.28,2.53-.37,3.82-.11,1.56-.17,2.85-.17,2.85s-57.81,29.18-108.41,2.38c0,0-20.57-118.88-11.64-139.34,4.44-10.17,27.58-31.15,36.84-40.2,2.08-2,1.88-6.06,1.07-9.75a4.26,4.26,0,0,1,5.21-5.05c6,1.55,16.68,1.28,28.16-2.48a68.27,68.27,0,0,0,17.21-8.42,2.63,2.63,0,0,1,4.08,1.87c.87,7.08,3,20,6.93,20,5.38,0,42.13,4.48,44.82,9,.94,1.59,10.49,23.2,22.56,51.84a.33.33,0,0,1,0,.08C1185.45,396.91,1216.89,475.32,1216.89,492.65Z"/><path class="cls-12" d="M1128.59,434.09c-.7-3.37-1.1-5.34-1.1-5.34A27,27,0,0,1,1128.59,434.09Z"/><path class="cls-7" d="M1074.13,1029.25h-11c-3.68-.58-6.4-1.64-10.17-2.14-5.74-.75-8.37,1.6-8.9,2.14l-.1.11H997.31c-1.18-1.67,0-5.56,1.06-8.41a6.61,6.61,0,0,1,4.37-4c4.94-1.43,14.7-2.71,23.63-10.8,5-4.54,24.28-16.7,24.28-16.7l.1,0c.42,0,2.44.62,11.19,8,4.53,3.81,12.24-5.39,12.24-5.39a11,11,0,0,1,2.53,3.43,11.58,11.58,0,0,1,1,7.16c-.7,4.21,1.55,12,3.34,17.31,1.09,3.2,2,5.47,2,5.47S1083.58,1028.07,1074.13,1029.25Z"/><path class="cls-7" d="M1132.76,1029.25h-11c-3.68-.58-6.4-1.64-10.17-2.14-5.73-.75-8.37,1.6-8.89,2.14l-.11.11h-46.66c-1.18-1.67,0-5.56,1-8.41a6.66,6.66,0,0,1,4.37-4c5-1.43,14.71-2.71,23.64-10.8,5-4.54,24.28-16.7,24.28-16.7l.1,0c.42,0,2.43.62,11.19,8,4.52,3.81,12.24-5.39,12.24-5.39a11.07,11.07,0,0,1,2.52,3.43,11.58,11.58,0,0,1,1,7.16c-.7,4.21,1.55,12,3.34,17.31,1.09,3.2,2,5.47,2,5.47S1142.21,1028.07,1132.76,1029.25Z"/><polygon class="cls-13" points="443.61 639.25 443.61 654.73 507.97 654.73 507.97 1040.17 520.81 1040.17 520.81 654.73 1103.91 654.73 1103.91 1040.17 1116.51 1040.17 1116.51 654.73 1186.11 654.73 1186.11 639.25 443.61 639.25"/><rect class="cls-13" x="514.23" y="416.95" width="236.06" height="221.95"/><rect class="cls-14" x="750.29" y="416.95" width="92.51" height="221.95"/><rect class="cls-15" x="619.6" y="416.95" width="25.32" height="17.42"/><rect class="cls-16" x="781.84" y="416.95" width="18.24" height="17.42"/><polygon class="cls-13" points="443.61 352.87 514.23 416.95 566.82 416.95 505.21 352.87 443.61 352.87"/><polygon class="cls-14" points="914.18 372.16 843.55 416.88 790.96 416.88 852.57 372.16 914.18 372.16"/><rect class="cls-3" x="549.62" y="491.32" width="179.07" height="99.12" transform="translate(-29.3 36.66) rotate(-3.21)"/><path class="cls-17" d="M604.65,537.65l.29,3.73-2.77.21-.8-10.25,3.36-.26q4.18-.33,4.42,2.7a3.05,3.05,0,0,1-1.53,2.9l3.34,4.23-3.15.25-2.46-3.57Zm-.16-2.08.52,0c1-.08,1.41-.55,1.35-1.4s-.56-1-1.51-1l-.55,0Z"/><path class="cls-17" d="M618,540.36l-6.09.48-.8-10.25,6.09-.48.17,2.23-3.32.25.13,1.62,3.07-.24.17,2.22-3.07.24.15,1.93,3.32-.25Z"/><path class="cls-17" d="M623.42,533.9l4.43-.34.43,5.52a12.06,12.06,0,0,1-3.92.93,4.8,4.8,0,0,1-3.77-1.09,5.53,5.53,0,0,1-1.6-3.82,5.16,5.16,0,0,1,1.12-4,5.42,5.42,0,0,1,3.86-1.69,8.6,8.6,0,0,1,1.84,0,7.55,7.55,0,0,1,1.53.34l-.7,2.24a5.55,5.55,0,0,0-2.48-.35,2.3,2.3,0,0,0-1.81.93,4.23,4.23,0,0,0,.28,4.45,2.08,2.08,0,0,0,1.79.62,4.74,4.74,0,0,0,1.12-.21l-.12-1.6-1.83.14Z"/><path class="cls-17" d="M630.4,539.4l-.79-10.25,2.77-.22.62,8,4-.31.17,2.24Z"/><path class="cls-17" d="M644.85,538.27l-6.09.48L638,528.5l6.08-.48.18,2.22-3.32.26.12,1.62,3.08-.24.17,2.22-3.07.24.15,1.93,3.31-.25Z"/><path class="cls-17" d="M653.11,534.5a3.05,3.05,0,0,1-.35,1.73,3.19,3.19,0,0,1-1.31,1.26,5.33,5.33,0,0,1-2.11.58,8.92,8.92,0,0,1-1.73,0,6.38,6.38,0,0,1-1.48-.39l-.19-2.47a7.8,7.8,0,0,0,1.69.5,6,6,0,0,0,1.59.11,1.58,1.58,0,0,0,.89-.28.7.7,0,0,0,.25-.58.58.58,0,0,0-.15-.36,1.71,1.71,0,0,0-.39-.29c-.18-.09-.66-.27-1.42-.55a6.35,6.35,0,0,1-1.57-.77,2.57,2.57,0,0,1-.82-.92,3.31,3.31,0,0,1-.35-1.29,2.66,2.66,0,0,1,.86-2.29,4.55,4.55,0,0,1,2.77-1,7.78,7.78,0,0,1,3.31.48l-.68,2.2a6.17,6.17,0,0,0-2.54-.46,1.32,1.32,0,0,0-.77.25.6.6,0,0,0-.21.49.69.69,0,0,0,.36.51,10.83,10.83,0,0,0,1.76.74,4.74,4.74,0,0,1,1.94,1.14A2.82,2.82,0,0,1,653.11,534.5Z"/><path class="cls-17" d="M609.6,558.36l-6.09.47-.8-10.25,6.09-.48.17,2.23-3.31.25.12,1.62,3.07-.24.18,2.22-3.08.24.15,1.94,3.32-.26Z"/><path class="cls-17" d="M611.39,558.22l-.8-10.26,2.77-.21.63,8,4-.3.17,2.23Z"/><path class="cls-17" d="M625.84,557.09l-6.09.48-.8-10.26,6.09-.47.17,2.22-3.31.26.12,1.61,3.07-.24.18,2.23-3.07.24.15,1.93,3.31-.26Z"/><path class="cls-17" d="M632.1,556.61l-2.67-7.23h-.06c.19,1.25.32,2.22.37,2.92l.35,4.45-2.46.19-.79-10.25,3.69-.29,2.7,7.12h.06l1.53-7.44,3.69-.29.8,10.25-2.54.2-.35-4.49c0-.24,0-.5,0-.78s0-1-.07-2.11h-.07l-1.49,7.53Z"/><path class="cls-17" d="M647.61,555.4l-6.09.47-.8-10.25,6.09-.47.17,2.22-3.31.26.12,1.61,3.07-.24.18,2.22-3.08.24.15,1.94,3.32-.26Z"/><path class="cls-17" d="M659.16,554.5l-3.63.28-4.3-6.93h-.07c.18,1.13.29,2,.34,2.59l.36,4.62-2.46.19L648.61,545l3.61-.28,4.29,6.83h0c-.14-1-.24-1.86-.29-2.48l-.36-4.64,2.47-.19Z"/><path class="cls-17" d="M665.9,554l-2.77.21-.62-8-2.5.2-.18-2.27,7.77-.6.18,2.26-2.5.2Z"/><path class="cls-17" d="M676.16,553.18l-.66-1.88-3.33.26-.37,2-3,.23,2.54-10.55,3.7-.29,4.19,10Zm-1.41-4.11-.57-1.65c-.13-.37-.3-.84-.49-1.42s-.32-1-.39-1.26c0,.25-.08.64-.16,1.2s-.27,1.66-.57,3.3Z"/><path class="cls-17" d="M680.3,552.86l-.8-10.26,2.78-.21.8,10.25Z"/><path class="cls-17" d="M687.78,548.52l.29,3.73-2.77.22-.8-10.26,3.36-.26c2.78-.21,4.26.69,4.41,2.71a3,3,0,0,1-1.52,2.89l3.33,4.23-3.14.25-2.46-3.56Zm-.17-2.08.52,0c1-.08,1.42-.54,1.35-1.4-.05-.7-.55-1-1.5-1l-.55.05Z"/><path class="cls-17" d="M701.1,551.24l-6.08.47-.8-10.25,6.09-.47.17,2.22-3.32.26.13,1.61,3.07-.24.17,2.22-3.07.24.15,1.94,3.32-.26Z"/><path class="cls-17" d="M709.36,547.46a3,3,0,0,1-.35,1.73,3.19,3.19,0,0,1-1.31,1.26,5.12,5.12,0,0,1-2.11.58,8.81,8.81,0,0,1-1.72,0,6.45,6.45,0,0,1-1.49-.39l-.19-2.47a8.52,8.52,0,0,0,1.7.51,5.91,5.91,0,0,0,1.59.1,1.47,1.47,0,0,0,.88-.28.66.66,0,0,0,.25-.57.58.58,0,0,0-.15-.36,1.16,1.16,0,0,0-.39-.29,14.41,14.41,0,0,0-1.42-.56,6.56,6.56,0,0,1-1.57-.76,2.68,2.68,0,0,1-.82-.93,3.06,3.06,0,0,1-.34-1.29,2.63,2.63,0,0,1,.85-2.29,4.56,4.56,0,0,1,2.78-1,8.08,8.08,0,0,1,3.3.48l-.68,2.21a6.18,6.18,0,0,0-2.54-.47,1.32,1.32,0,0,0-.77.25.56.56,0,0,0-.2.49.68.68,0,0,0,.35.52,12.42,12.42,0,0,0,1.76.74,4.57,4.57,0,0,1,1.94,1.13A2.76,2.76,0,0,1,709.36,547.46Z"/><path class="cls-17" d="M596,550.21a35.72,35.72,0,0,0-1.35-7.61c-2-6.44-5.85-10.09-11.52-9.65s-8.87,4.56-9.86,11.09a35,35,0,0,0-.19,8,34.25,34.25,0,0,0,.49,3.75l.05,0v0c.11,1.44,4.69,1.35,5.73.62a14.43,14.43,0,0,0,5.5,3.72l.4.15.37-.21a14.57,14.57,0,0,0,4.85-4.51c1.08.61,5.43.12,5.61-1.23a1.31,1.31,0,0,0,0-.28h0A34.73,34.73,0,0,0,596,550.21Zm-10.56,9.5-.22.13-.24-.09a14.21,14.21,0,0,1-5.43-3.7.37.37,0,0,0-.11-.24,15.81,15.81,0,0,1-2.88-4.68,18.68,18.68,0,0,1-1.34-5.72V545l.44-.08a15.58,15.58,0,0,0,5.58-2.28A15.19,15.19,0,0,0,583.4,541l.32-.31.36.26a15,15,0,0,0,2.41,1.32,15.76,15.76,0,0,0,5.87,1.39h.45l.05.41a18.78,18.78,0,0,1-.44,5.85,15.93,15.93,0,0,1-2.13,5.08.37.37,0,0,0-.07.25A14.12,14.12,0,0,1,585.43,559.71Z"/><circle class="cls-3" cx="712.57" cy="477.79" r="23.48"/><path class="cls-17" d="M726,485.73a44.62,44.62,0,0,0,.61-9.8c-.5-8.56-4.2-14.23-11.35-15.39s-12.33,3-15.52,10.76a45.42,45.42,0,0,0-2.62,9.76,44.65,44.65,0,0,0-.51,4.78h.07s0,0,0,.05c-.29,1.8,5.4,3.07,6.89,2.47a18.62,18.62,0,0,0,5.69,6.26l.45.31.52-.16a18.47,18.47,0,0,0,7.35-4.11c1.15,1.07,6.67,1.77,7.3.16a1.54,1.54,0,0,0,.1-.35h0A43.49,43.49,0,0,0,726,485.73Zm-15.91,8.58-.31.09-.26-.18a18.09,18.09,0,0,1-5.61-6.2.49.49,0,0,0-.06-.32,20.37,20.37,0,0,1-2.16-6.66,23.45,23.45,0,0,1,.06-7.47l.1-.51.58,0A20,20,0,0,0,710,472a19,19,0,0,0,3.19-1.42l.49-.29.38.43a19.15,19.15,0,0,0,2.58,2.36,20,20,0,0,0,6.83,3.47l.55.15-.06.52a23,23,0,0,1-2.29,7.1,20.41,20.41,0,0,1-4.15,5.64.55.55,0,0,0-.17.29A18,18,0,0,1,710.09,494.31Z"/></svg>