<?xml version="1.0" encoding="UTF-8"?>
<svg width="466px" height="310px" viewBox="0 0 466 310" version="1.1" xmlns="http://www.w3.org/2000/svg" xmlns:xlink="http://www.w3.org/1999/xlink">
    <title>Group 126</title>
    <defs>
        <polygon id="path-1" points="4.54926979e-14 -4.55020363e-14 54.8436079 -4.55020363e-14 54.8436079 56.0243671 4.54926979e-14 56.0243671"></polygon>
        <polygon id="path-3" points="0 -2.27510182e-14 35.1020339 -2.27510182e-14 35.1020339 30.0148322 0 30.0148322"></polygon>
    </defs>
    <g id="Page-1" stroke="none" stroke-width="1" fill="none" fill-rule="evenodd">
        <g id="NOS-ACTIONS" transform="translate(-1020.000000, -154.000000)">
            <g id="Group-126" transform="translate(1020.000000, 154.000000)">
                <path d="M457.763428,298.234781 C456.854669,300.577386 453.576575,301.40028 448.65143,303.118111 C443.740691,304.821533 435.707519,308.554973 431.918023,309.718871 C428.128526,310.88317 427.092918,308.129518 428.767579,306.922794 C430.44224,305.715669 433.195327,302.905183 435.111684,300.605403 C437.042046,298.306024 442.108847,293.436702 442.19408,292.144727 C442.208086,291.83254 442.208086,291.520352 442.179675,291.207765 C442.037618,289.447509 441.242905,287.871763 441.242905,287.871763 L445.415752,285.984231 L449.971151,285.373464 C449.971151,285.373464 450.681431,286.580188 451.787868,288.226776 C452.242448,288.936802 452.781861,289.717671 453.363691,290.526556 C455.549354,293.578387 458.231613,296.99964 457.763428,298.234781" id="Fill-1" fill="#FFA17E"></path>
                <path d="M402.597926,308.017611 C400.951276,309.891535 397.587547,309.550931 392.379091,309.479688 C387.170234,309.408845 378.342348,310.175705 374.382385,309.962377 C370.422821,309.763458 370.39401,306.825295 372.381195,306.271763 C374.368379,305.703822 377.91618,304.0004 380.514006,302.495497 C383.097026,300.990594 390.108194,298.151691 390.449129,296.902542 C390.803269,295.6674 390.391906,292.274565 390.391906,292.274565 L395.174995,292.274565 L399.447082,292.501501 C399.447082,292.501501 399.87245,294.531919 400.483091,296.902542 C400.667564,297.669001 400.880448,298.478287 401.107337,299.258755 C402.115335,302.878927 403.463467,307.009806 402.597926,308.017611" id="Fill-3" fill="#FFA17E"></path>
                <path d="M450.882191,285.373544 C447.205939,287.275886 442.637335,288.328117 440.990685,288.541045 C440.408855,287.320312 439.799015,286.028337 439.202779,284.694337 L403.770389,215.603682 L425.78308,210.904463 C425.78308,210.904463 425.556191,211.855433 427.386914,215.702942 C429.218037,219.578067 432.993127,222.687132 440.841826,243.370342 C448.421219,263.485611 448.299171,275.294297 450.882191,285.373544" id="Fill-5" fill="#FF9A00"></path>
                <path d="M403.769868,215.59924 C413.137567,216.318071 419.65414,213.267841 425.787762,210.908025" id="Fill-7" fill="#9E223E"></path>
                <path d="M377.792011,212.645908 L389.341371,285.673724 C389.625484,288.2997 389.994429,290.812407 390.292547,292.941685 C392.691094,293.523634 396.055222,293.836222 399.901141,292.785591 C399.929552,292.160816 399.943558,291.593276 399.915146,291.096178 C400.326509,280.463398 405.109998,269.092976 404.017166,246.990514 C402.895523,224.901661 400.12803,219.951091 399.560206,215.706144 C399.007188,211.476006 399.294902,209.928277 399.294902,209.928277" id="Fill-9" fill="#FF9A00"></path>
                <path d="M402.597926,308.017611 C400.951276,309.891535 397.587547,309.550931 392.379091,309.479688 C387.170234,309.408845 378.342348,310.175705 374.382385,309.962377 C370.422821,309.763458 370.39401,306.825295 372.381195,306.271763 C374.368379,305.703822 377.91618,304.0004 380.514006,302.495497 C383.097026,300.990594 390.108194,298.151691 390.449129,296.902542 C390.449129,296.902542 395.444701,297.78267 400.483091,296.902542 C400.667564,297.669001 401.67196,299.079047 401.955672,299.840704 C403.640737,304.365819 403.463467,307.009806 402.597926,308.017611" id="Fill-11" fill="#FFFFFF"></path>
                <path d="M457.763428,298.234781 C456.854669,300.577386 453.576575,301.40028 448.65143,303.118111 C443.740691,304.821533 435.707519,308.554973 431.918023,309.718871 C428.128526,310.88317 427.092918,308.129518 428.767579,306.922794 C430.44224,305.715669 433.195327,302.905183 435.111684,300.605403 C437.042046,298.306024 442.108847,293.436702 442.19408,292.144727 C442.208086,291.83254 442.208086,291.520352 442.179675,291.207765 C442.179675,291.207765 448.211656,291.889374 451.787868,288.226776 C452.242448,288.936802 453.602185,290.107505 454.282453,290.835541 C457.475714,294.251591 458.231613,296.99964 457.763428,298.234781" id="Fill-13" fill="#FFFFFF"></path>
                <path d="M410.251668,127.356454 C410.403328,130.517551 410.582999,134.709266 410.718652,139.268401 C410.903125,145.925996 410.99116,153.337242 410.731857,159.388473 C410.548985,163.453312 410.223257,166.905383 409.665436,169.0999 C408.401337,174.118111 415.578971,183.818331 412.919521,194.144927 C412.15642,197.0999 414.116794,202.219372 413.452932,204.812127 C411.715846,211.572984 414.519353,213.879568 414.519353,213.879568 C414.519353,213.879568 418.169994,223.095898 419.318848,233.080688 C420.458498,243.06628 421.985101,281.61701 421.985101,281.61701 C413.011958,285.753092 380.756822,280.707665 380.756822,280.707665 C380.756822,280.707665 379.760028,256.561177 378.506733,250.235381 C377.253438,243.909586 371.25427,205.872363 373.20464,182.020853 C374.44553,166.720072 377.43471,146.064078 379.41029,133.21677 C380.521929,126.042065 381.317443,121.304423 381.317443,121.304423 L409.941945,121.591795 C409.941945,121.591795 410.0804,123.831139 410.251668,127.356454" id="Fill-15" fill="#FF9A00"></path>
                <path d="M434.734415,146.744647 C434.728012,158.006204 428.928922,180.238343 429.586382,188.724235 C430.243442,197.219332 430.006548,200.273564 434.425493,225.910546 C438.844838,251.556334 434.825251,280.996398 434.825251,280.996398 C427.075391,285.979788 414.648084,282.081849 414.648084,282.081849 C414.648084,282.081849 414.604066,259.253752 414.228718,252.268361 C413.85297,245.28337 412.615681,233.476686 410.109892,226.615769 C408.641712,222.575345 405.59771,208.756254 402.787801,195.901341 C400.813821,186.874325 398.957088,178.324795 397.84745,173.991395 C395.99792,166.76586 392.659001,147.96698 390.750248,136.926756 L390.749447,136.917951 C389.886307,131.895337 389.309679,128.48289 389.309679,128.48289 L432.714017,126.148289 C432.714017,126.148289 433.649586,130.472884 434.244221,136.779067 C434.531535,139.741245 434.732814,143.146088 434.734415,146.744647" id="Fill-17" fill="#FF9A00"></path>
                <path d="M376.890095,99.8495097 C376.890095,99.8495097 376.423111,101.027817 375.478338,102.250951 C374.544769,103.451671 373.144216,104.696418 371.25467,104.963378 C362.140271,106.230939 359.272739,98.6820092 359.15029,96.2141285 C359.15029,96.1364819 359.139086,96.0696418 359.15029,96.0028017 C359.061455,93.7018211 359.761732,92.9789874 359.761732,92.9789874 L364.174274,89.9995998 L370.331905,89.0322193 L376.890095,99.8495097 Z" id="Fill-19" fill="#FFFFFF"></path>
                <g id="Group-23" transform="translate(369.709632, -0.000000)">
                    <mask id="mask-2" fill="white">
                        <use xlink:href="#path-1"></use>
                    </mask>
                    <g id="Clip-22"></g>
                    <path d="M53.261938,36.518351 C52.0534609,35.5093456 50.5184548,34.9946368 49.151515,34.2137683 C47.7845753,33.4328997 46.4864627,32.2029618 46.3740183,30.6324195 C46.2607736,29.0526716 47.3552058,27.6798479 48.2895747,26.4010806 C49.2243438,25.1223134 50.085884,23.48333 49.4740424,22.0224535 C49.2079373,21.3864719 48.6917335,20.8869722 48.1331129,20.4835301 C45.9622558,18.9161897 42.7393832,18.2365819 41.9518723,15.6770462 C41.5197016,14.2730038 42.0251012,12.7781069 42.3548314,11.3464479 C42.6841614,9.91518911 42.7649933,8.2161697 41.7225817,7.18114869 C40.7245877,6.18935361 39.0955444,6.21056634 37.906675,5.45811487 C37.2712241,5.05587352 36.7250084,4.51434861 36.2664274,3.91799079 C33.2032179,-0.0655993596 30.1448103,0.593195918 26.7906859,1.26319792 C26.7894854,1.26279768 26.7886851,1.26239744 26.7874846,1.2619972 C23.8787361,0.425495297 18.7615156,-0.691174705 18.1296661,0.561576946 C17.807939,1.19875926 18.1492738,2.15013008 18.5614366,2.93139884 C18.4373876,2.92179308 18.3129384,2.91218731 18.1888895,2.90218131 C16.4878178,2.76970182 14.393791,2.83774265 13.5862721,4.34104463 C12.5594667,6.25219131 14.5590562,8.92659596 13.261744,10.6652391 C12.8403776,11.229978 12.1617096,11.5313588 11.5058507,11.7887132 C10.4542354,12.2021613 9.36700614,12.5711827 8.44904368,13.2307785 C7.53148138,13.889974 6.7899886,14.9093856 6.78478655,16.0392636 C6.77758371,17.4929358 7.9200348,18.6496298 8.85600437,19.7610967 C9.79197394,20.8729638 10.6134983,22.4415049 9.91122102,23.7138683 C9.41222399,24.6188113 8.33499865,24.995037 7.3722185,25.370062 C4.66354898,26.4262958 2.06892449,28.1573344 0.759607509,30.7536922 C-0.550109632,33.3496498 -0.204373118,36.9085852 2.09493476,38.6880528 C3.57752016,39.8359416 5.92084542,40.5355613 5.99527481,42.4090855 C6.03809172,43.4821293 5.23777571,44.3746648 4.77919464,45.3452471 C3.88764261,47.2287773 4.38944075,49.6742445 5.95085727,51.0538723 C8.06449184,52.9221933 11.5178554,52.7472884 13.4398143,54.811727 C14.9272016,56.4086852 19.7591095,56.1761457 21.8467338,55.5429658 C23.9347582,54.9097859 25.869122,53.8275365 27.9735529,53.24999 C34.2696389,51.5229538 40.8922539,54.5271563 47.4136288,54.2113668 C48.3712069,54.1645387 49.4312255,53.9896338 50.0206582,53.2339804 C50.6316995,52.4511107 50.5136529,51.3444467 50.3659946,50.3626576 C50.2059314,49.3028217 50.0462683,48.2429858 49.8862051,47.1831499 C49.7609557,46.3526516 49.6409083,45.4737242 49.9594341,44.6964579 C50.7473452,42.7721033 53.6652973,42.5547729 54.586461,40.6904543 C55.2835363,39.2788073 54.4704152,37.5277567 53.261938,36.518351" id="Fill-21" fill="#FF9A00" mask="url(#mask-2)"></path>
                </g>
                <path d="M435.832889,123.807284 C433.620815,116.425655 428.519201,99.4270562 426.329536,92.2787673 C424.651273,86.7978787 422.883776,71.4446668 421.305552,59.2381429 C420.205118,50.8447068 419.204723,43.9405643 418.359989,42.7510506 C416.292773,39.8385031 404.232811,38.0374225 401.721019,38.1931159 C399.208828,38.3596158 392.761882,38.4484691 392.761882,38.4484691 C392.761882,38.4484691 390.240086,39.2701621 387.198885,41.2357414 C387.086841,41.2821693 377.104099,45.4762858 371.095327,66.9187513 C371.095327,66.9187513 370.152955,71.476686 374.403833,76.2527517 C376.418629,80.5037022 380.22053,86.5781469 380.569068,88.8210927 C380.735934,89.8885331 380.502641,94.7242345 380.135696,100.638983 C379.857587,104.929958 379.513051,109.788473 379.190523,114.190714 C378.735143,120.28317 378.334985,125.485892 378.234946,127.031219 C377.968041,131.222534 401.565358,140.460877 436.888905,127.320192 C436.888905,127.320192 436.488747,125.986192 435.832889,123.807284" id="Fill-24" fill="#FFFFFF"></path>
                <path d="M389.071865,108.387673 L387.049066,109.721673 L383.547684,112.03386 C383.114313,112.312027 382.536484,112.178747 382.269579,111.744887 L357.98359,71.5895938 C357.70548,71.13332 357.871946,70.5441665 358.33893,70.2996198 L362.762677,68.0542726 L364.79668,67.020052 C365.230451,66.7979188 365.752657,66.9536122 365.997154,67.3646588 L389.349575,107.164539 C389.594471,107.587192 389.472023,108.120712 389.071865,108.387673" id="Fill-26" fill="#FFFFFF"></path>
                <path d="M389.071865,108.387673 L387.049066,109.721673 L362.762677,68.0542726 L364.79668,67.020052 C365.230451,66.7979188 365.752657,66.9536122 365.997154,67.3646588 L389.349575,107.164539 C389.594471,107.587192 389.472023,108.120712 389.071865,108.387673" id="Fill-28" fill="#FFFFFF"></path>
                <path d="M361.041637,59.9685411 L384.004704,100.420012 C384.259605,100.870282 384.837833,101.017971 385.277607,100.745007 L388.454061,98.7770262 C388.872626,98.5176706 389.00988,97.9725435 388.763383,97.5458875 L365.600237,57.3921953 C365.350539,56.959936 364.799521,56.8082449 364.364149,57.0527917 L361.388174,58.7229938 C360.948,58.969942 360.792339,59.5290774 361.041637,59.9685411" id="Fill-30" fill="#FF9A00"></path>
                <path d="M404.000399,39.4558735 C402.916371,41.8797278 401.296132,44.5245147 399.490219,47.1148689 C394.45503,54.3452071 388.006884,61.1124675 388.006884,61.1124675 C387.23658,57.9937963 387.546703,52.0406244 387.906845,47.874925 C388.129333,45.2141285 388.381832,43.2825695 388.381832,43.2825695 L390.359013,35.0568341 L391.493061,30.3376026 L402.30493,28.6417851 L404.000399,39.4558735 Z" id="Fill-32" fill="#965E42"></path>
                <path d="M396.98591,35.3135481 C391.228036,35.8806884 385.959556,30.3885932 385.237271,23.0401841 C385.214862,22.8512708 385.204058,22.6623574 385.204058,22.4730438 C384.959161,18.9377226 385.848712,15.6469482 387.482557,13.1678607 C387.593401,13.0009606 387.705045,12.8344607 387.827093,12.6675605 C387.860307,12.6231339 387.89352,12.5675005 387.927133,12.5230738 C389.560978,10.3661797 391.79506,8.95453272 394.374079,8.69877927 C397.085949,8.43181909 399.708985,9.521673 401.776601,11.5112668 C403.221572,12.9009005 404.399237,14.7356014 405.16634,16.8588753 C405.221962,17.0145687 405.288788,17.1814689 405.34441,17.3479688 C405.577702,18.0263758 405.755773,18.7376026 405.889025,19.4712427 C405.989065,19.9607364 406.066695,20.4718431 406.111113,20.98335 C406.833798,28.3429658 402.743383,34.7464078 396.98591,35.3135481" id="Fill-34" fill="#965E42"></path>
                <path d="M395.837016,12.3491695 C395.837016,12.3491695 401.937825,16.9335201 407.033037,17.0595958 C407.033037,17.0595958 405.501632,7.88409045 397.548492,7.37418451 L395.837016,12.3491695 Z" id="Fill-36" fill="#FF9A00"></path>
                <path d="M400.890211,9.25103062 C400.890211,9.25103062 395.683355,20.2196118 384.1456,22.1779868 C384.1456,22.1779868 383.308869,10.9244347 391.355647,8.28084851 C399.402424,5.6376626 400.890211,9.25103062 400.890211,9.25103062" id="Fill-38" fill="#FF9A00"></path>
                <path d="M463.301134,118.175745 C462.058244,121.086292 453.860207,123.726676 445.79062,124.237382 C441.12998,124.531559 437.308071,123.934401 434.550982,123.125515 C432.510977,122.529958 431.0504,121.807925 430.241681,121.237182 C428.338529,119.869161 425.961591,116.474725 426.084439,107.402081 C426.198084,98.3302381 425.118458,66.8113268 423.999216,62.6048029 C422.881175,58.406684 413.345009,42.3342405 413.345009,42.3342405 C413.345009,42.3342405 414.067294,40.4014809 419.428211,40.2782069 C419.428211,40.2782069 422.293342,40.7172704 426.250105,41.5289574 C429.370537,42.1813488 433.172038,43.0626776 436.804672,44.1601361 C445.036723,46.6388233 451.223165,48.8397438 454.588494,53.6006004 C457.943419,58.3542526 463.812136,73.280008 465.199084,78.1965579 C466.584831,83.1043026 464.535222,115.2664 463.301134,118.175745" id="Fill-40" fill="#FFFFFF"></path>
                <path d="M430.260368,91.4313788 C430.260368,91.4313788 454.796056,96.1462077 460.085745,96.1253952 C465.375433,96.1041825 465.662347,92.5848709 465.662347,92.5848709 C465.662347,92.5848709 466.421847,96.1253952 465.662347,107.427777 C464.902046,118.730558 465.272593,120.027336 459.530325,122.25067 C453.787258,124.474405 442.612045,127.546648 431.434832,121.93408 L430.260368,91.4313788 Z" id="Fill-42" fill="#FFFFFF"></path>
                <path d="M433.863751,115.836262 C433.807329,118.606324 433.730098,121.180668 434.551222,123.125435 C432.510817,122.530278 431.05064,121.807845 430.241521,121.237503 C428.338369,119.869081 425.961831,116.474645 426.084679,107.402001 C426.198324,98.3301581 425.118698,66.811647 423.999456,62.6047228 C422.881415,58.406604 413.345249,42.3341605 413.345249,42.3341605 C413.345249,42.3341605 414.067134,40.4014008 419.428451,40.2781269 C419.428451,40.2781269 422.293583,40.7171903 426.250345,41.5288773 C428.456016,43.3563738 430.886175,45.9731439 432.066641,49.2739244 C434.523211,56.1328397 433.943783,111.45083 433.863751,115.836262" id="Fill-44" fill="#FFFFFF"></path>
                <path d="M411.318529,38.5901141 C411.318529,38.5901141 400.870404,38.9739444 402.106892,52.4464279 C403.359787,66.096618 415.690255,89.7071843 417.375721,92.828257 C419.061186,95.9493296 427.07275,111.773224 427.07275,111.773224 L427.104362,106.075805 L416.201257,85.3193516 L405.419,48.5436862 C405.419,48.5436862 404.775145,42.9515309 410.94078,41.0643986 C417.106014,39.1768661 424.552955,42.9519312 424.552955,42.9519312 C424.552955,42.9519312 426.316451,44.391595 423.064367,41.6111267 C421.693426,40.4396238 418.374115,37.4774465 411.318529,38.5901141" id="Fill-46" fill="#FFFFFF"></path>
                <path d="M402.694444,105.176346 L395.317931,106.230578 L388.83057,107.164339 C388.83057,107.164339 387.518852,109.609406 384.468447,111.801121 C381.417643,113.992836 378.745788,112.364659 378.745788,112.364659 C376.256405,112.598799 375.038324,110.664038 375.038324,110.664038 C372.020732,110.415489 371.258031,107.442506 371.258031,107.442506 C371.258031,107.442506 368.939516,106.096898 368.983933,104.541965 C369.028351,102.995838 372.943497,99.3876726 372.943497,99.3876726 C372.16639,99.3656594 370.155596,100.35065 370.155596,100.35065 C367.194427,102.007645 365.008363,100.234581 365.965141,99.1787472 C366.931123,98.121713 367.93712,96.7893136 368.536957,96.2273764 C369.136393,95.6654393 373.108362,93.9628177 375.905066,93.4929358 C378.70057,93.0134481 385.097496,95.9940364 386.419218,96.1145087 C386.960631,96.1677406 389.232728,95.7987192 391.720111,95.3544527 C395.301525,94.7144687 399.321512,93.9043826 399.321512,93.9043826 L402.694444,105.176346 Z" id="Fill-48" fill="#965E42"></path>
                <path d="M369.361362,94.6155293 C369.361362,94.6155293 365.071268,101.855874 360.002867,95.2639184 C360.002867,95.2639184 359.084104,91.5997198 358.71796,90.7340004 C358.351815,89.868281 356.785597,87.2286972 356.806405,85.1482489 C356.827213,83.0682009 356.044904,75.1134281 355.562314,72.7656194 C355.080123,70.4182109 355.027703,69.4440264 354.398254,67.8558735 C353.95648,66.7408045 356.43866,65.0898139 358.129727,67.7870322 C359.819995,70.4842506 359.501069,73.765019 360.540679,74.0639984 C361.58029,74.3629778 365.285353,72.9757454 365.873185,72.3069442 C366.461017,71.6377426 368.744319,70.0115669 369.740312,69.7402041 C370.736305,69.4688413 371.623055,70.7151891 371.859149,71.4856514 C371.859149,71.4856514 374.052815,70.1928757 374.985983,70.8236542 C375.919152,71.4544327 376.173652,72.8876926 375.43496,73.6957775 C375.43496,73.6957775 377.078809,74.1524515 376.969967,75.5324795 C376.860723,76.913308 376.077614,77.806644 376.077614,77.806644 C376.077614,77.806644 377.514181,79.6421453 376.936353,81.0970182 C376.358125,82.5514909 371.507009,87.9903542 370.334547,89.0321793 C369.161683,90.0744046 368.410187,90.1412447 368.410187,90.1412447 L369.361362,94.6155293 Z" id="Fill-50" fill="#965E42"></path>
                <path d="M367.883019,75.5693416 C367.883019,75.5693416 370.245151,72.9689814 371.859389,71.4856914" id="Stroke-52" stroke="#DB9C94" stroke-width="0.5" stroke-linecap="round" stroke-linejoin="round"></path>
                <path d="M370.11478,78.5281169 C370.11478,78.5281169 374.09075,74.4444667 375.43488,73.6956174" id="Stroke-54" stroke="#DB9C94" stroke-width="0.5" stroke-linecap="round" stroke-linejoin="round"></path>
                <line x1="372.414888" y1="81.5528117" x2="376.077534" y2="77.8069642" id="Stroke-56" stroke="#DB9C94" stroke-width="0.5" stroke-linecap="round" stroke-linejoin="round"></line>
                <path d="M416.671002,88.3228737 C416.671002,88.3228737 407.827911,62.4745647 405.199273,55.5011807 C402.571035,48.5273964 403.324533,42.1019412 409.157236,40.2664399 C414.989539,38.4309386 421.723397,42.1467681 425.30041,54.2028017 C428.877422,66.2592355 436.355175,90.4745647 436.576462,95.8245747 C436.79815,101.174585 435.965021,103.968661 425.082324,105.209406 C414.198826,106.45055 398.916392,108.820372 398.916392,108.820372 C398.916392,108.820372 393.545471,99.0172904 394.525058,93.4791675 C394.525058,93.4791675 403.331735,91.4863718 406.463772,90.9964779 C409.595809,90.506584 413.723839,88.9376426 416.671002,88.3228737" id="Fill-58" fill="#FFFFFF"></path>
                <line x1="372.943617" y1="99.3877126" x2="374.246531" y2="98.0345007" id="Stroke-60" stroke="#DB9C94" stroke-width="0.5" stroke-linecap="round" stroke-linejoin="round"></line>
                <path d="M388.83037,107.164259 C388.83037,107.164259 389.856375,106.563898 389.922401,104.534681" id="Stroke-62" stroke="#DB9C94" stroke-width="0.5" stroke-linecap="round" stroke-linejoin="round"></path>
                <polygon id="Fill-64" fill="#F49750" points="192.771716 202.960816 187.561259 221.601601 164.105597 305.506344 157.90755 305.506344 180.142729 218.932399 184.249151 202.960816"></polygon>
                <polygon id="Fill-66" fill="#F49750" points="288.958495 305.506304 282.760448 305.506304 259.304786 221.601561 254.094329 202.960776 262.616494 202.960776 266.722915 218.932359"></polygon>
                <path d="M184.249191,202.960816 L192.771756,202.960816 L187.561299,221.601601 C184.927058,220.805123 182.467287,219.900981 180.142769,218.932399 L184.249191,202.960816 Z" id="Fill-68" fill="#F49750"></path>
                <path d="M266.722755,218.932479 C264.398238,219.901061 261.938867,220.805203 259.304626,221.601681 L254.094169,202.960897 L262.616334,202.960897 L266.722755,218.932479 Z" id="Fill-70" fill="#F49750"></path>
                <path d="M268.388653,142.83294 L268.388653,194.748089 L177.379918,194.748089 L177.379918,142.83294 C177.379918,128.046868 197.752362,116.064078 222.884286,116.064078 C248.016609,116.064078 268.388653,128.046868 268.388653,142.83294" id="Fill-72" fill="#EA7F3B"></path>
                <path d="M268.388653,142.83294 L268.388653,194.748089 L177.379918,194.748089 L177.379918,142.83294 C177.379918,128.046868 197.752362,116.064078 222.884286,116.064078 C248.016609,116.064078 268.388653,128.046868 268.388653,142.83294" id="Fill-74" fill="#FFFFFF"></path>
                <path d="M271.770869,195.507505 C271.770869,207.539123 250.129924,217.292576 223.434583,217.292576 C196.738842,217.292576 175.098298,207.539123 175.098298,195.507505 C175.098298,183.475886 196.738842,190.890734 223.434583,190.890734 C250.129924,190.890734 271.770869,183.475886 271.770869,195.507505" id="Fill-76" fill="#FFFFFF"></path>
                <path d="M280.076468,147.823254 C280.807957,148.115829 281.672698,148.315549 282.670292,148.368781 L282.53744,150.936722 C281.646288,150.88349 280.821162,150.75061 280.076468,150.537683 C275.846398,149.36658 273.744368,145.880488 273.185347,142.660957 C272.587111,139.201281 273.704352,136.034581 275.846398,135.130038 C277.429423,134.464839 278.879195,134.464839 280.076468,134.71739 C282.085261,135.156454 283.388576,136.340764 283.482213,136.43362 L281.739125,138.323154 C281.699509,138.28353 281.060857,137.724395 280.076468,137.391795 C279.224932,137.09922 278.094486,136.96634 276.843992,137.498259 C275.97925,137.857675 275.314188,139.893296 275.713145,142.221493 C275.912824,143.339364 276.750755,146.546088 280.076468,147.823254" id="Fill-78" fill="#FFFFFF"></path>
                <path d="M300.187929,130.579508 L300.187929,153.065799 C300.187929,153.757815 299.629309,154.31655 298.937435,154.31655 L282.655006,154.31655 C281.963133,154.31655 281.404513,153.757815 281.404513,153.065799 L281.404513,130.5663 C281.404513,130.073604 281.80347,129.674565 282.295664,129.674565 L299.283172,129.674565 C299.788571,129.674565 300.187929,130.073604 300.187929,130.579508" id="Fill-80" fill="#FFFFFF"></path>
                <path d="M300.187929,152.560056 L300.187929,153.065559 C300.187929,153.757575 299.629309,154.31631 298.937435,154.31631 L282.655006,154.31631 C281.963133,154.31631 281.404513,153.757575 281.404513,153.065559 L281.404513,152.560056 L300.187929,152.560056 Z" id="Fill-82" fill="#EA7F3B"></path>
                <path d="M43.6483545,267.343566 C43.4378714,267.389594 43.2241871,267.264319 43.1649637,267.053792 C43.1153441,266.880889 38.0993635,249.626536 25.7416841,243.160656 C25.5404046,243.055393 25.4631741,242.808045 25.5676154,242.605924 C25.6720566,242.405403 25.9197544,242.329758 26.1218342,242.43302 C38.7960386,249.064199 43.9044557,266.652752 43.9552757,266.830859 C44.0169001,267.048989 43.89005,267.275525 43.6727642,267.337963 C43.6639607,267.339964 43.6563577,267.341565 43.6483545,267.343566" id="Fill-84" fill="#9E223E"></path>
                <path d="M26.9171482,243.236542 C26.9171482,243.236542 29.0744,246.758255 25.6582512,248.928357 C22.2429026,251.098859 17.5114344,246.457675 14.8895992,241.61677 C12.2677639,236.776266 9.37422141,234.668601 9.37422141,234.668601 C9.37422141,234.668601 17.8743777,232.187913 25.0692186,231.934961 C31.3565011,231.713628 33.4109123,238.492095 30.4701511,241.408645 C27.6330309,244.222734 26.9171482,243.236542 26.9171482,243.236542" id="Fill-86" fill="#9E223E"></path>
                <path d="M50.0305546,285.686612 C50.3762911,285.478887 50.5055421,285.034221 50.3158672,284.672003 C50.1606059,284.372624 34.8065434,254.456274 43.3034984,229.773064 C43.4423532,229.370822 43.2298693,228.934961 42.8273104,228.794477 C42.4279527,228.656794 41.9929809,228.872123 41.8517251,229.271963 C33.136684,254.586752 48.7944665,285.077446 48.9545297,285.38403 C49.1502069,285.760256 49.6139901,285.905543 49.9901386,285.711027 C50.0049444,285.702221 50.0173493,285.694617 50.0305546,285.686612" id="Fill-88" fill="#9E223E"></path>
                <path d="M41.8027058,231.387232 C41.8027058,231.387232 43.3949345,238.95057 50.8298702,237.510506 C58.2648058,236.070442 58.7345913,223.674605 56.0791428,213.719832 C53.4236943,203.764659 54.6497785,197.177507 54.6497785,197.177507 C54.6497785,197.177507 39.9007548,204.73364 29.7903627,213.639784 C20.954874,221.423254 26.8724106,233.28317 34.6210701,233.469282 C42.0960216,233.648589 41.8027058,231.387232 41.8027058,231.387232" id="Fill-90" fill="#9E223E"></path>
                <path d="M40.6362452,262.569622 C40.6186383,262.568821 40.6030321,262.568421 40.5854251,262.564819 C40.2100769,262.526796 39.9375693,262.192195 39.9763847,261.81637 C40.068421,260.921833 42.378133,239.841985 54.5157255,232.593236 C54.8338511,232.39992 55.2568181,232.507184 55.4520952,232.830578 C55.646572,233.155173 55.5397299,233.573824 55.216002,233.769141 C43.6690427,240.662878 41.3581302,261.745127 41.3365217,261.955653 C41.2985067,262.315069 40.9911854,262.580428 40.6362452,262.569622" id="Fill-92" fill="#FFFFFF"></path>
                <path d="M48.5776609,238.794397 C48.5776609,238.794397 40.4080351,242.647509 36.5192996,234.664319 C32.630164,226.680328 43.8529953,217.481609 54.9997967,212.935681 C66.1461978,208.388953 71.4234815,202.585071 71.4234815,202.585071 C71.4234815,202.585071 74.7579982,221.742566 73.5699291,237.508825 C72.5319192,251.286692 57.3147107,254.122393 51.6900898,246.994517 C46.2635472,240.117991 48.5776609,238.794397 48.5776609,238.794397" id="Fill-94" fill="#FFFFFF"></path>
                <path d="M41.9539255,273.410126 C41.5953839,273.398919 41.3024683,273.109145 41.2924643,272.745727 C41.2832607,272.445948 40.2412492,242.55081 22.9416185,227.063518 C22.6599073,226.811367 22.6362979,226.380708 22.8879973,226.097338 C23.1380961,225.81677 23.5694664,225.795557 23.8527783,226.044507 C41.5953839,241.928037 42.6498003,272.401121 42.6586037,272.708505 C42.669408,273.085131 42.3724908,273.39932 41.9955419,273.411327 C41.9807361,273.411327 41.9675309,273.410526 41.9539255,273.410126" id="Fill-96" fill="#FFFFFF"></path>
                <g id="Group-100" transform="translate(0.000000, 206.620537)">
                    <mask id="mask-4" fill="white">
                        <use xlink:href="#path-3"></use>
                    </mask>
                    <g id="Clip-99"></g>
                    <path d="M24.8077153,21.0457028 C24.8077153,21.0457028 26.8497216,27.6108419 20.4503948,29.7165053 C14.0510681,31.8221687 8.31320247,22.397714 6.06071307,13.5143841 C3.80782352,4.63025357 -8.00316005e-05,0.0455027217 -8.00316005e-05,0.0455027217 C-8.00316005e-05,0.0455027217 14.7313367,-0.481613548 26.4447617,2.0523068 C36.6812036,4.26643528 37.2262188,16.044302 31.287874,19.5488047 C25.5600124,22.9296332 24.8077153,21.0457028 24.8077153,21.0457028" id="Fill-98" fill="#FFFFFF" mask="url(#mask-4)"></path>
                </g>
                <path d="M64.6163938,274.141405 C64.0969887,282.727757 62.456741,296.072564 57.2618898,305.506224 L27.2700476,305.506224 C21.5285806,295.087973 20.1344301,279.88405 19.7790898,271.598279 C19.6422357,267.988513 19.6970574,265.691535 19.6970574,265.691535 L64.8076693,265.691535 C64.8076693,265.691535 64.8897017,269.082369 64.6163938,274.141405" id="Fill-101" fill="#FFFFFF"></path>
                <path d="M65.8813732,269.984631 L18.6511244,269.984631 C18.4814574,269.984631 18.343803,269.846948 18.343803,269.677246 L18.343803,260.55017 C18.343803,260.380468 18.4814574,260.242786 18.6511244,260.242786 L65.8813732,260.242786 C66.0510402,260.242786 66.1886946,260.380468 66.1886946,260.55017 L66.1886946,269.677246 C66.1886946,269.846948 66.0510402,269.984631 65.8813732,269.984631" id="Fill-103" fill="#FFFFFF"></path>
                <polygon id="Fill-105" fill="#333333" points="157.218478 153.23394 240.90152 153.23394 240.90152 150.804082 157.218478 150.804082"></polygon>
                <path d="M253.177207,142.74969 L137.181406,142.74969 C135.877691,142.74969 134.821274,141.692656 134.821274,140.389073 L134.821274,70.8457474 C134.821274,69.5421653 135.877691,68.4851311 137.181406,68.4851311 L253.177207,68.4851311 C254.480522,68.4851311 255.536939,69.5421653 255.536939,70.8457474 L255.536939,140.389073 C255.536939,141.692656 254.480522,142.74969 253.177207,142.74969" id="Fill-107" fill="#333333"></path>
                <polygon id="Fill-108" fill="#4D4D4D" points="146.350186 137.03262 148.124087 137.03262 148.124087 125.279568 146.350186 125.279568"></polygon>
                <polygon id="Fill-109" fill="#4D4D4D" points="150.340962 137.03262 152.114863 137.03262 152.114863 125.279568 150.340962 125.279568"></polygon>
                <polygon id="Fill-110" fill="#4D4D4D" points="154.331738 137.03262 156.105638 137.03262 156.105638 125.279568 154.331738 125.279568"></polygon>
                <polygon id="Fill-111" fill="#4D4D4D" points="158.322914 137.03262 160.096414 137.03262 160.096414 125.279568 158.322914 125.279568"></polygon>
                <polygon id="Fill-112" fill="#4D4D4D" points="227.497427 137.03262 234.591829 137.03262 234.591829 134.038823 227.497427 134.038823"></polygon>
                <polygon id="Fill-113" fill="#4D4D4D" points="237.35492 137.03262 244.449321 137.03262 244.449321 134.038823 237.35492 134.038823"></polygon>
                <path d="M206.930026,156.103782 L183.428747,156.103782 L183.428747,114.703342 C183.428747,114.191435 183.843711,113.776386 184.355513,113.776386 L206.00326,113.776386 C206.515062,113.776386 206.930026,114.191435 206.930026,114.703342 L206.930026,156.103782 Z" id="Fill-114" fill="#4D4D4D"></path>
                <path d="M202.606439,119.735481 L187.751774,119.735481 C187.081109,119.735481 186.532492,119.186352 186.532492,118.51595 C186.532492,117.845147 187.081109,117.296018 187.751774,117.296018 L202.606439,117.296018 C203.277104,117.296018 203.826121,117.845147 203.826121,118.51595 C203.826121,119.186352 203.277104,119.735481 202.606439,119.735481" id="Fill-115" fill="#333333"></path>
                <polygon id="Fill-116" fill="#F49750" points="119.099626 158.015289 117.569822 166.743726 93.3318521 305.506184 83.7804807 305.506184 108.018451 166.743726 109.548255 158.015289"></polygon>
                <polygon id="Fill-117" fill="#F49750" points="154.431577 305.506304 144.880206 305.506304 120.629431 166.743846 119.099626 158.015409 128.664203 158.015409 130.194007 166.743846"></polygon>
                <polygon id="Fill-118" fill="#F49750" points="297.702188 158.015289 296.172384 166.743726 271.921208 305.506184 262.370237 305.506184 286.607407 166.743726 288.137611 158.015289"></polygon>
                <polygon id="Fill-119" fill="#F49750" points="333.020813 305.506304 323.469842 305.506304 299.232272 166.743846 297.702068 158.015409 307.253439 158.015409 308.783643 166.743846"></polygon>
                <polygon id="Fill-120" fill="#F49750" points="109.548215 158.015289 119.099586 158.015289 117.569782 166.743726 108.018411 166.743726"></polygon>
                <polygon id="Fill-121" fill="#F49750" points="130.193847 166.743766 120.629671 166.743766 119.099466 158.015329 128.664443 158.015329"></polygon>
                <polygon id="Fill-122" fill="#EA7F3B" points="87.3096742 162.80008 329.4925 162.80008 329.4925 153.23394 87.3096742 153.23394"></polygon>
                <polygon id="Fill-123" fill="#FFFFFF" points="2.57501674 107.320392 64.9700534 107.320392 64.9700534 30.161697 2.57501674 30.161697"></polygon>
                <polygon id="Fill-124" fill="#EA7F3B" points="7.16282824 101.646988 60.3822419 101.646988 60.3822419 35.8351011 7.16282824 35.8351011"></polygon>
                <path d="M34.0770153,84.5530518 L33.7949039,84.6875325 L33.5135928,84.5530518 C30.9841941,83.3447268 28.8521523,81.6337002 27.169888,79.470002 C27.1726891,79.3779468 27.1398762,79.2790875 27.0574436,79.1718231 C25.7205157,77.4263758 24.6757032,75.3879528 23.9522175,73.1129878 C22.7265336,69.2578747 22.8455919,66.0743646 22.8509827,65.9406844 L22.8729914,65.4323794 L23.4256096,65.3751451 C26.3791758,65.0725635 28.9169779,63.9707024 30.5264133,63.1001801 C32.2486934,62.1676206 33.3255186,61.2774865 33.3723371,61.2386632 L33.7957042,60.881649 L34.220672,61.2406644 C34.3347171,61.3351211 35.377929,62.1876326 37.0637946,63.1001801 C38.6716295,63.9707024 41.2090314,65.0725635 44.1645984,65.3751451 L44.7172166,65.4323794 L44.7388251,65.9406844 C44.744393,66.0743646 44.8636744,69.258275 43.6379905,73.1129878 C42.9145048,75.3879528 41.8696922,77.4263758 40.5323642,79.1718231 C40.4491313,79.2806884 40.4143176,79.3819492 40.4147177,79.4768061 C38.7328537,81.6373024 36.6028126,83.3459276 34.0770153,84.5530518 M48.0153188,73.846628 C48.0153188,70.334921 47.7031956,67.1438063 47.0793493,64.3401241 C45.2698348,56.2056434 40.8372846,51.3291175 33.7949039,51.3291175 C26.8325548,51.3291175 22.421213,56.0959776 20.5732834,64.0647589 C19.9078206,66.9344807 19.5748891,70.2196518 19.5748891,73.846628 C19.5748891,75.441585 19.6613233,77.0009206 19.8257882,78.5118271 C19.8473967,78.5058235 19.8690053,78.4990194 19.891014,78.4930158 C19.8906138,78.5090254 19.8874125,78.5246348 19.8874125,78.5406444 C19.8874125,80.3161097 25.5444462,80.6499099 26.8865762,79.8454273 C28.6004529,82.0203322 30.7601056,83.744967 33.3167151,84.9656994 L33.7949039,85.1942365 L34.273893,84.9656994 C36.8196982,83.7497699 38.9709477,82.0343406 40.6816231,79.8722433 C41.9573268,80.7207525 47.3670629,80.5418451 47.7188018,78.8940564 C47.7436116,78.7771863 47.7608183,78.6595157 47.7608183,78.5406444 L47.7608183,78.5398439 C47.9276842,77.0201321 48.0153188,75.4511907 48.0153188,73.846628" id="Fill-125" fill="#FFF5F5"></path>
            </g>
        </g>
    </g>
</svg>