<?xml version="1.0" encoding="UTF-8"?>
<svg width="135px" height="135px" viewBox="0 0 135 135" version="1.1" xmlns="http://www.w3.org/2000/svg" xmlns:xlink="http://www.w3.org/1999/xlink">
    <title>Group 23</title>
    <defs>
        <polygon id="path-1" points="3.62745596e-12 9.14964762e-13 90.3316931 9.14964762e-13 90.3316931 62.8120806 3.62745596e-12 62.8120806"></polygon>
        <polygon id="path-3" points="3.62745596e-12 9.14964762e-13 90.3316931 9.14964762e-13 90.3316931 64.1485079 3.62745596e-12 64.1485079"></polygon>
    </defs>
    <g id="Page-1" stroke="none" stroke-width="1" fill="none" fill-rule="evenodd">
        <g id="PARTICULIERS---DONNER" transform="translate(-1368.000000, -651.000000)">
            <g id="Group-23" transform="translate(1368.217742, 651.000000)">
                <circle id="Oval-Copy-5" fill="#FF9A00" cx="67.2580645" cy="67.2580645" r="67.2580645"></circle>
                <g id="Group-16" transform="translate(18.782258, 34.000000)">
                    <g id="Group-14" transform="translate(50.000000, 39.500000) rotate(-10.000000) translate(-50.000000, -39.500000) translate(4.834153, 7.425746)">
                        <g id="Group-62">
                            <mask id="mask-2" fill="white">
                                <use xlink:href="#path-1"></use>
                            </mask>
                            <g id="Clip-61"></g>
                            <path d="M88.3392121,9.14964762e-13 C75.7193246,4.00928174 23.2471611,7.35034986 1.99261381,9.14964762e-13 L3.62745596e-12,14.0324861 C3.62745596e-12,14.0324861 31.2176163,49.4478081 32.5460255,60.8074397 C32.5460255,60.8074397 37.1954577,62.8120806 44.5017083,62.8120806 C51.807959,62.8120806 57.7858004,60.8074397 57.7858004,60.8074397 C59.1142096,49.4478081 90.3318259,14.0324861 90.3318259,14.0324861 L88.3392121,9.14964762e-13 Z" id="Fill-60" fill="#C5E2E0" mask="url(#mask-2)"></path>
                        </g>
                        <path d="M22.9832062,42.8691114 C22.9832062,42.8691114 38.5236012,40.7608974 43.8372381,40.7608974 C49.1508749,40.7608974 67.3487526,42.8691114 67.3487526,42.8691114 C67.3487526,42.8691114 59.2421354,53.4816801 57.7855347,60.8073061 C57.1213301,64.1483742 33.2099644,63.4801606 32.5457598,60.8073061 C31.8815552,58.1344516 22.9832062,42.8691114 22.9832062,42.8691114" id="Fill-63" fill="#E7364B"></path>
                        <g id="Group-67">
                            <mask id="mask-4" fill="white">
                                <use xlink:href="#path-3"></use>
                            </mask>
                            <g id="Clip-66"></g>
                            <path d="M88.3392121,9.14964762e-13 C74.6931285,3.11988941 45.8885676,3.9090497 42.8411968,3.99992675 C39.7938261,3.9090497 15.6386974,3.11988941 1.99261381,9.14964762e-13 L3.62745596e-12,14.7006997 C3.62745596e-12,14.7006997 23.9113657,20.7146223 27.8965933,30.0696131 C38.5504351,55.0781761 35.8670485,55.4617307 32.5460255,60.8074397 C32.5460255,60.8074397 33.8505233,64.1485079 43.1732991,64.1485079 C52.4721636,64.1485079 57.1215958,62.8120806 57.7858004,60.8074397 C58.7249857,57.9722093 48.9392593,55.7818051 57.7858004,30.0696131 C63.7636418,12.6960588 90.3318259,14.0324861 90.3318259,14.0324861 L88.3392121,9.14964762e-13 Z" id="Fill-65" fill="#FFFFFF" mask="url(#mask-4)"></path>
                        </g>
                        <path d="M47.8227314,19.7123019 C47.8227314,22.1111888 45.889896,24.0556904 43.5054014,24.0556904 C41.1209069,24.0556904 39.1880715,22.1111888 39.1880715,19.7123019 C39.1880715,17.313415 43.8375037,10.0232044 43.8375037,10.0232044 C43.8375037,10.0232044 47.8227314,17.313415 47.8227314,19.7123019" id="Fill-68" fill="#E7364B"></path>
                        <path d="M30.6883117,33.7160548 L30.4186446,33.1053075 C30.4790872,33.0779108 36.5446036,30.4037199 43.8375702,30.4037199 C51.1597617,30.4037199 55.1469819,33.0211126 55.3130331,33.1327043 L54.9450637,33.688658 C54.9058757,33.6625977 50.943231,31.0719335 43.8375702,31.0719335 C36.6840866,31.0719335 30.7474259,33.6893263 30.6883117,33.7160548" id="Fill-70" fill="#C5E2E0"></path>
                    </g>
                </g>
            </g>
        </g>
    </g>
</svg>