<svg height="143" viewBox="0 0 143 143" width="143" xmlns="http://www.w3.org/2000/svg" xmlns:xlink="http://www.w3.org/1999/xlink"><mask id="a" fill="#fff"><path d="m.23403416 0h100.65970584v69.3739583h-100.65970584z" fill="#fff" fill-rule="evenodd"/></mask><mask id="b" fill="#fff"><path d="m.23403416 0h100.65970584v70.85h-100.65970584z" fill="#fff" fill-rule="evenodd"/></mask><g fill="none" fill-rule="evenodd"><circle cx="71.5" cy="71.5" fill="#ffd8dd" r="71.5"/><g transform="matrix(.98480775 -.17364818 .17364818 .98480775 15.41876 53.542148)"><path d="m98.6734502 0c-14.0627737 4.428125-72.5343066 8.11822917-96.21897808 0l-2.22043796 15.4984375s34.78686134 39.1151042 36.26715324 51.6614583c0 0 5.1810219 2.2140625 13.3226278 2.2140625 8.1416058 0 14.8029197-2.2140625 14.8029197-2.2140625 1.480292-12.5463541 36.2671531-51.6614583 36.2671531-51.6614583z" fill="#c5e2e0" mask="url(#a)"/><path d="m25.8450096 47.347579s17.3171957-2.3284558 23.2383635-2.3284558c5.9211679 0 26.1996876 2.3284558 26.1996876 2.3284558s-9.0334817 11.7212468-10.6566219 19.8121692c-.740146 3.6901042-27.3854014 2.9520834-28.1255474 0-.740146-2.9520833-10.6558818-19.8121692-10.6558818-19.8121692" fill="#e7364b"/><path d="m98.6734502 0c-15.2062993 3.44581927-47.3042102 4.31742187-50.7 4.41779271-3.3957898-.10037084-30.3126788-.97197344-45.51897808-4.41779271l-2.22043796 16.2364583s26.64525544 6.6421875 31.08613134 16.9744792c11.8719417 27.6211677 8.8817519 28.0447917 5.1810219 33.9489583 0 0 1.4536468 3.6901042 11.8423358 3.6901042 10.3620438 0 15.5430657-1.4760417 16.2832117-3.6901042 1.0465664-3.1314224-9.8580044-5.5506547 0-33.9489583 6.6613139-19.1885417 36.2671531-17.7125 36.2671531-17.7125z" fill="#fff" mask="url(#b)"/><path d="m53.5245451 21.7716146c0 2.6494948-2.1538248 4.7971354-4.8109489 4.7971354s-4.8109489-2.1476406-4.8109489-4.7971354 5.1810219-10.7013021 5.1810219-10.7013021 4.4408759 8.0518073 4.4408759 10.7013021" fill="#e7364b"/><path d="m34.4310731 37.2383172-.3004992-.6745511c.0673533-.0302588 6.8263664-2.9838182 14.9531693-2.9838182 8.1593694 0 12.6024657 2.8908276 12.7875022 3.0140771l-.4100409.6140333c-.0436686-.0287828-4.4593795-2.8900896-12.3774613-2.8900896-7.9713723 0-14.5867971 2.8908277-14.6526701 2.9203485" fill="#c5e2e0"/></g></g></svg>