<?xml version="1.0" encoding="UTF-8"?>
<svg width="113px" height="89px" viewBox="0 0 113 89" version="1.1" xmlns="http://www.w3.org/2000/svg" xmlns:xlink="http://www.w3.org/1999/xlink">
    <title>Group 16</title>
    <defs>
        <polygon id="path-1" points="0.234034161 0 100.89374 0 100.89374 69.3739583 0.234034161 69.3739583"></polygon>
        <polygon id="path-3" points="0.234034161 0 100.89374 0 100.89374 70.85 0.234034161 70.85"></polygon>
    </defs>
    <g id="Page-1" stroke="none" stroke-width="1" fill="none" fill-rule="evenodd">
        <g id="QUELS-PRODUITS-DEPOSER" transform="translate(-1349.000000, -767.000000)">
            <g id="Group-16" transform="translate(1349.418760, 767.934223)">
                <g id="Group-14" transform="translate(56.081240, 43.690777) rotate(-10.000000) translate(-56.081240, -43.690777) translate(5.381240, 8.265777)">
                    <g id="Group-62">
                        <mask id="mask-2" fill="white">
                            <use xlink:href="#path-1"></use>
                        </mask>
                        <g id="Clip-61"></g>
                        <path d="M98.6734502,0 C84.6106765,4.428125 26.1391436,8.11822917 2.45447212,0 L0.234034161,15.4984375 C0.234034161,15.4984375 35.0208955,54.6135417 36.5011874,67.1598958 C36.5011874,67.1598958 41.6822093,69.3739583 49.8238152,69.3739583 C57.965421,69.3739583 64.6267349,67.1598958 64.6267349,67.1598958 C66.1070269,54.6135417 100.893888,15.4984375 100.893888,15.4984375 L98.6734502,0 Z" id="Fill-60" fill="#C5E2E0" mask="url(#mask-2)"></path>
                    </g>
                    <path d="M25.8450096,47.347579 C25.8450096,47.347579 43.1622053,45.0191232 49.0833731,45.0191232 C55.004541,45.0191232 75.2830607,47.347579 75.2830607,47.347579 C75.2830607,47.347579 66.249579,59.0688258 64.6264388,67.1597482 C63.8862928,70.8498524 37.2410374,70.1118316 36.5008914,67.1597482 C35.7607454,64.2076649 25.8450096,47.347579 25.8450096,47.347579" id="Fill-63" fill="#E7364B"></path>
                    <g id="Group-67">
                        <mask id="mask-4" fill="white">
                            <use xlink:href="#path-3"></use>
                        </mask>
                        <g id="Clip-66"></g>
                        <path d="M98.6734502,0 C83.4671509,3.44581927 51.36924,4.31742187 47.9734502,4.41779271 C44.5776604,4.31742187 17.6607714,3.44581927 2.45447212,0 L0.234034161,16.2364583 C0.234034161,16.2364583 26.8792896,22.8786458 31.3201655,33.2109375 C43.1921072,60.8321052 40.2019174,61.2557292 36.5011874,67.1598958 C36.5011874,67.1598958 37.9548342,70.85 48.3435232,70.85 C58.705567,70.85 63.8865889,69.3739583 64.6267349,67.1598958 C65.6733013,64.0284734 54.7687305,61.6092411 64.6267349,33.2109375 C71.2880488,14.0223958 100.893888,15.4984375 100.893888,15.4984375 L98.6734502,0 Z" id="Fill-65" fill="#FFFFFF" mask="url(#mask-4)"></path>
                    </g>
                    <path d="M53.5245451,21.7716146 C53.5245451,24.4211094 51.3707203,26.56875 48.7135962,26.56875 C46.0564721,26.56875 43.9026473,24.4211094 43.9026473,21.7716146 C43.9026473,19.1221198 49.0836692,11.0703125 49.0836692,11.0703125 C49.0836692,11.0703125 53.5245451,19.1221198 53.5245451,21.7716146" id="Fill-68" fill="#E7364B"></path>
                    <path d="M34.4310731,37.2383172 L34.1305739,36.5637661 C34.1979272,36.5335073 40.9569403,33.5799479 49.0837432,33.5799479 C57.2431126,33.5799479 61.6862089,36.4707755 61.8712454,36.594025 L61.4612045,37.2080583 C61.4175359,37.1792755 57.001825,34.3179687 49.0837432,34.3179687 C41.1123709,34.3179687 34.4969461,37.2087964 34.4310731,37.2383172" id="Fill-70" fill="#C5E2E0"></path>
                </g>
            </g>
        </g>
    </g>
</svg>