<?xml version="1.0" encoding="UTF-8"?>
<svg width="136px" height="135px" viewBox="0 0 136 135" version="1.1" xmlns="http://www.w3.org/2000/svg" xmlns:xlink="http://www.w3.org/1999/xlink">
    <title>Group 22</title>
    <g id="Page-1" stroke="none" stroke-width="1" fill="none" fill-rule="evenodd">
        <g id="PARTICULIERS---DONNER" transform="translate(-1178.000000, -651.000000)">
            <g id="Group-22" transform="translate(1178.774194, 651.000000)">
                <circle id="Oval-Copy-4" fill="#FF9A00" cx="67.2580645" cy="67.2580645" r="67.2580645"></circle>
                <g id="Group-7" transform="translate(26.225806, 25.000000)">
                    <g id="Group-12" transform="translate(38.500000, 38.000000) rotate(-69.000000) translate(-38.500000, -38.000000) translate(9.168036, 8.120637)">
                        <path d="M46.1405914,10.1703875 C36.5321718,2.48699966 26.1353151,-0.501372549 22.9184919,3.49515328 C21.815848,4.86419329 21.7002106,6.87584393 22.4092199,9.23673946 C20.8743958,11.2914636 18.5441262,14.4882186 17.071209,16.8619198 C14.8355519,20.4672914 2.80458638,37.9621326 9.86898245,47.7258559 C6.62646203,51.1228447 0.428762703,57.4348642 1.25574558,59.1636265 C1.42394548,59.5151997 1.81173971,59.7317315 2.20070199,59.7561787 C2.91438354,59.8004164 3.62806509,59.2590868 4.18639533,58.8772457 C4.54031597,58.6351025 9.13077175,53.2904914 11.9527924,49.9877988 C22.1884575,56.8865497 38.3987235,44.2101239 41.876023,41.6839191 C41.876023,41.6839191 47.9744376,36.362591 51.2905455,32.9609456 C54.1861536,33.3520999 56.4767093,32.8503514 57.7090072,31.3183305 C60.9269985,27.3218046 55.747843,17.8537753 46.1405914,10.1703875" id="Fill-22" fill="#C5E2E0"></path>
                        <path d="M44.9600383,8.44802806 C35.3516187,0.76464022 24.95593,-2.22373199 21.7379388,1.77279384 C20.6352949,3.14183385 20.5196575,5.15348449 21.2286668,7.51438002 C19.6938427,9.5691042 17.3635731,12.7658592 15.8906559,15.1395604 C13.6549988,18.7449319 1.62403329,36.2397732 8.68842936,46.0034965 C5.44590894,49.4004853 -0.75179039,55.7125048 0.0751924828,57.441267 C0.243392389,57.7928402 0.631186618,58.0093721 1.0201489,58.0338192 C1.73383045,58.0780569 2.447512,57.5367273 3.00584224,57.1548862 C3.35976288,56.9127431 7.95021866,51.5681319 10.7722393,48.2654393 C21.0079044,55.1641903 37.2181704,42.4877645 40.6954699,39.9615597 C40.6954699,39.9615597 46.7938845,34.6402315 50.1099924,31.2385862 C53.0056005,31.6309046 55.2961562,31.127992 56.5296222,29.595971 C59.7464454,25.5994452 54.5672899,16.1314159 44.9600383,8.44802806" id="Fill-24" fill="#FFFFFF"></path>
                        <line x1="50.6062989" y1="31.3985404" x2="34.3855205" y2="21.0178177" id="Fill-26" fill="#4B64A3"></line>
                        <path d="M53.9394604,26.6850148 C51.8930282,29.2275176 43.7890633,26.134372 35.8392816,19.7769506 C27.8883319,13.4183651 23.103979,6.20412957 25.1515792,3.66162668 C27.1968434,1.12028795 35.3008083,4.21226948 43.251758,10.5696908 C51.2003717,16.9282764 55.9858926,24.1425119 53.9394604,26.6850148" id="Fill-28" fill="#E7364B"></path>
                        <path d="M27.1721974,49.4592748 C27.1570127,49.4546182 27.1441641,49.4499616 27.1289794,49.4441409 C21.8960934,47.3253885 17.6502138,45.2625152 13.9264548,42.0750734 C11.5354464,40.0273342 9.06501026,36.9551432 7.4787917,34.0564105 C7.32227234,33.7700297 7.42856534,33.4137999 7.71473879,33.2578038 C8.00091224,33.1018078 8.36067315,33.2077454 8.5148564,33.492962 C10.038,36.2752798 12.4056473,39.2217426 14.6950349,41.1821706 C18.2973162,44.2660031 22.4485834,46.2788179 27.5728402,48.3533326 C27.8753665,48.4755683 28.0213733,48.8189925 27.8975595,49.1193431 C27.780754,49.4068881 27.4630431,49.5524068 27.1721974,49.4592748" id="Fill-30" fill="#E7364B"></path>
                        <path d="M29.8208787,48.096172 C29.8033579,48.0915154 29.7870051,48.0845305 29.7694843,48.0775456 C24.1312833,45.7015161 19.573533,43.3394564 15.6570449,39.5268662 C13.148063,37.0844802 10.6098797,33.3545447 9.03417361,29.7934108 C8.9021834,29.4953885 9.03767777,29.1484719 9.33553177,29.016923 C9.63572188,28.8865382 9.98380225,29.0215796 10.1146244,29.3184377 C11.6342638,32.750351 14.0743305,36.3405886 16.4816917,38.685186 C20.2650215,42.3673914 24.7141427,44.6700795 30.2296979,46.9937222 C30.529888,47.1194504 30.6712227,47.4652028 30.5439047,47.7643893 C30.4247631,48.0472777 30.1082202,48.1881398 29.8208787,48.096172" id="Fill-32" fill="#E7364B"></path>
                        <path d="M22.913002,50.9883854 C22.8966492,50.9837288 22.8826326,50.9779081 22.8662798,50.9709232 C18.7582307,49.2829061 15.4292742,47.6239928 12.5278258,45.0151334 C10.6636102,43.3375938 8.75267238,40.8032399 7.54139944,38.4015991 C7.39422452,38.1105617 7.51103001,37.7578244 7.80304374,37.6111415 C8.09272135,37.4656228 8.4489781,37.5820378 8.59615302,37.8730752 C9.7466871,40.1524802 11.5560041,42.554121 13.318599,44.140857 C16.0938975,46.6367939 19.3235693,48.2421563 23.317149,49.8836074 C23.6185072,50.0070072 23.7621779,50.3515955 23.637196,50.6519461 C23.5192225,50.9371628 23.2026796,51.0803532 22.913002,50.9883854" id="Fill-34" fill="#E7364B"></path>
                        <path d="M9.31380595,51.588621 C8.74496321,51.4081778 8.15626354,51.1520648 7.63531105,50.6118994 C7.29423902,50.259162 6.95316699,49.7050268 6.72656434,49.1287727 C6.60859079,48.8260938 6.75810182,48.4849979 7.06062804,48.3662547 C7.36432232,48.2475114 7.7065624,48.3965226 7.82687206,48.6992015 C7.99507196,49.1252803 8.2532121,49.5560156 8.48448697,49.7958305 C8.84424788,50.1660301 9.2764282,50.352294 9.80555707,50.5082901 C10.1069152,50.6037504 10.2961401,50.9308764 10.2015277,51.2417044 C10.1080833,51.5525323 9.77752375,51.7294831 9.46565309,51.6363511 C9.41542673,51.6212172 9.36520037,51.6049191 9.31380595,51.588621" id="Fill-36" fill="#E7364B"></path>
                        <path d="M7.63694633,53.6538225 C7.0704397,53.4733793 6.48290808,53.2172664 5.96078754,52.6782651 C5.62088356,52.3255277 5.28214764,51.7713925 5.05554499,51.1963025 C4.93523533,50.8936236 5.08474636,50.5513636 5.38844064,50.4326204 C5.69213491,50.3127129 6.03554305,50.4628882 6.1535166,50.7655672 C6.32288456,51.1916459 6.5810247,51.6223813 6.81229957,51.861032 C7.17206048,52.2335599 7.60073663,52.4151672 8.13336967,52.5746557 C8.13687383,52.5758199 8.14037799,52.5758199 8.14388216,52.576984 C8.44874449,52.6747726 8.62161662,52.9995704 8.52934028,53.3069059 C8.43589589,53.618898 8.1065044,53.7958488 7.79463374,53.7027168 C7.74207127,53.6864187 7.6895088,53.6701206 7.63694633,53.6538225" id="Fill-38" fill="#E7364B"></path>
                        <path d="M5.49940585,55.5710606 C4.93173117,55.3906174 4.34536761,55.1345045 3.82324706,54.5966673 C3.48100698,54.2416017 3.14227105,53.6874664 2.91683646,53.1123765 C2.79769486,52.8096976 2.94720588,52.4686017 3.25090016,52.3498584 C3.55459444,52.2311152 3.89800258,52.3801263 4.01597612,52.6839694 C4.18300797,53.1077199 4.44231616,53.5384553 4.67475909,53.7794342 C5.03335195,54.1496338 5.4620281,54.330077 5.99582919,54.4918938 C5.99933335,54.493058 6.00166946,54.4942221 6.00166946,54.4942221 C6.31120401,54.5920107 6.48407614,54.9168085 6.3917998,55.224144 C6.29835541,55.5361361 5.96779587,55.7130869 5.65592521,55.6199549 C5.60453079,55.6036568 5.55196832,55.5885228 5.49940585,55.5710606" id="Fill-40" fill="#E7364B"></path>
                    </g>
                </g>
            </g>
        </g>
    </g>
</svg>