<svg height="143" viewBox="0 0 143 143" width="143" xmlns="http://www.w3.org/2000/svg"><g fill="none" fill-rule="evenodd"><circle cx="71.5" cy="71.5" fill="#ffd8dd" r="71.5"/><g transform="matrix(.35836795 -.93358043 .93358043 .35836795 28.6 85.989555)"><path d="m51.3526963 11.3572198c-10.6938-8.57999997-22.2651-11.91709997-25.8453-7.45419997-1.2272 1.5288-1.3559 3.7752-.5668 6.41159997-1.7082 2.2945-4.3017 5.8643-5.941 8.515-2.4882 4.0261-15.87819997 23.5625-8.0158 34.4656-3.60879997 3.7934-10.50659997 10.842-9.58619997 12.7725.1872.3926.6188.6344 1.0517.6617.7943.0494 1.5886-.5551 2.21-.9815.3939-.2704 5.50289997-6.2387 8.64369997-9.9268 11.3919 7.7038 29.4333-6.4519 33.3034-9.2729 0 0 6.7873-5.9423 10.478-9.7409 3.2227.4368 5.772-.1235 7.1435-1.8343 3.5815-4.4629-2.1827-15.0358-12.8752-23.6158" fill="#c5e2e0"/><path d="m50.0387863 9.43386983c-10.6938-8.58-22.2638-11.9171-25.8453-7.4542-1.2272 1.5288-1.3559 3.7752-.5668 6.4116-1.7082 2.29449997-4.3017 5.86429997-5.941 8.51499997-2.4882 4.0261-15.87819997 23.5625-8.01579997 34.4656-3.6088 3.7934-10.5066 10.842-9.5862 12.7725.1872.3926.6188.6344 1.0517.6617.7943.0494 1.5886-.5551 2.21-.9815.3939-.2704 5.5029-6.2387 8.64369997-9.9268 11.3919 7.7038 29.4333-6.4519 33.3034-9.2729 0 0 6.7873-5.9423 10.478-9.7409 3.2227.4381 5.772-.1235 7.1448-1.8343 3.5802-4.4629-2.184-15.0358-12.8765-23.61579997" fill="#fff"/><path d="m56.322856 35.06259-18.0531-11.5921" fill="#4b64a3"/><g fill="#e7364b"><path d="m60.0325363 29.7990198c-2.2776 2.8392-11.297-.6149-20.1448-7.7142-8.8491-7.1006-14.1739-15.15669997-11.895-17.99589997 2.2763-2.8379 11.2957.6149 20.1448 7.71419997 8.8465 7.1006 14.1726 15.1567 11.895 17.9959"/><path d="m30.2416063 55.2309198c-.0169-.0052-.0312-.0104-.0481-.0169-5.824-2.366-10.5495-4.6696-14.6939-8.229-2.6611-2.2867-5.4106-5.7174-7.17599997-8.9544-.1742-.3198-.0559-.7176.2626-.8918s.7189-.0559.8905.2626c1.69519997 3.107 4.33029997 6.3973 6.87829997 8.5865 4.0092 3.4437 8.6294 5.6914 14.3325 8.008.3367.1365.4992.52.3614.8554-.13.3211-.4836.4836-.8073.3796"/><path d="m33.1894863 53.7087498c-.0195-.0052-.0377-.013-.0572-.0208-6.2751-2.6533-11.3477-5.291-15.7066-9.5485-2.7924-2.7274-5.6173-6.8926-7.371-10.8693-.14689997-.3328.0039-.7202.3354-.8671.3341-.1456.7215.0052.8671.3367 1.6913 3.8324 4.407 7.8416 7.0863 10.4598 4.2107 4.1119 9.1624 6.6833 15.301 9.2781.3341.1404.4914.5265.3497.8606-.1326.3159-.4849.4732-.8047.3705"/><path d="m25.5012863 56.9384698c-.0182-.0052-.0338-.0117-.052-.0195-4.5721-1.885-8.2771-3.7375-11.5063-6.6508-2.0748-1.8733-4.20159997-4.7034-5.54969997-7.3853-.1638-.325-.0338-.7189.2912-.8827.3224-.1625.7189-.0325.8827.2925 1.28049997 2.5454 3.29419997 5.2273 5.25589997 6.9992 3.0888 2.7872 6.6833 4.5799 11.128 6.4129.3354.1378.4953.5226.3562.858-.1313.3185-.4836.4784-.806.3757"/><path d="m10.3659063 57.6087498c-.63309997-.2015-1.28829997-.4875-1.86809997-1.0907-.3796-.3939-.7592-1.0127-1.0114-1.6562-.1313-.338.0351-.7189.3718-.8515.338-.1326.7189.0338.8528.3718.1872.4758.4745.9568.7319 1.2246.4004.4134.88139997.6214 1.47029997.7956.3354.1066.546.4719.4407.819-.104.3471-.4719.5447-.819.4407-.0559-.0169-.1118-.0351-.169-.0533"/><path d="m8.49962633 59.9149498c-.6305-.2015-1.2844-.4875-1.8655-1.0894-.3783-.3939-.7553-1.0127-1.0075-1.6549-.1339-.338.0325-.7202.3705-.8528.338-.1339.7202.0338.8515.3718.1885.4758.4758.9568.7332 1.2233.4004.416.8775.6188 1.4703.7969.0039.0013.0078.0013.0117.0026.3393.1092.5317.4719.429.8151-.104.3484-.4706.546-.8177.442-.0585-.0182-.117-.0364-.1755-.0546"/><path d="m6.12062633 62.0559198c-.6318-.2015-1.2844-.4875-1.8655-1.0881-.3809-.3965-.7579-1.0153-1.0088-1.6575-.1326-.338.0338-.7189.3718-.8515s.7202.0338.8515.3731c.1859.4732.4745.9542.7332 1.2233.3991.4134.8762.6149 1.4703.7956.0039.0013.0065.0026.0065.0026.3445.1092.5369.4719.4342.8151-.104.3484-.4719.546-.819.442-.0572-.0182-.1157-.0351-.1742-.0546"/></g></g></g></svg>