<svg height="143" viewBox="0 0 143 143" width="143" xmlns="http://www.w3.org/2000/svg" xmlns:xlink="http://www.w3.org/1999/xlink"><mask id="a" fill="#fff"><path d="m.09988658.24498979h26.60019702v57.32510371h-26.60019702z" fill="#fff" fill-rule="evenodd"/></mask><mask id="b" fill="#fff"><path d="m0 .24498979h26.5999904v57.32510371h-26.5999904z" fill="#fff" fill-rule="evenodd"/></mask><mask id="c" fill="#fff"><path d="m0 77h29v-77h-29z" fill="#fff" fill-rule="evenodd"/></mask><g fill="none" fill-rule="evenodd"><circle cx="71.5" cy="71.5" fill="#ffd8dd" r="71.5"/><g transform="translate(56 31)"><path d="m26.3159656 6.81336182c-.6854388-4.50104139-5.4887153-6.28571429-5.6981105-6.36129951-1.147069-.41513129-2.5904141-.08537606-3.7739171-.04033823-2.1351899.08067645-4.2743836.05913662-6.4087728-.03563863-1.72921154-.08498443-3.63498766-.28902537-5.24648953.47779261-2.36100037 1.12398754-4.39169291 3.37274588-4.78566007 5.95909212-.4412112 2.89573654-.23421829 5.94499332-.26064291 8.86618602-.03122911 3.4217001-.04524217 6.8434001-.04203918 10.2654918.00880821 8.9950334.15254216 17.9904584.30268209 26.9835336 0 0 .30027985 2.9372496 3.70385186 3.8184245 2.73855224.7092479 5.65967463.6563774 8.46829214.7108145 3.5392985.0685358 7.5262142.5028571 10.8493112-.9645928 1.5854776-.7002404 2.6993157-1.8810147 2.8930963-3.6124255.721072-6.4325768.1905776-13.1835514.2474306-19.6639074.0508474-5.7777659.0888828-11.5567067.0460429-17.3348643-.0224209-2.9791544.1553448-6.10987092-.295075-9.06826878" fill="#c5e2e0" mask="url(#a)" transform="translate(2.175 19.429907)"/><path d="m26.2158723 6.81336182c-.6854388-4.50104139-5.4887153-6.28571429-5.6981104-6.36129951-1.1470691-.41513129-2.5904142-.08537606-3.7739172-.04033823-2.1351899.08067645-4.2743836.05913662-6.4087728-.03563863-1.72921153-.08498443-3.63498765-.28902537-5.24648951.47779261-2.36100038 1.12398754-4.39169291 3.37274588-4.78566008 5.95909212-.44121119 2.89573654-.23421828 5.94499332-.26064291 8.86618602-.0312291 3.4217001-.04524216 6.8434001-.04203918 10.2654918.00880821 8.9950334.15254217 17.9904584.30268209 26.9835336 0 0 .30027985 2.9372496 3.70385187 3.8184245 2.73855224.7092479 5.65967463.6563774 8.46829212.7108145 3.5392986.0685358 7.5262142.5028571 10.8493112-.9645928 1.5854776-.7002404 2.6993157-1.8810147 2.8930963-3.6124255.721072-6.4325768.1905776-13.1835514.2474306-19.6639074.0508474-5.7777659.0888828-11.5567067.0460429-17.3348643-.0224209-2.9791544.1553448-6.10987092-.295075-9.06826878" fill="#fff" mask="url(#b)" transform="translate(0 19.429907)"/><path d="m7.25.63930847s.39280936-.68804283.88382107-.63655664c.49101171.0514862 11.88248323.14899794 12.07888793.44153316s0 2.0333148 0 2.0333148l.087291 15.61631011-.971112.5850704s-10.70405522-.1950235-11.29326927 0-.78561873-.5850704-.78561873-.5850704z" fill="#fff"/><path d="m9.0836137.71962617h9.0413863s-.0993559 2.73729501-1.3909825 2.83505554c-1.2916266.09776054-4.3716593 0-4.3716593 0l-2.78196504.04340568s-1.58969429-2.38965854-.49677946-2.87846122" fill="#ff9ca8"/><path d="m5.8 67.6448598h16.675v-38.8598131h-16.675z" fill="#e9364b" mask="url(#c)"/></g></g></svg>