<?xml version="1.0" encoding="UTF-8"?>
<svg width="136px" height="135px" viewBox="0 0 136 135" version="1.1" xmlns="http://www.w3.org/2000/svg" xmlns:xlink="http://www.w3.org/1999/xlink">
    <title>Group 24</title>
    <defs>
        <polygon id="path-1" points="0 0 23.8484525 0 23.8484525 51.3692487 0 51.3692487"></polygon>
        <polygon id="path-3" points="0 0 23.8482672 0 23.8482672 51.3692487 0 51.3692487"></polygon>
        <polygon id="path-5" points="0 69 26 69 26 0 0 0"></polygon>
    </defs>
    <g id="Page-1" stroke="none" stroke-width="1" fill="none" fill-rule="evenodd">
        <g id="PARTICULIERS---DONNER" transform="translate(-799.000000, -906.000000)">
            <g id="Group-24" transform="translate(799.887097, 906.000000)">
                <circle id="Oval-Copy-7" fill="#FF9A00" cx="67.2580645" cy="67.2580645" r="67.2580645"></circle>
                <g id="Group-13" transform="translate(54.112903, 33.000000)">
                    <g id="Group-3" transform="translate(2.039553, 17.630751)">
                        <mask id="mask-2" fill="white">
                            <use xlink:href="#path-1"></use>
                        </mask>
                        <g id="Clip-2"></g>
                        <path d="M23.5040708,5.88594376 C22.8895395,1.85254304 18.5831537,0.253290699 18.3954201,0.185558485 C17.3670134,-0.186442278 16.0729798,0.109052668 15.0119082,0.149411241 C13.0975999,0.221705729 11.1797022,0.202403803 9.26611189,0.117475327 C7.71578428,0.0413204534 6.00715741,-0.141521431 4.56236263,0.545627148 C2.44560368,1.55283676 0.624982784,3.56795787 0.271770843,5.88559282 C-0.123797813,8.48047361 0.0617820375,11.2129245 0.0380909927,13.8306167 C0.0100924852,16.8968154 -0.00247094759,19.9630141 0.000400694203,23.0295638 C0.00829770913,31.0900483 0.137162635,39.1508837 0.271770843,47.2096134 C0.271770843,47.2096134 0.540987261,49.8416943 3.59246562,50.6313185 C6.04771935,51.2668783 8.66665666,51.2195009 11.1847276,51.2682821 C14.3578917,51.3296973 17.9323679,51.7188944 20.9116962,50.4039068 C22.3331589,49.7764187 23.3317723,48.7183222 23.5055067,47.1667982 C24.151985,41.4025411 23.6763694,35.3529665 23.727341,29.5458942 C23.7729283,24.3684156 23.8070291,19.1898843 23.7686208,14.0120548 C23.7485194,11.3424229 23.9078955,8.53697561 23.5040708,5.88594376" id="Fill-1" fill="#C5E2E0" mask="url(#mask-2)"></path>
                    </g>
                    <g id="Group-6" transform="translate(0.000000, 17.630751)">
                        <mask id="mask-4" fill="white">
                            <use xlink:href="#path-3"></use>
                        </mask>
                        <g id="Clip-5"></g>
                        <path d="M23.5038855,5.88594376 C22.8893542,1.85254304 18.5829684,0.253290699 18.3952348,0.185558485 C17.3668281,-0.186442278 16.0727945,0.109052668 15.0117228,0.149411241 C13.0974146,0.221705729 11.1795169,0.202403803 9.26592657,0.117475327 C7.71559896,0.0413204534 6.00697209,-0.141521431 4.56217731,0.545627148 C2.44541836,1.55283676 0.624797463,3.56795787 0.271585522,5.88559282 C-0.123983134,8.48047361 0.0615967164,11.2129245 0.0379056716,13.8306167 C0.00990716418,16.8968154 -0.00265626866,19.9630141 0.000215373135,23.0295638 C0.00811238806,31.0900483 0.136977313,39.1508837 0.271585522,47.2096134 C0.271585522,47.2096134 0.54080194,49.8416943 3.5922803,50.6313185 C6.04753403,51.2668783 8.66647134,51.2195009 11.1845422,51.2682821 C14.3577064,51.3296973 17.9321825,51.7188944 20.9115109,50.4039068 C22.3329736,49.7764187 23.331587,48.7183222 23.5053213,47.1667982 C24.1517997,41.4025411 23.676184,35.3529665 23.7271557,29.5458942 C23.772743,24.3684156 23.8068437,19.1898843 23.7684355,14.0120548 C23.748334,11.3424229 23.9077101,8.53697561 23.5038855,5.88594376" id="Fill-4" fill="#FFFFFF" mask="url(#mask-4)"></path>
                    </g>
                    <path d="M6.5,0.572886811 C6.5,0.572886811 6.85217391,-0.0436710537 7.2923913,0.00246592937 C7.7326087,0.0486029125 17.9456522,0.135983562 18.1217391,0.398125512 C18.2978261,0.660267461 18.1217391,2.22018682 18.1217391,2.22018682 L18.2,16.2140231 L17.3293478,16.738307 C17.3293478,16.738307 7.7326087,16.5635457 7.20434783,16.738307 C6.67608696,16.9130683 6.5,16.2140231 6.5,16.2140231 L6.5,0.572886811 Z" id="Fill-7" fill="#FFFFFF"></path>
                    <path d="M8.14392952,0.644859813 L16.25,0.644859813 C16.25,0.644859813 16.1609223,3.09776054 15.0029122,3.18536413 C13.8449022,3.27296773 11.0834935,3.18536413 11.0834935,3.18536413 L8.58931801,3.22426013 C8.58931801,3.22426013 7.16407485,1.0828778 8.14392952,0.644859813" id="Fill-9" fill="#FF9CA8"></path>
                    <mask id="mask-6" fill="white">
                        <use xlink:href="#path-5"></use>
                    </mask>
                    <g id="Clip-12"></g>
                    <polygon id="Fill-11" fill="#E9364B" mask="url(#mask-6)" points="5.2 60.6168224 20.15 60.6168224 20.15 25.7943925 5.2 25.7943925"></polygon>
                </g>
            </g>
        </g>
    </g>
</svg>