<svg id="Calque_1" data-name="Calque 1" xmlns="http://www.w3.org/2000/svg" viewBox="0 0 1494.59 1109.79"><defs><style>.cls-1{fill:#ffb07b;}.cls-2{fill:#ff9a00;}.cls-3{fill:#9e223e;}.cls-4{fill:#fff;}.cls-5{fill:#935c2f;}.cls-6{fill:#a16d3c;}.cls-7{fill:#ea8e50;}.cls-8{fill:#77122a;}</style></defs><path class="cls-1" d="M781.86,675.76c.72,6.65,10.12,6.41,20.74,4.82s7.88,1.2,22.82.91,19.93-5.4,20.58-7.56c.58-1.91-6.66-3.27-14.42-4.88-1-.2-2-.42-2.94-.63-8.75-1.92-14.71-8.22-22.32-13.64-7.21-5.14-12.07-28.68-12.07-28.68L773,626s6.68,21.29,10.15,28.7c2.05,4.35-.13,10-.82,14.14A26.1,26.1,0,0,0,781.86,675.76Z"/><path class="cls-2" d="M802.6,680.58c10.63-1.6,7.88,1.2,22.82.91s19.93-5.4,20.58-7.56c.58-1.91-6.66-3.27-14.42-4.88l-.09.14a41.9,41.9,0,0,1-21.78,4.66c-10.06-.68-20.43-4.52-27.37-5a26.1,26.1,0,0,0-.48,7C782.58,682.41,792,682.17,802.6,680.58Z"/><path class="cls-1" d="M615.81,674.71c.46,6.67,9.86,6.78,20.54,5.59s7.83,1.5,22.77,1.77,20.11-4.64,20.85-6.77c.65-1.89-6.54-3.52-14.23-5.43-1-.23-1.94-.48-2.91-.73-8.67-2.25-14.39-8.77-21.79-14.48-7-5.4-1.25-27.83-1.25-27.83l-16.11-7.61s-2.22,23.11-3.42,34.8c-.49,4.79-2.87,9.59-3.71,13.76A25.58,25.58,0,0,0,615.81,674.71Z"/><path class="cls-2" d="M636.35,680.3c10.68-1.19,7.83,1.5,22.77,1.77s20.11-4.64,20.85-6.77c.65-1.89-6.54-3.52-14.23-5.43l-.09.14a41.92,41.92,0,0,1-21.95,3.83c-10-1.05-20.24-5.28-27.15-6.06a25.58,25.58,0,0,0-.74,6.93C616.27,681.38,625.67,681.49,636.35,680.3Z"/><path class="cls-3" d="M652,341.93s-4.46,21.62-8.94,131.24a353.71,353.71,0,0,0-14.3,45.12c-6,24.81-10.26,128.38-10.26,128.38s2.39,3.45,9.68,3.89a21,21,0,0,0,10.57-2.25S680.58,512.67,700.93,460s32.28-127.85,32.28-127.85Z"/><path class="cls-3" d="M702.3,351.18S705.6,373,739.36,477.4a354.06,354.06,0,0,0,2.2,47.28c3,25.37,37.12,125.24,37.12,125.24s4.54,1.58,11.35-.22a35.79,35.79,0,0,0,11.29-5.48S788.22,501.47,789.08,445s-14-131.12-14-131.12Z"/><path class="cls-2" d="M762.09,48.85c-5.29-3.37-11.8-4-16.38-4a7.8,7.8,0,0,1,3.57-1.48c-2.81-.56-9.27,1.93-9.27,1.93-38.61-17.14-47.7,40.53-47.55,54s-.52,29-20.78,40.12c-39.87,21.83-9.31,65-9.31,65-7.18,20.59,19.39,45.82,19.39,45.82-.45-10.94,49.74-80.6,76.8-96.49,6.85-9.07,10-25.55,10.18-26.85-1.76,13.1-4.38,20.37-6.59,24.42C785.36,132,776.12,57.77,762.09,48.85Z"/><path class="cls-1" d="M753.68,146.29c.14.06-12.66,6.7-22.29,4.07-9.06-2.47-15-14.21-14.85-14.24,3.83-.76,4.94-6,4.86-28.67l1.74.34,28.1,5.57,1,.2s-.67,9.17-.69,17.81c0,1.83,0,3.63.09,5.32C751.88,141.71,752.43,145.7,753.68,146.29Z"/><path class="cls-2" d="M720.12,104.61s-8.54-13.5-10.6-25c-1.46-8.25,2.74-38.81,33.45-34.41a41.79,41.79,0,0,1,17.31,6.54c6.67,4.51,16.29,14.23,5.53,40.9l-2.8,9Z"/><path class="cls-1" d="M754,127.14s-38.26-5.06-34.75-28.84,1-40.45,25.53-38.23,28,12,28.73,20.22S764.05,127.84,754,127.14Z"/><path class="cls-2" d="M762.25,62.08S747.65,88.42,731,90.15s-23-3.6-23-3.6a45.94,45.94,0,0,0,18.86-24.62S756.35,47.63,762.25,62.08Z"/><path class="cls-2" d="M759.33,64s6.87,7.39,7.87,13.73,0,18.93,3.7,19c0,0,10.7-17.79,3.45-29.84C766.66,54.13,759.33,64,759.33,64Z"/><path class="cls-1" d="M857.45,254.85s16.61,2.72,21,13.52-1.73,18.12-4.07,18.1-6.82-1.76-8.92-7.36S857.45,254.85,857.45,254.85Z"/><path class="cls-1" d="M628.77,303.05s18.64,0,25.35,11,1.39,20.11-1.18,20.51-7.77-.69-11.07-6.43S628.77,303.05,628.77,303.05Z"/><path class="cls-4" d="M857.91,267.39c-1.65-.36-8.88-1.21-18.07-2.65-16.93-2.66-40.53-7.33-48.45-14.64-2.15-2-7.14-12.9-12.34-25.41-5.25,27.7-5.54,48.94-4.15,65.12L660.47,314.43c9.82-19.83,25-44.43,22.15-64.33-1-7.38-5.1-17.5-6.61-28.88-.12-1-.23-2-.32-2.95-16.05,13.21-34.59,27.79-35,30.7-.74,4.89,11.76,59,11.76,59-3.11,7.14-16.58,5.63-16.58,5.63-12.63-9-31.2-60.11-29.71-71.43s47.53-75.84,58.67-91.26c11-15.23,51.2-14.85,52.17-14.84h0c32,19.19,34.84,3.24,34.84,3.24s28.84,5.48,33.79,14,26.69,73.11,28.23,75.39c3.22,4.76,55.75,23.79,56.69,29.3S862.62,268.39,857.91,267.39Z"/><g id="man"><path class="cls-4" d="M50.46,1018c2.4,8.1,13.49,13.5,15,23.4a21.54,21.54,0,0,0,4.81,11.16h34.54c-.34-1.9-1.86-4-6.35-4.93-9.59-2.1-13.21-13.73-12.61-24.53.25-4.52.13-9.68-.09-14.15-.31-6.18-.81-11-.81-11l-20.39-4.8-2.15,2.76-2,2.64S48.06,1009.89,50.46,1018Z"/><path class="cls-4" d="M211.31,1052.55h69.88c-1.58-1.86-4.26-3.65-8.8-4.39-10.76-1.74-29.38-8-33.54-21.73-.13-.44-.26-.89-.36-1.36-3.29-14.69-27.29,4.5-27.29,4.5s-.07.59-.18,1.59C210.6,1035.3,209.67,1046.52,211.31,1052.55Z"/><path class="cls-2" d="M269.53,663.22s-3.64,45.46-7.93,100.11c-5.82,74.23-12.82,165.41-13.51,182.69-1.2,30-6,78-6,78s-11.39,11.4-34.19,6.6c0,0-20.31-68.5-26.12-141-.09-1.18-.18-2.38-.27-3.58-5.4-73.77-13.79-229.12-13.79-229.12Z"/><path class="cls-2" d="M252.89,668.62S187.21,833.26,144,910.63s-56.68,99-56.68,99-24.74-9.9-27-16.65c0,0,16.51-149.37,45.43-185.78,16.34-20.58,35.54-82.32,36.44-103.92s5.85-64.32,5.85-64.32Z"/><path class="cls-5" d="M219.21,414.47c2.92-17.24,3-27.46,3-27.46l-33.33-26.85c1.24,36.92-22.42,54.68-22.42,54.68s44.4,21.86,70.07,13.76A61.64,61.64,0,0,0,219.21,414.47Z"/><path class="cls-6" d="M230.06,386.4s-42.39,7.05-46.37-19.42-12.13-43.38,14.77-49,33.69,3.69,37.16,12.2S241,383.89,230.06,386.4Z"/><path class="cls-6" d="M379,441l9-5.58s11.25-16.62,30.47-6.29c0,0,7.62,4.85,2.51,8.91s-3.74,1.77-10.82,7.66-16.23,8-22.14,4.75l-7.58-.72Z"/><path class="cls-4" d="M389.67,442.71c-2.32-7.28-3.43-7.92-3.43-7.92s-73,8.62-79.87,9.13-102.44-19.18-102.44-19.18l-45.12,54.8s133,5,150.44,3.38c28.78-2.7,80.95-29.48,80.95-29.48A21.35,21.35,0,0,0,389.67,442.71Z"/><path class="cls-4" d="M143.07,647.34c-.13,2.83,5.7,5.93,8.23,7.07,19,8.54,36.79,14.47,56.84,16.4,23.78,2.44,51.89-2.91,61.52-2.78a4.15,4.15,0,0,0,2.7-1c.64-.52,1.16-29.57.64-66.19,0-1.42,0-3-.12-4.38v-.51c0-3.81-.1-7.69-.18-11.6-.24-10.7-.65-21.69-1.11-32.61-.69-16.1-1.65-31.92-3-45.94-1.38-14.64-3.14-27.32-5.37-36.31-5.14-20.69-17-34.32-27.77-44.35l-8.86-7.83A42,42,0,0,1,199,414c-10.15-5-21.21-10.42-23-9.13-13.7,10.24-22.92,33.49-27.65,63A326.56,326.56,0,0,0,144.6,520q0,10.65.66,21.57c2.29,39-.06,72.87-1.41,92.53C143.47,639.75,143.16,644.24,143.07,647.34Z"/><path class="cls-6" d="M378.64,502.79l11-1.82s12.56-18.18,34.47-8c0,0,8.68,4.86,2.94,9.4s-4.22,2.05-12.17,8.62-18.32,9.2-25.05,6l-8.59-.45Z"/><path class="cls-4" d="M387.07,508.4c-.36-8.12-4.68-9-4.68-9s-83.5-5.52-90.7-6.92S218,436,218,436s-25.71-23.11-43.73-15.31c-15.66,6.77-20.56,20.15-21.35,32.44a35.73,35.73,0,0,0,20.63,34.57c29.87,13.95,89.6,41.34,103.2,43.7,30.28,5.26,108.09-11.6,108.09-11.6A25.46,25.46,0,0,0,387.07,508.4Z"/><path class="cls-3" d="M235.62,330.18s17.21-12.76,6-32.58c0,0-13.54,4.49-32.76,0s-36.44,1.87-38.68,8.6c0,0-7.48,3-8.23,14.21S183.69,367,183.69,367s4.81-6,3.5-10.1-5.43-13.28-.38-13.28,6.74,7.49,8.79,4.49-1.68-15.52,4.31-17.58S228.89,334,235.62,330.18Z"/></g><path class="cls-4" d="M911.16,1057.11,835,711.27h21a9.07,9.07,0,0,0,9-9V690.55a9.07,9.07,0,0,0-9-9H590a9.07,9.07,0,0,0-9,9v11.68a9.07,9.07,0,0,0,9,9h27L540.8,1057.11a8.63,8.63,0,1,0,16.85,3.74l77-349.58H817.31l77,349.58a8.66,8.66,0,0,0,10.29,6.58h0A8.68,8.68,0,0,0,911.16,1057.11Z"/><path class="cls-7" d="M1170.74,649.21l-7.67,6.24s-21-7.53-25.74,17.41c0,0-1.26,10.63,5.48,10.65s4-1.16,13.49-.88,17.44-4.75,18.84-12.48l4.56-6.56Z"/><path class="cls-2" d="M1171.61,662.59c-6.12-6.39-5.63-11.12-5.63-11.12s70.89-58,78.08-62.77c4.9-3.22,57.11-49.51,81.52-77.73,12.11-14,27.1-8.57,44.26-3.64l14.13,4.05c17.06,4.9,21.49,28.76,7.5,40.35-39.43,32.66-105,69.38-117.28,77.1-30.46,19.17-90.09,41.94-90.09,41.94A37.73,37.73,0,0,1,1171.61,662.59Z"/><path class="cls-4" d="M1088.64,1018.6s-17.21,12.89-43.57,6.08c0,0-21.26-4.84-25.92,5.76,0,0,32.6,16.56,40.85,21.09,6.22,3.41,12.7,8.8,17.29,13a8.55,8.55,0,0,0,12.38-1c1.43-1.76,3.08-3.86,4.87-6.3,5-6.81,16.74-28.81,16.74-28.81Z"/><path class="cls-3" d="M1080.6,1012.65s10.48,24.15,34.66,19.71c0,0,49.35-40.75,83.2-83.08,11-13.75,20.35-27.67,25.85-40.41,22.45-52,83-129.48,121.55-168.76l-96.37-34.87s-30.87,62.1-71.94,138.37C1148,898.57,1113.06,960.89,1080.6,1012.65Z"/><path class="cls-4" d="M1256.58,1032.31s1.05,19.27-22.32,21.84c0,0-13.35.07-13.39,12.34l67.91.22s2-5,2.45-15.55c.37-8.14-7.89-29.42-7.89-29.42Z"/><path class="cls-3" d="M1281.1,705.24s-42.93,47.18-70.19,132.17c-14.82,46.24,27.18,162.51,35.37,202.9,0,0,28.18,2.39,47.45-5.06,0,0,1.46-83.43-9.81-147.73-6.3-36,56.53-77,84-142,18.68-44.24-4.05-43.49-32-44.55Z"/><path class="cls-1" d="M1330.66,494.77c23.89,13.49,72.79,1.05,72.79,1.05s-19.86-22.7-10.84-59.27l-18.75,9.53-20.15,10.23a167,167,0,0,0-2.2,18.05c-.23,3-.44,6.33-.58,10A62.69,62.69,0,0,0,1330.66,494.77Z"/><path class="cls-2" d="M1243.07,702.81c0,4.19,4.84,6.2,5.87,6.41,9.63,1.76,36.53,12.22,60.76,14.62,20.41,2.14,39.35.11,60.17-4.07,2.75-.55,9.22-2.29,9.68-4.94.58-2.88,80.28-162.49,18.32-231-1.45-1.61-13.68,1.28-24.87,3.94a46,46,0,0,1-28.27-2.31l-10.49,5.52c-12.88,7.18-37.25,32.68-40.1,52.69-1.45,10.18-7.27,17.71-9,26.66q-.93,5-1.91,9.7-1.9,9.27-3.92,17.66c-3.65,15.14-7.5,28.17-11.27,39.42-4,11.95-8,21.89-11.49,30.21-4.57,10.78-8.43,18.84-10.84,25C1244.05,696.64,1243.07,700,1243.07,702.81Z"/><path class="cls-1" d="M1341.5,450.25s35.59,25.54,51.15,3.13,30.64-34.21,8.58-51.46-32.47-11.8-39.48-5.59S1332.64,443,1341.5,450.25Z"/><path class="cls-4" d="M1358,376.09a57.17,57.17,0,0,1,4.14-14.67s2.24,9.25,19.15,8,43.7,1.67,52.64,20.93c.56,1.23,1.07,2.49,1.52,3.78a44.48,44.48,0,0,0,2-10.67c3.21,8.3,0,18.67,0,18.67h0c0,.3.08.61.13.91,3.73,3.16,6.86,13,6.86,13-1.12-2.73-3.87-4.52-6.32-5.62.08,15-6,29.65-16.67,34-15.61,6.38-15.48,1.51-31.18,11.92,0,0-4.21-5.22-1.34-8.73s13.72-8.62,7.66-13.72-8.3.64-10.53-2.87,8.93-13.72-5.42-23.29S1356.71,384.71,1358,376.09Z"/><path class="cls-8" d="M502.54,329.48A55,55,0,0,1,501,340.64c-1.37,5.61-3.49,9.78-6.48,12.76a14.7,14.7,0,0,1-12.19,4.41,77.63,77.63,0,0,1-9.86,1.77c-1.37.19-4.21.57-6.15-1.3a4.42,4.42,0,0,1-.81-5.33,7.17,7.17,0,0,1,7.12-3.81,15.64,15.64,0,0,1,5.69,2.47,18.05,18.05,0,0,0,3.21,1.68c.2.07.41.13.61.18a28,28,0,0,0,3.32-1.2c4.42-1.95,7.62-5.14,8.78-8.75s.41-7.57-.4-11.75c-.69-3.6-1.41-7.32-.94-11.11.07-.51.15-1,.24-1.52a8.26,8.26,0,0,0,.09-3.81,4,4,0,0,0-.53-1,4.34,4.34,0,0,1-2.82-2,6.84,6.84,0,0,1-.93-3.59,7,7,0,0,1-.24-1.87,2.76,2.76,0,0,1-.07-.49,3.63,3.63,0,0,1,.5-2.09c.09-.26.2-.52.31-.78a5.65,5.65,0,0,1-.19-3.42,4.44,4.44,0,0,1,1.58-2.47c-.55-1.12-1.13-2.24-1.74-3.37a31,31,0,0,0-3.74,0A27.79,27.79,0,0,1,480,294c-7.44-1.22-13.53-8.53-14.16-17a26.66,26.66,0,0,1,2.14-12.11,33.07,33.07,0,0,1-5-10.05,47.21,47.21,0,0,1-1.34-11.19,56.63,56.63,0,0,0-.69-8.07c-2-10.81-10.89-20.19-22.2-23.34a36.42,36.42,0,0,0-17.07-.43c-8.37,4.62-14.56,10.75-17.82,17.8-2.32,5-3.26,10.42-4.26,16.16-.36,2.06-.73,4.19-1.17,6.27-.26,1.27-.56,2.54-.85,3.81-1,4.24-1.9,8.24-1.85,12.33.05,4.43,1.68,10.09,6.07,12.67.55.33,1.17.63,1.82.94,2.16,1.05,4.6,2.23,5.7,4.89a9.92,9.92,0,0,1,.45,4.8c-.23,2.34-.58,4.77-.92,7.12-1.26,8.85-2.58,18,2.32,24.59.51.68,1.09,1.34,1.71,2a23.61,23.61,0,0,1,2.89,3.77c1.4,2.41,2.23,6.25,0,9.11a9.14,9.14,0,0,1-4.49,2.79,26.35,26.35,0,0,1-2.74.73,9.41,9.41,0,0,1-2.79,1.72c-5.09,2-9.68-.76-13.8-3.8l-.14-.07c-.81-.41-1.64-.86-2.48-1.31-3.57-1.95-6.94-3.78-9.58-2.34a10.41,10.41,0,0,0-2.49,2.31c-.22.26-.44.51-.67.76-3.41,3.73-7.67,5.29-11.79,6.79a32,32,0,0,0-7.43,3.43c1.1.33,2.41.67,3.44.94,4.55,1.2,7.4,2,8.7,3.32a2.11,2.11,0,0,1-3,3c-.75-.64-4.53-1.63-6.79-2.23-5.32-1.4-7.49-2-8-3.9a2.47,2.47,0,0,1,.62-2.39c3.15-3.28,7.14-4.73,11-6.14s7.41-2.7,10.11-5.67l.63-.7a14.26,14.26,0,0,1,3.41-3.1c-7-.81-14.09,2.1-22,6.72-3.87,2.26-7.44,4.57-8.61,8-1,2.94,8.85,7.52,12.08,9,1.22.57,2.19,1,2.88,1.41a2.11,2.11,0,1,1-2.05,3.69c-.56-.31-1.51-.75-2.62-1.27-6.17-2.87-16.49-7.68-14.3-14.2,1.77-5.26,7-8.32,10.49-10.34,11.45-6.67,23.82-11.58,36.76-2.43.86.61,1.74,1.28,2.63,1.95l1.41,1.07a21.67,21.67,0,0,0,12.24,1.8,10.29,10.29,0,0,0,1.36-8.13,34.27,34.27,0,0,0-3.36-7.87c-.83-1.57-1.69-3.2-2.41-4.9a65.19,65.19,0,0,1-2.79-8.82,54.5,54.5,0,0,0-3-9.2,53.17,53.17,0,0,0-5.74-8.85,70.71,70.71,0,0,1-5.17-7.62c-5.63-10.08-6.54-23-2.55-36.51,3.78-12.76,11.22-23.61,20.94-30.55a45.74,45.74,0,0,1,16.59-7.44,67.65,67.65,0,0,1,8.86-4c12.71-4.67,25.39-5.72,36.65-3,8.33,2,15.29,5.93,20.12,11.39,5.59,6.33,8.07,14.91,6.46,22.38-1.54,7.16-6.29,12.69-10.89,18-1.68,2-3.42,4-4.93,6a38.46,38.46,0,0,0-3.56,5.73c1.27,1.65,2.62,3.27,3.95,4.87l1.32,1.57a137.13,137.13,0,0,1,13.77,19.57c3.66,1,7,3.89,6.89,7.89v.05h0A2.12,2.12,0,0,1,500.3,301a7.88,7.88,0,0,1-2,3.3A67.78,67.78,0,0,1,502.54,329.48Zm-4.36,2.3a57.08,57.08,0,0,0-.6-13.59c-.06.56-.16,1.11-.24,1.64s-.15.9-.21,1.35c-.39,3.12.23,6.36.89,9.79C498.07,331.24,498.13,331.51,498.18,331.78ZM470,274.69a19.51,19.51,0,0,0,0,2c.42,5.68,4.51,12.15,10.62,13.14a23.31,23.31,0,0,0,4.61.13l1.42,0a137.42,137.42,0,0,0-11.83-16.39L473.52,272c-.85-1-1.7-2-2.54-3.08A22.24,22.24,0,0,0,470,274.69Zm.12-14.15a45.61,45.61,0,0,1,2.88-4.38c1.61-2.16,3.4-4.24,5.12-6.25,4.45-5.18,8.66-10.07,10-16.17s-.78-13.36-5.5-18.7c-5.37-6.07-12.72-8.83-17.94-10.08-9.7-2.31-20.6-1.62-31.67,2a38.48,38.48,0,0,1,6.84,1.24c12.84,3.57,23,14.28,25.23,26.65a61.14,61.14,0,0,1,.75,8.66A43.81,43.81,0,0,0,467,253.72,26.64,26.64,0,0,0,470.09,260.54Zm-.87,94.6v0c.53.52,2.11.3,2.71.22,1.21-.16,2.43-.33,3.65-.52a10.55,10.55,0,0,0-3.59-1.56,2.88,2.88,0,0,0-2.23.92A1.67,1.67,0,0,0,469.22,355.14Zm-57.57-19a3,3,0,0,0,.68-.6c.84-1.07.49-2.88-.21-4.19A15.46,15.46,0,0,1,411.65,336.11ZM403.43,308c.19-3.31.67-6.67,1.15-10,.34-2.41.67-4.68.89-6.93a6.26,6.26,0,0,0-.14-2.77c-.49-1.18-1.95-1.88-3.64-2.7-.7-.34-1.43-.69-2.12-1.1-5-3-8.07-9-8.16-16.27-.06-4.59,1-9,2-13.33q.44-1.86.84-3.72c.42-2,.78-4.11,1.13-6.13,1-5.76,2-11.72,4.59-17.22a37.25,37.25,0,0,1,6.12-9.2l-.08.06c-9,6.4-15.83,16.45-19.34,28.31-3.61,12.18-2.82,24.3,2.18,33.24a66.58,66.58,0,0,0,4.87,7.16,57.57,57.57,0,0,1,6.17,9.57,56.92,56.92,0,0,1,3.29,9.93C403.24,307.3,403.34,307.66,403.43,308Z"/><path class="cls-8" d="M375.46,350c19.12-7.34,19.65,2.77,19.65,2.77l60.8,174.06s12.81,38.5-20.15,43.74-39.23-17.88-39.23-17.88-60.11-163.11-61.8-175.86S339,364.63,339,364.63l13.69-5.51Z"/><path class="cls-4" d="M428.06,571.92l-2.77,3.19c-8.79-7.61-19.44-20.17-23.45-31.08-4.17-11.33-8.44-22.62-12.57-33.54-14.11-37.25-28.81-77.09-40-118.46a154.56,154.56,0,0,0-6.33-17.65c-1.24-3.06-2.52-6.22-3.69-9.41l4-1.46c1.15,3.13,2.41,6.26,3.64,9.29a159.07,159.07,0,0,1,6.5,18.13c11.14,41.18,25.8,80.91,39.87,118.07,4.14,10.92,8.41,22.22,12.59,33.57C409.56,552.77,419.68,564.66,428.06,571.92Z"/><path class="cls-4" d="M443.71,570.29l-2.77,3.2c-9.19-8-20.39-25.71-24.27-36.26-2-5.43-3.67-10.87-5.3-16.13-1.75-5.66-3.56-11.51-5.74-17.27-4.69-12.37-9.82-24.91-14.79-37-10.73-26.19-21.83-53.27-29.29-80.86a115.93,115.93,0,0,0-5.92-15.87c-1.39-3.23-2.83-6.57-4.14-10.14l4-1.46c1.27,3.46,2.68,6.75,4.05,9.93a121.19,121.19,0,0,1,6.12,16.43c7.4,27.35,18.44,54.3,29.12,80.36,5,12.16,10.13,24.73,14.83,37.15,2.23,5.88,4.06,11.8,5.83,17.52,1.61,5.21,3.28,10.6,5.23,15.92C424.27,545.63,435.13,562.86,443.71,570.29Z"/><path class="cls-4" d="M453.69,564.32l-2.77,3.19c-7.49-6.49-11.87-19.56-15.39-30.07-.79-2.36-1.54-4.59-2.25-6.53-2.14-5.82-5.07-12.62-7.9-19.2-2.57-6-5.23-12.15-7.26-17.51-4.65-12.28-9.56-24.3-14.32-35.92-10.64-26-20.7-50.64-28.19-78.32-1.35-5-3.67-9-6.14-13.38a76,76,0,0,1-5.68-11.5l4-1.46a71.91,71.91,0,0,0,5.39,10.87c2.48,4.36,5.05,8.88,6.54,14.36,7.42,27.44,17.43,51.91,28,77.83,4.76,11.64,9.68,23.69,14.36,36,2,5.28,4.63,11.41,7.18,17.34,2.85,6.63,5.8,13.48,8,19.41.74,2,1.5,4.26,2.3,6.65C442.89,546.11,447.07,558.58,453.69,564.32Z"/><path class="cls-4" d="M460.06,556.11v0l-4.23-.15c.19-4.9-5-17.77-9.17-28.1-2.37-5.9-4.61-11.47-5.69-15.08-1.54-5.22-3.55-10.95-5.49-16.49-2.06-5.86-4.18-11.92-5.8-17.48-6-20.47-13.78-37.83-22.05-56.21-6.67-14.82-13.56-30.14-19.51-47.41-2-5.92-3.64-11.7-5.2-17.3-.82-2.94-1.67-6-2.56-9l4.05-1.21c.91,3.06,1.76,6.11,2.58,9.07,1.54,5.53,3.14,11.26,5.13,17.05,5.88,17.09,12.74,32.33,19.37,47.06,8.33,18.51,16.2,36,22.25,56.76,1.59,5.45,3.69,11.45,5.73,17.26,1.95,5.59,4,11.37,5.56,16.69,1,3.41,3.22,8.9,5.56,14.7C455.34,538.1,460.25,550.3,460.06,556.11Z"/><path class="cls-8" d="M885,457.25c6.77-2.8,11.14-31.46,11.14-31.46a115.75,115.75,0,0,0,14-7.11c8.27-4.81,10.39-31.71,13.35-42s13-2.83,53.85-30.43,8.77-102,8.77-102-41.06-69.87-87.45-53.3S852.35,220,842.29,216.3c-11.95-4.4-23.74-13.48-37-14a24,24,0,0,0-9.24,1.31c-2.85,1-6.76,5.41-9.41,5.58-3.21.21-9.4-4.75-12.43-6.06-4.39-1.9-9-3.58-13.82-3.91-7.66-.52-15.8,4.39-22.87,7.14-9.85,3.83-19.64,7.82-29.24,12.23-8.94,4.12-17.48,8.19-20.31,18-2.1,7.31-3.7,14.8-5.44,22.2,0,0-17.08,1.09-21.27,15.18s.65,29.89-12.11,38.25-48.69,9.55-59.58,41.51-12,65.88,2.73,89.92c10.69,26.07,38.67,45.27,70.88,55.4s54.42-18.12,68.71-23.47,24.16,7.91,38,12.87,24.81-8.14,24.83-8.17c.84-1,24.35,10.35,27.53,10.47,3.5.14,6.89-1.14,10.1-2.54C851,480.13,866.4,464.94,885,457.25Z"/><path class="cls-4" d="M777.41,414.87A582,582,0,0,1,850,371.69a247.33,247.33,0,0,1,40.22-16.32c13.13-3.89,27.29-4.3,39.93-9.53,21.7-9,45.4-22.2,45.74-48.32.2-15.16-5.83-28.64-12.09-42-5.11-10.91-27.66-53.48-63.18-39.89-16.86,6.45-31.81,14-45.24,26.31-25.45,23.37-56.33,37.74-87.56,51.77q-39,17.52-79.54,31.44c-30.3,10.41-66.14,19.94-82.68,50.24-4.12,7.54-6.44,16.23-5.46,24.76,1.34,11.65,8.69,20.52,18.14,26.85,0,33.24,37,53.33,66.82,43.77,22.64-7.27,44-23.45,63.6-36.4Q763.2,424.82,777.41,414.87Z"/><path class="cls-8" d="M1170.16,380c-79.89,6.1-142.59,38.08-140,71.42.87,11.43,9.29,21.53,23.19,29.63,1.88,16.61,5.07,42.2,8.66,60.05,5.47,27.12,26.37,164,103.47,179.08-.25,30.6-1.53,88.22,10.11,92.79a7.35,7.35,0,0,0,7.13-1.38c3.59-3,4.56-8.72,5.51-13,.6-2.73-1.44-48.61-2.77-76.89,79.38-12.63,99.82-145.09,105.06-172.59,0,0,5.23-52.46,5.8-83.41,15.49-11,24.13-23.58,23.15-36.36C1316.89,396,1250.06,373.93,1170.16,380Z"/><ellipse class="cls-4" cx="1174.45" cy="436.14" rx="120.05" ry="38.52" transform="translate(-29.8 90.7) rotate(-4.37)"/><path class="cls-2" d="M1166.61,676a200.39,200.39,0,0,1-59.47-9.55,1.5,1.5,0,1,1,.94-2.85c19.89,6.57,44.6,10.14,64.47,9.28,31.18-1.34,60.08-10.25,93.88-23.23a1.5,1.5,0,1,1,1.08,2.8c-34.08,13.08-63.25,22.07-94.83,23.43C1170.7,676,1168.67,676,1166.61,676Z"/><path class="cls-2" d="M1173.78,656.08c-1.36,0-2.72,0-4.09-.05-22.54-.48-50.89-6.9-74-16.75a1.5,1.5,0,0,1,1.18-2.76c22.78,9.71,50.7,16,72.88,16.51,34.75.72,66.4-8.13,103.2-21.67a1.5,1.5,0,1,1,1,2.82C1238.31,647.3,1207.41,656.08,1173.78,656.08Z"/><path class="cls-2" d="M1177.34,696.11a155.67,155.67,0,0,1-50.45-9.22,1.5,1.5,0,1,1,1-2.81c15.89,5.84,35.53,9.3,51.24,9,24.65-.45,47.36-7.22,73.87-17.23a1.5,1.5,0,1,1,1.06,2.8c-26.8,10.13-49.79,17-74.88,17.43Z"/><path class="cls-2" d="M1182.11,744.54c-.33,0-.66,0-1,0a28.46,28.46,0,0,1-10-2.81,1.5,1.5,0,1,1,1.29-2.71,26,26,0,0,0,8.9,2.52c3.87.21,7-.94,10.61-2.72a1.5,1.5,0,0,1,1.34,2.69A24.31,24.31,0,0,1,1182.11,744.54Z"/><path class="cls-2" d="M1183.38,761.82l-1,0a28.52,28.52,0,0,1-10-2.81,1.5,1.5,0,1,1,1.29-2.71,25.76,25.76,0,0,0,8.91,2.53c3.86.2,7-.94,10.61-2.72a1.5,1.5,0,0,1,1.33,2.69A24.44,24.44,0,0,1,1183.38,761.82Z"/><path class="cls-2" d="M1181.78,780.46l-1,0a28.73,28.73,0,0,1-10-2.81,1.5,1.5,0,1,1,1.29-2.71,26,26,0,0,0,8.91,2.52c3.88.22,7-.94,10.61-2.72a1.5,1.5,0,0,1,1.33,2.69A24.31,24.31,0,0,1,1181.78,780.46Z"/><path class="cls-1" d="M1170.69,655.4,1161,659s-19.47-13.77-31.59,8.63c0,0-4.39,9.78,2.55,11.9s4.42.12,14.18,3.37,19.36.91,23.05-6.06l6.61-4.85Z"/><path class="cls-2" d="M1162.69,669.14c-3.59-9.37-5.24-13.62-5.24-13.62s73.47-59.89,81-65c5.1-3.5,55.88-41.46,80.64-71A51.82,51.82,0,0,1,1369.43,502l15.42,3.23c18.62,3.91,24.67,27.48,10.23,39.86-40.69,34.88-109.31,75.34-122.1,83.75C1241.21,649.73,1171,679,1171,679S1165.51,676.51,1162.69,669.14Z"/></svg>