<svg height="143" viewBox="0 0 143 143" width="143" xmlns="http://www.w3.org/2000/svg" xmlns:xlink="http://www.w3.org/1999/xlink"><mask id="a" fill="#fff"><path d="m.06079276.25021017h86.57258024v54.03542583h-86.57258024z" fill="#fff" fill-rule="evenodd"/></mask><g fill="none" fill-rule="evenodd"><circle cx="71.5" cy="71.5" fill="#ffd8dd" r="71.5"/><g transform="matrix(.96592583 -.25881905 .25881905 .96592583 24.398777 52.454487)"><path d="m1.48067728 3.30586951h2.20593991l5.29446758 5.39385989h66.62213863l5.5591909-8.44951923s2.1177871 13.66929943 2.20594 15.23523353c.0884176 1.565934.3531409 3.5666758.7060172 7.7425s1.0588935 5.3938599 1.0588935 6.9597939c0 1.5659341-.7060172 3.3928572-.7941701 5.3935989-.0881529 2.0010028 1.3236169 11.7447665 1.7649108 13.3107006.4410291 1.5659341.5294467 3.8276648.5294467 3.8276648l-2.2062046 1.5659341-9.3534712-5.2197802c-1.8527989.0597665-3.7053331.1195329-5.5578673.1790384-4.5421238.1461539-9.0842475.2925687-13.6261065.4387226-5.7174955.1839972-11.4352558.3679945-17.1527513.5519917-5.3789144.1732967-10.7578287.3465934-16.1367431.5196291-2.4322784 0-4.8783224.1490248-7.3092772.2356731-2.1874092.0777747-4.4084384-.0835165-6.49260556.7344231-2.16173111.8487363-3.77098453 2.1270604-6.21438132 1.6927747-.41693932-.0741209-2.43439619-.2502884-2.51804878-.8275961-.08841761-.6088874.97338786-8.5703572 1.41468174-12.0501237.44129387-3.4800274.88232302-3.7410164.88232302-9.047706 0-5.3069506-.17630577-4.7849725 0-8.8736264.17657049-4.0889148-.35287627-10.0044917-.35287627-10.0044917s-2.11778703-2.78396982-.52944675-9.30869509" fill="#c5e2e0" mask="url(#a)" transform="translate(1.733871 .571335)"/><path d="m.86946323 2.29530373c.61626138.00052002 1.23278635.00130003 1.84904773.00208005.86587624.00104002 1.88647679 1.57615458 2.44791252 2.14920715l2.836173 2.89542353c.10859696.11076243.22141128.22438492.36585578.28314621.13890921.05642124.29363352.05616123.44414047.05538122 4.40107627-.02652059 8.80294327-.00754017 13.20401957-.00754017h17.4914907 18.0529265 13.3479369c1.1824417 0 2.380962.17134376 3.5576048-.01170026 1.1302518-.17576385 1.5013793-1.05718319 2.3076853-1.74983839 1.8179448-1.56185426 3.7584564-2.97342523 5.6235829-4.47833825-.2680658.21632474-.0155516 2.50437494-.0171331 2.83562221-.0160786 3.37565406-.1723845 6.79212897.0176602 10.16440297.0877738 1.5600343.3513586 3.553238.7027172 7.7133293.3516222 4.1600912 1.0543394 5.3735379 1.0543394 6.9335721s-.7027172 3.3800741-.7907545 5.3735379c-.0877738 1.9932037 1.3179242 11.7002567 1.7573202 13.2602909.4393959 1.5600342.5271697 3.8132437.5271697 3.8132437l-2.1964526 1.5600342-9.3135071-5.2001141-64.57828867 2.0800456-5.7108294 3.553498s-2.10867881.2600057-2.19671615-.3465876c-.08777376-.6068533-1.22988692-10.3136463-.79075456-13.7803023.43939595-3.4669161.8787919-3.7269218.8787919-9.0136178s-.1758111-4.7666846 0-8.8401939c.17554751-4.0727294-.35135861-9.9649787-.35162219-9.9667987-.05798867-.6497543-.71062476-1.5296136-.86165888-2.22330879-.50608292-2.32263096-.21350373-4.76382452.34134238-7.05447478" fill="#fff"/><path d="m57.779625 39.9373153h-24.7505932c-2.9438164 0-5.3523457-2.3409832-5.3523457-5.2022416v-13.1669454c0-2.8612584 2.4085293-5.2022416 5.3523457-5.2022416h24.7505932c2.9438164 0 5.3523457 2.3409832 5.3523457 5.2022416v13.1669454c0 2.8612584-2.4085293 5.2022416-5.3523457 5.2022416" fill="#f26e8b"/><path d="m56.3817811 39.5675738h-24.7505932c-2.9438164 0-5.3523457-2.3409832-5.3523457-5.2022416v-13.1669454c0-2.8612584 2.4085293-5.2022416 5.3523457-5.2022416h24.7505932c2.9438164 0 5.3523457 2.3409832 5.3523457 5.2022416v13.1669454c0 2.8612584-2.4085293 5.2022416-5.3523457 5.2022416" fill="#e9364b"/><path d="m54.1988741 16.4823806h-1.2406549v-.5908401h-1.0736952v1.6206266h2.3143501c2.7202069 0 4.9330928 1.934969 4.9330928 4.3130037v9.801766c0 2.3782921-2.2128859 4.3132611-4.9330928 4.3132611l-.0445584.0018021c-.0695217.0054064-1.7267704.1477744-3.9409984 1.2061376-.7140074.3416317-1.0745005.696908-1.3638614.9826738-.5757691.5681848-1.0307474 1.0166568-5.2860702 1.0166568-4.2555911 0-4.710301-.448472-5.2860701-1.0166568-.2896293-.2857658-.6498541-.6410421-1.3638614-.9826738-2.2144965-1.0583632-3.8714767-1.2007312-3.9409984-1.2061376l-.0445584-.0018021c-2.7202069 0-4.9330928-1.934969-4.9330928-4.3132611v-9.801766c0-2.3780347 2.2128859-4.3130037 4.9330928-4.3130037h2.3143501v-1.6206266h-1.0736952v.5908401h-1.2406549c-3.3120814 0-6.0067881 2.3968282-6.0067881 5.3427902v9.801766c0 2.9379811 2.6799434 5.3299179 5.9794089 5.3430477.1793071.0185362 1.6376537.1935999 3.5335311 1.1000695.5508056.2631105.8044661.5136061 1.0734268.7787761.8350665.8235718 1.5745741 1.3284247 6.0559096 1.3284247 4.4813356 0 5.2208432-.5048529 6.0556413-1.3284247.2689606-.26517.5228896-.5156656 1.0734268-.7787761 1.8985616-.9077569 3.3582503-1.0820482 3.5335311-1.1000695 3.3000023-.0128723 5.9796773-2.4048091 5.9796773-5.3430477v-9.801766c0-2.945962-2.6947067-5.3427902-6.0067881-5.3427902" fill="#ffd8dd"/></g></g></svg>