<?xml version="1.0" encoding="UTF-8"?>
<svg width="135px" height="135px" viewBox="0 0 135 135" version="1.1" xmlns="http://www.w3.org/2000/svg" xmlns:xlink="http://www.w3.org/1999/xlink">
    <title>Group 25</title>
    <defs>
        <polygon id="path-1" points="3.63082772e-12 9.02803171e-13 77.762166 9.02803171e-13 77.762166 48.2740783 3.63082772e-12 48.2740783"></polygon>
    </defs>
    <g id="Page-1" stroke="none" stroke-width="1" fill="none" fill-rule="evenodd">
        <g id="PARTICULIERS---DONNER" transform="translate(-989.000000, -906.000000)">
            <g id="Group-25" transform="translate(989.330645, 906.000000)">
                <circle id="Oval-Copy-8" fill="#FF9A00" cx="67.2580645" cy="67.2580645" r="67.2580645"></circle>
                <g id="Group-4" transform="translate(22.669355, 33.000000)">
                    <g id="Group-12" transform="translate(44.500000, 33.500000) rotate(-15.000000) translate(-44.500000, -33.500000) translate(4.932840, 9.362961)">
                        <g id="Group-3" transform="translate(1.372155, 0.000000)">
                            <mask id="mask-2" fill="white">
                                <use xlink:href="#path-1"></use>
                            </mask>
                            <g id="Clip-2"></g>
                            <path d="M1.27538413,2.72985983 L3.25682751,2.72985983 L8.01248185,7.54861735 L67.8545449,7.54861735 L72.8479819,9.02803171e-13 C72.8479819,9.02803171e-13 74.7502436,12.2118559 74.8294253,13.6108274 C74.9088447,15.009799 75.1466274,16.7972183 75.4635918,20.5278091 C75.7805562,24.2583999 76.4147227,25.3465666 76.4147227,26.7455382 C76.4147227,28.1445097 75.7805562,29.7766432 75.7013745,31.5640625 C75.6221929,33.351715 76.8902881,42.0565824 77.2866719,43.4555539 C77.6828179,44.8545255 77.7622373,46.8751067 77.7622373,46.8751067 L75.7805562,48.2740783 L67.3789794,43.6108398 C65.7147382,43.6642338 64.0507347,43.7176279 62.3867313,43.7707888 C58.3068554,43.9013595 54.2269796,44.0321634 50.1473415,44.162734 C45.0117104,44.3271132 39.8758415,44.4914924 34.7402104,44.6558715 C29.9087033,44.810691 25.0771963,44.9655105 20.2456893,45.1200969 C18.0609417,45.1200969 15.8638294,45.2532324 13.6802707,45.3306421 C11.7154721,45.4001244 9.72047511,45.2560303 7.84841178,45.9867598 C5.90667811,46.7450024 4.46119698,47.8870295 2.2664625,47.499048 C1.89195472,47.43283 0.0798126345,47.2754457 0.00467329594,46.7596916 C-0.0747461315,46.2157248 0.879000346,39.1031202 1.27538413,35.9943723 C1.67176792,32.8853912 2.06791393,32.6522292 2.06791393,27.9113478 C2.06791393,23.1702332 1.90955064,23.6365571 2.06791393,19.9838423 C2.226515,16.3308944 1.75094957,11.0460462 1.75094957,11.0460462 C1.75094957,11.0460462 -0.151312166,8.55890797 1.27538413,2.72985983" id="Fill-1" fill="#C5E2E0" mask="url(#mask-2)"></path>
                        </g>
                        <path d="M0.541110954,1.31662398 C1.09465597,1.31708855 1.64843774,1.3177854 2.20198275,1.31848225 C2.97973954,1.31941139 3.89647447,2.72658459 4.40077339,3.23853734 L6.9483116,5.82524596 C7.04585675,5.92419872 7.14719005,6.02570659 7.27693456,6.07820265 C7.40170711,6.12860816 7.54068526,6.12837588 7.67587526,6.12767903 C11.6290579,6.10398612 15.5829509,6.12094281 19.5361335,6.12094281 L35.2475309,6.12094281 L51.4632271,6.12094281 L63.4527564,6.12094281 C64.514862,6.12094281 65.59141,6.27401761 66.6483069,6.11049005 C67.663534,5.95346643 67.9968922,5.1660255 68.7211412,4.54722236 C70.3540753,3.15189561 72.0971028,1.8908287 73.772417,0.546372028 C73.531632,0.739631867 73.7584481,2.78372632 73.7570276,3.07965545 C73.7425852,6.09539163 73.6021865,9.14759631 73.7728905,12.1603128 C73.8517316,13.5540136 74.0884917,15.3346986 74.4040928,19.051234 C74.7199307,22.7677693 75.351133,23.8518362 75.351133,25.245537 C75.351133,26.6392378 74.7199307,28.265222 74.6408529,30.0461393 C74.5620118,31.8268243 75.8246532,40.498895 76.2193322,41.8925958 C76.6140112,43.2862966 76.6928523,45.2992651 76.6928523,45.2992651 L74.7199307,46.6929658 L66.3542509,42.0472966 L8.34803706,43.9055643 L3.21839367,47.0801823 C3.21839367,47.0801823 1.32431322,47.3124658 1.24523536,46.7705485 C1.16639426,46.2283989 0.140512938,37.5565604 0.534955192,34.4595251 C0.929634207,31.3622574 1.32431322,31.1299739 1.32431322,26.4069543 C1.32431322,21.6839347 1.16639426,22.1485016 1.32431322,18.5093166 C1.48199542,14.8708285 1.00871207,9.60682071 1.00847531,9.60519473 C0.956388093,9.02471836 0.370170193,8.23867112 0.234506681,7.61893885 C-0.220072628,5.54395069 0.042731035,3.36304128 0.541110954,1.31662398" id="Fill-4" fill="#FFFFFF"></path>
                        <path d="M51.6595763,34.9451813 L29.4278289,34.9451813 C26.7836021,34.9451813 24.6201867,32.8537976 24.6201867,30.2976114 L24.6201867,18.5345477 C24.6201867,15.9783615 26.7836021,13.8869779 29.4278289,13.8869779 L51.6595763,13.8869779 C54.3038031,13.8869779 56.4672186,15.9783615 56.4672186,18.5345477 L56.4672186,30.2976114 C56.4672186,32.8537976 54.3038031,34.9451813 51.6595763,34.9451813" id="Fill-6" fill="#F26E8B"></path>
                        <path d="M50.4039898,34.6148622 L28.1722423,34.6148622 C25.5280155,34.6148622 23.3646001,32.5234786 23.3646001,29.9672924 L23.3646001,18.2042287 C23.3646001,15.6480425 25.5280155,13.5566588 28.1722423,13.5566588 L50.4039898,13.5566588 C53.0482166,13.5566588 55.211632,15.6480425 55.211632,18.2042287 L55.211632,29.9672924 C55.211632,32.5234786 53.0482166,34.6148622 50.4039898,34.6148622" id="Fill-8" fill="#E9364B"></path>
                        <path d="M48.4432352,13.9910509 L47.3288407,13.9910509 L47.3288407,13.4632072 L46.3644145,13.4632072 L46.3644145,14.9110399 L48.4432352,14.9110399 C50.8866091,14.9110399 52.8742916,16.6396993 52.8742916,18.7641839 L52.8742916,27.5208693 C52.8742916,29.6455839 50.8866091,31.3742432 48.4432352,31.3742432 L48.4032116,31.3758532 C48.340765,31.3806832 46.852173,31.5078716 44.863285,32.4533903 C44.2219416,32.7585967 43.8981355,33.0759929 43.6382226,33.3312899 C43.121049,33.8388938 42.7123734,34.239549 38.8901111,34.239549 C35.0676076,34.239549 34.6591731,33.8388938 34.1419996,33.3312899 C33.8818456,33.0759929 33.5582806,32.7585967 32.9169371,32.4533903 C30.927808,31.5078716 29.4394572,31.3806832 29.3770106,31.3758532 L29.3369869,31.3742432 C26.893613,31.3742432 24.9059305,29.6455839 24.9059305,27.5208693 L24.9059305,18.7641839 C24.9059305,16.6396993 26.893613,14.9110399 29.3369869,14.9110399 L31.4158077,14.9110399 L31.4158077,13.4632072 L30.4513814,13.4632072 L30.4513814,13.9910509 L29.3369869,13.9910509 C26.361973,13.9910509 23.9415043,16.1323253 23.9415043,18.7641839 L23.9415043,27.5208693 C23.9415043,30.1455979 26.3487122,32.2825024 29.312394,32.2942322 C29.4734532,32.310792 30.7833852,32.4671902 32.4863208,33.2770105 C32.9810715,33.5120677 33.2089172,33.735855 33.4505059,33.9727522 C34.2005885,34.7085134 34.864837,35.159538 38.8901111,35.159538 C42.9153851,35.159538 43.5796337,34.7085134 44.3294751,33.9727522 C44.5710639,33.735855 44.7991507,33.5120677 45.2936602,33.2770105 C46.9990069,32.4660402 48.3101444,32.310332 48.467587,32.2942322 C51.4317511,32.2827324 53.8387179,30.1458279 53.8387179,27.5208693 L53.8387179,18.7641839 C53.8387179,16.1323253 51.4182491,13.9910509 48.4432352,13.9910509" id="Fill-10" fill="#FFD8DD"></path>
                    </g>
                </g>
            </g>
        </g>
    </g>
</svg>