<svg height="143" viewBox="0 0 143 143" width="143" xmlns="http://www.w3.org/2000/svg"><g fill="none" fill-rule="evenodd"><circle cx="71.5" cy="71.5" fill="#ffd8dd" r="71.5"/><g transform="matrix(-.12186934 .99254615 -.99254615 -.12186934 114.675086 27.959734)"><path d="m85.5472321 37.0776163c-7.53792-2.0135781-36.5898-17.5351042-36.5898-17.5351042s-10.64544-5.4411771-14.58912-10.47122915c-3.94212-5.03160938-10.22892-9.89191667-15.0462-8.95442709-4.81728.9359323-10.28975999 3.7188125-14.23187999 10.32172914-3.94368 6.6013594-3.79392 12.7308594-2.32752 17.405849 1.46484 4.6765469 8.73755999 7.886125 15.04619999 8.9544271 6.30708 1.0698593 16.16472 7.8316198 16.16472 7.8316198s27.49344 18.1315468 32.8536 23.792302c5.28996 5.5875625 19.1256 8.1788959 26.9256-4.2124739l.01404.0093437c.04992-.0840937.09048-.1681875.13884-.2522812.05304-.0840938.10608-.1588438.156-.2444948l-.01404-.0077865c7.2259199-12.766677-1.0608-24.6488125-8.50044-26.6374739" fill="#c5e2e0"/><path d="m83.7343561 38.4988007c-7.53636-2.0135782-36.5898-17.5351042-36.5898-17.5351042s-10.64544-5.4411771-14.58912-10.4727865c-3.94212-5.03005205-10.22736-9.89035934-15.04464-8.95442705-4.81728.93748958-10.28975999 3.72036979-14.23187999 10.32328645-3.94524 6.6013594-3.79548 12.7308594-2.32752 17.405849 1.46484 4.6765468 8.736 7.8845677 15.04463999 8.954427 6.30864 1.0698594 16.16472 7.8316198 16.16472 7.8316198s27.49344 18.1315469 32.85516 23.7923021c5.28996 5.5875625 19.1256 8.1788959 26.92404-4.2124739l.01404.0077864c.04992-.0825364.09204-.1681875.1404-.2507239.05148-.0840938.10452-.1588438.15444-.2444948l-.01404-.0077865c7.22748-12.7666771-1.05924-24.6488125-8.50044-26.6374739" fill="#fff"/><path d="m86.0422201 50.1945283-9.70164 16.2441093-66.63227999-39.654875 9.70163999-16.2441093z" fill="#e7364b"/></g></g></svg>