<?xml version="1.0" encoding="UTF-8"?>
<svg width="136px" height="135px" viewBox="0 0 136 135" version="1.1" xmlns="http://www.w3.org/2000/svg" xmlns:xlink="http://www.w3.org/1999/xlink">
    <title>Group 19</title>
    <g id="Page-1" stroke="none" stroke-width="1" fill="none" fill-rule="evenodd">
        <g id="PARTICULIERS---DONNER" transform="translate(-611.000000, -651.000000)">
            <g id="Group-19" transform="translate(611.887097, 651.000000)">
                <circle id="Oval-Copy-6" fill="#FF9A00" cx="67.2580645" cy="67.2580645" r="67.2580645"></circle>
                <g id="Group-5" transform="translate(31.153821, 19.249705)">
                    <g id="Group-11" transform="translate(35.802903, 45.047287) rotate(97.000000) translate(-35.802903, -45.047287) translate(-5.780538, 14.081315)">
                        <path d="M73.4760237,30.8252867 C67.0017477,29.1512545 42.0492557,16.2470946 42.0492557,16.2470946 C42.0492557,16.2470946 32.9059488,11.7234531 29.5187448,7.54160934 C26.1328807,3.35847092 20.7331845,-0.682251779 16.5956505,0.0971506761 C12.4581165,0.875258443 7.75783507,3.18886673 4.37197097,8.67834581 C0.98476699,14.1665302 1.11339499,19.262424 2.37287748,23.1490788 C3.6310201,27.0370282 9.87751731,29.7053812 15.2959718,30.5935374 C20.7130864,31.4829884 29.1797564,37.1045257 29.1797564,37.1045257 C29.1797564,37.1045257 52.7937133,52.1785835 57.3975238,56.8847761 C61.9410399,61.5301183 73.8243912,63.6844799 80.5237661,53.3826438 L80.535825,53.3904119 C80.578701,53.3204987 80.6135377,53.2505856 80.6550739,53.1806724 C80.7006296,53.1107592 80.7461854,53.0486142 80.7890614,52.9774063 L80.7770025,52.9709329 C86.9833034,42.3570768 79.8658875,32.4786038 73.4760237,30.8252867" id="Fill-42" fill="#C5E2E0"></path>
                        <path d="M71.9189549,32.0068194 C65.4460188,30.3327872 40.492187,17.4286273 40.492187,17.4286273 C40.492187,17.4286273 31.3488801,12.9049858 27.9616761,8.72184735 C24.575812,4.54000361 19.1774556,0.499280913 15.0399217,1.27738868 C10.9023877,2.05679114 6.20210622,4.37039942 2.81624212,9.85987851 C-0.572301738,15.3480629 -0.443673738,20.4439567 0.817148629,24.3306115 C2.07529125,28.2185609 8.32044858,30.8856192 13.738903,31.7750701 C19.1573575,32.6645211 27.6226877,38.2860584 27.6226877,38.2860584 C27.6226877,38.2860584 51.2366446,53.3601162 55.8417949,58.0663088 C60.385311,62.711651 72.2686623,64.8660126 78.9666974,54.5641765 L78.9787563,54.5706499 C79.0216323,54.5020314 79.0578089,54.4308236 79.099345,54.3622051 C79.1435609,54.2922919 79.1891166,54.2301469 79.2319926,54.158939 L79.2199338,54.1524655 C85.4275746,43.5386095 78.3101586,33.6601365 71.9189549,32.0068194" id="Fill-44" fill="#FFFFFF"></path>
                        <polygon id="Fill-46" fill="#E7364B" points="73.901166 41.7303181 65.5684834 55.2352135 8.33840291 22.2672665 16.6710855 8.7623711"></polygon>
                    </g>
                </g>
            </g>
        </g>
    </g>
</svg>