<svg height="143" viewBox="0 0 143 143" width="143" xmlns="http://www.w3.org/2000/svg"><g fill="none" fill-rule="evenodd"><circle cx="71.5" cy="71.5" fill="#ffd8dd" r="71.5"/><g transform="matrix(-.48480962 .87461971 -.87461971 -.48480962 138.176608 47.663054)"><path d="m71.0227014 11.1854232c-1.4196-1.27659996-8.6515.9191-8.6515.9191s-1.1869-1.0985-3.2487-2.49989996c-2.0631-1.4027-8.6255 1.12319996-11.3841 1.58729996s-2.1346-2.74949996-13.2132-9.24169996-24.98080003 9.41719996-24.98080003 9.41719996-11.8144 17.5162-2.6988 26.5603c9.11430003 9.0441 12.06010003 7.618 12.31880003 10.4026.3094 3.3059-.4992 7.098.8762 10.2869.3263.754.7605 1.4456 1.3481 2.0254.5616.5551 2.0345.9802 2.3725 1.5847.4082.7306-.0611 2.7456-.0286 3.6049.0468 1.2467.1716 2.5194.6357 3.6894.7397 1.8577 2.8093 3.2201 4.2523 4.5747 2.0085 1.885 4.0456 3.7401 6.1646 5.5003 1.9747 1.6406 3.8909 3.1902 6.5273 2.7469 1.9526-.3289 3.8961-.7956 5.8305-1.2181 0 0 2.1788 3.8922 5.9644 3.2955 3.7856-.598 6.9537-3.5178 10.3571-1.4547 3.4008 2.0631 7.7207 10.3753 16.4619 9.3405 8.7399-1.0361 16.8389-4.5968 20.8389996-10.7575 4.9283-5.4444 6.2959-14.1856 5.0557-22.8995-1.2415-8.7139-10.3830996-10.7588-13.2495996-13.5187-2.8652-2.7586-.8554-6.5702-1.2493-10.3831-.3913-3.8077-4.7034-4.9179-4.7125-4.9192-.3302-.0845-.3042-6.8887-.6331-7.6518-.3601-.8385-1.0452-1.4911-1.7342-2.0891-4.017-3.4853-9.321-5.395-13.2197-8.9024" fill="#c5e2e0"/><path d="m67.6306114 10.7917832c-1.4196-1.27659996-8.6515.9191-8.6515.9191s-1.1869-1.0985-3.25-2.49989996c-2.0618-1.4014-8.6242 1.12319996-11.3828 1.58729996s-2.1346-2.74949996-13.2132-9.24169996c-11.0799-6.4909-24.98210003 9.41719996-24.98210003 9.41719996s-11.8131 17.5162-2.6975 26.5616c9.11430003 9.0441 12.06010003 7.6167 12.31880003 10.4013.3081 3.3059-.4992 7.098.8762 10.2869.3263.7553.7605 1.4469 1.3481 2.0254.5616.5551 2.0345.9815 2.3712 1.5847.4082.7306-.0611 2.7456-.0286 3.6049.0481 1.2467.1716 2.5194.637 3.6894.7397 1.859 2.808 3.2201 4.2523 4.5747 2.0072 1.885 4.0456 3.7401 6.1646 5.5003 1.9747 1.6406 3.8909 3.1915 6.5273 2.7469 1.9526-.3276 3.8948-.7943 5.8305-1.2181 0 0 2.1775 3.8935 5.9631 3.2955s6.955-3.5165 10.3571-1.4547c3.4021 2.0631 7.722 10.3753 16.4632 9.3405 8.7399-1.0348 16.8376-4.5968 20.8377-10.7562 4.9295996-5.4457 6.2958996-14.1869 5.0556996-22.9008-1.2415-8.7126-10.3830996-10.7588-13.2482996-13.5174-2.8652-2.7599-.8567-6.5715-1.2493-10.3844-.3926-3.8077-4.7047-4.9166-4.7138-4.9192-.3289-.0845-.3042-6.8887-.6318-7.6518-.3614-.8385-1.0452-1.4898-1.7342-2.0878-4.0183-3.4866-9.321-5.3963-13.2197-8.9037" fill="#fff"/><path d="m69.7646914 40.8575332c-6.2426-3.5009-12.6061-7.787-18.3209-12.2187-2.9835-2.3127-5.8279-4.8191-8.3603-7.6219-2.3933-2.6481-4.0807-5.9332-6.7353-8.3161-4.5552-4.09239996-10.3272-8.18089996-16.5074-5.32219996-3.588 1.6575-6.0788 4.59159996-8.5228 7.57119996-1.99030003 2.4271-9.46400003 12.5203-2.27500003 19.344 3.41250003 3.2383 6.86530003 5.9098 11.27620003 7.6791 8.359 3.3553 15.21 9.0012 22.022 14.768 5.6758 4.8035 11.1293 9.8657 16.3423 15.1658 5.8552 5.9553 12.129 13.3133 21.1159 13.7943 2.2347.1196 4.5396-.3133 6.435-1.5028 2.5883-1.625 3.848-4.3498 4.2731-7.2852 7.8195-3.7349 8.3759-14.7056 2.7768-20.6375-4.2549-4.5058-10.4572-7.6973-15.7118-10.8602-2.5805-1.5548-5.1792-3.0836-7.8078-4.5578" fill="#e7364b"/></g></g></svg>