<?xml version="1.0" encoding="UTF-8"?>
<svg width="135px" height="135px" viewBox="0 0 135 135" version="1.1" xmlns="http://www.w3.org/2000/svg" xmlns:xlink="http://www.w3.org/1999/xlink">
    <title>Group 21</title>
    <g id="Page-1" stroke="none" stroke-width="1" fill="none" fill-rule="evenodd">
        <g id="PARTICULIERS---DONNER" transform="translate(-989.000000, -651.000000)">
            <g id="Group-21" transform="translate(989.330645, 651.000000)">
                <circle id="Oval-Copy-3" fill="#FF9A00" cx="67.2580645" cy="67.2580645" r="67.2580645"></circle>
                <g id="Group-10" transform="translate(24.669355, 25.000000)">
                    <path d="M12.4224706,51.4052456 C4.44988233,61.0940528 1.77393322,67.9301749 1.77393322,67.9301749 C2.07021581,78.7016418 10.2038783,81.2094711 19.8177781,83.2750872 C29.4305021,85.3407034 32.2393081,83.2750872 41.408784,73.3903925 C50.5782599,63.5045248 60.0440183,59.6677103 67.7344327,59.3732925 C75.4248471,59.0777018 81.0436348,61.8811218 81.0436348,61.8811218 L85,57.0120856 C85,57.0120856 76.607626,46.9795955 75.719954,38.8637533 C74.8334576,30.749084 80.8966692,24.8466532 83.8547922,18.2075916 C86.8117395,11.56853 83.7066509,10.2407177 78.3829701,5.96169004 C73.0581136,1.68266235 66.6986194,1.9770801 61.2267973,3.01047467 C55.7549751,4.04386924 44.9594722,15.2563763 36.0851032,19.2409862 C27.2119099,23.2244232 14.1978147,20.4210032 14.1978147,20.4210032 L9.02109944,24.8466532 C9.02109944,24.8466532 23.95868,37.3881456 12.4224706,51.4052456" id="Fill-48" fill="#C5E2E0"></path>
                    <path d="M10.6485374,49.0449771 C2.67477338,58.7326113 0,65.5699064 0,65.5699064 C0.295106866,76.3413733 8.42994513,78.8492026 18.0426692,80.9148187 C27.6553932,82.9804349 30.4653749,80.9148187 39.6348508,71.028951 C48.8043267,61.1430833 58.2689094,57.3074417 65.9593238,57.011851 C73.6497382,56.7174333 79.2697016,59.5208533 79.2697016,59.5208533 L83.2253967,54.6518171 C83.2253967,54.6518171 74.8336928,44.618154 73.9460207,36.5034848 C73.0583487,28.3888155 79.1215603,22.4863847 82.0796833,15.8473231 C85.0378063,9.20708856 81.931542,7.87927624 76.6078612,3.60024855 C71.2830046,-0.67877914 64.9246862,-0.383188411 59.452864,0.650206159 C53.9798662,1.68242775 43.1843632,12.8961078 34.31117,16.8795447 C25.4368009,20.8641547 12.4227057,18.0595617 12.4227057,18.0595617 L7.24599049,22.4863847 C7.24599049,22.4863847 22.1847468,35.0278771 10.6485374,49.0449771" id="Fill-50" fill="#FFFFFF"></path>
                    <path d="M17.5995386,23.223954 C17.5995386,24.0391744 16.5061147,24.6995617 15.1587344,24.6995617 C13.8101783,24.6995617 12.7191059,24.0391744 12.7191059,23.223954 C12.7191059,22.4099065 13.8101783,21.7483463 15.1587344,21.7483463 C16.5061147,21.7483463 17.5995386,22.4099065 17.5995386,23.223954" id="Fill-52" fill="#E7364B"></path>
                    <path d="M68.7700109,48.1594952 C68.7700109,48.9747157 67.6765871,49.6351029 66.3292067,49.6351029 C64.9806506,49.6351029 63.8895783,48.9747157 63.8895783,48.1594952 C63.8895783,47.3442747 64.9806506,46.6838875 66.3292067,46.6838875 C67.6765871,46.6838875 68.7700109,47.3442747 68.7700109,48.1594952" id="Fill-54" fill="#E7364B"></path>
                    <path d="M79.4915608,53.9137787 C79.4915608,54.7289991 78.3981369,55.3893864 77.0519323,55.3893864 C75.7033762,55.3893864 74.6111281,54.7289991 74.6111281,53.9137787 C74.6111281,53.0985582 75.7033762,52.438171 77.0519323,52.438171 C78.3981369,52.438171 79.4915608,53.0985582 79.4915608,53.9137787" id="Fill-56" fill="#E7364B"></path>
                    <path d="M77.0516972,17.5382898 C77.0516972,17.5382898 79.9181137,13.21117 76.2698403,10.2587816 C72.6203913,7.30873921 65.7188881,3.96457585 62.5655948,4.06310609 C59.4099501,4.16046336 53.9875084,6.71873073 51.7195357,9.47288562 C49.451563,12.2270405 33.1830622,31.5061247 27.8593814,37.7029732 C22.5357006,43.8998217 6.85858925,59.5403247 6.16843893,63.3759663 C5.47828861,67.2127809 7.53580659,73.0155084 12.7184005,74.7867068 C17.9009944,76.5567323 26.3803199,77.9338097 27.8593814,76.852323 C29.3384429,75.7696633 73.3975452,24.817798 77.0516972,17.5382898" id="Fill-58" fill="#E7364B"></path>
                </g>
            </g>
        </g>
    </g>
</svg>