<?xml version="1.0" encoding="UTF-8"?>
<svg width="135px" height="135px" viewBox="0 0 135 135" version="1.1" xmlns="http://www.w3.org/2000/svg" xmlns:xlink="http://www.w3.org/1999/xlink">
    <title>Group 18</title>
    <g id="Page-1" stroke="none" stroke-width="1" fill="none" fill-rule="evenodd">
        <g id="PARTICULIERS---DONNER" transform="translate(-421.000000, -651.000000)">
            <g id="Group-18" transform="translate(421.000000, 651.000000)">
                <circle id="Oval" fill="#FF9A00" cx="67.2580645" cy="67.2580645" r="67.2580645"></circle>
                <g id="Group-3" transform="translate(8.531783, 4.962358)">
                    <g id="Group-13" transform="translate(58.626994, 61.000000) rotate(119.000000) translate(-58.626994, -61.000000) translate(11.584221, 20.044823)">
                        <path d="M62.8905482,9.91608958 C61.6334934,8.7843595 55.2296515,10.7308891 55.2296515,10.7308891 C55.2296515,10.7308891 54.1786524,9.75704808 52.3529301,8.51468043 C50.5260566,7.27116031 44.7150564,9.51041851 42.2723182,9.92185195 C39.82958,10.3332854 40.3821315,7.48436812 30.5720396,1.72890984 C20.7619477,-4.02654843 8.45156017,10.077436 8.45156017,10.077436 C8.45156017,10.077436 -2.01008206,25.6058791 6.06177482,33.6236451 C14.1324805,41.641411 16.7409842,40.3771464 16.9700629,42.845747 C17.2440363,45.77649 16.5280216,49.1382585 17.7459373,51.9652787 C18.0348757,52.633714 18.4193595,53.2468305 18.9396788,53.7608342 C19.4369752,54.2529409 20.741227,54.6298001 21.0405258,55.1657008 C21.4019866,55.8133915 20.9864218,57.5997272 21.0152005,58.3615129 C21.0566419,59.4667361 21.1671522,60.5950087 21.5781124,61.6322359 C22.2331162,63.2791221 24.0657454,64.4869155 25.3435208,65.6877941 C27.122046,67.3588823 28.9258965,69.0034636 30.8022694,70.5639142 C32.5508648,72.0183372 34.2476584,73.392087 36.5821886,72.9990931 C38.3112144,72.707517 40.0321822,72.2937786 41.7450919,71.9192244 C41.7450919,71.9192244 43.6744177,75.3697334 47.0265636,74.8407476 C50.3787095,74.3106092 53.1840597,71.7221512 56.1977678,73.5511284 C59.2091736,75.3801057 63.0344418,82.7490284 70.7747677,81.8316586 C78.5139426,80.9131364 85.6856009,77.7565084 89.2276864,72.2949311 C93.5916923,67.4683674 94.8027011,59.719128 93.7045049,51.9940906 C92.6051576,44.2690532 84.5102778,42.4562106 81.9719942,40.009507 C79.4348618,37.5639558 81.2145381,34.1849002 80.86574,30.8046921 C80.5192441,27.429094 76.7008829,26.4448806 76.6928248,26.4437282 C76.400433,26.3688173 76.423456,20.3367651 76.1322153,19.6602625 C75.813347,18.9169164 75.2066914,18.3383741 74.5965825,17.8082358 C71.039532,14.7184513 66.342844,13.0254661 62.8905482,9.91608958" id="Fill-1" fill="#C5E2E0"></path>
                        <path d="M59.886855,9.56712026 C58.6298003,8.43539018 52.2259584,10.3819198 52.2259584,10.3819198 C52.2259584,10.3819198 51.1749593,9.40807876 49.3480858,8.16571112 C47.5223635,6.92334347 41.7113633,9.16144919 39.2686251,9.57288263 C36.8258869,9.98431607 37.3784384,7.1353988 27.5683465,1.37994053 C17.7571034,-4.37436527 5.4467159,9.72846671 5.4467159,9.72846671 C5.4467159,9.72846671 -5.01377519,25.2569098 3.0580817,33.2758282 C11.1287874,41.2935942 13.7372911,40.0281771 13.9663697,42.4967777 C14.2391921,45.4275207 13.5243285,48.7892892 14.7422442,51.6163094 C15.0311826,52.2858972 15.4156664,52.8990137 15.9359857,53.4118649 C16.4332821,53.9039715 17.7375339,54.2819832 18.0356815,54.8167314 C18.3971423,55.4644222 17.9815775,57.2507579 18.0103562,58.0125436 C18.0529487,59.1177667 18.1623079,60.2460394 18.5744192,61.2832666 C19.229423,62.9313053 21.0609011,64.1379462 22.3398277,65.3388248 C24.1172017,67.009913 25.9222034,68.6544943 27.7985763,70.2149449 C29.5471716,71.6693679 31.2439653,73.0442701 33.5784955,72.6501238 C35.3075213,72.3597002 37.0273379,71.9459618 38.7413988,71.5702551 C38.7413988,71.5702551 40.6695734,75.0219166 44.0217193,74.4917782 C47.3738653,73.9616399 50.1803666,71.3743344 53.1929235,73.2021591 C56.2054805,75.0311364 60.0307487,82.4000591 67.7710746,81.4826893 C75.5102494,80.5653195 82.6807566,77.407539 86.2228422,71.9471143 C90.5879992,67.1193981 91.7978568,59.3701587 90.6996607,51.6451213 C89.6003134,43.9212363 81.5054335,42.1072413 78.9683011,39.6616901 C76.4311687,37.2149865 78.2096939,33.8359309 77.8620469,30.4557228 C77.5143999,27.0801247 73.6960386,26.0970638 73.6879806,26.0947589 C73.3967399,26.019848 73.4186117,19.9877958 73.1285221,19.3112932 C72.8085027,18.5679471 72.2029983,17.9905573 71.5928894,17.460419 C68.0346878,14.369482 63.3391509,12.6764968 59.886855,9.56712026" id="Fill-3" fill="#FFFFFF"></path>
                        <path d="M61.7765813,36.2209771 C56.2487637,33.117363 50.6138893,29.3176541 45.5534382,25.3888681 C42.9115512,23.3386158 40.3928372,21.1166447 38.1503989,18.6319094 C36.0311336,16.2843186 34.5369422,13.3720152 32.1862959,11.2595292 C28.1526697,7.63153913 23.0415681,4.00700643 17.5690057,6.54129813 C14.3918344,8.01070328 12.1862329,10.6118385 10.0220728,13.2533103 C8.25966363,15.4049805 1.64170795,24.3527935 8.00756199,30.4021328 C11.0293282,33.2729471 14.0867799,35.6412824 17.9926285,37.2098004 C25.3945167,40.1843374 31.461072,45.1895347 37.4930928,50.3019121 C42.5190094,54.5603058 47.3480795,59.048042 51.9641871,63.7466811 C57.1489622,69.0261673 62.7044074,75.5491737 70.6623005,75.9755893 C72.6411256,76.081617 74.6821128,75.6978429 76.3604881,74.6433287 C78.6524258,73.2027354 79.7678892,70.7871486 80.1443149,68.1848609 C87.0684762,64.8738013 87.561168,55.1480679 82.6031692,49.8893262 C78.8354585,45.8948491 73.3433265,43.0655239 68.6903822,40.2615532 C66.4053514,38.8831935 64.1042046,37.5278834 61.7765813,36.2209771" id="Fill-5" fill="#E7364B"></path>
                    </g>
                </g>
            </g>
        </g>
    </g>
</svg>