<svg height="143" viewBox="0 0 143 143" width="143" xmlns="http://www.w3.org/2000/svg"><g fill="none" fill-rule="evenodd"><circle cx="71.5" cy="71.5" fill="#ffd8dd" r="71.5"/><g transform="translate(24.7 24.7)"><path d="m13.73554 56.9718764c-8.8153 10.738-11.7741 18.3144-11.7741 18.3144.3276 11.9379 9.321 14.7173 19.9511 17.0066 10.6288 2.2893 13.7345 0 23.8732-10.9551 10.1387-10.9564 20.605-15.2087 29.1083-15.535 8.5033-.3276 14.716 2.7794 14.716 2.7794l4.3745576-5.3963s-9.2794576-11.1189-10.2609576-20.1136c-.9802-8.9934 5.7239-15.535 8.9947-22.893 3.2695-7.358-.1638-8.8296-6.0502-13.57199996-5.8877-4.7424-12.9194-4.4161-18.9696-3.2708s-17.9868 13.57199996-27.7992 17.98809996c-9.8111 4.4148-24.2008 1.3078-24.2008 1.3078l-5.7239 4.9049s16.5165 13.8996 3.7609 29.4346" fill="#c5e2e0"/><path d="m11.7741 54.3560164c-8.8166 10.7367-11.7741 18.3144-11.7741 18.3144.3263 11.9379 9.321 14.7173 19.9498 17.0066s13.7358 0 23.8745-10.9564 20.6037-15.2074 29.107-15.535c8.5033-.3263 14.7173 2.7807 14.7173 2.7807l4.3738167-5.3963s-9.2787167-11.1202-10.2602167-20.1136 5.7226-15.535 8.9934-22.893c3.2708-7.3593-.1638-8.83089996-6.0502-13.57329996-5.8877-4.7424-12.9181-4.4148-18.9683-3.2695-6.0515 1.144-17.9881 13.57199996-27.7992 17.98679996-9.8124 4.4161-24.2021 1.3078-24.2021 1.3078l-5.7239 4.9062s16.5178 13.8996 3.7622 29.4346" fill="#fff"/><g fill="#e7364b"><path d="m19.45983 25.7388564c0 .9035-1.209 1.6354-2.6988 1.6354-1.4911 0-2.6975-.7319-2.6975-1.6354 0-.9022 1.2064-1.6354 2.6975-1.6354 1.4898 0 2.6988.7332 2.6988 1.6354"/><path d="m76.03908 53.3746464c0 .9035-1.209 1.6354-2.6988 1.6354-1.4911 0-2.6975-.7319-2.6975-1.6354s1.2064-1.6354 2.6975-1.6354c1.4898 0 2.6988.7319 2.6988 1.6354"/><path d="m87.89391 59.7520564c0 .9035-1.209 1.6354-2.6975 1.6354-1.4911 0-2.6988-.7319-2.6988-1.6354s1.2077-1.6354 2.6988-1.6354c1.4885 0 2.6975.7319 2.6975 1.6354"/><path d="m85.19615 19.4374964s3.1694-4.7957-.8645-8.0678c-4.0352-3.26949996-11.6662-6.97579996-15.1528-6.86659996-3.4892.1079-9.4848 2.9432-11.9925 5.99559996-2.5077 3.0524-20.4958 24.4192-26.3822 31.2871s-23.2206 24.2021-23.9837 28.4531c-.7631 4.2523 1.5119 10.6834 7.2423 12.6464 5.7304 1.9617 15.106 3.4879 16.7414 2.2893 1.6354-1.1999 50.3516-57.6693 54.392-65.7371"/></g></g></g></svg>