<?xml version="1.0" encoding="UTF-8"?>
<svg width="143px" height="143px" viewBox="0 0 143 143" version="1.1" xmlns="http://www.w3.org/2000/svg" xmlns:xlink="http://www.w3.org/1999/xlink">
    <!-- Generator: Sketch 61.1 (89650) - https://sketch.com -->
    <title>Group 2</title>
    <desc>Created with Sketch.</desc>
    <defs>
        <polygon id="path-1" points="0 0.03419 57.9803033 0.03419 57.9803033 47.5378994 0 47.5378994"></polygon>
    </defs>
    <g id="Page-1" stroke="none" stroke-width="1" fill="none" fill-rule="evenodd">
        <g id="QUELS-PRODUITS-DEPOSER" transform="translate(-420.000000, -800.000000)">
            <g id="Group-2" transform="translate(420.000000, 800.000000)">
                <circle id="Oval" fill="#FFD8DD" cx="71.5" cy="71.5" r="71.5"></circle>
                <g id="Group-8" transform="translate(24.700000, 46.800000)">
                    <g id="Group-9" transform="translate(0.000000, 0.737277)">
                        <mask id="mask-2" fill="white">
                            <use xlink:href="#path-1"></use>
                        </mask>
                        <g id="Clip-8"></g>
                        <path d="M56.34538,10.11309 C59.72668,14.54999 56.81468,16.86009 56.81468,16.86009 C54.01448,18.86209 51.21558,20.86409 48.41408,22.86609 C42.72008,26.93769 37.02608,31.00929 31.33078,35.08089 C28.71128,36.95289 26.09178,38.82619 23.47228,40.69949 C19.96228,43.20849 16.74088,46.27779 12.41578,47.18779 C9.53888,47.79229 6.27588,47.75719 3.82798,45.92289 C2.74378,45.11039 1.91828,44.00669 1.34108,42.78729 C-2.55112,34.57129 3.26638,29.92379 3.26638,29.92379 C3.26638,29.92379 42.70058,4.33069 45.90378,2.91499 C49.10828,1.49799 48.63248,0.03419 48.63248,0.03419 C48.63248,0.03419 49.78038,1.49019 51.12068,3.19189 L56.34538,10.11309 Z" id="Fill-7" fill="#C5E2E0" mask="url(#mask-2)"></path>
                    </g>
                    <path d="M68.36271,13.2840972 C69.24151,13.0799972 70.15671,12.9499972 71.06151,12.8199972 C71.71671,12.7250972 72.33681,12.6366972 72.94131,12.5222972 C73.21041,12.4715972 73.48601,12.4091972 73.65631,12.2726972 C73.92541,12.0568972 73.99951,11.6213972 74.08271,11.1156972 C74.11911,10.9063972 74.15551,10.6892972 74.20881,10.4760972 C74.59751,8.93819716 75.95341,7.67589716 77.83711,7.09869716 C79.03311,6.73209716 80.27461,6.66189716 81.47321,6.59299716 C81.82031,6.57219716 82.16611,6.55269716 82.51061,6.52539716 C83.06961,6.48119716 83.64421,6.41619716 84.20061,6.35379716 C85.78271,6.17569716 87.42071,5.99109716 89.05221,6.23679716 C90.02201,6.38109716 90.98531,6.68529716 91.92651,7.13379716 C91.91871,7.12729716 91.91091,7.12209716 91.90441,7.11559716 C89.54621,5.26179716 86.39111,4.23609716 83.02151,4.22430768 C79.56091,4.21269716 76.45521,5.34889716 74.49871,7.33919716 C73.95661,7.89039716 73.49121,8.50659716 72.99851,9.15919716 C72.39011,9.96779716 71.75831,10.8036972 70.96791,11.5043972 C70.24251,12.1478972 69.41961,12.6444972 68.62401,13.1254972 C68.53561,13.1787972 68.44851,13.2307972 68.36271,13.2840972 M61.64691,17.5805972 C61.71321,17.6377972 61.78211,17.6832972 61.85491,17.7131972 C62.19941,17.8522972 62.64661,17.6221972 62.93521,17.3374972 C62.52311,17.4830972 62.08371,17.5688972 61.64691,17.5805972 M61.07491,34.0892972 C61.07231,34.0892972 61.06971,34.0905972 61.06841,34.0905972 C60.97091,34.2699972 61.14901,34.6664972 61.21661,34.8159972 C61.35051,35.1201972 61.48831,35.4269972 61.63001,35.7311972 C61.72751,35.3567972 61.80551,35.0018972 61.76521,34.6742972 C61.74051,34.4909972 61.57151,34.2803972 61.35311,34.1620972 C61.20881,34.0840972 61.10611,34.0814972 61.07491,34.0892972 M85.87761,27.0809972 C86.37291,27.2005972 86.83311,27.3474972 87.24131,27.4995972 C87.92901,27.7530972 88.60891,28.0611972 89.26801,28.3601972 C90.96191,29.1271972 92.56091,29.8525972 94.25741,29.7277972 C95.97731,29.6016972 97.68941,28.5031972 98.72421,26.8599972 C99.90201,24.9931972 100.06191,22.8598972 99.98781,21.3999972 C99.85261,18.6855972 98.83601,15.8879972 97.04331,13.2723972 C97.16551,13.8937972 97.23311,14.5229972 97.24221,15.1534972 C97.29161,18.7843972 95.26621,22.2553972 92.20471,23.7906972 C91.48711,24.1494972 90.72921,24.4042972 89.99731,24.6486972 C89.06911,24.9593972 88.19161,25.2531972 87.41811,25.7393972 C86.84351,26.0994972 86.33781,26.5622972 85.87761,27.0809972 M82.16741,28.1313972 C81.98931,28.1768972 81.81511,28.2314972 81.64091,28.2964972 C80.18881,28.8411972 78.81081,30.4050972 79.01751,32.0794972 C79.06561,32.4772972 79.19821,32.8737972 79.33601,33.2936972 C79.37761,33.4145972 79.41791,33.5380972 79.45691,33.6615972 C80.59831,32.4122972 81.71761,30.9692972 82.83561,29.3143972 L83.14501,28.8541972 C83.34391,28.5538972 83.54671,28.2522972 83.75341,27.9519972 C83.22951,27.9454972 82.69261,27.9961972 82.16741,28.1313972 M69.39751,39.8742972 C70.67541,39.6090972 71.85321,39.1787972 72.90621,38.6782972 C72.75281,38.7042972 72.60201,38.7224972 72.45641,38.7406972 C72.33291,38.7549972 72.20941,38.7692972 72.08851,38.7887972 C71.23961,38.9265972 70.44401,39.3373972 69.59771,39.7715972 C69.53141,39.8053972 69.46511,39.8391972 69.39751,39.8742972 M70.33221,40.8375972 C69.32341,41.0975972 68.31071,41.2509972 67.30061,41.2977972 C65.72891,41.3692972 64.47571,41.1339972 63.46691,40.5775972 C62.31901,39.9431972 61.54681,38.8693972 61.38171,37.7305972 C60.90331,36.9427972 60.53021,36.1042972 60.16361,35.2852972 C60.01151,34.9433972 59.69301,34.2296972 60.03361,33.5796972 C60.28711,33.0947972 60.79931,32.8568972 61.36741,32.9582972 C62.04211,33.0804972 62.80261,33.7005972 62.90791,34.5299972 C62.98331,35.1331972 62.83771,35.6791972 62.69601,36.2069972 C62.60501,36.5475972 62.51921,36.8686972 62.50231,37.1754972 C62.49971,37.2326972 62.49971,37.2911972 62.50101,37.3483972 C62.67651,37.6187972 62.86501,37.8787972 63.07041,38.1231972 C63.91801,39.1280972 64.99701,39.7221972 66.02921,39.7494972 C67.06661,39.7780972 68.04031,39.2775972 69.07121,38.7471972 C69.96041,38.2908972 70.87951,37.8176972 71.90521,37.6525972 C72.04041,37.6304972 72.18081,37.6122972 72.31861,37.5966972 C72.70991,37.5498972 73.07781,37.5043972 73.32091,37.3314972 C73.40151,37.2742972 73.47301,37.2014972 73.54061,37.1156972 C73.51591,36.7971972 73.62511,36.4812972 73.85911,36.2212972 C74.07621,35.9807972 74.38561,35.8026972 74.72621,35.7038972 C74.87311,35.6141972 75.03171,35.5452972 75.19681,35.4971972 C75.23581,35.4763972 75.27741,35.4581972 75.32161,35.4425972 C75.50881,35.3736972 75.71031,35.3658972 75.90401,35.4139972 C75.97811,35.4178972 76.05481,35.4256972 76.13151,35.4360972 C76.38371,35.2397972 76.70481,35.1318972 77.01031,35.1227972 C77.31191,35.1136972 77.57581,35.1955972 77.77731,35.3463972 C78.02821,35.1175972 78.27651,34.8796972 78.52481,34.6339972 C78.46241,34.3141972 78.35581,33.9930972 78.24401,33.6550972 C78.09321,33.2013972 77.93721,32.7307972 77.87351,32.2198972 C77.62261,30.1814972 79.06691,28.0312972 81.23531,27.2187972 C82.34811,26.8014972 83.49861,26.7364972 84.56461,26.8508972 C85.20031,26.0513972 85.91921,25.3207972 86.80581,24.7630972 C87.69631,24.2040972 88.67911,23.8751972 89.63071,23.5566972 C90.35741,23.3135972 91.04381,23.0847972 91.68731,22.7610972 C94.36401,21.4181972 96.13331,18.3683972 96.09041,15.1690972 C96.06961,13.6259972 95.64971,12.0841972 94.89831,10.6749972 C93.05101,8.83939716 90.97361,7.68889716 88.88191,7.37559716 C87.39991,7.15199716 85.90751,7.32099716 84.32801,7.49909716 C83.76381,7.56279716 83.17881,7.62779716 82.60031,7.67329716 C82.24801,7.70189716 81.89441,7.72139716 81.53951,7.74219716 C80.35651,7.81109716 79.23721,7.87479716 78.17511,8.19979716 C77.02071,8.55339716 75.66611,9.41139716 75.32551,10.7581972 C75.28261,10.9271972 75.25271,11.1117972 75.21891,11.3067972 C75.11101,11.9502972 74.98881,12.6795972 74.37911,13.1709972 C74.00211,13.4738972 73.54971,13.5778972 73.15711,13.6532972 C72.52661,13.7728972 71.86361,13.8677972 71.22531,13.9600972 C68.81381,14.3058972 66.31911,14.6633972 64.97491,16.4469972 C64.83321,16.6328972 64.70581,16.8343972 64.57191,17.0475972 C64.34961,17.4011972 64.11951,17.7638972 63.80881,18.0914972 C63.28491,18.6426972 62.34501,19.1535972 61.42331,18.7804972 C60.91501,18.5750972 60.58481,18.1603972 60.35211,17.8210972 C60.20651,17.6078972 60.07261,17.3868972 59.95171,17.1593972 C59.70471,17.0072972 59.47981,16.8083972 59.28871,16.5613972 C58.37871,15.3835972 58.74661,13.9743972 59.22631,12.6626972 L59.23411,12.6210972 C59.27701,12.3779972 59.33161,12.1257972 59.38751,11.8722972 C59.62151,10.7919972 59.84381,9.77019716 59.26401,9.19039716 C59.06901,8.99539716 58.77781,8.85889716 58.46971,8.71589716 C58.38651,8.67689716 58.30331,8.63789716 58.22011,8.59759716 C56.98381,7.99309716 56.25191,6.99729716 55.54341,6.03529716 C55.08061,5.40739716 54.63861,4.80549716 54.07961,4.35569716 C54.07701,4.66639716 54.08741,5.03689716 54.09391,5.32679716 C54.12901,6.60729716 54.13291,7.41589716 53.89111,7.85529716 C53.73901,8.13479716 53.38801,8.23619716 53.10981,8.08279716 C52.83291,7.92939716 52.73021,7.58229716 52.88101,7.30409716 C52.98891,7.05839716 52.96031,5.99499716 52.94341,5.35799716 C52.90311,3.86169716 52.90441,3.24419716 53.35161,2.96599716 C53.55311,2.83859716 53.80531,2.83209716 54.02501,2.94649716 C55.12221,3.51979716 55.80731,4.45189716 56.47161,5.35149716 C57.12421,6.24199716 57.74301,7.08179716 58.72711,7.56279716 C58.80251,7.60049716 58.87921,7.63559716 58.95721,7.67199716 C59.30561,7.83449716 59.69951,8.01779716 60.02841,8.32719716 C59.70861,6.44349716 58.40341,4.80419716 56.58471,3.08169716 C55.69941,2.24189716 54.82191,1.48529716 53.82611,1.44629716 C52.97981,1.40859716 52.53781,4.33359716 52.39091,5.29429716 C52.33501,5.65829716 52.29211,5.94429716 52.24531,6.15359716 C52.17381,6.46429716 51.86701,6.65929716 51.55501,6.58909716 C51.24561,6.51889716 51.05061,6.21079716 51.11951,5.90009716 C51.15981,5.73109716 51.20271,5.44769716 51.25211,5.12009716 C51.53291,3.28709716 52.00611,0.219097157 53.87291,0.294497157 C55.38221,0.355597157 56.58211,1.49309716 57.37771,2.24579716 C59.99591,4.72879716 62.22671,7.58879716 60.82531,11.6707972 C60.73301,11.9424972 60.62511,12.2232972 60.51591,12.5066972 C60.45871,12.6587972 60.40021,12.8095972 60.34431,12.9577972 C60.17011,14.0900972 60.33781,15.2600972 60.80971,16.2974972 C61.47531,16.5509972 62.37751,16.4066972 63.04051,16.0296972 C63.69701,15.6565972 64.25211,15.1183972 64.83971,14.5502972 C65.18941,14.2122972 65.54951,13.8625972 65.93821,13.5440972 C66.59991,13.0032972 67.32531,12.5638972 68.02861,12.1400972 C68.81511,11.6642972 69.55741,11.2170972 70.20351,10.6424972 C70.90811,10.0184972 71.47751,9.26449716 72.07941,8.46499716 C72.57211,7.81239716 73.08301,7.13639716 73.67711,6.53189716 C75.88191,4.28809716 79.20211,3.06089716 83.02541,3.07259716 C86.65111,3.08429716 90.05581,4.19839716 92.61551,6.21079716 C93.95451,7.26119716 95.04261,8.55469716 95.82911,9.97819716 C96.42711,10.5839972 97.00171,11.2560972 97.54381,11.9905972 C99.73821,14.9597972 100.98101,18.1928972 101.13831,21.3414972 C101.21891,22.9677972 101.03691,25.3519972 99.69921,27.4735972 C98.47331,29.4209972 96.42191,30.7248972 94.34191,30.8769972 C92.35291,31.0225972 90.54331,30.2022972 88.79351,29.4092972 C88.15391,29.1193972 87.49091,28.8190972 86.84221,28.5798972 C86.32871,28.3887972 85.72291,28.2054972 85.07291,28.0871972 C84.73621,28.5447972 84.41771,29.0218972 84.10181,29.4937972 L83.78981,29.9591972 C82.45471,31.9377972 81.10921,33.6264972 79.72731,35.0551972 C79.73901,36.0912972 79.24761,37.1884972 78.19331,37.4601972 C78.18941,37.4614972 78.18421,37.4614972 78.17901,37.4627972 C78.18031,37.4666972 78.18031,37.4692972 78.18031,37.4718972 C78.18811,37.6291972 78.12961,37.7825972 78.02171,37.8969972 C77.91251,38.0113972 77.76041,38.0750972 77.60311,38.0750972 C77.25471,38.0737972 76.89851,37.9788972 76.58911,37.8085972 C74.59881,39.2645972 72.47851,40.2863972 70.33221,40.8375972" id="Fill-10" fill="#FFFFFF"></path>
                    <path d="M55.24974,9.18025716 C58.63104,13.6171572 56.02844,14.5297572 56.02844,14.5297572 L15.16944,43.7407572 C15.16944,43.7407572 6.08374,50.0366572 2.19284,41.8193572 C-1.70066,33.6033572 3.86594,30.1934572 3.86594,30.1934572 C3.86594,30.1934572 41.91304,2.00035716 45.11624,0.584657157 C48.32074,-0.832342843 48.63274,0.771857157 48.63274,0.771857157 C48.63274,0.771857157 49.78064,2.22785716 51.12094,3.92825716 L55.24974,9.18025716 Z" id="Fill-12" fill="#FFFFFF"></path>
                    <path d="M1.38099,39.8755972 L0.90389,38.0178972 C2.22209,35.1383972 3.98749,32.8048972 6.53289,30.9211972 C9.18619,28.9581972 11.80699,26.9808972 14.33939,25.0685972 C23.00259,18.5321972 32.29239,11.6382972 42.25299,5.54779716 C43.71419,4.65339716 45.07139,3.58089716 46.38309,2.54219716 C47.08769,1.98449716 47.81699,1.40729716 48.56319,0.857397157 L49.24569,1.78299716 C48.51639,2.32249716 47.79489,2.89319716 47.09809,3.44569716 C45.75909,4.50519716 44.37459,5.59979716 42.85359,6.53059716 C32.93849,12.5950972 23.67339,19.4681972 15.03359,25.9889972 C12.49859,27.9025972 9.87519,29.8811972 7.21669,31.8467972 C4.83769,33.6082972 2.63809,37.1312972 1.38099,39.8755972" id="Fill-14" fill="#E7364B"></path>
                    <path d="M3.25104,43.5648672 L2.41644,42.2661672 C3.79574,39.2553672 6.98464,36.1015672 9.44684,34.2802672 C10.71174,33.3442672 12.00654,32.4875672 13.25844,31.6581672 C14.60394,30.7676672 15.99494,29.8472672 17.33394,28.8358672 C20.20954,26.6661672 23.09684,24.3625672 25.88664,22.1356672 C31.91344,17.3269672 38.14434,12.3557672 44.78864,8.29196716 C46.15754,7.45476716 47.28854,6.52006716 48.48454,5.53076716 C49.22294,4.91976716 49.98604,4.28796716 50.81934,3.67306716 L51.50314,4.59996716 C50.69584,5.19536716 49.94444,5.81676716 49.21774,6.41736716 C48.04384,7.38976716 46.82834,8.39466716 45.38924,9.27476716 C38.80734,13.3008672 32.60374,18.2499672 26.60554,23.0365672 C23.80794,25.2686672 20.91544,27.5761672 18.02684,29.7549672 C16.65924,30.7871672 15.25394,31.7179672 13.89414,32.6188672 C12.65394,33.4391672 11.37214,34.2867672 10.13194,35.2058672 C7.82964,36.9075672 4.53804,40.7542672 3.25104,43.5648672" id="Fill-16" fill="#E7364B"></path>
                    <path d="M5.36354,45.3556172 L4.32484,44.6731172 C5.44934,42.2174172 8.35614,40.9499172 10.83264,39.2261172 C11.39034,38.8387172 11.91554,38.4734172 12.36924,38.1380172 C13.72774,37.1318172 15.28124,35.8474172 16.78404,34.6033172 C18.14904,33.4749172 19.56084,32.3075172 20.80754,31.3676172 C23.66364,29.2122172 26.42874,27.0074172 29.10414,24.8754172 C35.09714,20.0992172 40.75994,15.5882172 47.42374,11.5114172 C48.61974,10.7808172 49.51154,9.85911716 50.45404,8.88411716 C51.22884,8.08331716 52.02964,7.25391716 53.02544,6.51811716 L53.70924,7.44501716 C52.79014,8.12361716 52.02444,8.91661716 51.28214,9.68491716 C50.33054,10.6690172 49.34644,11.6869172 48.02564,12.4942172 C41.42034,16.5346172 35.78614,21.0235172 29.82174,25.7763172 C27.14114,27.9135172 24.36954,30.1222172 21.50044,32.2867172 C20.27584,33.2110172 18.87444,34.3706172 17.51854,35.4912172 C16.00404,36.7444172 14.43624,38.0405172 13.05304,39.0636172 C12.58764,39.4081172 12.05334,39.7786172 11.49044,40.1712172 C9.12834,41.8157172 6.35804,43.1859172 5.36354,45.3556172" id="Fill-18" fill="#E7364B"></path>
                    <path d="M9.89963,45.9415272 L9.01693,45.9792272 L7.54013,45.9519272 L7.54143,45.9519272 C8.84143,45.6178272 11.80413,43.2830272 14.18573,41.4058272 C15.54553,40.3346272 16.83123,39.3206272 17.69313,38.7642272 C18.93853,37.9608272 20.28403,36.9975272 21.58403,36.0654272 C22.95813,35.0813272 24.38033,34.0621272 25.70893,33.2132272 C30.60603,30.0880272 34.54763,26.7171272 38.71933,23.1486272 C42.08373,20.2717272 45.56253,17.2960272 49.62503,14.4217272 C51.01473,13.4376272 52.40313,12.5731272 53.74733,11.7372272 C54.45193,11.2991272 55.18253,10.8454272 55.90403,10.3787272 L56.52933,11.3472272 C55.80003,11.8178272 55.06553,12.2741272 54.35573,12.7161272 C53.02713,13.5429272 51.65173,14.3970272 50.28933,15.3616272 C46.27103,18.2060272 42.81173,21.1635272 39.46813,24.0248272 C35.26523,27.6206272 31.29373,31.0162272 26.32903,34.1856272 C25.02513,35.0176272 23.61723,36.0264272 22.25483,37.0027272 C20.94313,37.9413272 19.58723,38.9137272 18.31843,39.7327272 C17.50073,40.2592272 16.23713,41.2563272 14.89813,42.3106272 C12.17723,44.4556272 11.43493,45.5476272 9.89963,45.9415272" id="Fill-20" fill="#E7364B"></path>
                </g>
            </g>
        </g>
    </g>
</svg>