<?xml version="1.0" encoding="UTF-8"?>
<svg width="136px" height="135px" viewBox="0 0 136 135" version="1.1" xmlns="http://www.w3.org/2000/svg" xmlns:xlink="http://www.w3.org/1999/xlink">
    <title>Group 20</title>
    <defs>
        <polygon id="path-1" points="0 0 52.1598987 0 52.1598987 42.3128334 0 42.3128334"></polygon>
    </defs>
    <g id="Page-1" stroke="none" stroke-width="1" fill="none" fill-rule="evenodd">
        <g id="PARTICULIERS---DONNER" transform="translate(-799.000000, -651.000000)">
            <g id="Group-20" transform="translate(799.887097, 651.000000)">
                <circle id="Oval-Copy-2" fill="#FF9A00" cx="67.2580645" cy="67.2580645" r="67.2580645"></circle>
                <g id="Group-8" transform="translate(26.112903, 42.000000)">
                    <g id="Group-9" transform="translate(0.000000, 0.687167)">
                        <mask id="mask-2" fill="white">
                            <use xlink:href="#path-1"></use>
                        </mask>
                        <g id="Clip-8"></g>
                        <path d="M50.6890986,8.9775477 C53.7309638,12.929614 51.1112875,14.9872823 51.1112875,14.9872823 C48.5921881,16.7705176 46.0742582,18.553753 43.5539893,20.3369883 C38.4315866,23.9636721 33.3091838,27.5903559 28.1856116,31.2170396 C25.8290725,32.8844805 23.4725333,34.5530792 21.1159942,36.221678 C17.9583487,38.4565119 15.0603318,41.1904201 11.1694108,42.0009816 C8.581311,42.539426 5.64587017,42.5081615 3.4437048,40.8743011 C2.46834319,40.1505854 1.72571175,39.1674901 1.20645448,38.0813377 C-2.29502354,30.7631252 2.93848152,26.6234718 2.93848152,26.6234718 C2.93848152,26.6234718 38.4140441,3.82700827 41.295688,2.56600615 C44.1785014,1.30384609 43.750465,0 43.750465,0 C43.750465,0 44.783132,1.29689842 45.9888848,2.81264844 L50.6890986,8.9775477 Z" id="Fill-7" fill="#C5E2E0" mask="url(#mask-2)"></path>
                    </g>
                    <path d="M61.5000582,11.8325031 C62.2906391,11.6507058 63.1139659,11.5349113 63.9279368,11.4191168 C64.5173639,11.3345868 65.0752146,11.2558465 65.6190314,11.1539474 C65.8611175,11.1087875 66.1090512,11.0532061 66.2622554,10.9316219 C66.5043416,10.739403 66.571003,10.3514915 66.6458509,9.90105085 C66.6785969,9.7146217 66.7113428,9.52124489 66.7592922,9.3313419 C67.1089722,7.96149295 68.328759,6.83712834 70.0233621,6.32300076 C71.0993006,5.99646026 72.2161715,5.93393123 73.2944489,5.87256015 C73.606705,5.85403303 73.9177916,5.83666385 74.2277086,5.812347 C74.7305929,5.77297687 75.2475112,5.71507962 75.7480565,5.65949826 C77.1713359,5.5008598 78.6449038,5.3364316 80.1126243,5.55528321 C80.98507,5.68381511 81.8516683,5.95477424 82.6983851,6.35426527 C82.6913681,6.34847555 82.6843511,6.34384377 82.6785036,6.33805404 C80.5570336,4.68682445 77.7186612,3.77320583 74.6873215,3.76270463 C71.5741169,3.75236282 68.7801854,4.76440677 67.0200904,6.53722058 C66.5324096,7.02818927 66.1137292,7.57705521 65.6704893,8.1583436 C65.1231641,8.8785854 64.5547879,9.62314405 63.8437329,10.2472764 C63.1911528,10.8204592 62.4508604,11.2627942 61.7351274,11.6912338 C61.6556015,11.7387096 61.5772451,11.7850274 61.5000582,11.8325031 M55.4584298,15.6595114 C55.5180742,15.710461 55.5800576,15.7509891 55.6455495,15.7776218 C55.9554666,15.9015219 56.357774,15.6965656 56.6174027,15.4429757 C56.2466717,15.5726655 55.8513812,15.6490899 55.4584298,15.6595114 M54.9438505,30.3642551 C54.9415115,30.3642551 54.9391725,30.3654131 54.938003,30.3654131 C54.8502907,30.5252095 55.0105119,30.8783827 55.0713259,31.0115464 C55.1917842,31.2825055 55.315751,31.5557806 55.4432263,31.8267397 C55.5309387,31.4932515 55.6011086,31.1771325 55.5648542,30.8853304 C55.5426337,30.7220602 55.3905989,30.5344731 55.1941232,30.4291001 C55.0643089,30.3596234 54.9719185,30.3573075 54.9438505,30.3642551 M77.2567093,24.1217736 C77.7022882,24.2283045 78.1162906,24.3591523 78.4835131,24.4946319 C79.1021777,24.7204311 79.7138253,24.9948641 80.306761,25.2611915 C81.8306173,25.944379 83.2691003,26.5905123 84.7952956,26.4793496 C86.3425419,26.367029 87.8827712,25.3885654 88.8136919,23.9249229 C89.8732574,22.2621139 90.0171057,20.3619261 89.9504443,19.0615539 C89.8288164,16.6437647 88.9142687,14.151867 87.3015305,11.8220816 C87.4114634,12.3755793 87.4722773,12.9360247 87.4804638,13.4976281 C87.5249047,16.7317685 85.7028263,19.8234817 82.9486577,21.1910147 C82.3030946,21.5106076 81.6212771,21.7375648 80.9628495,21.9552585 C80.1278277,22.2320073 79.3384164,22.4937029 78.6425648,22.9267743 C78.1256466,23.2475251 77.6707117,23.6597535 77.2567093,24.1217736 M73.9189611,25.0573931 C73.7587398,25.0979212 73.602027,25.1465549 73.4453142,25.2044522 C72.1389846,25.6896311 70.8993164,27.082639 71.0852666,28.5740722 C71.128538,28.9284033 71.2478269,29.2815766 71.3717937,29.6555928 C71.4092176,29.7632817 71.4454721,29.8732865 71.480557,29.9832912 C72.5073766,28.8705061 73.5143146,27.5851871 74.5200832,26.1111231 L74.7984238,25.7012106 C74.9773571,25.4337253 75.1597988,25.165082 75.345749,24.8975967 C74.8744412,24.891807 74.3914384,24.9369669 73.9189611,25.0573931 M62.4309789,35.5171105 C63.5805958,35.2808897 64.6401613,34.8976099 65.5874549,34.4518011 C65.4494541,34.47496 65.3137923,34.4911712 65.1828085,34.5073824 C65.0717061,34.5201198 64.9606038,34.5328572 64.8518405,34.5502264 C64.088158,34.6729685 63.3724251,35.0388792 62.6110816,35.4256328 C62.5514372,35.4557394 62.4917928,35.4858459 62.4309789,35.5171105 M63.2718482,36.3751477 C62.3643175,36.6067367 61.4532783,36.7433742 60.5445781,36.7850603 C59.1306546,36.8487472 58.0032582,36.6391592 57.0957275,36.1435587 C56.0630604,35.5784816 55.3683784,34.622019 55.2198521,33.6076591 C54.7894768,32.9059445 54.4538307,32.1590699 54.1240322,31.4295646 C53.9872009,31.125025 53.7006738,30.4893132 54.0070824,29.9103407 C54.2351345,29.4784272 54.6959169,29.2665233 55.2069877,29.356843 C55.8139573,29.4656898 56.4981138,30.0180296 56.5928432,30.7567985 C56.6606741,31.294085 56.5296903,31.7804219 56.402215,32.2505476 C56.3203501,32.5539292 56.2431632,32.8399416 56.2279597,33.1132166 C56.2256207,33.1641662 56.2256207,33.2162737 56.2267902,33.2672233 C56.3846725,33.5080759 56.5542497,33.7396649 56.7390305,33.9573585 C57.5015434,34.85245 58.472227,35.3816309 59.4008087,35.4059477 C60.3340684,35.4314225 61.2100226,34.9856137 62.1374348,34.5131721 C62.9373717,34.1067334 63.764207,33.6852415 64.6869412,33.5381824 C64.808569,33.5184974 64.9348748,33.5022861 65.0588417,33.4883908 C65.4108607,33.4467048 65.7418287,33.4061767 65.9605249,33.25217 C66.0330338,33.2012204 66.0973562,33.1363755 66.1581701,33.0599511 C66.1359496,32.7762546 66.2341875,32.494874 66.4446972,32.263285 C66.6400034,32.0490651 66.918344,31.8904267 67.2247526,31.8024229 C67.3569059,31.7225247 67.4995847,31.6611536 67.648111,31.6183096 C67.6831959,31.5997825 67.7206199,31.5835712 67.7603828,31.5696759 C67.9287906,31.5083048 68.1100628,31.5013572 68.2843181,31.5442011 C68.3509795,31.547675 68.4199799,31.5546226 68.4889803,31.5638862 C68.715863,31.3890365 69.004729,31.2929271 69.2795612,31.2848214 C69.5508848,31.2767158 69.7882929,31.3496664 69.9695652,31.483988 C70.1952784,31.2801897 70.4186525,31.0682857 70.6420267,30.8494341 C70.5858908,30.5645796 70.4899919,30.2785672 70.3894151,29.9775015 C70.2537533,29.5733787 70.1134135,29.1542026 70.0561081,28.6991302 C69.8303949,26.8834724 71.1297075,24.9682314 73.0804308,24.2445157 C74.0815213,23.8728154 75.1165274,23.8149181 76.075516,23.9168173 C76.6474007,23.2046811 77.2941333,22.553916 78.0917311,22.0571576 C78.8928375,21.5592413 79.7769782,21.2662812 80.633051,20.9825846 C81.2868006,20.7660489 81.9042957,20.5622506 82.4831974,20.2739223 C84.8911945,19.0777651 86.4828817,16.3612261 86.4442883,13.5115234 C86.4255763,12.1370427 86.0478283,10.7637199 85.3718583,9.50850749 C83.7100011,7.87348913 81.8411428,6.84870779 79.95942,6.56964304 C78.6261919,6.3704765 77.2836078,6.52100935 75.8626673,6.67964782 C75.355105,6.73638713 74.8288308,6.79428438 74.308404,6.83481245 C73.99147,6.86028724 73.6733664,6.87765642 73.3540934,6.89618354 C72.2898499,6.95755462 71.2829118,7.01429393 70.3274317,7.30378018 C69.2889171,7.61874123 68.0702999,8.38298494 67.7638913,9.58261597 C67.7252979,9.73314882 67.6983994,9.89757702 67.6679924,10.0712688 C67.5709241,10.6444516 67.4609912,11.2940587 66.9124965,11.7317619 C66.573342,12.0015631 66.1663566,12.0941987 65.8131681,12.1613595 C65.2459614,12.2678905 64.6495172,12.3524204 64.0752936,12.4346345 C61.9058741,12.7426479 59.6616068,13.0610828 58.4523455,14.6497834 C58.3248702,14.8153695 58.2102594,14.994851 58.0898011,15.184754 C57.8898168,15.499715 57.6828156,15.8227817 57.4033055,16.1145838 C56.9319977,16.6055525 56.0864504,17.0606249 55.2572761,16.7282947 C54.8000022,16.5453393 54.5029497,16.1759549 54.2936095,15.8737312 C54.1626256,15.6838283 54.0421673,15.4869776 53.933404,15.2843372 C53.7111993,15.1488577 53.5088761,14.9716921 53.3369598,14.7516825 C52.518311,13.7025843 52.849279,12.4473719 53.2808239,11.2790054 L53.2878409,11.2419512 C53.3264343,11.0254155 53.3755533,10.8007741 53.4258417,10.5749748 C53.6363514,9.61272254 53.8363356,8.70257776 53.3147394,8.18613428 C53.1393146,8.01244253 52.877347,7.89085831 52.6001759,7.76348435 C52.525328,7.728746 52.4504801,7.69400765 52.3756322,7.65811136 C51.2634393,7.11966693 50.6050117,6.23268104 49.9676351,5.37580173 C49.5512937,4.81651429 49.1536643,4.28038575 48.65078,3.87973678 C48.648441,4.15648563 48.657797,4.48649996 48.6636445,4.7447217 C48.6952209,5.88529754 48.6987294,6.60553934 48.4812027,6.99692475 C48.3443714,7.24588293 48.0286069,7.33620264 47.7783342,7.19956513 C47.5292311,7.06292762 47.4368407,6.7537563 47.5725025,6.50595607 C47.6695709,6.28710446 47.6438419,5.33990544 47.6286384,4.77251238 C47.592384,3.43971767 47.5935535,2.88969379 47.9958609,2.64189355 C48.1771332,2.52841494 48.4040158,2.52262522 48.6016611,2.62452438 C49.5887176,3.13517813 50.2050433,3.96542471 50.8026569,4.76672266 C51.3897451,5.55991499 51.9464263,6.30794747 52.8317365,6.73638713 C52.8995674,6.76996753 52.9685678,6.80123205 53.0387377,6.83365451 C53.3521633,6.97839763 53.7065213,7.14166788 54.0024044,7.41725879 C53.7147078,5.73939647 52.5405315,4.27922781 50.9044033,2.74495066 C50.1079749,1.99691818 49.3185635,1.32299418 48.4227278,1.28825583 C47.6613844,1.25467543 47.263755,3.86005171 47.1316016,4.71577308 C47.0813132,5.03999768 47.0427198,5.29474558 47.0006178,5.48117473 C46.9362954,5.75792359 46.6602938,5.93161534 46.3796142,5.86908631 C46.1012736,5.80655728 45.9258489,5.53212431 45.9878323,5.25537545 C46.0240867,5.1048426 46.0626802,4.85241059 46.1071211,4.56060844 C46.3597327,2.92790597 46.7854301,0.195155739 48.4648297,0.262316549 C49.8226173,0.316739965 50.9020643,1.32994185 51.6177973,2.00039202 C53.9731669,4.21206699 55.9800261,6.75954603 54.7193069,10.3954934 C54.6362725,10.6375039 54.5392041,10.88762 54.4409663,11.140052 C54.3895083,11.2755316 54.3368809,11.4098532 54.2865925,11.5418589 C54.1298797,12.550429 54.280745,13.5925796 54.7052729,14.5166197 C55.304056,14.742419 56.1156879,14.6138871 56.712132,14.278083 C57.3027287,13.9457528 57.8021045,13.4663636 58.3307177,12.9603416 C58.6453128,12.6592759 58.9692638,12.3477887 59.3189438,12.0640921 C59.9142185,11.582387 60.5667985,11.1910016 61.1994971,10.8135115 C61.9070436,10.3897036 62.5748272,9.99137056 63.1560679,9.47955887 C63.789936,8.92374526 64.3021762,8.25213715 64.843654,7.54000097 C65.2868938,6.95871257 65.7465067,6.35658116 66.2809674,5.81813673 C68.2644366,3.81952363 71.2513354,2.72642354 74.69083,2.73684505 C77.9525608,2.74726655 81.015477,3.73962543 83.3182192,5.53212431 C84.5228025,6.46774388 85.5016726,7.61989917 86.2092191,8.88784896 C86.7471883,9.42745134 87.2641066,10.0261089 87.7517874,10.6803478 C89.7259006,13.3250943 90.843941,16.2049035 90.9854503,19.0094463 C91.0579592,20.4580355 90.8942294,22.5817067 89.6908156,24.471473 C88.5879787,26.2060746 86.7425103,27.3674935 84.871313,27.502973 C83.0819805,27.6326629 81.4540388,26.9019996 79.8798941,26.1956531 C79.3045009,25.9374314 78.7080568,25.6699461 78.1244771,25.4568842 C77.6625252,25.2866663 77.117539,25.123396 76.5327898,25.018023 C76.2298898,25.4256197 75.9433627,25.8505855 75.6591746,26.2709195 L75.378495,26.6854638 C74.1774202,28.4478562 72.9669894,29.9520267 71.7238127,31.2246083 C71.7343382,32.1474905 71.2922678,33.1247961 70.3438046,33.3668066 C70.3402961,33.3679645 70.3356182,33.3679645 70.3309402,33.3691225 C70.3321097,33.3725963 70.3321097,33.3749122 70.3321097,33.3772281 C70.3391266,33.5173394 70.2864992,33.6539769 70.1894309,33.7558761 C70.091193,33.8577753 69.9543617,33.9145146 69.8128524,33.9145146 C69.4994268,33.9133566 69.1789843,33.8288266 68.9006437,33.6771358 C67.1101417,34.9740343 65.20269,35.884179 63.2718482,36.3751477" id="Fill-10" fill="#FFFFFF"></path>
                    <path d="M49.7034454,8.17710231 C52.7453106,12.1291686 50.4039749,12.942046 50.4039749,12.942046 L13.6466422,38.9610705 C13.6466422,38.9610705 5.47301832,44.5689982 1.9727098,37.2496278 C-1.52993772,29.9314153 3.47785416,26.8941255 3.47785416,26.8941255 C3.47785416,26.8941255 37.705562,1.781772 40.5872059,0.520769877 C43.4700193,-0.741390189 43.7506989,0.687513959 43.7506989,0.687513959 C43.7506989,0.687513959 44.7833659,1.98441238 45.9891187,3.49900445 L49.7034454,8.17710231 Z" id="Fill-12" fill="#FFFFFF"></path>
                    <path d="M1.24235808,35.5182684 L0.813152194,33.863565 C1.99902351,31.2987168 3.58720225,29.2202055 5.87707999,27.5423431 C8.2640261,25.7938462 10.6217347,24.0326118 12.8999175,22.3292747 C20.6934544,16.5071272 29.0506895,10.3665447 38.0113858,4.94157235 C39.3259019,4.14490618 40.5468582,3.18960155 41.726882,2.26440348 C42.3607501,1.76764507 43.0168387,1.25351748 43.6881307,0.763706741 L44.3021174,1.58816359 C43.6460288,2.06871077 42.9969572,2.57704863 42.3701061,3.06917526 C41.1655228,4.01290045 39.9200071,4.98789015 38.551694,5.81697878 C29.6319302,11.2187923 21.2969156,17.3408476 13.5244296,23.1490998 C11.2439079,24.8535948 8.88386022,26.6159871 6.49223612,28.3668 C4.35205416,29.9358155 2.37326298,33.0738465 1.24235808,35.5182684" id="Fill-14" fill="#E7364B"></path>
                    <path d="M2.92468144,38.8044006 L2.17386351,37.6476135 C3.41470125,34.9658128 6.28348067,32.1566382 8.49851052,30.5343573 C9.6364324,29.7006369 10.8012527,28.9375511 11.9274796,28.1987822 C13.1379104,27.4055898 14.3892736,26.5857648 15.5938569,25.6848836 C18.1807873,23.7522733 20.7782431,21.7003948 23.2879865,19.7168349 C28.7097808,15.4335963 34.3151863,11.0056146 40.2924923,7.38587848 C41.5239741,6.6401619 42.5414376,5.80759943 43.6173761,4.92640327 C44.2816511,4.38216912 44.9681467,3.81940784 45.7177951,3.27169985 L46.3329512,4.09731464 C45.6066928,4.62765346 44.9307227,5.18115118 44.2769732,5.71612177 C43.2209162,6.58226464 42.1274352,7.47735614 40.8328005,8.26128492 C34.9116305,11.8474406 29.3307844,16.2557373 23.9347191,20.5192908 C21.4179587,22.5074824 18.8158248,24.5628348 16.2171995,26.5035507 C14.9868873,27.422959 13.7226596,28.2520476 12.4993643,29.0545035 C11.3836629,29.7851668 10.2305376,30.540147 9.11483614,31.3588141 C7.04365459,32.8745641 4.0824848,36.3009234 2.92468144,38.8044006" id="Fill-16" fill="#E7364B"></path>
                    <path d="M4.82511624,40.3994698 L3.89068707,39.7915487 C4.90230313,37.6041906 7.51730141,36.4751942 9.74519575,34.9397591 C10.2469105,34.5946915 10.7193879,34.2693089 11.1275428,33.9705591 C12.3496685,33.0743097 13.7472191,31.93026 15.0991591,30.8221066 C16.3271324,29.8170103 17.5972076,28.7771757 18.7187565,27.9399815 C21.2881443,26.0201086 23.7756673,24.0562339 26.1824949,22.1572041 C31.5738822,17.9029141 36.668217,13.8848449 42.6630654,10.2535293 C43.7390039,9.60276422 44.5412798,8.7817812 45.3891661,7.91332244 C46.0861871,7.20002831 46.8065981,6.46125939 47.7024338,5.80586251 L48.3175899,6.63147731 C47.4907546,7.23592461 46.8019201,7.94227106 46.1341365,8.62661657 C45.2780637,9.50318094 44.3927535,10.4098519 43.2045432,11.1289357 C37.2623221,14.7278289 32.1937163,18.726213 26.828058,22.95966 C24.4165524,24.8633216 21.9231819,26.8306701 19.3420991,28.7586486 C18.2404317,29.5819475 16.9797125,30.6148345 15.7599257,31.6129831 C14.3974601,32.729242 12.9870451,33.8837132 11.7426989,34.795016 C11.3240185,35.1018714 10.8433547,35.4318857 10.3369619,35.7815851 C8.21198343,37.2463855 5.71978247,38.4668596 4.82511624,40.3994698" id="Fill-18" fill="#E7364B"></path>
                    <path d="M8.90584679,40.9213556 L8.11175742,40.954936 L6.78320731,40.9306192 L6.7843768,40.9306192 C7.95387514,40.6330273 10.6191619,38.5533581 12.7616828,36.8812855 C13.9849781,35.9271388 15.1416119,35.0239417 15.9169893,34.5283412 C17.0373687,33.8127312 18.2477995,32.9546939 19.4172978,32.1244474 C20.6534576,31.247883 21.9328888,30.3400541 23.1281161,29.583916 C27.5336163,26.8002162 31.0795353,23.7976648 34.8324554,20.6191057 C37.8591171,18.0565734 40.9886947,15.4060372 44.643377,12.8458208 C45.8935707,11.9692564 47.1425949,11.199223 48.3518562,10.4546644 C48.9857243,10.0644369 49.6429824,9.66031408 50.2920539,9.24461182 L50.8545827,10.1072809 C50.1984941,10.526457 49.5377275,10.9328957 48.8991814,11.326597 C47.7039541,12.06305 46.4666249,12.8238199 45.2409906,13.6830151 C41.6260713,16.2165988 38.5140362,18.8509237 35.5060865,21.3995606 C31.7250983,24.6024366 28.1522809,27.6269889 23.6859668,30.4500589 C22.5129599,31.1911437 21.2463932,32.089709 20.020759,32.9593257 C18.8407352,33.795362 17.6209484,34.6615049 16.479518,35.3910103 C15.7439036,35.859978 14.6071512,36.7481218 13.4025679,37.6872152 C10.9548079,39.5978245 10.2870243,40.5704983 8.90584679,40.9213556" id="Fill-20" fill="#E7364B"></path>
                </g>
            </g>
        </g>
    </g>
</svg>