<svg height="143" viewBox="0 0 143 143" width="143" xmlns="http://www.w3.org/2000/svg" xmlns:xlink="http://www.w3.org/1999/xlink"><mask id="a" fill="#fff"><path d="m0 .03419h57.9803033v47.5037094h-57.9803033z" fill="#fff" fill-rule="evenodd"/></mask><g fill="none" fill-rule="evenodd"><circle cx="71.5" cy="71.5" fill="#ffd8dd" r="71.5"/><g transform="translate(24.7 46.8)"><path d="m56.34538 10.11309c3.3813 4.4369.4693 6.747.4693 6.747-2.8002 2.002-5.5991 4.004-8.4006 6.006-5.694 4.0716-11.388 8.1432-17.0833 12.2148-2.6195 1.872-5.239 3.7453-7.8585 5.6186-3.51 2.509-6.7314 5.5783-11.0565 6.4883-2.8769.6045-6.1399.5694-8.5878-1.2649-1.0842-.8125-1.9097-1.9162-2.4869-3.1356-3.8922-8.216 1.9253-12.8635 1.9253-12.8635s39.4342-25.5931 42.6374-27.0088c3.2045-1.417 2.7287-2.8808 2.7287-2.8808s1.1479 1.456 2.4882 3.1577z" fill="#c5e2e0" mask="url(#a)" transform="translate(0 .737277)"/><path d="m68.36271 13.2840972c.8788-.2041 1.794-.3341 2.6988-.4641.6552-.0949 1.2753-.1833 1.8798-.2977.2691-.0507.5447-.1131.715-.2496.2691-.2158.3432-.6513.4264-1.157.0364-.2093.0728-.4264.1261-.6396.3887-1.53790004 1.7446-2.80020004 3.6283-3.37740004 1.196-.3666 2.4375-.4368 3.6361-.5057.3471-.0208.6929-.0403 1.0374-.0676.559-.0442 1.1336-.1092 1.69-.1716 1.5821-.1781 3.2201-.3627 4.8516-.117.9698.1443 1.9331.4485 2.8743.897-.0078-.0065-.0156-.0117-.0221-.0182-2.3582-1.8538-5.5133-2.8795-8.8829-2.89128948-3.4606-.01161052-6.5663 1.12458948-8.5228 3.11488948-.5421.5512-1.0075 1.1674-1.5002 1.82-.6084.8086-1.2402 1.64450004-2.0306 2.34520004-.7254.6435-1.5483 1.1401-2.3439 1.6211-.0884.0533-.1755.1053-.2613.1586m-6.7158 4.2965c.0663.0572.1352.1027.208.1326.3445.1391.7917-.091 1.0803-.3757-.4121.1456-.8515.2314-1.2883.2431m-.572 16.5087c-.0026 0-.0052.0013-.0065.0013-.0975.1794.0806.5759.1482.7254.1339.3042.2717.611.4134.9152.0975-.3744.1755-.7293.1352-1.0569-.0247-.1833-.1937-.3939-.4121-.5122-.1443-.078-.247-.0806-.2782-.0728m24.8027-7.0083c.4953.1196.9555.2665 1.3637.4186.6877.2535 1.3676.5616 2.0267.8606 1.6939.767 3.2929 1.4924 4.9894 1.3676 1.7199-.1261 3.432-1.2246 4.4668-2.8678 1.1778-1.8668 1.3377-4.0001 1.2636-5.46-.1352-2.7144-1.1518-5.512-2.9445-8.1276.1222.6214.1898 1.2506.1989 1.8811.0494 3.6309-1.976 7.1019-5.0375 8.6372-.7176.3588-1.4755.6136-2.2074.858-.9282.3107-1.8057.6045-2.5792 1.0907-.5746.3601-1.0803.8229-1.5405 1.3416m-3.7102 1.0504c-.1781.0455-.3523.1001-.5265.1651-1.4521.5447-2.8301 2.1086-2.6234 3.783.0481.3978.1807.7943.3185 1.2142.0416.1209.0819.2444.1209.3679 1.1414-1.2493 2.2607-2.6923 3.3787-4.3472l.3094-.4602c.1989-.3003.4017-.6019.6084-.9022-.5239-.0065-1.0608.0442-1.586.1794m-12.7699 11.7429c1.2779-.2652 2.4557-.6955 3.5087-1.196-.1534.026-.3042.0442-.4498.0624-.1235.0143-.247.0286-.3679.0481-.8489.1378-1.6445.5486-2.4908.9828-.0663.0338-.1326.0676-.2002.1027m.9347.9633c-1.0088.26-2.0215.4134-3.0316.4602-1.5717.0715-2.8249-.1638-3.8337-.7202-1.1479-.6344-1.9201-1.7082-2.0852-2.847-.4784-.7878-.8515-1.6263-1.2181-2.4453-.1521-.3419-.4706-1.0556-.13-1.7056.2535-.4849.7657-.7228 1.3338-.6214.6747.1222 1.4352.7423 1.5405 1.5717.0754.6032-.0702 1.1492-.2119 1.677-.091.3406-.1768.6617-.1937.9685-.0026.0572-.0026.1157-.0013.1729.1755.2704.364.5304.5694.7748.8476 1.0049 1.9266 1.599 2.9588 1.6263 1.0374.0286 2.0111-.4719 3.042-1.0023.8892-.4563 1.8083-.9295 2.834-1.0946.1352-.0221.2756-.0403.4134-.0559.3913-.0468.7592-.0923 1.0023-.2652.0806-.0572.1521-.13.2197-.2158-.0247-.3185.0845-.6344.3185-.8944.2171-.2405.5265-.4186.8671-.5174.1469-.0897.3055-.1586.4706-.2067.039-.0208.0806-.039.1248-.0546.1872-.0689.3887-.0767.5824-.0286.0741.0039.1508.0117.2275.0221.2522-.1963.5733-.3042.8788-.3133.3016-.0091.5655.0728.767.2236.2509-.2288.4992-.4667.7475-.7124-.0624-.3198-.169-.6409-.2808-.9789-.1508-.4537-.3068-.9243-.3705-1.4352-.2509-2.0384 1.1934-4.1886 3.3618-5.0011 1.1128-.4173 2.2633-.4823 3.3293-.3679.6357-.7995 1.3546-1.5301 2.2412-2.0878.8905-.559 1.8733-.8879 2.8249-1.2064.7267-.2431 1.4131-.4719 2.0566-.7956 2.6767-1.3429 4.446-4.3927 4.4031-7.592-.0208-1.5431-.4407-3.0849-1.1921-4.4941-1.8473-1.83560004-3.9247-2.98610004-6.0164-3.29940004-1.482-.2236-2.9744-.0546-4.5539.1235-.5642.0637-1.1492.1287-1.7277.1742-.3523.0286-.7059.0481-1.0608.0689-1.183.0689-2.3023.1326-3.3644.4576-1.1544.3536-2.509 1.2116-2.8496 2.55840004-.0429.169-.0728.3536-.1066.5486-.1079.6435-.2301 1.3728-.8398 1.8642-.377.3029-.8294.4069-1.222.4823-.6305.1196-1.2935.2145-1.9318.3068-2.4115.3458-4.9062.7033-6.2504 2.4869-.1417.1859-.2691.3874-.403.6006-.2223.3536-.4524.7163-.7631 1.0439-.5239.5512-1.4638 1.0621-2.3855.689-.5083-.2054-.8385-.6201-1.0712-.9594-.1456-.2132-.2795-.4342-.4004-.6617-.247-.1521-.4719-.351-.663-.598-.91-1.1778-.5421-2.587-.0624-3.8987l.0078-.0416c.0429-.2431.0975-.4953.1534-.7488.234-1.0803.4563-2.10210004-.1235-2.68190004-.195-.195-.4862-.3315-.7943-.4745-.0832-.039-.1664-.078-.2496-.1183-1.2363-.6045-1.9682-1.6003-2.6767-2.5623-.4628-.6279-.9048-1.2298-1.4638-1.6796-.0026.3107.0078.6812.0143.9711.0351 1.2805.039 2.0891-.2028 2.5285-.1521.2795-.5031.3809-.7813.2275-.2769-.1534-.3796-.5005-.2288-.7787.1079-.2457.0793-1.3091.0624-1.9461-.0403-1.4963-.039-2.1138.4082-2.392.2015-.1274.4537-.1339.6734-.0195 1.0972.5733 1.7823 1.5054 2.4466 2.405.6526.8905 1.2714 1.7303 2.2555 2.2113.0754.0377.1521.0728.2301.1092.3484.1625.7423.3458 1.0712.6552-.3198-1.8837-1.625-3.523-3.4437-5.2455-.8853-.8398-1.7628-1.5964-2.7586-1.6354-.8463-.0377-1.2883 2.8873-1.4352 3.848-.0559.364-.0988.65-.1456.8593-.0715.3107-.3783.5057-.6903.4355-.3094-.0702-.5044-.3783-.4355-.689.0403-.169.0832-.4524.1326-.78.2808-1.833.754-4.901 2.6208-4.8256 1.5093.0611 2.7092 1.1986 3.5048 1.9513 2.6182 2.483 4.849 5.343 3.4476 9.42500004-.0923.2717-.2002.5525-.3094.8359-.0572.1521-.1157.3029-.1716.4511-.1742 1.1323-.0065 2.3023.4654 3.3397.6656.2535 1.5678.1092 2.2308-.2678.6565-.3731 1.2116-.9113 1.7992-1.4794.3497-.338.7098-.6877 1.0985-1.0062.6617-.5408 1.3871-.9802 2.0904-1.404.7865-.4758 1.5288-.923 2.1749-1.4976.7046-.624 1.274-1.37800004 1.8759-2.17750004.4927-.6526 1.0036-1.3286 1.5977-1.9331 2.2048-2.2438 5.525-3.471 9.3483-3.4593 3.6257.0117 7.0304 1.1258 9.5901 3.1382 1.339 1.0504 2.4271 2.3439 3.2136 3.7674.598.60580004 1.1726 1.27790004 1.7147 2.01240004 2.1944 2.9692 3.4372 6.2023 3.5945 9.3509.0806 1.6263-.1014 4.0105-1.4391 6.1321-1.2259 1.9474-3.2773 3.2513-5.3573 3.4034-1.989.1456-3.7986-.6747-5.5484-1.4677-.6396-.2899-1.3026-.5902-1.9513-.8294-.5135-.1911-1.1193-.3744-1.7693-.4927-.3367.4576-.6552.9347-.9711 1.4066l-.312.4654c-1.3351 1.9786-2.6806 3.6673-4.0625 5.096.0117 1.0361-.4797 2.1333-1.534 2.405-.0039.0013-.0091.0013-.0143.0026.0013.0039.0013.0065.0013.0091.0078.1573-.0507.3107-.1586.4251-.1092.1144-.2613.1781-.4186.1781-.3484-.0013-.7046-.0962-1.014-.2665-1.9903 1.456-4.1106 2.4778-6.2569 3.029" fill="#fff"/><path d="m55.24974 9.18025716c3.3813 4.43690004.7787 5.34950004.7787 5.34950004l-40.859 29.211s-9.0857 6.2959-12.9766-1.9214c-3.8935-8.216 1.6731-11.6259 1.6731-11.6259s38.0471-28.19310004 41.2503-29.60880004c3.2045-1.417 3.5165.1872 3.5165.1872s1.1479 1.456 2.4882 3.1564z" fill="#fff"/><g fill="#e7364b"><path d="m1.38099 39.8755972-.4771-1.8577c1.3182-2.8795 3.0836-5.213 5.629-7.0967 2.6533-1.963 5.2741-3.9403 7.8065-5.8526 8.6632-6.5364 17.953-13.4303 27.9136-19.52080004 1.4612-.8944 2.8184-1.9669 4.1301-3.0056.7046-.5577 1.4339-1.1349 2.1801-1.6848l.6825.9256c-.7293.5395-1.4508 1.1102-2.1476 1.6627-1.339 1.0595-2.7235 2.1541-4.2445 3.0849-9.9151 6.06450004-19.1802 12.93760004-27.82 19.45840004-2.535 1.9136-5.1584 3.8922-7.8169 5.8578-2.379 1.7615-4.5786 5.2845-5.8357 8.0288"/><path d="m3.25104 43.5648672-.8346-1.2987c1.3793-3.0108 4.5682-6.1646 7.0304-7.9859 1.2649-.936 2.5597-1.7927 3.8116-2.6221 1.3455-.8905 2.7365-1.8109 4.0755-2.8223 2.8756-2.1697 5.7629-4.4733 8.5527-6.7002 6.0268-4.8087 12.2577-9.7799 18.902-13.84370004 1.3689-.8372 2.4999-1.7719 3.6959-2.7612.7384-.611 1.5015-1.2428 2.3348-1.8577l.6838.9269c-.8073.5954-1.5587 1.2168-2.2854 1.8174-1.1739.9724-2.3894 1.9773-3.8285 2.8574-6.5819 4.02610004-12.7855 8.97520004-18.7837 13.76180004-2.7976 2.2321-5.6901 4.5396-8.5787 6.7184-1.3676 1.0322-2.7729 1.963-4.1327 2.8639-1.2402.8203-2.522 1.6679-3.7622 2.587-2.3023 1.7017-5.5939 5.5484-6.8809 8.359"/><path d="m5.36354 45.3556172-1.0387-.6825c1.1245-2.4557 4.0313-3.7232 6.5078-5.447.5577-.3874 1.0829-.7527 1.5366-1.0881 1.3585-1.0062 2.912-2.2906 4.4148-3.5347 1.365-1.1284 2.7768-2.2958 4.0235-3.2357 2.8561-2.1554 5.6212-4.3602 8.2966-6.4922 5.993-4.7762 11.6558-9.2872 18.3196-13.364 1.196-.7306 2.0878-1.65230004 3.0303-2.62730004.7748-.8008 1.5756-1.6302 2.5714-2.366l.6838.9269c-.9191.6786-1.6848 1.4716-2.4271 2.2399-.9516.98410004-1.9357 2.00200004-3.2565 2.80930004-6.6053 4.0404-12.2395 8.5293-18.2039 13.2821-2.6806 2.1372-5.4522 4.3459-8.3213 6.5104-1.2246.9243-2.626 2.0839-3.9819 3.2045-1.5145 1.2532-3.0823 2.5493-4.4655 3.5724-.4654.3445-.9997.715-1.5626 1.1076-2.3621 1.6445-5.1324 3.0147-6.1269 5.1844"/><path d="m9.89963 45.9415272-.8827.0377-1.4768-.0273h.0013c1.3-.3341 4.2627-2.6689 6.6443-4.5461 1.3598-1.0712 2.6455-2.0852 3.5074-2.6416 1.2454-.8034 2.5909-1.7667 3.8909-2.6988 1.3741-.9841 2.7963-2.0033 4.1249-2.8522 4.8971-3.1252 8.8387-6.4961 13.0104-10.0646 3.3644-2.8769 6.8432-5.8526 10.9057-8.7269 1.3897-.9841 2.7781-1.8486 4.1223-2.6845.7046-.4381 1.4352-.8918 2.1567-1.3585l.6253.9685c-.7293.4706-1.4638.9269-2.1736 1.3689-1.3286.8268-2.704 1.6809-4.0664 2.6455-4.0183 2.8444-7.4776 5.8019-10.8212 8.6632-4.2029 3.5958-8.1744 6.9914-13.1391 10.1608-1.3039.832-2.7118 1.8408-4.0742 2.8171-1.3117.9386-2.6676 1.911-3.9364 2.73-.8177.5265-2.0813 1.5236-3.4203 2.5779-2.7209 2.145-3.4632 3.237-4.9985 3.6309"/></g></g></g></svg>