<?xml version="1.0" encoding="UTF-8"?>
<svg width="288px" height="268px" viewBox="0 0 288 268" version="1.1" xmlns="http://www.w3.org/2000/svg" xmlns:xlink="http://www.w3.org/1999/xlink">
    <title>Plan de travail 122</title>
    <g id="Page-1" stroke="none" stroke-width="1" fill="none" fill-rule="evenodd">
        <g id="ETABLISSEMENTS-SCOLAIRES" transform="translate(-1111.000000, -107.000000)" fill-rule="nonzero">
            <g id="Plan-de-travail-122" transform="translate(1111.000000, 107.000000)">
                <g id="Group" transform="translate(219.671202, 0.000000)">
                    <path d="M17.4811423,13.4927264 C17.4691346,13.8881242 17.4150998,14.277531 17.3250418,14.6489652 C17.1839509,15.2300801 16.9618078,15.6644185 16.6496068,15.9729485 C16.2923767,16.3264101 15.8180712,16.4911592 15.3827909,16.4312504 C15.0435724,16.5211135 14.6953481,16.5690405 14.3561297,16.6139721 C14.2150388,16.6319447 13.9178474,16.6738808 13.7167178,16.4791774 C13.5666212,16.3353964 13.5335999,16.1227204 13.6326637,15.9250215 C13.7497391,15.6913774 14.0589382,15.4787014 14.3741413,15.5296238 C14.6022882,15.5655691 14.7884081,15.6793957 14.9655221,15.7872314 C15.0795956,15.8561265 15.1876652,15.9220261 15.2987367,15.9609668 C15.3197503,15.9669576 15.3407638,15.975944 15.3617773,15.9789394 C15.4788527,15.9429941 15.5959281,15.9040535 15.7069997,15.853131 C16.1662955,15.6494413 16.4995101,15.3199432 16.6195874,14.9455135 C16.7396648,14.5710839 16.6616145,14.160709 16.5775604,13.7263706 C16.505514,13.3519409 16.4304656,12.9655295 16.4814985,12.5731272 C16.4875024,12.5222048 16.4965082,12.4682869 16.505514,12.414369 C16.5295294,12.2675926 16.5535449,12.126807 16.5145198,12.0189713 C16.502512,11.9830261 16.4845004,11.9500762 16.460485,11.9171264 C16.3404076,11.8931629 16.23534,11.818277 16.1662955,11.7044504 C16.100253,11.5996101 16.0702336,11.4678108 16.0702336,11.3330162 C16.052222,11.270112 16.0462182,11.2042124 16.0462182,11.1383127 C16.0432162,11.1203401 16.0402143,11.1053629 16.0402143,11.0873903 C16.0342104,11.0095089 16.055224,10.9376184 16.0912472,10.8717188 C16.100253,10.8447599 16.1122607,10.817801 16.1242684,10.790842 C16.0792394,10.6770154 16.0762375,10.5482116 16.1032549,10.434385 C16.1332742,10.3235538 16.190311,10.2366861 16.2683612,10.1767774 C16.2113245,10.0599553 16.1512858,9.94313327 16.0882452,9.82631121 C15.965166,9.81432946 15.8360828,9.82032034 15.7009958,9.82631121 C15.5178779,9.83230209 15.3287561,9.83829296 15.1366323,9.80833859 C14.3621335,9.68253022 13.7287256,8.92468459 13.662683,8.04402603 C13.6296618,7.591715 13.7287256,7.1663629 13.8848261,6.7889378 C13.6596811,6.47142145 13.4705593,6.1299416 13.3594878,5.74652563 C13.2514182,5.36011422 13.2364085,4.96771193 13.2213988,4.58429596 C13.2093911,4.29373854 13.2003853,4.01815831 13.1493524,3.74557352 C12.945221,2.62228454 12.0176235,1.65176286 10.8408657,1.32526019 C10.2735002,1.16650202 9.66410777,1.1575157 9.06672302,1.28032863 C8.19616234,1.7595986 7.55074666,2.39762674 7.21152819,3.12851344 C6.97137352,3.64672409 6.87230972,4.2098663 6.76724205,4.80595832 C6.73121885,5.01863437 6.69219371,5.24029673 6.64716471,5.45596821 C6.62014731,5.58776745 6.59012798,5.71956669 6.55710671,5.85136593 C6.45504098,6.29169521 6.35897911,6.708061 6.36498297,7.13041765 C6.37098684,7.591715 6.53909511,8.17582527 6.99538899,8.44541462 C7.05242572,8.47836443 7.11546632,8.51131424 7.18451079,8.54426405 C7.40965579,8.65209979 7.6618182,8.77491272 7.7788936,9.05049295 C7.84793807,9.22123288 7.83893227,9.39796368 7.8239226,9.54773554 C7.79990713,9.79036596 7.76388393,10.0419827 7.72786073,10.2876086 C7.59577566,11.2072078 7.46068866,12.1567614 7.9680154,12.8397211 C8.02205021,12.9116116 8.08208887,12.9775112 8.14512947,13.0523972 C8.25019714,13.1722147 8.35826674,13.2950276 8.44532281,13.441804 C8.59241755,13.6934207 8.67647168,14.0918139 8.44232088,14.3883622 C8.31323774,14.5531112 8.12411594,14.6279972 7.9770212,14.6789196 C7.88396127,14.708874 7.7878994,14.7358329 7.69183753,14.7538055 C7.6077834,14.8286915 7.51172153,14.8886002 7.40064999,14.9335318 C6.87230972,15.140217 6.39500231,14.8556504 5.96572583,14.5381341 C5.95972197,14.5381341 5.95672003,14.5321432 5.95071617,14.5321432 C5.86666203,14.4902071 5.77960596,14.4422801 5.6925499,14.3973485 C5.32031016,14.1966542 4.97208588,14.0049462 4.69590801,14.1547181 C4.60284808,14.2056405 4.52179587,14.2955036 4.43774174,14.3943531 C4.41372627,14.421312 4.39271274,14.4482709 4.36869727,14.4722344 C4.01446913,14.8586459 3.57018299,15.0203995 3.14390845,15.1761622 C2.86472864,15.2780071 2.59755657,15.3738611 2.37241157,15.5326192 C2.48648504,15.5655691 2.62157204,15.6015143 2.72964164,15.6314687 C3.20094518,15.757277 3.49813659,15.8411493 3.63322359,15.975944 C3.72027966,16.0628116 3.72027966,16.2006018 3.63322359,16.2874694 C3.54616752,16.3713417 3.40807859,16.3743371 3.32402445,16.2874694 C3.24597418,16.2215698 2.85272091,16.1167295 2.61857011,16.0568208 C2.06621436,15.9100443 1.84106936,15.8441447 1.78703456,15.6524367 C1.76301909,15.5655691 1.78703456,15.4727105 1.85307709,15.4038154 C2.18028783,15.065331 2.59455464,14.9125637 2.99681371,14.7657873 C3.39306892,14.6220063 3.76831059,14.4842162 4.0474904,14.1786816 C4.06850393,14.1547181 4.08951747,14.1307546 4.11353293,14.1067911 C4.2095948,13.9959599 4.32066634,13.873147 4.46776107,13.7862793 C3.74429513,13.7024071 3.00281758,14.0049462 2.1772859,14.4842162 C1.77502682,14.7178603 1.40278708,14.9574953 1.28270975,15.3169478 C1.18064401,15.6224824 2.2043033,16.0957615 2.5375179,16.2545196 C2.66359911,16.3144284 2.76566484,16.3593599 2.83771124,16.4012961 C2.94277891,16.4612048 2.98180405,16.593004 2.92176538,16.7008398 C2.86172671,16.8056801 2.72964164,16.8446208 2.62157204,16.784712 C2.5645353,16.7517622 2.4654715,16.7068307 2.3483961,16.6529128 C1.70598236,16.3533691 0.634292136,15.8561265 0.862439074,15.1791576 C1.04555701,14.6339881 1.59190889,14.3164717 1.95214089,14.1067911 C3.14390845,13.4148451 4.42873594,12.9056207 5.77660403,13.8551744 C5.86666203,13.9180785 5.95672003,13.9869736 6.04977997,14.0588641 C6.0978109,14.0978048 6.14884377,14.13375 6.1968747,14.1696953 C6.59312991,14.3554124 7.04041799,14.4183166 7.46969446,14.3554124 C7.6348008,14.1397409 7.67682787,13.7952656 7.61078533,13.5106991 C7.5447428,13.229128 7.40665386,12.9715204 7.26256106,12.6959401 C7.17550499,12.5311911 7.08544699,12.3634466 7.01039865,12.1867158 C6.88431745,11.8871721 6.80026332,11.5756466 6.71921111,11.2731074 C6.62915311,10.934623 6.54509898,10.6141112 6.40400811,10.3175629 C6.25090951,9.9940557 6.0347703,9.70349828 5.80662336,9.39796368 C5.62050349,9.14934238 5.42837976,8.88873934 5.26927729,8.60716824 C4.68390028,7.56176062 4.58783841,6.21680928 5.00510715,4.81794007 C5.39836042,3.49395679 6.17285924,2.36767237 7.18451079,1.64876742 C7.71285107,1.27134232 8.30423194,1.01073928 8.91062249,0.8759446 C9.19580616,0.723177298 9.5050053,0.585387183 9.83221604,0.465569692 C11.1560687,-0.0196911485 12.4739174,-0.127526891 13.6446714,0.151048777 C14.5122302,0.35773395 15.2356961,0.76511342 15.737019,1.3342465 C16.3193941,1.99024727 16.5775604,2.87989214 16.4094521,3.6557104 C16.2503496,4.39857885 15.7550306,4.97370281 15.2777232,5.52785871 C15.1036111,5.73154844 14.9234951,5.94122905 14.7643926,6.15090966 C14.6383114,6.31865415 14.5062263,6.51934845 14.3951548,6.74700168 C14.5272399,6.91774161 14.6683307,7.08548609 14.8064197,7.25323058 L14.9445086,7.41797963 C15.5268837,8.11891196 16.0011892,8.78988991 16.3764308,9.44888611 C16.7576764,9.55672186 17.1059006,9.85327015 17.0938929,10.2666405 L17.0938929,10.2726314 C17.0938929,10.2726314 17.0938929,10.2726314 17.0968948,10.2726314 C17.1539316,10.2876086 17.2049644,10.3235538 17.2349838,10.3774717 C17.2650031,10.4283941 17.2740089,10.4912983 17.2559973,10.5482116 C17.2169722,10.6770154 17.1449258,10.7968329 17.0488639,10.8896914 C17.3670688,11.7733454 17.5171655,12.6569994 17.4871462,13.5017128 L17.4811423,13.4927264 Z M17.0278504,13.7323614 C17.0668755,13.2381143 17.0368562,12.7618398 16.9648098,12.3215105 C16.9588059,12.3814192 16.9498001,12.4383325 16.9377924,12.4922504 C16.9287866,12.5401774 16.9227827,12.585109 16.9167788,12.6330359 C16.8777537,12.9565432 16.9407943,13.2920322 17.0098388,13.6484892 C17.0158426,13.6754481 17.0218465,13.7054025 17.0248484,13.7323614 L17.0278504,13.7323614 Z M14.0949614,7.80738648 C14.0949614,7.87628154 14.0949614,7.94817203 14.0979634,8.01706709 C14.1429924,8.60716824 14.566265,9.27814619 15.2026749,9.37999106 C15.3527715,9.40395455 15.511874,9.39796368 15.6829842,9.3919728 C15.7310151,9.3919728 15.782048,9.38897737 15.8300789,9.38897737 C15.4938624,8.83781691 15.0855995,8.2746747 14.5992863,7.68756899 L14.4641993,7.52581538 C14.3771432,7.42097507 14.2870852,7.31313933 14.2000291,7.20530359 C14.1399905,7.39701157 14.1009653,7.59770587 14.0949614,7.80439104 L14.0949614,7.80738648 Z M14.1069692,6.33962221 C14.2030311,6.17187772 14.3080987,6.01911042 14.4071625,5.88431574 C14.5752708,5.65965795 14.7613907,5.44398646 14.9385047,5.23430585 C15.4008025,4.69812258 15.8390847,4.18889824 15.9741718,3.55686097 C16.1122607,2.91583739 15.8931195,2.16997351 15.4008025,1.61581761 C14.8424429,0.98677578 14.0769498,0.6992138 13.5366018,0.570409997 C12.5279522,0.330775014 11.3932214,0.402665509 10.2434809,0.77709517 C10.4836356,0.798063231 10.7237903,0.839999353 10.9549391,0.905898973 C12.2907995,1.2773332 13.3444781,2.38864043 13.5786289,3.67068759 C13.6326637,3.97023132 13.6446714,4.27576592 13.6566792,4.56931877 C13.6716888,4.940753 13.6836966,5.2942146 13.7797584,5.62970357 C13.8518048,5.87832487 13.9658783,6.11196898 14.1069692,6.33662677 L14.1069692,6.33962221 Z M14.0169112,16.1586656 C14.0169112,16.1586656 14.0169112,16.1586656 14.0169112,16.1586656 C14.070946,16.2125835 14.2360523,16.1916154 14.2990929,16.1826291 C14.4251741,16.1646565 14.5512553,16.1496793 14.6773365,16.1287113 C14.5512553,16.0538253 14.4281761,15.9879257 14.3050968,15.9669576 C14.2360523,15.9549759 14.1399905,15.9939166 14.0739479,16.0628116 C14.0289189,16.1077432 14.0169112,16.1436884 14.0169112,16.1556702 L14.0169112,16.1586656 Z M8.02805407,14.1846725 C8.05507147,14.1666998 8.07908694,14.1457318 8.10010047,14.1217683 C8.18715654,14.0109371 8.15113334,13.8222246 8.07908694,13.6874299 C8.08809274,13.8521789 8.07308307,14.0229188 8.03105601,14.1846725 L8.02805407,14.1846725 Z M7.17250306,11.270112 C7.19351659,10.9256367 7.24154752,10.578166 7.29258039,10.2336907 C7.32860359,9.98506939 7.36162486,9.74842984 7.38564033,9.51478573 C7.39464613,9.40994543 7.40365193,9.30210969 7.37063066,9.22722375 C7.31959779,9.10441083 7.16950112,9.03252033 6.99238705,8.94565265 C6.92034065,8.9097074 6.84529232,8.87376215 6.77024398,8.83182603 C6.24790757,8.52629143 5.92970263,7.89425416 5.92069683,7.1423994 C5.91469297,6.66612487 6.02276257,6.20482753 6.1248283,5.75850738 C6.15484764,5.62970357 6.18486697,5.50089977 6.21188437,5.37209597 C6.25691337,5.16241536 6.29293657,4.94674387 6.32895977,4.73706326 C6.43402744,4.1379758 6.54209704,3.52091572 6.80626718,2.9487872 C6.96236772,2.61030279 7.17850692,2.289791 7.44267706,1.99324271 C7.44267706,1.99324271 7.43667319,1.99623815 7.43367126,1.99923358 C6.50006998,2.66422066 5.78560983,3.70663284 5.42237589,4.93775756 C5.04713422,6.20183209 5.13118835,7.45991575 5.65052283,8.38850131 C5.79461563,8.64610892 5.9717297,8.88274847 6.15784957,9.13136976 C6.38899844,9.4398998 6.62615118,9.76041159 6.80026332,10.1258549 C6.95936579,10.4613439 7.05242572,10.8148055 7.14248372,11.1562854 C7.15148952,11.1952261 7.16349726,11.2311713 7.17250306,11.270112 L7.17250306,11.270112 Z" id="Shape" fill="#77122A"></path>
                    <path d="M4.26663154,15.6224824 C6.25391144,14.8616413 6.31094817,15.9100443 6.31094817,15.9100443 L12.6330199,33.9725312 C12.6330199,33.9725312 13.9658783,37.9684445 10.5376704,38.5106187 C7.10946245,39.0557882 6.45804291,36.656443 6.45804291,36.656443 C6.45804291,36.656443 0.208017595,19.7292269 0.0309035249,18.408239 C-0.143208612,17.0842558 0.475189666,17.1441645 0.475189666,17.1441645 C0.475189666,17.1441645 1.13261308,16.880566 1.89810609,16.572036 L4.2636296,15.6254778 L4.26663154,15.6224824 Z" id="Path" fill="#77122A"></path>
                    <path d="M9.73615417,38.6514042 L9.44796856,38.9838978 C8.53538081,38.1931023 7.42466546,36.8900871 7.01039865,35.7578118 C6.57812025,34.5806049 6.1338341,33.409389 5.70455763,32.2771137 C4.2366122,28.4100041 2.70862811,24.2763007 1.54387795,19.983839 C1.37276775,19.3547972 1.12660921,18.743728 0.886454541,18.1536269 C0.757371405,17.8361105 0.625286336,17.5066124 0.502207067,17.1771143 L0.916473874,17.0273424 C1.03655121,17.3508497 1.16863628,17.6773523 1.29471748,17.9918733 C1.53787409,18.5939561 1.79303842,19.2170071 1.97015249,19.8730079 C3.12889878,24.1474969 4.65388094,28.2692186 6.11882444,32.1273418 C6.54810091,33.2596171 6.99238705,34.4338285 7.42766739,35.6110354 C7.81791873,36.6684247 8.87159735,37.9025449 9.74215804,38.6573951 L9.73615417,38.6514042 Z" id="Path" fill="#FFFFFF"></path>
                    <path d="M11.3632021,38.4836597 L11.0750165,38.8161533 C10.1204016,37.9894126 8.95565149,36.1472186 8.55039048,35.053884 C8.34325708,34.4907418 8.16914494,33.9275996 7.99803474,33.3794346 C7.8149168,32.7923289 7.62879693,32.1842551 7.40064999,31.5881631 C6.91433678,30.3031205 6.37999264,29.0031007 5.8636601,27.7450171 C4.74694088,25.0281554 3.59419846,22.2184353 2.81669771,19.3547972 C2.65759524,18.7646961 2.43545217,18.2524763 2.20130136,17.7073067 C2.05720856,17.3718177 1.90711189,17.024347 1.77202489,16.6559082 L2.1862917,16.5061364 C2.31837677,16.8655888 2.4654715,17.2070687 2.60656237,17.5365668 C2.83771124,18.0697546 3.07486398,18.6209151 3.24297225,19.2409706 C4.0114672,22.0776497 5.16120769,24.8753881 6.27192304,27.580268 C6.79125752,28.8413471 7.32560166,30.1473578 7.8149168,31.4353958 C8.04606567,32.046465 8.23818941,32.6605296 8.42130735,33.2536262 C8.58941562,33.7958004 8.76352775,34.3529517 8.96465729,34.9071076 C9.3429009,35.9315472 10.4716278,37.7198232 11.3632021,38.4896506 L11.3632021,38.4836597 Z" id="Path" fill="#FFFFFF"></path>
                    <path d="M12.401871,37.8636042 L12.1136854,38.1960977 C11.3331827,37.5221244 10.8798908,36.1651913 10.5136549,35.0748521 C10.4326027,34.8292262 10.3545524,34.5985776 10.2795041,34.3978833 C10.057361,33.7928049 9.75116384,33.0888772 9.45697436,32.4059175 C9.18980229,31.785862 8.91362442,31.1448384 8.70348908,30.587687 C8.22017781,29.3116308 7.70984913,28.0655288 7.21453012,26.8583676 C6.1068167,24.1564832 5.06214388,21.6043706 4.2816412,18.7317463 C4.14055033,18.216531 3.90039566,17.791179 3.64222939,17.3418634 C3.43209405,16.9734246 3.21295292,16.5900086 3.05084851,16.1496793 L3.46511532,15.9999075 C3.61521199,16.4072869 3.82234539,16.7727303 4.02647686,17.1261919 C4.28464314,17.5785029 4.55181521,18.0487866 4.70791574,18.6179196 C5.47941262,21.4635851 6.52108351,24.0037159 7.62279306,26.6936186 C8.11811207,27.9037752 8.63144268,29.1528726 9.11475396,30.4319243 C9.32188736,30.9800893 9.59806523,31.615122 9.86223537,32.2321821 C10.1594268,32.9211327 10.465624,33.6310513 10.6937709,34.2481114 C10.7688193,34.4547966 10.8498715,34.6914361 10.9309237,34.937062 C11.2791479,35.9764787 11.7144283,37.2705076 12.401871,37.8665996 L12.401871,37.8636042 Z" id="Path" fill="#FFFFFF"></path>
                    <path d="M13.0652983,37.0129 L13.0652983,37.0129 C13.0652983,37.0129 12.627016,36.9979228 12.627016,36.9979228 C12.6450276,36.4886985 12.1076815,35.1527335 11.6724012,34.0803669 C11.4262427,33.4692977 11.1920919,32.8911783 11.0810203,32.5137532 C10.9189159,31.9715791 10.7117825,31.3784825 10.510653,30.8033585 C10.2975157,30.1952848 10.0753726,29.5662429 9.90726437,28.991119 C9.28586416,26.8673539 8.47534215,25.0641007 7.61378726,23.1590026 C6.92034065,21.6223432 6.20287857,20.031766 5.58448029,18.2374991 C5.37434496,17.6234345 5.20623669,17.024347 5.04413228,16.4432322 C4.96007815,16.1376976 4.87002015,15.8231767 4.77696021,15.5086557 L5.19723089,15.3828474 C5.29029082,15.7003637 5.38034882,16.0178801 5.46440296,16.3234147 C5.62350543,16.8985386 5.7916137,17.4916352 5.9987471,18.0937181 C6.61114151,19.867017 7.32259973,21.4486079 8.0130444,22.9762809 C8.88060315,24.8993516 9.69712904,26.7115912 10.327535,28.868306 C10.4926414,29.4344437 10.7117825,30.0574946 10.9219179,30.6595775 C11.1260493,31.2406924 11.3361847,31.8397798 11.501291,32.3909403 C11.6063587,32.7444019 11.8375075,33.313535 12.0806641,33.9156179 C12.5759832,35.1407517 13.0863118,36.4048263 13.0652983,37.0099046 L13.0652983,37.0129 Z" id="Path" fill="#FFFFFF"></path>
                </g>
                <g id="Group" transform="translate(47.838129, 31.785465)">
                    <path d="M20.4164365,30.9103144 C21.1098831,31.2308262 23.6194994,29.5384041 23.6194994,29.5384041 C23.6194994,29.5384041 24.2048764,29.8169798 25.1594913,30.1075372 C26.1141061,30.3980946 28.326531,28.6577456 29.3261748,28.1545121 C30.3258186,27.6512786 30.4669095,28.9512984 35.4771363,30.1225144 C40.4843612,31.2907349 43.9215749,23.5744885 43.9215749,23.5744885 C43.9215749,23.5744885 46.3681507,15.4898033 41.8082138,13.1144215 C37.248277,10.7390397 36.2906603,11.63168 35.8613838,10.5982542 C35.3510551,9.37312032 35.2129662,7.82747468 34.3063823,6.77308076 C34.093245,6.52445946 33.8440846,6.31178341 33.5498951,6.15901611 C33.2707153,6.01523512 32.6553189,6.02422143 32.4541894,5.83550889 C32.2110328,5.60486021 32.1539961,4.78111496 32.0369207,4.4546123 C31.8718143,3.98432864 31.6736867,3.51404499 31.3554818,3.1216427 C30.851157,2.49859175 29.8995441,2.22301152 29.1850839,1.87853623 C28.1944459,1.39627083 27.1948021,0.928982611 26.1741447,0.506625954 C25.2255338,0.114223669 24.3069422,-0.251219679 23.3523274,0.228050286 C22.6438711,0.584507323 21.9564283,0.991886794 21.2659837,1.38129364 C21.2659837,1.38129364 19.9721504,0.153164354 18.5942629,0.827137744 C17.2163755,1.50410657 16.3488168,2.9928389 14.8028211,2.60642749 C13.2568254,2.22001608 10.6181259,-0.442927666 7.3970514,0.98589592 C4.17597688,2.41471951 1.49825229,4.73019253 0.696736079,7.55488989 C-0.543062411,10.2178336 -0.0327337348,13.7165044 1.47423683,16.8976588 C2.98120739,20.0788132 6.72161639,19.7792695 8.14453282,20.495179 C9.56744924,21.2110885 9.2492443,22.9035105 9.85263291,24.3113661 C10.4560215,25.7192216 12.236168,25.6323539 12.23917,25.6323539 C12.374257,25.626363 13.1727712,28.2264026 13.3889104,28.4780193 C13.6260632,28.756595 13.9652817,28.9243395 14.2984963,29.0711159 C16.249753,29.927811 18.5042049,30.0296558 20.4104326,30.907319 L20.4164365,30.9103144 Z" id="Path" fill="#77122A"></path>
                    <path d="M16.0366157,19.68042 C18.8404215,20.2795075 21.7823162,21.1631615 24.496064,22.1816102 C25.9099746,22.7118026 27.2968678,23.3318581 28.5997069,24.1046809 C29.8304996,24.8325722 30.8631647,25.8869661 32.1630019,26.4830581 C34.3904364,27.5074977 37.0831707,28.3851608 39.1094757,26.5639349 C40.2862336,25.5065455 40.8926242,24.0926991 41.4749992,22.6638756 C41.9493047,21.5016459 43.6123758,16.7658595 40.0550847,15.0075379 C38.3649962,14.1748063 36.7289425,13.5637371 34.8317206,13.4079743 C31.2354044,13.1144215 27.9452854,11.7694701 24.6551665,10.3706009 C21.9144013,9.20837127 19.2276709,7.92033324 16.6039811,6.51247771 C13.6560825,4.93088683 10.3869771,2.8640351 6.88972466,3.74169822 C6.01916398,3.96036514 5.19063036,4.39769899 4.60525335,5.07466782 C3.80673907,6.00025794 3.6476366,7.18944654 3.83375647,8.36066252 C1.28511502,10.7120808 2.36881298,14.9656017 5.21464583,16.5681607 C7.37603787,17.7873037 10.1288108,18.2695691 12.5123459,18.8596702 C13.6830999,19.1472322 14.8598578,19.4258079 16.0396176,19.6774246 L16.0366157,19.68042 Z" id="Path" fill="#FFFFFF"></path>
                </g>
                <g id="Group" transform="translate(249.951664, 46.540442)">
                    <path d="M18.4177854,0.129747885 C7.91702243,0.92952964 -0.326286656,5.12314184 0.00992988375,9.49947572 C0.124003353,10.9971944 1.23171677,12.3211776 3.05989421,13.3845579 C3.30605274,15.5622408 3.72632342,18.920126 4.19762696,21.2625579 C4.91508904,24.8211374 7.66185809,42.7668022 17.7963852,44.7497817 C17.7633639,48.7636677 17.5952557,56.3211559 19.1262417,56.9202434 C19.4354408,57.0430563 19.8046786,56.9501978 20.0628449,56.7405172 C20.5341485,56.3511103 20.6632316,55.5962601 20.7863109,55.0331179 C20.8643611,54.6766609 20.5971891,48.6588274 20.4230769,44.950476 C30.8577974,43.2939992 33.5445278,25.9204629 34.2319705,22.3139564 C34.2319705,22.3139564 34.9194133,15.433437 34.9944616,11.371624 C37.0297724,9.92782325 38.1675052,8.28033274 38.038422,6.60288786 C37.7022055,2.22954942 28.9185484,-0.667038433 18.4177854,0.132743322 L18.4177854,0.129747885 Z" id="Path" fill="#77122A"></path>
                    <ellipse id="Oval" fill="#FFFFFF" transform="translate(18.984822, 7.476309) rotate(-4.370000) translate(-18.984822, -7.476309) " cx="18.9848222" cy="7.47630898" rx="15.7809655" ry="5.05336701"></ellipse>
                    <path d="M17.9494838,38.9476197 C15.4488733,38.9476197 12.5279921,38.4833269 10.1324493,37.6955269 C10.0303835,37.6625771 9.9733468,37.5517459 10.0063681,37.4469056 C10.0393893,37.3450607 10.1534628,37.2881474 10.2555285,37.3210972 C12.8702125,38.1837832 16.1183044,38.6510714 18.7299865,38.5372448 C22.8276256,38.3635094 26.6280732,37.1922934 31.0709347,35.490885 C31.1730004,35.4519444 31.2870739,35.5028668 31.326099,35.6047117 C31.3651241,35.7065565 31.3140913,35.8203831 31.2120255,35.8593238 C26.7331409,37.5757094 22.899672,38.7559117 18.7479981,38.9326425 C18.4868299,38.9446242 18.2196578,38.9506151 17.9494838,38.9506151 L17.9494838,38.9476197 Z" id="Path" fill="#FF9A00"></path>
                    <path d="M18.8920909,36.3355984 C18.7119749,36.3355984 18.5348608,36.3355984 18.3547448,36.3296075 C15.3918366,36.2667033 11.6664372,35.4249854 8.62848064,34.133952 C8.52941684,34.0920158 8.48138591,33.9751938 8.52341297,33.8763444 C8.56544004,33.7774949 8.68251544,33.7295679 8.78157924,33.771504 C11.7745068,35.0445649 15.4458714,35.874301 18.3607487,35.9372052 C22.9296913,36.0300638 27.087369,34.8708295 31.9264857,33.0945352 C32.0285514,33.05859 32.1426249,33.1095124 32.1786481,33.2113573 C32.2176732,33.3132021 32.1636384,33.4270288 32.0615727,33.462974 C27.3725527,35.1853504 23.3109368,36.3355984 18.889089,36.3355984 L18.8920909,36.3355984 Z" id="Path" fill="#FF9A00"></path>
                    <path d="M19.3603925,41.5865999 C17.2920604,41.5865999 14.7764402,41.1312935 12.7291217,40.3794387 C12.6270559,40.340498 12.5730211,40.2296668 12.6120462,40.127822 C12.6510714,40.0259771 12.7621429,39.9750547 12.8642087,40.0109999 C14.9535543,40.7778319 17.535217,41.2331383 19.6005472,41.1941976 C22.8396333,41.1342889 25.826557,40.2476395 29.3118017,38.9326425 C29.4138674,38.8937018 29.5279409,38.9446242 29.566966,39.0464691 C29.6059912,39.148314 29.5549583,39.2621406 29.4528926,39.3010813 C25.9286228,40.6310554 22.9086778,41.5266912 19.609553,41.5865999 C19.5285008,41.5865999 19.4474486,41.5865999 19.3633944,41.5865999 L19.3603925,41.5865999 Z" id="Path" fill="#FF9A00"></path>
                    <path d="M19.9877966,47.9399224 C19.9457695,47.9399224 19.9007405,47.9399224 19.8557115,47.936927 C19.474466,47.9159589 18.979147,47.7781688 18.5348608,47.5684882 C18.435797,47.5205612 18.39377,47.4037391 18.4418009,47.3048897 C18.4898318,47.2060403 18.6069072,47.1641042 18.705971,47.2120311 C19.0992243,47.3977483 19.5495143,47.5265521 19.876725,47.5415292 C20.3840518,47.5684882 20.8013205,47.4187163 21.2726241,47.1850722 C21.3686859,47.1371452 21.4887633,47.1760859 21.5367942,47.2749353 C21.5848251,47.3707893 21.5458,47.4906068 21.4467362,47.5385338 C21.0234636,47.7482144 20.555162,47.9399224 19.9877966,47.9399224 Z" id="Path" fill="#FF9A00"></path>
                    <path d="M20.1559049,50.204473 C20.1138778,50.204473 20.0688488,50.204473 20.0238198,50.2014776 C19.6425742,50.1805095 19.1472552,50.0427194 18.7029691,49.8330388 C18.6039053,49.7851118 18.5618782,49.6682897 18.6099092,49.5694403 C18.6579401,49.4705909 18.7750155,49.4286547 18.8740793,49.4765817 C19.2673326,49.6622988 19.7176226,49.7911027 20.0448333,49.8060798 C20.5521601,49.8330388 20.9694288,49.6832669 21.4407323,49.4496228 C21.5367942,49.4016958 21.6568715,49.4406365 21.7049025,49.5394859 C21.7529334,49.6353399 21.7139083,49.7551574 21.6148445,49.8030844 C21.1915719,50.012765 20.7232703,50.204473 20.1559049,50.204473 Z" id="Path" fill="#FF9A00"></path>
                    <path d="M19.9457695,52.6517453 C19.9037424,52.6517453 19.8587134,52.6517453 19.8136844,52.6487498 C19.4324389,52.6277818 18.9371199,52.4899916 18.4928338,52.280311 C18.39377,52.232384 18.3517429,52.115562 18.3997738,52.0167126 C18.4478048,51.9178631 18.5648802,51.875927 18.663944,51.923854 C19.0571972,52.1095711 19.5074872,52.2383749 19.834698,52.2533521 C20.3450267,52.280311 20.7592935,52.1305392 21.230597,51.8968951 C21.3266589,51.8489681 21.4467362,51.8879088 21.4947671,51.9867582 C21.5427981,52.0826122 21.5037729,52.2024297 21.4047091,52.2503567 C20.9814365,52.4600373 20.5131349,52.6517453 19.9457695,52.6517453 Z" id="Path" fill="#FF9A00"></path>
                </g>
                <g id="Group" transform="translate(0.000000, 12.556727)">
                    <path d="M77.3234064,252.813334 C77.3234064,252.813334 62.0795887,201.255868 60.8578018,189.885188 C59.6360149,178.511512 68.1585038,182.037142 68.1585038,182.037142 C68.1585038,182.037142 60.9868849,160.368149 66.1742258,155.224983 C71.3585648,150.081817 76.035577,159.667216 76.035577,159.667216 C76.035577,159.667216 77.6055882,133.361286 83.1351495,133.352291 C93.431781,133.334327 93.2306515,162.042598 93.2306515,162.042598 C93.2306515,162.042598 95.8603451,150.803717 101.371895,153.886022 C109.68725,158.531946 97.7635709,181.054639 97.7635709,181.054639 C97.7635709,181.054639 108.360396,181.063625 112.079791,186.392508 C118.756091,195.956939 77.3264084,252.81633 77.3264084,252.81633 L77.3234064,252.813334 Z" id="Path" fill="#9E223E"></path>
                    <g transform="translate(3.236566, 170.128599)" fill="#FF9A00" id="Path">
                        <path d="M79.0700498,75.861129 C79.0700498,75.861129 35.1247469,68.5282985 25.566591,60.7581342 C16.0084351,52.9879699 25.4675272,49.4863037 25.4675272,49.4863037 C25.4675272,49.4863037 3.39130905,38.1935051 3.64647339,30.5161994 C3.90163773,22.8388936 14.8707023,26.7419484 14.8707023,26.7419484 C14.8707023,26.7419484 -3.72927695,5.57618851 0.674559333,1.55631167 C8.87584135,-5.92928611 30.3816921,16.0722008 30.3816921,16.0722008 C30.3816921,16.0722008 23.9965798,5.60913832 30.7209106,3.9526615 C40.8614416,1.4544668 48.3482635,27.2541682 48.3482635,27.2541682 C48.3482635,27.2541682 46.4480396,17.0666859 53.4395425,18.423619 C65.9876241,20.8589095 79.0730517,75.8641244 79.0730517,75.8641244 L79.0700498,75.861129 Z"></path>
                        <path d="M53.4365406,18.4206236 C46.4270261,17.1565491 48.3452615,27.2511727 48.3452615,27.2511727 C48.3452615,27.2511727 40.8614416,1.45147137 30.7179087,3.94966606 C23.9935779,5.60614288 30.3786902,16.0692053 30.3786902,16.0692053 C30.3786902,16.0692053 8.87584135,-5.93228154 0.6715574,1.55331624 L78.9199531,75.8731107 C77.527056,68.7739244 65.1861079,20.5413932 53.4335386,18.4206236 L53.4365406,18.4206236 Z"></path>
                    </g>
                    <g transform="translate(0.000000, 215.778702)" fill="#9E223E" id="Path">
                        <path d="M94.8096684,36.2588144 C94.8096684,36.2588144 71.6677639,12.774586 60.0112566,10.3273138 C48.3577512,7.88303696 50.4531007,16.1564347 50.4531007,16.1564347 C50.4531007,16.1564347 27.3292078,-4.02083081 21.9707567,0.867722836 C16.6123056,5.75627649 22.409039,10.4770857 22.409039,10.4770857 C22.409039,10.4770857 3.14863435,7.07127346 0.38985757,13.3796644 C-3.84587044,23.069904 27.8305307,28.3448691 27.8305307,28.3448691 C27.8305307,28.3448691 14.5559812,29.2614729 17.6359649,35.3392151 C22.2769539,44.5022578 94.8096684,36.2588144 94.8096684,36.2588144 L94.8096684,36.2588144 Z"></path>
                        <path d="M0.392859503,13.3766689 C3.14863435,7.07127346 22.4120409,10.4740902 22.4120409,10.4740902 C22.4120409,10.4740902 16.6153075,5.75328105 21.9737586,0.864727399 C27.3322097,-4.02382625 49.7356386,13.4096188 49.7356386,13.4096188 C49.7356386,13.4096188 44.4522358,3.33296772 56.1087432,5.78023999 C67.7622486,8.22751225 94.8126704,36.2558189 94.8126704,36.2558189 L0.395861437,13.3766689 L0.392859503,13.3766689 Z"></path>
                    </g>
                    <g transform="translate(109.485658, -0.000000)">
                        <path d="M16.7182293,12.1958479 C8.9282122,13.4748996 6.61372156,23.677359 13.0918938,28.23941 C14.253642,29.0601598 15.0611621,30.2912845 15.4033825,31.6721811 L16.5831423,36.4169538 C16.9073511,37.7259599 18.1861748,38.5646823 19.5190332,38.3460154 L22.4699337,37.8607546 C23.8027921,37.6420876 24.7423973,36.4379218 24.6313258,35.0959659 C24.2230628,30.1954305 23.7157361,28.4191362 25.3127646,26.2354624 C29.9807711,19.8431993 24.5142504,10.9167962 16.7242332,12.1958479 L16.7182293,12.1958479 Z" id="Path" fill="#FF9A00"></path>
                        <path d="M17.5137417,32.9392511 C17.0064149,28.7426435 16.2949567,24.3093963 16.0518001,23.0543081 C11.5879252,23.2999339 13.2840175,18.6030882 15.3433438,20.5141772 C15.9317228,21.0593468 16.2079007,21.7962244 16.3910186,22.6049925 C17.8739737,22.4731932 19.3239075,22.0478411 20.6447582,21.3678769 C20.5727118,20.3314556 20.4706461,19.5496464 20.7618336,18.8846593 C21.2001159,17.8841833 22.4699337,17.6115985 22.9862663,18.5881111 C23.1813919,18.9535544 23.2144132,19.4238381 23.0733223,19.8102495 C22.773129,20.6369902 21.872549,21.1851552 21.0860424,21.6135027 C21.3201932,24.9504199 21.647404,28.3142959 22.0556669,31.6242541 L21.6353962,31.6751766 C21.2331372,28.4161408 20.9089284,25.109178 20.6777795,21.8261788 C19.3659346,22.4761887 17.9370143,22.8835681 16.4780747,23.0213582 C16.7842719,24.6269126 17.4597069,28.9493286 17.9340124,32.8883287 L17.5137417,32.9392511 L17.5137417,32.9392511 Z M13.9324352,22.0628183 C14.3286904,22.4881704 14.9951196,22.676883 15.9647441,22.6319514 C15.7966358,21.9190373 15.5474753,21.2780137 15.0581602,20.8227073 C13.9504468,19.7952723 13.2690079,21.3469088 13.9354371,22.0628183 L13.9324352,22.0628183 Z M21.152085,19.0524038 C20.9089284,19.6095552 21.0019883,20.3224692 21.0560231,21.1432191 C21.692433,20.7807711 22.4339105,20.3284601 22.6740652,19.663473 C22.8421735,19.1991803 22.6530517,18.5401841 22.1787462,18.4203666 C22.1277133,18.4083848 21.3201932,18.662997 21.152085,19.0553993 L21.152085,19.0524038 Z" id="Shape" fill="#FAE0B2"></path>
                        <path d="M15.3673593,31.5553591 C15.3793671,31.5942998 15.3913748,31.6332404 15.4003806,31.6721811 L16.5801404,36.4169538 C16.9043492,37.7259599 18.1831728,38.5646823 19.5160313,38.3460154 L22.4669318,37.8607546 C23.7997902,37.6420876 24.7393954,36.4379218 24.6283238,35.0959659 C24.4452059,32.9152876 24.2440763,31.3546648 24.2170589,30.102572 L15.3673593,31.5553591 L15.3673593,31.5553591 Z" id="Path" fill="#FFFFFF"></path>
                        <path d="M10.9455114,8.65224558 L8.61601113,4.41070638 C8.39086612,4.00033147 8.54096279,3.48511626 8.95222767,3.26045846 C9.36349254,3.03580067 9.87982508,3.18557253 10.1049701,3.59594744 L12.4344704,7.83748664 C12.6596154,8.24786154 12.5095187,8.76307676 12.0982539,8.98773455 C11.683987,9.21239235 11.1676545,9.05962505 10.9455114,8.65224558 Z" id="Path" fill="#FF9A00"></path>
                        <path d="M5.85123048,18.9176092 L0.774961115,18.4742844 C0.306659507,18.4323483 -0.0385628331,18.0219734 0.00346423436,17.5546852 C0.0454913018,17.087397 0.456756176,16.7429217 0.925057785,16.7848578 L6.00132714,17.2281825 C6.46962875,17.2701187 6.81485109,17.6804936 6.77282403,18.1477818 C6.73079696,18.61507 6.31953208,18.9595453 5.85123048,18.9176092 Z" id="Path" fill="#FF9A00"></path>
                        <path d="M0.816988183,34.4489515 C0.48677551,34.1164579 0.489777443,33.5802747 0.822992049,33.2507766 C2.07179634,32.0196518 3.4436799,30.9023537 4.90261952,29.9288366 C5.29287086,29.6682336 5.82121114,29.7730739 6.08237935,30.1624807 C6.34354755,30.5518876 6.23847988,31.0790845 5.84822854,31.3396876 C4.47934692,32.253296 3.19151749,33.301699 2.01776154,34.4579378 C1.68454693,34.7844405 1.14720086,34.7844405 0.816988183,34.4519469 L0.816988183,34.4489515 Z" id="Path" fill="#FF9A00"></path>
                        <path d="M23.4905911,8.42459234 C23.0372991,8.30477485 22.7671251,7.83748664 22.8902044,7.38517561 C23.4665756,5.23744707 23.8178018,3.02082348 23.9378791,0.801204451 C23.9618946,0.333916235 24.3641537,-0.0255362395 24.8324553,0.00142269608 C25.3007569,0.0253861944 25.6609889,0.426774791 25.6339715,0.894063007 C25.5078903,3.23050409 25.1386525,5.56394974 24.532262,7.82250945 C24.4091827,8.27781592 23.9408811,8.54440984 23.493593,8.42159691 L23.4905911,8.42459234 Z" id="Path" fill="#FF9A00"></path>
                        <path d="M28.719959,14.936673 C28.584872,14.4873574 28.8400364,14.0140783 29.2873244,13.8792836 L34.5647233,12.2917019 C35.0150133,12.1569072 35.4893188,12.4115194 35.6244058,12.8578395 C35.7594928,13.3071551 35.5043285,13.7804342 35.0570404,13.9152289 L29.7766396,15.5028107 C29.3293515,15.6376053 28.855046,15.3859886 28.7169571,14.936673 L28.719959,14.936673 Z" id="Path" fill="#FF9A00"></path>
                        <path d="M37.3895427,28.9523241 C37.3144943,28.9523241 37.2364441,28.9433378 37.1583938,28.9193743 C35.3302163,28.4071545 33.5500699,27.6942404 31.8719891,26.8045955 C31.4577223,26.5859286 31.3016217,26.0707134 31.5207629,25.6573431 C31.739904,25.2439727 32.2562366,25.08821 32.6705034,25.3068769 C34.2405145,26.1396085 35.9065876,26.8045955 37.6206915,27.2868609 C38.0709815,27.4126693 38.3351517,27.882953 38.2090705,28.3322685 C38.1040028,28.7066982 37.7617824,28.9493286 37.3925446,28.9493286 L37.3895427,28.9523241 Z" id="Path" fill="#FF9A00"></path>
                    </g>
                    <path d="M207.105993,253.388458 L78.9864775,253.388458 C74.0933261,253.388458 70.1247702,249.281714 70.1247702,244.219425 L70.1247702,238.767729 C70.1247702,233.702444 74.0903242,229.598695 78.9864775,229.598695 L207.105993,229.598695 C201.246219,236.227598 201.144153,246.361162 206.871842,253.115873 L207.105993,253.394449 L207.105993,253.388458 Z" id="Path" fill="#77122A"></path>
                    <path d="M205.127719,232.321548 L134.065951,232.321548 C129.1728,232.321548 125.204244,236.428292 125.204244,241.493577 L125.204244,241.493577 C125.204244,246.558861 129.169798,250.66261 134.065951,250.66261 L205.133722,250.66261 C201.813584,245.037179 201.819588,237.932002 205.127719,232.321548 Z" id="Path" fill="#FF9A00"></path>
                    <path d="M162.095003,213.069872 C162.281123,212.722402 161.998942,212.318018 161.566663,212.318018 L93.7740014,212.318018 C88.4605793,212.318018 84.1528049,216.185127 84.1528049,220.956859 L84.1528049,220.956859 C84.1528049,225.72859 88.4605793,229.5957 93.7740014,229.5957 L161.584675,229.5957 C162.016953,229.5957 162.302137,229.18832 162.113015,228.84085 L162.113015,228.84085 C159.429287,223.847456 159.43529,218.042298 162.095003,213.069872 L162.095003,213.069872 Z" id="Path" fill="#FFE4DD"></path>
                    <path d="M161.668729,213.926567 L128.07109,213.926567 C121.836075,213.926567 116.780819,217.167631 116.780819,221.166539 C116.780819,225.165448 121.836075,228.406511 128.07109,228.406511 L161.890872,228.406511 C159.579383,223.799529 159.516343,218.554518 161.668729,213.926567 L161.668729,213.926567 Z" id="Path" fill="#FF9A00"></path>
                    <g transform="translate(146.911224, 217.359338)" id="Path">
                        <path d="M6.08191705,0 L1.70509816,0 C0.765493014,0 0,0.314520915 0,0.703927762 L0,0.766831945 L6.07891511,0.766831945 L6.07891511,0 L6.08191705,0 Z" fill="#B75742"></path>
                        <path d="M9.81332025,1.767308 C9.81332025,0.790795444 8.66958363,0 7.26167687,0 L1.6450595,0 C2.71374778,0 3.58130653,0.599087457 3.58130653,1.33896047 L3.55428913,20.2701241 L6.65828826,17.8348336 L9.81932411,20.2701241 L9.81332025,1.767308 L9.81332025,1.767308 Z" fill="#FFFFFF"></path>
                    </g>
                    <g transform="translate(79.706942, 195.917998)" id="Path">
                        <path d="M69.9270364,15.7769682 L30.4816316,15.7769682 C26.9843792,15.7769682 24.1475522,12.419083 24.1475522,8.27639322 L24.1475522,8.27639322 C24.1475522,4.13370345 26.9843792,0.775818257 30.4816316,0.775818257 L69.9270364,0.775818257 C66.9130952,4.93348521 66.7930179,11.035191 69.6448546,15.3516161 L69.9270364,15.7769682 Z" fill="#FF9A00"></path>
                        <path d="M24.1505541,8.27639322 L24.1505541,8.27639322 C24.1505541,4.13370345 27.0534237,0.775818257 30.6347302,0.775818257 L70.6775197,0.775818257 C70.8636396,0.775818257 71.0167382,0.599087457 71.0137796,0.383415973 L71.0137796,0.383415973 C71.0137796,0.170739925 70.8606376,0 70.6775197,0 L7.15360726,0 C3.20306293,0 0,3.70535592 0,8.27938866 L0,8.27938866 C0,12.850426 3.20306293,16.5587773 7.15360726,16.5587773 L70.6775197,16.5587773 C70.8606376,16.5587773 71.0107343,16.3880374 71.0137796,16.1723659 L71.0137796,16.1723659 C71.0137796,15.9566944 70.8636396,15.7799636 70.6775197,15.7799636 L30.6347302,15.7799636 C27.0534237,15.7799636 24.1505541,12.4220784 24.1505541,8.27938866 L24.1505541,8.27639322 Z" fill="#77122A"></path>
                        <g transform="translate(56.955682, 4.463202)">
                            <path d="M6.08191705,0 L1.70509816,0 C0.762491081,0 0,0.30853004 0,0.691946013 L0,0.754850196 L6.07891511,0.754850196 L6.07891511,0.00299543729 L6.08191705,0 Z" fill="#184655"></path>
                            <path d="M9.81632218,1.73136275 C9.81632218,0.775818257 8.67258556,2.83784827e-14 7.2646788,2.83784827e-14 L1.64806143,2.83784827e-14 C2.71674972,2.83784827e-14 3.58430847,0.587105708 3.58430847,1.31200153 L3.55729107,19.8747264 L6.66129019,17.4873629 L9.82232605,19.8747264 L9.81632218,1.72836731 L9.81632218,1.73136275 Z" fill="#FFFFFF"></path>
                        </g>
                    </g>
                    <g transform="translate(89.028301, 47.796655)" id="Path">
                        <path d="M106.502237,146.093432 C103.281162,147.875718 93.4378228,144.751476 93.4378228,144.469905 C93.2967319,147.153817 82.4147234,173.426798 82.4147234,173.426798 L82.4237292,181.511483 C82.4237292,181.511483 104.84517,182.577859 104.520961,180.60087 C104.199754,178.623881 102.992977,179.908924 98.520096,176.176609 C98.1238408,175.844116 91.8437961,174.391328 93.5428904,170.682977 C96.9650945,163.212356 104.232775,150.760324 106.499235,146.096428 L106.502237,146.093432 Z" fill="#F7A491"></path>
                        <path d="M81.6882555,181.799045 L106.229061,181.805036 C107.114631,181.715173 107.321765,180.996268 107.009564,180.558934 C106.364148,179.657307 101.66312,177.536538 98.4990825,176.128682 C92.9905347,176.769706 83.3123015,174.657922 82.4237292,173.40583 C80.0942289,176.521084 81.1899345,181.6972 81.6852536,181.799045 L81.6882555,181.799045 Z" fill="#FFFFFF"></path>
                        <path d="M76.3057889,127.231164 C75.9725743,126.236679 97.436398,117.148522 98.3970167,118.187939 C100.096111,120.024142 86.7855384,154.501625 86.7855384,154.501625 L102.080389,159.165521 C102.080389,159.165521 117.978628,119.332196 117.315201,112.047292 C116.651774,104.762389 108.687644,96.4830001 91.4295293,101.781929 C74.1714143,107.080857 76.3087909,127.231164 76.3087909,127.231164 L76.3057889,127.231164 Z" fill="#FFFFFF"></path>
                        <path d="M120.740407,150.625529 C117.117073,149.966533 112.42205,149.780816 108.663629,149.714916 C109.107915,153.054829 111.257299,170.179744 110.864046,171.231142 C109.270019,175.493649 105.736744,177.488611 105.736744,177.488611 C105.736744,177.488611 122.400476,192.492756 123.409126,190.758398 C124.414773,189.02404 122.667648,189.257684 121.577946,183.539394 C121.481884,183.033165 119.071332,175.05332 118.921235,170.748877 C118.636052,162.541379 120.617328,155.178594 120.740407,150.622534 L120.740407,150.625529 Z" fill="#F7A491"></path>
                        <path d="M115.393964,94.59887 C113.070467,93.3617544 107.033579,93.3168229 100.396304,93.7481658 C87.4579715,94.5838928 74.6877468,97.1270191 62.3798199,101.194823 L54.1425147,103.917675 L54.1695321,95.4915103 C54.1695321,95.4915103 27.9686575,91.1181719 27.0560698,97.5973027 C25.6841862,107.356437 27.3862824,127.165264 36.1159047,131.58653 C63.232369,145.32061 101.230842,109.707856 101.365929,114.365761 C101.552049,120.623229 106.838453,143.909759 108.189323,154.103232 C111.947744,154.169131 118.407905,154.166136 121.208709,153.525112 C121.75506,133.551536 122.010225,98.1244997 115.390962,94.6018655 L115.393964,94.59887 Z" fill="#FFFFFF"></path>
                        <path d="M105.229417,177.842072 L123.964483,192.774327 C124.705961,193.265579 125.324359,192.840227 125.35738,192.304043 C125.429427,191.198727 123.141954,186.582758 121.589954,183.494462 C116.921948,180.508011 110.767984,172.719874 110.876054,171.192201 C108.900782,172.854669 104.911212,177.44967 105.229417,177.842072 L105.229417,177.842072 Z" fill="#FFFFFF"></path>
                        <path d="M62.827108,18.8832017 C62.196702,13.1439439 61.5362767,7.38072255 56.7662045,3.1751286 C52.9057182,-0.230683589 48.000559,-0.805807548 43.1494347,1.01541832 C29.4035817,6.17655677 36.4851425,18.3590002 18.9568535,30.6402931 C13.5113463,34.4564802 7.50747953,37.0685015 3.40683852,42.2086719 C-2.33285812,49.4007168 -0.165462211,58.0545351 5.06390575,63.8327336 C30.0940263,91.4746289 58.0360223,54.1454895 60.0443158,45.1831411 C61.5362767,38.5182931 63.2293671,22.5795713 62.827108,18.8861972 L62.827108,18.8832017 Z" fill="#FF9A00"></path>
                        <path d="M57.7448348,45.4347578 C55.7005181,41.6724886 53.5931609,38.6890331 53.5931609,38.6890331 C51.4737959,34.9267638 45.9922656,33.0246612 45.9922656,33.0246612 C45.9922656,33.0246612 44.1610862,33.0606064 42.053729,33.1654467 C41.9246458,33.5129174 41.7895588,33.7615387 41.6574738,33.8633836 C40.8679653,34.4564802 36.3350459,33.6896482 33.4081608,35.6756232 C23.5948406,44.0688384 26.3085883,84.7498722 27.0800852,97.5973027 L56.9643321,97.8788738 C56.9643321,97.8788738 53.1969057,70.2309877 59.2698169,63.1288059 C63.4995411,58.1833389 60.7767875,51.0152575 57.7448348,45.4347578 L57.7448348,45.4347578 Z" fill="#9E223E"></path>
                        <path d="M44.2751597,19.2606268 C44.2751597,19.2606268 42.6331021,30.9667957 41.4863636,33.8124612 C40.339625,36.6581266 47.7934256,42.7418597 53.9984219,44.5870491 C60.2034182,46.4322385 52.1012,38.3026217 52.3593663,35.2622528 C52.6175326,32.221884 53.7432576,17.8228169 53.7432576,17.8228169 L44.2751597,19.2606268 Z" fill="#F7A491"></path>
                        <path d="M47.2440718,3.60647157 C47.2440718,3.60647157 43.5126686,4.44519401 41.2071837,7.95584651 C38.9016989,11.4635036 37.3226819,21.7947668 44.9115696,26.6144254 C52.5004572,31.4370794 58.4022582,24.6164687 58.501322,17.9636025 C58.6003858,11.3107363 57.1714655,2.43226016 47.2440718,3.60647157 Z" fill="#F7A491"></path>
                        <path d="M60.2364395,15.8817736 C59.5880219,17.487328 58.3031944,18.4818131 57.3665912,18.1073835 C56.429988,17.7299584 56.1958372,16.124404 56.8412528,14.5188496 C57.4896704,12.9132952 58.7744979,11.91881 59.7111012,12.2932397 C60.6477044,12.6706648 60.8818552,14.2762192 60.2364395,15.8817736 Z" fill="#F7A491"></path>
                        <path d="M48.3637929,3.39080009 C48.3637929,3.39080009 43.6057285,14.0395796 39.4270372,14.9891333 C35.248346,15.9386869 35.3083378,21.2975242 35.3083378,21.2975242 C35.3083378,21.2975242 35.4014446,8.92337276 39.3189676,6.08669365 C43.2364907,3.25001454 48.3637929,3.39080009 48.3637929,3.39080009 L48.3637929,3.39080009 Z" fill="#FF9A00"></path>
                        <path d="M41.0871064,17.2027614 C41.6364602,18.9311287 41.1351373,20.6355325 39.9613814,21.0069668 C38.7906274,21.378401 37.3947283,20.2760801 36.8453745,18.5477128 C36.2960207,16.8193454 36.7973436,15.1149416 37.9710996,14.7435074 C39.1418536,14.3720732 40.5377526,15.4743941 41.0871064,17.2027614 Z" fill="#F7A491"></path>
                        <path d="M94.5365304,92.9334069 C92.7443762,92.1965293 90.0756574,92.1036708 90.1206864,91.8340814 C90.3008024,90.7437422 98.2229046,94.2394175 97.1512144,92.6488403 C96.5568316,91.7651863 90.6280131,88.6289635 89.1870851,89.1471742 C87.7881841,89.6504076 78.6082718,92.5799453 78.6082718,92.5799453 L53.5181126,85.8941293 C53.5181126,85.8941293 47.1840331,69.5300554 46.5656348,55.4724682 C41.330263,56.2782408 37.7669681,57.7490005 33.2160371,60.6186294 C35.4104504,74.062152 40.7418841,95.8539582 46.6376812,99.9427301 C49.1172782,101.662111 78.7283492,97.8848647 78.7283492,97.8848647 C78.7283492,97.8848647 85.2545524,97.3606632 86.3202387,96.893375 C87.1277588,96.5399134 89.2111006,95.2069438 90.3428295,94.8415004 C92.9184883,94.0117643 97.5054425,96.0935932 97.5175022,95.5214647 C97.5264561,95.1050989 96.3647078,93.6852616 94.5305265,92.9334069 L94.5365304,92.9334069 Z" fill="#F7A491"></path>
                        <path d="M46.7217354,42.2925441 C46.4815807,38.4973251 45.0406527,34.8309098 40.9910445,33.6507076 C38.4814282,32.9198209 35.6686166,33.6177577 33.6633251,35.2532665 C31.2767881,37.1973053 30.6133608,40.3155555 30.6222765,43.2660612 C30.6463821,49.9668545 31.1056779,56.916269 32.3334687,63.5122219 C36.8843997,60.9930591 42.1948198,59.4773678 47.4301917,58.7704446 C47.4301917,58.731504 47.0429423,47.3069061 46.7247373,42.2895487 L46.7217354,42.2925441 Z" fill="#9E223E"></path>
                    </g>
                    <g transform="translate(17.054280, 61.703420)" id="Path">
                        <path d="M40.2042036,38.8638192 L1.30815268,31.635829 C0.527649999,31.492048 0.0113174562,30.7401932 0.158412192,29.9613795 L5.03055008,3.85015272 C5.17464288,3.07133903 5.92812816,2.55612382 6.70863085,2.70290024 L45.6046818,9.93089042 C46.3851844,10.0746714 46.901517,10.8265262 46.7544222,11.6053399 L41.8822844,37.7165667 C41.7381916,38.4953804 40.9847063,39.0105956 40.2042036,38.8638192 Z" fill="#FFE4DD"></path>
                        <path d="M21.6882785,9.01728204 L9.84865317,6.81863108 C9.06815049,6.67485009 8.55181795,5.92299533 8.69891268,5.14418163 L9.44039023,1.17223179 C9.58448303,0.393418097 10.3379683,-0.121797117 11.118471,0.0249793104 L22.9580963,2.22363028 C23.738599,2.36741127 24.2549315,3.11926603 24.1078368,3.89807972 L23.3663592,7.87002956 C23.2222664,8.64884326 22.4687811,9.16405847 21.6882785,9.01728204 Z" fill="#FFE4DD"></path>
                        <path d="M41.9753443,37.8663385 C41.7742148,38.5822481 41.0597546,39.0225773 40.3272829,38.8877827 L1.17606761,31.6118655 C0.446597797,31.4770708 -0.0577270118,30.8120837 0.00531358939,30.0752062 L2.05563409,6.66885921 C2.09165729,6.26447518 2.29578876,5.89603639 2.61699564,5.65041053 C2.94120444,5.40478468 3.35246932,5.30893068 3.75172646,5.38082118 L47.2437374,13.462511 C47.6399926,13.5373969 47.9882169,13.7740365 48.2013541,14.1155163 C48.4144914,14.4569962 48.4745301,14.8733619 48.3634585,15.2627688 L41.9723424,37.8603477 L41.9753443,37.8663385 Z" fill="#EAC6BB"></path>
                    </g>
                    <g transform="translate(24.799490, 119.784250)" id="Path">
                        <path d="M1.19085521,1.56233737 C2.85993017,1.42754269 5.42057935,2.16142482 6.5673179,2.93724308 C6.73842811,3.09899669 8.0592788,3.62319822 9.43416429,5.89074424 L9.12496515,6.10342029 C7.67503132,4.59072446 6.70240491,4.25224005 5.54365862,3.90476932 C3.63142705,3.41351761 1.70418582,3.7819564 1.54508335,3.86582864 L1.19085521,1.56233737 Z" fill="#FFFFFF"></path>
                        <path d="M9.27806375,5.99857999 C9.27806375,5.99857999 -0.883480766,7.69100205 0.0621282515,15.6139337 C1.0107392,23.5368653 11.7306433,29.6984798 21.300807,24.8009398 C34.1730973,18.2109778 29.0878222,1.45150619 19.9259215,0.157477279 C10.7640208,-1.13954707 9.27806375,6.00157542 9.27806375,6.00157542 L9.27806375,5.99857999 Z" fill="#9E223E"></path>
                    </g>
                    <g transform="translate(181.852697, 71.833974)" id="Path">
                        <path d="M52.9761505,26.6035083 L11.17723,41.4818453 C9.82936194,41.9611153 8.34940878,41.260183 7.86609751,39.9152316 L0.151128697,18.333106 C-0.329180645,16.9881546 0.373271768,15.5114041 1.72113986,15.0291387 L43.5200604,0.150801659 C44.8679285,-0.328468307 46.3478816,0.372464018 46.8311929,1.71741536 L54.5461617,23.299541 C55.026471,24.6444923 54.3240186,26.1212429 52.9761505,26.6035083 Z" fill="#FF9A00"></path>
                        <path d="M25.2683054,21.0559585 C26.8052953,25.354411 24.5598491,30.0842065 20.2490727,31.6178703 C15.9412983,33.1515342 11.2012455,30.9079517 9.66425561,26.6094992 C8.12726571,22.3110467 10.3727119,17.5812512 14.6834882,16.0475873 C18.9912626,14.5139234 23.7313155,16.7545105 25.2683054,21.0559585 L25.2683054,21.0559585 Z" fill="#FFFFFF"></path>
                        <path d="M18.6550461,19.8997197 C19.108338,21.1667897 18.4449108,22.5626634 17.1750929,23.0149745 C15.9052751,23.4672855 14.5063742,22.8052939 14.0530822,21.5382239 C13.5997903,20.2711539 14.2632176,18.8752801 15.5330354,18.4229691 C16.8028532,17.9706581 18.2017542,18.6326497 18.6550461,19.8997197 Z" fill="#9E223E"></path>
                        <path d="M17.3136089,24.3611235 L19.3304155,24.3625055 C20.927054,24.3635991 22.2244605,25.6588327 22.225554,27.2527953 L22.2261542,28.1276771 L14.4230336,28.1223328 L14.4224327,27.247451 C14.4213399,25.6534884 15.7169704,24.3600307 17.3136089,24.3611235 Z" fill="#9E223E" transform="translate(18.324293, 26.244400) rotate(-19.630000) translate(-18.324293, -26.244400) "></path>
                        <path d="M26.3009704,16.5448299 C25.8566843,16.5448299 25.4544252,16.2632588 25.3073305,15.8438976 C25.1122048,15.2957326 25.3973885,14.6936497 25.9467423,14.4959508 L44.2195108,7.99285647 C44.3335843,7.95092035 44.4536616,7.92995229 44.573739,7.92995229 C45.0180251,7.92995229 45.4202842,8.2115234 45.5673789,8.63088462 C45.7625046,9.17904964 45.4773209,9.78113253 44.9279671,9.97883139 L26.6551986,16.4819257 C26.5411251,16.5238619 26.4210478,16.5418345 26.3009704,16.5418345 L26.3009704,16.5448299 Z" fill="#FFFFFF"></path>
                        <path d="M31.233147,21.0889083 C30.7888609,21.0889083 30.3866018,20.8073372 30.239507,20.387976 C30.0443814,19.8398109 30.3295651,19.237728 30.8789189,19.0400292 L45.1501102,13.9597675 C45.2641837,13.9178314 45.384261,13.8968634 45.5043383,13.8968634 C45.9486245,13.8968634 46.3508835,14.1784345 46.4979783,14.5977957 C46.5940402,14.8643896 46.5790305,15.1489562 46.4589531,15.4035683 C46.3388758,15.6581805 46.1257385,15.8498885 45.8585665,15.9457425 L31.5873751,21.0260041 C31.4733017,21.0679402 31.3532243,21.0859129 31.233147,21.0859129 L31.233147,21.0889083 Z" fill="#FFFFFF"></path>
                    </g>
                    <path d="M173.250188,179.829505 L72.3221854,179.829505 C69.188167,179.829505 66.6485313,182.363645 66.6485313,185.490881 L66.6485313,190.253626 C66.6485313,193.380863 69.188167,195.915003 72.3221854,195.915003 L173.25319,195.915003 L173.199155,195.861085 C168.882375,191.376915 168.903388,184.28372 173.25319,179.826509 L173.250188,179.829505 Z" id="Path" fill="#FFE4DD"></path>
                    <path d="M171.464038,182.213873 L117.507287,182.213873 C114.373268,182.213873 111.833633,184.748013 111.833633,187.875249 L111.833633,187.875249 C111.833633,191.002486 114.373268,193.536626 117.507287,193.536626 L171.461036,193.536626 C169.476758,190.028969 169.47976,185.715539 171.461036,182.210877 L171.464038,182.213873 Z" id="Path" fill="#FF9A00"></path>
                    <g transform="translate(227.483867, 115.170744)" id="Path">
                        <g>
                            <path d="M15.1680189,38.7003009 L0.55160526,24.1274985 C-0.18386842,23.3936163 -0.18386842,22.2044277 0.55160526,21.4705456 L21.4990964,0.550411601 C22.2345701,-0.183470534 23.4263377,-0.183470534 24.1618114,0.550411601 L38.778225,15.123214 C39.5136987,15.8570961 39.5136987,17.0462847 38.778225,17.7801669 L17.8307338,38.7003009 C17.0952602,39.434183 15.9034926,39.434183 15.1680189,38.7003009 Z" fill="#FFE4DD"></path>
                            <path d="M34.632555,18.2804049 L21.4990964,5.18435308 C21.2889611,4.97467247 21.2889611,4.63319262 21.4990964,4.42351201 L21.4990964,4.42351201 C21.7092318,4.2138314 22.0514522,4.2138314 22.2615875,4.42351201 L35.3950461,17.5195638 C35.6051814,17.7292444 35.6051814,18.0707243 35.3950461,18.2804049 L35.3950461,18.2804049 C35.1849108,18.4900855 34.8426904,18.4900855 34.632555,18.2804049 Z" fill="#FF9A00"></path>
                            <path d="M30.7240377,17.4926049 L19.941093,6.74198047 C19.7309577,6.53229986 19.7309577,6.19082001 19.941093,5.9811394 L19.941093,5.9811394 C20.1512284,5.77145879 20.4934488,5.77145879 20.7035841,5.9811394 L31.4865288,16.7347593 C31.6966642,16.9444399 31.6966642,17.2859197 31.4865288,17.4956003 L31.4865288,17.4956003 C31.2763935,17.7052809 30.9341731,17.7052809 30.7240377,17.4956003 L30.7240377,17.4926049 Z" fill="#FF9A00"></path>
                            <path d="M31.5195501,21.3896688 L18.3830896,8.29361699 C18.1729543,8.08393638 18.1729543,7.74245653 18.3830896,7.53277592 L18.3830896,7.53277592 C18.5932249,7.32309531 18.9354453,7.32309531 19.1455807,7.53277592 L32.2790392,20.6288277 C32.4891746,20.8385083 32.4891746,21.1799882 32.2790392,21.3896688 L32.2790392,21.3896688 C32.0689039,21.5993494 31.7266835,21.5993494 31.5165482,21.3896688 L31.5195501,21.3896688 Z" fill="#FF9A00"></path>
                            <path d="M26.9656171,19.9548543 L16.8280881,9.84824894 C16.6179528,9.63856833 16.6179528,9.29708848 16.8280881,9.08740787 L16.8280881,9.08740787 C17.0382234,8.87772726 17.3804438,8.87772726 17.5905792,9.08740787 L27.7281082,19.1940133 C27.9382436,19.4036939 27.9382436,19.7451737 27.7281082,19.9548543 L27.7281082,19.9548543 C27.5179729,20.164535 27.1757525,20.164535 26.9656171,19.9548543 Z" fill="#FF9A00"></path>
                            <g transform="translate(24.254384, 0.519971)" fill="#FFFFFF">
                                <path d="M2.66019983,0.33897021 L2.39602969,0.0753717291 C2.29696589,-0.020482264 2.14686922,-0.0264731386 2.05380929,0.0663854173 L0.066529385,2.05236034 C-0.02653055,2.14222346 -0.0205266832,2.2979862 0.0755351852,2.39384019 L0.339705323,2.65743867 C0.435767192,2.75329266 0.588865795,2.75928354 0.68192573,2.66642498 L2.66920563,0.680450061 C2.75926363,0.590586942 2.7562617,0.437819641 2.6571979,0.33897021 L2.66019983,0.33897021 Z"></path>
                                <path d="M3.79192872,1.46825007 L3.52775858,1.20465159 C3.43169671,1.10879759 3.27859811,1.10280672 3.18553818,1.19566527 L1.19825827,3.18164019 C1.10820027,3.27150331 1.1112022,3.42427062 1.21026601,3.52312005 L1.47443614,3.78671853 C1.57049801,3.88257252 1.72359662,3.88856339 1.81665655,3.79570484 L3.80393645,1.80972992 C3.89399446,1.71687136 3.89099252,1.5670995 3.79192872,1.46825007 Z"></path>
                                <path d="M4.92365761,2.59752992 L4.65948747,2.33393144 C4.5634256,2.23807745 4.410327,2.23208658 4.31726706,2.32494513 L2.32998716,4.31092005 C2.23692722,4.40078317 2.24293109,4.55654591 2.34199489,4.6523999 L2.60616503,4.91599838 C2.7022269,5.01185238 2.8553255,5.01784325 2.94838544,4.9249847 L4.93566534,2.93900977 C5.02572334,2.84914666 5.02272141,2.69637935 4.92365761,2.59752992 Z"></path>
                                <path d="M6.05238456,3.72381434 L5.78821442,3.46021586 C5.68915062,3.36436187 5.53905395,3.35837099 5.44599402,3.45122955 L3.45871411,5.43720447 C3.36865611,5.53006303 3.37165805,5.68283033 3.47072185,5.77868432 L3.73489199,6.0422828 C3.83095385,6.1381368 3.98405246,6.14412767 4.07711239,6.05126911 L6.0643923,4.06529419 C6.15745223,3.97243564 6.15144836,3.81966834 6.0553865,3.72381434 L6.05238456,3.72381434 Z"></path>
                                <path d="M7.18411345,4.8530942 L6.91994331,4.58949572 C6.82388144,4.49364173 6.67078284,4.48765085 6.5777229,4.58050941 L4.590443,6.56648433 C4.500385,6.65934288 4.50338693,6.81211019 4.60245074,6.90796418 L4.86662087,7.17156266 C4.96268274,7.26741665 5.11578134,7.27340753 5.20884128,7.18054897 L7.19612118,5.19457405 C7.28617918,5.1017155 7.28317725,4.95194363 7.18411345,4.8530942 Z"></path>
                                <path d="M8.31584234,5.97937862 L8.0516722,5.71578014 C7.9526084,5.61992615 7.79950979,5.61393527 7.70945179,5.70679383 L5.72217189,7.69276875 C5.62911195,7.7856273 5.63511582,7.93839461 5.73417962,8.0342486 L5.99834976,8.29784708 C6.09441163,8.39370107 6.24751023,8.39969195 6.34057017,8.30683339 L8.32785007,6.32085847 C8.41790807,6.22799991 8.41490614,6.07523261 8.31584234,5.97937862 Z"></path>
                                <path d="M9.44757122,7.10865848 L9.18340109,6.84506 C9.08733922,6.749206 8.93424061,6.74321513 8.84118068,6.83607368 L6.85390078,8.8220486 C6.76384277,8.91490716 6.76684471,9.06767446 6.86590851,9.16352846 L7.13007865,9.42712694 C7.22614052,9.52298093 7.37923912,9.5289718 7.47229905,9.43611325 L9.45957896,7.45013833 C9.54963696,7.35727977 9.54663503,7.20750791 9.45057316,7.10865848 L9.44757122,7.10865848 Z"></path>
                                <path d="M10.5793001,8.2349429 L10.31513,7.97134442 C10.2190681,7.87549042 10.0659695,7.86949955 9.97290957,7.9623581 L7.98562966,9.94833302 C7.89256973,10.0411916 7.8985736,10.1909634 7.99463546,10.2898129 L8.2588056,10.5534114 C8.35486747,10.6492653 8.50796607,10.6552562 8.60102601,10.5623977 L10.5883059,8.57642275 C10.6783639,8.48356419 10.675362,8.33079689 10.5762982,8.2349429 L10.5793001,8.2349429 Z"></path>
                                <path d="M11.711029,9.36422275 L11.4468589,9.10062427 C11.350797,9.00477028 11.1976984,8.9987794 11.1046385,9.09163796 L9.11735855,11.0776129 C9.02730055,11.1704714 9.03030248,11.3232387 9.12936628,11.4190927 L9.39353642,11.6826912 C9.49260022,11.7785452 9.64269689,11.7845361 9.73575683,11.6916775 L11.7230367,9.7057026 C11.8160967,9.61284405 11.8100928,9.46007675 11.711029,9.36422275 Z"></path>
                                <path d="M12.8427579,10.4905072 L12.5785877,10.2269087 C12.4825259,10.1310547 12.3294273,10.1250638 12.2363673,10.2179224 L10.2490874,12.2038973 C10.1590294,12.2967559 10.1620314,12.4465277 10.2580932,12.5453772 L10.5222634,12.8089756 C10.6183252,12.9048296 10.7714238,12.9108205 10.8644838,12.8179619 L12.8517637,10.831987 C12.9418217,10.7391285 12.9388198,10.5863612 12.839756,10.4905072 L12.8427579,10.4905072 Z"></path>
                                <path d="M13.9714848,11.619787 L13.7073147,11.3561885 C13.6112528,11.2603346 13.4581542,11.2543437 13.3650943,11.3472022 L11.3778144,13.3331772 C11.2877564,13.4260357 11.2907583,13.578803 11.3898221,13.674657 L11.6539923,13.9382555 C11.7530561,14.0341095 11.9061547,14.0401004 11.9962127,13.9472418 L13.9834926,11.9612669 C14.0735506,11.8684083 14.0705486,11.7186365 13.9714848,11.619787 Z"></path>
                                <path d="M15.1032137,12.7490669 L14.8390436,12.4854684 C14.7429817,12.3896144 14.5898831,12.3836235 14.4968232,12.4764821 L12.5095433,14.462457 C12.4194853,14.5523201 12.4224872,14.7050874 12.521551,14.8039369 L12.7857212,15.0675353 C12.881783,15.1633893 13.0348816,15.1693802 13.1279416,15.0765217 L15.1152215,13.0905467 C15.2052795,12.9976882 15.2022775,12.8449209 15.1032137,12.7490669 Z"></path>
                            </g>
                        </g>
                        <g transform="translate(41.491851, 8.677616)">
                            <path d="M3.89362924,0.34089662 L0.00912743357,18.9126078 C0.000121633402,18.9545439 -0.00288029999,18.99648 0.00312356679,19.0384162 L0.33333624,22.6119728 C0.372361374,23.0283386 0.924717117,23.1481561 1.13185052,22.7857082 L2.94501829,19.6105447 C2.96603182,19.571604 2.98404342,19.5296679 2.99304922,19.4847363 L6.88655683,0.865098145 C6.93758969,0.628458599 6.77848722,0.394814491 6.53533062,0.355873806 L4.38294438,0.00540764363 C4.15779938,-0.0305376038 3.94166017,0.116238823 3.89362924,0.34089662 Z" fill="#9E223E"></path>
                            <path d="M2.98704535,19.5057044 L2.97803955,19.5506359 L1.22791239,22.6119728 L0.318326573,22.4442284 L0.00612550018,19.0563888 C0.945730651,19.1432565 2.0384344,19.1792017 2.99004729,19.5027089 L2.98704535,19.5057044 Z" fill="#F7CC7F"></path>
                        </g>
                    </g>
                    <g transform="translate(173.583971, 24.693219)" id="Path">
                        <path d="M11.3797613,3.06991664 C13.195931,4.51671285 16.353965,9.16862695 20.3825596,12.4336536 C22.7390773,14.3447426 24.555247,13.8594817 27.5631842,14.2219297 C41.8403794,15.9443061 37.9708873,18.8558711 39.6819893,19.1404377 C39.1956761,20.2577358 34.7468108,29.6903678 33.9182772,31.5984613 C33.1527842,33.356783 31.8259296,34.144583 29.9046923,33.8779891 C26.9537918,33.4706097 23.9728719,33.1680705 21.0670004,32.5390287 C13.6162017,30.9274834 9.47053171,27.2071503 4.13009221,22.6930263 C2.71317965,21.4948514 2.36495537,20.0001282 3.10042906,18.3077061 C6.51963118,10.4267106 11.0075216,3.79481246 11.3767594,3.06991664 L11.3797613,3.06991664 Z" fill="#EAC6BB"></path>
                        <path d="M41.230987,30.4901496 C41.1679464,33.5934226 41.4050991,34.2164735 40.0692387,33.7461899 C39.2647206,33.4616233 38.4842179,33.0931846 37.7277307,32.7007823 C37.1903846,32.425202 37.172373,32.0597587 37.6076534,31.6254203 C38.2410613,30.9903876 38.8924808,30.3733275 39.5258888,29.7562674 C39.0605891,28.5401199 39.5919313,27.123278 40.7356679,26.4552955 C40.9698188,26.3205009 40.7987085,26.6080628 42.7859885,22.0430164 C36.2117543,21.2342483 31.5737672,20.6890788 23.5526012,19.7065753 C21.4092208,19.4429768 19.5,18.6102453 17.8429239,17.2263533 C12.115235,12.4426399 6.38454418,7.65892656 0.65985721,2.87221778 C-0.117643537,2.22220788 -0.213705406,1.26965883 0.401690939,0.53877213 C0.872994481,-0.0213746425 1.49739663,-0.0483335781 2.1698297,0.0355386659 C4.00100907,0.2631919 21.9495688,2.4888018 23.7717424,2.70147785 C26.1672852,2.98005352 28.2746425,3.88168014 30.1268354,5.42732578 C35.7554605,10.1301623 41.3990952,14.8150262 47.0337242,19.5118719 C47.808223,20.1558909 48.0153564,20.7459921 47.7451824,21.464897 C47.447991,22.252697 46.7935695,22.6271267 45.8089354,22.4144506 C45.0974772,22.2616833 44.7822742,22.4743594 44.5391175,23.1333556 C43.4344061,26.1018339 42.6629092,26.7608301 42.9300813,27.8451784 C43.1372147,28.6809054 42.1405728,30.1306971 41.2369908,30.493145 L41.230987,30.4901496 Z" fill="#FFE4DD"></path>
                    </g>
                </g>
            </g>
        </g>
    </g>
</svg>