<svg width="82" height="36" viewBox="0 0 82 36" fill="none" xmlns="http://www.w3.org/2000/svg">
<g clip-path="url(#clip0_308_367)">
<path d="M41.5601 16.7472C37.0717 16.7472 33.4331 13.0896 33.4331 8.57766C33.4331 4.06572 37.0717 0.408081 41.5601 0.408081C46.0485 0.408081 49.687 4.06572 49.687 8.57766C49.687 13.0896 46.0485 16.7472 41.5601 16.7472Z" stroke="white" stroke-width="2" stroke-linecap="round" stroke-linejoin="round"/>
<path d="M22.9437 35.5919C22.9437 25.5656 31.026 17.4409 40.9999 17.4409C50.9739 17.4409 59.0562 25.5656 59.0562 35.5919H22.9437Z" stroke="white" stroke-width="2" stroke-linecap="round" stroke-linejoin="round"/>
<path d="M19.0225 16.7472C14.5341 16.7472 10.8956 13.0896 10.8956 8.57766C10.8956 4.06572 14.5341 0.408081 19.0225 0.408081C23.5109 0.408081 27.1494 4.06572 27.1494 8.57766C27.1494 13.0896 23.5109 16.7472 19.0225 16.7472Z" stroke="white" stroke-width="2" stroke-linecap="round" stroke-linejoin="round"/>
<path d="M0.405831 35.5919C0.405831 25.5656 8.48811 17.4409 18.4621 17.4409C28.436 17.4409 36.5183 25.5656 36.5183 35.5919H0.405831Z" stroke="white" stroke-width="2" stroke-linecap="round" stroke-linejoin="round"/>
<path d="M64.0979 16.7472C59.6095 16.7472 55.971 13.0896 55.971 8.57766C55.971 4.06572 59.6095 0.408081 64.0979 0.408081C68.5863 0.408081 72.2249 4.06572 72.2249 8.57766C72.2249 13.0896 68.5863 16.7472 64.0979 16.7472Z" stroke="white" stroke-width="2" stroke-linecap="round" stroke-linejoin="round"/>
<path d="M45.4815 35.5919C45.4815 25.5656 53.5638 17.4409 63.5378 17.4409C73.5117 17.4409 81.594 25.5697 81.594 35.5919H45.4815Z" stroke="white" stroke-width="2" stroke-linecap="round" stroke-linejoin="round"/>
</g>
<defs>
<clipPath id="clip0_308_367">
<rect width="82" height="36" fill="white" transform="matrix(-1 0 0 1 82 0)"/>
</clipPath>
</defs>
</svg>
