<svg width="52" height="62" viewBox="0 0 52 62" fill="none" xmlns="http://www.w3.org/2000/svg">
<g clip-path="url(#clip0_311_1130)">
<path d="M34.4124 36.902V58.7693C34.4124 60.3155 33.148 61.5681 31.5872 61.5681H3.26122C1.70039 61.5681 0.436035 60.3155 0.436035 58.7693V3.23063C0.436035 1.68441 1.70039 0.431885 3.26122 0.431885H31.5828C33.1437 0.431885 34.408 1.68441 34.408 3.23063V8.31847" stroke="white" stroke-width="2" stroke-linecap="round" stroke-linejoin="round"/>
<path d="M30.9158 35.8999V51.319C30.9158 51.5004 30.7675 51.6472 30.5844 51.6472H4.26397C4.08085 51.6472 3.93262 51.5004 3.93262 51.319V5.0835C3.93262 4.9021 4.08085 4.75525 4.26397 4.75525H30.5844C30.7675 4.75525 30.9158 4.9021 30.9158 5.0835V9.10885" stroke="white" stroke-width="2" stroke-linecap="round" stroke-linejoin="round"/>
<path d="M17.4221 57.9401C18.3732 57.9401 19.1442 57.1763 19.1442 56.2341C19.1442 55.2919 18.3732 54.5281 17.4221 54.5281C16.471 54.5281 15.7 55.2919 15.7 56.2341C15.7 57.1763 16.471 57.9401 17.4221 57.9401Z" stroke="white" stroke-width="2" stroke-linecap="round" stroke-linejoin="round"/>
<path d="M36.9541 37.0186C45.0229 37.0186 51.564 30.5387 51.564 22.5454C51.564 14.5521 45.0229 8.07227 36.9541 8.07227C28.8853 8.07227 22.3442 14.5521 22.3442 22.5454C22.3442 30.5387 28.8853 37.0186 36.9541 37.0186Z" stroke="white" stroke-width="2" stroke-linecap="round" stroke-linejoin="round"/>
<path d="M36.7273 21.1245C38.5573 21.1245 40.0408 19.6549 40.0408 17.8421C40.0408 16.0292 38.5573 14.5596 36.7273 14.5596C34.8973 14.5596 33.4138 16.0292 33.4138 17.8421C33.4138 19.6549 34.8973 21.1245 36.7273 21.1245Z" stroke="white" stroke-width="2" stroke-linecap="round" stroke-linejoin="round"/>
<path d="M44.3223 28.7045C44.3223 24.6748 41.0262 21.4053 36.9541 21.4053C32.882 21.4053 29.5859 24.6705 29.5859 28.7045H44.3179H44.3223Z" stroke="white" stroke-width="2" stroke-linecap="round" stroke-linejoin="round"/>
<path d="M17.1387 29.4559V41.9769" stroke="white" stroke-width="2" stroke-linecap="round" stroke-linejoin="round"/>
<path d="M23.4561 35.7142H10.8169" stroke="white" stroke-width="2" stroke-linecap="round" stroke-linejoin="round"/>
</g>
<defs>
<clipPath id="clip0_311_1130">
<rect width="52" height="62" fill="white"/>
</clipPath>
</defs>
</svg>
