<svg width="67" height="80" viewBox="0 0 67 80" fill="none" xmlns="http://www.w3.org/2000/svg">
<g clip-path="url(#clip0_308_495)">
<path d="M44.339 47.6155V75.8314C44.339 77.8266 42.7099 79.4427 40.6988 79.4427H4.20191C2.19084 79.4427 0.561768 77.8266 0.561768 75.8314V4.1686C0.561768 2.17347 2.19084 0.557312 4.20191 0.557312H40.6932C42.7043 0.557312 44.3334 2.17347 44.3334 4.1686V10.7336" stroke="white" stroke-width="2" stroke-linecap="round" stroke-linejoin="round"/>
<path d="M39.8336 46.3226V66.2181C39.8336 66.4521 39.6426 66.6416 39.4067 66.6416H5.49382C5.25789 66.6416 5.06689 66.4521 5.06689 66.2181V6.55941C5.06689 6.32535 5.25789 6.13586 5.49382 6.13586H39.4067C39.6426 6.13586 39.8336 6.32535 39.8336 6.55941V11.7534" stroke="white" stroke-width="2" stroke-linecap="round" stroke-linejoin="round"/>
<path d="M22.4477 74.7614C23.6731 74.7614 24.6666 73.7758 24.6666 72.5601C24.6666 71.3443 23.6731 70.3588 22.4477 70.3588C21.2222 70.3588 20.2288 71.3443 20.2288 72.5601C20.2288 73.7758 21.2222 74.7614 22.4477 74.7614Z" stroke="white" stroke-width="2" stroke-linecap="round" stroke-linejoin="round"/>
<path d="M47.6141 47.7659C58.0104 47.7659 66.4383 39.4049 66.4383 29.0909C66.4383 18.777 58.0104 10.4159 47.6141 10.4159C37.2177 10.4159 28.7898 18.777 28.7898 29.0909C28.7898 39.4049 37.2177 47.7659 47.6141 47.7659Z" stroke="white" stroke-width="2" stroke-linecap="round" stroke-linejoin="round"/>
<path d="M47.3218 27.2574C49.6797 27.2574 51.5911 25.3611 51.5911 23.022C51.5911 20.6828 49.6797 18.7865 47.3218 18.7865C44.9639 18.7865 43.0525 20.6828 43.0525 23.022C43.0525 25.3611 44.9639 27.2574 47.3218 27.2574Z" stroke="white" stroke-width="2" stroke-linecap="round" stroke-linejoin="round"/>
<path d="M57.1075 37.0379C57.1075 31.8384 52.8607 27.6196 47.6139 27.6196C42.3672 27.6196 38.1204 31.8328 38.1204 37.0379H57.1019H57.1075Z" stroke="white" stroke-width="2" stroke-linecap="round" stroke-linejoin="round"/>
<path d="M22.0825 38.0077V54.1637" stroke="white" stroke-width="2" stroke-linecap="round" stroke-linejoin="round"/>
<path d="M30.2222 46.0829H13.937" stroke="white" stroke-width="2" stroke-linecap="round" stroke-linejoin="round"/>
</g>
<defs>
<clipPath id="clip0_308_495">
<rect width="67" height="80" fill="white"/>
</clipPath>
</defs>
</svg>
