<svg width="80" height="60" viewBox="0 0 80 60" fill="none" xmlns="http://www.w3.org/2000/svg">
<g clip-path="url(#clip0_308_504)">
<path d="M41.342 8.09015C38.0446 11.9361 36.0476 16.9475 36.0476 22.436C36.0476 32.159 42.3112 40.3967 50.9809 43.2787" stroke="white" stroke-width="2" stroke-linecap="round" stroke-linejoin="round"/>
<path d="M36.0475 22.4361C36.0475 16.9525 38.0444 11.941 41.3419 8.09018C37.2408 5.5033 32.3994 4.0033 27.2024 4.0033C12.4493 4.0033 0.487061 16.082 0.487061 30.9787C0.487061 36.9394 2.40609 42.4426 5.64505 46.9082L5.05571 48.6099L1.28097 59.5082L10.4962 52.6771L10.9199 52.3623C15.4301 55.8689 21.0703 57.959 27.2024 57.959C37.572 57.959 46.5534 51.9935 50.9808 43.2787C42.3062 40.3967 36.0475 32.159 36.0475 22.4361Z" stroke="white" stroke-width="2" stroke-linecap="round" stroke-linejoin="round"/>
<path d="M50.9856 43.2787C53.1238 43.9918 55.4082 44.3803 57.7802 44.3803C62.7677 44.3803 67.3558 42.6787 71.0234 39.8311L71.3643 40.0869L78.8602 45.6442L75.7917 36.7819L75.3144 35.4C77.9494 31.7705 79.5129 27.2901 79.5129 22.441C79.5129 10.3229 69.7814 0.496704 57.7802 0.496704C51.2097 0.496704 45.326 3.44261 41.3418 8.09506" stroke="white" stroke-width="2" stroke-linecap="round" stroke-linejoin="round"/>
</g>
<defs>
<clipPath id="clip0_308_504">
<rect width="80" height="60" fill="white"/>
</clipPath>
</defs>
</svg>
