<svg width="86" height="83" viewBox="0 0 86 83" fill="none" xmlns="http://www.w3.org/2000/svg">
<g clip-path="url(#clip0_308_307)">
<path d="M14.0596 39.323L22.0993 47.4529" stroke="white" stroke-width="2" stroke-linecap="round" stroke-linejoin="round"/>
<path d="M22.0993 39.323L14.0596 47.4529" stroke="white" stroke-width="2" stroke-linecap="round" stroke-linejoin="round"/>
<path d="M29.2571 39.323L37.2969 47.4529" stroke="white" stroke-width="2" stroke-linecap="round" stroke-linejoin="round"/>
<path d="M37.2969 39.323L29.2571 47.4529" stroke="white" stroke-width="2" stroke-linecap="round" stroke-linejoin="round"/>
<path d="M44.4543 39.323L52.4941 47.4529" stroke="white" stroke-width="2" stroke-linecap="round" stroke-linejoin="round"/>
<path d="M52.4941 39.323L44.4543 47.4529" stroke="white" stroke-width="2" stroke-linecap="round" stroke-linejoin="round"/>
<path d="M59.6519 39.323L67.6916 47.4529" stroke="white" stroke-width="2" stroke-linecap="round" stroke-linejoin="round"/>
<path d="M67.6916 39.323L59.6519 47.4529" stroke="white" stroke-width="2" stroke-linecap="round" stroke-linejoin="round"/>
<path d="M15.1302 9.7627H8.04659C3.99977 9.7627 0.727295 13.0759 0.727295 17.1579V74.9177C0.727295 79.0065 4.0065 82.3129 8.04659 82.3129H78.0074C82.0543 82.3129 85.3267 78.9997 85.3267 74.9177V17.1647C85.3267 13.0759 82.0475 9.7695 78.0074 9.7695H70.8565" stroke="white" stroke-width="2" stroke-linecap="round" stroke-linejoin="round"/>
<path d="M21.9376 13.8991V16.9946C21.9376 18.7975 20.4899 20.2602 18.7055 20.2602C16.9212 20.2602 15.4735 18.7975 15.4735 16.9946V13.8991C13.7295 14.9944 12.5579 16.9402 12.5579 19.1716C12.5579 22.6005 15.3051 25.3762 18.6988 25.3762C22.0925 25.3762 24.8397 22.6005 24.8397 19.1716C24.8397 16.9402 23.6748 14.9944 21.9241 13.8991H21.9376Z" stroke="white" stroke-width="2" stroke-linecap="round" stroke-linejoin="round"/>
<path d="M21.9378 13.8991V3.9459C21.9378 2.14303 20.4901 0.680328 18.7057 0.680328C16.9213 0.680328 15.4736 2.14303 15.4736 3.9459V13.8991" stroke="white" stroke-width="2" stroke-linecap="round" stroke-linejoin="round"/>
<path d="M15.4802 13.8991V16.9946C15.4802 18.7975 16.9279 20.2602 18.7123 20.2602C20.4967 20.2602 21.9444 18.7975 21.9444 16.9946V13.8991" stroke="white" stroke-width="2" stroke-linecap="round" stroke-linejoin="round"/>
<path d="M46.2589 13.8991V16.9946C46.2589 18.7975 44.8112 20.2602 43.0268 20.2602C41.2424 20.2602 39.7947 18.7975 39.7947 16.9946V13.8991C38.0508 14.9944 36.8792 16.9402 36.8792 19.1716C36.8792 22.6005 39.6264 25.3762 43.0201 25.3762C46.4138 25.3762 49.161 22.6005 49.161 19.1716C49.161 16.9402 47.9961 14.9944 46.2454 13.8991H46.2589Z" stroke="white" stroke-width="2" stroke-linecap="round" stroke-linejoin="round"/>
<path d="M46.2591 13.8991V3.9459C46.2591 2.14303 44.8114 0.680328 43.027 0.680328C41.2426 0.680328 39.7949 2.14303 39.7949 3.9459V13.8991" stroke="white" stroke-width="2" stroke-linecap="round" stroke-linejoin="round"/>
<path d="M39.7949 13.8991V16.9946C39.7949 18.7975 41.2426 20.2602 43.027 20.2602C44.8114 20.2602 46.2591 18.7975 46.2591 16.9946V13.8991" stroke="white" stroke-width="2" stroke-linecap="round" stroke-linejoin="round"/>
<path d="M70.5736 13.8991V16.9946C70.5736 18.7975 69.1259 20.2602 67.3415 20.2602C65.5571 20.2602 64.1094 18.7975 64.1094 16.9946V13.8991C62.3655 14.9944 61.1938 16.9402 61.1938 19.1716C61.1938 22.6005 63.9411 25.3762 67.3348 25.3762C70.7285 25.3762 73.4757 22.6005 73.4757 19.1716C73.4757 16.9402 72.3108 14.9944 70.5601 13.8991H70.5736Z" stroke="white" stroke-width="2" stroke-linecap="round" stroke-linejoin="round"/>
<path d="M70.5735 13.8991V3.9459C70.5735 2.14303 69.1258 0.680328 67.3414 0.680328C65.5571 0.680328 64.1094 2.14303 64.1094 3.9459V13.8991" stroke="white" stroke-width="2" stroke-linecap="round" stroke-linejoin="round"/>
<path d="M64.1162 13.8991V16.9946C64.1162 18.7975 65.5639 20.2602 67.3483 20.2602C69.1326 20.2602 70.5803 18.7975 70.5803 16.9946V13.8991" stroke="white" stroke-width="2" stroke-linecap="round" stroke-linejoin="round"/>
<path d="M0.67334 30.4923H85.1718" stroke="white" stroke-width="2" stroke-linecap="round" stroke-linejoin="round"/>
<path d="M21.8435 9.64026H39.3236" stroke="white" stroke-width="2" stroke-linecap="round" stroke-linejoin="round"/>
<path d="M47.0469 9.64026H63.7661" stroke="white" stroke-width="2" stroke-linecap="round" stroke-linejoin="round"/>
</g>
<defs>
<clipPath id="clip0_308_307">
<rect width="86" height="83" fill="white"/>
</clipPath>
</defs>
</svg>
