<svg width="67" height="69" viewBox="0 0 67 69" fill="none" xmlns="http://www.w3.org/2000/svg">
<g clip-path="url(#clip0_308_287)">
<path d="M42.2727 19.8147C52.5583 26.2457 61.9555 29.7652 63.262 27.6757C64.5684 25.5862 57.2893 18.679 47.0037 12.248C36.718 5.81703 27.3208 2.29756 26.0144 4.38705C24.708 6.47653 31.987 13.3837 42.2727 19.8147Z" stroke="white" stroke-width="2" stroke-linecap="round" stroke-linejoin="round"/>
<path d="M27.9689 8.98698L20.2534 25.8714C18.7707 29.1151 19.2205 32.9235 21.4215 35.7671L23.6032 38.5832C24.1166 39.2492 24.2978 40.1142 24.0833 40.9224C24.0195 41.1657 23.9212 41.3978 23.793 41.6111C22.9804 42.9773 19.7701 48.3693 17.5895 52.0314C16.7204 53.4962 17.1881 55.39 18.6446 56.3006C20.0749 57.1949 21.9479 56.8161 22.8993 55.444L29.9259 45.8009C30.278 45.3208 30.7782 44.9693 31.3481 44.8056L31.616 44.726C32.0399 44.6048 32.4878 44.5862 32.9236 44.6784L37.0562 45.5374C40.5765 46.2709 44.1973 45.0077 46.4642 42.2543L58.2652 27.9243" stroke="white" stroke-width="2" stroke-linecap="round" stroke-linejoin="round"/>
<path d="M20.2708 51.4319L22.5562 52.8608" stroke="white" stroke-width="2" stroke-linecap="round" stroke-linejoin="round"/>
<path d="M21.7473 49.07L24.0328 50.499" stroke="white" stroke-width="2" stroke-linecap="round" stroke-linejoin="round"/>
<path d="M23.2266 46.7045L25.5121 48.1335" stroke="white" stroke-width="2" stroke-linecap="round" stroke-linejoin="round"/>
</g>
<defs>
<clipPath id="clip0_308_287">
<rect width="44.8097" height="53.2644" fill="white" transform="translate(28.2378) rotate(32.0152)"/>
</clipPath>
</defs>
</svg>
