<svg width="36" height="36" viewBox="0 0 36 36" fill="none" xmlns="http://www.w3.org/2000/svg">
<circle cx="18" cy="18" r="18" transform="matrix(1 0 0 -1 0 36)" fill="#986ECA"/>
<g clip-path="url(#clip0_311_866)">
<path d="M18 15.0184L11.196 21.6326C10.9513 21.8487 10.6303 21.9649 10.2998 21.9572C9.96922 21.9495 9.6544 21.8184 9.42059 21.5912C9.18679 21.3639 9.05194 21.0578 9.04401 20.7365C9.03608 20.4152 9.15568 20.1032 9.37801 19.8653L17.1 12.3762C17.3405 12.1475 17.6636 12.0194 18 12.0194C18.3365 12.0194 18.6595 12.1475 18.9 12.3762L26.622 19.8653C26.8443 20.1032 26.9639 20.4152 26.956 20.7365C26.9481 21.0578 26.8132 21.3639 26.5794 21.5912C26.3456 21.8184 26.0308 21.9495 25.7002 21.9572C25.3697 21.9649 25.0488 21.8487 24.804 21.6326L18 15.0184Z" fill="white"/>
</g>
<defs>
<clipPath id="clip0_311_866">
<rect width="18" height="10" fill="white" transform="matrix(1 0 0 -1 9 22)"/>
</clipPath>
</defs>
</svg>
