<svg width="82" height="78" viewBox="0 0 82 78" fill="none" xmlns="http://www.w3.org/2000/svg">
<g clip-path="url(#clip0_308_477)">
<path d="M14.4264 9.17456H7.67222C3.81362 9.17456 0.693359 12.2882 0.693359 16.1242V70.4046C0.693359 74.247 3.82004 77.3542 7.67222 77.3542H74.3791C78.2377 77.3542 81.3579 74.2406 81.3579 70.4046V16.1306C81.3579 12.2882 78.2313 9.18095 74.3791 9.18095H67.5607" stroke="white" stroke-width="2" stroke-linecap="round" stroke-linejoin="round"/>
<path d="M20.9173 13.0618V15.9708C20.9173 17.6651 19.537 19.0397 17.8356 19.0397C16.1342 19.0397 14.7539 17.6651 14.7539 15.9708V13.0618C13.091 14.0912 11.9739 15.9197 11.9739 18.0167C11.9739 21.239 14.5934 23.8476 17.8292 23.8476C21.065 23.8476 23.6845 21.239 23.6845 18.0167C23.6845 15.9197 22.5738 14.0912 20.9045 13.0618H20.9173Z" stroke="white" stroke-width="2" stroke-linecap="round" stroke-linejoin="round"/>
<path d="M20.9174 13.0618V3.7082C20.9174 2.01393 19.537 0.639343 17.8356 0.639343C16.1343 0.639343 14.7539 2.01393 14.7539 3.7082V13.0618" stroke="white" stroke-width="2" stroke-linecap="round" stroke-linejoin="round"/>
<path d="M14.7603 13.0618V15.9708C14.7603 17.6651 16.1406 19.0397 17.842 19.0397C19.5434 19.0397 20.9237 17.6651 20.9237 15.9708V13.0618" stroke="white" stroke-width="2" stroke-linecap="round" stroke-linejoin="round"/>
<path d="M44.1075 13.0618V15.9708C44.1075 17.6651 42.7272 19.0397 41.0258 19.0397C39.3244 19.0397 37.944 17.6651 37.944 15.9708V13.0618C36.2812 14.0912 35.1641 15.9197 35.1641 18.0167C35.1641 21.239 37.7835 23.8476 41.0194 23.8476C44.2552 23.8476 46.8747 21.239 46.8747 18.0167C46.8747 15.9197 45.764 14.0912 44.0947 13.0618H44.1075Z" stroke="white" stroke-width="2" stroke-linecap="round" stroke-linejoin="round"/>
<path d="M44.1073 13.0618V3.7082C44.1073 2.01393 42.727 0.639343 41.0256 0.639343C39.3242 0.639343 37.9438 2.01393 37.9438 3.7082V13.0618" stroke="white" stroke-width="2" stroke-linecap="round" stroke-linejoin="round"/>
<path d="M37.9438 13.0618V15.9708C37.9438 17.6651 39.3242 19.0397 41.0256 19.0397C42.727 19.0397 44.1073 17.6651 44.1073 15.9708V13.0618" stroke="white" stroke-width="2" stroke-linecap="round" stroke-linejoin="round"/>
<path d="M67.2911 13.0618V15.9708C67.2911 17.6651 65.9108 19.0397 64.2094 19.0397C62.508 19.0397 61.1276 17.6651 61.1276 15.9708V13.0618C59.4648 14.0912 58.3477 15.9197 58.3477 18.0167C58.3477 21.239 60.9671 23.8476 64.203 23.8476C67.4388 23.8476 70.0583 21.239 70.0583 18.0167C70.0583 15.9197 68.9476 14.0912 67.2783 13.0618H67.2911Z" stroke="white" stroke-width="2" stroke-linecap="round" stroke-linejoin="round"/>
<path d="M67.2912 13.0618V3.7082C67.2912 2.01393 65.9108 0.639343 64.2094 0.639343C62.5081 0.639343 61.1277 2.01393 61.1277 3.7082V13.0618" stroke="white" stroke-width="2" stroke-linecap="round" stroke-linejoin="round"/>
<path d="M61.134 13.0618V15.9708C61.134 17.6651 62.5144 19.0397 64.2158 19.0397C65.9171 19.0397 67.2975 17.6651 67.2975 15.9708V13.0618" stroke="white" stroke-width="2" stroke-linecap="round" stroke-linejoin="round"/>
<path d="M0.64209 28.6554H81.2104" stroke="white" stroke-width="2" stroke-linecap="round" stroke-linejoin="round"/>
<path d="M20.8274 9.05951H37.4945" stroke="white" stroke-width="2" stroke-linecap="round" stroke-linejoin="round"/>
<path d="M44.8586 9.05951H60.8002" stroke="white" stroke-width="2" stroke-linecap="round" stroke-linejoin="round"/>
<path d="M19.3252 51.4033L24.333 56.3902L33.8479 46.5826" stroke="white" stroke-width="2" stroke-linecap="round" stroke-linejoin="round"/>
<path d="M35.6391 37.0436H17.5338C14.5234 37.0436 12.083 39.4738 12.083 42.4716V60.5011C12.083 63.4989 14.5234 65.9292 17.5338 65.9292H35.6391C38.6495 65.9292 41.0899 63.4989 41.0899 60.5011V42.4716C41.0899 39.4738 38.6495 37.0436 35.6391 37.0436Z" stroke="white" stroke-width="2" stroke-linecap="round" stroke-linejoin="round"/>
<path d="M69.4483 57.4579C69.4483 62.0675 65.2751 65.8077 59.3363 65.8077C53.3976 65.8077 49.2244 62.0675 49.2244 57.4579C49.2244 52.8482 59.3363 37.0244 59.3363 36.8071C59.3363 36.6536 69.4483 52.8482 69.4483 57.4579Z" stroke="white" stroke-width="2" stroke-linecap="round" stroke-linejoin="round"/>
</g>
<defs>
<clipPath id="clip0_308_477">
<rect width="82" height="78" fill="white"/>
</clipPath>
</defs>
</svg>
