<svg width="75" height="62" viewBox="0 0 75 62" fill="none" xmlns="http://www.w3.org/2000/svg">
<g clip-path="url(#clip0_311_976)">
<path d="M10.6801 56.7887V46.8897C10.6801 46.8897 4.03315 41.3524 3.83641 33.96L0.801001 21.5685C0.168624 19.3593 2.71219 17.6599 4.4969 19.0761C5.93029 20.1948 7.50421 22.3899 8.97975 26.511V9.27615C8.97975 7.90247 10.0899 6.78369 11.4531 6.78369C12.8162 6.78369 13.9264 7.90247 13.9264 9.27615V23.7069" stroke="white" stroke-width="2" stroke-linecap="round" stroke-linejoin="round"/>
<path d="M13.814 8.56771C13.814 7.20819 15.149 5.56543 16.6948 5.56543H17.0742C18.6341 5.56543 19.8988 6.67004 19.8988 8.02957V25.6892" stroke="white" stroke-width="2" stroke-linecap="round" stroke-linejoin="round"/>
<path d="M19.9691 8.63844C19.9691 7.34972 21.1355 6.31592 22.5689 6.31592H22.9202C24.3536 6.31592 25.52 7.36389 25.52 8.63844V21.6389" stroke="white" stroke-width="2" stroke-linecap="round" stroke-linejoin="round"/>
<path d="M25.5199 14.1619C25.5199 12.8732 26.5317 11.8394 27.7824 11.8394H28.0916C29.3423 11.8394 30.3541 12.8873 30.3541 14.1619V21.2286" stroke="white" stroke-width="2" stroke-linecap="round" stroke-linejoin="round"/>
<path d="M30.4103 26.4258L29.4828 25.6893C27.9089 24.4431 25.6464 24.5989 24.2552 26.0575C22.7375 27.6437 22.8077 30.1928 24.4238 31.6939L30.607 36.9621" stroke="white" stroke-width="2" stroke-linecap="round" stroke-linejoin="round"/>
<path d="M30.4385 26.4258L31.366 25.6893C32.9399 24.4431 35.2024 24.5989 36.5936 26.0575C38.1113 27.6437 38.0411 30.1928 36.425 31.6939L30.832 36.8913" stroke="white" stroke-width="2" stroke-linecap="round" stroke-linejoin="round"/>
<path d="M10.0477 29.5698C10.0477 29.5698 14.1512 33.2377 14.0809 39.8371" stroke="white" stroke-width="2" stroke-linecap="round" stroke-linejoin="round"/>
<path d="M26.2507 56.8876V46.8894C26.2507 46.8894 29.8904 45.4874 30.7476 40.4316" stroke="white" stroke-width="2" stroke-linecap="round" stroke-linejoin="round"/>
<path d="M61.0455 61.193V51.294C61.0455 51.294 67.6925 45.7567 67.8893 38.3643L70.9247 25.9728C71.557 23.7636 69.0135 22.0642 67.2288 23.4804C65.7954 24.5991 64.2215 26.7942 62.7459 30.9153V13.6946C62.7459 12.3209 61.6357 11.2021 60.2726 11.2021C58.9095 11.2021 57.7993 12.3209 57.7993 13.6946V28.1254" stroke="white" stroke-width="2" stroke-linecap="round" stroke-linejoin="round"/>
<path d="M57.9118 12.972C57.9118 11.6125 56.5768 9.96973 55.031 9.96973H54.6515C53.0917 9.96973 51.8269 11.0743 51.8269 12.4339V30.0935" stroke="white" stroke-width="2" stroke-linecap="round" stroke-linejoin="round"/>
<path d="M51.7566 13.0286C51.7566 11.7399 50.5902 10.7061 49.1568 10.7061H48.8055C47.3721 10.7061 46.2057 11.754 46.2057 13.0286V26.029" stroke="white" stroke-width="2" stroke-linecap="round" stroke-linejoin="round"/>
<path d="M68.2265 2.02509L68.9994 1.41614C70.3204 0.368169 72.2175 0.495624 73.3839 1.72769C74.6627 3.0589 74.5924 5.19731 73.2434 6.45771L68.0438 10.8762" stroke="white" stroke-width="2" stroke-linecap="round" stroke-linejoin="round"/>
<path d="M68.1984 2.02509L67.4255 1.41614C66.1046 0.368169 64.2074 0.495624 63.041 1.72769C61.7622 3.0589 61.8325 5.19731 63.1816 6.45771L67.8752 10.8195" stroke="white" stroke-width="2" stroke-linecap="round" stroke-linejoin="round"/>
<path d="M61.6779 33.96C61.6779 33.96 57.5744 37.6278 57.6447 44.2272" stroke="white" stroke-width="2" stroke-linecap="round" stroke-linejoin="round"/>
<path d="M46.2057 18.5662C46.2057 17.2775 45.1939 16.2437 43.9432 16.2437H43.634C42.3833 16.2437 41.3715 17.2916 41.3715 18.5662L41.3012 25.7745L40.9218 38.7041C40.9218 38.7041 39.9522 47.3003 45.4609 51.2939V61.2921" stroke="white" stroke-width="2" stroke-linecap="round" stroke-linejoin="round"/>
</g>
<defs>
<clipPath id="clip0_311_976">
<rect width="75" height="62" fill="white"/>
</clipPath>
</defs>
</svg>
