<svg width="56" height="74" viewBox="0 0 56 74" fill="none" xmlns="http://www.w3.org/2000/svg">
<g clip-path="url(#clip0_308_420)">
<path d="M52.2966 0.577148H3.70344C1.98021 0.577148 0.583252 1.95965 0.583252 3.66505V70.3349C0.583252 72.0403 1.98021 73.4228 3.70344 73.4228H52.2966C54.0199 73.4228 55.4168 72.0403 55.4168 70.3349V3.66505C55.4168 1.95965 54.0199 0.577148 52.2966 0.577148Z" stroke="white" stroke-width="2" stroke-linecap="round" stroke-linejoin="round"/>
<path d="M0.583252 23.8836H55.4168" stroke="white" stroke-width="2" stroke-linecap="round" stroke-linejoin="round"/>
<path d="M1.00903 2.38373L55.2244 23.3468" stroke="white" stroke-width="2" stroke-linecap="round" stroke-linejoin="round"/>
<path d="M55.2244 2.38373L1.00903 23.3468" stroke="white" stroke-width="2" stroke-linecap="round" stroke-linejoin="round"/>
<path d="M7.5 30.4H31.3767" stroke="white" stroke-width="2" stroke-linecap="round" stroke-linejoin="round"/>
<path d="M7.5 45.5566H47.9166" stroke="white" stroke-width="2" stroke-linecap="round" stroke-linejoin="round"/>
<path d="M7.5 49.7931H47.9166" stroke="white" stroke-width="2" stroke-linecap="round" stroke-linejoin="round"/>
<path d="M7.5 54.0297H47.9166" stroke="white" stroke-width="2" stroke-linecap="round" stroke-linejoin="round"/>
<path d="M7.5 58.2661H47.9166" stroke="white" stroke-width="2" stroke-linecap="round" stroke-linejoin="round"/>
<path d="M7.5 62.5026H47.9166" stroke="white" stroke-width="2" stroke-linecap="round" stroke-linejoin="round"/>
<path d="M7.5 34.4749H20.4648" stroke="white" stroke-width="2" stroke-linecap="round" stroke-linejoin="round"/>
</g>
<defs>
<clipPath id="clip0_308_420">
<rect width="56" height="74" fill="white"/>
</clipPath>
</defs>
</svg>
