<svg width="78" height="75" viewBox="0 0 78 75" fill="none" xmlns="http://www.w3.org/2000/svg">
<g clip-path="url(#clip0_308_303)">
<path d="M13.355 51.346L20.329 44.1921L20.2972 39.4405C20.2812 36.8002 20.6968 34.1784 21.5295 31.673L25.2953 20.3436C25.6878 19.1562 26.8387 18.3877 28.089 18.4792L28.2237 18.4905C29.6232 18.5949 30.7165 19.7383 30.7596 21.1395L31.0101 29.8513C31.032 30.5152 31.8307 30.8357 32.3049 30.3703L42.2095 20.6139L48.7156 13.2389C49.6397 12.1952 51.1997 12.0125 52.3421 12.8122L52.4373 12.8816C53.7225 13.7854 53.9826 15.582 53.0045 16.8144L42.5151 30.0557C42.3014 30.3259 42.3394 30.7124 42.6008 30.9399L42.7549 31.0747C42.9961 31.2853 43.3567 31.2813 43.593 31.0724L58.9301 17.5919C60.0906 16.5709 61.8604 16.7165 62.8456 17.9067L63.1199 18.2496C64.0438 19.3631 63.9353 21.0047 62.878 21.9895L47.4483 36.3049C47.1902 36.5444 47.175 36.947 47.4146 37.2052C47.6276 37.4384 47.9833 37.478 48.2455 37.3014L63.585 26.9485C64.8996 26.0622 66.6912 26.4749 67.4836 27.8457L67.6257 28.0893C68.3229 29.2915 68.0062 30.8218 66.8925 31.6532L52.0024 42.725C51.7621 42.904 51.6791 43.2219 51.7993 43.4962L51.9753 43.898C52.1278 44.2457 52.5497 44.3846 52.8796 44.1934L65.7902 36.7231C67.192 35.9127 68.9909 36.4916 69.6535 37.9729C70.2168 39.2226 69.767 40.6939 68.6033 41.4132L41.4014 58.3316C41.4014 58.3316 35.7439 62.0967 32.7556 59.717L24.489 65.2055C23.3228 65.9797 21.7554 65.7317 20.8848 64.6351L13.1744 54.8979C12.3328 53.8376 12.4099 52.3138 13.359 51.3427L13.355 51.346Z" stroke="white" stroke-width="2" stroke-linecap="round" stroke-linejoin="round"/>
<path d="M30.2228 49.7809L38.5353 50.7066C40.2994 50.9031 41.9318 49.7361 42.3121 47.9962C42.6924 46.2562 41.699 44.5102 40.0082 43.9507L38.7643 43.5366C38.5763 43.4752 38.4125 43.3615 38.2899 43.2082C38.1672 43.0549 38.0922 42.8701 38.0736 42.6733L37.9426 41.3688C37.7679 39.5964 36.2826 38.244 34.5016 38.2331C32.7238 38.2262 31.2238 39.5585 31.0282 41.3227L30.1066 49.6357L30.2163 49.7729L30.2228 49.7809Z" stroke="white" stroke-width="2" stroke-linecap="round" stroke-linejoin="round"/>
</g>
<defs>
<clipPath id="clip0_308_303">
<rect width="45" height="63" fill="white" transform="translate(49.1948) rotate(51.3402)"/>
</clipPath>
</defs>
</svg>
