<svg width="83" height="62" viewBox="0 0 83 62" fill="none" xmlns="http://www.w3.org/2000/svg">
<g clip-path="url(#clip0_308_398)">
<path d="M76.2346 0.609253H6.77173V44.1908H76.2346V0.609253Z" stroke="white" stroke-width="2" stroke-linecap="round" stroke-linejoin="round"/>
<path d="M82.3849 61.3907H0.61499L6.77157 43.9593H76.2345L82.3849 61.3907Z" stroke="white" stroke-width="2" stroke-linecap="round" stroke-linejoin="round"/>
<path d="M56.5531 56.809H26.4529L28.7162 48.7787H54.2836L56.5531 56.809Z" stroke="white" stroke-width="2" stroke-linecap="round" stroke-linejoin="round"/>
<path d="M57.5926 26.2111C57.5926 26.2111 50.3905 33.3213 41.5031 33.3213C32.6157 33.3213 25.4136 26.2111 25.4136 26.2111C25.4136 26.2111 32.6157 19.1008 41.5031 19.1008C50.3905 19.1008 57.5926 26.2111 57.5926 26.2111Z" stroke="white" stroke-width="2" stroke-linecap="round" stroke-linejoin="round"/>
<path d="M41.5031 29.8789C43.548 29.8789 45.2057 28.2368 45.2057 26.2111C45.2057 24.1854 43.548 22.5432 41.5031 22.5432C39.4582 22.5432 37.8005 24.1854 37.8005 26.2111C37.8005 28.2368 39.4582 29.8789 41.5031 29.8789Z" stroke="white" stroke-width="2" stroke-linecap="round" stroke-linejoin="round"/>
<path d="M41.5032 14.7445V9.35852" stroke="white" stroke-width="2" stroke-linecap="round" stroke-linejoin="round"/>
<path d="M35.1928 15.6584L32.3513 10.644" stroke="white" stroke-width="2" stroke-linecap="round" stroke-linejoin="round"/>
<path d="M47.8074 15.6584L50.6489 10.644" stroke="white" stroke-width="2" stroke-linecap="round" stroke-linejoin="round"/>
</g>
<defs>
<clipPath id="clip0_308_398">
<rect width="83" height="62" fill="white"/>
</clipPath>
</defs>
</svg>
