<svg width="67" height="50" viewBox="0 0 67 50" fill="none" xmlns="http://www.w3.org/2000/svg">
<g clip-path="url(#clip0_308_274)">
<path d="M35.3639 39.759C34.9174 40.3022 34.4563 40.8256 33.9612 41.3194C32.8255 42.4402 31.4325 43.3834 29.8647 43.6006C27.9621 43.8673 25.943 42.9488 24.8703 41.3243C23.7928 39.7047 23.7151 37.458 24.6665 35.7594C25.1276 34.9398 25.7974 34.2633 26.4817 33.6263C27.0399 33.1078 27.6175 32.6042 28.1999 32.1104C28.8066 31.5919 29.4279 31.0833 30.0395 30.5649C32.442 28.5404 34.3447 25.9974 36.5579 23.7902C37.5675 22.7879 38.6353 21.8546 39.8487 21.0745C40.6981 20.5264 41.6252 20.0523 42.625 19.9684C43.188 19.9239 43.7511 20.003 44.2947 20.156C45.7217 20.5609 47.0127 21.504 47.7505 22.8076C48.4931 24.1112 48.6436 25.7703 48.0611 27.1578C47.6389 28.1602 46.872 28.97 46.0905 29.7156C45.3868 30.3822 44.6538 31.0142 43.9112 31.6364C41.5718 33.5868 39.1207 35.4088 37.0967 37.6852C36.4997 38.3567 35.9415 39.0677 35.3688 39.7541L35.3639 39.759Z" stroke="white" stroke-width="2" stroke-linecap="round" stroke-linejoin="round"/>
<path d="M36.98 28.9749C37.3392 28.6342 37.7081 28.2886 38.1643 28.1009C38.6206 27.9133 39.1836 27.9232 39.5525 28.254C39.8583 28.5256 39.9699 28.97 39.9214 29.3798C39.8728 29.7897 39.669 30.1649 39.4311 30.4958C39.0817 30.9846 38.6449 31.3994 38.208 31.8092C37.3732 32.6042 36.5384 33.3942 35.6987 34.1843C35.3201 34.5398 34.9318 34.9052 34.4416 35.0681C33.5776 35.3545 32.7088 34.604 32.7816 33.6856C32.8156 33.251 33.0389 32.8511 33.3204 32.5252C34.4125 31.2463 35.7521 30.1254 36.9752 28.97L36.98 28.9749Z" stroke="white" stroke-width="2" stroke-linecap="round" stroke-linejoin="round"/>
<path d="M28.1999 32.1154C27.6175 32.6091 27.0399 33.1128 26.4817 33.6312C25.7925 34.2682 25.1276 34.9447 24.6665 35.7644C23.7151 37.463 23.7928 39.7097 24.8703 41.3293C25.943 42.9488 27.9621 43.8673 29.8647 43.6056C31.4325 43.3883 32.8255 42.4452 33.9612 41.3243C34.4563 40.8305 34.9174 40.3071 35.3639 39.764C35.9415 39.0727 36.4948 38.3666 37.0918 37.695C39.1158 35.4138 41.5718 33.5967 43.9064 31.6463C44.649 31.029 45.3819 30.3921 46.0857 29.7255C46.872 28.9799 47.634 28.1701 48.0563 27.1677C48.6387 25.7851 48.4882 24.126 47.7456 22.8175C47.003 21.5139 45.7119 20.5708 44.2898 20.1659C43.7462 20.0128 43.1783 19.9338 42.6202 19.9783C41.6203 20.0622 40.6933 20.5412 39.8439 21.0843C38.6353 21.8645 37.5626 22.7978 36.5531 23.8001C34.3398 26.0073 32.4372 28.5552 30.0346 30.5748C29.423 31.0883 28.8066 31.6018 28.1951 32.1203L28.1999 32.1154Z" stroke="white" stroke-width="2" stroke-linecap="round" stroke-linejoin="round"/>
<path d="M35.1501 40.2232C35.4996 41.1416 36.3102 41.8773 37.2615 42.0502C38.1449 42.2131 39.101 41.8625 39.6058 41.0972C40.096 40.3565 40.1203 39.4134 40.5814 38.6628C41.2124 37.6407 42.4695 37.695 43.4887 37.3445C44.2702 37.0778 44.9885 36.5989 45.4593 35.9076C46.0272 35.0731 46.2456 34.0164 45.8331 33.0733C45.5321 32.377 44.9934 31.8043 44.3818 31.3599" stroke="white" stroke-width="2" stroke-linecap="round" stroke-linejoin="round"/>
<path d="M28.098 31.9326C27.2098 31.5426 26.5205 30.6883 26.3846 29.7156C26.2633 28.812 26.6467 27.854 27.4136 27.3701C28.1562 26.906 29.0881 26.9159 29.8404 26.4764C30.8694 25.874 30.8646 24.5951 31.2529 23.573C31.5489 22.7928 32.044 22.0768 32.7429 21.6275C33.5826 21.0843 34.631 20.9066 35.5435 21.3609C36.2182 21.6966 36.7569 22.2645 37.1695 22.9014" stroke="white" stroke-width="2" stroke-linecap="round" stroke-linejoin="round"/>
<path d="M2.50935 49.5062C-2.33461 33.0782 3.0481 12.2704 3.0481 12.2704H51.4877C51.4877 12.2704 59.5593 28.6984 53.104 49.5062H2.50935Z" stroke="white" stroke-width="2" stroke-linecap="round" stroke-linejoin="round"/>
<path d="M51.4925 12.2062L61.6367 0.493774H12.8476L3.04321 12.2704" stroke="white" stroke-width="2" stroke-linecap="round" stroke-linejoin="round"/>
<path d="M61.6367 0.493774C69.8589 8.02389 65.1993 44.2722 65.1993 44.2722L53.104 49.5062" stroke="white" stroke-width="2" stroke-linecap="round" stroke-linejoin="round"/>
<path d="M7.36792 21.9633H25.4575" stroke="white" stroke-width="2" stroke-linecap="round" stroke-linejoin="round"/>
<path d="M5.99438 26.7035H20.2545" stroke="white" stroke-width="2" stroke-linecap="round" stroke-linejoin="round"/>
<path d="M5.4458 33.3992H19.7059" stroke="white" stroke-width="2" stroke-linecap="round" stroke-linejoin="round"/>
</g>
<defs>
<clipPath id="clip0_308_274">
<rect width="67" height="50" fill="white"/>
</clipPath>
</defs>
</svg>
