<svg width="72" height="45" viewBox="0 0 72 45" fill="none" xmlns="http://www.w3.org/2000/svg">
<g clip-path="url(#clip0_311_1001)">
<path d="M8.09826 33.6479C10.7853 33.6479 12.9636 31.4806 12.9636 28.8071C12.9636 26.1336 10.7853 23.9663 8.09826 23.9663C5.4112 23.9663 3.23291 26.1336 3.23291 28.8071C3.23291 31.4806 5.4112 33.6479 8.09826 33.6479Z" stroke="white" stroke-width="2" stroke-linecap="round" stroke-linejoin="round"/>
<path d="M0.356445 44.6278V39.0635C0.356445 38.0776 0.741396 37.1307 1.43288 36.4215C2.4808 35.3469 4.05981 34.9497 5.47486 35.4533C9.14971 36.7548 16.2499 37.5776 16.4174 24.5801C16.4317 23.4772 17.3335 22.5835 18.442 22.5835C19.5612 22.5835 20.4701 23.4878 20.4701 24.6014V26.9704C20.4701 29.545 19.8677 32.0842 18.7093 34.3894L17.3192 37.1591V44.4469C17.3192 44.4469 0.424168 44.7235 0.356445 44.6313V44.6278Z" stroke="white" stroke-width="2" stroke-linecap="round" stroke-linejoin="round"/>
<path d="M14.7814 0.354492H2.67689C1.41154 0.354492 0.38501 1.37585 0.38501 2.63481V14.2173C0.38501 15.4763 1.41154 16.4976 2.67689 16.4976H6.86145L7.47451 17.9729L8.25867 19.8667C8.42976 20.2816 9.02501 20.2816 9.1961 19.8667L9.98026 17.9729L10.5933 16.4976H14.7779C16.0432 16.4976 17.0698 15.4763 17.0698 14.2173V2.63481C17.0698 1.37585 16.0432 0.354492 14.7779 0.354492H14.7814Z" stroke="white" stroke-width="2" stroke-linecap="round" stroke-linejoin="round"/>
<path d="M4.69788 8.28787L7.47807 11.054L12.7605 5.61035" stroke="white" stroke-width="2" stroke-linecap="round" stroke-linejoin="round"/>
<path d="M33.6832 33.6479C36.3703 33.6479 38.5486 31.4806 38.5486 28.8071C38.5486 26.1336 36.3703 23.9663 33.6832 23.9663C30.9962 23.9663 28.8179 26.1336 28.8179 28.8071C28.8179 31.4806 30.9962 33.6479 33.6832 33.6479Z" stroke="white" stroke-width="2" stroke-linecap="round" stroke-linejoin="round"/>
<path d="M25.9414 44.6278V39.0635C25.9414 38.0776 26.3264 37.1307 27.0178 36.4215C28.0658 35.3469 29.6448 34.9497 31.0598 35.4533C34.7347 36.7548 41.8349 37.5776 42.0024 24.5801C42.0167 23.4772 42.9184 22.5835 44.027 22.5835C45.1462 22.5835 46.0551 23.4878 46.0551 24.6014V26.9704C46.0551 29.545 45.4527 32.0842 44.2943 34.3894L42.9042 37.1591V44.4469C42.9042 44.4469 26.0091 44.7235 25.9414 44.6313V44.6278Z" stroke="white" stroke-width="2" stroke-linecap="round" stroke-linejoin="round"/>
<path d="M40.3663 0.354492H28.2617C26.9964 0.354492 25.9698 1.37585 25.9698 2.63481V14.2173C25.9698 15.4763 26.9964 16.4976 28.2617 16.4976H32.4463L33.0594 17.9729L33.8435 19.8667C34.0146 20.2816 34.6098 20.2816 34.7809 19.8667L35.5651 17.9729L36.1782 16.4976H40.3627C41.6281 16.4976 42.6546 15.4763 42.6546 14.2173V2.63481C42.6546 1.37585 41.6281 0.354492 40.3627 0.354492H40.3663Z" stroke="white" stroke-width="2" stroke-linecap="round" stroke-linejoin="round"/>
<path d="M30.2827 8.28787L33.0629 11.054L38.3489 5.61035" stroke="white" stroke-width="2" stroke-linecap="round" stroke-linejoin="round"/>
<path d="M59.2682 33.6479C61.9552 33.6479 64.1335 31.4806 64.1335 28.8071C64.1335 26.1336 61.9552 23.9663 59.2682 23.9663C56.5811 23.9663 54.4028 26.1336 54.4028 28.8071C54.4028 31.4806 56.5811 33.6479 59.2682 33.6479Z" stroke="white" stroke-width="2" stroke-linecap="round" stroke-linejoin="round"/>
<path d="M51.5264 44.6278V39.0635C51.5264 38.0776 51.9113 37.1307 52.6028 36.4215C53.6507 35.3469 55.2297 34.9497 56.6448 35.4533C60.3196 36.7548 67.4198 37.5776 67.5874 24.5801C67.6016 23.4772 68.5034 22.5835 69.6119 22.5835C70.7311 22.5835 71.64 23.4878 71.64 24.6014V26.9704C71.64 29.545 71.0377 32.0842 69.8792 34.3894L68.4891 37.1591V44.4469C68.4891 44.4469 51.5941 44.7235 51.5264 44.6313V44.6278Z" stroke="white" stroke-width="2" stroke-linecap="round" stroke-linejoin="round"/>
<path d="M65.9512 0.354492H53.8467C52.5813 0.354492 51.5548 1.37585 51.5548 2.63481V14.2173C51.5548 15.4763 52.5813 16.4976 53.8467 16.4976H58.0312L58.6443 17.9729L59.4285 19.8667C59.5996 20.2816 60.1948 20.2816 60.3659 19.8667L61.1501 17.9729L61.7631 16.4976H65.9477C67.213 16.4976 68.2396 15.4763 68.2396 14.2173V2.63481C68.2396 1.37585 67.213 0.354492 65.9477 0.354492H65.9512Z" stroke="white" stroke-width="2" stroke-linecap="round" stroke-linejoin="round"/>
<path d="M55.8677 8.28787L58.6479 11.054L63.9338 5.61035" stroke="white" stroke-width="2" stroke-linecap="round" stroke-linejoin="round"/>
</g>
<defs>
<clipPath id="clip0_311_1001">
<rect width="72" height="45" fill="white"/>
</clipPath>
</defs>
</svg>
