<svg width="93" height="66" viewBox="0 0 93 66" fill="none" xmlns="http://www.w3.org/2000/svg">
<g clip-path="url(#clip0_308_446)">
<path d="M31.6971 33.2327C39.6442 33.2327 46.0867 26.8158 46.0867 18.9001C46.0867 10.9844 39.6442 4.56754 31.6971 4.56754C23.75 4.56754 17.3076 10.9844 17.3076 18.9001C17.3076 26.8158 23.75 33.2327 31.6971 33.2327Z" stroke="white" stroke-width="2" stroke-linecap="round" stroke-linejoin="round"/>
<path d="M64.6594 65.2841C64.6594 47.6941 50.3489 33.4403 32.6891 33.4403C15.0292 33.4403 0.71875 47.7013 0.71875 65.2841H64.6594Z" stroke="white" stroke-width="2" stroke-linecap="round" stroke-linejoin="round"/>
<path d="M48.9976 44.8304H39.05V51.3023H48.9976V44.8304Z" stroke="white" stroke-width="2" stroke-linecap="round" stroke-linejoin="round"/>
<path d="M92.2812 29.6316V5.31923C92.2812 2.77774 90.2112 0.715912 87.6596 0.715912H64.185C61.6334 0.715912 59.5634 2.77774 59.5634 5.31923V13.724L56.5734 14.9554L52.7352 16.5304C51.8943 16.8741 51.8943 18.0696 52.7352 18.4133L56.5734 19.9883L59.5634 21.2197V29.6245C59.5634 32.166 61.6334 34.2278 64.185 34.2278H87.6596C90.2112 34.2278 92.2812 32.166 92.2812 29.6245V29.6316Z" stroke="white" stroke-width="2" stroke-linecap="round" stroke-linejoin="round"/>
<path d="M68.1238 17.3824L73.7301 22.9736L84.3893 11.9844" stroke="white" stroke-width="2" stroke-linecap="round" stroke-linejoin="round"/>
<path d="M23.5825 34.7361C23.5825 34.7361 25.1638 38.6092 32.4735 38.4302C39.7833 38.2512 41.1777 34.6072 41.1777 34.6072" stroke="white" stroke-width="2" stroke-linecap="round" stroke-linejoin="round"/>
<path d="M32.5525 44.2219C32.8502 44.2219 33.0916 43.9815 33.0916 43.685C33.0916 43.3885 32.8502 43.1481 32.5525 43.1481C32.2548 43.1481 32.0134 43.3885 32.0134 43.685C32.0134 43.9815 32.2548 44.2219 32.5525 44.2219Z" stroke="white" stroke-width="2" stroke-linecap="round" stroke-linejoin="round"/>
<path d="M32.5525 50.9587C32.8502 50.9587 33.0916 50.7183 33.0916 50.4217C33.0916 50.1252 32.8502 49.8848 32.5525 49.8848C32.2548 49.8848 32.0134 50.1252 32.0134 50.4217C32.0134 50.7183 32.2548 50.9587 32.5525 50.9587Z" stroke="white" stroke-width="2" stroke-linecap="round" stroke-linejoin="round"/>
<path d="M32.5525 57.6954C32.8502 57.6954 33.0916 57.455 33.0916 57.1585C33.0916 56.8619 32.8502 56.6216 32.5525 56.6216C32.2548 56.6216 32.0134 56.8619 32.0134 57.1585C32.0134 57.455 32.2548 57.6954 32.5525 57.6954Z" stroke="white" stroke-width="2" stroke-linecap="round" stroke-linejoin="round"/>
<path d="M41.7527 47.9948H46.2162" stroke="white" stroke-width="2" stroke-linecap="round" stroke-linejoin="round"/>
</g>
<defs>
<clipPath id="clip0_308_446">
<rect width="93" height="66" fill="white"/>
</clipPath>
</defs>
</svg>
