<svg width="51" height="62" viewBox="0 0 51 62" fill="none" xmlns="http://www.w3.org/2000/svg">
<g clip-path="url(#clip0_311_1158)">
<path d="M33.7505 36.902V58.7693C33.7505 60.3156 32.5104 61.5681 30.9796 61.5681H3.19835C1.66753 61.5681 0.42749 60.3156 0.42749 58.7693V3.23063C0.42749 1.68441 1.66753 0.431885 3.19835 0.431885H30.9753C32.5061 0.431885 33.7462 1.68441 33.7462 3.23063V8.31848" stroke="white" stroke-width="2" stroke-linecap="round" stroke-linejoin="round"/>
<path d="M30.3212 35.8999V51.319C30.3212 51.5004 30.1758 51.6472 29.9962 51.6472H4.18191C4.00232 51.6472 3.85693 51.5004 3.85693 51.319V5.0835C3.85693 4.9021 4.00232 4.75525 4.18191 4.75525H29.9962C30.1758 4.75525 30.3212 4.9021 30.3212 5.0835V9.10885" stroke="white" stroke-width="2" stroke-linecap="round" stroke-linejoin="round"/>
<path d="M17.087 57.9401C18.0198 57.9401 18.776 57.1763 18.776 56.2341C18.776 55.2919 18.0198 54.5281 17.087 54.5281C16.1542 54.5281 15.3979 55.2919 15.3979 56.2341C15.3979 57.1763 16.1542 57.9401 17.087 57.9401Z" stroke="white" stroke-width="2" stroke-linecap="round" stroke-linejoin="round"/>
<path d="M36.2435 37.0186C44.1571 37.0186 50.5724 30.5387 50.5724 22.5454C50.5724 14.5521 44.1571 8.07227 36.2435 8.07227C28.3298 8.07227 21.9146 14.5521 21.9146 22.5454C21.9146 30.5387 28.3298 37.0186 36.2435 37.0186Z" stroke="white" stroke-width="2" stroke-linecap="round" stroke-linejoin="round"/>
<path d="M16.8091 29.4559V41.9769" stroke="white" stroke-width="2" stroke-linecap="round" stroke-linejoin="round"/>
<path d="M23.005 35.7142H10.6089" stroke="white" stroke-width="2" stroke-linecap="round" stroke-linejoin="round"/>
<path d="M42.9269 24.9684C42.9269 28.7174 39.9166 31.758 36.205 31.758C32.4935 31.758 29.4832 28.7174 29.4832 24.9684C29.4832 21.2195 36.2478 13.0954 36.205 13.0522C36.1623 13.009 42.9269 21.2195 42.9269 24.9684Z" stroke="white" stroke-width="2" stroke-linecap="round" stroke-linejoin="round"/>
</g>
<defs>
<clipPath id="clip0_311_1158">
<rect width="51" height="62" fill="white"/>
</clipPath>
</defs>
</svg>
