<svg width="50" height="50" viewBox="0 0 50 50" fill="none" xmlns="http://www.w3.org/2000/svg">
<g clip-path="url(#clip0_311_871)">
<path d="M25 50C38.8071 50 50 38.8071 50 25C50 11.1929 38.8071 0 25 0C11.1929 0 0 11.1929 0 25C0 38.8071 11.1929 50 25 50Z" fill="#E6274B"/>
<mask id="mask0_311_871" style="mask-type:luminance" maskUnits="userSpaceOnUse" x="11" y="15" width="13" height="20">
<path d="M23.2539 15.153H11.6573V34.4569H23.2539V15.153Z" fill="white"/>
</mask>
<g mask="url(#mask0_311_871)">
<path d="M18.3931 22.9364C18.6755 20.2163 19.525 17.1212 21.7333 15.1525L19.8466 15.2305C19.8466 15.2305 14.0632 20.4158 12.1745 26.2653C11.8508 26.9791 11.6758 27.7513 11.6603 28.5349C11.6603 28.5427 11.6603 28.5506 11.6573 28.5579H11.6598C11.6598 28.5917 11.6573 28.6256 11.6573 28.6599C11.6576 29.7666 11.9745 30.8502 12.5708 31.7825C13.167 32.7149 14.0176 33.4572 15.0222 33.9217C16.0267 34.3862 17.1432 34.5535 18.2398 34.4039C19.3363 34.2543 20.3672 33.794 21.2106 33.0774C22.0539 32.3607 22.6746 31.4177 22.9993 30.3597C23.324 29.3016 23.3391 28.1728 23.0428 27.1064C22.7465 26.0401 22.1513 25.0808 21.3274 24.3419C20.5035 23.603 19.4853 23.1152 18.3931 22.9364Z" fill="white"/>
</g>
<mask id="mask1_311_871" style="mask-type:luminance" maskUnits="userSpaceOnUse" x="26" y="15" width="13" height="20">
<path d="M38.2529 15.153H26.6564V34.4569H38.2529V15.153Z" fill="white"/>
</mask>
<g mask="url(#mask1_311_871)">
<path d="M33.3922 22.9364C33.6745 20.2163 34.524 17.1212 36.7324 15.1525L34.8456 15.2305C34.8456 15.2305 29.0623 20.4158 27.1735 26.2653C26.8498 26.9791 26.6749 27.7513 26.6593 28.5349C26.6593 28.5427 26.6593 28.5506 26.6564 28.5579H26.6588C26.6588 28.5917 26.6564 28.6256 26.6564 28.6599C26.6566 29.7666 26.9736 30.8502 27.5698 31.7825C28.1661 32.7149 29.0167 33.4572 30.0212 33.9217C31.0257 34.3862 32.1422 34.5535 33.2388 34.4039C34.3354 34.2543 35.3662 33.794 36.2096 33.0774C37.053 32.3607 37.6736 31.4177 37.9983 30.3597C38.323 29.3016 38.3381 28.1728 38.0418 27.1064C37.7456 26.0401 37.1503 25.0808 36.3264 24.3419C35.5025 23.603 34.4843 23.1152 33.3922 22.9364Z" fill="white"/>
</g>
</g>
<defs>
<clipPath id="clip0_311_871">
<rect width="50" height="50" fill="white"/>
</clipPath>
</defs>
</svg>
