<svg width="59" height="84" viewBox="0 0 59 84" fill="none" xmlns="http://www.w3.org/2000/svg">
<g clip-path="url(#clip0_308_344)">
<path d="M25.8086 39.4318H7.95932C3.94496 39.4318 0.69458 36.2095 0.69458 32.2298V16.2285C0.69458 12.2488 3.94496 9.02655 7.95932 9.02655H51.0338C55.0482 9.02655 58.2986 12.2488 58.2986 16.2285V32.2298C58.2986 36.2095 55.0482 39.4318 51.0338 39.4318H32.9136" stroke="white" stroke-width="2" stroke-linecap="round" stroke-linejoin="round"/>
<path d="M5.3479 38.9361V75.5931C5.3479 79.8551 8.83442 83.3115 13.1335 83.3115H45.8666C50.1657 83.3115 53.6522 79.8551 53.6522 75.5931V38.9361" stroke="white" stroke-width="2" stroke-linecap="round" stroke-linejoin="round"/>
<path d="M5.20193 52.4105H3.14613C1.86126 52.4105 0.826416 53.4433 0.826416 54.7102V66.6698C0.826416 67.9436 1.86821 68.9695 3.14613 68.9695H5.31306" stroke="white" stroke-width="2" stroke-linecap="round" stroke-linejoin="round"/>
<path d="M53.7979 52.4105H55.8537C57.1386 52.4105 58.1734 53.4433 58.1734 54.7102V66.6698C58.1734 67.9436 57.1316 68.9695 55.8537 68.9695H53.6868" stroke="white" stroke-width="2" stroke-linecap="round" stroke-linejoin="round"/>
<path d="M14.1614 58.9652H44.8386V71.097C44.8386 73.5482 42.8314 75.5311 40.3659 75.5311H18.6411C16.1686 75.5311 14.1683 73.5413 14.1683 71.097V58.9652H14.1614Z" stroke="white" stroke-width="2" stroke-linecap="round" stroke-linejoin="round"/>
<path d="M30.8232 34.1783H28.177C27.0455 34.1783 26.1282 35.0877 26.1282 36.2095V42.5921C26.1282 43.7139 27.0455 44.6233 28.177 44.6233H30.8232C31.9547 44.6233 32.872 43.7139 32.872 42.5921V36.2095C32.872 35.0877 31.9547 34.1783 30.8232 34.1783Z" stroke="white" stroke-width="2" stroke-linecap="round" stroke-linejoin="round"/>
<path d="M20.0719 34.6121L16.9674 33.9305L14.6407 36.0856L14.3282 32.9459L11.55 31.4243L14.4601 30.1574L15.0644 27.0659L17.1757 29.4207L20.3358 29.0351L18.7245 31.7548L20.0719 34.6121Z" stroke="white" stroke-width="2" stroke-linecap="round" stroke-linejoin="round"/>
<path d="M43.6371 28.4636L50.7143 25.7095C52.2214 25.1243 53.034 23.5062 52.6104 21.9639C52.1798 20.4147 50.6449 19.4439 49.0475 19.7056L47.8737 19.8984C47.7001 19.9259 47.5195 19.8984 47.3528 19.8364C47.1861 19.7675 47.0472 19.6505 46.95 19.499L46.2902 18.5144C45.4012 17.1787 43.6301 16.7243 42.1994 17.461C40.7618 18.1977 40.1228 19.8915 40.7131 21.3856L43.4912 28.4016L43.6371 28.4636Z" stroke="white" stroke-width="2" stroke-linecap="round" stroke-linejoin="round"/>
<path d="M11.543 12.9787H47.4569" stroke="white" stroke-width="2" stroke-linecap="round" stroke-linejoin="round"/>
<path d="M14.2864 63.1653H44.7136" stroke="white" stroke-width="2" stroke-linecap="round" stroke-linejoin="round"/>
<path d="M21.0232 3.49771V8.52394" stroke="white" stroke-width="2" stroke-linecap="round" stroke-linejoin="round"/>
<path d="M37.9768 2.83672V8.52393" stroke="white" stroke-width="2" stroke-linecap="round" stroke-linejoin="round"/>
<path d="M42.1162 5.38426C34.8653 -1.25312 23.5723 -0.798692 16.884 6.3895" stroke="white" stroke-width="2" stroke-linecap="round" stroke-linejoin="round"/>
<path d="M0.743164 56.6174H4.98672" stroke="white" stroke-width="2" stroke-linecap="round" stroke-linejoin="round"/>
<path d="M53.9924 56.6174H58.229" stroke="white" stroke-width="2" stroke-linecap="round" stroke-linejoin="round"/>
</g>
<defs>
<clipPath id="clip0_308_344">
<rect width="59" height="84" fill="white"/>
</clipPath>
</defs>
</svg>
