<svg width="83" height="81" viewBox="0 0 83 81" fill="none" xmlns="http://www.w3.org/2000/svg">
<g clip-path="url(#clip0_308_295)">
<path d="M24.0841 60.3905L17.8725 26.7507C17.5923 25.2326 18.6015 23.7652 20.1254 23.4789L37.9585 20.1257L54.2791 17.0584C55.8031 16.7721 57.2703 17.7714 57.5504 19.2895L63.762 52.9293C64.0421 54.4474 63.033 55.9148 61.5091 56.2011L27.3554 62.6217C25.8314 62.9079 24.3642 61.9086 24.0841 60.3905Z" stroke="white" stroke-width="2" stroke-linecap="round" stroke-linejoin="round"/>
<path d="M40.7142 36.3524L37.9607 20.1302" stroke="white" stroke-width="2" stroke-linecap="round" stroke-linejoin="round"/>
<path d="M44.1716 58.3643L40.9333 40.8863" stroke="white" stroke-width="2" stroke-linecap="round" stroke-linejoin="round"/>
<path d="M46.5393 39.4816L46.051 36.198L35.9749 37.7326L36.4632 41.0162L46.5393 39.4816Z" stroke="white" stroke-width="2" stroke-linecap="round" stroke-linejoin="round"/>
<path d="M55.9597 16.9209L62.6342 14.4242L70.5234 56.0476L62.7101 55.6106" stroke="white" stroke-width="2" stroke-linecap="round" stroke-linejoin="round"/>
<path d="M17.9435 24.9378L11.5661 24.2796L19.0521 64.1245L24.9034 61.9617" stroke="white" stroke-width="2" stroke-linecap="round" stroke-linejoin="round"/>
</g>
<defs>
<clipPath id="clip0_308_295">
<rect width="57" height="63" fill="white" transform="translate(55.4287) rotate(61.6208)"/>
</clipPath>
</defs>
</svg>
