<?xml version="1.0" encoding="UTF-8"?>
<svg width="283px" height="230px" viewBox="0 0 283 230" version="1.1" xmlns="http://www.w3.org/2000/svg" xmlns:xlink="http://www.w3.org/1999/xlink">
    <title>Group 34</title>
    <defs>
        <polygon id="path-1" points="0 0 29.2236837 0 29.2236837 26.1831651 0 26.1831651"></polygon>
        <polygon id="path-3" points="0 0 20.3507673 0 20.3507673 13.3170148 0 13.3170148"></polygon>
        <polygon id="path-5" points="0 0 22.8048911 0 22.8048911 16.5843932 0 16.5843932"></polygon>
    </defs>
    <g id="Page-1" stroke="none" stroke-width="1" fill="none" fill-rule="evenodd">
        <g id="PARTICULIERS---DEVENIR-BENEVOLE" transform="translate(-1116.000000, -122.000000)">
            <g id="Group-34" transform="translate(1116.000000, 122.000000)">
                <g id="Group-72">
                    <polygon id="Fill-1" fill="#EA7F3B" points="108.785417 216.18895 163.52973 216.18895 163.52973 164.540634 108.785417 164.540634"></polygon>
                    <polygon id="Fill-2" fill="#F49750" points="163.52973 216.18895 184.983609 216.18895 184.983609 164.540634 163.52973 164.540634"></polygon>
                    <polygon id="Fill-3" fill="#EC9455" points="133.221698 168.595438 139.09372 168.595438 139.09372 164.540634 133.221698 164.540634"></polygon>
                    <polygon id="Fill-4" fill="#FFB665" points="170.846697 168.595438 175.077353 168.595438 175.077353 164.540634 170.846697 164.540634"></polygon>
                    <polygon id="Fill-5" fill="#EA7F3B" points="114.668562 164.540907 158.668573 164.540907 158.668573 112.892591 114.668562 112.892591"></polygon>
                    <polygon id="Fill-6" fill="#F49750" points="158.668573 164.540907 175.911872 164.540907 175.911872 112.892591 158.668573 112.892591"></polygon>
                    <polygon id="Fill-7" fill="#EC9455" points="134.308798 116.947395 139.028337 116.947395 139.028337 112.892591 134.308798 112.892591"></polygon>
                    <polygon id="Fill-8" fill="#FFB665" points="164.549548 116.947395 167.950025 116.947395 167.950025 112.892591 164.549548 112.892591"></polygon>
                    <g id="Group-71">
                        <path d="M92.8863291,113.757398 L75.8589851,113.757398 C75.7092274,113.757398 75.5876849,113.635441 75.5876849,113.485172 L75.5876849,110.689141 C75.5876849,110.538872 75.7092274,110.416915 75.8589851,110.416915 L92.8863291,110.416915 C93.0363581,110.416915 93.1576293,110.538872 93.1576293,110.689141 L93.1576293,113.485172 C93.1576293,113.635441 93.0363581,113.757398 92.8863291,113.757398" id="Fill-9" fill="#77122A"></path>
                        <path d="M192.890382,218.107597 L103.149426,218.107597 C100.724816,218.107597 98.7524637,216.128516 98.7524637,213.695089 L98.7524637,113.943383 C98.7524637,113.533411 98.4203923,113.200478 98.0123567,113.200478 L86.5461245,113.200478 C85.9332574,113.200478 85.4362354,112.702577 85.4362354,112.087075 C85.4362354,111.471572 85.9332574,110.973671 86.5461245,110.973671 L98.0123567,110.973671 C99.6442275,110.973671 100.971699,112.305672 100.971699,113.943383 L100.971699,213.695089 C100.971699,214.899961 101.948652,215.88079 103.149426,215.88079 L192.890382,215.88079 C193.503792,215.88079 194,216.378691 194,216.994194 C194,217.609696 193.503792,218.107597 192.890382,218.107597" id="Fill-11" fill="#77122A"></path>
                        <path d="M62.8587673,212.571123 C62.8587673,212.571123 63.2754844,220.855771 62.8446597,222.755091 C62.5049918,224.251516 56.7338936,224.488081 56.1693179,223.694542 C55.6044709,222.901004 55.1817851,213.195881 55.1817851,213.195881" id="Fill-13" fill="#5B2D0F"></path>
                        <path d="M13.3586597,212.827124 C13.3586597,212.827124 10.7018167,217.927275 10.022481,219.326788 C9.34287396,220.726573 3.4060114,217.858402 3.86071055,216.980474 C5.33902542,214.125097 8.25848701,206.522919 8.25848701,206.522919" id="Fill-15" fill="#5B2D0F"></path>
                        <path d="M60.2688269,101.698502 L53.5441085,127.909493 C52.7120308,130.904793 51.8020899,134.055807 50.8918776,137.240305 C50.5481403,138.453888 50.2041316,139.667742 49.8489996,140.859003 C49.0497492,143.665106 48.2621647,146.415132 47.5296541,149.020605 C46.8305134,151.503849 46.1647427,153.853158 45.5876872,155.990947 C45.1981001,157.427483 44.8608739,160.847456 44.2062265,163.028257 C43.2572183,166.188798 42.0005557,168.024417 41.9479235,168.116702 C37.5759206,175.120255 14.5536558,212.100499 11.5799341,216.799389 C8.85011139,216.086702 5.62380925,213.720515 4.71386834,213.041039 C8.98603279,202.641469 12.8965541,182.795934 20.6310518,171.093491 C21.4742529,169.812941 25.2955164,164.664878 26.2830492,163.584686 C28.8720671,154.306141 31.2394328,132.764096 31.7831184,125.671524 C31.9496967,123.366588 31.8276116,121.050491 31.4060111,118.779311 C31.4060111,118.756989 31.3948878,118.756989 31.3948878,118.745827 C30.440725,113.801662 28.9423339,103.936471 36.7880647,96.0754056 C36.9543718,95.9085312 37.198542,95.8527249 37.4093422,95.942015 C39.1850021,96.7102362 47.5296541,100.161787 54.3764576,100.629471 L59.7582399,100.996976 C60.1133719,101.019299 60.3575421,101.35332 60.2688269,101.698502" id="Fill-17" fill="#FF9A00"></path>
                        <path d="M37.9901417,124.305087 C37.1640326,123.918526 33.7847171,122.006684 31.7426404,115.852203 C31.7426404,115.852203 56.4008455,97.7627973 62.0238137,99.5608489 C63.6236711,100.079711 67.5499278,154.908169 67.5268673,155.991083 C67.5152013,156.525735 67.5501991,162.664155 67.5260534,163.306607 C67.1619685,172.48334 63.1206805,217.796144 63.1206805,217.796144 C62.1667889,218.148132 58.8447178,218.048497 54.493605,217.977991 C53.2450814,206.535795 48.6614643,184.462365 52.5548937,164.284443 C52.8215818,162.900719 52.1091474,161.551295 51.1780451,157.2406 C47.5002994,147.733113 40.5444332,130.344689 38.2576437,124.589291 C38.2055541,124.458622 38.1173815,124.364704 37.9901417,124.305087" id="Fill-19" fill="#FF9A00"></path>
                        <path d="M28.1010862,65.1266513 C28.1279449,68.0296674 28.3010344,70.9190722 28.5275701,73.7017645 C28.8344107,77.1130263 29.2031076,83.0480935 29.4272016,86.0134494 C30.289665,97.4423059 28.0939917,108.097224 28.0939917,108.097224 C28.5606687,108.297855 31.2408435,108.685504 33.7500992,109.442564 C46.202779,113.199825 64.3356714,107.424554 64.3356714,107.424554 C64.2192836,106.079214 62.804453,93.8083634 62.8446054,92.7112934 C62.8844865,91.69453 62.591211,88.243251 62.0179536,83.4673213 C61.8180054,81.76836 61.578176,79.9221245 61.2979229,77.9424983 C61.0713872,76.2702151 60.8046991,74.5042863 60.5247173,72.6850011 C60.1915606,70.5711676 59.9113075,68.4978958 59.631597,66.477708 C59.3250277,64.1901945 59.0317522,61.9693763 58.7116179,59.7755084 C58.1250669,55.9899362 57.4584823,52.3510937 56.445176,48.8328472 C55.6185242,45.916492 54.8062514,43.5818834 53.3794836,40.8130746 C49.9798206,34.2445378 41.4864961,32.7127232 40.0599996,32.5787881 C39.9265199,32.5657212 39.7933115,32.5923994 39.6866905,32.672706 C33.5403842,36.7928437 30.4076806,43.8829651 29.0210652,51.9095434 C28.2877407,56.1636162 28.0479113,60.671948 28.1010862,65.1266513" id="Fill-21" fill="#FFFFFF"></path>
                        <path d="M59.9161909,70.6448319 C59.7705027,70.8525402 61.9588102,76.9836101 63.967517,79.9078598 C66.7369496,83.9395242 76.5232908,99.966547 81.0849326,105.650078 L77.0970908,108.746646 C76.9522165,108.50491 69.1192367,101.125685 64.2165706,96.1273463 C59.1419001,90.9403556 53.5414498,83.6871709 51.6418057,80.3387933 C51.4236803,79.9489659 49.8493252,76.261395 49.8099866,75.7430771" id="Fill-23" fill="#5B2D0F"></path>
                        <path d="M65.4229884,12.5990464 C65.3451252,13.0444078 64.213532,19.3243852 62.1272334,24.8916754 C61.439216,26.706605 60.6513602,28.4436779 59.7636659,29.8799413 C58.4318532,32.0291641 57.5107889,32.875242 55.6244386,32.8864032 L55.6021919,32.8864032 C54.5924125,32.8864032 53.2939697,32.6414 51.5074578,32.2183611 C50.5310484,31.9845191 50.3867166,32.5300596 50.2868782,32.8417582 C49.6989706,34.7903506 49.6542061,35.0018701 49.6989706,36.4827785 C48.0342725,36.4160832 42.6855888,36.0153668 40.4883284,33.8884665 C40.4774763,33.8775774 40.466353,33.866144 40.466353,33.8552549 C40.1000978,33.5098004 39.789459,33.109084 39.5452888,32.6637225 C41.376294,31.1046853 41.2653322,26.0385628 41.2653322,26.0385628 L41.2764555,26.0385628 C40.3996132,24.5241706 39.8114343,22.4421875 40.0889744,19.6472451 C40.821485,12.4210107 46.4474375,5.79585099 46.8356681,5.6398656 C47.2130467,5.48388021 58.3320147,7.5440852 58.7761331,7.63310304 C59.1643637,7.72212088 64.0024604,11.1959945 65.2121881,12.0646671 C65.3784951,12.1871687 65.4672103,12.3875269 65.4229884,12.5990464" id="Fill-25" fill="#5B2D0F"></path>
                        <path d="M57.5208542,59.8574756 C55.5447034,62.259324 45.3739297,65.7340143 42.0990649,65.9607784 C40.2724005,61.1930154 33.0213597,41.5791453 42.7694477,39.2450811 C51.5744961,37.1369644 54.9942353,50.7814668 57.5208542,59.8574756" id="Fill-27" fill="#FFFFFF"></path>
                        <g id="Group-31" transform="translate(37.787433, 0.000000)">
                            <mask id="mask-2" fill="white">
                                <use xlink:href="#path-1"></use>
                            </mask>
                            <g id="Clip-30"></g>
                            <path d="M28.8907257,15.5750463 C24.8619176,17.8949547 15.596744,15.249192 13.8899943,16.2599664 C12.1810743,17.2603963 11.5511152,21.4790798 10.7689567,21.6116538 C9.93470853,21.7534834 10.1281456,20.4824611 10.2217442,18.9383962 C10.3278225,17.4027704 9.29579653,14.4613704 6.85138161,15.7029924 C4.0426105,17.1294557 5.97752362,19.8522583 5.11641674,22.5709776 C4.46149803,24.6371715 3.94222942,25.5858785 3.56973423,26.0051062 C3.32122323,26.2852266 2.86272587,26.2237036 2.67661393,25.898666 C0.669534948,22.3915807 -0.881488372,16.4377299 0.568068668,11.7984575 C1.44653876,6.12091584 4.52932308,1.52901075 10.7540352,1.58944488 C10.8744925,1.59080601 10.9759587,1.51839394 11.0885483,1.47647117 C28.3820378,-4.93036345 30.1859129,11.331318 28.8907257,15.5750463" id="Fill-29" fill="#FF9A00" mask="url(#mask-2)"></path>
                        </g>
                        <path d="M55.7098439,221.105021 C55.7098439,221.105021 54.7849814,222.69972 54.3590401,224.411748 C54.0220852,225.7658 54.031852,227.263586 54.2062981,228.435518 C54.3405917,229.339036 55.1200372,230 56.0305207,230 L66.7371123,230 L76.1604539,230 C77.6471791,230 78.6189765,228.356573 77.8297642,227.092356 C77.4507578,226.485292 76.7464624,225.927774 75.4998379,225.591031 C71.5144378,224.514378 67.7387527,223.298889 66.584099,222.694276 C64.9364928,221.831864 63.0165012,220.826262 63.0165012,220.826262 C63.0165012,220.826262 61.221579,221.963622 55.7098439,221.105021" id="Fill-32" fill="#FFFFFF"></path>
                        <g id="Group-36" transform="translate(0.000000, 216.240509)">
                            <mask id="mask-4" fill="white">
                                <use xlink:href="#path-3"></use>
                            </mask>
                            <g id="Clip-35"></g>
                            <path d="M20.2316437,12.003253 C19.9207336,12.8270083 19.0555572,13.3170148 18.178715,13.3170148 L11.5538351,13.3170148 C9.5787695,13.3170148 7.99166325,11.9030739 7.99166325,11.9030739 C7.12621557,11.0567238 5.97210446,10.021449 4.40751613,9.38661842 C2.66522617,8.67420346 1.47801643,7.49383231 0.701283921,6.72533883 C-0.0754485893,5.94595631 0.00214327168,5.42246606 0.00214327168,5.42246606 C1.4335232,1.26938899 4.2300858,0 4.2300858,0 C8.4357817,3.62985905 10.1224551,2.88396031 10.1224551,2.88396031 C10.1224551,2.88396031 11.0543714,4.55433793 13.3625936,6.21300984 C14.527828,7.07079339 16.7769068,8.62765284 18.0528317,9.37382381 C20.3833005,10.7210694 20.5422824,11.1125301 20.2316437,12.003253" id="Fill-34" fill="#FFFFFF" mask="url(#mask-4)"></path>
                        </g>
                        <path d="M88.1393622,110.808376 C88.4144606,110.733786 88.7850567,110.674985 89.3143634,110.660557 C90.3938669,110.630885 90.7359765,109.599421 90.4239813,109.407774 C90.111986,109.216399 87.8751158,109.146982 87.1814011,108.938184 C86.9258363,108.861144 86.6179106,108.735648 86.3306036,108.607974 C86.2842113,108.564691 86.2380903,108.531751 86.1925118,108.512968 C85.1162639,108.067606 83.3183574,107.132238 82.2421094,106.575537 C81.1655902,106.007673 79.9338872,104.148099 79.9338872,104.148099 L76.3942333,104.68275 L75.1180371,106.798217 C75.1180371,106.798217 77.7922433,109.18101 79.2458699,111.586125 C79.6454951,112.243006 79.7453336,113.14489 80.4222276,114.202759 C80.4222276,114.202759 80.4222276,114.213921 80.4333509,114.225082 C80.4555975,114.269455 80.4886962,114.302939 80.5220661,114.347311 C80.6775211,114.547942 81.1436149,114.915174 82.4306631,115.115805 C83.8384399,115.328413 86.3946305,115.216256 87.5243246,115.151466 C87.6898177,115.163717 87.873488,115.158 88.0899855,115.115805 C89.4356346,114.853379 89.574269,113.757398 89.574269,113.757398 L88.8458279,113.757398 C87.9619318,113.757398 87.6664859,112.400625 87.6664859,112.400625 L87.665672,112.401169 C87.6458671,112.30589 87.6219927,112.216328 87.6013738,112.122138 C87.5983895,112.109071 87.6021877,112.100632 87.5983895,112.08702 C87.3995265,111.374061 88.1057209,110.833693 88.1393622,110.808376" id="Fill-37" fill="#5B2D0F"></path>
                        <polygon id="Fill-39" fill="#77122A" points="116.345306 224.407883 112.184103 224.407883 109.617874 216.799443 118.911535 216.799443"></polygon>
                        <path d="M109.178639,224.454406 C109.178639,221.63578 111.455933,219.350989 114.264705,219.350989 C117.073747,219.350989 119.35077,221.63578 119.35077,224.454406 C119.35077,227.273032 117.073747,229.557551 114.264705,229.557551 C111.455933,229.557551 109.178639,227.273032 109.178639,224.454406" id="Fill-41" fill="#EA7F3B"></path>
                        <path d="M112.183995,224.454406 C112.183995,223.30153 113.11564,222.366434 114.264596,222.366434 C115.413824,222.366434 116.345197,223.30153 116.345197,224.454406 C116.345197,225.607283 115.413824,226.542106 114.264596,226.542106 C113.11564,226.542106 112.183995,225.607283 112.183995,224.454406" id="Fill-43" fill="#77122A"></path>
                        <polygon id="Fill-45" fill="#77122A" points="184.650561 224.407883 180.489358 224.407883 177.923129 216.799443 187.216789 216.799443"></polygon>
                        <path d="M177.48403,224.454406 C177.48403,221.63578 179.761052,219.350989 182.570095,219.350989 C185.378866,219.350989 187.655889,221.63578 187.655889,224.454406 C187.655889,227.273032 185.378866,229.557551 182.570095,229.557551 C179.761052,229.557551 177.48403,227.273032 177.48403,224.454406" id="Fill-47" fill="#EA7F3B"></path>
                        <path d="M180.489249,224.454406 C180.489249,223.30153 181.420894,222.366434 182.569851,222.366434 C183.719078,222.366434 184.650452,223.30153 184.650452,224.454406 C184.650452,225.607283 183.719078,226.542106 182.569851,226.542106 C181.420894,226.542106 180.489249,225.607283 180.489249,224.454406" id="Fill-49" fill="#77122A"></path>
                        <path d="M47.7684797,17.0719071 C47.4404777,16.3665701 46.4507745,14.5551795 44.5313255,15.0421915 C42.6121478,15.5294757 41.2111535,19.5584178 43.5367389,23.1147758 C44.970018,25.3070104 47.8099886,22.3065374 47.9752104,20.4581241 C48.1512843,18.4866647 48.06067,17.6996599 47.7684797,17.0719071" id="Fill-51" fill="#5B2D0F"></path>
                        <path d="M142.200298,205.144177 C142.816963,205.017047 143.650126,202.659572 143.650126,202.659572 C143.650126,202.659572 144.174007,202.55912 144.949925,202.285261 C145.725844,202.011402 146.340068,199.767445 146.757056,198.941511 C147.174044,198.115578 147.904656,198.913472 151.796729,197.237922 C155.688802,195.562645 154.187969,188.734949 154.187969,188.734949 C154.187969,188.734949 151.851531,182.147629 147.666454,182.79852 C143.481648,183.44914 143.283599,184.51436 142.493844,184.036331 C141.55596,183.46874 140.707604,182.508872 139.591746,182.248897 C139.3275,182.187101 139.058912,182.167229 138.790054,182.209696 C138.533133,182.250258 138.131608,182.55869 137.905344,182.530106 C137.631602,182.495261 137.18884,181.974493 136.954165,181.814424 C136.613684,181.582216 136.251769,181.364979 135.850245,181.259356 C135.212418,181.09112 134.445724,181.374779 133.803556,181.492925 C132.910164,181.65735 132.018943,181.83593 131.136675,182.054255 C130.314907,182.25788 129.528136,182.463955 129.129596,183.252865 C128.834421,183.837606 128.578314,184.446576 128.311626,185.044928 C128.311626,185.044928 126.851759,184.860359 126.269278,185.986013 C125.687068,187.111666 125.841166,188.529418 124.627911,189.030042 C123.414386,189.530937 120.362258,189.048553 118.925724,191.579709 C117.48946,194.110864 116.849192,196.96733 117.701074,199.242593 C118.181547,201.625114 120.233933,203.70628 122.789581,205.087826 C125.345229,206.4691 127.677868,204.436117 128.971428,204.214798 C130.264716,203.993478 130.88328,205.277567 131.971737,205.921926 C133.05938,206.56574 134.198027,205.635 134.200468,205.633094 C134.287556,205.562043 136.088446,206.905206 136.355677,206.967545 C136.648681,207.036146 136.955522,206.982245 137.24934,206.916095 C138.960702,206.530895 140.506028,205.493442 142.200298,205.144177" id="Fill-53" fill="#FFFFFF"></path>
                        <path d="M133.802308,199.806536 C135.953447,198.831696 138.337091,197.97854 140.632291,197.327376 C141.830081,196.987638 143.052289,196.721673 144.292131,196.59781 C145.463605,196.480753 146.665736,196.676756 147.817948,196.438014 C149.795998,196.028586 152.011164,195.294393 152.462337,193.087186 C152.724413,191.805547 152.43385,190.566103 152.121041,189.329653 C151.866561,188.322418 150.651136,184.349827 147.432431,184.923951 C145.904468,185.196721 144.519752,185.591721 143.186582,186.41847 C140.659692,187.985402 137.81945,188.701356 134.955063,189.382737 C132.56952,189.950328 130.157932,190.409029 127.730609,190.755844 C125.003228,191.145672 121.822504,191.371075 119.935612,193.66975 C119.466262,194.241424 119.129579,194.940227 119.074233,195.678776 C118.999083,196.687645 119.475758,197.557951 120.171643,198.248043 C119.632027,201.064219 122.434829,203.368067 125.105508,203.041668 C127.134563,202.793942 129.19563,201.768468 131.064075,200.990719 C131.981884,200.608513 132.896708,200.217053 133.802308,199.806536" id="Fill-55" fill="#E8364B"></path>
                        <path d="M141.503219,133.781948 C141.759869,133.578051 142.040122,133.392393 142.316848,133.208913 C142.51761,133.075522 142.706978,132.950026 142.887664,132.817996 C142.967969,132.758923 143.049087,132.696039 143.083543,132.624716 C143.138074,132.51147 143.094666,132.356574 143.044204,132.177177 C143.023043,132.102859 143.001339,132.025819 142.985874,131.946874 C142.874641,131.380372 143.123966,130.753436 143.652459,130.270235 C143.987786,129.963437 144.384156,129.746745 144.76696,129.537131 C144.87738,129.476969 144.98807,129.416263 145.096861,129.353651 C145.273207,129.25211 145.451722,129.141315 145.624269,129.03433 C146.116136,128.728892 146.624824,128.41311 147.198624,128.239975 C147.539377,128.136801 147.902377,128.086712 148.280569,128.087801 C148.277314,128.086984 148.274058,128.086167 148.270803,128.085623 C147.209205,127.842525 146.01467,127.995516 144.907765,128.516284 C143.770203,129.05148 142.927274,129.908991 142.594117,130.869132 C142.501875,131.134824 142.444902,131.410317 142.384673,131.701598 C142.309794,132.063114 142.232745,132.436608 142.082173,132.790229 C141.944082,133.115267 141.751187,133.406821 141.564533,133.688847 C141.543914,133.720153 141.523566,133.751187 141.503219,133.781948 M139.966574,136.242053 C139.99696,136.25022 140.026803,136.254847 140.055561,136.253214 C140.189583,136.245592 140.300545,136.100223 140.351549,135.96166 C140.23896,136.073817 140.107922,136.170185 139.966574,136.242053 M142.340451,141.766331 L142.338552,141.768237 C142.334754,141.841738 142.454669,141.944911 142.499705,141.98384 C142.591404,142.062785 142.683917,142.142547 142.777787,142.220404 C142.751742,142.081841 142.722171,141.953078 142.657601,141.85181 C142.621518,141.795187 142.533346,141.751903 142.443274,141.747275 C142.383859,141.744009 142.349675,141.758709 142.340451,141.766331 M149.391001,135.59715 C149.572501,135.55931 149.746405,135.535899 149.903759,135.522288 C150.168819,135.499149 150.439848,135.494521 150.702195,135.490165 C151.376919,135.479276 152.014203,135.468659 152.551649,135.163494 C153.096148,134.854246 153.487634,134.226221 153.57228,133.52415 C153.668863,132.725984 153.390238,131.998869 153.139556,131.529552 C152.673734,130.657068 151.906768,129.894563 150.91191,129.312272 C151.048917,129.49793 151.168832,129.694477 151.269484,129.900552 C151.84871,131.088274 151.723098,132.546315 150.956675,133.528506 C150.777074,133.758809 150.567902,133.960256 150.365512,134.15517 C150.109133,134.401806 149.867133,134.635104 149.688346,134.915496 C149.55568,135.124021 149.461811,135.354597 149.391001,135.59715 M148.336729,136.520812 C148.285724,136.563279 148.236619,136.608469 148.189684,136.657197 C147.797655,137.062269 147.588211,137.791562 147.915942,138.310969 C147.993805,138.434287 148.098527,138.544267 148.209217,138.661051 C148.241231,138.694807 148.273516,138.728836 148.305529,138.763408 C148.486215,138.174312 148.630004,137.525053 148.739609,136.806105 L148.769452,136.606291 C148.788715,136.476167 148.807977,136.345499 148.829681,136.21483 C148.65632,136.294048 148.488657,136.394227 148.336729,136.520812 M145.969092,142.374756 C146.347284,142.088647 146.666876,141.763881 146.93492,141.435032 C146.888528,141.467427 146.841864,141.4971 146.796557,141.525411 C146.758575,141.549367 146.720322,141.573595 146.683696,141.598912 C146.426504,141.776131 146.228726,142.03529 146.01874,142.309966 C146.00219,142.331472 145.985641,142.35325 145.969092,142.374756 M146.425419,142.546803 C146.134585,142.789084 145.825845,142.997881 145.501913,143.1702 C144.997294,143.438887 144.549378,143.556216 144.132389,143.530355 C143.6568,143.500138 143.237098,143.26684 143.006222,142.917574 C142.726783,142.732733 142.474474,142.514952 142.227319,142.302072 C142.124225,142.213326 141.909084,142.02794 141.919665,141.760887 C141.927804,141.561345 142.05857,141.403454 142.26096,141.348737 C142.501061,141.283675 142.846697,141.369426 143.01002,141.625863 C143.12885,141.812882 143.165475,142.015418 143.201016,142.211421 C143.224076,142.337733 143.245509,142.456696 143.288103,142.560142 C143.295971,142.57947 143.304924,142.598798 143.314148,142.617037 C143.413715,142.679377 143.515453,142.735455 143.62126,142.783639 C144.055611,142.982908 144.501629,143.010131 144.844824,142.858774 C145.189104,142.706327 145.431103,142.390001 145.686939,142.054891 C145.907778,141.766059 146.135941,141.467427 146.446851,141.253186 C146.48836,141.224874 146.530954,141.197379 146.574091,141.170429 C146.69482,141.093934 146.809037,141.022338 146.861941,140.926787 C146.879304,140.895753 146.891241,140.860636 146.900737,140.821708 C146.84295,140.720712 146.829385,140.599844 146.86601,140.477887 C146.899923,140.365185 146.973988,140.2582 147.070299,140.172449 C147.104483,140.120182 147.145721,140.072814 147.192927,140.030892 C147.202422,140.018097 147.213274,140.005575 147.22494,139.993869 C147.275945,139.941874 147.340786,139.908118 147.411866,139.893962 C147.437097,139.883345 147.462871,139.873817 147.489729,139.865378 C147.54209,139.76166 147.630805,139.675909 147.72983,139.625547 C147.826955,139.57573 147.926523,139.561302 148.016052,139.579814 C148.062715,139.465206 148.10748,139.348149 148.150617,139.228642 C148.08035,139.133363 147.995704,139.044073 147.906718,138.950427 C147.786803,138.824115 147.662819,138.693718 147.562709,138.535555 C147.163626,137.903447 147.30416,136.970257 147.889626,136.364827 C148.189684,136.054761 148.557296,135.854131 148.924907,135.72564 C149.009553,135.36358 149.131638,135.011048 149.336199,134.689549 C149.541573,134.366961 149.813144,134.105352 150.076034,133.852455 C150.276796,133.659174 150.466164,133.476783 150.627588,133.270164 C151.297428,132.411563 151.40432,131.131558 150.894004,130.085121 C150.647935,129.580143 150.270557,129.138048 149.805277,128.79096 C148.914327,128.474361 148.054034,128.419372 147.319081,128.641236 C146.798185,128.798582 146.334804,129.086597 145.844294,129.390946 C145.668762,129.500108 145.487534,129.61281 145.304677,129.717617 C145.193173,129.781862 145.080312,129.843657 144.96718,129.905725 C144.589259,130.112344 144.232499,130.30753 143.934069,130.580028 C143.610136,130.87621 143.298684,131.369755 143.39608,131.866023 C143.408289,131.92809 143.426737,131.993697 143.446271,132.063386 C143.510569,132.291784 143.58382,132.551215 143.459565,132.807652 C143.383329,132.965815 143.251206,133.070894 143.133733,133.156918 C142.945451,133.294664 142.743061,133.428871 142.547453,133.558723 C141.809788,134.048185 141.046621,134.55398 140.882213,135.350785 C140.864849,135.433542 140.85454,135.519838 140.843417,135.611306 C140.82524,135.761846 140.80652,135.91756 140.755244,136.073817 C140.668699,136.33706 140.439722,136.651208 140.079435,136.671897 C139.880844,136.683331 139.707754,136.598396 139.578886,136.522718 C139.497768,136.475623 139.419904,136.423627 139.345026,136.367549 C139.240032,136.355571 139.135582,136.325626 139.034387,136.273631 C138.5531,136.027539 138.45489,135.506226 138.40904,135.000159 C138.407683,134.994986 138.406327,134.989814 138.40497,134.984914 C138.381639,134.898346 138.360477,134.80715 138.339044,134.714594 C138.248701,134.321772 138.163242,133.951273 137.882717,133.850549 C137.788305,133.816793 137.671646,133.81761 137.548476,133.818154 C137.515106,133.818426 137.481736,133.818699 137.448637,133.818154 C136.948631,133.811621 136.553889,133.597923 136.17217,133.391032 C135.923116,133.25628 135.684643,133.127517 135.431249,133.065994 C135.478726,133.168896 135.539498,133.289219 135.586975,133.383682 C135.796961,133.799643 135.923659,134.065607 135.912807,134.247454 C135.905753,134.363422 135.806457,134.451351 135.691426,134.444273 C135.576666,134.437196 135.489307,134.33865 135.495276,134.223498 C135.493105,134.126042 135.318659,133.780042 135.214209,133.573151 C134.968953,133.086956 134.873456,132.883058 134.976821,132.721901 C135.023485,132.648672 135.105146,132.607566 135.194946,132.61056 C135.643677,132.6288 136.013188,132.828613 136.37049,133.021894 C136.723452,133.212996 137.056608,133.393482 137.453792,133.398654 C137.484449,133.399199 137.515106,133.398926 137.546305,133.398654 C137.686025,133.397837 137.843379,133.397021 137.999377,133.447383 C137.602464,132.877069 136.919602,132.540598 136.055782,132.256667 C135.634995,132.118376 135.229401,132.005675 134.896516,132.147504 C134.613279,132.267284 134.922018,133.299292 135.022942,133.638213 C135.060924,133.766431 135.09131,133.867971 135.10813,133.944195 C135.133361,134.057168 135.062552,134.169053 134.949691,134.194642 C134.837101,134.219415 134.725326,134.148636 134.700095,134.03539 C134.68653,133.973867 134.656687,133.87396 134.622232,133.757992 C134.429608,133.110911 134.108932,132.027453 134.733193,131.761216 C135.237812,131.546157 135.808627,131.733993 136.186006,131.858128 C137.430731,132.267828 138.606546,132.861553 138.779907,134.424129 C138.791573,134.528391 138.799983,134.637282 138.808123,134.747805 C138.812735,134.806606 138.817075,134.865135 138.821959,134.922846 C138.940246,135.322474 139.176819,135.681812 139.492613,135.949954 C139.750619,135.92981 140.023819,135.742246 140.183072,135.514393 C140.340697,135.289262 140.439451,135.025748 140.543901,134.746989 C140.605758,134.581475 140.670056,134.410517 140.74819,134.244732 C140.881127,133.964067 141.051504,133.706542 141.216183,133.457183 C141.400667,133.178151 141.574571,132.914909 141.697741,132.625533 C141.831763,132.310295 141.901488,131.97328 141.975281,131.616664 C142.03551,131.324838 142.097909,131.022939 142.199104,130.731113 C142.574583,129.649288 143.473672,128.728076 144.730335,128.136801 C145.921343,127.576016 147.211918,127.412953 148.363859,127.676467 C148.965602,127.814486 149.523938,128.070378 150.002512,128.416649 C150.293074,128.523362 150.585807,128.655119 150.877455,128.812194 C152.057882,129.448113 152.967552,130.318963 153.508253,131.331371 C153.78715,131.854317 154.096975,132.667728 153.987369,133.57424 C153.886988,134.406162 153.416282,135.154783 152.757566,135.528821 C152.127335,135.886254 151.406219,135.898232 150.708978,135.909665 C150.453955,135.913748 150.190523,135.918376 149.940384,135.940154 C149.742335,135.957577 149.515257,135.991061 149.283024,136.053673 C149.243685,136.257025 149.2133,136.463645 149.183185,136.668086 L149.1528,136.869806 C149.021762,137.729222 148.842432,138.494721 148.610471,139.180186 C148.775421,139.519379 148.784374,139.957391 148.480246,140.210561 C148.47889,140.211922 148.477805,140.213011 148.477805,140.213011 C148.476991,140.214916 148.477533,140.216005 148.477805,140.216822 C148.504663,140.267456 148.509547,140.327073 148.491641,140.381246 C148.473735,140.435964 148.434125,140.480609 148.382307,140.504837 C148.267818,140.559282 148.136238,140.582693 148.008727,140.575343 C147.580886,141.364526 147.043983,142.031479 146.425419,142.546803" id="Fill-57" fill="#FFFFFF"></path>
                        <path d="M136.563927,134.472612 C138.361834,135.407163 137.649399,136.112501 137.649399,136.112501 L128.775983,152.091884 C128.775983,152.091884 126.771617,155.579097 124.219767,153.479963 C121.667646,151.38083 122.964733,149.391676 122.964733,149.391676 C122.964733,149.391676 131.073896,134.185142 131.905431,133.219829 C132.736695,132.254788 133.088029,132.734178 133.088029,132.734178 C133.088029,132.734178 133.690587,133.034988 134.394339,133.386431 L136.563927,134.472612 Z" id="Fill-59" fill="#FFFFFF"></path>
                        <path d="M123.651746,152.966137 L123.206814,152.428491 C123.192978,151.275615 123.409746,150.232173 123.952618,149.215954 C124.518822,148.156179 125.07146,147.097493 125.606193,146.073652 C127.434214,142.572283 129.413078,138.856401 131.73595,135.300043 C132.076703,134.777913 132.355328,134.213589 132.624729,133.667504 C132.769332,133.374045 132.91909,133.070785 133.078343,132.773243 L133.446498,132.971967 C133.2905,133.262977 133.14237,133.563514 132.999395,133.853707 C132.724297,134.410953 132.440245,134.986983 132.085656,135.529801 C129.773093,139.07037 127.799655,142.775908 125.976518,146.268293 C125.441514,147.292951 124.888333,148.352726 124.321044,149.414135 C123.813441,150.364203 123.638181,151.866889 123.651746,152.966137" id="Fill-61" fill="#E8364B"></path>
                        <path d="M124.837871,153.889418 L124.362553,153.591875 C124.347631,152.385915 124.904882,150.850834 125.429848,149.868098 C125.699791,149.362575 125.991711,148.879102 126.273863,148.411418 C126.577176,147.908617 126.890528,147.388666 127.173223,146.847753 C127.780122,145.685349 128.369657,144.477755 128.93993,143.309906 C130.17109,140.788551 131.444031,138.181444 132.993698,135.808724 C133.313018,135.320078 133.53874,134.836333 133.777755,134.324276 C133.925343,134.008222 134.077813,133.681279 134.255786,133.349163 L134.623941,133.547616 C134.451665,133.869659 134.301365,134.191158 134.15649,134.50204 C133.921544,135.005113 133.679002,135.525064 133.343404,136.038755 C131.807844,138.389424 130.540872,140.984553 129.315409,143.494203 C128.74378,144.664774 128.152888,145.87509 127.543548,147.042394 C127.255156,147.595013 126.938006,148.120409 126.631436,148.628654 C126.352269,149.09171 126.063062,149.570555 125.798545,150.066006 C125.307491,150.984769 124.824034,152.763492 124.837871,153.889418" id="Fill-63" fill="#E8364B"></path>
                        <path d="M125.809017,154.149965 L125.362186,154.087626 C125.350248,153.103529 126.107176,152.233768 126.652218,151.280705 C126.774846,151.066464 126.890691,150.8642 126.987274,150.68317 C127.277294,150.140351 127.587661,149.475304 127.88799,148.832306 C128.160376,148.247837 128.442528,147.643768 128.705418,147.140151 C129.308247,145.985641 129.873637,144.829226 130.420849,143.710922 C131.646312,141.205356 132.803679,138.838624 134.358229,136.458554 C134.637126,136.031704 134.786341,135.589609 134.944509,135.121653 C135.074191,134.736998 135.208484,134.339548 135.421184,133.942643 L135.789338,134.141096 C135.593188,134.507239 135.464592,134.888083 135.340336,135.256405 C135.180812,135.728444 135.015861,136.216817 134.707935,136.688313 C133.167493,139.046877 132.015552,141.402175 130.795786,143.895763 C130.24776,145.016517 129.681014,146.175382 129.076014,147.334792 C128.817194,147.829971 128.537212,148.429957 128.266454,149.01007 C127.963683,149.658239 127.651145,150.328732 127.355699,150.881078 C127.256132,151.067552 127.138931,151.272539 127.014946,151.489502 C126.495135,152.398192 125.798165,153.281021 125.809017,154.149965" id="Fill-65" fill="#E8364B"></path>
                        <path d="M127.387957,153.636874 L127.104448,153.786598 L126.615294,154.007918 L126.615837,154.007374 C126.990774,153.695403 127.600385,152.464942 128.090625,151.476218 C128.370606,150.911349 128.635124,150.377787 128.831817,150.060371 C129.115868,149.601943 129.407516,149.075186 129.689668,148.565852 C129.987827,148.027933 130.296024,147.471232 130.600694,146.984764 C131.722521,145.193246 132.492471,143.469784 133.307728,141.645327 C133.965088,140.174219 134.644695,138.652749 135.531576,137.073839 C135.834889,136.533471 136.156651,136.032575 136.467833,135.548558 C136.631155,135.294026 136.800175,135.031056 136.964583,134.765364 L137.319987,134.986411 C137.15368,135.25537 136.983574,135.519702 136.819166,135.775866 C136.511241,136.254711 136.193005,136.750162 135.89566,137.279914 C135.018276,138.841945 134.342738,140.354432 133.689176,141.816829 C132.867679,143.655442 132.09176,145.391699 130.95447,147.207989 C130.656039,147.684929 130.350555,148.236458 130.055109,148.769749 C129.770516,149.283439 129.476155,149.814551 129.186677,150.281963 C129.000566,150.582228 128.740389,151.107352 128.464748,151.663237 C127.904784,152.792974 127.830719,153.26828 127.387957,153.636874" id="Fill-67" fill="#E8364B"></path>
                        <path d="M130.84755,217.469582 L128.375191,198.823202 C128.059127,196.441771 126.459812,194.466228 124.200695,193.66779 L99.4469923,184.926619 L99.9996308,183.352337 L124.753605,192.093508 C127.606327,193.100199 129.626428,195.595148 130.025511,198.603516 L132.497869,217.249623 L130.84755,217.469582 Z" id="Fill-69" fill="#77122A"></path>
                    </g>
                </g>
                <g id="Group-52" transform="translate(209.000000, 8.000000)">
                    <path d="M73.9031713,213.038702 C73.2102137,214.822633 70.7096235,215.449678 66.9528772,216.758221 C63.2073077,218.055601 57.0797305,220.899491 54.1893175,221.786011 C51.2989046,222.672804 50.5086276,220.575214 51.7860467,219.656021 C53.0634659,218.7371 55.1636018,216.595946 56.6250281,214.844415 C58.0973586,213.092612 61.9623284,209.383711 62.027208,208.399989 C62.0381121,208.162023 62.0381121,207.924056 62.0163039,207.686362 C61.9080803,206.345418 61.3018106,205.14524 61.3018106,205.14524 L64.4847269,203.707367 L67.9598739,203.242325 C67.9598739,203.242325 68.5012641,204.161518 69.3455165,205.415607 C69.6919953,205.956068 70.1033537,206.550984 70.5471519,207.16741 C72.2143938,209.492076 74.2605542,212.097999 73.9031713,213.038702" id="Fill-1" fill="#FFA17E"></path>
                    <path d="M24.0364743,220.490047 C22.7805909,221.917301 20.2148485,221.657825 16.2419278,221.603915 C12.2687345,221.549733 5.53488748,222.133486 2.51471538,221.971483 C-0.50572932,221.8201 -0.527264981,219.581745 0.988136834,219.159994 C2.50381125,218.727625 5.21021694,217.430245 7.19149782,216.283976 C9.16187456,215.137707 14.5098063,212.975044 14.7695973,212.023723 C15.0402924,211.08302 14.7262534,208.498879 14.7262534,208.498879 L18.3745035,208.498879 L21.6332035,208.671772 C21.6332035,208.671772 21.9578741,210.217737 22.4234805,212.023723 C22.5641438,212.607476 22.7266154,213.223902 22.8999911,213.818545 C23.6684598,216.575852 24.6967195,219.72251 24.0364743,220.490047" id="Fill-3" fill="#FFA17E"></path>
                    <path d="M68.6544944,203.242189 C65.8504967,204.690953 62.365536,205.492796 61.1096525,205.654798 C60.6658543,204.724987 60.2005205,203.740993 59.7455455,202.72487 L32.7188353,150.098888 L49.5098363,146.520133 C49.5098363,146.520133 49.3364606,147.244379 50.7330074,150.174852 C52.1295542,153.126834 55.0093356,155.494518 60.9959769,171.248769 C66.7770754,186.570651 66.6841176,195.565184 68.6544944,203.242189" id="Fill-5" fill="#FF9A00"></path>
                    <path d="M12.8386935,96.0975186 C12.8386935,96.0975186 19.2759481,130.816117 32.7182901,150.096029 C39.8637681,150.643297 44.8346895,148.320265 49.5131076,146.52272 C49.3301908,145.393877 48.6546797,137.95266 49.0785779,129.225771 C49.3394593,123.85165 50.7935253,117.027676 50.7321896,111.202943 C50.6310538,101.612949 49.8058835,93.95936 47.3208317,89.7941302 L12.8386935,96.0975186 Z" id="Fill-7" fill="#FF9A00"></path>
                    <path d="M38.5874667,116.671407 C44.2608868,102.790666 42.6942356,106.838818 46.3119541,92.2398209 L13.0532596,89.8911954 C13.0532596,89.8911954 7.82772669,109.472241 4.93158909,142.807693 C4.78547372,144.487072 4.85144372,146.181698 5.11532373,147.846374 L13.925045,203.470898 C14.141492,205.471287 14.4230912,207.385092 14.6504424,209.007022 C16.4798832,209.450282 19.0458982,209.688248 21.9796551,208.888038 C22.0011907,208.412105 22.0120949,207.979736 21.9902866,207.601277 C22.3043256,199.502521 25.9525757,190.841523 25.1192274,174.006076 C24.2637982,157.181249 22.1527582,153.410814 21.7198641,150.177574 C21.2976016,146.955498 21.5170472,145.776284 21.5170472,145.776284 C22.0339031,141.590634 36.9807427,120.610106 38.5874667,116.671407" id="Fill-9" fill="#FF9A00"></path>
                    <path d="M50.4083096,99.8721186 C50.4083096,99.8721186 19.3740581,106.314638 10.5190847,98.2951143 C11.976422,91.8751931 13.8666534,87.8499115 15.4155854,80.4168631 C16.9645174,72.9764633 15.9054535,67.3494006 15.9054535,67.3494006 L42.4466572,66.2627597 C42.4466572,67.9609254 42.5693287,69.7454016 42.8214868,71.6306187 C43.217852,74.6457681 44.2556528,78.9133725 45.7397053,82.3464607 C49.5962243,91.2669356 50.4083096,99.8721186 50.4083096,99.8721186" id="Fill-11" fill="#FFFFFF"></path>
                    <path d="M46.2002686,54.792613 C46.2002686,54.792613 42.4901375,68.1263584 43.1743718,72.796382 C43.1743718,72.796382 33.3402073,76.4445658 16.2008192,72.8685343 C16.2008192,72.8685343 15.7829183,57.5055396 13.6217193,53.7925549 C13.6217193,53.7925549 14.0393475,52.3533207 14.3997291,50.1729598 C16.085508,50.7774055 17.2814187,50.1370198 17.3462983,47.1940227 C17.5840084,36.7025336 16.4314416,35.6017345 16.4314416,35.6017345 L26.2511581,33.6228555 L36.3734643,33.8888661 C36.3734643,33.8888661 41.8271662,35.3713917 47.4395232,37.6092021 C47.4395232,37.6092021 43.8659664,47.9207189 46.2002686,54.792613" id="Fill-13" fill="#FFFFFF"></path>
                    <path d="M16.4313871,35.6016528 C16.4313871,35.6016528 10.4908157,36.742476 9.66482767,45.071302 C9.07355109,51.0327158 11.8573761,73.9379404 11.8573761,73.9379404 C11.8573761,73.9379404 15.3019916,71.7360699 16.308443,68.0511294 C17.3146218,64.3661888 16.2525593,58.1687145 16.6996288,55.488733 C17.1469708,52.8087515 17.5844991,48.2122415 17.6188471,45.3051844 C17.6526499,42.4569383 17.7090788,36.6101514 16.4313871,35.6016528" id="Fill-15" fill="#FFFFFF"></path>
                    <path d="M55.4955236,78.4096405 C56.1958415,75.9036413 56.5142422,70.6675624 56.0919796,66.5328271 C55.6408211,62.1176508 54.5149695,55.9114638 53.2048379,46.8445061 C51.894979,37.7778207 45.9650392,37.0832527 45.9650392,37.0832527 C40.4161987,45.3126991 46.2002958,54.7926947 46.2002958,54.7926947 L46.7291462,75.3857784 C46.7291462,75.3857784 52.9387771,73.6113763 55.4955236,78.4096405" id="Fill-17" fill="#FFA17E"></path>
                    <path d="M43.1008779,57.3869375 C50.2054655,59.3241588 55.6406303,56.9365983 55.6406303,56.9365983 C55.6406303,56.9365983 55.0518072,53.7695206 54.4002852,49.8632223 C53.5609396,44.8294421 51.7974688,38.6711751 45.9651209,37.0832799 C45.9651209,37.0832799 43.4391787,38.8252815 42.7625772,42.542078 C42.0859758,46.2588745 43.1008779,57.3869375 43.1008779,57.3869375" id="Fill-19" fill="#FFFFFF"></path>
                    <polygon id="Fill-21" fill="#EA7F3B" points="45.710564 84.7726839 6.81416031 79.9349402 11.3025739 43.9355703 50.1987049 48.7730418"></polygon>
                    <polygon id="Fill-23" fill="#F49750" points="49.5019854 54.3621497 10.6055817 49.5244059 11.3026284 43.9354614 50.1987594 48.7732052"></polygon>
                    <polygon id="Fill-25" fill="#EA7F3B" points="50.5462196 52.744604 10.3996572 47.7513925 11.0871627 42.2356893 51.2339978 47.2289009"></polygon>
                    <path d="M14.8885614,51.2381729 C13.427135,53.19527 11.748989,53.779023 11.748989,53.779023 C11.748989,53.779023 11.0129601,55.9740866 9.99533193,56.6662041 C9.80042056,56.795806 9.67066138,57.1094643 9.60578179,57.5636154 L10.9914244,46.4156764 C11.9008291,46.3399845 12.8533051,46.372385 13.5787025,46.6209701 C15.5381751,47.3130876 16.3936043,49.2053839 14.8885614,51.2381729" id="Fill-27" fill="#EA7F3B"></path>
                    <path d="M15.664036,50.8204791 C14.2026097,52.7775762 11.7491799,53.7789957 11.7491799,53.7789957 C11.7491799,53.7789957 11.0128783,55.9740593 9.99525015,56.6661769 C9.80033878,56.7957788 9.6705796,57.1094371 9.60570001,57.5635881 C9.59479588,57.6283891 9.58389175,57.7040809 9.57326022,57.7691541 C9.57326022,57.8015546 9.56235609,57.8339551 9.56235609,57.8663555 L7.21605937,76.7117199 C5.27784982,76.1742533 2.43868632,69.9982886 2.7745336,65.824346 C3.11010828,61.6506757 6.0005212,55.865967 6.26031216,51.8436804 C6.52037572,47.8320124 6.39034394,47.3348422 8.00333774,46.9237103 C8.00333774,46.9237103 11.3506338,45.6336816 14.3541771,46.2032763 C16.3959759,46.5907206 17.1688063,48.7876901 15.664036,50.8204791" id="Fill-29" fill="#FFA17E"></path>
                    <path d="M35.3791983,28.0095154 C35.3791983,28.0095154 34.8620698,32.3416484 35.88515,33.4770262 C37.3632052,34.2151578 38.8216329,34.6069584 38.8216329,34.6069584 C38.8216329,34.6069584 35.2099116,41.0775224 29.581471,40.0515983 C25.0799725,39.230968 24.7572102,33.9251873 24.7572102,33.9251873 C24.7572102,33.9251873 26.5277687,33.6382117 26.7455788,33.2978706 C26.9631162,32.9569851 26.7455788,30.5726918 26.7455788,30.5726918 L35.3791983,28.0095154 Z" id="Fill-31" fill="#FFA17E"></path>
                    <path d="M23.4478692,8.1955404 C21.9163838,10.533275 22.8077967,13.0787537 22.5221084,15.8578425 C22.3252888,17.7689256 19.4193375,29.2964129 25.5428257,30.6310944 C27.7825345,31.1192795 33.4226971,30.5232743 36.5401885,28.3197702 C39.6582252,26.1159939 41.7019323,22.4637261 41.9480931,18.6568073 C42.0369617,17.2837354 41.9042039,15.9019507 41.632691,14.5528388 C40.9342813,11.0848997 39.1697201,7.66297473 36.1514562,5.81342536 C33.1326471,3.96360371 28.7480954,4.15092742 26.4456879,6.83826031" id="Fill-33" fill="#FFA17E"></path>
                    <path d="M32.4062411,2.44856874 C32.2377722,2.10931679 31.838681,2.10060406 31.4867501,2.16050408 C29.3765279,2.51827059 27.2232343,4.44650681 26.1249156,6.96230782 C25.7623531,7.79273997 25.5058334,8.75086807 25.7018352,9.52766248 C25.8225985,10.0057736 26.1017443,10.3610896 26.3928846,10.6761093 C30.08148,14.6654509 36.4257769,14.1078361 39.741451,18.5807343 C40.646494,16.0891655 40.8054217,13.4007436 40.4096017,11.0325144 C40.0140543,8.66374077 39.0896565,6.59610085 37.9332732,4.81979287 C36.9794343,3.35496501 35.6524013,1.99414538 33.9696211,2.38213417" id="Fill-35" fill="#FFFFFF"></path>
                    <path d="M37.6051406,14.2654549 C38.4684753,15.2747703 38.8612967,16.669624 38.6511195,17.9806177 C38.4395794,19.2967846 37.6585709,20.6036942 38.0448498,21.8801093 C38.0745635,21.9781275 38.1149088,22.0796853 38.1966898,22.1412189 C38.5535276,22.4080463 38.9632503,21.6426874 39.3931458,21.7608538 C39.7679753,22.4831936 39.6008695,23.3688971 39.2914647,24.121187 C38.98206,24.8734768 38.5379892,25.5778467 38.3564354,26.3707052 C38.3294476,26.4888716 38.3087298,26.6141171 38.3477121,26.7287439 C38.4286752,26.9669827 38.7192704,27.0522041 38.9700654,27.0772532 C40.5075481,27.2305428 41.983695,26.4251597 43.1823318,25.4512398 C46.1929628,23.0054129 48.1216312,19.3297296 48.630309,15.4871431 C48.7802408,14.3536713 48.8102272,13.1823535 48.4850114,12.0861831 C48.1597957,10.9900127 47.4393051,9.97171224 46.4017769,9.48924478 C46.6994597,8.04728784 46.8943711,6.47355085 46.222404,5.16337396 C45.7826948,4.30516998 45.0183151,3.66260609 44.2403053,3.09246677 C40.4156808,0.290507016 33.719453,-1.62602148 29.7203624,1.95436632 C29.0762008,2.53104018 28.5391723,3.25828093 28.3589815,4.09878717 C27.9808807,5.86393197 29.2179545,7.57543901 30.4735654,8.92727365 C32.1871498,10.7721944 34.0771086,12.4611028 36.1096389,13.963232" id="Fill-37" fill="#FFFFFF"></path>
                    <path d="M30.0647694,3.0078716 C27.4033433,2.13224216 24.1179282,3.72231552 23.1632714,5.75619361 C21.1334671,10.0812476 22.0540485,14.2287797 22.5221084,15.8577881 C22.9105681,12.5798954 23.2938484,11.6408264 24.3335574,9.76268839 C25.3732664,7.88509491 27.7021165,6.74508855 29.5222889,5.60508218" id="Fill-39" fill="#FFFFFF"></path>
                    <path d="M36.0322195,25.2440946 C36.77888,23.9595114 37.867385,21.5534363 38.0903745,21.4690317 C38.5407152,21.2985889 38.9997792,21.125968 39.4803788,21.1025525 C39.9612511,21.0785925 40.4756535,21.2275257 40.779061,21.6008118 C41.0655671,21.9539497 41.1184521,22.4418626 41.0898288,22.8957414 C40.990056,24.4879929 39.9680662,25.9898499 38.5227234,26.6680815 C37.9409879,26.9414435 37.2480303,27.0832976 36.660025,26.8243662 C36.0720196,26.5654347 35.6971901,25.791363 36.0322195,25.2440946" id="Fill-41" fill="#FFA17E"></path>
                    <path d="M54.7531975,73.859553 C52.1569235,72.0255232 48.5465653,73.9352449 46.9169427,75.2269072 C45.2875927,76.5188418 42.1864574,80.6633789 41.6597878,80.9552554 C39.1161263,82.3656287 37.0721466,81.7086343 34.9842779,81.3881692 L34.9861861,81.3862633 C34.9861861,81.3862633 34.9731011,81.385991 34.9706477,81.385991 C34.3403888,81.2898787 33.7041327,81.2321569 33.05043,81.2651019 C32.5818249,81.2199046 32.0619704,81.1597323 31.5072226,81.0742386 C29.7704669,80.6462257 27.8764191,80.2454401 27.1485683,80.6799876 C25.5925485,81.6089825 29.2994084,82.7315634 29.2994084,82.7315634 C23.6472513,81.3895306 21.3306684,81.6490066 22.3600185,82.4268901 C23.6622445,83.4108841 26.5474779,83.8889952 29.296955,84.4643077 C31.4218978,84.9089292 38.5392977,85.6633973 41.7129454,85.5455031 C43.8774157,85.4654549 46.1732808,85.3954808 50.2465195,83.8495156 C53.1557421,82.7454493 55.3810029,80.1977924 55.7800942,77.1153916 C55.9646466,75.6881374 55.6928611,74.5233542 54.7531975,73.859553" id="Fill-43" fill="#FFA17E"></path>
                    <path d="M24.0364743,220.490047 C22.7805909,221.917301 20.2148485,221.657825 16.2419278,221.603915 C12.2687345,221.549733 5.53488748,222.133486 2.51471538,221.971483 C-0.50572932,221.8201 -0.527264981,219.581745 0.988136834,219.159994 C2.50381125,218.727625 5.21021694,217.430245 7.19149782,216.283976 C9.16187456,215.137707 14.5098063,212.975044 14.7695973,212.023723 C14.7695973,212.023723 18.580319,212.694059 22.4234805,212.023723 C22.5641438,212.607476 23.3301591,213.681592 23.5466062,214.262078 C24.8322034,217.708507 24.6967195,219.72251 24.0364743,220.490047" id="Fill-45" fill="#FFFFFF"></path>
                    <g id="Group-49" transform="translate(51.195109, 205.415607)">
                        <mask id="mask-6" fill="white">
                            <use xlink:href="#path-5"></use>
                        </mask>
                        <g id="Clip-48"></g>
                        <path d="M22.7080624,7.62309486 C22.0151048,9.40702648 19.5145146,10.0340708 15.7577683,11.3426141 C12.0121988,12.6399941 5.88462154,15.4838839 2.99420862,16.3704043 C0.103795693,17.2571969 -0.686481311,15.159607 0.590937812,14.2404139 C1.86835694,13.321493 3.96849286,11.1803395 5.42991921,9.42880831 C6.90224971,7.67700488 10.7672195,3.96810431 10.8320991,2.98438255 C10.8430032,2.7464161 10.8430032,2.50844964 10.8211949,2.27075545 C10.8211949,2.27075545 15.4221936,2.78970748 18.1504076,0 C18.4968864,0.540461579 19.5338694,1.43242739 20.0529061,1.98704716 C22.4888893,4.5886141 23.0654453,6.68239221 22.7080624,7.62309486" id="Fill-47" fill="#FFFFFF" mask="url(#mask-6)"></path>
                    </g>
                    <path d="M43.5584971,5.37310573 C43.5584971,5.37310573 48.0152887,-0.429845226 52.7539521,1.34074503 C59.2042916,3.75117644 60.98112,17.0625954 46.6192871,15.5776193" id="Fill-50" fill="#FFFFFF"></path>
                </g>
            </g>
        </g>
    </g>
</svg>