<svg id="Calque_1" data-name="Calque 1" xmlns="http://www.w3.org/2000/svg" xmlns:xlink="http://www.w3.org/1999/xlink" viewBox="0 0 136.73 134.82"><defs><style>.cls-1{fill:none;}.cls-2{fill:#e73669;}.cls-3{clip-path:url(#clip-path);}</style><clipPath id="clip-path" transform="translate(-229 -355.07)"><rect class="cls-1" x="229" y="355.07" width="136.73" height="134.82"/></clipPath></defs><title>BDF-LOGO</title><metadata><?xpacket begin="﻿" id="W5M0MpCehiHzreSzNTczkc9d"?>
<x:xmpmeta xmlns:x="adobe:ns:meta/" x:xmptk="Adobe XMP Core 5.6-c111 79.158366, 2015/09/25-01:12:00        ">
   <rdf:RDF xmlns:rdf="http://www.w3.org/1999/02/22-rdf-syntax-ns#">
      <rdf:Description rdf:about="" xmlns:dc="http://purl.org/dc/elements/1.1/">
         <dc:title>
            <rdf:Alt>
               <rdf:li xml:lang="x-default">BDF-LOGO</rdf:li>
            </rdf:Alt>
         </dc:title>
      </rdf:Description>
   </rdf:RDF>
</x:xmpmeta>
                                                                                                    
                                                                                                    
                                                                                                    
                                                                                                    
                                                                                                    
                                                                                                    
                                                                                                    
                                                                                                    
                                                                                                    
                                                                                                    
                                                                                                    
                                                                                                    
                                                                                                    
                                                                                                    
                                                                                                    
                                                                                                    
                                                                                                    
                                                                                                    
                                                                                                    
                                                                                                    
                           
<?xpacket end="w"?></metadata>
<rect class="cls-2" x="1.43" y="0.86" width="17.34" height="104.93"/><g class="cls-3"><path class="cls-2" d="M338.57,370.74c0-12.09,5.26-15.46,5.88-15.3-7.79-1.95-21.28,3.69-21.28,20.62,0,26.6,28.34,53.82,28.34,71.19a22.86,22.86,0,0,1-4.58,14c10.55,0,18.79-13.13,18.79-25.77,0-22.51-27.16-43.16-27.16-64.76" transform="translate(-229 -355.07)"/><path class="cls-2" d="M271.17,383v-1.52c0-15.4-3.46-25.45-19.36-25.45,1.29,2.14,1.56,8.46,1.61,17.09,0,2.7,0,68.34,0,71-0.05,8.63-.31,14.83-1.6,17,15.9,0,19.36-10,19.36-25.36v-2.37c0-14.12-2.92-23.74-15.66-25.24,12.75-1.49,15.66-11,15.66-25.15" transform="translate(-229 -355.07)"/><path class="cls-2" d="M336,460.19a31.75,31.75,0,0,0,8.83,1.08,5.5,5.5,0,0,1-1.11-4.32c0.62-3.78,3.46-6.76,2.44-11.87-1.47-7.37-7.2-11.33-14.27-8.29a11.27,11.27,0,0,0-6.11,10.28c0,5,2.42,10.84,10.22,13.12" transform="translate(-229 -355.07)"/><path class="cls-2" d="M318.19,355.63c0.84,0,1,0,1.47,0,0,0-1.55,1.64-1.55,7v80c-0.84,12.95-8.38,18.06-17.6,18.51V374.15c0.84-12.95,7.63-18.06,17.68-18.51" transform="translate(-229 -355.07)"/><path class="cls-2" d="M277.13,355.63c-0.84,0-1,0-1.47,0,0,0,1.55,1.64,1.55,7v80c0.84,12.95,8.38,18.06,17.6,18.51V374.15c-0.84-12.95-7.63-18.06-17.68-18.51" transform="translate(-229 -355.07)"/><path class="cls-2" d="M359.85,484.86c1.27,0.23,1.72.69,1.72,1.3s-0.77,1.34-2.15,1.34a4.32,4.32,0,0,1-3.48-1.78l-1.8,1.81a6.53,6.53,0,0,0,5.12,2.36c3,0,4.91-1.51,4.91-3.77s-1.44-3.41-4.15-3.85l-1.21-.19c-1.3-.23-1.76-0.7-1.76-1.3s0.7-1.21,1.81-1.21A4.31,4.31,0,0,1,362,481l1.76-1.85a6.46,6.46,0,0,0-4.75-2c-2.34,0-4.56,1.34-4.56,3.73,0,2.11,1.58,3.31,3.89,3.7Zm-19,4.84H350v-2.41H343.5v-2.69h6.18v-2.38H343.5v-2.45H350v-2.41h-9.1V489.7Zm-12.34-2.5h2.32l2.36-4.51v7h2.6V477.36h-2.6l-3.52,6.92-3.5-6.92h-2.62V489.7h2.62v-7Zm-17.3,0h2.32l2.36-4.51v7h2.61V477.36h-2.61l-3.52,6.92-3.5-6.92h-2.62V489.7h2.62v-7Zm-19,2.5h9.1v-2.41h-6.48v-2.69H301v-2.38h-6.18v-2.45h6.48v-2.41h-9.1V489.7Zm-10.24,0v-4.86h5.47v-2.39H282v-2.67h5.88v-2.41h-8.5V489.7H282Zm-18.69-4.84c1.27,0.23,1.72.69,1.72,1.3s-0.77,1.34-2.15,1.34a4.32,4.32,0,0,1-3.49-1.78l-1.8,1.81a6.53,6.53,0,0,0,5.12,2.36c3,0,4.91-1.51,4.91-3.77s-1.44-3.41-4.15-3.85l-1.21-.19c-1.3-.23-1.76-0.7-1.76-1.3s0.7-1.21,1.81-1.21a4.31,4.31,0,0,1,3.13,1.43l1.76-1.85a6.46,6.46,0,0,0-4.75-2c-2.34,0-4.56,1.34-4.56,3.73,0,2.11,1.58,3.31,3.89,3.7Zm-19,4.84h9.1v-2.41h-6.48v-2.69h6.18v-2.38h-6.18v-2.45h6.48v-2.41h-9.1V489.7Zm-11.65-9.93c2.64,0,4.63.91,4.63,3.68s-2,3.84-4.61,3.84h-1.06v-7.51h1ZM229,489.7h4.07c3.33,0,6.88-1.76,6.88-6.25s-3.55-6.09-6.88-6.09H229V489.7Z" transform="translate(-229 -355.07)"/></g></svg>