<svg id="Calque_1" data-name="Calque 1" xmlns="http://www.w3.org/2000/svg" viewBox="0 0 404.59 95.6"><defs><style>.cls-1{fill:#13110c;}</style></defs><path class="cls-1" d="M152.49,80.65q0-10.22.07-20.46,0-24.61,0-49.23V8.18c3.81,0,7.5-.06,11.18.07.51,0,1.08.93,1.47,1.53q15,23.28,29.94,46.59c.56.86,1.14,1.71,1.85,2.78,3-4.63,5.9-9.1,8.79-13.59q11.52-17.89,23-35.81a3,3,0,0,1,3-1.64c3.15.12,6.31,0,9.69,0v72.5h-14.9V41.93a3.9,3.9,0,0,0-1.56,1.5q-8.66,13.45-17.29,26.92c-2.18,3.41-4.27,6.87-6.4,10.3h-8.69a7.59,7.59,0,0,0-.51-1.28q-11.7-18.24-23.43-36.46A10.05,10.05,0,0,0,168,42l-.41.12v2.18q0,16.93,0,33.88c0,.82-.12,1.64-.2,2.45Z"/><path class="cls-1" d="M80.06,80.65c0-7,.06-14.06.06-21.09q0-24.31,0-48.61V8.32h60V23.08H95.29v13.7h44.86V51.86H95.33V65.45h44.75v15.2Z"/><path class="cls-1" d="M356.14,80.66c-2.41-.46-4.85-.83-7.23-1.4-13.23-3.16-22.18-13.11-24.2-26.75a49.68,49.68,0,0,1,.82-20.1c3-11.45,10.22-19,21.53-22.47a46.16,46.16,0,0,1,25.53-.28c13.79,3.67,22.77,15.06,23.7,29.72.06.79.27,1.58.41,2.37v5q-.42,2.94-.82,5.88a31.1,31.1,0,0,1-23.65,26.5c-2.57.65-5.21,1-7.82,1.57Zm3.51-15c2.12-.12,3.64-.17,5.14-.32,9.14-.91,14.92-6.12,16.17-15.18a44.35,44.35,0,0,0,0-11.51c-1-8.31-5.68-13.08-13.87-14.84a32.06,32.06,0,0,0-15,.29A15.89,15.89,0,0,0,340,36.33a33.49,33.49,0,0,0-.26,15c1.56,7.64,6.27,12.23,13.95,13.64,2.16.4,4.36.52,6,.7"/><path class="cls-1" d="M253.9,80.66a20.6,20.6,0,0,1-.2-2q0-34.12,0-68.24v-2a7.13,7.13,0,0,1,1-.18c13.17,0,26.34-.18,39.5.12,14,.32,23.45,10.21,23.78,24.23.15,6.41-.82,12.54-4.68,17.85-4.84,6.66-11.75,9.36-19.7,9.56-7.64.19-15.3,0-22.95,0H268.8v20.7Zm14.94-57.54V44.7c9,0,17.85.17,26.71-.08,3.87-.11,6.37-2.76,7-6.53a27,27,0,0,0,0-8.17,7.35,7.35,0,0,0-6.66-6.4,39.62,39.62,0,0,0-5.76-.38c-7-.05-14,0-21.21,0"/><path class="cls-1" d="M9.69,8.22l31.23-.07h29V23.06h-45V36.74h45v15H24.8v2.62c0,7.93,0,15.86,0,23.79,0,.82-.12,1.64-.2,2.45H9.69Z"/></svg>