<?xml version="1.0" encoding="UTF-8"?>
<!-- Generator: Adobe Illustrator 25.3.1, SVG Export Plug-In . SVG Version: 6.00 Build 0)  -->
<svg version="1.1" id="Layer_1" xmlns="http://www.w3.org/2000/svg" xmlns:xlink="http://www.w3.org/1999/xlink" x="0px" y="0px" viewBox="0 0 473.9 454.5" style="enable-background:new 0 0 473.9 454.5;" xml:space="preserve">
<style type="text/css">
	.st0{fill:#CDC3C1;}
</style>
<g>
	<g>
		<g>
			<polygon points="220.2,294.9 258.7,294.9 258.7,290.1 226.8,290.1 226.8,275.1 250.8,275.1 250.8,270.3 226.8,270.3 226.8,256.5      258.7,256.5 258.7,251.7 220.2,251.7    "/>
			<polygon points="240.2,244.9 234.9,250.7 251.3,244.9    "/>
			<polygon points="323.2,290.1 323.2,251.7 317.2,251.7 317.2,294.9 356.1,294.9 356.1,290.1    "/>
			<path d="M283.6,251.7l-21.9,43.2h7.4l5.6-11.1h26.2l5.7,11.1h7.3L292,251.7H283.6z M277.5,278.3l10.3-20.5l10.4,20.5H277.5z"/>
			<path d="M199.3,276.9c9.8-2.7,10.8-10,10.8-12.6c-0.6-7.7-5.7-12.6-15-12.6h-27.2v43.2h6.2v-18h17.6l13,18h7.8     C212.5,294.9,203.2,282.7,199.3,276.9z M194.2,271.7h-20.1v-14.8h20.8c4.7,0,7.5,2.2,8.4,5c0.6,2,0.2,4.5-0.8,6.3     C200.7,271.1,197.4,271.7,194.2,271.7z"/>
			<path d="M130.7,244.5c-17.4,0-29.3,12.3-29.3,27.2c0,15.7,13.1,26.7,29.3,26.7c16.3,0,29.3-10.9,29.3-26.7     C160,256.9,148.1,244.5,130.7,244.5z M130.5,293.1c-12,0-21.9-9.7-21.9-21.4c0-11.7,9.5-21.8,22.4-21.8     c12.7,0,22.1,10.1,22.1,21.8C153,283.4,142.6,293.1,130.5,293.1z"/>
			<polygon points="85.8,267.1 90.3,267.1 98.4,251.7 91.9,251.7    "/>
			<polygon points="64,290.1 64,251.7 58,251.7 58,294.9 96.9,294.9 96.9,290.1    "/>
		</g>
	</g>
	<g>
		<path class="st0" d="M63.2,204.4v13.1h15.9v4.7H63.2v13.2H58v-35.6h23.3v4.7H63.2z"/>
		<path class="st0" d="M84.6,217.6c0-10.3,7.9-18.3,18.6-18.3c10.7,0,18.5,7.9,18.5,18.3c0,10.4-7.8,18.2-18.5,18.2    C92.5,235.8,84.6,227.9,84.6,217.6z M116.5,217.6c0-7.6-5.7-13.5-13.2-13.5c-7.6,0-13.3,5.9-13.3,13.5c0,7.8,5.7,13.4,13.3,13.4    C110.8,231,116.5,225.4,116.5,217.6z"/>
		<path class="st0" d="M159.8,199.8v36h-3l-22.7-26.7v26.3H129v-36h3.1l22.6,26.7v-26.4H159.8z"/>
		<path class="st0" d="M200.8,217.5c0,10.7-7.4,17.8-18.6,17.8h-12.9v-35.6h12.9C193.3,199.8,200.8,206.8,200.8,217.5z M195.5,217.6    c0-7.9-5.2-13.2-13.4-13.2h-7.6v26.3h7.6C190.3,230.7,195.5,225.4,195.5,217.6z"/>
		<path class="st0" d="M228.2,227.9h-17.1l-3.1,7.5h-5.5l15.3-35.6h3.9l15.2,35.6h-5.6L228.2,227.9z M212.9,223.4h13.5l-6.7-16.3    L212.9,223.4z"/>
		<path class="st0" d="M263.5,204.4h-12v31h-5.3v-31h-12.2v-4.7h29.4V204.4z"/>
		<path class="st0" d="M268.8,199.8h5.2v35.6h-5.2V199.8z"/>
		<path class="st0" d="M281.2,217.6c0-10.3,7.9-18.3,18.6-18.3c10.7,0,18.5,7.9,18.5,18.3c0,10.4-7.8,18.2-18.5,18.2    C289,235.8,281.2,227.9,281.2,217.6z M313,217.6c0-7.6-5.7-13.5-13.2-13.5c-7.6,0-13.3,5.9-13.3,13.5c0,7.8,5.7,13.4,13.3,13.4    C307.4,231,313,225.4,313,217.6z"/>
		<path class="st0" d="M356.3,199.8v36h-3l-22.7-26.7v26.3h-5.1v-36h3.1l22.6,26.7v-26.4H356.3z"/>
	</g>
	<path class="st0" d="M325.3,396.6l-2.5-4.3c54.4-31.5,88.1-90.1,88.1-152.9c0-97.4-79.2-176.6-176.6-176.6   c-62.8,0-121.3,33.8-152.9,88.1l-4.3-2.5c32.4-55.9,92.6-90.6,157.1-90.6c100.1,0,181.6,81.5,181.6,181.6   C415.9,304,381.2,364.2,325.3,396.6z"/>
</g>
</svg>