<svg id="Groupe_2" data-name="Groupe 2" xmlns="http://www.w3.org/2000/svg" width="180" height="57.38" viewBox="0 0 110 35.073">
  <g id="Groupe_33" data-name="Groupe 33">
    <path id="Tracé_1" data-name="Tracé 1" d="M9.454,9.418a6.781,6.781,0,0,0-5.184,2.39h0l0-8.1c-.008-.088-.021-.231-.029-.319A4.3,4.3,0,0,0,.493,0H0V25.27H4.269V12.384c.018-.017.038-.038.056-.052A4.554,4.554,0,0,1,7.61,10.742c2.653,0,2.681,2.709,2.681,3.779V25.27h4.265V14.923c0-3.776-1.872-5.505-5.1-5.505" transform="translate(0 -0.003)" fill="#1d1d1d"/>
    <path id="Tracé_2" data-name="Tracé 2" d="M115.859,61.041a3.455,3.455,0,0,1-.389,1.219c-.941,1.792-2.858,2.181-4.359,2.744-.052.017-.1.038-.153.059s-.094.038-.139.059a2.242,2.242,0,0,0-1.459,2.011c-.028-.114-.052-.229-.069-.347s-.049-.253-.066-.382a14.837,14.837,0,0,1-.153-2.209c0-3.532,1.018-5.9,2.727-6.624a3.018,3.018,0,0,1,1.195-.236s.035,0,.083,0a.756.756,0,0,1,.125.011.41.41,0,0,1,.066.007c.747.083,2.959.6,2.591,3.685m.6-3.275c-.243-.125-.483-.236-.719-.33a7.044,7.044,0,0,0-2.928-.524,1.715,1.715,0,0,0-.191-.007,8.5,8.5,0,0,0-1.962.222,7.913,7.913,0,0,0-6.137,8.107c0,4.842,3.254,7.87,7.409,7.87,3,0,5.158-1.587,6.8-4.095l-.344-.2A5.7,5.7,0,0,1,113.8,71.4a4.1,4.1,0,0,1-3.876-2.57s0-.007,0-.011c-.021-.052-.038-.108-.056-.16a4.219,4.219,0,0,1-.114-.417,2.1,2.1,0,0,1,0-1.118.367.367,0,0,1,.021-.066,1.185,1.185,0,0,1,.167-.309.749.749,0,0,1,.066-.08,1.637,1.637,0,0,1,.705-.382.027.027,0,0,1,.01,0c2.067-.59,6.707.59,8.339-2.525,1.146-2.178.135-4.553-2.605-5.995" transform="translate(-87.227 -47.49)" fill="#1d1d1d"/>
    <path id="Tracé_3" data-name="Tracé 3" d="M220.447,58.972c-2.2.129-3.81,1.8-4.561,4.623,0,.014-.007.024-.01.038v-.677a4.246,4.246,0,0,0-1.2-2.758,4.062,4.062,0,0,0-2.591-1.226h-.326V74.449h4.23V65.187c.024-.087.052-.174.077-.257a3.3,3.3,0,0,1,.5-1.268c0-.01,0-.01.007-.014a3.333,3.333,0,0,1,1.146-1.087,3.1,3.1,0,0,1,1.56-.413,3.183,3.183,0,0,1,2.435,1.143l.142.007V58.972h-.142c-.215,0-.747-.028-1.268,0" transform="translate(-176.726 -49.206)" fill="#1d1d1d"/>
    <path id="Tracé_4" data-name="Tracé 4" d="M347.83,71.741c-2.311.723-4.561-1.834-5.948-6.263-1.378-4.4-1.155-7.643,1.266-8.4,2.338-.732,4.6,1.853,5.992,6.31,1.361,4.347,1.11,7.6-1.311,8.355m-4.636-15.1c-4.566,1.43-7.032,5.615-5.559,10.319,1.481,4.732,5.7,6.614,10.179,5.211,4.539-1.421,7.032-5.615,5.559-10.319-1.481-4.732-5.7-6.614-10.179-5.21" transform="translate(-281.421 -46.891)" fill="#1d1d1d"/>
    <path id="Tracé_5" data-name="Tracé 5" d="M460.514,71.741c-2.311.723-4.561-1.834-5.948-6.263-1.378-4.4-1.155-7.643,1.266-8.4,2.338-.732,4.6,1.853,5.992,6.31,1.361,4.347,1.11,7.6-1.311,8.355m-4.636-15.1c-4.566,1.43-7.032,5.615-5.559,10.319,1.481,4.732,5.7,6.614,10.179,5.211,4.539-1.421,7.032-5.615,5.559-10.319-1.481-4.732-5.7-6.614-10.179-5.21" transform="translate(-375.462 -46.891)" fill="#1d1d1d"/>
    <path id="Tracé_6" data-name="Tracé 6" d="M294.229,16.63V10.72h0V4.126a4.467,4.467,0,0,0-1.491-2.886A4.266,4.266,0,0,0,289.725,0l-.145.023.095,11.458V16.4c0,7.033,4.381,9.2,8.648,10.9l.2-.346c-3.834-2.364-4.295-5.015-4.295-10.32" transform="translate(-241.672)" fill="#1d1d1d"/>
    <path id="Tracé_7" data-name="Tracé 7" d="M560.136,65.019a3.06,3.06,0,0,1-2.768,1.938,2.883,2.883,0,0,1-1.143-.233,4.093,4.093,0,0,1-2.143-2.737V54.36a5.972,5.972,0,0,1,1.723-1.445.08.08,0,0,0,.024-.014,3.74,3.74,0,0,1,1.768-.445c.112,0,.222.006.33.016,1.973.183,3.216,2.064,3.216,6.875a12.952,12.952,0,0,1-1.007,5.672m3.435-11.764a6.146,6.146,0,0,0-4.561-2.008,5.562,5.562,0,0,0-.643.035,6.208,6.208,0,0,0-2.922,1.178,10.937,10.937,0,0,0-1.245,1.07,1.731,1.731,0,0,1-.805.389,1.863,1.863,0,0,1-1.512-.54,14.4,14.4,0,0,0-5.734-3.519l-.183.314c3.135,1.933,3.782,4.079,3.879,8.011v18.5h4.237V66.148a5.961,5.961,0,0,0,3.835,1.3,7.6,7.6,0,0,0,2.344-.368,7.5,7.5,0,0,0,4.109-3.293,9.065,9.065,0,0,0,1.271-4.758,8.373,8.373,0,0,0-2.07-5.773" transform="translate(-455.641 -41.612)" fill="#1d1d1d"/>
  </g>
</svg>