<svg id="Calque_1" data-name="Calque 1" xmlns="http://www.w3.org/2000/svg" viewBox="0 0 170.08 170.08"><defs><style>.cls-1{fill:#00486e;}.cls-2{fill:#fff;}</style></defs><path class="cls-1" d="M2.1,54.41C-3.24,80.52,9.7,108,29.82,125.48s46.35,26.37,72.52,31.42c15.27,3,32.62,4.28,44.9-5.27,7.74-6,12-15.41,15.2-24.69,5.68-16.68,8.6-34.59,6-52s-11.09-34.35-25.09-45C120.94,12.75,88.11,16.28,61.53,11.62,34.59,6.91,7.48,28.07,2.1,54.41Z"/><path class="cls-2" d="M53,86.78c0,15.25-13.22,15-17.36,14.32-.77-.12-1-.42-1-.73s.13-.65.73-.89c3.54-1.45,10.42-2,10.42-12.7V58.47a17.21,17.21,0,0,0-.63-3.63,23.09,23.09,0,0,1-.63-2.69.58.58,0,0,1,.63-.56H53.6c.44,0,.63.25.63.56a11.54,11.54,0,0,1-.57,2.63A17.25,17.25,0,0,0,53,58.47Z"/><path class="cls-2" d="M67.61,70.6a10.61,10.61,0,0,1,9-4.63c7.63,0,11.51,4.75,11.51,14.45V91.23a12.9,12.9,0,0,0,.5,3.13,20.66,20.66,0,0,1,.62,2.25.56.56,0,0,1-.62.63H81.37a.6.6,0,0,1-.63-.63,16.65,16.65,0,0,1,.63-2.44,14.36,14.36,0,0,0,.5-2.94V81.48c0-6.19-1.76-9.88-6.88-9.88-4.57,0-7.38,3.5-7.38,9.88v9.75a13.46,13.46,0,0,0,.5,2.82,17.6,17.6,0,0,1,.62,2.56.56.56,0,0,1-.62.63H60.86a.6.6,0,0,1-.63-.63,16.65,16.65,0,0,1,.63-2.44,13.71,13.71,0,0,0,.5-2.94V55.09a12,12,0,0,0-.57-3.19,14,14,0,0,1-.37-2.19.56.56,0,0,1,.62-.62H67a.56.56,0,0,1,.63.62Z"/><path class="cls-2" d="M109.13,66A16,16,0,0,1,125.07,82.1a15.88,15.88,0,1,1-31.76,0A15.82,15.82,0,0,1,109.13,66Zm.12,26.58c5.69,0,9.26-4.25,9.26-10.45s-4.19-10.5-9.38-10.5-9.26,4.19-9.26,10.5S103.56,92.55,109.25,92.55Z"/><path class="cls-2" d="M125,106.14a.46.46,0,0,1-.25-.43A2,2,0,0,1,125,105l4.63-13.82c.75-2.19,1.68-3.07,3.5-3.07a2.49,2.49,0,0,1,2.62,2.75A5.05,5.05,0,0,1,134.58,94l-8.44,12.26a.48.48,0,0,1-.38.25,1.29,1.29,0,0,1-.44-.13Z"/></svg>