<?xml version="1.0" encoding="UTF-8"?>
<svg width="372px" height="241px" viewBox="0 0 372 241" version="1.1" xmlns="http://www.w3.org/2000/svg" xmlns:xlink="http://www.w3.org/1999/xlink">
    <title>Plan de travail 125</title>
    <g id="Page-1" stroke="none" stroke-width="1" fill="none" fill-rule="evenodd">
        <g id="OUTILS" transform="translate(-1089.000000, -129.000000)" fill-rule="nonzero">
            <g id="Plan-de-travail-125" transform="translate(1089.000000, 129.000000)">
                <g id="Group">
                    <path d="M360.36215,21.0393819 L360.36215,203.557477 C360.36215,206.751267 357.792093,209.34185 354.62401,209.34185 L61.1270824,209.34185 C57.9589993,209.34185 55.3889431,206.751267 55.3889431,203.557477 L55.3889431,21.0393819 C55.3889431,17.842678 57.9589993,15.2550089 61.1270824,15.2550089 L354.62401,15.2550089 C357.792093,15.2550089 360.36215,17.842678 360.36215,21.0393819 L360.36215,21.0393819 Z" id="Path" fill="#FFE4DD"></path>
                    <g id="Path">
                        <path d="M327.540693,6.15445631 L327.540693,22.6333628 L0,22.6333628 L0,6.15445631 C0,2.75376951 2.75967452,0 6.16113381,0 L321.379559,0 C324.781018,0 327.540693,2.75376951 327.540693,6.15445631 Z" fill="#FF9A00"></path>
                        <g transform="translate(10.020594, 8.453635)" fill="#FFFFFF">
                            <path d="M0,2.8645031 C0,1.2821784 1.28356954,0 2.86761105,0 C4.45165256,0 5.7352221,1.2821784 5.7352221,2.8645031 C5.7352221,4.44682781 4.45165256,5.7290062 2.86761105,5.7290062 C1.28356954,5.7290062 0,4.44682781 0,2.8645031 Z"></path>
                            <path d="M11.3012464,2.8645031 C11.3012464,1.2821784 12.5848159,0 14.1688575,0 C15.752899,0 17.0364685,1.2821784 17.0364685,2.8645031 C17.0364685,4.44682781 15.752899,5.7290062 14.1688575,5.7290062 C12.5848159,5.7290062 11.3012464,4.44682781 11.3012464,2.8645031 Z"></path>
                            <path d="M22.8883787,2.8645031 C22.8883787,1.2821784 24.1719483,0 25.7559898,0 C27.3400313,0 28.6236008,1.2821784 28.6236008,2.8645031 C28.6236008,4.44682781 27.3400313,5.7290062 25.7559898,5.7290062 C24.1719483,5.7290062 22.8883787,4.44682781 22.8883787,2.8645031 Z"></path>
                        </g>
                    </g>
                    <g transform="translate(0.562310, 137.711788)">
                        <path d="M58.2047547,4.38271889 C58.2047547,4.38271889 58.6073288,0 53.7035097,0 C53.7035097,0 55.1883663,0.40213777 55.958508,1.20641331 C55.958508,1.20641331 52.8312659,-0.62651899 49.4268894,2.19135944 C46.0225129,5.00923788 48.1374854,12.0757893 47.1018782,13.4191625 C46.0662709,14.7625358 42.0376129,15.0306277 42.5306203,19.3696359 C43.0236277,23.7086442 55.3225577,29.1433322 54.5319955,32.7334317 C54.5319955,32.7334317 59.3512157,25.6552241 55.9059984,22.4264658 C55.9059984,22.4264658 57.5863076,24.0058764 57.7555054,25.8854334 C57.7555054,25.8854334 58.2105891,22.2166548 55.8739091,21.04521 C53.8056118,20.0078111 52.1136338,16.2108146 52.2915832,15.5318429 C52.4695326,14.8528711 58.2018375,4.38563293 58.2018375,4.38563293 L58.2047547,4.38271889 Z" id="Path" fill="#FFFFFF"></path>
                        <path d="M53.3767829,25.4308429 C53.3767829,25.4308429 57.0407905,40.5692901 60.6347852,43.5940655 C62.796433,45.4124276 69.2230324,49.5882495 69.2230324,49.5882495 L66.550874,50.5586254 C66.550874,50.5586254 57.6359,47.5513343 55.6405328,45.2084447 C53.6451656,42.8655551 48.1812435,31.1190525 48.1812435,31.1190525 L53.3767829,25.4308429 L53.3767829,25.4308429 Z" id="Path" fill="#FFAE73"></path>
                        <path d="M18.9508643,52.0273025 C18.9829535,52.0855834 19.01796,52.1438642 19.0529664,52.2050591 C19.8551974,53.5979711 21.6930356,57.0074 23.7175748,60.7373735 C24.6744176,62.5091109 25.6779356,64.3507853 26.6289439,66.0846402 C28.2684123,69.0773612 29.7591033,71.7437094 30.6313471,73.1511916 C31.5152598,74.5819861 32.1687134,75.5902446 32.4312617,75.9923824 L32.4312617,75.9923824 C32.5100262,76.1176862 32.5275294,76.2633883 32.5158606,76.4090904 C32.4225101,77.6737845 32.4487649,78.9268225 32.5742047,80.1623762 C33.796513,92.3022744 41.9909376,98.8093298 41.9909376,98.8093298 L44.4268025,99.1677569 C44.4268025,99.1677569 40.978668,86.4042538 39.9634812,79.1920003 C39.7913662,77.9681027 39.7184361,76.9773285 39.7767801,76.3304112 C39.9576468,74.4508543 39.6221684,71.6912567 38.9891352,68.5236932 C37.8630946,62.8937644 35.8006318,55.9816573 34.0065516,50.4508059 C33.8927807,50.0982068 30.4650665,37.7135291 30.4650665,37.7135291 C27.5887039,40.2254332 17.0984401,41.259918 17.0984401,41.259918 C17.0984401,41.259918 15.3189459,45.581442 18.9450299,52.0214744 L18.9508643,52.0273025 Z" id="Path" fill="#FFFFFF"></path>
                        <path d="M49.5464947,102.250813 L39.3771233,102.250813 C39.3771233,102.250813 39.1320782,100.703457 39.6659264,99.5290981 C40.176437,98.4013639 40.8999035,98.3663954 39.7592769,96.6004861 C40.4068961,97.2648876 42.483945,97.5388075 43.9542156,97.3435667 C44.1350822,97.6349709 45.1152626,99.593207 45.7162065,100.024485 C46.3813289,100.502388 49.3452077,100.33046 49.5494119,102.253727 L49.5464947,102.250813 Z" id="Path" fill="#FF9A00"></path>
                        <path d="M56.8161659,3.76785606 C56.8832615,3.49976422 51.0080137,6.41963411 50.7104589,6.75183488 C47.9537016,9.8057507 48.7413465,13.7892459 50.3166364,13.8271284 C51.328906,13.8504407 51.1305362,15.5318429 51.1305362,15.5318429 L62.3967762,10.7702985 C62.3967762,10.7702985 61.0402765,2.87033119 56.8161659,3.76785606 Z" id="Path" fill="#FFFFFF"></path>
                        <path d="M53.0325529,23.1578903 C53.0325529,23.1578903 54.7478686,26.5789754 54.5319955,29.3560572 C54.5319955,29.3560572 52.4636982,32.61687 47.1047954,33.4415438 C47.1047954,33.4415438 51.7139769,23.1578903 53.0325529,23.1608043 L53.0325529,23.1578903 Z" id="Path" fill="#FF9A00"></path>
                        <path d="M26.8769062,42.0204829 L26.9119127,40.1205277 C23.1224653,40.5984305 13.8428409,35.5979348 13.8428409,35.5979348 C13.8428409,35.5979348 9.87836137,38.2322286 9.33576151,45.7562845 C9.070296,49.4279772 7.39582118,64.956906 7.20912016,69.5931466 C7.14202447,71.2745487 7.11868685,72.4722199 7.10993524,72.9530368 C7.10993524,72.9530368 7.10993524,72.9559508 7.10993524,72.9588649 C7.10993524,73.1045669 7.03992235,73.2356988 6.94948904,73.3493465 C6.1647613,74.3459488 5.48505288,75.4008319 4.89577777,76.4935976 C-0.886119586,87.2405838 2.13610325,101.845761 2.13610325,101.845761 L3.47801687,101.504818 C3.47801687,101.504818 8.36724995,86.3634572 11.564505,79.8156052 C12.1071048,78.7053553 12.6001122,77.8398849 13.0114379,77.3415837 C14.2133258,75.8845628 15.4793921,73.4076273 16.7279552,70.4294766 C19.0879729,64.7966337 26.8710718,42.023397 26.8710718,42.023397 L26.8769062,42.0204829 Z" id="Path" fill="#FFFFFF"></path>
                        <path d="M10.2284258,102.250813 L0.0561371479,102.250813 C0.0561371479,102.250813 -0.188907947,100.703457 0.344940295,99.5290981 C0.852533706,98.4013639 1.65184747,97.8884926 1.45931204,96.524721 C2.10693122,97.1891225 3.16004168,97.9351172 4.63031225,97.7369624 C4.81117887,98.0283666 5.79427645,99.590293 6.39522038,100.021571 C7.06034278,100.499474 10.0242215,100.327546 10.2284258,102.250813 L10.2284258,102.250813 Z" id="Path" fill="#FF9A00"></path>
                        <path d="M46.4163353,35.6212471 C45.0510841,35.8543705 46.6380428,36.938394 44.7593637,37.1423769 C42.0842881,37.4337811 39.3246136,37.63485 37.8776807,38.2089162 C37.3496668,38.4187273 36.9966852,38.678077 36.8858315,39.0102777 C36.2586327,40.8927488 32.2883187,44.1302492 32.2883187,44.1302492 C14.5779762,43.3259737 13.4373497,35.4405765 13.4373497,35.4405765 C24.9311315,24.2885385 34.7095976,18.2127613 42.7902514,17.4580245 C44.7564465,17.2744399 47.4081845,17.5192194 48.6509132,18.0728873 C51.4776834,19.3288393 53.0267185,23.1549762 53.0267185,23.1549762 C53.0267185,23.1549762 51.6031232,34.7353784 46.4134181,35.6183331 L46.4163353,35.6212471 Z" id="Path" fill="#FF9A00"></path>
                        <path d="M48.5050531,18.8043118 C49.0097293,20.3866365 50.6958729,24.8946592 53.0325529,23.1578903 C52.9537884,22.8227755 53.4438786,21.8436574 54.0214849,20.8499692 C54.7595374,19.5794469 55.6405328,18.2826983 55.6405328,18.2826983 L51.8335823,14.9519485 L51.6060404,14.7537937 C50.611274,16.4905626 49.6310936,17.3268926 48.7734358,17.9650678 C48.5138047,18.1603086 48.4029509,18.4954234 48.5021358,18.8043118 L48.5050531,18.8043118 Z" id="Path" fill="#FFAE73"></path>
                        <path d="M55.7484694,19.9524443 C55.7484694,19.9524443 50.0044957,16.7586545 52.0494553,13.2151796 C54.094415,9.67170477 54.7303653,6.87422464 58.4848063,8.76252373 C62.2392472,10.6508228 62.1633999,12.4109041 61.7695774,13.7601054 C61.3757549,15.1093068 57.2945872,20.6926109 55.7484694,19.9524443 L55.7484694,19.9524443 Z" id="Path" fill="#FFAE73"></path>
                        <path d="M62.7410062,11.6940498 C62.4784579,10.1204672 61.6791441,9.97185108 61.119041,10.0767566 C58.9982341,6.57116429 55.5325963,7.94076394 55.5325963,7.94076394 C53.6801721,10.2603412 51.0050965,10.6566509 51.0050965,10.6566509 C51.0050965,10.6566509 51.6731361,11.8951187 54.4182246,12.6615117 C55.2583792,12.894635 56.2093875,12.754761 57.1283066,12.4458726 C55.2233727,13.5065838 53.2309227,13.9145497 53.2309227,13.9145497 C56.8511723,14.2467504 60.2934724,10.939313 60.6522885,10.5867139 C60.8185691,11.0995853 61.1132066,12.1719526 60.9381744,12.9558299 C60.6989637,14.0223692 59.7537898,15.9514649 60.3313961,16.2020725 C60.3313961,16.2020725 63.1406631,14.0573377 62.7439234,11.6969638 L62.7410062,11.6940498 Z" id="Path" fill="#FFFFFF"></path>
                        <g transform="translate(50.480015, 43.743960)" fill="#9E223E">
                            <polygon id="Rectangle" transform="translate(45.322504, 29.493019) rotate(25.990000) translate(-45.322504, -29.493019) " points="21.4863734 23.2556479 69.1639742 23.2352896 69.1586352 35.7303897 21.4810345 35.750748"></polygon>
                            <path d="M7.74516025,27.0177176 C3.80985271,25.1002781 1.01517175,21.5509752 0.0758322168,17.2760758 C-0.306321443,15.5422209 0.79346428,13.8258503 2.52920037,13.4441108 C4.26785366,13.0623714 5.98316933,14.1609651 6.36532299,15.89482 C6.88166801,18.2377096 8.41319985,20.1842896 10.5690132,21.2333446 C14.4343079,23.1158156 19.1135023,21.5072645 20.9980158,17.6432451 C22.8825293,13.7821397 21.2722329,9.10801662 17.4040211,7.22554561 C15.6478646,6.37173136 13.6495802,6.20271694 11.7796527,6.75638488 C10.0730886,7.26051412 8.28192569,6.28722415 7.78016669,4.58250969 C7.27549048,2.87779523 8.24983645,1.08857356 9.95640051,0.584444323 C13.375363,-0.423814144 17.0218674,-0.120753795 20.2278741,1.44117262 C27.2875066,4.87974195 30.2280477,13.4120564 26.7886648,20.4611235 C23.3463646,27.5131047 14.8047927,30.4504589 7.74807745,27.0148036 L7.74516025,27.0177176 Z" id="Path"></path>
                            <path d="M68.3821524,56.5486173 C61.3225199,53.110048 58.3819788,44.5777336 61.8213617,37.5286664 C65.2636619,30.4766852 73.8052337,27.5393311 80.861949,30.9749864 C84.0679557,32.5369128 86.5534131,35.2207453 87.8661547,38.5310968 C88.5196082,40.1833585 87.7086257,42.0512593 86.0545713,42.7040047 C84.4005169,43.35675 82.5305894,42.5466464 81.8771359,40.8943847 C81.1595038,39.0818507 79.7971698,37.6131736 78.0410132,36.7564453 C74.1757186,34.8739743 69.4965242,36.4825254 67.6120107,40.3465449 C65.7274972,44.2076503 67.3377936,48.8817733 71.2060054,50.7642443 C73.3618188,51.8132994 75.8385246,51.8220415 78.0060068,50.7817286 C79.6104687,50.0124215 81.5329058,50.6884792 82.3030476,52.2912022 C83.0731893,53.8939252 82.3963981,55.8142788 80.7919361,56.5835858 C76.8420426,58.477713 72.3203772,58.4631428 68.3850696,56.5457033 L68.3821524,56.5486173 Z" id="Path"></path>
                            <path d="M54.0674348,35.5908286 L31.4853624,24.5932348 C30.8377432,24.2785183 30.5664433,23.491727 30.8815013,22.8448097 L31.4561904,21.6675368 C31.7712484,21.0206196 32.5588933,20.7496137 33.2065125,21.0643302 L55.7885849,32.061924 C56.436204,32.3766405 56.707504,33.1634318 56.392446,33.8103491 L55.8177569,34.987622 C55.5026989,35.6345392 54.715054,35.9055451 54.0674348,35.5908286 Z" id="Path"></path>
                        </g>
                        <path d="M52.4578638,59.3561177 C52.4578638,59.3561177 52.5833036,60.425571 53.0354701,60.9763249 C53.4876366,61.5270788 54.8032954,62.864624 54.8266331,63.6455872 C54.8266331,63.6455872 54.7595374,63.9923582 54.4765686,63.9282493 C54.1935999,63.8641404 53.2134195,62.8937644 52.7116605,62.9637014 C52.7116605,62.9637014 52.9800432,64.5314559 53.2455088,64.9714762 C53.5109743,65.4114966 54.0010645,67.0754144 53.8406183,67.4571539 C53.6801721,67.8388934 51.0167653,65.6213076 50.2116171,64.537284 C49.4035517,63.4532605 50.1999483,59.0559714 50.1999483,59.0559714 L52.4578638,59.3502896 L52.4578638,59.3561177 Z" id="Path" fill="#FFAE73"></path>
                        <path d="M47.0697889,21.257935 C47.0697889,21.257935 40.3456348,20.8907658 39.1495814,25.1073843 C37.953528,29.3240028 41.3929109,46.1613363 42.1309634,47.8981053 C43.4787114,51.0627547 50.0453365,60.0904562 50.0453365,60.0904562 L52.460781,59.3561177 C52.460781,59.3561177 48.0820585,45.5639578 47.1077126,44.1972722 C45.5732635,42.0554514 49.0855765,23.0908673 47.0727061,21.255021 L47.0697889,21.257935 Z" id="Path" fill="#FFAE73"></path>
                        <path d="M37.8222538,30.7489692 C37.839757,30.8480466 44.1875919,31.9145859 48.1549886,29.9038971 C48.1549886,29.9038971 51.471849,19.5269942 46.7313933,20.0223813 C41.9909376,20.5177684 39.1845878,22.0097578 39.0678997,24.2768823 C38.9482944,26.5440069 37.8222538,30.7518832 37.8222538,30.7518832 L37.8222538,30.7489692 Z" id="Path" fill="#FF9A00"></path>
                        <path d="M65.920758,42.8393287 C65.6027828,42.8538989 65.0164249,42.9588044 64.8063863,43.1190767 C64.4388186,43.4017388 64.0274929,43.8942118 64.8501443,44.3021777 C66.0841214,44.9141265 68.5462412,44.6431206 68.4499735,44.2730373 C68.1465843,43.1103346 67.7031694,42.7548215 65.920758,42.8364146 L65.920758,42.8393287 Z" id="Path" fill="#FFAE73"></path>
                    </g>
                    <g transform="translate(160.812072, 10.450279)">
                        <path d="M143.303477,9.33023728 C143.706051,12.2646774 142.900903,15.0912979 141.27602,17.2855714 C139.651138,19.4798449 137.209439,21.0359432 134.341828,21.4293389 L12.8373843,38.1064002 C6.6354096,38.9573004 0.900187503,34.8543295 0.0950393343,28.9854493 C-0.30753475,26.0510092 0.590963931,23.2127325 2.37045807,20.9980607 C4.14703501,18.7833889 6.8016902,17.1981502 9.90267754,16.7727001 L131.407121,0.0956387814 C137.142343,-0.691152508 142.495411,3.46427112 143.303477,9.33023728 Z" id="Path" fill="#FFFFFF"></path>
                        <path d="M143.303477,9.33023728 C143.706051,12.2646774 142.900903,15.0912979 141.27602,17.2855714 C139.651138,19.4798449 137.209439,21.0359432 134.341828,21.4293389 L112.354865,24.4482862 L109.420158,3.1145861 L131.407121,0.0956387814 C137.142343,-0.691152508 142.495411,3.46427112 143.303477,9.33023728 Z" id="Path" fill="#9E223E"></path>
                        <g transform="translate(118.098793, 4.200054)" fill="#FFFFFF">
                            <path d="M11.8205542,10.920384 C11.5492543,10.9582666 11.2750371,10.9757508 10.9979028,10.9728368 C9.53054945,10.9553525 8.15654659,10.3696301 7.13260816,9.32057506 C5.01471841,7.15544199 5.05555926,3.67607607 7.22304147,1.56048171 L7.22304147,1.56048171 C9.39052368,-0.555112644 12.8736647,-0.514316058 14.9915544,1.65081701 C17.1094442,3.81595007 17.0686033,7.295316 14.9011211,9.41091035 C14.0492977,10.2414123 12.978684,10.7630258 11.8205542,10.9232981 L11.8205542,10.920384 Z M7.85315743,2.20739899 C6.04449125,3.97330833 6.00948481,6.88152206 7.77731014,8.68822798 C8.63496797,9.56535457 9.78142895,10.0549136 11.0066544,10.0694838 C12.2318799,10.084054 13.3900097,9.62072136 14.2651707,8.76399307 C16.0738369,6.99808373 16.1088434,4.08987001 14.341018,2.28316408 C12.5731927,0.476458158 9.66182361,0.441489656 7.85315743,2.20739899 L7.85315743,2.20739899 Z" id="Shape"></path>
                            <polygon id="Rectangle" transform="translate(4.781573, 11.612621) rotate(45.660000) translate(-4.781573, -11.612621) " points="4.33168761 7.86619072 5.23551934 7.86570078 5.23145762 15.3590522 4.32762588 15.3595422"></polygon>
                            <path d="M0.230504657,16.0549257 L0.230504657,16.0549257 C-0.0816361189,15.7372951 -0.0758017119,15.2244238 0.242173471,14.9126213 L3.40150487,11.8295651 C3.71948006,11.5177626 4.23290787,11.5235907 4.54504865,11.8441353 L4.54504865,11.8441353 C4.85718942,12.1617658 4.85135502,12.6746372 4.53046263,12.9864397 L1.37404843,16.0694959 C1.05607325,16.3812984 0.542645432,16.3754703 0.230504657,16.0549257 Z" id="Path"></path>
                        </g>
                    </g>
                    <g transform="translate(73.729402, 133.384436)">
                        <path d="M0.956842751,0 L26.3423477,0 C26.8703615,0 27.2991905,0.428364146 27.2991905,0.955805714 L27.2991905,1.35794348 C27.2991905,1.88538505 26.8703615,2.3137492 26.3423477,2.3137492 L0.956842751,2.3137492 C0.428828916,2.3137492 0,1.88538505 0,1.35794348 L0,0.955805714 C0,0.428364146 0.428828916,0 0.956842751,0 Z" id="Path" fill="#FF9A00"></path>
                        <g transform="translate(0.000000, 5.379321)" fill="#9E223E">
                            <path d="M13.317034,4.88976216 L0.790562151,4.88976216 C0.352981625,4.88976216 0,4.5371631 0,4.10005683 L0,4.10005683 C0,3.66295056 0.352981625,3.3103515 0.790562151,3.3103515 L13.317034,3.3103515 C13.7546146,3.3103515 14.1075962,3.66295056 14.1075962,4.10005683 L14.1075962,4.10005683 C14.1075962,4.5371631 13.7546146,4.88976216 13.317034,4.88976216 Z" id="Path"></path>
                            <g>
                                <path d="M0.735135285,0 L22.905882,0 C23.3113733,0 23.6410172,0.329286725 23.6410172,0.734338537 L23.6410172,0.842158084 C23.6410172,1.2472099 23.3113733,1.57649662 22.905882,1.57649662 L0.735135285,1.57649662 C0.329643997,1.57649662 0,1.2472099 0,0.842158084 L0,0.734338537 C0,0.329286725 0.329643997,0 0.735135285,0 Z" id="Path"></path>
                                <rect id="Rectangle" x="25.7968306" y="0" width="22.0773962" height="1.57941066" rx="0.789705331"></rect>
                                <path d="M28.9386588,4.88976216 L16.412187,4.88976216 C15.9746064,4.88976216 15.6216248,4.5371631 15.6216248,4.10005683 L15.6216248,4.10005683 C15.6216248,3.66295056 15.9746064,3.3103515 16.412187,3.3103515 L28.9386588,3.3103515 C29.3762394,3.3103515 29.729221,3.66295056 29.729221,4.10005683 L29.729221,4.10005683 C29.729221,4.5371631 29.3762394,4.88976216 28.9386588,4.88976216 Z" id="Path"></path>
                            </g>
                        </g>
                        <path d="M31.8704484,0 L57.2559533,0 C57.7839671,0 58.2127961,0.428364146 58.2127961,0.955805714 L58.2127961,1.35794348 C58.2127961,1.88538505 57.7839671,2.3137492 57.2559533,2.3137492 L31.8704484,2.3137492 C31.3424345,2.3137492 30.9136056,1.88538505 30.9136056,1.35794348 L30.9136056,0.955805714 C30.9136056,0.428364146 31.3424345,0 31.8704484,0 Z" id="Path" fill="#FF9A00"></path>
                    </g>
                    <g transform="translate(73.729402, 150.804578)" id="Path">
                        <path d="M0.956842751,0 L26.3423477,0 C26.8703615,0 27.2991905,0.428364146 27.2991905,0.955805714 L27.2991905,1.35794348 C27.2991905,1.88538505 26.8703615,2.3137492 26.3423477,2.3137492 L0.956842751,2.3137492 C0.428828916,2.3137492 0,1.88538505 0,1.35794348 L0,0.955805714 C0,0.428364146 0.428828916,0 0.956842751,0 Z" fill="#FF9A00"></path>
                        <g transform="translate(0.000000, 5.379321)" fill="#9E223E">
                            <path d="M13.317034,4.88976216 L0.790562151,4.88976216 C0.352981625,4.88976216 0,4.5371631 0,4.10005683 L0,4.10005683 C0,3.66295056 0.352981625,3.3103515 0.790562151,3.3103515 L13.317034,3.3103515 C13.7546146,3.3103515 14.1075962,3.66295056 14.1075962,4.10005683 L14.1075962,4.10005683 C14.1075962,4.5371631 13.7546146,4.88976216 13.317034,4.88976216 Z"></path>
                            <g>
                                <path d="M0.735135285,0 L22.905882,0 C23.3113733,0 23.6410172,0.329286725 23.6410172,0.734338537 L23.6410172,0.845072126 C23.6410172,1.25012394 23.3113733,1.57941066 22.905882,1.57941066 L0.735135285,1.57941066 C0.329643997,1.57941066 0,1.25012394 0,0.845072126 L0,0.734338537 C0,0.329286725 0.329643997,0 0.735135285,0 Z"></path>
                                <path d="M26.5086283,0 L47.1624292,0 C47.5533344,0 47.8742268,0.317630558 47.8742268,0.711026202 L47.8742268,0.871298502 C47.8742268,1.2617801 47.5562516,1.5823247 47.1624292,1.5823247 L26.5057111,1.5823247 C26.1148058,1.5823247 25.7939134,1.26469415 25.7939134,0.871298502 L25.7939134,0.711026202 C25.7939134,0.320544599 26.1118886,0 26.5057111,0 L26.5086283,0 Z"></path>
                                <path d="M28.9386588,4.88976216 L16.412187,4.88976216 C15.9746064,4.88976216 15.6216248,4.5371631 15.6216248,4.10005683 L15.6216248,4.10005683 C15.6216248,3.66295056 15.9746064,3.3103515 16.412187,3.3103515 L28.9386588,3.3103515 C29.3762394,3.3103515 29.729221,3.66295056 29.729221,4.10005683 L29.729221,4.10005683 C29.729221,4.5371631 29.3762394,4.88976216 28.9386588,4.88976216 Z"></path>
                            </g>
                        </g>
                        <path d="M31.8704484,0 L57.2559533,0 C57.7839671,0 58.2127961,0.428364146 58.2127961,0.955805714 L58.2127961,1.35794348 C58.2127961,1.88538505 57.7839671,2.3137492 57.2559533,2.3137492 L31.8704484,2.3137492 C31.3424345,2.3137492 30.9136056,1.88538505 30.9136056,1.35794348 L30.9136056,0.955805714 C30.9136056,0.428364146 31.3424345,0 31.8704484,0 Z" fill="#FF9A00"></path>
                    </g>
                    <g transform="translate(204.878120, 33.948587)" fill="#9E223E">
                        <polygon id="Path" points="27.1416615 13.2967728 12.64316 16.6654051 5.47559099 29.6970001 0 0"></polygon>
                        <polygon id="Rectangle" transform="translate(15.432493, 20.721964) rotate(-37.150000) translate(-15.432493, -20.721964) " points="14.1031487 13.0600637 16.7538385 13.0614471 16.7618376 28.3838638 14.1111477 28.3824804"></polygon>
                    </g>
                    <path d="M186.878974,67.8010108 L222.530118,67.8010108 C223.971217,67.8010108 225.143933,68.9695416 225.143933,70.4119923 L225.143933,106.024497 C225.143933,107.464034 223.974134,108.635479 222.530118,108.635479 L186.878974,108.635479 C185.437876,108.635479 184.26516,107.466948 184.26516,106.024497 L184.26516,70.4119923 C184.26516,68.9724557 185.434958,67.8010108 186.878974,67.8010108 Z" id="Path" fill="#FFFFFF"></path>
                    <path d="M274.820991,109.731158 L239.499491,114.545156 C238.070061,114.740396 236.751485,113.74088 236.55895,112.313 L231.73973,77.0297813 C231.544277,75.6019008 232.544878,74.2847539 233.974308,74.0924271 L269.298725,69.27843 C270.728155,69.0831892 272.046731,70.0827056 272.239266,71.5105861 L277.058486,106.793804 C277.253939,108.221685 276.253338,109.538832 274.823908,109.731158 L274.820991,109.731158 Z" id="Path" fill="#FFFFFF"></path>
                    <path d="M162.044821,110.235288 L159.804408,110.235288 C159.600204,110.235288 159.436841,110.069187 159.436841,109.868118 C159.436841,109.66705 159.603121,109.500949 159.804408,109.500949 L162.030235,109.500949 C162.234439,109.500949 162.406554,109.66705 162.406554,109.868118 C162.406554,110.069187 162.249025,110.235288 162.044821,110.235288 Z M157.575665,110.235288 L155.349839,110.235288 C155.145634,110.235288 154.982271,110.069187 154.982271,109.868118 C154.982271,109.66705 155.148552,109.500949 155.349839,109.500949 L157.575665,109.500949 C157.779869,109.500949 157.943232,109.66705 157.943232,109.868118 C157.943232,110.069187 157.776952,110.235288 157.575665,110.235288 Z M153.124012,110.235288 L150.898186,110.235288 C150.693982,110.235288 150.530618,110.069187 150.530618,109.868118 C150.530618,109.66705 150.696899,109.500949 150.898186,109.500949 L153.124012,109.500949 C153.328217,109.500949 153.49158,109.66705 153.49158,109.868118 C153.49158,110.069187 153.325299,110.235288 153.124012,110.235288 Z M148.67236,110.235288 L146.446533,110.235288 C146.242329,110.235288 146.078966,110.069187 146.078966,109.868118 C146.078966,109.66705 146.245246,109.500949 146.446533,109.500949 L148.67236,109.500949 C148.876564,109.500949 149.039927,109.66705 149.039927,109.868118 C149.039927,110.069187 148.873647,110.235288 148.67236,110.235288 Z M144.220707,110.235288 L141.994881,110.235288 C141.790677,110.235288 141.627313,110.069187 141.627313,109.868118 C141.627313,109.66705 141.793594,109.500949 141.994881,109.500949 L144.220707,109.500949 C144.424911,109.500949 144.588275,109.66705 144.588275,109.868118 C144.588275,110.069187 144.421994,110.235288 144.220707,110.235288 Z M139.769055,110.235288 L137.543228,110.235288 C137.339024,110.235288 137.175661,110.069187 137.175661,109.868118 C137.175661,109.66705 137.341941,109.500949 137.543228,109.500949 L139.769055,109.500949 C139.973259,109.500949 140.136622,109.66705 140.136622,109.868118 C140.136622,110.069187 139.970342,110.235288 139.769055,110.235288 Z M135.317402,110.235288 L133.091576,110.235288 C132.887372,110.235288 132.724008,110.069187 132.724008,109.868118 C132.724008,109.66705 132.890289,109.500949 133.091576,109.500949 L135.317402,109.500949 C135.521606,109.500949 135.68497,109.66705 135.68497,109.868118 C135.68497,110.069187 135.518689,110.235288 135.317402,110.235288 Z M130.865749,110.235288 L128.639923,110.235288 C128.435719,110.235288 128.272356,110.069187 128.272356,109.868118 C128.272356,109.66705 128.438636,109.500949 128.639923,109.500949 L130.865749,109.500949 C131.069954,109.500949 131.233317,109.66705 131.233317,109.868118 C131.233317,110.069187 131.067037,110.235288 130.865749,110.235288 Z M126.414097,110.235288 L124.188271,110.235288 C123.984066,110.235288 123.820703,110.069187 123.820703,109.868118 C123.820703,109.66705 123.986984,109.500949 124.188271,109.500949 L126.414097,109.500949 C126.618301,109.500949 126.781665,109.66705 126.781665,109.868118 C126.781665,110.069187 126.615384,110.235288 126.414097,110.235288 Z M121.962444,110.235288 L119.736618,110.235288 C119.532414,110.235288 119.36905,110.069187 119.36905,109.868118 C119.36905,109.66705 119.535331,109.500949 119.736618,109.500949 L121.962444,109.500949 C122.166649,109.500949 122.330012,109.66705 122.330012,109.868118 C122.330012,110.069187 122.163731,110.235288 121.962444,110.235288 Z M117.510792,110.235288 L115.284966,110.235288 C115.080761,110.235288 114.917398,110.069187 114.917398,109.868118 C114.917398,109.66705 115.083678,109.500949 115.284966,109.500949 L117.510792,109.500949 C117.714996,109.500949 117.878359,109.66705 117.878359,109.868118 C117.878359,110.069187 117.712079,110.235288 117.510792,110.235288 Z M113.059139,110.235288 L110.833313,110.235288 C110.629109,110.235288 110.465745,110.069187 110.465745,109.868118 C110.465745,109.66705 110.632026,109.500949 110.833313,109.500949 L113.059139,109.500949 C113.263343,109.500949 113.426707,109.66705 113.426707,109.868118 C113.426707,110.069187 113.260426,110.235288 113.059139,110.235288 Z M108.607487,110.235288 L106.38166,110.235288 C106.177456,110.235288 106.014093,110.069187 106.014093,109.868118 C106.014093,109.66705 106.180373,109.500949 106.38166,109.500949 L108.607487,109.500949 C108.811691,109.500949 108.975054,109.66705 108.975054,109.868118 C108.975054,110.069187 108.808774,110.235288 108.607487,110.235288 Z M104.155834,110.235288 L101.930008,110.235288 C101.725804,110.235288 101.56244,110.069187 101.56244,109.868118 C101.56244,109.66705 101.728721,109.500949 101.930008,109.500949 L104.155834,109.500949 C104.360038,109.500949 104.523402,109.66705 104.523402,109.868118 C104.523402,110.069187 104.357121,110.235288 104.155834,110.235288 Z M99.7041816,110.235288 L97.4783553,110.235288 C97.2741511,110.235288 97.1107877,110.069187 97.1107877,109.868118 C97.1107877,109.66705 97.2770683,109.500949 97.4783553,109.500949 L99.7041816,109.500949 C99.9083858,109.500949 100.071749,109.66705 100.071749,109.868118 C100.071749,110.069187 99.9054686,110.235288 99.7041816,110.235288 Z M95.252529,110.235288 L93.0267027,110.235288 C92.8224985,110.235288 92.6591351,110.069187 92.6591351,109.868118 C92.6591351,109.66705 92.8254157,109.500949 93.0267027,109.500949 L95.252529,109.500949 C95.4567333,109.500949 95.6200967,109.66705 95.6200967,109.868118 C95.6200967,110.069187 95.4538161,110.235288 95.252529,110.235288 Z M90.8008765,110.235288 L88.5750502,110.235288 C88.3708459,110.235288 88.2074825,110.069187 88.2074825,109.868118 C88.2074825,109.66705 88.3737631,109.500949 88.5750502,109.500949 L90.8008765,109.500949 C91.0050807,109.500949 91.1684441,109.66705 91.1684441,109.868118 C91.1684441,110.069187 91.0021635,110.235288 90.8008765,110.235288 Z M86.3492239,110.235288 L84.3655255,110.235288 C84.2780094,110.235288 84.1875761,110.235288 84.10006,110.226546 C83.8958558,110.214889 83.7441612,110.040047 83.75583,109.836064 C83.7674988,109.632081 83.942531,109.474723 84.1467353,109.492207 C84.2196653,109.498035 84.2925954,109.498035 84.3655255,109.498035 L86.3492239,109.498035 C86.5534282,109.498035 86.7167916,109.664136 86.7167916,109.865204 C86.7167916,110.066273 86.550511,110.232374 86.3492239,110.232374 L86.3492239,110.235288 Z M164.156876,109.58837 C164.040188,109.58837 163.9235,109.533004 163.85057,109.428098 C163.736799,109.259084 163.780557,109.031788 163.946837,108.915227 C164.50694,108.533487 164.938686,108.003132 165.189566,107.376613 C165.265413,107.1872 165.481286,107.096865 165.667987,107.17263 C165.857606,107.248395 165.948039,107.464034 165.872192,107.650533 C165.565885,108.411098 165.040789,109.058015 164.358163,109.521347 C164.293985,109.565058 164.223972,109.585456 164.151042,109.585456 L164.156876,109.58837 Z M82.0696864,109.454325 C81.9909219,109.454325 81.9121574,109.428098 81.8450617,109.378559 C81.1916081,108.87443 80.7073523,108.198372 80.4477212,107.420323 C80.3835427,107.227997 80.4885621,107.018186 80.6810975,106.954077 C80.8736329,106.889968 81.0836716,106.994873 81.1478501,107.1872 C81.3608059,107.825375 81.7575456,108.381957 82.2972282,108.795751 C82.4576744,108.921055 82.4897637,109.151264 82.3643239,109.311536 C82.2913938,109.404786 82.1834573,109.454325 82.0726036,109.454325 L82.0696864,109.454325 Z M165.805096,105.692297 C165.600892,105.692297 165.437528,105.526196 165.437528,105.325127 L165.437528,103.101713 C165.437528,102.89773 165.603809,102.734544 165.805096,102.734544 C166.006383,102.734544 166.172664,102.900644 166.172664,103.101713 L166.172664,105.325127 C166.172664,105.52911 166.006383,105.692297 165.805096,105.692297 Z M80.6052502,105.465001 C80.401046,105.465001 80.2376826,105.298901 80.2376826,105.097832 L80.2376826,102.874418 C80.2376826,102.670435 80.4039632,102.507249 80.6052502,102.507249 C80.8065372,102.507249 80.9728178,102.673349 80.9728178,102.874418 L80.9728178,105.097832 C80.9728178,105.301815 80.8065372,105.465001 80.6052502,105.465001 Z M165.805096,101.242555 C165.600892,101.242555 165.437528,101.076454 165.437528,100.875385 L165.437528,98.6519715 C165.437528,98.4479886 165.603809,98.2848022 165.805096,98.2848022 C166.006383,98.2848022 166.172664,98.4509026 166.172664,98.6519715 L166.172664,100.875385 C166.172664,101.079368 166.006383,101.242555 165.805096,101.242555 Z M80.6052502,101.015259 C80.401046,101.015259 80.2376826,100.849159 80.2376826,100.64809 L80.2376826,98.4246763 C80.2376826,98.2206933 80.4039632,98.057507 80.6052502,98.057507 C80.8065372,98.057507 80.9728178,98.2236074 80.9728178,98.4246763 L80.9728178,100.64809 C80.9728178,100.852073 80.8065372,101.015259 80.6052502,101.015259 Z M165.805096,96.7928128 C165.600892,96.7928128 165.437528,96.6267125 165.437528,96.4256436 L165.437528,94.2022297 C165.437528,93.9982467 165.603809,93.8350604 165.805096,93.8350604 C166.006383,93.8350604 166.172664,94.0011608 166.172664,94.2022297 L166.172664,96.4256436 C166.172664,96.6296265 166.006383,96.7928128 165.805096,96.7928128 Z M80.6052502,96.5655176 C80.401046,96.5655176 80.2376826,96.3994172 80.2376826,96.1983483 L80.2376826,93.9749344 C80.2376826,93.7709515 80.4039632,93.6077651 80.6052502,93.6077651 C80.8065372,93.6077651 80.9728178,93.7738655 80.9728178,93.9749344 L80.9728178,96.1983483 C80.9728178,96.4023312 80.8065372,96.5655176 80.6052502,96.5655176 Z M165.805096,92.343071 C165.600892,92.343071 165.437528,92.1769706 165.437528,91.9759017 L165.437528,89.7524878 C165.437528,89.5485049 165.603809,89.3853185 165.805096,89.3853185 C166.006383,89.3853185 166.172664,89.5514189 166.172664,89.7524878 L166.172664,91.9759017 C166.172664,92.1798846 166.006383,92.343071 165.805096,92.343071 Z M80.6052502,92.1157757 C80.401046,92.1157757 80.2376826,91.9496753 80.2376826,91.7486065 L80.2376826,89.5251926 C80.2376826,89.3212096 80.4039632,89.1580233 80.6052502,89.1580233 C80.8065372,89.1580233 80.9728178,89.3241237 80.9728178,89.5251926 L80.9728178,91.7486065 C80.9728178,91.9525894 80.8065372,92.1157757 80.6052502,92.1157757 Z M165.805096,87.8933291 C165.600892,87.8933291 165.437528,87.7272288 165.437528,87.5261599 L165.437528,85.302746 C165.437528,85.098763 165.603809,84.9355767 165.805096,84.9355767 C166.006383,84.9355767 166.172664,85.1016771 166.172664,85.302746 L166.172664,87.5261599 C166.172664,87.7301428 166.006383,87.8933291 165.805096,87.8933291 Z M80.6052502,87.6660339 C80.401046,87.6660339 80.2376826,87.4999335 80.2376826,87.2988646 L80.2376826,85.0754507 C80.2376826,84.8714678 80.4039632,84.7082814 80.6052502,84.7082814 C80.8065372,84.7082814 80.9728178,84.8743818 80.9728178,85.0754507 L80.9728178,87.2988646 C80.9728178,87.5028475 80.8065372,87.6660339 80.6052502,87.6660339 Z M165.805096,83.4435873 C165.600892,83.4435873 165.437528,83.2774869 165.437528,83.076418 L165.437528,80.8530041 C165.437528,80.6490212 165.603809,80.4858349 165.805096,80.4858349 C166.006383,80.4858349 166.172664,80.6519352 166.172664,80.8530041 L166.172664,83.076418 C166.172664,83.280401 166.006383,83.4435873 165.805096,83.4435873 Z M80.6052502,83.216292 C80.401046,83.216292 80.2376826,83.0501916 80.2376826,82.8491228 L80.2376826,80.6257089 C80.2376826,80.4217259 80.4039632,80.2585396 80.6052502,80.2585396 C80.8065372,80.2585396 80.9728178,80.42464 80.9728178,80.6257089 L80.9728178,82.8491228 C80.9728178,83.0531057 80.8065372,83.216292 80.6052502,83.216292 Z M165.805096,78.9938454 C165.600892,78.9938454 165.437528,78.8277451 165.437528,78.6266762 L165.437528,76.4032623 C165.437528,76.1992793 165.603809,76.036093 165.805096,76.036093 C166.006383,76.036093 166.172664,76.2021934 166.172664,76.4032623 L166.172664,78.6266762 C166.172664,78.8306591 166.006383,78.9938454 165.805096,78.9938454 Z M80.6052502,78.7665502 C80.401046,78.7665502 80.2376826,78.6004498 80.2376826,78.3993809 L80.2376826,76.175967 C80.2376826,75.9719841 80.4039632,75.8087977 80.6052502,75.8087977 C80.8065372,75.8087977 80.9728178,75.9748981 80.9728178,76.175967 L80.9728178,78.3993809 C80.9728178,78.6033638 80.8065372,78.7665502 80.6052502,78.7665502 Z M165.805096,74.5441036 C165.600892,74.5441036 165.437528,74.3780032 165.437528,74.1769343 L165.437528,71.9535204 C165.437528,71.7495375 165.603809,71.5863512 165.805096,71.5863512 C166.006383,71.5863512 166.172664,71.7524515 166.172664,71.9535204 L166.172664,74.1769343 C166.172664,74.3809173 166.006383,74.5441036 165.805096,74.5441036 Z M80.6052502,74.3168083 C80.401046,74.3168083 80.2376826,74.150708 80.2376826,73.9496391 L80.2376826,71.7262252 C80.2376826,71.5222422 80.4039632,71.3590559 80.6052502,71.3590559 C80.8065372,71.3590559 80.9728178,71.5251563 80.9728178,71.7262252 L80.9728178,73.9496391 C80.9728178,74.153622 80.8065372,74.3168083 80.6052502,74.3168083 Z M165.805096,70.0943618 C165.600892,70.0943618 165.437528,69.9282614 165.437528,69.7271925 L165.437528,67.5037786 C165.437528,67.2997957 165.603809,67.1366093 165.805096,67.1366093 C166.006383,67.1366093 166.172664,67.3027097 166.172664,67.5037786 L166.172664,69.7271925 C166.172664,69.9311754 166.006383,70.0943618 165.805096,70.0943618 Z M80.6052502,69.8670665 C80.401046,69.8670665 80.2376826,69.7009661 80.2376826,69.4998972 L80.2376826,67.2764833 C80.2376826,67.0725004 80.4039632,66.9093141 80.6052502,66.9093141 C80.8065372,66.9093141 80.9728178,67.0754144 80.9728178,67.2764833 L80.9728178,69.4998972 C80.9728178,69.7038801 80.8065372,69.8670665 80.6052502,69.8670665 Z M165.805096,65.6446199 C165.600892,65.6446199 165.437528,65.4785195 165.437528,65.2774506 L165.437528,64.2750203 C165.437528,63.9049369 165.379184,63.5406817 165.262496,63.1939107 C165.198318,63.001584 165.30042,62.791773 165.492955,62.7276641 C165.685491,62.6635551 165.895529,62.7655466 165.959708,62.9578734 C166.102651,63.3804094 166.175581,63.8233438 166.175581,64.2750203 L166.175581,65.2774506 C166.175581,65.4814336 166.0093,65.6446199 165.808013,65.6446199 L165.805096,65.6446199 Z M80.6052502,65.4173246 C80.401046,65.4173246 80.2376826,65.2512243 80.2376826,65.0501554 L80.2376826,64.2721062 C80.2376826,63.7359225 80.3397847,63.214309 80.5381545,62.721836 C80.6140018,62.5324232 80.8298749,62.442088 81.0194931,62.517853 C81.2091113,62.5936181 81.2995446,62.8092572 81.2236973,62.9986699 C81.0603339,63.4037218 80.975735,63.8320859 80.975735,64.2721062 L80.975735,65.0501554 C80.975735,65.2541383 80.8094544,65.4173246 80.6081674,65.4173246 L80.6052502,65.4173246 Z M164.334825,61.6582107 C164.256061,61.6582107 164.177296,61.6319843 164.110201,61.5824456 C163.573435,61.1715657 162.934568,60.9326143 162.257776,60.8889037 C162.053572,60.8772475 161.89896,60.702405 161.913546,60.4984221 C161.925215,60.2944391 162.103165,60.1370809 162.304452,60.1545651 C163.127103,60.2041038 163.905996,60.495508 164.55945,60.9967232 C164.719896,61.122027 164.751985,61.3522363 164.626546,61.5125086 C164.553616,61.605758 164.445679,61.6552967 164.334825,61.6552967 L164.334825,61.6582107 Z M82.2622218,61.5270788 C82.1426164,61.5270788 82.0288455,61.471712 81.9559154,61.3638925 C81.8421445,61.1948781 81.8859025,60.9675828 82.0551003,60.8539352 C82.7348088,60.3935166 83.5312053,60.148737 84.3567739,60.148737 L84.3567739,60.148737 C84.5609782,60.148737 84.7243416,60.3119234 84.7243416,60.5159063 C84.7243416,60.7198892 84.5609782,60.8830756 84.3567739,60.8859896 C83.6799827,60.8859896 83.0236119,61.0870585 82.466426,61.4658839 C82.4022476,61.5095946 82.3322347,61.5299929 82.2593046,61.5299929 L82.2622218,61.5270788 Z M160.055288,60.8830756 L157.829462,60.8830756 C157.625257,60.8830756 157.461894,60.7169752 157.461894,60.5159063 C157.461894,60.3148374 157.628174,60.148737 157.829462,60.148737 L160.055288,60.148737 C160.259492,60.148737 160.422855,60.3148374 160.422855,60.5159063 C160.422855,60.7169752 160.256575,60.8830756 160.055288,60.8830756 Z M155.603635,60.8830756 L153.377809,60.8830756 C153.173605,60.8830756 153.010241,60.7169752 153.010241,60.5159063 C153.010241,60.3148374 153.176522,60.148737 153.377809,60.148737 L155.603635,60.148737 C155.807839,60.148737 155.971203,60.3148374 155.971203,60.5159063 C155.971203,60.7169752 155.804922,60.8830756 155.603635,60.8830756 Z M151.151983,60.8830756 L148.926156,60.8830756 C148.721952,60.8830756 148.558589,60.7169752 148.558589,60.5159063 C148.558589,60.3148374 148.724869,60.148737 148.926156,60.148737 L151.151983,60.148737 C151.356187,60.148737 151.51955,60.3148374 151.51955,60.5159063 C151.51955,60.7169752 151.35327,60.8830756 151.151983,60.8830756 Z M146.70033,60.8830756 L144.474504,60.8830756 C144.2703,60.8830756 144.106936,60.7169752 144.106936,60.5159063 C144.106936,60.3148374 144.273217,60.148737 144.474504,60.148737 L146.70033,60.148737 C146.904534,60.148737 147.067898,60.3148374 147.067898,60.5159063 C147.067898,60.7169752 146.901617,60.8830756 146.70033,60.8830756 Z M142.248678,60.8830756 L140.022851,60.8830756 C139.818647,60.8830756 139.655284,60.7169752 139.655284,60.5159063 C139.655284,60.3148374 139.821564,60.148737 140.022851,60.148737 L142.248678,60.148737 C142.452882,60.148737 142.616245,60.3148374 142.616245,60.5159063 C142.616245,60.7169752 142.449965,60.8830756 142.248678,60.8830756 Z M137.797025,60.8830756 L135.571199,60.8830756 C135.366994,60.8830756 135.203631,60.7169752 135.203631,60.5159063 C135.203631,60.3148374 135.369912,60.148737 135.571199,60.148737 L137.797025,60.148737 C138.001229,60.148737 138.164593,60.3148374 138.164593,60.5159063 C138.164593,60.7169752 137.998312,60.8830756 137.797025,60.8830756 Z M133.345372,60.8830756 L131.119546,60.8830756 C130.915342,60.8830756 130.751979,60.7169752 130.751979,60.5159063 C130.751979,60.3148374 130.918259,60.148737 131.119546,60.148737 L133.345372,60.148737 C133.549577,60.148737 133.71294,60.3148374 133.71294,60.5159063 C133.71294,60.7169752 133.54666,60.8830756 133.345372,60.8830756 Z M128.89372,60.8830756 L126.667894,60.8830756 C126.463689,60.8830756 126.300326,60.7169752 126.300326,60.5159063 C126.300326,60.3148374 126.466607,60.148737 126.667894,60.148737 L128.89372,60.148737 C129.097924,60.148737 129.261288,60.3148374 129.261288,60.5159063 C129.261288,60.7169752 129.095007,60.8830756 128.89372,60.8830756 Z M124.442067,60.8830756 L122.216241,60.8830756 C122.012037,60.8830756 121.848673,60.7169752 121.848673,60.5159063 C121.848673,60.3148374 122.014954,60.148737 122.216241,60.148737 L124.442067,60.148737 C124.646272,60.148737 124.809635,60.3148374 124.809635,60.5159063 C124.809635,60.7169752 124.643354,60.8830756 124.442067,60.8830756 Z M119.990415,60.8830756 L117.764589,60.8830756 C117.560384,60.8830756 117.397021,60.7169752 117.397021,60.5159063 C117.397021,60.3148374 117.563301,60.148737 117.764589,60.148737 L119.990415,60.148737 C120.194619,60.148737 120.357982,60.3148374 120.357982,60.5159063 C120.357982,60.7169752 120.191702,60.8830756 119.990415,60.8830756 Z M115.538762,60.8830756 L113.312936,60.8830756 C113.108732,60.8830756 112.945368,60.7169752 112.945368,60.5159063 C112.945368,60.3148374 113.111649,60.148737 113.312936,60.148737 L115.538762,60.148737 C115.742966,60.148737 115.90633,60.3148374 115.90633,60.5159063 C115.90633,60.7169752 115.740049,60.8830756 115.538762,60.8830756 Z M111.08711,60.8830756 L108.861283,60.8830756 C108.657079,60.8830756 108.493716,60.7169752 108.493716,60.5159063 C108.493716,60.3148374 108.659996,60.148737 108.861283,60.148737 L111.08711,60.148737 C111.291314,60.148737 111.454677,60.3148374 111.454677,60.5159063 C111.454677,60.7169752 111.288397,60.8830756 111.08711,60.8830756 Z M106.635457,60.8830756 L104.409631,60.8830756 C104.205427,60.8830756 104.042063,60.7169752 104.042063,60.5159063 C104.042063,60.3148374 104.208344,60.148737 104.409631,60.148737 L106.635457,60.148737 C106.839661,60.148737 107.003025,60.3148374 107.003025,60.5159063 C107.003025,60.7169752 106.836744,60.8830756 106.635457,60.8830756 Z M102.183805,60.8830756 L99.9579783,60.8830756 C99.753774,60.8830756 99.5904106,60.7169752 99.5904106,60.5159063 C99.5904106,60.3148374 99.7566912,60.148737 99.9579783,60.148737 L102.183805,60.148737 C102.388009,60.148737 102.551372,60.3148374 102.551372,60.5159063 C102.551372,60.7169752 102.385092,60.8830756 102.183805,60.8830756 Z M97.732152,60.8830756 L95.5063257,60.8830756 C95.3021215,60.8830756 95.1387581,60.7169752 95.1387581,60.5159063 C95.1387581,60.3148374 95.3050387,60.148737 95.5063257,60.148737 L97.732152,60.148737 C97.9363563,60.148737 98.0997197,60.3148374 98.0997197,60.5159063 C98.0997197,60.7169752 97.9334391,60.8830756 97.732152,60.8830756 Z M93.2804995,60.8830756 L91.0546732,60.8830756 C90.8504689,60.8830756 90.6871055,60.7169752 90.6871055,60.5159063 C90.6871055,60.3148374 90.8533861,60.148737 91.0546732,60.148737 L93.2804995,60.148737 C93.4847037,60.148737 93.6480671,60.3148374 93.6480671,60.5159063 C93.6480671,60.7169752 93.4817865,60.8830756 93.2804995,60.8830756 Z M88.8288469,60.8830756 L86.6030206,60.8830756 C86.3988164,60.8830756 86.235453,60.7169752 86.235453,60.5159063 C86.235453,60.3148374 86.4017336,60.148737 86.6030206,60.148737 L88.8288469,60.148737 C89.0330511,60.148737 89.1964145,60.3148374 89.1964145,60.5159063 C89.1964145,60.7169752 89.0301339,60.8830756 88.8288469,60.8830756 Z" id="Shape" fill="#9E223E"></path>
                    <path d="M288.60186,171.954693 L286.615245,171.954693 C286.434378,171.954693 286.288518,171.808991 286.288518,171.628321 C286.288518,171.44765 286.434378,171.301948 286.615245,171.301948 L288.587274,171.301948 C288.768141,171.301948 288.919836,171.44765 288.919836,171.628321 C288.919836,171.808991 288.77981,171.954693 288.60186,171.954693 Z M284.643215,171.954693 L282.671186,171.954693 C282.490319,171.954693 282.344459,171.808991 282.344459,171.628321 C282.344459,171.44765 282.490319,171.301948 282.671186,171.301948 L284.643215,171.301948 C284.824082,171.301948 284.969942,171.44765 284.969942,171.628321 C284.969942,171.808991 284.824082,171.954693 284.643215,171.954693 Z M280.699156,171.954693 L278.727127,171.954693 C278.54626,171.954693 278.4004,171.808991 278.4004,171.628321 C278.4004,171.44765 278.54626,171.301948 278.727127,171.301948 L280.699156,171.301948 C280.880023,171.301948 281.025883,171.44765 281.025883,171.628321 C281.025883,171.808991 280.880023,171.954693 280.699156,171.954693 Z M276.755097,171.954693 L274.783067,171.954693 C274.602201,171.954693 274.456341,171.808991 274.456341,171.628321 C274.456341,171.44765 274.602201,171.301948 274.783067,171.301948 L276.755097,171.301948 C276.935964,171.301948 277.081824,171.44765 277.081824,171.628321 C277.081824,171.808991 276.935964,171.954693 276.755097,171.954693 Z M272.811038,171.954693 L270.839008,171.954693 C270.658142,171.954693 270.512282,171.808991 270.512282,171.628321 C270.512282,171.44765 270.658142,171.301948 270.839008,171.301948 L272.811038,171.301948 C272.991905,171.301948 273.137765,171.44765 273.137765,171.628321 C273.137765,171.808991 272.991905,171.954693 272.811038,171.954693 Z M268.866979,171.954693 L266.894949,171.954693 C266.714083,171.954693 266.568222,171.808991 266.568222,171.628321 C266.568222,171.44765 266.714083,171.301948 266.894949,171.301948 L268.866979,171.301948 C269.047845,171.301948 269.193706,171.44765 269.193706,171.628321 C269.193706,171.808991 269.047845,171.954693 268.866979,171.954693 Z M264.92292,171.954693 L262.95089,171.954693 C262.770023,171.954693 262.624163,171.808991 262.624163,171.628321 C262.624163,171.44765 262.770023,171.301948 262.95089,171.301948 L264.92292,171.301948 C265.103786,171.301948 265.249646,171.44765 265.249646,171.628321 C265.249646,171.808991 265.103786,171.954693 264.92292,171.954693 Z M260.97886,171.954693 L259.006831,171.954693 C258.825964,171.954693 258.680104,171.808991 258.680104,171.628321 C258.680104,171.44765 258.825964,171.301948 259.006831,171.301948 L260.97886,171.301948 C261.159727,171.301948 261.305587,171.44765 261.305587,171.628321 C261.305587,171.808991 261.159727,171.954693 260.97886,171.954693 Z M257.034801,171.954693 L255.062772,171.954693 C254.881905,171.954693 254.736045,171.808991 254.736045,171.628321 C254.736045,171.44765 254.881905,171.301948 255.062772,171.301948 L257.034801,171.301948 C257.215668,171.301948 257.361528,171.44765 257.361528,171.628321 C257.361528,171.808991 257.215668,171.954693 257.034801,171.954693 Z M253.090742,171.954693 L251.185808,171.954693 C251.156636,171.954693 251.130381,171.954693 251.101209,171.954693 C250.920343,171.945951 250.783234,171.791507 250.791986,171.61375 C250.800737,171.43308 250.946598,171.299034 251.133299,171.304862 C251.150802,171.304862 251.168305,171.304862 251.185808,171.304862 L253.090742,171.304862 C253.271609,171.304862 253.417469,171.450564 253.417469,171.631235 C253.417469,171.811905 253.271609,171.957607 253.090742,171.957607 L253.090742,171.954693 Z M289.882513,170.707483 L289.870844,170.707483 C289.689977,170.701655 289.549952,170.550125 289.555786,170.369455 L289.555786,170.3374 C289.555786,170.3374 289.555786,168.408304 289.555786,168.408304 C289.555786,168.227634 289.701646,168.081932 289.882513,168.081932 C290.063379,168.081932 290.20924,168.227634 290.20924,168.408304 L290.20924,170.389853 C290.203405,170.567609 290.057545,170.704569 289.882513,170.704569 L289.882513,170.707483 Z M249.896404,170.655031 C249.715538,170.655031 249.569678,170.509329 249.569678,170.328658 L249.569678,168.358766 C249.569678,168.178095 249.715538,168.032393 249.896404,168.032393 C250.077271,168.032393 250.223131,168.178095 250.223131,168.358766 L250.223131,170.328658 C250.223131,170.509329 250.077271,170.655031 249.896404,170.655031 Z M289.882513,166.767699 C289.701646,166.767699 289.555786,166.621997 289.555786,166.441326 L289.555786,164.471434 C289.555786,164.290763 289.701646,164.145061 289.882513,164.145061 C290.063379,164.145061 290.20924,164.290763 290.20924,164.471434 L290.20924,166.441326 C290.20924,166.621997 290.063379,166.767699 289.882513,166.767699 Z M249.896404,166.715246 C249.715538,166.715246 249.569678,166.569544 249.569678,166.388873 L249.569678,164.418981 C249.569678,164.238311 249.715538,164.092608 249.896404,164.092608 C250.077271,164.092608 250.223131,164.238311 250.223131,164.418981 L250.223131,166.388873 C250.223131,166.569544 250.077271,166.715246 249.896404,166.715246 Z M289.882513,162.827914 C289.701646,162.827914 289.555786,162.682212 289.555786,162.501542 L289.555786,160.531649 C289.555786,160.350979 289.701646,160.205277 289.882513,160.205277 C290.063379,160.205277 290.20924,160.350979 290.20924,160.531649 L290.20924,162.501542 C290.20924,162.682212 290.063379,162.827914 289.882513,162.827914 Z M249.896404,162.775462 C249.715538,162.775462 249.569678,162.62976 249.569678,162.449089 L249.569678,160.528735 C249.569678,160.508337 249.569678,160.487939 249.569678,160.46754 C249.578429,160.28687 249.721372,160.146996 249.908073,160.155738 C250.08894,160.161566 250.228966,160.31601 250.220214,160.493767 L250.220214,160.528735 C250.220214,160.528735 250.220214,162.449089 250.220214,162.449089 C250.220214,162.62976 250.074354,162.775462 249.893487,162.775462 L249.896404,162.775462 Z M288.65437,159.567102 C288.65437,159.567102 288.645619,159.567102 288.639784,159.567102 L288.593109,159.567102 C288.593109,159.567102 286.682341,159.567102 286.682341,159.567102 C286.501474,159.567102 286.355614,159.421399 286.355614,159.240729 C286.355614,159.060058 286.501474,158.914356 286.682341,158.914356 L288.593109,158.914356 C288.619364,158.914356 288.642701,158.914356 288.668956,158.914356 C288.849823,158.923098 288.989849,159.074628 288.981097,159.255299 C288.972345,159.430142 288.829402,159.567102 288.65437,159.567102 L288.65437,159.567102 Z M284.710311,159.567102 L282.738281,159.567102 C282.557415,159.567102 282.411555,159.421399 282.411555,159.240729 C282.411555,159.060058 282.557415,158.914356 282.738281,158.914356 L284.710311,158.914356 C284.891178,158.914356 285.037038,159.060058 285.037038,159.240729 C285.037038,159.421399 284.891178,159.567102 284.710311,159.567102 Z M280.766252,159.567102 L278.794222,159.567102 C278.613356,159.567102 278.467496,159.421399 278.467496,159.240729 C278.467496,159.060058 278.613356,158.914356 278.794222,158.914356 L280.766252,158.914356 C280.947118,158.914356 281.092979,159.060058 281.092979,159.240729 C281.092979,159.421399 280.947118,159.567102 280.766252,159.567102 Z M276.822193,159.567102 L274.850163,159.567102 C274.669297,159.567102 274.523436,159.421399 274.523436,159.240729 C274.523436,159.060058 274.669297,158.914356 274.850163,158.914356 L276.822193,158.914356 C277.003059,158.914356 277.14892,159.060058 277.14892,159.240729 C277.14892,159.421399 277.003059,159.567102 276.822193,159.567102 Z M272.878134,159.567102 L270.906104,159.567102 C270.725237,159.567102 270.579377,159.421399 270.579377,159.240729 C270.579377,159.060058 270.725237,158.914356 270.906104,158.914356 L272.878134,158.914356 C273.059,158.914356 273.20486,159.060058 273.20486,159.240729 C273.20486,159.421399 273.059,159.567102 272.878134,159.567102 Z M268.934074,159.567102 L266.962045,159.567102 C266.781178,159.567102 266.635318,159.421399 266.635318,159.240729 C266.635318,159.060058 266.781178,158.914356 266.962045,158.914356 L268.934074,158.914356 C269.114941,158.914356 269.260801,159.060058 269.260801,159.240729 C269.260801,159.421399 269.114941,159.567102 268.934074,159.567102 Z M264.990015,159.567102 L263.017986,159.567102 C262.837119,159.567102 262.691259,159.421399 262.691259,159.240729 C262.691259,159.060058 262.837119,158.914356 263.017986,158.914356 L264.990015,158.914356 C265.170882,158.914356 265.316742,159.060058 265.316742,159.240729 C265.316742,159.421399 265.170882,159.567102 264.990015,159.567102 Z M261.045956,159.567102 L259.073927,159.567102 C258.89306,159.567102 258.7472,159.421399 258.7472,159.240729 C258.7472,159.060058 258.89306,158.914356 259.073927,158.914356 L261.045956,158.914356 C261.226823,158.914356 261.372683,159.060058 261.372683,159.240729 C261.372683,159.421399 261.226823,159.567102 261.045956,159.567102 Z M257.101897,159.567102 L255.129867,159.567102 C254.949001,159.567102 254.803141,159.421399 254.803141,159.240729 C254.803141,159.060058 254.949001,158.914356 255.129867,158.914356 L257.101897,158.914356 C257.282764,158.914356 257.428624,159.060058 257.428624,159.240729 C257.428624,159.421399 257.282764,159.567102 257.101897,159.567102 Z M253.157838,159.567102 L251.19456,159.567102 C251.013693,159.567102 250.864916,159.421399 250.864916,159.240729 C250.864916,159.060058 251.007859,158.914356 251.188725,158.914356 L253.160755,158.914356 C253.341622,158.914356 253.487482,159.060058 253.487482,159.240729 C253.487482,159.421399 253.341622,159.567102 253.160755,159.567102 L253.157838,159.567102 Z" id="Shape" fill="#9E223E"></path>
                    <path d="M288.60186,190.138314 L286.615245,190.138314 C286.434378,190.138314 286.288518,189.992612 286.288518,189.811942 C286.288518,189.631271 286.434378,189.485569 286.615245,189.485569 L288.587274,189.485569 C288.768141,189.485569 288.919836,189.631271 288.919836,189.811942 C288.919836,189.992612 288.77981,190.138314 288.60186,190.138314 Z M284.643215,190.138314 L282.671186,190.138314 C282.490319,190.138314 282.344459,189.992612 282.344459,189.811942 C282.344459,189.631271 282.490319,189.485569 282.671186,189.485569 L284.643215,189.485569 C284.824082,189.485569 284.969942,189.631271 284.969942,189.811942 C284.969942,189.992612 284.824082,190.138314 284.643215,190.138314 Z M280.699156,190.138314 L278.727127,190.138314 C278.54626,190.138314 278.4004,189.992612 278.4004,189.811942 C278.4004,189.631271 278.54626,189.485569 278.727127,189.485569 L280.699156,189.485569 C280.880023,189.485569 281.025883,189.631271 281.025883,189.811942 C281.025883,189.992612 280.880023,190.138314 280.699156,190.138314 Z M276.755097,190.138314 L274.783067,190.138314 C274.602201,190.138314 274.456341,189.992612 274.456341,189.811942 C274.456341,189.631271 274.602201,189.485569 274.783067,189.485569 L276.755097,189.485569 C276.935964,189.485569 277.081824,189.631271 277.081824,189.811942 C277.081824,189.992612 276.935964,190.138314 276.755097,190.138314 Z M272.811038,190.138314 L270.839008,190.138314 C270.658142,190.138314 270.512282,189.992612 270.512282,189.811942 C270.512282,189.631271 270.658142,189.485569 270.839008,189.485569 L272.811038,189.485569 C272.991905,189.485569 273.137765,189.631271 273.137765,189.811942 C273.137765,189.992612 272.991905,190.138314 272.811038,190.138314 Z M268.866979,190.138314 L266.894949,190.138314 C266.714083,190.138314 266.568222,189.992612 266.568222,189.811942 C266.568222,189.631271 266.714083,189.485569 266.894949,189.485569 L268.866979,189.485569 C269.047845,189.485569 269.193706,189.631271 269.193706,189.811942 C269.193706,189.992612 269.047845,190.138314 268.866979,190.138314 Z M264.92292,190.138314 L262.95089,190.138314 C262.770023,190.138314 262.624163,189.992612 262.624163,189.811942 C262.624163,189.631271 262.770023,189.485569 262.95089,189.485569 L264.92292,189.485569 C265.103786,189.485569 265.249646,189.631271 265.249646,189.811942 C265.249646,189.992612 265.103786,190.138314 264.92292,190.138314 Z M260.97886,190.138314 L259.006831,190.138314 C258.825964,190.138314 258.680104,189.992612 258.680104,189.811942 C258.680104,189.631271 258.825964,189.485569 259.006831,189.485569 L260.97886,189.485569 C261.159727,189.485569 261.305587,189.631271 261.305587,189.811942 C261.305587,189.992612 261.159727,190.138314 260.97886,190.138314 Z M257.034801,190.138314 L255.062772,190.138314 C254.881905,190.138314 254.736045,189.992612 254.736045,189.811942 C254.736045,189.631271 254.881905,189.485569 255.062772,189.485569 L257.034801,189.485569 C257.215668,189.485569 257.361528,189.631271 257.361528,189.811942 C257.361528,189.992612 257.215668,190.138314 257.034801,190.138314 Z M253.090742,190.138314 L251.185808,190.138314 C251.156636,190.138314 251.130381,190.138314 251.101209,190.138314 C250.920343,190.129572 250.783234,189.975128 250.791986,189.797371 C250.800737,189.616701 250.946598,189.476827 251.133299,189.488483 C251.150802,189.488483 251.168305,189.488483 251.185808,189.488483 L253.090742,189.488483 C253.271609,189.488483 253.417469,189.634185 253.417469,189.814856 C253.417469,189.995526 253.271609,190.141228 253.090742,190.141228 L253.090742,190.138314 Z M289.882513,188.891104 L289.870844,188.891104 C289.689977,188.885276 289.549952,188.733746 289.555786,188.553075 L289.555786,188.521021 C289.555786,188.521021 289.555786,186.591925 289.555786,186.591925 C289.555786,186.411255 289.701646,186.265553 289.882513,186.265553 C290.063379,186.265553 290.20924,186.411255 290.20924,186.591925 L290.20924,188.573474 C290.203405,188.75123 290.057545,188.88819 289.882513,188.88819 L289.882513,188.891104 Z M249.896404,188.838652 C249.715538,188.838652 249.569678,188.692949 249.569678,188.512279 L249.569678,186.542387 C249.569678,186.361716 249.715538,186.216014 249.896404,186.216014 C250.077271,186.216014 250.223131,186.361716 250.223131,186.542387 L250.223131,188.512279 C250.223131,188.692949 250.077271,188.838652 249.896404,188.838652 Z M289.882513,184.95132 C289.701646,184.95132 289.555786,184.805618 289.555786,184.624947 L289.555786,182.655055 C289.555786,182.474384 289.701646,182.328682 289.882513,182.328682 C290.063379,182.328682 290.20924,182.474384 290.20924,182.655055 L290.20924,184.624947 C290.20924,184.805618 290.063379,184.95132 289.882513,184.95132 Z M249.896404,184.898867 C249.715538,184.898867 249.569678,184.753165 249.569678,184.572494 L249.569678,182.602602 C249.569678,182.421931 249.715538,182.276229 249.896404,182.276229 C250.077271,182.276229 250.223131,182.421931 250.223131,182.602602 L250.223131,184.572494 C250.223131,184.753165 250.077271,184.898867 249.896404,184.898867 Z M289.882513,181.011535 C289.701646,181.011535 289.555786,180.865833 289.555786,180.685163 L289.555786,178.71527 C289.555786,178.5346 289.701646,178.388898 289.882513,178.388898 C290.063379,178.388898 290.20924,178.5346 290.20924,178.71527 L290.20924,180.685163 C290.20924,180.865833 290.063379,181.011535 289.882513,181.011535 Z M249.896404,180.959083 C249.715538,180.959083 249.569678,180.81338 249.569678,180.63271 L249.569678,178.712356 C249.569678,178.691958 249.569678,178.67156 249.569678,178.651161 C249.578429,178.470491 249.721372,178.330617 249.908073,178.339359 C250.08894,178.345187 250.228966,178.499631 250.220214,178.677388 L250.220214,178.712356 C250.220214,178.712356 250.220214,180.63271 250.220214,180.63271 C250.220214,180.81338 250.074354,180.959083 249.893487,180.959083 L249.896404,180.959083 Z M288.65437,177.750722 C288.65437,177.750722 288.645619,177.750722 288.639784,177.750722 L288.593109,177.750722 C288.593109,177.750722 286.682341,177.750722 286.682341,177.750722 C286.501474,177.750722 286.355614,177.60502 286.355614,177.42435 C286.355614,177.243679 286.501474,177.097977 286.682341,177.097977 L288.593109,177.097977 C288.619364,177.097977 288.642701,177.097977 288.668956,177.097977 C288.849823,177.106719 288.989849,177.258249 288.981097,177.43892 C288.972345,177.613762 288.829402,177.750722 288.65437,177.750722 L288.65437,177.750722 Z M284.710311,177.750722 L282.738281,177.750722 C282.557415,177.750722 282.411555,177.60502 282.411555,177.42435 C282.411555,177.243679 282.557415,177.097977 282.738281,177.097977 L284.710311,177.097977 C284.891178,177.097977 285.037038,177.243679 285.037038,177.42435 C285.037038,177.60502 284.891178,177.750722 284.710311,177.750722 Z M280.766252,177.750722 L278.794222,177.750722 C278.613356,177.750722 278.467496,177.60502 278.467496,177.42435 C278.467496,177.243679 278.613356,177.097977 278.794222,177.097977 L280.766252,177.097977 C280.947118,177.097977 281.092979,177.243679 281.092979,177.42435 C281.092979,177.60502 280.947118,177.750722 280.766252,177.750722 Z M276.822193,177.750722 L274.850163,177.750722 C274.669297,177.750722 274.523436,177.60502 274.523436,177.42435 C274.523436,177.243679 274.669297,177.097977 274.850163,177.097977 L276.822193,177.097977 C277.003059,177.097977 277.14892,177.243679 277.14892,177.42435 C277.14892,177.60502 277.003059,177.750722 276.822193,177.750722 Z M272.878134,177.750722 L270.906104,177.750722 C270.725237,177.750722 270.579377,177.60502 270.579377,177.42435 C270.579377,177.243679 270.725237,177.097977 270.906104,177.097977 L272.878134,177.097977 C273.059,177.097977 273.20486,177.243679 273.20486,177.42435 C273.20486,177.60502 273.059,177.750722 272.878134,177.750722 Z M268.934074,177.750722 L266.962045,177.750722 C266.781178,177.750722 266.635318,177.60502 266.635318,177.42435 C266.635318,177.243679 266.781178,177.097977 266.962045,177.097977 L268.934074,177.097977 C269.114941,177.097977 269.260801,177.243679 269.260801,177.42435 C269.260801,177.60502 269.114941,177.750722 268.934074,177.750722 Z M264.990015,177.750722 L263.017986,177.750722 C262.837119,177.750722 262.691259,177.60502 262.691259,177.42435 C262.691259,177.243679 262.837119,177.097977 263.017986,177.097977 L264.990015,177.097977 C265.170882,177.097977 265.316742,177.243679 265.316742,177.42435 C265.316742,177.60502 265.170882,177.750722 264.990015,177.750722 Z M261.045956,177.750722 L259.073927,177.750722 C258.89306,177.750722 258.7472,177.60502 258.7472,177.42435 C258.7472,177.243679 258.89306,177.097977 259.073927,177.097977 L261.045956,177.097977 C261.226823,177.097977 261.372683,177.243679 261.372683,177.42435 C261.372683,177.60502 261.226823,177.750722 261.045956,177.750722 Z M257.101897,177.750722 L255.129867,177.750722 C254.949001,177.750722 254.803141,177.60502 254.803141,177.42435 C254.803141,177.243679 254.949001,177.097977 255.129867,177.097977 L257.101897,177.097977 C257.282764,177.097977 257.428624,177.243679 257.428624,177.42435 C257.428624,177.60502 257.282764,177.750722 257.101897,177.750722 Z M253.157838,177.750722 L251.19456,177.750722 C251.013693,177.750722 250.864916,177.60502 250.864916,177.42435 C250.864916,177.243679 251.007859,177.097977 251.188725,177.097977 L253.160755,177.097977 C253.341622,177.097977 253.487482,177.243679 253.487482,177.42435 C253.487482,177.60502 253.341622,177.750722 253.160755,177.750722 L253.157838,177.750722 Z" id="Shape" fill="#9E223E"></path>
                    <g transform="translate(69.849521, 67.241515)">
                        <rect id="Rectangle" fill="#FFFFFF" x="0" y="0" width="85.1998457" height="49.3318138" rx="10.59"></rect>
                        <path d="M32.9848201,14.8820115 L32.9848201,34.4527163 C32.9848201,35.6766139 34.3471541,36.4109524 35.3710926,35.7378088 L50.2604993,25.9524564 C51.1852528,25.3463357 51.1852528,23.9913062 50.2604993,23.3822715 L35.3710926,13.5969191 C34.3471541,12.9237754 32.9848201,13.658114 32.9848201,14.8820115 L32.9848201,14.8820115 Z" id="Path" fill="#FF9A00"></path>
                        <g transform="translate(4.428315, 43.355114)" fill="#FFE4DD" id="Path">
                            <path d="M0,1.52695791 C0,0.681885784 0.685542825,0 1.52861464,0 C2.37168645,0 3.05722928,0.684799826 3.05722928,1.52695791 C3.05722928,2.36911599 2.37168645,3.05391582 1.52861464,3.05391582 C0.685542825,3.05391582 0,2.36911599 0,1.52695791 Z"></path>
                            <path d="M71.1010012,1.93783781 L1.93994033,1.93783781 C1.71239846,1.93783781 1.52861464,1.75425317 1.52861464,1.52695791 L1.52861464,1.52695791 C1.52861464,1.29966265 1.71239846,1.11607801 1.93994033,1.11607801 L71.1010012,1.11607801 C71.328543,1.11607801 71.5123269,1.29966265 71.5123269,1.52695791 L71.5123269,1.52695791 C71.5123269,1.75425317 71.328543,1.93783781 71.1010012,1.93783781 Z"></path>
                        </g>
                    </g>
                    <rect id="Rectangle" fill="#FFFFFF" opacity="0.5" x="157.409384" y="119.134771" width="42.3607122" height="63.1676844"></rect>
                    <g transform="translate(175.195574, 120.642781)">
                        <g transform="translate(0.000000, 5.226341)">
                            <path d="M7.45928938,13.5590366 L6.87876588,13.5590366 L6.87876588,10.9567972 C6.87876588,10.0243038 7.64015599,9.26373892 8.57366112,9.26373892 L15.7412301,9.26373892 C16.2488236,9.26373892 16.6922385,8.92279603 16.8205954,8.433237 L17.9553876,4.12919725 C18.0429037,3.7911684 17.9728908,3.44148338 17.759935,3.16464941 C17.5469791,2.88781544 17.2260867,2.73045718 16.8760223,2.73045718 L7.52346785,2.73045718 L7.52346785,2.15056286 L16.8760223,2.15056286 C17.4069533,2.15056286 17.8941263,2.38951429 18.2179359,2.80913631 C18.5417455,3.22875833 18.649682,3.76202798 18.5154907,4.27489934 L17.3806985,8.5789391 C17.1852459,9.32201976 16.5113719,9.8407192 15.7412301,9.8407192 L8.57366112,9.8407192 C7.95813118,9.8407192 7.45928938,10.3390203 7.45928938,10.9538832 L7.45928938,13.5561225 L7.45928938,13.5590366 Z" id="Path" fill="#9E223E"></path>
                            <rect id="Rectangle" fill="#FF9A00" x="0" y="0" width="16.0796258" height="4.88393408" rx="2.44196704"></rect>
                            <path d="M7.17048623,24.3643036 L7.17048623,24.3643036 C6.28949077,24.3643036 5.57769311,23.6503633 5.57769311,22.7732368 L5.57769311,13.1248443 C5.57769311,12.2448037 6.29240797,11.5337775 7.17048623,11.5337775 L7.17048623,11.5337775 C8.05148169,11.5337775 8.76327935,12.2477177 8.76327935,13.1248443 L8.76327935,22.7732368 C8.76327935,23.6532774 8.04856449,24.3643036 7.17048623,24.3643036 Z" id="Path" fill="#9E223E"></path>
                        </g>
                        <g transform="translate(42.353945, 18.520989)" id="Path">
                            <path d="M25.7977633,31.9895617 C25.7977633,31.9895617 26.8946318,35.361108 26.8012813,36.1333291 C26.7079308,36.9055502 26.0194707,39.539844 25.5264633,40.2159017 C25.033456,40.8919594 24.7913281,37.4679603 24.40334,36.9521749 C24.0153519,36.4363895 24.3245755,38.2401814 24.0503584,38.4091958 C23.7761412,38.5752962 23.2043694,37.0833068 22.9593243,36.5558652 C22.7142792,36.0284236 23.5602682,34.0847577 23.5631854,32.7326423 C23.5631854,31.3776129 25.8006805,31.9924757 25.8006805,31.9924757 L25.7977633,31.9895617 Z" fill="#FFAE73"></path>
                            <path d="M0.0155186503,5.19786125 C-0.287870515,1.33092776 3.91873695,-1.32085029 7.23851454,0.689838565 C7.30561022,0.730635151 7.37562311,0.774345778 7.43980158,0.815142363 C12.4107164,4.01184623 23.1401909,18.9288263 23.8782434,20.4208157 C24.6162959,21.9157191 26.7954469,33.8020957 26.7954469,33.8020957 C26.7954469,33.8020957 24.102868,34.7870418 22.8426361,33.7642131 C22.8426361,33.7642131 18.4755825,22.4897854 17.8279633,21.9273753 C17.1832613,21.3649652 0.359748665,11.9351259 0.216805693,8.4003932 C0.178882047,7.46498578 0.103034756,6.34307968 0.0126014468,5.19494721 L0.0155186503,5.19786125 Z" fill="#9E223E"></path>
                        </g>
                        <g transform="translate(36.012877, 53.112790)" id="Path">
                            <path d="M36.3746106,57.913667 C36.3746106,57.913667 38.3787294,59.7407712 37.9878241,61.0404338 C37.5969188,62.3400965 35.7882527,63.2055669 35.5432076,64.7908057 C35.2981625,66.3789584 34.3208993,67.2444289 33.4399038,67.2444289 L29.2449652,67.2444289 C29.2449652,67.2444289 28.597346,66.1283508 30.1609671,65.790322 C31.7245882,65.4522931 32.3138633,63.5873064 32.2175956,61.8563655 C32.1213279,60.1254247 32.3634557,57.8175036 32.3634557,57.8175036 L35.6890677,57.0481966 L36.3746106,57.913667 L36.3746106,57.913667 Z" fill="#9E223E"></path>
                            <path d="M11.782585,62.6402428 C11.782585,62.6402428 12.141401,66.7985805 11.2633228,67.2327727 L0,67.2094604 C0,67.2094604 0,65.9097977 1.80866618,65.6213076 C3.61733235,65.3328174 6.79708418,64.2750203 7.33384963,61.9175604 C7.87061507,59.5601006 11.782585,62.6373288 11.782585,62.6373288 L11.782585,62.6402428 Z" fill="#9E223E"></path>
                            <path d="M2.27541874,3.89315986 C2.27541874,3.89315986 2.87052825,11.1840925 3.56773989,19.9466162 C4.51583103,31.850477 5.65645761,46.4731388 5.77022854,49.2414785 C5.96568118,54.0525616 6.74749172,61.745632 6.74749172,61.745632 C6.74749172,61.745632 8.60575036,63.5727362 12.3222676,62.8034291 C12.3222676,62.8034291 15.6332936,51.8204055 16.5813848,40.1992068 C16.5959708,40.0097941 16.6105568,39.8174673 16.6251428,39.6251406 C17.5061383,27.7941308 18.8743067,2.88490139 18.8743067,2.88490139 L2.27541874,3.8960739 L2.27541874,3.89315986 Z" fill="#FF9A00"></path>
                            <path d="M4.988418,4.75863028 C4.988418,4.75863028 15.6945549,31.1598491 22.7366842,43.5678391 C29.7758962,55.9758292 31.9783849,59.4377108 31.9783849,59.4377108 C31.9783849,59.4377108 36.0128773,57.8495581 36.3775278,56.7684485 C36.3775278,56.7684485 33.6849489,32.8150248 28.9707481,26.9781991 C26.3073413,23.6795038 23.1771819,13.7775897 23.0313217,10.315708 C22.8854615,6.85382634 22.0773962,0 22.0773962,0 L4.988418,4.76154432 L4.988418,4.75863028 Z" fill="#FF9A00"></path>
                        </g>
                        <path d="M50.2313272,18.269592 C50.2313272,18.269592 43.0579238,21.9034021 38.8571508,20.6911607 C38.8571508,20.6911607 39.8606688,19.3769279 41.6401629,18.3774115 C41.4797167,17.5439956 41.3513598,16.8183992 41.2755125,16.2035363 C41.0713082,14.784398 41.053805,13.9801224 41.053805,13.9801224 L43.8047279,11.7304821 L46.4127079,9.57700525 C46.3222745,15.4895961 50.2313272,18.272506 50.2313272,18.272506 L50.2313272,18.269592 Z" id="Path" fill="#FFAE73"></path>
                        <path d="M57.3580554,55.1992439 C54.4612723,56.950583 51.719101,58.2677299 48.5101772,59.0078965 C44.723647,59.9054214 40.0736246,59.6402436 38.5158379,59.876281 C38.3553918,59.8966793 38.2036972,59.8558827 38.0607542,59.7626333 C37.9382317,59.7014385 37.2526888,55.0885103 36.5642288,49.2662547 C36.5350568,49.0331314 36.5029675,48.79418 36.4883815,48.5581426 L36.4796299,48.4794634 C36.2112472,46.2035968 35.9778709,43.8140825 35.7736666,41.4158261 C35.607386,39.5508393 35.4702775,37.7062509 35.376927,35.97531 C35.2573216,33.8072629 35.2077292,31.8169724 35.2573216,30.1792809 C35.2777421,29.4303721 35.3215001,28.7572285 35.3885958,28.1744201 C35.7999215,24.7737333 37.4218866,22.3434224 38.9505013,20.5367165 L40.2194848,19.0942658 C41.6897554,19.1875151 43.1921152,18.9106812 44.6069589,17.9752738 C46.1559939,16.9553591 47.8275516,15.8596794 48.1426095,16.043264 C50.5172132,17.3400126 52.4513191,20.7028169 53.8311564,25.1438166 C54.6217185,27.6994313 55.2314141,30.6018169 55.6194021,33.673217 C55.7448419,34.6261087 55.8498612,35.6052267 55.9315429,36.5785167 C55.9490461,36.7591873 55.9607149,36.9398579 55.975301,37.1176144 C56.162002,39.7810486 56.4653911,42.2754684 56.8037868,44.5017964 C57.2588705,47.5061735 57.7752155,50.0239056 58.139866,51.795643 C58.3236498,52.698996 58.4636756,53.395452 58.5453573,53.8966672 C58.6182873,54.3337734 57.7460435,54.9573784 57.3551382,55.1992439 L57.3580554,55.1992439 Z" id="Path" fill="#9E223E"></path>
                        <path d="M39.7760699,13.9072714 C39.7760699,13.9072714 46.7073454,14.8980456 47.2732829,10.6435446 C47.8363032,6.38612946 49.1111211,3.6498442 44.709061,2.83682654 C40.3070009,2.02380887 39.2305528,3.53619657 38.6908702,4.91453835 C38.1511875,6.28996608 37.9878241,13.5430162 39.7760699,13.9101854 L39.7760699,13.9072714 Z" id="Path" fill="#FFAE73"></path>
                        <path d="M49.6187145,2.23070584 C49.6799758,2.1578548 49.8229188,2.09665992 50.1438111,2.07334758 C50.1438111,2.07334758 49.88418,1.91890337 49.53995,1.91598932 C49.4641027,1.47014093 49.210306,0.683349638 48.4343299,0.505593088 C48.4343299,0.505593088 48.85149,0.71831814 48.9156685,1.19330696 C48.005501,0.295782077 46.0801467,-0.333650954 40.7912567,0.190876572 C33.8220575,0.87859044 36.2112472,5.29627783 37.1272491,5.81206323 C38.0403338,6.32493459 40.2865805,4.82128901 41.9727241,4.92328047 C43.6588677,5.0223579 44.0264354,7.44684068 44.6040417,7.77029933 C45.181648,8.09375797 44.9453545,7.50803556 45.712579,7.14378034 C46.4798035,6.77952511 46.5760712,8.05587542 46.371867,8.89220542 C46.1647456,9.72853542 47.2499453,10.8038169 47.2499453,10.8038169 L48.3001385,9.629458 C49.3503318,8.45509915 50.2634165,3.5449387 49.7558231,2.5133679 C49.712065,2.4230326 49.6653898,2.32978326 49.6216317,2.23653392 L49.6187145,2.23070584 Z" id="Path" fill="#FFFFFF"></path>
                        <path d="M47.4191431,30.5610203 C47.4191431,30.5610203 41.5730672,35.0020201 35.376927,35.9782241 C35.2573216,33.810177 35.2077292,31.8198864 35.2573216,30.1821949 L47.4162259,30.5610203 L47.4191431,30.5610203 Z" id="Path" fill="#9E223E"></path>
                        <g transform="translate(5.122347, 19.990905)" id="Path">
                            <path d="M6.4006073,4.838195 C6.30725679,4.73911758 5.11703775,0.758536465 3.05457487,1.04994065 C1.70974405,1.23935336 -0.48691019,2.01740253 0.0965305118,3.78622591 C0.326989589,4.4826819 4.42274332,6.87802427 4.42274332,6.87802427 L6.4006073,4.838195 Z" fill="#FFAE73"></path>
                            <path d="M43.0173458,1.98534807 C46.3487922,3.97563863 46.0804094,8.93825183 42.5155868,10.4768659 C42.4426567,10.5089204 42.3697266,10.5380608 42.2938793,10.5672012 C36.8066195,12.7673028 18.4194858,12.8692942 16.774183,12.6041164 C15.125963,12.3389386 4.16311221,7.23353737 4.16311221,7.23353737 C4.16311221,7.23353737 4.91866791,4.47102573 6.482289,4.0368335 C6.482289,4.0368335 18.2123643,7.00624211 19.0466845,6.80517323 C19.8810047,6.60701838 37.3171301,-1.6368059 40.2839261,0.292289775 C41.0686538,0.802247092 42.0284138,1.39088354 43.0173458,1.98243403 L43.0173458,1.98534807 Z" fill="#9E223E"></path>
                        </g>
                    </g>
                    <g transform="translate(335.554251, 23.796065)" fill="#FFFFFF" id="Path">
                        <path d="M16.3946837,2.32540537 L1.1639642,2.32540537 C0.525096632,2.32540537 0,1.80087784 0,1.16270268 L0,1.16270268 C0,0.524527526 0.525096632,0 1.1639642,0 L16.3946837,0 C17.0335513,0 17.5586479,0.524527526 17.5586479,1.16270268 L17.5586479,1.16270268 C17.5586479,1.80087784 17.0335513,2.32540537 16.3946837,2.32540537 Z"></path>
                        <path d="M16.3946837,6.86839655 L1.1639642,6.86839655 C0.525096632,6.86839655 0,6.34386903 0,5.70569387 L0,5.70569387 C0,5.06751871 0.525096632,4.54299119 1.1639642,4.54299119 L16.3946837,4.54299119 C17.0335513,4.54299119 17.5586479,5.06751871 17.5586479,5.70569387 L17.5586479,5.70569387 C17.5586479,6.34386903 17.0335513,6.86839655 16.3946837,6.86839655 Z"></path>
                        <path d="M16.3946837,11.5279494 L1.1639642,11.5279494 C0.525096632,11.5279494 0,11.0034219 0,10.3652467 L0,10.3652467 C0,9.72707157 0.525096632,9.20254404 1.1639642,9.20254404 L16.3946837,9.20254404 C17.0335513,9.20254404 17.5586479,9.72707157 17.5586479,10.3652467 L17.5586479,10.3652467 C17.5586479,11.0034219 17.0335513,11.5279494 16.3946837,11.5279494 Z"></path>
                    </g>
                    <path d="M287.192851,134.147915 L250.937846,134.147915 C250.08894,134.147915 249.394645,133.454373 249.394645,132.606387 L249.394645,132.606387 C249.394645,131.758401 250.08894,131.064859 250.937846,131.064859 L287.192851,131.064859 C288.041757,131.064859 288.736052,131.758401 288.736052,132.606387 L288.736052,132.606387 C288.736052,133.454373 288.041757,134.147915 287.192851,134.147915 Z" id="Path" fill="#FFFFFF"></path>
                    <path d="M287.192851,149.440806 L250.937846,149.440806 C250.08894,149.440806 249.394645,148.747264 249.394645,147.899278 L249.394645,147.899278 C249.394645,147.051292 250.08894,146.35775 250.937846,146.35775 L287.192851,146.35775 C288.041757,146.35775 288.736052,147.051292 288.736052,147.899278 L288.736052,147.899278 C288.736052,148.747264 288.041757,149.440806 287.192851,149.440806 Z" id="Path" fill="#FFFFFF"></path>
                    <path d="M287.192851,141.794361 L243.828621,141.794361 C242.979715,141.794361 242.28542,141.100819 242.28542,140.252832 L242.28542,140.252832 C242.28542,139.404846 242.979715,138.711304 243.828621,138.711304 L287.192851,138.711304 C288.041757,138.711304 288.736052,139.404846 288.736052,140.252832 L288.736052,140.252832 C288.736052,141.100819 288.041757,141.794361 287.192851,141.794361 Z" id="Path" fill="#FFFFFF"></path>
                    <g transform="translate(70.797612, 34.945189)" fill="#FFFFFF">
                        <rect id="Rectangle" x="6.77374655" y="0" width="22.806697" height="3.08305624" rx="1.54152812"></rect>
                        <path d="M0,1.54152812 C0,0.69062791 0.691377232,0 1.54320066,0 C2.39502408,0 3.08640131,0.69062791 3.08640131,1.54152812 C3.08640131,2.39242833 2.39502408,3.08305624 1.54320066,3.08305624 C0.691377232,3.08305624 0,2.39242833 0,1.54152812 Z" id="Path"></path>
                    </g>
                    <g transform="translate(70.797612, 41.079247)" fill="#FFFFFF" id="Path">
                        <path d="M8.04856449,0 L32.2905257,0 C32.9935717,0 33.5653436,0.571152195 33.5653436,1.27343627 L33.5653436,1.81253401 C33.5653436,2.51481808 32.9935717,3.08597028 32.2905257,3.08597028 L8.04856449,3.08597028 C7.34551844,3.08597028 6.77374655,2.51481808 6.77374655,1.81253401 L6.77374655,1.27343627 C6.77374655,0.571152195 7.34551844,0 8.04856449,0 Z"></path>
                        <path d="M0,1.54152812 C0,0.69062791 0.691377232,0 1.54320066,0 C2.39502408,0 3.08640131,0.69062791 3.08640131,1.54152812 C3.08640131,2.39242833 2.39502408,3.08305624 1.54320066,3.08305624 C0.691377232,3.08305624 0,2.39242833 0,1.54152812 Z"></path>
                    </g>
                    <g transform="translate(70.797612, 47.740747)" fill="#FFFFFF">
                        <rect id="Rectangle" x="6.77374655" y="0" width="22.806697" height="3.08305624" rx="1.54152812"></rect>
                        <path d="M0,1.54152812 C0,0.69062791 0.691377232,0 1.54320066,0 C2.39502408,0 3.08640131,0.69062791 3.08640131,1.54152812 C3.08640131,2.39242833 2.39502408,3.08305624 1.54320066,3.08305624 C0.691377232,3.08305624 0,2.39242833 0,1.54152812 Z" id="Path"></path>
                    </g>
                    <g transform="translate(293.828364, 126.999755)" fill="#9E223E" id="Path">
                        <path d="M43.5170503,109.812781 L43.5170503,109.812781 C42.8227559,109.815681 42.093455,109.39023 41.8892507,108.865703 L0.0536352046,1.12774906 C-0.150569041,0.600307494 0.246170636,0.169029306 0.940465072,0.166100383 L0.940465072,0.166100383 C1.63475951,0.163201222 2.36406038,0.588651327 2.56826463,1.11317885 L44.4038802,108.851133 C44.6080844,109.378574 44.2113447,109.809852 43.5170503,109.812781 L43.5170503,109.812781 Z"></path>
                        <path d="M77.2311713,109.646681 L77.2311713,109.646681 C76.5368768,109.64958 75.807576,109.22413 75.6033717,108.699603 L33.7677562,0.961648679 C33.5635519,0.434207111 33.9602916,0.00292892236 34.654586,0 L34.654586,0 C35.3488805,-0.00289916127 36.0781814,0.422550943 36.2823856,0.94707847 L78.1180011,108.685032 C78.3222054,109.212474 77.9254657,109.643752 77.2311713,109.646681 L77.2311713,109.646681 Z"></path>
                        <path d="M40.9294908,15.9718781 L7.07242685,16.1379942 C6.41897326,16.1408925 5.72759603,15.7387547 5.5350606,15.2433676 L5.5350606,15.2433676 C5.34252517,14.7479805 5.71884442,14.3400146 6.37229801,14.3371006 L40.229362,14.1709845 C40.8828155,14.1680862 41.5741928,14.5702239 41.7667282,15.065611 L41.7667282,15.065611 C41.9592636,15.5609982 41.5829444,15.968964 40.9294908,15.9718781 Z"></path>
                        <path d="M48.2341684,34.784932 L14.3771044,34.9510481 C13.7236509,34.9539464 13.0322736,34.5518086 12.8397382,34.0564215 L12.8397382,34.0564215 C12.6472028,33.5610344 13.023522,33.1530686 13.6769756,33.1501545 L47.5340395,32.9840384 C48.1874931,32.9811401 48.8788704,33.3832779 49.0714058,33.878665 L49.0714058,33.878665 C49.2639412,34.3740521 48.887622,34.782018 48.2341684,34.784932 Z"></path>
                        <path d="M55.267546,52.9015299 L21.4104821,53.0676461 C20.7570285,53.0705444 20.0656513,52.6684066 19.8731159,52.1730195 L19.8731159,52.1730195 C19.6805804,51.6776324 20.0568997,51.2696665 20.7103533,51.2667525 L54.5674172,51.1006364 C55.2208708,51.0977381 55.912248,51.4998758 56.1047835,51.9952629 L56.1047835,51.9952629 C56.2973189,52.49065 55.9209996,52.8986159 55.267546,52.9015299 Z"></path>
                        <path d="M63.1877536,73.2969086 L29.3306896,73.4630247 C28.677236,73.465923 27.9858588,73.0637852 27.7933234,72.5683981 L27.7933234,72.5683981 C27.600788,72.073011 27.9771072,71.6650452 28.6305608,71.6621311 L62.4876247,71.496015 C63.1410783,71.4931167 63.8324556,71.8952545 64.024991,72.3906416 L64.024991,72.3906416 C64.2175264,72.8860287 63.8412072,73.2939945 63.1877536,73.2969086 Z"></path>
                        <path d="M71.4755288,94.6451789 L37.6184648,94.811295 C36.9650112,94.8141933 36.273634,94.4120556 36.0810986,93.9166684 L36.0810986,93.9166684 C35.8885631,93.4212813 36.2648824,93.0133155 36.918336,93.0104014 L70.7753999,92.8442853 C71.4288535,92.841387 72.1202307,93.2435248 72.3127662,93.7389119 L72.3127662,93.7389119 C72.5053016,94.234299 72.1289823,94.6422649 71.4755288,94.6451789 Z"></path>
                    </g>
                    <g transform="translate(283.751576, 26.791118)">
                        <path d="M5.93840146,40.2638981 L5.93840146,40.2638981 C5.67293594,40.3163509 5.41330483,40.1415084 5.36371237,39.8763306 L4.82111252,37.0817645 C4.76860285,36.8165867 4.94363506,36.5572369 5.20910058,36.5076982 L5.20910058,36.5076982 C5.4745661,36.4552455 5.73419721,36.630088 5.78378967,36.8952658 L6.32638953,39.6898319 C6.37889919,39.9550097 6.20386698,40.2143594 5.93840146,40.2638981 Z" id="Path" fill="#9E223E"></path>
                        <polygon id="Rectangle" fill="#9E223E" transform="translate(4.689963, 33.831569) rotate(-10.950000) translate(-4.689963, -33.831569) " points="4.52035588 31.7741431 4.85873826 31.7742115 4.85957083 35.8889941 4.52118845 35.8889258"></polygon>
                        <path d="M4.46521369,9.01371373 C4.46521369,9.01371373 4.1443213,6.2308038 3.47044729,5.16717854 C2.79365608,4.10355328 0.244020208,3.41875345 0.080656811,3.57611171 C-0.418184989,4.05984265 1.55676179,5.77038519 1.63552628,6.39981822 C1.71429078,7.02925126 0.632008275,6.59505903 1.1512705,7.82187063 C1.58885103,8.85926951 3.03286676,10.2055568 3.03286676,10.2055568 L4.46521369,9.01662777 L4.46521369,9.01371373 Z" id="Path" fill="#FFAE73"></path>
                        <path d="M3.23415381,8.70191126 C4.16474173,7.9734008 4.36311156,7.98504576 4.36311156,7.98504576 C4.36311156,7.98504576 12.9717791,15.4362619 13.8090165,16.0977494 C14.6462539,16.7621509 27.5782171,20.5066946 27.5782171,20.5066946 L29.6319284,31.0059873 C29.6319284,31.0059873 12.1345417,22.5640082 10.045824,20.8418094 C6.59185505,17.9947906 2.2306358,10.0278003 2.2306358,10.0278003 C2.2306358,10.0278003 2.50193572,9.27306345 3.2312366,8.69899721 L3.23415381,8.70191126 Z" id="Path" fill="#F28018"></path>
                        <path d="M27.8553514,109.612265 C27.8553514,109.612265 27.7065741,113.202365 27.018114,114.073663 L17.4205145,114.12903 C17.4876102,113.758947 17.528451,112.902218 18.8557786,112.672009 C20.5331706,112.380605 22.502283,111.212074 23.5174698,108.997402 C24.5851663,106.669083 27.8582686,109.612265 27.8582686,109.612265 L27.8553514,109.612265 Z" id="Path" fill="#FFFFFF"></path>
                        <path d="M46.6888173,109.09648 C46.6888173,109.09648 47.3568569,113.863852 46.4496066,113.948359 C46.3300013,113.960016 42.5813948,114.02121 40.9594296,114.047437 C39.0515785,114.079491 35.9155847,114.012468 35.9155847,114.012468 C35.5217623,114.029953 35.2621311,113.601588 35.4634182,113.26356 C35.6851257,112.890562 36.105203,112.494253 36.9045167,112.339808 C38.5760743,112.019264 41.3620037,110.792452 42.3363497,108.560296 C43.3632053,106.214492 46.6859001,109.099394 46.6859001,109.099394 L46.6888173,109.09648 Z" id="Path" fill="#FFFFFF"></path>
                        <path d="M22.8640162,60.2425688 C22.8640162,60.2425688 25.5332574,69.5704166 33.1792478,85.766661 C40.8281554,101.962905 41.1577994,109.769623 41.1577994,109.769623 C41.1577994,109.769623 42.3159292,110.177589 43.8503783,110.014403 C45.5131843,109.836646 46.6859001,109.09648 46.6859001,109.09648 C46.6859001,109.09648 46.1899755,89.8171791 42.5784776,81.6432919 C38.9669796,73.4694046 38.2289271,51.1041337 38.2289271,51.1041337 L22.8640162,60.2425688 L22.8640162,60.2425688 Z" id="Path" fill="#9E223E"></path>
                        <path d="M18.5815615,52.2172976 C18.5815615,52.2172976 18.3686056,66.6592889 20.8715662,84.3912333 C23.3745268,102.123178 22.2047282,110.369916 22.2047282,110.369916 C22.2047282,110.369916 22.8669334,110.850733 24.9060587,110.844957 C27.2923312,110.836163 28.5175566,109.851217 28.5175566,109.851217 C28.5175566,109.851217 32.0969653,92.11053 31.0701097,83.2372727 C30.0432541,74.3640154 35.9739288,52.7797077 35.9739288,52.7797077 L18.5844787,52.2172976 L18.5815615,52.2172976 Z" id="Path" fill="#9E223E"></path>
                        <path d="M30.4020701,18.4202407 L27.5752999,20.5096087 L23.491215,19.6499663 C23.5466418,19.276969 23.8179418,17.7354409 24.0629869,16.3396148 C24.0775729,16.2580217 24.0921589,16.1735145 24.1067449,16.0948353 C24.3167836,14.9059063 24.4976502,13.8859916 24.4976502,13.8859916 L28.3104352,11.9860364 L29.7340305,11.2779242 C29.7311133,11.3041506 29.6231768,12.5979852 29.6085907,12.7844838 C29.3431252,16.138546 30.3991529,18.4173267 30.3991529,18.4173267 L30.4020701,18.4202407 Z" id="Path" fill="#FFAE73"></path>
                        <path d="M38.4973098,54.0006912 C37.5725563,58.2231378 17.7997509,56.3698072 18.0564648,53.7908802 C18.0652165,53.703459 18.1177261,52.5116159 18.187739,50.9059788 C18.3365164,47.4295269 18.5669755,41.994839 18.5961475,41.5693889 C18.5961475,41.5606467 18.5961475,41.5548186 18.5961475,41.5460765 C18.9520463,37.9588911 19.2933591,34.4474707 19.3166968,32.1570338 C19.3371172,30.1696573 19.6113343,28.1385701 19.9759848,26.2910676 C20.3114632,24.5892672 20.7257061,23.041911 21.0845221,21.8354977 C21.3383188,20.9875115 21.8079886,20.2415168 22.4322701,19.6528804 C22.875685,19.2361724 23.3978645,18.8981436 23.9725536,18.6708483 C24.1300826,18.6038253 24.2905287,18.5513726 24.4509749,18.5047479 C26.7789033,17.8286902 29.999496,16.9952743 30.8717399,17.2517099 C33.2346747,17.9452519 34.9908312,22.1035896 36.2335599,27.4013176 C38.5614883,37.3178019 39.0982538,51.2469217 38.4943926,53.9977772 L38.4973098,54.0006912 Z" id="Path" fill="#FF9A00"></path>
                        <path d="M22.6481432,13.6616104 C22.6481432,13.6616104 29.5298262,15.8063452 30.801727,11.5052195 C32.0736277,7.20409376 33.8181154,4.58437017 29.4773166,3.03409993 C25.1365178,1.48382969 23.7946041,2.87091359 23.0215452,4.20554474 C22.2484863,5.53726185 20.8919867,12.9972089 22.6510604,13.6645245 L22.6481432,13.6616104 Z" id="Path" fill="#FFAE73"></path>
                        <path d="M23.2899279,3.78883676 C23.2899279,3.78883676 23.7275085,8.79516059 24.7660329,8.57660746 C25.8016402,8.35805432 26.7409797,8.19778202 26.5892851,9.70725568 C26.4375905,11.2167293 24.9994092,12.9593263 28.193747,13.2245041 C31.3880849,13.492596 35.9797632,5.26334192 35.101685,3.70724359 C32.5695523,-0.786208885 19.6317547,-1.69538993 23.2899279,3.78883676 Z" id="Path" fill="#FFFFFF"></path>
                        <path d="M8.90228023,36.3037153 C8.90228023,36.3037153 6.52767657,34.6980783 6.07842723,34.5582043 C5.62917789,34.4183302 4.15307291,34.2668001 4.08306003,34.3833617 C4.01596435,34.4999234 3.8117601,34.8554365 4.07139121,34.9749122 C4.33102233,35.0943879 4.65191471,35.0535914 4.55272979,35.1380986 C4.45646208,35.2226058 3.48503331,34.7621872 3.26332584,35.2546602 C3.03870117,35.7500474 2.84324854,37.4431057 3.9809579,37.955977 C5.11866727,38.4688484 7.93085146,38.0055157 8.1321385,38.0637966 C9.85037137,38.5620977 8.90228023,36.3008013 8.90228023,36.3008013 L8.90228023,36.3037153 Z" id="Path" fill="#FFAE73"></path>
                        <path d="M8.8818598,35.8724371 C8.8818598,35.8724371 20.4689921,37.8394153 21.4958478,37.3411142 C23.1353162,36.5426667 20.8598974,24.7990782 20.8598974,24.7990782 C20.8598974,24.7990782 20.7607125,22.1385581 23.8733686,21.509125 C26.5776163,20.9641992 29.1885134,22.9865442 29.1885134,22.9865442 C29.1885134,22.9865442 31.5601999,25.1079667 31.2597279,27.4595984 C30.5887711,32.6757332 29.5414951,43.2828454 26.0496025,44.9088808 C21.5454402,47.0069909 8.51429216,39.0924533 8.51429216,39.0924533 C8.51429216,39.0924533 8.07962884,38.5620977 8.14089011,37.5771516 C8.19631698,36.7087671 8.8818598,35.8695231 8.8818598,35.8695231 L8.8818598,35.8724371 Z" id="Path" fill="#FF9A00"></path>
                        <path d="M1.09584363,7.67908258 C1.09584363,7.67908258 0.354873941,6.20749146 0.235268597,5.93065749 C0.115663253,5.65382352 0.404466401,5.7150184 0.690352345,5.86946261 C0.976238289,6.02390683 1.36422636,6.87772108 1.80472409,6.77572962 C2.15478851,6.69413645 1.09584363,7.68199662 1.09584363,7.68199662 L1.09584363,7.67908258 Z" id="Path" fill="#FFAE73"></path>
                    </g>
                </g>
                <path d="M262.94119,94.9970885 C263.504729,99.9272615 259.955013,104.376866 255.008069,104.941389 C250.061124,105.503018 245.596383,101.965336 245.029939,97.0351635 C244.4664,92.1049906 252.045131,79.0977874 252.045131,79.0977874 C253.093778,77.7834606 262.374746,90.0669156 262.938285,94.9970885 L262.94119,94.9970885 Z" id="Path" fill="#9E223E"></path>
                <path d="M204.993416,82.4363083 C204.85755,85.0981424 202.736376,87.1383861 200.254742,86.9926544 C197.773107,86.8469227 195.870982,84.5717238 196.006848,81.9098897 C196.142714,79.2480557 200.967345,73.0351269 200.967345,73.0351269 C201.593992,72.4313813 205.132055,79.7744743 204.996189,82.4363083 L204.993416,82.4363083 Z" id="Path" fill="#9E223E"></path>
                <path d="M212.994559,91.3927114 C212.905336,92.9129219 211.489664,94.0804216 209.836064,93.9956617 C208.182463,93.9109018 206.912522,92.6121608 207.004719,91.0919504 C207.093942,89.5717399 210.31192,86.0200252 210.31192,86.0200252 C210.728294,85.675517 213.086757,89.8697668 212.997533,91.3927114 L212.994559,91.3927114 Z" id="Path" fill="#9E223E"></path>
                <path d="M202.998293,101.042677 C202.937628,102.184092 201.995875,103.059575 200.89235,102.996827 C199.788824,102.934079 198.942403,101.959992 199.003068,100.818577 C199.063733,99.6771621 201.20723,97.0148567 201.20723,97.0148567 C201.484556,96.7578889 203.058958,99.9042499 202.998293,101.045665 L202.998293,101.042677 Z" id="Path" fill="#9E223E"></path>
            </g>
        </g>
    </g>
</svg>