<?xml version="1.0" encoding="UTF-8"?><svg xmlns="http://www.w3.org/2000/svg" xmlns:xlink="http://www.w3.org/1999/xlink" viewBox="0 0 197.5 259.73"><defs><style>.cls-1,.cls-2{fill:none;}.cls-2{stroke:#fff;stroke-miterlimit:10;stroke-width:12px;}.cls-3{mix-blend-mode:screen;opacity:.2;}.cls-3,.cls-4{fill:#fff;}.cls-5{fill:#e9364b;}.cls-6{fill:#ffce00;}.cls-7{fill:#ffa1fb;}.cls-8{fill:#d0d0d0;}.cls-9{clip-path:url(#clippath-1);}.cls-10{fill:#b52443;mix-blend-mode:multiply;opacity:.5;}.cls-11{isolation:isolate;}</style><clipPath id="clippath-1"><path class="cls-1" d="m189.56,168.94c-9.74,62.33-56,91.33-106.24,83.48C33.08,244.56-2.11,202.82,7.63,140.49,17.38,78.16,71.53-1.37,121.77,6.48c50.24,7.85,77.53,100.12,67.79,162.45Z"/></clipPath></defs><g class="cls-11"><g id="Calque_1"><path class="cls-2" d="m189.55,168.99c-9.74,62.33-56,91.33-106.24,83.48C33.08,244.62-2.12,202.88,7.63,140.55,17.37,78.22,71.52-1.31,121.76,6.54c50.24,7.85,77.53,100.12,67.79,162.45Z"/><path class="cls-5" d="m189.56,168.94c-9.74,62.33-56,91.33-106.24,83.48C33.08,244.56-2.11,202.82,7.63,140.49,17.38,78.16,71.53-1.37,121.77,6.48c50.24,7.85,77.53,100.12,67.79,162.45Z"/><g class="cls-9"><path class="cls-4" d="m3.65,141.98c-3.16-1.33-5.45-3.75-7.01-6.73-.33-.63-.48-1.35-.72-2.01-1.33-3.81.75-9.68,5.24-10.14,2.87-.29,5.52.31,8.06,1.2.04-.06.08-.12.12-.18.89-1.25,2.82-2.22,4.34-2.4,2.66-.31,5.45-.7,8.11-.13,1.49.32,4.28,1.42,5.26,3.53.47,1.02.43,2.11-.13,3.17-1.7,3.2-5.35,2.21-7.77,1.55-.23-.06-.44-.12-.66-.18-2.1-.55-4.12-1.4-6.08-2.22-.74-.31-1.48-.62-2.21-.91-.13.99.24,1.95.65,2.67.95,1.66,1.81,2.12,3.67,3,2.74,1.3,4.89,2.21,7.55,2.09,2.37-.11,5.15-.07,7.89,1.04,1.12.43,2.06,1.08,2.98,1.69.79.52,1.53,1.02,2.36,1.39.44.2.63.71.44,1.15-.19.43-.7.63-1.13.44,0,0-.01,0-.02,0-.95-.43-1.79-.99-2.6-1.53-.88-.59-1.72-1.15-2.67-1.53-2.42-.99-4.97-1.02-7.15-.92-3.3.16-6-1.13-8.38-2.26-2.02-.96-3.23-1.61-4.43-3.71-.82-1.43-1.09-2.86-.8-4.16-2.34-.81-4.68-1.33-7.21-1.07-3.33.34-4.53,4.7-3.91,7.42.27,1.17.92,2.45,1.5,3.49,1.48,2.65,4.82,4.92,7.78,5.29.47.06.82.49.76.97-.06.48-.49.82-.97.76-.94-.12-1.91-.39-2.85-.78Zm19.19-18.28c-1.79-.61-4-.57-5.57-.53-.93.02-1.79.19-2.7.32-.7.1-1.42.16-2.09.4-.21.08-1.58,1.04-1.56,1.05.73.29,1.46.6,2.18.9,1.9.8,3.87,1.62,5.85,2.14.22.06.44.12.68.18,2.76.75,4.8,1.15,5.77-.68.31-.58.33-1.09.09-1.61-.52-1.11-1.49-1.77-2.65-2.16Z"/><path class="cls-8" d="m6.71,141.03c-1.26-.15-2.59-.66-3.81-1.38-.45.32-.92.62-1.42.91-.07.04-.13.08-.2.11.73.51,1.51.95,2.36,1.3.94.4,1.91.67,2.85.78.48.06.91-.28.97-.76.06-.48-.28-.92-.76-.97Z"/><path class="cls-4" d="m22.07,167.93L-.07,147.28l10.16-10.16,22.14,20.65c8.3,7.33,8.29,11.83,5.61,14.71-2.37,2.54-7.88,3.23-15.77-4.55Z"/><path class="cls-6" d="m1.82,145.39l-1.89,1.89,5.73,5.35c-1.3-1.59-3.64-5.48-3.84-7.24Z"/><path class="cls-6" d="m20.25,147.09c1.12,1.99,2.85,4.71,4.57,6.31,5.8,5.37,9.91,6.74,9.9,6.73l-15.01-14.04c.18.33.35.67.53.99Z"/><path class="cls-6" d="m12.33,139.25c4.16,9.07,9.33,18.54,23.8,25.27.79.37,1.63.62,2.47.85-.22-.47-.5-.96-.82-1.47-11.32-4.67-18.48-14.36-21.63-21.09l-3.82-3.56Z"/><path class="cls-6" d="m39.43,168.56c0-.38-.05-.78-.14-1.19-2.48-.26-7.58-2.28-15.65-8.8-9.26-7.48-11.55-16.62-13.11-21.04l-.44-.41-1.14,1.14c.75,3.82,2.2,11.2,13.54,21.85,4.12,3.87,8.75,6.18,11.63,7.39,2.73,1.15,4.05.97,5.3,1.07Z"/><path class="cls-6" d="m35.08,171.52c.47.22,2,.84,2.83.86.27-.3.52-.62.72-.96-22.15-8.61-29.12-25.26-31.29-31.56l-1.48,1.48c1.79,4.94,4.7,13.27,15.33,21.54,3.69,2.87,8.05,5.93,13.88,8.64Z"/><path class="cls-6" d="m36.29,173.29c-6.99-2.94-13.07-7.33-18.09-11.91-7.42-6.77-12.1-14.29-13.7-18.68l-1.55,1.55c1.54,4.9,5.91,10.18,12.95,17.09,4.95,4.86,12.05,9.55,19.2,12.69.57-.14,1.07-.35,1.52-.61-.11-.05-.23-.09-.34-.14Z"/><path class="cls-4" d="m14.14,72.25c-.2.01-1,1.07-2.08,2.77,4.12,5.16,10.21,13.58,10.53,18.2.48,6.99-4.79,13.05-11.77,13.53-.44.03-.87.04-1.3.02,2.1,1.19,4.56,1.8,7.14,1.63,6.99-.48,12.26-6.54,11.77-13.53-.48-6.99-14.12-22.63-14.28-22.62Z"/><path class="cls-7" d="m22.58,93.21c-.32-4.63-6.4-13.04-10.53-18.2-3.32,5.19-9.3,16.34-8.94,21.61.31,4.4,2.82,8.12,6.39,10.15.43.01.87,0,1.3-.02,6.99-.48,12.26-6.54,11.77-13.53Z"/><path class="cls-4" d="m12.71,256.75c-3.16-1.33-5.45-3.75-7.01-6.73-.33-.63-.48-1.35-.72-2.01-1.33-3.81.75-9.68,5.24-10.14,2.87-.29,5.52.31,8.06,1.2.04-.06.08-.12.12-.18.89-1.25,2.82-2.22,4.34-2.4,2.66-.31,5.45-.7,8.11-.13,1.49.32,4.28,1.42,5.26,3.53.47,1.02.43,2.11-.13,3.17-1.7,3.2-5.35,2.21-7.77,1.55-.23-.06-.44-.12-.66-.18-2.1-.55-4.12-1.4-6.08-2.22-.74-.31-1.48-.62-2.21-.91-.13.99.24,1.95.65,2.67.95,1.66,1.81,2.12,3.67,3,2.74,1.3,4.89,2.21,7.55,2.09,2.37-.11,5.15-.07,7.89,1.04,1.12.43,2.06,1.08,2.98,1.69.79.52,1.53,1.02,2.36,1.39.44.2.63.71.44,1.15-.19.43-.7.63-1.13.44,0,0-.01,0-.02,0-.95-.43-1.79-.99-2.6-1.53-.88-.59-1.72-1.15-2.67-1.53-2.42-.99-4.97-1.02-7.15-.92-3.3.16-6-1.13-8.38-2.26-2.02-.96-3.23-1.61-4.43-3.71-.82-1.43-1.09-2.86-.8-4.16-2.34-.81-4.68-1.33-7.21-1.07-3.33.34-4.53,4.7-3.91,7.42.27,1.17.92,2.45,1.5,3.49,1.48,2.65,4.82,4.92,7.78,5.29.47.06.82.49.76.97-.06.48-.49.82-.97.76-.94-.12-1.91-.39-2.85-.78Zm19.19-18.28c-1.79-.61-4-.57-5.57-.53-.93.02-1.79.19-2.7.32-.7.1-1.42.16-2.09.4-.21.08-1.58,1.04-1.56,1.05.73.29,1.46.6,2.18.9,1.9.8,3.87,1.62,5.85,2.14.22.06.44.12.68.18,2.76.75,4.8,1.15,5.77-.68.31-.58.33-1.09.09-1.61-.52-1.11-1.49-1.77-2.65-2.16Z"/><path class="cls-8" d="m15.77,255.81c-1.26-.15-2.59-.66-3.81-1.38-.45.32-.92.62-1.42.91-.07.04-.13.08-.2.11.73.51,1.51.95,2.36,1.3.94.4,1.91.67,2.85.78.48.06.91-.28.97-.76.06-.48-.28-.92-.76-.97Z"/><path class="cls-4" d="m31.13,282.71l-22.14-20.65,10.16-10.16,22.14,20.65c8.3,7.33,8.29,11.83,5.61,14.71-2.37,2.54-7.88,3.23-15.77-4.55Z"/><path class="cls-6" d="m21.4,254.03c4.16,9.07,9.33,18.54,23.8,25.27.79.37,1.63.62,2.47.85-.22-.47-.5-.96-.82-1.47-11.32-4.67-18.48-14.36-21.63-21.09l-3.82-3.56Z"/><path class="cls-6" d="m48.49,283.34c0-.38-.05-.78-.14-1.19-2.48-.26-7.58-2.28-15.65-8.8-9.26-7.48-11.55-16.62-13.11-21.04l-.44-.41-1.14,1.14c.75,3.82,2.2,11.2,13.54,21.85,4.12,3.87,8.75,6.18,11.63,7.39,2.73,1.15,4.05.97,5.3,1.07Z"/><path class="cls-6" d="m44.14,286.3c.47.22,2,.84,2.83.86.27-.3.52-.62.72-.96-22.15-8.61-29.12-25.26-31.29-31.56l-1.48,1.48c1.79,4.94,4.7,13.27,15.33,21.54,3.69,2.87,8.05,5.93,13.88,8.64Z"/><path class="cls-6" d="m45.35,288.07c-6.99-2.94-13.07-7.33-18.09-11.91-7.42-6.77-12.1-14.29-13.7-18.68l-1.55,1.55c1.54,4.9,5.91,10.18,12.95,17.09,4.95,4.86,12.05,9.55,19.2,12.69.57-.14,1.07-.35,1.52-.61-.11-.05-.23-.09-.34-.14Z"/><path class="cls-4" d="m23.2,187.02c-.2.01-1,1.07-2.08,2.77,4.12,5.16,10.21,13.58,10.53,18.2.48,6.99-4.79,13.05-11.77,13.53-.44.03-.87.04-1.3.02,2.1,1.19,4.56,1.8,7.14,1.63,6.99-.48,12.26-6.54,11.77-13.53-.48-6.99-14.12-22.63-14.28-22.62Z"/><path class="cls-7" d="m31.64,207.99c-.32-4.63-6.4-13.04-10.53-18.2-3.32,5.19-9.3,16.34-8.94,21.61.31,4.4,2.82,8.12,6.39,10.15.43.01.87,0,1.3-.02,6.99-.48,12.26-6.54,11.77-13.53Z"/><path class="cls-4" d="m58.87,105.38c-3.16-1.33-5.45-3.75-7.01-6.73-.33-.63-.48-1.35-.72-2.01-1.33-3.81.75-9.68,5.24-10.14,2.87-.29,5.52.31,8.06,1.2.04-.06.08-.12.12-.18.89-1.25,2.82-2.22,4.34-2.4,2.66-.31,5.45-.7,8.11-.13,1.49.32,4.28,1.42,5.26,3.53.47,1.02.43,2.11-.13,3.17-1.7,3.2-5.35,2.21-7.77,1.55-.23-.06-.44-.12-.66-.18-2.1-.55-4.12-1.4-6.08-2.22-.74-.31-1.48-.62-2.21-.91-.13.99.24,1.95.65,2.67.95,1.66,1.81,2.12,3.67,3,2.74,1.3,4.89,2.21,7.55,2.09,2.37-.11,5.15-.07,7.89,1.04,1.12.43,2.06,1.08,2.98,1.69.79.52,1.53,1.02,2.36,1.39.44.2.63.71.44,1.15-.19.43-.7.63-1.13.44,0,0-.01,0-.02,0-.95-.43-1.79-.99-2.6-1.53-.88-.59-1.72-1.15-2.67-1.53-2.42-.99-4.97-1.02-7.15-.92-3.3.16-6-1.13-8.38-2.26-2.02-.96-3.23-1.61-4.43-3.71-.82-1.43-1.09-2.86-.8-4.16-2.34-.81-4.68-1.33-7.21-1.07-3.33.34-4.53,4.7-3.91,7.42.27,1.17.92,2.45,1.5,3.49,1.48,2.65,4.82,4.92,7.78,5.29.47.06.82.49.76.97-.06.48-.49.82-.97.76-.94-.12-1.91-.39-2.85-.78Zm19.19-18.28c-1.79-.61-4-.57-5.57-.53-.93.02-1.79.19-2.7.32-.7.1-1.42.16-2.09.4-.21.08-1.58,1.04-1.56,1.05.73.29,1.46.6,2.18.9,1.9.8,3.87,1.62,5.85,2.14.22.06.44.12.68.18,2.76.75,4.8,1.15,5.77-.68.31-.58.33-1.09.09-1.61-.52-1.11-1.49-1.77-2.65-2.16Z"/><path class="cls-8" d="m61.93,104.44c-1.26-.15-2.59-.66-3.81-1.38-.45.32-.92.62-1.42.91-.07.04-.13.08-.2.11.73.51,1.51.95,2.36,1.3.94.4,1.91.67,2.85.78.48.06.91-.28.97-.76.06-.48-.28-.92-.76-.97Z"/><path class="cls-4" d="m77.28,131.34l-22.14-20.65,10.16-10.16,22.14,20.65c8.3,7.33,8.29,11.83,5.61,14.71-2.37,2.54-7.88,3.23-15.77-4.55Z"/><path class="cls-6" d="m57.04,108.8l-1.89,1.89,5.73,5.35c-1.3-1.59-3.64-5.48-3.84-7.24Z"/><path class="cls-6" d="m75.47,110.5c1.12,1.99,2.85,4.71,4.57,6.31,5.8,5.37,9.91,6.74,9.9,6.73l-15.01-14.04c.18.33.35.67.53.99Z"/><path class="cls-6" d="m67.55,102.66c4.16,9.07,9.33,18.54,23.8,25.27.79.37,1.63.62,2.47.85-.22-.47-.5-.96-.82-1.47-11.32-4.67-18.48-14.36-21.63-21.09l-3.82-3.56Z"/><path class="cls-6" d="m94.65,131.97c0-.38-.05-.78-.14-1.19-2.48-.26-7.58-2.28-15.65-8.8-9.26-7.48-11.55-16.62-13.11-21.04l-.44-.41-1.14,1.14c.75,3.82,2.2,11.2,13.54,21.85,4.12,3.87,8.75,6.18,11.63,7.39,2.73,1.15,4.05.97,5.3,1.07Z"/><path class="cls-6" d="m90.3,134.93c.47.22,2,.84,2.83.86.27-.3.52-.62.72-.96-22.15-8.61-29.12-25.26-31.29-31.56l-1.48,1.48c1.79,4.94,4.7,13.27,15.33,21.54,3.69,2.87,8.05,5.93,13.88,8.64Z"/><path class="cls-6" d="m91.51,136.7c-6.99-2.94-13.07-7.33-18.09-11.91-7.42-6.77-12.1-14.29-13.7-18.68l-1.55,1.55c1.54,4.9,5.91,10.18,12.95,17.09,4.95,4.86,12.05,9.55,19.2,12.69.57-.14,1.07-.35,1.52-.61-.11-.05-.23-.09-.34-.14Z"/><path class="cls-4" d="m69.36,35.65c-.2.01-1,1.07-2.08,2.77,4.12,5.16,10.21,13.58,10.53,18.2.48,6.99-4.79,13.05-11.77,13.53-.44.03-.87.04-1.3.02,2.1,1.19,4.56,1.8,7.14,1.63,6.99-.48,12.26-6.54,11.77-13.53-.48-6.99-14.12-22.63-14.28-22.62Z"/><path class="cls-7" d="m77.8,56.62c-.32-4.63-6.4-13.04-10.53-18.2-3.32,5.19-9.3,16.34-8.94,21.61.31,4.4,2.82,8.12,6.39,10.15.43.01.87,0,1.3-.02,6.99-.48,12.26-6.54,11.77-13.53Z"/><path class="cls-4" d="m78.28,225.95c-3.16-1.33-5.45-3.75-7.01-6.73-.33-.63-.48-1.35-.72-2.01-1.33-3.81.75-9.68,5.24-10.14,2.87-.29,5.52.31,8.06,1.2.04-.06.08-.12.12-.18.89-1.25,2.82-2.22,4.34-2.4,2.66-.31,5.45-.7,8.11-.13,1.49.32,4.28,1.42,5.26,3.53.47,1.02.43,2.11-.13,3.17-1.7,3.2-5.35,2.21-7.77,1.55-.23-.06-.44-.12-.66-.18-2.1-.55-4.12-1.4-6.08-2.22-.74-.31-1.48-.62-2.21-.91-.13.99.24,1.95.65,2.67.95,1.66,1.81,2.12,3.67,3,2.74,1.3,4.89,2.21,7.55,2.09,2.37-.11,5.15-.07,7.89,1.04,1.12.43,2.06,1.08,2.98,1.69.79.52,1.53,1.02,2.36,1.39.44.2.63.71.44,1.15-.19.43-.7.63-1.13.44,0,0-.01,0-.02,0-.95-.43-1.79-.99-2.6-1.53-.88-.59-1.72-1.15-2.67-1.53-2.42-.99-4.97-1.02-7.15-.92-3.3.16-6-1.13-8.38-2.26-2.02-.96-3.23-1.61-4.43-3.71-.82-1.43-1.09-2.86-.8-4.16-2.34-.81-4.68-1.33-7.21-1.07-3.33.34-4.53,4.7-3.91,7.42.27,1.17.92,2.45,1.5,3.49,1.48,2.65,4.82,4.92,7.78,5.29.47.06.82.49.76.97-.06.48-.49.82-.97.76-.94-.12-1.91-.39-2.85-.78Zm19.19-18.28c-1.79-.61-4-.57-5.57-.53-.93.02-1.79.19-2.7.32-.7.1-1.42.16-2.09.4-.21.08-1.58,1.04-1.56,1.05.73.29,1.46.6,2.18.9,1.9.8,3.87,1.62,5.85,2.14.22.06.44.12.68.18,2.76.75,4.8,1.15,5.77-.68.31-.58.33-1.09.09-1.61-.52-1.11-1.49-1.77-2.65-2.16Z"/><path class="cls-8" d="m81.34,225c-1.26-.15-2.59-.66-3.81-1.38-.45.32-.92.62-1.42.91-.07.04-.13.08-.2.11.73.51,1.51.95,2.36,1.3.94.4,1.91.67,2.85.78.48.06.91-.28.97-.76.06-.48-.28-.92-.76-.97Z"/><path class="cls-4" d="m96.69,251.9l-22.14-20.65,10.16-10.16,22.14,20.65c8.3,7.33,8.29,11.83,5.61,14.71-2.37,2.54-7.88,3.23-15.77-4.55Z"/><path class="cls-6" d="m76.45,229.36l-1.89,1.89,5.73,5.35c-1.3-1.59-3.64-5.48-3.84-7.24Z"/><path class="cls-6" d="m94.88,231.06c1.12,1.99,2.85,4.71,4.57,6.31,5.8,5.37,9.91,6.74,9.9,6.73l-15.01-14.04c.18.33.35.67.53.99Z"/><path class="cls-6" d="m86.96,223.22c4.16,9.07,9.33,18.54,23.8,25.27.79.37,1.63.62,2.47.85-.22-.47-.5-.96-.82-1.47-11.32-4.67-18.48-14.36-21.63-21.09l-3.82-3.56Z"/><path class="cls-6" d="m114.06,252.53c0-.38-.05-.78-.14-1.19-2.48-.26-7.58-2.28-15.65-8.8-9.26-7.48-11.55-16.62-13.11-21.04l-.44-.41-1.14,1.14c.75,3.82,2.2,11.2,13.54,21.85,4.12,3.87,8.75,6.18,11.63,7.39,2.73,1.15,4.05.97,5.3,1.07Z"/><path class="cls-6" d="m109.71,255.49c.47.22,2,.84,2.83.86.27-.3.52-.62.72-.96-22.15-8.61-29.12-25.26-31.29-31.56l-1.48,1.48c1.79,4.94,4.7,13.27,15.33,21.54,3.69,2.87,8.05,5.93,13.88,8.64Z"/><path class="cls-6" d="m110.92,257.26c-6.99-2.94-13.07-7.33-18.09-11.91-7.42-6.77-12.1-14.29-13.7-18.68l-1.55,1.55c1.54,4.9,5.91,10.18,12.95,17.09,4.95,4.86,12.05,9.55,19.2,12.69.57-.14,1.07-.35,1.52-.61-.11-.05-.23-.09-.34-.14Z"/><path class="cls-4" d="m78.42,150.43c-.2.01-1,1.07-2.08,2.77,4.12,5.16,10.21,13.58,10.53,18.2.48,6.99-4.79,13.05-11.77,13.53-.44.03-.87.04-1.3.02,2.1,1.19,4.56,1.8,7.14,1.63,6.99-.48,12.26-6.54,11.77-13.53s-14.12-22.63-14.28-22.62Z"/><path class="cls-7" d="m86.86,171.4c-.32-4.63-6.4-13.04-10.53-18.2-3.32,5.19-9.3,16.34-8.94,21.61.31,4.4,2.82,8.12,6.39,10.15.43.01.87,0,1.3-.02,6.99-.48,12.26-6.54,11.77-13.53Z"/><path class="cls-4" d="m114.08,68.79c-3.16-1.33-5.45-3.75-7.01-6.73-.33-.63-.48-1.35-.72-2.01-1.33-3.81.75-9.68,5.24-10.14,2.87-.29,5.52.31,8.06,1.2.04-.06.08-.12.12-.18.89-1.25,2.82-2.22,4.34-2.4,2.66-.31,5.45-.7,8.11-.13,1.49.32,4.28,1.42,5.26,3.53.47,1.02.43,2.11-.13,3.17-1.7,3.2-5.35,2.21-7.77,1.55-.23-.06-.44-.12-.66-.18-2.1-.55-4.12-1.4-6.08-2.22-.74-.31-1.48-.62-2.21-.91-.13.99.24,1.95.65,2.67.95,1.66,1.81,2.12,3.67,3,2.74,1.3,4.89,2.21,7.55,2.09,2.37-.11,5.15-.07,7.89,1.04,1.12.43,2.06,1.08,2.98,1.69.79.52,1.53,1.02,2.36,1.39.44.2.63.71.44,1.15-.19.43-.7.63-1.13.44,0,0-.01,0-.02,0-.95-.43-1.79-.99-2.6-1.53-.88-.59-1.72-1.15-2.67-1.53-2.42-.99-4.97-1.02-7.15-.92-3.3.16-6-1.13-8.38-2.26-2.02-.96-3.23-1.61-4.43-3.71-.82-1.43-1.09-2.86-.8-4.16-2.34-.81-4.68-1.33-7.21-1.07-3.33.34-4.53,4.7-3.91,7.42.27,1.17.92,2.45,1.5,3.49,1.48,2.65,4.82,4.92,7.78,5.29.47.06.82.49.76.97-.06.48-.49.82-.97.76-.94-.12-1.91-.39-2.85-.78Zm19.19-18.28c-1.79-.61-4-.57-5.57-.53-.93.02-1.79.19-2.7.32-.7.1-1.42.16-2.09.4-.21.08-1.58,1.04-1.56,1.05.73.29,1.46.6,2.18.9,1.9.8,3.87,1.62,5.85,2.14.22.06.44.12.68.18,2.76.75,4.8,1.15,5.77-.68.31-.58.33-1.09.09-1.61-.52-1.11-1.49-1.77-2.65-2.16Z"/><path class="cls-8" d="m117.15,67.85c-1.26-.15-2.59-.66-3.81-1.38-.45.32-.92.62-1.42.91-.07.04-.13.08-.2.11.73.51,1.51.95,2.36,1.3.94.4,1.91.67,2.85.78.48.06.91-.28.97-.76.06-.48-.28-.92-.76-.97Z"/><path class="cls-4" d="m132.5,94.75l-22.14-20.65,10.16-10.16,22.14,20.65c8.3,7.33,8.29,11.83,5.61,14.71-2.37,2.54-7.88,3.23-15.77-4.55Z"/><path class="cls-6" d="m112.26,72.2l-1.89,1.89,5.73,5.35c-1.3-1.59-3.64-5.48-3.84-7.24Z"/><path class="cls-6" d="m130.69,73.91c1.12,1.99,2.85,4.71,4.57,6.31,5.8,5.37,9.91,6.74,9.9,6.73l-15.01-14.04c.18.33.35.67.53.99Z"/><path class="cls-6" d="m122.77,66.07c4.16,9.07,9.33,18.54,23.8,25.27.79.37,1.63.62,2.47.85-.22-.47-.5-.96-.82-1.47-11.32-4.67-18.48-14.36-21.63-21.09l-3.82-3.56Z"/><path class="cls-6" d="m149.87,95.38c0-.38-.05-.78-.14-1.19-2.48-.26-7.58-2.28-15.65-8.8-9.26-7.48-11.55-16.62-13.11-21.04l-.44-.41-1.14,1.14c.75,3.82,2.2,11.2,13.54,21.85,4.12,3.87,8.75,6.18,11.63,7.39,2.73,1.15,4.05.97,5.3,1.07Z"/><path class="cls-6" d="m145.52,98.34c.47.22,2,.84,2.83.86.27-.3.52-.62.72-.96-22.15-8.61-29.12-25.26-31.29-31.56l-1.48,1.48c1.79,4.94,4.7,13.27,15.33,21.54,3.69,2.87,8.05,5.93,13.88,8.64Z"/><path class="cls-6" d="m146.73,100.1c-6.99-2.94-13.07-7.33-18.09-11.91-7.42-6.77-12.1-14.29-13.7-18.68l-1.55,1.55c1.54,4.9,5.91,10.18,12.95,17.09,4.95,4.86,12.05,9.55,19.2,12.69.57-.14,1.07-.35,1.52-.61-.11-.05-.23-.09-.34-.14Z"/><path class="cls-4" d="m124.57-.94c-.2.01-1,1.07-2.08,2.77,4.12,5.16,10.21,13.58,10.53,18.2.48,6.99-4.79,13.05-11.77,13.53-.44.03-.87.04-1.3.02,2.1,1.19,4.56,1.8,7.14,1.63,6.99-.48,12.26-6.54,11.77-13.53S124.74-.95,124.57-.94Z"/><path class="cls-7" d="m133.02,20.03c-.32-4.63-6.4-13.04-10.53-18.2-3.32,5.19-9.3,16.34-8.94,21.61.31,4.4,2.82,8.12,6.39,10.15.43.01.87,0,1.3-.02,6.99-.48,12.26-6.54,11.77-13.53Z"/><path class="cls-4" d="m125.19,185.14c-3.16-1.33-5.45-3.75-7.01-6.73-.33-.63-.48-1.35-.72-2.01-1.33-3.81.75-9.68,5.24-10.14,2.87-.29,5.52.31,8.06,1.2.04-.06.08-.12.12-.18.89-1.25,2.82-2.22,4.34-2.4,2.66-.31,5.45-.7,8.11-.13,1.49.32,4.28,1.42,5.26,3.53.47,1.02.43,2.11-.13,3.17-1.7,3.2-5.35,2.21-7.77,1.55-.23-.06-.44-.12-.66-.18-2.1-.55-4.12-1.4-6.08-2.22-.74-.31-1.48-.62-2.21-.91-.13.99.24,1.95.65,2.67.95,1.66,1.81,2.12,3.67,3,2.74,1.3,4.89,2.21,7.55,2.09,2.37-.11,5.15-.07,7.89,1.04,1.12.43,2.06,1.08,2.98,1.69.79.52,1.53,1.02,2.36,1.39.44.2.63.71.44,1.15-.19.43-.7.63-1.13.44,0,0-.01,0-.02,0-.95-.43-1.79-.99-2.6-1.53-.88-.59-1.72-1.15-2.67-1.53-2.42-.99-4.97-1.02-7.15-.92-3.3.16-6-1.13-8.38-2.26-2.02-.96-3.23-1.61-4.43-3.71-.82-1.43-1.09-2.86-.8-4.16-2.34-.81-4.68-1.33-7.21-1.07-3.33.34-4.53,4.7-3.91,7.42.27,1.17.92,2.45,1.5,3.49,1.48,2.65,4.82,4.92,7.78,5.29.47.06.82.49.76.97-.06.48-.49.82-.97.76-.94-.12-1.91-.39-2.85-.78Zm19.19-18.28c-1.79-.61-4-.57-5.57-.53-.93.02-1.79.19-2.7.32-.7.1-1.42.16-2.09.4-.21.08-1.58,1.04-1.56,1.05.73.29,1.46.6,2.18.9,1.9.8,3.87,1.62,5.85,2.14.22.06.44.12.68.18,2.76.75,4.8,1.15,5.77-.68.31-.58.33-1.09.09-1.61-.52-1.11-1.49-1.77-2.65-2.16Z"/><path class="cls-8" d="m128.26,184.2c-1.26-.15-2.59-.66-3.81-1.38-.45.32-.92.62-1.42.91-.07.04-.13.08-.2.11.73.51,1.51.95,2.36,1.3.94.4,1.91.67,2.85.78.48.06.91-.28.97-.76.06-.48-.28-.92-.76-.97Z"/><path class="cls-4" d="m143.61,211.1l-22.14-20.65,10.16-10.16,22.14,20.65c8.3,7.33,8.29,11.83,5.61,14.71-2.37,2.54-7.88,3.23-15.77-4.55Z"/><path class="cls-6" d="m123.37,188.55l-1.89,1.89,5.73,5.35c-1.3-1.59-3.64-5.48-3.84-7.24Z"/><path class="cls-6" d="m141.8,190.26c1.12,1.99,2.85,4.71,4.57,6.31,5.8,5.37,9.91,6.74,9.9,6.73l-15.01-14.04c.18.33.35.67.53.99Z"/><path class="cls-6" d="m133.88,182.42c4.16,9.07,9.33,18.54,23.8,25.27.79.37,1.63.62,2.47.85-.22-.47-.5-.96-.82-1.47-11.32-4.67-18.48-14.36-21.63-21.09l-3.82-3.56Z"/><path class="cls-6" d="m160.97,211.73c0-.38-.05-.78-.14-1.19-2.48-.26-7.58-2.28-15.65-8.8-9.26-7.48-11.55-16.62-13.11-21.04l-.44-.41-1.14,1.14c.75,3.82,2.2,11.2,13.54,21.85,4.12,3.87,8.75,6.18,11.63,7.39,2.73,1.15,4.05.97,5.3,1.07Z"/><path class="cls-6" d="m156.63,214.69c.47.22,2,.84,2.83.86.27-.3.52-.62.72-.96-22.15-8.61-29.12-25.26-31.29-31.56l-1.48,1.48c1.79,4.94,4.7,13.27,15.33,21.54,3.69,2.87,8.05,5.93,13.88,8.64Z"/><path class="cls-6" d="m157.84,216.45c-6.99-2.94-13.07-7.33-18.09-11.91-7.42-6.77-12.1-14.29-13.7-18.68l-1.55,1.55c1.54,4.9,5.91,10.18,12.95,17.09,4.95,4.86,12.05,9.55,19.2,12.69.57-.14,1.07-.35,1.52-.61-.11-.05-.23-.09-.34-.14Z"/><path class="cls-4" d="m133.64,113.84c-.2.01-1,1.07-2.08,2.77,4.12,5.16,10.21,13.58,10.53,18.2.48,6.99-4.79,13.05-11.77,13.53-.44.03-.87.04-1.3.02,2.1,1.19,4.56,1.8,7.14,1.63,6.99-.48,12.26-6.54,11.77-13.53-.48-6.99-14.12-22.63-14.28-22.62Z"/><path class="cls-7" d="m142.08,134.81c-.32-4.63-6.4-13.04-10.53-18.2-3.32,5.19-9.3,16.34-8.94,21.61.31,4.4,2.82,8.12,6.39,10.15.43.01.87,0,1.3-.02,6.99-.48,12.26-6.54,11.77-13.53Z"/><path class="cls-4" d="m169.3,32.2c-3.16-1.33-5.45-3.75-7.01-6.73-.33-.63-.48-1.35-.72-2.01-1.33-3.81.75-9.68,5.24-10.14,2.87-.29,5.52.31,8.06,1.2.04-.06.08-.12.12-.18.89-1.25,2.82-2.22,4.34-2.4,2.66-.31,5.45-.7,8.11-.13,1.49.32,4.28,1.42,5.26,3.53.47,1.02.43,2.11-.13,3.17-1.7,3.2-5.35,2.21-7.77,1.55-.23-.06-.44-.12-.66-.18-2.1-.55-4.12-1.4-6.08-2.22-.74-.31-1.48-.62-2.21-.91-.13.99.24,1.95.65,2.67.95,1.66,1.81,2.12,3.67,3,2.74,1.3,4.89,2.21,7.55,2.09,2.37-.11,5.15-.07,7.89,1.04,1.12.43,2.06,1.08,2.98,1.69.79.52,1.53,1.02,2.36,1.39.44.2.63.71.44,1.15-.19.43-.7.63-1.13.44,0,0-.01,0-.02,0-.95-.43-1.79-.99-2.6-1.53-.88-.59-1.72-1.15-2.67-1.53-2.42-.99-4.97-1.02-7.15-.92-3.3.16-6-1.13-8.38-2.26-2.02-.96-3.23-1.61-4.43-3.71-.82-1.43-1.09-2.86-.8-4.16-2.34-.81-4.68-1.33-7.21-1.07-3.33.34-4.53,4.7-3.91,7.42.27,1.17.92,2.45,1.5,3.49,1.48,2.65,4.82,4.92,7.78,5.29.47.06.82.49.76.97-.06.48-.49.82-.97.76-.94-.12-1.91-.39-2.85-.78Zm19.19-18.28c-1.79-.61-4-.57-5.57-.53-.93.02-1.79.19-2.7.32-.7.1-1.42.16-2.09.4-.21.08-1.58,1.04-1.56,1.05.73.29,1.46.6,2.18.9,1.9.8,3.87,1.62,5.85,2.14.22.06.44.12.68.18,2.76.75,4.8,1.15,5.77-.68.31-.58.33-1.09.09-1.61-.52-1.11-1.49-1.77-2.65-2.16Z"/><path class="cls-8" d="m172.37,31.26c-1.26-.15-2.59-.66-3.81-1.38-.45.32-.92.62-1.42.91-.07.04-.13.08-.2.11.73.51,1.51.95,2.36,1.3.94.4,1.91.67,2.85.78.48.06.91-.28.97-.76.06-.48-.28-.92-.76-.97Z"/><path class="cls-4" d="m187.72,58.16l-22.14-20.65,10.16-10.16,22.14,20.65c8.3,7.33,8.29,11.83,5.61,14.71-2.37,2.54-7.88,3.23-15.77-4.55Z"/><path class="cls-6" d="m167.48,35.61l-1.89,1.89,5.73,5.35c-1.3-1.59-3.64-5.48-3.84-7.24Z"/><path class="cls-6" d="m185.91,37.32c1.12,1.99,2.85,4.71,4.57,6.31,5.8,5.37,9.91,6.74,9.9,6.73l-15.01-14.04c.18.33.35.67.53.99Z"/><path class="cls-6" d="m177.99,29.48c4.16,9.07,9.33,18.54,23.8,25.27.79.37,1.63.62,2.47.85-.22-.47-.5-.96-.82-1.47-11.32-4.67-18.48-14.36-21.63-21.09l-3.82-3.56Z"/><path class="cls-6" d="m205.09,58.79c0-.38-.05-.78-.14-1.19-2.48-.26-7.58-2.28-15.65-8.8-9.26-7.48-11.55-16.62-13.11-21.04l-.44-.41-1.14,1.14c.75,3.82,2.2,11.2,13.54,21.85,4.12,3.87,8.75,6.18,11.63,7.39,2.73,1.15,4.05.97,5.3,1.07Z"/><path class="cls-6" d="m200.74,61.75c.47.22,2,.84,2.83.86.27-.3.52-.62.72-.96-22.15-8.61-29.12-25.26-31.29-31.56l-1.48,1.48c1.79,4.94,4.7,13.27,15.33,21.54,3.69,2.87,8.05,5.93,13.88,8.64Z"/><path class="cls-6" d="m201.95,63.51c-6.99-2.94-13.07-7.33-18.09-11.91-7.42-6.77-12.1-14.29-13.7-18.68l-1.55,1.55c1.54,4.9,5.91,10.18,12.95,17.09,4.95,4.86,12.05,9.55,19.2,12.69.57-.14,1.07-.35,1.52-.61-.11-.05-.23-.09-.34-.14Z"/><path class="cls-4" d="m178.37,146.98c-3.16-1.33-5.45-3.75-7.01-6.73-.33-.63-.48-1.35-.72-2.01-1.33-3.81.75-9.68,5.24-10.14,2.87-.29,5.52.31,8.06,1.2.04-.06.08-.12.12-.18.89-1.25,2.82-2.22,4.34-2.4,2.66-.31,5.45-.7,8.11-.13,1.49.32,4.28,1.42,5.26,3.53.47,1.02.43,2.11-.13,3.17-1.7,3.2-5.35,2.21-7.77,1.55-.23-.06-.44-.12-.66-.18-2.1-.55-4.12-1.4-6.08-2.22-.74-.31-1.48-.62-2.21-.91-.13.99.24,1.95.65,2.67.95,1.66,1.81,2.12,3.67,3,2.74,1.3,4.89,2.21,7.55,2.09,2.37-.11,5.15-.07,7.89,1.04,1.12.43,2.06,1.08,2.98,1.69.79.52,1.53,1.02,2.36,1.39.44.2.63.71.44,1.15-.19.43-.7.63-1.13.44,0,0-.01,0-.02,0-.95-.43-1.79-.99-2.6-1.53-.88-.59-1.72-1.15-2.67-1.53-2.42-.99-4.97-1.02-7.15-.92-3.3.16-6-1.13-8.38-2.26-2.02-.96-3.23-1.61-4.43-3.71-.82-1.43-1.09-2.86-.8-4.16-2.34-.81-4.68-1.33-7.21-1.07-3.33.34-4.53,4.7-3.91,7.42.27,1.17.92,2.45,1.5,3.49,1.48,2.65,4.82,4.92,7.78,5.29.47.06.82.49.76.97-.06.48-.49.82-.97.76-.94-.12-1.91-.39-2.85-.78Zm19.19-18.28c-1.79-.61-4-.57-5.57-.53-.93.02-1.79.19-2.7.32-.7.1-1.42.16-2.09.4-.21.08-1.58,1.04-1.56,1.05.73.29,1.46.6,2.18.9,1.9.8,3.87,1.62,5.85,2.14.22.06.44.12.68.18,2.76.75,4.8,1.15,5.77-.68.31-.58.33-1.09.09-1.61-.52-1.11-1.49-1.77-2.65-2.16Z"/><path class="cls-8" d="m181.43,146.03c-1.26-.15-2.59-.66-3.81-1.38-.45.32-.92.62-1.42.91-.07.04-.13.08-.2.11.73.51,1.51.95,2.36,1.3.94.4,1.91.67,2.85.78.48.06.91-.28.97-.76.06-.48-.28-.92-.76-.97Z"/><path class="cls-4" d="m196.78,172.93l-22.14-20.65,10.16-10.16,22.14,20.65c8.3,7.33,8.29,11.83,5.61,14.71-2.37,2.54-7.88,3.23-15.77-4.55Z"/><path class="cls-6" d="m176.54,150.39l-1.89,1.89,5.73,5.35c-1.3-1.59-3.64-5.48-3.84-7.24Z"/><path class="cls-6" d="m194.97,152.1c1.12,1.99,2.85,4.71,4.57,6.31,5.8,5.37,9.91,6.74,9.9,6.73l-15.01-14.04c.18.33.35.67.53.99Z"/><path class="cls-6" d="m187.05,144.25c4.16,9.07,9.33,18.54,23.8,25.27.79.37,1.63.62,2.47.85-.22-.47-.5-.96-.82-1.47-11.32-4.67-18.48-14.36-21.63-21.09l-3.82-3.56Z"/><path class="cls-6" d="m214.15,173.57c0-.38-.05-.78-.14-1.19-2.48-.26-7.58-2.28-15.65-8.8-9.26-7.48-11.55-16.62-13.11-21.04l-.44-.41-1.14,1.14c.75,3.82,2.2,11.2,13.54,21.85,4.12,3.87,8.75,6.18,11.63,7.39,2.73,1.15,4.05.97,5.3,1.07Z"/><path class="cls-6" d="m209.8,176.53c.47.22,2,.84,2.83.86.27-.3.52-.62.72-.96-22.15-8.61-29.12-25.26-31.29-31.56l-1.48,1.48c1.79,4.94,4.7,13.27,15.33,21.54,3.69,2.87,8.05,5.93,13.88,8.64Z"/><path class="cls-6" d="m211.01,178.29c-6.99-2.94-13.07-7.33-18.09-11.91-7.42-6.77-12.1-14.29-13.7-18.68l-1.55,1.55c1.54,4.9,5.91,10.18,12.95,17.09,4.95,4.86,12.05,9.55,19.2,12.69.57-.14,1.07-.35,1.52-.61-.11-.05-.23-.09-.34-.14Z"/><path class="cls-4" d="m188.86,77.25c-.2.01-1,1.07-2.08,2.77,4.12,5.16,10.21,13.58,10.53,18.2.48,6.99-4.79,13.05-11.77,13.53-.44.03-.87.04-1.3.02,2.1,1.19,4.56,1.8,7.14,1.63,6.99-.48,12.26-6.54,11.77-13.53-.48-6.99-14.12-22.63-14.28-22.62Z"/><path class="cls-7" d="m197.3,98.22c-.32-4.63-6.4-13.04-10.53-18.2-3.32,5.19-9.3,16.34-8.94,21.61.31,4.4,2.82,8.12,6.39,10.15.43.01.87,0,1.3-.02,6.99-.48,12.26-6.54,11.77-13.53Z"/></g><path class="cls-10" d="m80.19,184.14c-28.52-16.01-51.75-41.09-66.08-70.46-2.92,9-5.11,17.94-6.46,26.56-9.74,62.33,25.45,104.07,75.69,111.92,39.71,6.21,76.92-10.64,95.59-48.75-33.83,4.07-68.99-2.57-98.73-19.27Z"/><path class="cls-10" d="m118.69,220.76c-27.66-4.84-54.87-15.2-76.24-33.42-16.04-13.67-28.48-32.11-33.88-52.32-.34,1.75-.65,3.49-.92,5.22-9.74,62.33,25.45,104.07,75.69,111.92,31.32,4.9,61.09-4.54,81.43-27.44-15.46-.23-30.86-1.3-46.08-3.96Z"/><ellipse class="cls-3" cx="148.77" cy="76.48" rx="21.29" ry="41.85" transform="translate(-16.48 50.53) rotate(-18.28)"/><path class="cls-3" d="m165.47,70.12c5.41,16.37,3.04,31.87-5.28,34.62-8.33,2.75-19.46-8.29-24.87-24.66-5.41-16.37-3.04-31.87,5.28-34.62s19.46,8.29,24.87,24.66Z"/></g></g></svg>