<?xml version="1.0" encoding="UTF-8"?>
<svg width="107px" height="55px" viewBox="0 0 107 55" version="1.1" xmlns="http://www.w3.org/2000/svg" xmlns:xlink="http://www.w3.org/1999/xlink">
    <title>Group 15</title>
    <defs>
        <polygon id="path-1" points="0 0 12.890625 0 12.890625 26.640625 0 26.640625"></polygon>
        <polygon id="path-3" points="0 0 60.15625 0 60.15625 36.953125 0 36.953125"></polygon>
    </defs>
    <g id="Page-1" stroke="none" stroke-width="1" fill="none" fill-rule="evenodd">
        <g id="L'ÉQUIPE" transform="translate(-1392.000000, -16.000000)">
            <g id="Group-16" transform="translate(399.000000, 0.000000)">
                <g id="Group-15" transform="translate(993.000000, 16.000000)">
                    <g id="Group-3" transform="translate(0.000000, 9.453125)">
                        <mask id="mask-2" fill="white">
                            <use xlink:href="#path-1"></use>
                        </mask>
                        <g id="Clip-2"></g>
                        <path d="M11.8315776,16.8699953 C12.7736199,11.3538906 12.8921399,4.18842939 12.890625,0.0129494761 C12.0250327,-0.0547281259 11.1541023,0.15134637 10.2082368,0.433463116 C9.35336396,0.442588186 9.51011613,3.57020591 9.51011613,3.57020591 C9.52617367,6.9267108 9.42141734,10.8816682 8.60783533,16.431992 C7.76519682,21.9891596 6.9309694,24.457491 4.88554469,24.8704004 C3.59941223,25.1304649 3.0060479,24.3114899 2.84011999,23.4985982 C2.63825378,22.510049 3.07410128,21.5146559 4.75631973,20.9625892 C4.4841062,20.0789783 3.79133806,19.2204613 2.38897959,19.5040989 C0.752639826,19.8348826 -0.318627467,21.4439366 0.0851049605,23.4195143 C0.524775691,25.5699891 2.48303089,27.1113655 5.46361612,26.5091109 C8.94122044,25.8064805 10.7970132,22.828666 11.8315776,16.8699953" id="Fill-1" fill="#FFFFFF" mask="url(#mask-2)"></path>
                    </g>
                    <path d="M20.4091931,16.3023495 C21.1290398,16.1568945 21.4356412,16.594832 21.6246206,17.5257439 C21.9594512,19.178427 20.8977165,21.1778433 18.1375199,22.4916556 C18.2135822,20.0975452 19.0306631,16.5838246 20.4091931,16.3023495 M20.3825321,29.105533 C25.6865008,28.0244487 28.1604838,21.1377449 28.3573046,18.719261 C28.3980803,18.3049108 27.8272214,18.1075638 27.4680822,18.1806844 C26.2644169,22.7133762 24.3244379,25.9243932 21.0882642,26.583265 C19.6799366,26.8702437 18.6699556,26.2003646 18.2747456,24.2465503 C18.2316176,24.0366234 18.1955468,23.8557875 18.1830005,23.6395706 C21.3697729,22.5836461 25.2418896,19.8239326 24.5847746,16.5783209 C24.3165964,15.2558599 23.2038921,14.231385 20.6859969,14.7440156 C15.861926,15.7276058 14.0254543,21.4522422 14.7688255,25.1177077 C15.273816,27.611671 17.2655487,29.7400312 20.3825321,29.105533" id="Fill-4" fill="#FFFFFF"></path>
                    <path d="M50.1464609,11.6344736 C51.0633864,11.4512406 52.2410747,11.4884954 53.5386984,12.1066217 C52.1753037,16.9778824 50.1627102,20.4965642 49.0678161,20.7147712 C48.5950384,20.8090487 48.315705,20.3505861 48.1470217,19.537062 C47.4684194,16.2533137 48.5493856,11.9530405 50.1464609,11.6344736 M38.4136833,18.0012501 C38.7309318,7.7721348 38.9421728,5.36957762 39.4451278,5.26997794 C39.7708878,5.20459189 40.0262341,5.5467282 40.1879535,6.3313608 C40.8611393,9.58621754 40.0424835,14.7114194 38.4136833,18.0012501 M40.4154439,26.1942742 C40.9501236,28.7808247 40.9431597,32.170255 39.6718444,32.4249565 C39.3166808,32.4956647 39.0195505,32.1010675 38.7974766,31.0259992 C38.4546935,29.3692991 38.2914266,26.1950345 38.3277941,20.8630302 C39.3213235,22.3889582 40.0130799,24.2478988 40.4154439,26.1942742 M48.409332,23.7810728 C50.3902006,23.3857153 52.7618265,19.220776 53.8133892,14.6239846 L53.9433837,14.6581982 C53.7708315,16.3567149 53.0295533,19.6206953 53.2578174,20.7254154 C53.3785266,21.3062868 54.8254892,22.4999624 56.2747732,22.2110473 C57.8757174,21.8909598 59.2321481,19.0071308 60.1382408,16.3954904 C60.1196701,17.3245805 60.1111586,18.0354637 60.1227652,18.3243788 C60.1173488,18.4467876 60.1475261,18.5927658 60.1707394,18.7083318 C60.484119,20.2190537 61.9775082,21.0409411 63.5444062,20.7276963 C65.666876,20.3034473 67.4426938,15.01402 68.1305813,12.2449968 C68.3820588,11.3440379 68.603359,10.4096256 68.783649,9.54516118 C69.3307092,10.4043035 70.0843678,11.0703288 70.8024326,11.7135451 C71.758047,12.6122231 72.6602707,13.4006572 72.8769282,14.446834 C73.1106088,15.5796853 72.5039678,16.5178991 71.1436682,16.7893273 C70.25692,16.9664778 69.3864211,16.7771624 68.4362232,15.7568359 C67.5928065,16.5901279 67.3583521,17.3937681 67.4906679,18.0331828 C67.6825646,18.9630333 68.6196083,19.6229762 70.2940613,19.3796793 C70.3528683,19.3682747 70.4124491,19.3553496 70.4712562,19.343945 L70.589644,19.3203756 C70.7668389,19.2846414 70.9742111,19.243585 71.1452158,19.1797196 C77.1528189,17.4051726 79.0075618,10.7411176 79.0625,9.21823093 C79.0083356,8.95668673 78.7112053,8.56132922 78.2082504,8.6616892 C77.9637369,9.86068688 76.9485418,12.6950961 75.599075,14.5084185 C75.7453189,13.8743259 75.7963881,13.2280685 75.6702625,12.6175452 C75.34605,11.0490403 73.9207532,9.66909055 72.538014,8.34160168 C71.9561339,7.76225087 71.3448502,7.18822217 70.8573708,6.6202759 C70.9154041,6.15421022 70.9494502,5.72387878 70.877489,5.37566004 C70.7877309,4.94000648 70.3667963,4.69062713 69.8344379,4.79706953 C68.5631226,5.0510107 67.9851113,5.83184179 67.8999959,7.05897068 C67.9069599,7.23916247 67.9363634,7.38438032 67.9789211,7.5881415 C67.8303559,8.55448649 67.6338166,9.68353631 67.3738276,10.7958595 C67.3730539,10.7958595 67.3730539,10.7958595 67.3722801,10.7958595 C67.1215764,11.7295114 66.7849835,12.8243476 66.395,13.8804083 C66.3787507,13.9176632 66.3640489,13.9587195 66.3477996,13.9952141 C66.3477996,13.9967347 66.3501209,13.9990156 66.3501209,14.0012965 C65.5856294,16.045751 64.6230511,17.910774 63.6782696,18.0993292 C63.531252,18.1282207 63.4298873,17.9366243 63.3695327,17.6461886 C62.9308012,15.5249435 63.9908755,9.92759354 63.7502309,8.7658507 C63.4500055,7.31291185 61.8575728,7.20722974 60.2666877,7.55544848 C60.2945437,8.55068498 60.2666877,10.3776929 60.2279989,12.2541204 C60.2256775,12.2548807 60.2225824,12.2541204 60.2202611,12.2548807 C59.5192193,14.9668812 57.9113111,19.2519484 56.580415,19.5180544 C56.1664444,19.6001671 56.9278408,13.4576799 57.1328917,10.8741707 C57.1390819,10.7532825 57.1444983,10.6308737 57.1205112,10.5145474 C56.8922471,9.41058756 54.9910775,9.00306521 53.9263606,9.21518972 C53.8373763,9.23267668 53.7189884,9.25700638 53.6075646,9.30946728 L53.6447058,9.93747748 C52.5722512,9.51626967 51.3403985,9.3687709 49.9506954,9.64628147 C47.0204027,10.2317147 45.5865942,12.6525192 45.0078092,15.2778451 C43.6691753,16.3954904 41.5892633,17.4104947 39.603752,18.0970483 C41.6720574,15.2938114 43.2962149,10.340438 42.5147003,6.56249288 C42.0759689,4.44200808 40.5152611,3.14949314 38.8005717,3.49238975 C35.8137932,4.08846723 35.2489362,8.95136461 35.2350082,19.7552689 C35.2203064,24.4486187 35.4617248,27.8494536 35.9484304,30.2025911 C36.6278064,33.4863394 37.8325769,34.6982622 39.8134455,34.3029047 C42.4164307,33.7828575 43.5353119,30.2611344 42.8087355,26.7462541 C42.1355497,23.4913974 40.4889527,21.1876796 39.1472237,19.9126516 C41.364868,19.3637129 43.5012658,18.5190164 44.6990722,17.7473089 C44.6472292,19.0284193 44.7509153,20.2380612 44.9451333,21.1747544 C45.2213716,22.5113669 46.7820794,24.1064824 48.409332,23.7810728" id="Fill-6" fill="#FFFFFF"></path>
                    <path d="M60.5248227,3.82896647 C60.8783394,4.26217769 61.3925455,4.3575122 61.8665793,4.26428066 C62.0900836,4.22152033 62.2799893,4.15632835 62.4362963,4.0701067 C62.9884835,3.79531899 63.7948522,1.01519646 63.5479749,0.673113807 C63.1893453,0.213264997 62.5064153,-0.128116666 61.6131282,0.0464296053 C60.5525781,0.253221372 59.9602185,1.84656946 60.2151303,3.05227061 C60.2772149,3.34668601 60.361942,3.6095569 60.5248227,3.82896647" id="Fill-8" fill="#FFFFFF"></path>
                    <path d="M39.4772886,42.6273452 C38.2907188,45.8197815 36.584545,49.4634886 35.2467758,49.6205187 C35.1876776,49.6273792 35.143162,49.5130369 35.1255093,49.3651543 C34.9781475,48.125684 36.2760062,42.3155719 36.0611035,40.5143 C35.9275568,39.3922211 34.7125892,38.5468506 33.5229493,38.6871104 C30.3132243,39.0629154 27.9009417,43.8675777 26.7596549,47.4434418 L26.6299458,47.3695004 C26.8978067,45.5712776 27.9523648,42.2744087 27.8295633,41.2415168 C27.6568736,39.7947059 25.8869966,39.6140451 24.6988917,39.7535427 C24.5553674,40.6865757 24.2852041,42.7424498 24.0488111,44.9103793 C23.0042306,47.5783657 21.4208583,51.154992 19.9387974,51.3287922 C19.8789316,51.3364151 19.8390211,51.2510395 19.8182984,51.0734278 C19.7154521,50.2181476 19.9196096,47.6195289 20.1368148,45.6475058 C20.5689227,44.2205142 21.2097932,42.2599254 21.1015744,41.3436626 C20.6426036,40.5295456 19.2994619,40.3877612 17.9317598,40.5493649 C17.2839817,41.9420538 17.4443912,43.5397965 17.425971,45.1581209 C16.0958769,48.6676664 13.3811955,52.1894084 12.1616228,52.3319551 C11.8047309,52.3738806 11.610551,52.0079854 11.5476152,51.4759126 C11.3012446,49.4093666 12.3803631,44.0451894 12.5254224,43.4887237 C12.5829856,43.2127776 12.5883582,43.0016256 12.5668679,42.8255385 C12.4371588,41.7331886 11.2597991,41.2125501 10.3088547,41.3246056 C10.0409939,41.3558591 9.83683633,41.4099811 9.6096535,41.5273725 C9.17524308,43.1929583 8.34096017,49.0983556 8.66791925,51.844857 C8.95573534,54.2651018 10.2044734,55.1356277 11.5130772,54.9831713 C13.8616565,54.7072253 15.5409675,51.6055005 16.8004507,48.7644762 L16.8963894,48.8124999 C16.8303836,49.778311 16.5256823,51.011683 16.6339011,51.9264212 C16.746725,52.8708884 17.6662015,54.2605281 19.508992,54.0448024 C21.0931318,53.8580433 22.5974505,51.3104975 23.6850116,48.8849167 C23.6044231,50.0771255 23.5744902,51.0726656 23.638961,51.6123611 C23.7725077,52.7344399 25.2376835,53.399912 26.8732464,53.2078169 C26.8793864,52.7580707 26.8279633,51.5673865 26.8924341,50.8401696 C27.6752939,46.5279413 30.931837,41.4747751 32.3287044,41.3116468 C32.4768338,41.293352 32.5543522,41.4351364 32.5858201,41.7004105 C32.7370195,42.9696097 31.5304945,48.5296934 31.6985791,49.9467753 C31.8328932,51.0680919 33.0217656,52.4554448 34.8944889,52.2351453 C36.827078,52.0095099 39.0451807,47.3481565 40.390625,43.2089662 C40.3292242,42.9467413 40.0160803,42.5945671 39.4772886,42.6273452" id="Fill-10" fill="#FFFFFF"></path>
                    <g id="Group-14" transform="translate(46.406250, 12.890625)">
                        <mask id="mask-4" fill="white">
                            <use xlink:href="#path-3"></use>
                        </mask>
                        <g id="Clip-13"></g>
                        <path d="M20.7003282,33.1791665 C19.4577207,33.3261813 18.9029033,32.1950051 18.7072652,30.5428024 C18.4512544,28.3901399 18.9067243,26.1521631 19.712203,24.5921303 C19.9269464,26.1514014 21.7228428,27.3762709 24.0017208,27.1073785 L24.2676664,27.0753857 C24.1515062,30.1413682 22.5351994,32.9635955 20.7003282,33.1791665 M21.8504661,22.6344719 C22.7973239,22.5232586 23.9222429,23.4076327 24.2027084,25.767487 C24.2065295,25.7971947 24.2065295,25.7971947 24.2095863,25.8261406 L24.0911336,25.8406136 C22.4045193,26.0394263 21.2704298,25.3348217 21.0954254,23.8608649 C21.0044843,23.0930362 21.2582024,22.7045515 21.8504661,22.6344719 M4.24609548,33.9241431 C3.83189297,33.9728941 3.50633898,33.5029037 3.40164203,32.6177679 C3.09977858,30.0804294 4.31640291,25.1512436 6.00301717,24.9516691 C6.9208349,24.8442645 8.08014338,25.006514 9.3028814,25.7004544 C7.55589446,30.4529177 5.13410897,33.8197854 4.24609548,33.9241431 M59.2876475,3.5560625 C58.5952721,2.35861542 57.397753,1.53670359 56.0282864,1.31808571 C55.0034791,1.16650049 53.9572739,1.37673929 53.0715531,1.91147711 C52.5687021,2.20017459 52.1132321,2.56428381 51.7227202,2.99237876 C51.4705305,2.4698287 51.1495617,1.98231844 50.7697487,1.54355921 C50.1186407,0.737643806 49.186303,0.207476397 48.1599673,0.0589381143 C46.7897365,-0.161964973 45.3927583,0.244801401 44.3580162,1.16650049 C43.2201057,2.14380621 42.4811134,3.5035028 42.2839469,4.98812389 C42.0264077,6.58548173 42.3435554,8.16227273 43.3011121,9.95387294 C44.1547361,11.5032415 45.4516026,13.1592529 46.9945451,15.083395 C47.4966319,15.7354399 48.0881314,16.4766079 48.708671,17.2611947 C46.9005471,21.178035 41.5281419,29.8572411 40.3084608,30.0004472 C40.2496165,30.0073028 40.2052922,29.8938043 40.1877154,29.7452661 C40.041751,28.5066853 41.3332681,22.7007428 41.1192889,20.9015252 C40.9870804,19.7802516 39.7765697,18.9354878 38.5920423,19.0748852 C35.3961108,19.4519439 32.9941948,24.2516348 31.8578126,27.8264561 L31.7286609,27.7518061 C31.9961349,25.9548738 33.0453969,22.6596091 32.9231231,21.6282202 C32.7519398,20.1824476 30.9896686,20.0011547 29.8059054,20.1413139 C29.7080863,20.7834563 29.5491304,21.9595749 29.3832965,23.3367913 C28.5449568,24.1960282 27.4085746,24.9272936 26.0796113,25.3965222 L26.0689123,25.3089227 C25.7120256,22.2993086 24.3318601,20.7865033 22.4373804,21.0096916 C21.7274281,21.0942441 21.1901876,21.3661835 20.7584082,21.775235 C17.4363819,22.588006 15.8529361,25.382811 15.3218093,27.9765179 C14.2939452,30.4293039 12.71967,33.1944012 11.7063258,33.3147553 C11.3517318,33.3551272 12.0334082,29.237189 12.4116928,25.0948752 C12.7479458,21.8544555 13.5656518,17.8682973 13.5855213,16.0127114 C13.5641234,14.3102342 12.1724947,13.9651683 10.2489749,14.1914035 C10.0747348,17.0242952 9.87451143,20.9068574 9.59022484,23.5729291 C8.56694596,23.0351444 7.36713428,22.7875806 5.97550557,22.9505918 C1.21064834,23.5127521 -0.441576409,29.5708288 0.0979567424,34.1145768 C0.255384263,35.440757 1.71502777,37.1241909 3.28318929,36.9390894 C5.44437874,36.6846699 8.09848445,32.2429944 9.39611518,28.2621684 L9.48934895,28.2804501 C9.23715924,29.9555049 8.34990996,32.8424797 8.28189516,34.0467824 C8.2918299,34.8824054 9.9134862,36.1567877 11.1560937,36.0112964 C12.6577688,35.8338122 14.1105345,33.5470844 15.194186,31.2222698 C15.5548937,33.5821242 17.0909584,35.3097387 20.1011865,34.9547702 C24.3624286,34.4535488 26.1636745,30.411784 26.1338703,26.6168213 C27.2427408,26.2405243 28.3118724,25.6935988 29.1907153,25.0080375 C28.881974,27.806651 28.6175569,30.8695866 28.7505296,31.9908602 C28.8835024,33.1121338 30.3431459,33.77789 31.9709159,33.5859328 C31.9777938,33.1357476 31.9258274,31.9459179 31.9900212,31.2207463 C32.7695167,26.9108509 36.012065,21.8620728 37.4029295,21.6982998 C37.5511865,21.6800182 37.6276077,21.8217009 37.6589403,22.0867846 C37.8102541,23.3558347 36.6081498,28.9111665 36.7762763,30.3272314 C36.9092491,31.448505 38.0937765,32.8341006 39.958452,32.614721 C41.7803317,32.3999118 47.9727355,22.2010448 49.7640467,17.6070223 C49.8855563,17.5757912 50.0024806,17.5255167 50.1071776,17.4531519 C50.9088352,16.8932768 51.7043791,16.3737737 52.4204451,15.9159711 C54.453247,14.5638918 56.2422656,13.4022463 57.5429532,12.1979436 C59.0094746,10.8298679 59.8027259,9.43132288 60.0602651,7.83396504 C60.3216253,6.36153171 60.0472735,4.84491775 59.2876475,3.5560625" id="Fill-12" fill="#FFFFFF" mask="url(#mask-4)"></path>
                    </g>
                </g>
            </g>
        </g>
    </g>
</svg>