<svg height="47" viewBox="0 0 47 47" width="47" xmlns="http://www.w3.org/2000/svg" xmlns:xlink="http://www.w3.org/1999/xlink"><mask id="a" fill="#fff"><path d="m.00003609.05804444h23.94153381v23.58639996h-23.94153381z" fill="#fff" fill-rule="evenodd"/></mask><g fill="none" fill-rule="evenodd"><circle cx="23.5" cy="23.5" fill="#e9364b" r="23.5"/><g fill="#fff" transform="translate(12 12)"><path d="m21.6437053 15.5088889c0 3.2440889-2.6694136 5.8721778-5.9599399 5.8721778h-7.42538345c-3.29233082 0-5.96102255-2.6280889-5.96102255-5.8721778v-7.31520001c0-3.24195556 2.66869173-5.87235556 5.96102255-5.87235556h7.42538345c3.2905263 0 5.9599399 2.6304 5.9599399 5.87235556zm-5.0784361-15.45084446h-9.18857146c-4.07440601 0-7.37666165 3.25368889-7.37666165 7.26808889v9.05191107c0 4.0129778 3.30225564 7.2664889 7.37666165 7.2664889h9.18857146c4.074406 0 7.3763007-3.2535111 7.3763007-7.2664889v-9.05191107c0-4.0144-3.3018947-7.26808889-7.3763007-7.26808889z" mask="url(#a)" transform="translate(0 .119822)"/><path d="m12.2919699 15.7498844c-2.0970225 0-3.79488719-1.6743111-3.79488719-3.7376 0-2.06577773 1.69786469-3.73813329 3.79488719-3.73813329 2.0946767 0 3.7936241 1.67235556 3.7936241 3.73813329 0 2.0632889-1.6989474 3.7376-3.7936241 3.7376m0-9.9500444c-3.48378945 0-6.30694734 2.78062222-6.30694734 6.2124444 0 3.4300445 2.82315789 6.2126223 6.30694734 6.2126223 3.4825263 0 6.3058647-2.7825778 6.3058647-6.2126223 0-3.43182218-2.8233384-6.2124444-6.3058647-6.2124444"/><path d="m19.7651729 5.70284444c0 .87253334-.7192782 1.57973334-1.6042105 1.57973334-.8854737 0-1.6027669-.7072-1.6027669-1.57973334 0-.87217777.7172932-1.5808 1.6027669-1.5808.8849323 0 1.6042105.70862223 1.6042105 1.5808"/></g></g></svg>