<?xml version="1.0" encoding="UTF-8"?>
<svg width="47px" height="47px" viewBox="0 0 47 47" version="1.1" xmlns="http://www.w3.org/2000/svg" xmlns:xlink="http://www.w3.org/1999/xlink">
    <!-- Generator: Sketch 61.1 (89650) - https://sketch.com -->
    <title>insta</title>
    <desc>Created with Sketch.</desc>
    <defs>
        <polygon id="path-1" points="3.60902256e-05 0.0580444444 23.9415699 0.0580444444 23.9415699 23.6444444 3.60902256e-05 23.6444444"></polygon>
    </defs>
    <g id="insta" stroke="none" stroke-width="1" fill="none" fill-rule="evenodd">
        <circle id="Oval-Copy-5" fill="#E9364B" cx="23.5" cy="23.5" r="23.5"></circle>
        <g id="Group-8" transform="translate(12.000000, 12.000000)">
            <g id="Group-3" transform="translate(0.000000, 0.119822)">
                <mask id="mask-2" fill="white">
                    <use xlink:href="#path-1"></use>
                </mask>
                <g id="Clip-2"></g>
                <path d="M21.6437053,15.5088889 C21.6437053,18.7529778 18.9742917,21.3810667 15.6837654,21.3810667 L8.25838195,21.3810667 C4.96605113,21.3810667 2.2973594,18.7529778 2.2973594,15.5088889 L2.2973594,8.19368889 C2.2973594,4.95173333 4.96605113,2.32133333 8.25838195,2.32133333 L15.6837654,2.32133333 C18.9742917,2.32133333 21.6437053,4.95173333 21.6437053,8.19368889 L21.6437053,15.5088889 Z M16.5652692,0.0580444444 L7.37669774,0.0580444444 C3.30229173,0.0580444444 3.60902256e-05,3.31173333 3.60902256e-05,7.32613333 L3.60902256e-05,16.3780444 C3.60902256e-05,20.3910222 3.30229173,23.6445333 7.37669774,23.6445333 L16.5652692,23.6445333 C20.6396752,23.6445333 23.9415699,20.3910222 23.9415699,16.3780444 L23.9415699,7.32613333 C23.9415699,3.31173333 20.6396752,0.0580444444 16.5652692,0.0580444444 L16.5652692,0.0580444444 Z" id="Fill-1" fill="#FFFFFF" mask="url(#mask-2)"></path>
            </g>
            <path d="M12.2919699,15.7498844 C10.1949474,15.7498844 8.49708271,14.0755733 8.49708271,12.0122844 C8.49708271,9.94650667 10.1949474,8.27415111 12.2919699,8.27415111 C14.3866466,8.27415111 16.085594,9.94650667 16.085594,12.0122844 C16.085594,14.0755733 14.3866466,15.7498844 12.2919699,15.7498844 M12.2919699,5.79984 C8.80818045,5.79984 5.98502256,8.58046222 5.98502256,12.0122844 C5.98502256,15.4423289 8.80818045,18.2249067 12.2919699,18.2249067 C15.7744962,18.2249067 18.5978346,15.4423289 18.5978346,12.0122844 C18.5978346,8.58046222 15.7744962,5.79984 12.2919699,5.79984" id="Fill-4" fill="#FFFFFF"></path>
            <path d="M19.7651729,5.70284444 C19.7651729,6.57537778 19.0458947,7.28257778 18.1609624,7.28257778 C17.2754887,7.28257778 16.5581955,6.57537778 16.5581955,5.70284444 C16.5581955,4.83066667 17.2754887,4.12204444 18.1609624,4.12204444 C19.0458947,4.12204444 19.7651729,4.83066667 19.7651729,5.70284444" id="Fill-6" fill="#FFFFFF"></path>
        </g>
    </g>
</svg>