<svg height="47" viewBox="0 0 47 47" width="47" xmlns="http://www.w3.org/2000/svg"><g fill="none" fill-rule="evenodd"><circle cx="23.5" cy="23.5" fill="#e9364b" r="23.5"/><g fill="#fff" transform="translate(14 13)"><path d="m7 7.33745792h3.9988219v1.86904721h.0571554c.5560805-1.07510426 1.9159673-2.20650513 3.9434033-2.20650513 4.2211278 0 5.0006194 2.82866301 5.0006194 6.5066005v7.4933995h-4.1668144v-6.6439642c0-1.5843472-.0268409-3.623571-2.166693-3.623571-2.1685876 0-2.4996782 1.7281448-2.4996782 3.5100127v6.7575225h-4.1668144z"/><path d="m2.50040854 0c1.37872994 0 2.49959146 1.13351944 2.49959146 2.52961114 0 1.39526599-1.12086152 2.52581292-2.49959146 2.52581292-1.38281531 0-2.50040854-1.13054693-2.50040854-2.52581292 0-1.3960917 1.11759323-2.52961114 2.50040854-2.52961114zm-2.15805471 21h4.3148021v-14.02713797h-4.3148021z"/></g></g></svg>