<?xml version="1.0" encoding="UTF-8"?>
<svg width="47px" height="47px" viewBox="0 0 47 47" version="1.1" xmlns="http://www.w3.org/2000/svg" xmlns:xlink="http://www.w3.org/1999/xlink">
    <!-- Generator: Sketch 61.1 (89650) - https://sketch.com -->
    <title>linkedin</title>
    <desc>Created with Sketch.</desc>
    <g id="linkedin" stroke="none" stroke-width="1" fill="none" fill-rule="evenodd">
        <circle id="Oval-Copy-5" fill="#FFFFFF" cx="23.5" cy="23.5" r="23.5"></circle>
        <g id="Group-6" transform="translate(14.000000, 13.000000)" fill="#E9364B">
            <path d="M7,7.33745792 L10.9988219,7.33745792 L10.9988219,9.20650513 L11.0559773,9.20650513 C11.6120578,8.13140087 12.9719446,7 14.9993806,7 C19.2205084,7 20,9.82866301 20,13.5066005 L20,21 L15.8331856,21 L15.8331856,14.3560358 C15.8331856,12.7716886 15.8063447,10.7324648 13.6664926,10.7324648 C11.497905,10.7324648 11.1668144,12.4606096 11.1668144,14.2424775 L11.1668144,21 L7,21 L7,7.33745792 Z" id="Fill-4"></path>
            <path d="M2.50040854,0 C3.87913848,0 5,1.13351944 5,2.52961114 C5,3.92487713 3.87913848,5.05542406 2.50040854,5.05542406 C1.11759323,5.05542406 0,3.92487713 0,2.52961114 C0,1.13351944 1.11759323,0 2.50040854,0 L2.50040854,0 Z M0.342353826,21 L4.65715593,21 L4.65715593,6.97286203 L0.342353826,6.97286203 L0.342353826,21 Z" id="Fill-1"></path>
        </g>
    </g>
</svg>