<?xml version="1.0" encoding="UTF-8"?>
<svg width="47px" height="47px" viewBox="0 0 47 47" version="1.1" xmlns="http://www.w3.org/2000/svg" xmlns:xlink="http://www.w3.org/1999/xlink">
    <title>tiktok</title>
    <g id="tiktok" stroke="none" stroke-width="1" fill="none" fill-rule="evenodd">
        <circle id="Oval-Copy-5" fill="#FFFFFF" cx="23.5" cy="23.5" r="23.5"></circle>
        <g id="Group-3" transform="translate(12.000000, 10.000000)" fill="#E9364B">
            <path d="M20.1357879,5.56047236 C19.956671,5.46980189 19.7823084,5.37035685 19.6133636,5.26257057 C19.1220636,4.94435729 18.6715625,4.56932602 18.2716452,4.14570967 C17.271023,3.02397401 16.8973099,1.88598916 16.7596553,1.08923728 L16.7651836,1.08923728 C16.6501949,0.427895302 16.6977383,0 16.7049251,0 L12.1473948,0 L12.1473948,17.2663879 C12.1473948,17.4982096 12.1473948,17.7273232 12.1374439,17.9537286 C12.1374439,17.9818938 12.1346797,18.0078925 12.1330212,18.0382243 C12.1330212,18.050682 12.1330212,18.0636814 12.1302571,18.0766808 L12.1302571,18.0864303 C12.0326826,19.3444425 11.3028365,20.4725153 10.1831899,21.09578 C9.60852317,21.4161057 8.95861626,21.5841223 8.29748689,21.5832557 C6.17406697,21.5832557 4.45310727,19.8868404 4.45310727,17.7917783 C4.45310727,15.6967163 6.17406697,14.000301 8.29748689,14.000301 C8.69944957,13.9999218 9.0989245,14.0618854 9.48109586,14.1839168 L9.48662416,9.6373938 C7.14107716,9.34052112 4.77568356,10.0184914 2.96323049,11.5071338 C2.17771438,12.1758421 1.5173037,12.9737314 1.01174069,13.864891 C0.81935586,14.1898748 0.0934901068,15.495768 0.00559014119,17.6152038 C-0.049692856,18.8181854 0.319044735,20.0644982 0.494844666,20.5795974 L0.494844666,20.5904302 C0.605410661,20.8937484 1.03385389,21.9288217 1.73207814,22.8014032 C2.29508019,23.5013641 2.96030049,24.1161792 3.70623397,24.6261871 L3.70623397,24.6153543 L3.71729057,24.6261871 C5.92363499,26.0951137 8.36990762,25.9987019 8.36990762,25.9987019 C8.79337538,25.981911 10.2119371,25.9987019 11.8228836,25.2506975 C13.6096301,24.4214473 14.6268372,23.1859673 14.6268372,23.1859673 C15.2766889,22.4477667 15.793419,21.606492 16.1548593,20.6982165 C16.5672704,19.6360612 16.7049251,18.3621248 16.7049251,17.8529836 L16.7049251,8.6927743 C16.7602081,8.72527267 17.4965776,9.20245718 17.4965776,9.20245718 C17.4965776,9.20245718 18.5574583,9.86867392 20.2126313,10.3025273 C21.4001101,10.6112618 23,10.6762586 23,10.6762586 L23,6.24347993 C22.4394304,6.30306028 21.3011535,6.1297356 20.1357879,5.56047236" id="Fill-1"></path>
        </g>
    </g>
</svg>