<svg height="47" viewBox="0 0 47 47" width="47" xmlns="http://www.w3.org/2000/svg"><g fill="none" fill-rule="evenodd"><circle cx="23.5" cy="23.5" fill="#fff" r="23.5"/><path d="m8.49134363 22c10.19031757 0 15.76239687-8.4648696 15.76239687-15.80313743 0-.23994697-.0037466-.479673-.0165291-.71718957 1.0832088-.78325232 2.0222837-1.76425099 2.7627886-2.87604949-.9921885.44122846-2.0610721.73950508-3.1802042.87428193 1.1438156-.6882457 2.0200798-1.77618206 2.4363934-3.07202829-1.0693243.63477685-2.2567769 1.09942555-3.51828 1.34931507-1.0131253-1.0808661-2.4485148-1.75519222-4.0436858-1.75519222-3.0594314 0-5.5381395 2.48762704-5.5381395 5.55192223 0 .43592576.0487059.85815289.1419302 1.26844896-4.60347239-.23508617-8.68837088-2.44387981-11.41920322-5.80357932-.47449617.81970835-.74998163 1.77286787-.74998163 2.78965974 0 1.92664605.97676127 3.62704375 2.46636628 4.62395051-.90844087-.02872293-1.76442931-.27839151-2.50978279-.6955369-.00154272.02496686-.00154272.04706143-.00154272.07092356 0 2.69111802 1.9107672 4.93636762 4.44258883 5.44454262-.46215442.1263809-.95317972.1961998-1.4576487.1961998-.35769033 0-.70414085-.0371189-1.04199623-.1025188.70678551 2.2092355 2.75176923 3.8144056 5.17449862 3.8594785-1.8955604 1.4904994-4.28479076 2.3775962-6.88074541 2.3775962-.44584568 0-.88596126-.0260716-1.32056713-.0777729 2.4509391 1.57711 5.36226951 2.4966858 8.49134363 2.4966858" fill="#e9364b" transform="translate(10 12)"/></g></svg>