<svg xmlns="http://www.w3.org/2000/svg" viewBox="0 0 2390.03 1114.98"><defs><style>.cls-1{isolation:isolate;}.cls-2{fill:#ffa17e;}.cls-3{fill:#9e223e;}.cls-4{fill:#fff;}.cls-5{fill:#5b2d0f;}.cls-6,.cls-7{fill:#f49750;}.cls-7{opacity:0.5;mix-blend-mode:multiply;}.cls-8{fill:#ff9a00;}.cls-9{fill:#77122a;}.cls-10{fill:#f7ad8f;}.cls-11{fill:#d67330;}.cls-12{fill:#965e42;}.cls-13{fill:#e8364b;}.cls-14{fill:#f4a671;}.cls-15{fill:#e2af64;}.cls-16{fill:#ffb27d;}.cls-17{fill:#ffe4dd;}.cls-18{fill:#d9935c;}.cls-19{fill:#e9364b;}.cls-20{fill:#cb7d45;}.cls-21{fill:#eaeaea;}.cls-22{fill:#e58638;}</style></defs><g class="cls-1"><g id="Calque_1" data-name="Calque 1"><path class="cls-2" d="M1949.28,1011.34c-2.76,7.14-12.75,9.64-27.75,14.87s-39.44,16.56-51,20.11-14.7-4.84-9.6-8.52,13.49-12.23,19.33-19.24,21.31-21.83,21.57-25.77a19.37,19.37,0,0,0,0-2.85,31.11,31.11,0,0,0-2.85-10.16l12.71-5.75,13.88-1.86s2.16,3.67,5.53,8.69c1.38,2.16,3,4.54,4.8,7C1942.54,997.16,1950.71,1007.58,1949.28,1011.34Z"/><path class="cls-2" d="M1750.13,1041.14c-5,5.7-15.26,4.67-31.13,4.45s-42.76,2.12-54.83,1.47-12.14-9.56-6.09-11.24,16.86-6.92,24.77-11.5,29.23-13.23,30.27-17-.18-14.09-.18-14.09h14.58l13,.69s1.3,6.18,3.16,13.4c.56,2.34,1.21,4.8,1.9,7.18C1748.66,1025.49,1752.77,1038.07,1750.13,1041.14Z"/><path class="cls-3" d="M1928.32,972.17a108.08,108.08,0,0,1-30.13,9.65c-1.77-3.72-3.63-7.66-5.45-11.72L1784.8,759.67l67.06-14.31s-.69,2.9,4.89,14.61,17.08,21.28,41,84.27C1920.82,905.51,1920.45,941.47,1928.32,972.17Z"/><path class="cls-3" d="M1705.41,543.74s25.71,138.83,79.39,215.92c28.54,2.19,48.39-7.1,67.08-14.29-.74-4.51-3.43-34.27-1.74-69.16,1-21.49,6.85-48.78,6.6-72.07-.4-38.35-3.7-68.95-13.62-85.6Z"/><path class="cls-3" d="M1808.24,626c22.66-55.51,16.4-39.32,30.85-97.69l-132.83-9.4s-20.87,78.3-32.43,211.6a82.8,82.8,0,0,0,.73,20.14l35.19,222.42c.86,8,2,15.65,2.89,22.14a58.5,58.5,0,0,0,29.27-.48c.09-1.9.13-3.63,0-5.14,1.25-32.38,15.82-67,12.49-134.33s-11.85-82.36-13.57-95.28-.81-17.6-.81-17.6C1742.13,725.65,1801.82,641.76,1808.24,626Z"/><path class="cls-4" d="M1855.45,558.83s-123.94,25.77-159.31-6.3c5.82-25.67,13.37-41.77,19.56-71.49s2-52.25,2-52.25l106-4.35a161.68,161.68,0,0,0,1.5,21.47,175.73,175.73,0,0,0,11.65,42.85A259.58,259.58,0,0,1,1855.45,558.83Z"/><path class="cls-4" d="M1838.64,378.58s-14.81,53.32-12.08,72c0,0-39.28,14.59-107.73.29,0,0-1.67-61.43-10.3-76.28a137.71,137.71,0,0,0,3.11-14.47c6.73,2.41,11.51-.15,11.77-11.92.95-41.95-3.66-46.35-3.66-46.35l39.22-7.91L1799.4,295a463.22,463.22,0,0,1,44.19,14.88S1829.32,351.1,1838.64,378.58Z"/><path class="cls-4" d="M1719.75,301.84s-23.72,4.56-27,37.87c-2.36,23.84,8.76,115.42,8.76,115.42s13.75-8.8,17.77-23.54-.22-39.51,1.57-50.23a325,325,0,0,0,3.67-40.72C1724.63,329.25,1724.86,305.87,1719.75,301.84Z"/><path class="cls-5" d="M1875.77,473c2.79-10,4.07-30.95,2.38-47.49-1.8-17.65-6.3-42.47-11.53-78.72s-28.92-39-28.92-39c-22.16,32.9.94,70.81.94,70.81l2.12,82.34S1865.56,453.83,1875.77,473Z"/><path class="cls-4" d="M1826.27,389c28.37,7.75,50.08-1.8,50.08-1.8s-2.35-12.66-5-28.28c-3.35-20.13-10.39-44.75-33.69-51.1,0,0-10.08,7-12.79,21.82S1826.27,389,1826.27,389Z"/><rect class="cls-6" x="1689.71" y="344.28" width="156.54" height="145.06" transform="translate(65.06 -215.27) rotate(7.1)"/><rect class="cls-7" x="1697.28" y="344.75" width="156.54" height="22.52" transform="translate(57.6 -216.68) rotate(7.1)"/><rect class="cls-6" x="1696.42" y="338.27" width="161.57" height="22.23" transform="translate(56.79 -216.93) rotate(7.1)"/><path class="cls-8" d="M1713.59,364.37c-5.83,7.82-12.53,10.16-12.53,10.16s-3,8.77-7,11.54c-.78.52-1.3,1.77-1.56,3.59l5.54-44.58a26.82,26.82,0,0,1,10.33.82C1716.19,348.67,1719.6,356.24,1713.59,364.37Z"/><path class="cls-5" d="M1716.69,362.7c-5.84,7.82-15.63,11.83-15.63,11.83s-3,8.77-7,11.54c-.78.52-1.3,1.77-1.56,3.59,0,.26-.08.56-.13.82s0,.26,0,.39L1683,466.22c-7.74-2.14-19.08-26.84-17.74-43.53s12.89-39.82,13.92-55.9.52-18,7-19.68c0,0,13.36-5.15,25.36-2.88C1719.61,345.78,1722.7,354.57,1716.69,362.7Z"/><path class="cls-5" d="M1795.43,271.48s-2.07,17.33,2,21.87a70.8,70.8,0,0,0,11.73,4.52s-14.43,25.87-36.91,21.77c-18-3.29-19.26-24.5-19.26-24.5s7.07-1.15,7.94-2.51,0-10.9,0-10.9Z"/><path class="cls-5" d="M1747.78,192.26c-6.12,9.34-2.56,19.52-3.7,30.63-.79,7.65-12.39,53.74,12.06,59.08,8.95,1.95,31.47-.43,43.92-9.25a52.13,52.13,0,0,0,21.6-38.63,62.4,62.4,0,0,0-1.26-16.41c-2.79-13.87-9.83-27.55-21.89-35s-29.57-6.65-38.76,4.1"/><path class="cls-9" d="M1783.55,169.28c-.67-1.36-2.26-1.39-3.67-1.16-8.43,1.43-17,9.14-21.41,19.2-1.45,3.33-2.47,7.16-1.69,10.26a10.68,10.68,0,0,0,2.76,4.6c14.73,15.95,40.07,13.72,53.31,31.6a60.62,60.62,0,0,0,2.67-30.18,65,65,0,0,0-9.89-24.84c-3.81-5.86-9.11-11.3-15.83-9.75"/><path class="cls-9" d="M1804.32,216.53a18.63,18.63,0,0,1,4.17,14.85c-.84,5.27-4,10.49-2.42,15.59a2,2,0,0,0,.61,1.05c1.43,1.07,3.06-2,4.78-1.52,1.49,2.89.83,6.43-.41,9.44s-3,5.82-3.73,9a2.68,2.68,0,0,0,0,1.43c.33,1,1.49,1.3,2.49,1.4,6.14.61,12-2.61,16.82-6.51,12-9.78,19.73-24.47,21.76-39.84a32.79,32.79,0,0,0-.58-13.6c-1.3-4.38-4.18-8.45-8.32-10.38,1.19-5.77,2-12.06-.72-17.3-1.75-3.43-4.81-6-7.91-8.28-15.28-11.2-42-18.87-58-4.55a16.56,16.56,0,0,0-5.44,8.57c-1.51,7.06,3.43,13.91,8.45,19.31a163.08,163.08,0,0,0,22.5,20.14"/><path class="cls-9" d="M1774.2,171.51c-10.63-3.5-23.75,2.86-27.56,11-8.11,17.3-4.43,33.88-2.56,40.39,1.55-13.1,3.08-16.86,7.23-24.37s13.46-12.06,20.73-16.62"/><path class="cls-5" d="M1798,260.43c3-5.14,7.32-14.76,8.22-15.1a18.3,18.3,0,0,1,5.55-1.46,6.23,6.23,0,0,1,5.18,2,7.36,7.36,0,0,1,1.24,5.18A18.27,18.27,0,0,1,1808,266.12c-2.32,1.09-5.09,1.66-7.44.63s-3.84-4.14-2.5-6.32"/><path class="cls-5" d="M1872.8,454.82c-10.37-7.33-24.78.3-31.29,5.47s-18.9,21.74-21,22.9c-10.16,5.64-18.32,3-26.66,1.73h0a37.62,37.62,0,0,0-7.67-.49c-1.87-.18-4-.42-6.17-.76-6.93-1.71-14.5-3.32-17.4-1.58-6.22,3.72,8.59,8.21,8.59,8.21-22.58-5.37-31.83-4.33-27.72-1.22,5.2,3.93,16.73,5.84,27.71,8.14,8.48,1.78,36.91,4.8,49.58,4.33,8.65-.32,17.82-.6,34.08-6.78,11.62-4.42,20.51-14.61,22.1-26.93C1877.64,462.13,1876.56,457.47,1872.8,454.82Z"/><path class="cls-8" d="M1750.13,1041.14c-5,5.7-15.26,4.67-31.13,4.45s-42.76,2.12-54.83,1.47-12.14-9.56-6.09-11.24,16.86-6.92,24.77-11.5,29.23-13.23,30.27-17c0,0,15.22,2.68,30.57,0,.56,2.34,3.62,6.63,4.48,9C1753.31,1030,1752.77,1038.07,1750.13,1041.14Z"/><path class="cls-8" d="M1949.28,1011.34c-2.76,7.14-12.75,9.64-27.75,14.87s-39.44,16.56-51,20.11-14.7-4.84-9.6-8.52,13.49-12.23,19.33-19.24,21.31-21.83,21.57-25.77a19.37,19.37,0,0,0,0-2.85s18.37,2.07,29.27-9.08c1.38,2.16,5.53,5.73,7.6,7.95C1948.41,999.21,1950.71,1007.58,1949.28,1011.34Z"/><path class="cls-9" d="M1828.09,181s17.8-23.2,36.73-16.12c25.76,9.63,32.86,62.86-24.5,56.92"/><path class="cls-10" d="M2184.35,356.86c-15.36,18.38-27.9,61.76-43.59,79.86-7.71,8.9-63.15,57-100.44,77.51-1.72-11.17-25.35-4.22-17-11.78,26.11-23.52,71.27-47.49,86.64-90.61,10.11-28.38,47.55-91.42,47.55-91.42"/><rect class="cls-6" x="1965.49" y="362.41" width="174.62" height="161.81" transform="translate(4123.89 791.26) rotate(177.35)"/><rect class="cls-11" x="2140" y="357.92" width="19.67" height="161.81" transform="translate(-17.98 99.83) rotate(-2.65)"/><rect class="cls-7" x="1962.33" y="362.48" width="174.62" height="25.12" transform="translate(4114.42 654.93) rotate(177.35)"/><rect class="cls-7" x="2136.84" y="357.99" width="19.67" height="25.12" transform="matrix(1, -0.05, 0.05, 1, -14.83, 99.62)"/><rect class="cls-6" x="1958.25" y="355.17" width="178.34" height="24.79" transform="translate(4109.66 640.09) rotate(177.35)"/><rect class="cls-8" x="2136.49" y="350.47" width="24.74" height="24.79" transform="translate(-14.47 99.69) rotate(-2.65)"/><path class="cls-12" d="M2216.08,514.36l70.3-57.67s31.74,44.31,19,86.46c-6.27,20.72-13.94,30.94-17.34,40.77-3.17,9.18-25.89,139.46-24.46,149s12.29,36.43,16.2,64.58c4.69,33.85,2.3,143.91,5.89,173.15s-23.42,33.8-24.77,23.91c-11.5-84.57-43.15-216.53-47.25-258.79S2212.48,616.32,2216.08,514.36Z"/><path class="cls-12" d="M2256.57,967.42s6,30.71,4.25,34.59-8.21,15.14-14.68,19.15c-6.79,4.21-21.75,9.12-23,11a4.62,4.62,0,0,0,.77,6.26c5.43,4.39,14.92,6.62,21.17,5.68,20.24-3.06,22.46-12,34.24-13.23,2-.22,5.76,2.84,11.42,0s8.46-8,8.05-12.86c-.72-8.44-5.36-15.46-8.65-21.74s-5.26-34.87-5.26-34.87"/><path class="cls-9" d="M2218.71,1040.3c-1.44-2.54-1.76-6.36-.38-7.27,1.92-1.27,12.37-6.1,16.32-7.85s10.17-3.25,8-2.1,1.76,5.63,5.43,5.45c12.67-.6,22.13-8.89,29.37-10.59,10.44-2.46,15-14.69,15.46-16.68,1.95,1.28,6.39,11.24,7.27,14.36.81,2.83,2.24,8,1.4,10.91-.58,2-1.86,6.07-1.3,10.36,0,0-2.07,1.55-7.52,2.6a29.58,29.58,0,0,1-8.06,0s-3.64-6.7-7.25-6a34.42,34.42,0,0,0-9.9,4.46c-1.47,1.7-2.67,4.83-4.6,5.77a40.21,40.21,0,0,1-16.66,3.91C2232.67,1048.24,2221.17,1044.64,2218.71,1040.3Z"/><path class="cls-12" d="M2119.4,1034.37c1.49-1.65,17.59-4.27,25.14-7.42,7.19-3,15.91-12.67,17.6-16.77s1.31-24.88,1.09-33.61c-1.5-60.1-12.61-207-14.22-242.12-2.79-61.13,5.15-124.23,28.66-222.36l87.58-67.21s24.53,45.6,16.32,89.19c-4.77,25.3-25.75,29.19-29.29,39s-56.54,168.32-56.54,168.32,10.31,34.26,10.91,71.8c.51,32-14,128.71-16.72,165.53-.31,7.2-1.55,24.43.57,29.91,2.6,6.72,9.22,14.61,8.89,23.09-.2,4.91-3.75,9.6-9.95,11.53s-9.67-1.66-11.8-1.75c-12.35-.51-15.77,8-37.08,8-6.58,0-16.11-3.64-21.16-8.8A4.49,4.49,0,0,1,2119.4,1034.37Z"/><path class="cls-9" d="M2113.79,1042.12c-1.16-2.74-1-6.56.53-7.26,2.15-1,13.53-4.51,17.82-5.65s10.94-1.7,8.51-.89,1.11,5.84,4.93,6.22c13.17,1.3,24-5.49,31.69-6.09,11.12-.87,15.19-12.31,15.95-14.21,1.85,1.56,7.34,12.09,7.85,15.32.47,2.92,1.3,8.25.06,11-.86,1.91-2.7,5.73-2.66,10.07,0,0-2.34,1.22-8.1,1.44a32.42,32.42,0,0,1-8.34-1.2s-2.9-7.18-6.73-7a22.39,22.39,0,0,0-10.86,3.84c-1.81,1.37-3.71,3.66-5.85,4.2a44.71,44.71,0,0,1-17.3,1.31C2127.17,1051.76,2115.78,1046.79,2113.79,1042.12Z"/><path class="cls-4" d="M2283.25,452c22.47,23,51.92,49.8,43.84,86.46-2.14,9.71,2.37,80.38,0,90.06-5.4,22-20.74,323.49-22.51,349-34.61,20.81-149.56,28.88-178,8.67,2.53-36.6,21.79-374.9,27.81-417.34,9.1-64-5.7-77.92,3.82-103.55,1.11-4.51,29.4-17.89,30.44-23.2"/><path class="cls-13" d="M2189.55,242.32c-5.49,1.82-3.44,14.92-8.93,16.74-4,1.32-11.79-.43-15.44,1.63-19.37,10.92-14.4,32.72-16.74,59.73-8.2,20.72-10.38,39.51-3.85,51.08,8.11,14.37-17.09,40.94-7.13,52.85,7.45,8.9,9.89,27.2,11.41,46.87.27,3.39-2.55,9.33-1.73,12.62,1.57,6.32,47.12-11.35,57.84-11.35,47.48,0,95-12.39,94-18.5-.71-4.27,1.69-14.27,0-22.52-3.72-18.17-17.3-58.37-20.2-73.78-7.41-39.45-12.84-68.78-29-105.14"/><path class="cls-12" d="M2119.21,189c-2.25-9.24-3.9-19.08-3.58-27.24.61-15.65,2.59-38.31,28.59-47.63s54.7-3.72,63.22,15,6.53,47.15,7.78,62.32,12.37,33.35,12.37,33.35l-56,24.11s-9.15-19.89-12.91-22.27-5.08,7.09-17.56,6c-5.29-.44-10.95-9.95-15.23-21.65l-.4-1.15a60.22,60.22,0,0,1-6.66-.57c-3.86-1.15-3.56-2.86-2.69-5.31A63.41,63.41,0,0,0,2119.21,189Z"/><path class="cls-12" d="M2041.72,509.8c0,4.56-8.77,16.93-15.47,18.83a10,10,0,0,1-6.58-.16c-3,1.36-12.7,2.43-9.1-3.26-6.14,5.15-13.11,4.89-20.9,4.51-2.6-.13-2.52-3.17,3.18-4.72,7.92-2.15,13.62-7.4,17.77-14.95-1.19-.91-2.14.75-5.36,1.27-3.57.56-5.48-1-5.59-2.6-.09-1.18,4.2-2.55,5.14-3.17l10.69-7.07c3.92-2.59,6.53-3.78,11.24-4.11.79-.06,8.47.4,6.57,3.2"/><path class="cls-12" d="M2168,330.38c-9.28,19.18-33.65,82.76-37.43,90.09-14.9,28.87-91.25,91.52-91.25,91.52s-13-2.15-13-15.08c21.86-15.17,62.89-80.28,71.39-88.07,5.51-5,30.29-105.54,30.29-105.54"/><path class="cls-13" d="M2147.06,259.57c21.28-8.13,41.63-8.18,57.93-24.47,16.54,12.72-20,86.28-29,88.26-9.23,2-19.68,42.16-23.51,48.14-29.46-.78-40.24-16.84-40.24-16.84C2118.1,320.07,2126.44,267.45,2147.06,259.57Z"/><path class="cls-9" d="M2164.13,261.57c1.47-5.53,5.65-9.93,6.59-15.58.88-5.34-.17-12.19-3.14-16.77-1.83-2.83-4.65-4.8-7.28-6.88-11.71-9.23-15.79-16.86-11.86-30.67,1.28-4.51,2.45-9.18,2-13.86-.43-4.23-1.29-8.65-5.84-9.18-3.17-.37-5.2.4-6.32,3.07-.77,1.87.76,15.26-3.68,7.67-4.25-7.26-8-7.81-7.82-24.55,0-2,.7-10.06-.53-11.25-7.77,5.67-10,15.4-10.94,22.51-5.85-2.47-7.49-10.89-7.5-14.1,0-6.57.69-11.63,3.08-16.77,10.17-21.81,21-25.82,30.07-29.68,8.84-3.75,18-7.57,27.59-7.32s21.45,3.11,24.22,10.29c13.27-3.42,20.86,8.17,24,12.34A67.65,67.65,0,0,1,2227,140.61c3.39,10.48,4.18,21.65,6.86,32.34,2.18,8.71,5.91,17.71,12.64,23.8,6.47,5.85,15.56,6.39,22.58,11.75a35.37,35.37,0,0,1,13.42,29.39c-.48,11.23-6.26,23.34.53,33.65,2.2,3.35,5.29,6,7.47,9.4,5,7.76,4.28,18.48-.51,26.39s-14.12,16.94-22.88,19.55-15.63,3.9-24.74,3.4c-16.14-.89-29.71,0-46.78-14.55-9.66-8.26-3.48-13-12.75-21.74-5.2-4.91-12.59-7.53-16.4-13.91a24.86,24.86,0,0,1-2.48-17.86C2164,262,2164.07,261.79,2164.13,261.57Z"/><path class="cls-12" d="M2137.88,183.76s-5-12.93,3.8-16.21,11.19,9.65,9.74,16.21S2145,201.42,2137.88,183.76Z"/><path class="cls-14" d="M1587.24,532.42l-15.65,2.9s-42.84-66.05-44.07-86.19c-1.19-19.23-39.8-103.39,5.4-155.93a83.22,83.22,0,0,1,6.66-6.94,1.42,1.42,0,0,1,.25-.24l.23.37c.92,1.53,4.51,8,8.71,22.36,6.59,22.42,14.74,64,16.66,135.91C1565.43,444.66,1575.94,506.2,1587.24,532.42Z"/><path class="cls-14" d="M1587.24,532.42s16.78,18.93,17.29,26.6-6.12,17.34-13.58,19-2.8-10.18-3.92-14.93-6-12-5.69-9.82,3.27,10.61,2.35,12-3.33,1.57-4.24-3-8.42-9.79-7-14.63.27-8.58-1.76-15.07-5.45-14.3-5.45-14.3l12.1-2.58Z"/><path class="cls-3" d="M1474,190.58s-.37,8,4.42,9.55-4.93,18.8-4.17,30.45,5.92,16.31,5.92,16.31-2.48-6.4-1.1-10.36c0,0-.22,8.23,5.8,12.39s4.4,7.75,4.4,7.75,13.59-4.07,14-14.27c0,0,.58,4.61.11,6.52,0,0,11.74-8.82,12.3-19s-9.24-18.73-13.7-18.88-14.42-8.92-14.16-12.23S1474,190.58,1474,190.58Z"/><path class="cls-15" d="M1511.57,133.51c-7.91-12-39.31-5.29-70.14,15S1392,195,1399.93,207s39.31,5.29,70.14-15S1519.48,145.52,1511.57,133.51Z"/><path class="cls-8" d="M1579.37,1019.72l-16.62,6.19s-72.21-100.14-81.1-188.26c-1.59-15.73-1.06-31,2.38-45,0,0-.71-4-1.94-11.16-.57-3.33-1.28-7.33-2.08-11.92-2.35-13.45-5.58-31.85-9.27-52.81-8.5-48.22-19.5-109.86-28.06-155.18l4.48-1.44,48.47-15.64,10-31.81,36.09-9.5s8.06,15.77,15.26,90.27c1.34,9.77,2.54,20.55,3.45,32.23a637.63,637.63,0,0,1-3.43,130.5q-2.49,19.43-6.34,40.05c-1.9,10.07-2.18,23.8-1.38,39.55C1552.93,907.78,1579.37,1019.72,1579.37,1019.72Z"/><path class="cls-3" d="M1494.21,134.88,1438.8,219s-6.34-12.42-13.38-8c-11,6.93-34.56-16.81-29.64-50.33.32-2.2.71-4.28,1.13-6.26,11.06-15.93,23.34-33.66,32.15-46.13C1454.51,92.91,1494.21,134.88,1494.21,134.88Z"/><path class="cls-16" d="M1518.57,304.73c-7.76,7.1-17.83,13.46-30.88,18.41-48.94,18.54-74.11-21.53-85.37-49.85a44,44,0,0,1,16.4-7.59c3.6-.93,7.4-1.73,10.56-2.32,5.08-5.12,11.12-24,9.23-51.92l2.46.31,41.3,5.48s-.1,12.91.63,25c.59,9.46,1.7,18.42,3.77,20.37,3.19.25,5.12.44,5.12.44l0,0A258.76,258.76,0,0,1,1518.57,304.73Z"/><path class="cls-16" d="M1490.63,228.23s-54,4.33-56.13-29.31-10.6-55.74,23.75-59.92,41.88,8.22,45.34,19.27S1504.61,226.24,1490.63,228.23Z"/><path class="cls-3" d="M1500.79,139.67c-9-9.59-15.16-7-18.5-3.7-30.55-14.35-48,10.85-48,10.85-2.08,24.37-18.61,39.3-18.61,39.3s10.23,5.46,32.56-1.82c6.81-2.23,12.69-7.55,17.57-13.86a126.14,126.14,0,0,1-20,27.87c26.31-14.26,34.79-52.65,35.62-56.71,3.49,2.76,10.4,8.77,12.78,15,3.24,8.4,5.57,25.95,10.67,25C1504.84,181.58,1514.28,154,1500.79,139.67Z"/><path class="cls-9" d="M1631.4,1047.63h-83.73s-3.13-13.35,2.37-22.44c4.86-8,3-12.62-.61-19.27a32.59,32.59,0,0,0,14.11,2.65c4.17-.24,8.58-2.13,12.45-4.38,3.6,4.11,19,21.6,23.85,25.07C1605.32,1033.19,1629.71,1031.79,1631.4,1047.63Z"/><path class="cls-17" d="M1394.63,177.22s-25.09-49.94,10-69.68,60.72-12,80,12.15Z"/><path class="cls-17" d="M1554.29,313.51c-6.71-33.59-27.51-43.21-27.51-43.21s-3.46-5.24-22.79-6.06c-3-.12-6.29-.75-10-1l-2.25-.16,0,0c.73,1.13,20.23,31.1,19.15,39.16s-72.07,5.4-77.22,1.25c-4.12-3.33-11.28-25.59-14-34.3-.68-2.17-1.08-3.5-1.08-3.5s-24.78,4.33-36.43,14a108.11,108.11,0,0,1,14.88,21.81c.56,1.15,1.1,2.3,1.6,3.46a52,52,0,0,1,2.6,7.53c.85,3.34.08,6.79-1.73,10.5a73,73,0,0,1-7,11c-1.91,2.56-4,5.28-6.06,8.19,1.47,4.89,3.4,10.76,5.53,17.4,4.38,13.66,9.59,30.52,13.32,48.68a46.49,46.49,0,0,1-.47,20.6,47.18,47.18,0,0,1-2.7,7.84c-1.77,4-2.2,9.43-4.19,14.56-8.11,21-17.47,48.4-8.09,62.71,6.26,18.3,151.16-26.13,141.41-45.31,0,0,5.77-100.65,9.76-131.82.13-1.14.24-2.25.29-3.36a46.93,46.93,0,0,0,0-5.17C1554,322.55,1554.29,313.51,1554.29,313.51Z"/><path class="cls-17" d="M1535.87,114.21c-7.22-11.57-32.46-9.71-62.94,2.78a250.65,250.65,0,0,0-37.33,19.31,240.33,240.33,0,0,0-40.45,31.26c-20.17,19.72-30,38.61-23.49,49.09,7.26,11.63,32.74,9.67,63.44-3-2.5-2.71-6-5-9.68-2.67s-9.05,1.14-14.13-2.9c-3.76-.61-6.54-2.12-8.06-4.56a9.62,9.62,0,0,1-1.15-6.55c1.56-11.67,18.11-29.8,41.86-44.62,18.26-11.39,36.4-18.09,48.89-18.88,7.27-.48,12.62,1,15,4.82,2,3.25,1.58,7.78-.91,13a48.13,48.13,0,0,1,.82,16.38C1531,146.44,1542.89,125.46,1535.87,114.21Z"/><path class="cls-8" d="M1409.14,267.7s33.7,21.53,42.32,66.93l10.19-3.23s-4-32.41-42.93-65.7Z"/><path class="cls-8" d="M1528.16,335.79l-10.67.7A108.26,108.26,0,0,0,1494,263.2c3.67.3,7,.65,10,1C1531.94,304.68,1528.16,335.79,1528.16,335.79Z"/><path class="cls-8" d="M1541.4,506.41l7.57-3.26-7.43-112.81s-7.23-51.29-7.34-60.25a16.56,16.56,0,0,0-7.34-13.34s-53.13,2.81-68.1,3.65-13.47,9.36-13.47,9.36,6.53,27.25,7.19,30.06c10.08,42.83-47.56,69-47.56,69s-15.37,22.71-22.63,45.89c-12.43,39.74-7.72,125.91-7.72,125.91,1.89,30.28,17.75,131.29,21.35,169.37,1.3,13.8,2.44,23.62,2.9,27.54a.08.08,0,0,1,0,0,5.44,5.44,0,0,1-.88,3.37,178.73,178.73,0,0,0-13.29,27.94C1349.33,923,1390.1,1039,1390.1,1039l10.58-4.26s23.21-129.05,42.06-186.05c3.2-9.67,6.27-17.27,9.08-21.81,8.2-13.23,25.88-29.53,32.79-55.24,13.05-48.61,36.73-113.4,43.72-162.21,1,0-12.24-72.18,13-102.36C1541.51,506.79,1541.54,506.58,1541.4,506.41Z"/><path class="cls-3" d="M1402.08,197s-.37,8,4.42,9.55-4.94,18.8-4.18,30.44,5.92,16.32,5.92,16.32-2.47-6.41-1.09-10.36c0,0-.22,8.23,5.79,12.39s4.4,7.74,4.4,7.74,13.59-4.07,14-14.26c0,0,.59,4.61.12,6.51,0,0,11.73-8.81,12.29-19s-9.24-18.73-13.7-18.88-14.42-8.92-14.15-12.23S1402.08,197,1402.08,197Z"/><path class="cls-16" d="M1402.14,464.55s16.14,10.19,18.51,10.1c5.54-.2,16.47-12.3,25.58-6.71s18,14.92,14.87,18.65-13.85-.67-19,.07-17.77,7-26.69,4.08c-8.58-2.85-27.12-14.54-27.12-14.54Z"/><path class="cls-16" d="M1382.29,279.67s-60.11,71-80,111c0,0,23.92,52.07,101.45,94.37,0,0,3.44-.75,8.7-4.51,8.21-5.86-.88-10.15-2.68-11.31-19.67-12.74-54-67.62-55-72.38s43.08-47.48,56.47-63.27S1403.11,271.54,1382.29,279.67Z"/><path class="cls-17" d="M1382.29,279.67l-27,26.38s6.17,38.95,47,44c0,0,33.54-26.85,13.5-54.82S1382.29,279.67,1382.29,279.67Z"/><path class="cls-16" d="M1420.65,474.65a8.57,8.57,0,0,1,4.38-5.46c3.47-1.55,6.7-4.92,7-3.93a4.53,4.53,0,0,1-1.3,4.61C1428.92,471.86,1425.86,475.19,1420.65,474.65Z"/><path class="cls-9" d="M1451.62,1047.63h-83.73s-2-12.76,2.37-22.44c4.19-9.29,10.75-13.51,9.18-24.75,5.32,5.48,14,11.61,26.1,10,1.48,2.41,9.57,15.28,14.52,18.84C1425.54,1033.19,1449.93,1031.79,1451.62,1047.63Z"/><path class="cls-3" d="M1115.44,222.21s-37.33-1.87-38.38-23.41-31.88-37.25-23-54.54c11-21.21,1-41.6,14.78-55.86,15.24-15.71,34.48-7.18,44.63-16.33s28.73-17.6,47-6.29,32.28,5.22,44.32,16.11c13.29,12,8.25,27.19,19.22,35.41,10.05,7.54,6,28.14-2.51,44.88-6.11,12.06,8,23.37-16.19,37.23-10.05,5.77-7.87,20.3-38.38,22.8C1153.27,223.34,1123.45,216.9,1115.44,222.21Z"/><path class="cls-9" d="M1044.21,1051.49s0-15.11,2.15-20.14,10.05-25.49,10.05-25.49h30.88s5.74,18.67,6.1,24.77,0,20.86,0,20.86Z"/><path class="cls-9" d="M1240.24,1051.49s0-15.11-2.15-20.14-10-25.49-10-25.49h-30.88s-5.74,18.67-6.1,24.77,0,20.86,0,20.86Z"/><path class="cls-5" d="M1116.55,203.1s-1.09,33.66-5.4,48.74l-34.09,23.79,128.34,19.2-30.61-42.29s-9.24-45.13-4.39-61.82S1116.55,203.1,1116.55,203.1Z"/><path class="cls-5" d="M1143.44,222.21c-13.85-.25-39.35-18.69-39.35-41.53V145c0-8.34,5.82-15.16,12.92-15.16h52.85c7.11,0,12.93,6.82,12.93,15.16v33.63C1182.79,202.61,1159.33,222.49,1143.44,222.21Z"/><path class="cls-8" d="M1048.08,528s5.4,165-2.68,259.07.06,225.11.06,225.11,25.83,14.24,53.84,0c0,0,30.71-181.83,30.51-225.11-.2-46.08,33.43-251.88,33.43-251.88Z"/><path class="cls-8" d="M1239.13,1012.2s-25.83,14.25-53.83,0c0,0-30.71-181.83-30.52-225.1.09-19.46-5.86-67.42-12.76-116.32-9.44-66.9-20.67-135.56-20.67-135.56L1241,527.75s-9.87,165.24-1.79,259.35S1239.13,1012.2,1239.13,1012.2Z"/><path class="cls-4" d="M1218.43,260.52v.07a340.81,340.81,0,0,0-43.64-8c-11.91,15.82-20.46,19.5-31.35,23.8-17.52-2.42-32.29-24-32.29-24.5-19.09,2-32,5.46-37.2,7.09-1,.12-57,7.52-136.29,168.85,0,0,4.27,14.85,25.05,40.75,14.79,18.42,38,42.44,73.89,70.67a123.42,123.42,0,0,0,6.48-19s-21.35-41.56-34.21-69.71c-6.25-13.7-10.49-24.21-9.28-25.22,2.32-1.92,28.16-24.36,47.23-40.93-.15,4.14-.19,7.91-.1,11.18,1,36,2.49,71.06-2.15,109.86-6.11,51,4.23,50.07,4.23,50.07s13.92,2.73,33.33,5.3c17.55,2.35,39.6,4.58,59.89,4.58,46.53,0,97.53-9.88,97.53-9.88,14.68.18-4.12-91.34-6.86-146.41-.64-12.79-1.23-24.46-1.79-35.13,17.54,15.23,56.38,49,59.25,51.36,1.21,1-3,11.52-9.28,25.22-12.86,28.15-34.22,69.71-34.22,69.71a124,124,0,0,0,6.49,19c35.93-28.23,59.1-52.25,73.88-70.67,20.79-25.9,25.06-40.75,25.06-40.75C1272.07,264.93,1218.43,260.52,1218.43,260.52Z"/><path class="cls-5" d="M1038.82,522.27s19.39-17.95,27.29-7.9,9.33,25.85,3.23,24.77-18.67-6.82-20.46-3.95-9.84,8.37-12.28,4S1038.82,522.27,1038.82,522.27Z"/><path class="cls-5" d="M1043.08,520.22a123.42,123.42,0,0,1-6.48,19C1000.67,511,977.5,487,962.71,468.53c11.15-.83,27.43-4.81,46.16-18C1021.73,478.66,1043.08,520.22,1043.08,520.22Z"/><path class="cls-5" d="M1250.91,522.27s-19.38-17.95-27.28-7.9-9.34,25.85-3.23,24.77,18.67-6.82,20.46-3.95,9.84,8.37,12.28,4S1250.91,522.27,1250.91,522.27Z"/><path class="cls-5" d="M1246.65,520.22a122.66,122.66,0,0,0,6.49,19C1289.07,511,1312.23,487,1327,468.53c-11.15-.83-27.42-4.81-46.15-18C1268,478.66,1246.65,520.22,1246.65,520.22Z"/><path class="cls-3" d="M1104.09,159.49s9.61-29.35,41.12-24.78,34.23,11.31,37.58,19.12,9.81-28.54,9.81-28.54l-37.16-11s-45,5.11-48.2,12.66l-3.23,7.53Z"/><path class="cls-8" d="M1124.16,181.38c-5.43,0-16.31-1.21-18.22-10.66a8.56,8.56,0,0,1,1.56-7.35,10.12,10.12,0,0,1,8-3.38h16.72c3.18,0,5.4.91,6.6,2.71,2,3,.47,7.59-.29,9.41-2.6,6.22-6.18,9.12-11.27,9.13C1127,181.26,1125.84,181.38,1124.16,181.38Zm-8.7-20.29a9,9,0,0,0-7.11,3,7.5,7.5,0,0,0-1.33,6.44c1,4.85,4.62,7.95,10.83,9.21a33,33,0,0,0,9.27.44h.07c4.6,0,7.87-2.69,10.29-8.46.54-1.29,2.16-5.7.38-8.37-1-1.48-2.89-2.22-5.68-2.22Z"/><path class="cls-8" d="M1162.73,181.38c-1.68,0-2.84-.12-3-.14-5.09,0-8.68-2.91-11.28-9.13-.76-1.82-2.31-6.37-.29-9.41,1.2-1.8,3.42-2.71,6.6-2.71h16.72a10.12,10.12,0,0,1,8,3.38,8.53,8.53,0,0,1,1.56,7.35C1179.05,180.17,1168.16,181.38,1162.73,181.38Zm-8-20.29c-2.79,0-4.7.74-5.68,2.22-1.78,2.67-.15,7.08.39,8.37,2.41,5.77,5.68,8.46,10.28,8.46h.07a33.54,33.54,0,0,0,9.28-.44c6.2-1.26,9.85-4.36,10.82-9.2a7.52,7.52,0,0,0-1.33-6.45,9,9,0,0,0-7.11-3Z"/><path class="cls-8" d="M1137.46,167.72a.67.67,0,0,1-.6-.39.65.65,0,0,1,.32-.87c.28-.13,6.83-3.06,12.65,0a.66.66,0,1,1-.62,1.16c-5.25-2.78-11.42,0-11.48,0A.66.66,0,0,1,1137.46,167.72Z"/><path class="cls-4" d="M541.66,148.38s-13-36.93-13.69-46.52,3.62-37.27,35.6-40.22,43.87-6.37,43.87-6.37l-6.09,7.2a22.86,22.86,0,0,1,18.15,3.32c9.25,6.09,14,24.07,12.57,39.57s-13.49,32.56-13.66,39S541.66,148.38,541.66,148.38Z"/><path class="cls-18" d="M454.47,531.58s-.73,8.44-9.54,26.78c0,0-4,12.48,22.38,31.19s.74-58,.74-58Z"/><path class="cls-18" d="M547.7,205.64s-14.82,79.32-31,162.19C499.15,457.89,480,552.15,476.56,553.29c-6.6,2.2-16.71-6.42-21.11-17.43-3.54-8.85-9.61-81.62-5.48-128.64,1-11.48,2.18-20.9,3.47-26.74,6.61-29.72,8.61-134.85,28.43-151.36S547.7,205.64,547.7,205.64Z"/><path class="cls-4" d="M547.7,205.64s-8.55,45.71-19.73,104c-3.54,18.49-7.36,38.24-11.26,58.2-15.83,31-29.42,52.14-33.62,48.17-8.56-8.09-23.6-9.08-33.12-8.78,1-11.48,2.18-20.9,3.47-26.74.53-2.34,1-5.16,1.49-8.37,5.54-37.39,8.69-127.79,26.94-143C501.68,212.61,547.7,205.64,547.7,205.64Z"/><path class="cls-18" d="M613.41,204.47c.35-16,.09-35.1-2.07-51.24l-63.86,10.43s0,19.49.28,41.11h-.06s-1.75,20.06,23,23S614.08,220,613.41,204.47Z"/><path class="cls-9" d="M589.86,1051s2.33-18.1,7.71-28.86,39.62-3.92,39.62-3.92,6.85,5.88,8.32,33.27Z"/><path class="cls-9" d="M473.19,1050.76c8-4.91,3.47-41.55,3.47-41.55s-37.5-30-42.66-7-35.62,33.27-53,36.08c-12,2-15.67,8.58-16.82,12.5Z"/><path class="cls-18" d="M549.37,169.89c6.21,4.88,24.4,9.73,29.66,10.29,0,0,27-6,31.88-9,7.6-4.6,7.11-13.92,7.5-26.88.47-15.33,2-27.38.3-36.22-2-10.57-8.74-16.59-27.51-18.22-34.47-3-48.82,5.64-49.42,17.19-.16,3.1-.3,6.06-.4,8.86C540,152,542.85,164.75,549.37,169.89Z"/><path class="cls-17" d="M550.85,778.49a174.85,174.85,0,0,0-2.75,20.25c-3.48,68-57.23,223.44-66.84,227.07-14.88,5.61-38.3-6.32-50.56-10.22-5.08-1.63-8.5-6.75-7.37-11.94,26.61-122.36,36.4-298.55,39.95-402.86C465.08,548.24,474.1,512,474.1,512S605.18,477,606,521.22C606.65,560.37,562.54,713.9,550.85,778.49Z"/><path class="cls-17" d="M521.69,521.37,591,1023.61s30.43,7.33,54.1,1.46c0,0,20.29-267.11,18.6-331.68s14.56-172.8-3.71-184.73S521.69,521.37,521.69,521.37Z"/><path class="cls-8" d="M669.93,508.65a10.35,10.35,0,0,1-10.19,10.76l-109.2,1.67-80.21,1.22c-3.76.07,8.12-30,8.36-225.91.06-43.72,67.74-90.77,69-90.77l0,0c0,6.29,9.92,17.92,25.2,18.91,18.14,1.19,40.4-7.83,40.4-18.28,0-.12,2.11,2.16,5.5,7.09,9.05,13.2,27.29,45.37,38.94,101.37C666.94,359,663.4,418.09,670,494.39,670.5,499.9,669.79,504.79,669.93,508.65Z"/><path class="cls-4" d="M665.9,520s-14.51,6.5-41.67,12.13a410.87,410.87,0,0,1-80.72,8.11c-53.08.34-73.18-18-73.18-18-3.76.07,4.39-35.31,4.63-231.24.06-43.72,71.47-85.44,72.72-85.44l0,0S546,263.86,563.57,281c0,0,24.7-19.08,56.75-73.39,9,13.2,25.77,51.14,37.42,107.14a303.72,303.72,0,0,1,5,37.19c3.09,38.64,2.4,85.82,7.32,142.47.48,5.51-.23,10.4-.09,14.26C670.16,514.47,671.72,519.93,665.9,520Z"/><rect class="cls-19" x="545.23" y="326.39" width="117.14" height="160.69" transform="translate(-122.47 356.39) rotate(-30)"/><path class="cls-18" d="M710.58,438s-20.78,2-56.3-1.62a541.29,541.29,0,0,1-97.62-19.65L568,397.41s46.26-2,80.14-7a204,204,0,0,0,22.11-4.25c7.36-2-29.2-94.65-47.65-149.15-4.4-13-7.77-23.84-9.27-30.74,0,0,3.22.52,8.29,1.52,14.36,2.83,43.54,9.49,56,18.88C694.36,239.38,736.3,382.64,710.58,438Z"/><path class="cls-18" d="M568.38,397.41s-15.67-14.68-21.73-14.68-23.51,6.36-25.29,11.26-2.49,13.69,2.5,15.65,25.64,6.85,31,7.34S573.37,414.53,568.38,397.41Z"/><path class="cls-4" d="M710.58,438s-20.78,2-56.3-1.62c2-9.65,3.78-28.49-6.17-46a204,204,0,0,0,22.11-4.25c7.36-2-36.32-89.59-54.76-144.09-1.48-17.62,4.86-34.48,4.86-34.48l1.27.2c14.36,2.83,43.54,9.49,56,18.88C694.36,239.38,736.3,382.64,710.58,438Z"/><path class="cls-9" d="M563.57,281S613,259.21,613.71,257.5s-2.45-14.93-5.87-18.84c0,0,23.73,2.2,25.19-.73s2-27.4,2-27.4-9.29-9.78-21.52-10.76c0,0-10.71,26.55-14.68,34.49C588.27,255.29,563.57,281,563.57,281Z"/><path class="cls-9" d="M551.82,237.93S555,263.37,563.57,281c0,0-25.81-18-28-23.85s6.24-17.25,6.24-17.25-15.41-.36-15.78-5.5,4.77-25.32,4.77-25.32,13.25-9.67,16.92-9.31Z"/><path class="cls-4" d="M541.07,127.5s1.33-23,15.59-23.24,39-1.67,49.34-11.35-61.22-5.26-61.22-5.26S536.14,115.31,541.07,127.5Z"/><path class="cls-4" d="M598.31,96.32s18.58,7.57,21.19,19.38C619.5,115.7,625.61,72.15,598.31,96.32Z"/><path class="cls-8" d="M361.78,817.54c-6.81,17.4-41.67,53.24-77.6,87.08-42.91,40.42-87.35,78-87.35,78s-20.31,6.19-11.45-23.69c0,0,49-90,70-116.57,6-7.58,12.22-14.51,18-20.54,14.54-15.09,17.13-22.58,17.13-22.58s6.7-6.38,2.23-14c-21.86-37.44-84.62-152.08-65.23-203,23.33-61.31,105.05-122.35,105.05-122.35s20.52,91.43,36,171.19C382.93,704.45,368.94,799.24,361.78,817.54Z"/><path class="cls-8" d="M192,814.28a177.51,177.51,0,0,0-8.9,29.27C162.39,940.81,237,1048.42,237,1048.42l9.72-5.72s3.78-129.59,13.87-188.1c1.71-9.93,3.6-17.81,5.68-22.66,6.08-14.14,10.35-36.39,13.34-62.55,5.64-49.45,14.68-245.34,14.68-245.34l-4-14.94c-28.54,12.34-112.45-5.71-112.45-5.71s-49,69-41.12,129.92c10.66,82.43,39.77,114.28,48.87,151,3.3,13.3,5.85,22.74,6.88,26.51"/><path class="cls-5" d="M165.51,539.91c-11.6-17.56,28.2-89.29,26.79-96.06-2.79-13.32-9.35-28.09-15.77-41.36s-12.72-25.07-15-32.45c2.07-2.88,4.09-5.58,6-8.13A70.85,70.85,0,0,0,174.46,351c1.78-3.66,2.53-7.08,1.67-10.38a49.7,49.7,0,0,0-2.6-7.43c-.49-1.15-1-2.29-1.59-3.42a106.68,106.68,0,0,0-14.78-21.52c14-9,36.1-13.56,36.3-12.89,1.64-.55,3.09-.93,4.26-1.23.81-.21,1.64-.41,2.46-.6,2.78-.66,5.58-1.24,8-1.68,5-5.05,11.05-23.76,9.24-51.32l2.44.32,40.83,5.51s-.14,12.76.56,24.72c.55,9.35,1.63,18.21,3.68,20.15,3.16.25,5.06.44,5.06.44l0,0a.24.24,0,0,0,.06.09c2.31.19,4.42.39,6.36.61l.46.05c3.59.4,6.56.85,9,1.28.18,0,.34.08.5.1,7,1.28,9.33,2.49,9.33,2.49v.12c-.34,12.86,20.42,35.36,19,64.46-.05,1.1-10.61,77.37-10.57,78.5.85,21.72,11.49,82.88,11.49,82.88C325.3,541.24,171.75,558,165.51,539.91Z"/><path class="cls-9" d="M203.28,142.51c-.75-2.11-9.66-24.61-45.1-14.77,0,0,17.89-3.38,23.26,3.27,0,0-14.7-5.67-23.31.35s-8.95,24.55-7.27,30.08,12.58,21.62,19.13,21.22a19.47,19.47,0,0,0,7.35-2.31,85.86,85.86,0,0,0-2.06,9.89c-4.95,33.14,18.33,56.67,29.2,49.83,7-4.38,13.2,7.91,13.2,7.91l55-83S227.89,117.4,203.28,142.51Z"/><path class="cls-5" d="M268.91,257.27s-53.35,4.15-55.43-29.12S203.12,173,237.1,169s41.4,8.22,44.79,19.16S282.74,255.33,268.91,257.27Z"/><path class="cls-9" d="M279.17,169.72c-8.87-9.51-15-6.93-18.29-3.7-30.17-14.26-47.53,10.62-47.53,10.62-2.11,24.09-18.49,38.82-18.49,38.82s10.11,5.41,32.2-1.73c6.74-2.19,12.57-7.43,17.4-13.66a124.72,124.72,0,0,1-19.83,27.51c26-14,34.52-52,35.35-56,3.44,2.73,10.26,8.69,12.6,14.81,3.18,8.31,5.45,25.67,10.5,24.77C283.08,211.17,292.47,184,279.17,169.72Z"/><path class="cls-3" d="M300.72,1051.49H217.93s-3.1-13.2,2.34-22.19c4.81-7.95,1.85-13.35-.23-20.11,3.75,1.54,8.24,4,13.58,3.68,4.12-.24,10.59-3.27,14.41-5.49,3.57,4.06,16.72,22.51,21.49,25.94C274.93,1037.21,299.06,1035.82,300.72,1051.49Z"/><path class="cls-3" d="M177.66,1049.55,146.5,972.84s11.07-7.83,21.44-6.18c9.18,1.47,12.68-1.95,17.44-7.72a32,32,0,0,0,2.81,13.9c1.77,3.74,5.15,7.07,8.64,9.78-2.42,4.83-12.7,25.48-14.08,31.18C181.19,1020.28,191.55,1042.11,177.66,1049.55Z"/><path class="cls-4" d="M331.13,388.19c-.36-9.29-6.54-88.74-39.95-93.22-1.59-.43-3.23-.8-4.81-1.11a3.4,3.4,0,0,1-.5-.1c-4.1-.76-7.73-1.16-9-1.28l-.46-.05s10,28.28,9.76,31.6S254,328.46,233,328.73c-20.87.28-32.61-34.62-32.8-35.17-.82.19-1.65.39-2.46.6-1.17.3-29.07,4.55-40.56,14.13a106.34,106.34,0,0,1,14.78,21.52c.56,1.13,1.1,2.27,1.59,3.42a50.37,50.37,0,0,1,2.61,7.42c.85,3.3.1,6.73-1.68,10.39a71.83,71.83,0,0,1-6.93,10.88c-1.87,2.55-3.89,5.25-6,8.12a75,75,0,0,0,3.58,9.06h0c3,6.61-11.24,143.24.36,160.8,1.85,5.34,16.56,7.64,36.12,7.74,46.62.24,143.94,1.41,150.32-7.39,0,0-9.4-40.88-12.2-69.87"/><path class="cls-5" d="M181.49,514.25l-8.38,14.53c-53.87-21.35-88.19-69.42-88.19-69.42-1.88-27.3,10.89-58.68,26.19-85.76,2.54-4.49,5.14-8.85,7.76-13.05,10.82,9.24,25.94,21.34,40.33,30.14-2.24,3.71,15.36,9.42,12.47,14.17-11.95,19.69-39.89,37.8-41.89,39.8C126.46,448,181.49,514.25,181.49,514.25Z"/><path class="cls-4" d="M163.67,425.61c-26.52-1.74-56.14-52.36-56.14-52.36,20.71-36.61,49.63-65,49.63-65C230.68,336.35,175.67,417.69,163.67,425.61Z"/><path class="cls-5" d="M181.49,514.24A16.62,16.62,0,0,0,189,511c3-2.58,12.36-9.87,12.91-7.61s-6.83,5.77-2.95,6.32,10-2.05,16.05-1.12,15.45,15,12.57,16.62-13.4-3.88-16.17-1.94-22.52,12.74-38.28,5.49S181.49,514.24,181.49,514.24Z"/><path class="cls-18" d="M837.51,463.24c-45.86-11.67-96.29-82.83-96.29-82.83l12.92-11.2c13.37,15.76,69,42.91,69,42.91-.3-14.42.08-27.58,1-39.56C830.27,291.16,861,264,869.33,258.09a19.58,19.58,0,0,1,2.13-1.36s0,.59.07,1.71c.13,2.42.35,7.29.58,14C873.81,322.24,875.84,473,837.51,463.24Z"/><path class="cls-18" d="M754.14,369.21c-.19-1.92-1.49-29.89-7-35.21s-16.53-12.58-19.68-12-13.86,18.39-8.8,30.66,22.6,27.74,22.6,27.74Z"/><path class="cls-4" d="M757.69,372.79l-27.4,1.15a3.22,3.22,0,0,1-3.35-3.09l-2.3-54.79a3.24,3.24,0,0,1,3.09-3.36l27.4-1.14a3.21,3.21,0,0,1,3.35,3.08l2.29,54.8A3.22,3.22,0,0,1,757.69,372.79Z"/><path class="cls-18" d="M725.13,324.15s8.23-9.2,16.47-2.17-.55,22-7.69,26.13-9.43,6.24-9.43,6.24Z"/><path class="cls-20" d="M937.39,936.49c-2.8,11.11-5.87,21.68-9,31.53-.67,2.11-1.33,4.19-2,6.22-.33,1-.67,2-1,3-.67,1.95-1.31,3.86-2,5.73-.85,2.43-1.7,4.81-2.53,7.11l-1.83,5c-9.31,24.94-17.1,40.75-17.1,40.75l-18.53-1.27s7-33.1,8.35-80.51c0-1.7.09-3.4.13-5.13.06-3.68.11-7.42.11-11.25,0-1.57,0-3.15,0-4.76-.37-40.83-5.43-89.09-21.56-135.16a881.62,881.62,0,0,1-29.51-104.18c-22.19-102.25-17-169.42-17-169.42l104.26,12.2,4.86.57c.44,47.89,1.67,112.9,2.75,163.73.18,8.83.36,17.23.53,25,.72,32.64,1.26,55,1.26,55C957.68,823.79,950.4,884.73,937.39,936.49Z"/><path class="cls-9" d="M907.54,166.17s24.67,21,2.05,45.18c0,0,18.85,1.85,25.22-3.37a17.59,17.59,0,0,1-2.41,3.69s21.07.76,29.77-5.82,3.11-114.37-55.37-102.32c0,0-49.57-3.74-44.95,53.62s-14.1,57.35-14.1,57.35,5.21,2.56,7.72,2.56c0,0,3.67-1.4,4.4-3.43,0,0-.73,3.19-1.67,4.21,0,0,20.2,1.91,30.29-5.71S910.42,178,907.54,166.17Z"/><path class="cls-18" d="M987.14,512.45c-19.71-44.19-29.13-56.68-29.46-70.59-.26-11,5.16-22.86,15.69-51.94a108.22,108.22,0,0,0,5.24-21c8.33-56.08-24.1-116.7-44.25-120.83-5.61-1.48-15.12-21.74-15-54.38l-2.52.5-42.44,8.4s1,13.36,1,25.94c0,10.49-.54,21.16-2.91,22.41-3.06.27-5.84.83-5.84.83S830.73,277,828.41,311.2c-3.1,45.7,29.12,99.87.54,191.21C799.78,595.7,998,536.87,987.14,512.45Z"/><path class="cls-9" d="M921.22,189.56s12.45-19.67,15.43-36.48c2.14-12-4-56.51-48.7-50.1a60.72,60.72,0,0,0-25.19,9.53c-9.71,6.56-23.72,20.71-8,59.54l4.06,13.12Z"/><path class="cls-18" d="M866.47,214.5s56.19.92,56.22-34.08S930,122,894.14,119.9s-42.86,11.27-45.72,22.95S851.85,213.35,866.47,214.5Z"/><path class="cls-9" d="M868.55,119s15.38,41.06,39,47.13,33.85-.25,33.85-.25-18.11-14.39-21.86-39.5C919.53,126.42,880.15,99.5,868.55,119Z"/><path class="cls-9" d="M872.36,122.37s-11.49,9.17-14.29,18.08-4.06,27.26-9.41,26.64c0,0-11.59-27.91,1.43-43.7C863.91,106.65,872.36,122.37,872.36,122.37Z"/><path class="cls-18" d="M1060.22,559.39l-16.87,5.06S987.7,472.12,982.64,448.1c-1.65-7.82-5.69-23.48-10.42-41-9.77-36.32-22.38-80.75-22.38-80.75l-4.15-18L931.52,247s27.13,2.77,43,9.4c5.26,2.19,9.26,4.81,10.66,7.88,11.66,25.63,23.29,90.3,31.47,136.44,4.56,25.71,8,45.67,9.85,49.9C1031.55,462.43,1047,527.35,1060.22,559.39Z"/><path class="cls-18" d="M1059,556.58s5.13,12.09,10.47,15.46,10.41,11.46,11.52,18c2,12-7.14,19.39-13.88,19.39s-13.19-9.2-17.16-31.16c-.22-1.21-6.62-13.81-6.62-13.81Z"/><path class="cls-18" d="M997.2,927.51c-6,64-32.39,105.35-32.39,105.35l-9,8.2s-8.21-46.84-14.13-100.47c-5.65-51-13.4-104.91-22.15-121.38-13.1-24.6-22.75-74.9-29.69-128.06-11.49-87.95-15.56-183.71-15.56-183.71L980,502.2c10.63,17.87,15.26,47.19,16.36,80.52,1.16,35-1.6,74.53-5.43,109.83-5.34,49.4-12.79,90.58-14.52,99.84a.13.13,0,0,1,0,.05,5.51,5.51,0,0,0,.7,3.53C998.11,837.61,1001.15,885.24,997.2,927.51Z"/><path class="cls-8" d="M873.83,365.56c-2.37,58.06-11.06,115.56-36.34,111.86-31-4.52-39.06-33.44-40.71-54.95a123.67,123.67,0,0,1,.45-23.89s15.26-.06,17.73-2.34c11.71-10.82,8.23-116.94,14-127.95s43.42-18.1,43.42-18.1S876.2,308.16,873.83,365.56Z"/><path class="cls-21" d="M937.39,936.49c-2.8,11.11-5.87,21.68-9,31.53-.67,2.11-1.33,4.19-2,6.22-.33,1-.67,2-1,3-.67,1.95-1.31,3.86-2,5.73-.85,2.43-1.7,4.81-2.53,7.11l-1.83,5c-9.31,24.94-17.1,40.75-17.1,40.75l-18.53-1.27s7-33.1,8.35-80.51c0-1.7.09-3.4.13-5.13.06-3.68.11-7.42.11-11.25,0-1.57,0-3.15,0-4.76-.37-40.83-5.43-89.09-21.56-135.16a881.62,881.62,0,0,1-29.51-104.18c11,2.27,20.72-.05,48.88-2.42,2.95-.24,17.1,17.27,31.08,40.46.72,32.63,16.73,49,16.73,49C957.68,823.79,950.4,884.73,937.39,936.49Z"/><path class="cls-4" d="M997.2,927.51c-6,64-32.39,105.35-32.39,105.35l-9,8.2s-8.21-46.84-14.13-100.47c-5.65-51-13.4-104.91-22.15-121.38-13.1-24.6-22.75-74.9-29.69-128.06,9.73,4.05,42.84,14.57,101.09,1.4-5.34,49.4-12.79,90.58-14.52,99.84a.13.13,0,0,1,0,.05,5.51,5.51,0,0,0,.7,3.53C998.11,837.61,1001.15,885.24,997.2,927.51Z"/><path class="cls-9" d="M840.94,444.43s62.19,15.6,116.74-2.57c0,0,30,63.6,38.19,90.85s21.58,83.5,21.58,83.5-110.76,34.21-201.8,0c0,0-4.15-74.94,7.78-114S840.94,444.43,840.94,444.43Z"/><path class="cls-8" d="M1066.35,473.56c0,14.59-14.88,23.56-30.85,27.92-15.35,4.2-31.7,4.14-36.82.72-8.82-5.92-23.2-71.67-27.4-91.69-.76-3.63-1.19-5.76-1.19-5.76s-11.47,27.37-11.83,29.93c-.16,1.14-.3,2.72-.4,4.11-.12,1.68-.19,3.08-.19,3.08s-62.24,31.41-116.73,2.56c0,0-22.15-128-12.53-150,4.78-10.95,29.7-33.54,39.67-43.28,2.24-2.19,2-6.53,1.15-10.5a4.59,4.59,0,0,1,5.61-5.44c6.42,1.68,18,1.38,30.32-2.67a73.44,73.44,0,0,0,18.53-9.06,2.83,2.83,0,0,1,4.4,2c.94,7.63,3.25,21.58,7.46,21.58,5.79,0,45.37,4.82,48.26,9.71,1,1.71,11.3,25,24.29,55.82a.73.73,0,0,1,0,.08C1032.5,370.47,1066.35,454.9,1066.35,473.56Z"/><path class="cls-22" d="M971.28,410.51c-.76-3.63-1.19-5.76-1.19-5.76A29.25,29.25,0,0,1,971.28,410.51Z"/><path class="cls-9" d="M912.64,1051.37H900.81c-4-.62-6.89-1.77-10.95-2.3-6.18-.81-9,1.72-9.58,2.3l-.11.12H829.92c-1.27-1.8,0-6,1.13-9.06a7.17,7.17,0,0,1,4.71-4.3c5.33-1.55,15.83-2.92,25.45-11.63,5.42-4.89,26.14-18,26.14-18l.11,0c.46,0,2.63.67,12,8.63,4.87,4.11,13.18-5.8,13.18-5.8a11.77,11.77,0,0,1,2.72,3.7,12.43,12.43,0,0,1,1.08,7.71c-.75,4.53,1.67,12.94,3.6,18.63,1.17,3.45,2.16,5.9,2.16,5.9S922.82,1050.1,912.64,1051.37Z"/><path class="cls-9" d="M975.77,1051.37H963.94c-4-.62-6.89-1.77-11-2.3-6.17-.81-9,1.72-9.57,2.3l-.11.12H893c-1.26-1.8,0-6,1.14-9.06a7.15,7.15,0,0,1,4.71-4.3c5.32-1.55,15.83-2.92,25.45-11.63,5.41-4.89,26.14-18,26.14-18l.11,0c.45,0,2.62.67,12,8.63,4.87,4.11,13.18-5.8,13.18-5.8a11.77,11.77,0,0,1,2.72,3.7,12.43,12.43,0,0,1,1.08,7.71c-.75,4.53,1.67,12.94,3.6,18.63,1.17,3.45,2.16,5.9,2.16,5.9S985.94,1050.1,975.77,1051.37Z"/><path class="cls-4" d="M623.48,350.69a47.38,47.38,0,0,0-5.21-8.88c-5.44-7.14-12-9.91-18.87-6.73s-9,9.8-7.19,18.43a47.17,47.17,0,0,0,3.44,10A48,48,0,0,0,598,368l.06-.05s0,0,0,.05c.8,1.73,6.48-.49,7.43-1.89a19.27,19.27,0,0,0,8.6,2.11h.58l.36-.44a19.41,19.41,0,0,0,4-7.88c1.63.26,6.84-2.36,6.45-4.13a2.29,2.29,0,0,0-.12-.37h0A49.37,49.37,0,0,0,623.48,350.69Zm-8.81,16.76-.21.26h-.34a18.82,18.82,0,0,1-8.5-2.11.55.55,0,0,0-.24-.24,21.45,21.45,0,0,1-5.78-4.53,24,24,0,0,1-4.31-6.52l-.21-.5.51-.31a20.8,20.8,0,0,0,5.92-5.43,20.15,20.15,0,0,0,2-3.11l.25-.54.58.16a19.69,19.69,0,0,0,3.62.54,21,21,0,0,0,8-1l.56-.19.25.48a24.41,24.41,0,0,1,2.16,7.52,21.22,21.22,0,0,1-.3,7.32.6.6,0,0,0,0,.36A18.82,18.82,0,0,1,614.67,367.45Z"/><path class="cls-19" d="M241.83,392a47.64,47.64,0,0,0-1.41-10.2c-2.3-8.68-7.28-13.74-14.86-13.44s-12,5.61-13.7,14.27a50.18,50.18,0,0,0-.19,15.58l.07,0v0c.08,1.91,6.18,2,7.59,1.11a19.43,19.43,0,0,0,7.14,5.24l.53.22.5-.26a19.41,19.41,0,0,0,6.69-5.76c1.41.86,7.22.44,7.53-1.35a1.63,1.63,0,0,0,0-.38h0A47.13,47.13,0,0,0,241.83,392Zm-14.56,12.11-.29.16-.31-.13a18.88,18.88,0,0,1-7-5.21.49.49,0,0,0-.13-.31,21.1,21.1,0,0,1-3.6-6.39,24.33,24.33,0,0,1-1.49-7.68V384L215,384a21,21,0,0,0,7.55-2.75,19.79,19.79,0,0,0,3-2.13l.44-.4.47.37a20.16,20.16,0,0,0,3.14,1.88,20.91,20.91,0,0,0,7.74,2.15l.6,0,0,.54a24.1,24.1,0,0,1-.88,7.77,21.42,21.42,0,0,1-3.08,6.66.54.54,0,0,0-.12.33A18.77,18.77,0,0,1,227.27,404.14Z"/><path class="cls-19" d="M319.18,381.37a48,48,0,0,0-3.69-9.61c-4.21-7.92-10.22-11.72-17.53-9.7s-10.45,8.21-10.09,17a47,47,0,0,0,1.77,10.45,46,46,0,0,0,1.59,4.77l.07,0a.07.07,0,0,0,0,.05c.51,1.85,6.48.57,7.64-.65a19.35,19.35,0,0,0,8.15,3.48l.56.1.43-.38a19.35,19.35,0,0,0,5.2-7.12c1.57.51,7.13-1.22,7-3a2.32,2.32,0,0,0-.06-.38h0A45.81,45.81,0,0,0,319.18,381.37Zm-11.41,15.11-.26.22-.33-.06a18.76,18.76,0,0,1-8-3.46.61.61,0,0,0-.2-.28,21.33,21.33,0,0,1-5-5.4,24.51,24.51,0,0,1-3.19-7.13l-.13-.54.56-.21a21.15,21.15,0,0,0,6.73-4.4,20.63,20.63,0,0,0,2.42-2.75l.34-.49.54.25a20,20,0,0,0,3.49,1.12,21,21,0,0,0,8,.33l.59-.1.17.52a24.26,24.26,0,0,1,.91,7.76,21.22,21.22,0,0,1-1.49,7.18.55.55,0,0,0,0,.35A18.87,18.87,0,0,1,307.77,396.48Z"/><path class="cls-19" d="M1121,351.59a47.73,47.73,0,0,0-1.41-10.2c-2.3-8.68-7.28-13.74-14.86-13.44s-12,5.62-13.69,14.27a46.35,46.35,0,0,0-.66,10.57,45,45,0,0,0,.46,5l.07,0v.05c.08,1.92,6.18,2,7.59,1.11a19.32,19.32,0,0,0,7.14,5.24l.53.23.5-.27a19.38,19.38,0,0,0,6.69-5.75c1.41.85,7.22.43,7.53-1.36a1.58,1.58,0,0,0,0-.38h0A44.63,44.63,0,0,0,1121,351.59ZM1106.4,363.7l-.29.16-.31-.13a18.94,18.94,0,0,1-7-5.2.51.51,0,0,0-.13-.32,21,21,0,0,1-3.6-6.39,24.33,24.33,0,0,1-1.49-7.67v-.55l.59-.09a20.78,20.78,0,0,0,7.55-2.75,21.11,21.11,0,0,0,3-2.12l.44-.41.47.37a20.16,20.16,0,0,0,3.14,1.88,20.91,20.91,0,0,0,7.74,2.15l.6,0,0,.55a24.07,24.07,0,0,1-.88,7.76,21.42,21.42,0,0,1-3.08,6.66.54.54,0,0,0-.12.33A18.77,18.77,0,0,1,1106.4,363.7Z"/><path class="cls-19" d="M1197.2,341.68a47.7,47.7,0,0,0-3.25-9.76c-3.85-8.12-9.67-12.18-17.07-10.5S1166.07,329.14,1166,338a47,47,0,0,0,1.28,10.52,47.69,47.69,0,0,0,1.38,4.84l.06,0a.11.11,0,0,1,0,.05c.42,1.87,6.45.87,7.67-.3a19.29,19.29,0,0,0,8,3.85l.56.12.45-.35a19.24,19.24,0,0,0,5.52-6.88c1.54.59,7.18-.89,7.16-2.71a1.64,1.64,0,0,0,0-.38h0A48.22,48.22,0,0,0,1197.2,341.68Zm-12.09,14.57-.27.21-.33-.07a19,19,0,0,1-7.88-3.83.43.43,0,0,0-.18-.28,21.14,21.14,0,0,1-4.71-5.63,24.67,24.67,0,0,1-2.87-7.27l-.1-.54.57-.19a21.13,21.13,0,0,0,6.92-4.09,20.86,20.86,0,0,0,2.54-2.63l.36-.48.54.28a19.72,19.72,0,0,0,3.43,1.27,20.83,20.83,0,0,0,8,.7l.59-.07.15.53a24.42,24.42,0,0,1,.55,7.79,21,21,0,0,1-1.82,7.11.57.57,0,0,0,0,.35A18.88,18.88,0,0,1,1185.11,356.25Z"/><path class="cls-4" d="M1530.54,378.06a84.16,84.16,0,0,0-3.92-17.85c-5.26-15-14.78-23.31-28.16-21.73-13.22,1.56-20.54,11.61-22.26,27.16a89.56,89.56,0,0,0,1.82,27.61l.12-.05s0,.06,0,.09c.4,3.38,11.22,2.74,13.59.91a34.2,34.2,0,0,0,13.36,8.28l1,.33.85-.54a34.29,34.29,0,0,0,11-11.12c2.61,1.33,12.85-.23,13.15-3.43a3.86,3.86,0,0,0,0-.68h0A83.91,83.91,0,0,0,1530.54,378.06Zm-24.08,23.47-.51.32-.56-.19a33.52,33.52,0,0,1-13.2-8.24.89.89,0,0,0-.28-.54,37.83,37.83,0,0,1-7.26-10.81,43.67,43.67,0,0,1-3.7-13.38l-.07-1,1-.23a37.38,37.38,0,0,0,13-5.91,36.14,36.14,0,0,0,5-4.18l.73-.77.89.58a34.81,34.81,0,0,0,5.82,2.9,37.18,37.18,0,0,0,14,2.72h1.06l.16,1a43.49,43.49,0,0,1-.49,13.87,37.67,37.67,0,0,1-4.54,12.21,1,1,0,0,0-.15.6A33.52,33.52,0,0,1,1506.46,401.53Z"/></g></g></svg>