<?xml version="1.0" encoding="UTF-8"?>
<svg width="416px" height="338px" viewBox="0 0 416 338" version="1.1" xmlns="http://www.w3.org/2000/svg" xmlns:xlink="http://www.w3.org/1999/xlink">
    <title>Group 6</title>
    <defs>
        <polygon id="path-1" points="0 -4.54808279e-14 43.0823378 -4.54808279e-14 43.0823378 38.4778687 0 38.4778687"></polygon>
        <polygon id="path-3" points="0 2.2740414e-14 30.0016466 2.2740414e-14 30.0016466 19.5702217 0 19.5702217"></polygon>
        <polygon id="path-5" points="0 0 33.5909882 0 33.5909882 24.3536585 0 24.3536585"></polygon>
    </defs>
    <g id="Page-1" stroke="none" stroke-width="1" fill="none" fill-rule="evenodd">
        <g id="HOME-RE" transform="translate(-421.000000, -1449.000000)">
            <g id="Group-5" transform="translate(421.000000, 1449.000000)">
                <g id="Group-72">
                    <polygon id="Fill-1" fill="#EA7F3B" points="160.374378 317.703761 241.079912 317.703761 241.079912 241.803193 160.374378 241.803193"></polygon>
                    <polygon id="Fill-2" fill="#F49750" points="241.079912 317.703761 272.707794 317.703761 272.707794 241.803193 241.079912 241.803193"></polygon>
                    <polygon id="Fill-3" fill="#EC9455" points="196.398999 247.761991 205.055691 247.761991 205.055691 241.803193 196.398999 241.803193"></polygon>
                    <polygon id="Fill-4" fill="#FFB665" points="251.86678 247.761991 258.103726 247.761991 258.103726 241.803193 251.86678 241.803193"></polygon>
                    <polygon id="Fill-5" fill="#EA7F3B" points="169.047468 241.803593 233.913464 241.803593 233.913464 165.903025 169.047468 165.903025"></polygon>
                    <polygon id="Fill-6" fill="#F49750" points="233.913464 241.803593 259.333997 241.803593 259.333997 165.903025 233.913464 165.903025"></polygon>
                    <polygon id="Fill-7" fill="#EC9455" points="198.001631 171.861823 204.959301 171.861823 204.959301 165.903025 198.001631 165.903025"></polygon>
                    <polygon id="Fill-8" fill="#FFB665" points="242.583354 171.861823 247.596428 171.861823 247.596428 165.903025 242.583354 165.903025"></polygon>
                    <g id="Group-71" transform="translate(0.000000, -0.000000)">
                        <path d="M136.935516,167.173915 L111.833349,167.173915 C111.612572,167.173915 111.433391,166.994691 111.433391,166.773862 L111.433391,162.664911 C111.433391,162.444082 111.612572,162.264858 111.833349,162.264858 L136.935516,162.264858 C137.156693,162.264858 137.335474,162.444082 137.335474,162.664911 L137.335474,166.773862 C137.335474,166.994691 137.156693,167.173915 136.935516,167.173915" id="Fill-9" fill="#77122A"></path>
                        <path d="M284.364172,320.523339 L152.065649,320.523339 C148.491224,320.523339 145.583529,317.614949 145.583529,314.03887 L145.583529,167.447232 C145.583529,166.844751 145.09398,166.355486 144.492443,166.355486 L127.588617,166.355486 C126.685111,166.355486 125.952388,165.623788 125.952388,164.719267 C125.952388,163.814745 126.685111,163.083047 127.588617,163.083047 L144.492443,163.083047 C146.898191,163.083047 148.855186,165.04051 148.855186,167.447232 L148.855186,314.03887 C148.855186,315.809507 150.295435,317.2509 152.065649,317.2509 L284.364172,317.2509 C285.268477,317.2509 286,317.982598 286,318.88712 C286,319.791641 285.268477,320.523339 284.364172,320.523339" id="Fill-11" fill="#77122A"></path>
                        <path d="M92.6680796,312.387129 C92.6680796,312.387129 93.2824151,324.56196 92.6472818,327.353134 C92.1465343,329.552228 83.6386267,329.899875 82.806314,328.733719 C81.9736014,327.567562 81.3504667,313.305252 81.3504667,313.305252" id="Fill-13" fill="#5B2D0F"></path>
                        <path d="M19.6936942,312.763339 C19.6936942,312.763339 15.7769051,320.258343 14.7754101,322.315019 C13.7735152,324.372094 5.0212333,320.15713 5.69156298,318.866957 C7.87093438,314.670795 12.1748829,303.498898 12.1748829,303.498898" id="Fill-15" fill="#5B2D0F"></path>
                        <path d="M88.8499201,149.452581 L78.93616,187.971341 C77.7094887,192.373131 76.3680294,197.003752 75.0261701,201.683578 C74.5194233,203.467017 74.0122765,205.250856 73.4887314,207.001491 C72.310455,211.125243 71.1493768,215.166585 70.0694901,218.995498 C69.0387982,222.644786 68.0573011,226.097249 67.2065904,229.23887 C66.6322506,231.349953 66.1351028,236.375826 65.170004,239.580655 C63.7709507,244.225278 61.9183451,246.922839 61.8407532,247.058457 C55.3954293,257.350636 21.4553894,311.695516 17.0714493,318.600841 C13.0470714,317.553501 8.29077034,314.076235 6.94931105,313.077701 C13.2474504,297.794854 19.0124457,268.630547 30.4148496,251.433043 C31.6579192,249.551191 37.2913283,241.985778 38.7471756,240.398365 C42.5639752,226.762938 46.0540092,195.105497 46.8555251,184.682501 C47.1010993,181.295247 46.9211182,177.891591 46.2995834,174.553944 C46.2995834,174.52114 46.2831851,174.52114 46.2831851,174.504737 C44.8765327,167.238964 42.6675644,152.741422 54.2339511,141.189074 C54.4791254,140.943841 54.8390876,140.86183 55.1498551,140.993048 C57.7675805,142.121999 70.0694901,147.194279 80.1632313,147.881571 L88.097199,148.421643 C88.6207441,148.454448 88.9807064,148.945313 88.8499201,149.452581" id="Fill-17" fill="#FF9A00"></path>
                        <path d="M56.0060852,182.674432 C54.788213,182.106356 49.8063356,179.296779 46.7958513,170.252368 C46.7958513,170.252368 83.1476382,143.668807 91.4371687,146.311161 C93.7957213,147.073663 99.5839141,227.647657 99.5499177,229.23907 C99.5327195,230.024775 99.5843141,239.045584 99.5487178,239.98971 C99.0119741,253.475517 93.0541991,320.065637 93.0541991,320.065637 C91.6479466,320.582907 86.7504603,320.436487 80.3359332,320.332873 C78.4953262,303.517821 71.738035,271.079475 77.477833,241.426703 C77.8709917,239.39323 76.8207019,237.410165 75.4480459,231.075316 C70.0262146,217.103444 59.7716902,191.550021 56.4004439,183.092088 C56.3236519,182.900062 56.1936656,182.762044 56.0060852,182.674432" id="Fill-19" fill="#FF9A00"></path>
                        <path d="M41.4273745,95.7078615 C41.4669703,99.974033 41.7221436,104.220202 42.0561085,108.30955 C42.5084611,113.322621 43.0520041,122.04459 43.3823694,126.402373 C44.653836,143.197823 41.4169156,158.855921 41.4169156,158.855921 C42.1049034,159.150761 46.0560889,159.720437 49.7553009,160.832986 C68.1133752,166.354526 94.8453712,157.867389 94.8453712,157.867389 C94.6737892,155.890324 92.588008,137.857508 92.6472018,136.245292 C92.7059956,134.751092 92.2736409,129.679212 91.4285296,122.660672 C91.1337605,120.163938 90.7801976,117.450774 90.3670409,114.541585 C90.033076,112.084055 89.6399172,109.488908 89.2271605,106.815349 C88.736012,103.708933 88.3228554,100.662125 87.9104986,97.6933274 C87.458546,94.3316771 87.0261914,91.0680399 86.5542409,87.844008 C85.6895316,82.2808627 84.7068347,76.9333463 83.2129914,71.7630537 C81.9943192,67.4772796 80.7968448,64.0464199 78.6934654,59.9774749 C73.6815912,50.3245817 61.1605046,48.0734801 59.0575252,47.8766538 C58.8607458,47.8574512 58.6643664,47.8966565 58.5071829,48.0146723 C49.4461333,54.0694834 44.8278178,64.4888792 42.7836322,76.2844594 C41.7025456,82.5360969 41.3489827,89.1613845 41.4273745,95.7078615" id="Fill-21" fill="#E8364B"></path>
                        <path d="M88.3300546,103.817188 C88.1152771,104.122429 91.3413387,113.132436 94.3026281,117.429811 C98.3853999,123.354605 112.812687,146.90736 119.537581,155.259679 L113.658598,159.810289 C113.44502,159.455041 101.897431,148.610789 94.6697896,141.265405 C87.1885743,133.642783 78.9322404,122.983755 76.1317342,118.063096 C75.8101679,117.49022 73.4892113,112.071094 73.4312174,111.309392" id="Fill-23" fill="#5B2D0F"></path>
                        <path d="M96.448323,18.5151204 C96.3335351,19.169608 94.6653101,28.3984444 91.5896327,36.5799404 C90.5753391,39.2470977 89.4138609,41.7998397 88.1051982,43.9105225 C86.1418041,47.0689456 84.7839466,48.3123121 82.0030383,48.3287143 L81.9702417,48.3287143 C80.4815979,48.3287143 78.5673987,47.9686661 75.9336749,47.3469828 C74.4942259,47.0033368 74.2814482,47.8050442 74.1342637,48.2631055 C73.2675546,51.1266892 73.2015615,51.4375308 73.2675546,53.6138223 C70.813412,53.5158092 62.9282391,52.9269303 59.6889789,49.8013116 C59.6729806,49.7853095 59.6565823,49.7685072 59.6565823,49.7525051 C59.116639,49.2448371 58.658687,48.6559582 58.2987247,48.0014705 C60.9980416,45.7103636 60.8344588,38.2653662 60.8344588,38.2653662 L60.850857,38.2653662 C59.5581926,36.0398681 58.6910836,32.9802582 59.1002407,28.8729079 C60.1801274,18.2534853 68.4740574,8.51738103 69.0463974,8.28815032 C69.602739,8.05891961 85.9946196,11.0865252 86.6493509,11.2173427 C87.2216909,11.3481603 94.3541427,16.4532442 96.1375556,17.7298152 C96.3827299,17.9098393 96.5135162,18.2042787 96.448323,18.5151204" id="Fill-25" fill="#5B2D0F"></path>
                        <path d="M84.798785,87.9644641 C81.8854906,91.494137 66.8914634,96.600421 62.0635698,96.9336657 C59.3706523,89.927127 48.6809736,61.1032657 63.0518662,57.6732062 C76.0325046,54.5751911 81.0739757,74.6266773 84.798785,87.9644641" id="Fill-27" fill="#E8364B"></path>
                        <g id="Group-31" transform="translate(55.707247, -0.000000)">
                            <mask id="mask-2" fill="white">
                                <use xlink:href="#path-1"></use>
                            </mask>
                            <g id="Clip-30"></g>
                            <path d="M42.5914823,22.8885463 C36.6521053,26.297803 22.993138,22.4096821 20.477002,23.8950811 C17.9576662,25.365278 17.0289636,31.5649086 15.8758846,31.7597347 C14.6460136,31.9681626 14.9311837,30.1003124 15.0691692,27.8312084 C15.2255528,25.5745061 13.7041124,21.251927 10.1004904,23.0765714 C5.95972476,25.1728523 8.81222554,29.1741883 7.5427587,33.1695235 C6.57725998,36.2059303 5.81174028,37.6001171 5.26259788,38.2161996 C4.89623631,38.6278548 4.22030721,38.5374426 3.94593599,38.0597787 C0.987046366,32.9058882 -1.29951379,24.1563161 0.837462057,17.3386028 C2.13252621,8.99508502 6.67724949,2.24698102 15.8538869,2.33579291 C16.0314683,2.33779318 16.1810526,2.23137893 16.3470352,2.16977067 C41.8415609,-7.24549064 44.500882,16.6521108 42.5914823,22.8885463" id="Fill-29" fill="#FF9A00" mask="url(#mask-2)"></path>
                        </g>
                        <path d="M82.1289451,324.928249 C82.1289451,324.928249 80.7654881,327.271763 80.137554,329.7877 C79.6408061,331.777566 79.6552046,333.978661 79.9123776,335.700892 C80.1103568,337.02867 81.2594363,338 82.6016955,338 L98.3856398,338 L112.277783,338 C114.469553,338 115.902202,335.584876 114.738724,333.727028 C114.179983,332.834908 113.141692,332.015598 111.303885,331.520732 C105.428501,329.93852 99.8622849,328.152281 98.1600635,327.263762 C95.7311183,325.996392 92.9006152,324.518594 92.9006152,324.518594 C92.9006152,324.518594 90.2544927,326.190018 82.1289451,324.928249" id="Fill-32" fill="#E9364B"></path>
                        <g id="Group-36" transform="translate(0.000000, 317.779531)">
                            <mask id="mask-4" fill="white">
                                <use xlink:href="#path-3"></use>
                            </mask>
                            <g id="Clip-35"></g>
                            <path d="M29.8260314,17.6395631 C29.3676795,18.8501252 28.0922133,19.5702217 26.7995489,19.5702217 L17.0329733,19.5702217 C14.1212787,19.5702217 11.7815242,17.4923434 11.7815242,17.4923434 C10.505658,16.2485767 8.80423648,14.7271729 6.49767843,13.7942479 C3.92914785,12.7473077 2.17893144,11.0126753 1.03385155,9.88332401 C-0.111228333,8.73797058 0.00315966857,7.96866752 0.00315966857,7.96866752 C2.11333832,1.8654499 6.23610586,2.2740414e-14 6.23610586,2.2740414e-14 C12.4362555,5.33431461 14.9227947,4.23816776 14.9227947,4.23816776 C14.9227947,4.23816776 16.2966506,6.69289661 19.6994936,9.13042315 C21.4173134,10.390992 24.7329656,12.6788985 26.6139683,13.7754454 C30.0496079,15.7553107 30.2839834,16.3305877 29.8260314,17.6395631" id="Fill-34" fill="#E9364B" mask="url(#mask-4)"></path>
                        </g>
                        <path d="M129.93741,162.840135 C130.342968,162.73052 130.88931,162.644109 131.669629,162.622906 C133.261062,162.5793 133.765409,161.063497 133.305457,160.781859 C132.845505,160.500621 129.547851,160.398608 128.525158,160.091767 C128.148398,159.978551 127.694445,159.794127 127.27089,159.606502 C127.202497,159.542893 127.134504,159.494487 127.067311,159.466883 C125.480678,158.812395 122.830156,157.437811 121.243522,156.619701 C119.656489,155.78519 117.840679,153.052424 117.840679,153.052424 L112.622426,153.838129 L110.741024,156.946945 C110.741024,156.946945 114.68341,160.448614 116.826385,163.983088 C117.415524,164.948417 117.562708,166.273795 118.560604,167.828403 C118.560604,167.828403 118.560604,167.844805 118.577002,167.861207 C118.609798,167.926416 118.658593,167.975623 118.707788,168.040832 C118.936964,168.335671 119.624092,168.875343 121.521493,169.170183 C123.596875,169.482625 127.36528,169.317803 129.030705,169.22259 C129.27468,169.240592 129.545451,169.232191 129.864618,169.170183 C131.84841,168.784531 132.052788,167.173915 132.052788,167.173915 L130.978901,167.173915 C129.675838,167.173915 129.240283,165.180048 129.240283,165.180048 L129.239083,165.180848 C129.209887,165.04083 129.17469,164.909212 129.144293,164.770793 C129.139894,164.751591 129.145493,164.739189 129.139894,164.719187 C128.846725,163.671446 129.887815,162.87734 129.93741,162.840135" id="Fill-37" fill="#5B2D0F"></path>
                        <polygon id="Fill-39" fill="#77122A" points="171.519368 329.782019 165.384812 329.782019 161.601609 318.600921 175.302572 318.600921"></polygon>
                        <path d="M160.954077,329.850388 C160.954077,325.708233 164.311325,322.350584 168.45209,322.350584 C172.593256,322.350584 175.950104,325.708233 175.950104,329.850388 C175.950104,333.992543 172.593256,337.349793 168.45209,337.349793 C164.311325,337.349793 160.954077,333.992543 160.954077,329.850388" id="Fill-41" fill="#EA7F3B"></path>
                        <path d="M165.384652,329.850388 C165.384652,328.156161 166.758108,326.781977 168.45193,326.781977 C170.146153,326.781977 171.519208,328.156161 171.519208,329.850388 C171.519208,331.544615 170.146153,332.918399 168.45193,332.918399 C166.758108,332.918399 165.384652,331.544615 165.384652,329.850388" id="Fill-43" fill="#77122A"></path>
                        <polygon id="Fill-45" fill="#77122A" points="272.216806 329.782019 266.082249 329.782019 262.299046 318.600921 276.000009 318.600921"></polygon>
                        <path d="M261.651714,329.850388 C261.651714,325.708233 265.008562,322.350584 269.149728,322.350584 C273.290493,322.350584 276.647341,325.708233 276.647341,329.850388 C276.647341,333.992543 273.290493,337.349793 269.149728,337.349793 C265.008562,337.349793 261.651714,333.992543 261.651714,329.850388" id="Fill-47" fill="#EA7F3B"></path>
                        <path d="M266.082089,329.850388 C266.082089,328.156161 267.455545,326.781977 269.149368,326.781977 C270.84359,326.781977 272.216646,328.156161 272.216646,329.850388 C272.216646,331.544615 270.84359,332.918399 269.149368,332.918399 C267.455545,332.918399 266.082089,331.544615 266.082089,329.850388" id="Fill-49" fill="#77122A"></path>
                        <path d="M70.4215731,25.0882809 C69.9380238,24.0517421 68.4789769,21.3897855 65.6492737,22.1054813 C62.8199705,22.8215773 60.7545871,28.7423705 64.1830275,33.9686706 C66.2960059,37.1903022 70.4827667,32.7809115 70.7263412,30.0645476 C70.9859139,27.1673595 70.8523279,26.0108045 70.4215731,25.0882809" id="Fill-51" fill="#5B2D0F"></path>
                        <path d="M209.63549,301.472747 C210.544595,301.285922 211.772866,297.821458 211.772866,297.821458 C211.772866,297.821458 212.545185,297.673838 213.689065,297.271384 C214.832945,296.86893 215.73845,293.571288 216.353186,292.357526 C216.967921,291.143763 218.045008,292.31632 223.782806,289.85399 C229.520604,287.39206 227.308036,277.358316 227.308036,277.358316 C227.308036,277.358316 223.863598,267.677819 217.693845,268.634347 C211.524492,269.590476 211.232523,271.155885 210.068245,270.453391 C208.68559,269.619279 207.434921,268.20869 205.789894,267.826639 C205.400335,267.735827 205.004376,267.706623 204.608018,267.769032 C204.229257,267.82864 203.637319,268.2819 203.303754,268.239895 C202.900197,268.188688 202.247465,267.423385 201.901502,267.188154 C201.399554,266.846908 200.86601,266.527665 200.274072,266.372444 C199.333771,266.125211 198.203489,266.542067 197.256789,266.71569 C195.939727,266.957323 194.625865,267.219758 193.325201,267.540601 C192.113728,267.839841 190.95385,268.142682 190.366312,269.302037 C189.931157,270.161352 189.553597,271.056272 189.160438,271.93559 C189.160438,271.93559 187.008264,271.664353 186.149554,273.318575 C185.291244,274.972797 185.51842,277.056276 183.729808,277.791974 C181.940795,278.528073 177.441267,277.819178 175.323489,281.538876 C173.206112,285.258575 172.262211,289.456337 173.518079,292.799985 C174.226405,296.301254 177.252087,299.359664 181.019692,301.389936 C184.787297,303.419807 188.226136,300.432207 190.133136,300.106964 C192.039736,299.78172 192.95164,301.668773 194.556272,302.6157 C196.159704,303.561827 197.838328,302.194043 197.841927,302.191243 C197.970314,302.086829 200.625235,304.060693 201.019194,304.152306 C201.451149,304.253119 201.903501,304.173909 202.336656,304.076695 C204.859591,303.51062 207.137752,301.986015 209.63549,301.472747" id="Fill-53" fill="#FFFFFF"></path>
                        <path d="M197.254949,293.628736 C200.426216,292.196144 203.940248,290.942376 207.323893,289.985448 C209.089708,289.486181 210.891519,289.095329 212.719327,288.913304 C214.446346,288.741281 216.21856,289.02932 217.917182,288.678473 C220.833276,288.076792 224.098933,286.997848 224.764063,283.754213 C225.150423,281.870761 224.722068,280.049317 224.260916,278.232273 C223.885755,276.752075 222.093943,270.914093 217.348841,271.757806 C215.096277,272.15866 213.054892,272.739137 211.089498,273.9541 C207.364289,276.256809 203.177128,277.30895 198.954371,278.310284 C195.43754,279.144395 191.882312,279.818486 188.303888,280.328154 C184.28311,280.901031 179.594001,281.232275 176.812293,284.610328 C176.120366,285.45044 175.624018,286.477378 175.542426,287.562723 C175.431638,289.045322 176.134364,290.324293 177.160257,291.338429 C176.36474,295.476983 180.496707,298.862637 184.433894,298.382973 C187.42518,298.018924 190.463661,296.511922 193.218172,295.368969 C194.57123,294.807294 195.919889,294.232017 197.254949,293.628736" id="Fill-55" fill="#E8364B"></path>
                        <path d="M208.607838,196.601298 C208.986198,196.301657 209.399355,196.028821 209.807312,195.759185 C210.103281,195.563159 210.382452,195.378734 210.648824,195.184708 C210.767212,195.097896 210.886799,195.005484 210.937594,194.90067 C211.017985,194.734247 210.953992,194.506617 210.8796,194.242982 C210.848403,194.133767 210.816406,194.020552 210.793609,193.904536 C210.629626,193.072025 210.997187,192.150701 211.776306,191.440606 C212.270654,190.989746 212.854993,190.671303 213.419333,190.363262 C213.582116,190.27485 213.745299,190.185638 213.905682,190.093626 C214.165655,189.944406 214.428827,189.781584 214.683201,189.624363 C215.408325,189.175503 216.158246,188.711441 217.004157,188.457007 C217.506505,188.305386 218.041648,188.231776 218.59919,188.233377 C218.594391,188.232176 218.589591,188.230976 218.584792,188.230176 C217.019756,187.872928 215.25874,188.097758 213.626912,188.863061 C211.949887,189.649566 210.707218,190.909735 210.216069,192.320724 C210.080084,192.711176 209.996092,193.116031 209.907302,193.544088 C209.796913,194.075359 209.683325,194.624233 209.461349,195.143902 C209.25777,195.621566 208.9734,196.050024 208.698229,196.464479 C208.667832,196.510485 208.637835,196.556092 208.607838,196.601298 M206.342476,200.216582 C206.387271,200.228584 206.431266,200.235384 206.473662,200.232984 C206.671241,200.221783 206.834824,200.008154 206.910016,199.804527 C206.744034,199.969349 206.550854,200.110968 206.342476,200.216582 M209.842109,208.334869 L209.839309,208.33767 C209.833709,208.445684 210.010491,208.597305 210.076884,208.654512 C210.21207,208.770528 210.348455,208.887744 210.486841,209.002159 C210.448445,208.798532 210.40485,208.609306 210.30966,208.460486 C210.256465,208.377275 210.126479,208.313667 209.993693,208.306866 C209.906102,208.302065 209.855707,208.323668 209.842109,208.334869 M220.236218,199.268855 C220.50379,199.213248 220.760163,199.178843 220.992139,199.15884 C221.382898,199.124836 221.782456,199.118035 222.169216,199.111634 C223.163911,199.095632 224.103413,199.08003 224.89573,198.63157 C225.698445,198.177109 226.275585,197.254185 226.400372,196.222447 C226.542757,195.04949 226.132,193.980947 225.762439,193.291254 C225.075711,192.009082 223.945029,190.888532 222.478383,190.032818 C222.680362,190.305654 222.857143,190.594493 223.005528,190.897333 C223.859438,192.642767 223.674258,194.785454 222.544376,196.228848 C222.279604,196.567293 221.971236,196.863333 221.672868,197.149771 C221.294907,197.51222 220.938145,197.855066 220.674572,198.267121 C220.478993,198.573562 220.340607,198.912407 220.236218,199.268855 M218.681981,200.626237 C218.606789,200.688645 218.534397,200.755054 218.465204,200.826664 C217.887265,201.421943 217.578497,202.493687 218.061646,203.256989 C218.176434,203.438213 218.330818,203.599835 218.494001,203.771458 C218.541196,203.821065 218.588791,203.871071 218.635986,203.921878 C218.902358,203.056162 219.114336,202.102034 219.275919,201.045493 L219.319914,200.751854 C219.348311,200.560628 219.376708,200.368602 219.408705,200.176577 C219.153132,200.292992 218.905958,200.440212 218.681981,200.626237 M215.191547,209.228989 C215.749089,208.808533 216.22024,208.331269 216.615398,207.848004 C216.547005,207.895611 216.478212,207.939216 216.41142,207.980822 C216.355425,208.016027 216.299031,208.051632 216.245037,208.088837 C215.865877,208.349271 215.574307,208.730122 215.26474,209.133777 C215.240342,209.165381 215.215945,209.197385 215.191547,209.228989 M215.864277,209.481823 C215.435522,209.837871 214.98037,210.144712 214.50282,210.397946 C213.758898,210.792799 213.098567,210.965222 212.483831,210.927217 C211.782705,210.882811 211.16397,210.539965 210.823606,210.026696 C210.411649,209.75506 210.039688,209.435017 209.675326,209.122175 C209.523342,208.991757 209.206175,208.719321 209.221774,208.326868 C209.233772,208.033629 209.426552,207.801598 209.724921,207.721187 C210.078884,207.625574 210.58843,207.751591 210.829205,208.128442 C211.004387,208.403279 211.058381,208.700919 211.110776,208.988957 C211.144772,209.174582 211.176369,209.349405 211.239162,209.501426 C211.250761,209.52983 211.263959,209.558233 211.277558,209.585037 C211.424343,209.676649 211.574327,209.75906 211.730311,209.82987 C212.370643,210.122709 213.028174,210.162714 213.534121,209.940285 C214.041668,209.716255 214.398431,209.251392 214.775591,208.758926 C215.101157,208.334469 215.437522,207.895611 215.895874,207.580768 C215.957067,207.539163 216.019861,207.498757 216.083454,207.459152 C216.261435,207.346737 216.429818,207.241523 216.507809,207.101104 C216.533407,207.055498 216.551005,207.003891 216.565003,206.946684 C216.479812,206.798264 216.459814,206.62064 216.513809,206.441416 C216.563804,206.275794 216.672992,206.118573 216.814977,205.992556 C216.865372,205.915745 216.926166,205.846136 216.995758,205.784528 C217.009757,205.765725 217.025755,205.747323 217.042953,205.730121 C217.118145,205.65371 217.213735,205.604104 217.318524,205.583301 C217.35572,205.567699 217.393716,205.553697 217.433312,205.541295 C217.510504,205.388875 217.64129,205.262858 217.787275,205.188848 C217.93046,205.115638 218.077245,205.094435 218.209231,205.121639 C218.278024,204.953216 218.344017,204.781193 218.40761,204.60557 C218.304021,204.465551 218.179234,204.334334 218.048048,204.196715 C217.871266,204.01109 217.688486,203.819465 217.540901,203.587033 C216.952563,202.658109 217.159741,201.286725 218.02285,200.397006 C218.465204,199.941345 219.007147,199.646506 219.54909,199.45768 C219.673877,198.925609 219.853858,198.40754 220.155427,197.935076 C220.458195,197.461013 220.858553,197.076561 221.246112,196.704911 C221.542081,196.420873 221.821252,196.152838 222.059227,195.849197 C223.046723,194.587428 223.204307,192.706376 222.451986,191.16857 C222.089224,190.42647 221.532882,189.776783 220.846954,189.266715 C219.533492,188.801453 218.265225,188.720642 217.181739,189.046686 C216.413819,189.277917 215.730691,189.701173 215.007567,190.148433 C214.748794,190.308855 214.481622,190.474477 214.21205,190.628497 C214.047667,190.72291 213.881285,190.813722 213.714502,190.904934 C213.157361,191.208575 212.631416,191.495414 212.191462,191.895867 C211.713912,192.331126 211.25476,193.056423 211.398345,193.78572 C211.416343,193.876933 211.443541,193.973346 211.472338,194.075759 C211.567128,194.411404 211.675116,194.792655 211.491936,195.169506 C211.379547,195.401937 211.184768,195.556358 211.011586,195.682775 C210.734015,195.885202 210.435646,196.082428 210.147277,196.273254 C209.059791,196.99255 207.934709,197.73585 207.692334,198.906806 C207.666737,199.028423 207.651538,199.15524 207.63514,199.289658 C207.608343,199.510887 207.580746,199.739718 207.505154,199.969349 C207.377567,200.356201 207.040003,200.817862 206.508858,200.848267 C206.216089,200.865069 205.960916,200.740252 205.770936,200.629037 C205.651348,200.559828 205.53656,200.483418 205.426172,200.401007 C205.271388,200.383404 205.117404,200.339398 204.96822,200.262988 C204.258694,199.90134 204.113909,199.135237 204.046317,198.391537 C204.044317,198.383936 204.042317,198.376335 204.040317,198.369134 C204.005921,198.241917 203.974724,198.107899 203.943127,197.971881 C203.809941,197.394604 203.683955,196.850131 203.270398,196.702111 C203.131213,196.652504 202.959231,196.653705 202.77765,196.654505 C202.728455,196.654905 202.67926,196.655305 202.630465,196.654505 C201.893342,196.644903 201.311403,196.330861 200.748662,196.026821 C200.381501,195.828794 200.029938,195.639569 199.656377,195.549157 C199.72637,195.700377 199.81596,195.877201 199.885953,196.016019 C200.19552,196.627301 200.382301,197.018153 200.366303,197.285389 C200.355904,197.455812 200.209519,197.585029 200.039937,197.574628 C199.870755,197.564227 199.741968,197.419407 199.750767,197.250185 C199.747567,197.106965 199.490394,196.598497 199.336411,196.294456 C198.974849,195.579961 198.834063,195.280321 198.986447,195.043489 C199.05524,194.935874 199.175627,194.875466 199.308014,194.879867 C199.969544,194.906671 200.514287,195.20031 201.041032,195.484348 C201.561377,195.765186 202.052526,196.030421 202.638064,196.038022 C202.68326,196.038822 202.728455,196.038422 202.77445,196.038022 C202.980428,196.036822 203.212404,196.035622 203.44238,196.109632 C202.857241,195.271519 201.850547,194.777053 200.57708,194.359797 C199.956746,194.15657 199.358808,193.990948 198.86806,194.199376 C198.450504,194.375399 198.905656,195.892003 199.05444,196.390069 C199.110434,196.578495 199.15523,196.727715 199.180027,196.83973 C199.217223,197.005752 199.112834,197.170174 198.946451,197.207779 C198.780469,197.244184 198.615686,197.14017 198.57849,196.973747 C198.558492,196.883335 198.514497,196.736516 198.463702,196.566093 C198.179732,195.615165 197.706982,194.022952 198.627285,193.6317 C199.371207,193.315657 200.212719,193.591694 200.76906,193.774119 C202.604068,194.3762 204.337486,195.248716 204.593059,197.545024 C204.610257,197.698245 204.622656,197.858266 204.634655,198.020688 C204.641454,198.107099 204.647853,198.193111 204.655053,198.277922 C204.829434,198.865201 205.178198,199.393272 205.643749,199.787324 C206.024109,199.75772 206.426867,199.482084 206.661642,199.147239 C206.894018,198.816394 207.039603,198.429142 207.193586,198.019488 C207.284777,197.776255 207.379567,197.525021 207.494755,197.281389 C207.690734,196.868933 207.941908,196.490483 208.184682,196.124034 C208.456654,195.713979 208.713027,195.327127 208.894608,194.90187 C209.092187,194.438608 209.194976,193.943342 209.303765,193.419271 C209.392556,192.990414 209.484546,192.546754 209.63373,192.117897 C210.187272,190.528084 211.512733,189.174303 213.365339,188.305386 C215.121155,187.481276 217.023755,187.241644 218.721977,187.628896 C219.609084,187.831723 220.432198,188.207773 221.137724,188.716641 C221.566079,188.873462 221.997634,189.067088 222.427588,189.297919 C224.167806,190.232444 225.508865,191.512216 226.305982,193.000015 C226.717138,193.768518 227.173891,194.963878 227.012308,196.296057 C226.864323,197.51862 226.170396,198.618768 225.199298,199.168442 C224.270195,199.693712 223.207107,199.711314 222.179214,199.728116 C221.803254,199.734117 221.414895,199.740918 221.046133,199.772922 C220.754164,199.798526 220.419399,199.847733 220.077035,199.939745 C220.019041,200.238585 219.974246,200.542226 219.92985,200.842666 L219.885055,201.139105 C219.691875,202.402075 219.427503,203.527025 219.085539,204.53436 C219.328713,205.032827 219.341912,205.676513 218.893559,206.048563 C218.891559,206.050563 218.88996,206.052164 218.88996,206.052164 C218.88876,206.054964 218.88956,206.056564 218.88996,206.057764 C218.929555,206.132174 218.936755,206.219786 218.910357,206.299397 C218.88396,206.379808 218.825566,206.445416 218.749174,206.481021 C218.580392,206.561032 218.386412,206.595436 218.198432,206.584635 C217.567698,207.74439 216.776181,208.724522 215.864277,209.481823" id="Fill-57" fill="#FFFFFF"></path>
                        <path d="M201.326202,197.616274 C203.976724,198.989658 202.926434,200.026196 202.926434,200.026196 L189.845006,223.508942 C189.845006,223.508942 186.890116,228.633629 183.128111,225.548816 C179.365705,222.464002 181.277905,219.540811 181.277905,219.540811 C181.277905,219.540811 193.232651,197.193817 194.458522,195.775227 C195.683994,194.357037 196.201939,195.061531 196.201939,195.061531 C196.201939,195.061531 197.090246,195.503591 198.127737,196.02006 L201.326202,197.616274 Z" id="Fill-59" fill="#FFFFFF"></path>
                        <path d="M182.290719,224.793714 L181.634787,224.003609 C181.61439,222.309382 181.933956,220.775976 182.734272,219.282576 C183.568985,217.725167 184.383699,216.169359 185.172016,214.664757 C187.866934,209.519268 190.784228,204.058537 194.208668,198.832236 C194.711016,198.064934 195.121773,197.235623 195.518931,196.433115 C195.732109,196.001857 195.952886,195.556198 196.187661,195.118939 L196.730404,195.410978 C196.500428,195.838635 196.282051,196.280295 196.071273,196.706752 C195.665716,197.525661 195.24696,198.372175 194.724214,199.169882 C191.314972,204.372979 188.405677,209.818508 185.717959,214.950796 C184.929242,216.456597 184.113727,218.014006 183.277415,219.573815 C182.529094,220.970002 182.270721,223.178298 182.290719,224.793714" id="Fill-61" fill="#E8364B"></path>
                        <path d="M184.039335,226.150536 L183.338609,225.713278 C183.316611,223.94104 184.138125,221.685138 184.912044,220.240944 C185.310002,219.498045 185.740357,218.78755 186.156313,218.100258 C186.603466,217.361359 187.065418,216.597256 187.482174,215.80235 C188.37688,214.094121 189.245989,212.319483 190.086701,210.603253 C191.90171,206.897957 193.778314,203.066644 196.062874,199.579777 C196.533625,198.86168 196.86639,198.150785 197.218753,197.398284 C197.43633,196.933822 197.661106,196.453358 197.923479,195.965292 L198.466222,196.256931 C198.212249,196.730195 197.990672,197.202658 197.777094,197.659519 C197.43073,198.398818 197.073168,199.162921 196.57842,199.917822 C194.314657,203.372285 192.446853,207.185996 190.640243,210.87409 C189.797531,212.59432 188.926423,214.372958 188.028117,216.088388 C187.602961,216.900497 187.13541,217.6726 186.683458,218.4195 C186.271901,219.099992 185.845546,219.803686 185.455587,220.531783 C184.731663,221.881964 184.018937,224.495914 184.039335,226.150536" id="Fill-63" fill="#E8364B"></path>
                        <path d="M185.471025,226.533427 L184.812294,226.441815 C184.794696,224.995621 185.910579,223.71745 186.714095,222.316863 C186.894876,222.00202 187.065658,221.704781 187.208043,221.438745 C187.635598,220.641038 188.09315,219.663707 188.535904,218.718781 C188.937461,217.859865 189.353418,216.972147 189.740977,216.232047 C190.629684,214.53542 191.463196,212.835992 192.269912,211.192572 C194.076522,207.510479 195.782743,204.032413 198.074503,200.534745 C198.48566,199.907461 198.705637,199.257773 198.938812,198.570081 C199.129992,198.004806 199.327971,197.420727 199.641539,196.837449 L200.184282,197.129088 C199.895112,197.66716 199.705532,198.226835 199.522351,198.768108 C199.287176,199.461801 199.044001,200.179497 198.590049,200.87239 C196.319087,204.338454 194.620865,207.799718 192.822654,211.464209 C192.014739,213.111229 191.179226,214.814257 190.28732,216.518086 C189.90576,217.245783 189.493003,218.127501 189.093845,218.980016 C188.647492,219.932543 188.18674,220.917875 187.751186,221.729584 C187.604401,222.003621 187.431619,222.304861 187.248839,222.623704 C186.482519,223.959083 185.455027,225.256456 185.471025,226.533427" id="Fill-65" fill="#E8364B"></path>
                        <path d="M187.798741,225.779406 L187.380785,225.999436 L186.65966,226.324679 L186.66046,226.323879 C187.213202,225.865418 188.111908,224.057176 188.834632,222.604181 C189.247389,221.77407 189.637348,220.989965 189.927318,220.523502 C190.346074,219.849812 190.776029,219.075708 191.191985,218.327208 C191.631539,217.536702 192.085891,216.718593 192.535044,216.003697 C194.188871,213.370944 195.323951,210.838205 196.525825,208.157046 C197.494924,205.995156 198.496819,203.759257 199.804282,201.438946 C200.251435,200.644839 200.725785,199.908741 201.184537,199.197445 C201.425311,198.823395 201.674485,198.436944 201.91686,198.046491 L202.440805,198.371335 C202.195631,198.766588 201.944857,199.15504 201.702482,199.53149 C201.24853,200.235184 200.779379,200.963282 200.341025,201.741786 C199.047561,204.037294 198.051665,206.259992 197.088166,208.409079 C195.877093,211.111041 194.733213,213.662583 193.056589,216.331741 C192.616635,217.032635 192.166283,217.843143 191.730728,218.626848 C191.311172,219.381749 190.877218,220.162254 190.450463,220.849146 C190.176091,221.290405 189.792532,222.062108 189.386174,222.879018 C188.560661,224.53924 188.451472,225.237734 187.798741,225.779406" id="Fill-67" fill="#E8364B"></path>
                        <path d="M192.898966,319.585733 L189.254148,292.183662 C188.788197,288.683993 186.430444,285.780804 183.099994,284.607447 L146.607422,271.761726 L147.422136,269.448216 L183.915108,282.293937 C188.120667,283.773336 191.098755,287.439827 191.687093,291.860819 L195.331911,319.26249 L192.898966,319.585733 Z" id="Fill-69" fill="#77122A"></path>
                    </g>
                </g>
                <g id="Group-52" transform="translate(307.000000, 12.000000)">
                    <path d="M108.857374,312.840616 C107.836666,315.460263 104.153364,316.381058 98.6197786,318.302613 C93.102656,320.207774 84.0769003,324.383937 79.8194002,325.685764 C75.5619,326.987991 74.3978434,323.907746 76.2794472,322.55794 C78.1610511,321.208534 81.2544945,318.064317 83.407136,315.492249 C85.5758391,312.919781 91.2688351,307.473378 91.364401,306.028813 C91.3804624,305.679367 91.3804624,305.329921 91.3483395,304.980874 C91.1889292,303.011741 90.2959102,301.249316 90.2959102,301.249316 L94.9842598,299.137845 L100.103057,298.454946 C100.103057,298.454946 100.900511,299.804752 102.144072,301.646341 C102.654426,302.439992 103.260345,303.313608 103.914048,304.21881 C106.36985,307.632507 109.383789,311.459224 108.857374,312.840616" id="Fill-1" fill="#FFA17E"></path>
                    <path d="M35.405077,323.782681 C33.5551946,325.878559 29.7759255,325.497527 23.9239207,325.418362 C18.0715144,325.338797 8.15273967,326.196019 3.7041078,325.958124 C-0.744925619,325.735822 -0.776647067,322.448868 1.45549885,321.829541 C3.6880463,321.19462 7.67450874,319.289458 10.5928819,317.606199 C13.4951936,315.92294 21.3725526,312.747137 21.7552176,311.350152 C22.1539442,309.96876 21.6913732,306.174029 21.6913732,306.174029 L27.0651471,306.174029 L31.8651241,306.427918 C31.8651241,306.427918 32.343355,308.698119 33.0291808,311.350152 C33.236374,312.207375 33.4756902,313.112576 33.731068,313.985792 C34.8630017,318.03481 36.3776004,322.655577 35.405077,323.782681" id="Fill-3" fill="#FFA17E"></path>
                    <path d="M101.126215,298.454746 C96.9960019,300.58221 91.8627489,301.759692 90.0128665,301.997587 C89.3591638,300.632188 88.6737396,299.187223 88.0035738,297.69508 L48.1939601,220.415484 L72.9266508,215.160196 C72.9266508,215.160196 72.6712731,216.223728 74.7283487,220.527035 C76.7854244,224.861927 81.0272646,228.338797 89.8454255,251.473418 C98.3608272,273.973118 98.223903,287.181306 101.126215,298.454746" id="Fill-5" fill="#FF9A00"></path>
                    <path d="M18.9110486,141.116176 C18.9110486,141.116176 28.3929506,192.099343 48.193157,220.411285 C58.718253,221.214932 66.0402859,217.803633 72.9314693,215.163994 C72.6620377,213.506324 71.6670283,202.579132 72.2914188,189.763971 C72.67569,181.872243 74.81749,171.851452 74.7271441,163.298016 C74.5781738,149.215412 73.3627203,137.976357 69.7023062,131.859849 L18.9110486,141.116176 Z" id="Fill-7" fill="#FF9A00"></path>
                    <path d="M56.8382955,171.328282 C65.19509,150.944851 62.8874551,156.889436 68.2162568,135.451269 L19.2270986,132.002386 C19.2270986,132.002386 11.5300298,160.756534 7.26409745,209.708595 C7.04887345,212.17471 7.14604548,214.663215 7.5347336,217.107739 L20.5112149,298.790598 C20.8300355,301.728105 21.2448236,304.538469 21.5797057,306.920221 C24.2744226,307.571135 28.0540933,307.920581 32.3754379,306.745498 C32.4071593,306.046605 32.4232208,305.411685 32.3910978,304.855929 C32.8536688,292.963162 38.2274426,280.244758 36.9999431,255.522436 C35.739919,230.815707 32.630414,225.278944 31.9927728,220.531033 C31.3707915,215.799515 31.694029,214.067877 31.694029,214.067877 C32.4553438,207.921381 54.4716346,177.112137 56.8382955,171.328282" id="Fill-9" fill="#FF9A00"></path>
                    <path d="M74.2500777,146.659057 C74.2500777,146.659057 28.5374639,156.119694 15.4943274,144.343276 C17.6409459,134.915824 20.4252056,129.004825 22.7067406,118.089628 C24.9882756,107.163635 23.4283032,98.9004712 23.4283032,98.9004712 L62.5227789,97.3047733 C62.5227789,99.798476 62.7034707,102.418923 63.0748927,105.187305 C63.658728,109.614957 65.1873805,115.881799 67.3733496,120.923181 C73.053898,134.022617 74.2500777,146.659057 74.2500777,146.659057" id="Fill-11" fill="#E8364B"></path>
                    <path d="M68.0517469,80.4612246 C68.0517469,80.4612246 62.5868241,100.041409 63.5946828,106.899192 C63.5946828,106.899192 49.1092243,112.256434 23.8633688,107.005145 C23.8633688,107.005145 23.2478121,84.4450716 20.0644243,78.9926707 C20.0644243,78.9926707 20.6795795,76.8792007 21.2104118,73.6774095 C23.6935186,74.5650189 25.4550627,73.6246327 25.5506286,69.3029343 C25.9007692,53.8965132 24.2030694,52.2800245 24.2030694,52.2800245 L38.6672465,49.3741031 L53.5771299,49.7647312 C53.5771299,49.7647312 61.6102854,51.9417733 69.8771356,55.2279274 C69.8771356,55.2279274 64.6133829,70.3700647 68.0517469,80.4612246" id="Fill-13" fill="#E8364B"></path>
                    <path d="M24.2029891,52.2799046 C24.2029891,52.2799046 15.452688,53.9551674 14.2360299,66.1857859 C13.3650955,74.939934 17.4655945,108.575534 17.4655945,108.575534 C17.4655945,108.575534 22.53942,105.342157 24.0218958,99.9309377 C25.50397,94.5197187 23.9395806,85.4189231 24.5981018,81.4834548 C25.2570245,77.5479864 25.9014919,70.7981564 25.9520856,66.5292347 C26.0018763,62.3466751 26.0849945,53.7608529 24.2029891,52.2799046" id="Fill-15" fill="#E8364B"></path>
                    <path d="M81.7434064,115.142085 C82.7749557,111.462104 83.2439513,103.773087 82.62197,97.7013588 C81.9574257,91.2178116 80.2990766,82.1042216 78.3692883,68.7896801 C76.4399015,55.4755384 67.7052604,54.4555872 67.7052604,54.4555872 C59.5319684,66.5402699 68.0517871,80.4613445 68.0517871,80.4613445 L68.8307695,110.701639 C68.8307695,110.701639 77.9773879,108.095985 81.7434064,115.142085" id="Fill-17" fill="#FFA17E"></path>
                    <path d="M63.4864283,84.2709083 C73.9512937,87.1156566 81.9571447,83.6095993 81.9571447,83.6095993 C81.9571447,83.6095993 81.0898241,78.9588456 80.1301499,73.2225696 C78.8938165,65.8306221 76.2962716,56.7874012 67.7053809,54.4556272 C67.7053809,54.4556272 63.9847361,57.0137016 62.9881205,62.4717001 C61.9915049,67.9296985 63.4864283,84.2709083 63.4864283,84.2709083" id="Fill-19" fill="#E8364B"></path>
                    <polygon id="Fill-21" fill="#EA7F3B" points="67.3304253 124.486013 10.037074 117.381939 16.6483858 64.5179997 73.9413356 71.621674"></polygon>
                    <polygon id="Fill-23" fill="#F49750" points="72.9150866 79.8291027 15.6217352 72.7250285 16.6484661 64.5178398 73.9414159 71.6219139"></polygon>
                    <polygon id="Fill-25" fill="#EA7F3B" points="74.4532154 77.4537879 15.3184139 70.1214142 16.331091 62.0217781 75.466294 69.3541518"></polygon>
                    <path d="M21.9304485,75.2416412 C19.777807,78.1155767 17.3059433,78.9727995 17.3059433,78.9727995 C17.3059433,78.9727995 16.2217926,82.1961812 14.7228538,83.212534 C14.4357546,83.4028502 14.2446228,83.8634476 14.149057,84.5303541 L16.1900711,68.1599572 C17.5295996,68.0488061 18.932571,68.0963852 20.0010617,68.4614246 C22.8873119,69.4777774 24.147336,72.2565547 21.9304485,75.2416412" id="Fill-27" fill="#EA7F3B"></path>
                    <path d="M23.0727017,74.6282711 C20.9200602,77.5022065 17.3062244,78.9727595 17.3062244,78.9727595 C17.3062244,78.9727595 16.2216721,82.1961412 14.7227333,83.212494 C14.4356341,83.4028102 14.2445024,83.8634076 14.1489365,84.5303141 C14.132875,84.6254723 14.1168135,84.7366234 14.1011536,84.8321813 C14.1011536,84.8797604 14.0850921,84.9273394 14.0850921,84.9749185 L10.6290604,112.648742 C7.77413014,111.859489 3.59211904,102.79028 4.08681301,96.6609765 C4.58110544,90.5320733 8.83860556,82.037411 9.22127061,76.13081 C9.60433721,70.2398021 9.41280391,69.5097233 11.7887002,68.9059889 C11.7887002,68.9059889 16.7191768,67.0116225 21.1433149,67.8480544 C24.1508294,68.4170041 25.2891877,71.6431846 23.0727017,74.6282711" id="Fill-29" fill="#FFA17E"></path>
                    <path d="M52.1126029,41.1310901 C52.1126029,41.1310901 51.3508866,47.492691 52.8578561,49.1599574 C55.0349914,50.2438804 57.1832161,50.8192273 57.1832161,50.8192273 C57.1832161,50.8192273 51.8632482,60.3210464 43.5727073,58.8145093 C36.9421217,57.6094395 36.4667015,49.8180678 36.4667015,49.8180678 C36.4667015,49.8180678 39.0746864,49.3966532 39.3955147,48.8968731 C39.7159415,48.3962934 39.3955147,44.8950339 39.3955147,44.8950339 L52.1126029,41.1310901 Z" id="Fill-31" fill="#FFA17E"></path>
                    <path d="M34.5380777,12.0348927 C32.282241,15.4677822 33.5952681,19.2057374 33.174457,23.2867418 C32.884547,26.0931069 28.6041593,43.0208586 37.6238919,44.9807962 C40.9229225,45.6976808 49.2307294,44.8224659 53.8227101,41.5866896 C58.4154939,38.3505136 61.4258191,32.9872735 61.7884073,27.3969332 C61.9193085,25.3806204 61.7237598,23.3515133 61.3238287,21.370385 C60.2950901,16.2778257 57.6959391,11.2528368 53.2501179,8.53683183 C48.8034937,5.82042707 42.3451676,6.09550603 38.9537835,10.0417696" id="Fill-33" fill="#FFA17E"></path>
                    <path d="M47.7335173,3.59564599 C47.4853672,3.09746519 46.8975166,3.08467082 46.3791319,3.17263212 C43.2708316,3.69800095 40.0990884,6.52955505 38.4812945,10.2239295 C37.9472499,11.4433929 37.5694033,12.8503738 37.8581086,13.9910719 C38.0359896,14.693163 38.4471639,15.2149334 38.8760057,15.6775299 C44.3092071,21.5357522 53.6541849,20.7169125 58.5380833,27.2852224 C59.8711871,23.6264323 60.1052834,19.6785694 59.5222512,16.2008996 C58.9396206,12.7224301 57.5780075,9.68616611 55.8746863,7.07771385 C54.4697072,4.92666033 52.5150236,2.92833961 50.0363338,3.49808891" id="Fill-35" fill="#E9364B"></path>
                    <path d="M55.3913558,20.9483707 C56.6630245,22.4305185 57.2416397,24.4788172 56.9320545,26.4039702 C56.6204615,28.3367197 55.4700571,30.2558753 56.0390355,32.1302505 C56.0828031,32.2741872 56.1422306,32.4233216 56.2626918,32.5136818 C56.7883041,32.9055094 57.3918147,31.781604 58.025039,31.9551276 C58.5771528,33.0158609 58.3310105,34.3164886 57.8752656,35.4212025 C57.4195208,36.5259164 56.7654165,37.5602613 56.4979926,38.724549 C56.4582404,38.8980727 56.4277236,39.0819917 56.4851434,39.2503177 C56.6044,39.6001637 57.0324388,39.7253087 57.4018531,39.7620925 C59.6665236,39.9871934 61.8408481,38.8045138 63.6064077,37.3743431 C68.0409857,33.7827234 70.8818622,28.3850984 71.6311308,22.7423813 C71.8519764,21.0779137 71.8961455,19.3578705 71.4171115,17.7481788 C70.9380774,16.138487 69.8768143,14.643145 68.3485633,13.9346567 C68.7870421,11.8171884 69.0741412,9.5062053 68.0843518,7.58225185 C67.4366721,6.32200637 66.3107615,5.37842155 65.164774,4.54118994 C59.5312055,0.426600393 49.667843,-2.38776127 43.7772906,2.86992531 C42.8284579,3.7167527 42.0374294,4.7846828 41.7720133,6.01893972 C41.215081,8.6109992 43.0372573,11.1242933 44.8867382,13.1094199 C47.4108017,15.8186278 50.1946599,18.2987365 53.1885221,20.5045659" id="Fill-37" fill="#E9364B"></path>
                    <path d="M44.2845928,4.4169646 C40.3643841,3.13113038 35.5250564,5.46610297 34.1188727,8.45278881 C31.1290259,14.8039942 32.4850174,20.8945144 33.174457,23.2866618 C33.7466476,18.4731798 34.3112091,17.0941865 35.8426724,14.3362001 C37.3741357,11.5790132 40.804469,9.90494985 43.4855336,8.23088645" id="Fill-39" fill="#E9364B"></path>
                    <path d="M53.0744855,37.070157 C54.1742962,35.183787 55.7776347,31.6505416 56.1060922,31.5265962 C56.7694319,31.2763063 57.4456207,31.0228178 58.153531,30.988433 C58.8618428,30.9532484 59.6195437,31.1719522 60.0664547,31.720111 C60.4884704,32.2386828 60.5663687,32.9551676 60.5242073,33.6216743 C60.3772446,35.9598455 58.8718812,38.1652751 56.7429304,39.1612369 C55.8860498,39.5626602 54.8653419,39.7709686 53.9992259,39.3907359 C53.13311,39.0105032 52.5809962,37.8738033 53.0744855,37.070157" id="Fill-41" fill="#FFA17E"></path>
                    <path d="M80.6499801,108.460425 C76.8257387,105.76721 71.5077786,108.571576 69.1073885,110.468341 C66.7074,112.365506 62.1395116,118.451628 61.3637415,118.88024 C57.6169968,120.951329 54.6062701,119.986553 51.5308958,119.51596 L51.5337065,119.513161 C51.5337065,119.513161 51.5144327,119.512762 51.5108189,119.512762 C50.5824646,119.371624 49.6452766,119.286861 48.6823901,119.33524 C47.9921474,119.268869 47.2264158,119.180508 46.4092874,119.054963 C43.8510932,118.42644 41.0612119,117.837899 39.9891073,118.476018 C37.6971323,119.840218 43.1572367,121.488692 43.1572367,121.488692 C34.8317621,119.517959 31.419498,119.898992 32.9357029,121.041289 C34.8538466,122.486253 39.1037175,123.188344 43.1536228,124.033173 C46.2836062,124.686085 56.7673439,125.793998 61.4420412,125.620874 C64.6302475,125.503326 68.0119947,125.400571 74.0117653,123.13037 C78.2969714,121.509083 81.5747205,117.767929 82.1625711,113.241521 C82.4344119,111.145643 82.0340792,109.435196 80.6499801,108.460425" id="Fill-43" fill="#FFA17E"></path>
                    <path d="M35.405077,323.782681 C33.5551946,325.878559 29.7759255,325.497527 23.9239207,325.418362 C18.0715144,325.338797 8.15273967,326.196019 3.7041078,325.958124 C-0.744925619,325.735822 -0.776647067,322.448868 1.45549885,321.829541 C3.6880463,321.19462 7.67450874,319.289458 10.5928819,317.606199 C13.4951936,315.92294 21.3725526,312.747137 21.7552176,311.350152 C21.7552176,311.350152 27.3683077,312.334519 33.0291808,311.350152 C33.236374,312.207375 34.3646939,313.78468 34.6835145,314.637105 C36.5771644,319.698079 36.3776004,322.655577 35.405077,323.782681" id="Fill-45" fill="#E9364B"></path>
                    <g id="Group-49" transform="translate(75.409012, 301.646341)">
                        <mask id="mask-6" fill="white">
                            <use xlink:href="#path-5"></use>
                        </mask>
                        <g id="Clip-48"></g>
                        <path d="M33.4483621,11.1942744 C32.4276543,13.8139218 28.7443525,14.7347166 23.2107668,16.6562711 C17.6936442,18.5614328 8.66788848,22.7375953 4.41038837,24.0394225 C0.15288825,25.3416495 -1.01116842,22.2614048 0.870435426,20.9115987 C2.75203927,19.5621925 5.84548272,16.417976 7.99812425,13.8459077 C10.1668273,11.2734396 15.8598233,5.82703606 15.9553892,4.38247168 C15.9714506,4.03302544 15.9714506,3.6835792 15.9393277,3.33453278 C15.9393277,3.33453278 22.7164744,4.09659747 26.7350598,0 C27.2454138,0.793650788 28.7728617,2.10347446 29.5373887,2.9179161 C33.1255261,6.73823513 33.9747776,9.81288226 33.4483621,11.1942744" id="Fill-47" fill="#E9364B" mask="url(#mask-6)"></path>
                    </g>
                    <path d="M64.160489,7.89023634 C64.160489,7.89023634 70.7252225,-0.631214161 77.7051456,1.96884179 C87.2063215,5.50848433 89.8235417,25.0558833 68.6689499,22.8752428" id="Fill-50" fill="#E9364B"></path>
                </g>
            </g>
        </g>
    </g>
</svg>