<?xml version="1.0" encoding="UTF-8"?>
<svg width="39px" height="50px" viewBox="0 0 39 50" version="1.1" xmlns="http://www.w3.org/2000/svg" xmlns:xlink="http://www.w3.org/1999/xlink">
    <title>Group 11</title>
    <defs>
        <polygon id="path-1" points="0 0 38 0 38 48 0 48"></polygon>
        <polygon id="path-3" points="0 0 38 0 38 49 0 49"></polygon>
    </defs>
    <g id="Page-1" stroke="none" stroke-width="1" fill="none" fill-rule="evenodd">
        <g id="HOME-RE" transform="translate(-1231.000000, -509.000000)">
            <g id="Group-11" transform="translate(1231.000000, 509.000000)">
                <g id="Group-3" transform="translate(1.000000, 2.000000)">
                    <mask id="mask-2" fill="white">
                        <use xlink:href="#path-1"></use>
                    </mask>
                    <g id="Clip-2"></g>
                    <path d="M19.0022888,0.00459537705 L18.9977112,0 C18.9977112,0 12.0197075,6.56449612 0,12.4226828 C0,12.4226828 2.7703279,34.7300216 7.33230539,39.749552 C12.8125376,45.7759294 16.7867589,44.8908598 18.9977112,48.0000919 C18.9977112,48.0000919 18.9977112,47.9954965 19.0022888,47.9954965 C21.2132411,44.8908598 25.1870046,45.771334 30.6631171,39.749552 C35.2246368,34.7300216 38,12.4226828 38,12.4226828 C26.1665984,6.65824181 19.2169754,0.205872892 19.0022888,0.00459537705" id="Fill-1" fill="#CE7602" mask="url(#mask-2)"></path>
                </g>
                <g id="Group-6">
                    <mask id="mask-4" fill="white">
                        <use xlink:href="#path-3"></use>
                    </mask>
                    <g id="Clip-5"></g>
                    <path d="M19.0022888,0.00482657235 L18.9977112,-0.000182134806 C18.9977112,-0.000182134806 12.0197075,6.70146804 0,12.6814091 C0,12.6814091 2.7703279,35.4537238 7.33230539,40.5776312 C12.8125376,46.7296896 16.7867589,45.826301 18.9977112,49 C18.9977112,49 18.9977112,48.9954466 19.0022888,48.9954466 C21.2132411,45.826301 25.1870046,46.7246809 30.6631171,40.5776312 C35.2246368,35.4537238 38,12.6814091 38,12.6814091 C26.1665984,6.79708882 19.2169754,0.210183566 19.0022888,0.00482657235" id="Fill-4" fill="#FF9A00" mask="url(#mask-4)"></path>
                </g>
                <path d="M27,25.5 C27,29.6418117 23.6421697,33 19.4997694,33 C15.3578303,33 12,29.6418117 12,25.5 C12,21.3577271 15.3578303,18 19.4997694,18 C23.6421697,18 27,21.3577271 27,25.5" id="Fill-7" fill="#FFFFFF"></path>
                <polygon id="Fill-9" fill="#FF9A00" points="18.1473272 30 15 26.4633968 16.1677532 25.2499348 17.902651 27.1997391 21.6431986 21 23 21.9556483"></polygon>
            </g>
        </g>
    </g>
</svg>