<?xml version="1.0" encoding="UTF-8"?>
<svg width="74px" height="22px" viewBox="0 0 74 22" version="1.1" xmlns="http://www.w3.org/2000/svg" xmlns:xlink="http://www.w3.org/1999/xlink">
    <title>Group 17 Copy 2</title>
    <g id="Page-1" stroke="none" stroke-width="1" fill="none" fill-rule="evenodd">
        <g id="HOME-RE" transform="translate(-776.000000, -3417.000000)" fill="#E9364B">
            <g id="Group-17-Copy-2" transform="translate(776.000000, 3417.000000)">
                <path d="M7,22 C10.8659932,22 14,18.8284694 14,14.9161882 C14,12.3080008 11.6666667,7.33593801 7,0 C2.33333333,7.33593801 0,12.3080008 0,14.9161882 C0,18.8284694 3.13400675,22 7,22 Z" id="Oval"></path>
                <path d="M27,22 C30.8659932,22 34,18.8284694 34,14.9161882 C34,12.3080008 31.6666667,7.33593801 27,0 C22.3333333,7.33593801 20,12.3080008 20,14.9161882 C20,18.8284694 23.1340068,22 27,22 Z" id="Oval-Copy-6"></path>
                <path d="M47,22 C50.8659932,22 54,18.8284694 54,14.9161882 C54,12.3080008 51.6666667,7.33593801 47,0 C42.3333333,7.33593801 40,12.3080008 40,14.9161882 C40,18.8284694 43.1340068,22 47,22 Z" id="Oval-Copy-7" opacity="0.2"></path>
                <path d="M67,22 C70.8659932,22 74,18.8284694 74,14.9161882 C74,12.3080008 71.6666667,7.33593801 67,0 C62.3333333,7.33593801 60,12.3080008 60,14.9161882 C60,18.8284694 63.1340068,22 67,22 Z" id="Oval-Copy-8" opacity="0.2"></path>
            </g>
        </g>
    </g>
</svg>