<?xml version="1.0" encoding="UTF-8"?>
<svg width="18px" height="18px" viewBox="0 0 18 18" version="1.1" xmlns="http://www.w3.org/2000/svg" xmlns:xlink="http://www.w3.org/1999/xlink">
    <title>Group 9</title>
    <g id="Page-1" stroke="none" stroke-width="1" fill="none" fill-rule="evenodd">
        <g id="Group-9">
            <circle id="Oval" fill="#E9364B" cx="9" cy="9" r="9"></circle>
            <path d="M9.09919326,13.7917738 L8.99994146,13.8354818 L8.90100189,13.7917738 C8.01175566,13.399303 7.26211766,12.8435041 6.67050976,12.1407135 C6.6714855,12.1108175 6.65993279,12.0786856 6.63105102,12.043849 C6.1609417,11.4769428 5.7935578,10.814831 5.5392031,10.0759055 C5.10812319,8.82366306 5.15008765,7.78960016 5.15207032,7.74618063 L5.15964202,7.58108542 L5.35396949,7.56258524 C6.39250323,7.46417003 7.28483278,7.1063195 7.85068126,6.82351553 C8.45622266,6.52069673 8.83488605,6.23147359 8.85135647,6.21885163 L9.00025369,6.10290993 L9.14973636,6.21957289 C9.18962442,6.25019015 9.55650093,6.52707984 10.1493578,6.82351553 C10.7147379,7.1063195 11.6069113,7.46417003 12.6460695,7.56258524 L12.8403189,7.58108542 L12.8479297,7.74618063 C12.8499126,7.78960016 12.8918768,8.82373518 12.4608359,10.0759055 C12.2064812,10.814831 11.8390973,11.4769789 11.368949,12.043849 C11.3396379,12.0791905 11.3274607,12.1120797 11.3274997,12.1429494 C10.7362431,12.8446581 9.98730763,13.3997358 9.09919326,13.7917738 M14,10.3142081 C14,9.17350766 13.8902493,8.1369925 13.6708649,7.22619204 C13.0345684,4.58405568 11.4760847,3 8.99998049,3 C6.5519384,3 5.00083133,4.5484257 4.35110863,7.13686464 C4.11708825,8.06901424 4,9.13603848 4,10.3142081 C4,10.8322132 4.03032586,11.3387143 4.08828454,11.829456 C4.09597334,11.8275087 4.10354504,11.8253088 4.11123384,11.8234336 C4.11107772,11.8285905 4.1099849,11.8336393 4.1099849,11.8388324 C4.1099849,12.4155116 6.09896299,12.5239162 6.57098475,12.2627498 C7.17363797,12.9691106 7.93291624,13.5293092 8.83172467,13.9258911 L8.99994146,14 L9.16843145,13.9258911 C10.063415,13.530932 10.8199222,12.9736185 11.4214435,12.2713688 C11.8700086,12.5469963 13.7721072,12.488791 13.8957524,11.95362 C13.9045731,11.915682 13.9105446,11.8774916 13.9105446,11.8388324 L13.9105446,11.8385799 C13.9692058,11.3449532 14,10.8353867 14,10.3142081" id="Fill-36" fill="#FFFFFF"></path>
        </g>
    </g>
</svg>