<?xml version="1.0" encoding="UTF-8"?>
<svg width="12px" height="12px" viewBox="0 0 12 12" version="1.1" xmlns="http://www.w3.org/2000/svg" xmlns:xlink="http://www.w3.org/1999/xlink">
    <title>Group 8</title>
    <defs>
        <filter color-interpolation-filters="auto" id="filter-1">
            <feColorMatrix in="SourceGraphic" type="matrix" values="0 0 0 0 0.882353 0 0 0 0 0.882353 0 0 0 0 0.882353 0 0 0 1.000000 0"></feColorMatrix>
        </filter>
        <polygon id="path-2" points="0 0 12 0 12 12 0 12"></polygon>
    </defs>
    <g id="Page-1" stroke="none" stroke-width="1" fill="none" fill-rule="evenodd">
        <g filter="url(#filter-1)" id="Group-8">
            <g>
                <g id="Group-3">
                    <mask id="mask-3" fill="white">
                        <use xlink:href="#path-2"></use>
                    </mask>
                    <g id="Clip-2"></g>
                    <path d="M10.8482619,7.86089159 C10.8482619,9.51137944 9.51029576,10.8484663 7.8610148,10.8484663 L4.13925653,10.8484663 C2.48907112,10.8484663 1.15146673,9.51137944 1.15146673,7.86089159 L1.15146673,4.13915364 C1.15146673,2.48975116 2.48907112,1.15148843 4.13925653,1.15148843 L7.8610148,1.15148843 C9.51029576,1.15148843 10.8482619,2.48975116 10.8482619,4.13915364 L10.8482619,7.86089159 Z M8.30284302,0 L3.69733788,0 C1.65515994,0 0,1.65537202 0,3.69776934 L0,8.30308992 C0,10.3447636 1.65515994,12.0000452 3.69733788,12.0000452 L8.30284302,12.0000452 C10.345021,12.0000452 12,10.3447636 12,8.30308992 L12,3.69776934 C12,1.65537202 10.345021,0 8.30284302,0 L8.30284302,0 Z" id="Fill-1" fill="#E9364B" mask="url(#mask-3)"></path>
                </g>
                <path d="M6.16097561,7.92254067 C5.10990383,7.92254067 4.25889837,7.07070515 4.25889837,6.02097028 C4.25889837,4.96996913 5.10990383,4.11912854 6.16097561,4.11912854 C7.2108716,4.11912854 8.06241973,4.96996913 8.06241973,6.02097028 C8.06241973,7.07070515 7.2108716,7.92254067 6.16097561,7.92254067 M6.16097561,2.8602788 C4.4148271,2.8602788 2.99980102,4.27496976 2.99980102,6.02097028 C2.99980102,7.76606632 4.4148271,9.1817522 6.16097561,9.1817522 C7.906491,9.1817522 9.32160753,7.76606632 9.32160753,6.02097028 C9.32160753,4.27496976 7.906491,2.8602788 6.16097561,2.8602788" id="Fill-4" fill="#E9364B"></path>
                <path d="M9.90670204,2.81093059 C9.90670204,3.25484743 9.54618469,3.61464799 9.10263801,3.61464799 C8.65881998,3.61464799 8.29929754,3.25484743 8.29929754,2.81093059 C8.29929754,2.36719465 8.65881998,2.00667051 9.10263801,2.00667051 C9.54618469,2.00667051 9.90670204,2.36719465 9.90670204,2.81093059" id="Fill-6" fill="#E9364B"></path>
            </g>
        </g>
    </g>
</svg>