<svg height="68" viewBox="0 0 57 68" width="57" xmlns="http://www.w3.org/2000/svg"><path d="m467.566789 982.72895-.567171.27105-.565433-.27105c-5.081436-2.436456-9.365405-5.886543-12.745824-10.249273.005465-.18552-.060618-.385005-.225577-.601196-2.686548-3.519159-4.785802-7.629042-6.23938-12.215943-2.463207-7.773169-2.223404-14.192336-2.212042-14.46164l.043227-1.025102 1.110245-.114953c5.934801-.610673 11.033877-2.831934 14.267473-4.587649 3.460415-1.879893 5.624013-3.675006 5.718417-3.753304l.850633-.71989.854359.724379c.228061.190009 2.324333 1.908569 5.712206 3.748815 3.230615 1.755715 8.328945 3.976976 14.267225 4.587649l1.110244.114953.043228 1.025102c.011381.269304.251413 6.68872-2.212042 14.46164-1.453578 4.586901-3.552832 8.697282-6.239629 12.215943-.167443.219433-.237004.423655-.236508.61541-3.378929 4.355747-7.658425 7.801346-12.733651 10.235059m27.433211-21.513818c0-7.051626-.625709-13.459102-1.875889-19.089576-3.62713-16.33319-12.510466-26.125556-26.624235-26.125556-13.953934 0-22.795143 9.571855-26.498598 25.573286-1.333937 5.762085-2.001278 12.358535-2.001278 19.641846 0 3.201875.172721 6.332979.503293 9.36674.043614-.01192.08698-.025578.130594-.037-.000744.031537-.006939.062825-.006939.094859 0 3.564924 11.337107 4.235147 14.027533 2.6208 3.435329 4.36651 7.763006 7.829373 12.886387 10.280817l.95876.458652.960495-.458652c5.101326-2.441263 9.41364-5.886495 12.84203-10.227676 2.556859 1.703992 13.39885 1.344172 14.103857-1.963986.050057-.234913.084254-.47082.084254-.709955l-.000248-.00149c.33429-3.051392.509984-6.201368.509984-9.423109" fill="#fff" fill-rule="evenodd" transform="translate(-438 -916)"/></svg>