<?xml version="1.0" encoding="UTF-8"?>
<svg width="178px" height="152px" viewBox="0 0 178 152" version="1.1" xmlns="http://www.w3.org/2000/svg" xmlns:xlink="http://www.w3.org/1999/xlink">
    <title>Group 108</title>
    <defs>
        <polygon id="path-1" points="0 0 4 0 4 6 0 6"></polygon>
        <polygon id="path-3" points="0 0 9 0 9 19 0 19"></polygon>
        <polygon id="path-5" points="0 0 25 0 25 4 0 4"></polygon>
    </defs>
    <g id="Page-1" stroke="none" stroke-width="1" fill="none" fill-rule="evenodd">
        <g id="HOME-RE" transform="translate(-1277.000000, -927.000000)">
            <g id="Group-108" transform="translate(1277.000000, 927.000000)">
                <path d="M144.625764,7.29330962 C144.625764,7.29330962 141.01003,4.2551375 135.248923,7.49195837 C129.487572,10.7287792 131.984701,17.4188779 127.079356,16.348131 C122.173523,15.2768825 117.594113,15.9719023 117.635768,20.2127522 C117.697399,26.4992828 114.579824,24.4741692 113.308482,30.2748632 C112.162351,35.5036896 114.336469,37.5195229 117.737105,35.584955 C122.581795,32.8284528 119.276161,38.7919284 126.574619,38.9958443 C133.873321,39.1995095 141.884792,31.8700729 142.729836,27.3623515 C143.57488,22.8541284 145.354611,20.2551406 146.714379,18.2902235 C148.073903,16.3253065 149.459004,10.2981228 144.625764,7.29330962" id="Fill-1" fill="#FFE4DD"></path>
                <path d="M132.934286,61.8928821 L125.779259,58.8066997 C125.123327,58.5236959 124.821505,57.7635657 125.108707,57.1169789 L135.802096,33.0450497 C136.864422,30.6533133 140.790345,27.1432357 143.217563,28.1900324 L143.920577,28.4933031 C146.353742,29.54303 146.402559,34.7735951 145.337507,37.1714359 L134.648826,61.2321329 C134.361872,61.8784755 133.58997,62.1758859 132.934286,61.8928821" id="Fill-3" fill="#E75724"></path>
                <polygon id="Fill-5" fill="#E9364B" points="129.055547 25.5585254 145 24 127.933426 59 119 57.4785294"></polygon>
                <path d="M117.93418,59.8929857 L110.779153,56.8067939 C110.123222,56.5237892 109.821647,55.7634125 110.108602,55.1170679 L120.801989,31.0450651 C121.864563,28.6533214 125.790238,25.1432331 128.217456,26.190033 L128.920469,26.4933046 C131.353634,27.5427905 131.402699,32.7736158 130.337399,35.1712198 L119.64872,59.2322344 C119.361766,59.878579 118.590111,60.1757462 117.93418,59.8929857" id="Fill-7" fill="#E9364B"></path>
                <path d="M139,93.8394284 C139,93.8394284 135.435727,94.7133893 132.11603,97.9441621 C130.335007,99.6775531 127.990149,101.509379 127.279916,100.869552 C126.937906,100.561592 126.469776,98.3568854 128.875715,96.4502959 C131.183478,94.6205793 130.215069,91.3682446 132.600483,90.7103716 C134.230656,90.2608524 134.368152,91.8554971 138.171065,90 L139,93.8394284 Z" id="Fill-9" fill="#FF9A00"></path>
                <path d="M164,80.334659 C163.984939,86.7255267 137.295656,95 137.295656,95 C137.295656,95 136.106347,91.3513479 138.105058,89.256551 C138.105058,89.256551 143.833035,83.8826239 146.524709,81.7598862 C149.729258,79.2349032 152.201621,78.5932741 152.201621,78.5932741 C152.131807,78.3511214 151.103835,78.0953759 149.56718,77.7814836 L149.56422,77.7819871 C144.802048,76.8113625 135.175078,75.2950135 134.18485,71.9594986 C134.094561,71.655675 134.039795,71.3256727 134.015372,70.9742744 C133.680609,66.2444937 138.924574,57.7678909 138.924574,57.7678909 L144.631829,55 C144.631829,55 146.23435,61.5776424 148.427456,62.962343 C150.620069,64.3455333 164.015282,73.9437914 164,80.334659" id="Fill-11" fill="#FF9CA8"></path>
                <path d="M147,24.7440146 C147,24.7440146 162.625097,18.4125838 164.865578,17.1190577 C167.105561,15.8255315 173.637994,5 173.637994,5 L176,6.05200153 C176,6.05200153 174.63808,15.6400306 168.269008,21.2067995 C165.782489,23.379774 151.281742,31 151.281742,31 L147,24.7440146 Z" id="Fill-13" fill="#FFBE9D"></path>
                <path d="M103,110.288118 C103,110.288118 100.855387,113.154679 100.139409,115.720352 C99.4234309,118.286543 98.2870107,121.242465 97.307937,120.984193 C96.8361528,120.859706 95.2517036,118.969155 96.4223518,115.915348 C97.5454895,112.985252 94.9561679,110.336415 96.7666751,108.497519 C98.0034804,107.241284 98.9677389,108.710077 101.429344,105 L103,110.288118 Z" id="Fill-15" fill="#FF9A00"></path>
                <path d="M124.431958,89.0031962 C120.829106,93.0326526 103.611154,111 103.611154,111 C103.611154,111 102.166989,109.854964 101.643799,108.779384 C100.616006,106.664192 101.127052,105.245051 101.127052,105.245051 C101.127052,105.245051 107.473991,88.5470172 114.646733,83.1502643 C119.617415,79.4107878 120.691059,59.4130845 131.366773,51.4323099 C142.04224,43.4515353 146,57.665763 146,57.665763 C146,57.665763 131.21683,81.4146015 124.431958,89.0031962 Z" id="Fill-17" fill="#FF9CA8"></path>
                <path d="M152.520136,42.6399794 C148.330187,54.4793433 147.489848,59.9455345 145.705721,61.3132213 C143.920845,62.6793894 125.211001,61.9969382 123.362406,59.3587682 C122.873395,58.6593569 122.913375,57.7999646 123.278946,56.8248896 L123.279946,56.8231177 C124.29345,54.1155887 127.810229,50.5213288 129.454674,47.0328793 C130.523151,44.7675767 131.273534,42.8151486 131.79253,41.1287651 C134.331538,32.8768264 131.326008,30.9836318 132.864256,29.7622568 C135.558187,27.6250403 148.612049,22.1239166 153.02439,23.1192423 C155.184832,23.6072861 152.996403,28.2497768 153.579868,31.8080916 C154.31076,36.2756662 153.836742,38.9199115 152.520136,42.6399794" id="Fill-19" fill="#FF9A00"></path>
                <path d="M133.420004,30 C133.420004,30 122.13407,39.7193217 119.952065,44.391877 C117.769812,49.0644323 115,59.715934 115,59.715934 C115,59.715934 115.212394,60.3572263 117.482484,59.7127102 C117.482484,59.7127102 123.853323,47.4059009 124.929438,46.1210845 C126.005553,44.8362682 136,37.8224756 136,37.8224756 L133.420004,30 Z" id="Fill-21" fill="#FFBE9D"></path>
                <path d="M157.77438,26.3976077 C157.371643,27.9899522 156.339336,29.9229665 154.24873,32 L147,23.637799 C147,23.637799 153.342179,22.0308612 156.836849,21 C156.836849,21 158.61477,23.0746411 157.77438,26.3976077" id="Fill-23" fill="#FF9A00"></path>
                <path d="M142,26 C142,26 136.235018,27.540605 132.047329,30.6798727 C130.311232,31.9809892 126,36.8695071 126,36.8695071 C126,36.8695071 127.813623,41.2326538 133.436806,41.9643374 C139.059739,42.6957619 136.729688,31.9338173 136.729688,31.9338173 L142,26 Z" id="Fill-25" fill="#FF9A00"></path>
                <g id="Group-29" transform="translate(174.000000, 0.000000)">
                    <mask id="mask-2" fill="white">
                        <use xlink:href="#path-1"></use>
                    </mask>
                    <g id="Clip-28"></g>
                    <path d="M0,5.01599211 C0,5.01599211 0.313063326,0.0551949337 1.47349855,0.00139473899 C2.63393378,-0.0528712583 3.70488529,1.48916809 3.97255833,2.39375664 C4.24049073,3.2985781 2.46015381,6 2.46015381,6 L0,5.01599211 Z" id="Fill-27" fill="#FFBE9D" mask="url(#mask-2)"></path>
                </g>
                <path d="M117.423402,60.3936247 C117.423402,60.3936247 118.248848,62.8926079 117.92447,63.9643981 C117.600091,65.0361884 116.40034,65.9761314 115.495369,65.9997895 C114.590398,66.0237134 115.876252,64.0026763 115.166805,63.0018603 C114.457358,62.0007784 113.159844,59.8564005 114.777252,59.153304 C116.394958,58.4502074 117.423402,60.3936247 117.423402,60.3936247" id="Fill-30" fill="#FFBE9D"></path>
                <path d="M116.21021,60 C116.21021,60 116.700786,61.3806381 116.95475,61.8368023 C117.208543,62.2932 116.322818,61.6917547 116.081612,61.2629183 C115.840577,60.8343156 116.21021,60 116.21021,60" id="Fill-32" fill="#FFBE9D"></path>
                <path d="M138.797808,35.2139347 C137.70562,40.3637503 133.386701,42.8368821 131.562385,43.6687793 C131.189805,43.8377224 130.921996,43.9387293 130.806491,43.9805164 L130.752316,44 L130,41.7842565 C130.016866,41.7798983 130.620457,41.5642972 131.457868,41.0925897 L131.459402,41.092077 C133.148025,40.1399456 135.791353,38.1464686 136.516582,34.7250509 C137.519074,29.9984903 133.319493,27.2341304 132.785666,26.9057297 C133.693863,26.5391309 134.611004,26.2391865 135.465537,26 C137.500675,27.8106903 139.681984,31.0488086 138.797808,35.2139347" id="Fill-34" fill="#FFFFFF"></path>
                <path d="M145.102622,25.545742 C145.102622,25.545742 151.34636,25.6623037 153.547151,33 C153.547151,33 154.849373,32.3632414 155,31.1850029 C155,31.1850029 152.579327,24.7228806 145.9819,24.2613358 C145.599519,24.2343608 144.021024,24 144.021024,24 L144,24.3548822 C144,24.3548822 144.128367,25.2393654 144.185254,25.3405835 C144.242141,25.4420491 145.102622,25.545742 145.102622,25.545742" id="Fill-36" fill="#FFFFFF"></path>
                <path d="M139.008772,26.0747726 C139.374751,24.6471583 139.592912,22.5665006 139.38622,20 L139.747612,20.0432691 L145.825775,20.7788444 C145.825775,20.7788444 145.841832,22.7638827 145.980476,24.6225857 C145.98175,24.6380771 145.983024,24.6535686 145.984044,24.6687929 C146.395643,30.3907351 138.704978,27.2598661 139.008772,26.0747726" id="Fill-38" fill="#FFBE9D"></path>
                <path d="M147.25701,21.2448711 C147.25701,21.2448711 140.334907,23.7961935 138.790632,19.5196022 C137.246595,15.243011 135.31323,12.6919224 139.667388,10.8825054 C144.021545,9.07285474 145.474116,10.4012253 146.34163,11.7050527 C147.209144,13.0088801 149.017867,20.4709428 147.25701,21.2448711" id="Fill-40" fill="#FFBE9D"></path>
                <path d="M142,9.45491278 C142,9.45491278 141.899024,15.5436602 139.227197,17.4351787 C136.55537,19.3261966 135,18.9740708 135,18.9740708 C135,18.9740708 136.619433,16.2499138 135.977376,12.7887203 C135.977376,12.7887203 139.690879,7.43650891 142,9.45491278" id="Fill-42" fill="#FFE4DD"></path>
                <path d="M142,10.3764884 C142,10.3764884 143.631054,10.4037643 144.596603,11.251266 C145.540668,12.079772 146.517321,13.2752853 146.995026,15 C146.995026,15 147.207447,10.9215197 144.855853,9.49976244 C142.362322,7.99203737 142,10.3764884 142,10.3764884" id="Fill-44" fill="#FFE4DD"></path>
                <path d="M68,126.848191 C68,126.848191 63.6954823,128.564057 60.1098278,133.299059 C58.1860957,135.839631 55.5744326,138.599524 54.5744581,137.885574 C54.0929064,137.541378 53.1218845,134.756413 55.7964017,131.888928 C58.3620377,129.137798 56.5815833,125.074392 59.449612,123.831003 C61.4092254,122.981955 61.859845,125.028872 66.2913082,122 L68,126.848191 Z" id="Fill-46" fill="#FFFFFF"></path>
                <path d="M88.9909382,104.565739 C89.5228544,111.779534 66.4607541,130 66.4607541,130 C66.4607541,130 63.6149405,128.766455 63.0624421,122.930302 C63.0624421,122.930302 69.8573303,110.608813 74.3965964,106.149553 C75.1216887,105.437797 74.9880277,104.230179 72.7071116,102.934309 L72.7056237,102.934808 C72.0489738,102.561354 71.2150185,102.18067 70.1722644,101.803227 C70.1722644,101.803227 60.2498577,98.2471873 54.0419371,95.0354332 C52.8652741,94.4261397 51.822272,93.8293114 51.0066672,93.2716235 C50.7118194,93.0719328 60.2944941,79.1210083 60.2944941,79.1210083 L66.82578,76 C66.82578,76 69.8307965,80.0187438 72.1022894,82.6598463 C74.0318184,84.9035618 88.4215771,96.8603218 88.9909382,104.565739" id="Fill-48" fill="#FF9A00"></path>
                <path d="M54.0675998,83.8740258 L45.8906201,80.2429904 C45.1408584,79.9104188 44.7960775,79.0159073 45.1241915,78.2553833 L57.3455062,49.9355783 C58.5597022,47.1220936 63.0463319,42.9919485 65.8200025,44.2235735 L66.6234962,44.5803688 C69.4043808,45.8152741 69.460103,51.9691095 68.242673,54.7896594 L56.0273286,83.0965956 C55.6992146,83.8571196 54.8173615,84.2068497 54.0675998,83.8740258" id="Fill-50" fill="#E75724"></path>
                <polygon id="Fill-52" fill="#FFE4DD" points="49.3188731 42.3932953 66 41 48.0557851 81 38 79.2432255"></polygon>
                <path d="M38.0676024,81.8741331 L29.8903754,78.2430954 C29.1408626,77.9102714 28.7960818,77.0157593 29.1241957,76.2552348 L41.3452595,47.9356645 C42.5597041,45.1219257 47.0460842,40.9917781 49.820003,42.2236562 L50.6234967,42.5801993 C53.4043807,43.8151054 53.4601029,49.9689446 52.2426732,52.7897486 L40.0273309,81.0967024 C39.6992169,81.8572269 38.817364,82.2067048 38.0676024,81.8741331" id="Fill-54" fill="#FFE4DD"></path>
                <path d="M70,41.7815678 C70,41.7815678 87.7805082,34.4760723 90.329826,32.9836304 C92.8788948,31.4909362 100.31204,19 100.31204,19 L103,20.2135869 C103,20.2135869 101.450546,31.2769371 94.2025886,37.6999386 C91.3730002,40.2076145 74.872378,49 74.872378,49 L70,41.7815678 Z" id="Fill-56" fill="#5B2D0F"></path>
                <g id="Group-60" transform="translate(11.000000, 133.000000)">
                    <mask id="mask-4" fill="white">
                        <use xlink:href="#path-3"></use>
                    </mask>
                    <g id="Clip-59"></g>
                    <path d="M9,6.27931484 C9,6.27931484 6.24268652,9.6831852 5.32227944,12.7306357 C4.40187236,15.7778429 2.94037117,19.2882743 1.68155232,18.9812423 C1.0750684,18.833322 -0.961915167,16.5884852 0.542831872,12.9617612 C1.98687841,9.48247096 -1.34200968,6.33721786 0.985711021,4.15344684 C2.5761682,2.66159258 3.8159693,4.40573857 6.9807316,0 L9,6.27931484 Z" id="Fill-58" fill="#FFFFFF" mask="url(#mask-4)"></path>
                </g>
                <path d="M68,78.9236518 C68,78.9236518 51.2455519,106.119902 43.5559442,114.810127 C39.4729295,119.424469 19.9593809,140 19.9593809,140 C19.9593809,140 18.3223755,138.688781 17.7297475,137.456909 C16.5647227,135.035084 17.1440277,133.409722 17.1440277,133.409722 C17.1440277,133.409722 25.6843355,112.785285 32.0174616,104.73782 C37.2043138,98.147542 39.316754,80.9245393 51.4155439,71.7854314 C63.5143338,62.6460741 68,78.9236518 68,78.9236518" id="Fill-61" fill="#FF9A00"></path>
                <path d="M76.2592493,65.6675402 C72.9832309,79.4808403 71.8624361,83.6820255 69.4434528,84.3338903 C50.469192,89.4480379 44.2334215,86.1535327 42.1670174,83.1718924 C41.6201147,82.3820655 42.4943248,80.024396 43.6578119,78.2286267 L43.659284,78.2268677 C44.7921014,75.1668226 48.7232253,71.1046047 50.5616919,67.1617529 C51.7558487,64.6017892 52.5947273,62.3954005 53.1749986,60.4893118 C56.0130532,51.1626705 52.6533678,49.0231269 54.3730812,47.6427518 C57.3843584,45.2270326 71.9770182,39.0099418 76.9092023,40.1347478 C79.3245053,40.6860936 76.8782872,45.9334288 77.5304485,49.9549366 C78.3477356,55.0042496 77.4639565,60.5878203 76.2592493,65.6675402" id="Fill-63" fill="#FFFFFF"></path>
                <path d="M53.0514343,48 C53.0514343,48 40.1535141,59.0152387 37.6595126,64.3107987 C35.1657603,69.6063587 32,81.6781914 32,81.6781914 C32,81.6781914 32.2433476,82.4047232 34.8372286,81.6744884 C34.8372286,81.6744884 42.1184773,67.7267077 43.3481672,66.2706817 C44.577608,64.8144089 56,56.8655144 56,56.8655144 L53.0514343,48 Z" id="Fill-65" fill="#5B2D0F"></path>
                <path d="M81.7742171,43.3790548 C81.3715763,45.2610324 80.3393767,47.5455813 78.2489189,50 L71,40.1175066 C71,40.1175066 77.3421699,38.2186413 80.8367973,37 C80.8367973,37 82.6150124,39.4519352 81.7742171,43.3790548" id="Fill-67" fill="#FFFFFF"></path>
                <path d="M64,42 C64,42 57.5145532,43.7334174 52.8032566,47.2647944 C50.8499368,48.7285178 46,54.2281739 46,54.2281739 C46,54.2281739 48.0405569,59.136962 54.3666044,59.9598742 C60.6924049,60.7827865 58.0710912,48.6755011 58.0710912,48.6755011 L64,42 Z" id="Fill-69" fill="#FFFFFF"></path>
                <path d="M101,18.852019 C101,18.852019 101.313255,13.0646198 102.473552,13.0016121 C103.634077,12.9386044 104.704841,14.7374261 104.972531,15.7930435 C105.24045,16.8481836 103.460249,20 103.460249,20 L101,18.852019 Z" id="Fill-71" fill="#5B2D0F"></path>
                <path d="M35.4234758,81.5925192 C35.4234758,81.5925192 36.2491439,84.4484584 35.9242865,85.6734997 C35.5999545,86.898541 34.4003197,87.9722867 33.4953414,87.9997707 C32.5906256,88.0264543 33.8761361,85.7172607 33.1665448,84.5733374 C32.4572161,83.429414 31.1598878,80.9785309 32.7773463,80.1750895 C34.3948048,79.371915 35.4234758,81.5925192 35.4234758,81.5925192" id="Fill-73" fill="#5B2D0F"></path>
                <path d="M35.4206633,81 C35.4206633,81 36.4015635,83.070874 36.9093482,83.755318 C37.4174317,84.439762 35.6457145,83.5374284 35.163334,82.8942234 C34.6809535,82.2513261 35.4206633,81 35.4206633,81" id="Fill-75" fill="#5B2D0F"></path>
                <path d="M59.7753512,53.7258056 C58.5617562,59.1617794 53.7629927,61.7723304 51.7360944,62.6503578 C51.321836,62.8283877 51.0242982,62.9353483 50.8958556,62.979321 L50.8355001,63 L50,60.6611289 C50.0184558,60.6563751 50.6891005,60.4289056 51.6198726,59.9307071 L51.6216184,59.9304694 C53.4976279,58.9252777 56.4345978,56.8212445 57.2406684,53.2095426 C58.3545022,48.220664 53.6881718,45.3027797 53.0950914,44.9559898 C54.104176,44.5695056 55.1234862,44.2526646 56.072714,44 C58.3340512,45.9112665 60.7577497,49.3292509 59.7753512,53.7258056" id="Fill-77" fill="#FFE4DD"></path>
                <path d="M68.2030574,41.8893049 C68.2030574,41.8893049 75.0142205,42.0314478 77.4151212,51 C77.4151212,51 78.8357528,50.2218009 79,48.7817738 C79,48.7817738 76.3592463,40.8834114 69.1619956,40.3193566 C68.7448599,40.286677 67.0229899,40 67.0229899,40 L67,40.4338679 C67,40.4338679 67.1398353,41.5146853 67.2019316,41.6384957 C67.264028,41.7623062 68.2030574,41.8893049 68.2030574,41.8893049" id="Fill-79" fill="#FFE4DD"></path>
                <path d="M61.0100097,43.0746822 C61.4283096,41.6473325 61.6774987,39.5668365 61.4416134,37 L61.8547964,37.0434023 L68.8008772,37.7791303 C68.8008772,37.7791303 68.8187861,39.7639065 68.978175,41.6229334 C68.9791983,41.6381828 68.9804775,41.6536669 68.9817567,41.669151 C69.4522482,47.3907495 60.6630895,44.2596828 61.0100097,43.0746822" id="Fill-81" fill="#5B2D0F"></path>
                <path d="M70.4465171,37.1936574 C70.4465171,37.1936574 62.8422919,41.4686959 60.2157795,36.8653138 C57.5895153,32.2619317 54.8393731,29.7138004 59.5832319,26.7893761 C64.3275872,23.8651952 66.2810869,25.1055503 67.5451891,26.4315814 C68.8097878,27.7576124 72.3568208,35.9627948 70.4465171,37.1936574" id="Fill-83" fill="#5B2D0F"></path>
                <path d="M54.6718524,28.058191 C54.5686777,28.0009566 54.3776584,27.9967078 54,28.1181746 C54,28.1181746 54.2265464,27.8145075 54.6183183,27.6523018 C54.5029768,27.0942042 54.4353292,26.0534883 55.2380967,25.4851434 C55.2380967,25.4851434 54.8572749,25.9287723 55.0001135,26.5146124 C55.630842,25.0382654 57.5412777,23.4049613 63.8067088,21.5564659 C72.0638501,19.120131 71.344547,25.4114135 70.5354528,26.4396328 C69.7266019,27.4681021 66.4843849,26.750298 64.6075296,27.6523018 C62.730431,28.5543056 63.4098268,31.5669831 62.8976032,32.2135566 C62.384893,32.8601301 62.3890297,32.0640974 61.350469,31.9936167 C60.3123951,31.9231359 60.7791147,33.4669645 61.3940263,34.3507232 C62.0086946,35.2347319 61.2616512,37 61.2616512,37 L59.5312845,36.1109927 C57.8009179,35.2214855 54.5319338,29.8924403 54.6431387,28.4453353 C54.6531155,28.3173702 54.6616322,28.1884054 54.6718524,28.058191" id="Fill-85" fill="#FF9A00"></path>
                <path d="M141.156019,39.9216823 L141.117841,39.9399787 L141.077556,39.9265911 C140.712357,39.8069948 140.397185,39.6244766 140.13994,39.3846147 C140.139414,39.3736814 140.133621,39.3623019 140.120982,39.3502531 C139.916397,39.1565785 139.748938,38.9256416 139.624133,38.6639132 C139.412176,38.220336 139.394798,37.843697 139.394271,37.8278549 L139.391901,37.7676105 L139.467996,37.7560079 C139.876112,37.6935322 140.217877,37.5404668 140.432468,37.423325 C140.66233,37.2977043 140.802669,37.1830168 140.808725,37.1778849 L140.864018,37.1319206 L140.926947,37.1705216 C140.943535,37.1805624 141.098093,37.2715984 141.3427,37.3639731 C141.575722,37.4523315 141.940657,37.5592095 142.35562,37.5681346 L142.43303,37.5699197 L142.441456,37.6297178 C142.443826,37.6453367 142.494379,38.0199676 142.364835,38.4854113 C142.288478,38.7605274 142.164726,39.0104301 141.997003,39.2284255 C141.986735,39.2420363 141.983048,39.2543083 141.984102,39.2654647 C141.773197,39.5356719 141.494625,39.7563449 141.156019,39.9216823 M142.982276,38.5324912 C142.944624,38.1183668 142.866951,37.7446284 142.750308,37.4195318 C142.411439,36.4765955 141.742391,35.9413129 140.761594,36.0051273 C139.792383,36.0680492 139.229181,36.6704932 139.056982,37.6272634 C138.995107,37.9717721 138.983785,38.362245 139.022227,38.7902033 C139.039605,38.9780766 139.068041,39.1612642 139.107273,39.3382042 C139.110169,39.3370885 139.113066,39.336196 139.116225,39.3353035 C139.116225,39.3370885 139.115962,39.3390967 139.116225,39.3408817 C139.135183,39.5503983 139.92614,39.5383494 140.104658,39.4314714 C140.366379,39.672449 140.6855,39.856306 141.054385,39.977241 L141.123633,40 L141.187879,39.968539 C141.529117,39.802086 141.810323,39.5802974 142.02544,39.3096439 C142.21212,39.3982254 142.963319,39.3281634 142.994652,39.1304726 C142.997021,39.1166387 142.998074,39.1025817 142.996758,39.0885246 C143.003867,38.9075683 142.999391,38.7217032 142.982276,38.5324912" id="Fill-87" fill="#E9364B"></path>
                <path d="M149.15608,37.9216817 L149.117901,37.9402014 L149.077353,37.9268136 C148.71242,37.8072164 148.39725,37.6246967 148.140006,37.3848329 C148.139479,37.3738995 148.133687,37.3625199 148.121048,37.350471 C147.916465,37.1567948 147.749006,36.9258561 147.624202,36.6639025 C147.412246,36.2203217 147.394868,35.8436796 147.394341,35.8278374 L147.391708,35.7678157 L147.468065,35.7559898 C147.87618,35.6937368 148.217679,35.5406702 148.432532,35.4233042 C148.662129,35.2976825 148.802468,35.1829941 148.808787,35.1778621 L148.86408,35.1321207 L148.927009,35.1704989 C148.943597,35.1807628 149.098154,35.2717995 149.342496,35.364175 C149.575779,35.452311 149.940713,35.5591899 150.355673,35.5681151 L150.433083,35.5699001 L150.441509,35.6299219 C150.443879,35.6455409 150.494432,36.0199517 150.364889,36.4856223 C150.288532,36.7607405 150.164781,37.0106452 149.997059,37.2286424 C149.98679,37.2420302 149.983104,37.2545254 149.984157,37.2656819 C149.772991,37.5356682 149.494683,37.7565661 149.15608,37.9216817 M150.982326,36.5324794 C150.944675,36.1183516 150.867001,35.7448334 150.750359,35.4197342 C150.411493,34.4765671 149.742185,33.9415034 148.761657,34.0050952 C147.79245,34.0682407 147.229252,34.6706895 147.057054,35.6272443 C146.994915,35.9719789 146.983857,36.362455 147.022299,36.7901936 C147.039676,36.9782915 147.068113,37.1614805 147.107344,37.3381989 C147.110241,37.3373063 147.113137,37.3364138 147.116297,37.3352982 C147.116297,37.3373063 147.116033,37.3393145 147.116297,37.3408764 C147.134991,37.5503947 147.926207,37.5385689 148.104724,37.43169 C148.366444,37.6726695 148.685563,37.8565279 149.054446,37.977464 L149.12343,38 L149.187676,37.9687619 C149.529175,37.8023075 149.810379,37.580294 150.025495,37.3098614 C150.212175,37.3982206 150.963369,37.3283812 150.994702,37.1306887 C150.997071,37.1168547 150.998124,37.1025744 150.996808,37.0887404 L150.996808,37.0885173 C151.003917,36.9077827 150.999178,36.7219161 150.982326,36.5324794" id="Fill-89" fill="#E9364B"></path>
                <path d="M64.1559286,56.9216823 L64.1180137,56.9402019 L64.0774659,56.9268142 C63.7122722,56.8072179 63.3973683,56.6246997 63.1401266,56.3848378 C63.1396,56.3739046 63.1338075,56.3623019 63.1211692,56.3504762 C62.9163237,56.1565785 62.7491298,55.9256416 62.6243267,55.6639132 C62.4123722,55.220336 62.3949946,54.843697 62.3942047,54.8278549 L62.391835,54.7678337 L62.4681913,54.7560079 C62.8763025,54.6935322 63.2177994,54.5404668 63.4323869,54.423325 C63.6622457,54.2977043 63.8025833,54.1830168 63.8089024,54.1778849 L63.8639316,54.1319206 L63.9268597,54.1705216 C63.9437108,54.1805624 64.0980031,54.2718215 64.3426065,54.3641962 C64.5758882,54.4523315 64.9405553,54.5592095 65.3555122,54.5681346 L65.433185,54.5699197 L65.4416105,54.6297178 C65.4437169,54.6453367 65.49427,55.0199676 65.3649909,55.4856344 C65.2883713,55.7605274 65.1646215,56.0104301 64.9971643,56.2286486 C64.9866324,56.2420363 64.9832095,56.2543083 64.9842627,56.2656878 C64.773098,56.5356719 64.4947925,56.756568 64.1559286,56.9216823 M65.9821604,55.5324912 C65.9445088,55.1183668 65.8670994,54.7446284 65.7501953,54.4195318 C65.4115946,53.4765955 64.7422922,52.9413129 63.7617722,53.0051273 C62.7923106,53.0680492 62.2291171,53.6704932 62.0569205,54.6272634 C61.9950456,54.9717721 61.9837238,55.3624681 62.0224285,55.7902033 C62.0395429,55.9780766 62.0682423,56.1614873 62.1074737,56.3382042 C62.1101066,56.3373117 62.1132662,56.336196 62.1161625,56.3353035 C62.1164258,56.3373117 62.1161625,56.3390967 62.1161625,56.3408817 C62.1351199,56.5503983 62.926329,56.5385726 63.1045815,56.4316946 C63.3665625,56.6726721 63.6856792,56.8565291 64.0542957,56.977241 L64.123543,57 L64.1877876,56.968539 C64.5292845,56.802086 64.810223,56.5802974 65.0256004,56.309867 C65.2122784,56.3982254 65.963203,56.3281634 65.9945354,56.1306957 C65.9969051,56.1166387 65.9979582,56.1025817 65.9969051,56.0887478 L65.9966418,56.0885246 C66.0040141,55.9077915 65.9992747,55.7219263 65.9821604,55.5324912" id="Fill-91" fill="#E9364B"></path>
                <path d="M74.1560796,54.9219011 L74.1179011,54.9401985 L74.077353,54.9268101 C73.7124196,54.8072072 73.3972498,54.6246788 73.140006,54.3848035 C73.1394794,54.3738696 73.1336868,54.3624895 73.1210484,54.35044 C72.9164645,54.1567546 72.7490059,53.9258049 72.6242018,53.6638387 C72.4122455,53.2202367 72.3948677,52.8437998 72.3943411,52.8277337 L72.3919715,52.7677091 L72.4680651,52.7561059 C72.8761796,52.6936267 73.2176794,52.5405528 73.432532,52.4234044 C73.6621293,52.2975535 73.8027314,52.1830828 73.8087873,52.1779506 L73.8640802,52.1319838 L73.9270088,52.1705869 C73.9435967,52.1806282 74.0981537,52.2716693 74.3424958,52.3640492 C74.5757794,52.4524126 74.9407128,52.5592965 75.3556732,52.5682221 L75.4330833,52.5700072 L75.4415089,52.6298087 C75.4438786,52.6454285 75.4944321,53.0200803 75.3648886,53.48555 C75.2885317,53.7606814 75.1647809,54.010598 74.9970589,54.2286056 C74.9867902,54.2422171 74.983104,54.2544898 74.9841572,54.2656468 C74.7729909,54.5358692 74.4946831,54.7565544 74.1560796,54.9219011 M75.9823265,53.5326325 C75.9446746,53.1184849 75.8670012,52.7447257 75.7503594,52.419611 C75.4114927,51.4766221 74.7421848,50.9413096 73.7616566,51.0051276 C72.7924503,51.068053 72.2292522,51.6705306 72.0570542,52.6273542 C71.9949155,52.9718821 71.9838569,53.3623768 72.0222986,53.790359 C72.0396764,53.9782427 72.0681128,54.1614405 72.1073445,54.3381673 C72.1102407,54.3372747 72.113137,54.3363821 72.1162966,54.3354896 C72.1162966,54.3372747 72.1160333,54.339283 72.1162966,54.3410681 C72.1352542,54.5505964 72.9262066,54.5385468 73.1047238,54.4316629 C73.3664437,54.6726539 73.685563,54.8565211 74.0544459,54.9774629 L74.1234304,55 L74.1876756,54.9687604 C74.5291753,54.8022981 74.8103794,54.5804971 75.0254953,54.3098285 C75.2121748,54.398415 75.9633689,54.3283491 75.9947016,54.1306472 C75.9970713,54.1168125 75.9981245,54.1027547 75.996808,54.0886969 C76.0039171,53.9077305 75.9991777,53.721855 75.9823265,53.5326325" id="Fill-93" fill="#E9364B"></path>
                <g id="Group-97" transform="translate(0.000000, 77.000000)">
                    <mask id="mask-6" fill="white">
                        <use xlink:href="#path-5"></use>
                    </mask>
                    <g id="Clip-96"></g>
                    <path d="M0.0370934058,3.0166638 L0.0370934058,3.0166638 C-0.16752511,2.39569551 0.49471314,1.82492676 1.51704974,1.74159553 L22.7409289,0.0102134505 C23.7630135,-0.0731177831 24.7578828,0.362614209 24.9627533,0.983331501 C25.1678758,1.60429979 24.5051336,2.17506854 23.482797,2.25839977 L2.25891785,3.98978185 C1.23683325,4.07311308 0.241963915,3.63763209 0.0370934058,3.0166638" id="Fill-95" fill="#FF9A00" mask="url(#mask-6)"></path>
                </g>
                <path d="M1.10724714,92.4087775 L1.10724714,92.4087775 C0.763062816,91.8468392 1.27467454,91.1312993 2.25024168,90.8106624 L22.503409,84.1543421 C23.478724,83.8334517 24.5485952,84.0291289 24.8927795,84.5910673 C25.2369638,85.1530056 24.7250999,85.8685454 23.749785,86.1891823 L3.49686975,92.8460096 C2.5213026,93.166393 1.45143147,92.9707158 1.10724714,92.4087775" id="Fill-98" fill="#FF9A00"></path>
                <path d="M13.4287188,106.924543 L13.4287188,106.924543 C12.8370138,106.668026 12.860692,105.833144 13.4818077,105.05999 L26.3751934,89.0106128 C26.9963092,88.2374584 27.979327,87.8188166 28.5712812,88.075574 C29.1629862,88.3323314 29.139308,89.1667328 28.5181923,89.9398871 L15.6248066,105.989264 C15.0036908,106.762418 14.020673,107.18106 13.4287188,106.924543" id="Fill-100" fill="#FF9A00"></path>
                <path d="M82.0671264,59.2974997 L82.0671264,59.2974997 C81.7961397,58.7532166 82.3700227,58.1588234 83.348913,57.9703911 L103.670215,54.0576491 C104.648859,53.8692167 105.662114,54.1578692 105.932855,54.7026142 C106.203842,55.2468973 105.630204,55.8410595 104.651314,56.0297228 L84.3300125,59.9424648 C83.3511222,60.1306662 82.3381131,59.8420137 82.0671264,59.2974997" id="Fill-102" fill="#FF9A00"></path>
                <path d="M85.1559184,70.5842726 L85.1559184,70.5842726 C84.7470659,70.0902474 85.1700428,69.3515136 86.1002391,68.934369 L105.418963,60.2759526 C106.349412,59.8590506 107.435229,59.9216223 107.844082,60.4156475 C108.252934,60.9096727 107.829957,61.6484065 106.899761,62.0655511 L87.5810369,70.7239675 C86.6505884,71.1408695 85.5647709,71.0785403 85.1559184,70.5842726" id="Fill-104" fill="#FF9A00"></path>
                <path d="M98.5328213,84.9617948 L98.5328213,84.9617948 C97.9014535,84.7712083 97.8193884,83.9209369 98.3498897,83.0630519 L109.363383,65.246895 C109.893884,64.3885188 110.835728,63.8474594 111.467095,64.0382915 C112.098717,64.2288781 112.180528,65.0789038 111.650027,65.9370344 L100.636534,83.7531913 C100.106032,84.6113219 99.164189,85.1523813 98.5328213,84.9617948" id="Fill-106" fill="#FF9A00"></path>
            </g>
        </g>
    </g>
</svg>