<svg height="152" viewBox="0 0 331 152" width="331" xmlns="http://www.w3.org/2000/svg" xmlns:xlink="http://www.w3.org/1999/xlink"><mask id="a" fill="#fff"><path d="m0 .15688151h134.296079v13.47766999h-134.296079z" fill="#fff" fill-rule="evenodd"/></mask><mask id="b" fill="#fff"><path d="m.01693308.4836964h109.39344892v109.8158316h-109.39344892z" fill="#fff" fill-rule="evenodd"/></mask><mask id="c" fill="#fff"><path d="m.12069853.4836964h109.39344947v109.8158316h-109.39344947z" fill="#fff" fill-rule="evenodd"/></mask><mask id="d" fill="#fff"><path d="m.16242759.4836964h109.39344941v109.8158316h-109.39344941z" fill="#fff" fill-rule="evenodd"/></mask><g fill="none" fill-rule="evenodd"><path d="m296.290274 145.182724c0 2.92969-28.714473 5.302326-64.137538 5.302326-35.421367 0-64.137538-2.372636-64.137538-5.302326 0-2.92797 28.716171-5.302325 64.137538-5.302325 35.423065 0 64.137538 2.374355 64.137538 5.302325" fill="#c5e2e0"/><path d="m134.296079 6.89504319c0 3.72172761-30.063686 6.73984501-67.1489747 6.73984501-37.0852891 0-67.14727431-3.0181174-67.14727431-6.73984501 0-3.72172758 30.06198521-6.73816168 67.14727431-6.73816168 37.0852887 0 67.1489747 3.0164341 67.1489747 6.73816168" fill="#c5e2e0" mask="url(#a)" transform="translate(0 138.365449)"/><g fill="#ff9ca8"><path d="m288.267592 55.5481728c-.740366 0-1.453374-.4074803-1.814153-1.1171175-.511245-1.0100676-.117979-2.2497744.882284-2.7677578l28.121934-14.5725986c1.000264-.5179833 2.227938-.1191361 2.740893.8909314.514666 1.0100676.11798 2.2480478-.882283 2.7660312l-28.121935 14.5725986c-.297514.155395-.613837.2279127-.92674.2279127"/><path d="m316.401954 40.3986711c-.393862 0-.79109-.1174828-1.139506-.3609616-.908912-.6367907-1.13614-1.9001562-.506634-2.8195867l6.55763-9.5808057c.629506-.921133 1.876735-1.149288 2.78733-.5124973.908912.6367907 1.13614 1.9001562.506634 2.8195867l-6.557631 9.5808057c-.388812.5686847-1.013268.8734589-1.647823.8734589"/><path d="m328.476536 45.448505c-.208833 0-.419363-.0319751-.626498-.099291l-11.047755-3.5677451c-1.061141-.3433113-1.641798-1.4725362-1.297139-2.5260308.346356-1.0501287 1.485598-1.62568 2.548437-1.2823687l11.047755 3.567745c1.061141.3416285 1.641798 1.4725363 1.295441 2.5243479-.276746.846498-1.06963 1.3833427-1.920241 1.3833427"/><path d="m318.463991 41.9136213c-.74409 0-1.462342-.41128-1.825775-1.1275344-.516729-1.0194863-.118848-2.2707532.888773-2.7935667l10.48787-5.444231c1.005898-.5228135 2.242602-.1219898 2.757608.8992392.518452 1.0194863.12057 2.2690105-.885328 2.7918239l-10.487869 5.4459737c-.299703.1551014-.620075.2282953-.935279.2282953"/></g><path d="m313.393617 36.358804-28.170213 14.644518" fill="#6b6b6b"/><path d="m285.098372 53.0232558c-.867457 0-1.70266-.4757432-2.127052-1.3044572-.600939-1.1782744-.137503-2.6242609 1.033819-3.2278921l27.921583-14.3916585c1.173019-.6053363 2.612556-.1398242 3.215192 1.0384503.602636 1.1782744.137503 2.6242609-1.033818 3.2295972l-27.919886 14.3916585c-.349699.1790432-.723164.2643018-1.089838.2643018" fill="#e9364b"/><path d="m319.933131 25.754153-6.539514 9.594684" fill="#6b6b6b"/><path d="m313.302603 37.8737542c-.475983 0-.958864-.1422706-1.379661-.4337516-1.100278-.7686078-1.37621-2.2884734-.612224-3.3971424l6.71722-9.7611455c.762263-1.108669 2.274715-1.38627 3.374994-.6176622 1.102003.7668727 1.376211 2.2867383.613949 3.3954073l-6.718945 9.7628805c-.469085.6835925-1.227898 1.0514139-1.995333 1.0514139" fill="#e9364b"/><path d="m325.466565 40.398671-11.066869-3.534884" fill="#6b6b6b"/><path d="m325.552492 42.923588c-.250402 0-.502531-.0382754-.75466-.1200458l-11.235282-3.6883653c-1.276187-.4192906-1.973859-1.8024276-1.557673-3.0863963.416185-1.2857085 1.787352-1.9868459 3.063539-1.5692951l11.237009 3.6883654c1.27446.4192905 1.972132 1.8006877 1.555947 3.0863962-.333294 1.0334382-1.284822 1.6893409-2.30888 1.6893409" fill="#e9364b"/><path d="m326.472644 31.813954-10.563829 5.554817" fill="#6b6b6b"/><path d="m315.780757 39.3887043c-.86794 0-1.701975-.4745054-2.124079-1.3010633-.600098-1.1752089-.139005-2.6174334 1.032374-3.2194941l10.322036-5.3148013c1.171379-.6037614 2.608904-.1377596 3.210698 1.0374492.600098 1.1752089.139005 2.6174334-1.034069 3.2194941l-10.320341 5.3148013c-.347515.1785773-.720458.2636141-1.086619.2636141" fill="#e9364b"/><path d="m54.714509 110.299528c-30.083156 0-54.69757592-24.7095361-54.69757592-54.9089411 0-30.1976959 24.61441992-54.90723234 54.69757592-54.90723234 30.0831559 0 54.695873 24.70953644 54.695873 54.90723234 0 30.199405-24.6127171 54.9089411-54.695873 54.9089411" fill="#ff9ca8" mask="url(#b)" transform="translate(19.115502)"/><path d="m54.8165718 110.299528c-30.0831559 0-54.69587327-24.7095361-54.69587327-54.9089411 0-30.1976959 24.61271737-54.90723234 54.69587327-54.90723234 30.083156 0 54.6975762 24.70953644 54.6975762 54.90723234 0 30.199405-24.6144202 54.9089411-54.6975762 54.9089411" fill="#ff9ca8" mask="url(#c)" transform="translate(179.585106)"/><path d="m54.8600035 110.299528h-.0017026c-30.083156 0-54.69587331-24.7095361-54.69587331-54.9089411 0-30.1976959 24.61271731-54.90723234 54.69587331-54.90723234h.0017026c30.0831559 0 54.6958735 24.70953644 54.6958735 54.90723234 0 30.199405-24.6127176 54.9089411-54.6958735 54.9089411" fill="#e9364b" mask="url(#d)" transform="translate(185.118541)"/><path d="m56.591945 107.056478v32.318937" fill="#6b6b6b"/><path d="m56.8443592 141.900332c-1.3894835 0-2.5160917-1.322448-2.5160917-2.95606v-40.0413681c0-1.6336121 1.1266082-2.95606 2.5160917-2.95606 1.3876952 0 2.5143034 1.3224479 2.5143034 2.95606v40.0413681c0 1.633612-1.1266082 2.95606-2.5143034 2.95606" fill="#e9364b"/><path d="m100.859422 107.056478v32.318937" fill="#6b6b6b"/><path d="m100.607009 141.900332c-1.3876956 0-2.5143038-1.322448-2.5143038-2.95606v-40.0413681c0-1.6336121 1.1266082-2.95606 2.5143038-2.95606 1.389483 0 2.516091 1.3224479 2.516091 2.95606v40.0413681c0 1.633612-1.126608 2.95606-2.516091 2.95606" fill="#e9364b"/><path d="m152.92837 77.2624585c-.365558 0-.736171-.1011351-1.071407-.3118332l-23.153176-14.6713302c-.934954-.5933259-1.212913-1.8322307-.619933-2.7677303.59298-.9354995 1.831163-1.2153066 2.767802-.6219808l23.153175 14.6713302c.93327.5916403 1.212914 1.8322307.619934 2.7677303-.382405.6034393-1.030977.933814-1.696395.933814" fill="#ff9ca8"/><path d="m218.570669 107.056478v32.318937" fill="#6b6b6b"/><path d="m218.320043 141.900332c-1.389483 0-2.516092-1.45555-2.516092-3.250728v-43.999193c0-1.7951782 1.126609-3.2484176 2.516092-3.2484176 1.387695 0 2.514304 1.4532394 2.514304 3.2484176v43.999193c0 1.795178-1.126609 3.250728-2.514304 3.250728" fill="#e9364b"/><path d="m262.335106 100.996678v38.378737" fill="#6b6b6b"/><path d="m262.585732 141.900332c-1.387695 0-2.514303-1.265841-2.514303-2.827727v-38.278101c0-1.5618849 1.126608-2.8277266 2.514303-2.8277266 1.389483 0 2.516092 1.2658417 2.516092 2.8277266v38.278101c0 1.561886-1.126609 2.827727-2.516092 2.827727" fill="#e9364b"/><path d="m131.796353 58.578073 23.139817 14.644518" fill="#6b6b6b"/><path d="m155.056317 75.7475083c-.438944 0-.881291-.1214038-1.277702-.374471l-23.383135-14.8830858c-1.117777-.7096141-1.449537-2.1972387-.743483-3.3189419.707755-1.1217031 2.187915-1.4551362 3.30399-.7438123l23.383136 14.8830859c1.116075.709614 1.447835 2.1955287.74008 3.3189418-.454256.7232933-1.230064 1.1182833-2.022886 1.1182833" fill="#e9364b"/><path d="m154.439577 76.2524917c-.777738 0-1.518199-.4584174-1.850305-1.2241633-.443937-1.0353022.020333-2.2405793 1.040373-2.692129l35.203234-15.6067941c1.020039-.4515497 2.209521.020603 2.655153 1.0541883.447326 1.0335853-.018639 2.2388624-1.038678 2.6921291l-35.201539 15.6050771c-.26433.1167505-.538825.1716919-.808238.1716919" fill="#ff9ca8"/><path d="m189.645897 55.548173-37.224924 16.159468" fill="#6b6b6b"/><path d="m152.791271 74.2325581c-.91893 0-1.793859-.543289-2.183093-1.4527823-.526311-1.2258388.025385-2.6511129 1.232009-3.1840863l36.989031-16.3708797c1.206624-.5329734 2.607865.0275083 3.132484 1.2516278.526311 1.2241196-.025385 2.6493936-1.230317 3.182367l-36.990723 16.3708798c-.309694.1375415-.632928.2028737-.949391.2028737" fill="#e9364b"/><path d="m79.5984807 110.299528c-30.083156 0-54.6958733-24.7095361-54.6958733-54.9089411 0-30.1976959 24.6127173-54.90723234 54.6958733-54.90723234 30.0831563 0 54.6975763 24.70953644 54.6975763 54.90723234 0 30.199405-24.61442 54.9089411-54.6975763 54.9089411" fill="#e9364b"/><path d="m80.3763976 94.4750609-.6454818.3086822-.6420934-.3086822c-5.77037-2.7747287-10.6343549-6.704031-14.4733621-11.6736434.0050826-.2114729-.0694613-.4382946-.2558208-.683876-3.0512145-4.0077519-5.4349228-8.6891473-7.0867463-13.9128682-2.7970878-8.8528682-2.5238728-16.164031-2.5107717-16.4710077l.0491312-1.1682171 1.2604683-.1296124c6.7394398-.695814 12.53014-3.2266667 16.2031178-5.2254264 3.9287986-2.1420155 6.3853566-4.1851162 6.493784-4.2755038l.9656814-.8203101.9690698.8254263c.2592092.2165892 2.6395292 2.1744187 6.4870073 4.2703876 3.6678952 1.9987597 9.4585953 4.5296124 16.2031177 5.2254264l1.260468.1296124.047437 1.1682171c.013101.3069767.286316 7.6181395-2.510771 16.4710077-1.651824 5.2237209-4.0355322 9.9051163-7.0867466 13.9128682-.189748.2489923-.2676801.4826357-.2676801.7009303-3.8356189 4.9610852-8.6979095 8.8852713-14.4598087 11.6565891m31.8014144-24.5871318c0-8.0632558-.709861-15.3914728-2.134665-21.8311628-4.128711-18.6795348-14.2429535-29.8773643-30.310537-29.8773643-15.8863064 0-25.9514175 10.9471318-30.1682264 29.2463566-1.5196776 6.5897674-2.2786693 14.1345736-2.2786693 22.4621705 0 3.6632558.1965246 7.2446512.5726321 10.7134884.0491312-.0136434.0982623-.0289923.1490877-.0426357 0 .035814-.0084709.0716279-.0084709.1091473 0 4.075969 12.9079416 4.8434109 15.9693212 2.9964341 3.9118568 4.9934884 8.8385262 8.9551938 14.673275 11.7589148l1.0893564.5235659 1.094439-.5235659c5.8076419-2.7934884 10.7173696-6.7330233 14.6207555-11.6975194 2.9105977 1.9493023 15.2526837 1.5382946 16.0557247-2.2460465.057602-.267752.096568-.5389148.096568-.811783v-.0017054c.379496-3.4910078.579409-7.0928682.579409-10.7782946" fill="#fff"/><path d="m267.377244 40.2711703c-2.53237-3.3265074-6.558975-5.2319825-12.329988-5.8541091-.469714-.059493-.944533-.0781908-1.432968-.0781908-5.126007 0-10.931058 2.5327011-14.162893 7.3108372-3.252258-4.7781361-9.055607-7.3108372-14.162894-7.3108372-.49354 0-.983676.0186978-1.438073.0781908-5.765907.6221266-9.792512 2.5276017-12.329988 5.8354113-2.493228 3.287412-3.306718 7.7986795-2.399625 13.4063176 1.358085 8.2389276 12.365727 18.5652088 21.196688 26.875528 2.551091 2.3984169 4.838393 4.5503629 6.334329 6.1600729 0 0 1.511254 1.677702 2.930606 1.677702 1.397229 0 2.874445-1.6963998 2.874445-1.6963998 1.477216-1.6063104 3.761114-3.7803538 6.317311-6.1991683 8.750973-8.2865219 19.642888-18.5992048 20.987359-26.8177348.925813-5.6076381.112323-10.1002078-2.384309-13.3876198" fill="#fff"/></g></svg>