<?xml version="1.0" encoding="UTF-8"?>
<svg width="331px" height="152px" viewBox="0 0 331 152" version="1.1" xmlns="http://www.w3.org/2000/svg" xmlns:xlink="http://www.w3.org/1999/xlink">
    <!-- Generator: Sketch 61.1 (89650) - https://sketch.com -->
    <title>Group 74</title>
    <desc>Created with Sketch.</desc>
    <defs>
        <polygon id="path-1" points="0 0.156881506 134.296079 0.156881506 134.296079 13.6345515 0 13.6345515"></polygon>
        <polygon id="path-3" points="0.0169330839 0.483696397 109.410382 0.483696397 109.410382 110.299528 0.0169330839 110.299528"></polygon>
        <polygon id="path-5" points="0.253671218 0.483696397 109.64712 0.483696397 109.64712 110.299528 0.253671218 110.299528"></polygon>
        <polygon id="path-7" points="0.120698527 0.483696397 109.514148 0.483696397 109.514148 110.299528 0.120698527 110.299528"></polygon>
        <polygon id="path-9" points="0.162427589 0.483696397 109.555877 0.483696397 109.555877 110.299528 0.162427589 110.299528"></polygon>
    </defs>
    <g id="Page-1" stroke="none" stroke-width="1" fill="none" fill-rule="evenodd">
        <g id="HOME-RE" transform="translate(-1170.000000, -3615.000000)">
            <g id="Group-74" transform="translate(1170.000000, 3615.000000)">
                <path d="M296.290274,145.182724 C296.290274,148.112414 267.575801,150.48505 232.152736,150.48505 C196.731369,150.48505 168.015198,148.112414 168.015198,145.182724 C168.015198,142.254754 196.731369,139.880399 232.152736,139.880399 C267.575801,139.880399 296.290274,142.254754 296.290274,145.182724" id="Fill-1" fill="#C5E2E0"></path>
                <g id="Group-5" transform="translate(0.000000, 138.365449)">
                    <mask id="mask-2" fill="white">
                        <use xlink:href="#path-1"></use>
                    </mask>
                    <g id="Clip-4"></g>
                    <path d="M134.296079,6.89504319 C134.296079,10.6167708 104.232393,13.6348882 67.1471043,13.6348882 C30.0618152,13.6348882 -0.00017001462,10.6167708 -0.00017001462,6.89504319 C-0.00017001462,3.17331561 30.0618152,0.156881506 67.1471043,0.156881506 C104.232393,0.156881506 134.296079,3.17331561 134.296079,6.89504319" id="Fill-3" fill="#C5E2E0" mask="url(#mask-2)"></path>
                </g>
                <path d="M288.267592,55.5481728 C287.527226,55.5481728 286.814218,55.1406925 286.453439,54.4310553 C285.942194,53.4209877 286.33546,52.1812809 287.335723,51.6632975 L315.457657,37.0906989 C316.457921,36.5727156 317.685595,36.9715628 318.19855,37.9816303 C318.713216,38.9916979 318.31653,40.2296781 317.316267,40.7476615 L289.194332,55.3202601 C288.896818,55.4756551 288.580495,55.5481728 288.267592,55.5481728" id="Fill-6" fill="#FF9CA8"></path>
                <path d="M316.401954,40.3986711 C316.008092,40.3986711 315.610864,40.2811883 315.262448,40.0377095 C314.353536,39.4009188 314.126308,38.1375533 314.755814,37.2181228 L321.313444,27.6373171 C321.94295,26.7161841 323.190179,26.4880291 324.100774,27.1248198 C325.009686,27.7616105 325.236914,29.024976 324.607408,29.9444065 L318.049777,39.5252122 C317.660965,40.0938969 317.036509,40.3986711 316.401954,40.3986711" id="Fill-8" fill="#FF9CA8"></path>
                <path d="M328.476536,45.448505 C328.267703,45.448505 328.057173,45.4165299 327.850038,45.349214 L316.802283,41.7814689 C315.741142,41.4381576 315.160485,40.3089327 315.505144,39.2554381 C315.8515,38.2053094 316.990742,37.6297581 318.053581,37.9730694 L329.101336,41.5408144 C330.162477,41.8824429 330.743134,43.0133507 330.396777,44.0651623 C330.120031,44.9116603 329.327147,45.448505 328.476536,45.448505" id="Fill-10" fill="#FF9CA8"></path>
                <path d="M318.463991,41.9136213 C317.719901,41.9136213 317.001649,41.5023413 316.638216,40.7860869 C316.121487,39.7666006 316.519368,38.5153337 317.526989,37.9925202 L328.014859,32.5482892 C329.020757,32.0254757 330.257461,32.4262994 330.772467,33.4475284 C331.290919,34.4670147 330.893037,35.7165389 329.887139,36.2393523 L319.39927,41.685326 C319.099567,41.8404274 318.779195,41.9136213 318.463991,41.9136213" id="Fill-12" fill="#FF9CA8"></path>
                <line x1="313.393617" y1="36.358804" x2="285.223404" y2="51.0033223" id="Fill-14" fill="#6B6B6B"></line>
                <path d="M285.098372,53.0232558 C284.230915,53.0232558 283.395712,52.5475126 282.97132,51.7187986 C282.370381,50.5405242 282.833817,49.0945377 284.005139,48.4909065 L311.926722,34.099248 C313.099741,33.4939117 314.539278,33.9594238 315.141914,35.1376983 C315.74455,36.3159727 315.279417,37.7619592 314.108096,38.3672955 L286.18821,52.758954 C285.838511,52.9379972 285.465046,53.0232558 285.098372,53.0232558" id="Fill-16" fill="#E9364B"></path>
                <line x1="319.933131" y1="25.7541528" x2="313.393617" y2="35.3488372" id="Fill-18" fill="#6B6B6B"></line>
                <path d="M313.302603,37.8737542 C312.82662,37.8737542 312.343739,37.7314836 311.922942,37.4400026 C310.822664,36.6713948 310.546732,35.1515292 311.310718,34.0428602 L318.027938,24.2817147 C318.790201,23.1730457 320.302653,22.8954447 321.402932,23.6640525 C322.504935,24.4309252 322.779143,25.9507908 322.016881,27.0594598 L315.297936,36.8223403 C314.828851,37.5059328 314.070038,37.8737542 313.302603,37.8737542" id="Fill-20" fill="#E9364B"></path>
                <line x1="325.466565" y1="40.3986711" x2="314.399696" y2="36.8637874" id="Fill-22" fill="#6B6B6B"></line>
                <path d="M325.552492,42.923588 C325.30209,42.923588 325.049961,42.8853126 324.797832,42.8035422 L313.56255,39.1151769 C312.286363,38.6958863 311.588691,37.3127493 312.004877,36.0287806 C312.421062,34.7430721 313.792229,34.0419347 315.068416,34.4594855 L326.305425,38.1478509 C327.579885,38.5671414 328.277557,39.9485386 327.861372,41.2342471 C327.528078,42.2676853 326.57655,42.923588 325.552492,42.923588" id="Fill-24" fill="#E9364B"></path>
                <line x1="326.472644" y1="31.8139535" x2="315.908815" y2="37.3687708" id="Fill-26" fill="#6B6B6B"></line>
                <path d="M315.780757,39.3887043 C314.912817,39.3887043 314.078782,38.9141989 313.656678,38.087641 C313.05658,36.9124321 313.517673,35.4702076 314.689052,34.8681469 L325.011088,29.5533456 C326.182467,28.9495842 327.619992,29.415586 328.221786,30.5907948 C328.821884,31.7660037 328.360791,33.2082282 327.187717,33.8102889 L316.867376,39.1250902 C316.519861,39.3036675 316.146918,39.3887043 315.780757,39.3887043" id="Fill-28" fill="#E9364B"></path>
                <g id="Group-32" transform="translate(19.115502, 0.000000)">
                    <mask id="mask-4" fill="white">
                        <use xlink:href="#path-3"></use>
                    </mask>
                    <g id="Clip-31"></g>
                    <path d="M54.714509,110.299528 L54.714509,110.299528 C24.631353,110.299528 0.0169330839,85.5899919 0.0169330839,55.3905869 C0.0169330839,25.192891 24.631353,0.483354562 54.714509,0.483354562 C84.7976649,0.483354562 109.410382,25.192891 109.410382,55.3905869 C109.410382,85.5899919 84.7976649,110.299528 54.714509,110.299528" id="Fill-30" fill="#FF9CA8" mask="url(#mask-4)"></path>
                </g>
                <g id="Group-35" transform="translate(24.648936, 0.000000)">
                    <mask id="mask-6" fill="white">
                        <use xlink:href="#path-5"></use>
                    </mask>
                    <g id="Clip-34"></g>
                </g>
                <g id="Group-38" transform="translate(179.585106, 0.000000)">
                    <mask id="mask-8" fill="white">
                        <use xlink:href="#path-7"></use>
                    </mask>
                    <g id="Clip-37"></g>
                    <path d="M54.8165718,110.299528 L54.8165718,110.299528 C24.7334159,110.299528 0.120698527,85.5899919 0.120698527,55.3905869 C0.120698527,25.192891 24.7334159,0.483354562 54.8165718,0.483354562 C84.8997278,0.483354562 109.514148,25.192891 109.514148,55.3905869 C109.514148,85.5899919 84.8997278,110.299528 54.8165718,110.299528" id="Fill-36" fill="#FF9CA8" mask="url(#mask-8)"></path>
                </g>
                <g id="Group-41" transform="translate(185.118541, 0.000000)">
                    <mask id="mask-10" fill="white">
                        <use xlink:href="#path-9"></use>
                    </mask>
                    <g id="Clip-40"></g>
                    <path d="M54.8600035,110.299528 L54.8583009,110.299528 C24.7751449,110.299528 0.162427589,85.5899919 0.162427589,55.3905869 C0.162427589,25.192891 24.7751449,0.483354562 54.8583009,0.483354562 L54.8600035,0.483354562 C84.9431594,0.483354562 109.555877,25.192891 109.555877,55.3905869 C109.555877,85.5899919 84.9431594,110.299528 54.8600035,110.299528" id="Fill-39" fill="#E9364B" mask="url(#mask-10)"></path>
                </g>
                <line x1="56.5919453" y1="107.056478" x2="56.5919453" y2="139.375415" id="Fill-44" fill="#6B6B6B"></line>
                <path d="M56.8443592,141.900332 C55.4548757,141.900332 54.3282675,140.577884 54.3282675,138.944272 L54.3282675,98.9029039 C54.3282675,97.2692918 55.4548757,95.9468439 56.8443592,95.9468439 C58.2320544,95.9468439 59.3586626,97.2692918 59.3586626,98.9029039 L59.3586626,138.944272 C59.3586626,140.577884 58.2320544,141.900332 56.8443592,141.900332" id="Fill-46" fill="#E9364B"></path>
                <line x1="100.859422" y1="107.056478" x2="100.859422" y2="139.375415" id="Fill-48" fill="#6B6B6B"></line>
                <path d="M100.607009,141.900332 C99.2193134,141.900332 98.0927052,140.577884 98.0927052,138.944272 L98.0927052,98.9029039 C98.0927052,97.2692918 99.2193134,95.9468439 100.607009,95.9468439 C101.996492,95.9468439 103.1231,97.2692918 103.1231,98.9029039 L103.1231,138.944272 C103.1231,140.577884 101.996492,141.900332 100.607009,141.900332" id="Fill-50" fill="#E9364B"></path>
                <path d="M152.92837,77.2624585 C152.562812,77.2624585 152.192199,77.1613234 151.856963,76.9506253 L128.703787,62.2792951 C127.768833,61.6859692 127.490874,60.4470644 128.083854,59.5115648 C128.676834,58.5760653 129.915017,58.2962582 130.851656,58.889584 L154.004831,73.5609142 C154.938101,74.1525545 155.217745,75.3931449 154.624765,76.3286445 C154.24236,76.9320838 153.593788,77.2624585 152.92837,77.2624585" id="Fill-52" fill="#FF9CA8"></path>
                <line x1="218.570669" y1="107.056478" x2="218.570669" y2="139.375415" id="Fill-54" fill="#6B6B6B"></line>
                <path d="M218.320043,141.900332 C216.93056,141.900332 215.803951,140.444782 215.803951,138.649604 L215.803951,94.650411 C215.803951,92.8552328 216.93056,91.4019934 218.320043,91.4019934 C219.707738,91.4019934 220.834347,92.8552328 220.834347,94.650411 L220.834347,138.649604 C220.834347,140.444782 219.707738,141.900332 218.320043,141.900332" id="Fill-56" fill="#E9364B"></path>
                <line x1="262.335106" y1="100.996678" x2="262.335106" y2="139.375415" id="Fill-58" fill="#6B6B6B"></line>
                <path d="M262.585732,141.900332 C261.198037,141.900332 260.071429,140.634491 260.071429,139.072605 L260.071429,100.794504 C260.071429,99.2326191 261.198037,97.9667774 262.585732,97.9667774 C263.975215,97.9667774 265.101824,99.2326191 265.101824,100.794504 L265.101824,139.072605 C265.101824,140.634491 263.975215,141.900332 262.585732,141.900332" id="Fill-60" fill="#E9364B"></path>
                <line x1="131.796353" y1="58.5780731" x2="154.93617" y2="73.2225914" id="Fill-62" fill="#6B6B6B"></line>
                <path d="M155.056317,75.7475083 C154.617373,75.7475083 154.175026,75.6261045 153.778615,75.3730373 L130.39548,60.4899515 C129.277703,59.7803374 128.945943,58.2927128 129.651997,57.1710096 C130.359752,56.0493065 131.839912,55.7158734 132.955987,56.4271973 L156.339123,71.3102832 C157.455198,72.0198972 157.786958,73.5058119 157.079203,74.629225 C156.624947,75.3525183 155.849139,75.7475083 155.056317,75.7475083" id="Fill-64" fill="#E9364B"></path>
                <path d="M154.439577,76.2524917 C153.661839,76.2524917 152.921378,75.7940743 152.589272,75.0283284 C152.145335,73.9930262 152.609605,72.7877491 153.629645,72.3361994 L188.832879,56.7294053 C189.852918,56.2778556 191.0424,56.7500083 191.488032,57.7835936 C191.935358,58.8171789 191.469393,60.022456 190.449354,60.4757227 L155.247815,76.0807998 C154.983485,76.1975503 154.70899,76.2524917 154.439577,76.2524917" id="Fill-66" fill="#FF9CA8"></path>
                <line x1="189.645897" y1="55.5481728" x2="152.420973" y2="71.7076412" id="Fill-68" fill="#6B6B6B"></line>
                <path d="M152.791271,74.2325581 C151.872341,74.2325581 150.997412,73.6892691 150.608178,72.7797758 C150.081867,71.553937 150.633563,70.1286629 151.840187,69.5956895 L188.829218,53.2248098 C190.035842,52.6918364 191.437083,53.2523181 191.961702,54.4764376 C192.488013,55.7005572 191.936317,57.1258312 190.731385,57.6588046 L153.740662,74.0296844 C153.430968,74.1672259 153.107734,74.2325581 152.791271,74.2325581" id="Fill-70" fill="#E9364B"></path>
                <path d="M79.5984807,110.299528 L79.5984807,110.299528 C49.5153247,110.299528 24.9026074,85.5899919 24.9026074,55.3905869 C24.9026074,25.192891 49.5153247,0.483354562 79.5984807,0.483354562 C109.681637,0.483354562 134.296057,25.192891 134.296057,55.3905869 C134.296057,85.5899919 109.681637,110.299528 79.5984807,110.299528" id="Fill-33" fill="#E9364B"></path>
                <path d="M80.3763976,94.4750609 L79.7309158,94.7837431 L79.0888224,94.4750609 C73.3184524,91.7003322 68.4544675,87.7710299 64.6154603,82.8014175 C64.6205429,82.5899446 64.545999,82.3631229 64.3596395,82.1175415 C61.308425,78.1097896 58.9247167,73.4283942 57.2728932,68.2046733 C54.4758054,59.3518051 54.7490204,52.0406423 54.7621215,51.7336656 L54.8112527,50.5654485 L56.071721,50.4358361 C62.8111608,49.7400221 68.601861,47.2091694 72.2748388,45.2104097 C76.2036374,43.0683942 78.6601954,41.0252935 78.7686228,40.9349059 L79.7343042,40.1145958 L80.703374,40.9400221 C80.9625832,41.1566113 83.3429032,43.1144408 87.1903813,45.2104097 C90.8582765,47.2091694 96.6489766,49.7400221 103.393499,50.4358361 L104.653967,50.5654485 L104.701404,51.7336656 C104.714505,52.0406423 104.98772,59.3518051 102.190633,68.2046733 C100.538809,73.4283942 98.1551008,78.1097896 95.1038864,82.1175415 C94.9141384,82.3665338 94.8362063,82.6001772 94.8362063,82.8184718 C91.0005874,87.779557 86.1382968,91.7037431 80.3763976,94.4750609 M112.177812,69.8879291 C112.177812,61.8246733 111.467951,54.4964563 110.043147,48.0567663 C105.914436,29.3772315 95.8001935,18.179402 79.73261,18.179402 C63.8463036,18.179402 53.7811925,29.1265338 49.5643836,47.4257586 C48.044706,54.015526 47.2857143,61.5603322 47.2857143,69.8879291 C47.2857143,73.5511849 47.4822389,77.1325803 47.8583464,80.6014175 C47.9074776,80.5877741 47.9566087,80.5724252 48.0074341,80.5587818 C48.0074341,80.5945958 47.9989632,80.6304097 47.9989632,80.6679291 C47.9989632,84.7438981 60.9069048,85.51134 63.9682844,83.6643632 C67.8801412,88.6578516 72.8068106,92.619557 78.6415594,95.423278 L79.7309158,95.9468439 L80.8253548,95.423278 C86.6329967,92.6297896 91.5427244,88.6902547 95.4461103,83.7257586 C98.356708,85.6750609 110.698794,85.2640532 111.501835,81.4797121 C111.559437,81.2119601 111.598403,80.9407973 111.598403,80.6679291 L111.598403,80.6662237 C111.977899,77.1752159 112.177812,73.5733555 112.177812,69.8879291" id="Fill-42" fill="#FFFFFF"></path>
                <path d="M267.377244,40.2711703 C264.844874,36.9446629 260.818269,35.0391878 255.047256,34.4170612 C254.577542,34.3575682 254.102723,34.3388704 253.614288,34.3388704 C248.488281,34.3388704 242.68323,36.8715715 239.451395,41.6497076 C236.199137,36.8715715 230.395788,34.3388704 225.288501,34.3388704 C224.794961,34.3388704 224.304825,34.3575682 223.850428,34.4170612 C218.084521,35.0391878 214.057916,36.9446629 211.52044,40.2524725 C209.027212,43.5398845 208.213722,48.051152 209.120815,53.6587901 C210.4789,61.8977177 221.486542,72.2239989 230.317503,80.5343181 C232.868594,82.932735 235.155896,85.084681 236.651832,86.694391 C236.651832,86.694391 238.163086,88.372093 239.582438,88.372093 C240.979667,88.372093 242.456883,86.6756932 242.456883,86.6756932 C243.934099,85.0693828 246.217997,82.8953394 248.774194,80.4765249 C257.525167,72.190003 268.417082,61.8773201 269.761553,53.6587901 C270.687366,48.051152 269.873876,43.5585823 267.377244,40.2711703" id="Fill-72" fill="#FFFFFF"></path>
            </g>
        </g>
    </g>
</svg>