<svg id="Calque_1" data-name="Calque 1" xmlns="http://www.w3.org/2000/svg" xmlns:xlink="http://www.w3.org/1999/xlink" viewBox="0 0 1955.3 401.12"><defs><style>.cls-1{fill:none;}.cls-2{clip-path:url(#clip-path);}.cls-3{fill:#ffd3cc;}.cls-4{fill:#fed9b7;}.cls-5{fill:#ffa300;}.cls-6{fill:#56403d;}.cls-7{fill:#ea2f2f;}.cls-8{fill:#fff;}.cls-9{fill:#ce867a;}.cls-10{fill:#ffe8db;}.cls-11{fill:#894e46;}.cls-12{fill:#fca592;}.cls-13{fill:#ef8978;}.cls-14{fill:#8e2a20;}</style><clipPath id="clip-path"><rect class="cls-1" x="-12.91" y="-9.58" width="2003" height="410.7"/></clipPath></defs><g class="cls-2"><polygon class="cls-3" points="184.51 287.81 119.73 295.4 118.14 251.79 118.03 248.79 117.82 243.05 170.82 236.84 174.27 236.44 177.16 250.98 184.51 287.81"/><path class="cls-4" d="M109.76,281.11s-75.47,31.45-77.57,37.74S21.71,343,21.71,343,58.4,432.06,49,462.45s-3.14,80.72-3.14,96.44-6.29,22,5.24,26.21,49.27,2.09,70.23,0,63.94.64,73.38,2.42,66-7.67,66-7.67S268,540,266,520.11s.75-67.09.37-74.43,3.59-10.48,0-28.3,14.26-115.3,14.26-115.3l-87-31.71Z"/><polygon class="cls-4" points="149.18 277.43 138.29 313.83 90.4 289.67 102.01 277.43 149.18 277.43"/><polygon class="cls-4" points="139.84 277.43 154.52 313.83 209.15 275.37 196.1 261.3 139.84 277.43"/><path class="cls-4" d="M59.06,303.36s32.25,12.49,29.29,139l117.47-27,14.4,59.51S91.31,530.65,57.85,529.72,2.74,376.29,9.63,359.55,18.41,319,57.78,304.1Z"/><path class="cls-4" d="M253.18,309.94,233.79,447.88,110.71,431.33,96.17,492s166.7,40.47,199.64,29.43,17.45-162.76,8.73-182.08S289.92,305,278.3,301.27s-25.12,8.67-25.12,8.67Z"/><path class="cls-3" d="M184.67,180.14c2.82,35.73-14.06,66.29-40.3,68.36s-49.79-25.21-52.62-60.94,16.16-66.37,42.39-68.45S181.84,144.41,184.67,180.14Z"/><path class="cls-5" d="M148.8,258.51c-25.12,3.73-49.73-22.22-55-57.9-.51-3.44-.8-6.84-1-10.19,5.87,34.67,30.11,59.62,54.76,56,22.64-3.35,37.9-29.68,36.81-61,.13.58.21,1.17.3,1.76C190,222.83,173.91,254.78,148.8,258.51Z"/><path class="cls-5" d="M111.51,101.17s-.3,26.55,6.31,30.39S132,128.42,138,127.37s18.15-2.08,26.67,5.34,15.81,29,15.81,29l1.87,7.25s5,1.25,5.5-5.56-.87-35.38,0-38.17.53-5.59-2.62-8.74-7.16-8-5.94-10.13,6.47-7.51,1.4-12.23-29.52-7.69-34.07-3.5S125.13,78.8,111.51,101.17Z"/><path class="cls-5" d="M106.88,103.18S83,105.8,82.51,126.76c0,0-2.89,4.72-8.65,12.32s1,20.44,2.62,28,4.8,13.89,4.63,16.16,4.19,6.64,8.12,4.89S94,181.76,94,181.76s.35-29.58,4.71-34.82,11.8-10.39,16.08-12.58a9.7,9.7,0,0,0,5.24-6.81c0-.53-5.42-29.18-5.42-29.18Z"/><path class="cls-5" d="M125.48,242.2c1.38.94,6.18-.22,7.73-.55,2.64-.56,5.66-1.57,7.32-3.85,1.9-2.62,1-6.57.78-9.55-.07-.86.08-3.21-.63-3.92l7-1.05c-.62.1,1.24,9.86,1.53,10.65.79,2.13,2.93,3.33,5,3.86a21.84,21.84,0,0,0,6.84.46c.55,0,6-.51,6-1.07a2.2,2.2,0,0,1-.73,1.2A137,137,0,0,1,155,248.44s-18.52,1.57-19,1.05S125.5,242.21,125.48,242.2Z"/><polygon class="cls-6" points="1815.08 185.51 1805.35 221.04 1826.33 245.59 1856.29 230.57 1855.03 193.15 1815.08 185.51"/><path class="cls-7" d="M1807.64,214.51s-43.92,26.82-63.28,36.24-32,23.19-36.48,31.16-14.89,15.22-14.14,20.29-17.13,26.82-20.85,44.94-10.42,78.27-10.42,80.44,11.91,52.18,11.91,52.18,35,34.79,42.43,42.76,29.78,21,32.76,21,21.59-12.32,20.85-24.64-6-47.84-11.17-53.63c-4.07-4.54-9.06-8.63-12.82-14.7a34.44,34.44,0,0,1-2.81-5.6c-3.73-9.42,6.7-31.88,6.7-31.88s33.5-79.72,32-90.59,9.68-49.29,6.7-59.43S1807.64,214.51,1807.64,214.51Z"/><path class="cls-7" d="M1926,312.31s7.44,102.23,6.7,119.62-4.36,27.54,0,47.11,2.29,25.36,0,32.61-30.58,6.52-30.58,6.52l-132.56-7.72-49.84-72L1784.56,237l23.08-22.47s26.43,22.47,48.4,9.06c0,0,61,34.42,69.61,40.95S1926,312.31,1926,312.31Z"/><path class="cls-7" d="M1926.51,267.17s21.35,21.26,20.85,35.27,5.46,66.2,4.47,81.17,1.49,15.46,3.47,26.58,10.18,33.33,10.92,58,11.54,42.39,4.1,54.71-13,16-13,16-1.86-18.81-5.21-20.64-19.31-6.54-19.31-6.54L1915.1,316.46Z"/><path class="cls-6" d="M1881.56,147.85c-5.2,30.53-22.9,56.76-47.3,55.44s-37.2-24-41-60.2c-3.37-31.74,22.9-56.76,47.3-55.44S1886.92,116.36,1881.56,147.85Z"/><path class="cls-5" d="M1825.57,99.65c.07,2-.24,5.27,0,6.25.54,2.69,2,5.32,4.26,6.57a11.36,11.36,0,0,0,5.19,1c6.48.16,13.25-2.63,19.47-2.34,2.86.13,5,2.21,7.46,3.83,4.5,3,12.77,2.3,12.77,2.3,4.24,5.92,4.65,14.75,9,20.22a25.21,25.21,0,0,0,2.95-2.32c5.81-4.89,6.15-5.77,4.27-13.45-1.51-6.14,2.62-8.77,4.72-13.68,2.87-6.76,7.86-13,2.77-18.27-6.61-6.84-11.41-12.33-15.62-21.28-2.35-5-5.51-10.45-10.66-11.41-8.31-1.55-14.63,7.58-23,2-3-2-6-4.64-9.54-5.1s-7.32,1.5-10.33,3.88c-3.76,3-7.18,6.45-11.56,8.36-7.24,3.14-15.57,4.4-21.51,10.28-4,3.93-6.17,9.25-8.17,14.51-1.7,4.45-4.71,9.57-5.15,14.36-.5,5.39,2.64,16.94,6.91,20.34,2.06,1.65,3.58,5.59,3.58,5.59s6.55-12.07,7.66-14.83,6.5-9.88,10.22-12.49,5-3.57,7.9-4.94C1821,98.17,1825.44,96,1825.57,99.65Z"/><ellipse class="cls-8" cx="452.15" cy="106.82" rx="76.08" ry="68.92" transform="translate(-4.49 21.23) rotate(-2.68)"/><path class="cls-4" d="M1627.75,138.66c0-3.67,3.64-8.33,6.56-10.55a24.47,24.47,0,0,1,10.1-4.11,51.88,51.88,0,0,1,50.46,19c2.39,3.14,4.48,6.75,4.63,10.7s-2.14,8.2-6,9.17a8.43,8.43,0,0,1-.82,14.87c1.83,5.31-1.13,11-4.64,15.43-13.65,17-36.49,24.78-58.32,24.51-7.45-.1-15.23-1.15-21.32-5.43-8.85-6.23-12.11-17.7-13.82-28.38-.66,2.38-3.65,3.63-6,2.8a6.47,6.47,0,0,1-4-5.75,10.53,10.53,0,0,1,2.4-6.84,12,12,0,0,1-4.86.86,4.08,4.08,0,0,1-3.68-2.85c-.35-1.61.69-3.23,2-4.25s2.86-1.65,4.18-2.63c4.93-3.63,5.31-10.69,7.59-16.37a23.32,23.32,0,0,1,35.46-10.15"/><path class="cls-3" d="M1686,167.17c-2.64-14.32-19.92-26.86-34.11-23.62L1606.34,158l1.08,7.75,14.41,95.77h0s7.72,30.52,33.66,25.62c23.32-4.41,19-29.09,19-29.1l-2.11-13.47s18.07-5.27,19-29.77C1691.89,202.62,1688.94,183.08,1686,167.17Z"/><path class="cls-3" d="M1612.93,193.52c-.48-.12-19-2.53-15.61,15.46s20.77,10.86,20.7,10.34S1612.93,193.52,1612.93,193.52Z"/><path class="cls-4" d="M1683.55,148.6c-3.49-4.71-9.36-7.2-15.18-7.88s-11.71.24-17.5,1.16l-48.8,11.25,4,39.44,5.16,5.78,4.35,3.44c4.71-2.31,9-9.36,8.41-17.07a17,17,0,0,0,10.87-10.35,22.36,22.36,0,0,0-.11-15.24,16.76,16.76,0,0,0,10.35,8,10.94,10.94,0,0,0,5.3.17c4.94-1.25,7.48-8,4.59-12.19a34.82,34.82,0,0,0,17.41,9.07c4,.77,8.54.65,11.39-2.19C1687.2,158.58,1686.45,152.52,1683.55,148.6Z"/><path class="cls-5" d="M1715,258.92,1674,254c-14.49,10.6-32.61,6.62-52.68.16l-38.11,13.59L1609.52,395l-6.19,70.23,145.72-.68-13.64-157.46Z"/><path class="cls-5" d="M1583.25,267.78s-19.63,9.32-20.85,27.11c-1.05,15.43,4.22,53.21,7.39,70.19,4,21.15,16.21,38.52,25.34,40.47s76.81-23.74,76.81-23.74l32.4-12L1688.19,338s-65.47,21-68,19.26-37-89.51-37-89.51Z"/><path class="cls-5" d="M1641.21,397c-.88-.15-.61,24.44.8,31s105.52-16.09,115.55-26.88,6.1-27.11,6.1-27.11l-14.45-75c-4.83-19.35-11.53-34.11-29-38.66l-5.18-1.35,4,50.41,4.6,61.1Z"/><path class="cls-3" d="M1719.13,337.55c.86-3.31-1.81-7.91-3.59-6.49-.26.21,5.11-9.8-2.2-10.3a5.75,5.75,0,0,0-1.7.26,17.46,17.46,0,0,0-6.19,3.15c-1.21.94-2.64,1.57-2.37-1a12.43,12.43,0,0,0-3.17-9.82c-1-1-3.37.9-3.07,5.29a19.26,19.26,0,0,1-3.56,12.4c-1.46,2.3-3.25,10.59-3.25,10.59l12.53,25.12s15.12-9,16.68-20.35C1720.07,340.38,1718.33,340.65,1719.13,337.55Z"/><path class="cls-3" d="M1641.35,398.92l-10.24-2.54-13.83,4.44s7,5.79,3.86,5.95-9.54-4.52-9.54-4.52l-6.69,2s2.79,11.11,6.83,14.28c0,0,.51,5.07,3.27,7.18,0,0,5.81,8.07,11.2,8.32s16.26-7,16.26-7Z"/><path class="cls-5" d="M1029.7,270.49,1023,250.78l-22.46-18.45-47.51-18.89-71.9-4.2-32.29,149s-13.74,74.29-15,85.41C833.65,445.15,1004,445,1004,445l-18.16-43.64,34.62-84.78Z"/><path class="cls-5" d="M837.18,226.49c-9.89,12.21-77.83,85.4-79.92,89.8s-17.74,31.8-8,44.52L761,377.44l27.88-37.18c-.36,1.42,77.59-63.44,77.59-63.44l14.64-67.58S849.06,211.83,837.18,226.49ZM789.05,339.77c0-.15.05-.22,0,0Z"/><path class="cls-8" d="M1077.38,147.93c6-4.19,7.7-12.84,5.14-19.66s-8.61-11.89-15.26-14.87-14-4.16-21.15-5.3A23.27,23.27,0,0,0,1006,97.31,14.78,14.78,0,0,0,980.71,104l21,27.42-4.42,71.93c3.86,13.14,18.26,22.25,31.78,20.11s24.41-15.22,24-28.91a24.48,24.48,0,0,0,7.58-2.45,24.93,24.93,0,0,0,18.08-6.62C1088.94,175.63,1088.23,157,1077.38,147.93Z"/><path class="cls-3" d="M976.62,238.6a177.8,177.8,0,0,1,10.82-21.17s24.86,19.06,40.72-7.09c6.94-11.43,14-32,19.38-48.86,4.85-15.22,2.11-37.26-13.29-41.46l-50.74-6.33c-4.68-1.27-7.73,1.91-9.4,6.47l-1.19,2-25.47,71.71L935.7,225.65c-4.89,13.61-3,23.14,10.1,29.23h0C960.32,261.62,970.65,253.45,976.62,238.6Z"/><path class="cls-8" d="M1002.42,105.4a18.18,18.18,0,0,0,13.41,24.53c4,.79,8.94.51,11.42,3.8,2.61,3.47.71,8.71,2.73,12.55,2.87,5.49,11.19,4.66,16.08,8.47,3.78,2.95,4.85,8.08,6.34,12.63s4.46,9.48,9.23,9.89a53.69,53.69,0,0,0,2.78-12.06c.3-4.13-.43-8.47-2.83-11.83-1.32-1.85-3.1-3.36-4.22-5.33-2.43-4.25-1.29-9.56-1.91-14.42a19.92,19.92,0,0,0-10.45-14.9c-4.67-2.41-10.26-2.92-14.53-6-3.16-2.26-5.33-5.73-8.61-7.8-6.4-4-14.78-1.59-21.73,1.39"/><path class="cls-8" d="M1020.69,123.92c-2.75-2.1-8.31-6.6-8.91-9.94-1.32-7.25-6.13-13.74-12.77-15.93a16.81,16.81,0,0,0-18.93,6.83c-7.89-3-17.51-1.09-24.2,4.87a28,28,0,0,0-8.81,24.51,50.68,50.68,0,0,1,.18,7,41.21,41.21,0,0,0-7.15,3.1c-11.29,7.21-1.32,19.31-1.32,19.31-4.45,6.89,1.91,11,6,13.62s-.74,14.94,2.69,16.58l18.63-35.56a4.93,4.93,0,0,0,1.31,1.24c7.57,5.13,15-10.66,15-16,4.06-1.49,8.16-3,11.78-5.49s9.27-10.94,10.41-15.3C1007.49,124.05,1021.9,124.84,1020.69,123.92Z"/><path class="cls-7" d="M1180,445.6H994l35.29-175.4-.91-3.69L1023,250.78l-22.46-18.45-6.42-2.61.25-.41s8,1,14.42-1.62c5.81-2.36,8.37-4.54,8.78-4.91l-.07-.27a27,27,0,0,0,11.18.66c13.52-2.13,24.41-15.23,24-28.91a24.75,24.75,0,0,0,7.58-2.45,25,25,0,0,0,18.09-6.63c5.08-4.94,7.43-12.11,7.14-19.16l43-10.75,56.17.36c2.46-.24,17.12-.93,27.84,15.76,0,0,7.35,85.84,9.13,138.7S1210.38,445,1210.38,445Z"/><path class="cls-6" d="M1015,94.2a46.14,46.14,0,0,1,23.52-58l2.16-1c23.94-9.62,45.49,5.34,54.44,29.54L1134.82,160a4.65,4.65,0,0,1-.72,4.76l-26.21,30.55a8,8,0,0,1-13.41-2.05l-16.28-38s-30.32,15.89-41.15-6.37C1031.82,138.14,1022.86,115.13,1015,94.2Z"/><path class="cls-5" d="M1103.08,69.93c-2-9-3.6-18.4-8.45-26.24,0,0-6.45-8.52-15.19-11.44-10.92-3.65-28.59-6.49-46.09,2.3-22.7,11.39-26,29.11-21.72,40,2,5,.39-24.39,24.13-12.63,4.36-13.25,10.44-17.55,23.27-19.59a16.38,16.38,0,0,1,7.43.46c6.25,1.94,6.63,6,7.37,7.94,5.19,18.32,19.49,21.39,19.49,21.39l5.09,12.14c1.09,3.73,4.3,6.25,6,5.86l.93-10.69S1104.1,74.57,1103.08,69.93Z"/><path class="cls-4" d="M869.31,205.22c-11.14-4.76-23-9.52-34.94-9l.22-.15a19.23,19.23,0,0,0,5.89-5.64c1.41-2.34,1.87-5.43.52-7.82s-4.8-3.54-7-1.93a9,9,0,0,0,3.51-5.88,6.7,6.7,0,0,0-2.54-6.2,5.36,5.36,0,0,0-6.51.22c1.91-3.9-.05-8.9-3.59-11.41s-8.21-2.89-12.5-2.22a10.58,10.58,0,0,0-5.41,2.16,4.75,4.75,0,0,0-1.48,5.31,13.44,13.44,0,0,0-24.73,9.17c-2.11-.7-4.33.8-5.69,2.55a13.81,13.81,0,0,0,4.48,20.76c-3.23,2.48-3.27,7.81-.59,10.87s7.29,3.92,11.22,2.86A6.67,6.67,0,0,0,799.8,217l.31-.2a51.3,51.3,0,0,0-5.69,14.9c-1.46,7.56-.68,15.34.11,23a33.9,33.9,0,0,0,1.65,8.61c1.66,4.4,7.19,14.74,10.49,18.09l76.74-56.8C883.57,218.07,873.48,207,869.31,205.22Z"/><path class="cls-9" d="M909.49,391.14,898.74,377l-31.87,18.33c1,1.14,25.13,36.85,34,36.28s78.95-45,78.95-45l2.78-28.16Z"/><path class="cls-9" d="M886.11,247.28c1.74-13.66-10.2-29.94-23.93-31.11l-45.21-.1-1.26,7.29L801.09,313.8h0s-1.58,22.69,23.21,25.75c22.27,2.75,25.28-13.69,25.28-13.69l3-18.29s19.23.22,25.76-19.26C882.06,277.37,884.16,262.46,886.11,247.28Z"/><path class="cls-4" d="M884.68,235.81s-3.53-11.49-9.31-8.9-11.82,3.85-15.29,1.34-10-7-19.51-5.63-14.13,9.34-16.08,22.12c-2.86,18.72-18.33,38.13-18.33,38.13s-9-7.7-7-19.23l.67-24.81s8.63-27.41,10.43-30.32,22.93-7.08,22.93-7.08,29.35-1.51,38.55,4.8C886.48,216.34,884.68,235.81,884.68,235.81Z"/><path class="cls-7" d="M781.85,326,726.72,445H833.57l12.16-62.16L857.06,401l45.13-26.29S864.58,314.26,858,309.57c-4.19-3-19.78-10-37.77-9.48C803.62,300.61,788.85,310.88,781.85,326Z"/><path class="cls-5" d="M870.1,397.28l91.57-21.16L1023,250.78s29.16,16.86,25.63,43.13c-1.85,13.77-15.31,56.25-27.33,91.95a72,72,0,0,1-65,48.92L856,435.1Z"/><path class="cls-3" d="M762.3,345.9a12,12,0,0,0-4.17,12.29c1.84,8,12.59,32.55,12.59,32.55s10.75,14.43,14.74,15.35,13.82,1.23,13.82,1.23,1.23-2.46-2.15-3.07-9.21-5.22-9.21-5.22l-7.68-10.13s11.36,9.21,15,10.44,18.12,1.84,18.12,1.84l5.83-11.06-3.38-7.06-8.9-4.61-13.51-13.82v-5.22l10,7.07s7.92,5.54,12.76,1.23l-8.6-7.07s-12-13.2-15.05-14.74-15-4.3-15-4.3Z"/><path class="cls-3" d="M826.68,361.82a1.86,1.86,0,0,0-2.93,1.27,15.67,15.67,0,0,0,.14,5.39c.91,3.91,7.82,8.33,7.82,8.33l10.2,10.36-13.95.06-8.14,10.11,1.81,7.24L832.47,430l24.73,1.81,12.35-33.05S851.14,375.18,849,374.28s-11.74-4.82-11.74-4.82Z"/><path class="cls-7" d="M718.62,309.5a31.29,31.29,0,0,0-5.55-16.43c-2.91-4.07-6.74-7.14-9.84-11s-5.55-9.07-4.66-14.24c1-5.7,5.55-9.46,9.38-13.27,8.3-8.24,14.74-20.59,12.75-33C719.43,213.68,715,207,710.38,201c-2.32-3-4.82-6.26-5.3-10.25-.54-4.5,1.61-8.75,3.12-12.95,4.25-11.85-.76-24.78-6.34-35.89-5.46-10.86-19.44-18.95-29.72-23.18s-12.69-6-23.61-6.3a86.14,86.14,0,0,0-32.64,5c-11.47,4-21.88,11.17-29,22.24s-10.29,28.45-6.31,41.41c2.37,7.69,3.94,12.81,1.63,20.52-1.74,5.82-6.88,9.15-10.76,13.39-7.43,8.13-10.54,21.1-7.77,32.45,1.61,6.56,4.94,12.34,7.56,18.45s4.6,13,3.22,19.66c-2,9.52-10.63,17.1-9.39,26.79"/><path class="cls-3" d="M721.39,280.26c-19.73-4.59-38.55,4.2-52.6-15.33l-.85-1.56c-8.35-15.56.78-48.92,4.27-66.12l-52,31.55c7.13,9.5,9.53,32.39,2.57,46.32-.82,4-8,9.25-26.29,10.83C574.07,287.88,567,292.61,563,310s-7.05,29.42-7.05,29.42,121.85,16.25,184.9-2.58C740.81,336.88,744.08,285.55,721.39,280.26Z"/><path class="cls-8" d="M616.71,281.16S645,293.09,678,273.74c0,0,50.46-1.29,59.3,17.88,12.18,26.44,35.78,124.71,35.78,124.71S661.49,468,536.42,423.47c0,0,17.94-133,42.44-136.36S616.71,281.16,616.71,281.16Z"/><path class="cls-3" d="M601,170.45q.09,7.49.17,15c.07,6,.15,12.13,1.94,18,2.48,8.08,7.12,17.82,13.13,24.43a60.43,60.43,0,0,0,15.41,12.32c5.9,3.22,10.71,4.31,17.46,2.7,4.32-1,11.06-5.1,14.38-7.66A55.81,55.81,0,0,0,684,202.05c2.51-12.53.76-25.52-3.7-37.65"/><path class="cls-7" d="M625.05,157.67c4.57,6.05,7.89,13,12.81,18.79,12,14.07,31.21,19,49.19,23.23a5.44,5.44,0,0,0,3.09.11,4.94,4.94,0,0,0,2.24-2.21c3.78-6.14,4.65-13.63,4.52-20.83-.35-18.93-7.53-38.16-21.63-50.79s-35.44-17.57-52.82-10.07c-6.56,2.83-12.32,7.22-17.68,11.95C595.55,136,587,146,585.08,158.19c-.84,5.44-.28,11,.29,16.46.86,8.41,1.88,17.24,6.78,24.13a4,4,0,0,0,2.14,1.78,4.19,4.19,0,0,0,2.75-.63,57.67,57.67,0,0,0,31.12-49.07"/><path class="cls-10" d="M617.15,304.11a1,1,0,0,0,0-1.89.95.95,0,0,0,0,1.89Z"/><path class="cls-10" d="M604.63,327a1,1,0,0,0,0-1.89.95.95,0,0,0,0,1.89Z"/><path class="cls-10" d="M619.55,328.35a1,1,0,0,0,0-1.89.95.95,0,0,0,0,1.89Z"/><path class="cls-10" d="M611.29,314.5a1,1,0,0,0,0-1.89.95.95,0,0,0,0,1.89Z"/><path class="cls-10" d="M604.1,306.78a1,1,0,0,0,0-1.89.95.95,0,0,0,0,1.89Z"/><path class="cls-10" d="M623.28,312.37a1,1,0,0,0,0-1.89.95.95,0,0,0,0,1.89Z"/><path class="cls-10" d="M632.87,324.09a1,1,0,0,0,0-1.89.95.95,0,0,0,0,1.89Z"/><path class="cls-10" d="M633.93,306.51a1,1,0,0,0,0-1.89.95.95,0,0,0,0,1.89Z"/><path class="cls-10" d="M624.08,295.86a1,1,0,0,0,0-1.89.95.95,0,0,0,0,1.89Z"/><path class="cls-10" d="M610.49,293.46a1,1,0,0,0,0-1.89.95.95,0,0,0,0,1.89Z"/><path class="cls-10" d="M594.24,296.65a1,1,0,0,0,0-1.89.95.95,0,0,0,0,1.89Z"/><path class="cls-10" d="M579.86,300.38a1,1,0,0,0,0-1.89.95.95,0,0,0,0,1.89Z"/><path class="cls-10" d="M570.8,311.84a1,1,0,0,0,0-1.89.95.95,0,0,0,0,1.89Z"/><path class="cls-10" d="M566.54,324.62a1,1,0,0,0,0-1.89.95.95,0,0,0,0,1.89Z"/><path class="cls-10" d="M563.88,338.21a1,1,0,0,0,0-1.89.95.95,0,0,0,0,1.89Z"/><path class="cls-10" d="M562.28,353.66a1,1,0,0,0,0-1.89.95.95,0,0,0,0,1.89Z"/><path class="cls-10" d="M558.82,369.91a1,1,0,0,0,0-1.89.95.95,0,0,0,0,1.89Z"/><path class="cls-10" d="M560.41,381.36a1,1,0,0,0,0-1.89.95.95,0,0,0,0,1.89Z"/><path class="cls-10" d="M572.13,376.83a1,1,0,0,0,0-1.89.95.95,0,0,0,0,1.89Z"/><path class="cls-10" d="M571.87,364.31a1,1,0,0,0,0-1.89.95.95,0,0,0,0,1.89Z"/><path class="cls-10" d="M571.34,347a1,1,0,0,0,0-1.89.95.95,0,0,0,0,1.89Z"/><path class="cls-10" d="M574.27,331.55a1,1,0,0,0,0-1.89.95.95,0,0,0,0,1.89Z"/><path class="cls-10" d="M578.26,321.16a1,1,0,0,0,0-1.89.95.95,0,0,0,0,1.89Z"/><path class="cls-10" d="M588.92,308.64a1,1,0,0,0,0-1.89.95.95,0,0,0,0,1.89Z"/><path class="cls-10" d="M596.91,317.16a.94.94,0,0,0,0-1.88.94.94,0,0,0,0,1.88Z"/><path class="cls-10" d="M590.78,329.68a1,1,0,0,0,0-1.89.95.95,0,0,0,0,1.89Z"/><path class="cls-10" d="M585.72,342.47a1,1,0,0,0,0-1.89.95.95,0,0,0,0,1.89Z"/><path class="cls-10" d="M586.52,356.32a1,1,0,0,0,0-1.89.95.95,0,0,0,0,1.89Z"/><path class="cls-10" d="M586,371a1,1,0,0,0,0-1.89.95.95,0,0,0,0,1.89Z"/><path class="cls-10" d="M587.05,381.36a1,1,0,0,0,0-1.89.95.95,0,0,0,0,1.89Z"/><path class="cls-10" d="M598.77,376a1,1,0,0,0,0-1.89.95.95,0,0,0,0,1.89Z"/><path class="cls-10" d="M596.91,360.85a1,1,0,0,0,0-1.89.95.95,0,0,0,0,1.89Z"/><path class="cls-10" d="M596.91,347.8a1,1,0,0,0,0-1.89.95.95,0,0,0,0,1.89Z"/><path class="cls-10" d="M603.83,336.08a1,1,0,0,0,0-1.89.95.95,0,0,0,0,1.89Z"/><path class="cls-10" d="M612.89,341.14a1,1,0,0,0,0-1.89.95.95,0,0,0,0,1.89Z"/><path class="cls-10" d="M608.63,351.79a1,1,0,0,0,0-1.89.95.95,0,0,0,0,1.89Z"/><path class="cls-10" d="M608.63,364.05a1,1,0,0,0,0-1.89.95.95,0,0,0,0,1.89Z"/><path class="cls-10" d="M610,377.37a1,1,0,0,0,0-1.89.95.95,0,0,0,0,1.89Z"/><path class="cls-10" d="M629.94,335.28a1,1,0,0,0,0-1.89.95.95,0,0,0,0,1.89Z"/><path class="cls-10" d="M624.61,348.6a1,1,0,0,0,0-1.89.95.95,0,0,0,0,1.89Z"/><path class="cls-10" d="M623,361.65a1,1,0,0,0,0-1.89.95.95,0,0,0,0,1.89Z"/><path class="cls-10" d="M621.68,373.9a1,1,0,0,0,0-1.89.95.95,0,0,0,0,1.89Z"/><path class="cls-10" d="M633.4,381.36a1,1,0,0,0,0-1.89.95.95,0,0,0,0,1.89Z"/><path class="cls-10" d="M639.26,370.17a1,1,0,0,0,0-1.89.95.95,0,0,0,0,1.89Z"/><path class="cls-10" d="M635.53,358.45a1,1,0,0,0,0-1.89.95.95,0,0,0,0,1.89Z"/><path class="cls-10" d="M640.06,345.93a1,1,0,0,0,0-1.89.95.95,0,0,0,0,1.89Z"/><path class="cls-10" d="M643.52,330.75a1,1,0,0,0,0-1.89.95.95,0,0,0,0,1.89Z"/><path class="cls-10" d="M644.32,319.83a1,1,0,0,0,0-1.89.95.95,0,0,0,0,1.89Z"/><path class="cls-10" d="M640.33,296.39a1,1,0,0,0,0-1.89.95.95,0,0,0,0,1.89Z"/><path class="cls-10" d="M649.12,305.71a1,1,0,0,0,0-1.89.95.95,0,0,0,0,1.89Z"/><path class="cls-10" d="M653.64,295.06a1,1,0,0,0,0-1.89.95.95,0,0,0,0,1.89Z"/><path class="cls-10" d="M664,302.51a1,1,0,0,0,0-1.89.95.95,0,0,0,0,1.89Z"/><path class="cls-10" d="M669.63,291.33a1,1,0,0,0,0-1.89.95.95,0,0,0,0,1.89Z"/><path class="cls-10" d="M678.42,296.92a1,1,0,0,0,0-1.89.95.95,0,0,0,0,1.89Z"/><path class="cls-10" d="M681.08,285.47a1,1,0,0,0,0-1.89.95.95,0,0,0,0,1.89Z"/><path class="cls-10" d="M693.33,289.46a1,1,0,0,0,0-1.89.95.95,0,0,0,0,1.89Z"/><path class="cls-10" d="M690.94,300.38a1,1,0,0,0,0-1.89.95.95,0,0,0,0,1.89Z"/><path class="cls-10" d="M673.89,309.71a1,1,0,0,0,0-1.89.95.95,0,0,0,0,1.89Z"/><path class="cls-10" d="M661.37,317.7a1,1,0,0,0,0-1.89.95.95,0,0,0,0,1.89Z"/><path class="cls-10" d="M685.88,310.77a1,1,0,0,0,0-1.89.95.95,0,0,0,0,1.89Z"/><path class="cls-10" d="M676.29,322.76a1,1,0,0,0,0-1.89.95.95,0,0,0,0,1.89Z"/><path class="cls-10" d="M660.3,328.09a1,1,0,0,0,0-1.89.95.95,0,0,0,0,1.89Z"/><path class="cls-10" d="M653.64,340.87a1,1,0,0,0,0-1.89.95.95,0,0,0,0,1.89Z"/><path class="cls-10" d="M672.56,334.21a1,1,0,0,0,0-1.89.95.95,0,0,0,0,1.89Z"/><path class="cls-10" d="M663.77,345.4a1,1,0,0,0,0-1.89.95.95,0,0,0,0,1.89Z"/><path class="cls-10" d="M649.51,355l.27.27a.8.8,0,0,0,.3.19.69.69,0,0,0,.37.08.64.64,0,0,0,.36-.08.77.77,0,0,0,.31-.19l.14-.2a.85.85,0,0,0,.13-.47l0-.25a1.1,1.1,0,0,0-.24-.42l-.27-.27a.8.8,0,0,0-.3-.19.69.69,0,0,0-.37-.08.64.64,0,0,0-.36.08.77.77,0,0,0-.31.19l-.14.19a.91.91,0,0,0-.13.48l0,.25a1.1,1.1,0,0,0,.24.42Z"/><path class="cls-10" d="M663.5,361.65a1,1,0,0,0,0-1.89.95.95,0,0,0,0,1.89Z"/><path class="cls-10" d="M654.18,370.17a1,1,0,0,0,0-1.89.95.95,0,0,0,0,1.89Z"/><path class="cls-10" d="M653.38,381.36a1,1,0,0,0,0-1.89.95.95,0,0,0,0,1.89Z"/><path class="cls-10" d="M671.23,379.76a1,1,0,0,0,0-1.89.95.95,0,0,0,0,1.89Z"/><path class="cls-10" d="M668.29,371a1,1,0,0,0,0-1.89.95.95,0,0,0,0,1.89Z"/><path class="cls-10" d="M680.81,360.32a1,1,0,0,0,0-1.89.95.95,0,0,0,0,1.89Z"/><path class="cls-10" d="M675.75,349.4a1,1,0,0,0,0-1.89.95.95,0,0,0,0,1.89Z"/><path class="cls-10" d="M684.81,339.54a1,1,0,0,0,0-1.89.95.95,0,0,0,0,1.89Z"/><path class="cls-10" d="M690.14,323a1,1,0,0,0,0-1.89.95.95,0,0,0,0,1.89Z"/><path class="cls-10" d="M696.8,311.57a1,1,0,0,0,0-1.89.95.95,0,0,0,0,1.89Z"/><path class="cls-10" d="M703.72,296.92a1,1,0,0,0,0-1.89.95.95,0,0,0,0,1.89Z"/><path class="cls-10" d="M701.86,284.13a1,1,0,0,0,0-1.89.95.95,0,0,0,0,1.89Z"/><path class="cls-10" d="M712.78,287.33a1,1,0,0,0,0-1.89.95.95,0,0,0,0,1.89Z"/><path class="cls-10" d="M718.11,299.58a1,1,0,0,0,0-1.89.95.95,0,0,0,0,1.89Z"/><path class="cls-10" d="M710.12,307.58a1,1,0,0,0,0-1.89.95.95,0,0,0,0,1.89Z"/><path class="cls-10" d="M725.43,289.72l.27.26a.61.61,0,0,0,.3.2.64.64,0,0,0,.36.08.67.67,0,0,0,.37-.08.61.61,0,0,0,.3-.2l.15-.19a.85.85,0,0,0,.13-.47l0-.25a1,1,0,0,0-.25-.42l-.26-.27a.67.67,0,0,0-.31-.19.64.64,0,0,0-.36-.08,1,1,0,0,0-.67.27l-.15.19a1,1,0,0,0-.13.48l0,.25a.89.89,0,0,0,.24.42Z"/><path class="cls-10" d="M732,299.58a1,1,0,0,0,0-1.89.95.95,0,0,0,0,1.89Z"/><path class="cls-10" d="M725.3,309.44a1,1,0,0,0,0-1.89.95.95,0,0,0,0,1.89Z"/><path class="cls-10" d="M706.65,316.9a1,1,0,0,0,0-1.89.95.95,0,0,0,0,1.89Z"/><path class="cls-10" d="M701.86,329.68a1,1,0,0,0,0-1.89.95.95,0,0,0,0,1.89Z"/><path class="cls-10" d="M717.31,322a1,1,0,0,0,0-1.89.95.95,0,0,0,0,1.89Z"/><path class="cls-10" d="M738.08,308.11a1,1,0,0,0,0-1.89.95.95,0,0,0,0,1.89Z"/><path class="cls-10" d="M736.75,317.7a1,1,0,0,0,0-1.89.95.95,0,0,0,0,1.89Z"/><path class="cls-10" d="M745.28,328.35a1,1,0,0,0,0-1.89.95.95,0,0,0,0,1.89Z"/><path class="cls-10" d="M728.76,324.89a1,1,0,0,0,0-1.89.95.95,0,0,0,0,1.89Z"/><path class="cls-10" d="M716.51,336.34a1,1,0,0,0,0-1.89.95.95,0,0,0,0,1.89Z"/><path class="cls-10" d="M702.92,343a1,1,0,0,0,0-1.89.95.95,0,0,0,0,1.89Z"/><path class="cls-10" d="M692.53,349.93a1,1,0,0,0,0-1.89.95.95,0,0,0,0,1.89Z"/><path class="cls-10" d="M697.6,360.32a1,1,0,0,0,0-1.89.95.95,0,0,0,0,1.89Z"/><path class="cls-10" d="M684.54,370.71a1,1,0,0,0,0-1.89.95.95,0,0,0,0,1.89Z"/><path class="cls-10" d="M690.4,380.83a1,1,0,0,0,0-1.89.95.95,0,0,0,0,1.89Z"/><path class="cls-10" d="M702.66,375.23a1,1,0,0,0,0-1.89.95.95,0,0,0,0,1.89Z"/><path class="cls-10" d="M709.85,356.32a1,1,0,0,0,0-1.89.95.95,0,0,0,0,1.89Z"/><path class="cls-10" d="M722.37,346.2a1,1,0,0,0,0-1.89.95.95,0,0,0,0,1.89Z"/><path class="cls-10" d="M734.36,336.88a1,1,0,0,0,0-1.89.95.95,0,0,0,0,1.89Z"/><path class="cls-10" d="M734.89,354.72a1,1,0,0,0,0-1.89.95.95,0,0,0,0,1.89Z"/><path class="cls-10" d="M720.5,365.11a1,1,0,0,0,0-1.89.95.95,0,0,0,0,1.89Z"/><path class="cls-10" d="M720.5,378.7a1,1,0,0,0,0-1.89.95.95,0,0,0,0,1.89Z"/><path class="cls-10" d="M737.82,371.51a1,1,0,0,0,0-1.89.95.95,0,0,0,0,1.89Z"/><path class="cls-10" d="M743.41,380a1,1,0,0,0,0-1.89.95.95,0,0,0,0,1.89Z"/><path class="cls-10" d="M758.86,377.9a1,1,0,0,0,0-1.89.95.95,0,0,0,0,1.89Z"/><path class="cls-10" d="M749.81,364.58a1,1,0,0,0,0-1.89.95.95,0,0,0,0,1.89Z"/><path class="cls-10" d="M747.41,344.87a1,1,0,0,0,0-1.89.95.95,0,0,0,0,1.89Z"/><path class="cls-10" d="M754.6,353.39a1,1,0,0,0,0-1.89.95.95,0,0,0,0,1.89Z"/><path class="cls-11" d="M544.41,213.9c-19.66-4.58-38.42,4.19-52.43-15.28l-.85-1.56c-8.32-15.51-16.6-44.52-13.12-61.66l-40,40.18a44.81,44.81,0,0,1,8.06,33.2c-.81,4-7.94,9.21-26.2,10.79-22.31,1.93-29.32,6.64-33.39,24s-7,29.33-7,29.33,121.46,16.2,184.31-2.57C563.77,270.34,567,219.17,544.41,213.9Z"/><path class="cls-11" d="M430.86,81.43a71.58,71.58,0,0,0-18.51,26.05c-4.88,11.55,2.6,16.32-3,24.62a106.46,106.46,0,0,1-11.68,14.09,1.65,1.65,0,0,0,.05,2.36,16.91,16.91,0,0,0,7.36,4s1.48,3.62.1,6.34c-2.1,4.13,1.09,2.76,0,7.9-.73,3.46,1.05,3.93,1.95,7.53s.05,8.28.15,10.48,5.41,6.74,16.32,3.24,14.46-4.18,20.86-7,23.37-7.13,29.67-19.44S472.5,131,471.4,114.49,452.68,72.82,430.86,81.43Z"/><path class="cls-4" d="M440.06,214.79s28.2,11.9,61.13-7.39c0,0,50.3-1.29,59.11,17.83,12.14,26.35,72.87,194.59,72.87,194.59s-139.83.18-279.07-.33c0,0,23.81-195.42,48.23-198.76S440.06,214.79,440.06,214.79Z"/><path class="cls-12" d="M1378.77,294.51c24-5.59,46.88,5.11,64-18.64.34-.62.68-1.25,1-1.91,10.16-18.92,20.26-54.32,16-75.23l48.81,49c-8.66,11.55-11.89,26.42-9.84,40.51,1,4.84,9.69,11.24,32,13.17,27.23,2.35,35.78,8.1,40.75,29.3s8.57,35.78,8.57,35.78-148.21,19.76-224.9-3.13C1355.15,363.38,1351.17,300.94,1378.77,294.51Z"/><path class="cls-12" d="M1517.32,132.87s13.87,11.15,22.59,31.79c5.95,14.1-3.17,19.91,3.66,30a130.11,130.11,0,0,0,14.26,17.2,2,2,0,0,1-.07,2.87,20.63,20.63,0,0,1-9,4.9s-1.8,4.42-.12,7.74c2.56,5-1.34,3.37,0,9.64.88,4.22-1.28,4.79-2.38,9.19s-.06,10.1-.18,12.78-6.61,8.23-19.92,4-17.64-5.11-25.46-8.52-16.36-7.12-24-22.14-10.14-39-8.79-59.11S1490.7,122.37,1517.32,132.87Z"/><path class="cls-10" d="M1506.09,295.6s-34.4,14.52-74.58-9c0,0-61.38-1.57-72.12,21.75-14.82,32.16-33.4,96.57-33.4,96.57s84.64,1,263.07-.41c0,0-7.13-97.57-36.93-101.65S1506.09,295.6,1506.09,295.6Z"/><path class="cls-8" d="M1440.65,132.18a51.52,51.52,0,0,0,1.11-37.83c-1.21-3.29-2.93-6.64-6-8.36a27.85,27.85,0,0,0-4.26-1.66c-5.63-2-10.22-6.15-15.33-9.26s-11.55-5.22-17-2.82c-6.1,2.67-8.81,9.83-14,14-3.24,2.61-7.3,3.95-10.85,6.1a27.5,27.5,0,0,0-12.14,29c1.22,5.14,3.92,9.82,5.29,14.92,2,7.47,1.5,16.46,7.35,21.52,4,3.47,9.78,3.83,15.09,4,7.25.26,15.06.36,21-3.75,3.54-2.44,6.15-6.22,10.08-7.95,2.59-1.13,5.65-1.34,7.79-3.19"/><path class="cls-12" d="M1477.9,220.51c2.43.77,5.44.65,7.38-.73s2.36-5.83.84-10.14"/><path class="cls-12" d="M1486.12,209.64a33.34,33.34,0,0,0-3.1-8.89,15.08,15.08,0,0,0-7.73-6.73,10.26,10.26,0,0,0-6.8-.35,6.51,6.51,0,0,0-4,3.88,9.84,9.84,0,0,0-.22,5.08"/><path class="cls-8" d="M1457.59,235.65c5-8.59,7-18.59,10.9-27.74a32.1,32.1,0,0,1,6.29-10.1c5.3-5.39,13-7.45,19.64-11.09,7.6-4.18,13.78-10.47,19.84-16.67,5.27-5.38,10.75-11.16,12.43-18.51,2-8.59-1.91-17.72-8.09-24s-14.37-10.15-22.6-13.3c-8.79-3.36-18.28-6.08-27.53-4.34a59.84,59.84,0,0,0-11.15,3.65,86.58,86.58,0,0,0-11.65,5.38c-5.62,3.31-10.4,7.84-15.12,12.33a31.49,31.49,0,0,0-4.81,5.32,30,30,0,0,0-3.42,8.39c-4.4,15.31-7.47,31.77-3,47,3.91,13.21,13.11,24.18,22.86,33.92,3,3,11.13,9.29,15.36,9.72"/><rect class="cls-7" x="1470.65" y="226.44" width="17.06" height="32.85" rx="1.81" transform="translate(2958.36 485.73) rotate(-180)"/><path class="cls-7" d="M1473.7,221a5.49,5.49,0,1,0,5.48-5.49A5.48,5.48,0,0,0,1473.7,221Z"/><path class="cls-5" d="M289.11,150.17c12.73-.64,32.77,3.35,42.06,10.83s17.11,17,21.48,28.09c5.39,13.7,5.56,29.65,14.22,41.57,3.15,4.33,7.26,7.85,10.8,11.86,5.57,6.3,9.81,14,10.7,22.37s-1.95,17.33-8.42,22.68c-8.81,7.28-21.59,6.48-32.39,10.21-7,2.42-13.65,6.89-21,6.44-9.63-.58-33.7-14.38-39.35-22.2"/><path class="cls-5" d="M289.11,150.17c-12.68,1.32-34,7.78-42,16.59s-14.3,19.42-16.91,31.05c-3.23,14.37-.95,30.16-7.68,43.26-2.45,4.76-6,8.88-8.86,13.38-4.53,7.07-7.54,15.36-7.14,23.75s4.59,16.82,11.8,21.11c9.83,5.85,22.33,3.09,33.58,5.13,7.28,1.32,14.54,4.71,21.77,3.14,9.43-2.06,15-11.58,19.35-20.17"/><path class="cls-12" d="M328,242.6a33.29,33.29,0,0,1,3.1-8.9A15.16,15.16,0,0,1,338.8,227a10.27,10.27,0,0,1,6.8-.34,6.5,6.5,0,0,1,3.95,3.87,9.87,9.87,0,0,1,.22,5.09,25.93,25.93,0,0,1-7.6,14,15.06,15.06,0,0,1-6,3.88c-2.42.76-5.44.64-7.38-.73s-2.35-5.84-.84-10.14"/><path class="cls-12" d="M259,246.73a33.52,33.52,0,0,0-1.4-9.32,15.21,15.21,0,0,0-6.36-8,10.28,10.28,0,0,0-6.63-1.59,6.5,6.5,0,0,0-4.59,3.08,9.94,9.94,0,0,0-1.16,5,26.05,26.05,0,0,0,4.9,15.17,15,15,0,0,0,5.16,4.9c2.24,1.2,5.23,1.64,7.39.65s3.39-5.31,2.69-9.81"/><path class="cls-12" d="M374.14,321.17c-20.38-4.75-39.83,4.34-54.35-15.84-.29-.52-.58-1.06-.88-1.61-8.63-16.08.8-50.56,4.41-68.33L269.54,268c7.37,9.82,9.85,33.48,2.66,47.87-.85,4.11-8.24,9.56-27.16,11.19-23.14,2-30.4,6.89-34.62,24.9s-7.28,30.4-7.28,30.4,125.91,16.79,191.07-2.67C394.21,379.68,397.59,326.64,374.14,321.17Z"/><path class="cls-12" d="M253.38,188.45c.06,6.63-2,25.46-2.12,32.1-.12,9.7,0,21.1,1.85,28.85,2.56,10.74,6.17,14.55,12.38,23.33a67.91,67.91,0,0,0,15.92,16.37c6.1,4.29,11.07,5.74,18,3.6,4.47-1.37,11.43-6.78,14.86-10.19,11.44-11.37,18.18-24.8,20.77-41.45s-3.43-36.49-8-52.61"/><path class="cls-8" d="M256.53,258.41a14.27,14.27,0,0,0-13.16-9A13.25,13.25,0,0,0,231,258.77a14.38,14.38,0,0,0,5,15.28,13.27,13.27,0,0,0,20.6-15.44Zm-4.84,13.23a12.19,12.19,0,0,1-13.6,1.78,11,11,0,0,1-5.64-11.78,12.25,12.25,0,0,1,9.65-9.74A11.46,11.46,0,0,1,255,258.65,11.93,11.93,0,0,1,251.69,271.64Z"/><path class="cls-8" d="M357.06,250a14.3,14.3,0,0,0-13.16-9,13.26,13.26,0,0,0-12.39,9.33,14.4,14.4,0,0,0,5,15.29,13.27,13.27,0,0,0,20.59-15.45Zm-4.85,13.24A12.18,12.18,0,0,1,338.62,265,11,11,0,0,1,333,253.26a12.26,12.26,0,0,1,9.65-9.74,11.48,11.48,0,0,1,12.87,6.75A11.92,11.92,0,0,1,352.21,263.27Z"/><path class="cls-7" d="M266,322.1s29.23,12.33,63.36-7.66c0,0,52.15-1.34,61.28,18.47C403.2,360.24,417,421,417,421s-52.46.9-221.66-.29c0,0,6.2-89,31.51-92.5S266,322.1,266,322.1Z"/><path class="cls-10" d="M263.7,339.06a1,1,0,0,0,0-2,1,1,0,0,0,0,2Z"/><path class="cls-10" d="M250.76,362.73a1,1,0,0,0,0-2,1,1,0,0,0,0,2Z"/><path class="cls-10" d="M266.17,364.11a1,1,0,0,0,0-2,1,1,0,0,0,0,2Z"/><path class="cls-10" d="M257.64,349.79a1,1,0,0,0,0-2,1,1,0,0,0,0,2Z"/><path class="cls-10" d="M250.21,341.81a1,1,0,0,0,0-1.95,1,1,0,0,0,0,1.95Z"/><path class="cls-10" d="M270,347.59a1,1,0,0,0,0-1.95,1,1,0,0,0,0,1.95Z"/><path class="cls-10" d="M279.94,359.7a1,1,0,0,0,0-1.95,1,1,0,0,0,0,1.95Z"/><path class="cls-10" d="M281,341.53a1,1,0,0,0,0-1.95,1,1,0,0,0,0,1.95Z"/><path class="cls-10" d="M270.85,330.52a1,1,0,0,0,0-1.95,1,1,0,0,0,0,1.95Z"/><path class="cls-10" d="M256.82,328.05a1,1,0,0,0,0-2,1,1,0,0,0,0,2Z"/><path class="cls-10" d="M240,331.35a1,1,0,0,0,0-2,1,1,0,0,0,0,2Z"/><path class="cls-10" d="M225.16,335.2a1,1,0,0,0,0-1.95,1,1,0,0,0,0,1.95Z"/><path class="cls-10" d="M215.8,347a1,1,0,0,0,0-2,1,1,0,0,0,0,2Z"/><path class="cls-10" d="M211.4,360.25a1,1,0,0,0,0-1.95,1,1,0,0,0,0,1.95Z"/><path class="cls-10" d="M208.64,374.29a1,1,0,0,0,0-2,1,1,0,0,0,0,2Z"/><path class="cls-10" d="M207,390.26a1,1,0,0,0,0-2,1,1,0,0,0,0,2Z"/><path class="cls-10" d="M216.9,401.27a1,1,0,0,0,0-2,1,1,0,0,0,0,2Z"/><path class="cls-10" d="M216.35,383.38a1,1,0,0,0,0-2,1,1,0,0,0,0,2Z"/><path class="cls-10" d="M219.38,367.41a1,1,0,0,0,0-2,1,1,0,0,0,0,2Z"/><path class="cls-10" d="M223.51,356.67a1,1,0,0,0,0-1.95,1,1,0,0,0,0,1.95Z"/><path class="cls-10" d="M234.52,343.74a1,1,0,0,0,0-2,1,1,0,0,0,0,2Z"/><path class="cls-10" d="M242.78,352.55a1,1,0,0,0,0-2,1,1,0,0,0,0,2Z"/><path class="cls-10" d="M236.45,365.48a1,1,0,0,0,0-2,1,1,0,0,0,0,2Z"/><path class="cls-10" d="M231.22,378.7a1,1,0,0,0,0-2,1,1,0,0,0,0,2Z"/><path class="cls-10" d="M232,393a1,1,0,0,0,0-1.95,1,1,0,0,0,0,1.95Z"/><path class="cls-10" d="M242.78,397.69a1,1,0,0,0,0-1.95,1,1,0,0,0,0,1.95Z"/><path class="cls-10" d="M242.78,384.2a1,1,0,0,0,0-1.95,1,1,0,0,0,0,1.95Z"/><path class="cls-10" d="M249.93,372.09a1,1,0,0,0,0-1.95,1,1,0,0,0,0,1.95Z"/><path class="cls-10" d="M259.29,377.32a1,1,0,0,0,0-1.95,1,1,0,0,0,0,1.95Z"/><path class="cls-10" d="M254.89,388.33a1,1,0,0,0,0-1.95,1,1,0,0,0,0,1.95Z"/><path class="cls-10" d="M254.89,401a1,1,0,0,0,0-1.95,1,1,0,0,0,0,1.95Z"/><path class="cls-10" d="M276.91,371.26a1,1,0,0,0,0-1.95,1,1,0,0,0,0,1.95Z"/><path class="cls-10" d="M271.4,385a1,1,0,0,0,0-2,1,1,0,0,0,0,2Z"/><path class="cls-10" d="M269.75,398.52a1,1,0,0,0,0-2,1,1,0,0,0,0,2Z"/><path class="cls-10" d="M282.69,395.21a1,1,0,0,0,0-1.95,1,1,0,0,0,0,1.95Z"/><path class="cls-10" d="M287.37,382.27a1,1,0,0,0,0-1.95,1,1,0,0,0,0,1.95Z"/><path class="cls-10" d="M291,366.58a1,1,0,0,0,0-1.95,1,1,0,0,0,0,1.95Z"/><path class="cls-10" d="M291.77,355.3a1,1,0,0,0,0-2,1,1,0,0,0,0,2Z"/><path class="cls-10" d="M287.65,331.07a1,1,0,0,0,0-1.95,1,1,0,0,0,0,1.95Z"/><path class="cls-10" d="M296.73,340.71a1,1,0,0,0,0-1.95,1,1,0,0,0,0,1.95Z"/><path class="cls-10" d="M301.41,329.7a1,1,0,0,0,0-1.95,1,1,0,0,0,0,1.95Z"/><path class="cls-10" d="M312.14,337.41a1,1,0,0,0,0-2,1,1,0,0,0,0,2Z"/><path class="cls-10" d="M317.92,325.84a1,1,0,0,0,0-1.95,1,1,0,0,0,0,1.95Z"/><path class="cls-10" d="M327,331.62a1,1,0,0,0,0-1.95,1,1,0,0,0,0,1.95Z"/><path class="cls-10" d="M329.76,319.79a1,1,0,0,0,0-2,1,1,0,0,0,0,2Z"/><path class="cls-10" d="M342.42,323.92a1,1,0,0,0,0-2,1,1,0,0,0,0,2Z"/><path class="cls-10" d="M340,335.2a1,1,0,0,0,0-1.95,1,1,0,0,0,0,1.95Z"/><path class="cls-10" d="M322.33,344.84a1,1,0,0,0,0-2,1,1,0,0,0,0,2Z"/><path class="cls-10" d="M309.39,353.1a1,1,0,0,0,0-2,1,1,0,0,0,0,2Z"/><path class="cls-10" d="M334.72,345.94a1,1,0,0,0,0-1.95,1,1,0,0,0,0,1.95Z"/><path class="cls-10" d="M324.81,358.33a1,1,0,0,0,0-2,1,1,0,0,0,0,2Z"/><path class="cls-10" d="M308.29,363.83a1,1,0,0,0,0-1.95,1,1,0,0,0,0,1.95Z"/><path class="cls-10" d="M301.41,377a1,1,0,0,0,0-2,1,1,0,0,0,0,2Z"/><path class="cls-10" d="M321,370.16a1,1,0,0,0,0-2,1,1,0,0,0,0,2Z"/><path class="cls-10" d="M311.87,381.72a1,1,0,0,0,0-2,1,1,0,0,0,0,2Z"/><path class="cls-10" d="M297.14,391.62l.27.28a.83.83,0,0,0,.32.2.71.71,0,0,0,.38.08.69.69,0,0,0,.37-.08.83.83,0,0,0,.32-.2l.15-.2a1,1,0,0,0,.13-.49l0-.26a1,1,0,0,0-.25-.43c-.1-.09-.19-.19-.28-.28a.79.79,0,0,0-.31-.2.94.94,0,0,0-.76,0,.79.79,0,0,0-.31.2l-.15.2a1,1,0,0,0-.14.49c0,.09,0,.18,0,.26a.89.89,0,0,0,.25.43Z"/><path class="cls-10" d="M311.59,398.52a1,1,0,0,0,0-2,1,1,0,0,0,0,2Z"/><path class="cls-10" d="M329.49,397.14a1,1,0,0,0,0-1.95,1,1,0,0,0,0,1.95Z"/><path class="cls-10" d="M324.26,385.85a1,1,0,0,0,0-2,1,1,0,0,0,0,2Z"/><path class="cls-10" d="M333.61,375.67a1,1,0,0,0,0-2,1,1,0,0,0,0,2Z"/><path class="cls-10" d="M339.12,358.6a1,1,0,0,0,0-2,1,1,0,0,0,0,2Z"/><path class="cls-10" d="M346,346.76a1,1,0,0,0,0-1.95,1,1,0,0,0,0,1.95Z"/><path class="cls-10" d="M353.16,331.62a1,1,0,0,0,0-1.95,1,1,0,0,0,0,1.95Z"/><path class="cls-10" d="M351.23,318.41a1,1,0,0,0,0-2,1,1,0,0,0,0,2Z"/><path class="cls-10" d="M362.52,321.72a1,1,0,0,0,0-2,1,1,0,0,0,0,2Z"/><path class="cls-10" d="M368,334.38a1,1,0,0,0,0-2,1,1,0,0,0,0,2Z"/><path class="cls-10" d="M359.77,342.64a1,1,0,0,0,0-2,1,1,0,0,0,0,2Z"/><path class="cls-10" d="M375.59,324.18l.28.28a.72.72,0,0,0,.31.2.71.71,0,0,0,.38.08.67.67,0,0,0,.37-.08.83.83,0,0,0,.32-.2l.15-.2a1,1,0,0,0,.13-.49l0-.26a1,1,0,0,0-.25-.43l-.28-.28a.79.79,0,0,0-.31-.2.82.82,0,0,0-.38-.09.85.85,0,0,0-.38.09.79.79,0,0,0-.31.2l-.15.2a1.07,1.07,0,0,0-.14.49l0,.26a1,1,0,0,0,.25.43Z"/><path class="cls-10" d="M382.34,334.38a1,1,0,0,0,0-2,1,1,0,0,0,0,2Z"/><path class="cls-10" d="M375.46,344.56a1,1,0,0,0,0-1.95,1,1,0,0,0,0,1.95Z"/><path class="cls-10" d="M356.19,352.27a1,1,0,0,0,0-1.95,1,1,0,0,0,0,1.95Z"/><path class="cls-10" d="M351.23,365.48a1,1,0,0,0,0-2,1,1,0,0,0,0,2Z"/><path class="cls-10" d="M367.2,357.5a1,1,0,0,0,0-1.95,1,1,0,0,0,0,1.95Z"/><path class="cls-10" d="M388.67,343.19a1,1,0,0,0,0-2,1,1,0,0,0,0,2Z"/><path class="cls-10" d="M387.29,353.1a1,1,0,0,0,0-2,1,1,0,0,0,0,2Z"/><path class="cls-10" d="M396.1,364.11a1,1,0,0,0,0-2,1,1,0,0,0,0,2Z"/><path class="cls-10" d="M379,360.53a1,1,0,0,0,0-1.95,1,1,0,0,0,0,1.95Z"/><path class="cls-10" d="M366.37,372.36a1,1,0,0,0,0-1.95,1,1,0,0,0,0,1.95Z"/><path class="cls-10" d="M352.33,379.25a1,1,0,0,0,0-2,1,1,0,0,0,0,2Z"/><path class="cls-10" d="M341.6,386.4a1,1,0,0,0,0-1.95,1,1,0,0,0,0,1.95Z"/><path class="cls-10" d="M346.83,397.14a1,1,0,0,0,0-1.95,1,1,0,0,0,0,1.95Z"/><path class="cls-10" d="M359.49,393a1,1,0,0,0,0-1.95,1,1,0,0,0,0,1.95Z"/><path class="cls-10" d="M372.43,382.55a1,1,0,0,0,0-1.95,1,1,0,0,0,0,1.95Z"/><path class="cls-10" d="M384.81,372.92a1,1,0,0,0,0-2,1,1,0,0,0,0,2Z"/><path class="cls-10" d="M385.36,391.36a1,1,0,0,0,0-1.95,1,1,0,0,0,0,1.95Z"/><path class="cls-10" d="M370.5,402.09a1,1,0,0,0,0-1.95,1,1,0,0,0,0,1.95Z"/><path class="cls-10" d="M400.78,401.54a1,1,0,0,0,0-2,1,1,0,0,0,0,2Z"/><path class="cls-10" d="M398.3,381.17a1,1,0,0,0,0-1.95,1,1,0,0,0,0,1.95Z"/><path class="cls-10" d="M405.73,390a1,1,0,0,0,0-2,1,1,0,0,0,0,2Z"/><path class="cls-7" d="M1482.42,232.86s5.49,8.16,11.42,5.95a6.37,6.37,0,0,0-.23-3.36c-.61-2,1.27-3.27.93-5.41C1494.54,230,1481.54,231.71,1482.42,232.86Z"/><path class="cls-4" d="M1220.89,92.79c-10.87,3-22.85,11.62-28.57,20.48s-9.65,19-10.24,29.56c-.73,13,3.56,26.45-.4,38.86-1.44,4.51-3.91,8.61-5.78,13-2.92,6.83-4.34,14.49-2.77,21.75s6.45,14,13.37,16.71c9.42,3.67,19.93-.56,30-.42,6.54.09,13.37,2,19.45-.43,7.93-3.17,11.38-12.28,14-20.42"/><path class="cls-6" d="M1343.45,246.16c-21.22-4.95-41.47,4.52-56.59-16.49L1286,228c-9-16.74-17.93-48-14.17-66.55l-43.17,43.36c7.66,10.22,10.51,23.37,8.7,35.84-.88,4.28-8.57,10-28.28,11.65-24.09,2.08-31.65,7.17-36,25.92s-7.58,31.65-7.58,31.65,131.1,17.48,198.93-2.77C1364.34,307.08,1367.86,251.84,1343.45,246.16Z"/><path class="cls-5" d="M1230.82,247.12s30.44,12.84,66-8c0,0,54.29-1.39,63.8,19.24,13.11,28.45,30.85,141.5,30.85,141.5s-114.26-.36-241.79-.36c0,0,14.08-142.39,40.44-146S1230.82,247.12,1230.82,247.12Z"/><path class="cls-6" d="M1220.11,97.68s-12.27,9.86-20,28.12c-5.26,12.47,2.81,17.6-3.24,26.57a114.09,114.09,0,0,1-12.61,15.21,1.77,1.77,0,0,0,.06,2.54,18.21,18.21,0,0,0,7.94,4.34s1.6,3.91.11,6.85c-2.27,4.46,1.18,3,0,8.52-.78,3.74,1.13,4.24,2.1,8.13s.06,8.93.16,11.31,5.85,7.28,17.62,3.5,15.61-4.52,22.52-7.54,14.47-6.3,21.28-19.59,9-34.46,7.78-52.28S1243.66,88.39,1220.11,97.68Z"/><path class="cls-13" d="M1248,167a31.3,31.3,0,0,1,2.59-8,12.89,12.89,0,0,1,6.45-6,8,8,0,0,1,5.68-.31,5.58,5.58,0,0,1,3.29,3.47,9.51,9.51,0,0,1,.19,4.56,23.85,23.85,0,0,1-6.35,12.57,12.42,12.42,0,0,1-5,3.47,6.92,6.92,0,0,1-6.16-.65c-1.62-1.24-2-5.24-.7-9.1"/><path class="cls-12" d="M1247.71,165.59a29,29,0,0,1,2.74-7.87,13.32,13.32,0,0,1,6.84-5.95,9,9,0,0,1,6-.31,5.78,5.78,0,0,1,3.49,3.43,8.69,8.69,0,0,1,.19,4.5,23,23,0,0,1-6.72,12.39,13.32,13.32,0,0,1-5.29,3.42,7.82,7.82,0,0,1-6.53-.64c-1.71-1.22-2.08-5.17-.74-9"/><path class="cls-13" d="M1250.91,166a9,9,0,0,1,.86-2.48,4.22,4.22,0,0,1,2.16-1.87,2.85,2.85,0,0,1,1.89-.1,1.84,1.84,0,0,1,1.1,1.08,2.74,2.74,0,0,1,.06,1.42,7.2,7.2,0,0,1-2.12,3.9,4.13,4.13,0,0,1-1.66,1.08,2.45,2.45,0,0,1-2.06-.21c-.54-.38-.65-1.62-.23-2.82"/><path class="cls-4" d="M1217.51,94.9c-5,5.87-7,14-6.1,21.68s4.36,14.89,9,21c5.8,7.58,13.81,14.53,14.71,24,.72,7.57-3.4,15.1-2.05,22.58,1.09,6,5.46,10.76,8.41,16.08A36.28,36.28,0,0,1,1246,217a19.42,19.42,0,0,0,14.47,18.26l.18.05a34,34,0,0,0,20.74-1.25c7.35-2.89,13.64-8.33,21.33-10.11,6.21-1.44,12.71-.34,19.08-.63a43.8,43.8,0,0,0,19.91-5.86,2.68,2.68,0,0,0,1-.85,2.84,2.84,0,0,0,.08-1.87c-.89-5-.11-10.2.23-15.31,1.1-16.61-3-34.21-14.28-46.42-2.28-2.46-4.88-4.76-6.2-7.84-1.12-2.61-1.21-5.51-1.36-8.34-.62-11.57-1.05-19.65-5.88-30.19s-12.33-16.63-22.75-21.7c-17.3-8.41-62.54-5.31-75,10"/><path class="cls-10" d="M1263.37,312.62c-4.44,0-4.45-6.91,0-6.91s4.46,6.91,0,6.91Z"/><path class="cls-10" d="M1314.66,332.76c-4.45,0-4.46-6.91,0-6.91s4.45,6.91,0,6.91Z"/><path class="cls-10" d="M1261.91,374c-4.45,0-4.45-6.91,0-6.91s4.45,6.91,0,6.91Z"/><path class="cls-10" d="M1232.2,344.76c-4.44,0-4.45-6.91,0-6.91s4.46,6.91,0,6.91Z"/><path class="cls-10" d="M1197.87,319.68c-4.44,0-4.45-6.91,0-6.91s4.46,6.91,0,6.91Z"/><path class="cls-10" d="M1188.62,374c-4.45,0-4.45-6.91,0-6.91s4.45,6.91,0,6.91Z"/><path class="cls-10" d="M1222.46,394c-4.44,0-4.45-6.91,0-6.91s4.46,6.91,0,6.91Z"/><path class="cls-10" d="M1231.72,285.59c-4.45,0-4.46-6.91,0-6.91s4.45,6.91,0,6.91Z"/><path class="cls-10" d="M1194.22,269.52c-4.45,0-4.45-6.91,0-6.91s4.45,6.91,0,6.91Z"/><path class="cls-10" d="M1166.46,336.24c-4.45,0-4.45-6.91,0-6.91s4.45,6.91,0,6.91Z"/><path class="cls-10" d="M1161.59,392.24c-4.45,0-4.45-6.91,0-6.91s4.45,6.91,0,6.91Z"/><path class="cls-10" d="M1173.77,294.85c-4.45,0-4.46-6.91,0-6.91s4.45,6.91,0,6.91Z"/><path class="cls-10" d="M1264.83,269.52c-4.44,0-4.45-6.91,0-6.91s4.46,6.91,0,6.91Z"/><path class="cls-10" d="M1231.72,255.4c-4.45,0-4.46-6.91,0-6.91s4.45,6.91,0,6.91Z"/><path class="cls-10" d="M1284.31,345.49c-4.44,0-4.45-6.91,0-6.91s4.46,6.91,0,6.91Z"/><path class="cls-10" d="M1324.88,365.78c-4.45,0-4.46-6.91,0-6.91s4.45,6.91,0,6.91Z"/><path class="cls-10" d="M1343.51,323c-4.45,0-4.46-6.91,0-6.91s4.45,6.91,0,6.91Z"/><path class="cls-10" d="M1298.92,298.74c-4.44,0-4.45-6.91,0-6.91s4.46,6.91,0,6.91Z"/><path class="cls-10" d="M1293.23,387.51c-4.44,0-4.45-6.91,0-6.91s4.46,6.91,0,6.91Z"/><path class="cls-10" d="M1299.9,258.32c-4.45,0-4.46-6.91,0-6.91s4.45,6.91,0,6.91Z"/><path class="cls-10" d="M1340.8,288c-4.44,0-4.45-6.91,0-6.91s4.46,6.91,0,6.91Z"/><path class="cls-10" d="M1331.55,258.32c-4.45,0-4.45-6.91,0-6.91s4.45,6.91,0,6.91Z"/><path class="cls-10" d="M1359.31,270c-4.45,0-4.45-6.91,0-6.91s4.45,6.91,0,6.91Z"/><path class="cls-14" d="M1203.62,186.11s-5.5,8.15-11.42,5.95a6.46,6.46,0,0,1,.22-3.37c.62-2-1.26-3.27-.92-5.4C1191.5,183.29,1204.5,185,1203.62,186.11Z"/><path class="cls-14" d="M415.28,163.21s-4.95,7.35-10.28,5.36a5.8,5.8,0,0,1,.2-3c.56-1.8-1.13-2.94-.83-4.86C404.37,160.68,416.07,162.17,415.28,163.21Z"/><path class="cls-7" d="M294.45,256.45c0-.16-.7-.41-1.73-.26-1-.15-1.74.1-1.74.26-3.78.58-9.25,1.56-8.67,2.32,0,0,4.14,5.89,10.41,6.23,5.81-.7,10.4-6.23,10.4-6.23C303.7,258,298.24,257,294.45,256.45Z"/><path class="cls-14" d="M645.85,220.75c0-.17-.71-.41-1.74-.26-1-.15-1.74.09-1.74.26-3.78.58-9.25,1.56-8.67,2.32l.34.44a12.89,12.89,0,0,0,18.67,1.38,18.75,18.75,0,0,0,1.8-1.82C655.1,222.31,649.63,221.33,645.85,220.75Z"/><path class="cls-14" d="M1005.52,203.08c.07-.15-.45-.68-1.44-1-.85-.6-1.59-.7-1.66-.56-3.64-1.19-9-2.79-8.78-1.85,0,0,0,.2.1.54a12.91,12.91,0,0,0,16,9.7,19.76,19.76,0,0,0,2.43-.81C1013.05,208.66,1008.63,205.31,1005.52,203.08Z"/><path class="cls-8" d="M406.5,86.9s68.57,26.71,71.67,65.75,13.17-36.79,13.17-36.79S481,87.28,479.05,85.74s-30.52-15.45-30.52-15.45Z"/></g></svg>