<?xml version="1.0" encoding="UTF-8"?><svg id="Calque_1" xmlns="http://www.w3.org/2000/svg" viewBox="0 0 257.94 244.47"><path d="M74.82,118.22c-3.58-1.01-3.68-.38-4.13-.53-.54-.17-4.87-5.91-4.87-5.91,0,0-12.89-16.84-13.55-17.77l-4.07-21.79-12.21-.09s5.1,23.53,5.6,24.69c.5,1.16,20.93,21.73,22.66,23.6,0,0,1.12,3.04,1.89,4.92.77,1.88,2.42,3.25,2.73,3.74.05.07,1.17,1.64,3.14,3.16,1.69,1.31.8-.73.8-.73,0,0-2.62-3.01-2.32-3.19.24-.14,1.56,1.6,3.42,3.07.48.38.95.75,1.39,1.09,1.15.89,2.12.42,1.1-.71-.36-.4-.98-1.04-1.5-1.44-.56-.43-.91-1-1.32-1.43-.8-.86-1.4-1.47-1.34-1.49.08-.02.05-.31.58.08.63.46,1.7,1.75,2.69,2.36.56.35,1.67,1.14,1.67,1.14,0,0,1.95.88,2.06.78.56-.52-.56-1.5-1.39-1.87-.38-.51-1.58-1.31-1.58-1.31,0,0-1.99-2.17-1.64-2.48.15-.13,1.55,1.05,3.14,1.98,1.48.87,3.14,1.5,3.39,1.23.43-.46-1.08-1.59-1.08-1.59,0,0-1.11-.74-1.46-1.01-.41-.32-1.53-1.38-1.53-1.38,0,0-3.73-3.87-3.37-4.13.35-.26,1.51-.62,1.84-.46.33.16.74.75,1.06.91.33.16.92.08,1.19-.31.27-.39-.94-1.74-.94-1.74,0,0-1-1.09-2.03-1.39Z" fill="#ffa17e"/><path d="M54.87,228.23s.11,7.52.11,7.53c-.16.95-1.34,3.31-1.34,4.18,0,3.26,14.81-2.77,11.49-4.21-.3-.13-1.87-1.12-1.97-2.23-.15-1.71-.54-5.17-.54-5.17l-7.75-.11Z" fill="#f49d89"/><path d="M65.1,235.7s-3.48,1-5.26,1.25c-1.78.25-4.13-1.85-5.39-1.28-1.39.62-1.25,6.77-1.25,6.77,0,0,17.78.25,23.8-.09,2.17-.12-4.8-4.32-11.91-6.64Z" fill="#e8364b"/><path d="M21.92,228.23s-.43,7.52-.44,7.53c-.16.95-.79,3.31-.79,4.18,0,3.26,14.81-2.77,11.49-4.21-.3-.13-2.34-1.86-2.44-2.97-.15-1.71-.07-4.43-.07-4.43l-7.75-.11Z" fill="#f49d89"/><path d="M32.14,235.7s-3.48,1-5.26,1.25c-1.78.25-4.13-1.85-5.39-1.28-1.39.62-1.35,6.68-1.35,6.68,0,0,19.86.21,24.7,0,2.18-.1-5.6-4.32-12.7-6.64Z" fill="#e8364b"/><path d="M45.38,119.72l6.26,2.64,13.17,61.58-.53,46.17-10.56.24s-4.91-40.38-4.91-43.51-22.75-54.77-22.75-54.77l19.32-12.35Z" fill="#ff9a00"/><path d="M40.55,123.11s-4.61,47.45-4.61,55.45-3.74,52.76-3.74,52.76l-10.58-.06s-.76-13.64-1.9-33.72c-.18-3.14.23-9.49,0-12.74-1.65-23.41-4.9-45.45-3.35-54.18.25-1.41.72-5.08,1.64-6.01,6.93-7.02,22.55-1.5,22.55-1.5Z" fill="#ff9a00"/><path d="M53.46,85.67l-12.81-.84s-.63-11.21-.63-16.55c0-6.49-2.02-16.05-1.23-15.87,2.22.5,6.04,2.5,7.82,4.92,6.15,8.38,6.85,28.34,6.85,28.34Z" fill="#e8364b"/><path d="M23.12,52.15s-7.3.99-9.22,2.38c-2.17,1.56-4.57,5.04-4.57,5.04,0,0,4.69,41.99,4.71,48.97.01,5.4-.92,18.28-.92,18.28,0,0,30.35,1.57,40.61-2.4,0,0-3.24-15.78-3.24-19.92s-3.88-41.81-4.76-44.44c-.8-2.39-2.26-6.68-7.21-7.73-4.95-1.06-15.39-.18-15.39-.18Z" fill="#e8364b"/><rect x="40.9" y="81.62" width="16.58" height="13.42" transform="translate(7.76 -3.89) rotate(4.92)" fill="#fff"/><path id="Fill-53" d="M51.13,92.26c.21-.02.55-.78.55-.78,0,0,.18-.02.44-.09.26-.07.53-.79.69-1.05.16-.26.38.02,1.71-.42,1.33-.44,1.03-2.74,1.03-2.74,0,0-.58-2.24-1.99-2.15-1.4.1-1.5.44-1.74.26-.29-.21-.55-.56-.91-.67-.09-.03-.17-.04-.26-.04-.09,0-.23.1-.3.08-.09-.02-.22-.2-.29-.26-.11-.09-.22-.17-.35-.21-.21-.07-.47,0-.68.02-.3.03-.6.06-.9.11-.28.04-.54.09-.7.34-.11.18-.22.38-.32.57,0,0-.48-.1-.7.25-.22.36-.21.83-.63.96-.42.13-1.41-.12-1.96.68-.55.8-.84,1.72-.62,2.5.09.8.71,1.55,1.52,2.08.81.53,1.63-.08,2.07-.11.43-.04.6.41.94.65.34.24.74-.03.74-.03.03-.02.59.47.67.5.09.03.2.02.3,0,.58-.08,1.12-.38,1.69-.44" fill="#fe959f" fill-rule="evenodd"/><path id="Fill-55" d="M48.51,90.25c.74-.26,1.55-.48,2.33-.62.41-.08.82-.13,1.23-.14.39,0,.78.09,1.17.05.67-.08,1.42-.26,1.63-.98.12-.42.06-.83,0-1.25-.06-.34-.34-1.69-1.42-1.59-.51.05-.98.14-1.45.37-.88.45-1.84.6-2.8.75-.8.12-1.61.2-2.43.25-.91.05-1.97.04-2.66.74-.17.18-.3.4-.34.64-.05.33.08.63.29.88-.26.92.6,1.76,1.49,1.72.68-.02,1.39-.3,2.03-.51.31-.1.63-.2.94-.31" fill="#e8364b" fill-rule="evenodd"/><path d="M35.12,51.96s-1.8-6.56-1.26-9.84c.54-3.28-8.75-1.14-8.75-1.14l-1.81,11.59" fill="#ffa17e"/><path d="M23.59,24.59c-.26-.09-2.1,13.2,1.39,16.86,3.49,3.66,10.3,4.85,12.74,1.97,2.7-3.19,2.57-17.47-2.87-21.23-5.43-3.76-11.27,2.4-11.27,2.4Z" fill="#ffa17e"/><path d="M32.79,15.07c-4.2.83-6.92,3.33-7.92,4.39-1.91.22-4.5,1.24-7.17,5.55-3.29,5.3-.86,11.17,2.97,14.05,3.83,2.88,3.78,6.19,3.78,6.19l.6-1.71c.45-1.3.63-2.69.48-4.05-.09-.82-.27-1.71-.62-2.44-.92-1.92,1.98-3.2,2.79-4.8.63-1.23.66-4.05,1.64-6.09l1.18-1.55s2.72-2.06,5.38-1.48c2.66.58,2.28-9.14-3.11-8.07Z" fill="#5b2d0f"/><path d="M27.52,34.63c.03,1.62-.73,2.95-1.69,2.97-.96.02-1.77-1.29-1.79-2.91-.03-1.62.73-2.95,1.69-2.97.96-.02,1.77,1.29,1.79,2.91Z" fill="#ffa17e"/><path d="M12.05,57.5c2.46-.07,4.63,15.8,3.07,17.36-1.56,1.57-1.85,21.11-1.85,21.11l23.18-.56h0c.45-.29,5.31-3.48,6-4.18.73-.73,4.27-.37,5.2.64.94,1.01-2.08.18-2.91.73-.83.55.62,1.92.62,1.92,0,0,5.87.83,7.02-.36,1.15-1.19,4.2-3.2,4.62-2.01.21.61-1.36,2.47-2.25,3.25,1.11-.81,2.44-1.68,2.89-1.53.83.27.49,1.31.03,1.62-.45.3-5.11,3.79-5.84,4.04-.71.24-11.56.5-13.43.91,0,0-30.57,6.82-32.31,6.39-1.52-.37-3.05-9.95-3.05-17.29s1.32-31.83,9-32.04Z" fill="#ffa17e"/><path d="M15.24,53.88s-4.28.96-8.69,5.82c-4.02,4.42-6.55,29.17-6.55,29.17l13.87,2.2,1.11-11.97,3.71-5.48-3.44-19.74Z" fill="#e8364b"/><rect x="87.74" y="0" width="67.12" height="34.45" rx="9.74" ry="9.74" transform="translate(242.6 34.45) rotate(180)" fill="#fe959f"/><polygon points="140.88 28.19 149.63 43.41 124.62 28.19 140.88 28.19" fill="#fe959f"/><rect x="55.32" y="23.68" width="54.14" height="27.79" rx="7.85" ry="7.85" fill="#e8364b"/><polygon points="66.1 50.08 60.83 59.03 76.17 50.08 66.1 50.08" fill="#e8364b"/><path d="M183.56,33.2c-1.05.22-10.56.33-10.56,7.25s.14,9.67-1.65,12.69c-1.79,3.03-2.29,15.82,5.21,12.18,2.01-.97.62,6.24.62,6.24,0,0,12.87,5.78,16.44,4.26,3.58-1.51,9.08,1.93,9.08,1.93,0,0,5.47-8.75,0-14.22-5.47-5.47-4.81-5.03-4.81-11.22s-1.1-4.4-3.71-8.11c-2.61-3.71-4.15-12.36-10.61-11Z" fill="#302019"/><polygon points="209.08 143.58 204.63 87.92 201.11 88.96 208 143.58 209.08 143.58" fill="#e8364b"/><path d="M180.96,231.89s-.04-2.98.73-5.44c.77-2.46,5.66-26.13,3.66-38.58-.57-3.53-1.27-20.55-3.01-23.43-4.39-7.28-11.54,2.15-11.54,5.82,0,0,4.99,54.4,2.54,60.71" fill="#7d462a"/><path d="M199.62,232.71s-.57-1.52.19-3.98c.77-2.46,5.14-28.41,3.14-40.86-.57-3.53-1.27-20.55-3.01-23.43-4.39-7.28-11.54,2.15-11.54,5.82,0,0,6.04,54.79,3.59,61.09" fill="#7d462a"/><path d="M201.86,175.58c-2.43-.43-7.49-1.31-13.17-2.27.23,2.51.57,6.4.94,10.96,2.69.4,8.7,1.13,12.99.38-.21-2.46-.45-5.8-.76-9.07Z" fill="#7d462a"/><path d="M183.95,172.52c-4.66-.77-9.37-1.52-13.13-2.06.1,1.08.61,6.47,1.18,13.55,1.29.37,2.92.73,4.94,1.03,3.25.47,6.08.22,8.09-.14-.28-3.25-.62-8.14-1.09-12.37Z" fill="#7d462a"/><path d="M206.34,180.83v-30.36c0-7.99-3.07-29-7.99-39.46-4.92-10.45-25.21,0-25.21,0,0,0-4.63,10.17-5.86,24.92l-1.18,45.74c14.62,2.27,26.06,2.45,40.24-.84Z" fill="#ff9a00"/><path d="M206.34,154.95l-7.27-2.68-.37,9.49s.12,4.38,7.63,6.99v-13.79Z" fill="#091a38" opacity=".38"/><path d="M169.47,66.85c-.48.86-3.42,8.12-2.65,15.83,1.14,11.52,6.16,26.16,5.05,30.76-1.84,7.69,25.84,8.84,27.13-.87.46-3.46-.44-12.1.38-19.92,1.29-12.42,4.24-24.65,3.7-24.98-12.12-7.43-32.47-2.84-33.61-.82Z" fill="#ff9a00"/><path d="M203.08,67.67s2.64-.15,5.06,12.53c2.42,12.68-1.63,28.24-4.33,29.63-2.7,1.38-27.26-1.73-27.26-1.73l.81-8.88s18.93-1.02,21.01-3.09c.51-.51-.03-2.97.41-5.66,1.34-8.27,4.3-22.8,4.3-22.8Z" fill="#ff9a00"/><path d="M199.39,94.91s2.73-1.49,3.8-2.57c1.08-1.08,3.15-2.46,3.15-1.61s-1,1.96-1,1.96c0,0,3.73-2.08,4.15-1.65.42.42.61,3.07,0,5.92-.61,2.84-8.99,4.11-8.99,4.11l-1.12-6.15Z" fill="#7d462a"/><path d="M202.52,66.87c-6.19,19.71-4.3,39.73-1.89,80.06l-1.16.1c-4.27-40.93-6.99-60.98-1.52-81.5l4.57,1.35Z" fill="#e8364b"/><path d="M165.14,108.32c8.73,2.38,28.13-2.31,35.97-3.92l-1.84-10.14s-23,3.91-25.8,2.3c-1.38-.8-4.4-8.07-5.04-15.21-.66-7.31,1.05-14.49,1.05-14.49,0,0-7.85,7.06-7.85,25.04,0,13.72-.32,15.38,3.52,16.43Z" fill="#ff9a00"/><path d="M169.45,88.33s1.91,1.99,3.41,3.48c1.5,1.5,3.7,5.34,3.7,5.34,0,0-3.11.41-4.19.41s-4.38-2.31-5.61-2.31-.69-1.77.77-1.31c1.46.46,2.92.77,2.92.77,0,0-3.27-2.65-4.77-4.15-1.5-1.5-.07-2.37,1.15-1.15,1.23,1.23,2.61,1.99,2.61,1.99,0,0-4.3-4.46-3.54-5.23.77-.77,3.54,2.14,3.54,2.14Z" fill="#7d462a"/><polyline points="186.52 64.22 186.52 48.19 180.97 53.01 179.48 63.91" fill="#7d462a"/><path d="M179.72,36.68s-3.67-1.83-6.07,7.08c-2.58,9.6,2.19,16.34,5.23,16.29,4.55-.08,9.61-4.82,11.8-10.89,2.19-6.07-7.36-13.44-10.96-12.48Z" fill="#7d462a"/><path d="M205.06,66.89c-.61-1.23-1.51-2.27-2.37-3.36-2.76-3.51-3.56-4.33-2.76-10.47.53-4.08.77-6.54-2.46-11.24-3.16-4.6-2.59-10.06-12.56-8.92-.08,0-10.72-1.13-7.91,4.03,0,0,1.83-.76,4.31,2.4,2.48,3.16,1.4,3.88,3.6,5.46,3.79,2.71,2.14,5.74,1.09,8.93-1.5,4.56.51,7.55-2.7,13.24-2.13,3.76,2.04,10.75,7.13,12.87,14.92,6.22,17.38-7.42,14.62-12.95Z" fill="#302019"/><path d="M245.53,93.05c-.61-1.23-1.51-2.27-2.37-3.36-2.76-3.51-3.56-4.33-2.76-10.47.53-4.08.77-6.54-2.46-11.24-3.16-4.6-2.59-10.06-12.56-8.92-.08,0-10.37-2.03-9.15,7,0,0,3.07-3.73,5.55-.57,2.48,3.16,1.4,3.88,3.6,5.46,3.79,2.71,2.14,5.74,1.09,8.93-1.5,4.56.51,7.55-2.7,13.24-2.13,3.76,2.04,10.75,7.13,12.87,14.92,6.22,17.38-7.42,14.62-12.95Z" fill="#302019"/><path d="M201.72,160.36h-.28c-1.5,0-2.71-1.23-2.68-2.74l.29-14.56h4.17l1.18,14.39c.13,1.56-1.11,2.9-2.67,2.9Z" fill="#732f0e"/><path d="M206.59,161.46h-.74c-4.26.16-7.14-1.81-7.06-3.41l.75-14.98h8.25c1.6,0,2.98,1.13,3.3,2.7l2.56,12.6c.34,1.66-2.92,3.08-7.06,3.08Z" fill="#e8364b"/><path d="M198.76,157.63l.29-14.56h1.31c1.62,0,2.96,1.24,3.09,2.85l.94,11.54c.31,3.75-5.71,3.93-5.64.16Z" fill="#e8364b"/><path id="Fill-45" d="M182.75,239.52c-1.3,1.47-3.95,1.21-8.05,1.15-4.1-.06-11.05.55-14.17.38-3.12-.16-3.14-2.47-1.58-2.9,1.56-.45,4.36-1.79,6.4-2.97,2.03-1.18,7.56-3.42,7.82-4.4,0,0,3.93.69,7.9,0,.15.6.94,1.71,1.16,2.31,1.33,3.56,1.19,5.64.51,6.43" fill="#fe959f" fill-rule="evenodd"/><path id="Fill-45-2" d="M201.41,239.52c-1.3,1.47-3.95,1.21-8.05,1.15-4.1-.06-11.05.55-14.17.38-3.12-.16-3.14-2.47-1.58-2.9,1.56-.45,4.36-1.79,6.4-2.97,2.03-1.18,7.56-3.42,7.82-4.4,0,0,3.93.69,7.9,0,.15.6.94,1.71,1.16,2.31,1.33,3.56,1.19,5.64.51,6.43" fill="#fe959f" fill-rule="evenodd"/><path d="M139.27,237.66s-1.04,2.03-3.34,2.53c-1.45.32-2.69,1.07-3.46,2.13-.65.89-.02,2.15,1.09,2.15h11.68c.99,0,1.77-.86,1.67-1.85-.09-.87-.18-1.87-.22-2.64-.09-1.69-1.78-3.04-1.78-3.04l-5.64.73Z" fill="#e8364b"/><path d="M136.62,208.22c-.49,8.88.72,29.06.72,29.06,0,0,.81,2.25,5.95,2.79,2.75.29,5.23-.43,5.23-.43,1.04-4.78,2-9.34,2.88-13.68,6.35-31.14,8.82-50.37,8.82-50.37l-25.05-5.82s1.1,17.58,1.42,29.56c.1,3.74.13,6.94.02,8.89Z" fill="#ff9a00"/><path d="M160.37,129.51s9.69-4.41,17.03-.55c7.33,3.86,2.85,35.72-7.64,38.81h0s-19.65,6.28-9.39-38.26Z" fill="#fff"/><path d="M132.33,177.19s.06-.08.09-.12c.23-.35.62-1.23.91-1.91h0c-1.95-9.55-.64-15.07-.64-15.07-.23-2.78-1.89-22.19,1.93-31.19,1.84-4.34,4.93-4.35,4.93-4.35,0,0-.72,6.93-.25,10.66.44,3.42-2.82,35.48-3.36,40.72,0,0,.02,0,.02,0l-.15,5.33-1.56-.37c-.07-.02-.13-.04-.2-.07h0c-.19-.09-.36-.23-.48-.42l-1.26-2c-.24-.38-.22-.86.02-1.22h0ZM135.3,176.33l-.07-.04.03.04s.02,0,.03,0Z" fill="#a55e3f"/><path d="M159.59,237.66s-1.04,2.03-3.34,2.53c-1.45.32-2.69,1.07-3.46,2.13-.65.89-.02,2.15,1.08,2.15h11.68c.99,0,1.77-.86,1.67-1.85-.09-.87-.18-1.87-.22-2.64-.09-1.69-1.78-3.04-1.78-3.04l-5.64.73Z" fill="#e8364b"/><path d="M151.47,88.97c2.5,0,5.63,1.08,7.32,2.71,1.79,1.74,3.65,1.83,4.97,3.88,1.38,2.14,2.24,4.36,1.54,7.37-.76,3.29-.6,6.46-2.67,8.88-1.02,1.19-2.69,1.33-3.85,2.43-2.13,2.01-4.55,2.65-7.32,2.65-5.21,0-8.45-3.09-11.12-6.93-2.14-3.08-1.71-5.16-2.21-7.79-1.58-8.29,5.34-13.19,13.33-13.19Z" fill="#302019"/><path d="M144.13,122.41l9.96,5.09,2-6.91s-1.27-2.39-1.84-6.31c-.24-1.65-.36-3.56-.21-5.69l-8.11,4.15s.19.75.32,1.86c.14,1.2.2,2.81-.14,4.34-.29,1.32-.88,2.57-1.97,3.46Z" fill="#a55e3f"/><path d="M167.2,172.47s1.89,25.09,1.47,65.09c0,0-2.28,1.2-5.04,1.47-5.14.51-6.4-1.53-6.4-1.53,0,0-5.26-19.52-6.57-28.31-1.21-8.11-9.17-37.37-9.17-37.37l25.71.65Z" fill="#ff9a00"/><path d="M137.55,123.11c.89-.41,3.67-1.54,7.85-2.23-.04,1.43.33,2.78,2.84,3.11,3.34.44,6.33-1.85,7.84-3.4,0,0,0,0,0,0h0s2.36.25,5.1.85c1.37.3,2.85.69,4.17,1.18,1.61.59,2.99,1.33,3.73,2.23,0,0,0,0,0,0h0c2.57,3.16,6.8,12.66,6.8,12.66,0,0-7.04,2.61-8.82,4.13l-.04.34-1.1,9.15,3.28,18.23c.03.16.04.32.04.48,0,1.22-.83,2.32-2.06,2.61,0,0-.28.05-.8.12-3.48.49-17.61,2.17-28.69-.83-2.49-.68-4.13-3.05-3.93-5.63l1.81-22.66c-.96-.17-2.08-.34-2.98-.44-.75-.08-1.36-.11-1.61-.03,0,0,1.25-17.7,6.54-19.88Z" fill="#fe959f"/><path d="M168.63,166.13l-.85-4.74c-14.44-20.89-15.53-24.64-9.04-34.02,1.86-2.69,5.24-4.37,6.62-4.75-1.32-.49-2.8-.88-4.17-1.18-1.37.64-2.63,1.28-3.61,2.12-19.82,17.16,11.05,42.56,11.05,42.56Z" fill="#fff"/><path d="M151.77,139.31c5.65.39,6.44,6.18,6.44,6.18,0,0,9.49.86,10.89,1.48,0,0-.77-2.08-2.14-5.23,1.24-1.22,5.3-3.03,7.99-3.86,2.05,5.24,2.84,10.42,1.69,15.42-.12.53-.59.91-1.13.93-3.02.14-13,.09-20.3-5.96l-.13-.03c-1.75-.1-3.39-1.84-4.02-4.12-.63-2.28-.68-1.59-1.16-3.19-.48-1.61,1.87-1.62,1.87-1.62Z" fill="#a55e3f"/><path d="M145.67,116.16s10.19,1.24,10.41-5.94c.22-7.18-4.03-11.83-6.87-11.78-5.65.11-6.59,2.39-7.24,4.77-.66,2.38-.99,12.44,3.7,12.95Z" fill="#a55e3f"/><path d="M148.4,112.02s-.22.9-2.45.73c0,0-1.87-.14-1.81-1.12,0,0,1.83-.68,4.26.39Z" fill="#fff"/><path d="M146.69,98.51s8.71,0,6.71,5.98c-1.26,3.77,2.93,4.36,2.93,4.36l2.02-6.04-1.26-4.71-10.4.42Z" fill="#302019"/><path d="M42.93,67.64c-.11-.78-.27-1.49-.5-2.09-.65-1.76-1.78-2.71-3.36-2.5s-2.39,1.41-2.57,3.24c-.06.66-.04,1.4.07,2.21.05.36.11.7.2,1.03,0,0,0,0,.01,0,0,0,0,0,0,.01.05.4,1.33.3,1.6.08.45.43.98.75,1.59.95l.11.04.1-.07c.53-.35.96-.8,1.28-1.33.31.15,1.51-.05,1.54-.43,0-.03,0-.05,0-.08h0c0-.34-.04-.7-.08-1.05ZM40.14,70.45l-.06.04-.07-.02c-.6-.19-1.13-.51-1.57-.94,0-.02-.01-.04-.03-.06-.35-.35-.65-.77-.88-1.26-.39-.82-.46-1.54-.46-1.57v-.11s.11-.03.11-.03c.65-.16,1.18-.48,1.52-.72.36-.26.57-.49.58-.5l.08-.09.11.07s.29.18.69.33c.39.15.98.32,1.65.29h.12s.02.11.02.11c0,.03.13.74-.03,1.63-.09.53-.26,1.02-.51,1.45-.02.03-.02.05-.02.07-.31.53-.73.98-1.26,1.32Z" fill="#fff"/><path d="M201.18,195.64c1.39,3.57,8.54,10.91,15.9,17.84,8.79,8.28,17.9,15.98,17.9,15.98,0,0,4.16,1.27,2.35-4.85,0,0-10.04-18.44-14.35-23.88-1.23-1.55-2.5-2.97-3.7-4.21-2.98-3.09-5.45-5.03-5.45-5.03,0,0,.56-.91,1.48-2.48,4.48-7.67,17.34-31.16,13.37-41.59-4.78-12.56-16.66-18.22-16.66-18.22,0,0-3.77,15.9-6.95,32.24-2.93,15.04-5.35,30.45-3.89,34.2Z" fill="#e8364b"/><path d="M206.77,152.93s10.42-26.14,9.87-26.9c-.34-.47-1-14.73-1.45-25.45-.27-6.52-.47-11.73-.47-11.73,0,0-4.62,1.64-5.72,12.87-.21,2.17-.34,4.21-.41,6.11-.31,7.97.27,13.58-.92,16.23-1.47,3.29-.95,18.3-1.4,19.81-.45,1.51-2.8,5.29.51,9.05Z" fill="#502914"/><path d="M215.01,135.51l.83-3.06c5.85,2.53,23.04-1.17,23.04-1.17,0,0,8.02,11.45,6.41,23.94-2.18,16.89-9.76,26.14-11.63,33.66-.67,2.73-1.2,4.66-1.41,5.43,0,0,0,0,0,0-.06.24-.01.47.08.7.79,1.96,1.39,3.97,1.82,6,4.25,19.93-7.4,41.94-7.4,41.94l-1.99-1.17s-.78-26.55-2.84-38.54c-.35-2.03-.74-3.65-1.16-4.64-1.25-2.9-2.12-7.46-2.73-12.82-1.16-10.13-3.01-50.27-3.01-50.27Z" fill="#e8364b"/><path d="M241.39,138.76c2.38-3.6-5.78-18.29-5.49-19.68.57-2.73,1.91-5.76,3.23-8.48,1.32-2.72,2.61-5.13,3.07-6.65-.42-.59-.84-1.14-1.22-1.67-.59-.8-1.09-1.54-1.42-2.23-.36-.75-.52-1.45-.34-2.13.13-.51.32-1.02.53-1.52.1-.24.21-.47.33-.7,1.21-2.43,3.03-4.41,3.03-4.41-2.87-1.84-7.4-2.78-7.44-2.64-.34-.11-.63-.19-.87-.25-.17-.04-.34-.08-.5-.12-.57-.14-1.14-.25-1.64-.35-1.03-1.03-2.26-4.87-1.89-10.51l-.5.07-8.36,1.13s1.18,2.98,1.04,5.43c-.11,1.92-1.49,3.37-1.91,3.76-.65.05-1.04.09-1.04.09,0,0,0,0,0,0,0,0,0,.01-.01.02-.47.04-.9.08-1.3.12,0,0-.03,0-.1,0-.73.08-1.34.17-1.84.26-.04,0-.07.02-.1.02-1.43.26-1.91.51-1.91.51v.02c.07,2.64-4.18,7.24-3.89,13.21.01.22,2.18,15.85,2.17,16.08-.17,4.45-2.35,16.98-2.35,16.98-1.99,3.88,29.47,7.31,30.75,3.61Z" fill="#502914"/><path d="M220.76,82.54c3.58,1.79,10.37-.85,10.8-7.66.43-6.82,2.12-11.3-4.84-12.13-6.96-.83-8.48,1.68-9.18,3.93-.7,2.24-2.74,12.88,3.22,15.87Z" fill="#502914"/><path d="M213.69,243.58h16.96s.63-2.71-.48-4.55c-.99-1.63-.38-2.73.05-4.12-.77.31-1.69.82-2.78.75-.85-.05-2.17-.67-2.95-1.12-.73.83-3.43,4.61-4.4,5.31-1.11.8-6.05.51-6.39,3.72Z" fill="#fe959f"/><path d="M238.9,243.18l6.38-15.72s-2.27-1.61-4.39-1.27c-1.88.3-2.6-.4-3.57-1.58,0,.83-.11,1.86-.58,2.85-.36.76-1.05,1.45-1.77,2,.5.99,2.6,5.22,2.89,6.39.32,1.33-1.8,5.8,1.04,7.32Z" fill="#fe959f"/><path d="M212.99,118.17c0-.13-.66-5.04-1.26-9.4-1.31-.14-2.9-.45-4.28-1.1.07-1.9,1.34-18.18,8.19-19.1.33-.09.66-.16.99-.23.03,0,.07-.01.1-.02.84-.16,1.58-.24,1.84-.26.06,0,.1,0,.1,0,0,0-2.04,5.79-2,6.47.04.68,6.59.91,10.9.96,4.28.06,6.68-7.09,6.72-7.21.17.04.34.08.5.12.24.06,5.96.93,8.31,2.89,0,0-1.81,1.98-3.03,4.41-.12.23-.22.47-.33.7-.22.5-.4,1.01-.53,1.52-.17.68-.02,1.38.34,2.13.33.69.83,1.43,1.42,2.23.38.52.8,1.08,1.22,1.66-.16.52-.41,1.15-.73,1.86h0c-.61,1.36,2.3,29.35-.07,32.95-.38,1.09-3.39,1.56-7.4,1.59-9.55.05-24.75-2.46-23.35-5.19,0,0,2.18-12.53,2.35-16.98Z" fill="#fe959f"/><path d="M238.12,133.5l1.72,2.98c11.04-4.37,18.07-14.22,18.07-14.22.39-5.59-2.23-12.02-5.37-17.57-.52-.92-1.05-1.81-1.59-2.67-2.22,1.89-5.31,4.37-8.26,6.18.46.76-3.15,1.93-2.55,2.9,2.45,4.04,8.17,7.75,8.58,8.16.68.68-10.6,14.26-10.6,14.26Z" fill="#502914"/><path d="M241.77,115.34c5.43-.36,11.5-10.73,11.5-10.73-4.24-7.5-10.17-13.31-10.17-13.31-15.06,5.75-3.79,22.42-1.33,24.04Z" fill="#fe959f"/><path d="M238.12,133.5s-.93-.13-1.53-.66c-.61-.53-2.53-2.02-2.65-1.56-.11.46,1.4,1.18.6,1.3-.79.11-2.04-.42-3.29-.23-1.25.19-3.17,3.06-2.58,3.4.59.34,2.75-.79,3.31-.4.57.4,4.61,2.61,7.84,1.13,3.23-1.48-1.72-2.98-1.72-2.98Z" fill="#502914"/><path d="M221.49,59.51s-5.36.64-5.93,7.6l8.54.78,2.28-7.06-4.89-1.32Z" fill="#302019"/><path d="M229.49,60.07s5.36.64,5.93,7.6l-8.54.78-2.28-7.06,4.89-1.32Z" fill="#302019"/><rect x="34.77" y="101.56" width="74.44" height="4.75" rx="2.37" ry="2.37" fill="#77122a"/><rect x="58.25" y="237.53" width="27.49" height="5.43" rx="2.72" ry="2.72" fill="#77122a"/><rect x="70.45" y="105.64" width="3.09" height="134.06" fill="#77122a"/><polygon points="84.34 101.48 95.61 101.48 98.39 86.52 87.13 86.52 84.34 101.48" fill="#ff9a00"/><polygon points="102.41 101.48 90.13 101.48 87.09 86.52 99.38 86.52 102.41 101.48" fill="#e8364b"/><path d="M99.03,95.44c-.08-.93-.23-1.77-.46-2.5-.66-2.11-1.94-3.3-3.81-3.15s-2.91,1.51-3.22,3.66c-.11.77-.13,1.65-.05,2.61.04.42.09.83.17,1.23,0,0,.01,0,.02,0,0,0,0,0,0,.01.04.47,1.54.43,1.88.19.5.54,1.11.95,1.82,1.21l.13.05.12-.07c.65-.38,1.18-.88,1.58-1.49.36.2,1.78.03,1.84-.42,0-.03,0-.06,0-.09h0c.01-.41,0-.82-.04-1.25ZM95.58,98.59l-.07.04-.08-.03c-.7-.26-1.3-.67-1.79-1.2,0-.02-.01-.05-.04-.08-.39-.43-.71-.95-.96-1.53-.41-.99-.45-1.84-.45-1.87v-.14s.14-.03.14-.03c.78-.15,1.42-.49,1.83-.76.44-.29.7-.54.71-.56l.1-.1.12.09s.33.22.79.43c.44.19,1.14.43,1.93.44h.15s.02.14.02.14c0,.04.11.88-.13,1.92-.14.62-.37,1.18-.69,1.67-.02.03-.03.06-.02.08-.4.61-.92,1.11-1.56,1.48Z" fill="#fff"/><path d="M111.17,18.89v-.5c0-.58.11-1.06.32-1.44s.58-.78,1.1-1.19c.63-.49,1.03-.88,1.21-1.15s.27-.6.27-.98c0-.44-.15-.78-.44-1.02s-.72-.35-1.27-.35c-.5,0-.96.07-1.39.21s-.84.31-1.24.51l-.66-1.39c1.07-.59,2.21-.89,3.43-.89,1.03,0,1.85.25,2.45.76s.91,1.2.91,2.09c0,.39-.06.74-.17,1.05s-.29.6-.52.88-.64.64-1.21,1.09c-.49.38-.82.7-.98.95s-.25.59-.25,1.02v.35h-1.54ZM110.85,21.4c0-.79.39-1.19,1.16-1.19.38,0,.67.1.87.31s.3.5.3.88-.1.67-.3.89-.49.33-.86.33-.66-.11-.86-.32-.3-.51-.3-.89Z" fill="#fff"/><path d="M120.39,18.89v-.5c0-.58.11-1.06.32-1.44s.58-.78,1.1-1.19c.63-.49,1.03-.88,1.21-1.15s.27-.6.27-.98c0-.44-.15-.78-.44-1.02s-.72-.35-1.27-.35c-.5,0-.96.07-1.39.21s-.84.31-1.24.51l-.66-1.39c1.07-.59,2.21-.89,3.43-.89,1.03,0,1.85.25,2.45.76s.91,1.2.91,2.09c0,.39-.06.74-.17,1.05s-.29.6-.52.88-.64.64-1.21,1.09c-.49.38-.82.7-.98.95s-.25.59-.25,1.02v.35h-1.54ZM120.07,21.4c0-.79.39-1.19,1.16-1.19.38,0,.67.1.87.31s.3.5.3.88-.1.67-.3.89-.49.33-.86.33-.66-.11-.86-.32-.3-.51-.3-.89Z" fill="#fff"/><path d="M129.62,18.89v-.5c0-.58.11-1.06.32-1.44s.58-.78,1.1-1.19c.63-.49,1.03-.88,1.21-1.15s.27-.6.27-.98c0-.44-.15-.78-.44-1.02s-.72-.35-1.27-.35c-.5,0-.96.07-1.39.21s-.84.31-1.24.51l-.66-1.39c1.07-.59,2.21-.89,3.43-.89,1.03,0,1.85.25,2.45.76s.91,1.2.91,2.09c0,.39-.06.74-.17,1.05s-.29.6-.52.88-.64.64-1.21,1.09c-.49.38-.82.7-.98.95s-.25.59-.25,1.02v.35h-1.54ZM129.29,21.4c0-.79.39-1.19,1.16-1.19.38,0,.67.1.87.31s.3.5.3.88-.1.67-.3.89-.49.33-.86.33-.66-.11-.86-.32-.3-.51-.3-.89Z" fill="#fff"/><path d="M87.8,39.79c0,3.29-2.66,5.95-5.95,5.95s-5.95-2.66-5.95-5.95,3.63-8.28,5.95-10.61c.22-.22,5.95,7.32,5.95,10.61Z" fill="#fff"/></svg>