<?xml version="1.0" encoding="UTF-8"?>
<svg width="58px" height="52px" viewBox="0 0 58 52" version="1.1" xmlns="http://www.w3.org/2000/svg" xmlns:xlink="http://www.w3.org/1999/xlink">
    <title>Group 8</title>
    <defs>
        <polygon id="path-1" points="0 0 58 0 58 52 0 52"></polygon>
    </defs>
    <g id="Page-1" stroke="none" stroke-width="1" fill="none" fill-rule="evenodd">
        <g id="HOME-RE" transform="translate(-641.000000, -507.000000)">
            <g id="Group-8" transform="translate(641.000000, 507.000000)">
                <path d="M38.4780577,6.98206898 C37.6927867,6.27410443 33.6842235,7.49126358 33.6842235,7.49126358 C33.6842235,7.49126358 33.0265591,6.88268401 31.8830081,6.10600886 C30.7406842,5.32810674 27.1026708,6.72808516 25.5750733,6.9857499 C24.0462488,7.24218767 24.3934858,5.46184701 18.2524211,1.86312948 C12.1125833,-1.73558806 4.40833843,7.08268092 4.40833843,7.08268092 C4.40833843,7.08268092 -2.13763169,16.7929607 2.91386953,21.8076073 C7.96414376,26.821027 9.59726207,26.0296281 9.74081943,27.5731626 C9.91014349,29.4062632 9.46229362,31.5068443 10.2267059,33.2761422 C10.4070728,33.6945407 10.6475621,34.0773568 10.9727133,34.3988243 C11.2843678,34.705568 12.1003134,34.9423742 12.2880423,35.2773384 C12.5138077,35.6822401 12.2536867,36.7987873 12.2720915,37.2748536 C12.2978582,37.9656405 12.3665694,38.672378 12.6242364,39.3214478 C13.0340498,40.3508798 14.1812816,41.1054694 14.9812765,41.856378 C16.0929258,42.9005337 17.2229798,43.9287387 18.3959784,44.9041838 C19.4904499,45.8145992 20.5530197,46.6747087 22.013133,46.4280867 C23.0965617,46.2464944 24.1726283,45.9863757 25.2437871,45.7520235 C25.2437871,45.7520235 26.4523683,47.9102725 28.5505143,47.5802162 C30.6474333,47.247706 32.4032502,45.630553 34.2891276,46.7740937 C36.1737781,47.9164073 38.5676277,52.5249253 43.4129952,51.950701 C48.2559088,51.3777037 52.7429965,49.402274 54.9601602,45.9876027 C57.6926579,42.9692443 58.4484813,38.1239202 57.7613691,33.2945468 C57.074257,28.4627195 52.0080319,27.3289946 50.4203121,25.8001838 C48.8325922,24.2701461 49.9454685,22.1572952 49.728292,20.0432173 C49.5111155,17.9340474 47.1209468,17.318106 47.1160389,17.316879 C46.933218,17.270254 46.9479418,13.497306 46.7651209,13.0739996 C46.5651222,12.6102031 46.1872105,12.2482455 45.8043909,11.9181892 C43.5774114,9.98570366 40.63878,8.92682428 38.4780577,6.98206898" id="Fill-1" fill="#CE7602"></path>
                <g id="Group-5">
                    <mask id="mask-2" fill="white">
                        <use xlink:href="#path-1"></use>
                    </mask>
                    <g id="Clip-4"></g>
                    <path d="M38.1357734,6.09899366 C37.3351944,5.37861822 33.258057,6.61899164 33.258057,6.61899164 C33.258057,6.61899164 32.587402,5.99696096 31.4255106,5.20528556 C30.2636193,4.41361015 26.5614053,5.84083864 25.00603,6.10268159 C23.4506547,6.36575385 23.8033054,4.54883421 17.554582,0.880574263 C11.3083333,-2.79014431 3.46958821,6.20225567 3.46958821,6.20225567 C3.46958821,6.20225567 -3.19241711,16.1031155 1.94638454,21.2145849 C7.08642357,26.3272837 8.74697542,25.5208566 8.89422256,27.0943729 C9.0674545,28.9629236 8.61210198,31.1056103 9.38917095,32.9090075 C9.57230185,33.3355779 9.81730131,33.7264984 10.1476794,34.0534948 C10.4644463,34.3669687 11.2959596,34.6079134 11.4852774,34.9496615 C11.7154284,35.3627095 11.450631,36.5010502 11.4691916,36.9866276 C11.4964137,37.691022 11.5669439,38.4101681 11.8292665,39.072766 C12.2450232,40.1225964 13.4131014,40.8921443 14.2260541,41.6580042 C15.3582485,42.7238156 16.5077662,43.7711874 17.7018292,44.7656989 C18.815463,45.6938277 19.8956879,46.5703255 21.3817704,46.3195463 C22.484268,46.1339205 23.5793413,45.8708483 24.6694651,45.6299036 C24.6694651,45.6299036 25.8981745,47.8303678 28.0338768,47.493537 C30.1671043,47.1554769 31.9551054,45.5057433 33.8730304,46.6723582 C35.7909554,47.8365144 38.2273389,52.5349358 43.1570248,51.9497844 C48.084236,51.3658624 52.6513723,49.3522532 54.9070996,45.8708483 C57.6862348,42.792657 58.4571169,37.8520615 57.756765,32.9274471 C57.0576504,28.0016034 51.9027629,26.8448231 50.2879938,25.2860584 C48.6719873,23.7272938 49.8041817,21.572314 49.5839297,19.4173342 C49.3612029,17.2660424 46.9297689,16.6378652 46.9248194,16.6366359 C46.7392138,16.5886928 46.7528249,12.7434122 46.5684566,12.3106952 C46.3655278,11.837411 45.979468,11.4686181 45.5909335,11.1317873 C43.3253073,9.16120396 40.3333443,8.0818701 38.1357734,6.09899366" id="Fill-3" fill="#FF9A00" mask="url(#mask-2)"></path>
                </g>
                <path d="M38.736401,24.1063775 C35.2395087,22.1640587 31.6726786,19.7861144 28.4714885,17.3262575 C26.800342,16.0429619 25.2052684,14.6516907 23.7856528,13.0965945 C22.4445639,11.6271342 21.5010165,9.80520186 20.0126901,8.48219108 C17.4605722,6.21222229 14.2274806,3.9434946 10.7649438,5.52961823 C8.75392396,6.45051316 7.35762101,8.07759303 5.98953859,9.73073596 C4.87298703,11.0773276 0.685305157,16.6784042 4.71470664,20.463754 C6.62634108,22.2608644 8.56128814,23.7427357 11.0311984,24.7256856 C15.71458,26.5860919 19.5550266,29.7198651 23.3721606,32.9206576 C26.5512652,35.5852957 29.6064447,38.3939011 32.5278835,41.3365452 C35.8088273,44.6403489 39.3241243,48.7223212 44.3571952,48.9891573 C45.6099415,49.0561766 46.9019512,48.8166446 47.9632887,48.1551392 C49.4148057,47.2541019 50.1203191,45.7424441 50.3583531,44.1128821 C54.7398978,42.041489 55.0527776,35.9526608 51.9141635,32.6612681 C49.5301418,30.1616961 46.0553352,28.3906489 43.1118108,26.6344948 C41.6652016,25.7731725 40.2100037,24.9242613 38.736401,24.1063775" id="Fill-6" fill="#FFFFFF"></path>
            </g>
        </g>
    </g>
</svg>