<?xml version="1.0" encoding="UTF-8"?>
<svg width="55px" height="50px" viewBox="0 0 55 50" version="1.1" xmlns="http://www.w3.org/2000/svg" xmlns:xlink="http://www.w3.org/1999/xlink">
    <title>Group 25</title>
    <g id="Page-1" stroke="none" stroke-width="1" fill="none" fill-rule="evenodd">
        <g id="HOME-RE" transform="translate(-933.000000, -509.000000)">
            <g id="Group-25" transform="translate(933.000000, 509.000000)">
                <path d="M11.5,24 C15.0898336,24 18,26.9103885 18,30.5004961 C18,34.0896115 15.0898336,37 11.5,37 C7.91016639,37 5,34.0896115 5,30.5004961 C5,26.9103885 7.91016639,24 11.5,24" id="Fill-1" fill="#CE7602"></path>
                <path d="M18.4501093,37 L6.55737196,37 C4.04960237,37 2.0084163,38.9939446 2.00654622,41.4453943 L2,48.5154235 C1.99906593,49.3350431 2.67883792,50 3.5166312,50 L21.414177,50 C22.2463601,50 22.923327,49.3452305 22.9308073,48.5311676 L23,41.4852176 C23,40.2145758 22.5044303,39.1273064 21.6797276,38.3150958 C20.8185584,37.4667664 19.6722028,37 18.4501093,37" id="Fill-3" fill="#CE7602"></path>
                <path d="M44.5,24 C48.0898336,24 51,26.9103885 51,30.5004961 C51,34.0896115 48.0898336,37 44.5,37 C40.9101664,37 38,34.0896115 38,30.5004961 C38,26.9103885 40.9101664,24 44.5,24" id="Fill-5" fill="#CE7602"></path>
                <path d="M49.4500017,37 L37.5573422,37 C35.049589,37 33.0084162,38.9939446 33.0065462,41.4453943 L33,48.5154235 C32.9990659,49.3350431 33.6788335,50 34.5166213,50 L52.4140501,50 C53.2462277,50 53.9231901,49.3452305 53.9306704,48.5311676 C54.0007977,41.3842701 53.9989277,41.4944789 54,41.4824393 C54.009213,40.2877395 53.5407625,39.1624991 52.6795989,38.3150958 C51.8193703,37.4667664 50.6720873,37 49.4500017,37" id="Fill-7" fill="#CE7602"></path>
                <path d="M17.9605374,0 L9.03946264,0 C4.60659492,0 1,3.65424862 1,8.14636021 C1,12.6384718 4.60659492,16.2936608 9.03946264,16.2936608 L14.183154,16.2936608 L14.2175025,21.1637981 C14.2232272,21.9085652 15.1038852,22.2734258 15.6248378,21.7618686 C23.2816961,14.2436706 23.1872376,14.3367665 23.1996412,14.3236014 C24.9800397,12.7710629 26,10.5226562 26,8.14636021 C26,3.65424862 22.3934051,0 17.9605374,0 M7.27528433,9.7760084 C6.41657125,9.7760084 5.72005954,9.06979617 5.72005954,8.19902051 C5.72005954,7.32824485 6.41657125,6.62203262 7.27528433,6.62203262 C8.13495153,6.62203262 8.83146325,7.32824485 8.83146325,8.19902051 C8.83146325,9.06979617 8.13495153,9.7760084 7.27528433,9.7760084 M13.5,9.7760084 C12.6403328,9.7760084 11.9438211,9.06979617 11.9438211,8.19902051 C11.9438211,7.32824485 12.6403328,6.62203262 13.5,6.62203262 C14.3596672,6.62203262 15.0561789,7.32824485 15.0561789,8.19902051 C15.0561789,9.06979617 14.3596672,9.7760084 13.5,9.7760084 M19.7237615,9.7760084 C18.8650485,9.7760084 18.1675826,9.06979617 18.1675826,8.19902051 C18.1675826,7.32824485 18.8650485,6.62203262 19.7237615,6.62203262 C20.5834287,6.62203262 21.2799405,7.32824485 21.2799405,8.19902051 C21.2799405,9.06979617 20.5834287,9.7760084 19.7237615,9.7760084" id="Fill-9" fill="#CE7602"></path>
                <path d="M41.7824975,21.1640708 L41.816846,16.2938708 L46.9605374,16.2938708 C51.3934051,16.2938708 55,12.6386347 55,8.14646519 C55,3.65429571 51.3934051,0 46.9605374,0 L38.0394626,0 C33.6065949,0 30,3.65429571 30,8.14646519 C30,10.5227918 31.0199603,12.7721679 32.7994046,14.323786 C32.8108541,14.3350705 32.7030379,14.2288081 40.3751622,21.7621491 C40.8922983,22.2699514 41.7767728,21.9154301 41.7824975,21.1640708 M48.7237615,6.62305833 C49.5834287,6.62305833 50.2799405,7.32833928 50.2799405,8.19912617 C50.2799405,9.06991305 49.5834287,9.77613438 48.7237615,9.77613438 C47.8650485,9.77613438 47.1685368,9.06991305 47.1685368,8.19912617 C47.1685368,7.32833928 47.8650485,6.62305833 48.7237615,6.62305833 M42.5,6.62305833 C43.3596672,6.62305833 44.0561789,7.32833928 44.0561789,8.19912617 C44.0561789,9.06991305 43.3596672,9.77613438 42.5,9.77613438 C41.6403328,9.77613438 40.9438211,9.06991305 40.9438211,8.19912617 C40.9438211,7.32833928 41.6403328,6.62305833 42.5,6.62305833 M36.2762385,9.77613438 C35.4165713,9.77613438 34.7200595,9.06991305 34.7200595,8.19912617 C34.7200595,7.32833928 35.4165713,6.62305833 36.2762385,6.62305833 C37.1349515,6.62305833 37.8314632,7.32833928 37.8314632,8.19912617 C37.8314632,9.06991305 37.1349515,9.77613438 36.2762385,9.77613438" id="Fill-11" fill="#CE7602"></path>
                <path d="M10.5,23 C14.0898336,23 17,25.9103885 17,29.5004961 C17,33.0896115 14.0898336,36 10.5,36 C6.91016639,36 4,33.0896115 4,29.5004961 C4,25.9103885 6.91016639,23 10.5,23" id="Fill-13" fill="#FF9A00"></path>
                <path d="M17.4501093,36 L5.55737196,36 C3.04960237,36 1.0084163,37.9939446 1.00654622,40.4453943 L1,47.5154235 C0.999065926,48.3350431 1.67883792,49 2.5166312,49 L20.414177,49 C21.2463601,49 21.923327,48.3452305 21.9308073,47.5311676 L22,40.4852176 C22,39.2145758 21.5044303,38.1273064 20.6797276,37.3150958 C19.8185584,36.4667664 18.6722028,36 17.4501093,36" id="Fill-15" fill="#FF9A00"></path>
                <path d="M43.5,23 C47.0898336,23 50,25.9103885 50,29.5004961 C50,33.0896115 47.0898336,36 43.5,36 C39.9101664,36 37,33.0896115 37,29.5004961 C37,25.9103885 39.9101664,23 43.5,23" id="Fill-17" fill="#FF9A00"></path>
                <path d="M48.4500017,36 L36.5573422,36 C34.049589,36 32.0084162,37.9939446 32.0065462,40.4453943 L32,47.5154235 C31.9990659,48.3350431 32.6788335,49 33.5166213,49 L51.4140501,49 C52.2462277,49 52.9231901,48.3452305 52.9306704,47.5311676 C53.0007977,40.3842701 52.9989277,40.4944789 53,40.4824393 C53.009213,39.2877395 52.5407625,38.1624991 51.6795989,37.3150958 C50.8193703,36.4667664 49.6720873,36 48.4500017,36" id="Fill-19" fill="#FF9A00"></path>
                <path d="M16.9605374,0 L8.03946264,0 C3.60659492,0 0,3.65424862 0,8.14636021 C0,12.6384718 3.60659492,16.2936608 8.03946264,16.2936608 L13.183154,16.2936608 L13.2175025,21.1637981 C13.2232272,21.9085652 14.1038852,22.2734258 14.6248378,21.7618686 C22.2816961,14.2436706 22.1872376,14.3367665 22.1996412,14.3236014 C23.9800397,12.7710629 25,10.5226562 25,8.14636021 C25,3.65424862 21.3934051,0 16.9605374,0 M6.27528433,9.7760084 C5.41657125,9.7760084 4.72005954,9.06979617 4.72005954,8.19902051 C4.72005954,7.32824485 5.41657125,6.62203262 6.27528433,6.62203262 C7.13495153,6.62203262 7.83146325,7.32824485 7.83146325,8.19902051 C7.83146325,9.06979617 7.13495153,9.7760084 6.27528433,9.7760084 M12.5,9.7760084 C11.6403328,9.7760084 10.9438211,9.06979617 10.9438211,8.19902051 C10.9438211,7.32824485 11.6403328,6.62203262 12.5,6.62203262 C13.3596672,6.62203262 14.0561789,7.32824485 14.0561789,8.19902051 C14.0561789,9.06979617 13.3596672,9.7760084 12.5,9.7760084 M18.7237615,9.7760084 C17.8650485,9.7760084 17.1675826,9.06979617 17.1675826,8.19902051 C17.1675826,7.32824485 17.8650485,6.62203262 18.7237615,6.62203262 C19.5834287,6.62203262 20.2799405,7.32824485 20.2799405,8.19902051 C20.2799405,9.06979617 19.5834287,9.7760084 18.7237615,9.7760084" id="Fill-21" fill="#FF9A00"></path>
                <path d="M41.7824975,21.1640708 L41.816846,16.2938708 L46.9605374,16.2938708 C51.3934051,16.2938708 55,12.6386347 55,8.14646519 C55,3.65429571 51.3934051,0 46.9605374,0 L38.0394626,0 C33.6065949,0 30,3.65429571 30,8.14646519 C30,10.5227918 31.0199603,12.7721679 32.7994046,14.323786 C32.8108541,14.3350705 32.7030379,14.2288081 40.3751622,21.7621491 C40.8922983,22.2699514 41.7767728,21.9154301 41.7824975,21.1640708 M48.7237615,6.62305833 C49.5834287,6.62305833 50.2799405,7.32833928 50.2799405,8.19912617 C50.2799405,9.06991305 49.5834287,9.77613438 48.7237615,9.77613438 C47.8650485,9.77613438 47.1685368,9.06991305 47.1685368,8.19912617 C47.1685368,7.32833928 47.8650485,6.62305833 48.7237615,6.62305833 M42.5,6.62305833 C43.3596672,6.62305833 44.0561789,7.32833928 44.0561789,8.19912617 C44.0561789,9.06991305 43.3596672,9.77613438 42.5,9.77613438 C41.6403328,9.77613438 40.9438211,9.06991305 40.9438211,8.19912617 C40.9438211,7.32833928 41.6403328,6.62305833 42.5,6.62305833 M36.2762385,9.77613438 C35.4165713,9.77613438 34.7200595,9.06991305 34.7200595,8.19912617 C34.7200595,7.32833928 35.4165713,6.62305833 36.2762385,6.62305833 C37.1349515,6.62305833 37.8314632,7.32833928 37.8314632,8.19912617 C37.8314632,9.06991305 37.1349515,9.77613438 36.2762385,9.77613438" id="Fill-23" fill="#FF9A00"></path>
            </g>
        </g>
    </g>
</svg>