<?xml version="1.0" encoding="utf-8"?>
<!-- Generator: Adobe Illustrator 26.0.3, SVG Export Plug-In . SVG Version: 6.00 Build 0)  -->
<svg version="1.1" id="Calque_1" xmlns="http://www.w3.org/2000/svg" xmlns:xlink="http://www.w3.org/1999/xlink" x="0px" y="0px"
	 viewBox="0 0 341 293" style="enable-background:new 0 0 341 293;" xml:space="preserve">
<style type="text/css">
	.st0{opacity:0.102;}
	.st1{filter:url(#Adobe_OpacityMaskFilter);}
	.st2{fill-rule:evenodd;clip-rule:evenodd;fill:#FFFFFF;}
	.st3{mask:url(#mask-2_00000079472013501049520310000013280301206399489157_);fill-rule:evenodd;clip-rule:evenodd;}
	.st4{opacity:9.940011e-02;}
	.st5{filter:url(#Adobe_OpacityMaskFilter_00000089542834989684475780000018035266585484074431_);}
	.st6{mask:url(#mask-4_00000163049719941105321040000016195984071923958461_);fill-rule:evenodd;clip-rule:evenodd;}
	.st7{fill-rule:evenodd;clip-rule:evenodd;fill:#5B2D0F;}
	.st8{fill-rule:evenodd;clip-rule:evenodd;fill:#F29E39;}
	.st9{fill-rule:evenodd;clip-rule:evenodd;fill:#E9364B;}
	.st10{fill-rule:evenodd;clip-rule:evenodd;fill:#C5E2E0;}
	.st11{fill-rule:evenodd;clip-rule:evenodd;fill:#FFD8DD;}
	.st12{fill-rule:evenodd;clip-rule:evenodd;fill:#E7364B;}
	.st13{fill-rule:evenodd;clip-rule:evenodd;fill:#EFB784;}
	.st14{fill-rule:evenodd;clip-rule:evenodd;fill:#FF800D;}
	.st15{fill-rule:evenodd;clip-rule:evenodd;fill:#9E223E;}
	.st16{fill-rule:evenodd;clip-rule:evenodd;fill:#919191;}
	.st17{filter:url(#Adobe_OpacityMaskFilter_00000050646065121501582460000017692223384241091481_);}
	.st18{mask:url(#mask-6_00000147936457037858741540000001942173092901463700_);fill-rule:evenodd;clip-rule:evenodd;fill:#9E223E;}
	.st19{fill-rule:evenodd;clip-rule:evenodd;fill:#E7B88B;}
	.st20{fill-rule:evenodd;clip-rule:evenodd;fill:#F5C7A3;}
</style>
<desc>Created with Sketch.</desc>
<g id="Page-1">
	<g id="ESPACE-PERSONNEL" transform="translate(-1111.000000, -172.000000)">
		<g id="Group-4" transform="translate(1111.000000, 172.000000)">
			<g id="Group-3-Copy" transform="translate(0.000000, 265.000000)" class="st0">
				<g id="Clip-2">
				</g>
				<defs>
					<filter id="Adobe_OpacityMaskFilter" filterUnits="userSpaceOnUse" x="0.4" y="0.3" width="156.3" height="24.7">
						<feColorMatrix  type="matrix" values="1 0 0 0 0  0 1 0 0 0  0 0 1 0 0  0 0 0 1 0"/>
					</filter>
				</defs>
				
					<mask maskUnits="userSpaceOnUse" x="0.4" y="0.3" width="156.3" height="24.7" id="mask-2_00000079472013501049520310000013280301206399489157_">
					<g class="st1">
						<polygon id="path-1_00000118390547530024627410000013257115421133086866_" class="st2" points="0.4,0.3 156.7,0.3 156.7,25 
							0.4,25 						"/>
					</g>
				</mask>
				<path id="Fill-1" class="st3" d="M0.4,12.7c0,6.8,35,12.3,78.2,12.3c43.2,0,78.2-5.5,78.2-12.3c0-6.8-35-12.3-78.2-12.3
					C35.4,0.3,0.4,5.9,0.4,12.7"/>
			</g>
			<g id="Group-3-Copy-2" transform="translate(184.000000, 265.000000)" class="st4">
				<g id="Clip-2_00000159448882917187621570000014456285191311426978_">
				</g>
				<defs>
					
						<filter id="Adobe_OpacityMaskFilter_00000085954818420843446460000011646179935872325763_" filterUnits="userSpaceOnUse" x="0.4" y="0.3" width="156.3" height="24.7">
						<feColorMatrix  type="matrix" values="1 0 0 0 0  0 1 0 0 0  0 0 1 0 0  0 0 0 1 0"/>
					</filter>
				</defs>
				
					<mask maskUnits="userSpaceOnUse" x="0.4" y="0.3" width="156.3" height="24.7" id="mask-4_00000163049719941105321040000016195984071923958461_">
					<g style="filter:url(#Adobe_OpacityMaskFilter_00000085954818420843446460000011646179935872325763_);">
						<polygon id="path-3_00000168091581593433695180000004594011791215391658_" class="st2" points="0.4,0.3 156.7,0.3 156.7,25 
							0.4,25 						"/>
					</g>
				</mask>
				<path id="Fill-1_00000158711888641140120570000004684196355003165077_" class="st6" d="M0.4,12.7c0,6.8,35,12.3,78.2,12.3
					c43.2,0,78.2-5.5,78.2-12.3c0-6.8-35-12.3-78.2-12.3C35.4,0.3,0.4,5.9,0.4,12.7"/>
			</g>
			<g id="Group-94" transform="translate(3.000000, 0.000000)">
				<polygon id="Fill-1_00000105416970517962689940000012342377479938565279_" class="st7" points="61.5,262.9 62.1,276.8 72,275.4 
					71.3,261.7 				"/>
				<g id="Group-93" transform="translate(0.000000, 0.716489)">
					<path id="Fill-2" class="st8" d="M60.1,272.9c0.3-0.7,1.1-1,1.6-0.5c1,1,2.9,2.2,5.7,1.9c2.9-0.2,4.1-1.9,4.5-3.1
						c0.2-0.6,0.9-1,1.4-0.7l17.4,9.3c1.1,0.6,1.9,1.6,2.2,2.9c0.4,1.2-0.5,2.4-1.6,2.4L61,283.5c-1.2-0.1-2.1-1.3-1.9-2.6l0.7-6.7
						c0-0.1,0-0.2,0.1-0.3L60.1,272.9z"/>
					<polygon id="Fill-4" class="st7" points="5.8,264.3 2.3,278.1 12,278.1 16.2,263.7 					"/>
					<path id="Fill-6" class="st8" d="M1.1,275.1c0.3-0.7,1.1-1,1.6-0.5c1,1,2.9,2.2,5.7,1.9c2.9-0.2,4.1-1.9,4.5-3.1
						c0.2-0.6,0.9-1,1.4-0.7l17.4,9.3c1.1,0.6,1.9,1.6,2.2,2.9c0.4,1.2-0.5,2.4-1.6,2.4L2,285.7c-1.2-0.1-2.1-1.3-1.9-2.6l0.7-6.7
						c0-0.1,0-0.2,0.1-0.3L1.1,275.1z"/>
					<polygon id="Fill-8" class="st9" points="69.2,113.2 76,180.1 74.4,266 56.9,264.9 57.7,180 47.9,113 					"/>
					<polygon id="Fill-10" class="st9" points="30.1,112.8 26.3,178.1 2.5,268.7 18.1,269.7 46.5,180.2 60.6,113.3 					"/>
					<path id="Fill-12" class="st10" d="M136.2,172.9c-1.1-2.1-3.9-11.6-3.9-11.6s-1.1-3.4-0.8-5.4c0.3-1.9,0-4.3-1.2-5.1
						c-1.2-0.8-3-1.4-5.2-0.9c-2.3,0.5-3.6,1.9-4.3,3.2c-0.7,1.3,0.1,3.5,1.2,5.1c1.1,1.6,1.7,5.1,1.7,5.1s1.9,9.8,1.8,12.1
						c-0.1,2.3,2.3,5.9,6.6,4.9l0,0c0,0,0.1,0,0.1,0c0,0,0.1,0,0.1,0l0,0C136.5,179.2,137.4,174.9,136.2,172.9"/>
					<path id="Fill-14" class="st11" d="M135.5,172.8c-1.1-2.1-3.9-11.6-3.9-11.6s-1.1-3.4-0.8-5.4c0.3-1.9,0-4.3-1.2-5.1
						c-1.2-0.8-3-1.4-5.2-0.9c-2.3,0.5-3.6,1.9-4.3,3.2c-0.7,1.3,0.1,3.5,1.2,5.1s1.7,5.1,1.7,5.1s1.9,9.8,1.8,12.1
						c-0.1,2.3,2.3,5.9,6.6,4.9l0,0c0,0,0.1,0,0.1,0c0,0,0.1,0,0.1,0l0,0C135.8,179.1,136.7,174.8,135.5,172.8"/>
					<polygon id="Fill-16" class="st12" points="133.5,175.8 127.9,177.1 122.5,154.4 128.1,153 					"/>
					<path id="Fill-18" class="st10" d="M144.2,147.5c-0.4-0.3-2.4,0.3-2.4,0.3s-0.3-0.3-0.9-0.7c-0.6-0.4-2.4,0.3-3.1,0.4
						c-0.8,0.1-0.6-0.8-3.6-2.5c-3-1.8-6.9,2.6-6.9,2.6s-3.2,4.8-0.7,7.3c2.5,2.5,3.3,2.1,3.4,2.9c0.1,0.9-0.1,1.9,0.2,2.8
						c0.1,0.2,0.2,0.4,0.4,0.6c0.2,0.2,0.6,0.3,0.7,0.4c0.1,0.2,0,0.8,0,1c0,0.3,0,0.7,0.2,1c0.2,0.5,0.8,0.9,1.2,1.3
						c0.6,0.5,1.1,1,1.7,1.5c0.5,0.4,1.1,0.9,1.8,0.8c0.5-0.1,1.1-0.2,1.6-0.3c0,0,0.6,1.1,1.6,0.9c1-0.2,1.9-1,2.8-0.4
						c0.9,0.6,2.1,2.8,4.5,2.6c2.4-0.3,4.6-1.3,5.7-2.9c1.4-1.5,1.7-3.9,1.4-6.3c-0.3-2.4-2.8-2.9-3.6-3.7c-0.8-0.8-0.2-1.8-0.3-2.8
						c-0.1-1-1.3-1.3-1.3-1.3c-0.1,0-0.1-1.9-0.2-2.1c-0.1-0.2-0.3-0.4-0.5-0.6C146.7,149,145.3,148.5,144.2,147.5"/>
					<path id="Fill-20" class="st11" d="M143.3,147.4c-0.4-0.3-2.4,0.3-2.4,0.3s-0.3-0.3-0.9-0.7s-2.4,0.3-3.1,0.4
						c-0.8,0.1-0.6-0.8-3.6-2.5s-6.9,2.6-6.9,2.6s-3.2,4.8-0.7,7.3c2.5,2.5,3.3,2.1,3.4,2.9c0.1,0.9-0.1,1.9,0.2,2.8
						c0.1,0.2,0.2,0.4,0.4,0.6c0.2,0.2,0.6,0.3,0.6,0.4c0.1,0.2,0,0.8,0,1c0,0.3,0,0.7,0.2,1c0.2,0.5,0.8,0.9,1.2,1.3
						c0.6,0.5,1.1,1,1.7,1.5c0.5,0.4,1.1,0.9,1.8,0.8c0.5-0.1,1.1-0.2,1.6-0.3c0,0,0.6,1.1,1.6,0.9c1-0.2,1.9-1,2.8-0.4
						c0.9,0.6,2.1,2.8,4.5,2.6c2.4-0.3,4.6-1.3,5.7-2.9c1.4-1.5,1.7-3.9,1.4-6.3c-0.3-2.4-2.8-2.9-3.6-3.7c-0.8-0.8-0.2-1.8-0.3-2.8
						c-0.1-1-1.3-1.3-1.3-1.3c-0.1,0-0.1-1.9-0.2-2.1c-0.1-0.2-0.3-0.4-0.5-0.6C145.8,148.9,144.3,148.4,143.3,147.4"/>
					<path id="Fill-22" class="st12" d="M143.9,155.7c-1.7-1-3.5-2.1-5-3.3c-0.8-0.6-1.6-1.3-2.3-2.1c-0.7-0.7-1.1-1.6-1.8-2.3
						c-1.3-1.1-2.8-2.2-4.5-1.5c-1,0.5-1.7,1.3-2.3,2.1c-0.5,0.7-2.6,3.4-0.6,5.3c0.9,0.9,1.9,1.6,3.1,2.1c2.3,0.9,4.2,2.5,6,4
						c1.6,1.3,3.1,2.7,4.5,4.2c1.6,1.6,3.3,3.6,5.8,3.8c0.6,0,1.2-0.1,1.8-0.4c0.7-0.4,1.1-1.2,1.2-2c2.1-1,2.3-4,0.8-5.7
						c-1.2-1.2-2.9-2.1-4.3-3C145.3,156.5,144.6,156.1,143.9,155.7"/>
					<path id="Fill-24" class="st7" d="M113,154.3c0-4,3.2-7.2,7.2-7.2c4,0,7.2,3.2,7.2,7.2c0,4-3.2,7.2-7.2,7.2
						C116.2,161.5,113,158.3,113,154.3"/>
					<path id="Fill-26" class="st7" d="M123,144.5c0-4,3.2-7.2,7.2-7.2c4,0,7.2,3.2,7.2,7.2c0,4-3.2,7.2-7.2,7.2
						C126.2,151.7,123,148.5,123,144.5"/>
					<path id="Fill-28" class="st13" d="M122.2,65.7c-16.8,0-17.9,48.7-17.9,48.7l19.1,26.5l10.2-2.3l-3.1-28.5
						C130.4,110.1,139,65.7,122.2,65.7"/>
					<path id="Fill-30" class="st13" d="M29.7,104.6l-14.2,44.6c0,0,9.6,9.2,34.2,15.1c15.6,3.7,37.4,2,37.4,2l-1.4-30.8
						C85.7,135.5,45.4,105.4,29.7,104.6"/>
					<path id="Fill-32" class="st14" d="M84.9,128.1l20.7-19c0,0,39.7-31,16.2-49.4c-27.5-21.5-51.4-7.2-51.4-7.2
						s-26.3,15.9-40.8,52.2c0,0,34.4,35,46.7,33.9C88.7,137.5,84.9,128.1,84.9,128.1"/>
					<path id="Fill-34" class="st15" d="M144.4,27.4c-3.1,11.5-15,18.3-26.6,15.2c-11.5-3.1-18.3-15-15.2-26.5
						c3.1-11.5,15-18.3,26.6-15.2C140.7,4,147.5,15.9,144.4,27.4"/>
					<path id="Fill-36" class="st7" d="M110.7,61.3L110.7,61.3c-4.4-1.3-6.9-5.9-5.6-10.3l3.8-12.8l15.9,4.7L121,55.7
						C119.7,60,115.1,62.5,110.7,61.3"/>
					<path id="Fill-38" class="st7" d="M116.2,48.8l-1.4-0.4c-7-2.3-10.8-9.7-8.6-16.7l2.6-8c2.3-7,9.7-10.8,16.7-8.6l1.4,0.4
						c7,2.3,10.8,9.7,8.6,16.7l-2.6,8C130.7,47.3,123.2,51.1,116.2,48.8"/>
					<path id="Fill-40" class="st15" d="M110.4,35.4c0.3,0.6,0.5,1.5,0.5,2.8c0,1.6,0.7,3.3,2,4.3c3.7,2.9,7.3-3.4,13.1-1.8
						c0,0,2.3,0.5,2.5,3.1c0.2,2.6,3.8-1.6,4.8-4.6c1-3-0.2,15.1-14.5,12.4c0,0-7.2-0.8-11.5-8.7c-0.5-0.9-0.7-1.8-0.7-2.8
						c0.1-1.5,0.5-3.6,2-5.1C109.2,34.6,110.1,34.7,110.4,35.4"/>
					<path id="Fill-42" class="st7" d="M110.8,31.3c-0.8,2.5-3.5,3.9-6,3.1c-2.5-0.8-3.9-3.5-3.1-6c0.8-2.5,3.5-3.9,6-3.1
						C110.2,26.2,111.6,28.8,110.8,31.3"/>
					<path id="Fill-44" class="st13" d="M65.6,136.5c0,0-23.4-75.2,8.5-80.6c32-5.4,10.1,62.7,10.1,62.7l33.7,27.4l-5,10.2
						L65.6,136.5z"/>
					<path id="Fill-46" class="st14" d="M102.6,45.7l7.9,4.8l0.9,12.4C111.4,62.9,98.4,67.7,102.6,45.7"/>
					<path id="Fill-48" class="st14" d="M126.2,54.5h-7.1l-11.8,7.6C107.3,62.1,116.2,74.5,126.2,54.5"/>
					<path id="Fill-52" class="st14" d="M60.7,104.6l26.5-2.1c0,0-3.4,11.5-5,16l9.2,8l-15,12l-9.3-4.5L60.7,104.6z"/>
					<path id="Fill-54" class="st14" d="M106.6,109.7l-1,3.7l4.3,3.9l20.3-3.8l-1.7-4.9c0,0,3.1-4.1,0.7-11.1l-9.1-1.1
						C120.1,96.5,108.2,111.3,106.6,109.7"/>
					<path id="Fill-56" class="st8" d="M186.8,236.4l7.8,38.6c0,0-10.6,4.3-15.4,8.1c-1.7,1.4-6.1,4.7-2.1,8.2
						c2.3,2,37.9-4.7,37.9-4.7l4.7-29.6c0,0,0.5,0.8-0.3-2.1C218.5,252.1,206.2,225.3,186.8,236.4"/>
					<polygon id="Fill-58" class="st15" points="132.1,272.7 164.6,272.7 162.3,290.4 129.2,290.4 					"/>
					<polygon id="Fill-60" class="st16" points="164.6,272.7 168.3,288 162.3,290.4 					"/>
					<g id="Group-64" transform="translate(222.691099, 232.959016)">
						<g id="Clip-63">
						</g>
						<defs>
							
								<filter id="Adobe_OpacityMaskFilter_00000057110000035180579100000002791150729812533132_" filterUnits="userSpaceOnUse" x="0.2" y="0.1" width="82.3" height="59.2">
								<feColorMatrix  type="matrix" values="1 0 0 0 0  0 1 0 0 0  0 0 1 0 0  0 0 0 1 0"/>
							</filter>
						</defs>
						
							<mask maskUnits="userSpaceOnUse" x="0.2" y="0.1" width="82.3" height="59.2" id="mask-6_00000147936457037858741540000001942173092901463700_">
							<g style="filter:url(#Adobe_OpacityMaskFilter_00000057110000035180579100000002791150729812533132_);">
								<polygon id="path-5_00000154428339810156298240000011803821096912545211_" class="st2" points="0.2,0.1 82.5,0.1 82.5,59.2 
									0.2,59.2 								"/>
							</g>
						</mask>
						<path id="Fill-62" class="st18" d="M2,33.3c0,2.9-2.8,5.7-1.4,8.3c0.6,1.2,2,1.8,2.9,2.8c2,2.2,1.3,5.6,1.1,8.5
							c0,0.4,0,0.9,0.2,1.3c0.3,0.4,0.8,0.6,1.4,0.7c7.6,1.7,15.6,1.2,23.4,1.9c7.8,0.8,15.5,2.8,23.3,2.4c4-0.2,7.9-1,11.9-1.2
							c4.6-0.2,9.4,0.5,13.9-0.6c1.2-0.3,2.4-0.7,3-1.7c0.6-0.9,0.4-2.1,0.2-3.2c-1.2-7.1-3.8-14.5-1.2-21.2
							c0.6-1.6,1.6-3.1,1.8-4.8c0.3-2.1-0.6-4.2-0.7-6.4c-0.1-2.3,0.6-4.7-0.3-6.8c-1.3-3.1-5.1-3.9-7.9-5.8c-1.7-1.2-3-2.8-3.9-4.6
							c-0.8-1.5-2-3.3-3.6-2.8c-0.6,0.2-1.1,0.8-1.5,1.3c-0.9,1.2-1.6,2.4-2.2,3.8c-1.3,3-2.1,6.4-4.6,8.5c-1.1,0.9-2.4,1.5-3.7,2.1
							c-8.3,3.4-17.4,5.2-26.4,5.1c-2.8,0-5.8-0.2-8.3,0.9c-1.2,0.5-2.2,1.3-3.3,2c-4.1,2.4-7.5,1.6-11.9,1.9
							C-0.7,25.9,2,30.2,2,33.3"/>
					</g>
					<path id="Fill-65" class="st9" d="M188.9,240c0,0-4.3-17.3-5.2-23.7c-0.9-6.4-3.1-20.4,11.6-20.1c14.7,0.2,34.8,12.6,41.7,17.3
						c6.9,4.7,19.2,19.7,22.3,22.5c3.1,2.8,9.4,15.5,9.4,15.5s-27.6,2.3-38.5-2.9c-10.9-5.2-19.4-6.2-23.9-6.4
						C201.7,241.9,190.2,245.4,188.9,240"/>
					<path id="Fill-67" class="st19" d="M187.7,232.7c-0.4,0.2-0.7,0.5-1.1,0.9c-1.9,2.1-1.8,5.5-0.3,7.8c1.5,2.3,4.2,3.7,6.9,4.3
						c6.4,1.4,12.9,0.3,19.3,1.3c5.1,0.8,9.5,3.6,14,6c5,2.7,10.3,3.4,15.9,3.4c5.4,0,10.9-0.5,16.2,0.5c2.3,0.4,4.6,1.1,6.9,0.9
						c3.1-0.3,6.2-3.2,5.7-6.5c-0.9-5.7-10.2-6.8-14.6-7.1c-4.6-0.3-9.1-1-13.6-2c-9.7-2.2-19-5.5-28.5-8.4
						c-4.8-1.4-10.2-3.2-15.2-2.6C196.1,231.5,190.5,231,187.7,232.7"/>
					<path id="Fill-69" class="st19" d="M272.2,250.9c3.4,1.5,8.3,2.5,10-0.7c0.6-1.1,0.2-2.6-0.5-3.6c-1.5-2.4-4.1-3.9-6.2-5.9
						c-1.3-1.3-2.5-2.7-3.6-4.2c-4.6-6.2-8.9-12.6-14.1-18.3c-5.2-5.7-11.5-10.6-18.9-12.8c-2-0.6-4.5-0.9-6,0.5
						c-2.5,2.4-0.9,7.1,0.4,9.7c2,3.8,5.3,6.8,7.8,10.3c1.8,2.3,3.2,4.9,4.3,7.6c3.1,7.6,10.2,4.9,16.1,8.5c3.2,2,5.1,5.4,8.1,7.5
						C270.5,250,271.3,250.5,272.2,250.9"/>
					<path id="Fill-71" class="st20" d="M248.8,161.6L248.8,161.6c1.8-0.4,3.4-1.5,4.7-2.6c1.2-1,1.7-2.6,1.4-4.2l-6.6-28.1
						l-12.3,2.8l6.5,27.7C243.1,160.5,245.9,162.2,248.8,161.6"/>
					<path id="Fill-73" class="st20" d="M225,132.1c1.9,8.4,10.3,13.6,18.7,11.7c8.4-1.9,13.6-10.3,11.7-18.6
						c-1.9-8.4-10.3-13.6-18.7-11.7C228.3,115.4,223.1,123.7,225,132.1"/>
					<path id="Fill-75" class="st20" d="M239.5,149.9L239.5,149.9c4-0.9,6.5-4.9,5.6-8.9l-2.4-10.4l-17.7,1.4l2.3,10.2
						C228.6,147.7,234,151.1,239.5,149.9"/>
					<path id="Fill-77" class="st20" d="M226.2,135.4L224,141c-0.3,0.9,0.5,1.7,1.5,1.5l4-0.2L226.2,135.4z"/>
					<path id="Fill-79" class="st7" d="M241.3,135.4l-3.4,0.1l-1.9-5.9c0,0-13.6,3.9-16.4-2.4c0,0,5.7-22.9,26-16.4
						c15.1,4.9,12.6,21.1,8.5,27.5c-1.4,2.1-1.8,4.7-1.4,7.2c0.1,0.3,0.1,0.6,0.2,0.9l-7-12.3L241.3,135.4z"/>
					<path id="Fill-81" class="st20" d="M245.1,128.5c-2.3-0.7-4.7,0.6-5.3,2.8c-0.7,2.3,0.6,4.6,2.8,5.3c2.3,0.7,4.7-0.6,5.3-2.8
						C248.6,131.6,247.3,129.2,245.1,128.5"/>
					<path id="Fill-83" class="st12" d="M240.3,140.1c0.9,1.5,2.8,2,4.3,1.1c1.5-0.9,2-2.8,1.1-4.3c-0.9-1.5-2.8-2-4.3-1.1
						C240,136.7,239.5,138.6,240.3,140.1"/>
					<path id="Fill-85" class="st8" d="M230.3,190.6c-2.6-3.5-4-7.3-1.8-10.8c2.4-3.8,8.8-19.2,8.8-19.2l-2.6-4.7l26.3-20.6
						c0.6,2.7,0.7,7.6,2.7,9.5c7.7,7.2,14.7,15.8,19.4,25.3c4.7,9.4,6,20.2,6.3,30.6c0.2,8.4-0.3,16.8-1.4,25.1
						c-0.9,6.3-1.5,14.9-6.4,19.7c-5.3,5-24.3-25.2-26.9-29c-0.9-1.3-1.6-3.1-2.7-4.2c-3.8-3.8-7.7-7.6-11.5-11.4
						C238,198.5,233.3,194.8,230.3,190.6"/>
					<path id="Fill-87" class="st11" d="M232.6,198.5c0,0,3.1-45,22.5-37.7s7.6,53-7.1,58.7c-14.7,5.7-30.6-5.4-33.9-13.5
						c-3.3-8.1,5.9-9.1,5.9-9.1L232.6,198.5z"/>
					<path id="Fill-89" class="st9" d="M208.6,243.5c-7.4-1.9-14.8-4.2-22.4-3.8c-0.2,0-0.5,0-0.7,0.2c-0.5,0.4-0.2,1.1,0,1.6
						c0.8,2.3-0.3,4.7-1.6,6.8c-1.2,2.1-2.6,4.3-2.5,6.6c7.2,0.7,14.5,1.5,21.6,3.1c5.8,1.3,11.4,3.2,17.3,3.6
						c6.4,0.5,12.9-0.8,19.3-1.4c6.6-0.6,13.3-0.5,19.9,0.2c1.9,0.2,4.2,0.3,5.1-1.4c0.7-1.4-0.1-3.1-1.3-4.2
						c-1.1-1.1-2.6-2.8-4.1-3.3c-2-0.8-5-0.6-7.1-0.8c-4.9-0.6-9.8-1.2-14.7-1.8C227.8,247.5,218.1,245.9,208.6,243.5"/>
					<path id="Fill-91" class="st8" d="M224,113c0,0,7.5-12.4,22.2-6c14.7,6.3,17.4,18.8,14.7,28.4c-2.6,9.6-10.8,14.3-10.8,14.3
						S246.3,117.7,224,113"/>
				</g>
			</g>
			<circle id="Oval" class="st2" cx="78.5" cy="80.5" r="6.5"/>
		</g>
	</g>
</g>
</svg>
