<?xml version="1.0" encoding="UTF-8"?>
<svg width="146px" height="141px" viewBox="0 0 146 141" version="1.1" xmlns="http://www.w3.org/2000/svg" xmlns:xlink="http://www.w3.org/1999/xlink">
    <title>Group 166</title>
    <defs>
        <polygon id="path-1" points="0 0 143.709209 0 143.709209 137.847067 0 137.847067"></polygon>
    </defs>
    <g id="Page-1" stroke="none" stroke-width="1" fill="none" fill-rule="evenodd">
        <g id="MISSON-ET-CHIFFRES-CLES" transform="translate(-499.000000, -2463.000000)">
            <g id="Group-166" transform="translate(499.000000, 2463.000000)">
                <g id="Group-3" transform="translate(1.602855, 3.152933)">
                    <mask id="mask-2" fill="white">
                        <use xlink:href="#path-1"></use>
                    </mask>
                    <g id="Clip-2"></g>
                </g>
                <path d="M138.064724,39.1304103 C138.159297,38.9115668 138.564263,37.8943723 138.58245,36.5605272 L139.77795,35.4271867 L140.305376,34.5285835 L141.212307,33.9955344 L141.951916,31.7569731 L142.554515,31.4232062 C142.636964,31.3779703 143.05163,31.1371202 142.994644,30.7850144 C142.944932,30.4769219 142.583615,30.2813076 141.820969,30.1529357 C140.095618,29.8644045 139.494231,29.6431159 139.488168,29.6406707 L139.41542,29.6137737 L138.627312,29.9340921 L138.287819,29.9756602 L138.287819,29.3790365 L136.703115,29.5624249 L135.998668,29.7531489 C135.699187,29.4536145 134.658884,28.4865462 133.531283,28.2848189 C132.832898,28.1637826 132.63769,28.2713704 132.423082,28.4498685 C132.300622,28.5513434 132.173312,28.6564861 131.645886,28.6564861 L129.399171,28.6564861 L128.976018,27.8043413 L128.906907,27.7762217 C128.301882,27.5243683 127.530749,27.2443953 127.288254,27.3250862 C127.013022,27.4143352 126.736578,27.8728063 126.65898,28.0109589 L126.583806,28.4351974 L125.640501,28.4351974 L125.70355,27.5952784 L125.156724,26.9644223 L124.98819,26.4533799 L124.417115,26.3066691 L124.19887,24.8456747 L124.112784,24.7979937 C123.541709,24.4837882 122.551117,23.9544069 122.31226,23.9544069 C122.144939,23.9544069 121.377442,23.9042808 121.024612,23.8822742 L120.331077,23.7306731 L118.566927,23.5754042 L117.827318,24.0216494 L117.162882,23.9568521 L115.838861,23.7465667 L115.239898,22.834515 L115.133201,22.834515 C113.154443,22.834515 113.154443,23.0900362 113.15808,23.2404147 C113.130193,23.292986 112.94711,23.3907932 112.765239,23.4445871 L111.729786,23.8358158 L110.667658,22.2672334 L110.229955,22.1217453 L109.706166,21.2158065 L107.975966,20.8368037 L107.163608,19.9761007 L105.327922,19.5860947 C105.246687,17.5407025 105.024804,17.3927691 104.94963,17.342643 C104.801709,17.2448358 104.613775,17.0675603 104.520415,16.9758661 L104.520415,15.8999874 L104.721685,15.2850248 C104.858695,15.0845202 105.329135,14.3485213 105.138776,13.9279505 C105.087853,13.8166949 104.972667,13.6785423 104.713198,13.6528679 C103.961464,13.5758447 103.151531,13.6492001 103.117582,13.6528679 L103.015734,13.661426 L102.963598,13.750675 C102.784152,14.0587676 102.196102,15.0918557 102.196102,15.4182871 C102.196102,15.6028981 102.044542,16.3352292 101.932995,16.8267102 L100.040323,17.3695399 L98.7720748,16.8047036 L97.0588489,16.7875873 C97.1037104,16.6359862 97.2285953,16.4195879 97.5826377,16.2753223 C98.1137014,16.0625918 98.4786561,15.5857819 98.4313696,15.1676563 C98.4131825,15.01361 98.3064848,14.644388 97.6869105,14.549026 C97.0479366,14.4487736 96.9218393,14.0440965 96.8975898,13.8802695 L97.3049811,13.3790078 L97.8408947,13.3790078 L97.6844855,13.0831412 C97.3110435,12.377707 96.3798634,10.7369919 95.8051506,10.7369919 L93.1801442,10.7369919 L92.2938256,12.1160729 L91.9773698,12.7567098 L91.4341814,11.3275027 C91.6233274,10.9815098 92.2162272,9.81638205 91.9034089,9.22220355 C91.8258106,9.07427022 91.6584891,8.89332698 91.3020217,8.87009778 C90.9916284,8.85053635 90.5902994,8.86153965 90.164721,8.87254296 C89.2080789,8.89821734 87.6027632,8.93978538 87.5615391,8.45930771 C87.5579016,8.42385261 87.2450833,4.89056898 85.761015,4.69128689 C84.6406889,4.54213098 83.045073,4.68517395 82.9771744,4.69128689 L82.7965158,4.70718056 L82.7965158,4.89056898 C82.7965158,5.2610136 82.7334671,5.65346482 82.6607187,5.76594306 C82.6401066,5.75127198 82.6049449,5.72070725 82.5576584,5.66080036 C81.9623336,4.91257559 81.733176,4.68761912 81.7234762,4.67783841 L81.638603,4.59592491 L81.5270554,4.63015742 C81.5222055,4.6326026 81.0457031,4.77075521 80.7353098,4.56902794 C80.5789006,4.46755302 80.4867526,4.2951679 80.4528033,4.04086928 C80.3097313,2.94909687 80.3073064,2.20698504 80.3073064,2.19964951 L80.1048232,1.55901261 C80.229708,1.35850794 80.49039,0.873139907 80.3521679,0.486801628 C80.3024565,0.342536068 80.1763592,0.154257286 79.8623284,0.0674534317 C79.2851907,-0.0914832023 79.0075341,0.0564501263 78.6559166,0.242283729 C78.4473711,0.354761963 78.2085137,0.48191127 77.8314342,0.590721735 C76.7826441,0.893923929 74.5941283,1.18000987 73.6653731,1.18000987 C72.8372533,1.18000987 70.5226402,1.37195642 69.9818767,1.82553712 C69.5320488,2.20209469 68.4529469,3.35866435 68.4080853,3.40756793 L68.3523115,3.46747481 L68.5062957,13.0513538 L68.9124746,13.3753401 L68.4238475,13.2591941 L65.7794414,15.6994827 C65.7491296,15.7202667 62.755531,17.7033069 61.535782,18.0651934 C61.3575483,18.1177647 60.9901686,18.1752264 60.5233661,18.2498044 C57.7746873,18.6874914 51.3376621,19.7120214 51.9960356,24.4189909 C52.0105853,24.4984593 52.1754818,25.1219799 53.5140532,25.5364377 L52.8229429,25.7931815 L52.7598943,25.8323044 C52.7501945,25.8408625 51.7777902,26.7064559 50.7241502,27.0231066 C50.171262,27.1906013 49.3019181,26.9839837 48.3816502,26.7639176 C47.57293,26.571971 46.7363228,26.3714664 46.000351,26.3995859 C44.9782354,26.4362636 43.542666,26.1465099 42.5932988,25.9557859 C42.0731474,25.8506432 41.7300172,25.7809556 41.5639082,25.7809556 L40.4520694,25.7809556 L39.0649991,26.345792 C38.9704261,25.6697 38.6382082,23.9189518 37.6803536,23.2440824 C37.4851453,23.1071524 37.2572001,22.9005348 37.2717498,22.6926946 C37.2862995,22.4775188 37.5542563,22.2941304 37.6548916,22.2427817 L37.7252151,22.206104 L38.1629183,21.0189696 L37.9361856,20.9712886 C37.146865,20.8074616 34.5400456,20.3282065 34.1666036,21.0776539 C34.1071924,21.1950225 34.0489936,21.2133613 34.029594,21.2194742 C33.8731849,21.2671552 33.5834035,21.1033282 33.3275715,20.9590627 C33.1275133,20.8453619 32.9213927,20.7292159 32.7286093,20.6766445 C32.1878458,20.5287112 30.6480037,19.9761007 30.6322415,19.9712104 L30.5655554,19.9589845 C30.5243313,19.9589845 30.163014,19.9675426 30.0502539,20.2401801 C29.9277941,20.5372693 30.2054506,20.8649233 30.4249084,21.0849894 C31.2021044,21.8637789 31.2142291,22.2158847 30.9450598,22.7562692 C30.5934423,23.4641486 30.3545849,24.0815562 30.7134773,25.0449568 C31.0129584,25.8506432 32.014462,26.5426289 32.3551672,26.7602498 C32.3103057,27.1673721 32.2169452,28.4021875 32.6146367,29.1088442 C32.7152721,29.2861197 32.8268197,29.4621726 32.9407922,29.6431159 C33.328784,30.2568558 33.7301129,30.8913797 33.8113487,31.715405 C33.9156214,32.7594965 33.2875598,33.9405179 33.2814975,33.9527438 L33.2439108,34.0212088 L33.2620979,34.0970094 C33.3105969,34.2889559 33.7422376,35.9785746 34.3521121,36.3477966 C34.6673554,36.5397432 35.0177604,37.1229184 34.9316748,37.4346787 C34.8916631,37.5801668 34.7316165,37.6535222 34.4551724,37.6535222 L30.7534889,37.6535222 C30.4612827,37.3808847 30.1763512,37.007995 30.2054506,36.864952 C30.2103005,36.8405002 30.257587,36.8221614 30.2842614,36.8123806 C30.4855321,36.7475834 30.5813176,36.6412181 30.5667679,36.4993977 C30.5546432,36.3624677 30.5340311,36.1558501 29.0354131,35.977352 L28.9396276,35.9663487 L28.8717291,36.0348137 C28.4328135,36.4773911 27.9272117,36.8673972 27.7902022,36.8710649 L26.8335601,36.8710649 L26.5765156,37.0727922 C26.5886403,36.9676495 26.580153,36.8637294 26.5328665,36.7659222 C26.3837322,36.4578297 25.9533039,36.3453514 25.2161196,36.4223746 C24.1903665,36.5324076 23.7284139,36.4504941 23.5077436,36.4113713 C23.158551,36.3514644 23.0773152,36.4297101 22.9427306,36.7720352 C22.7693468,37.2084996 22.3510432,37.4138947 21.9460769,37.6107316 L21.8163422,37.6755288 C21.4792744,37.8454688 21.2076802,38.2195811 21.0621833,38.4555409 C20.8039263,38.2599266 20.3128742,37.8735883 19.9345823,37.4921404 C19.4180683,36.9713173 19.0979752,36.0103619 19.0955502,36.0005812 L19.0555386,35.9321162 C19.0482637,35.9223355 18.3001672,35.0591873 18.0916217,34.4319989 C18.0673722,34.3561983 18.0443352,34.2742848 18.0200857,34.1899262 C17.8273023,33.5187245 17.535096,32.5027527 16.0013163,32.6152309 C14.5936338,32.7179284 13.3472104,33.0064595 13.1180528,33.0614761 C12.6645875,33.0015692 11.3539029,32.8683069 10.9889482,33.2350838 C10.6130813,33.6104188 10.8470888,34.5640386 10.9258996,34.8452341 L10.860426,35.2939245 C10.5463952,34.9503768 9.94985791,34.5603708 8.89379294,34.631281 C7.79529139,34.7046363 7.54552172,34.9772738 7.49702275,35.3905091 C7.49581028,35.402735 7.49459781,35.4186286 7.49702275,35.4259642 C7.34182607,35.4455256 6.81803724,35.1398782 6.3657844,34.7853273 L6.31607296,34.7462044 L6.2530243,34.7437592 C5.68558641,34.7168622 3.80382657,34.6557328 3.43523444,35.0274 C3.24123858,35.2230143 2.63500152,35.3000374 2.2748967,35.3049278 C2.08332579,35.2401305 1.22489411,34.9956126 0.847814657,35.6240236 C0.661093642,35.9431195 0.782341054,36.2854446 0.899951044,36.6179889 C1.04544794,37.028779 1.18124504,37.4163398 0.859939398,37.8466913 C0.501047057,38.3296142 0.401624179,38.961693 0.593195091,39.53631 C0.755666623,40.0265684 1.1036467,40.3921227 1.52195027,40.513159 C1.69533407,40.5632852 1.80445674,40.6341954 1.83113117,40.7136637 C1.84931828,40.7735706 1.82749375,40.846926 1.80081932,40.9019425 L0.625931892,40.9019425 L0.572583031,40.9459557 C0.367674904,41.1134505 -0.0954902118,41.537689 0.0281821488,41.8934626 C0.136092346,42.1991099 0.558033341,42.1991099 0.697467865,42.1991099 C1.45526419,42.1991099 2.26398443,42.5292091 2.46404266,42.9204377 C2.53436616,43.0585904 2.518604,43.1918526 2.41433123,43.3397859 C2.15849919,43.7004498 1.4504143,43.7884763 0.931475371,43.8520509 C0.471947678,43.9095126 0.167616673,43.9461903 0.0463692607,44.1430272 C-0.00455465253,44.2237181 -0.0130419714,44.3203027 0.0184823558,44.4144421 C0.0463692607,44.5024685 0.0997181222,44.6455115 0.165191725,44.8240096 C0.385862015,45.424301 0.903588466,46.8278338 0.823565174,47.2251753 C0.74596683,47.637188 0.604107358,48.1641241 0.536208807,48.4172001 C0.513171798,48.5015588 0.499834583,48.5553527 0.497409635,48.5675786 L0.691405495,48.6054789 L0.696255391,48.6103692 L0.765366416,48.7900899 C1.2673307,48.6054789 1.87599271,48.5211202 2.11606259,48.7631929 C2.2421599,48.8658904 2.8932585,49.364707 3.36006104,49.1849863 C3.50192051,49.1299698 3.68136668,48.9905946 3.73592802,48.6384888 C3.7698773,48.4269808 3.86566275,48.1555659 4.13119459,48.0687621 C4.42461332,47.9734001 4.82351731,48.1335593 5.17513481,48.4881103 C5.46734107,48.7839769 5.50371529,49.0382756 5.53645209,49.2644546 C5.58737601,49.6202282 5.67467415,49.891643 6.27969873,49.891643 C6.44702016,49.891643 6.6422285,49.8794171 6.86047384,49.8647461 C7.82075334,49.802394 9.1350753,49.7143676 10.4687968,50.5335025 C11.5697233,51.2095945 14.1474433,52.7952931 14.0771198,53.6303217 C14.0177086,54.3773239 14.3693261,55.0362996 14.7354933,55.1830104 C14.9234268,55.2588109 15.1162102,55.2074621 15.2471574,55.0448577 L15.6036247,54.5924996 L15.5793753,54.4971376 C15.4593403,54.0117696 15.4072039,53.483611 15.4617653,53.3295647 C15.8218701,53.4310396 17.2513771,54.2672908 18.097684,54.7893365 L18.1534578,54.823569 L18.2189314,54.8186787 C19.5672027,54.6939746 21.1470564,54.6548517 21.4283504,54.7966721 C21.4465376,54.9091503 21.3689392,55.1328842 21.2949783,55.3505051 C21.1616061,55.7405112 20.9942847,56.2271018 21.0367213,56.8017188 C21.0609708,57.1098114 21.0464211,57.3934522 21.0330839,57.644083 C21.0112593,58.0585408 20.9954972,58.3580753 21.1797932,58.5280152 C21.2743662,58.6160416 21.4028885,58.6490516 21.5629351,58.627045 C21.6575081,58.6135965 21.7702681,58.5915899 21.8939405,58.5695832 C22.8614949,58.3923078 23.0979273,58.4375436 23.1258142,58.5072312 C23.3088978,58.9681474 24.3831499,59.5574356 24.8669271,59.3605986 C24.9602876,59.3226984 25.173683,59.4327314 25.2803807,59.6124521 C25.3931408,59.8019535 25.2900805,59.8887573 25.2573437,59.9156543 C25.125184,60.0269099 24.9069387,60.1063782 24.6971807,60.1834014 C24.3698127,60.3032151 24.0606318,60.4156934 23.9418093,60.6773275 C23.8811856,60.806922 23.8811856,60.9548553 23.9405968,61.1113468 C23.9939457,61.2592801 24.0800314,61.3570873 24.1952164,61.4035457 C24.3952746,61.483014 24.6038202,61.3778713 24.8038784,61.2763964 C25.0778976,61.1394664 25.2537063,61.0648884 25.4028406,61.1944829 C25.547125,61.319187 25.7411209,61.4182168 25.9472415,61.5245821 C26.2685471,61.6920768 26.6347143,61.879133 26.6832133,62.1297639 C26.7159501,62.2948134 26.6189522,62.5124344 26.3958569,62.7740685 C26.2467226,62.9501214 26.086676,63.1237291 25.9290544,63.2948916 C25.3131175,63.9612029 24.7323424,64.5896139 24.8050909,65.3121643 C24.8511649,65.7608546 25.1482211,66.1753125 25.710809,66.578767 C26.8202229,67.371005 27.2445888,68.3551895 27.6192433,69.2232281 C27.8326388,69.7171542 28.0351219,70.1841834 28.3382405,70.5741895 C29.2621458,71.7613239 31.8580529,72.8995547 31.968388,72.9472357 C32.1648088,73.0315944 32.7346716,73.4008164 33.2863474,73.7565899 C34.5715699,74.5867282 35.2044814,74.9779568 35.4554636,74.9779568 C35.6276349,74.9779568 36.1283867,75.2848268 36.1489988,75.4731056 C36.1562736,75.534235 36.0204765,75.6320422 35.7064457,75.7017298 C34.6503808,75.9376896 34.1750909,75.6100356 33.6234152,75.2298103 C33.5300547,75.165013 33.4366942,75.1002158 33.3409087,75.0390863 C32.8001453,74.6894257 32.0120371,74.4730274 31.6288952,74.7151001 C31.4579364,74.8239106 31.3791256,75.007299 31.4070125,75.2310329 C31.497948,76.0147127 33.1541877,76.5477617 33.3809204,76.5477617 C33.6282651,76.5477617 34.8116398,76.7030306 35.1959941,76.9597744 C35.2942045,77.0270168 35.4894129,77.1370499 35.7282703,77.2715347 C36.1574861,77.51483 37.264475,78.1383507 37.428159,78.4134333 C36.7697855,78.7068548 36.2653963,78.9256983 36.2653963,78.9256983 L36.0459385,79.0210603 L36.1768857,79.221565 C36.2096225,79.2704685 36.9565065,80.4343737 36.0362387,81.3024123 C35.858005,81.5420398 35.6336973,81.7743318 35.5088124,81.8550227 C35.5076,81.8391291 35.5076,81.8195676 35.5076,81.7963384 L35.5076,80.3390118 C35.6627967,79.9037699 35.7707069,79.1530999 35.2347933,78.9256983 C35.0844465,78.8609011 34.9110627,78.8009942 34.735254,78.7410873 C34.3787866,78.6212735 33.9362335,78.470895 33.8634851,78.2875066 C33.7543624,78.0173143 33.5203549,77.753235 33.2596729,77.8106967 C32.9614043,77.8767165 32.8462193,78.2813936 32.8862309,79.1188674 C32.9335174,80.123836 33.2996846,80.3377892 33.7398127,80.4967258 C33.9422959,80.5700812 34.075668,80.6189847 34.1593287,80.8256024 C34.2817886,81.1373627 34.3399874,81.4919136 34.4006111,81.8672486 C34.4794219,82.357507 34.5703575,82.9150078 34.8261895,83.5177444 C35.1474952,84.2720822 35.7440324,84.5985135 36.1405115,84.8149119 C36.2641838,84.8821543 36.4351427,84.9762937 36.4606046,85.0227521 C36.5163784,85.1327852 36.6679377,85.2440408 37.0971535,85.5496882 C38.0513707,86.2245576 40.0361908,87.6305355 40.1428885,89.1257624 C40.1926,89.8458677 40.3114225,90.6711156 40.4338823,91.4315662 C40.2798981,90.8936268 40.0762025,90.3349034 39.770659,89.829974 C39.2977941,89.0475167 38.5981965,88.450893 38.0356085,87.971638 C37.6694413,87.658655 37.3226737,87.364011 37.2753872,87.194071 C37.2220384,87.0057923 37.2523502,86.7062578 37.2778122,86.4421785 C37.3153989,86.0692887 37.3420733,85.800319 37.169902,85.6682794 C37.121403,85.6316017 37.0171303,85.5802529 36.863146,85.6401598 L36.773423,85.6756149 C36.372094,85.8308838 35.6264224,86.1206375 35.6264224,86.9483306 C35.6264224,87.3762369 35.4979002,88.8017762 35.3948399,89.9473426 C35.3087542,90.9034076 35.2566178,91.4975861 35.2566178,91.6516323 C35.2505555,91.7714461 35.0529222,92.5905811 34.8431642,93.457397 C34.3290751,95.5871479 33.5518792,98.8050035 33.5518792,99.9407891 C33.5518792,100.351579 33.5979532,100.637665 33.8258984,100.695127 C34.1071924,100.768482 34.310888,100.418822 34.6746302,99.7439522 C34.7910278,99.5263313 34.968049,99.1974547 35.0116981,99.154664 C35.2178187,99.1069831 36.2556965,99.5666767 36.3805813,99.8955533 C36.3914936,99.9212277 36.3999809,99.9432343 36.3163202,99.9933604 C35.6615842,100.387034 35.1996315,100.306343 35.1947816,100.306343 C34.7449537,100.215872 34.6431059,100.299008 34.6006693,100.335685 C34.546108,100.379699 34.5157961,100.445719 34.5182211,100.484841 C34.4963966,100.567978 34.2805762,100.992216 34.0938551,101.338209 L34.0708181,101.412787 C34.0562684,101.547272 32.5612878,114.95052 29.4015803,117.630436 L29.370056,117.665892 C28.9905516,118.18916 27.8350637,119.582912 27.0433181,119.751629 C26.3788823,119.895895 26.1594245,120.274898 26.1751866,120.581767 C26.1933737,120.935096 26.5049796,121.222404 26.9160083,121.26764 C27.257926,121.306763 27.5270953,121.306763 27.7138163,121.298205 C27.6677423,121.532942 27.65683,121.771347 27.7526155,121.902164 C27.8059643,121.974297 27.8872001,122.015865 27.9769232,122.015865 C28.0205723,122.015865 28.0993831,122.030536 28.2048683,122.048875 C28.6352966,122.121008 29.436742,122.255493 30.1157275,122.003639 C30.3533725,121.916835 30.5340311,121.91439 30.6225417,121.997526 C30.7243896,122.092888 30.7437891,122.328848 30.6722532,122.583146 C30.5352436,123.069737 29.8198839,124.231197 29.8210963,124.231197 C29.8041217,124.251981 29.4246173,124.745907 30.1217899,125.534478 C30.5667679,126.035739 31.0117459,126.268031 31.3100146,126.151885 C31.3924628,126.12132 31.5803963,126.013733 31.5803963,125.698305 C31.5803963,125.319302 31.6701194,124.909734 31.7513551,124.788698 L31.75863,124.796033 C32.1053976,125.144471 32.3927539,125.644511 32.3963914,125.649401 L32.4533777,125.749653 L33.515505,125.749653 L33.6682767,126.52233 L33.8562102,126.49421 C33.86591,126.49421 34.7425288,126.367061 35.3330037,126.827977 C35.7694944,127.170302 36.3805813,127.199644 36.9722687,127.227764 C37.3723852,127.246103 37.7858388,127.265664 38.131394,127.38181 C38.8794905,127.636109 38.9583013,128.833024 38.9595138,128.84525 L38.9801259,129.193688 L39.2686947,129.000519 C39.2699072,128.999296 39.463903,128.874592 39.6966981,128.924718 C39.8725068,128.962618 40.0325534,129.093436 40.1732004,129.314724 C40.7794375,130.278125 41.4487232,130.14364 42.159233,130.00182 C42.4538642,129.943135 42.7387956,129.743853 43.0152397,129.550684 C43.6154144,129.132558 43.9342951,128.974844 44.266513,129.341621 C44.4204973,129.512784 44.5744815,129.703508 44.7321031,129.899122 C45.345615,130.65835 46.0415752,131.519053 47.0527786,131.646202 C48.0579196,131.775797 49.3322299,131.400462 49.7905452,131.248861 C49.9421044,131.525166 50.3106966,132.021537 51.0042318,132.021537 C51.2467266,132.021537 51.5365079,132.015424 51.8566011,132.008089 C52.608335,131.990973 53.5431526,131.971411 54.4731202,132.021537 C54.8380749,132.042321 55.1581681,132.069218 55.4321873,132.091225 C56.3172934,132.16458 56.7210472,132.19759 56.8192577,131.88583 C56.8592693,131.768461 56.8350198,131.591186 56.7756086,131.199957 C56.7295346,130.896755 56.6094996,130.091069 56.733172,129.977368 C56.9332302,129.856331 56.9805167,129.639933 57.012041,129.49689 C57.0168909,129.469993 57.0253783,129.434538 57.0326531,129.407641 C57.0872144,129.423535 57.2145242,129.480996 57.4788436,129.67172 C58.559158,130.448065 58.8125651,130.527533 60.1862983,130.527533 C61.0483674,130.527533 61.5382069,131.044688 61.8619375,131.385791 C62.0256215,131.558176 62.1432315,131.681658 62.2838785,131.718335 C62.4512,131.761126 62.942252,131.845484 63.4611909,131.934734 C63.901319,132.010534 64.3499344,132.087557 64.5912168,132.137683 C64.7670255,132.173138 64.9428343,132.394427 65.1125807,132.60838 C65.3393133,132.894466 65.5963578,133.218452 65.96495,133.218452 C66.1068094,133.218452 66.3432419,133.21234 66.6233234,133.206227 C67.3023089,133.18911 68.3171498,133.164659 68.7099914,133.211117 C68.6372429,133.439741 68.5523698,133.871315 69.2337802,134.509507 C69.8339549,135.070676 70.4692913,135.213719 70.9324565,135.318861 C71.3216607,135.40811 71.5459684,135.465572 71.6356914,135.64407 C71.729052,135.833571 71.7072274,136.018182 71.6841904,136.213797 C71.6490287,136.514554 71.6017422,136.926566 72.1825173,137.162526 C72.9087893,137.454725 74.0072908,137.893635 75.3676868,136.362953 C76.0490973,135.592721 76.5656112,135.941159 77.421618,136.625809 C77.820522,136.944905 78.2339756,137.276227 78.708053,137.442499 C78.9335732,137.521968 79.132419,137.601436 79.3142901,137.674791 C79.7604806,137.852067 80.1290727,138 80.5352515,138 C80.9474927,138 81.3973206,137.847176 81.9987078,137.418047 C82.3297132,137.180865 82.6291943,136.948573 82.9080634,136.732175 C83.7470955,136.078089 84.3533325,135.607392 85.0662673,135.607392 C85.4809335,135.607392 85.7561651,135.570715 85.9368237,135.387326 C86.1744687,135.146476 86.1696188,134.738131 86.1611315,133.926332 C86.1587065,133.745389 86.1562816,133.542439 86.1562816,133.315037 C86.1562816,131.44692 86.1611315,127.118954 86.1611315,127.118954 L86.1611315,127.030927 L86.0968703,126.97102 C85.8592254,126.752177 85.221464,126.101759 85.1099164,125.719089 L85.1087039,125.712976 C85.1390158,125.719089 85.1717526,125.725201 85.2020644,125.732537 C85.387573,125.77166 85.6409801,125.826676 85.9610732,125.826676 C86.8692163,125.826676 87.2147715,125.388989 87.5191025,125.003874 C87.6597495,124.825376 87.7143108,124.567409 87.7664472,124.319224 C87.8501079,123.926772 87.9155815,123.685922 88.128977,123.660248 C88.2502244,123.644354 88.3896589,123.639464 88.5424306,123.633351 C89.1510926,123.607676 89.9852748,123.573444 90.6824475,122.935252 C91.0122404,122.630827 91.1637997,122.63205 91.3638579,122.633273 C91.6342397,122.634495 91.9616077,122.634495 92.5969441,122.121008 L92.8503512,121.91439 C95.9761095,119.370181 97.8966685,118.191605 98.555042,118.397 C98.6435526,118.42512 98.693264,118.482581 98.7235759,118.586501 C99.1261173,120.005928 99.6438437,120.009596 100.447714,119.89834 C100.575024,119.881224 100.710821,119.862885 100.85753,119.850659 C101.766886,119.778526 104.260945,119.853104 104.884157,120.057277 C104.765334,120.156306 104.627112,120.245555 104.491315,120.332359 C104.203959,120.518193 103.955402,120.678352 103.914178,120.924093 C103.90084,121.006006 103.906903,121.133155 104.016025,121.271308 C104.337331,121.672317 106.455523,121.768902 107.343054,121.790909 C107.931104,121.828809 108.93867,121.830031 109.09023,121.408238 C109.199352,121.103813 108.847735,120.843402 108.73255,120.75782 C108.405182,120.515748 108.281509,120.279788 108.303334,120.152639 C108.308184,120.125742 108.322733,120.084174 108.390632,120.064612 C108.521579,120.025489 108.848947,120.075615 109.259976,120.508412 C109.355761,120.735814 109.846813,121.718776 111.207209,121.718776 L112.982272,121.718776 L113.023496,121.713885 C113.318127,121.651533 113.63337,121.619746 113.807966,121.619746 C113.588509,121.949845 113.774017,122.161353 113.866165,122.266496 C113.88799,122.290948 113.923151,122.331293 113.926789,122.345964 C113.926789,122.345964 113.926789,122.359413 113.908602,122.3912 C113.845553,122.503678 113.738855,122.646721 113.634583,122.784874 C113.382388,123.121086 113.229616,123.325258 113.322977,123.51476 C113.344801,123.55755 113.411487,123.657803 113.576384,123.657803 C113.644282,123.657803 113.777655,123.641909 114.045611,123.607676 C114.820382,123.508647 116.875526,123.247013 117.467213,123.626015 C117.691521,123.771503 117.886729,123.909656 118.066176,124.036805 C118.473567,124.325337 118.806997,124.561296 119.191352,124.662771 C119.174377,124.832711 119.190139,125.068671 119.345336,125.267953 C119.561156,125.547926 119.967335,125.659182 120.556597,125.600497 C121.194359,125.5357 121.556889,125.325415 121.849095,125.156697 C122.260124,124.91707 122.506256,124.774027 123.345288,125.134691 C123.435011,125.173814 123.508972,125.209269 123.568383,125.238611 C123.562321,125.238611 123.555046,125.238611 123.548984,125.239833 C123.324676,125.255727 123.147655,125.270398 123.12098,125.456232 C123.094306,125.638398 123.282239,125.709308 123.353775,125.736205 C123.987899,125.978278 124.968791,125.830344 125.010015,125.824231 L125.202798,125.794889 L125.177336,125.600497 C125.157937,125.444006 125.119138,124.991648 125.171274,124.782585 C125.220985,124.674997 125.674451,124.40725 126.04183,124.40725 L126.053955,124.40725 C126.237039,124.409695 126.268563,124.484273 126.278263,124.507502 C126.446797,124.902399 126.651705,125.102903 126.885712,125.102903 C127.09062,125.102903 127.257942,124.952525 127.384039,124.657881 C127.425263,124.561296 127.459213,124.459821 127.493162,124.355901 C127.643509,123.902321 127.772031,123.509869 128.607426,123.509869 C129.823537,123.509869 131.149984,122.919359 131.205758,122.893684 L131.373079,122.817884 L131.312455,122.644276 C130.907489,121.482816 130.663782,121.283534 130.529197,121.248079 C130.507373,121.174723 130.49646,120.998671 130.557084,120.822618 C130.581333,120.750485 130.63832,120.623336 130.745017,120.58788 C130.867477,120.546312 130.942651,120.475402 130.9669,120.377595 C131.006912,120.222326 130.900214,120.107403 130.815341,120.014486 C130.782604,119.979031 130.720768,119.913011 130.712281,119.905676 C130.713493,119.902008 130.766842,119.811536 131.177871,119.69539 C131.679835,119.554792 132.018115,119.513224 132.28971,119.478992 C132.732263,119.422753 133.025681,119.386075 133.477934,118.978953 C133.856226,118.642741 133.876838,118.147592 133.895025,117.751473 C133.91685,117.244098 133.954436,117.162185 134.162982,117.162185 C135.037176,117.162185 135.662813,117.077826 136.078691,116.657255 C136.310274,116.424963 136.321186,116.121761 136.330886,115.878466 C136.341798,115.600938 136.361198,115.538586 136.447283,115.509244 L136.680078,115.433443 C137.080195,115.301403 137.494861,115.166919 137.821016,114.968859 C138.156872,114.764687 138.641861,114.295212 138.780083,114.15706 L139.554854,113.944329 C139.922234,113.824515 141.129858,113.395386 141.225644,112.856224 C141.242618,112.758417 141.238981,112.568916 141.021948,112.397753 C140.766116,112.196026 140.569695,112.121448 140.426623,112.089661 C140.564845,111.677648 140.84129,111.25341 140.843714,111.249742 L140.876451,111.199616 L140.876451,110.435497 L141.560287,110.05894 C141.967678,109.912229 142.720624,109.38407 142.656363,108.437786 C142.594527,107.595422 142.143487,107.107609 141.898567,106.902214 C141.943428,106.781177 141.951916,106.64547 141.876742,106.530546 C141.727608,106.30559 141.375991,106.284806 140.701855,106.464527 C140.196253,106.597789 139.627603,106.812965 139.07714,107.022027 C138.435741,107.2641 137.465762,107.630877 137.30329,107.540405 C136.996534,106.91933 135.944107,105.915584 133.949587,106.002388 C133.858651,105.614827 133.644043,104.905725 133.271814,104.752901 C133.120254,104.691772 133.057206,104.602523 132.984457,104.499825 C132.911709,104.39835 132.82926,104.282204 132.666789,104.227188 L132.575853,104.196623 C132.563729,103.948437 132.583128,103.705142 132.62314,103.629342 C132.911709,103.50097 132.95657,102.950804 132.95657,102.626818 L132.95657,102.488666 L131.900505,102.080321 C131.841094,102.020414 131.774408,101.922607 131.782895,101.873703 C131.78532,101.856587 131.821694,101.813796 131.934455,101.771006 C132.712863,101.476361 132.955358,101.08391 133.020831,100.81005 C133.089942,100.539858 133.052356,99.9016662 133.034169,99.6473676 L134.290292,98.4626784 L133.380936,97.3892448 C133.504609,97.2021886 133.673142,96.8769798 133.566445,96.6116779 C133.515521,96.489419 133.389424,96.3365953 133.071755,96.3048079 C132.732263,96.2693528 132.230298,96.3072531 131.745309,96.3439308 C131.409453,96.3683826 130.965688,96.4026151 130.788667,96.3818311 C130.76078,96.2864691 130.703793,96.1996652 130.644382,96.1091936 C130.546172,95.9588151 130.435837,95.7900978 130.435837,95.5321314 C130.435837,95.4123176 130.449174,95.3181782 130.460086,95.232597 C130.507373,94.8853815 130.51586,94.6359733 130.113318,93.9378747 L130.049057,93.8241739 L129.373709,93.901197 C129.173651,93.5918819 128.857195,92.9549127 129.058466,92.5673519 C129.242762,92.2128009 129.844149,92.1431133 130.324289,92.1504488 C130.439474,92.2238042 130.705006,92.3558439 131.052986,92.2934918 C131.472502,92.2164687 131.854431,91.8839243 132.189074,91.3044169 C132.566154,90.6442186 132.889884,90.7004577 133.263326,90.7652549 C133.576145,90.8190489 134.004148,90.8936268 134.267255,90.3165646 C134.600685,89.591569 134.513387,88.9876098 134.455188,88.5866005 C134.437001,88.4557834 134.417602,88.320076 134.430939,88.2638368 C134.443064,88.2161559 134.456401,88.1807008 134.468526,88.1489134 C134.567948,87.8921696 134.544911,87.7479041 134.186019,87.1414997 C133.880476,86.6304573 133.330012,86.2563449 132.927471,85.9824849 C132.723775,85.8443322 132.532204,85.7147378 132.469156,85.6303791 C132.355183,85.4775554 132.248485,84.5630585 132.215749,83.8038304 L132.207261,83.6106612 L131.124522,83.6106612 L131.042074,83.6290001 C131.032374,83.6326678 130.828678,83.7231395 130.655294,83.5898772 C130.458874,83.4394987 130.17273,82.9260111 130.409162,81.1740404 C130.821403,81.1642597 131.836244,81.0835688 132.375795,80.5578553 C132.612228,80.3267859 132.733475,80.0394773 132.733475,79.7044878 C132.733475,78.381646 131.394904,77.3656741 131.130584,77.1773953 L130.512222,76.004932 L129.599229,75.9266863 C129.558005,75.8631116 129.510719,75.7653045 129.533756,75.683391 C129.56528,75.5733579 129.732602,75.471883 129.992071,75.4009728 L130.076944,75.3789662 L130.118168,75.3007205 C130.132718,75.2726009 130.477061,74.6026219 130.210316,73.8861844 C130.039358,73.4252682 129.659853,73.0597139 129.082715,72.7993024 C129.186988,72.4740935 129.186988,72.2491371 129.080291,72.1268781 C129.008755,72.043742 128.902057,72.0131773 128.780809,72.0412969 C128.512853,72.1122071 125.103375,72.985136 124.503201,73.1391822 L124.002449,72.7772957 L123.932125,72.7821861 C122.559605,72.8714351 122.559605,73.1599663 122.559605,73.2846704 C122.559605,73.3849227 122.604466,73.5401916 122.696614,73.8543971 C122.808162,74.2333998 123.016707,74.938834 122.942746,75.1356709 C122.806949,75.4963348 122.694189,75.7237364 122.121902,75.8508857 C121.553251,75.978035 120.178305,76.1076295 119.849725,76.1381943 C119.784251,76.0856229 119.718778,76.011045 119.723628,75.9645866 C119.727265,75.9217959 119.808501,75.8215436 120.089795,75.7115105 C121.060987,75.3361756 121.656311,74.9632858 121.680561,74.9473921 L121.789684,74.8801497 L121.70481,74.2077254 L122.039453,73.3983712 C122.09644,73.3360191 122.186163,73.2076472 122.1704,73.0279266 C122.152213,72.8090831 121.983679,72.609801 121.684198,72.4410836 C121.519302,72.3334958 121.084024,71.9764996 121.054924,71.626839 C121.0428,71.4740153 121.110698,71.332195 121.26347,71.1915972 C121.6163,70.867611 121.781196,70.5534055 121.755734,70.2550936 C121.741185,70.0937118 121.673286,69.9726754 121.605388,69.8895394 C121.784834,69.6010082 122.237087,68.9224711 122.722076,68.5972623 C123.105218,68.3380733 125.104588,66.6790194 125.104588,66.2657841 C125.104588,66.1765351 125.058514,66.0885086 124.984553,65.9454657 C124.839056,65.6642701 124.596561,65.1935731 124.749333,64.7436602 C124.858456,64.4184514 125.163999,64.1360332 125.657476,63.9061864 C127.608347,62.9978024 127.772031,62.507544 127.768394,62.1053121 C127.83023,61.9072526 128.705636,61.0098719 129.482832,60.2909893 L129.510719,60.2592019 C129.541031,60.2164113 130.268515,59.1869909 130.572846,58.4265403 C130.652869,58.2235904 130.838378,57.992521 131.017824,57.7700097 C131.313668,57.4020103 131.593749,57.0560175 131.464015,56.7393668 C131.34883,56.4581712 130.975388,56.387261 130.702581,56.3566963 C130.678331,56.3542511 130.655294,56.3518059 130.632257,56.3493607 C130.764417,55.9202318 131.010549,55.4030765 131.254257,55.3333889 L131.396116,55.2918208 C131.705297,55.2001266 132.173312,55.0607514 132.339421,55.1732296 C132.355183,55.1830104 132.395195,55.2086847 132.40732,55.3138274 C132.484918,55.9238996 133.265751,56.0877266 133.704667,56.0877266 L133.705879,56.0877266 L135.112349,56.1684175 L135.171761,56.1219591 C135.345144,55.9874742 136.213276,55.288153 136.213276,54.7661073 C136.213276,54.6731905 136.209638,54.576606 136.207213,54.481244 C136.199939,54.2892974 136.190239,53.9677564 136.225401,53.9127399 C136.546706,53.8027068 136.806176,53.4151459 136.806176,53.0483691 C136.806176,52.7011537 136.401209,52.1412077 136.318761,52.0287295 L135.860446,51.4357736 L136.064141,50.615416 L136.425459,48.0589814 L136.893474,47.5075935 L136.58308,45.9487919 L136.510332,44.3019639 L138.064724,42.213781 L138.064724,39.1304103 Z" id="Fill-4" fill="#E9364B"></path>
                <path d="M123,28.7908251 C123,30.3313934 120.5,34 120.5,34 C120.5,34 118,30.3313934 118,28.7908251 C118,27.2488874 119.118744,26 120.5,26 C121.880029,26 123,27.2488874 123,28.7908251 Z" id="Stroke-8" stroke="#E2E2E2" stroke-width="2"></path>
                <path d="M118,91.7908251 C118,93.3313934 115.500613,97 115.500613,97 C115.500613,97 113,93.3313934 113,91.7908251 C113,90.2488874 114.119696,89 115.500613,89 C116.880304,89 118,90.2488874 118,91.7908251 Z" id="Stroke-16" stroke="#E2E2E2" stroke-width="2"></path>
                <path d="M122,80.7903474 C122,82.3306521 119.500613,86 119.500613,86 C119.500613,86 117,82.3306521 117,80.7903474 C117,79.2500428 118.119696,78 119.500613,78 C120.880304,78 122,79.2500428 122,80.7903474 Z" id="Stroke-20" stroke="#E2E2E2" stroke-width="2"></path>
                <path d="M125,103.790347 C125,105.330652 122.5,109 122.5,109 C122.5,109 120,105.330652 120,103.790347 C120,102.250043 121.118744,101 122.5,101 C123.880029,101 125,102.250043 125,103.790347 Z" id="Stroke-24" stroke="#E2E2E2" stroke-width="2"></path>
                <path d="M130,117.790347 C130,119.330652 127.5,123 127.5,123 C127.5,123 125,119.330652 125,117.790347 C125,116.248674 126.118744,115 127.5,115 C128.880029,115 130,116.248674 130,117.790347 Z" id="Stroke-28" stroke="#E2E2E2" stroke-width="2"></path>
                <path d="M103,98.7917166 C103,100.332021 100.5,104 100.5,104 C100.5,104 98,100.332021 98,98.7917166 C98,97.2500428 99.1187439,96 100.5,96 C101.881256,96 103,97.2500428 103,98.7917166 Z" id="Stroke-32" stroke="#E2E2E2" stroke-width="2"></path>
                <path d="M110,106.790347 C110,108.330652 107.5,112 107.5,112 C107.5,112 105,108.330652 105,106.790347 C105,105.250043 106.118744,104 107.5,104 C108.880029,104 110,105.250043 110,106.790347 Z" id="Stroke-36" stroke="#E2E2E2" stroke-width="2"></path>
                <path d="M102,111.790347 C102,113.330652 99.5,117 99.5,117 C99.5,117 97,113.330652 97,111.790347 C97,110.248674 98.1187439,109 99.5,109 C100.881256,109 102,110.248674 102,111.790347 Z" id="Stroke-40" stroke="#E2E2E2" stroke-width="2"></path>
                <path d="M93,89.7903474 C93,91.3306521 90.5,95 90.5,95 C90.5,95 88,91.3306521 88,89.7903474 C88,88.2500428 89.1187439,87 90.5,87 C91.8800294,87 93,88.2500428 93,89.7903474 Z" id="Stroke-44" stroke="#E2E2E2" stroke-width="2"></path>
                <path d="M86,81.7903474 C86,83.3306521 83.5,87 83.5,87 C83.5,87 81,83.3306521 81,81.7903474 C81,80.2500428 82.1187439,79 83.5,79 C84.8800294,79 86,80.2500428 86,81.7903474 Z" id="Stroke-48" stroke="#E2E2E2" stroke-width="2"></path>
                <path d="M60,69.7903474 C60,71.3320212 57.5,75 57.5,75 C57.5,75 55,71.3320212 55,69.7903474 C55,68.2500428 56.1187439,67 57.5,67 C58.8800294,67 60,68.2500428 60,69.7903474 Z" id="Stroke-52" stroke="#E2E2E2" stroke-width="2"></path>
                <path d="M42,93.7903474 C42,95.3306521 39.5,99 39.5,99 C39.5,99 37,95.3306521 37,93.7903474 C37,92.2500428 38.1187439,91 39.5,91 C40.8800294,91 42,92.2500428 42,93.7903474 Z" id="Stroke-56" stroke="#E2E2E2" stroke-width="2"></path>
                <path d="M50,96.7917166 C50,98.3320212 47.5006132,102 47.5006132,102 C47.5006132,102 45,98.3320212 45,96.7917166 C45,95.2500428 46.1196959,94 47.5006132,94 C48.8803041,94 50,95.2500428 50,96.7917166 Z" id="Stroke-60" stroke="#E2E2E2" stroke-width="2"></path>
                <path d="M52,119.790347 C52,121.330652 49.5,125 49.5,125 C49.5,125 47,121.330652 47,119.790347 C47,118.250043 48.1187439,117 49.5,117 C50.8800294,117 52,118.250043 52,119.790347 Z" id="Stroke-64" stroke="#E2E2E2" stroke-width="2"></path>
                <path d="M71,116.790347 C71,118.330652 68.4993868,122 68.4993868,122 C68.4993868,122 66,118.330652 66,116.790347 C66,115.248674 67.1196959,114 68.4993868,114 C69.8803041,114 71,115.248674 71,116.790347 Z" id="Stroke-68" stroke="#E2E2E2" stroke-width="2"></path>
                <path d="M51,73.7903474 C51,75.3320212 48.5,79 48.5,79 C48.5,79 46,75.3320212 46,73.7903474 C46,72.2500428 47.1187439,71 48.5,71 C49.8800294,71 51,72.2500428 51,73.7903474 Z" id="Stroke-72" stroke="#E2E2E2" stroke-width="2"></path>
                <path d="M30,47.7917166 C30,49.3320212 27.5,53 27.5,53 C27.5,53 25,49.3320212 25,47.7917166 C25,46.2500428 26.1187439,45 27.5,45 C28.8800294,45 30,46.2500428 30,47.7917166 Z" id="Stroke-76" stroke="#E2E2E2" stroke-width="2"></path>
                <path d="M40,59.7903474 C40,61.3320212 37.5,65 37.5,65 C37.5,65 35,61.3320212 35,59.7903474 C35,58.2500428 36.1187439,57 37.5,57 C38.8800294,57 40,58.2500428 40,59.7903474 Z" id="Stroke-92" stroke="#E2E2E2" stroke-width="2"></path>
                <path d="M124,49.7903474 C124,51.3320212 121.499387,55 121.499387,55 C121.499387,55 119,51.3320212 119,49.7903474 C119,48.2500428 120.119696,47 121.499387,47 C122.880304,47 124,48.2500428 124,49.7903474 Z" id="Stroke-100" stroke="#E2E2E2" stroke-width="2"></path>
                <path d="M99,26.7903474 C99,28.3306521 96.5,32 96.5,32 C96.5,32 94,28.3306521 94,26.7903474 C94,25.2486736 95.1187439,24 96.5,24 C97.8800294,24 99,25.2486736 99,26.7903474 Z" id="Stroke-104" stroke="#E2E2E2" stroke-width="2"></path>
                <path d="M83,34.7903474 C83,36.3320212 80.5,40 80.5,40 C80.5,40 78,36.3320212 78,34.7903474 C78,33.2500428 79.1187439,32 80.5,32 C81.8812561,32 83,33.2500428 83,34.7903474 Z" id="Stroke-108" stroke="#E2E2E2" stroke-width="2"></path>
                <path d="M77,30.7903474 C77,32.3306521 74.5006132,36 74.5006132,36 C74.5006132,36 72,32.3306521 72,30.7903474 C72,29.2486736 73.1196959,28 74.5006132,28 C75.8803041,28 77,29.2486736 77,30.7903474 Z" id="Stroke-112" stroke="#E2E2E2" stroke-width="2"></path>
                <path d="M90,33.7903474 C90,35.3306521 87.4993868,39 87.4993868,39 C87.4993868,39 85,35.3306521 85,33.7903474 C85,32.2500428 86.1196959,31 87.4993868,31 C88.8803041,31 90,32.2500428 90,33.7903474 Z" id="Stroke-120" stroke="#E2E2E2" stroke-width="2"></path>
                <path d="M68,21.7903474 C68,23.3306521 65.5,27 65.5,27 C65.5,27 63,23.3306521 63,21.7903474 C63,20.2500428 64.1187439,19 65.5,19 C66.8800294,19 68,20.2500428 68,21.7903474 Z" id="Stroke-136" stroke="#E2E2E2" stroke-width="2"></path>
                <path d="M62,21.7917166 C62,23.3320212 59.4993868,27 59.4993868,27 C59.4993868,27 57,23.3320212 57,21.7917166 C57,20.2500428 58.1196959,19 59.4993868,19 C60.8803041,19 62,20.2500428 62,21.7917166 Z" id="Stroke-140" stroke="#E2E2E2" stroke-width="2"></path>
                <path d="M104,69.7903474 C104,71.3306521 101.499387,75 101.499387,75 C101.499387,75 99,71.3306521 99,69.7903474 C99,68.2500428 100.119696,67 101.499387,67 C102.880304,67 104,68.2500428 104,69.7903474" id="Fill-150" fill="#F5486A"></path>
                <path d="M87,44.7903474 C87,46.3306521 84.4993868,50 84.4993868,50 C84.4993868,50 82,46.3306521 82,44.7903474 C82,43.2500428 83.1196959,42 84.4993868,42 C85.8803041,42 87,43.2500428 87,44.7903474" id="Fill-150-Copy" fill="#F5486A"></path>
                <path d="M85,25.7903474 C85,27.3306521 82.4993868,31 82.4993868,31 C82.4993868,31 80,27.3306521 80,25.7903474 C80,24.2500428 81.1196959,23 82.4993868,23 C83.8803041,23 85,24.2500428 85,25.7903474" id="Fill-150-Copy-2" fill="#F5486A"></path>
                <path d="M76,42.7903474 C76,44.3306521 73.4993868,48 73.4993868,48 C73.4993868,48 71,44.3306521 71,42.7903474 C71,41.2500428 72.1196959,40 73.4993868,40 C74.8803041,40 76,41.2500428 76,42.7903474" id="Fill-150-Copy-3" fill="#F5486A"></path>
                <path d="M68,33.7903474 C68,35.3306521 65.4993868,39 65.4993868,39 C65.4993868,39 63,35.3306521 63,33.7903474 C63,32.2500428 64.1196959,31 65.4993868,31 C66.8803041,31 68,32.2500428 68,33.7903474" id="Fill-150-Copy-4" fill="#F5486A"></path>
                <path d="M44,44.7903474 C44,46.3306521 41.4993868,50 41.4993868,50 C41.4993868,50 39,46.3306521 39,44.7903474 C39,43.2500428 40.1196959,42 41.4993868,42 C42.8803041,42 44,43.2500428 44,44.7903474" id="Fill-150-Copy-5" fill="#F5486A"></path>
                <path d="M54,104.790347 C54,106.330652 51.4993868,110 51.4993868,110 C51.4993868,110 49,106.330652 49,104.790347 C49,103.250043 50.1196959,102 51.4993868,102 C52.8803041,102 54,103.250043 54,104.790347" id="Fill-150-Copy-6" fill="#F5486A"></path>
                <path d="M94,105.790347 C94,107.330652 91.4993868,111 91.4993868,111 C91.4993868,111 89,107.330652 89,105.790347 C89,104.250043 90.1196959,103 91.4993868,103 C92.8803041,103 94,104.250043 94,105.790347" id="Fill-150-Copy-8" fill="#F5486A"></path>
                <path d="M130,40.7903474 C130,42.3306521 127.499387,46 127.499387,46 C127.499387,46 125,42.3306521 125,40.7903474 C125,39.2500428 126.119696,38 127.499387,38 C128.880304,38 130,39.2500428 130,40.7903474" id="Fill-150-Copy-7" fill="#F5486A"></path>
                <path d="M74,84.7908251 C74,86.3313934 71.5,90 71.5,90 C71.5,90 69,86.3313934 69,84.7908251 C69,83.2488874 70.1187439,82 71.5,82 C72.8800294,82 74,83.2488874 74,84.7908251" id="Fill-158" fill="#F5486A"></path>
            </g>
        </g>
    </g>
</svg>