<?xml version="1.0" encoding="UTF-8"?>
<svg width="171px" height="146px" viewBox="0 0 171 146" version="1.1" xmlns="http://www.w3.org/2000/svg" xmlns:xlink="http://www.w3.org/1999/xlink">
    <title>Group 108</title>
    <defs>
        <polygon id="path-1" points="0 0 3.63829787 0 3.63829787 6.03305785 0 6.03305785"></polygon>
        <polygon id="path-3" points="0 0 8.4893617 0 8.4893617 18.5013774 0 18.5013774"></polygon>
        <polygon id="path-5" points="0 0 23.8510638 0 23.8510638 3.61983471 0 3.61983471"></polygon>
    </defs>
    <g id="Page-1" stroke="none" stroke-width="1" fill="none" fill-rule="evenodd">
        <g id="MISSON-ET-CHIFFRES-CLES" transform="translate(-685.000000, -2760.000000)">
            <g id="Group-108" transform="translate(685.000000, 2760.000000)">
                <path d="M139.389428,6.86035645 C139.389428,6.86035645 135.839634,3.97207662 130.183593,7.0492046 C124.527312,10.1263326 126.978901,16.4863663 122.163015,15.4684461 C117.34665,14.4500491 112.850755,15.1107792 112.891651,19.142401 C112.952157,25.1187773 109.891438,23.1935753 108.643282,28.7080843 C107.518053,33.6789396 109.652521,35.5953191 112.99114,33.7561956 C117.747476,31.1356891 114.502128,36.8049487 121.667484,36.9988042 C128.833078,37.1924212 136.698444,30.2245922 137.528076,25.9392653 C138.357709,21.6534614 140.104983,19.1826982 141.439952,17.3147229 C142.774682,15.4467477 144.134524,9.71692315 139.389428,6.86035645" id="Fill-1" fill="#FFE4DD"></path>
                <path d="M127.700681,59.420997 L120.813876,56.3908271 C120.182534,56.1129596 119.892026,55.3666253 120.168462,54.7317736 L130.460984,31.0967357 C131.483486,28.748408 135.262237,25.3020362 137.598465,26.3298341 L138.275124,26.6276007 C140.617077,27.6582756 140.664064,32.793909 139.638938,35.1482305 L129.350947,58.77224 C129.07475,59.4068519 128.331784,59.6988645 127.700681,59.420997" id="Fill-3" fill="#E75724"></path>
                <polygon id="Fill-5" fill="#E9364B" points="124.097736 24.4300477 139.468085 22.9256198 123.016019 56.7107438 114.404255 55.2420846"></polygon>
                <path d="M113.955898,57.4100794 L107.069094,54.3799002 C106.437752,54.1020319 106.147482,53.3554556 106.423679,52.7208417 L116.7162,29.0857316 C117.738941,26.7373966 121.517453,23.2910143 123.853681,24.3188154 L124.53034,24.6165829 C126.872292,25.6470212 126.919518,30.78291 125.894153,33.136999 L115.606164,56.7613204 C115.329967,57.3959343 114.58724,57.687708 113.955898,57.4100794" id="Fill-7" fill="#E9364B"></path>
                <path d="M133.808511,89.1979923 C133.808511,89.1979923 130.326393,90.0927462 127.083214,93.4003843 C125.343243,95.1750156 123.052433,97.0504236 122.358571,96.3953745 C122.024444,96.0800871 121.567103,93.822927 123.917587,91.8709766 C126.172157,89.9977281 125.226069,86.668015 127.5565,85.9944901 C129.149098,85.5342761 129.283425,87.1668601 132.998682,85.2672176 L133.808511,89.1979923 Z" id="Fill-9" fill="#FFFFFF"></path>
                <path d="M157.659574,76.6344945 C157.644962,82.6750089 131.750679,90.4958678 131.750679,90.4958678 C131.750679,90.4958678 130.596796,87.0472382 132.535971,85.06728 C132.535971,85.06728 138.093328,79.9879566 140.704824,77.9815894 C143.813918,75.5950284 146.212636,74.9885739 146.212636,74.9885739 C146.144902,74.7596963 145.14755,74.517971 143.656669,74.2212866 L143.653797,74.2217624 C139.033476,73.3043485 129.693268,71.8711271 128.732536,68.7184682 C128.644935,68.4313005 128.591801,68.1193893 128.568106,67.787255 C128.243314,63.3167652 133.331076,55.3048577 133.331076,55.3048577 L138.868328,52.6887052 C138.868328,52.6887052 140.423115,58.9057551 142.550894,60.2145451 C144.678194,61.5219076 157.674401,70.5939802 157.659574,76.6344945" id="Fill-11" fill="#E9364B"></path>
                <path d="M141.893617,24.1651642 C141.893617,24.1651642 156.922598,18.0926794 159.077603,16.8520566 C161.232128,15.6114337 167.515342,5.22865014 167.515342,5.22865014 L169.787234,6.23762639 C169.787234,6.23762639 168.477273,15.4335195 162.351188,20.7726159 C159.959533,22.856719 146.012006,30.1652893 146.012006,30.1652893 L141.893617,24.1651642 Z" id="Fill-13" fill="#FFBE9D"></path>
                <path d="M98.6382979,106.273832 C98.6382979,106.273832 96.6566492,108.940009 95.9950769,111.326333 C95.3335045,113.713138 94.2834384,116.462431 93.3787625,116.222213 C92.9428281,116.106428 91.4787778,114.348033 92.5604709,111.507698 C93.5982638,108.782427 91.2056992,106.318753 92.8786299,104.608402 C94.021453,103.439982 94.9124396,104.806101 97.1869928,101.355372 L98.6382979,106.273832 Z" id="Fill-15" fill="#FFFFFF"></path>
                <path d="M139.87234,54.9756423 C139.87234,54.9756423 125.52952,77.776891 118.946751,85.0626972 C115.451217,88.9313764 98.7461409,106.181818 98.7461409,106.181818 C98.7461409,106.181818 97.3449939,105.082469 96.8373877,104.049805 C95.8402097,102.019011 96.3360335,100.656494 96.3360335,100.656494 C96.3360335,100.656494 102.493914,84.62472 109.453,79.4433 C114.27562,75.8530304 115.317282,56.6532449 125.674997,48.990907 C136.032472,41.328569 139.87234,54.9756423 139.87234,54.9756423" id="Fill-17" fill="#E9364B"></path>
                <path d="M147.337894,40.7554003 C143.294607,51.9884537 142.483683,57.1747135 140.762007,58.4723592 C139.039607,59.7685639 120.984672,59.121062 119.200784,56.6179963 C118.72889,55.9544029 118.767471,55.1390213 119.120246,54.2138813 L119.121211,54.2122001 C120.099239,51.6433275 123.492918,48.2331348 125.079802,44.9233336 C126.110879,42.7740404 126.834996,40.9215989 127.335825,39.3215775 C129.785959,31.4922322 126.885633,29.6959908 128.370037,28.5371642 C130.969671,26.5093976 143.566603,21.2899942 147.824497,22.2343479 C149.909317,22.6973982 147.79749,27.1021404 148.360531,30.4782289 C149.06584,34.7170127 148.608414,37.2258424 147.337894,40.7554003" id="Fill-19" fill="#FF9A00"></path>
                <path d="M127.686934,28.9586777 C127.686934,28.9586777 116.824079,38.3406345 114.723872,42.851002 C112.623425,47.3613694 109.957447,57.6431496 109.957447,57.6431496 C109.957447,57.6431496 110.161879,58.262182 112.346869,57.6400376 C112.346869,57.6400376 118.478882,45.7604068 119.514657,44.5201874 C120.550431,43.279968 130.170213,36.5096293 130.170213,36.5096293 L127.686934,28.9586777 Z" id="Fill-21" fill="#FFBE9D"></path>
                <path d="M151.388453,25.8410642 C151.018434,27.4130707 150.069989,29.3213959 148.14922,31.3719008 L141.489362,23.1165048 C141.489362,23.1165048 147.316315,21.5300914 150.527086,20.5123967 C150.527086,20.5123967 152.160572,22.5605398 151.388453,25.8410642" id="Fill-23" fill="#FF9A00"></path>
                <path d="M136.234043,24.5344353 C136.234043,24.5344353 130.699047,25.9673464 126.678419,28.8871681 C125.011582,30.0973319 120.87234,34.6441249 120.87234,34.6441249 C120.87234,34.6441249 122.613612,38.702272 128.012466,39.3828083 C133.411079,40.0631036 131.173983,30.0534575 131.173983,30.0534575 L136.234043,24.5344353 Z" id="Fill-25" fill="#FF9A00"></path>
                <g id="Group-29" transform="translate(167.361702, 0.000000)">
                    <mask id="mask-2" fill="white">
                        <use xlink:href="#path-1"></use>
                    </mask>
                    <g id="Clip-28"></g>
                    <path d="M0,5.04362843 C0,5.04362843 0.284754408,0.055499038 1.34025666,0.0014024235 C2.39575892,-0.05316256 3.36986907,1.49737287 3.61333763,2.40694539 C3.8570421,3.31675209 2.23769309,6.03305785 2.23769309,6.03305785 L0,5.04362843 Z" id="Fill-27" fill="#FFBE9D" mask="url(#mask-2)"></path>
                </g>
                <path d="M112.321049,57.9919352 C112.321049,57.9919352 112.988431,60.2893081 112.726167,61.2746297 C112.463904,62.2599512 111.493892,63.1240626 110.762213,63.145812 C110.030534,63.1678057 111.070161,61.3098197 110.496565,60.3897464 C109.92297,59.4694287 108.873916,57.4980526 110.181608,56.8516797 C111.489541,56.2053068 112.321049,57.9919352 112.321049,57.9919352" id="Fill-30" fill="#FFBE9D"></path>
                <path d="M112.233659,57.5151515 C112.233659,57.5151515 112.828613,58.9033965 113.136611,59.3620739 C113.444403,59.8209862 112.370226,59.2162272 112.0777,58.7850281 C111.78538,58.3540639 112.233659,57.5151515 112.233659,57.5151515" id="Fill-32" fill="#FFBE9D"></path>
                <path d="M133.213535,34.3881004 C132.183315,39.221077 128.109441,41.5420509 126.388633,42.3227662 C126.037192,42.4813152 125.784578,42.5761077 125.675626,42.615324 L125.624525,42.6336088 L124.914894,40.5541874 C124.930802,40.5500974 125.500147,40.347761 126.290046,39.905075 L126.291492,39.9045938 C127.884307,39.0110417 130.37766,37.140212 131.061741,33.9292948 C132.007354,29.4935327 128.046047,26.8992482 127.542507,26.5910521 C128.399176,26.2470081 129.26428,25.9655175 130.070329,25.7410468 C131.989999,27.4403356 134.047545,30.4792309 133.213535,34.3881004" id="Fill-34" fill="#E9364B"></path>
                <path d="M140.117399,24.0431354 C140.117399,24.0431354 146.083369,24.1577348 148.186253,31.3719008 C148.186253,31.3719008 149.430542,30.7458621 149.574468,29.5874592 C149.574468,29.5874592 147.261485,23.2341269 140.95756,22.7803522 C140.59219,22.7538313 139.083918,22.523416 139.083918,22.523416 L139.06383,22.8723237 C139.06383,22.8723237 139.186486,23.7419166 139.240843,23.8414307 C139.295199,23.9411882 140.117399,24.0431354 140.117399,24.0431354" id="Fill-36" fill="#E9364B"></path>
                <path d="M133.816616,25.607611 C134.154785,24.3156791 134.356368,22.4327698 134.165383,20.1101928 L134.499313,20.1493496 L140.11561,20.8150148 C140.11561,20.8150148 140.130446,22.6113924 140.258555,24.2934419 C140.259732,24.307461 140.26091,24.3214801 140.261852,24.3352575 C140.642175,29.5133788 133.535907,26.6800717 133.816616,25.607611" id="Fill-38" fill="#FFBE9D"></path>
                <path d="M141.533326,20.5575151 C141.533326,20.5575151 134.410388,23.1228943 132.821308,18.8227405 C131.232473,14.5225868 129.243015,11.9574426 133.723502,10.1380564 C138.203989,8.31843521 139.698704,9.65412463 140.591387,10.9651356 C141.484071,12.2761467 143.345272,19.7793226 141.533326,20.5575151" id="Fill-40" fill="#FFBE9D"></path>
                <path d="M136.638298,8.48319956 C136.638298,8.48319956 136.539163,14.360602 133.916063,16.1864645 C131.292962,18.0118438 129.765957,17.6719406 129.765957,17.6719406 C129.765957,17.6719406 131.355857,15.0423411 130.725509,11.7012882 C130.725509,11.7012882 134.371288,6.53485598 136.638298,8.48319956" id="Fill-42" fill="#FFE4DD"></path>
                <path d="M136.638298,9.42814947 C136.638298,9.42814947 138.220767,9.45557567 139.157555,10.3077468 C140.073499,11.1408176 141.02106,12.3429177 141.484536,14.077135 C141.484536,14.077135 141.69063,9.97618368 139.409082,8.54659309 C136.989828,7.03056099 136.638298,9.42814947 136.638298,9.42814947" id="Fill-44" fill="#FFE4DD"></path>
                <path d="M64.6808511,121.794353 C64.6808511,121.794353 60.4548352,123.47654 56.9345726,128.118602 C55.0459237,130.609307 52.4818897,133.315029 51.5001519,132.615092 C51.0273823,132.277653 50.0740689,129.547351 52.6998108,126.736149 C55.2186571,124.039019 53.470673,120.055369 56.2863972,118.836387 C58.210273,118.004004 58.6526745,120.010743 63.0033208,117.041322 L64.6808511,121.794353 Z" id="Fill-46" fill="#FFFFFF"></path>
                <path d="M85.2890997,100.647645 C85.8040399,107.578806 63.4779641,125.085399 63.4779641,125.085399 C63.4779641,125.085399 60.7229744,123.900184 60.1881088,118.29269 C60.1881088,118.29269 66.7661389,106.453953 71.1605348,102.169406 C71.8624858,101.485536 71.7330906,100.325232 69.5249697,99.0801334 L69.5235293,99.0806125 C68.8878363,98.7217903 68.0804966,98.3560217 67.0710219,97.9933669 C67.0710219,97.9933669 57.4652878,94.5766516 51.4554923,91.490733 C50.3163823,90.9053115 49.3066675,90.3318667 48.5170927,89.7960288 C48.231655,89.6041619 57.5084996,76.1998301 57.5084996,76.1998301 L63.8313403,73.2011019 C63.8313403,73.2011019 66.7404519,77.0623926 68.9394504,79.6000176 C70.8073987,81.755825 84.7379097,93.2441231 85.2890997,100.647645" id="Fill-48" fill="#FFFFFF"></path>
                <path d="M51.152669,80.3217032 L43.3018986,76.8897245 C42.5820476,76.5753849 42.2510212,75.7299113 42.5660456,75.0110799 L54.2998078,48.2437931 C55.4655652,45.5845463 59.773207,41.6808197 62.4362258,42.8449258 L63.2076653,43.1821612 C65.8776103,44.3493679 65.9311095,50.1658442 64.7622473,52.831769 L53.0342171,79.5868924 C52.7191927,80.3057238 51.87252,80.6362813 51.152669,80.3217032" id="Fill-50" fill="#E75724"></path>
                <polygon id="Fill-52" fill="#FFE4DD" points="47.0911733 40.7469012 63.4680851 39.415978 45.8511203 77.6253444 35.9787234 75.9472133"></polygon>
                <path d="M35.7909694,78.3107853 L27.9399615,74.8788045 C27.2203495,74.5642262 26.8893232,73.7187521 27.2043475,72.9999203 L38.9378688,46.2328553 C40.1038648,43.5733683 44.411267,39.6696393 47.0745242,40.8339847 L47.8459636,41.1709818 C50.5159081,42.3381892 50.5694073,48.1546691 49.4005453,50.820834 L37.6725172,77.5759741 C37.3574928,78.294806 36.5108202,78.6251252 35.7909694,78.3107853" id="Fill-54" fill="#FFE4DD"></path>
                <path d="M67.106383,40.1867522 C67.106383,40.1867522 84.3136962,33.2327792 86.780831,31.8121499 C89.2477248,30.3912805 96.441246,18.5013774 96.441246,18.5013774 L99.0425532,19.6565695 C99.0425532,19.6565695 97.5430498,30.1875785 90.5287463,36.301521 C87.7903761,38.6885337 71.8216888,47.0578512 71.8216888,47.0578512 L67.106383,40.1867522 Z" id="Fill-56" fill="#5B2D0F"></path>
                <g id="Group-60" transform="translate(10.106383, 127.498623)">
                    <mask id="mask-4" fill="white">
                        <use xlink:href="#path-3"></use>
                    </mask>
                    <g id="Clip-59"></g>
                    <path d="M8.4893617,6.11452494 C8.4893617,6.11452494 5.88849154,9.42906653 5.02030614,12.3965419 C4.15212074,15.3637804 2.7735416,18.7820865 1.5861451,18.483112 C1.01407161,18.3390736 -0.90733842,16.1531487 0.5120329,12.6216019 C1.87414772,9.23361968 -1.26586729,6.17090839 0.929784154,4.04444672 C2.43000263,2.59174362 3.5994604,4.29011748 6.58466172,0 L8.4893617,6.11452494 Z" id="Fill-58" fill="#FFFFFF" mask="url(#mask-4)"></path>
                </g>
                <path d="M65.0851064,75.4619247 C65.0851064,75.4619247 48.7500437,101.498485 41.2529168,109.818145 C37.2721052,114.235725 18.247006,133.933884 18.247006,133.933884 C18.247006,133.933884 16.6509769,132.678578 16.0731831,131.499235 C14.9373204,129.18068 15.5021246,127.624626 15.5021246,127.624626 C15.5021246,127.624626 23.8286575,107.879647 30.0032573,100.175338 C35.060276,93.8660789 37.119839,77.3774913 48.9157806,68.6280889 C60.7117222,59.8784477 65.0851064,75.4619247 65.0851064,75.4619247" id="Fill-61" fill="#FFFFFF"></path>
                <path d="M73.086607,62.5905959 C69.8860997,75.7116522 68.7911388,79.702298 66.4279122,80.321495 C47.8910014,85.1793507 41.7989632,82.0499473 39.780189,79.2177298 C39.2458922,78.4674846 40.0999521,76.2279679 41.2366212,74.5221924 L41.2380594,74.5205215 C42.3447657,71.6138285 46.1852786,67.7551857 47.9813692,64.0099272 C49.1480011,61.5782542 49.9675438,59.4824371 50.5344402,57.6718708 C53.3070786,48.8126275 50.0248327,46.7803056 51.7049073,45.469107 C54.6467757,43.1744499 68.9030799,37.2689243 73.7215789,38.3373614 C76.0812099,38.8610769 73.6913764,43.8454456 74.3285055,47.6654183 C75.1269544,52.4616886 74.2635461,57.7654426 73.086607,62.5905959" id="Fill-63" fill="#E9364B"></path>
                <path d="M50.9350207,46.2534435 C50.9350207,46.2534435 38.5516451,56.9384572 36.1571385,62.0752619 C33.7628709,67.2120666 30.7234043,78.9219986 30.7234043,78.9219986 C30.7234043,78.9219986 30.9570438,79.6267498 33.4474456,78.9184066 C33.4474456,78.9184066 40.4382189,65.3887656 41.618852,63.9763897 C42.799246,62.5637744 53.7659574,54.8531793 53.7659574,54.8531793 L50.9350207,46.2534435 Z" id="Fill-65" fill="#5B2D0F"></path>
                <path d="M78.1931983,42.3165081 C77.7788754,44.1215157 76.7167281,46.31263 74.5656187,48.6666667 L67.106383,39.1883524 C67.106383,39.1883524 73.6325617,37.3671479 77.2285806,36.1983471 C77.2285806,36.1983471 79.058388,38.5500018 78.1931983,42.3165081" id="Fill-67" fill="#E9364B"></path>
                <path d="M61.0425532,41.0247934 C61.0425532,41.0247934 54.7794208,42.6515634 50.2296225,45.9656748 C48.3432605,47.3393436 43.6595745,52.500637 43.6595745,52.500637 C43.6595745,52.500637 45.6301832,57.1074152 51.7393804,57.8796983 C57.848339,58.6519814 55.3168812,47.2895887 55.3168812,47.2895887 L61.0425532,41.0247934 Z" id="Fill-69" fill="#E9364B"></path>
                <path d="M96.6170213,18.5866632 C96.6170213,18.5866632 96.933609,12.9336428 98.1062497,12.8720981 C99.2791208,12.8105534 100.361275,14.5676079 100.631814,15.5987147 C100.902582,16.6293553 99.1034434,19.707989 99.1034434,19.707989 L96.6170213,18.5866632 Z" id="Fill-71" fill="#5B2D0F"></path>
                <path d="M33.8373104,79.0665084 C33.8373104,79.0665084 34.588317,81.6510154 34.2928351,82.7596272 C33.9978309,83.8682389 32.9066738,84.8399344 32.0835286,84.8648063 C31.2606222,84.8889538 32.4298897,82.7992291 31.7844636,81.7640257 C31.1392764,80.7288223 29.9592597,78.5108744 31.4304586,77.7837931 C32.9016575,77.0569534 33.8373104,79.0665084 33.8373104,79.0665084" id="Fill-73" fill="#5B2D0F"></path>
                <path d="M33.489047,78.4297521 C33.489047,78.4297521 34.2821152,80.0955791 34.6926645,80.6461511 C35.1034554,81.1967231 33.6710032,80.4708791 33.2809934,79.95348 C32.8909837,79.4363285 33.489047,78.4297521 33.489047,78.4297521" id="Fill-75" fill="#5B2D0F"></path>
                <path d="M57.1862982,52.3100592 C56.0088528,57.7184472 51.3530312,60.3157505 49.3865086,61.1893222 C48.9845898,61.3664487 48.6959148,61.4728664 48.5712982,61.516616 L48.5127405,61.5371901 L47.7021277,59.210188 C47.7200337,59.2054583 48.3707018,58.9791432 49.2737487,58.4834728 L49.2754425,58.4832363 C51.0955709,57.4831457 53.9450566,55.3897897 54.7271166,51.7964161 C55.8077724,46.8328544 51.280439,43.9297774 50.7050249,43.5847473 C51.6840516,43.2002244 52.6729993,42.8849913 53.5939524,42.6336088 C55.7879305,44.5351763 58.1394338,47.9358155 57.1862982,52.3100592" id="Fill-77" fill="#FFE4DD"></path>
                <path d="M65.4924516,40.3385832 C65.4924516,40.3385832 72.3760739,40.468516 74.8025161,48.6666667 C74.8025161,48.6666667 76.2382608,47.9553151 76.4042553,46.6389868 C76.4042553,46.6389868 73.7354085,39.4190963 66.4615913,38.903494 C66.040018,38.8736216 64.2998302,38.6115702 64.2998302,38.6115702 L64.2765957,39.0081688 C64.2765957,39.0081688 64.4179186,39.9961436 64.4806756,40.1093187 C64.5434325,40.2224937 65.4924516,40.3385832 65.4924516,40.3385832" id="Fill-79" fill="#FFE4DD"></path>
                <path d="M57.8181211,41.9042948 C58.2197335,40.4690809 58.4589815,38.3771221 58.2325064,35.7961433 L58.6292062,35.8397847 L65.2981826,36.5795662 C65.2981826,36.5795662 65.3153771,38.5752779 65.4684074,40.4445473 C65.4693899,40.4598808 65.4706181,40.4754502 65.4718462,40.4910196 C65.9235681,46.244142 57.4850407,43.0958243 57.8181211,41.9042948" id="Fill-81" fill="#5B2D0F"></path>
                <path d="M67.791742,35.6405579 C67.791742,35.6405579 60.5457706,39.8163334 58.0429996,35.3198382 C55.5404652,30.8233429 52.919889,28.3343772 57.4402529,25.4778557 C61.9610899,22.621572 63.8225554,23.833127 65.0271027,25.1283687 C66.232123,26.4236104 69.6120466,34.438275 67.791742,35.6405579" id="Fill-83" fill="#5B2D0F"></path>
                <path d="M51.5912053,26.852418 C51.4906131,26.7977458 51.3043754,26.7936871 50.9361702,26.9097164 C50.9361702,26.9097164 51.1570459,26.6196432 51.5390112,26.4646988 C51.4265568,25.9315848 51.3606026,24.9374574 52.1432757,24.394555 C52.1432757,24.394555 51.7719864,24.8183245 51.9112496,25.377939 C52.5261901,23.9676819 54.3888052,22.407494 60.4974044,20.6417481 C68.5478588,18.3144777 67.8465609,24.3241257 67.0577193,25.3063159 C66.269115,26.2887449 63.1080548,25.6030739 61.2781797,26.4646988 C59.4480672,27.3263236 60.1104569,30.2041361 59.611055,30.8217652 C59.1111785,31.4393943 59.1152117,30.6789967 58.1026475,30.611671 C57.0905579,30.5443454 57.5455949,32.0190632 58.1451145,32.8632597 C58.7443968,33.707695 58.0160529,35.3939394 58.0160529,35.3939394 L56.3289996,34.5447292 C54.6419462,33.6950416 51.4547891,28.6045555 51.5632103,27.2222315 C51.5729374,27.0999949 51.581241,26.9768033 51.5912053,26.852418" id="Fill-85" fill="#FF9A00"></path>
                <path d="M136.173826,38.5249461 L136.1391,38.5451831 L136.102458,38.5303755 C135.770282,38.3980948 135.48361,38.1962186 135.249626,37.9309168 C135.249147,37.918824 135.243879,37.9062375 135.232383,37.8929108 C135.046298,37.6786949 134.893981,37.4232648 134.780462,37.1337773 C134.58767,36.643154 134.571864,36.2265684 134.571385,36.2090461 L134.56923,36.1424122 L134.638443,36.129579 C135.009655,36.0604771 135.320516,35.8911775 135.515702,35.7616115 C135.724779,35.6226674 135.852428,35.4958161 135.857936,35.4901399 L135.90823,35.4393006 L135.965468,35.4819957 C135.980556,35.4931014 136.121138,35.5937927 136.343626,35.6959647 C136.555576,35.7936945 136.887512,35.9119081 137.264952,35.9217798 L137.335363,35.9237541 L137.343026,35.9898945 C137.345182,36.00717 137.391164,36.4215344 137.273334,36.9363434 C137.203881,37.2406384 137.09132,37.5170459 136.938764,37.7581621 C136.929424,37.7732164 136.926071,37.78679 136.927029,37.7991296 C136.735195,38.0979952 136.481813,38.3420729 136.173826,38.5249461 M137.834943,36.9884166 C137.800696,36.5303699 137.730045,36.1169926 137.62395,35.757416 C137.315724,34.7144713 136.707175,34.1224163 135.815067,34.192999 C134.933497,34.2625944 134.421223,34.9289339 134.264596,35.9871798 C134.208315,36.3682272 134.198017,36.800114 134.232983,37.2734618 C134.248789,37.481261 134.274654,37.6838776 134.310339,37.879584 C134.312973,37.87835 134.315607,37.8773628 134.318481,37.8763757 C134.318481,37.87835 134.318242,37.8805711 134.318481,37.8825455 C134.335725,38.1142835 135.055159,38.1009568 135.217534,37.9827432 C135.45559,38.249279 135.745854,38.4526359 136.081382,38.5863974 L136.144369,38.6115702 L136.202805,38.5767725 C136.513186,38.3926654 136.768964,38.1473537 136.964629,37.8479945 C137.134429,37.9459711 137.817699,37.8684783 137.846199,37.6498202 C137.848354,37.6345191 137.849312,37.6189712 137.848115,37.6034233 C137.854581,37.4032746 137.85051,37.1976965 137.834943,36.9884166" id="Fill-87" fill="#E9364B"></path>
                <path d="M143.854732,36.5139261 L143.820006,36.5344101 L143.783124,36.5196024 C143.45119,36.3873206 143.16452,36.1854428 142.930537,35.9201388 C142.930058,35.9080459 142.92479,35.8954594 142.913294,35.8821325 C142.72721,35.6679149 142.574894,35.4124827 142.461375,35.1227461 C142.268585,34.6321189 142.252779,34.2155299 142.2523,34.1980075 L142.249905,34.1316198 L142.319357,34.1185397 C142.690568,34.0496841 143.001187,33.8803831 143.196612,33.7505693 C143.405447,33.611624 143.533096,33.4847717 143.538844,33.4790954 L143.589137,33.4285026 L143.646375,33.4709512 C143.661463,33.4823038 143.802044,33.5829959 144.024291,33.6851688 C144.23648,33.7826526 144.568414,33.9008671 144.945852,33.9107388 L145.016262,33.9127132 L145.023926,33.9791009 C145.026081,33.9963765 145.072063,34.4104975 144.954234,34.9255574 C144.884782,35.2298549 144.772221,35.5062646 144.619665,35.7473827 C144.610325,35.7621904 144.606972,35.7760109 144.60793,35.7883506 C144.415859,36.0869718 144.162717,36.3312983 143.854732,36.5139261 M145.51584,34.9773842 C145.481592,34.5193338 145.410943,34.1062 145.304848,33.7466206 C144.996624,32.7034207 144.387838,32.1116077 143.495975,32.1819441 C142.61441,32.2517869 142.102139,32.9181318 141.945512,33.9761394 C141.888992,34.3574367 141.878934,34.7893269 141.913899,35.2624318 C141.929706,35.4704794 141.955571,35.6730976 141.991255,35.8685588 C141.993889,35.8675716 141.996524,35.8665844 141.999397,35.8653505 C141.999397,35.8675716 141.999158,35.8697928 141.999397,35.8715203 C142.016401,36.1032603 142.736071,36.0901802 142.898446,35.9719656 C143.136499,36.2385036 143.426762,36.4418622 143.762289,36.5756247 L143.825035,36.600551 L143.883471,36.5659997 C144.19409,36.3818911 144.449866,36.1363307 144.64553,35.8372159 C144.815329,35.9349465 145.498596,35.8576998 145.527096,35.63904 C145.529251,35.6237387 145.530209,35.6079439 145.529012,35.5926427 L145.529012,35.5923959 C145.535478,35.3924924 145.531167,35.1869127 145.51584,34.9773842" id="Fill-89" fill="#E9364B"></path>
                <path d="M61.3865095,55.4175081 L61.3520231,55.4379919 L61.3151419,55.4231843 C60.982971,55.2909036 60.6965425,55.0890274 60.462562,54.8237256 C60.462083,54.8116327 60.4568143,54.7987995 60.4453188,54.7857195 C60.2589966,54.5712569 60.1069212,54.3158268 59.9934036,54.0263393 C59.8006152,53.535716 59.7848089,53.1191304 59.7840904,53.1016081 L59.781935,53.035221 L59.8513868,53.022141 C60.2225943,52.9530391 60.5332112,52.7837395 60.7283945,52.6541735 C60.9374681,52.5152294 61.0651156,52.3883781 61.0708634,52.3827018 L61.1209165,52.3318626 L61.1781543,52.3745577 C61.1934816,52.3856633 61.333822,52.4866014 61.556307,52.5887735 C61.768494,52.6862565 62.1001859,52.8044701 62.4776202,52.8143418 L62.5482693,52.8163161 L62.555933,52.8824565 C62.5578489,52.8997319 62.6038307,53.3140964 62.4862418,53.8291521 C62.4165505,54.1332004 62.3039908,54.4096079 62.151676,54.6509709 C62.1420965,54.6657784 62.1389831,54.679352 62.1399411,54.6919384 C61.9478711,54.9905572 61.6947315,55.2348817 61.3865095,55.4175081 M63.0476033,53.8809786 C63.0133564,53.4229318 62.9429468,53.0095546 62.8366138,52.649978 C62.5286313,51.6070333 61.9198509,51.0149783 61.0279949,51.0855609 C60.1461974,51.1551564 59.633931,51.8214959 59.4773054,52.8797418 C59.4210255,53.2607892 59.4107275,53.6929227 59.4459323,54.1660238 C59.4614991,54.373823 59.4876034,54.5766864 59.5232872,54.7721459 C59.5256821,54.7711588 59.528556,54.7699248 59.5311903,54.7689376 C59.5314298,54.7711588 59.5311903,54.7731331 59.5311903,54.7751075 C59.5484335,55.0068455 60.2680972,54.9937655 60.430231,54.875552 C60.6685223,55.1420878 60.9587826,55.3454447 61.2940669,55.4789594 L61.3570524,55.5041322 L61.4154876,55.4693345 C61.7261045,55.2852274 61.981639,55.0399157 62.1775408,54.7408033 C62.3473383,54.8385331 63.0303601,54.7610403 63.0588593,54.542629 C63.0610147,54.5270811 63.0619727,54.5115332 63.0610147,54.496232 L63.0607752,54.4959852 C63.0674809,54.2960834 63.0631701,54.0905053 63.0476033,53.8809786" id="Fill-91" fill="#FFFFFF"></path>
                <path d="M70.6845192,53.4067308 L70.6497931,53.4269689 L70.6129115,53.4121605 C70.2809774,53.2798724 69.994307,53.077985 69.7603246,52.8126683 C69.7598456,52.8005748 69.7545768,52.7879877 69.7430812,52.7746602 C69.556997,52.5604324 69.4046809,52.304988 69.2911623,52.0152376 C69.0983723,51.5245869 69.0825659,51.1082249 69.0820869,51.0904548 L69.0799315,51.024064 L69.1491443,51.01123 C69.5203549,50.9421243 69.8309743,50.7728153 70.0263988,50.643242 C70.2352347,50.5040433 70.3631227,50.3774318 70.368631,50.3717552 L70.418924,50.3209132 L70.4761623,50.3636106 C70.4912502,50.3747169 70.6318313,50.4754138 70.8540786,50.5775916 C71.0662674,50.6753268 71.3982015,50.793547 71.7756389,50.8034192 L71.8460491,50.8053937 L71.8537128,50.8715377 C71.8558683,50.8888142 71.9018505,51.3032017 71.7840211,51.8180394 C71.7145687,52.1223514 71.6020081,52.3987744 71.4494525,52.639904 C71.4401124,52.6549592 71.4367595,52.6685335 71.4377175,52.6808738 C71.2456459,52.9797561 70.9925043,53.2238474 70.6845192,53.4067308 M72.3456268,51.8701155 C72.3113796,51.4120433 72.2407298,50.9986429 72.1346354,50.6390463 C71.8264109,49.5960434 71.2176255,49.0039554 70.3257621,49.074542 C69.4441968,49.1441413 68.9319262,49.810518 68.7752993,50.8688229 C68.7187795,51.2498916 68.7087209,51.6818024 68.7436865,52.1551767 C68.7594929,52.3629875 68.7853579,52.5656153 68.821042,52.7610858 C68.8236764,52.7600986 68.8263108,52.7591114 68.8291847,52.7581242 C68.8291847,52.7600986 68.8289452,52.7623199 68.8291847,52.7642943 C68.846428,52.9960453 69.5658581,52.9827178 69.7282328,52.8644976 C69.9662866,53.1310483 70.2565493,53.3344166 70.5920758,53.4681855 L70.6548224,53.4931129 L70.7132581,53.4585601 C71.0238775,53.2744427 71.2796536,53.0291173 71.4753175,52.7297414 C71.6451164,52.8277235 72.3283834,52.7502264 72.3568828,52.5315561 C72.3590382,52.5162541 72.3599962,52.5007053 72.3587987,52.4851565 C72.365265,52.2849967 72.3609542,52.0794072 72.3456268,51.8701155" id="Fill-93" fill="#FFFFFF"></path>
                <g id="Group-97" transform="translate(0.000000, 74.005510)">
                    <mask id="mask-6" fill="white">
                        <use xlink:href="#path-5"></use>
                    </mask>
                    <g id="Clip-96"></g>
                    <path d="M0.0353886876,2.72995608 L0.0353886876,2.72995608 C-0.159826083,2.16800544 0.471977387,1.65148331 1.44733001,1.57607198 L21.6958138,0.00924275069 C22.670926,-0.0661685723 23.6200737,0.328150875 23.8155289,0.889874374 C24.0112245,1.45182502 23.3789402,1.96834715 22.4035876,2.04375847 L2.15510376,3.61058771 C1.17999155,3.68599903 0.230843871,3.29190672 0.0353886876,2.72995608" id="Fill-95" fill="#FFE4DD" mask="url(#mask-6)"></path>
                </g>
                <path d="M0.911479304,88.7344083 L0.911479304,88.7344083 C0.581025735,88.2070428 1.07222741,87.5355261 2.00887566,87.2346162 L21.4540709,80.9878215 C22.3904771,80.6866737 23.4176672,80.870312 23.7481207,81.3976774 C24.0785743,81.9250429 23.5871305,82.5965596 22.6507244,82.8974695 L3.20577122,89.14474 C2.26912297,89.445412 1.24193287,89.2617737 0.911479304,88.7344083" id="Fill-98" fill="#FFE4DD"></path>
                <path d="M12.5392752,102.889113 L12.5392752,102.889113 C11.9711755,102.633898 11.993909,101.803253 12.5902462,101.034022 L24.9692682,85.0660903 C25.5656054,84.2968595 26.5094071,83.8803421 27.0777461,84.1357966 C27.6458458,84.391251 27.6231122,85.221418 27.026775,85.9906489 L14.6477531,101.958581 C14.0514159,102.727811 13.1076142,103.144329 12.5392752,102.889113" id="Fill-100" fill="#FFE4DD"></path>
                <path d="M78.491111,56.8087807 L78.491111,56.8087807 C78.2263705,56.2614988 78.7870257,55.6638307 79.743353,55.4743602 L99.5962557,51.5400604 C100.552343,51.3505898 101.542243,51.6408327 101.806743,52.188579 C102.071484,52.7358609 101.511068,53.3332968 100.554741,53.5229995 L80.7018384,57.4572993 C79.7455112,57.6465377 78.7558516,57.3562948 78.491111,56.8087807" id="Fill-102" fill="#FFE4DD"></path>
                <path d="M80.9990493,68.3664419 L80.9990493,68.3664419 C80.6109987,67.8787266 81.0124551,67.1494281 81.8953241,66.7376115 L100.231134,58.1897834 C101.114243,57.7782062 102.144815,57.8399787 102.532866,58.3276941 C102.920916,58.8154094 102.51946,59.5447079 101.636591,59.9565245 L83.3007807,68.5043526 C82.4176723,68.9159298 81.3870999,68.8543967 80.9990493,68.3664419" id="Fill-104" fill="#FFE4DD"></path>
                <path d="M94.2949528,81.2078609 L94.2949528,81.2078609 C93.6933303,81.0216997 93.6151315,80.1911709 94.1206396,79.3532054 L104.61526,61.9507255 C105.120768,61.1122801 106.018239,60.5837836 106.619861,60.7701848 C107.221726,60.9563461 107.299683,61.7866349 106.794175,62.6248404 L96.2995541,80.0273202 C95.7940459,80.8655257 94.8965753,81.3940222 94.2949528,81.2078609" id="Fill-106" fill="#FFE4DD"></path>
            </g>
        </g>
    </g>
</svg>