<svg width="196" height="84" viewBox="0 0 196 84" fill="none" xmlns="http://www.w3.org/2000/svg">
<path fill-rule="evenodd" clip-rule="evenodd" d="M22.002 16C26.4216 16 30 12.4207 30 8.00199C30 3.57926 26.4216 0 22.002 0C17.5804 0 14 3.57926 14 8.00199C14 12.4207 17.5804 16 22.002 16Z" fill="#E9364B"/>
<path fill-rule="evenodd" clip-rule="evenodd" d="M32.1446 20.9933C31.5759 19.7442 30.3457 19.0261 29.0571 19H14.9361C13.6455 19.0261 12.4233 19.7442 11.8546 20.9933L0.315106 46.2101C-0.481488 47.9439 0.284856 49.9915 2.02123 50.7839C2.4891 50.9951 2.97916 51.0957 3.45913 51.0957C4.772 51.0957 6.03042 50.3455 6.60921 49.0763L10.1989 41.2299L7.07305 55.911C6.96617 56.4058 7.09322 56.9207 7.40984 57.3149C7.7305 57.7071 8.20845 57.9364 8.71464 57.9364H12.1813V79.8586C12.1813 82.1455 14.0387 84 16.3337 84C18.6267 84 20.4861 82.1455 20.4861 79.8586V57.9364H23.5172V79.8586C23.5172 82.1455 25.3766 84 27.6696 84C29.9625 84 31.8219 82.1455 31.8219 79.8586V57.9364H35.2765C35.7827 57.9364 36.2627 57.7071 36.5793 57.3149C36.898 56.9227 37.023 56.4058 36.9181 55.913L33.7822 41.1916L37.39 49.0763C37.9688 50.3455 39.2272 51.0957 40.5421 51.0957C41.0221 51.0957 41.5101 50.9951 41.976 50.7839C43.7144 49.9915 44.4807 47.9439 43.6862 46.2101L32.1446 20.9933Z" fill="#E9364B"/>
<path fill-rule="evenodd" clip-rule="evenodd" d="M73.002 16C77.4216 16 81 12.4207 81 8.00199C81 3.57926 77.4216 0 73.002 0C68.5804 0 65 3.57926 65 8.00199C65 12.4207 68.5804 16 73.002 16Z" fill="#E9364B"/>
<path fill-rule="evenodd" clip-rule="evenodd" d="M83.1446 20.9933C82.5759 19.7442 81.3457 19.0261 80.055 19H65.9362C64.6455 19.0261 63.4233 19.7442 62.8546 20.9933L51.3151 46.2101C50.5185 47.9439 51.2849 49.9915 53.0212 50.7839C53.4891 50.9951 53.9792 51.0957 54.4591 51.0957C55.772 51.0957 57.0304 50.3455 57.6092 49.0763L61.1989 41.2299L58.0731 55.911C57.9662 56.4058 58.0932 56.9207 58.4098 57.3149C58.7305 57.7071 59.2085 57.9364 59.7146 57.9364H63.1813V79.8586C63.1813 82.1455 65.0387 84 67.3337 84C69.6267 84 71.4861 82.1455 71.4861 79.8586V57.9364H74.5172V79.8586C74.5172 82.1455 76.3766 84 78.6696 84C80.9625 84 82.8219 82.1455 82.8219 79.8586V57.9364H86.2765C86.7827 57.9364 87.2627 57.7071 87.5793 57.3149C87.898 56.9227 88.023 56.4058 87.9181 55.913L84.7822 41.1916L88.39 49.0763C88.9688 50.3455 90.2272 51.0957 91.5421 51.0957C92.0221 51.0957 92.5101 50.9951 92.976 50.7839C94.7144 49.9915 95.4807 47.9439 94.6862 46.2101L83.1446 20.9933Z" fill="#E9364B"/>
<path fill-rule="evenodd" clip-rule="evenodd" d="M123.002 16C127.42 16 131 12.4207 131 8.00199C131 3.57926 127.42 0 123.002 0C118.58 0 115 3.57926 115 8.00199C115 12.4207 118.58 16 123.002 16Z" fill="#E9364B"/>
<path fill-rule="evenodd" clip-rule="evenodd" d="M133.145 20.9933C132.574 19.7442 131.346 19.0261 130.055 19H115.936C114.645 19.0261 113.423 19.7442 112.855 20.9933L101.315 46.2101C100.519 47.9439 101.285 49.9915 103.021 50.7839C103.489 50.9951 103.979 51.0957 104.459 51.0957C105.772 51.0957 107.03 50.3455 107.607 49.0763L111.199 41.2299L108.073 55.911C107.966 56.4058 108.091 56.9207 108.41 57.3149C108.73 57.7071 109.208 57.9364 109.715 57.9364H113.181V79.8586C113.181 82.1455 115.039 84 117.334 84C119.627 84 121.486 82.1455 121.486 79.8586V57.9364H124.517V79.8586C124.517 82.1455 126.377 84 128.67 84C130.963 84 132.822 82.1455 132.822 79.8586V57.9364H136.277C136.781 57.9364 137.261 57.7071 137.579 57.3149C137.898 56.9227 138.023 56.4058 137.918 55.913L134.782 41.1916L138.39 49.0763C138.969 50.3455 140.227 51.0957 141.542 51.0957C142.022 51.0957 142.51 50.9951 142.976 50.7839C144.714 49.9915 145.481 47.9439 144.686 46.2101L133.145 20.9933Z" fill="#E9364B"/>
<path fill-rule="evenodd" clip-rule="evenodd" d="M174.002 16C178.42 16 182 12.4207 182 8.00199C182 3.57926 178.42 0 174.002 0C169.58 0 166 3.57926 166 8.00199C166 12.4207 169.58 16 174.002 16Z" fill="#E9364B"/>
<path fill-rule="evenodd" clip-rule="evenodd" d="M184.145 20.9933C183.575 19.7442 182.347 19.0261 181.056 19H166.937C165.646 19.0261 164.424 19.7442 163.855 20.9933L152.314 46.2101C151.519 47.9439 152.286 49.9915 154.022 50.7839C154.49 50.9951 154.98 51.0957 155.46 51.0957C156.773 51.0957 158.031 50.3455 158.608 49.0763L162.2 41.2299L159.072 55.911C158.967 56.4058 159.092 56.9207 159.411 57.3149C159.731 57.7071 160.209 57.9364 160.715 57.9364H164.18V79.8586C164.18 82.1455 166.04 84 168.335 84C170.627 84 172.487 82.1455 172.487 79.8586V57.9364H175.518V79.8586C175.518 82.1455 177.377 84 179.67 84C181.963 84 183.823 82.1455 183.823 79.8586V57.9364H187.275C187.782 57.9364 188.261 57.7071 188.58 57.3149C188.899 56.9227 189.024 56.4058 188.919 55.913L185.783 41.1916L189.391 49.0763C189.97 50.3455 191.228 51.0957 192.543 51.0957C193.023 51.0957 193.511 50.9951 193.977 50.7839C195.715 49.9915 196.482 47.9439 195.685 46.2101L184.145 20.9933Z" fill="#E9364B"/>
</svg>
