<svg height="356" viewBox="0 0 201 356" width="201" xmlns="http://www.w3.org/2000/svg" xmlns:xlink="http://www.w3.org/1999/xlink"><mask id="a" fill="#fff"><path d="m.16104043.12183333h77.73474367v50.68997667h-77.73474367z" fill="#fff" fill-rule="evenodd"/></mask><g fill="none" fill-rule="evenodd"><rect fill="#ffeaed" height="58" rx="29" width="161" x="40" y="298"/><g><path d="m90 53.4998582c0 16.292359-20.1472453 29.5001418-45.0001402 29.5001418s-44.9998598-13.2077828-44.9998598-29.5001418 20.1469649-29.4998582 44.9998598-29.4998582 45.0001402 13.2074992 45.0001402 29.4998582" fill="#ec6978"/><path d="m19 41.2087318 1.4359191 11.9696413s.7757167.8216269 4.0640809.8216269c3.2886453 0 4.2925801-1.1126028 4.2925801-1.1126028l1.2074199-11.7714954-9.3150646-.1159018z" fill="#83bdd9"/><path d="m20 46 .7937277 7.1730073s.7866002.8269927 4.1225945.8269927c3.3357092 0 4.3543834-1.1195957 4.3543834-1.1195957l.7292944-6.8804043" fill="#24a6ba"/><path d="m30 41c0 .5521472-2.4623384 1-5.5 1-3.0373806 0-5.5-.4478528-5.5-1s2.4626194-1 5.5-1c3.0376616 0 5.5.4478528 5.5 1" fill="#c7dee8"/><path d="m30 46.0001395c0 .5519453-2.4977904.9998605-5.5789024.9998605-3.081397 0-4.4210976-.4479152-4.4210976-.9998605 0-.5522243 1.3397006-1.0001395 4.4210976-1.0001395 3.081112 0 5.5789024.4479152 5.5789024 1.0001395" fill="#45b8d4"/><path d="m81 58.4998549c0 4.1419232-15.6701325 7.5001451-35 7.5001451s-35-3.3582219-35-7.5001451c0-4.141633 15.6701325-7.4998549 35-7.4998549s35 3.3582219 35 7.4998549" fill="#fff"/><path d="m74 58.9998611c0 3.3138703-12.9838281 6.0001389-29 6.0001389s-29-2.6862686-29-6.0001389c0-3.3135925 12.9838281-5.9998611 29-5.9998611s29 2.6862686 29 5.9998611" fill="#cccaca"/><path d="m98.4273101 136.809951c-1.1139607-.901584-.9883767-1.835009-1.1257605-3.408593-.1736262-1.983877-2.290292-3.098289-4.0316106-4.082267-1.7413187-.984537-3.571698-2.856414-2.7729615-4.682486.7830034-1.789204 3.299178-1.786132 5.240251-1.490072.6220199.090214-1.2179117-3.54964-1.4946459-3.841789-1.4103614-1.489235-3.8624797-2.613422-4.2195652-4.834705-.0421422-.263382-.0418613-.562234.1356981-.761376.6186486-.694622 1.8000369-.065635 2.5585978-.485146.9841625-.544358 1.2929249-2.024376 1.0681661-3.044105-.3354525-1.521912-1.4055852-2.775137-1.9674822-4.229459-.119965-.310583-.2174541-.644348-.1595787-.971689.1286744-.728418.9675866-1.119719 1.7115381-1.136477 1.3940664-.032119 2.7830756.392698 4.008011-.500787 1.2033023-.878403 1.8711168-2.450869 2.1048659-3.8744673.349219-2.1260413.0924321-4.3730201.8779645-6.380917 1.274663-.9722477 2.881407 1.1669207 4.480285 1.0088362 1.255559-.1237304 1.885164-1.5802866 2.021705-2.8270875s.094961-2.6447038.951011-3.5661187c1.020124-1.0982126 3.138194-.7786919 3.784938.5708918.261282.5451961.309043 1.1954095.686919 1.6682666.958034 1.1993196 2.909221.2767875 3.967273-.8365074 1.058052-1.1130156 2.402952-2.5098012 3.853489-1.9930939.913083.3248274 1.406147 1.3319878 1.526112 2.288874s-.037366 1.9288546.040738 2.8899303c.031185.3820841.102827.7703129.298648 1.1007263 1.348553 2.2757468 4.159161-.1513813 5.295879-1.205185.626234-.5812259 1.313434-1.1375941 2.134365-1.3800276.820932-.2424335 1.807061-.1041794 2.370644.5370964 1.124917 1.2791998.071922 3.2250918.862231 4.6472939.852116 1.5339226 2.909783 1.6171544 4.461742 1.7042964 1.685129.0946831 3.779038.7356795 3.954069 2.4045045.158736 1.511299-1.431151 2.620125-1.866903 4.076682-.363266 1.213564.21015 2.638838 1.314558 3.268662.816437.465596 1.881512.546034 2.495666 1.25518 1.467394 1.693404-.908588 4.208512-.100299 6.178424.790589 1.926061 4.213665 2.552534 4.103534 4.874086-.08569 1.800935-4.70364 3.08209-4.788767 2.280775.338543 3.194089 1.878421 5.516479 2.963444 8.381272-1.073223.251371-2.299001.05614-3.318563-.34354-.203969 1.497055-.002248 5.88013-1.192345 6.903489-.204812.17596-.487165.228469-.756314.25584-.893416.089935-1.951468-.052229-2.842355-.428448-2.370363-1.001574-1.749186 2.412046-3.023287 3.45356-.561616.459172-1.47217.416439-1.98771-.093007-.515822-.509445-.564145-1.414382-.105918-1.975498-1.376367 1.120836-3.205903 1.492307-4.962955 1.771329-5.44141.864158-10.969633 1.192616-16.475942.980347-2.213874-.085187-4.835685.129038-6.704274-1.105753-1.473574-.973645-3.103637-1.665474-4.638459-2.531308-.2921864-.164788-.5349259-.327062-.7366469-.490453" fill="#414b6b"/><path d="m109 122v20h11v-19.047497z" fill="#996e6f"/><path d="m115 121c0 2.208989-1.791011 4-4 4s-4-1.791011-4-4 1.791011-4 4-4 4 1.791011 4 4" fill="#996e6f"/><path d="m128.585589 99.0661735c-.000838.0014167-9.982467 15.3853405-15.070024 19.0569355-5.087836 3.671595-1.541735 17.876891 2.564439 17.876891 5.332414 0 10.830114-.951118 14.480636-5.250843 3.249034-3.826856 4.659545-9.024434 5.203145-13.949738.400929-3.631363.441971-7.488252-1.101438-10.873406-.358491-.786224-5.551027-7.6701459-6.076758-6.8598395" fill="#996e6f"/><path d="m92.1869522 142h43.8556908s-3.239199 29.02642 0 41.393898c3.2392 12.368041 12.957357 63.606102 12.957357 63.606102h-76s23.9214893-64.110765 22.9245975-71.430207c-.9966122-7.320004-3.7376453-33.569793-3.7376453-33.569793" fill="#ec6978"/><path d="m100.250099 247h13.749901v18.50001l-21.7498286 38.49999-5.2501714-4.25029 15.24987-34.999966z" fill="#996e6f"/><path d="m119 247h14.914319l3.085681 64h-6.685739z" fill="#996e6f"/><path d="m92.940435 155.883566s-1.5998679 19.503839-.6029217 19.254217c.9972257-.249902 2.4927847-6.243346 3.9883437-11.237463 1.495559-4.994397 1.8694488-21.90032 1.8694488-21.90032h4.7361232s.37361 21.525467-.623336 26.270242c-.654097 3.112568-4.217096 9.27691-5.3342909 12.240994-1.5352691 4.072393-3.1379334 8.119852-4.761012 12.158066-.5193068 1.292374-1.0254702 2.592312-1.5674286 3.875441-.2732164.646888-.4829526 2.033956-1.1454393 2.359501-.2402179.117947-.5221034.104779-.7886082.076203-1.0151233-.108422-2.0017224-.395585-2.9821693-.681907-.1951945-.056873-.3996173-.119068-.541399-.265311-.3702544-.381857-.0785812-1.940943-.0788608-2.434583 0-1.082255.0002796-2.16479.0002796-3.247325v-6.494369c0-4.174651-.0002796-8.349583-.0002796-12.524514v-.941615l6.6679336-25.03446z" fill="#e8364b"/><path d="m129.26852 142h5.136148s-1.605064 20.20027-.834657 23.932995c.770408 3.732726 4.429989 7.845145 4.429989 7.845145l-1.224182 10.22186s-10.505665-15.047322-10.762372-18.282258c-.256994-3.235214 3.255074-23.717742 3.255074-23.717742" fill="#e8364b"/><path d="m87.4999922 300-6.4999922 4.938019 10.9999221 15.061981h7.0000779v-3.456835l-3.9998442-1.481461-1.7501597-9.876591z" fill="#29a593"/><path d="m129 311h7.750083l5.99992 5.499907 7.249997 3.00028v2.749813l-21 .75z" fill="#29a593"/><path d="m110 163c0 2.208864-3.357958 4-7.5 4-4.1420422 0-7.5-1.791136-7.5-4 0-2.209142 3.3579578-4 7.5-4 4.142042 0 7.5 1.790858 7.5 4" fill="#996e6f"/><path d="m136 162c0 2.208864-3.357736 4-7.499857 4-4.142407 0-7.500143-1.791136-7.500143-4 0-2.209142 3.357736-4 7.500143-4 4.142121 0 7.499857 1.790858 7.499857 4" fill="#996e6f"/><path d="m92.2183302 142c-.3194514 3.394537-15.305567 31.574389-14.1553697 33.460399 1.1501972 1.886011 4.792632 1.508809 4.792632 1.508809l15.1444075-12.825156-.1915562-3.206077s-8.1795629 1.886011-12.1414491 6.789639 7.3052295-10.312544 7.8804715-13.518903" fill="#996e6f"/><path d="m136.392467 142c1.83902 3.759419 12.412352 29.33162 13.14796 30.459727.735608 1.127825.735608 4.196658-1.103412 3.414126-1.83902-.782533-12.159263-7.361656-12.608221-8.677594-.449232-1.315656-5.782252-5.451016-4.67884-6.578842 1.103412-1.128106 1.817562-2.631593 4.67884-.375942 2.861278 2.255652 8.194573 6.578843 8.194573 6.578843s-7.279602-8.649475-8.647932-12.220782" fill="#996e6f"/><g fill="#29a593"><path d="m153 82.5c0 .8284956-1.119226 1.5-2.499855 1.5-1.380919 0-2.500145-.6715044-2.500145-1.5s1.119226-1.5 2.500145-1.5c1.380629 0 2.499855.6715044 2.499855 1.5"/><path d="m145 88.9998581c0 .5522918-.671526 1.0001419-1.499851 1.0001419-.828623 0-1.500149-.4478501-1.500149-1.0001419s.671526-.9998581 1.500149-.9998581c.828325 0 1.499851.4475663 1.499851.9998581"/><path d="m160 72c0 1.6569641-1.567095 3-3.5 3-1.933176 0-3.5-1.3430359-3.5-3s1.566824-3 3.5-3c1.932905 0 3.5 1.3430359 3.5 3"/><path d="m166 58.9998549c0 2.209148-2.462577 4.0001451-5.499859 4.0001451-3.037564 0-5.500141-1.7909971-5.500141-4.0001451 0-2.2088578 2.462577-3.9998549 5.500141-3.9998549 3.037282 0 5.499859 1.7909971 5.499859 3.9998549"/><path d="m77.8957841 25.4667933c0 13.9975167-17.4016029 25.3450167-38.8673718 25.3450167-21.4660506 0-38.86737187-11.3475-38.86737187-25.3450167 0-13.9975166 17.40132127-25.34501663 38.86737187-25.34501663 21.4657689 0 38.8673718 11.34750003 38.8673718 25.34501663" mask="url(#a)" transform="translate(103)"/></g><path d="m153.485139 33.4169578c.647314-.4538738.457208-3.6088227.457208-3.6088227s.553521-.3768545 1.312267-1.0802595c.758747-.7034049.372374-3.6179171.449929-4.7854273.077274-1.1672259 1.305828-.6016599 4.965171-4.4807606 3.659064-3.8788164-1.390662-11.07628325-1.390662-11.07628325s-5.893306-6.50315641-10.388671-3.67106334c-4.494804 2.83237727-4.203905 4.16955719-5.344825 4.00500306-1.354545-.19496396-2.797283-.8909796-4.206984-.64002745-.333737.05939864-.652075.16938559-.940734.35212878-.275501.17478547-.586839.73239376-.86122.81140248-.331777.09520834-1.094443-.29102492-1.441899-.36065491-.504524-.10146083-1.026408-.17450126-1.539612-.09861879-.815583.12078671-1.55893.83129676-2.239563 1.28687582-.947453.6340592-1.885107 1.2840338-2.792804 1.9755021-.8461.6442905-1.650204 1.2740867-1.724399 2.3895874-.054596.8264653-.052916 1.6620252-.068035 2.4901957 0 0-1.768356.5092936-1.889867 2.1073728-.121512 1.5980792.745868 3.17058-.405412 4.354574-1.151279 1.1842781-4.895456 2.1366458-5.314867 5.793499-.41913 3.6565689.235464 7.2963698 2.322717 9.5208346 1.71264 2.5328263 5.085563 3.9353731 8.69647 4.2749969 3.611187.3396238 5.303388-3.1822324 6.682851-4.0808855 1.379183-.8986531 2.715529.2881829 4.281179.4976412 1.563691.2097426 2.419871-1.4375039 2.42183-1.4409144.065236-.1259023 2.790005.5431139 3.127381.4834311.370414-.0653669.696871-.2805094 1.00261-.5030411 1.780115-1.2971072 3.052065-3.2694831 4.829941-4.5162861" fill="#414b6b"/><path d="m153.485139 32.4169846c.647314-.4541585.457208-3.6091102.457208-3.6091102s.553521-.3765707 1.312267-1.0799763c.758747-.7034055.372374-3.6179204.449929-4.7854316.077274-1.167227 1.305828-.6016605 4.965171-4.4807647 3.659064-3.87882-1.390662-11.07629336-1.390662-11.07629336s-5.893306-6.50316232-10.388671-3.67106668c-4.494804 2.83209564-4.203905 4.16927678-5.344825 4.00500671-1.354545-.19496414-2.797283-.89098042-4.206984-.64002804-.333737.05939869-.652075.16910155-.940734.3521291-.275501.17478563-.586839.73239443-.86122.81111901-.331777.09549264-1.094443-.29074097-1.441899-.36065523-.504524-.10117672-1.026408-.17421722-1.539612-.09833468-.815583.12078682-1.55893.83101332-2.239563 1.28687698-.947453.63405975-1.885107 1.28403489-2.793084 1.97550399-.84582.6440069-1.649924 1.2740877-1.724119 2.3895895-.054596.8264661-.052916 1.6617425-.068035 2.4901979 0 0-1.768356.5090099-1.889867 2.1073748-.121512 1.5980806.745868 3.1702987-.405412 4.3545779-1.151279 1.1839951-4.895456 2.1366478-5.314867 5.7932201-.41913 3.6565722.235464 7.2966606 2.322717 9.5208433 1.71236 2.5328286 5.085563 3.9356609 8.69647 4.275285 3.611187.3393399 5.303388-3.1822353 6.682851-4.0808892 1.379183-.898654 2.715529.2881831 4.281179.4976416 1.563691.2097428 2.419871-1.4375052 2.42183-1.4411999.064956-.1256182 2.790005.5433986 3.127381.4837157.370414-.065367.696871-.2805096 1.00261-.5030415 1.780115-1.2971084 3.052065-3.2697703 4.829941-4.5162902" fill="#e8364b"/><path d="m141.444676 30.3291407c2.029829-2.1630686 4.39147-4.3007157 6.74913-6.1637539 1.230579-.972445 2.526552-1.872257 3.912943-2.6184221 1.309906-.7045407 2.810598-1.0665886 4.037764-1.9007515 2.10745-1.4325476 4.330907-3.3517367 3.766513-6.0953112-.327832-1.592899-1.280051-2.8687268-2.256439-4.12974858-.794985-1.02747855-4.178791-4.97704129-7.653014-2.75167584-1.649395 1.05653178-3.071043 2.1831824-4.218881 3.77859572-2.17569 3.0232117-5.138119 5.2259492-8.145757 7.4013096-2.504943 1.8119156-5.094332 3.5112501-7.757078 5.0912986-2.991431 1.7750405-6.594455 3.5833245-7.660975 7.1314499-.265279.8822124-.312762 1.8454386-.012226 2.7167561.410856 1.1897855 1.397764 1.9529914 2.551573 2.4027577.762572 3.4827556 5.173945 4.750482 8.131256 3.0757311 2.246772-1.2727549 4.146378-3.4497914 5.94334-5.2496947.882843-.8841679 1.757441-1.7775546 2.611851-2.6885409" fill="#ec6978"/><path d="m125 113.855819c1.325674.187266 2.662705.283575 4 .288362" stroke="#414b6b" stroke-linecap="round" stroke-linejoin="round" stroke-width="1.05"/><path d="m131 113.933682c.999902.044212 2.000098.088142 3 .132636" stroke="#414b6b" stroke-linecap="round" stroke-linejoin="round" stroke-width="1.05"/><path d="m64.0346914 110.037884c.2037797.773177 1.2490243 1.158943 2.3343259.861947 1.0853016-.296722 1.7998747-1.164423 1.5963638-1.937874-.2037797-.772903-1.2487554-1.158943-2.3343259-.861673-1.0853015.296997-1.8001435 1.164697-1.5963638 1.9376" fill="#ec6978"/><path d="m73.0173452 114.358562c.1018879.515267.6244371.772744 1.1672258.574637.5425587-.198108.8999713-.776494.7980834-1.291761-.1018878-.515267-.624437-.772744-1.1669958-.574637-.5427887.198108-.9002013.776494-.7983134 1.291761" fill="#ec6978"/><path d="m56.0766291 103.899399c.3704443 1.580061 1.9797118 2.458418 3.5943249 1.961836 1.6143459-.496582 2.6230447-2.180431 2.2523332-3.760493-.3704443-1.580368-1.9797118-2.4587241-3.5940577-1.961836-1.6146131.496582-2.6230447 2.180124-2.2526004 3.760493" fill="#ec6978"/><path d="m48.0801538 93.7396097c.4645373 1.8070327 2.8202135 2.7171319 5.26118 2.0325267 2.4409666-.6846052 4.0432448-2.7045267 3.5784393-4.5121197-.4645373-1.8070328-2.8202135-2.7168518-5.2611801-2.0319665-2.4409665.6846052-4.0429765 2.7045267-3.5784392 4.5115595" fill="#ec6978"/><path d="m36.3944684 48c-.6264304-1.3100061-.4922337-2.9596537.2992588-4.1844719.4103737-.6318331 1.0845782-.9689772 1.6691393-1.3374772.2946961-.1878572.581072-.3890338.8059857-.6479271.2262558-.2566736.3897074-.5657917.490355-.8957212.0896434-.3346468.115946-.6853877.099574-1.0355736-.0203979-.3510184-.0874963-.6995394-.1709667-1.0436206-.1774081-.6876075-.4339923-1.3555136-.6988967-2.0242522-.2552422-.669016-.5386658-1.3585659-.6060326-2.1036128-.0268393-.366835-.0177139-.762806.1629149-1.1018925.1779449-.338809.5126316-.5577446.8583225-.6254509l.0072466.026916c-.3322712.1084966-.6240149.3374216-.7560645.6548643-.1430538.3127255-.1328548.6787281-.0866911 1.0228093.1019895.7000943.3851447 1.3577335.6680314 2.0195349.1368807.3338143.2708091.670681.3958805 1.0125424.1199719.3440812.2270609.6942671.3129468 1.0519451.0783709.3598979.1403698.725623.1532527 1.0988401.008857.3726622-.0276445.7505966-.1341968 1.1121594-.115946.358233-.3024794.6942672-.5534274.9678673-.2498744.2760974-.5550378.4794938-.8583225.6648537-.6054957.3637827-1.2533977.6759532-1.6487413 1.2622787-.7936397 1.1604418-.9748053 2.7781786-.3854131 4.093457z" fill="#d1d1d1"/><path d="m41.3932989 48c-.3099724-.8196971-.4249361-1.713299-.3859881-2.5936936.0419026-.8806756.2352996-1.7610702.6161842-2.5574437.1874877-.4001539.458512-.7657438.7829892-1.0546189.3201794-.2964623.6739348-.5392522 1.0016352-.8048037.3303865-.2624605.6269285-.5625758.8498723-.9172065.2224065-.3549117.3556355-.7657438.4343374-1.182477.0819251-.4184193.0864914-.8520129.0607051-1.2811105-.0220257-.4299405-.0953554-.857633-.1799666-1.2816724-.1759375-.8480788-.4303083-1.6798592-.6903198-2.5127636-.2519533-.8334665-.5243207-1.6851984-.5944271-2.5779573-.0322328-.4434288-.0217572-.9028751.1195301-1.3339397.1410186-.4324696.4896704-.7792321.8971471-.9023131l.008864.0264146c-.3921661.1562399-.6873651.5049694-.7897043.9158015-.1106661.4097081-.1020706.8475168-.0496923 1.2735232.1069056.8584761.3833021 1.6821073.6629219 2.5093916.2710244.8309374.5315731 1.673677.6962291 2.5459224.0781646.4358417.1450477.8767415.1592839 1.3241045.0185339.4453959.0048349.897817-.0899833 1.3387168-.0897147.4392138-.2377171.8736505-.482418 1.2507617-.2444323.3759872-.5654176.6884669-.9062798.9500843-.3397877.2658325-.6932744.5004733-1.0062015.7814802-.3188364.2756677-.576699.612314-.7649925.9970124-.386794.7668678-.5963073 1.628997-.6554009 2.4978703-.0561388.8688733.038948 1.7568551.3306551 2.5788003z" fill="#d1d1d1"/><path d="m46.394346 48c-.6261475-1.3100061-.4922223-2.9596537.2992519-4.1844719.4103642-.6318331 1.0845531-.9689772 1.669369-1.3374772.2944209-.1878572.5807901-.3890338.8059671-.6479271.2262505-.2566736.3896983-.5657917.4903436-.8957212.0896413-.3346468.1156749-.6853877.0995717-1.0355736-.0206659-.3510184-.0877627-.6995394-.1712311-1.0436206-.1771357-.6876075-.4339823-1.3555136-.6986122-2.0242522-.2552363-.669016-.5386533-1.3585659-.6062869-2.1036128-.0268387-.366835-.0177136-.762806.1629111-1.1018925.1782092-.338809.5128881-.5577446.858571-.6254509l.006978.026916c-.331995.1084966-.623732.3374216-.756047.6548643-.1430504.3127255-.1328517.6787281-.0864207 1.0228093.1017188.7000943.3848674 1.3577335.668016 2.0195349.1368775.3338143.2708028.670681.3958713 1.0125424.1199691.3440812.2270556.6942671.3129396 1.0519451.0783691.3598979.1400981.725623.1532491 1.0988401.0085884.3726622-.0276439.7505966-.134462 1.1121594-.115675.358233-.3022041.6942672-.5534146.9678673-.2498686.2760974-.555025.4794938-.8583026.6648537-.6052134.3637827-1.2533687.6759532-1.6487032 1.2622787-.7933529 1.1604418-.9747827 2.7781786-.3854042 4.093457z" fill="#d1d1d1"/><path d="m38.1323906 56.2419932s8.1646625-6.131762 10.9140106-5.6587089c2.7493482.4724747 9.6038449 1.0507791 12.4712234-.0260237 2.8670969-1.0773812 7.4728184-.4470294 9.1615829.6560863 1.6887646 1.1031158 1.5645369 5.0428148.7053656 6.1459305-.8588896 1.1031157-5.3651726 4.2638386-7.8711358 4.1019134-2.5062449-.1622144-11.3824703.4771011-14.4670361 0-3.0845658-.4773904-6.9835132 1.422918-8.1043797 0-1.1208664-1.4229181-3.5310531-4.6926514-2.8096309-5.2191976" fill="#82471f"/><path d="m27 59.5c0 1.3807292-1.1192068 2.5-2.4998571 2.5-1.3809361 0-2.5001429-1.1192708-2.5001429-2.5s1.1192068-2.5 2.5001429-2.5c1.3806503 0 2.4998571 1.1192708 2.4998571 2.5" fill="#f77712"/><path d="m42.9464806 60.3909047c-.3348942 1.2897771-2.1491804 1.9363199-4.0527165 1.4441754-1.9035361-.4918688-3.1751391-1.9363199-2.840245-3.2260971.3348941-1.2897771 2.1494567-1.9360442 4.0529928-1.4441754 1.9032598.4921446 3.1748628 1.93632 2.8399687 3.2260971" fill="#f77712"/><path d="m38 59.5001429c0 1.3806503-1.5670547 2.4998571-3.5 2.4998571-1.9326737 0-3.5-1.1192068-3.5-2.4998571 0-1.3809361 1.5673263-2.5001429 3.5-2.5001429 1.9329453 0 3.5 1.1192068 3.5 2.5001429" fill="#f77712"/><path d="m19 50s.1912558.1162727.531143.3153157c1.5723935.9214538 6.3230646 3.6100832 9.9796199 4.6872242 4.4462118 1.3091232 6.1243357 2.4054083 6.9336437 1.8493829.8095848-.5560255.6263557-1.2837854.1356228-1.2578844-.4904562.0259009-17.5800294-5.5940384-17.5800294-5.5940384" fill="#309c4d"/><path d="m27 54s.2141562.0722179.5924061.1925812c1.7513526.5564133 7.020151 2.1378949 10.8418655 2.3118883 4.6474674.2114736 6.5428887.9239021 7.2023229.1273717.659156-.7968351.3092749-1.5135296-.1635375-1.3578192-.4728123.1554057-18.473057-1.274022-18.473057-1.274022" fill="#309c4d"/><path d="m20 59.9646077s.2145194.0091922.5913472.0183844c1.7453821.0412066 6.9755697.0795604 10.550042-.8111349 4.3462881-1.0827812 6.260505-.9338037 6.6906788-1.8669734.4301739-.9331698-.0553323-1.5125971-.4574144-1.2352454-.4023657.2770347-17.3746536 3.8949693-17.3746536 3.8949693" fill="#309c4d"/><path d="m39 52.0353951s-.214239-.0091922-.5913565-.0183844c-1.7454097-.0412065-6.9756797-.0795603-10.5499246.8108174-4.3466404 1.0830974-6.2606037.933803-6.6907843 1.8672891-.4301806.933169.0553333 1.512596.4574216 1.2352445.4020884-.2773516 17.3746438-3.8949666 17.3746438-3.8949666" fill="#309c4d"/><path d="m43 54s-.2027668-.0717142-.5611193-.1911312c-1.6583631-.5529037-6.6474944-2.1248535-10.2686517-2.3057398-4.403298-.2196248-6.1978687-.9268421-6.824143-.1427881-.6262743.7837338-.2960059 1.4912713.1522155 1.3391988.4482215-.1527129 17.5016985 1.3004603 17.5016985 1.3004603" fill="#296638"/><path d="m41 60s-.2027639-.0720301-.5611111-.19144c-1.6583388-.5528709-6.6473971-2.1247275-10.2685014-2.3056031-4.4032336-.2196117-6.1980589-.926467-6.824324-.1427796-.6262652.7836873-.2960016 1.4911829.1524941 1.3391194.4479341-.1527038 17.5014424 1.3007033 17.5014424 1.3007033" fill="#309c4d"/><path d="m43 58s-.2027668-.0717142-.5611193-.1911312c-1.6583631-.5529037-6.6474944-2.1248535-10.2686517-2.3057398-4.403298-.2196248-6.1978687-.9268421-6.824143-.1427881-.6262743.7837338-.2960059 1.4912713.1522155 1.3388786.4482215-.1523927 17.5016985 1.3007805 17.5016985 1.3007805" fill="#309c4d"/><path d="m25 54.6368423s.2105702.0211219.5817354.0531454c1.717411.1483076 6.8707668.5307732 10.4616915.1380874 4.3663847-.4778549 6.2421444-.2414257 6.7365634-.8782627.4941382-.6372912.0592404-1.0838038-.3579694-.9132387-.4174907.1705651-17.4220209 1.6002686-17.4220209 1.6002686" fill="#296638"/><path d="m14 56.63684s.2105681.0211221.5817295.0531458c1.7176743.1483085 6.8706972.5307764 10.4615855.1380882 4.3663404-.4778578 6.2420811-.2414272 6.7364951-.8782681.4944139-.6370679.0595206-1.0838104-.3579658-.9132443-.4172056.1705662-17.4218443 1.6002784-17.4218443 1.6002784" fill="#296638"/><path d="m31 58.6368012s.2105681.0213487.5817295.0531445c1.7176743.1485321 6.8706972.5307639 10.4615855.1380849 4.3663404-.4778464 6.2420811-.2414214 6.7364951-.8782472.4944139-.6370529.0595206-1.0837848-.3579658-.9132227-.4172056.1707893-17.4218443 1.6002405-17.4218443 1.6002405" fill="#296638"/><path d="m26 52.63684s.2105702.0211221.5817354.0531458c1.717411.1483085 6.8707668.5307764 10.4616915.1380882 4.3663847-.4778578 6.2421444-.2414272 6.7365634-.8782681.4941382-.6370679.0592404-1.0838104-.3579694-.9132443-.4174907.1705662-17.4220209 1.6002784-17.4220209 1.6002784" fill="#309c4d"/><path d="m46.9464809 55.3909408c-.3348942 1.2897482-2.1494568 1.9362765-4.0527167 1.444143-1.9035362-.4918578-3.1751393-1.9362765-2.8402451-3.2260246.3348942-1.2897482 2.1494568-1.9362765 4.0527167-1.444143 1.9035362.4918578 3.1751393 1.9362765 2.8402451 3.2260246" fill="#f77712"/></g></g></svg>