<?xml version="1.0" encoding="UTF-8"?>
<svg width="201px" height="356px" viewBox="0 0 201 356" version="1.1" xmlns="http://www.w3.org/2000/svg" xmlns:xlink="http://www.w3.org/1999/xlink">
    <!-- Generator: Sketch 61.1 (89650) - https://sketch.com -->
    <title>Group 4</title>
    <desc>Created with Sketch.</desc>
    <defs>
        <polygon id="path-1" points="0.161040433 0.121833333 77.8957841 0.121833333 77.8957841 50.81181 0.161040433 50.81181"></polygon>
    </defs>
    <g id="Page-1" stroke="none" stroke-width="1" fill="none" fill-rule="evenodd">
        <g id="MISSON-ET-CHIFFRES-CLES" transform="translate(-400.000000, -812.000000)">
            <g id="Group-4" transform="translate(400.000000, 812.000000)">
                <rect id="Rectangle-Copy" fill="#FFEAED" x="40" y="298" width="161" height="58" rx="29"></rect>
                <g id="Group-112">
                    <path d="M90,53.4998582 C90,69.7922172 69.8527547,83 44.9998598,83 C20.1469649,83 0,69.7922172 0,53.4998582 C0,37.2074992 20.1469649,24 44.9998598,24 C69.8527547,24 90,37.2074992 90,53.4998582" id="Fill-1" fill="#EC6978"></path>
                    <path d="M19,41.2087318 L20.4359191,53.1783731 C20.4359191,53.1783731 21.2116358,54 24.5,54 C27.7886453,54 28.7925801,52.8873972 28.7925801,52.8873972 L30,41.1159018 L20.6849354,41 L19,41.2087318 Z" id="Fill-3" fill="#83BDD9"></path>
                    <path d="M20,46 L20.7937277,53.1730073 C20.7937277,53.1730073 21.5803279,54 24.9163222,54 C28.2520314,54 29.2707056,52.8804043 29.2707056,52.8804043 L30,46" id="Fill-5" fill="#24A6BA"></path>
                    <path d="M30,41 C30,41.5521472 27.5376616,42 24.5,42 C21.4626194,42 19,41.5521472 19,41 C19,40.4478528 21.4626194,40 24.5,40 C27.5376616,40 30,40.4478528 30,41" id="Fill-7" fill="#C7DEE8"></path>
                    <path d="M30,46.0001395 C30,46.5520848 27.5022096,47 24.4210976,47 C21.3397006,47 20,46.5520848 20,46.0001395 C20,45.4479152 21.3397006,45 24.4210976,45 C27.5022096,45 30,45.4479152 30,46.0001395" id="Fill-9" fill="#45B8D4"></path>
                    <path d="M81,58.4998549 C81,62.6417781 65.3298675,66 46,66 C26.6701325,66 11,62.6417781 11,58.4998549 C11,54.3582219 26.6701325,51 46,51 C65.3298675,51 81,54.3582219 81,58.4998549" id="Fill-11" fill="#FFFFFF"></path>
                    <path d="M74,58.9998611 C74,62.3137314 61.0161719,65 45,65 C28.9838281,65 16,62.3137314 16,58.9998611 C16,55.6862686 28.9838281,53 45,53 C61.0161719,53 74,55.6862686 74,58.9998611" id="Fill-13" fill="#CCCACA"></path>
                    <path d="M98.4273101,136.809951 C97.3133494,135.908367 97.4389334,134.974942 97.3015496,133.401358 C97.1279234,131.417481 95.0112576,130.303069 93.269939,129.319091 C91.5286203,128.334554 89.698241,126.462677 90.4969775,124.636605 C91.2799809,122.847401 93.7961555,122.850473 95.7372285,123.146533 C96.3592484,123.236747 94.5193168,119.596893 94.2425826,119.304744 C92.8322212,117.815509 90.3801029,116.691322 90.0230174,114.470039 C89.9808752,114.206657 89.9811561,113.907805 90.1587155,113.708663 C90.7773641,113.014041 91.9587524,113.643028 92.7173133,113.223517 C93.7014758,112.679159 94.0102382,111.199141 93.7854794,110.179412 C93.4500269,108.6575 92.3798942,107.404275 91.8179972,105.949953 C91.6980322,105.63937 91.6005431,105.305605 91.6584185,104.978264 C91.7870929,104.249846 92.6260051,103.858545 93.3699566,103.841787 C94.764023,103.809668 96.1530322,104.234485 97.3779676,103.341 C98.5812699,102.462597 99.2490844,100.890131 99.4828335,99.4665327 C99.8320525,97.3404914 99.5752656,95.0935126 100.360798,93.0856157 C101.635461,92.113368 103.242205,94.2525364 104.841083,94.0944519 C106.096642,93.9707215 106.726247,92.5141653 106.862788,91.2673644 C106.999329,90.0205635 106.957749,88.6226606 107.813799,87.7012457 C108.833923,86.6030331 110.951993,86.9225538 111.598737,88.2721375 C111.860019,88.8173336 111.90778,89.467547 112.285656,89.9404041 C113.24369,91.1397237 115.194877,90.2171916 116.252929,89.1038967 C117.310981,87.9908811 118.655881,86.5940955 120.106418,87.1108028 C121.019501,87.4356302 121.512565,88.4427906 121.63253,89.3996768 C121.752495,90.356563 121.595164,91.3285314 121.673268,92.2896071 C121.704453,92.6716912 121.776095,93.05992 121.971916,93.3903334 C123.320469,95.6660802 126.131077,93.2389521 127.267795,92.1851484 C127.894029,91.6039225 128.581229,91.0475543 129.40216,90.8051208 C130.223092,90.5626873 131.209221,90.7009414 131.772804,91.3422172 C132.897721,92.621417 131.844726,94.567309 132.635035,95.9895111 C133.487151,97.5234337 135.544818,97.6066655 137.096777,97.6938075 C138.781906,97.7884906 140.875815,98.429487 141.050846,100.098312 C141.209582,101.609611 139.619695,102.718437 139.183943,104.174994 C138.820677,105.388558 139.394093,106.813832 140.498501,107.443656 C141.314938,107.909252 142.380013,107.98969 142.994167,108.698836 C144.461561,110.39224 142.085579,112.907348 142.893868,114.87726 C143.684457,116.803321 147.107533,117.429794 146.997402,119.751346 C146.911712,121.552281 142.293762,122.833436 142.208635,122.032121 C142.547178,125.22621 144.087056,127.5486 145.172079,130.413393 C144.098856,130.664764 142.873078,130.469533 141.853516,130.069853 C141.649547,131.566908 141.851268,135.949983 140.661171,136.973342 C140.456359,137.149302 140.174006,137.201811 139.904857,137.229182 C139.011441,137.319117 137.953389,137.176953 137.062502,136.800734 C134.692139,135.79916 135.313316,139.21278 134.039215,140.254294 C133.477599,140.713466 132.567045,140.670733 132.051505,140.161287 C131.535683,139.651842 131.48736,138.746905 131.945587,138.185789 C130.56922,139.306625 128.739684,139.678096 126.982632,139.957118 C121.541222,140.821276 116.012999,141.149734 110.50669,140.937465 C108.292816,140.852278 105.671005,141.066503 103.802416,139.831712 C102.328842,138.858067 100.698779,138.166238 99.163957,137.300404 C98.8717706,137.135616 98.6290311,136.973342 98.4273101,136.809951" id="Fill-15" fill="#414B6B"></path>
                    <polygon id="Fill-17" fill="#996E6F" points="109 122 109 142 120 142 120 122.952503"></polygon>
                    <path d="M115,121 C115,123.208989 113.208989,125 111,125 C108.791011,125 107,123.208989 107,121 C107,118.791011 108.791011,117 111,117 C113.208989,117 115,118.791011 115,121" id="Fill-19" fill="#996E6F"></path>
                    <path d="M128.585589,99.0661735 C128.584751,99.0675902 118.603122,114.451514 113.515565,118.123109 C108.427729,121.794704 111.97383,136 116.080004,136 C121.412418,136 126.910118,135.048882 130.56064,130.749157 C133.809674,126.922301 135.220185,121.724723 135.763785,116.799419 C136.164714,113.168056 136.205756,109.311167 134.662347,105.926013 C134.303856,105.139789 129.11132,98.2558671 128.585589,99.0661735" id="Fill-21" fill="#996E6F"></path>
                    <path d="M92.1869522,142 L136.042643,142 C136.042643,142 132.803444,171.02642 136.042643,183.393898 C139.281843,195.761939 149,247 149,247 L73,247 C73,247 96.9214893,182.889235 95.9245975,175.569793 C94.9279853,168.249789 92.1869522,142 92.1869522,142" id="Fill-23" fill="#EC6978"></path>
                    <polygon id="Fill-25" fill="#996E6F" points="100.250099 247 114 247 114 265.50001 92.2501714 304 87 299.74971 102.24987 264.749744"></polygon>
                    <polygon id="Fill-27" fill="#996E6F" points="119 247 133.914319 247 137 311 130.314261 311"></polygon>
                    <path d="M92.940435,155.883566 C92.940435,155.883566 91.3405671,175.387405 92.3375133,175.137783 C93.334739,174.887881 94.830298,168.894437 96.325857,163.90032 C97.821416,158.905923 98.1953058,142 98.1953058,142 L102.931429,142 C102.931429,142 103.305039,163.525467 102.308093,168.270242 C101.653996,171.38281 98.090997,177.547152 96.9738021,180.511236 C95.438533,184.583629 93.8358687,188.631088 92.2127901,192.669302 C91.6934833,193.961676 91.1873199,195.261614 90.6453615,196.544743 C90.3721451,197.191631 90.1624089,198.578699 89.4999222,198.904244 C89.2597043,199.022191 88.9778188,199.009023 88.711314,198.980447 C87.6961907,198.872025 86.7095916,198.584862 85.7291447,198.29854 C85.5339502,198.241667 85.3295274,198.179472 85.1877457,198.033229 C84.8174913,197.651372 85.1091645,196.092286 85.1088849,195.598646 C85.1088849,194.516391 85.1091645,193.433856 85.1091645,192.351321 L85.1091645,185.856952 C85.1091645,181.682301 85.1088849,177.507369 85.1088849,173.332438 L85.1088849,172.390823 L91.7768185,147.356363 L92.940435,155.883566 Z" id="Fill-29" fill="#E8364B"></path>
                    <path d="M129.26852,142 L134.404668,142 C134.404668,142 132.799604,162.20027 133.570011,165.932995 C134.340419,169.665721 138,173.77814 138,173.77814 L136.775818,184 C136.775818,184 126.270153,168.952678 126.013446,165.717742 C125.756452,162.482528 129.26852,142 129.26852,142" id="Fill-31" fill="#E8364B"></path>
                    <polygon id="Fill-33" fill="#29A593" points="87.4999922 300 81 304.938019 91.9999221 320 99 320 99 316.543165 95.0001558 315.061704 93.2499961 305.185113"></polygon>
                    <polygon id="Fill-35" fill="#29A593" points="129 311 136.750083 311 142.750003 316.499907 150 319.500187 150 322.25 129 323"></polygon>
                    <path d="M110,163 C110,165.208864 106.642042,167 102.5,167 C98.3579578,167 95,165.208864 95,163 C95,160.790858 98.3579578,159 102.5,159 C106.642042,159 110,160.790858 110,163" id="Fill-37" fill="#996E6F"></path>
                    <path d="M136,162 C136,164.208864 132.642264,166 128.500143,166 C124.357736,166 121,164.208864 121,162 C121,159.790858 124.357736,158 128.500143,158 C132.642264,158 136,159.790858 136,162" id="Fill-39" fill="#996E6F"></path>
                    <path d="M92.2183302,142 C91.8988788,145.394537 76.9127632,173.574389 78.0629605,175.460399 C79.2131577,177.34641 82.8555925,176.969208 82.8555925,176.969208 L98,164.144052 L97.8084438,160.937975 C97.8084438,160.937975 89.6288809,162.823986 85.6669947,167.727614 C81.7051085,172.631242 92.9722242,157.41507 93.5474662,154.208711" id="Fill-41" fill="#996E6F"></path>
                    <path d="M136.392467,142 C138.231487,145.759419 148.804819,171.33162 149.540427,172.459727 C150.276035,173.587552 150.276035,176.656385 148.437015,175.873853 C146.597995,175.09132 136.277752,168.512197 135.828794,167.196259 C135.379562,165.880603 130.046542,161.745243 131.149954,160.617417 C132.253366,159.489311 132.967516,157.985824 135.828794,160.241475 C138.690072,162.497127 144.023367,166.820318 144.023367,166.820318 C144.023367,166.820318 136.743765,158.170843 135.375435,154.599536" id="Fill-43" fill="#996E6F"></path>
                    <path d="M153,82.5 C153,83.3284956 151.880774,84 150.500145,84 C149.119226,84 148,83.3284956 148,82.5 C148,81.6715044 149.119226,81 150.500145,81 C151.880774,81 153,81.6715044 153,82.5" id="Fill-45" fill="#29A593"></path>
                    <path d="M145,88.9998581 C145,89.5521499 144.328474,90 143.500149,90 C142.671526,90 142,89.5521499 142,88.9998581 C142,88.4475663 142.671526,88 143.500149,88 C144.328474,88 145,88.4475663 145,88.9998581" id="Fill-47" fill="#29A593"></path>
                    <path d="M160,72 C160,73.6569641 158.432905,75 156.5,75 C154.566824,75 153,73.6569641 153,72 C153,70.3430359 154.566824,69 156.5,69 C158.432905,69 160,70.3430359 160,72" id="Fill-49" fill="#29A593"></path>
                    <path d="M166,58.9998549 C166,61.2090029 163.537423,63 160.500141,63 C157.462577,63 155,61.2090029 155,58.9998549 C155,56.7909971 157.462577,55 160.500141,55 C163.537423,55 166,56.7909971 166,58.9998549" id="Fill-51" fill="#29A593"></path>
                    <g id="Group-55" transform="translate(103.000000, 0.000000)">
                        <mask id="mask-2" fill="white">
                            <use xlink:href="#path-1"></use>
                        </mask>
                        <g id="Clip-54"></g>
                        <path d="M77.8957841,25.4667933 C77.8957841,39.46431 60.4941812,50.81181 39.0284123,50.81181 C17.5623617,50.81181 0.161040433,39.46431 0.161040433,25.4667933 C0.161040433,11.4692767 17.5623617,0.121776667 39.0284123,0.121776667 C60.4941812,0.121776667 77.8957841,11.4692767 77.8957841,25.4667933" id="Fill-53" fill="#29A593" mask="url(#mask-2)"></path>
                    </g>
                    <path d="M153.485139,33.4169578 C154.132453,32.963084 153.942347,29.8081351 153.942347,29.8081351 C153.942347,29.8081351 154.495868,29.4312806 155.254614,28.7278756 C156.013361,28.0244707 155.626988,25.1099585 155.704543,23.9424483 C155.781817,22.7752224 157.010371,23.3407884 160.669714,19.4616877 C164.328778,15.5828713 159.279052,8.38540445 159.279052,8.38540445 C159.279052,8.38540445 153.385746,1.88224804 148.890381,4.71434111 C144.395577,7.54671838 144.686476,8.8838983 143.545556,8.71934417 C142.191011,8.52438021 140.748273,7.82836457 139.338572,8.07931672 C139.004835,8.13871536 138.686497,8.24870231 138.397838,8.4314455 C138.122337,8.60623097 137.810999,9.16383926 137.536618,9.24284798 C137.204841,9.33805632 136.442175,8.95182306 136.094719,8.88219307 C135.590195,8.78073224 135.068311,8.70769181 134.555107,8.78357428 C133.739524,8.90436099 132.996177,9.61487104 132.315544,10.0704501 C131.368091,10.7045093 130.430437,11.3544839 129.52274,12.0459522 C128.67664,12.6902427 127.872536,13.3200389 127.798341,14.4355396 C127.743745,15.2620049 127.745425,16.0975648 127.730306,16.9257353 C127.730306,16.9257353 125.96195,17.4350289 125.840439,19.0331081 C125.718927,20.6311873 126.586307,22.2036881 125.435027,23.3876821 C124.283748,24.5719602 120.539571,25.5243279 120.12016,29.1811811 C119.70103,32.83775 120.355624,36.4775509 122.442877,38.7020157 C124.155517,41.234842 127.52844,42.6373888 131.139347,42.9770126 C134.750534,43.3166364 136.442735,39.7947802 137.822198,38.8961271 C139.201381,37.997474 140.537727,39.18431 142.103377,39.3937683 C143.667068,39.6035109 144.523248,37.9562644 144.525207,37.9528539 C144.590443,37.8269516 147.315212,38.4959678 147.652588,38.436285 C148.023002,38.3709181 148.349459,38.1557756 148.655198,37.9332439 C150.435313,36.6361367 151.707263,34.6637608 153.485139,33.4169578" id="Fill-56" fill="#414B6B"></path>
                    <path d="M153.485139,32.4169846 C154.132453,31.9628261 153.942347,28.8078744 153.942347,28.8078744 C153.942347,28.8078744 154.495868,28.4313037 155.254614,27.7278981 C156.013361,27.0244926 155.626988,24.1099777 155.704543,22.9424665 C155.781817,21.7752395 157.010371,22.340806 160.669714,18.4617018 C164.328778,14.5828818 159.279052,7.38540844 159.279052,7.38540844 C159.279052,7.38540844 153.385746,0.882246116 148.890381,3.71434176 C144.395577,6.5464374 144.686476,7.88361854 143.545556,7.71934847 C142.191011,7.52438433 140.748273,6.82836805 139.338572,7.07932043 C139.004835,7.13871912 138.686497,7.24842198 138.397838,7.43144953 C138.122337,7.60623516 137.810999,8.16384396 137.536618,8.24256854 C137.204841,8.33806118 136.442175,7.95182757 136.094719,7.88191331 C135.590195,7.78073659 135.068311,7.70769609 134.555107,7.78357863 C133.739524,7.90436545 132.996177,8.61459195 132.315544,9.07045561 C131.368091,9.70451536 130.430437,10.3544905 129.52246,11.0459596 C128.67664,11.6899665 127.872536,12.3200473 127.798341,13.4355491 C127.743745,14.2620152 127.745425,15.0972916 127.730306,15.925747 C127.730306,15.925747 125.96195,16.4347569 125.840439,18.0331218 C125.718927,19.6312024 126.586307,21.2034205 125.435027,22.3876997 C124.283748,23.5716948 120.539571,24.5243475 120.12016,28.1809198 C119.70103,31.837492 120.355624,35.4775804 122.442877,37.7017631 C124.155237,40.2345917 127.52844,41.637424 131.139347,41.9770481 C134.750534,42.316388 136.442735,38.7948128 137.822198,37.8961589 C139.201381,36.9975049 140.537727,38.184342 142.103377,38.3938005 C143.667068,38.6035433 144.523248,36.9562953 144.525207,36.9526006 C144.590163,36.8269824 147.315212,37.4959992 147.652588,37.4363163 C148.023002,37.3709493 148.349459,37.1558067 148.655198,36.9332748 C150.435313,35.6361664 151.707263,33.6635045 153.485139,32.4169846" id="Fill-58" fill="#E8364B"></path>
                    <path d="M141.444676,30.3291407 C143.474505,28.1660721 145.836146,26.028425 148.193806,24.1653868 C149.424385,23.1929418 150.720358,22.2931298 152.106749,21.5469647 C153.416655,20.842424 154.917347,20.4803761 156.144513,19.6462132 C158.251963,18.2136656 160.47542,16.2944765 159.911026,13.550902 C159.583194,11.958003 158.630975,10.6821752 157.654587,9.42115342 C156.859602,8.39367487 153.475796,4.44411213 150.001573,6.66947758 C148.352178,7.72600936 146.93053,8.85265998 145.782692,10.4480733 C143.607002,13.471285 140.644573,15.6740225 137.636935,17.8493829 C135.131992,19.6612985 132.542603,21.360633 129.879857,22.9406815 C126.888426,24.715722 123.285402,26.524006 122.218882,30.0721314 C121.953603,30.9543438 121.90612,31.91757 122.206656,32.7888875 C122.617512,33.978673 123.60442,34.7418789 124.758229,35.1916452 C125.520801,38.6744008 129.932174,39.9421272 132.889485,38.2673763 C135.136257,36.9946214 137.035863,34.8175849 138.832825,33.0176816 C139.715668,32.1335137 140.590266,31.240127 141.444676,30.3291407" id="Fill-60" fill="#EC6978"></path>
                    <path d="M125,113.855819 C126.325674,114.043085 127.662705,114.139394 129,114.144181" id="Stroke-62" stroke="#414B6B" stroke-width="1.05" stroke-linecap="round" stroke-linejoin="round"></path>
                    <path d="M131,113.933682 C131.999902,113.977894 133.000098,114.021824 134,114.066318" id="Stroke-64" stroke="#414B6B" stroke-width="1.05" stroke-linecap="round" stroke-linejoin="round"></path>
                    <path d="M64.0346914,110.037884 C64.2384711,110.811061 65.2837157,111.196827 66.3690173,110.899831 C67.4543189,110.603109 68.168892,109.735408 67.9653811,108.961957 C67.7616014,108.189054 66.7166257,107.803014 65.6310552,108.100284 C64.5457537,108.397281 63.8309117,109.264981 64.0346914,110.037884" id="Fill-66" fill="#EC6978"></path>
                    <path d="M73.0173452,114.358562 C73.1192331,114.873829 73.6417823,115.131306 74.184571,114.933199 C74.7271297,114.735091 75.0845423,114.156705 74.9826544,113.641438 C74.8807666,113.126171 74.3582174,112.868694 73.8156586,113.066801 C73.2728699,113.264909 72.9154573,113.843295 73.0173452,114.358562" id="Fill-68" fill="#EC6978"></path>
                    <path d="M56.0766291,103.899399 C56.4470734,105.47946 58.0563409,106.357817 59.670954,105.861235 C61.2852999,105.364653 62.2939987,103.680804 61.9232872,102.100742 C61.5528429,100.520374 59.9435754,99.6420179 58.3292295,100.138906 C56.7146164,100.635488 55.7061848,102.31903 56.0766291,103.899399" id="Fill-70" fill="#EC6978"></path>
                    <path d="M48.0801538,93.7396097 C48.5446911,95.5466424 50.9003673,96.4567416 53.3413338,95.7721364 C55.7823004,95.0875312 57.3845786,93.0676097 56.9197731,91.2600167 C56.4552358,89.4529839 54.0995596,88.5431649 51.658593,89.2280502 C49.2176265,89.9126554 47.6156165,91.9325769 48.0801538,93.7396097" id="Fill-72" fill="#EC6978"></path>
                    <path d="M36.3944684,48 C35.768038,46.6899939 35.9022347,45.0403463 36.6937272,43.8155281 C37.1041009,43.183695 37.7783054,42.8465509 38.3628665,42.4780509 C38.6575626,42.2901937 38.9439385,42.0890171 39.1688522,41.8301238 C39.395108,41.5734502 39.5585596,41.2643321 39.6592072,40.9344026 C39.7488506,40.5997558 39.7751532,40.2490149 39.7587812,39.898829 C39.7383833,39.5478106 39.6712849,39.1992896 39.5878145,38.8552084 C39.4104064,38.1676009 39.1538222,37.4996948 38.8889178,36.8309562 C38.6336756,36.1619402 38.350252,35.4723903 38.2828852,34.7273434 C38.2560459,34.3605084 38.2651713,33.9645374 38.4458001,33.6254509 C38.623745,33.2866419 38.9584317,33.0677063 39.3041226,33 L39.3113692,33.026916 C38.979098,33.1354126 38.6873543,33.3643376 38.5553047,33.6817803 C38.4122509,33.9945058 38.4224499,34.3605084 38.4686136,34.7045896 C38.5706031,35.4046839 38.8537583,36.0623231 39.136645,36.7241245 C39.2735257,37.0579388 39.4074541,37.3948055 39.5325255,37.7366669 C39.6524974,38.0807481 39.7595864,38.430934 39.8454723,38.788612 C39.9238432,39.1485099 39.9858421,39.514235 39.998725,39.8874521 C40.007582,40.2601143 39.9710805,40.6380487 39.8645282,40.9996115 C39.7485822,41.3578445 39.5620488,41.6938787 39.3111008,41.9674788 C39.0612264,42.2435762 38.756063,42.4469726 38.4527783,42.6323325 C37.8472826,42.9961152 37.1993806,43.3082857 36.804037,43.8946112 C36.0103973,45.055053 35.8292317,46.6727898 36.4186239,47.9880682 L36.3944684,48 Z" id="Fill-74" fill="#D1D1D1"></path>
                    <path d="M41.3932989,48 C41.0833265,47.1803029 40.9683628,46.286701 41.0073108,45.4063064 C41.0492134,44.5256308 41.2426104,43.6452362 41.623495,42.8488627 C41.8109827,42.4487088 42.082007,42.0831189 42.4064842,41.7942438 C42.7266636,41.4977815 43.080419,41.2549916 43.4081194,40.9894401 C43.7385059,40.7269796 44.0350479,40.4268643 44.2579917,40.0722336 C44.4803982,39.7173219 44.6136272,39.3064898 44.6923291,38.8897566 C44.7742542,38.4713373 44.7788205,38.0377437 44.7530342,37.6086461 C44.7310085,37.1787056 44.6576788,36.7510131 44.5730676,36.3269737 C44.3971301,35.4788949 44.1427593,34.6471145 43.8827478,33.8142101 C43.6307945,32.9807436 43.3584271,32.1290117 43.2883207,31.2362528 C43.2560879,30.792824 43.2665635,30.3333777 43.4078508,29.9023131 C43.5488694,29.4698435 43.8975212,29.123081 44.3049979,29 L44.3138619,29.0264146 C43.9216958,29.1826545 43.6264968,29.531384 43.5241576,29.9422161 C43.4134915,30.3519242 43.422087,30.7897329 43.4744653,31.2157393 C43.5813709,32.0742154 43.8577674,32.8978466 44.1373872,33.7251309 C44.4084116,34.5560683 44.6689603,35.3988079 44.8336163,36.2710533 C44.9117809,36.706895 44.978664,37.1477948 44.9929002,37.5951578 C45.0114341,38.0405537 44.9977351,38.4929748 44.9029169,38.9338746 C44.8132022,39.3730884 44.6651998,39.8075251 44.4204989,40.1846363 C44.1760666,40.5606235 43.8550813,40.8731032 43.5142191,41.1347206 C43.1744314,41.4005531 42.8209447,41.6351939 42.5080176,41.9162008 C42.1891812,42.1918685 41.9313186,42.5285148 41.7430251,42.9132132 C41.3562311,43.680081 41.1467178,44.5422102 41.0876242,45.4110835 C41.0314854,46.2799568 41.1265722,47.1679386 41.4182793,47.9898838 L41.3932989,48 Z" id="Fill-76" fill="#D1D1D1"></path>
                    <path d="M46.394346,48 C45.7681985,46.6899939 45.9021237,45.0403463 46.6935979,43.8155281 C47.1039621,43.183695 47.778151,42.8465509 48.3629669,42.4780509 C48.6573878,42.2901937 48.943757,42.0890171 49.168934,41.8301238 C49.3951845,41.5734502 49.5586323,41.2643321 49.6592776,40.9344026 C49.7489189,40.5997558 49.7749525,40.2490149 49.7588493,39.898829 C49.7381834,39.5478106 49.6710866,39.1992896 49.5876182,38.8552084 C49.4104825,38.1676009 49.1536359,37.4996948 48.889006,36.8309562 C48.6337697,36.1619402 48.3503527,35.4723903 48.2827191,34.7273434 C48.2558804,34.3605084 48.2650055,33.9645374 48.4456302,33.6254509 C48.6238394,33.2866419 48.9585183,33.0677063 49.3042012,33 L49.3111792,33.026916 C48.9791842,33.1354126 48.6874472,33.3643376 48.5551322,33.6817803 C48.4120818,33.9945058 48.4222805,34.3605084 48.4687115,34.7045896 C48.5704303,35.4046839 48.8535789,36.0623231 49.1367275,36.7241245 C49.273605,37.0579388 49.4075303,37.3948055 49.5325988,37.7366669 C49.6525679,38.0807481 49.7596544,38.430934 49.8455384,38.788612 C49.9239075,39.1485099 49.9856365,39.514235 49.9987875,39.8874521 C50.0073759,40.2601143 49.9711436,40.6380487 49.8643255,40.9996115 C49.7486505,41.3578445 49.5621214,41.6938787 49.3109109,41.9674788 C49.0610423,42.2435762 48.7558859,42.4469726 48.4526083,42.6323325 C47.8473949,42.9961152 47.1992396,43.3082857 46.8039051,43.8946112 C46.0105522,45.055053 45.8291224,46.6727898 46.4185009,47.9880682 L46.394346,48 Z" id="Fill-78" fill="#D1D1D1"></path>
                    <path d="M38.1323906,56.2419932 C38.1323906,56.2419932 46.2970531,50.1102312 49.0464012,50.5832843 C51.7957494,51.055759 58.6502461,51.6340634 61.5176246,50.5572606 C64.3847215,49.4798794 68.990443,50.1102312 70.6792075,51.2133469 C72.3679721,52.3164627 72.2437444,56.2561617 71.3845731,57.3592774 C70.5256835,58.4623931 66.0194005,61.623116 63.5134373,61.4611908 C61.0071924,61.2989764 52.130967,61.9382919 49.0464012,61.4611908 C45.9618354,60.9838004 42.062888,62.8841088 40.9420215,61.4611908 C39.8211551,60.0382727 37.4109684,56.7685394 38.1323906,56.2419932" id="Fill-80" fill="#82471F"></path>
                    <path d="M27,59.5 C27,60.8807292 25.8807932,62 24.5001429,62 C23.1192068,62 22,60.8807292 22,59.5 C22,58.1192708 23.1192068,57 24.5001429,57 C25.8807932,57 27,58.1192708 27,59.5" id="Fill-82" fill="#F77712"></path>
                    <path d="M42.9464806,60.3909047 C42.6115864,61.6806818 40.7973002,62.3272246 38.8937641,61.8350801 C36.990228,61.3432113 35.718625,59.8987602 36.0535191,58.608983 C36.3884132,57.3192059 38.2029758,56.6729388 40.1065119,57.1648076 C42.0097717,57.6569522 43.2813747,59.1011276 42.9464806,60.3909047" id="Fill-84" fill="#F77712"></path>
                    <path d="M38,59.5001429 C38,60.8807932 36.4329453,62 34.5,62 C32.5673263,62 31,60.8807932 31,59.5001429 C31,58.1192068 32.5673263,57 34.5,57 C36.4329453,57 38,58.1192068 38,59.5001429" id="Fill-86" fill="#F77712"></path>
                    <path d="M19,50 C19,50 19.1912558,50.1162727 19.531143,50.3153157 C21.1035365,51.2367695 25.8542076,53.9253989 29.5107629,55.0025399 C33.9569747,56.3116631 35.6350986,57.4079482 36.4444066,56.8519228 C37.2539914,56.2958973 37.0707623,55.5681374 36.5800294,55.5940384 C36.0895732,55.6199393 19,50 19,50" id="Fill-88" fill="#309C4D"></path>
                    <path d="M27,54 C27,54 27.2141562,54.0722179 27.5924061,54.1925812 C29.3437587,54.7489945 34.6125571,56.3304761 38.4342716,56.5044695 C43.081739,56.7159431 44.9771603,57.4283716 45.6365945,56.6318412 C46.2957505,55.8350061 45.9458694,55.1183116 45.473057,55.274022 C45.0002447,55.4294277 27,54 27,54" id="Fill-90" fill="#309C4D"></path>
                    <path d="M20,59.9646077 C20,59.9646077 20.2145194,59.9737999 20.5913472,59.9829921 C22.3367293,60.0241987 27.5669169,60.0625525 31.1413892,59.1718572 C35.4876773,58.089076 37.4018942,58.2380535 37.832068,57.3048838 C38.2622419,56.371714 37.7767357,55.7922867 37.3746536,56.0696384 C36.9722879,56.3466731 20,59.9646077 20,59.9646077" id="Fill-92" fill="#309C4D"></path>
                    <path d="M39,52.0353951 C39,52.0353951 38.785761,52.0262029 38.4086435,52.0170107 C36.6632338,51.9758042 31.4329638,51.9374504 27.8587189,52.8278281 C23.5120785,53.9109255 21.5981152,53.7616311 21.1679346,54.6951172 C20.737754,55.6282862 21.2232679,56.2077132 21.6253562,55.9303617 C22.0274446,55.6530101 39,52.0353951 39,52.0353951" id="Fill-94" fill="#309C4D"></path>
                    <path d="M43,54 C43,54 42.7972332,53.9282858 42.4388807,53.8088688 C40.7805176,53.2559651 35.7913863,51.6840153 32.170229,51.503129 C27.766931,51.2835042 25.9723603,50.5762869 25.346086,51.3603409 C24.7198117,52.1440747 25.0500801,52.8516122 25.4983015,52.6995397 C25.946523,52.5468268 43,54 43,54" id="Fill-96" fill="#296638"></path>
                    <path d="M41,60 C41,60 40.7972361,59.9279699 40.4388889,59.80856 C38.7805501,59.2556891 33.7914918,57.6838325 30.1703875,57.5029569 C25.7671539,57.2833452 23.9723286,56.5764899 23.3460635,57.3601773 C22.7197983,58.1438646 23.0500619,58.8513602 23.4985576,58.6992967 C23.9464917,58.5465929 41,60 41,60" id="Fill-98" fill="#309C4D"></path>
                    <path d="M43,58 C43,58 42.7972332,57.9282858 42.4388807,57.8088688 C40.7805176,57.2559651 35.7913863,55.6840153 32.170229,55.503129 C27.766931,55.2835042 25.9723603,54.5762869 25.346086,55.3603409 C24.7198117,56.1440747 25.0500801,56.8516122 25.4983015,56.6992195 C25.946523,56.5468268 43,58 43,58" id="Fill-100" fill="#309C4D"></path>
                    <path d="M25,54.6368423 C25,54.6368423 25.2105702,54.6579642 25.5817354,54.6899877 C27.2991464,54.8382953 32.4525022,55.2207609 36.0434269,54.8280751 C40.4098116,54.3502202 42.2855713,54.5866494 42.7799903,53.9498124 C43.2741285,53.3125212 42.8392307,52.8660086 42.4220209,53.0365737 C42.0045302,53.2071388 25,54.6368423 25,54.6368423" id="Fill-102" fill="#296638"></path>
                    <path d="M14,56.63684 C14,56.63684 14.2105681,56.6579621 14.5817295,56.6899858 C16.2994038,56.8382943 21.4524267,57.2207622 25.043315,56.828074 C29.4096554,56.3502162 31.2853961,56.5866468 31.7798101,55.9498059 C32.274224,55.312738 31.8393307,54.8659955 31.4218443,55.0365616 C31.0046387,55.2071278 14,56.63684 14,56.63684" id="Fill-104" fill="#296638"></path>
                    <path d="M31,58.6368012 C31,58.6368012 31.2105681,58.6581499 31.5817295,58.6899457 C33.2994038,58.8384778 38.4524267,59.2207096 42.043315,58.8280306 C46.4096554,58.3501842 48.2853961,58.5866092 48.7798101,57.9497834 C49.274224,57.3127305 48.8393307,56.8659986 48.4218443,57.0365607 C48.0046387,57.20735 31,58.6368012 31,58.6368012" id="Fill-106" fill="#296638"></path>
                    <path d="M26,52.63684 C26,52.63684 26.2105702,52.6579621 26.5817354,52.6899858 C28.2991464,52.8382943 33.4525022,53.2207622 37.0434269,52.828074 C41.4098116,52.3502162 43.2855713,52.5866468 43.7799903,51.9498059 C44.2741285,51.312738 43.8392307,50.8659955 43.4220209,51.0365616 C43.0045302,51.2071278 26,52.63684 26,52.63684" id="Fill-108" fill="#309C4D"></path>
                    <path d="M46.9464809,55.3909408 C46.6115867,56.680689 44.7970241,57.3272173 42.8937642,56.8350838 C40.990228,56.343226 39.7186249,54.8988073 40.0535191,53.6090592 C40.3884133,52.319311 42.2029759,51.6727827 44.1062358,52.1649162 C46.009772,52.656774 47.2813751,54.1011927 46.9464809,55.3909408" id="Fill-110" fill="#F77712"></path>
                </g>
            </g>
        </g>
    </g>
</svg>