<svg height="130" viewBox="0 0 131 130" width="131" xmlns="http://www.w3.org/2000/svg" xmlns:xlink="http://www.w3.org/1999/xlink"><mask id="a" fill="#fff"><path d="m0 .56554783h38.3418824v34.60151367h-38.3418824z" fill="#fff" fill-rule="evenodd"/></mask><mask id="b" fill="#fff"><path d="m.03175746.34718125h31.61920304v25.65281875h-31.61920304z" fill="#fff" fill-rule="evenodd"/></mask><mask id="c" fill="#fff"><path d="m.00559086.09002643h27.39405624v22.39322767h-27.39405624z" fill="#fff" fill-rule="evenodd"/></mask><mask id="d" fill="#fff"><path d="m.54197368.10548837h34.87676692v35.33001563h-34.87676692z" fill="#fff" fill-rule="evenodd"/></mask><g fill="none" fill-rule="evenodd"><ellipse cx="65.5" cy="65" fill="#ff9ca8" rx="65.5" ry="65"/><g transform="translate(18 17)"><path d="m25.9853453 30.987973c-.5238624-.4722041-3.1958076.3397567-3.1958076.3397567s-.4383338-.4063917-1.2006894-.9238419c-.7615331-.5182728-3.1867613.4146183-4.2057025.5865532-1.0189412.1711123-.7878496-1.0159792-4.8817071-3.4148419-4.09303513-2.3996853-9.22886076 3.4798317-9.22886076 3.4798317s-4.3644238 6.473474-.9967367 9.8159222c3.36686472 3.3424482 4.45570909 2.8151262 4.55110634 3.8442679.11348982 1.221643-.18503776 2.6226249.32402166 3.8014898.12006894.2788801.280435.5347259.49754596.7486163.20806467.2048411.75166447.3627909.87666775.5857305.15049738.2698309-.02302692 1.0143339-.01069107 1.3318788.01727019.460687.06332403.9312458.23520355 1.3639624.27303348.6869171 1.03785619 1.1895595 1.57076497 1.6905565.7417957.6959663 1.495105 1.3812381 2.2771979 2.0319584.7294599.6062969 1.4375377 1.1796876 2.4112475 1.0159792.7220585-.1217529 1.4391825-.2945105 2.1538395-.450815 0 0 .8051198 1.438824 2.2040052 1.2183524 1.398063-.2212943 2.5691464-1.2997953 3.8257583-.5371939 1.256612.7617788 2.852871 3.8335734 6.0823966 3.4510387 3.2287032-.381712 6.220558-1.6987831 7.6983929-3.9750701 1.8215939-2.0122147 2.325719-5.2427818 1.8676477-8.4626543-.4580712-3.2206953-3.835627-3.9767154-4.894043-4.9959853-1.0584159-1.0200925-.3166201-2.4284782-.4613607-3.8376866-.1447407-1.4067405-1.7385325-1.8172454-1.7418221-1.8180681-.1217137-.0312609-.111845-2.5461179-.2335588-2.8282887-.1332271-.3093183-.3857009-.5503563-.6406418-.7708279-1.484414-1.2882781-3.443347-1.9941163-4.8841743-3.290621" fill="#c5e2e0"/><path d="m25.2102638 4.62407442c-.5294042-.47972093-3.2245532.34576744-3.2245532.34576744s-.4431063-.41358139-1.2114893-.94018605c-.768383-.52744186-3.2154256.4227907-4.2435319.59693024-1.0281064.17497674-.7949362-1.03395349-4.9256171-3.47525582-4.12985102-2.44213953-9.3118723 3.54139535-9.3118723 3.54139535s-4.40368085 6.58800002-1.00653191 9.98958142c3.39797872 3.4015814 4.49578723 2.8649302 4.59287234 3.912279.11451063 1.2432559-.18670213 2.6690233.32693617 3.8687442.12114893.283814.28295744.5441861.50202127.7618605.20910639.2084651.75842553.3692093.88372341.596093.15268085.2746047-.02240426 1.0322791-.01078724 1.3554419.01825532.4688372.06472341.9477209.23814894 1.388093.27548936.6990698 1.04719149 1.2106047 1.58489362 1.7204651.7484681.7091163 1.5085532 1.4056744 2.2976808 2.067907.7360213.6178605 1.4504681 1.2005581 2.4329362 1.0339535.7285532-.123907 1.4521277-.2988837 2.1732128-.4587907 0 0 .8123617 1.4642791 2.2238298 1.239907 1.4106383-.2252093 2.5922553-1.3227907 3.8601702-.5466977 1.2679149.7752558 2.8785319 3.9013953 6.1371064 3.512093 3.2577446-.3884651 6.2765106-1.7288372 7.7676383-4.0453953 1.8371489-2.047814 2.3466383-5.3355349 1.8844468-8.6123721-.4621915-3.2776744-3.8701277-4.0470698-4.9380639-5.0843721-1.0679361-1.0373023-.319468-2.4714419-.4655106-3.9055814-.1468723-1.4316279-1.7541702-1.8493954-1.7574894-1.8502326-.1228085-.0318139-.1136808-2.59032556-.2356595-2.87832556-.1344256-.31479069-.3891702-.56009302-.6464043-.78446511-1.4977659-1.31106977-3.4751489-2.02939535-4.9281064-3.34883721" fill="#fff" mask="url(#a)" transform="translate(0 26)"/><path d="m25.8242745 42.5929711c-2.3314991-1.2797574-4.7095616-2.8477045-6.8431659-4.4685677-1.1141971-.8458448-2.1776733-1.7625158-3.1239094-2.7874614-.8938522-.9687731-1.5232904-2.1695633-2.5152584-3.0414591-1.7012293-1.4963067-3.8572839-2.9917993-6.16550121-1.9465012-1.3403625.6073149-2.27163173 1.679478-3.18377668 2.7695513-.7441839.8873636-3.53549712 4.5784705-.84978318 7.0736718 1.27467476 1.1845083 2.56431635 2.1614223 4.2114988 2.8086279 3.12224637 1.2268412 5.68240527 3.2922003 8.22676587 5.4015206 2.119469 1.756003 4.1566204 3.6072551 6.1039709 5.5464295 2.1876512 2.1777042 4.5307911 4.8682884 7.8866863 5.0441329.8348164.0439611 1.6962404-.1139733 2.4038387-.5495142.9678548-.5942893 1.4376469-1.5907417 1.5964616-2.664533 2.9210257-1.3652374 3.1297298-5.3779119 1.0377-7.5474752-1.5898096-1.6477283-3.9063419-2.8143265-5.8686592-3.9719697-.9645288-.5682383-1.9348781-1.1275216-2.9168682-1.6664525" fill="#e7364b"/><path d="m30.7594667 5.79011875c1.8436923 2.3960625.256 3.64325.256 3.64325-1.5261539 1.08143745-3.0539488 2.16287495-4.5809231 3.24349995-3.105641 2.198625-6.2112821 4.39725-9.3161026 6.595875-1.4293333 1.0115625-2.8570256 2.023125-4.2863589 3.0346875-1.9142565 1.35525-3.67015389 3.0119375-6.02912825 3.5035-1.56882052.326625-3.34851282.3079375-4.68348718-.6825-.59158975-.43875-1.04123077-1.035125-1.3563077-1.6940625-2.12266666-4.43625 1.05025641-6.9460625 1.05025641-6.9460625s21.50564102-13.82062495 23.25251282-14.58599995c1.7468718-.7645625 1.4884103-1.555125 1.4884103-1.555125s.6252307.7865 1.3563077 1.7054375z" fill="#c5e2e0" mask="url(#b)" transform="translate(39 61)"/><path d="m9.45032941 7.18216071c.48094118-.11089285.98164709-.18235714 1.47741179-.25382142.3590588-.05092858.6983529-.09939286 1.0294117-.16182143.1474118-.02875.2981177-.06160715.3911765-.13635715.1474118-.11828571.1877647-.35567857.2338824-.63167857.0189411-.11417857.0387058-.23246428.0683529-.34910714.2124706-.8395.9544706-1.5295 1.9863529-1.84410714.6538824-.19960715 1.3332942-.23821429 1.9896471-.276.1894118-.01067857.3796471-.02217857.5682353-.03696429.3055294-.02382143.6201176-.05914286.924-.09364286.8671765-.09775 1.7631765-.19796428 2.6567059-.06407142.5303529.07967857 1.0582353.24478571 1.5729412.48957142-.0041177-.00328571-.0082353-.00657142-.012353-.00903571-1.2904706-1.01282143-3.0174117-1.57303571-4.8612941-1.57878571-1.8949412-.00657143-3.5947059.61360714-4.6661176 1.70035714-.2964706.30146428-.5509412.63742857-.8202353.99310714-.334353.44192857-.6794118.89864286-1.1117647 1.28060714-.3969412.35157143-.8474118.62346429-1.28305887.8855-.04776471.02875-.09552941.0575-.14329412.08625m-3.67541176 2.346c.03623529.03121429.07329411.05585715.11364706.07228572.1877647.07557143.43317647-.05010714.59129411-.20535714-.22564706.0805-.46611764.1265-.70494117.13307142m-.31376471 9.01271429-.00329412.0016429c-.05270588.0969285.04447059.3137857.08070589.3959285.07411764.1659286.14905882.3326786.22729411.4986072.05352942-.2037143.09635294-.3975715.07329412-.5766429-.01235294-.1002143-.10541176-.2152143-.22564706-.2801071-.07823529-.0418929-.13423529-.0435357-.15235294-.0394286m13.57588236-3.8262143c.2717647.0657143.5237647.1462143.7469412.2283572.3763529.1388214.7494117.3072142 1.1092941.4698571.9272941.4189286 1.8018823.8148571 2.7308235.7466786.9412941-.0681786 1.8784706-.6686429 2.4450588-1.5656429.644-1.0193928.7312942-2.1833571.6917647-2.9809643-.0741176-1.4818571-.6308235-3.00889283-1.6124705-4.43735711.0675294.34007142.1045882.68342857.1095294 1.02760714.0263529 1.98210717-1.0812941 3.87714287-2.7571765 4.71499997-.3928235.1963215-.8078824.3351429-1.2089412.4690357-.5081176.1692143-.9874117.3302143-1.4115294.5947143-.3145882.1971429-.5912941.4501429-.8432941.7327143m-2.0308235.5733572c-.096353.0246428-.1927059.0550357-.2874118.0903571-.7955294.2973571-1.5498824 1.1508214-1.4362353 2.0658929.0271765.2160357.0988235.4337142.1745882.6628928.0222353.0657143.0444706.13225.0658824.2004286.6250588-.6826072 1.2377647-1.4695357 1.8488235-2.3731072l.1696471-.2521785c.1095294-.1634643.2198823-.3285715.3335294-.4912143-.2874118-.0041072-.5805882.023-.8688235.0969286m-6.9892942 6.41125c.7-.1445715 1.344-.3795 1.9204706-.6530358-.084.0147858-.1663529.0246429-.2462353.0336786-.0675294.0082143-.1350588.0164286-.2009411.0271072-.4644706.07475-.9009412.299-1.3637647.5355714-.0362353.0188928-.0724706.0377857-.1095295.0566786m.5122353.5257142c-.55258819.1421072-1.10764702.2258929-1.66023525.2513572-.85976471.0394286-1.54576471-.0895357-2.09752941-.3926429-.62917648-.3466428-1.05164706-.9331428-1.1422353-1.5541428-.26188235-.4304286-.46611765-.8879643-.66623529-1.3348215-.08317647-.1872857-.25776471-.5766428-.07164706-.9315.13917647-.2653214.41917647-.3951071.73047059-.33925.36894117.0657143.78482353.4049643.84329411.8575715.04117647.3293928-.03870588.6275714-.11611764.9158928-.0502353.1856429-.09717647.3614286-.1062353.5281786-.00082353.0320357-.00082353.06325-.00082353.0944643.09635294.1478571.19929412.2899643.31129412.4230357.46447059.5495357 1.05576471.8731786 1.62070588.8879643.56741177.0156071 1.1002353-.2579286 1.66435294-.5470714.48670584-.2488929.98905884-.5076429 1.55070584-.598.0749412-.0115.1507059-.0213572.2272942-.0303929.2132941-.0254643.4150588-.0492857.5484706-.1445714.043647-.0312143.0823529-.0714643.1202352-.1174643-.014-.1741429.0461177-.3466429.1737648-.48875.1185882-.1314286.2882352-.2283572.4743529-.2825714.0807059-.0484643.168-.08625.2585882-.1125358.0214118-.0115.0436471-.0213571.0675294-.0295714.1029412-.0377857.2132942-.0418928.3187059-.0156071.0411765.0016428.0831765.00575.1251765.0115.1375294-.1067857.3137647-.1659286.4809412-.1708572.1647059-.0049285.309647.0394286.42.1223929.1367059-.1248572.2734117-.2546429.4084706-.3893572-.0345883-.1741428-.0922353-.3499285-.154-.5339285-.0815295-.2480715-.1671765-.5051786-.2017647-.7836429-.1375295-1.1130357.6530588-2.2868571 1.8405882-2.73125.6077647-.2275357 1.2377647-.2628571 1.821647-.2004286.348353-.4361785.7411765-.8353928 1.2262353-1.1393214.4875295-.3055714 1.0261177-.4846428 1.5465883-.6587857.3977647-.13225.7732941-.2579286 1.1257647-.4345357 1.4650588-.7327143 2.4335294-2.39857144 2.4104706-4.14492859-.0115294-.84196428-.2412941-1.68392857-.6530589-2.45360714-1.0112941-1.00214286-2.1485882-1.62971428-3.2932941-1.80139286-.8111764-.12239285-1.6272941-.02957142-2.492.06735715-.309647.0345-.6291764.07064285-.9462353.09528571-.1927058.01560714-.3862353.02628572-.5805882.03778572-.6472941.03696428-1.2591765.07228571-1.8414118.24971428-.6324706.19303572-1.373647.66125-1.5597647 1.39642857-.0230588.09282143-.0395294.19303572-.057647.29982143-.0592941.35157143-.1268236.74914286-.460353 1.01775-.2058823.16510714-.4537647.22260714-.6687059.26367857-.3450588.06571429-.7074117.11746429-1.0574117.16675-1.32011766.18892857-2.68552943.38442857-3.42176472 1.35782143-.07658824.10185714-.14658824.21192857-.21988236.32857143-.12188235.19221429-.24705882.391-.41752941.57007143-.28741176.30064287-.80129412.57910717-1.30611765.37621427-.27752941-.1125357-.45952941-.33924999-.58635294-.52407141-.07988235-.11664286-.15317647-.23657143-.21905882-.36142858-.13505882-.08296428-.25858824-.19139285-.36317647-.32692857-.49741177-.64235714-.29729412-1.41285714-.03376471-2.1275.00082353-.00739285.00247059-.01560714.00411765-.023.02305882-.13307143.05352941-.27025.084-.40907143.12847059-.59060714.25035294-1.14753571-.06752941-1.46460714-.10705882-.10678571-.266-.17989286-.43482353-.25875-.04529412-.02135714-.09141177-.04189286-.13588235-.06407143-.67694118-.33021428-1.078-.874-1.46588236-1.39971428-.25282353-.34253572-.49494117-.67110715-.80129411-.91671429-.00164706.17003572.00411764.37210714.00823529.53064286.01894118.69903571.02058824 1.14014286-.11117647 1.38-.08317647.15196428-.27505882.20782143-.42741177.12403571-.15235294-.08296428-.20835294-.27271428-.12599999-.42467857.05929411-.13389286.04447058-.71546428.03458823-1.06292857-.02141176-.8165-.02058823-1.15328571.22317647-1.30525.11117647-.06982143.24870588-.07310714.36894118-.0115.60035294.31296429.97588235.82142857 1.33823529 1.31428571.35905882.48546429.69670588.94382143 1.23529412 1.20667858.04117647.02053571.08317647.03942857.126.05914285.19023529.08871429.406.18892857.58635294.35814286-.17458824-1.02842857-.88941176-1.92378571-1.88505882-2.8635-.48505883-.45835714-.96517647-.87235714-1.50952942-.89371429-.46364705-.02053571-.7057647 1.57714286-.78564705 2.10121429-.03047059.19878571-.05435294.35567857-.08070589.46903571-.03788235.17003572-.20670588.276-.37635294.23739286s-.27670588-.20617857-.238-.37539286c.02058824-.09282142.04447059-.24725.07164706-.42632142.15317647-1.0005.41258824-2.67539286 1.43376471-2.63432143.82682353.03285714 1.484.65467857 1.91882353 1.06539285 1.4337647 1.35535715 2.65505882 2.91607143 1.88752941 5.14542858-.05105883.14867857-.11035294.30146428-.16964706.45589285-.03129412.08296429-.06341177.16592857-.09388235.24725-.09552942.61771429-.00329412 1.25596429.25447058 1.82275.36482353.138.85729412.05996429 1.22129412-.14621428.35905883-.20371429.66376471-.49696429.98494118-.80828572.19105882-.184.38788235-.37457143.60117647-.54871428.36152941-.29571429.75929412-.53475 1.14388235-.76639286.43070588-.25957143.83670592-.50435714 1.19082352-.81732143.3854118-.34089286.6967059-.75325 1.0269412-1.18942857.2692941-.3565.5484706-.7245.8737647-1.05553571 1.2072941-1.22475 3.0248235-1.89503572 5.1182353-1.88846429 1.9830588.00657143 3.8475294.61525 5.2483529 1.7135.7321177.57417857 1.328353 1.27978571 1.7582353 2.05685714.3277647.33103572.642353.69821429.9396471 1.09907143 1.2007059 1.61985714 1.8809412 3.38592857 1.9674117 5.10517853.0444706.8879643-.056 2.1891072-.7881176 3.3473215-.6711765 1.0629285-1.7944706 1.7751071-2.9325882 1.8580714-1.0887059.0796786-2.0794118-.368-3.0371765-.8017143-.35-.1577143-.7123529-.3211786-1.0672941-.4526071-.2816471-.1035-.6127059-.2045357-.9692941-.2694286-.1844706.2505357-.3582353.5109286-.5311765.7680357l-.1704706.2546429c-.7312941 1.0801785-1.4675294 2.0026428-2.2235294 2.7821785.0065882.5659643-.2627059 1.1647858-.84 1.3126429-.0024706.0008214-.0049412.0016429-.0074118.0024643v.0041071c.0041177.08625-.0271764.1700357-.0872941.2324643-.0592941.0624286-.1416471.09775-.2281176.0969286-.1910589 0-.3854118-.0525714-.5550589-.1445714-1.0895294.7943214-2.2498823 1.3528928-3.4242353 1.6527142" fill="#fff" mask="url(#c)" transform="translate(67 60)"/><path d="m69.0424672 65.98444c1.8656893 2.4089911.4300966 2.9040229.4300966 2.9040229l-22.5485199 15.8606213s-5.0133654 3.4170261-7.1613574-1.0439779c-2.1479921-4.4610039.9232961-6.3120633.9232961-6.3120633s20.9966849-15.3067738 22.7652288-16.0754618c1.7677137-.7695048 1.9404165.1012937 1.9404165.1012937s.6326904.7899269 1.3724898 1.7146397z" fill="#fff"/><path d="m40.2565204 82-.2565204-1.0476594c.7088702-1.6228118 1.6580766-2.9393846 3.0272642-4.0014653 1.427451-1.1061926 2.8362901-2.2208684 4.1990041-3.2990669 4.659446-3.6867432 9.6555244-7.5728387 15.0133209-11.0067864.7857454-.5038945 1.5156551-1.1095859 2.2204793-1.6940696.3795207-.314722.7711796-.6404719 1.172549-.9509524l.3673825.5225573c-.3916589.3045423-.7800809.6260507-1.1555556.9373795-.7193899.5972083-1.4638655 1.2147759-2.2819794 1.7390298-5.3327109 3.4195265-10.3166511 7.294594-14.9631497 10.9711576-1.3635232 1.0790468-2.7739807 2.1937225-4.2038593 3.3033084-1.2801743.9925194-2.4632431 2.979255-3.1389356 4.5265674" fill="#e7364b"/><path d="m40.4593103 84-.4593103-.7161015c.7588966-1.660393 2.5125517-3.3996153 3.8673103-4.4044809.6951725-.5161241 1.4077242-.9890996 2.0962759-1.4463093.7398621-.4904009 1.5053793-.9982273 2.241931-1.5558405 1.5815173-1.1965451 3.1688276-2.4669408 4.7048276-3.6950176 3.3144828-2.651982 6.7415173-5.3944103 10.396138-7.6348206.753931-.4621884 1.3754482-.9774828 2.0333793-1.5234791.4063448-.3368913.825931-.6853996 1.2844138-1.0239505l.3757241.5111455c-.4435862.3285935-.8565517.6712933-1.2562759 1.0023762-.6463448.5360389-1.3150344 1.090333-2.1062069 1.5749255-3.6215172 2.2204956-7.0328275 4.9504771-10.3324138 7.5900124-1.5384827 1.2305662-3.1291034 2.5042809-4.7180689 3.7058047-.7522759.5692302-1.5252414 1.0820353-2.2733793 1.5790744-.6819311.452231-1.3870345.9202279-2.0697931 1.4263946-1.2662069.9393128-3.0769655 3.0602346-3.7845518 4.6102667" fill="#e7364b"/><path d="m42.5684124 85-.5684124-.3860995c.6153002-1.3909809 2.2045517-2.1094839 3.5585413-3.0853866.3043597-.2198978.591445-.4270107.8390458-.6170774.7436249-.5693475 1.5925418-1.2972261 2.4143131-2.002092.7469153-.6392376 1.5185084-1.3006354 2.1996161-1.8333333 1.5621059-1.2213699 3.0740335-2.470014 4.5366054-3.6768945 3.2763916-2.7061057 6.3718125-5.2613513 10.0159035-7.5711297.6539622-.4133736 1.1409378-.9358438 1.6567042-1.4881451.4228132-.4542848.8612558-.9239113 1.405813-1.3398419l.3734576.5250271c-.5017823.3835426-.9213052.8335658-1.326844 1.2682473-.5207019.5574152-1.0586783 1.1344336-1.7809158 1.5921277-3.6103647 2.2876182-6.6909789 4.8309314-9.9517412 7.5234-1.4658623 1.2102898-2.9819029 2.4614908-4.5497669 3.6879746-.6695914.5241748-1.436249 1.1804587-2.1774061 1.8154347-.828352.7099798-1.6838497 1.4438246-2.4406361 2.0233999-.2550041.1960329-.5462024.4057028-.8546751.6281575-1.2914724.9307299-2.8058678 1.7071904-3.3496024 2.9362312" fill="#e7364b"/><path d="m44.301035 84.9788682-.4859188.0211318-.8151162-.0152149h.0016584c.7156107-.1876506 2.3491601-1.499514 3.661804-2.5535692.7496085-.6026795 1.4577562-1.1715481 1.9328952-1.484299.6865883-.4513757 1.4279046-.9923503 2.1443445-1.5164195.7579005-.5528084 1.5415067-1.1250581 2.2737016-1.6017919 2.6990879-1.7564769 4.8707964-3.649888 7.1702037-5.6548751 1.8541199-1.6161617 3.77126-3.2881113 6.0101348-4.9025824.7661927-.5536536 1.5315561-1.0388402 2.2720432-1.5079667.3889009-.2468196.7910691-.5012467 1.1890913-.7632813l.3441233.5435104c-.4021682.2645704-.8068241.5215333-1.1982126.7691983-.7321949.4640548-1.4900955.9441697-2.2405331 1.4859896-2.2148276 1.5984109-4.121188 3.2602172-5.9636989 4.8670808-2.3168208 2.0202021-4.5051135 3.9279828-7.241516 5.7081273-.7189275.4674359-1.4942415 1.0346139-2.2455084 1.583196-.7230736.5274502-1.4701944 1.0734965-2.1700501 1.5341702-.4502625.2950002-1.1468013.855416-1.8848008 1.4479523-1.4992168 1.205359-1.9080188 1.8181818-2.7546451 2.0396433" fill="#e7364b"/><path d="m75.3739324 7.09481684c-5.8492596-4.63297357-12.1799364-6.43606783-14.1392115-4.02585996-.6704552.82607263-.7410295 2.03864108-.3100226 3.46353342-.9342684 1.23910893-2.3533146 3.16744111-3.2489352 4.5981392-1.3619147 2.1738317-8.687352 12.7245042-4.3856845 18.6131745-1.9743982 2.0477644-5.7475991 5.8546653-5.2443376 6.8980382.1016605.2114945.3377481.3425381.5746759.3566378.4352077.0265404.8695753-.3002393 1.2090038-.529151.2159235-.1459727 3.0111673-3.3698123 4.7293138-5.3611781 6.2323769 4.1602211 16.1018473-3.4842682 18.2190743-5.007858 0 0 3.713549-3.20974 5.7324761-5.2608219 1.7626755.2355468 3.1573568-.0663512 3.9084683-.9911213 1.9592751-2.4093785-1.1955611-8.1197299-7.0448208-12.75353286" fill="#c5e2e0"/><path d="m27.8194605 5.24829767c-5.8286512-4.67665116-12.1370233-6.49674418-14.0893954-4.06381395-.668093.83386047-.7384186 2.05786047-.3089302 3.49618605-.9309768 1.2507907-2.3450233 3.19730232-3.2374884 4.64148837-1.35711627 2.19516276-8.65674417 12.84446516-4.37023255 18.78865116-1.96744186 2.067907-5.72734883 5.9098605-5.22586046 6.9630698.10130232.2134883.33655814.3457674.57265116.36.43367442.0276279.86651163-.3030698 1.20474419-.5341396.21516279-.1473488 3.00055814-3.4015814 4.71265116-5.4117209 6.2104186 4.1994419 16.0451163-3.5171163 18.1548837-5.0550698 0 0 3.7004651-3.24 5.7122791-5.3104186 1.7564651.2386047 3.1462325-.0669767 3.8946977-1.0004651 1.9523721-2.432093-1.1905117-8.19627905-7.02-12.87376743" fill="#fff" mask="url(#d)" transform="translate(47 1)"/><path d="m79 20-10-6" fill="#4b64a3"/><g fill="#e7364b"><path d="m79.7296608 17.4618115c-1.1699556 1.5379199-5.8032321-.332703-10.3481506-4.1779186-4.5449185-3.84521566-7.2816521-8.20861629-6.1109076-9.74570443 1.1699556-1.53791989 5.8032321.33270306 10.3481506 4.17791868 4.5449185 3.84438385 7.2808632 8.20778445 6.1109076 9.74570435"/><path d="m64.5129694 30.9830358c-.009609-.0025309-.0183445-.0059056-.0270799-.0092802-3.312494-1.2992258-6.0012748-2.5655492-8.3581073-4.5211372-1.5138586-1.2553558-3.0783831-3.1400769-4.0820897-4.9184978-.098711-.1754798-.0323213-.393986.1493767-.4901624.1808244-.0953328.4088204-.0303716.5066578.1442646.964397 1.707554 2.4634054 3.514659 3.9126215 4.7168648 2.2799602 1.8914703 4.9084662 3.1265785 8.1528234 4.3996511.1904335.0750851.2830296.2851548.2052838.4699148-.0742516.1763235-.2751676.2649071-.4594863.2083823"/><path d="m66.5368733 29.9827964c-.0107927-.003446-.0207552-.006892-.0307177-.012061-3.3930622-1.4878047-6.135241-2.9678559-8.4913727-5.3550631-1.5093191-1.5308795-3.0360726-3.8672584-3.9841707-6.0985347-.0797001-.1860833.0016604-.4031804.1809854-.4858841.1809855-.0818422.390198.0025845.4690678.1886678.9140596 2.1502956 2.3818683 4.3988018 3.8305821 5.8676536 2.2764318 2.307088 4.9530241 3.7492333 8.2713675 5.2043011.1809855.0792577.2656668.2954934.1892876.4832997-.0722282.1766068-.2623459.2644794-.4350293.2076207"/><path d="m62.5253413 30.9835595c-.0093673-.0032678-.0187346-.0065355-.0289534-.0098032-2.5351251-1.0031919-4.5899645-1.9884113-6.3799655-3.5389473-1.1504716-.9958394-2.3298966-2.5014442-3.0775754-3.9278066-.0902665-.1723725-.017883-.3831408.1617983-.4697356.1788298-.0865947.398535-.0171555.489653.155217.7093582 1.3552893 1.8266185 2.7816517 2.914074 3.7235737 1.7133596 1.4827307 3.7051828 2.4360898 6.1704791 3.410689.1856424.0743408.2742057.2785737.1975643.4566647-.073235.1691049-.2682446.2548827-.4470744.2001483"/><path d="m53.4849838 31.9569103c-.3220166-.1080503-.6541693-.2614652-.9488963-.5856161-.1925862-.2119765-.3843927-.5443754-.5130434-.8899714-.0670543-.1806337.0171534-.3851869.1886877-.4569455.1715343-.0709337.3649002.0181459.4327342.1996044.0951235.2556915.2409276.5138574.3719174.6573746.2027223.2226991.4467688.3340486.746174.4272523.1699749.0577368.276794.253217.2237743.4404492-.0530197.1864074-.2393683.2919832-.4155807.2358961-.0280693-.009073-.0569182-.0181459-.0857672-.0280436"/><path d="m52.4816586 32.9561631c-.3203219-.1080353-.6515551-.2614288-.9461578-.5847098-.1925049-.211947-.3842304-.5442997-.5120474-.8890229-.0678054-.1814332.0163668-.3867826.188608-.4577065.1706825-.0717486.3647462.0181433.4317722.1987518.0950834.255656.2416053.513786.3717605.6581078.2034161.2226681.4450215.331528.7458591.4271928 0 0 .0038969.0016494.006235.0016494.1730206.0585535.2704421.2531818.2182242.4379139-.0529973.1863814-.2392672.2927672-.4154054.2366878-.0296161-.0098963-.0592322-.018968-.0888484-.0288643"/><path d="m51.4820061 33.9561628c-.3204183-.1080358-.6525307-.2614301-.9464424-.5847129-.1933425-.2127728-.3851257-.5451272-.5122015-.8898522-.0678258-.1814341.0171513-.38596.1886647-.4568842.1715135-.071749.3648559.0181434.4319021.1995776.0943324.2548325.2408984.5129639.3718723.6572865.2026977.2226693.4451554.3307051.7460835.4271951.0023388.0008247.0038981.0008247.0038981.0008247.1746318.0593784.2728623.2540078.219849.4387408-.0522336.1863824-.2385596.2927688-.4147507.2366892-.029625-.0098964-.0592501-.0189682-.0888751-.0288646"/></g></g></g></svg>