<svg height="84" viewBox="-50 0 296 84" width="296" xmlns="http://www.w3.org/2000/svg"><g fill="#ff9ca8" fill-rule="evenodd"><path d="m22.0019935 16c4.4196362 0 7.9980065-3.5792622 7.9980065-7.99800598 0-4.42273181-3.5783703-8.00199402-7.9980065-8.00199402-4.4216297 0-8.0019935 3.57926221-8.0019935 8.00199402 0 4.41874378 3.5803638 7.99800598 8.0019935 7.99800598"/><path d="m32.144611 20.9932851c-.5687081-1.2490717-1.7988924-1.9671371-3.0875608-1.9932851h-14.1209016c-1.2906851.026148-2.5128026.7442134-3.0815107 1.9932851l-11.53953143 25.2167656c-.79659471 1.7338161-.03025043 3.7814086 1.70612436 4.5738953.46787335.2111957.95793035.3117651 1.43790387.3117651 1.31286874 0 2.57128672-.7502476 3.15007831-2.0194331l3.58971789-7.8464228-3.12587793 14.6811177c-.10688486.4948013.02016696 1.0097165.33678814 1.4039485.32065458.3922206.79861141.6215188 1.30480197.6215188h3.46669952v21.9221128c0 2.2869477 1.8573765 4.141447 4.1523759 4.141447 2.2929828 0 4.152376-1.8544993 4.152376-4.141447v-21.9221128h3.0310933v21.9221128c0 2.2869477 1.8593932 4.141447 4.152376 4.141447 2.2929827 0 4.1523759-1.8544993 4.1523759-4.141447v-21.9221128h3.4545994c.5061905 0 .986164-.2292982 1.3027852-.6215188.3186379-.3922206.443673-.9091472.3388049-1.4019371l-3.1359615-14.7213455 3.6078682 7.8846392c.5787916 1.2691855 1.8372096 2.0194331 3.152095 2.0194331.4799735 0 .9680138-.1005694 1.4338705-.3117651 1.7383915-.7924867 2.5047358-2.8400792 1.7101577-4.5738953z"/><path d="m73.0019935 16c4.4196362 0 7.9980065-3.5792622 7.9980065-7.99800598 0-4.42273181-3.5783703-8.00199402-7.9980065-8.00199402-4.4216297 0-8.0019935 3.57926221-8.0019935 8.00199402 0 4.41874378 3.5803638 7.99800598 8.0019935 7.99800598"/><path d="m83.144611 20.9932851c-.5687081-1.2490717-1.7988924-1.9671371-3.0895775-1.9932851h-14.1188849c-1.2906851.026148-2.5128026.7442134-3.0815107 1.9932851l-11.5395314 25.2167656c-.7965947 1.7338161-.0302505 3.7814086 1.7061243 4.5738953.4678734.2111957.9579304.3117651 1.4379039.3117651 1.3128687 0 2.5712867-.7502476 3.1500783-2.0194331l3.5897179-7.8464228-3.1258779 14.6811177c-.1068849.4948013.0201669 1.0097165.3367881 1.4039485.3206546.3922206.7986114.6215188 1.304802.6215188h3.4666995v21.9221128c0 2.2869477 1.8573765 4.141447 4.1523759 4.141447 2.2929828 0 4.152376-1.8544993 4.152376-4.141447v-21.9221128h3.0310933v21.9221128c0 2.2869477 1.8593932 4.141447 4.152376 4.141447 2.2929827 0 4.1523759-1.8544993 4.1523759-4.141447v-21.9221128h3.4545994c.5061905 0 .986164-.2292982 1.3027852-.6215188.3186379-.3922206.443673-.9091472.3388049-1.4019371l-3.1359615-14.7213455 3.6078682 7.8846392c.5787916 1.2691855 1.8372096 2.0194331 3.152095 2.0194331.4799735 0 .9680138-.1005694 1.4338705-.3117651 1.7383915-.7924867 2.5047358-2.8400792 1.7101577-4.5738953z"/><path d="m123.001994 16c4.417642 0 7.998006-3.5792622 7.998006-7.99800598 0-4.42273181-3.580364-8.00199402-7.998006-8.00199402-4.42163 0-8.001994 3.57926221-8.001994 8.00199402 0 4.41874378 3.580364 7.99800598 8.001994 7.99800598"/><path d="m133.144611 20.9932851c-.570725-1.2490717-1.798892-1.9671371-3.089577-1.9932851h-14.118885c-1.290686.026148-2.512803.7442134-3.081511 1.9932851l-11.539532 25.2167656c-.796594 1.7338161-.03025 3.7814086 1.706125 4.5738953.467873.2111957.95793.3117651 1.437904.3117651 1.312868 0 2.571286-.7502476 3.148061-2.0194331l3.591735-7.8464228-3.125878 14.6811177c-.106885.4948013.01815 1.0097165.336788 1.4039485.320655.3922206.798612.6215188 1.304802.6215188h3.4667v21.9221128c0 2.2869477 1.857376 4.141447 4.152376 4.141447 2.292982 0 4.152376-1.8544993 4.152376-4.141447v-21.9221128h3.031093v21.9221128c0 2.2869477 1.859393 4.141447 4.152376 4.141447s4.152376-1.8544993 4.152376-4.141447v-21.9221128h3.454599c.504174 0 .984147-.2292982 1.302785-.6215188s.443673-.9091472.338805-1.4019371l-3.135961-14.7213455 3.607868 7.8846392c.578791 1.2691855 1.837209 2.0194331 3.152095 2.0194331.479973 0 .968014-.1005694 1.43387-.3117651 1.738392-.7924867 2.504736-2.8400792 1.710158-4.5738953z"/><path d="m174.001994 16c4.417642 0 7.998006-3.5792622 7.998006-7.99800598 0-4.42273181-3.580364-8.00199402-7.998006-8.00199402-4.42163 0-8.001994 3.57926221-8.001994 8.00199402 0 4.41874378 3.580364 7.99800598 8.001994 7.99800598"/><path d="m184.145401 20.9932851c-.570725-1.2490717-1.798892-1.9671371-3.089577-1.9932851h-14.118885c-1.290686.026148-2.512803.7442134-3.081511 1.9932851l-11.541548 25.2167656c-.794578 1.7338161-.028234 3.7814086 1.708141 4.5738953.467873.2111957.95793.3117651 1.437904.3117651 1.312868 0 2.571286-.7502476 3.148061-2.0194331l3.591735-7.8464228-3.127895 14.6811177c-.104868.4948013.020167 1.0097165.338805 1.4039485.320655.3922206.798611.6215188 1.304802.6215188h3.464683v21.9221128c0 2.2869477 1.859393 4.141447 4.154393 4.141447 2.292982 0 4.152376-1.8544993 4.152376-4.141447v-21.9221128h3.031093v21.9221128c0 2.2869477 1.859393 4.141447 4.152376 4.141447s4.152376-1.8544993 4.152376-4.141447v-21.9221128h3.452582c.506191 0 .986165-.2292982 1.304802-.6215188.318638-.3922206.443673-.9091472.338805-1.4019371l-3.135961-14.7213455 3.607868 7.8846392c.578792 1.2691855 1.83721 2.0194331 3.152095 2.0194331.479974 0 .968014-.1005694 1.43387-.3117651 1.738392-.7924867 2.504736-2.8400792 1.708142-4.5738953z"/></g></svg>