<?xml version="1.0" encoding="UTF-8"?>
<svg width="423px" height="363px" viewBox="0 0 423 363" version="1.1" xmlns="http://www.w3.org/2000/svg" xmlns:xlink="http://www.w3.org/1999/xlink">
    <title>Group 108</title>
    <defs>
        <polygon id="path-1" points="6.63464407e-14 0 9 0 9 15 6.63464407e-14 15"></polygon>
        <polygon id="path-3" points="0 0 21 0 21 46 0 46"></polygon>
        <polygon id="path-5" points="0 0 59 0 59 9 0 9"></polygon>
    </defs>
    <g id="Page-1" stroke="none" stroke-width="1" fill="none" fill-rule="evenodd">
        <g id="HOME-RE" transform="translate(-1063.000000, -900.000000)">
            <g id="Group-108" transform="translate(1063.000000, 900.000000)">
                <path d="M344.805427,17.0569136 C344.805427,17.0569136 336.024358,9.87577955 322.033098,17.5264471 C308.041246,25.1771146 314.105703,40.990075 302.192721,38.4592188 C290.278556,35.9271769 279.157131,37.569951 279.258294,47.5937779 C279.407968,62.4528503 271.836714,57.6662181 268.749172,71.3769494 C265.965709,83.7359936 271.245709,88.5006906 279.504398,83.9280754 C291.270072,77.4127065 283.242106,91.5081944 300.966933,91.9901775 C318.692351,92.4715678 338.148782,75.1474449 340.20103,64.4928307 C342.253279,53.8370308 346.575484,47.6939687 349.877777,43.0496193 C353.179478,38.4052699 356.543296,24.1591993 344.805427,17.0569136" id="Fill-1" fill="#FFE4DD"></path>
                <path d="M315.891158,147.738506 L298.855378,140.204591 C297.293637,139.513728 296.575011,137.658116 297.258826,136.079684 L322.719276,77.3158566 C325.248624,71.4772061 334.596059,62.9084872 340.37515,65.4639027 L342.048992,66.20424 C347.842243,68.7668085 347.958474,81.5355409 345.422636,87.3890935 L319.973396,146.125501 C319.290172,147.703337 317.452309,148.429369 315.891158,147.738506" id="Fill-3" fill="#E75724"></path>
                <polygon id="Fill-5" fill="#FFFFFF" points="306.978611 60.740461 345 57 304.302785 141 283 137.348471"></polygon>
                <path d="M281.890904,142.738759 L264.855126,135.20482 C263.293385,134.513956 262.57535,132.657742 263.258575,131.079901 L288.719022,72.3158943 C291.248959,66.4772259 300.595804,57.9084808 306.374894,60.4639041 L308.048736,61.2042437 C313.841986,63.7662239 313.958807,76.5355914 311.422379,82.3885659 L285.973143,141.125749 C285.289918,142.70359 283.452645,143.429027 281.890904,142.738759" id="Fill-7" fill="#FFFFFF"></path>
                <path d="M331,221.77309 C331,221.77309 322.386341,223.997718 314.36374,232.221504 C310.0596,236.633772 304.392861,241.296601 302.676464,239.667952 C301.84994,238.884052 300.718624,233.272072 306.532978,228.418935 C312.110073,223.761475 309.769749,215.482804 315.5345,213.808219 C319.474085,212.663988 319.806367,216.723084 328.99674,212 L331,221.77309 Z" id="Fill-9" fill="#FF9A00"></path>
                <path d="M390,190.536449 C389.963853,205.554988 325.909575,225 325.909575,225 C325.909575,225 323.055232,216.425668 327.852139,211.502895 C327.852139,211.502895 341.599285,198.874166 348.059301,193.885733 C355.750219,187.952023 361.68389,186.444194 361.68389,186.444194 C361.516336,185.875135 359.049203,185.274133 355.361233,184.536487 L355.354128,184.53767 C343.924915,182.256702 320.820188,178.693282 318.443641,170.854822 C318.226945,170.140836 318.095507,169.365331 318.036893,168.539545 C317.233461,157.42456 329.818977,137.504544 329.818977,137.504544 L343.51639,131 C343.51639,131 347.362441,146.45746 352.625895,149.711506 C357.888164,152.962003 390.036677,175.51791 390,190.536449" id="Fill-11" fill="#FFFFFF"></path>
                <path d="M351,60.0818809 C351,60.0818809 388.176954,44.9838537 393.507754,41.8992913 C398.837369,38.814729 414.380056,13 414.380056,13 L420,15.508619 C420,15.508619 416.75957,38.3723808 401.60557,51.6469833 C395.689371,56.8286918 361.187593,75 361.187593,75 L351,60.0818809 Z" id="Fill-13" fill="#FFBE9D"></path>
                <path d="M244,264.228774 C244,264.228774 239.098027,270.857695 237.461506,276.790815 C235.824985,282.72513 233.227453,289.560701 230.98957,288.963447 C229.911206,288.67557 226.289608,284.303672 228.965375,277.241742 C231.532547,270.465896 225.614098,264.34046 229.7524,260.088012 C232.579384,257.182969 234.783403,260.579552 240.409929,252 L244,264.228774 Z" id="Fill-15" fill="#FF9A00"></path>
                <path d="M346,136.686015 C346,136.686015 310.520392,193.376791 294.236699,211.491501 C285.589853,221.110203 244.266769,264 244.266769,264 C244.266769,264 240.800774,261.266687 239.545117,258.699174 C237.078413,253.650006 238.304925,250.26238 238.304925,250.26238 C238.304925,250.26238 253.537578,210.402557 270.752159,197.519986 C282.681796,188.593493 285.258541,140.85704 310.880256,121.806159 C336.501377,102.755278 346,136.686015 346,136.686015" id="Fill-17" fill="#FFFFFF"></path>
                <path d="M364.467423,101.330208 C354.465608,129.258964 352.459638,142.153568 348.200754,145.379907 C343.940081,148.602662 299.277873,146.992777 294.865097,140.769402 C293.697781,139.119509 293.793218,137.092224 294.665872,134.792047 L294.668258,134.787867 C297.08759,128.400876 305.482482,119.922109 309.407932,111.692946 C311.95849,106.349155 313.749726,101.743427 314.98862,97.765292 C321.049477,78.2991801 313.874988,73.8331827 317.546933,70.9519903 C323.977608,65.9103516 355.13844,52.9333417 365.671124,55.2812896 C370.82831,56.4325723 365.604318,67.3840889 366.997104,75.7780622 C368.741815,86.3169563 367.610288,92.5546631 364.467423,101.330208" id="Fill-19" fill="#FF9A00"></path>
                <path d="M315.857151,72 C315.857151,72 288.985881,95.3263721 283.79063,106.540505 C278.594789,117.754638 272,143.318242 272,143.318242 C272,143.318242 272.505701,144.857343 277.910675,143.310505 C277.910675,143.310505 293.079341,113.774162 295.641519,110.690603 C298.203698,107.607044 322,90.7739413 322,90.7739413 L315.857151,72 Z" id="Fill-21" fill="#FFBE9D"></path>
                <path d="M374.487226,64.2486733 C373.571916,68.1571553 371.225763,72.9018269 366.474386,78 L350,57.4745977 C350,57.4745977 364.414043,53.5302958 372.356475,51 C372.356475,51 376.397205,56.092301 374.487226,64.2486733" id="Fill-23" fill="#FF9A00"></path>
                <path d="M337,61 C337,61 323.308168,64.562649 313.362406,71.8222055 C309.239176,74.8310376 299,86.1357351 299,86.1357351 C299,86.1357351 303.307356,96.2255118 316.662415,97.9175303 C330.016881,99.6089495 324.48301,74.7219524 324.48301,74.7219524 L337,61 Z" id="Fill-25" fill="#FF9A00"></path>
                <g id="Group-29" transform="translate(414.000000, 0.000000)">
                    <mask id="mask-2" fill="white">
                        <use xlink:href="#path-1"></use>
                    </mask>
                    <g id="Clip-28"></g>
                    <path d="M6.63464407e-14,12.5399803 C6.63464407e-14,12.5399803 0.704392483,0.137987334 3.31537175,0.00348684746 C5.92635101,-0.132178146 8.33599191,3.72292022 8.93825623,5.98439161 C9.54110415,8.24644525 5.53534607,15 5.53534607,15 L6.63464407e-14,12.5399803 Z" id="Fill-27" fill="#FFBE9D" mask="url(#mask-2)"></path>
                </g>
                <path d="M277.846805,144.185428 C277.846805,144.185428 279.497697,149.897389 278.84894,152.347196 C278.200183,154.797002 275.800679,156.945443 273.990737,156.999519 C272.180795,157.054202 274.752503,152.434689 273.333609,150.147109 C271.914715,147.858922 269.319688,142.957487 272.554503,141.350409 C275.789916,139.743331 277.846805,144.185428 277.846805,144.185428" id="Fill-30" fill="#FFBE9D"></path>
                <path d="M277.63063,143 C277.63063,143 279.102359,146.451595 279.864249,147.592006 C280.625629,148.733 277.968454,147.229387 277.244837,146.157296 C276.52173,145.085789 277.63063,143 277.63063,143" id="Fill-32" fill="#FFBE9D"></path>
                <path d="M329.528218,85.4991811 C326.97978,97.5154174 316.902302,103.286058 312.645565,105.227152 C311.776211,105.621352 311.151325,105.857035 310.881813,105.954538 L310.755405,106 L309,100.829932 C309.039354,100.819763 310.447732,100.316693 312.401693,99.2160426 L312.40527,99.2148463 C316.345391,96.9932064 322.513158,92.3417601 324.205358,84.3584521 C326.544507,73.3298107 316.745485,66.8796377 315.499887,66.1133693 C317.619013,65.2579722 319.759009,64.5581018 321.75292,64 C326.501575,68.2249441 331.591295,75.7805535 329.528218,85.4991811" id="Fill-34" fill="#FFFFFF"></path>
                <path d="M346.606197,59.7784805 C346.606197,59.7784805 361.364123,60.0634091 366.565994,78 C366.565994,78 369.643972,76.443479 370,73.5633404 C370,73.5633404 364.27841,57.7670415 348.68449,56.6388209 C347.780681,56.572882 344.049692,56 344.049692,56 L344,56.8674898 C344,56.8674898 344.303413,59.0295598 344.437874,59.2769819 C344.572334,59.5250089 346.606197,59.7784805 346.606197,59.7784805" id="Fill-36" fill="#FFFFFF"></path>
                <path d="M331.02005,63.6682384 C331.856574,60.4561062 332.355227,55.7746264 331.882789,50 L332.708827,50.0973555 L346.601772,51.7523999 C346.601772,51.7523999 346.638472,56.218736 346.955373,60.4008179 C346.958285,60.4356736 346.961198,60.4705293 346.963528,60.504784 C347.904327,73.379154 330.325665,66.3346987 331.02005,63.6682384" id="Fill-38" fill="#FFBE9D"></path>
                <path d="M350.108754,51.1121779 C350.108754,51.1121779 332.488854,57.4904837 328.557973,46.7990056 C324.627696,36.1075275 319.706404,29.729806 330.789715,25.2062636 C341.873025,20.6821369 345.570477,24.0030633 347.778695,27.2626318 C349.986913,30.5222002 354.590935,49.1773569 350.108754,51.1121779" id="Fill-40" fill="#FFBE9D"></path>
                <path d="M338,21.0917907 C338,21.0917907 337.754772,35.7047845 331.26605,40.2444288 C324.777328,44.7828718 321,43.93777 321,43.93777 C321,43.93777 324.932909,37.3997932 323.373626,29.0929288 C323.373626,29.0929288 332.392134,16.2476214 338,21.0917907" id="Fill-42" fill="#FFE4DD"></path>
                <path d="M338,23.4412209 C338,23.4412209 341.914529,23.5094107 344.231846,25.6281651 C346.497604,27.6994301 348.84157,30.6882132 349.988063,35 C349.988063,35 350.497873,24.8037992 344.854046,21.2494061 C338.869573,17.4800934 338,23.4412209 338,23.4412209" id="Fill-44" fill="#FFE4DD"></path>
                <path d="M160,302.817467 C160,302.817467 149.546171,306.99989 140.838153,318.541455 C136.166232,324.7341 129.823622,331.461339 127.395113,329.721086 C126.22563,328.882109 123.867434,322.093756 130.36269,315.104262 C136.59352,308.398382 132.269559,298.49383 139.234772,295.463071 C143.993833,293.393516 145.088195,298.382876 155.85032,291 L160,302.817467 Z" id="Fill-46" fill="#FFFFFF"></path>
                <path d="M210.978299,250.240378 C212.252099,267.473332 157.024437,311 157.024437,311 C157.024437,311 150.209463,308.053198 148.886374,294.111276 C148.886374,294.111276 165.158344,264.676609 176.028691,254.023933 C177.765097,252.323626 177.445014,249.438762 171.98282,246.343071 L171.979257,246.344263 C170.406753,245.452123 168.40965,244.542711 165.912528,243.641042 C165.912528,243.641042 142.150975,235.146058 127.284639,227.473535 C124.46684,226.018001 121.969125,224.592244 120.015966,223.259989 C119.309883,222.782951 142.257867,189.455742 142.257867,189.455742 L157.898579,182 C157.898579,182 165.094802,191.600332 170.53443,197.909633 C175.155144,203.26962 209.614829,231.832991 210.978299,250.240378" id="Fill-48" fill="#FF9A00"></path>
                <path d="M126.53555,199.703961 L107.115223,191.171027 C105.334539,190.389484 104.515684,188.287382 105.294955,186.500151 L134.320577,119.948609 C137.204293,113.33692 147.860038,103.631079 154.447506,106.525398 L156.355804,107.363867 C162.960404,110.265894 163.092745,124.727407 160.201348,131.3557 L131.189905,197.877 C130.410635,199.664231 128.316234,200.486097 126.53555,199.703961" id="Fill-50" fill="#E75724"></path>
                <polygon id="Fill-52" fill="#FFE4DD" points="116.488692 101.309076 157 98 113.421192 193 89 188.82766"></polygon>
                <path d="M88.5355558,194.704213 L69.1146417,186.171274 C67.3345488,185.389138 66.5156942,183.287034 67.2949649,181.499802 L96.3199913,114.948811 C99.2042972,108.336525 109.85945,98.6306785 116.447507,101.525592 L118.355805,102.363468 C124.960404,105.265498 125.092744,119.72702 122.201349,126.355909 L93.1899109,192.877251 C92.4106402,194.664483 90.3162395,195.485756 88.5355558,194.704213" id="Fill-54" fill="#FFE4DD"></path>
                <path d="M166,99.9163772 C166,99.9163772 208.565459,82.6267045 214.668371,79.094592 C220.770688,75.5618823 238.565188,46 238.565188,46 L245,48.8721557 C245,48.8721557 241.290702,75.0554177 223.93953,90.2565213 C217.165667,96.1913542 177.664178,117 177.664178,117 L166,99.9163772 Z" id="Fill-56" fill="#5B2D0F"></path>
                <g id="Group-60" transform="translate(25.000000, 317.000000)">
                    <mask id="mask-4" fill="white">
                        <use xlink:href="#path-3"></use>
                    </mask>
                    <g id="Clip-59"></g>
                    <path d="M21,15.2025517 C21,15.2025517 14.5662685,23.443501 12.418652,30.8215391 C10.2710355,38.1989882 6.86086607,46.6979273 3.92362208,45.9545867 C2.50849294,45.5964638 -2.24446872,40.1615958 1.2666077,31.3811061 C4.63604963,22.9575613 -3.13135593,15.342738 2.29999238,10.0557134 C6.01105913,6.44385571 8.90392837,10.666525 16.2883737,0 L21,15.2025517 Z" id="Fill-58" fill="#FFFFFF" mask="url(#mask-4)"></path>
                </g>
                <path d="M161,187.621087 C161,187.621087 120.592213,252.355823 102.046689,273.041005 C92.1994181,284.02444 45.1373305,333 45.1373305,333 C45.1373305,333 41.1892587,329.87893 39.7599793,326.946727 C36.9502136,321.182102 38.347361,317.313282 38.347361,317.313282 C38.347361,317.313282 58.9445738,268.221313 74.2185839,249.066079 C86.728051,233.379361 91.8227596,192.383763 121.002194,170.630111 C150.181629,148.875866 161,187.621087 161,187.621087" id="Fill-61" fill="#FF9A00"></path>
                <path d="M180.793186,155.619084 C172.876141,188.241985 170.167554,198.163933 164.321678,199.703443 C118.467214,211.781536 103.397435,204.000896 98.4036254,196.95915 C97.0819439,195.093814 99.1946183,189.525701 102.006379,185.284629 L102.009936,185.280475 C104.747578,178.05356 114.247794,168.459811 118.690755,159.14797 C121.576634,153.102098 123.603924,147.891265 125.006247,143.389651 C131.864879,121.362903 123.745639,116.309938 127.901613,113.049903 C135.178866,107.344694 170.444461,92.6617775 182.363906,95.318234 C188.200888,96.6203488 182.289194,109.012991 183.86525,118.510595 C185.840361,130.435568 183.704562,143.622299 180.793186,155.619084" id="Fill-63" fill="#FFFFFF"></path>
                <path d="M125.997156,115 C125.997156,115 95.3645959,141.566164 89.4413425,154.337809 C83.5186807,167.109453 76,196.223873 76,196.223873 C76,196.223873 76.5779505,197.976097 82.738418,196.214943 C82.738418,196.214943 100.031384,162.576177 102.951897,159.064585 C105.871819,155.552398 133,136.381535 133,136.381535 L125.997156,115 Z" id="Fill-65" fill="#5B2D0F"></path>
                <path d="M193.42528,105.211592 C192.400376,109.699385 189.772959,115.147155 184.451794,121 L166,97.4340542 C166,97.4340542 182.143705,92.9059909 191.03912,90 C191.03912,90 195.565486,95.8469224 193.42528,105.211592" id="Fill-67" fill="#FFFFFF"></path>
                <path d="M151,102 C151,102 135.506988,106.044641 124.252224,114.28452 C119.58596,117.699875 108,130.532406 108,130.532406 C108,130.532406 112.874664,141.986245 127.986888,143.906373 C143.098523,145.826502 136.836496,117.576169 136.836496,117.576169 L151,102 Z" id="Fill-69" fill="#FFFFFF"></path>
                <path d="M239,46.2120462 C239,46.2120462 239.783138,32.1569337 242.683881,32.003915 C245.585193,31.8508964 248.262101,36.2194634 248.931328,38.7831058 C249.601125,41.3455889 245.150623,49 245.150623,49 L239,46.2120462 Z" id="Fill-71" fill="#5B2D0F"></path>
                <path d="M83.7028206,196.583168 C83.7028206,196.583168 85.5605737,203.009031 84.8296447,205.765374 C84.0998976,208.521717 81.4007194,210.937645 79.3645181,210.999484 C77.3289076,211.059522 80.2213062,205.863837 78.6247258,203.290009 C77.0287363,200.716182 74.1097477,195.201695 77.7490292,193.393951 C81.3883108,191.586809 83.7028206,196.583168 83.7028206,196.583168" id="Fill-73" fill="#5B2D0F"></path>
                <path d="M82.8413267,195 C82.8413267,195 84.803127,199.141748 85.8186963,200.510636 C86.8348634,201.879524 83.2914289,200.074857 82.3266679,198.788447 C81.3619069,197.502652 82.8413267,195 82.8413267,195" id="Fill-75" fill="#5B2D0F"></path>
                <path d="M141.460843,130.058572 C138.548215,143.505454 127.031183,149.963133 122.166627,152.135096 C121.172406,152.575485 120.458316,152.840072 120.150054,152.948847 L120.0052,153 L118,147.214371 C118.044294,147.202612 119.653841,146.639924 121.887694,145.407539 L121.891884,145.406951 C126.394307,142.920424 133.443035,137.71571 135.377604,128.7815 C138.050805,116.44059 126.851612,109.222666 125.428219,108.364817 C127.850022,107.408777 130.296367,106.625013 132.574514,106 C138.001723,110.72787 143.818599,119.182884 141.460843,130.058572" id="Fill-77" fill="#FFE4DD"></path>
                <path d="M162.007644,100.293875 C162.007644,100.293875 179.035551,100.616927 185.037803,121 C185.037803,121 188.589382,119.231366 189,115.958577 C189,115.958577 182.398116,98.0077532 164.404989,96.7258103 C163.36215,96.6515386 159.057475,96 159.057475,96 L159,96.9860635 C159,96.9860635 159.349588,99.4424665 159.504829,99.7238539 C159.66007,100.005241 162.007644,100.293875 162.007644,100.293875" id="Fill-79" fill="#FFE4DD"></path>
                <path d="M143.023773,104.186706 C144.017235,100.618331 144.609059,95.4170913 144.048832,89 L145.030142,89.1085058 L161.527083,90.9478256 C161.527083,90.9478256 161.569617,95.9097663 161.948166,100.557333 C161.950596,100.595457 161.953634,100.634167 161.956672,100.672877 C163.074089,114.976874 142.199837,107.149207 143.023773,104.186706" id="Fill-81" fill="#5B2D0F"></path>
                <path d="M167.695362,88.6131679 C167.695362,88.6131679 149.771117,98.9954044 143.580052,87.8157621 C137.389572,76.6361198 130.907094,70.4478009 142.089047,63.3456276 C153.27217,56.2440455 157.876848,59.2563364 160.856517,62.4766976 C163.837357,65.6970588 172.198221,85.6239303 167.695362,88.6131679" id="Fill-83" fill="#5B2D0F"></path>
                <path d="M127.62035,66.7632036 C127.371517,66.627272 126.910823,66.617181 126,66.9056647 C126,66.9056647 126.546377,66.1844554 127.491238,65.7992168 C127.213062,64.4737349 127.049912,62.0020346 128.985998,60.6522156 C128.985998,60.6522156 128.067545,61.7058342 128.412038,63.0972044 C129.933207,59.5908803 134.540729,55.711783 149.651474,51.3216065 C169.565756,45.5353111 167.830966,60.4771071 165.879621,62.919128 C163.928863,65.3617424 156.109399,63.6569578 151.582865,65.7992168 C147.055745,67.9414757 148.694288,75.096585 147.458925,76.632197 C146.222389,78.1678091 146.232366,76.2772314 143.727602,76.1098396 C141.224012,75.9424478 142.34963,79.6090406 143.832652,81.7079676 C145.315087,83.8074883 143.513394,88 143.513394,88 L139.340157,85.8886076 C135.16692,83.7760281 127.282899,71.1195456 127.551099,67.6826714 C127.575161,67.3787543 127.595701,67.0724629 127.62035,66.7632036" id="Fill-85" fill="#FF9A00"></path>
                <path d="M336.851044,95.7846263 L336.765142,95.8349415 L336.6745,95.7981255 C335.852803,95.4692357 335.143667,94.9673107 334.564865,94.3076904 C334.56368,94.2776239 334.550647,94.2463303 334.522211,94.2131959 C334.061894,93.6805908 333.68511,93.0455145 333.4043,92.3257614 C332.927395,91.105924 332.888295,90.0701666 332.88711,90.026601 L332.881778,89.8609289 L333.05299,89.8290217 C333.971253,89.6572136 334.740224,89.2362838 335.223052,88.9141437 C335.740242,88.5686867 336.056006,88.2532961 336.069632,88.2391833 L336.194041,88.1127817 L336.335632,88.2189345 C336.372955,88.2465465 336.72071,88.4968955 337.271075,88.750926 C337.795373,88.9939117 338.616478,89.2878263 339.550144,89.3123703 L339.724318,89.3172791 L339.743276,89.481724 C339.748607,89.524676 339.862353,90.5549109 339.570879,91.8348811 C339.399075,92.5914503 339.120634,93.2786826 338.743258,93.8781701 C338.720153,93.9155998 338.711859,93.9493478 338.714229,93.9800278 C338.239694,94.7230978 337.612906,95.3299485 336.851044,95.7846263 M340.960122,91.9643508 C340.875405,90.8255086 340.700639,89.7977281 340.438193,88.9037125 C339.675739,86.3106376 338.17038,84.8386104 335.963587,85.0141001 C333.782861,85.1871354 332.515658,86.8438562 332.12821,89.4749744 C331.98899,90.4223732 331.963515,91.4961738 332.05001,92.6730591 C332.08911,93.1897106 332.153092,93.6934765 332.241364,94.1800615 C332.247881,94.1769935 332.254397,94.1745391 332.261507,94.1720847 C332.261507,94.1769935 332.260914,94.1825159 332.261507,94.1874247 C332.304161,94.7635954 334.083814,94.730461 334.48548,94.4365464 C335.074353,95.0992348 335.792375,95.6048414 336.622367,95.9374128 L336.778175,96 L336.922727,95.9134824 C337.690514,95.4557365 338.323226,94.8458178 338.80724,94.1015207 C339.227271,94.34512 340.917467,94.1524495 340.987966,93.6087996 C340.993298,93.5707564 340.995668,93.5320996 340.992705,93.4934428 C341.008701,92.9958129 340.99863,92.4846839 340.960122,91.9643508" id="Fill-87" fill="#E9364B"></path>
                <path d="M355.851179,90.7846246 L355.765278,90.8355538 L355.674044,90.7987375 C354.852944,90.4698451 354.143812,89.967916 353.565013,89.3082903 C353.563829,89.2782237 353.550795,89.2469298 353.522359,89.2137951 C353.062045,88.6811858 352.685263,88.0461044 352.404454,87.3257318 C351.927552,86.1058846 351.888452,85.0701189 351.887268,85.026553 L351.881343,84.8614931 L352.053146,84.8289721 C352.971404,84.6577762 353.739779,84.236843 354.223197,83.9140866 C354.739791,83.5686269 355.055553,83.2532338 355.069771,83.2391209 L355.19418,83.1133318 L355.33577,83.2188719 C355.373093,83.2470977 355.720846,83.4974487 356.270616,83.7514813 C356.795504,83.9938553 357.616604,84.2877722 358.550265,84.3123164 L358.724437,84.3172253 L358.743395,84.4822851 C358.748727,84.5252375 358.862472,85.5548671 358.570999,86.8354612 C358.399196,87.5920365 358.120757,88.2792743 357.743383,88.8787667 C357.720278,88.915583 357.711984,88.9499449 357.714354,88.9806251 C357.239229,89.7230875 356.613037,90.3305567 355.851179,90.7846246 M359.960235,86.9643183 C359.875518,85.825467 359.700753,84.7982918 359.438309,83.904269 C358.675859,81.3105596 357.169916,79.8391342 354.963727,80.0140117 C352.783013,80.187662 351.515818,81.8443962 351.128372,84.4749218 C350.98856,85.4229419 350.963678,86.4967511 351.050172,87.6730324 C351.089272,88.1903016 351.153254,88.6940715 351.241525,89.1800468 C351.248042,89.1775924 351.254558,89.175138 351.261667,89.17207 C351.261667,89.1775924 351.261075,89.1831149 351.261667,89.1874101 C351.30373,89.7635854 353.083965,89.7310644 353.485629,89.4371474 C354.074498,90.0998411 354.792517,90.6054518 355.622503,90.9380259 L355.777718,91 L355.92227,90.9140953 C356.690644,90.4563458 357.323354,89.8458085 357.807364,89.102119 C358.227393,89.3451067 359.91758,89.1530482 359.988079,88.609394 C359.99341,88.5713504 359.99578,88.5320797 359.992818,88.4940362 L359.992818,88.4934226 C360.008813,87.9964023 359.99815,87.4852692 359.960235,86.9643183" id="Fill-89" fill="#E9364B"></path>
                <path d="M151.850839,137.784626 L151.765531,137.835555 L151.674298,137.798739 C150.852612,137.469849 150.144079,136.967924 149.565285,136.308304 C149.5641,136.278238 149.551067,136.24633 149.522631,136.21381 C149.061728,135.680591 148.685542,135.045515 148.404735,134.325761 C147.927837,133.105924 147.888738,132.070167 147.886961,132.026601 L147.881629,131.861543 L148.05343,131.829022 C148.971681,131.657214 149.740049,131.236284 150.222871,130.914144 C150.740053,130.568687 151.055812,130.253296 151.07003,130.239183 L151.193846,130.112782 L151.335434,130.218935 C151.373349,130.246547 151.720507,130.497509 152.270865,130.75154 C152.795748,130.993912 153.616249,131.287826 154.549903,131.31237 L154.724666,131.317279 L154.743624,131.481724 C154.748363,131.524676 154.862108,132.554911 154.57123,133.835495 C154.398836,134.59145 154.120398,135.278683 153.74362,135.878784 C153.719923,135.9156 153.712221,135.949348 153.714591,135.980641 C153.239471,136.723098 152.613283,137.330562 151.850839,137.784626 M155.959861,133.964351 C155.875145,132.825509 155.700974,131.797728 155.437939,130.903712 C154.676088,128.310638 153.170158,126.83861 150.963987,127.0141 C148.782699,127.187135 147.515514,128.843856 147.128071,131.474974 C146.988853,132.422373 146.963379,133.496787 147.050464,134.673059 C147.088971,135.189711 147.153545,135.69409 147.241816,136.180061 C147.24774,136.177607 147.254849,136.174539 147.261366,136.172085 C147.261958,136.177607 147.261366,136.182516 147.261366,136.187425 C147.30402,136.763595 149.08424,136.731075 149.485308,136.43716 C150.074766,137.099848 150.792778,137.605455 151.622165,137.937413 L151.777972,138 L151.922522,137.913482 C152.69089,137.455737 153.323002,136.845818 153.807601,136.102134 C154.227626,136.34512 155.917207,136.152449 155.987705,135.609413 C155.993036,135.570756 155.995406,135.5321 155.993036,135.494056 L155.992444,135.493443 C156.009032,134.996427 155.998368,134.485297 155.959861,133.964351" id="Fill-91" fill="#E9364B"></path>
                <path d="M174.851179,132.785228 L174.765278,132.835546 L174.674044,132.798728 C173.852944,132.46982 173.143812,131.967867 172.565013,131.30821 C172.563829,131.278141 172.550795,131.246846 172.522359,131.21371 C172.062045,130.681075 171.685263,130.045963 171.404454,129.325556 C170.927552,128.105651 170.888452,127.070449 170.887268,127.026268 L170.881936,126.8612 L171.053146,126.829291 C171.971404,126.657473 172.739779,126.23652 173.223197,125.914362 C173.739791,125.568272 174.056146,125.253478 174.069771,125.239364 L174.19418,125.112955 L174.33577,125.219114 C174.373093,125.246728 174.720846,125.497091 175.270616,125.751135 C175.795504,125.994135 176.616604,126.288065 177.550265,126.312611 L177.724437,126.31752 L177.743395,126.481974 C177.748727,126.524928 177.862472,127.555221 177.570999,128.835262 C177.399196,129.591874 177.120757,130.279144 176.743383,130.878665 C176.720278,130.916097 176.711984,130.949847 176.714354,130.980529 C176.239229,131.72364 175.613037,132.330525 174.851179,132.785228 M178.960235,128.964739 C178.875518,127.825834 178.700753,126.797996 178.438309,125.90393 C177.675859,123.310711 176.169916,121.838601 173.963727,122.014101 C171.783013,122.187146 170.515818,123.843959 170.128372,126.475224 C169.98856,127.422676 169.963678,128.496536 170.050172,129.673487 C170.089272,130.190167 170.153254,130.693961 170.241525,131.17996 C170.248042,131.177505 170.254558,131.175051 170.261667,131.172596 C170.261667,131.177505 170.261075,131.183028 170.261667,131.187937 C170.304322,131.76414 172.083965,131.731004 172.485629,131.437073 C173.074498,132.099798 173.792517,132.605433 174.622503,132.938023 L174.777718,133 L174.92227,132.914091 C175.690644,132.45632 176.323354,131.846367 176.807364,131.102028 C177.227393,131.345641 178.91758,131.15296 178.988079,130.60928 C178.99341,130.571235 178.99578,130.532576 178.992818,130.493917 C179.008813,129.996259 178.99815,129.485101 178.960235,128.964739" id="Fill-93" fill="#E9364B"></path>
                <g id="Group-97" transform="translate(0.000000, 184.000000)">
                    <mask id="mask-6" fill="white">
                        <use xlink:href="#path-5"></use>
                    </mask>
                    <g id="Clip-96"></g>
                    <path d="M0.0875404376,6.78749355 L0.0875404376,6.78749355 C-0.395359259,5.3903149 1.16752301,4.10608521 3.58023738,3.91858994 L53.6685921,0.0229802637 C56.0807118,-0.164515012 58.4286034,0.815881971 58.9120978,2.21249588 C59.3961869,3.60967453 57.8321153,4.89390421 55.4194009,5.08139949 L5.33104613,8.97700916 C2.91892647,9.16450444 0.571034838,8.1846722 0.0875404376,6.78749355" id="Fill-95" fill="#F6FAFF" mask="url(#mask-6)"></path>
                </g>
                <path d="M2.25471196,220.620481 L2.25471196,220.620481 C1.43727419,219.309291 2.65235202,217.639698 4.969324,216.891546 L53.0705965,201.360132 C55.3869696,200.611387 57.9279135,201.067968 58.7453513,202.379157 C59.5627891,203.690346 58.3471124,205.359939 56.0307393,206.108092 L7.93006565,221.640689 C5.61309367,222.38825 3.07214974,221.93167 2.25471196,220.620481" id="Fill-98" fill="#F6FAFF"></path>
                <path d="M31.0182071,255.813343 L31.0182071,255.813343 C29.6129078,255.178801 29.6691434,253.113567 31.1442933,251.201027 L61.7660844,211.499937 C63.2412343,209.587397 65.5759017,208.55181 66.9817929,209.186946 C68.3870922,209.822083 68.3308566,211.886128 66.8557067,213.798668 L36.2339156,253.499758 C34.7587657,255.412298 32.4240983,256.447886 31.0182071,255.813343" id="Fill-100" fill="#F6FAFF"></path>
                <path d="M194.162222,141.243749 L194.162222,141.243749 C193.507338,139.883042 194.894222,138.397059 197.259873,137.925978 L246.369685,128.144123 C248.734744,127.673042 251.183442,128.394673 251.837733,129.756535 C252.492618,131.117243 251.106327,132.602649 248.740676,133.074307 L199.630864,142.856162 C197.265212,143.326666 194.817107,142.605034 194.162222,141.243749" id="Fill-102" fill="#F6FAFF"></path>
                <path d="M200.366069,169.979578 L200.366069,169.979578 C199.406155,168.766971 200.399231,166.953715 202.58317,165.929815 L247.940174,144.677338 C250.124705,143.654033 252.674016,143.807618 253.633931,145.020226 C254.593845,146.232833 253.600769,148.046089 251.41683,149.069989 L206.059826,170.322466 C203.875295,171.345771 201.325984,171.192781 200.366069,169.979578" id="Fill-104" fill="#F6FAFF"></path>
                <path d="M233.255936,201.907216 L233.255936,201.907216 C231.767712,201.444363 231.574273,199.379418 232.82474,197.295983 L258.785117,154.028174 C260.035585,151.943546 262.255644,150.629544 263.743868,151.092994 C265.232691,151.555847 265.425531,153.620195 264.175063,155.704226 L238.214686,198.972036 C236.964219,201.056067 234.74416,202.370069 233.255936,201.907216" id="Fill-106" fill="#F6FAFF"></path>
            </g>
        </g>
    </g>
</svg>