<?xml version="1.0" encoding="UTF-8"?>
<svg width="192px" height="145px" viewBox="0 0 192 145" version="1.1" xmlns="http://www.w3.org/2000/svg" xmlns:xlink="http://www.w3.org/1999/xlink">
    <!-- Generator: Sketch 61.1 (89650) - https://sketch.com -->
    <title>Group 6</title>
    <desc>Created with Sketch.</desc>
    <g id="Page-1" stroke="none" stroke-width="1" fill="none" fill-rule="evenodd">
        <g id="MISSON-ET-CHIFFRES-CLES" transform="translate(-1088.000000, -1048.000000)">
            <g id="Group-6" transform="translate(1088.000000, 1048.000000)">
                <rect id="Rectangle-Copy-4" fill="#FFEAED" x="31" y="87" width="161" height="58" rx="29"></rect>
                <g id="Group-23-Copy-2" transform="translate(74.000000, 58.000000)">
                    <polygon id="Fill-1" fill="#EC6978" points="18 17.3746981 22.0748887 64 82 52.1058658 79.1237233 10"></polygon>
                    <polygon id="Fill-2" fill="#E8364B" points="3.54869936 50.2130797 22 64 17.9785279 17.4100529 0 6"></polygon>
                    <polygon id="Fill-3" fill="#414B6B" points="65.3918249 0 0 5.82167762 18.1390247 17 79 9.78055562 65.3961221 0"></polygon>
                    <g id="Group-22" transform="translate(25.000000, 17.000000)">
                        <path d="M8.7533985,19.36062 C8.70452632,18.8546937 8.25646617,18.4823568 7.7497594,18.5240305 C7.74545865,18.52442 7.74154887,18.5248095 7.73724812,18.5251989 C7.22506767,18.5734937 6.84972932,19.0272305 6.8986015,19.5370516 C7.18675188,22.5410621 7.58554887,25.5548095 8.09030075,28.5451884 L1.80729323,17.9935674 C1.59186466,17.6317463 1.15983459,17.4580411 0.75243609,17.5741042 C0.346210526,17.6886095 0.0678345865,18.0609463 0.074481203,18.4815779 C0.121007519,21.3714726 0.531924812,24.2566937 0.92837594,27.0468832 C1.33851128,29.9282095 1.76233083,32.9076832 1.76819549,35.8299042 C1.76936842,36.3424516 2.18693233,36.7572411 2.70145865,36.7560751 C2.72687218,36.7560751 2.75228571,36.7549042 2.77730827,36.7529568 C3.25625564,36.71362 3.63198496,36.3132411 3.63120301,35.8263989 C3.62533835,32.7748726 3.19213534,29.7303568 2.7733985,26.7867147 C2.5618797,25.3004832 2.34645113,23.7869884 2.18693233,22.2692095 L9.19129323,34.0324832 C9.42392481,34.4231253 9.90678195,34.5890411 10.3309925,34.4239042 C10.755594,34.2587674 10.998391,33.8116516 10.9037744,33.3672621 C9.92633083,28.7613463 9.20263158,24.0487147 8.7533985,19.36062" id="Fill-4" fill="#FFFFFF"></path>
                        <path d="M15.4983459,25.3755737 C15.4537744,25.3857 15.4123308,25.4024474 15.3704962,25.4184158 C15.3603308,25.2949526 15.3525113,25.1718789 15.339218,25.0484158 C15.3278797,24.9417 15.3153684,24.8349842 15.3028571,24.7282684 C15.253985,24.3197105 15.2086316,23.9341316 15.2453835,23.5906158 C15.2629774,23.4211947 15.3040301,23.2358053 15.3474286,23.0395105 C15.3865263,22.8615211 15.427188,22.6776895 15.4576842,22.4794474 C15.5167218,22.0919211 15.5268872,21.7133526 15.5120301,21.3425737 C16.3964211,22.5686368 17.2553985,23.8161211 18.0913083,25.0780158 C17.2194286,25.0861947 16.3502857,25.1831737 15.4983459,25.3755737 M30.7793083,17.5494895 C30.7308271,17.0431737 30.2827669,16.6712263 29.7756692,16.7129 C29.7713684,16.7132895 29.7674586,16.7132895 29.7631579,16.7140684 C29.2513684,16.7623632 28.8756391,17.2157105 28.9245113,17.7259211 C29.2126617,20.7291526 29.6114586,23.7429 30.1162105,26.7336684 L23.833203,16.1824368 C23.6181654,15.8202263 23.1845714,15.6469105 22.7783459,15.7625842 C22.3721203,15.8770895 22.0937444,16.2498158 22.100782,16.6704474 C22.1469173,19.5599526 22.5578346,22.4455632 22.9546767,25.2361421 C23.2002105,26.9619 23.4488722,28.7227105 23.6119098,30.4858579 C21.0760301,26.0591 18.2324511,21.7690474 15.1394286,17.7173526 C14.9091429,17.4159 14.5173835,17.2846474 14.1518195,17.3839632 C13.7854737,17.4840579 13.5164812,17.7956368 13.4723008,18.1714789 C13.3831579,18.9313421 13.468782,19.6534263 13.5512782,20.3517526 C13.6286917,21.0095737 13.7025865,21.6303947 13.6153985,22.2005842 C13.5927218,22.3489737 13.5598797,22.4950263 13.5274286,22.6418579 C13.4754286,22.8786579 13.4214737,23.1232474 13.3925414,23.3939316 C13.3338947,23.9446474 13.3968421,24.4766684 13.4527519,24.9455947 C13.4640902,25.0453 13.4762105,25.1450053 13.4863759,25.2443211 C13.6458947,26.7430158 13.5266466,28.2522263 13.3999699,29.8494579 C13.2580451,31.6410368 13.1110376,33.4937632 13.3901955,35.3468789 C13.4633083,35.8329421 13.901985,36.1741211 14.386797,36.1340053 C14.4075188,36.1324474 14.4286316,36.1301105 14.4493534,36.1266053 C14.958406,36.0510474 15.3091128,35.5782263 15.2324812,35.0715211 C14.9853835,33.4283316 15.1171429,31.7609947 15.2571128,29.9955105 C15.3310075,29.0662263 15.4041203,28.1182474 15.4205414,27.1620895 C15.5343158,27.1987 15.6555188,27.2158368 15.7798496,27.2057105 C15.8232481,27.2018158 15.8666466,27.1955842 15.9104361,27.1854579 C16.8280602,26.9782579 17.7703158,26.8968579 18.7106165,26.9420368 C18.8963308,26.9509947 19.0722707,26.9034789 19.222797,26.8162368 C20.453594,28.7488053 21.6269173,30.7164263 22.7345564,32.7105316 C22.9437293,33.0879316 23.3777143,33.2589105 23.7780752,33.1576474 C23.7862857,33.4450789 23.7941053,33.7325105 23.7944962,34.0183842 C23.7956692,34.5309316 24.2132331,34.9457211 24.7277594,34.9449421 C24.7531729,34.9449421 24.7785865,34.9437737 24.803609,34.9418263 C25.2825564,34.9021 25.6582857,34.5021105 25.6575038,34.0152684 C25.6516391,30.9637421 25.2184361,27.9192263 24.7993083,24.9755842 C24.5881805,23.4893526 24.3727519,21.9754684 24.2128421,20.4576895 L31.217594,32.2213526 C31.4502256,32.6119947 31.9326917,32.7779105 32.3572932,32.6127737 C32.7818947,32.4472474 33.0246917,32.0005211 32.9300752,31.5561316 C31.9522406,26.9486579 31.2285414,22.2360263 30.7793083,17.5494895" id="Fill-6" fill="#FFFFFF"></path>
                        <path d="M37.5246075,23.5643653 C37.4800361,23.5744916 37.4385925,23.5912389 37.3967579,23.6072074 C37.3865925,23.4837442 37.3787729,23.3606705 37.3654797,23.2372074 C37.3541414,23.1304916 37.3416301,23.0237758 37.3291188,22.91706 C37.2802466,22.5085021 37.2348932,22.1229232 37.2716451,21.7786284 C37.2892391,21.6095968 37.3302917,21.4238179 37.3736902,21.2275232 C37.412788,21.0499232 37.4530586,20.8660916 37.4835549,20.6682389 C37.5425925,20.2807126 37.5531489,19.9021442 37.5382917,19.5313653 C38.4226827,20.7574284 39.2816602,22.0049126 40.1175699,23.2668074 C39.2456902,23.2749863 38.3761564,23.3719653 37.5246075,23.5643653 M46.390803,30.0008074 C43.6707729,25.1035653 40.566803,20.3613337 37.1649083,15.9061442 C36.9350135,15.6046916 36.5428632,15.4734389 36.1776902,15.5727547 C35.8113444,15.6728495 35.5423519,15.9844284 35.4981714,16.3602705 C35.4094195,17.1201337 35.4946526,17.8422179 35.5775398,18.5405442 C35.6549534,19.1979758 35.7284571,19.8191863 35.6416602,20.3893758 C35.6185925,20.5373758 35.5861414,20.6838179 35.5536902,20.8298705 C35.5016902,21.06706 35.4477353,21.3120389 35.418803,21.5827232 C35.3601564,22.1334389 35.4231038,22.66546 35.4786226,23.1343863 C35.4903519,23.2340916 35.5024722,23.3337968 35.5126376,23.4327232 C35.6721564,24.9321968 35.5529083,26.4410179 35.4262316,28.0386389 C35.2839158,29.8302179 35.1372992,31.6825547 35.4160662,33.5356705 C35.4891789,34.0217337 35.9282466,34.3629126 36.4130586,34.3227968 C36.4333895,34.3212389 36.4545023,34.3189021 36.4752241,34.3153968 C36.9842767,34.2398389 37.3345925,33.7674074 37.2583519,33.2607021 C37.0112541,31.6171232 37.1434045,29.9501758 37.2833744,28.1846916 C37.3572692,27.2554074 37.430382,26.3070389 37.446412,25.3508811 C37.5605774,25.3874916 37.6817805,25.4046284 37.8061113,25.3945021 C37.8495098,25.3906074 37.8929083,25.3843758 37.9366977,25.3742495 C38.8543218,25.1670495 39.7965774,25.0856495 40.7368782,25.1308284 C40.9222015,25.1397863 41.0981414,25.0922705 41.2486677,25.0046389 C42.4798556,26.9375968 43.652788,28.9052179 44.760818,30.8993232 C45.0094797,31.3479968 45.5771789,31.5100179 46.026803,31.2623126 C46.476818,31.0142179 46.6398556,30.4494811 46.390803,30.0008074" id="Fill-8" fill="#FFFFFF"></path>
                        <path d="M43.3957594,6.89687789 C43.6647519,6.96036211 43.9341353,7.04838316 44.200391,7.13523579 C44.3931429,7.19833053 44.5757293,7.25792 44.7571429,7.30855158 C44.8384662,7.33114105 44.9225263,7.35139368 44.9874286,7.33698316 C45.0906466,7.31439368 45.170406,7.20534105 45.2618947,7.07837263 C45.3002105,7.02579368 45.3396992,6.97126737 45.3834887,6.92024632 C45.6993985,6.55219368 46.2432481,6.39017263 46.8394887,6.48754105 C47.2171729,6.54907789 47.5678797,6.69785684 47.9068571,6.84118316 C48.0046015,6.88285684 48.1023459,6.92414105 48.2008722,6.96347789 C48.360391,7.02696211 48.5269474,7.08733053 48.6880301,7.14536211 C49.1470376,7.31049895 49.6220752,7.48186737 50.0369023,7.77007789 C50.283609,7.94144632 50.5068571,8.15448842 50.7043008,8.40492 C50.7031278,8.40219368 50.7019549,8.39946737 50.700782,8.39713053 C50.3047218,7.57027789 49.5782857,6.86221474 48.654015,6.40302526 C47.7051128,5.93137263 46.6975639,5.82115158 45.8894135,6.10118316 C45.6657744,6.17868842 45.4542556,6.28423579 45.2302256,6.39601474 C44.9526316,6.53466737 44.6660451,6.67799368 44.3536541,6.76289895 C44.0666767,6.84079368 43.7730526,6.86533053 43.489203,6.88908842 C43.4579248,6.89142526 43.4266466,6.89415158 43.3957594,6.89687789 M40.9673985,7.16327789 C40.9775639,7.18781474 40.9904662,7.20962526 41.0064962,7.22793053 C41.0819549,7.31205684 41.236,7.31010947 41.3540752,7.27116211 C41.2211429,7.25558316 41.0889925,7.21936211 40.9673985,7.16327789 M38.566015,11.6028884 C38.5652331,11.6024989 38.5648421,11.6024989 38.5640602,11.6024989 C38.5136241,11.6383305 38.5081504,11.7711411 38.5061955,11.8209937 C38.5018947,11.9222568 38.497985,12.0250779 38.4956391,12.1275095 C38.5734436,12.03832 38.6430376,11.9518568 38.6758797,11.8564358 C38.6946466,11.8030779 38.6766617,11.7224568 38.6324812,11.6605305 C38.6039398,11.6196358 38.5757895,11.6048358 38.566015,11.6028884 M46.331218,13.0435516 C46.4512481,13.1436463 46.557594,13.2460779 46.6494737,13.3426674 C46.8035188,13.5054674 46.9485714,13.6818989 47.0889323,13.8528779 C47.4498045,14.2918147 47.7903459,14.7069937 48.273594,14.9025095 C48.7630977,15.1007516 49.382797,15.0322042 49.8902857,14.7229621 C50.4673684,14.3712674 50.8008722,13.8092568 50.9795489,13.39992 C51.3110977,12.6388884 51.4123609,11.7360884 51.2751278,10.7772042 C51.2243008,10.9641516 51.1578346,11.1456463 51.0741654,11.3189621 C50.5940451,12.3191305 49.5661654,12.9944779 48.516391,12.9999305 C48.2704662,13.0010989 48.0280602,12.9679937 47.7934737,12.9360568 C47.4963308,12.8955516 47.215609,12.8569937 46.9368421,12.8850358 C46.730015,12.9060674 46.5282707,12.9640989 46.331218,13.0435516 M45.1696241,12.8285621 C45.1144962,12.8172674 45.0589774,12.8083095 45.0022857,12.8024674 C44.529594,12.7549516 43.9384361,12.9964253 43.7675789,13.4824884 C43.7273083,13.5977726 43.7093233,13.7243516 43.6905564,13.8579411 C43.6850827,13.8964989 43.679609,13.9354463 43.6733534,13.9747832 C44.1566015,13.7874463 44.6605714,13.5444147 45.1923008,13.2429621 L45.3396992,13.1584463 C45.4354887,13.10392 45.5320602,13.0482253 45.6294135,12.9944779 C45.4863158,12.9212568 45.3326617,12.8628358 45.1696241,12.8285621 M40.0658045,14.3128463 C40.4532632,14.4129411 40.8348571,14.4550042 41.1922105,14.4604568 C41.1464662,14.4468253 41.1026767,14.4312463 41.0600602,14.4164463 C41.0244812,14.4035937 40.9885113,14.3911305 40.9525414,14.3802253 C40.7007519,14.30272 40.4258947,14.3070042 40.1350075,14.3116779 C40.1119398,14.3120674 40.0888722,14.3124568 40.0658045,14.3128463 M40.1916992,14.7027095 C39.8793083,14.6372779 39.5798195,14.5422463 39.2963609,14.4180042 C38.8549474,14.2248253 38.5425564,13.9907516 38.341594,13.7021516 C38.1120902,13.3730463 38.046015,12.9746147 38.1554887,12.6408358 C38.1312481,12.3600253 38.1421955,12.0803832 38.1535338,11.8065832 C38.1582256,11.6924674 38.167609,11.4541095 38.3494135,11.3224674 C38.4850827,11.2239305 38.6578947,11.2282147 38.8002105,11.3329832 C38.9687218,11.4572253 39.0934436,11.7302463 39.0097744,11.9713305 C38.948391,12.1469832 38.8342256,12.2766779 38.7235789,12.4020884 C38.6524211,12.4827095 38.584782,12.5590463 38.5390376,12.6404463 C38.5300451,12.6560253 38.5222256,12.6716042 38.515188,12.6875726 C38.5261353,12.7853305 38.5425564,12.88192 38.5656241,12.9765621 C38.6621955,13.3668147 38.878015,13.6752779 39.1579549,13.8224989 C39.4386767,13.9704989 39.7741353,13.9654358 40.1295338,13.9599832 C40.4356692,13.9553095 40.7523609,13.9506358 41.0565414,14.0441095 C41.097203,14.0565726 41.1374737,14.0705937 41.1777444,14.0850042 C41.2915188,14.12512 41.3986466,14.1628989 41.4893534,14.1480989 C41.5190677,14.1434253 41.548391,14.1329095 41.5788872,14.1188884 C41.6152481,14.0285305 41.6883609,13.9564779 41.7876692,13.9171411 C41.8799398,13.88092 41.9894135,13.8742989 42.0961504,13.8929937 C42.1489323,13.88832 42.2017143,13.8910463 42.2537143,13.9000042 C42.2673985,13.9000042 42.2810827,13.9003937 42.2951579,13.9023411 C42.3561504,13.9085726 42.4124511,13.9338884 42.4589774,13.9732253 C42.4793083,13.98452 42.4992481,13.9965937 42.518797,14.0098358 C42.6145865,13.9903621 42.7178045,14.0047726 42.8026466,14.0433305 C42.8867068,14.0814989 42.9480902,14.13992 42.9828872,14.2084674 C43.0829774,14.1796463 43.1838496,14.1484884 43.2851128,14.1146042 C43.3113083,14.0187937 43.3257744,13.9163621 43.3406316,13.8088674 C43.3613534,13.6639832 43.3824662,13.5144253 43.4344662,13.3664253 C43.6424662,12.7744253 44.3317594,12.3814463 45.0378647,12.45272 C45.3999098,12.4893305 45.724812,12.6272042 46.002406,12.8028568 C46.2858647,12.6704358 46.5818346,12.5676147 46.9012632,12.5352884 C47.2218647,12.5029621 47.5369925,12.5458042 47.8415639,12.5874779 C48.0741955,12.6194147 48.2939248,12.6497937 48.5148271,12.6486253 C49.4320602,12.6435621 50.3328722,12.0484463 50.7559098,11.1674568 C50.96,10.7425411 51.0542256,10.2638779 51.0393684,9.77625684 C50.7813233,9.02379368 50.3668872,8.42789895 49.8351579,8.05867789 C49.4582556,7.79695158 49.0258346,7.64116211 48.568,7.47602526 C48.4041805,7.41682526 48.2344962,7.35567789 48.0695038,7.28985684 C47.9686316,7.24974105 47.8685414,7.20728842 47.7688421,7.16483579 C47.4345564,7.02345684 47.1182556,6.88947789 46.782406,6.83456211 C46.4172331,6.77497263 45.9285113,6.82599368 45.6520902,7.14847789 C45.6172932,7.18898316 45.5836692,7.23533053 45.5480902,7.28440421 C45.431188,7.44603579 45.2982556,7.62869895 45.0640602,7.68049895 C44.9193985,7.71243579 44.7809925,7.68010947 44.6629173,7.64739368 C44.4729023,7.59481474 44.2785865,7.53094105 44.0901353,7.46940421 C43.3809023,7.23766737 42.6470376,6.99736211 42.0351579,7.30348842 C41.9714286,7.33542526 41.9092632,7.37320421 41.843188,7.41370947 C41.7341053,7.47992 41.6215038,7.54846737 41.4916992,7.59559368 C41.2727519,7.67582526 40.9451128,7.68828842 40.7425865,7.46122526 C40.6311579,7.33620421 40.5963609,7.17807789 40.5787669,7.05383579 C40.5678195,6.97555158 40.5611729,6.89687789 40.5588271,6.81859368 C40.5119098,6.74303579 40.4767218,6.65852 40.4579549,6.56504632 C40.3684211,6.11948842 40.6604812,5.78376211 40.9705263,5.49009895 C40.9732632,5.48659368 40.976,5.48308842 40.9783459,5.47958316 C41.0236992,5.41882526 41.0725714,5.35728842 41.1226165,5.29536211 C41.3341353,5.03129895 41.5339248,4.78203579 41.4533835,4.54484632 C41.426406,4.46500421 41.3646316,4.38866737 41.2997293,4.30765684 C41.2821353,4.28545684 41.2645414,4.26364632 41.2473383,4.24144632 C40.9896842,3.90844632 40.924,3.53688842 40.8602707,3.17779368 C40.8184361,2.94333053 40.7789474,2.71899368 40.6862857,2.51997263 C40.6432782,2.60487789 40.5959699,2.70730947 40.5584361,2.78793053 C40.3938346,3.14274105 40.2847519,3.36474105 40.1592481,3.45198316 C40.0790977,3.50767789 39.9692331,3.48820421 39.9133233,3.40836211 C39.8578045,3.32890947 39.8769624,3.22024632 39.9563308,3.16455158 C40.0192782,3.11197263 40.1561203,2.81675158 40.2382256,2.64070947 C40.4305865,2.22592 40.5146466,2.05688842 40.6753383,2.04130947 C40.7480602,2.03390947 40.8180451,2.06623579 40.8630075,2.12699368 C41.0866466,2.43234105 41.1480301,2.78014105 41.2078496,3.11625684 C41.2664962,3.44847789 41.322015,3.76239368 41.5268872,4.02684632 C41.5425263,4.04748842 41.5589474,4.06735158 41.5753684,4.08799368 C41.6488722,4.17952 41.7321504,4.28312 41.7806316,4.41203579 C41.9487519,3.85353053 41.8130827,3.22842526 41.547609,2.51101474 C41.4185865,2.16126737 41.2805714,1.83488842 41.0123609,1.68922526 C40.784812,1.56459368 40.265985,2.30537263 40.0951278,2.54801474 C40.0302256,2.63993053 39.9790075,2.71276211 39.9379549,2.76378316 C39.8765714,2.83895158 39.7655338,2.85063579 39.6896842,2.78948842 C39.6138346,2.72795158 39.6024962,2.61734105 39.6638797,2.54178316 C39.6971128,2.50088842 39.7475489,2.42922526 39.8058045,2.34626737 C40.1318797,1.88240421 40.6788571,1.10735158 41.1812632,1.38076211 C41.5878797,1.60159368 41.7630376,2.07597263 41.8791579,2.38949895 C42.2611429,3.42316211 42.4851729,4.50784632 41.5452632,5.43518316 C41.4823158,5.49672 41.4150677,5.55903579 41.3462556,5.62174105 C41.3098947,5.65523579 41.2735338,5.68873053 41.2379549,5.72222526 C41.0362105,6.00809895 40.923218,6.35083579 40.9118797,6.69863579 C41.0600602,6.85832 41.3270977,6.94088842 41.5609023,6.92764632 C41.7919699,6.91440421 42.0175639,6.84235158 42.2564511,6.76640421 C42.397985,6.72122526 42.5446015,6.67448842 42.6947368,6.63982526 C42.9496541,6.58140421 43.2088722,6.55959368 43.4598797,6.53895158 C43.7402105,6.51519368 44.0052932,6.49299368 44.2606015,6.42366737 C44.5389774,6.34810947 44.7978045,6.21880421 45.0718797,6.08170947 C45.2959098,5.96993053 45.5281504,5.85386737 45.7736842,5.76896211 C46.6842707,5.45387789 47.7629774,5.56721474 48.8119699,6.08833053 C49.8058346,6.58257263 50.5897444,7.34866737 51.0194286,8.24562526 C51.2438496,8.71455158 51.3673985,9.21580421 51.3896842,9.71160421 C51.4717895,9.95853053 51.5378647,10.2202568 51.5871278,10.4944463 C51.7861353,11.6036674 51.688,12.6568042 51.3032782,13.5397411 C51.1046617,13.9958147 50.7301053,14.6232568 50.0744361,15.0228568 C49.4731128,15.3893516 48.7322105,15.4684147 48.1402707,15.2284989 C47.5741353,14.9987095 47.1886316,14.5293937 46.8156391,14.0752674 C46.679188,13.9093516 46.5384361,13.7375937 46.3929925,13.5841411 C46.2776541,13.4626253 46.1365113,13.3305937 45.9734737,13.2094674 C45.8186466,13.2896989 45.6665564,13.3769411 45.5156391,13.4634042 L45.3670677,13.5486989 C44.7309474,13.9089621 44.1319699,14.1889937 43.558015,14.3926884 C43.420391,14.6777832 43.1365414,14.9118568 42.8096842,14.84292 C42.8085113,14.8425305 42.8073383,14.8421411 42.8057744,14.8421411 L42.8046015,14.8444779 C42.7850526,14.8884884 42.7486917,14.9227621 42.7033383,14.93912 C42.657594,14.9558674 42.6075489,14.9531411 42.5645414,14.9313305 C42.4683609,14.8842042 42.3839098,14.8094253 42.3221353,14.7214042 C41.5773233,14.8499305 40.8559699,14.84292 40.1916992,14.7027095" id="Fill-10" fill="#FFFFFF"></path>
                        <path d="M40.3519218,3.99864842 C40.677606,5.67026947 39.8385684,5.56744842 39.8385684,5.56744842 L24.645185,8.02814316 C24.645185,8.02814316 21.2937263,8.52004842 21.3418165,5.74504842 C21.3895158,2.96965895 23.3819368,2.79050105 23.3819368,2.79050105 C23.3819368,2.79050105 37.6647338,0.228153684 38.737185,0.274501053 C39.8096361,0.320848421 39.6774857,0.801848421 39.6774857,0.801848421 C39.6774857,0.801848421 39.7947789,1.35568 39.9316211,2.00259579 L40.3519218,3.99864842 Z" id="Fill-12" fill="#FFFFFF"></path>
                        <path d="M21.3832211,5.10315684 L21.504815,4.53024105 C22.2582286,3.92110421 23.0605143,3.52111474 24.0152812,3.35052526 C25.0114917,3.17292526 25.9998827,2.98636737 26.9554316,2.80682 C30.223612,2.19067263 33.7123038,1.56284105 37.2760632,1.24503053 C37.7988,1.19829368 38.3176271,1.08807263 38.8188602,0.981746316 C39.0882436,0.924493684 39.3670105,0.865293684 39.6465594,0.815830526 L39.7087248,1.16168316 C39.4346496,1.21036737 39.1590105,1.26878842 38.8923639,1.32565158 C38.3809654,1.43431474 37.851582,1.54648316 37.3073414,1.59516737 C33.759612,1.91180947 30.2803038,2.53769368 27.0211158,3.15189368 C26.064394,3.33222 25.0752211,3.51877789 24.0778376,3.69676737 C23.1848451,3.85606211 22.1014466,4.52245158 21.3832211,5.10315684" id="Fill-14" fill="#E8364B"></path>
                        <path d="M21.395615,6.36571368 L21.3428331,5.89717684 C22.1306526,5.26038737 23.4357353,4.82924 24.3592241,4.66410316 C24.8342617,4.57958737 25.3061714,4.52038737 25.7628331,4.46313474 C26.2531188,4.40159789 26.7606075,4.33772421 27.2657504,4.24269263 C28.3507128,4.03821895 29.456397,3.79908211 30.5257203,3.56734526 C32.8344421,3.06804 35.2217504,2.55120842 37.5992842,2.33894526 C38.0891789,2.29532421 38.5266827,2.19250316 38.9896,2.08384 C39.2757955,2.01646105 39.5713744,1.94713474 39.8837654,1.89182947 L39.9455398,2.23807158 C39.6429233,2.29181895 39.3520361,2.35997684 39.0709233,2.42618737 C38.6158256,2.53290316 38.1458707,2.64351368 37.6309534,2.68947158 C35.2753143,2.89939789 32.8989534,3.41350316 30.600788,3.91125053 C29.5291188,4.14298737 28.4206977,4.38290316 27.3314346,4.58815579 C26.8153444,4.68552421 26.3027729,4.74978737 25.8066226,4.81171368 C25.3546526,4.86857684 24.8874346,4.92699789 24.4217805,5.01034526 C23.5581113,5.16457684 22.1310436,5.77098737 21.395615,6.36571368" id="Fill-16" fill="#E8364B"></path>
                        <path d="M21.7325985,7.14181789 L21.5398466,6.81466 C22.1826135,6.29471263 23.1530195,6.34144947 24.0679068,6.20513368 C24.2735609,6.17475474 24.4674857,6.14554421 24.6375609,6.11516526 C25.1473955,6.02402842 25.7491098,5.88303895 26.3308842,5.74633368 C26.8590947,5.62248105 27.4056812,5.49395474 27.8756361,5.40554421 C28.9531699,5.20262842 30.0127188,4.97400737 31.0370797,4.75278632 C33.3325083,4.25776526 35.5008692,3.79000737 37.8858316,3.57696526 C38.3135609,3.53879684 38.6834256,3.40754421 39.074794,3.26811263 C39.3969594,3.15360737 39.7296812,3.03559684 40.1030647,2.96938632 L40.1648391,3.31523895 C39.820388,3.37638632 39.5017414,3.48972316 39.1936511,3.59916526 C38.7983729,3.73976526 38.3898015,3.88503895 37.9175008,3.92710211 C35.5540421,4.13819684 33.3962376,4.60361789 31.1117564,5.09669158 C30.0850496,5.31791263 29.0235459,5.54692316 27.9413203,5.75100737 C27.479185,5.83786 26.9365083,5.96521789 26.4118165,6.08868105 C25.8253504,6.22616526 25.2189444,6.36871263 24.7001173,6.46140737 C24.5249594,6.49256526 24.3282977,6.52216526 24.1199068,6.55293368 C23.2480271,6.68301789 22.3006887,6.68262842 21.7325985,7.14181789" id="Fill-18" fill="#E8364B"></path>
                        <path d="M22.8984541,7.91620842 L22.6513564,7.80676632 L22.2486496,7.59995579 L22.2494316,7.59995579 C22.6517474,7.68447158 23.7832361,7.44650316 24.6922586,7.25566105 C25.2118677,7.14621895 25.7025444,7.04339789 26.0149353,7.00795579 C26.4661233,6.95654526 26.9665744,6.87514526 27.4506045,6.79647158 C27.962003,6.71312421 28.4906045,6.62666105 28.9711158,6.57447158 C30.7410707,6.38246105 32.2819128,5.99376632 33.9126797,5.58209263 C35.2279278,5.25065053 36.5881383,4.90752421 38.0945744,4.67072421 C38.6102737,4.58971368 39.1091609,4.54141895 39.5916271,4.49468211 C39.8453714,4.47014526 40.1073263,4.44482947 40.3688902,4.41522947 L40.4091609,4.76458737 C40.1444692,4.79457684 39.8809504,4.82028211 39.6260331,4.84481895 C39.1486496,4.89116632 38.6548451,4.93868211 38.1493113,5.01813474 C36.6589053,5.25220842 35.3069053,5.59338737 33.9994767,5.92327158 C32.3558075,6.33767158 30.804018,6.72948211 29.0094316,6.92421895 C28.5383038,6.97524 28.014394,7.06053474 27.5076872,7.14349263 C27.0197474,7.22294526 26.5149955,7.30512421 26.054815,7.35731368 C25.7588451,7.39080842 25.2763789,7.49207158 24.7649805,7.59995579 C23.7261534,7.81806105 23.3738827,8.01630316 22.8984541,7.91620842" id="Fill-20" fill="#E8364B"></path>
                    </g>
                </g>
                <g id="Group-23-Copy-3" transform="translate(74.000000, 0.000000)">
                    <polygon id="Fill-1" fill="#EC6978" points="18 17.3746981 22.0748887 64 82 52.1058658 79.1237233 10"></polygon>
                    <polygon id="Fill-2" fill="#E8364B" points="3.54869936 50.2130797 22 64 17.9785279 17.4100529 0 6"></polygon>
                    <polygon id="Fill-3" fill="#414B6B" points="65.3918249 0 0 5.82167762 18.1390247 17 79 9.78055562 65.3961221 0"></polygon>
                    <g id="Group-22" transform="translate(25.000000, 17.000000)">
                        <path d="M8.7533985,19.36062 C8.70452632,18.8546937 8.25646617,18.4823568 7.7497594,18.5240305 C7.74545865,18.52442 7.74154887,18.5248095 7.73724812,18.5251989 C7.22506767,18.5734937 6.84972932,19.0272305 6.8986015,19.5370516 C7.18675188,22.5410621 7.58554887,25.5548095 8.09030075,28.5451884 L1.80729323,17.9935674 C1.59186466,17.6317463 1.15983459,17.4580411 0.75243609,17.5741042 C0.346210526,17.6886095 0.0678345865,18.0609463 0.074481203,18.4815779 C0.121007519,21.3714726 0.531924812,24.2566937 0.92837594,27.0468832 C1.33851128,29.9282095 1.76233083,32.9076832 1.76819549,35.8299042 C1.76936842,36.3424516 2.18693233,36.7572411 2.70145865,36.7560751 C2.72687218,36.7560751 2.75228571,36.7549042 2.77730827,36.7529568 C3.25625564,36.71362 3.63198496,36.3132411 3.63120301,35.8263989 C3.62533835,32.7748726 3.19213534,29.7303568 2.7733985,26.7867147 C2.5618797,25.3004832 2.34645113,23.7869884 2.18693233,22.2692095 L9.19129323,34.0324832 C9.42392481,34.4231253 9.90678195,34.5890411 10.3309925,34.4239042 C10.755594,34.2587674 10.998391,33.8116516 10.9037744,33.3672621 C9.92633083,28.7613463 9.20263158,24.0487147 8.7533985,19.36062" id="Fill-4" fill="#FFFFFF"></path>
                        <path d="M15.4983459,25.3755737 C15.4537744,25.3857 15.4123308,25.4024474 15.3704962,25.4184158 C15.3603308,25.2949526 15.3525113,25.1718789 15.339218,25.0484158 C15.3278797,24.9417 15.3153684,24.8349842 15.3028571,24.7282684 C15.253985,24.3197105 15.2086316,23.9341316 15.2453835,23.5906158 C15.2629774,23.4211947 15.3040301,23.2358053 15.3474286,23.0395105 C15.3865263,22.8615211 15.427188,22.6776895 15.4576842,22.4794474 C15.5167218,22.0919211 15.5268872,21.7133526 15.5120301,21.3425737 C16.3964211,22.5686368 17.2553985,23.8161211 18.0913083,25.0780158 C17.2194286,25.0861947 16.3502857,25.1831737 15.4983459,25.3755737 M30.7793083,17.5494895 C30.7308271,17.0431737 30.2827669,16.6712263 29.7756692,16.7129 C29.7713684,16.7132895 29.7674586,16.7132895 29.7631579,16.7140684 C29.2513684,16.7623632 28.8756391,17.2157105 28.9245113,17.7259211 C29.2126617,20.7291526 29.6114586,23.7429 30.1162105,26.7336684 L23.833203,16.1824368 C23.6181654,15.8202263 23.1845714,15.6469105 22.7783459,15.7625842 C22.3721203,15.8770895 22.0937444,16.2498158 22.100782,16.6704474 C22.1469173,19.5599526 22.5578346,22.4455632 22.9546767,25.2361421 C23.2002105,26.9619 23.4488722,28.7227105 23.6119098,30.4858579 C21.0760301,26.0591 18.2324511,21.7690474 15.1394286,17.7173526 C14.9091429,17.4159 14.5173835,17.2846474 14.1518195,17.3839632 C13.7854737,17.4840579 13.5164812,17.7956368 13.4723008,18.1714789 C13.3831579,18.9313421 13.468782,19.6534263 13.5512782,20.3517526 C13.6286917,21.0095737 13.7025865,21.6303947 13.6153985,22.2005842 C13.5927218,22.3489737 13.5598797,22.4950263 13.5274286,22.6418579 C13.4754286,22.8786579 13.4214737,23.1232474 13.3925414,23.3939316 C13.3338947,23.9446474 13.3968421,24.4766684 13.4527519,24.9455947 C13.4640902,25.0453 13.4762105,25.1450053 13.4863759,25.2443211 C13.6458947,26.7430158 13.5266466,28.2522263 13.3999699,29.8494579 C13.2580451,31.6410368 13.1110376,33.4937632 13.3901955,35.3468789 C13.4633083,35.8329421 13.901985,36.1741211 14.386797,36.1340053 C14.4075188,36.1324474 14.4286316,36.1301105 14.4493534,36.1266053 C14.958406,36.0510474 15.3091128,35.5782263 15.2324812,35.0715211 C14.9853835,33.4283316 15.1171429,31.7609947 15.2571128,29.9955105 C15.3310075,29.0662263 15.4041203,28.1182474 15.4205414,27.1620895 C15.5343158,27.1987 15.6555188,27.2158368 15.7798496,27.2057105 C15.8232481,27.2018158 15.8666466,27.1955842 15.9104361,27.1854579 C16.8280602,26.9782579 17.7703158,26.8968579 18.7106165,26.9420368 C18.8963308,26.9509947 19.0722707,26.9034789 19.222797,26.8162368 C20.453594,28.7488053 21.6269173,30.7164263 22.7345564,32.7105316 C22.9437293,33.0879316 23.3777143,33.2589105 23.7780752,33.1576474 C23.7862857,33.4450789 23.7941053,33.7325105 23.7944962,34.0183842 C23.7956692,34.5309316 24.2132331,34.9457211 24.7277594,34.9449421 C24.7531729,34.9449421 24.7785865,34.9437737 24.803609,34.9418263 C25.2825564,34.9021 25.6582857,34.5021105 25.6575038,34.0152684 C25.6516391,30.9637421 25.2184361,27.9192263 24.7993083,24.9755842 C24.5881805,23.4893526 24.3727519,21.9754684 24.2128421,20.4576895 L31.217594,32.2213526 C31.4502256,32.6119947 31.9326917,32.7779105 32.3572932,32.6127737 C32.7818947,32.4472474 33.0246917,32.0005211 32.9300752,31.5561316 C31.9522406,26.9486579 31.2285414,22.2360263 30.7793083,17.5494895" id="Fill-6" fill="#FFFFFF"></path>
                        <path d="M37.5246075,23.5643653 C37.4800361,23.5744916 37.4385925,23.5912389 37.3967579,23.6072074 C37.3865925,23.4837442 37.3787729,23.3606705 37.3654797,23.2372074 C37.3541414,23.1304916 37.3416301,23.0237758 37.3291188,22.91706 C37.2802466,22.5085021 37.2348932,22.1229232 37.2716451,21.7786284 C37.2892391,21.6095968 37.3302917,21.4238179 37.3736902,21.2275232 C37.412788,21.0499232 37.4530586,20.8660916 37.4835549,20.6682389 C37.5425925,20.2807126 37.5531489,19.9021442 37.5382917,19.5313653 C38.4226827,20.7574284 39.2816602,22.0049126 40.1175699,23.2668074 C39.2456902,23.2749863 38.3761564,23.3719653 37.5246075,23.5643653 M46.390803,30.0008074 C43.6707729,25.1035653 40.566803,20.3613337 37.1649083,15.9061442 C36.9350135,15.6046916 36.5428632,15.4734389 36.1776902,15.5727547 C35.8113444,15.6728495 35.5423519,15.9844284 35.4981714,16.3602705 C35.4094195,17.1201337 35.4946526,17.8422179 35.5775398,18.5405442 C35.6549534,19.1979758 35.7284571,19.8191863 35.6416602,20.3893758 C35.6185925,20.5373758 35.5861414,20.6838179 35.5536902,20.8298705 C35.5016902,21.06706 35.4477353,21.3120389 35.418803,21.5827232 C35.3601564,22.1334389 35.4231038,22.66546 35.4786226,23.1343863 C35.4903519,23.2340916 35.5024722,23.3337968 35.5126376,23.4327232 C35.6721564,24.9321968 35.5529083,26.4410179 35.4262316,28.0386389 C35.2839158,29.8302179 35.1372992,31.6825547 35.4160662,33.5356705 C35.4891789,34.0217337 35.9282466,34.3629126 36.4130586,34.3227968 C36.4333895,34.3212389 36.4545023,34.3189021 36.4752241,34.3153968 C36.9842767,34.2398389 37.3345925,33.7674074 37.2583519,33.2607021 C37.0112541,31.6171232 37.1434045,29.9501758 37.2833744,28.1846916 C37.3572692,27.2554074 37.430382,26.3070389 37.446412,25.3508811 C37.5605774,25.3874916 37.6817805,25.4046284 37.8061113,25.3945021 C37.8495098,25.3906074 37.8929083,25.3843758 37.9366977,25.3742495 C38.8543218,25.1670495 39.7965774,25.0856495 40.7368782,25.1308284 C40.9222015,25.1397863 41.0981414,25.0922705 41.2486677,25.0046389 C42.4798556,26.9375968 43.652788,28.9052179 44.760818,30.8993232 C45.0094797,31.3479968 45.5771789,31.5100179 46.026803,31.2623126 C46.476818,31.0142179 46.6398556,30.4494811 46.390803,30.0008074" id="Fill-8" fill="#FFFFFF"></path>
                        <path d="M43.3957594,6.89687789 C43.6647519,6.96036211 43.9341353,7.04838316 44.200391,7.13523579 C44.3931429,7.19833053 44.5757293,7.25792 44.7571429,7.30855158 C44.8384662,7.33114105 44.9225263,7.35139368 44.9874286,7.33698316 C45.0906466,7.31439368 45.170406,7.20534105 45.2618947,7.07837263 C45.3002105,7.02579368 45.3396992,6.97126737 45.3834887,6.92024632 C45.6993985,6.55219368 46.2432481,6.39017263 46.8394887,6.48754105 C47.2171729,6.54907789 47.5678797,6.69785684 47.9068571,6.84118316 C48.0046015,6.88285684 48.1023459,6.92414105 48.2008722,6.96347789 C48.360391,7.02696211 48.5269474,7.08733053 48.6880301,7.14536211 C49.1470376,7.31049895 49.6220752,7.48186737 50.0369023,7.77007789 C50.283609,7.94144632 50.5068571,8.15448842 50.7043008,8.40492 C50.7031278,8.40219368 50.7019549,8.39946737 50.700782,8.39713053 C50.3047218,7.57027789 49.5782857,6.86221474 48.654015,6.40302526 C47.7051128,5.93137263 46.6975639,5.82115158 45.8894135,6.10118316 C45.6657744,6.17868842 45.4542556,6.28423579 45.2302256,6.39601474 C44.9526316,6.53466737 44.6660451,6.67799368 44.3536541,6.76289895 C44.0666767,6.84079368 43.7730526,6.86533053 43.489203,6.88908842 C43.4579248,6.89142526 43.4266466,6.89415158 43.3957594,6.89687789 M40.9673985,7.16327789 C40.9775639,7.18781474 40.9904662,7.20962526 41.0064962,7.22793053 C41.0819549,7.31205684 41.236,7.31010947 41.3540752,7.27116211 C41.2211429,7.25558316 41.0889925,7.21936211 40.9673985,7.16327789 M38.566015,11.6028884 C38.5652331,11.6024989 38.5648421,11.6024989 38.5640602,11.6024989 C38.5136241,11.6383305 38.5081504,11.7711411 38.5061955,11.8209937 C38.5018947,11.9222568 38.497985,12.0250779 38.4956391,12.1275095 C38.5734436,12.03832 38.6430376,11.9518568 38.6758797,11.8564358 C38.6946466,11.8030779 38.6766617,11.7224568 38.6324812,11.6605305 C38.6039398,11.6196358 38.5757895,11.6048358 38.566015,11.6028884 M46.331218,13.0435516 C46.4512481,13.1436463 46.557594,13.2460779 46.6494737,13.3426674 C46.8035188,13.5054674 46.9485714,13.6818989 47.0889323,13.8528779 C47.4498045,14.2918147 47.7903459,14.7069937 48.273594,14.9025095 C48.7630977,15.1007516 49.382797,15.0322042 49.8902857,14.7229621 C50.4673684,14.3712674 50.8008722,13.8092568 50.9795489,13.39992 C51.3110977,12.6388884 51.4123609,11.7360884 51.2751278,10.7772042 C51.2243008,10.9641516 51.1578346,11.1456463 51.0741654,11.3189621 C50.5940451,12.3191305 49.5661654,12.9944779 48.516391,12.9999305 C48.2704662,13.0010989 48.0280602,12.9679937 47.7934737,12.9360568 C47.4963308,12.8955516 47.215609,12.8569937 46.9368421,12.8850358 C46.730015,12.9060674 46.5282707,12.9640989 46.331218,13.0435516 M45.1696241,12.8285621 C45.1144962,12.8172674 45.0589774,12.8083095 45.0022857,12.8024674 C44.529594,12.7549516 43.9384361,12.9964253 43.7675789,13.4824884 C43.7273083,13.5977726 43.7093233,13.7243516 43.6905564,13.8579411 C43.6850827,13.8964989 43.679609,13.9354463 43.6733534,13.9747832 C44.1566015,13.7874463 44.6605714,13.5444147 45.1923008,13.2429621 L45.3396992,13.1584463 C45.4354887,13.10392 45.5320602,13.0482253 45.6294135,12.9944779 C45.4863158,12.9212568 45.3326617,12.8628358 45.1696241,12.8285621 M40.0658045,14.3128463 C40.4532632,14.4129411 40.8348571,14.4550042 41.1922105,14.4604568 C41.1464662,14.4468253 41.1026767,14.4312463 41.0600602,14.4164463 C41.0244812,14.4035937 40.9885113,14.3911305 40.9525414,14.3802253 C40.7007519,14.30272 40.4258947,14.3070042 40.1350075,14.3116779 C40.1119398,14.3120674 40.0888722,14.3124568 40.0658045,14.3128463 M40.1916992,14.7027095 C39.8793083,14.6372779 39.5798195,14.5422463 39.2963609,14.4180042 C38.8549474,14.2248253 38.5425564,13.9907516 38.341594,13.7021516 C38.1120902,13.3730463 38.046015,12.9746147 38.1554887,12.6408358 C38.1312481,12.3600253 38.1421955,12.0803832 38.1535338,11.8065832 C38.1582256,11.6924674 38.167609,11.4541095 38.3494135,11.3224674 C38.4850827,11.2239305 38.6578947,11.2282147 38.8002105,11.3329832 C38.9687218,11.4572253 39.0934436,11.7302463 39.0097744,11.9713305 C38.948391,12.1469832 38.8342256,12.2766779 38.7235789,12.4020884 C38.6524211,12.4827095 38.584782,12.5590463 38.5390376,12.6404463 C38.5300451,12.6560253 38.5222256,12.6716042 38.515188,12.6875726 C38.5261353,12.7853305 38.5425564,12.88192 38.5656241,12.9765621 C38.6621955,13.3668147 38.878015,13.6752779 39.1579549,13.8224989 C39.4386767,13.9704989 39.7741353,13.9654358 40.1295338,13.9599832 C40.4356692,13.9553095 40.7523609,13.9506358 41.0565414,14.0441095 C41.097203,14.0565726 41.1374737,14.0705937 41.1777444,14.0850042 C41.2915188,14.12512 41.3986466,14.1628989 41.4893534,14.1480989 C41.5190677,14.1434253 41.548391,14.1329095 41.5788872,14.1188884 C41.6152481,14.0285305 41.6883609,13.9564779 41.7876692,13.9171411 C41.8799398,13.88092 41.9894135,13.8742989 42.0961504,13.8929937 C42.1489323,13.88832 42.2017143,13.8910463 42.2537143,13.9000042 C42.2673985,13.9000042 42.2810827,13.9003937 42.2951579,13.9023411 C42.3561504,13.9085726 42.4124511,13.9338884 42.4589774,13.9732253 C42.4793083,13.98452 42.4992481,13.9965937 42.518797,14.0098358 C42.6145865,13.9903621 42.7178045,14.0047726 42.8026466,14.0433305 C42.8867068,14.0814989 42.9480902,14.13992 42.9828872,14.2084674 C43.0829774,14.1796463 43.1838496,14.1484884 43.2851128,14.1146042 C43.3113083,14.0187937 43.3257744,13.9163621 43.3406316,13.8088674 C43.3613534,13.6639832 43.3824662,13.5144253 43.4344662,13.3664253 C43.6424662,12.7744253 44.3317594,12.3814463 45.0378647,12.45272 C45.3999098,12.4893305 45.724812,12.6272042 46.002406,12.8028568 C46.2858647,12.6704358 46.5818346,12.5676147 46.9012632,12.5352884 C47.2218647,12.5029621 47.5369925,12.5458042 47.8415639,12.5874779 C48.0741955,12.6194147 48.2939248,12.6497937 48.5148271,12.6486253 C49.4320602,12.6435621 50.3328722,12.0484463 50.7559098,11.1674568 C50.96,10.7425411 51.0542256,10.2638779 51.0393684,9.77625684 C50.7813233,9.02379368 50.3668872,8.42789895 49.8351579,8.05867789 C49.4582556,7.79695158 49.0258346,7.64116211 48.568,7.47602526 C48.4041805,7.41682526 48.2344962,7.35567789 48.0695038,7.28985684 C47.9686316,7.24974105 47.8685414,7.20728842 47.7688421,7.16483579 C47.4345564,7.02345684 47.1182556,6.88947789 46.782406,6.83456211 C46.4172331,6.77497263 45.9285113,6.82599368 45.6520902,7.14847789 C45.6172932,7.18898316 45.5836692,7.23533053 45.5480902,7.28440421 C45.431188,7.44603579 45.2982556,7.62869895 45.0640602,7.68049895 C44.9193985,7.71243579 44.7809925,7.68010947 44.6629173,7.64739368 C44.4729023,7.59481474 44.2785865,7.53094105 44.0901353,7.46940421 C43.3809023,7.23766737 42.6470376,6.99736211 42.0351579,7.30348842 C41.9714286,7.33542526 41.9092632,7.37320421 41.843188,7.41370947 C41.7341053,7.47992 41.6215038,7.54846737 41.4916992,7.59559368 C41.2727519,7.67582526 40.9451128,7.68828842 40.7425865,7.46122526 C40.6311579,7.33620421 40.5963609,7.17807789 40.5787669,7.05383579 C40.5678195,6.97555158 40.5611729,6.89687789 40.5588271,6.81859368 C40.5119098,6.74303579 40.4767218,6.65852 40.4579549,6.56504632 C40.3684211,6.11948842 40.6604812,5.78376211 40.9705263,5.49009895 C40.9732632,5.48659368 40.976,5.48308842 40.9783459,5.47958316 C41.0236992,5.41882526 41.0725714,5.35728842 41.1226165,5.29536211 C41.3341353,5.03129895 41.5339248,4.78203579 41.4533835,4.54484632 C41.426406,4.46500421 41.3646316,4.38866737 41.2997293,4.30765684 C41.2821353,4.28545684 41.2645414,4.26364632 41.2473383,4.24144632 C40.9896842,3.90844632 40.924,3.53688842 40.8602707,3.17779368 C40.8184361,2.94333053 40.7789474,2.71899368 40.6862857,2.51997263 C40.6432782,2.60487789 40.5959699,2.70730947 40.5584361,2.78793053 C40.3938346,3.14274105 40.2847519,3.36474105 40.1592481,3.45198316 C40.0790977,3.50767789 39.9692331,3.48820421 39.9133233,3.40836211 C39.8578045,3.32890947 39.8769624,3.22024632 39.9563308,3.16455158 C40.0192782,3.11197263 40.1561203,2.81675158 40.2382256,2.64070947 C40.4305865,2.22592 40.5146466,2.05688842 40.6753383,2.04130947 C40.7480602,2.03390947 40.8180451,2.06623579 40.8630075,2.12699368 C41.0866466,2.43234105 41.1480301,2.78014105 41.2078496,3.11625684 C41.2664962,3.44847789 41.322015,3.76239368 41.5268872,4.02684632 C41.5425263,4.04748842 41.5589474,4.06735158 41.5753684,4.08799368 C41.6488722,4.17952 41.7321504,4.28312 41.7806316,4.41203579 C41.9487519,3.85353053 41.8130827,3.22842526 41.547609,2.51101474 C41.4185865,2.16126737 41.2805714,1.83488842 41.0123609,1.68922526 C40.784812,1.56459368 40.265985,2.30537263 40.0951278,2.54801474 C40.0302256,2.63993053 39.9790075,2.71276211 39.9379549,2.76378316 C39.8765714,2.83895158 39.7655338,2.85063579 39.6896842,2.78948842 C39.6138346,2.72795158 39.6024962,2.61734105 39.6638797,2.54178316 C39.6971128,2.50088842 39.7475489,2.42922526 39.8058045,2.34626737 C40.1318797,1.88240421 40.6788571,1.10735158 41.1812632,1.38076211 C41.5878797,1.60159368 41.7630376,2.07597263 41.8791579,2.38949895 C42.2611429,3.42316211 42.4851729,4.50784632 41.5452632,5.43518316 C41.4823158,5.49672 41.4150677,5.55903579 41.3462556,5.62174105 C41.3098947,5.65523579 41.2735338,5.68873053 41.2379549,5.72222526 C41.0362105,6.00809895 40.923218,6.35083579 40.9118797,6.69863579 C41.0600602,6.85832 41.3270977,6.94088842 41.5609023,6.92764632 C41.7919699,6.91440421 42.0175639,6.84235158 42.2564511,6.76640421 C42.397985,6.72122526 42.5446015,6.67448842 42.6947368,6.63982526 C42.9496541,6.58140421 43.2088722,6.55959368 43.4598797,6.53895158 C43.7402105,6.51519368 44.0052932,6.49299368 44.2606015,6.42366737 C44.5389774,6.34810947 44.7978045,6.21880421 45.0718797,6.08170947 C45.2959098,5.96993053 45.5281504,5.85386737 45.7736842,5.76896211 C46.6842707,5.45387789 47.7629774,5.56721474 48.8119699,6.08833053 C49.8058346,6.58257263 50.5897444,7.34866737 51.0194286,8.24562526 C51.2438496,8.71455158 51.3673985,9.21580421 51.3896842,9.71160421 C51.4717895,9.95853053 51.5378647,10.2202568 51.5871278,10.4944463 C51.7861353,11.6036674 51.688,12.6568042 51.3032782,13.5397411 C51.1046617,13.9958147 50.7301053,14.6232568 50.0744361,15.0228568 C49.4731128,15.3893516 48.7322105,15.4684147 48.1402707,15.2284989 C47.5741353,14.9987095 47.1886316,14.5293937 46.8156391,14.0752674 C46.679188,13.9093516 46.5384361,13.7375937 46.3929925,13.5841411 C46.2776541,13.4626253 46.1365113,13.3305937 45.9734737,13.2094674 C45.8186466,13.2896989 45.6665564,13.3769411 45.5156391,13.4634042 L45.3670677,13.5486989 C44.7309474,13.9089621 44.1319699,14.1889937 43.558015,14.3926884 C43.420391,14.6777832 43.1365414,14.9118568 42.8096842,14.84292 C42.8085113,14.8425305 42.8073383,14.8421411 42.8057744,14.8421411 L42.8046015,14.8444779 C42.7850526,14.8884884 42.7486917,14.9227621 42.7033383,14.93912 C42.657594,14.9558674 42.6075489,14.9531411 42.5645414,14.9313305 C42.4683609,14.8842042 42.3839098,14.8094253 42.3221353,14.7214042 C41.5773233,14.8499305 40.8559699,14.84292 40.1916992,14.7027095" id="Fill-10" fill="#FFFFFF"></path>
                        <path d="M40.3519218,3.99864842 C40.677606,5.67026947 39.8385684,5.56744842 39.8385684,5.56744842 L24.645185,8.02814316 C24.645185,8.02814316 21.2937263,8.52004842 21.3418165,5.74504842 C21.3895158,2.96965895 23.3819368,2.79050105 23.3819368,2.79050105 C23.3819368,2.79050105 37.6647338,0.228153684 38.737185,0.274501053 C39.8096361,0.320848421 39.6774857,0.801848421 39.6774857,0.801848421 C39.6774857,0.801848421 39.7947789,1.35568 39.9316211,2.00259579 L40.3519218,3.99864842 Z" id="Fill-12" fill="#FFFFFF"></path>
                        <path d="M21.3832211,5.10315684 L21.504815,4.53024105 C22.2582286,3.92110421 23.0605143,3.52111474 24.0152812,3.35052526 C25.0114917,3.17292526 25.9998827,2.98636737 26.9554316,2.80682 C30.223612,2.19067263 33.7123038,1.56284105 37.2760632,1.24503053 C37.7988,1.19829368 38.3176271,1.08807263 38.8188602,0.981746316 C39.0882436,0.924493684 39.3670105,0.865293684 39.6465594,0.815830526 L39.7087248,1.16168316 C39.4346496,1.21036737 39.1590105,1.26878842 38.8923639,1.32565158 C38.3809654,1.43431474 37.851582,1.54648316 37.3073414,1.59516737 C33.759612,1.91180947 30.2803038,2.53769368 27.0211158,3.15189368 C26.064394,3.33222 25.0752211,3.51877789 24.0778376,3.69676737 C23.1848451,3.85606211 22.1014466,4.52245158 21.3832211,5.10315684" id="Fill-14" fill="#E8364B"></path>
                        <path d="M21.395615,6.36571368 L21.3428331,5.89717684 C22.1306526,5.26038737 23.4357353,4.82924 24.3592241,4.66410316 C24.8342617,4.57958737 25.3061714,4.52038737 25.7628331,4.46313474 C26.2531188,4.40159789 26.7606075,4.33772421 27.2657504,4.24269263 C28.3507128,4.03821895 29.456397,3.79908211 30.5257203,3.56734526 C32.8344421,3.06804 35.2217504,2.55120842 37.5992842,2.33894526 C38.0891789,2.29532421 38.5266827,2.19250316 38.9896,2.08384 C39.2757955,2.01646105 39.5713744,1.94713474 39.8837654,1.89182947 L39.9455398,2.23807158 C39.6429233,2.29181895 39.3520361,2.35997684 39.0709233,2.42618737 C38.6158256,2.53290316 38.1458707,2.64351368 37.6309534,2.68947158 C35.2753143,2.89939789 32.8989534,3.41350316 30.600788,3.91125053 C29.5291188,4.14298737 28.4206977,4.38290316 27.3314346,4.58815579 C26.8153444,4.68552421 26.3027729,4.74978737 25.8066226,4.81171368 C25.3546526,4.86857684 24.8874346,4.92699789 24.4217805,5.01034526 C23.5581113,5.16457684 22.1310436,5.77098737 21.395615,6.36571368" id="Fill-16" fill="#E8364B"></path>
                        <path d="M21.7325985,7.14181789 L21.5398466,6.81466 C22.1826135,6.29471263 23.1530195,6.34144947 24.0679068,6.20513368 C24.2735609,6.17475474 24.4674857,6.14554421 24.6375609,6.11516526 C25.1473955,6.02402842 25.7491098,5.88303895 26.3308842,5.74633368 C26.8590947,5.62248105 27.4056812,5.49395474 27.8756361,5.40554421 C28.9531699,5.20262842 30.0127188,4.97400737 31.0370797,4.75278632 C33.3325083,4.25776526 35.5008692,3.79000737 37.8858316,3.57696526 C38.3135609,3.53879684 38.6834256,3.40754421 39.074794,3.26811263 C39.3969594,3.15360737 39.7296812,3.03559684 40.1030647,2.96938632 L40.1648391,3.31523895 C39.820388,3.37638632 39.5017414,3.48972316 39.1936511,3.59916526 C38.7983729,3.73976526 38.3898015,3.88503895 37.9175008,3.92710211 C35.5540421,4.13819684 33.3962376,4.60361789 31.1117564,5.09669158 C30.0850496,5.31791263 29.0235459,5.54692316 27.9413203,5.75100737 C27.479185,5.83786 26.9365083,5.96521789 26.4118165,6.08868105 C25.8253504,6.22616526 25.2189444,6.36871263 24.7001173,6.46140737 C24.5249594,6.49256526 24.3282977,6.52216526 24.1199068,6.55293368 C23.2480271,6.68301789 22.3006887,6.68262842 21.7325985,7.14181789" id="Fill-18" fill="#E8364B"></path>
                        <path d="M22.8984541,7.91620842 L22.6513564,7.80676632 L22.2486496,7.59995579 L22.2494316,7.59995579 C22.6517474,7.68447158 23.7832361,7.44650316 24.6922586,7.25566105 C25.2118677,7.14621895 25.7025444,7.04339789 26.0149353,7.00795579 C26.4661233,6.95654526 26.9665744,6.87514526 27.4506045,6.79647158 C27.962003,6.71312421 28.4906045,6.62666105 28.9711158,6.57447158 C30.7410707,6.38246105 32.2819128,5.99376632 33.9126797,5.58209263 C35.2279278,5.25065053 36.5881383,4.90752421 38.0945744,4.67072421 C38.6102737,4.58971368 39.1091609,4.54141895 39.5916271,4.49468211 C39.8453714,4.47014526 40.1073263,4.44482947 40.3688902,4.41522947 L40.4091609,4.76458737 C40.1444692,4.79457684 39.8809504,4.82028211 39.6260331,4.84481895 C39.1486496,4.89116632 38.6548451,4.93868211 38.1493113,5.01813474 C36.6589053,5.25220842 35.3069053,5.59338737 33.9994767,5.92327158 C32.3558075,6.33767158 30.804018,6.72948211 29.0094316,6.92421895 C28.5383038,6.97524 28.014394,7.06053474 27.5076872,7.14349263 C27.0197474,7.22294526 26.5149955,7.30512421 26.054815,7.35731368 C25.7588451,7.39080842 25.2763789,7.49207158 24.7649805,7.59995579 C23.7261534,7.81806105 23.3738827,8.01630316 22.8984541,7.91620842" id="Fill-20" fill="#E8364B"></path>
                    </g>
                </g>
                <g id="Group-23" transform="translate(0.000000, 58.000000)">
                    <polygon id="Fill-1" fill="#EC6978" points="18 17.3746981 22.0748887 64 82 52.1058658 79.1237233 10"></polygon>
                    <polygon id="Fill-2" fill="#E8364B" points="3.54869936 50.2130797 22 64 17.9785279 17.4100529 0 6"></polygon>
                    <polygon id="Fill-3" fill="#414B6B" points="65.3918249 0 0 5.82167762 18.1390247 17 79 9.78055562 65.3961221 0"></polygon>
                    <g id="Group-22" transform="translate(25.000000, 17.000000)">
                        <path d="M8.7533985,19.36062 C8.70452632,18.8546937 8.25646617,18.4823568 7.7497594,18.5240305 C7.74545865,18.52442 7.74154887,18.5248095 7.73724812,18.5251989 C7.22506767,18.5734937 6.84972932,19.0272305 6.8986015,19.5370516 C7.18675188,22.5410621 7.58554887,25.5548095 8.09030075,28.5451884 L1.80729323,17.9935674 C1.59186466,17.6317463 1.15983459,17.4580411 0.75243609,17.5741042 C0.346210526,17.6886095 0.0678345865,18.0609463 0.074481203,18.4815779 C0.121007519,21.3714726 0.531924812,24.2566937 0.92837594,27.0468832 C1.33851128,29.9282095 1.76233083,32.9076832 1.76819549,35.8299042 C1.76936842,36.3424516 2.18693233,36.7572411 2.70145865,36.7560751 C2.72687218,36.7560751 2.75228571,36.7549042 2.77730827,36.7529568 C3.25625564,36.71362 3.63198496,36.3132411 3.63120301,35.8263989 C3.62533835,32.7748726 3.19213534,29.7303568 2.7733985,26.7867147 C2.5618797,25.3004832 2.34645113,23.7869884 2.18693233,22.2692095 L9.19129323,34.0324832 C9.42392481,34.4231253 9.90678195,34.5890411 10.3309925,34.4239042 C10.755594,34.2587674 10.998391,33.8116516 10.9037744,33.3672621 C9.92633083,28.7613463 9.20263158,24.0487147 8.7533985,19.36062" id="Fill-4" fill="#FFFFFF"></path>
                        <path d="M15.4983459,25.3755737 C15.4537744,25.3857 15.4123308,25.4024474 15.3704962,25.4184158 C15.3603308,25.2949526 15.3525113,25.1718789 15.339218,25.0484158 C15.3278797,24.9417 15.3153684,24.8349842 15.3028571,24.7282684 C15.253985,24.3197105 15.2086316,23.9341316 15.2453835,23.5906158 C15.2629774,23.4211947 15.3040301,23.2358053 15.3474286,23.0395105 C15.3865263,22.8615211 15.427188,22.6776895 15.4576842,22.4794474 C15.5167218,22.0919211 15.5268872,21.7133526 15.5120301,21.3425737 C16.3964211,22.5686368 17.2553985,23.8161211 18.0913083,25.0780158 C17.2194286,25.0861947 16.3502857,25.1831737 15.4983459,25.3755737 M30.7793083,17.5494895 C30.7308271,17.0431737 30.2827669,16.6712263 29.7756692,16.7129 C29.7713684,16.7132895 29.7674586,16.7132895 29.7631579,16.7140684 C29.2513684,16.7623632 28.8756391,17.2157105 28.9245113,17.7259211 C29.2126617,20.7291526 29.6114586,23.7429 30.1162105,26.7336684 L23.833203,16.1824368 C23.6181654,15.8202263 23.1845714,15.6469105 22.7783459,15.7625842 C22.3721203,15.8770895 22.0937444,16.2498158 22.100782,16.6704474 C22.1469173,19.5599526 22.5578346,22.4455632 22.9546767,25.2361421 C23.2002105,26.9619 23.4488722,28.7227105 23.6119098,30.4858579 C21.0760301,26.0591 18.2324511,21.7690474 15.1394286,17.7173526 C14.9091429,17.4159 14.5173835,17.2846474 14.1518195,17.3839632 C13.7854737,17.4840579 13.5164812,17.7956368 13.4723008,18.1714789 C13.3831579,18.9313421 13.468782,19.6534263 13.5512782,20.3517526 C13.6286917,21.0095737 13.7025865,21.6303947 13.6153985,22.2005842 C13.5927218,22.3489737 13.5598797,22.4950263 13.5274286,22.6418579 C13.4754286,22.8786579 13.4214737,23.1232474 13.3925414,23.3939316 C13.3338947,23.9446474 13.3968421,24.4766684 13.4527519,24.9455947 C13.4640902,25.0453 13.4762105,25.1450053 13.4863759,25.2443211 C13.6458947,26.7430158 13.5266466,28.2522263 13.3999699,29.8494579 C13.2580451,31.6410368 13.1110376,33.4937632 13.3901955,35.3468789 C13.4633083,35.8329421 13.901985,36.1741211 14.386797,36.1340053 C14.4075188,36.1324474 14.4286316,36.1301105 14.4493534,36.1266053 C14.958406,36.0510474 15.3091128,35.5782263 15.2324812,35.0715211 C14.9853835,33.4283316 15.1171429,31.7609947 15.2571128,29.9955105 C15.3310075,29.0662263 15.4041203,28.1182474 15.4205414,27.1620895 C15.5343158,27.1987 15.6555188,27.2158368 15.7798496,27.2057105 C15.8232481,27.2018158 15.8666466,27.1955842 15.9104361,27.1854579 C16.8280602,26.9782579 17.7703158,26.8968579 18.7106165,26.9420368 C18.8963308,26.9509947 19.0722707,26.9034789 19.222797,26.8162368 C20.453594,28.7488053 21.6269173,30.7164263 22.7345564,32.7105316 C22.9437293,33.0879316 23.3777143,33.2589105 23.7780752,33.1576474 C23.7862857,33.4450789 23.7941053,33.7325105 23.7944962,34.0183842 C23.7956692,34.5309316 24.2132331,34.9457211 24.7277594,34.9449421 C24.7531729,34.9449421 24.7785865,34.9437737 24.803609,34.9418263 C25.2825564,34.9021 25.6582857,34.5021105 25.6575038,34.0152684 C25.6516391,30.9637421 25.2184361,27.9192263 24.7993083,24.9755842 C24.5881805,23.4893526 24.3727519,21.9754684 24.2128421,20.4576895 L31.217594,32.2213526 C31.4502256,32.6119947 31.9326917,32.7779105 32.3572932,32.6127737 C32.7818947,32.4472474 33.0246917,32.0005211 32.9300752,31.5561316 C31.9522406,26.9486579 31.2285414,22.2360263 30.7793083,17.5494895" id="Fill-6" fill="#FFFFFF"></path>
                        <path d="M37.5246075,23.5643653 C37.4800361,23.5744916 37.4385925,23.5912389 37.3967579,23.6072074 C37.3865925,23.4837442 37.3787729,23.3606705 37.3654797,23.2372074 C37.3541414,23.1304916 37.3416301,23.0237758 37.3291188,22.91706 C37.2802466,22.5085021 37.2348932,22.1229232 37.2716451,21.7786284 C37.2892391,21.6095968 37.3302917,21.4238179 37.3736902,21.2275232 C37.412788,21.0499232 37.4530586,20.8660916 37.4835549,20.6682389 C37.5425925,20.2807126 37.5531489,19.9021442 37.5382917,19.5313653 C38.4226827,20.7574284 39.2816602,22.0049126 40.1175699,23.2668074 C39.2456902,23.2749863 38.3761564,23.3719653 37.5246075,23.5643653 M46.390803,30.0008074 C43.6707729,25.1035653 40.566803,20.3613337 37.1649083,15.9061442 C36.9350135,15.6046916 36.5428632,15.4734389 36.1776902,15.5727547 C35.8113444,15.6728495 35.5423519,15.9844284 35.4981714,16.3602705 C35.4094195,17.1201337 35.4946526,17.8422179 35.5775398,18.5405442 C35.6549534,19.1979758 35.7284571,19.8191863 35.6416602,20.3893758 C35.6185925,20.5373758 35.5861414,20.6838179 35.5536902,20.8298705 C35.5016902,21.06706 35.4477353,21.3120389 35.418803,21.5827232 C35.3601564,22.1334389 35.4231038,22.66546 35.4786226,23.1343863 C35.4903519,23.2340916 35.5024722,23.3337968 35.5126376,23.4327232 C35.6721564,24.9321968 35.5529083,26.4410179 35.4262316,28.0386389 C35.2839158,29.8302179 35.1372992,31.6825547 35.4160662,33.5356705 C35.4891789,34.0217337 35.9282466,34.3629126 36.4130586,34.3227968 C36.4333895,34.3212389 36.4545023,34.3189021 36.4752241,34.3153968 C36.9842767,34.2398389 37.3345925,33.7674074 37.2583519,33.2607021 C37.0112541,31.6171232 37.1434045,29.9501758 37.2833744,28.1846916 C37.3572692,27.2554074 37.430382,26.3070389 37.446412,25.3508811 C37.5605774,25.3874916 37.6817805,25.4046284 37.8061113,25.3945021 C37.8495098,25.3906074 37.8929083,25.3843758 37.9366977,25.3742495 C38.8543218,25.1670495 39.7965774,25.0856495 40.7368782,25.1308284 C40.9222015,25.1397863 41.0981414,25.0922705 41.2486677,25.0046389 C42.4798556,26.9375968 43.652788,28.9052179 44.760818,30.8993232 C45.0094797,31.3479968 45.5771789,31.5100179 46.026803,31.2623126 C46.476818,31.0142179 46.6398556,30.4494811 46.390803,30.0008074" id="Fill-8" fill="#FFFFFF"></path>
                        <path d="M43.3957594,6.89687789 C43.6647519,6.96036211 43.9341353,7.04838316 44.200391,7.13523579 C44.3931429,7.19833053 44.5757293,7.25792 44.7571429,7.30855158 C44.8384662,7.33114105 44.9225263,7.35139368 44.9874286,7.33698316 C45.0906466,7.31439368 45.170406,7.20534105 45.2618947,7.07837263 C45.3002105,7.02579368 45.3396992,6.97126737 45.3834887,6.92024632 C45.6993985,6.55219368 46.2432481,6.39017263 46.8394887,6.48754105 C47.2171729,6.54907789 47.5678797,6.69785684 47.9068571,6.84118316 C48.0046015,6.88285684 48.1023459,6.92414105 48.2008722,6.96347789 C48.360391,7.02696211 48.5269474,7.08733053 48.6880301,7.14536211 C49.1470376,7.31049895 49.6220752,7.48186737 50.0369023,7.77007789 C50.283609,7.94144632 50.5068571,8.15448842 50.7043008,8.40492 C50.7031278,8.40219368 50.7019549,8.39946737 50.700782,8.39713053 C50.3047218,7.57027789 49.5782857,6.86221474 48.654015,6.40302526 C47.7051128,5.93137263 46.6975639,5.82115158 45.8894135,6.10118316 C45.6657744,6.17868842 45.4542556,6.28423579 45.2302256,6.39601474 C44.9526316,6.53466737 44.6660451,6.67799368 44.3536541,6.76289895 C44.0666767,6.84079368 43.7730526,6.86533053 43.489203,6.88908842 C43.4579248,6.89142526 43.4266466,6.89415158 43.3957594,6.89687789 M40.9673985,7.16327789 C40.9775639,7.18781474 40.9904662,7.20962526 41.0064962,7.22793053 C41.0819549,7.31205684 41.236,7.31010947 41.3540752,7.27116211 C41.2211429,7.25558316 41.0889925,7.21936211 40.9673985,7.16327789 M38.566015,11.6028884 C38.5652331,11.6024989 38.5648421,11.6024989 38.5640602,11.6024989 C38.5136241,11.6383305 38.5081504,11.7711411 38.5061955,11.8209937 C38.5018947,11.9222568 38.497985,12.0250779 38.4956391,12.1275095 C38.5734436,12.03832 38.6430376,11.9518568 38.6758797,11.8564358 C38.6946466,11.8030779 38.6766617,11.7224568 38.6324812,11.6605305 C38.6039398,11.6196358 38.5757895,11.6048358 38.566015,11.6028884 M46.331218,13.0435516 C46.4512481,13.1436463 46.557594,13.2460779 46.6494737,13.3426674 C46.8035188,13.5054674 46.9485714,13.6818989 47.0889323,13.8528779 C47.4498045,14.2918147 47.7903459,14.7069937 48.273594,14.9025095 C48.7630977,15.1007516 49.382797,15.0322042 49.8902857,14.7229621 C50.4673684,14.3712674 50.8008722,13.8092568 50.9795489,13.39992 C51.3110977,12.6388884 51.4123609,11.7360884 51.2751278,10.7772042 C51.2243008,10.9641516 51.1578346,11.1456463 51.0741654,11.3189621 C50.5940451,12.3191305 49.5661654,12.9944779 48.516391,12.9999305 C48.2704662,13.0010989 48.0280602,12.9679937 47.7934737,12.9360568 C47.4963308,12.8955516 47.215609,12.8569937 46.9368421,12.8850358 C46.730015,12.9060674 46.5282707,12.9640989 46.331218,13.0435516 M45.1696241,12.8285621 C45.1144962,12.8172674 45.0589774,12.8083095 45.0022857,12.8024674 C44.529594,12.7549516 43.9384361,12.9964253 43.7675789,13.4824884 C43.7273083,13.5977726 43.7093233,13.7243516 43.6905564,13.8579411 C43.6850827,13.8964989 43.679609,13.9354463 43.6733534,13.9747832 C44.1566015,13.7874463 44.6605714,13.5444147 45.1923008,13.2429621 L45.3396992,13.1584463 C45.4354887,13.10392 45.5320602,13.0482253 45.6294135,12.9944779 C45.4863158,12.9212568 45.3326617,12.8628358 45.1696241,12.8285621 M40.0658045,14.3128463 C40.4532632,14.4129411 40.8348571,14.4550042 41.1922105,14.4604568 C41.1464662,14.4468253 41.1026767,14.4312463 41.0600602,14.4164463 C41.0244812,14.4035937 40.9885113,14.3911305 40.9525414,14.3802253 C40.7007519,14.30272 40.4258947,14.3070042 40.1350075,14.3116779 C40.1119398,14.3120674 40.0888722,14.3124568 40.0658045,14.3128463 M40.1916992,14.7027095 C39.8793083,14.6372779 39.5798195,14.5422463 39.2963609,14.4180042 C38.8549474,14.2248253 38.5425564,13.9907516 38.341594,13.7021516 C38.1120902,13.3730463 38.046015,12.9746147 38.1554887,12.6408358 C38.1312481,12.3600253 38.1421955,12.0803832 38.1535338,11.8065832 C38.1582256,11.6924674 38.167609,11.4541095 38.3494135,11.3224674 C38.4850827,11.2239305 38.6578947,11.2282147 38.8002105,11.3329832 C38.9687218,11.4572253 39.0934436,11.7302463 39.0097744,11.9713305 C38.948391,12.1469832 38.8342256,12.2766779 38.7235789,12.4020884 C38.6524211,12.4827095 38.584782,12.5590463 38.5390376,12.6404463 C38.5300451,12.6560253 38.5222256,12.6716042 38.515188,12.6875726 C38.5261353,12.7853305 38.5425564,12.88192 38.5656241,12.9765621 C38.6621955,13.3668147 38.878015,13.6752779 39.1579549,13.8224989 C39.4386767,13.9704989 39.7741353,13.9654358 40.1295338,13.9599832 C40.4356692,13.9553095 40.7523609,13.9506358 41.0565414,14.0441095 C41.097203,14.0565726 41.1374737,14.0705937 41.1777444,14.0850042 C41.2915188,14.12512 41.3986466,14.1628989 41.4893534,14.1480989 C41.5190677,14.1434253 41.548391,14.1329095 41.5788872,14.1188884 C41.6152481,14.0285305 41.6883609,13.9564779 41.7876692,13.9171411 C41.8799398,13.88092 41.9894135,13.8742989 42.0961504,13.8929937 C42.1489323,13.88832 42.2017143,13.8910463 42.2537143,13.9000042 C42.2673985,13.9000042 42.2810827,13.9003937 42.2951579,13.9023411 C42.3561504,13.9085726 42.4124511,13.9338884 42.4589774,13.9732253 C42.4793083,13.98452 42.4992481,13.9965937 42.518797,14.0098358 C42.6145865,13.9903621 42.7178045,14.0047726 42.8026466,14.0433305 C42.8867068,14.0814989 42.9480902,14.13992 42.9828872,14.2084674 C43.0829774,14.1796463 43.1838496,14.1484884 43.2851128,14.1146042 C43.3113083,14.0187937 43.3257744,13.9163621 43.3406316,13.8088674 C43.3613534,13.6639832 43.3824662,13.5144253 43.4344662,13.3664253 C43.6424662,12.7744253 44.3317594,12.3814463 45.0378647,12.45272 C45.3999098,12.4893305 45.724812,12.6272042 46.002406,12.8028568 C46.2858647,12.6704358 46.5818346,12.5676147 46.9012632,12.5352884 C47.2218647,12.5029621 47.5369925,12.5458042 47.8415639,12.5874779 C48.0741955,12.6194147 48.2939248,12.6497937 48.5148271,12.6486253 C49.4320602,12.6435621 50.3328722,12.0484463 50.7559098,11.1674568 C50.96,10.7425411 51.0542256,10.2638779 51.0393684,9.77625684 C50.7813233,9.02379368 50.3668872,8.42789895 49.8351579,8.05867789 C49.4582556,7.79695158 49.0258346,7.64116211 48.568,7.47602526 C48.4041805,7.41682526 48.2344962,7.35567789 48.0695038,7.28985684 C47.9686316,7.24974105 47.8685414,7.20728842 47.7688421,7.16483579 C47.4345564,7.02345684 47.1182556,6.88947789 46.782406,6.83456211 C46.4172331,6.77497263 45.9285113,6.82599368 45.6520902,7.14847789 C45.6172932,7.18898316 45.5836692,7.23533053 45.5480902,7.28440421 C45.431188,7.44603579 45.2982556,7.62869895 45.0640602,7.68049895 C44.9193985,7.71243579 44.7809925,7.68010947 44.6629173,7.64739368 C44.4729023,7.59481474 44.2785865,7.53094105 44.0901353,7.46940421 C43.3809023,7.23766737 42.6470376,6.99736211 42.0351579,7.30348842 C41.9714286,7.33542526 41.9092632,7.37320421 41.843188,7.41370947 C41.7341053,7.47992 41.6215038,7.54846737 41.4916992,7.59559368 C41.2727519,7.67582526 40.9451128,7.68828842 40.7425865,7.46122526 C40.6311579,7.33620421 40.5963609,7.17807789 40.5787669,7.05383579 C40.5678195,6.97555158 40.5611729,6.89687789 40.5588271,6.81859368 C40.5119098,6.74303579 40.4767218,6.65852 40.4579549,6.56504632 C40.3684211,6.11948842 40.6604812,5.78376211 40.9705263,5.49009895 C40.9732632,5.48659368 40.976,5.48308842 40.9783459,5.47958316 C41.0236992,5.41882526 41.0725714,5.35728842 41.1226165,5.29536211 C41.3341353,5.03129895 41.5339248,4.78203579 41.4533835,4.54484632 C41.426406,4.46500421 41.3646316,4.38866737 41.2997293,4.30765684 C41.2821353,4.28545684 41.2645414,4.26364632 41.2473383,4.24144632 C40.9896842,3.90844632 40.924,3.53688842 40.8602707,3.17779368 C40.8184361,2.94333053 40.7789474,2.71899368 40.6862857,2.51997263 C40.6432782,2.60487789 40.5959699,2.70730947 40.5584361,2.78793053 C40.3938346,3.14274105 40.2847519,3.36474105 40.1592481,3.45198316 C40.0790977,3.50767789 39.9692331,3.48820421 39.9133233,3.40836211 C39.8578045,3.32890947 39.8769624,3.22024632 39.9563308,3.16455158 C40.0192782,3.11197263 40.1561203,2.81675158 40.2382256,2.64070947 C40.4305865,2.22592 40.5146466,2.05688842 40.6753383,2.04130947 C40.7480602,2.03390947 40.8180451,2.06623579 40.8630075,2.12699368 C41.0866466,2.43234105 41.1480301,2.78014105 41.2078496,3.11625684 C41.2664962,3.44847789 41.322015,3.76239368 41.5268872,4.02684632 C41.5425263,4.04748842 41.5589474,4.06735158 41.5753684,4.08799368 C41.6488722,4.17952 41.7321504,4.28312 41.7806316,4.41203579 C41.9487519,3.85353053 41.8130827,3.22842526 41.547609,2.51101474 C41.4185865,2.16126737 41.2805714,1.83488842 41.0123609,1.68922526 C40.784812,1.56459368 40.265985,2.30537263 40.0951278,2.54801474 C40.0302256,2.63993053 39.9790075,2.71276211 39.9379549,2.76378316 C39.8765714,2.83895158 39.7655338,2.85063579 39.6896842,2.78948842 C39.6138346,2.72795158 39.6024962,2.61734105 39.6638797,2.54178316 C39.6971128,2.50088842 39.7475489,2.42922526 39.8058045,2.34626737 C40.1318797,1.88240421 40.6788571,1.10735158 41.1812632,1.38076211 C41.5878797,1.60159368 41.7630376,2.07597263 41.8791579,2.38949895 C42.2611429,3.42316211 42.4851729,4.50784632 41.5452632,5.43518316 C41.4823158,5.49672 41.4150677,5.55903579 41.3462556,5.62174105 C41.3098947,5.65523579 41.2735338,5.68873053 41.2379549,5.72222526 C41.0362105,6.00809895 40.923218,6.35083579 40.9118797,6.69863579 C41.0600602,6.85832 41.3270977,6.94088842 41.5609023,6.92764632 C41.7919699,6.91440421 42.0175639,6.84235158 42.2564511,6.76640421 C42.397985,6.72122526 42.5446015,6.67448842 42.6947368,6.63982526 C42.9496541,6.58140421 43.2088722,6.55959368 43.4598797,6.53895158 C43.7402105,6.51519368 44.0052932,6.49299368 44.2606015,6.42366737 C44.5389774,6.34810947 44.7978045,6.21880421 45.0718797,6.08170947 C45.2959098,5.96993053 45.5281504,5.85386737 45.7736842,5.76896211 C46.6842707,5.45387789 47.7629774,5.56721474 48.8119699,6.08833053 C49.8058346,6.58257263 50.5897444,7.34866737 51.0194286,8.24562526 C51.2438496,8.71455158 51.3673985,9.21580421 51.3896842,9.71160421 C51.4717895,9.95853053 51.5378647,10.2202568 51.5871278,10.4944463 C51.7861353,11.6036674 51.688,12.6568042 51.3032782,13.5397411 C51.1046617,13.9958147 50.7301053,14.6232568 50.0744361,15.0228568 C49.4731128,15.3893516 48.7322105,15.4684147 48.1402707,15.2284989 C47.5741353,14.9987095 47.1886316,14.5293937 46.8156391,14.0752674 C46.679188,13.9093516 46.5384361,13.7375937 46.3929925,13.5841411 C46.2776541,13.4626253 46.1365113,13.3305937 45.9734737,13.2094674 C45.8186466,13.2896989 45.6665564,13.3769411 45.5156391,13.4634042 L45.3670677,13.5486989 C44.7309474,13.9089621 44.1319699,14.1889937 43.558015,14.3926884 C43.420391,14.6777832 43.1365414,14.9118568 42.8096842,14.84292 C42.8085113,14.8425305 42.8073383,14.8421411 42.8057744,14.8421411 L42.8046015,14.8444779 C42.7850526,14.8884884 42.7486917,14.9227621 42.7033383,14.93912 C42.657594,14.9558674 42.6075489,14.9531411 42.5645414,14.9313305 C42.4683609,14.8842042 42.3839098,14.8094253 42.3221353,14.7214042 C41.5773233,14.8499305 40.8559699,14.84292 40.1916992,14.7027095" id="Fill-10" fill="#FFFFFF"></path>
                        <path d="M40.3519218,3.99864842 C40.677606,5.67026947 39.8385684,5.56744842 39.8385684,5.56744842 L24.645185,8.02814316 C24.645185,8.02814316 21.2937263,8.52004842 21.3418165,5.74504842 C21.3895158,2.96965895 23.3819368,2.79050105 23.3819368,2.79050105 C23.3819368,2.79050105 37.6647338,0.228153684 38.737185,0.274501053 C39.8096361,0.320848421 39.6774857,0.801848421 39.6774857,0.801848421 C39.6774857,0.801848421 39.7947789,1.35568 39.9316211,2.00259579 L40.3519218,3.99864842 Z" id="Fill-12" fill="#FFFFFF"></path>
                        <path d="M21.3832211,5.10315684 L21.504815,4.53024105 C22.2582286,3.92110421 23.0605143,3.52111474 24.0152812,3.35052526 C25.0114917,3.17292526 25.9998827,2.98636737 26.9554316,2.80682 C30.223612,2.19067263 33.7123038,1.56284105 37.2760632,1.24503053 C37.7988,1.19829368 38.3176271,1.08807263 38.8188602,0.981746316 C39.0882436,0.924493684 39.3670105,0.865293684 39.6465594,0.815830526 L39.7087248,1.16168316 C39.4346496,1.21036737 39.1590105,1.26878842 38.8923639,1.32565158 C38.3809654,1.43431474 37.851582,1.54648316 37.3073414,1.59516737 C33.759612,1.91180947 30.2803038,2.53769368 27.0211158,3.15189368 C26.064394,3.33222 25.0752211,3.51877789 24.0778376,3.69676737 C23.1848451,3.85606211 22.1014466,4.52245158 21.3832211,5.10315684" id="Fill-14" fill="#E8364B"></path>
                        <path d="M21.395615,6.36571368 L21.3428331,5.89717684 C22.1306526,5.26038737 23.4357353,4.82924 24.3592241,4.66410316 C24.8342617,4.57958737 25.3061714,4.52038737 25.7628331,4.46313474 C26.2531188,4.40159789 26.7606075,4.33772421 27.2657504,4.24269263 C28.3507128,4.03821895 29.456397,3.79908211 30.5257203,3.56734526 C32.8344421,3.06804 35.2217504,2.55120842 37.5992842,2.33894526 C38.0891789,2.29532421 38.5266827,2.19250316 38.9896,2.08384 C39.2757955,2.01646105 39.5713744,1.94713474 39.8837654,1.89182947 L39.9455398,2.23807158 C39.6429233,2.29181895 39.3520361,2.35997684 39.0709233,2.42618737 C38.6158256,2.53290316 38.1458707,2.64351368 37.6309534,2.68947158 C35.2753143,2.89939789 32.8989534,3.41350316 30.600788,3.91125053 C29.5291188,4.14298737 28.4206977,4.38290316 27.3314346,4.58815579 C26.8153444,4.68552421 26.3027729,4.74978737 25.8066226,4.81171368 C25.3546526,4.86857684 24.8874346,4.92699789 24.4217805,5.01034526 C23.5581113,5.16457684 22.1310436,5.77098737 21.395615,6.36571368" id="Fill-16" fill="#E8364B"></path>
                        <path d="M21.7325985,7.14181789 L21.5398466,6.81466 C22.1826135,6.29471263 23.1530195,6.34144947 24.0679068,6.20513368 C24.2735609,6.17475474 24.4674857,6.14554421 24.6375609,6.11516526 C25.1473955,6.02402842 25.7491098,5.88303895 26.3308842,5.74633368 C26.8590947,5.62248105 27.4056812,5.49395474 27.8756361,5.40554421 C28.9531699,5.20262842 30.0127188,4.97400737 31.0370797,4.75278632 C33.3325083,4.25776526 35.5008692,3.79000737 37.8858316,3.57696526 C38.3135609,3.53879684 38.6834256,3.40754421 39.074794,3.26811263 C39.3969594,3.15360737 39.7296812,3.03559684 40.1030647,2.96938632 L40.1648391,3.31523895 C39.820388,3.37638632 39.5017414,3.48972316 39.1936511,3.59916526 C38.7983729,3.73976526 38.3898015,3.88503895 37.9175008,3.92710211 C35.5540421,4.13819684 33.3962376,4.60361789 31.1117564,5.09669158 C30.0850496,5.31791263 29.0235459,5.54692316 27.9413203,5.75100737 C27.479185,5.83786 26.9365083,5.96521789 26.4118165,6.08868105 C25.8253504,6.22616526 25.2189444,6.36871263 24.7001173,6.46140737 C24.5249594,6.49256526 24.3282977,6.52216526 24.1199068,6.55293368 C23.2480271,6.68301789 22.3006887,6.68262842 21.7325985,7.14181789" id="Fill-18" fill="#E8364B"></path>
                        <path d="M22.8984541,7.91620842 L22.6513564,7.80676632 L22.2486496,7.59995579 L22.2494316,7.59995579 C22.6517474,7.68447158 23.7832361,7.44650316 24.6922586,7.25566105 C25.2118677,7.14621895 25.7025444,7.04339789 26.0149353,7.00795579 C26.4661233,6.95654526 26.9665744,6.87514526 27.4506045,6.79647158 C27.962003,6.71312421 28.4906045,6.62666105 28.9711158,6.57447158 C30.7410707,6.38246105 32.2819128,5.99376632 33.9126797,5.58209263 C35.2279278,5.25065053 36.5881383,4.90752421 38.0945744,4.67072421 C38.6102737,4.58971368 39.1091609,4.54141895 39.5916271,4.49468211 C39.8453714,4.47014526 40.1073263,4.44482947 40.3688902,4.41522947 L40.4091609,4.76458737 C40.1444692,4.79457684 39.8809504,4.82028211 39.6260331,4.84481895 C39.1486496,4.89116632 38.6548451,4.93868211 38.1493113,5.01813474 C36.6589053,5.25220842 35.3069053,5.59338737 33.9994767,5.92327158 C32.3558075,6.33767158 30.804018,6.72948211 29.0094316,6.92421895 C28.5383038,6.97524 28.014394,7.06053474 27.5076872,7.14349263 C27.0197474,7.22294526 26.5149955,7.30512421 26.054815,7.35731368 C25.7588451,7.39080842 25.2763789,7.49207158 24.7649805,7.59995579 C23.7261534,7.81806105 23.3738827,8.01630316 22.8984541,7.91620842" id="Fill-20" fill="#E8364B"></path>
                    </g>
                </g>
                <g id="Group-23-Copy">
                    <polygon id="Fill-1" fill="#EC6978" points="18 17.3746981 22.0748887 64 82 52.1058658 79.1237233 10"></polygon>
                    <polygon id="Fill-2" fill="#E8364B" points="3.54869936 50.2130797 22 64 17.9785279 17.4100529 0 6"></polygon>
                    <polygon id="Fill-3" fill="#414B6B" points="65.3918249 0 0 5.82167762 18.1390247 17 79 9.78055562 65.3961221 0"></polygon>
                    <g id="Group-22" transform="translate(25.000000, 17.000000)">
                        <path d="M8.7533985,19.36062 C8.70452632,18.8546937 8.25646617,18.4823568 7.7497594,18.5240305 C7.74545865,18.52442 7.74154887,18.5248095 7.73724812,18.5251989 C7.22506767,18.5734937 6.84972932,19.0272305 6.8986015,19.5370516 C7.18675188,22.5410621 7.58554887,25.5548095 8.09030075,28.5451884 L1.80729323,17.9935674 C1.59186466,17.6317463 1.15983459,17.4580411 0.75243609,17.5741042 C0.346210526,17.6886095 0.0678345865,18.0609463 0.074481203,18.4815779 C0.121007519,21.3714726 0.531924812,24.2566937 0.92837594,27.0468832 C1.33851128,29.9282095 1.76233083,32.9076832 1.76819549,35.8299042 C1.76936842,36.3424516 2.18693233,36.7572411 2.70145865,36.7560751 C2.72687218,36.7560751 2.75228571,36.7549042 2.77730827,36.7529568 C3.25625564,36.71362 3.63198496,36.3132411 3.63120301,35.8263989 C3.62533835,32.7748726 3.19213534,29.7303568 2.7733985,26.7867147 C2.5618797,25.3004832 2.34645113,23.7869884 2.18693233,22.2692095 L9.19129323,34.0324832 C9.42392481,34.4231253 9.90678195,34.5890411 10.3309925,34.4239042 C10.755594,34.2587674 10.998391,33.8116516 10.9037744,33.3672621 C9.92633083,28.7613463 9.20263158,24.0487147 8.7533985,19.36062" id="Fill-4" fill="#FFFFFF"></path>
                        <path d="M15.4983459,25.3755737 C15.4537744,25.3857 15.4123308,25.4024474 15.3704962,25.4184158 C15.3603308,25.2949526 15.3525113,25.1718789 15.339218,25.0484158 C15.3278797,24.9417 15.3153684,24.8349842 15.3028571,24.7282684 C15.253985,24.3197105 15.2086316,23.9341316 15.2453835,23.5906158 C15.2629774,23.4211947 15.3040301,23.2358053 15.3474286,23.0395105 C15.3865263,22.8615211 15.427188,22.6776895 15.4576842,22.4794474 C15.5167218,22.0919211 15.5268872,21.7133526 15.5120301,21.3425737 C16.3964211,22.5686368 17.2553985,23.8161211 18.0913083,25.0780158 C17.2194286,25.0861947 16.3502857,25.1831737 15.4983459,25.3755737 M30.7793083,17.5494895 C30.7308271,17.0431737 30.2827669,16.6712263 29.7756692,16.7129 C29.7713684,16.7132895 29.7674586,16.7132895 29.7631579,16.7140684 C29.2513684,16.7623632 28.8756391,17.2157105 28.9245113,17.7259211 C29.2126617,20.7291526 29.6114586,23.7429 30.1162105,26.7336684 L23.833203,16.1824368 C23.6181654,15.8202263 23.1845714,15.6469105 22.7783459,15.7625842 C22.3721203,15.8770895 22.0937444,16.2498158 22.100782,16.6704474 C22.1469173,19.5599526 22.5578346,22.4455632 22.9546767,25.2361421 C23.2002105,26.9619 23.4488722,28.7227105 23.6119098,30.4858579 C21.0760301,26.0591 18.2324511,21.7690474 15.1394286,17.7173526 C14.9091429,17.4159 14.5173835,17.2846474 14.1518195,17.3839632 C13.7854737,17.4840579 13.5164812,17.7956368 13.4723008,18.1714789 C13.3831579,18.9313421 13.468782,19.6534263 13.5512782,20.3517526 C13.6286917,21.0095737 13.7025865,21.6303947 13.6153985,22.2005842 C13.5927218,22.3489737 13.5598797,22.4950263 13.5274286,22.6418579 C13.4754286,22.8786579 13.4214737,23.1232474 13.3925414,23.3939316 C13.3338947,23.9446474 13.3968421,24.4766684 13.4527519,24.9455947 C13.4640902,25.0453 13.4762105,25.1450053 13.4863759,25.2443211 C13.6458947,26.7430158 13.5266466,28.2522263 13.3999699,29.8494579 C13.2580451,31.6410368 13.1110376,33.4937632 13.3901955,35.3468789 C13.4633083,35.8329421 13.901985,36.1741211 14.386797,36.1340053 C14.4075188,36.1324474 14.4286316,36.1301105 14.4493534,36.1266053 C14.958406,36.0510474 15.3091128,35.5782263 15.2324812,35.0715211 C14.9853835,33.4283316 15.1171429,31.7609947 15.2571128,29.9955105 C15.3310075,29.0662263 15.4041203,28.1182474 15.4205414,27.1620895 C15.5343158,27.1987 15.6555188,27.2158368 15.7798496,27.2057105 C15.8232481,27.2018158 15.8666466,27.1955842 15.9104361,27.1854579 C16.8280602,26.9782579 17.7703158,26.8968579 18.7106165,26.9420368 C18.8963308,26.9509947 19.0722707,26.9034789 19.222797,26.8162368 C20.453594,28.7488053 21.6269173,30.7164263 22.7345564,32.7105316 C22.9437293,33.0879316 23.3777143,33.2589105 23.7780752,33.1576474 C23.7862857,33.4450789 23.7941053,33.7325105 23.7944962,34.0183842 C23.7956692,34.5309316 24.2132331,34.9457211 24.7277594,34.9449421 C24.7531729,34.9449421 24.7785865,34.9437737 24.803609,34.9418263 C25.2825564,34.9021 25.6582857,34.5021105 25.6575038,34.0152684 C25.6516391,30.9637421 25.2184361,27.9192263 24.7993083,24.9755842 C24.5881805,23.4893526 24.3727519,21.9754684 24.2128421,20.4576895 L31.217594,32.2213526 C31.4502256,32.6119947 31.9326917,32.7779105 32.3572932,32.6127737 C32.7818947,32.4472474 33.0246917,32.0005211 32.9300752,31.5561316 C31.9522406,26.9486579 31.2285414,22.2360263 30.7793083,17.5494895" id="Fill-6" fill="#FFFFFF"></path>
                        <path d="M37.5246075,23.5643653 C37.4800361,23.5744916 37.4385925,23.5912389 37.3967579,23.6072074 C37.3865925,23.4837442 37.3787729,23.3606705 37.3654797,23.2372074 C37.3541414,23.1304916 37.3416301,23.0237758 37.3291188,22.91706 C37.2802466,22.5085021 37.2348932,22.1229232 37.2716451,21.7786284 C37.2892391,21.6095968 37.3302917,21.4238179 37.3736902,21.2275232 C37.412788,21.0499232 37.4530586,20.8660916 37.4835549,20.6682389 C37.5425925,20.2807126 37.5531489,19.9021442 37.5382917,19.5313653 C38.4226827,20.7574284 39.2816602,22.0049126 40.1175699,23.2668074 C39.2456902,23.2749863 38.3761564,23.3719653 37.5246075,23.5643653 M46.390803,30.0008074 C43.6707729,25.1035653 40.566803,20.3613337 37.1649083,15.9061442 C36.9350135,15.6046916 36.5428632,15.4734389 36.1776902,15.5727547 C35.8113444,15.6728495 35.5423519,15.9844284 35.4981714,16.3602705 C35.4094195,17.1201337 35.4946526,17.8422179 35.5775398,18.5405442 C35.6549534,19.1979758 35.7284571,19.8191863 35.6416602,20.3893758 C35.6185925,20.5373758 35.5861414,20.6838179 35.5536902,20.8298705 C35.5016902,21.06706 35.4477353,21.3120389 35.418803,21.5827232 C35.3601564,22.1334389 35.4231038,22.66546 35.4786226,23.1343863 C35.4903519,23.2340916 35.5024722,23.3337968 35.5126376,23.4327232 C35.6721564,24.9321968 35.5529083,26.4410179 35.4262316,28.0386389 C35.2839158,29.8302179 35.1372992,31.6825547 35.4160662,33.5356705 C35.4891789,34.0217337 35.9282466,34.3629126 36.4130586,34.3227968 C36.4333895,34.3212389 36.4545023,34.3189021 36.4752241,34.3153968 C36.9842767,34.2398389 37.3345925,33.7674074 37.2583519,33.2607021 C37.0112541,31.6171232 37.1434045,29.9501758 37.2833744,28.1846916 C37.3572692,27.2554074 37.430382,26.3070389 37.446412,25.3508811 C37.5605774,25.3874916 37.6817805,25.4046284 37.8061113,25.3945021 C37.8495098,25.3906074 37.8929083,25.3843758 37.9366977,25.3742495 C38.8543218,25.1670495 39.7965774,25.0856495 40.7368782,25.1308284 C40.9222015,25.1397863 41.0981414,25.0922705 41.2486677,25.0046389 C42.4798556,26.9375968 43.652788,28.9052179 44.760818,30.8993232 C45.0094797,31.3479968 45.5771789,31.5100179 46.026803,31.2623126 C46.476818,31.0142179 46.6398556,30.4494811 46.390803,30.0008074" id="Fill-8" fill="#FFFFFF"></path>
                        <path d="M43.3957594,6.89687789 C43.6647519,6.96036211 43.9341353,7.04838316 44.200391,7.13523579 C44.3931429,7.19833053 44.5757293,7.25792 44.7571429,7.30855158 C44.8384662,7.33114105 44.9225263,7.35139368 44.9874286,7.33698316 C45.0906466,7.31439368 45.170406,7.20534105 45.2618947,7.07837263 C45.3002105,7.02579368 45.3396992,6.97126737 45.3834887,6.92024632 C45.6993985,6.55219368 46.2432481,6.39017263 46.8394887,6.48754105 C47.2171729,6.54907789 47.5678797,6.69785684 47.9068571,6.84118316 C48.0046015,6.88285684 48.1023459,6.92414105 48.2008722,6.96347789 C48.360391,7.02696211 48.5269474,7.08733053 48.6880301,7.14536211 C49.1470376,7.31049895 49.6220752,7.48186737 50.0369023,7.77007789 C50.283609,7.94144632 50.5068571,8.15448842 50.7043008,8.40492 C50.7031278,8.40219368 50.7019549,8.39946737 50.700782,8.39713053 C50.3047218,7.57027789 49.5782857,6.86221474 48.654015,6.40302526 C47.7051128,5.93137263 46.6975639,5.82115158 45.8894135,6.10118316 C45.6657744,6.17868842 45.4542556,6.28423579 45.2302256,6.39601474 C44.9526316,6.53466737 44.6660451,6.67799368 44.3536541,6.76289895 C44.0666767,6.84079368 43.7730526,6.86533053 43.489203,6.88908842 C43.4579248,6.89142526 43.4266466,6.89415158 43.3957594,6.89687789 M40.9673985,7.16327789 C40.9775639,7.18781474 40.9904662,7.20962526 41.0064962,7.22793053 C41.0819549,7.31205684 41.236,7.31010947 41.3540752,7.27116211 C41.2211429,7.25558316 41.0889925,7.21936211 40.9673985,7.16327789 M38.566015,11.6028884 C38.5652331,11.6024989 38.5648421,11.6024989 38.5640602,11.6024989 C38.5136241,11.6383305 38.5081504,11.7711411 38.5061955,11.8209937 C38.5018947,11.9222568 38.497985,12.0250779 38.4956391,12.1275095 C38.5734436,12.03832 38.6430376,11.9518568 38.6758797,11.8564358 C38.6946466,11.8030779 38.6766617,11.7224568 38.6324812,11.6605305 C38.6039398,11.6196358 38.5757895,11.6048358 38.566015,11.6028884 M46.331218,13.0435516 C46.4512481,13.1436463 46.557594,13.2460779 46.6494737,13.3426674 C46.8035188,13.5054674 46.9485714,13.6818989 47.0889323,13.8528779 C47.4498045,14.2918147 47.7903459,14.7069937 48.273594,14.9025095 C48.7630977,15.1007516 49.382797,15.0322042 49.8902857,14.7229621 C50.4673684,14.3712674 50.8008722,13.8092568 50.9795489,13.39992 C51.3110977,12.6388884 51.4123609,11.7360884 51.2751278,10.7772042 C51.2243008,10.9641516 51.1578346,11.1456463 51.0741654,11.3189621 C50.5940451,12.3191305 49.5661654,12.9944779 48.516391,12.9999305 C48.2704662,13.0010989 48.0280602,12.9679937 47.7934737,12.9360568 C47.4963308,12.8955516 47.215609,12.8569937 46.9368421,12.8850358 C46.730015,12.9060674 46.5282707,12.9640989 46.331218,13.0435516 M45.1696241,12.8285621 C45.1144962,12.8172674 45.0589774,12.8083095 45.0022857,12.8024674 C44.529594,12.7549516 43.9384361,12.9964253 43.7675789,13.4824884 C43.7273083,13.5977726 43.7093233,13.7243516 43.6905564,13.8579411 C43.6850827,13.8964989 43.679609,13.9354463 43.6733534,13.9747832 C44.1566015,13.7874463 44.6605714,13.5444147 45.1923008,13.2429621 L45.3396992,13.1584463 C45.4354887,13.10392 45.5320602,13.0482253 45.6294135,12.9944779 C45.4863158,12.9212568 45.3326617,12.8628358 45.1696241,12.8285621 M40.0658045,14.3128463 C40.4532632,14.4129411 40.8348571,14.4550042 41.1922105,14.4604568 C41.1464662,14.4468253 41.1026767,14.4312463 41.0600602,14.4164463 C41.0244812,14.4035937 40.9885113,14.3911305 40.9525414,14.3802253 C40.7007519,14.30272 40.4258947,14.3070042 40.1350075,14.3116779 C40.1119398,14.3120674 40.0888722,14.3124568 40.0658045,14.3128463 M40.1916992,14.7027095 C39.8793083,14.6372779 39.5798195,14.5422463 39.2963609,14.4180042 C38.8549474,14.2248253 38.5425564,13.9907516 38.341594,13.7021516 C38.1120902,13.3730463 38.046015,12.9746147 38.1554887,12.6408358 C38.1312481,12.3600253 38.1421955,12.0803832 38.1535338,11.8065832 C38.1582256,11.6924674 38.167609,11.4541095 38.3494135,11.3224674 C38.4850827,11.2239305 38.6578947,11.2282147 38.8002105,11.3329832 C38.9687218,11.4572253 39.0934436,11.7302463 39.0097744,11.9713305 C38.948391,12.1469832 38.8342256,12.2766779 38.7235789,12.4020884 C38.6524211,12.4827095 38.584782,12.5590463 38.5390376,12.6404463 C38.5300451,12.6560253 38.5222256,12.6716042 38.515188,12.6875726 C38.5261353,12.7853305 38.5425564,12.88192 38.5656241,12.9765621 C38.6621955,13.3668147 38.878015,13.6752779 39.1579549,13.8224989 C39.4386767,13.9704989 39.7741353,13.9654358 40.1295338,13.9599832 C40.4356692,13.9553095 40.7523609,13.9506358 41.0565414,14.0441095 C41.097203,14.0565726 41.1374737,14.0705937 41.1777444,14.0850042 C41.2915188,14.12512 41.3986466,14.1628989 41.4893534,14.1480989 C41.5190677,14.1434253 41.548391,14.1329095 41.5788872,14.1188884 C41.6152481,14.0285305 41.6883609,13.9564779 41.7876692,13.9171411 C41.8799398,13.88092 41.9894135,13.8742989 42.0961504,13.8929937 C42.1489323,13.88832 42.2017143,13.8910463 42.2537143,13.9000042 C42.2673985,13.9000042 42.2810827,13.9003937 42.2951579,13.9023411 C42.3561504,13.9085726 42.4124511,13.9338884 42.4589774,13.9732253 C42.4793083,13.98452 42.4992481,13.9965937 42.518797,14.0098358 C42.6145865,13.9903621 42.7178045,14.0047726 42.8026466,14.0433305 C42.8867068,14.0814989 42.9480902,14.13992 42.9828872,14.2084674 C43.0829774,14.1796463 43.1838496,14.1484884 43.2851128,14.1146042 C43.3113083,14.0187937 43.3257744,13.9163621 43.3406316,13.8088674 C43.3613534,13.6639832 43.3824662,13.5144253 43.4344662,13.3664253 C43.6424662,12.7744253 44.3317594,12.3814463 45.0378647,12.45272 C45.3999098,12.4893305 45.724812,12.6272042 46.002406,12.8028568 C46.2858647,12.6704358 46.5818346,12.5676147 46.9012632,12.5352884 C47.2218647,12.5029621 47.5369925,12.5458042 47.8415639,12.5874779 C48.0741955,12.6194147 48.2939248,12.6497937 48.5148271,12.6486253 C49.4320602,12.6435621 50.3328722,12.0484463 50.7559098,11.1674568 C50.96,10.7425411 51.0542256,10.2638779 51.0393684,9.77625684 C50.7813233,9.02379368 50.3668872,8.42789895 49.8351579,8.05867789 C49.4582556,7.79695158 49.0258346,7.64116211 48.568,7.47602526 C48.4041805,7.41682526 48.2344962,7.35567789 48.0695038,7.28985684 C47.9686316,7.24974105 47.8685414,7.20728842 47.7688421,7.16483579 C47.4345564,7.02345684 47.1182556,6.88947789 46.782406,6.83456211 C46.4172331,6.77497263 45.9285113,6.82599368 45.6520902,7.14847789 C45.6172932,7.18898316 45.5836692,7.23533053 45.5480902,7.28440421 C45.431188,7.44603579 45.2982556,7.62869895 45.0640602,7.68049895 C44.9193985,7.71243579 44.7809925,7.68010947 44.6629173,7.64739368 C44.4729023,7.59481474 44.2785865,7.53094105 44.0901353,7.46940421 C43.3809023,7.23766737 42.6470376,6.99736211 42.0351579,7.30348842 C41.9714286,7.33542526 41.9092632,7.37320421 41.843188,7.41370947 C41.7341053,7.47992 41.6215038,7.54846737 41.4916992,7.59559368 C41.2727519,7.67582526 40.9451128,7.68828842 40.7425865,7.46122526 C40.6311579,7.33620421 40.5963609,7.17807789 40.5787669,7.05383579 C40.5678195,6.97555158 40.5611729,6.89687789 40.5588271,6.81859368 C40.5119098,6.74303579 40.4767218,6.65852 40.4579549,6.56504632 C40.3684211,6.11948842 40.6604812,5.78376211 40.9705263,5.49009895 C40.9732632,5.48659368 40.976,5.48308842 40.9783459,5.47958316 C41.0236992,5.41882526 41.0725714,5.35728842 41.1226165,5.29536211 C41.3341353,5.03129895 41.5339248,4.78203579 41.4533835,4.54484632 C41.426406,4.46500421 41.3646316,4.38866737 41.2997293,4.30765684 C41.2821353,4.28545684 41.2645414,4.26364632 41.2473383,4.24144632 C40.9896842,3.90844632 40.924,3.53688842 40.8602707,3.17779368 C40.8184361,2.94333053 40.7789474,2.71899368 40.6862857,2.51997263 C40.6432782,2.60487789 40.5959699,2.70730947 40.5584361,2.78793053 C40.3938346,3.14274105 40.2847519,3.36474105 40.1592481,3.45198316 C40.0790977,3.50767789 39.9692331,3.48820421 39.9133233,3.40836211 C39.8578045,3.32890947 39.8769624,3.22024632 39.9563308,3.16455158 C40.0192782,3.11197263 40.1561203,2.81675158 40.2382256,2.64070947 C40.4305865,2.22592 40.5146466,2.05688842 40.6753383,2.04130947 C40.7480602,2.03390947 40.8180451,2.06623579 40.8630075,2.12699368 C41.0866466,2.43234105 41.1480301,2.78014105 41.2078496,3.11625684 C41.2664962,3.44847789 41.322015,3.76239368 41.5268872,4.02684632 C41.5425263,4.04748842 41.5589474,4.06735158 41.5753684,4.08799368 C41.6488722,4.17952 41.7321504,4.28312 41.7806316,4.41203579 C41.9487519,3.85353053 41.8130827,3.22842526 41.547609,2.51101474 C41.4185865,2.16126737 41.2805714,1.83488842 41.0123609,1.68922526 C40.784812,1.56459368 40.265985,2.30537263 40.0951278,2.54801474 C40.0302256,2.63993053 39.9790075,2.71276211 39.9379549,2.76378316 C39.8765714,2.83895158 39.7655338,2.85063579 39.6896842,2.78948842 C39.6138346,2.72795158 39.6024962,2.61734105 39.6638797,2.54178316 C39.6971128,2.50088842 39.7475489,2.42922526 39.8058045,2.34626737 C40.1318797,1.88240421 40.6788571,1.10735158 41.1812632,1.38076211 C41.5878797,1.60159368 41.7630376,2.07597263 41.8791579,2.38949895 C42.2611429,3.42316211 42.4851729,4.50784632 41.5452632,5.43518316 C41.4823158,5.49672 41.4150677,5.55903579 41.3462556,5.62174105 C41.3098947,5.65523579 41.2735338,5.68873053 41.2379549,5.72222526 C41.0362105,6.00809895 40.923218,6.35083579 40.9118797,6.69863579 C41.0600602,6.85832 41.3270977,6.94088842 41.5609023,6.92764632 C41.7919699,6.91440421 42.0175639,6.84235158 42.2564511,6.76640421 C42.397985,6.72122526 42.5446015,6.67448842 42.6947368,6.63982526 C42.9496541,6.58140421 43.2088722,6.55959368 43.4598797,6.53895158 C43.7402105,6.51519368 44.0052932,6.49299368 44.2606015,6.42366737 C44.5389774,6.34810947 44.7978045,6.21880421 45.0718797,6.08170947 C45.2959098,5.96993053 45.5281504,5.85386737 45.7736842,5.76896211 C46.6842707,5.45387789 47.7629774,5.56721474 48.8119699,6.08833053 C49.8058346,6.58257263 50.5897444,7.34866737 51.0194286,8.24562526 C51.2438496,8.71455158 51.3673985,9.21580421 51.3896842,9.71160421 C51.4717895,9.95853053 51.5378647,10.2202568 51.5871278,10.4944463 C51.7861353,11.6036674 51.688,12.6568042 51.3032782,13.5397411 C51.1046617,13.9958147 50.7301053,14.6232568 50.0744361,15.0228568 C49.4731128,15.3893516 48.7322105,15.4684147 48.1402707,15.2284989 C47.5741353,14.9987095 47.1886316,14.5293937 46.8156391,14.0752674 C46.679188,13.9093516 46.5384361,13.7375937 46.3929925,13.5841411 C46.2776541,13.4626253 46.1365113,13.3305937 45.9734737,13.2094674 C45.8186466,13.2896989 45.6665564,13.3769411 45.5156391,13.4634042 L45.3670677,13.5486989 C44.7309474,13.9089621 44.1319699,14.1889937 43.558015,14.3926884 C43.420391,14.6777832 43.1365414,14.9118568 42.8096842,14.84292 C42.8085113,14.8425305 42.8073383,14.8421411 42.8057744,14.8421411 L42.8046015,14.8444779 C42.7850526,14.8884884 42.7486917,14.9227621 42.7033383,14.93912 C42.657594,14.9558674 42.6075489,14.9531411 42.5645414,14.9313305 C42.4683609,14.8842042 42.3839098,14.8094253 42.3221353,14.7214042 C41.5773233,14.8499305 40.8559699,14.84292 40.1916992,14.7027095" id="Fill-10" fill="#FFFFFF"></path>
                        <path d="M40.3519218,3.99864842 C40.677606,5.67026947 39.8385684,5.56744842 39.8385684,5.56744842 L24.645185,8.02814316 C24.645185,8.02814316 21.2937263,8.52004842 21.3418165,5.74504842 C21.3895158,2.96965895 23.3819368,2.79050105 23.3819368,2.79050105 C23.3819368,2.79050105 37.6647338,0.228153684 38.737185,0.274501053 C39.8096361,0.320848421 39.6774857,0.801848421 39.6774857,0.801848421 C39.6774857,0.801848421 39.7947789,1.35568 39.9316211,2.00259579 L40.3519218,3.99864842 Z" id="Fill-12" fill="#FFFFFF"></path>
                        <path d="M21.3832211,5.10315684 L21.504815,4.53024105 C22.2582286,3.92110421 23.0605143,3.52111474 24.0152812,3.35052526 C25.0114917,3.17292526 25.9998827,2.98636737 26.9554316,2.80682 C30.223612,2.19067263 33.7123038,1.56284105 37.2760632,1.24503053 C37.7988,1.19829368 38.3176271,1.08807263 38.8188602,0.981746316 C39.0882436,0.924493684 39.3670105,0.865293684 39.6465594,0.815830526 L39.7087248,1.16168316 C39.4346496,1.21036737 39.1590105,1.26878842 38.8923639,1.32565158 C38.3809654,1.43431474 37.851582,1.54648316 37.3073414,1.59516737 C33.759612,1.91180947 30.2803038,2.53769368 27.0211158,3.15189368 C26.064394,3.33222 25.0752211,3.51877789 24.0778376,3.69676737 C23.1848451,3.85606211 22.1014466,4.52245158 21.3832211,5.10315684" id="Fill-14" fill="#E8364B"></path>
                        <path d="M21.395615,6.36571368 L21.3428331,5.89717684 C22.1306526,5.26038737 23.4357353,4.82924 24.3592241,4.66410316 C24.8342617,4.57958737 25.3061714,4.52038737 25.7628331,4.46313474 C26.2531188,4.40159789 26.7606075,4.33772421 27.2657504,4.24269263 C28.3507128,4.03821895 29.456397,3.79908211 30.5257203,3.56734526 C32.8344421,3.06804 35.2217504,2.55120842 37.5992842,2.33894526 C38.0891789,2.29532421 38.5266827,2.19250316 38.9896,2.08384 C39.2757955,2.01646105 39.5713744,1.94713474 39.8837654,1.89182947 L39.9455398,2.23807158 C39.6429233,2.29181895 39.3520361,2.35997684 39.0709233,2.42618737 C38.6158256,2.53290316 38.1458707,2.64351368 37.6309534,2.68947158 C35.2753143,2.89939789 32.8989534,3.41350316 30.600788,3.91125053 C29.5291188,4.14298737 28.4206977,4.38290316 27.3314346,4.58815579 C26.8153444,4.68552421 26.3027729,4.74978737 25.8066226,4.81171368 C25.3546526,4.86857684 24.8874346,4.92699789 24.4217805,5.01034526 C23.5581113,5.16457684 22.1310436,5.77098737 21.395615,6.36571368" id="Fill-16" fill="#E8364B"></path>
                        <path d="M21.7325985,7.14181789 L21.5398466,6.81466 C22.1826135,6.29471263 23.1530195,6.34144947 24.0679068,6.20513368 C24.2735609,6.17475474 24.4674857,6.14554421 24.6375609,6.11516526 C25.1473955,6.02402842 25.7491098,5.88303895 26.3308842,5.74633368 C26.8590947,5.62248105 27.4056812,5.49395474 27.8756361,5.40554421 C28.9531699,5.20262842 30.0127188,4.97400737 31.0370797,4.75278632 C33.3325083,4.25776526 35.5008692,3.79000737 37.8858316,3.57696526 C38.3135609,3.53879684 38.6834256,3.40754421 39.074794,3.26811263 C39.3969594,3.15360737 39.7296812,3.03559684 40.1030647,2.96938632 L40.1648391,3.31523895 C39.820388,3.37638632 39.5017414,3.48972316 39.1936511,3.59916526 C38.7983729,3.73976526 38.3898015,3.88503895 37.9175008,3.92710211 C35.5540421,4.13819684 33.3962376,4.60361789 31.1117564,5.09669158 C30.0850496,5.31791263 29.0235459,5.54692316 27.9413203,5.75100737 C27.479185,5.83786 26.9365083,5.96521789 26.4118165,6.08868105 C25.8253504,6.22616526 25.2189444,6.36871263 24.7001173,6.46140737 C24.5249594,6.49256526 24.3282977,6.52216526 24.1199068,6.55293368 C23.2480271,6.68301789 22.3006887,6.68262842 21.7325985,7.14181789" id="Fill-18" fill="#E8364B"></path>
                        <path d="M22.8984541,7.91620842 L22.6513564,7.80676632 L22.2486496,7.59995579 L22.2494316,7.59995579 C22.6517474,7.68447158 23.7832361,7.44650316 24.6922586,7.25566105 C25.2118677,7.14621895 25.7025444,7.04339789 26.0149353,7.00795579 C26.4661233,6.95654526 26.9665744,6.87514526 27.4506045,6.79647158 C27.962003,6.71312421 28.4906045,6.62666105 28.9711158,6.57447158 C30.7410707,6.38246105 32.2819128,5.99376632 33.9126797,5.58209263 C35.2279278,5.25065053 36.5881383,4.90752421 38.0945744,4.67072421 C38.6102737,4.58971368 39.1091609,4.54141895 39.5916271,4.49468211 C39.8453714,4.47014526 40.1073263,4.44482947 40.3688902,4.41522947 L40.4091609,4.76458737 C40.1444692,4.79457684 39.8809504,4.82028211 39.6260331,4.84481895 C39.1486496,4.89116632 38.6548451,4.93868211 38.1493113,5.01813474 C36.6589053,5.25220842 35.3069053,5.59338737 33.9994767,5.92327158 C32.3558075,6.33767158 30.804018,6.72948211 29.0094316,6.92421895 C28.5383038,6.97524 28.014394,7.06053474 27.5076872,7.14349263 C27.0197474,7.22294526 26.5149955,7.30512421 26.054815,7.35731368 C25.7588451,7.39080842 25.2763789,7.49207158 24.7649805,7.59995579 C23.7261534,7.81806105 23.3738827,8.01630316 22.8984541,7.91620842" id="Fill-20" fill="#E8364B"></path>
                    </g>
                </g>
            </g>
        </g>
    </g>
</svg>