<?xml version="1.0" encoding="UTF-8"?>
<svg width="151px" height="130px" viewBox="0 0 151 130" version="1.1" xmlns="http://www.w3.org/2000/svg" xmlns:xlink="http://www.w3.org/1999/xlink">
    <!-- Generator: Sketch 61.1 (89650) - https://sketch.com -->
    <title>Group 8</title>
    <desc>Created with Sketch.</desc>
    <g id="Page-1" stroke="none" stroke-width="1" fill="none" fill-rule="evenodd">
        <g id="HOME-RE" transform="translate(-496.000000, -1790.000000)">
            <g id="Group-8" transform="translate(496.000000, 1790.000000)">
                <circle id="Oval-Copy" fill="#FF9CA8" cx="86" cy="65" r="65"></circle>
                <g id="Group-25" transform="translate(0.000000, 29.000000)">
                    <polygon id="Fill-1" fill="#E9364B" points="59 68.3454696 126.77015 70 134 22.9271358 66.0430795 16"></polygon>
                    <polygon id="Fill-2" fill="#FD7B8A" points="49.0103323 0 42 49.3202752 58.9234851 69 66 16.9591027"></polygon>
                    <polygon id="Fill-3" fill="#FFFFFF" points="66.7367832 16.3574036 134 23 121.794858 9.22470687 50 0"></polygon>
                    <g id="Group-24" transform="translate(0.000000, 27.000000)">
                        <path d="M77.7547954,14.8686441 C77.826181,14.2957627 77.4327301,13.7720339 76.873266,13.6923729 C76.873266,13.6923729 76.8657954,13.690678 76.860815,13.6898305 C76.2947105,13.6169492 75.7784098,14.0254237 75.7061941,14.6033898 C75.2828608,18.0025424 74.9773967,21.4415254 74.7922922,24.879661 L70.5797105,11.6262712 C70.4352791,11.1720339 70.0102856,10.8728814 69.5412987,10.8991525 C69.074802,10.9254237 68.682181,11.2686441 68.5867235,11.7372881 C67.9309719,14.95 67.6695013,18.2491525 67.4163314,21.4398305 C67.1548608,24.7338983 66.8850895,28.140678 66.1770438,31.379661 C66.052534,31.9474576 66.4028216,32.5110169 66.9589654,32.6381356 C66.9871876,32.6449153 67.0145797,32.6491525 67.042802,32.6533898 C67.5690634,32.7288136 68.0737431,32.3788136 68.1916124,31.8389831 C68.9312007,28.4567797 69.2076124,24.9754237 69.4740634,21.6101695 C69.6093641,19.9101695 69.7471549,18.179661 69.9447105,16.4584746 L74.6412203,31.2338983 C74.7972725,31.7245763 75.2787105,32.0288136 75.7775797,31.9508475 C76.2772791,31.8737288 76.6491484,31.4381356 76.6557889,30.9228814 C76.7246843,25.5762712 77.0940634,20.1745763 77.7547954,14.8686441" id="Fill-4" fill="#FFFFFF"></path>
                        <path d="M83.5766248,23.210339 C83.5251608,23.210339 83.477017,23.2179661 83.4272131,23.2255932 C83.4471346,23.0866102 83.4678863,22.9476271 83.4844876,22.8077966 C83.4977686,22.6866102 83.5110497,22.5654237 83.5235007,22.4442373 C83.5699843,21.9798305 83.6156379,21.5408475 83.7384876,21.1688136 C83.7999124,20.9866102 83.8895595,20.7916949 83.9841869,20.5840678 C84.0705137,20.3967797 84.1585007,20.2035593 84.2398471,19.9908475 C84.3983895,19.5764407 84.5021477,19.1594915 84.5768536,18.7450847 C85.2334353,20.3238983 85.8568144,21.9188136 86.4528013,23.5255932 C85.5073569,23.3171186 84.544481,23.2094915 83.5766248,23.210339 M102.009886,18.3383051 C102.081272,17.7654237 101.686991,17.2416949 101.129187,17.1611864 C101.125037,17.1611864 101.120056,17.160339 101.120056,17.160339 C100.549801,17.0866102 100.032671,17.4950847 99.961285,18.0730508 C99.5379516,21.4722034 99.2324876,24.910339 99.047383,28.349322 L94.8348013,15.0959322 C94.6903699,14.6416949 94.2645464,14.3416949 93.7972196,14.3688136 C93.3290627,14.3950847 92.9372719,14.7383051 92.8418144,15.2069492 C92.1860627,18.419661 91.9245922,21.7188136 91.6714222,24.9094915 C91.5145399,26.8823729 91.3535072,28.8959322 91.0986771,30.89 C89.4385464,25.3544068 87.414017,19.8942373 85.0599516,14.6357627 C84.8848078,14.2442373 84.493017,14.0010169 84.0746641,14.0205085 C83.6538209,14.04 83.286102,14.3188136 83.146651,14.7238983 C82.8652588,15.5442373 82.7805922,16.3654237 82.6992458,17.1594915 C82.6228797,17.9077966 82.5506641,18.6137288 82.3165856,19.2238983 C82.2559908,19.3823729 82.1846052,19.5366102 82.1140497,19.6916949 C82.0003307,19.9408475 81.8816314,20.1984746 81.7845137,20.4908475 C81.5861281,21.0866102 81.5238732,21.6916949 81.469919,22.2247458 C81.457468,22.3383051 81.4466771,22.4518644 81.4333961,22.5645763 C81.2399908,24.2654237 80.7411216,25.9069492 80.2132,27.6450847 C79.6221935,29.5950847 79.0104353,31.6120339 78.8585333,33.7340678 C78.8195203,34.2908475 79.210481,34.7781356 79.7450431,34.8544068 C79.7674549,34.8577966 79.7898667,34.860339 79.8139386,34.8620339 C80.3825333,34.9044068 80.8772523,34.4679661 80.9187556,33.8874576 C81.0532261,32.0052542 81.6035595,30.19 82.1854353,28.2688136 C82.4925595,27.2577966 82.8030039,26.2255932 83.0553438,25.1705085 C83.1690627,25.2391525 83.2960627,25.2883051 83.4330235,25.3077966 C83.4811673,25.3145763 83.5293111,25.3179661 83.579115,25.3179661 C84.6225072,25.3162712 85.660919,25.460339 86.6661281,25.7450847 C86.8645137,25.8010169 87.0662196,25.7916949 87.2504941,25.7323729 C88.1087817,28.1798305 88.8956837,30.6518644 89.6062196,33.1366102 C89.7398601,33.6069492 90.1665137,33.9044068 90.6247098,33.8916949 C90.563285,34.2120339 90.5018601,34.5315254 90.4321346,34.849322 C90.3076248,35.4171186 90.6579124,35.980678 91.2148863,36.1077966 C91.2422784,36.1145763 91.2705007,36.1188136 91.2978928,36.1230508 C91.8249843,36.1984746 92.328834,35.8484746 92.4475333,35.3086441 C93.1862915,31.9264407 93.4627033,28.4450847 93.7291542,25.0798305 C93.8644549,23.3798305 94.0014157,21.649322 94.1998013,19.9272881 L98.8963111,34.7035593 C99.0523634,35.1942373 99.5338013,35.4984746 100.032671,35.4205085 C100.53237,35.3433898 100.904239,34.9077966 100.91088,34.3925424 C100.979775,29.0442373 101.349154,23.6425424 102.009886,18.3383051" id="Fill-6" fill="#FFFFFF"></path>
                        <path d="M107.831716,26.6800847 C107.780252,26.6800847 107.732108,26.6877119 107.682304,26.695339 C107.702225,26.5563559 107.722977,26.4173729 107.739578,26.2775424 C107.752859,26.1563559 107.766141,26.0351695 107.778592,25.9139831 C107.825075,25.4495763 107.870729,25.0105932 107.994408,24.6385593 C108.055003,24.4555085 108.14465,24.2605932 108.239278,24.0529661 C108.325605,23.865678 108.413592,23.6724576 108.494938,23.4614407 C108.65348,23.0461864 108.757239,22.6292373 108.831944,22.2148305 C109.488526,23.7936441 110.111905,25.3885593 110.707892,26.995339 C109.763278,26.7868644 108.799572,26.6783898 107.831716,26.6800847 M115.842676,36.0165254 C114.099539,29.9131356 111.903186,23.8877119 109.315042,18.1055085 C109.139899,17.7139831 108.748108,17.4707627 108.329755,17.4902542 C107.908912,17.5097458 107.541193,17.7885593 107.401742,18.1936441 C107.12035,19.0139831 107.035683,19.8351695 106.954337,20.6292373 C106.877971,21.3766949 106.805755,22.0834746 106.571676,22.6936441 C106.511082,22.8521186 106.439696,23.0063559 106.369141,23.1597458 C106.255422,23.4097458 106.136722,23.6682203 106.039605,23.9605932 C105.841219,24.5563559 105.778964,25.1614407 105.72501,25.6944915 C105.712559,25.8080508 105.701768,25.9216102 105.688487,26.034322 C105.495082,27.7351695 104.996212,29.3775424 104.468291,31.115678 C103.877284,33.065678 103.265526,35.0817797 103.113624,37.2038136 C103.074611,37.7605932 103.465572,38.2478814 103.999304,38.3241525 C104.021716,38.3275424 104.044958,38.3300847 104.069029,38.3317797 C104.636794,38.3741525 105.131513,37.9377119 105.173846,37.3572034 C105.307487,35.475 105.85865,33.6605932 106.440526,31.7394068 C106.74765,30.7275424 107.058925,29.695339 107.310435,28.6402542 C107.424984,28.7088983 107.551154,28.7580508 107.688114,28.7775424 C107.736258,28.784322 107.784402,28.7877119 107.834206,28.7877119 C108.877598,28.7860169 109.91601,28.9300847 110.921219,29.2148305 C111.119605,29.2707627 111.32131,29.2614407 111.505585,29.2021186 C112.363873,31.6495763 113.150775,34.1216102 113.86131,36.6063559 C114.019853,37.165678 114.594258,37.4860169 115.141271,37.3233051 C115.688284,37.1605932 116.002879,36.575 115.842676,36.0165254" id="Fill-8" fill="#FFFFFF"></path>
                        <path d="M118.253767,9.67211864 C118.528519,9.80940678 118.79829,9.97381356 119.065571,10.1365254 C119.258146,10.254322 119.440761,10.365339 119.624205,10.4661864 C119.707212,10.5119492 119.792708,10.5551695 119.866584,10.5551695 C119.983624,10.5560169 120.096512,10.454322 120.226833,10.3373729 C120.280787,10.2882203 120.337231,10.2382203 120.396996,10.1924576 C120.82863,9.86279661 121.455329,9.81872881 122.076218,10.074661 C122.469669,10.2373729 122.812486,10.4890678 123.144512,10.7314407 C123.23997,10.8017797 123.335427,10.8729661 123.431715,10.9407627 C123.588597,11.0500847 123.75378,11.1585593 123.913983,11.2627966 C124.369689,11.5611017 124.841996,11.8678814 125.220506,12.2907627 C125.444624,12.5416102 125.633878,12.8339831 125.78578,13.1594068 C125.78495,13.1568644 125.78412,13.1534746 125.78412,13.1500847 C125.558342,12.1365254 124.945754,11.1712712 124.059244,10.4322881 C123.147833,9.6729661 122.085349,9.30177966 121.143225,9.41025424 C120.882584,9.44076271 120.627754,9.50516949 120.358813,9.5729661 C120.025127,9.65771186 119.67982,9.745 119.321231,9.76194915 C118.993356,9.77720339 118.66963,9.73059322 118.356695,9.68652542 C118.321833,9.68144068 118.2878,9.67635593 118.253767,9.67211864 M115.563525,9.36364407 C115.568506,9.39245763 115.575976,9.42042373 115.589258,9.44415254 C115.650682,9.55686441 115.817525,9.59245763 115.954486,9.57889831 C115.815035,9.52889831 115.680565,9.45601695 115.563525,9.36364407 M111.881356,13.6848305 L111.878865,13.6839831 C111.81578,13.7119492 111.777597,13.8568644 111.763486,13.9119492 C111.734434,14.0238136 111.704552,14.1365254 111.677159,14.2492373 C111.783408,14.1695763 111.878865,14.0907627 111.93863,13.9941525 C111.971833,13.9390678 111.972663,13.845 111.94029,13.7661864 C111.917878,13.7136441 111.892146,13.6899153 111.881356,13.6848305 M119.924689,17.2119492 C120.030107,17.3526271 120.119754,17.4933051 120.19529,17.6229661 C120.32229,17.8416102 120.436009,18.0738136 120.545578,18.2975424 C120.82863,18.8738136 121.095081,19.4178814 121.569878,19.7551695 C122.049656,20.0966949 122.73695,20.174661 123.361159,19.9577119 C124.071695,19.7119492 124.568905,19.1721186 124.862748,18.7627966 C125.406441,18.0017797 125.737637,17.0272034 125.823133,15.9305932 C125.722695,16.124661 125.605656,16.3094068 125.473676,16.4805932 C124.710016,17.4695763 123.433375,17.9627966 122.297016,17.7077119 C122.031395,17.6475424 121.777395,17.5509322 121.530865,17.4568644 C121.219591,17.3373729 120.925748,17.2255085 120.617793,17.1873729 C120.388695,17.1585593 120.157107,17.1738136 119.924689,17.2119492 M118.720264,16.685678 C118.66465,16.6594068 118.606545,16.635678 118.54678,16.6144915 C118.047081,16.445 117.348996,16.565339 117.046022,17.0611017 C116.973807,17.1788983 116.923173,17.3144915 116.870048,17.4585593 C116.854277,17.4992373 116.839336,17.5416102 116.822735,17.5831356 C117.391329,17.4958475 117.994787,17.3526271 118.644728,17.1500847 L118.824022,17.0933051 C118.941061,17.0560169 119.058931,17.0187288 119.17763,16.9831356 C119.040669,16.8670339 118.888767,16.7636441 118.720264,16.685678 M112.840911,17.0611017 C113.234362,17.2678814 113.636944,17.4094068 114.022094,17.504322 C113.976441,17.4780508 113.932447,17.4500847 113.890114,17.4229661 C113.854421,17.4000847 113.818728,17.3772034 113.782205,17.3560169 C113.529865,17.2077119 113.231042,17.1441525 112.914787,17.0763559 C112.890715,17.0712712 112.865813,17.0661864 112.840911,17.0611017 M112.880754,17.524661 C112.560349,17.3738136 112.259035,17.1941525 111.982624,16.9865254 C111.55348,16.6627966 111.272918,16.3255085 111.125166,15.9560169 C110.958323,15.5339831 110.984055,15.0755085 111.183271,14.7331356 C111.226434,14.4161864 111.30695,14.1094068 111.385807,13.8085593 C111.419009,13.6831356 111.487075,13.4212712 111.716173,13.3204237 C111.886336,13.2458475 112.073101,13.2924576 112.200931,13.445 C112.352833,13.624661 112.420898,13.9577119 112.270656,14.204322 C112.161918,14.3831356 112.007525,14.4983898 111.856454,14.6102542 C111.760166,14.6814407 111.668029,14.7492373 111.598303,14.8280508 C111.585852,14.8433051 111.572571,14.8585593 111.56095,14.874661 C111.549329,14.985678 111.543519,15.0966949 111.546009,15.2077119 C111.55431,15.6636441 111.712022,16.0594068 111.978473,16.2924576 C112.246584,16.5255085 112.610153,16.6034746 112.995303,16.685678 C113.327329,16.7568644 113.670976,16.8297458 113.977271,17.0094068 C114.017114,17.0331356 114.057787,17.0594068 114.09846,17.0848305 C114.211349,17.1577119 114.318427,17.2263559 114.419695,17.2322881 C114.452898,17.2348305 114.487761,17.2305932 114.524284,17.2221186 C114.584878,17.1314407 114.681166,17.0695763 114.799035,17.0509322 C114.907774,17.0331356 115.027303,17.0526271 115.138532,17.1009322 C115.195807,17.1085593 115.253081,17.124661 115.306205,17.1475424 C115.306205,17.1475424 115.336088,17.1551695 115.351029,17.1602542 C115.415774,17.1831356 115.469728,17.224661 115.510401,17.2797458 C115.530323,17.2975424 115.548584,17.3161864 115.566846,17.3348305 C115.675584,17.3373729 115.782663,17.3788983 115.864839,17.4424576 C115.947016,17.5060169 115.99848,17.585678 116.020061,17.6704237 C116.13461,17.6636441 116.25165,17.654322 116.368689,17.6416102 C116.420983,17.5424576 116.461656,17.4322881 116.50482,17.3170339 C116.562094,17.1619492 116.621029,17.0009322 116.713996,16.8500847 C117.083375,16.2458475 117.925061,15.9814407 118.67046,16.2365254 C119.05312,16.3661864 119.371035,16.6000847 119.627525,16.8636441 C119.966192,16.7873729 120.311499,16.7475424 120.665107,16.7907627 C121.019545,16.8348305 121.349081,16.9611017 121.667826,17.0831356 C121.911865,17.1755085 122.142624,17.2636441 122.381682,17.3170339 C123.374441,17.5399153 124.494199,17.1051695 125.166552,16.2339831 C125.491107,15.8136441 125.709414,15.3060169 125.812342,14.7627966 C125.717715,13.865339 125.415571,13.1017797 124.930813,12.5602542 C124.587996,12.1763559 124.158022,11.8966949 123.703146,11.5992373 C123.540454,11.4933051 123.37278,11.3839831 123.210088,11.2695763 C123.11131,11.2000847 123.013362,11.1280508 122.915414,11.0560169 C122.589199,10.8161864 122.280414,10.5899153 121.930127,10.445 C121.549957,10.2882203 121.008754,10.2229661 120.631075,10.5119492 C120.583761,10.5483898 120.536447,10.5907627 120.484983,10.6365254 C120.31897,10.7865254 120.131375,10.9560169 119.864924,10.9551695 C119.701401,10.954322 119.55946,10.8839831 119.439931,10.8187288 C119.247356,10.7136441 119.05312,10.5941525 118.863865,10.4788983 C118.154159,10.0458475 117.419552,9.59754237 116.683284,9.78398305 C116.606918,9.80347458 116.529722,9.83059322 116.448375,9.85855932 C116.314735,9.90432203 116.176114,9.95262712 116.023382,9.9729661 C115.767722,10.0068644 115.410793,9.9390678 115.247271,9.63737288 C115.157624,9.47127119 115.158454,9.28737288 115.170075,9.145 C115.176715,9.05601695 115.189166,8.9670339 115.205767,8.87974576 C115.173395,8.78483051 115.156793,8.68228814 115.158454,8.57381356 C115.170075,8.05771186 115.569336,7.75855932 115.976068,7.51025424 C115.979388,7.50686441 115.983539,7.50347458 115.986859,7.50008475 C116.050774,7.445 116.118839,7.3890678 116.187735,7.33228814 C116.480748,7.09245763 116.757159,6.86618644 116.728937,6.58228814 C116.718146,6.48822034 116.670833,6.38822034 116.620199,6.28228814 C116.606918,6.25262712 116.592807,6.22466102 116.579525,6.19584746 C116.3828,5.76279661 116.402722,5.33483051 116.421813,4.92042373 C116.434264,4.6509322 116.445885,4.39245763 116.394421,4.14838983 C116.327186,4.23228814 116.25082,4.33398305 116.191055,4.41364407 C115.925434,4.76618644 115.75361,4.98483051 115.596728,5.05008475 C115.49712,5.09245763 115.382571,5.04330508 115.341068,4.94076271 C115.300395,4.8390678 115.348539,4.72381356 115.447316,4.68144068 C115.528663,4.6390678 115.74863,4.34584746 115.88061,4.17042373 C116.190225,3.75940678 116.322205,3.59330508 116.499839,3.61533898 C116.579525,3.62550847 116.647591,3.67889831 116.680793,3.75771186 C116.848467,4.1509322 116.829375,4.55177966 116.812774,4.9390678 C116.794512,5.32211864 116.778741,5.68313559 116.934793,6.02720339 C116.947244,6.05347458 116.958865,6.08059322 116.972146,6.10686441 C117.029421,6.22720339 117.094166,6.36194915 117.114918,6.5170339 C117.433663,5.93991525 117.439473,5.21364407 117.328244,4.35262712 C117.27346,3.93313559 117.203735,3.53737288 116.950565,3.30940678 C116.734748,3.11449153 115.991839,3.80601695 115.7478,4.03313559 C115.655663,4.11872881 115.582617,4.18652542 115.525342,4.23228814 C115.440676,4.3009322 115.317826,4.28652542 115.251421,4.19923729 C115.184186,4.11279661 115.198297,3.98737288 115.283793,3.91872881 C115.330277,3.88144068 115.401663,3.81449153 115.484669,3.73737288 C115.951166,3.30432203 116.731427,2.58144068 117.207885,3.00940678 C117.593865,3.35516949 117.666911,3.92381356 117.715885,4.3009322 C117.876088,5.54076271 117.853676,6.79838983 116.610238,7.59161017 C116.527231,7.645 116.438414,7.69669492 116.349597,7.74923729 C116.301454,7.77805085 116.25497,7.80601695 116.207656,7.83398305 C115.919624,8.1009322 115.713767,8.45262712 115.61665,8.83483051 C115.738669,9.04838983 116.00595,9.20686441 116.262441,9.25008475 C116.51478,9.29245763 116.777081,9.26872881 117.053493,9.24415254 C117.217846,9.22974576 117.388009,9.21364407 117.558173,9.21279661 C117.848695,9.21194915 118.133408,9.25177966 118.40982,9.29076271 C118.719434,9.33483051 119.010787,9.37635593 119.30463,9.36279661 C119.623375,9.34838983 119.93465,9.26872881 120.265016,9.18567797 C120.534787,9.1170339 120.813689,9.04669492 121.100061,9.01364407 C122.160885,8.89076271 123.299735,9.28483051 124.306604,10.1229661 C125.259519,10.9178814 125.920251,11.9611017 126.16512,13.0619492 C126.29378,13.6373729 126.304571,14.2229661 126.207454,14.7780508 C126.235676,15.0721186 126.243146,15.3788983 126.229035,15.695 C126.173421,16.9729661 125.810682,18.115339 125.178173,18.9983898 C124.851957,19.454322 124.293323,20.0560169 123.487329,20.335678 C122.747741,20.5924576 121.927637,20.4958475 121.346591,20.0831356 C120.790447,19.6873729 120.487473,19.0721186 120.19612,18.4763559 C120.089042,18.2585593 119.978643,18.0331356 119.859114,17.8272034 C119.763656,17.6636441 119.643297,17.4814407 119.497205,17.3077119 C119.30961,17.3577119 119.124506,17.4170339 118.940231,17.474661 L118.757617,17.5322881 C117.983166,17.7738136 117.26682,17.9348305 116.596127,18.0178814 C116.37782,18.2992373 116.014251,18.4882203 115.677244,18.3305932 L115.673094,18.3280508 C115.673094,18.3288983 115.672264,18.3297458 115.672264,18.3297458 C115.639892,18.3755085 115.591748,18.4034746 115.538624,18.4111017 C115.485499,18.4178814 115.432375,18.4017797 115.390872,18.3678814 C115.297905,18.2907627 115.225689,18.1873729 115.180035,18.074661 C114.343329,18.0322881 113.565558,17.845 112.880754,17.524661" id="Fill-10" fill="#FFFFFF"></path>
                        <path d="M115.671102,5.70381356 C115.614658,7.63686441 114.732298,7.31483051 114.732298,7.31483051 L97.7051673,6.26313559 C97.7051673,6.26313559 93.9624026,5.975 94.6928601,2.91228814 C95.4224876,-0.150423729 97.6205007,0.146186441 97.6205007,0.146186441 C97.6205007,0.146186441 113.688076,0.858050847 114.836056,1.17584746 C115.984037,1.49364407 115.723396,1.99449153 115.723396,1.99449153 C115.723396,1.99449153 115.715095,2.63686441 115.705135,3.38771186 L115.671102,5.70381356 Z" id="Fill-12" fill="#FFFFFF"></path>
                        <path d="M94.8944,2.21135593 L95.1658314,1.60711864 C96.1295373,1.11898305 97.0940732,0.875762712 98.1681778,0.924067797 C99.288766,0.974915254 100.402714,1.01389831 101.480139,1.0520339 C105.163139,1.18254237 109.089348,1.35457627 113.019707,1.88762712 C113.595773,1.96644068 114.183459,1.97322034 114.752054,1.98 C115.056688,1.98338983 115.372942,1.98762712 115.687537,2.0020339 L115.669276,2.40118644 C115.361322,2.38677966 115.049217,2.38254237 114.747073,2.37915254 C114.167688,2.37237288 113.56755,2.36559322 112.967413,2.28338983 C109.055315,1.7520339 105.140727,1.58084746 101.466027,1.45118644 C100.387773,1.41305085 99.2729948,1.3740678 98.1515765,1.32322034 C97.1471974,1.27745763 95.8124523,1.74694915 94.8944,2.21135593" id="Fill-14" fill="#E7364B"></path>
                        <path d="M94.5993118,3.61330508 L94.6565863,3.08194915 C95.6642856,2.57177966 97.179985,2.41838983 98.2192268,2.465 C98.7529588,2.48872881 99.2783902,2.54127119 99.7855601,2.59127119 C100.330913,2.64466102 100.895358,2.70059322 101.464782,2.7209322 C102.686639,2.76415254 103.940867,2.77347458 105.153593,2.78364407 C107.771619,2.80313559 110.479292,2.82432203 113.101469,3.18110169 C113.641011,3.25398305 114.13988,3.24889831 114.666972,3.24381356 C114.992358,3.24042373 115.329364,3.2370339 115.679652,3.25313559 L115.66222,3.65228814 C115.321893,3.63618644 114.990697,3.63957627 114.671122,3.6429661 C114.153161,3.64889831 113.617769,3.65398305 113.050005,3.57686441 C110.4519,3.22432203 107.757508,3.20313559 105.151103,3.18279661 C103.935887,3.17262712 102.678338,3.16330508 101.450671,3.11923729 C100.869625,3.09974576 100.299371,3.0429661 99.7482072,2.98872881 C99.2460176,2.93872881 98.7263967,2.88788136 98.2017954,2.86415254 C97.230619,2.82008475 95.5397758,3.1370339 94.5993118,3.61330508" id="Fill-16" fill="#E7364B"></path>
                        <path d="M94.7736255,4.55720339 L94.6457954,4.1470339 C95.4675601,3.73008475 96.5051418,4.02415254 97.5269523,4.09957627 C97.7568804,4.11737288 97.9735275,4.13347458 98.1652725,4.14194915 C98.7388477,4.16822034 99.4236516,4.16144068 100.085214,4.15381356 C100.687841,4.14872881 101.30956,4.14194915 101.839972,4.16059322 C103.054358,4.20381356 104.255462,4.21398305 105.416724,4.22330508 C108.019808,4.24533898 110.477632,4.26652542 113.108109,4.62330508 C113.579586,4.68771186 114.01205,4.63432203 114.470246,4.57669492 C114.845436,4.53008475 115.233907,4.48177966 115.65392,4.50127119 L115.636488,4.90042373 C115.248848,4.88262712 114.876978,4.92838983 114.51673,4.97330508 C114.055214,5.0309322 113.577926,5.09025424 113.056645,5.0190678 C110.45024,4.66567797 108.003207,4.64533898 105.413403,4.62330508 C104.249652,4.61313559 103.046057,4.6029661 101.825861,4.55974576 C101.30458,4.54110169 100.687011,4.54788136 100.089364,4.55381356 C99.4228216,4.56059322 98.7322072,4.56737288 98.1478412,4.54110169 C97.9511157,4.53262712 97.7311484,4.51567797 97.4987301,4.49872881 C96.5234033,4.42584746 95.4999327,4.18940678 94.7736255,4.55720339" id="Fill-18" fill="#E7364B"></path>
                        <path d="M95.8452399,5.70508475 L95.6045209,5.52288136 L95.2193706,5.19322034 L95.2202007,5.19322034 C95.6344033,5.38728814 96.9160242,5.40508475 97.9453052,5.41949153 C98.5338216,5.42711864 99.0891353,5.43559322 99.4361026,5.47372881 C99.936632,5.52881356 100.496926,5.56355932 101.039789,5.59576271 C101.612534,5.63135593 102.206031,5.66694915 102.738103,5.72881356 C104.698717,5.9559322 106.458456,5.90847458 108.322782,5.85762712 C109.826031,5.81694915 111.379913,5.77542373 113.066606,5.88728814 C113.643501,5.92627119 114.194665,5.99661017 114.728397,6.06440678 C115.008129,6.10084746 115.297822,6.13728814 115.587514,6.16949153 L115.545181,6.56694915 C115.252168,6.53474576 114.960815,6.49745763 114.679423,6.46101695 C114.152331,6.39322034 113.606148,6.32372881 113.040874,6.28644068 C111.372442,6.17457627 109.827691,6.21694915 108.333573,6.25677966 C106.455135,6.30762712 104.682116,6.3559322 102.694109,6.12542373 C102.171998,6.06440678 101.584312,6.02881356 101.016547,5.99491525 C100.469534,5.96186441 99.9042595,5.92711864 99.3937693,5.87033898 C99.0658935,5.83389831 98.5197105,5.82627119 97.9394948,5.81864407 C96.7632922,5.80254237 96.3341484,5.93474576 95.8452399,5.70508475" id="Fill-20" fill="#E7364B"></path>
                        <path d="M96.7952497,41.9020339 C96.4233804,39.0605085 93.9248837,37.0240678 91.1300536,37.2816949 L64.1794915,37.2876271 C63.7055242,37.2867797 63.2357072,37.1884746 62.8007529,36.9969492 L34.543668,24.6850847 C32.7681582,23.9113559 31.9439033,21.8164407 32.7017529,20.0045763 C33.4596026,18.1918644 35.5106941,17.3511864 37.2862039,18.1240678 L50.1372758,23.7240678 C55.461315,26.0444068 61.6179098,23.5189831 63.8897987,18.0833898 L37.1583739,6.4359322 C32.7266549,4.5079661 27.6765373,4.74101695 23.4307529,7.06559322 L0.000498039216,14.0537288 L2.46911242,40.2189831 L58.7483739,49.5986441 C60.820217,49.9757627 62.9302431,50.0884746 65.0286484,49.9308475 L92.4349163,47.970678 C95.2729098,47.5105085 97.2169229,44.8037288 96.7952497,41.9020339" id="Fill-22" fill="#FFFFFF"></path>
                    </g>
                </g>
            </g>
        </g>
    </g>
</svg>