<svg id="Calque_1" data-name="Calque 1" xmlns="http://www.w3.org/2000/svg" viewBox="0 0 378.55 324.34"><defs><style>.cls-1{fill:#ec6978;}.cls-2{fill:#e8364b;}.cls-3{fill:#414b6b;}.cls-4{fill:#fff;}</style></defs><title>Plan de travail 799</title><polygon class="cls-1" points="215.43 176.6 371.22 157.66 378.55 265.8 225.82 296.34 215.43 176.6"/><polygon class="cls-2" points="169 147.27 215.43 176.6 225.82 296.34 178.16 260.91 169 147.27"/><polygon class="cls-3" points="169 147.27 336.4 132 371.22 157.66 215.43 176.6 169 147.27"/><path class="cls-4" d="M332.14,244.81a14.06,14.06,0,0,1-3.55.63,7.76,7.76,0,0,1-4.68-1.1,6.78,6.78,0,0,1-2.91-4.16,39.14,39.14,0,0,1-1.81-3.57,3.54,3.54,0,0,1-.41-2.48,1.22,1.22,0,0,1,1.5-.88,3.06,3.06,0,0,1,2.07,2.3,7.3,7.3,0,0,1,0,2.43,8.09,8.09,0,0,0-.09,1.4c0,.08,0,.17,0,.25a12.87,12.87,0,0,0,.79,1.13,5.55,5.55,0,0,0,3.77,2.4,6.14,6.14,0,0,0,3.48-1.42,9.12,9.12,0,0,1,3.22-1.55l.49-.08a2.12,2.12,0,0,0,1.16-.37,1.29,1.29,0,0,0,.23-.31,1.82,1.82,0,0,1,.25-1.29,5.92,5.92,0,0,1,1.49-1l.14-.08a1,1,0,0,1,.69,0l.27,0a1.46,1.46,0,0,1,1-.44,1.4,1.4,0,0,1,.95.34q.4-.49.79-1c-.12-.46-.3-.93-.48-1.42a13.84,13.84,0,0,1-.65-2.09,6.57,6.57,0,0,1,3.28-7.22,6.92,6.92,0,0,1,3.92-.49,10.17,10.17,0,0,1,2.37-3,12.26,12.26,0,0,1,3.19-1.71,14.68,14.68,0,0,0,2.34-1.13c3-1.91,4.66-6.32,4.14-11a18.26,18.26,0,0,0-2.08-6.54c-2.47-2.69-5.12-4.39-7.66-4.87a17,17,0,0,0-5.41.12c-.66.08-1.35.17-2,.23l-1.26.09a13.45,13.45,0,0,0-3.95.62,4.55,4.55,0,0,0-3,3.68c0,.24,0,.51,0,.8a4.06,4.06,0,0,1-.73,2.69,2.54,2.54,0,0,1-1.39.68c-.74.17-1.51.29-2.26.42-2.83.47-5.75,1-7.1,3.53-.14.27-.26.56-.39.87a8.23,8.23,0,0,1-.76,1.51,2.19,2.19,0,0,1-2.75,1,3.84,3.84,0,0,1-1.42-1.41q-.31-.47-.57-1a3.85,3.85,0,0,1-.88-.88c-1.26-1.72-1-3.76-.64-5.66v-.06c0-.35,0-.72.07-1.09.12-1.57.24-3-.54-3.9a3.86,3.86,0,0,0-1-.7l-.31-.17a11.73,11.73,0,0,1-3.57-3.76,14.46,14.46,0,0,0-2-2.46c0,.45.11,1,.16,1.41a10.37,10.37,0,0,1,.13,3.67.58.58,0,0,1-.9.32,1,1,0,0,1-.39-1.13,15.9,15.9,0,0,0-.21-2.82c-.27-2.17-.36-3.07.14-3.47a.67.67,0,0,1,.8,0,11.73,11.73,0,0,1,3.27,3.53,10.23,10.23,0,0,0,3,3.24l.29.16a5.4,5.4,0,0,1,1.37,1c-.66-2.74-2.45-5.14-4.87-7.66-1.18-1.23-2.34-2.34-3.53-2.41-1-.07-1.12,4.18-1.15,5.57,0,.53,0,.94,0,1.25a.62.62,0,0,1-.76.62,1,1,0,0,1-.62-1c0-.24,0-.66,0-1.13.07-2.66.18-7.11,2.42-7,1.81.11,3.41,1.78,4.47,2.88,3.49,3.64,6.57,7.82,5.49,13.73-.07.39-.16.8-.25,1.21l-.14.65a10.85,10.85,0,0,0,1,4.85,2.71,2.71,0,0,0,2.62-.36,10,10,0,0,0,1.93-2.13c.37-.49.75-1,1.16-1.45a18.06,18.06,0,0,1,2.29-2,14.93,14.93,0,0,0,2.38-2.14,17.54,17.54,0,0,0,1.92-3.14,23.62,23.62,0,0,1,1.62-2.79c2.3-3.23,6.09-5,10.65-4.9a18.46,18.46,0,0,1,11.9,4.69,20.71,20.71,0,0,1,4.38,5.51,30.9,30.9,0,0,1,2.34,2.95A31.82,31.82,0,0,1,366,216.92a17.34,17.34,0,0,1-.82,8.88c-1.18,2.81-3.44,4.68-5.89,4.87s-4.63-1-6.84-2.21c-.81-.43-1.64-.87-2.45-1.23a12.17,12.17,0,0,0-2.18-.74c-.33.66-.64,1.35-1,2l-.3.67a46.31,46.31,0,0,1-4.1,7.35c.17,1.5-.26,3.09-1.48,3.47h0a.87.87,0,0,1-.13.61.56.56,0,0,1-.47.25,2.43,2.43,0,0,1-1.25-.4A17.81,17.81,0,0,1,332.14,244.81Zm-1.26-1.41a14.57,14.57,0,0,0,4-1.69l-.53.08-.43.07a8.19,8.19,0,0,0-2.83,1.39Zm13.52-16.88a4.78,4.78,0,0,0-.6.23,5.06,5.06,0,0,0-2.58,5.46,12,12,0,0,0,.56,1.77l.2.54a47.09,47.09,0,0,0,3.4-6.27l.3-.67c.2-.43.39-.87.6-1.3A5.72,5.72,0,0,0,344.41,226.52Zm4.27-1.48a14.21,14.21,0,0,1,1.69.63c.86.38,1.71.84,2.54,1.28,2.13,1.14,4.15,2.21,6.15,2.05a6.19,6.19,0,0,0,4.91-4.1,15.49,15.49,0,0,0,.71-7.91,29.26,29.26,0,0,0-4.7-11.84,19.07,19.07,0,0,1,.51,2.73c.59,5.27-1.32,10.29-4.75,12.47a15.77,15.77,0,0,1-2.51,1.22,11.27,11.27,0,0,0-2.92,1.55A8,8,0,0,0,348.68,225Zm-28.57,9.84h0c-.09.26.18.84.28,1.05.21.44.41.89.63,1.33a4.94,4.94,0,0,0,0-1.53,1.3,1.3,0,0,0-.57-.75A.51.51,0,0,0,320.11,234.89Zm-1.73-24a1.07,1.07,0,0,0,.27.2c.43.21.93-.12,1.23-.53A3.93,3.93,0,0,1,318.38,210.93Zm7.38-6.15a30.42,30.42,0,0,1,3.15-.64c.77-.13,1.49-.25,2.2-.41a1.6,1.6,0,0,0,.82-.35,2.85,2.85,0,0,0,.34-1.67c0-.3,0-.62.06-.93a5.79,5.79,0,0,1,3.84-4.85,14.41,14.41,0,0,1,4.26-.69l1.23-.08c.66-.06,1.34-.14,2-.23a18.07,18.07,0,0,1,5.77-.11,11.91,11.91,0,0,1,3.56,1.34l0,0a17.08,17.08,0,0,0-11-4.32c-4.13-.06-7.67,1.54-9.72,4.41a22.21,22.21,0,0,0-1.52,2.62,18.82,18.82,0,0,1-2.08,3.38,16.06,16.06,0,0,1-2.56,2.32Z"/><path class="cls-4" d="M309.52,198.64c4.68,6.49,1.71,7.78,1.71,7.78l-44.48,41.87s-9.92,9-15.77-3,.3-16.86.3-16.86S292.56,188,296.17,186s4.22.32,4.22.32l3.43,4.62Z"/><path class="cls-2" d="M249.73,242.49l-.84-2.7a21.93,21.93,0,0,1,5.68-10.23c2.88-2.82,5.72-5.65,8.46-8.39,9.38-9.38,19.46-19.26,30.45-28a44.41,44.41,0,0,0,4.49-4.31c.76-.8,1.55-1.63,2.35-2.42l1,1.35c-.79.77-1.57,1.59-2.32,2.38a45.33,45.33,0,0,1-4.61,4.42c-10.94,8.67-21,18.53-30.35,27.88-2.75,2.74-5.58,5.58-8.47,8.4C252.94,233.44,250.83,238.52,249.73,242.49Z"/><path class="cls-2" d="M252.51,247.87l-1.19-1.9c1.21-4.35,4.55-8.89,7.22-11.5,1.37-1.34,2.79-2.57,4.16-3.76s3-2.59,4.45-4c3.11-3.11,6.22-6.42,9.23-9.61,6.49-6.9,13.19-14,20.53-19.85a33.17,33.17,0,0,0,4-4c.79-.88,1.61-1.78,2.51-2.67l1,1.35c-.88.85-1.68,1.75-2.46,2.61a34.57,34.57,0,0,1-4.15,4.1c-7.27,5.76-13.94,12.86-20.4,19.73-3,3.2-6.12,6.52-9.25,9.64-1.48,1.48-3,2.81-4.51,4.1s-2.76,2.39-4.11,3.71A32.63,32.63,0,0,0,252.51,247.87Z"/><path class="cls-2" d="M255.29,250.5l-1.34-1c1-3.55,4.27-5.35,7-7.82.61-.55,1.18-1.08,1.67-1.56,1.47-1.44,3.14-3.29,4.75-5.07,1.46-1.62,3-3.3,4.33-4.65,3.09-3.09,6.07-6.26,9-9.31,6.45-6.85,12.55-13.33,19.9-19.16a16.91,16.91,0,0,0,3.23-3.78,23,23,0,0,1,2.72-3.4l1,1.35a22,22,0,0,0-2.57,3.22,18.15,18.15,0,0,1-3.47,4c-7.29,5.78-13.36,12.22-19.78,19-2.89,3.07-5.87,6.24-9,9.34-1.33,1.33-2.83,3-4.28,4.6-1.62,1.8-3.3,3.66-4.8,5.13-.51.5-1.09,1-1.7,1.59C259.26,245.41,256.16,247.36,255.29,250.5Z"/><path class="cls-2" d="M260.78,251.41l-1,0L258,251.4h0c1.5-.47,4.7-3.82,7.26-6.51,1.47-1.54,2.85-3,3.8-3.79,1.37-1.15,2.83-2.53,4.25-3.87s3-2.87,4.5-4.09c5.39-4.47,9.59-9.31,14.05-14.44a159.26,159.26,0,0,1,11.73-12.53c1.52-1.41,3-2.65,4.53-3.84.78-.63,1.58-1.28,2.37-1.94l.89,1.41c-.8.67-1.61,1.33-2.39,2-1.46,1.18-3,2.4-4.46,3.79A158.36,158.36,0,0,0,292.86,220c-4.49,5.16-8.73,10-14.19,14.58-1.43,1.19-3,2.64-4.45,4s-2.9,2.74-4.3,3.91c-.9.75-2.26,2.18-3.7,3.7C263.29,249.29,262.56,250.86,260.78,251.41Z"/><polygon class="cls-1" points="46.43 204.6 202.22 185.66 209.55 293.8 56.82 324.34 46.43 204.6"/><polygon class="cls-2" points="0 175.27 46.43 204.6 56.82 324.34 9.16 288.91 0 175.27"/><polygon class="cls-3" points="0 175.27 167.4 160 202.22 185.66 46.43 204.6 0 175.27"/><path class="cls-4" d="M163.14,272.81a14.06,14.06,0,0,1-3.55.63,7.76,7.76,0,0,1-4.68-1.1,6.78,6.78,0,0,1-2.91-4.16,39.14,39.14,0,0,1-1.81-3.57,3.54,3.54,0,0,1-.41-2.48,1.22,1.22,0,0,1,1.5-.88,3.06,3.06,0,0,1,2.07,2.3,7.3,7.3,0,0,1,0,2.43,8.09,8.09,0,0,0-.09,1.4c0,.08,0,.17,0,.25a12.87,12.87,0,0,0,.79,1.13,5.55,5.55,0,0,0,3.77,2.4,6.14,6.14,0,0,0,3.48-1.42,9.12,9.12,0,0,1,3.22-1.55l.49-.08a2.12,2.12,0,0,0,1.16-.37,1.29,1.29,0,0,0,.23-.31,1.82,1.82,0,0,1,.25-1.29,5.92,5.92,0,0,1,1.49-1l.14-.08a1,1,0,0,1,.69,0l.27,0a1.46,1.46,0,0,1,1-.44,1.4,1.4,0,0,1,.95.34q.4-.49.79-1c-.12-.46-.3-.93-.48-1.42a13.84,13.84,0,0,1-.65-2.09,6.57,6.57,0,0,1,3.28-7.22,6.92,6.92,0,0,1,3.92-.49,10.17,10.17,0,0,1,2.37-3,12.26,12.26,0,0,1,3.19-1.71,14.68,14.68,0,0,0,2.34-1.13c3-1.91,4.66-6.32,4.14-11a18.26,18.26,0,0,0-2.08-6.54c-2.47-2.69-5.12-4.39-7.66-4.87a17,17,0,0,0-5.41.12c-.66.08-1.35.17-2,.23l-1.26.09a13.45,13.45,0,0,0-3.95.62,4.55,4.55,0,0,0-3,3.68c0,.24,0,.51,0,.8a4.06,4.06,0,0,1-.73,2.69,2.54,2.54,0,0,1-1.39.68c-.74.17-1.51.29-2.26.42-2.83.47-5.75,1-7.1,3.53-.14.27-.26.56-.39.87a8.23,8.23,0,0,1-.76,1.51,2.19,2.19,0,0,1-2.75,1,3.84,3.84,0,0,1-1.42-1.41q-.31-.47-.57-1a3.85,3.85,0,0,1-.88-.88c-1.26-1.72-1-3.76-.64-5.66v-.06c0-.35,0-.72.07-1.09.12-1.57.24-3-.54-3.9a3.86,3.86,0,0,0-1-.7l-.31-.17a11.73,11.73,0,0,1-3.57-3.76,14.46,14.46,0,0,0-2-2.46c0,.45.11,1,.16,1.41a10.37,10.37,0,0,1,.13,3.67.58.58,0,0,1-.9.32,1,1,0,0,1-.39-1.13,15.9,15.9,0,0,0-.21-2.82c-.27-2.17-.36-3.07.14-3.47a.67.67,0,0,1,.8,0,11.73,11.73,0,0,1,3.27,3.53,10.23,10.23,0,0,0,3,3.24l.29.16a5.4,5.4,0,0,1,1.37,1c-.66-2.74-2.45-5.14-4.87-7.66-1.18-1.23-2.34-2.34-3.53-2.41-1-.07-1.12,4.18-1.15,5.57,0,.53,0,.94,0,1.25a.62.62,0,0,1-.76.62,1,1,0,0,1-.62-1c0-.24,0-.66,0-1.13.07-2.66.18-7.11,2.42-7,1.81.11,3.41,1.78,4.47,2.88,3.49,3.64,6.57,7.82,5.49,13.73-.07.39-.16.8-.25,1.21l-.14.65a10.85,10.85,0,0,0,1,4.85,2.71,2.71,0,0,0,2.62-.36,10,10,0,0,0,1.93-2.13c.37-.49.75-1,1.16-1.45a18.06,18.06,0,0,1,2.29-2,14.93,14.93,0,0,0,2.38-2.14,17.54,17.54,0,0,0,1.92-3.14,23.62,23.62,0,0,1,1.62-2.79c2.3-3.23,6.09-5,10.65-4.9a18.46,18.46,0,0,1,11.9,4.69,20.71,20.71,0,0,1,4.38,5.51,30.9,30.9,0,0,1,2.34,2.95A31.82,31.82,0,0,1,197,244.92a17.34,17.34,0,0,1-.82,8.88c-1.18,2.81-3.44,4.68-5.89,4.87s-4.63-1-6.84-2.21c-.81-.43-1.64-.87-2.45-1.23a12.17,12.17,0,0,0-2.18-.74c-.33.66-.64,1.35-1,2l-.3.67a46.31,46.31,0,0,1-4.1,7.35c.17,1.5-.26,3.09-1.48,3.47h0a.87.87,0,0,1-.13.61.56.56,0,0,1-.47.25,2.43,2.43,0,0,1-1.25-.4A17.81,17.81,0,0,1,163.14,272.81Zm-1.26-1.41a14.57,14.57,0,0,0,4-1.69l-.53.08-.43.07a8.19,8.19,0,0,0-2.83,1.39Zm13.52-16.88a4.78,4.78,0,0,0-.6.23,5.06,5.06,0,0,0-2.58,5.46,12,12,0,0,0,.56,1.77l.2.54a47.09,47.09,0,0,0,3.4-6.27l.3-.67c.2-.43.39-.87.6-1.3A5.72,5.72,0,0,0,175.41,254.52Zm4.27-1.48a14.21,14.21,0,0,1,1.69.63c.86.38,1.71.84,2.54,1.28,2.13,1.14,4.15,2.21,6.15,2.05a6.19,6.19,0,0,0,4.91-4.1,15.49,15.49,0,0,0,.71-7.91,29.26,29.26,0,0,0-4.7-11.84,19.07,19.07,0,0,1,.51,2.73c.59,5.27-1.32,10.29-4.75,12.47a15.77,15.77,0,0,1-2.51,1.22,11.27,11.27,0,0,0-2.92,1.55A8,8,0,0,0,179.68,253Zm-28.57,9.84h0c-.09.26.18.84.28,1.05.21.44.41.89.63,1.33a4.94,4.94,0,0,0,0-1.53,1.3,1.3,0,0,0-.57-.75A.51.51,0,0,0,151.11,262.89Zm-1.73-24a1.07,1.07,0,0,0,.27.2c.43.21.93-.12,1.23-.53A3.93,3.93,0,0,1,149.38,238.93Zm7.38-6.15a30.42,30.42,0,0,1,3.15-.64c.77-.13,1.49-.25,2.2-.41a1.6,1.6,0,0,0,.82-.35,2.85,2.85,0,0,0,.34-1.67c0-.3,0-.62.06-.93a5.79,5.79,0,0,1,3.84-4.85,14.41,14.41,0,0,1,4.26-.69l1.23-.08c.66-.06,1.34-.14,2-.23a18.07,18.07,0,0,1,5.77-.11,11.91,11.91,0,0,1,3.56,1.34l0,0a17.08,17.08,0,0,0-11-4.32c-4.13-.06-7.67,1.54-9.72,4.41a22.21,22.21,0,0,0-1.52,2.62,18.82,18.82,0,0,1-2.08,3.38,16.06,16.06,0,0,1-2.56,2.32Z"/><path class="cls-4" d="M140.52,226.64c4.68,6.49,1.71,7.78,1.71,7.78L97.75,276.29s-9.92,9-15.77-3,.3-16.86.3-16.86S123.56,216,127.17,214s4.22.32,4.22.32l3.43,4.62Z"/><path class="cls-2" d="M80.73,270.49l-.84-2.7a21.93,21.93,0,0,1,5.68-10.23c2.88-2.82,5.72-5.65,8.46-8.39,9.38-9.38,19.46-19.26,30.45-28a44.41,44.41,0,0,0,4.49-4.31c.76-.8,1.55-1.63,2.35-2.42l1,1.35c-.79.77-1.57,1.59-2.32,2.38a45.33,45.33,0,0,1-4.61,4.42c-10.94,8.67-21,18.53-30.35,27.88-2.75,2.74-5.58,5.58-8.47,8.4C83.94,261.44,81.83,266.52,80.73,270.49Z"/><path class="cls-2" d="M83.51,275.87,82.32,274c1.21-4.35,4.55-8.89,7.22-11.5,1.37-1.34,2.79-2.57,4.16-3.76s3-2.59,4.45-4c3.11-3.11,6.22-6.42,9.23-9.61,6.49-6.9,13.19-14,20.53-19.85a33.17,33.17,0,0,0,4-4c.79-.88,1.61-1.78,2.51-2.67l1,1.35c-.88.85-1.68,1.75-2.46,2.61a34.57,34.57,0,0,1-4.15,4.1c-7.27,5.76-13.94,12.86-20.4,19.73-3,3.2-6.12,6.52-9.25,9.64-1.48,1.48-3,2.81-4.51,4.1s-2.76,2.39-4.11,3.71A32.63,32.63,0,0,0,83.51,275.87Z"/><path class="cls-2" d="M86.29,278.5l-1.34-1c1-3.55,4.27-5.35,7-7.82.61-.55,1.18-1.08,1.67-1.56,1.47-1.44,3.14-3.29,4.75-5.07,1.46-1.62,3-3.3,4.33-4.65,3.09-3.09,6.07-6.26,9-9.31,6.45-6.85,12.55-13.33,19.9-19.16a16.91,16.91,0,0,0,3.23-3.78,23,23,0,0,1,2.72-3.4l1,1.35a22,22,0,0,0-2.57,3.22,18.15,18.15,0,0,1-3.47,4c-7.29,5.78-13.36,12.22-19.78,19-2.89,3.07-5.87,6.24-9,9.34-1.33,1.33-2.83,3-4.28,4.6-1.62,1.8-3.3,3.66-4.8,5.13-.51.5-1.09,1-1.7,1.59C90.26,273.41,87.16,275.36,86.29,278.5Z"/><path class="cls-2" d="M91.78,279.41l-1,0L89,279.4h0c1.5-.47,4.7-3.82,7.26-6.51,1.47-1.54,2.85-3,3.8-3.79,1.37-1.15,2.83-2.53,4.25-3.87s3-2.87,4.5-4.09c5.39-4.47,9.59-9.31,14.05-14.44a159.26,159.26,0,0,1,11.73-12.53c1.52-1.41,3-2.65,4.53-3.84.78-.63,1.58-1.28,2.37-1.94l.89,1.41c-.8.67-1.61,1.33-2.39,2-1.46,1.18-3,2.4-4.46,3.79A158.36,158.36,0,0,0,123.86,248c-4.49,5.16-8.73,10-14.19,14.58-1.43,1.19-3,2.64-4.45,4s-2.9,2.74-4.3,3.91c-.9.75-2.26,2.18-3.7,3.7C94.29,277.29,93.56,278.86,91.78,279.41Z"/><polygon class="cls-1" points="215.43 44.6 371.22 25.66 378.55 133.8 225.82 164.34 215.43 44.6"/><polygon class="cls-2" points="169 15.27 215.43 44.6 225.82 164.34 178.16 128.91 169 15.27"/><polygon class="cls-3" points="169 15.27 336.4 0 371.22 25.66 215.43 44.6 169 15.27"/><path class="cls-4" d="M332.14,112.81a14.06,14.06,0,0,1-3.55.63,7.76,7.76,0,0,1-4.68-1.1,6.78,6.78,0,0,1-2.91-4.16,39.14,39.14,0,0,1-1.81-3.57,3.54,3.54,0,0,1-.41-2.48,1.22,1.22,0,0,1,1.5-.88,3.06,3.06,0,0,1,2.07,2.3,7.3,7.3,0,0,1,0,2.43,8.09,8.09,0,0,0-.09,1.4c0,.08,0,.17,0,.25a12.87,12.87,0,0,0,.79,1.13,5.55,5.55,0,0,0,3.77,2.4,6.14,6.14,0,0,0,3.48-1.42,9.12,9.12,0,0,1,3.22-1.55l.49-.08a2.12,2.12,0,0,0,1.16-.37,1.29,1.29,0,0,0,.23-.31,1.82,1.82,0,0,1,.25-1.29,5.92,5.92,0,0,1,1.49-1l.14-.08a1,1,0,0,1,.69,0l.27,0a1.46,1.46,0,0,1,1-.44,1.4,1.4,0,0,1,.95.34q.4-.49.79-1c-.12-.46-.3-.93-.48-1.42a13.84,13.84,0,0,1-.65-2.09,6.57,6.57,0,0,1,3.28-7.22,6.92,6.92,0,0,1,3.92-.49,10.17,10.17,0,0,1,2.37-3A12.26,12.26,0,0,1,352.64,88,14.68,14.68,0,0,0,355,86.85c3-1.91,4.66-6.32,4.14-11A18.26,18.26,0,0,0,357,69.35c-2.47-2.69-5.12-4.39-7.66-4.87a17,17,0,0,0-5.41.12c-.66.08-1.35.17-2,.23l-1.26.09a13.45,13.45,0,0,0-3.95.62,4.55,4.55,0,0,0-3,3.68c0,.24,0,.51,0,.8a4.06,4.06,0,0,1-.73,2.69,2.54,2.54,0,0,1-1.39.68c-.74.17-1.51.29-2.26.42-2.83.47-5.75,1-7.1,3.53-.14.27-.26.56-.39.87A8.23,8.23,0,0,1,321,79.7a2.19,2.19,0,0,1-2.75,1,3.84,3.84,0,0,1-1.42-1.41q-.31-.47-.57-1a3.85,3.85,0,0,1-.88-.88c-1.26-1.72-1-3.76-.64-5.66v-.06c0-.35,0-.72.07-1.09.12-1.57.24-3-.54-3.9a3.86,3.86,0,0,0-1-.7l-.31-.17a11.73,11.73,0,0,1-3.57-3.76,14.46,14.46,0,0,0-2-2.46c0,.45.11,1,.16,1.41a10.37,10.37,0,0,1,.13,3.67.58.58,0,0,1-.9.32,1,1,0,0,1-.39-1.13,15.9,15.9,0,0,0-.21-2.82c-.27-2.17-.36-3.07.14-3.47a.67.67,0,0,1,.8,0,11.73,11.73,0,0,1,3.27,3.53,10.23,10.23,0,0,0,3,3.24l.29.16a5.4,5.4,0,0,1,1.37,1c-.66-2.74-2.45-5.14-4.87-7.66-1.18-1.23-2.34-2.34-3.53-2.41-1-.07-1.12,4.18-1.15,5.57,0,.53,0,.94,0,1.25a.62.62,0,0,1-.76.62,1,1,0,0,1-.62-1c0-.24,0-.66,0-1.13.07-2.66.18-7.11,2.42-7,1.81.11,3.41,1.78,4.47,2.88,3.49,3.64,6.57,7.82,5.49,13.73-.07.39-.16.8-.25,1.21l-.14.65a10.85,10.85,0,0,0,1,4.85,2.71,2.71,0,0,0,2.62-.36,10,10,0,0,0,1.93-2.13c.37-.49.75-1,1.16-1.45a18.06,18.06,0,0,1,2.29-2A14.93,14.93,0,0,0,327.58,69a17.54,17.54,0,0,0,1.92-3.14A23.62,23.62,0,0,1,331.12,63c2.3-3.23,6.09-5,10.65-4.9a18.46,18.46,0,0,1,11.9,4.69,20.71,20.71,0,0,1,4.38,5.51,30.9,30.9,0,0,1,2.34,2.95A31.82,31.82,0,0,1,366,84.92a17.34,17.34,0,0,1-.82,8.88c-1.18,2.81-3.44,4.68-5.89,4.87s-4.63-1-6.84-2.21c-.81-.43-1.64-.87-2.45-1.23a12.17,12.17,0,0,0-2.18-.74c-.33.66-.64,1.35-1,2l-.3.67a46.31,46.31,0,0,1-4.1,7.35c.17,1.5-.26,3.09-1.48,3.47h0a.87.87,0,0,1-.13.61.56.56,0,0,1-.47.25,2.43,2.43,0,0,1-1.25-.4A17.81,17.81,0,0,1,332.14,112.81Zm-1.26-1.41a14.57,14.57,0,0,0,4-1.69l-.53.08-.43.07a8.19,8.19,0,0,0-2.83,1.39Zm13.52-16.88a4.78,4.78,0,0,0-.6.23,5.06,5.06,0,0,0-2.58,5.46,12,12,0,0,0,.56,1.77l.2.54a47.09,47.09,0,0,0,3.4-6.27l.3-.67c.2-.43.39-.87.6-1.3A5.72,5.72,0,0,0,344.41,94.52ZM348.68,93a14.21,14.21,0,0,1,1.69.63c.86.38,1.71.84,2.54,1.28,2.13,1.14,4.15,2.21,6.15,2.05A6.19,6.19,0,0,0,364,92.9a15.49,15.49,0,0,0,.71-7.91A29.26,29.26,0,0,0,360,73.15a19.07,19.07,0,0,1,.51,2.73c.59,5.27-1.32,10.29-4.75,12.47a15.77,15.77,0,0,1-2.51,1.22,11.27,11.27,0,0,0-2.92,1.55A8,8,0,0,0,348.68,93Zm-28.57,9.84h0c-.09.26.18.84.28,1.05.21.44.41.89.63,1.33a4.94,4.94,0,0,0,0-1.53,1.3,1.3,0,0,0-.57-.75A.51.51,0,0,0,320.11,102.89Zm-1.73-24a1.07,1.07,0,0,0,.27.2c.43.21.93-.12,1.23-.53A3.93,3.93,0,0,1,318.38,78.93Zm7.38-6.15a30.42,30.42,0,0,1,3.15-.64c.77-.13,1.49-.25,2.2-.41a1.6,1.6,0,0,0,.82-.35,2.85,2.85,0,0,0,.34-1.67c0-.3,0-.62.06-.93a5.79,5.79,0,0,1,3.84-4.85,14.41,14.41,0,0,1,4.26-.69l1.23-.08c.66-.06,1.34-.14,2-.23a18.07,18.07,0,0,1,5.77-.11A11.91,11.91,0,0,1,353,64.16l0,0a17.08,17.08,0,0,0-11-4.32c-4.13-.06-7.67,1.54-9.72,4.41a22.21,22.21,0,0,0-1.52,2.62,18.82,18.82,0,0,1-2.08,3.38,16.06,16.06,0,0,1-2.56,2.32Z"/><path class="cls-4" d="M309.52,66.64c4.68,6.49,1.71,7.78,1.71,7.78l-44.48,41.87s-9.92,9-15.77-3,.3-16.86.3-16.86S292.56,56,296.17,54s4.22.32,4.22.32L303.83,59Z"/><path class="cls-2" d="M249.73,110.49l-.84-2.7a21.93,21.93,0,0,1,5.68-10.23c2.88-2.82,5.72-5.65,8.46-8.39,9.38-9.38,19.46-19.26,30.45-28A44.41,44.41,0,0,0,298,56.89c.76-.8,1.55-1.63,2.35-2.42l1,1.35c-.79.77-1.57,1.59-2.32,2.38a45.33,45.33,0,0,1-4.61,4.42c-10.94,8.67-21,18.53-30.35,27.88-2.75,2.74-5.58,5.58-8.47,8.4C252.94,101.44,250.83,106.52,249.73,110.49Z"/><path class="cls-2" d="M252.51,115.87l-1.19-1.9c1.21-4.35,4.55-8.89,7.22-11.5,1.37-1.34,2.79-2.57,4.16-3.76s3-2.59,4.45-4c3.11-3.11,6.22-6.42,9.23-9.61,6.49-6.9,13.19-14,20.53-19.85a33.17,33.17,0,0,0,4-4c.79-.88,1.61-1.78,2.51-2.67l1,1.35c-.88.85-1.68,1.75-2.46,2.61a34.57,34.57,0,0,1-4.15,4.1c-7.27,5.76-13.94,12.86-20.4,19.73-3,3.2-6.12,6.52-9.25,9.64-1.48,1.48-3,2.81-4.51,4.1s-2.76,2.39-4.11,3.71A32.63,32.63,0,0,0,252.51,115.87Z"/><path class="cls-2" d="M255.29,118.5l-1.34-1c1-3.55,4.27-5.35,7-7.82.61-.55,1.18-1.08,1.67-1.56,1.47-1.44,3.14-3.29,4.75-5.07,1.46-1.62,3-3.3,4.33-4.65,3.09-3.09,6.07-6.26,9-9.31,6.45-6.85,12.55-13.33,19.9-19.16a16.91,16.91,0,0,0,3.23-3.78,23,23,0,0,1,2.72-3.4l1,1.35a22,22,0,0,0-2.57,3.22,18.15,18.15,0,0,1-3.47,4c-7.29,5.78-13.36,12.22-19.78,19-2.89,3.07-5.87,6.24-9,9.34-1.33,1.33-2.83,3-4.28,4.6-1.62,1.8-3.3,3.66-4.8,5.13-.51.5-1.09,1-1.7,1.59C259.26,113.41,256.16,115.36,255.29,118.5Z"/><path class="cls-2" d="M260.78,119.41l-1,0L258,119.4h0c1.5-.47,4.7-3.82,7.26-6.51,1.47-1.54,2.85-3,3.8-3.79,1.37-1.15,2.83-2.53,4.25-3.87s3-2.87,4.5-4.09c5.39-4.47,9.59-9.31,14.05-14.44a159.26,159.26,0,0,1,11.73-12.53c1.52-1.41,3-2.65,4.53-3.84.78-.63,1.58-1.28,2.37-1.94l.89,1.41c-.8.67-1.61,1.33-2.39,2-1.46,1.18-3,2.4-4.46,3.79A158.36,158.36,0,0,0,292.86,88c-4.49,5.16-8.73,10-14.19,14.58-1.43,1.19-3,2.64-4.45,4s-2.9,2.74-4.3,3.91c-.9.75-2.26,2.18-3.7,3.7C263.29,117.29,262.56,118.86,260.78,119.41Z"/><polygon class="cls-1" points="46.43 72.6 202.22 53.66 209.55 161.8 56.82 192.34 46.43 72.6"/><polygon class="cls-2" points="0 43.27 46.43 72.6 56.82 192.34 9.16 156.91 0 43.27"/><polygon class="cls-3" points="0 43.27 167.4 28 202.22 53.66 46.43 72.6 0 43.27"/><path class="cls-4" d="M163.14,140.81a14.06,14.06,0,0,1-3.55.63,7.76,7.76,0,0,1-4.68-1.1,6.78,6.78,0,0,1-2.91-4.16,39.14,39.14,0,0,1-1.81-3.57,3.54,3.54,0,0,1-.41-2.48,1.22,1.22,0,0,1,1.5-.88,3.06,3.06,0,0,1,2.07,2.3,7.3,7.3,0,0,1,0,2.43,8.09,8.09,0,0,0-.09,1.4c0,.08,0,.17,0,.25a12.87,12.87,0,0,0,.79,1.13,5.55,5.55,0,0,0,3.77,2.4,6.14,6.14,0,0,0,3.48-1.42,9.12,9.12,0,0,1,3.22-1.55l.49-.08a2.12,2.12,0,0,0,1.16-.37,1.29,1.29,0,0,0,.23-.31,1.82,1.82,0,0,1,.25-1.29,5.92,5.92,0,0,1,1.49-1l.14-.08a1,1,0,0,1,.69,0l.27,0a1.46,1.46,0,0,1,1-.44,1.4,1.4,0,0,1,.95.34q.4-.49.79-1c-.12-.46-.3-.93-.48-1.42a13.84,13.84,0,0,1-.65-2.09,6.57,6.57,0,0,1,3.28-7.22,6.92,6.92,0,0,1,3.92-.49,10.17,10.17,0,0,1,2.37-3,12.26,12.26,0,0,1,3.19-1.71,14.68,14.68,0,0,0,2.34-1.13c3-1.91,4.66-6.32,4.14-11A18.26,18.26,0,0,0,188,97.35c-2.47-2.69-5.12-4.39-7.66-4.87a17,17,0,0,0-5.41.12c-.66.08-1.35.17-2,.23l-1.26.09a13.45,13.45,0,0,0-3.95.62,4.55,4.55,0,0,0-3,3.68c0,.24,0,.51,0,.8a4.06,4.06,0,0,1-.73,2.69,2.54,2.54,0,0,1-1.39.68c-.74.17-1.51.29-2.26.42-2.83.47-5.75,1-7.1,3.53-.14.27-.26.56-.39.87a8.23,8.23,0,0,1-.76,1.51,2.19,2.19,0,0,1-2.75,1,3.84,3.84,0,0,1-1.42-1.41q-.31-.47-.57-1a3.85,3.85,0,0,1-.88-.88c-1.26-1.72-1-3.76-.64-5.66v-.06c0-.35,0-.72.07-1.09.12-1.57.24-3-.54-3.9a3.86,3.86,0,0,0-1-.7l-.31-.17a11.73,11.73,0,0,1-3.57-3.76,14.46,14.46,0,0,0-2-2.46c0,.45.11,1,.16,1.41a10.37,10.37,0,0,1,.13,3.67.58.58,0,0,1-.9.32,1,1,0,0,1-.39-1.13,15.9,15.9,0,0,0-.21-2.82c-.27-2.17-.36-3.07.14-3.47a.67.67,0,0,1,.8,0,11.73,11.73,0,0,1,3.27,3.53,10.23,10.23,0,0,0,3,3.24l.29.16a5.4,5.4,0,0,1,1.37,1c-.66-2.74-2.45-5.14-4.87-7.66-1.18-1.23-2.34-2.34-3.53-2.41-1-.07-1.12,4.18-1.15,5.57,0,.53,0,.94,0,1.25a.62.62,0,0,1-.76.62,1,1,0,0,1-.62-1c0-.24,0-.66,0-1.13.07-2.66.18-7.11,2.42-7,1.81.11,3.41,1.78,4.47,2.88,3.49,3.64,6.57,7.82,5.49,13.73-.07.39-.16.8-.25,1.21l-.14.65a10.85,10.85,0,0,0,1,4.85,2.71,2.71,0,0,0,2.62-.36,10,10,0,0,0,1.93-2.13c.37-.49.75-1,1.16-1.45a18.06,18.06,0,0,1,2.29-2A14.93,14.93,0,0,0,158.58,97a17.54,17.54,0,0,0,1.92-3.14A23.62,23.62,0,0,1,162.12,91c2.3-3.23,6.09-5,10.65-4.9a18.46,18.46,0,0,1,11.9,4.69,20.71,20.71,0,0,1,4.38,5.51,30.9,30.9,0,0,1,2.34,2.95A31.82,31.82,0,0,1,197,112.92a17.34,17.34,0,0,1-.82,8.88c-1.18,2.81-3.44,4.68-5.89,4.87s-4.63-1-6.84-2.21c-.81-.43-1.64-.87-2.45-1.23a12.17,12.17,0,0,0-2.18-.74c-.33.66-.64,1.35-1,2l-.3.67a46.31,46.31,0,0,1-4.1,7.35c.17,1.5-.26,3.09-1.48,3.47h0a.87.87,0,0,1-.13.61.56.56,0,0,1-.47.25,2.43,2.43,0,0,1-1.25-.4A17.81,17.81,0,0,1,163.14,140.81Zm-1.26-1.41a14.57,14.57,0,0,0,4-1.69l-.53.08-.43.07a8.19,8.19,0,0,0-2.83,1.39Zm13.52-16.88a4.78,4.78,0,0,0-.6.23,5.06,5.06,0,0,0-2.58,5.46,12,12,0,0,0,.56,1.77l.2.54a47.09,47.09,0,0,0,3.4-6.27l.3-.67c.2-.43.39-.87.6-1.3A5.72,5.72,0,0,0,175.41,122.52Zm4.27-1.48a14.21,14.21,0,0,1,1.69.63c.86.38,1.71.84,2.54,1.28,2.13,1.14,4.15,2.21,6.15,2.05a6.19,6.19,0,0,0,4.91-4.1,15.49,15.49,0,0,0,.71-7.91,29.26,29.26,0,0,0-4.7-11.84,19.07,19.07,0,0,1,.51,2.73c.59,5.27-1.32,10.29-4.75,12.47a15.77,15.77,0,0,1-2.51,1.22,11.27,11.27,0,0,0-2.92,1.55A8,8,0,0,0,179.68,121Zm-28.57,9.84h0c-.09.26.18.84.28,1.05.21.44.41.89.63,1.33a4.94,4.94,0,0,0,0-1.53,1.3,1.3,0,0,0-.57-.75A.51.51,0,0,0,151.11,130.89Zm-1.73-24a1.07,1.07,0,0,0,.27.2c.43.21.93-.12,1.23-.53A3.93,3.93,0,0,1,149.38,106.93Zm7.38-6.15a30.42,30.42,0,0,1,3.15-.64c.77-.13,1.49-.25,2.2-.41a1.6,1.6,0,0,0,.82-.35,2.85,2.85,0,0,0,.34-1.67c0-.3,0-.62.06-.93a5.79,5.79,0,0,1,3.84-4.85,14.41,14.41,0,0,1,4.26-.69l1.23-.08c.66-.06,1.34-.14,2-.23a18.07,18.07,0,0,1,5.77-.11A11.91,11.91,0,0,1,184,92.16l0,0a17.08,17.08,0,0,0-11-4.32c-4.13-.06-7.67,1.54-9.72,4.41a22.21,22.21,0,0,0-1.52,2.62,18.82,18.82,0,0,1-2.08,3.38,16.06,16.06,0,0,1-2.56,2.32Z"/><path class="cls-4" d="M140.52,94.64c4.68,6.49,1.71,7.78,1.71,7.78L97.75,144.29s-9.92,9-15.77-3,.3-16.86.3-16.86S123.56,84,127.17,82s4.22.32,4.22.32L134.83,87Z"/><path class="cls-2" d="M80.73,138.49l-.84-2.7a21.93,21.93,0,0,1,5.68-10.23c2.88-2.82,5.72-5.65,8.46-8.39,9.38-9.38,19.46-19.26,30.45-28A44.41,44.41,0,0,0,129,84.89c.76-.8,1.55-1.63,2.35-2.42l1,1.35c-.79.77-1.57,1.59-2.32,2.38a45.33,45.33,0,0,1-4.61,4.42c-10.94,8.67-21,18.53-30.35,27.88-2.75,2.74-5.58,5.58-8.47,8.4C83.94,129.44,81.83,134.52,80.73,138.49Z"/><path class="cls-2" d="M83.51,143.87,82.32,142c1.21-4.35,4.55-8.89,7.22-11.5,1.37-1.34,2.79-2.57,4.16-3.76s3-2.59,4.45-4c3.11-3.11,6.22-6.42,9.23-9.61,6.49-6.9,13.19-14,20.53-19.85a33.17,33.17,0,0,0,4-4c.79-.88,1.61-1.78,2.51-2.67l1,1.35c-.88.85-1.68,1.75-2.46,2.61a34.57,34.57,0,0,1-4.15,4.1c-7.27,5.76-13.94,12.86-20.4,19.73-3,3.2-6.12,6.52-9.25,9.64-1.48,1.48-3,2.81-4.51,4.1s-2.76,2.39-4.11,3.71A32.63,32.63,0,0,0,83.51,143.87Z"/><path class="cls-2" d="M86.29,146.5l-1.34-1c1-3.55,4.27-5.35,7-7.82.61-.55,1.18-1.08,1.67-1.56,1.47-1.44,3.14-3.29,4.75-5.07,1.46-1.62,3-3.3,4.33-4.65,3.09-3.09,6.07-6.26,9-9.31,6.45-6.85,12.55-13.33,19.9-19.16a16.91,16.91,0,0,0,3.23-3.78,23,23,0,0,1,2.72-3.4l1,1.35a22,22,0,0,0-2.57,3.22,18.15,18.15,0,0,1-3.47,4c-7.29,5.78-13.36,12.22-19.78,19-2.89,3.07-5.87,6.24-9,9.34-1.33,1.33-2.83,3-4.28,4.6-1.62,1.8-3.3,3.66-4.8,5.13-.51.5-1.09,1-1.7,1.59C90.26,141.41,87.16,143.36,86.29,146.5Z"/><path class="cls-2" d="M91.78,147.41l-1,0L89,147.4h0c1.5-.47,4.7-3.82,7.26-6.51,1.47-1.54,2.85-3,3.8-3.79,1.37-1.15,2.83-2.53,4.25-3.87s3-2.87,4.5-4.09c5.39-4.47,9.59-9.31,14.05-14.44a159.26,159.26,0,0,1,11.73-12.53c1.52-1.41,3-2.65,4.53-3.84.78-.63,1.58-1.28,2.37-1.94l.89,1.41c-.8.67-1.61,1.33-2.39,2-1.46,1.18-3,2.4-4.46,3.79A158.36,158.36,0,0,0,123.86,116c-4.49,5.16-8.73,10-14.19,14.58-1.43,1.19-3,2.64-4.45,4s-2.9,2.74-4.3,3.91c-.9.75-2.26,2.18-3.7,3.7C94.29,145.29,93.56,146.86,91.78,147.41Z"/></svg>