<?xml version="1.0" encoding="UTF-8"?>
<svg width="127px" height="137px" viewBox="0 0 127 137" version="1.1" xmlns="http://www.w3.org/2000/svg" xmlns:xlink="http://www.w3.org/1999/xlink">
    <title>Group 64</title>
    <g id="Page-1" stroke="none" stroke-width="1" fill="none" fill-rule="evenodd">
        <g id="MISSON-ET-CHIFFRES-CLES" transform="translate(-897.000000, -2467.000000)">
            <g id="Group-64" transform="translate(897.000000, 2467.000000)">
                <path d="M32.1939357,84.6476452 C32.2886222,85.5353367 33.5431728,85.5031949 34.9611253,85.2906618 C36.3788974,85.0777675 36.0124156,85.4510096 38.0062422,85.4123672 C39.9998884,85.3737248 40.6648579,84.6915242 40.7517891,84.4031509 C40.8295222,84.1474611 39.8628184,83.966528 38.8273993,83.7503834 C38.6973632,83.7236588 38.5666057,83.695309 38.4358482,83.6667787 C37.2684091,83.4105471 36.4730428,82.5685404 35.4572824,81.8440859 C34.4950875,81.1577321 33.8467106,78.0123501 33.8467106,78.0123501 L31.0126093,77.9955569 C31.0126093,77.9955569 31.9032032,80.8401061 32.3668963,81.8294596 C32.6397737,82.4110817 32.3490412,83.1582882 32.2577815,83.7184222 C32.2085445,84.0232276 32.1602093,84.3347141 32.1939357,84.6476452" id="Fill-1" fill="#A75118"></path>
                <path d="M34.9610892,85.2905895 C36.3788613,85.0776953 36.0123796,85.451118 38.0062061,85.4124756 C39.9998523,85.3738332 40.6648219,84.6916325 40.7517531,84.4032592 C40.8294861,84.1475694 39.8627824,83.9664558 38.8273633,83.7504918 L38.8158205,83.7696324 C38.8158205,83.7696324 37.5556789,84.5018515 35.9092164,84.3913415 C34.5670131,84.3015972 33.1836889,83.7880507 32.2577454,83.7185306 C32.2085084,84.0231554 32.1601732,84.3346419 32.1938997,84.647573 C32.2887665,85.5352645 33.5433171,85.5033032 34.9610892,85.2905895" id="Fill-3" fill="#FF9A00"></path>
                <path d="M10.0361293,84.506763 C10.09745,85.3977048 11.3523614,85.4128728 12.776987,85.253789 C14.2019733,85.0947051 13.8216042,85.4536821 15.8154307,85.4905188 C17.8092573,85.5271749 18.4994765,84.8704348 18.5972291,84.585673 C18.684521,84.3328723 17.7250314,84.1154637 16.6986301,83.8604962 C16.5696761,83.8288961 16.4401811,83.7956709 16.3106861,83.7622651 C15.1535272,83.4623352 14.3904444,82.5908952 13.4024587,81.8285206 C12.4669564,81.106233 13.236532,78.1107257 13.236532,78.1107257 L11.0859768,77.0937447 C11.0859768,77.0937447 10.7903746,80.1811631 10.6307603,81.7425684 C10.5654717,82.382154 10.2473252,83.0244483 10.1347835,83.5809709 C10.0743646,83.8836094 10.0141259,84.1931096 10.0361293,84.506763" id="Fill-5" fill="#A75118"></path>
                <path d="M12.7770411,85.2537348 C14.201847,85.094651 13.8216583,85.4536279 15.8154848,85.4906452 C17.809131,85.5273013 18.4995307,84.8703807 18.5972832,84.5856188 C18.6845751,84.3328181 17.7250855,84.1154095 16.6986842,83.860442 L16.68642,83.8794021 C16.68642,83.8794021 15.3995858,84.563589 13.7581733,84.3909623 C12.4204789,84.2504773 11.0575348,83.6851067 10.1348376,83.5809167 C10.0744187,83.8835552 10.01418,84.1930555 10.0361834,84.5067089 C10.0975041,85.3976506 11.3524155,85.4128187 12.7770411,85.2537348" id="Fill-7" fill="#FF9A00"></path>
                <path d="M14.8669789,40.0490398 C14.8669789,40.0490398 14.2712657,42.9369263 13.6744704,57.5822104 C13.6744704,57.5822104 12.5679914,60.2936781 11.7654108,63.6095199 C10.9628303,66.9251812 10.396515,80.7602392 10.396515,80.7602392 C10.396515,80.7602392 10.7162847,81.2221421 11.6880384,81.2804668 C12.4814209,81.3283184 13.0987767,80.9799952 13.0987767,80.9799952 C13.0987767,80.9799952 18.6786053,62.8592436 21.394574,55.8243429 C24.1105427,48.7892616 25.7019968,38.7438661 25.7019968,38.7438661 L14.8669789,40.0490398 Z" id="Fill-9" fill="#FFFFFF"></path>
                <path d="M21.5776345,41.2855421 C21.5776345,41.2855421 22.0175208,44.201056 26.5222522,58.1475268 C26.5222522,58.1475268 26.4219747,61.0749585 26.8158704,64.4637514 C27.2095858,67.8525443 31.7691452,81.1950021 31.7691452,81.1950021 C31.7691452,81.1950021 32.3745975,81.4057295 33.2832269,81.1653883 C34.1276499,80.942382 34.7899141,80.4338916 34.7899141,80.4338916 C34.7899141,80.4338916 33.0419117,61.3633318 33.1569783,53.8221075 C33.2720449,46.2807026 31.2910236,36.3050079 31.2910236,36.3050079 L21.5776345,41.2855421 Z" id="Fill-11" fill="#FFFFFF"></path>
                <path d="M29.5555378,0.894568952 C28.8494473,0.444583772 27.9808567,0.355922968 27.3699937,0.361520697 C27.5348383,0.207131721 27.8461314,0.163613892 27.8461314,0.163613892 C27.471173,0.0884959809 26.6096162,0.421470568 26.6096162,0.421470568 C21.4566883,-1.86854229 20.2439801,5.83555791 20.2645406,7.64073521 C20.2843796,9.4453708 20.1943824,11.5174334 17.4906779,13.0001093 C12.1714625,15.9172483 16.2491128,21.6789366 16.2491128,21.6789366 C15.2914268,24.4295884 18.8361275,27.7996018 18.8361275,27.7996018 C18.7760693,26.3387751 25.473559,17.0320993 29.0846304,14.9087543 C29.9983098,13.6969362 30.4115035,11.4959453 30.4430656,11.3225963 C30.2082432,13.072338 29.8588952,14.0430926 29.562752,14.5846277 C32.6596308,12.0046164 31.4269032,2.08688522 29.5555378,0.894568952" id="Fill-13" fill="#FF9A00"></path>
                <path d="M28.4330793,13.9121418 C28.4512952,13.9204481 26.7436923,14.807959 25.458842,14.4563855 C24.2504622,14.1264807 23.4610476,12.557672 23.4772796,12.5540606 C23.9889472,12.4523986 24.1370188,11.7483487 24.1260172,8.72340822 L24.3574129,8.76891234 L28.1073578,9.51286858 L28.2471331,9.53995436 C28.2471331,9.53995436 28.1580376,10.7653153 28.1553323,11.9200726 C28.1544305,12.1643864 28.1580376,12.4050887 28.1672357,12.6302619 C28.1924855,13.3007254 28.2669722,13.8339542 28.4330793,13.9121418" id="Fill-15" fill="#A75118"></path>
                <path d="M23.9555455,8.34491146 C23.9555455,8.34491146 22.8149793,6.54063701 22.5412001,4.99765011 C22.3455147,3.89598094 22.906239,-0.186930341 27.0040891,0.401011772 C27.0040891,0.401011772 28.1946137,0.518383508 29.3133569,1.27516035 C30.2032293,1.87682593 31.4873582,3.17567962 30.0515506,6.73854382 L29.6783957,7.94241669 L23.9555455,8.34491146 Z" id="Fill-17" fill="#FF9A00"></path>
                <path d="M28.4762202,11.3541603 C28.4762202,11.3541603 23.370365,10.6784602 23.8396492,7.50129759 C24.3089334,4.32413497 23.9658978,2.09732228 27.2458372,2.39436306 C30.5255962,2.69140383 30.978468,3.9974804 31.0796473,5.09607985 C31.1804658,6.19467931 29.81662,11.4480577 28.4762202,11.3541603" id="Fill-19" fill="#A75118"></path>
                <path d="M29.5770181,2.66272902 C29.5770181,2.66272902 27.6279196,6.1813531 25.4055831,6.41320742 C23.1834269,6.64488117 22.3404468,5.93216387 22.3404468,5.93216387 C22.3404468,5.93216387 24.1764625,4.87130395 24.8564016,2.64304668 C24.8564016,2.64304668 28.7890463,0.73205424 29.5770181,2.66272902" id="Fill-21" fill="#FF9A00"></path>
                <path d="M29.1865491,2.91365173 C29.1865491,2.91365173 30.1041963,3.90101889 30.2376591,4.74772054 C30.371122,5.59460276 30.2374788,7.2768106 30.7307502,7.29252036 C30.7307502,7.29252036 32.1586222,4.9163747 31.1908363,3.30729848 C30.164976,1.600894 29.1865491,2.91365173 29.1865491,2.91365173" id="Fill-23" fill="#FF9A00"></path>
                <path d="M62.7337546,45.7174902 C61.6626251,43.4458957 58.6847807,41.5661422 56.1756794,41.5652393 C54.3225299,41.5646976 52.6883316,42.1977827 51.4236811,43.2292094 C50.7006372,43.8187766 49.609849,43.4300053 49.4138029,42.5170338 L47.2177982,32.301359 C46.8974874,30.812002 45.4317409,29.8639995 43.9438106,30.1846952 L8.40824866,37.8420273 C6.95476624,38.1553195 6.02990487,39.5890604 6.34264076,41.0444699 L13.9823059,76.5839094 C14.2008964,77.6003487 14.9454026,78.3672375 15.8684604,78.6619309 L15.4020619,78.7944706 L16.7815987,78.7944706 L16.7927807,78.7924843 C16.9615932,78.7876089 17.1322092,78.7679266 17.3033663,78.7310899 L18.07709,78.564422 L27.1972909,76.5990775 C28.4772716,76.3235247 28.9966945,74.7731344 28.136761,73.7848644 C27.3058647,72.8301807 26.708348,71.6477959 26.4535061,70.3083135 C25.7356925,66.5336385 28.0666028,62.7947167 31.7707376,61.7900146 C35.8909517,60.6722746 40.0519261,63.2474104 40.9385522,67.3720338 C41.2722093,68.9236882 41.0932969,70.4663139 40.5156193,71.8233118 C40.2912574,72.3504012 40.4768429,72.8978952 40.8620816,73.210104 L40.3300338,73.4697664 L41.5627615,73.4690441 C41.6551033,73.4713915 41.7501505,73.4634464 41.847362,73.4425 L52.7372079,71.0959682 C54.2256792,70.7750919 55.1725439,69.3070423 54.8522331,67.8167824 L52.669755,57.6641272 C52.4677572,56.7246116 53.3235426,55.9012038 54.2532735,56.1404615 C55.3281904,56.4169171 56.4821029,56.4542955 57.6410653,56.2045646 C62.197739,55.2227951 64.8612243,50.2294403 62.7337546,45.7174902" id="Fill-25" fill="#E9364B"></path>
                <path d="M42.2797402,28.4157312 C42.2797402,28.4157312 44.4963054,28.779403 45.0772294,30.2225336 C45.6579731,31.6656643 44.8469159,32.6429194 44.5349014,32.6396772 C44.2225262,32.6362382 43.6246488,32.4054673 43.3443768,31.6568162 C43.0644656,30.9085263 42.2797402,28.4157312 42.2797402,28.4157312" id="Fill-27" fill="#A75118"></path>
                <path d="M11.7653567,34.8554849 C11.7653567,34.8554849 14.2535368,34.8520541 15.1486396,36.324618 C16.0437423,37.7970012 15.3335036,39.0117084 14.9915502,39.064616 C14.6497771,39.117343 13.9546883,38.9728855 13.5135395,38.2056355 C13.0722104,37.4382049 11.7653567,34.8554849 11.7653567,34.8554849" id="Fill-29" fill="#A75118"></path>
                <path d="M42.3413856,30.0907884 C42.1208112,30.0434785 41.1564521,29.9298988 39.9294957,29.7366869 C37.6707274,29.3816825 34.5211849,28.7570843 33.4644839,27.7812737 C33.1784406,27.5161942 32.5116674,26.0584372 31.8187428,24.3870637 C31.118063,28.0871625 31.0792866,30.9252111 31.2648721,33.0857539 L15.9960023,36.3759546 C17.3055613,33.7260619 19.3316714,30.4403756 18.9516631,27.7812737 C18.8108057,26.7953511 18.2713633,25.442687 18.0697262,23.9231745 C18.0525925,23.7924404 18.0383444,23.6617064 18.0266213,23.528986 C15.8854446,25.2938958 13.4116929,27.2411832 13.3525364,27.6306768 C13.2538821,28.2832636 14.9210854,35.5104734 14.9210854,35.5104734 C14.5069899,36.4644348 12.7090291,36.2638194 12.7090291,36.2638194 C11.0237903,35.0592242 8.5457101,28.2323423 8.74464187,26.7202332 C8.94267186,25.207763 15.0868319,16.5890661 16.57368,14.5291018 C18.0426729,12.4938759 23.4053539,12.5446166 23.5344882,12.5455195 L23.5355704,12.5455195 L23.5370132,12.5455195 C27.8016919,15.1090988 28.1862091,12.9785309 28.1862091,12.9785309 C28.1862091,12.9785309 32.0339066,13.7111111 32.6954494,14.8487141 C33.3569922,15.9870394 36.2565625,24.6167511 36.4616263,24.9208342 C36.8908716,25.5562668 43.9009169,28.0990803 44.0264441,28.8352719 C44.1537748,29.5714636 42.9697431,30.224231 42.3413856,30.0907884" id="Fill-31" fill="#FFE4DD"></path>
                <g id="Group-35" transform="translate(0.000000, 85.415744)" fill="#FFE4DD">
                    <path d="M49.4463878,50.178223 L39.2822912,3.97492928 L42.0801411,3.97492928 C42.7433071,3.97492928 43.2858155,3.431769 43.2858155,2.76780611 L43.2858155,1.20730374 C43.2858155,0.543160281 42.7433071,0 42.0801411,0 L6.58948762,0 C5.92614125,0 5.38363287,0.543160281 5.38363287,1.20730374 L5.38363287,2.76780611 C5.38363287,3.431769 5.92614125,3.97492928 6.58948762,3.97492928 L10.1915413,3.97492928 L0.0270839493,50.178223 C-0.109625279,50.7993903 0.284811505,51.4198354 0.90342978,51.55707 C1.5218677,51.6943047 2.13994491,51.2983105 2.27647378,50.6773237 L12.5504067,3.97492928 L36.923065,3.97492928 L47.196998,50.6773237 C47.3337072,51.2983105 47.9516041,51.6943047 48.5702224,51.55707 C49.1886603,51.4198354 49.5830971,50.7993903 49.4463878,50.178223" id="Fill-33"></path>
                </g>
                <path d="M92.4320256,84.0844234 L91.4629772,84.8724392 C91.4629772,84.8724392 88.8115756,83.9206447 88.2131571,87.0748747 C88.2131571,87.0748747 88.0540839,88.4192325 88.9044586,88.4217922 C89.7548332,88.4242885 89.4040424,88.274775 90.6084543,88.3099865 C91.8128662,88.3455592 92.8111322,87.7095849 92.9875195,86.7310658 L93.563574,85.9020602 L92.4320256,84.0844234 Z" id="Fill-36" fill="#EA8E50"></path>
                <path d="M92.5417537,85.7755154 C91.768571,84.967095 91.8307935,84.3697631 91.8307935,84.3697631 C91.8307935,84.3697631 100.784527,77.0302376 101.692615,76.432364 C102.311414,76.0249938 108.90556,70.1721168 111.98783,66.6038354 C113.516881,64.8338696 115.410791,65.5207651 117.577398,66.1431965 L119.361832,66.6556595 C121.516535,67.27466 122.077079,70.2918359 120.309057,71.7578992 C115.330172,75.8868563 107.04718,80.5313462 105.497568,81.5071568 C101.650231,83.9304317 94.1193204,86.8096507 94.1193204,86.8096507 C94.1193204,86.8096507 93.2058215,86.4698144 92.5417537,85.7755154" id="Fill-38" fill="#FF9A00"></path>
                <path d="M82.062847,130.792759 C82.062847,130.792759 79.8899278,132.422601 76.5603908,131.561453 C76.5603908,131.561453 73.8758039,130.948953 73.2871246,132.289339 C73.2871246,132.289339 77.4042727,134.383612 78.4461846,134.956205 C79.2312707,135.387772 80.0508046,136.06925 80.6301055,136.595798 C81.0885683,137.012558 81.8025945,136.956219 82.1934242,136.474995 C82.3746811,136.251989 82.5817289,135.986548 82.8089764,135.678493 C83.4436463,134.817165 84.9229195,132.034913 84.9229195,132.034913 L82.062847,130.792759 Z" id="Fill-40" fill="#E9364B"></path>
                <path d="M81.0481688,130.039972 C81.0481688,130.039972 82.3714348,133.094527 85.4255694,132.533129 C85.4255694,132.533129 91.6581035,127.379968 95.9330623,122.026553 C97.3214365,120.288006 98.5036648,118.528333 99.1983929,116.917993 C102.033216,110.34644 109.684784,100.545177 114.549685,95.5776444 L102.378055,91.169162 C102.378055,91.169162 98.4793168,99.0211506 93.2923018,108.665857 C89.5538995,115.614806 85.1474617,123.495144 81.0481688,130.039972" id="Fill-42" fill="#FFFFFF"></path>
                <path d="M103.273067,132.525491 C103.273067,132.525491 103.405628,134.96285 100.454477,135.28806 C100.454477,135.28806 98.7679753,135.297089 98.7631057,136.848201 L107.340798,136.875468 C107.340798,136.875468 107.589869,136.249605 107.650288,134.909401 C107.696459,133.880141 106.653825,131.189439 106.653825,131.189439 L103.273067,132.525491 Z" id="Fill-44" fill="#E9364B"></path>
                <path d="M106.370289,91.1692342 C106.370289,91.1692342 100.948091,97.134427 97.5061924,107.881705 C95.6333842,113.728985 100.938532,128.430246 101.972688,133.538084 C101.972688,133.538084 105.531637,133.840542 107.964989,132.898498 C107.964989,132.898498 108.149853,122.348585 106.726851,114.217251 C105.930403,109.666478 113.866211,104.484606 117.3339,96.261723 C119.692766,90.6679666 116.822954,90.7627669 113.295928,90.6286019 L106.370289,91.1692342 Z" id="Fill-46" fill="#FFFFFF"></path>
                <path d="M112.629696,64.5555 C115.646677,66.2610016 121.82276,64.6880398 121.82276,64.6880398 C121.82276,64.6880398 119.31438,61.8173077 120.454225,57.1935835 L118.08544,58.3979981 L115.54117,59.6917958 C115.54117,59.6917958 115.376686,60.5083419 115.26234,61.9751275 C115.233303,62.3527033 115.207152,62.7746999 115.188936,63.2355194 C113.640226,63.7057286 112.629696,64.5555 112.629696,64.5555" id="Fill-48" fill="#FFB07B"></path>
                <path d="M101.567629,90.8609799 C101.567629,91.3918613 102.178311,91.6461066 102.307987,91.6717478 C103.524843,91.8945735 106.922194,93.2178044 109.982821,93.5211652 C112.559916,93.7914813 114.952689,93.5348886 117.581365,93.0063547 C117.929451,92.9361122 118.74646,92.7158145 118.804534,92.3819371 C118.877217,92.0171818 128.943742,71.8355632 121.11795,63.1663062 C120.934349,62.9629822 119.389426,63.329182 117.976884,63.6650458 C116.672375,63.9747266 115.475538,63.8019193 114.406934,63.3728804 L113.082225,64.0707908 C111.455241,64.9785258 108.376939,68.2031788 108.016769,70.7335329 C107.833709,72.0202882 107.098762,72.9731662 106.886123,74.1051714 C106.807127,74.5239177 106.726508,74.932913 106.644266,75.3314352 C106.484111,76.113131 106.318725,76.8570872 106.14865,77.5647485 C105.688564,79.4784495 105.202687,81.1259875 104.725648,82.5492553 C104.217768,84.0604615 103.719988,85.3174225 103.275232,86.3685316 C102.698275,87.7322106 102.210415,88.7511778 101.905975,89.5316096 C101.690811,90.0809093 101.567629,90.5115733 101.567629,90.8609799" id="Fill-50" fill="#FFFFFF"></path>
                <path d="M61.7670816,75.2757288 L64.8107556,65.6122429 C65.1065381,64.6739913 66.0764883,64.2296038 66.9234362,64.4683199 L66.9259612,64.4688616 C66.97105,64.4818628 67.0154174,64.4972114 67.0596044,64.5136434 L68.1269464,64.8706341 C68.1269464,64.8706341 69.7975764,66.5934706 70.9974795,66.9410715 C74.6839394,68.0089737 78.1831906,66.0416428 79.5282796,62.4430254 C81.0241455,58.4402881 79.2884072,54.0449874 75.2699134,52.7759281 C73.8948855,52.3418332 71.188656,53.1509759 71.188656,53.1509759 L70.102557,52.7896515 C69.5124349,52.6099825 69.1071768,51.9725637 69.318012,51.3033642 L72.6682899,40.667318 C73.1262117,39.2133531 74.6743806,38.4063772 76.1266005,38.8650299 L86.0189019,41.9883821 C86.9343848,42.2774777 87.8330947,41.5011991 87.681957,40.5522937 C87.5075536,39.4547777 87.5778921,38.3011038 87.9346346,37.1694597 C89.3363551,32.7187235 94.5506038,30.5298309 98.838909,33.0719221 C100.997941,34.3518158 102.589215,37.4955726 102.355655,39.9968546 C102.183235,41.8439245 101.401035,43.4139972 100.257222,44.5785054 C99.6034346,45.244274 99.8883958,46.3677924 100.777727,46.6485817 L110.73153,49.7914357 C112.183028,50.2497272 112.988494,51.7992146 112.530753,53.2522767 L101.598163,87.9605437 C101.150882,89.3802 99.6387842,90.1683964 98.2206514,89.7203975 L63.592276,78.7865883 C62.1198563,78.3217962 61.302667,76.7499178 61.7670816,75.2757288" id="Fill-52" fill="#E9364B"></path>
                <path d="M93.592016,85.6469663 L92.3639776,86.0976737 C92.3639776,86.0976737 89.905015,84.35678 88.3739799,87.188328 C88.3739799,87.188328 87.8201091,88.425065 88.6966353,88.6935754 C89.5735222,88.9620858 89.2546542,88.7092851 90.4866605,89.1200862 C91.7188471,89.5310679 92.9326375,89.2351105 93.3981342,88.3537391 L94.2326376,87.740878 L93.592016,85.6469663 Z" id="Fill-54" fill="#FFB07B"></path>
                <path d="M92.5813957,87.3855125 C92.1272614,86.1995163 91.9200333,85.6624954 91.9200333,85.6624954 C91.9200333,85.6624954 101.198586,78.0902127 102.144008,77.4408762 C102.788417,76.9982944 109.202028,72.1983321 112.329026,68.4576046 C113.880261,66.6018672 116.325697,65.7537209 118.691415,66.2502937 L120.638891,66.659289 C122.990903,67.1531532 123.755248,70.133673 121.930595,71.6995925 C116.792095,76.1098807 108.125668,81.2253021 106.509866,82.2890512 C102.498225,84.9304569 93.6256522,88.6314586 93.6256522,88.6314586 C93.6256522,88.6314586 92.9379579,88.317083 92.5813957,87.3855125" id="Fill-56" fill="#FFFFFF"></path>
                <path d="M113.998393,58.9255028 C113.998393,58.9255028 118.493386,62.1552119 120.459077,59.321497 C122.424948,56.4879627 124.328958,54.9964388 121.54211,52.8145885 C118.755081,50.6327382 117.441554,51.3221617 116.555649,52.1080107 C115.669745,52.8942207 112.87983,58.0123507 113.998393,58.9255028" id="Fill-58" fill="#FFB07B"></path>
                <path d="M116.080756,49.5489818 C116.241994,48.4597721 116.604508,47.6932443 116.604508,47.6932443 C116.604508,47.6932443 116.886764,48.8631697 119.022169,48.7017384 C121.157574,48.5404877 124.54212,48.9121047 125.670422,51.3483808 C125.742023,51.5033115 125.806229,51.6631176 125.862861,51.826174 C126.067203,51.2860835 126.11644,50.4767602 126.11644,50.4767602 C126.522239,51.5255218 126.11644,52.8375573 126.11644,52.8375573 C126.122392,52.8756579 126.127442,52.9141197 126.132852,52.9525816 C126.60412,53.3514649 127,54.5914521 127,54.5914521 C126.8577,54.2458375 126.510877,54.0199421 126.201568,53.8809017 C126.211307,55.7767261 125.443354,57.6301161 124.09556,58.1819438 C122.124639,58.9885585 122.14033,58.3731695 120.158046,59.6893581 C120.158046,59.6893581 119.626539,59.0290066 119.989053,58.5851609 C120.351928,58.1414957 121.721545,57.4961318 120.956117,56.8505872 C120.19051,56.2050427 119.908615,56.9313028 119.626539,56.4874571 C119.344464,56.0437919 120.754661,54.7527028 118.94155,53.5426905 C117.128439,52.3324976 115.919519,50.6380109 116.080756,49.5489818" id="Fill-60" fill="#E9364B"></path>
                <path d="M32.1957032,55.7416952 L32.089474,55.8327034 L31.9520434,55.8074233 C30.7184139,55.5802639 29.5975064,55.0891083 28.6179975,54.3498469 C28.6084386,54.3095794 28.5826478,54.2707564 28.5346734,54.2337392 C27.7533747,53.6351433 27.0640572,52.8754774 26.4861992,51.9760487 C25.5065098,50.4514801 25.1867401,49.0605348 25.1735742,49.0022101 L25.1236158,48.7795649 L25.3557329,48.690543 C26.5967569,48.2143748 27.5649035,47.4413465 28.1588132,46.8768788 C28.7943848,46.2725046 29.1558166,45.7613056 29.1715075,45.7390952 L29.312906,45.5354101 L29.5385303,45.6408641 C29.5985886,45.6684916 30.1488522,45.9153334 30.9838967,46.1132402 C31.7801649,46.3021184 33.0053176,46.4821486 34.3177623,46.2678097 L34.5632257,46.2279034 L34.6317607,46.4454925 C34.6497962,46.5025532 35.0727291,47.8656905 34.9926514,49.6764655 C34.9453983,50.7449095 34.7318578,51.7488893 34.3574404,52.6598745 C34.3341746,52.7165741 34.3311086,52.7646062 34.3421102,52.805596 C33.8675957,53.9365179 33.1463554,54.9246073 32.1957032,55.7416952 M36.9698852,49.4823507 C36.5601183,47.9633799 36.0531398,46.6193832 35.4563445,45.4794328 C33.7254759,42.172439 31.2412636,40.5806977 28.1983109,41.4033833 C25.1896258,42.2166791 23.8393065,44.7938013 23.9706051,48.4567023 C24.0174975,49.7757801 24.2568288,51.2357039 24.679942,52.8045126 C24.8658882,53.4944778 25.0852001,54.1588019 25.3326474,54.793151 C25.3414849,54.7880949 25.3499615,54.7824972 25.3587989,54.7774412 C25.3604221,54.7843029 25.3609632,54.7915258 25.3625864,54.7983875 C25.5698145,55.5663598 28.053125,55.0499242 28.5395429,54.5454063 C29.5338411,55.2857511 30.6680948,55.7796153 31.9150705,56.0089416 L32.1484501,56.0519177 L32.3289857,55.8971676 C33.2870324,55.0739403 34.0167495,54.0804337 34.5037085,52.9455393 C35.1538889,53.1634895 37.4707316,52.4540225 37.4305124,51.7001348 C37.427807,51.6466856 37.4214946,51.593778 37.4074269,51.542315 L37.4072466,51.5421344 C37.3020995,50.8651704 37.1570939,50.1764691 36.9698852,49.4823507" id="Fill-62" fill="#FFFFFF"></path>
            </g>
        </g>
    </g>
</svg>