<svg height="130" viewBox="0 0 130 130" width="130" xmlns="http://www.w3.org/2000/svg"><g fill="none" fill-rule="evenodd"><circle cx="65" cy="65" fill="#ff9ca8" r="65"/><g transform="translate(11 42)"><path d="m102 48.9994255c0 1.1042803-10.0735553 2.0005745-22.5005279 2.0005745-12.4259168 0-22.4994721-.8962942-22.4994721-2.0005745 0-1.1042804 10.0735553-1.9994255 22.4994721-1.9994255 12.4269726 0 22.5005279.8951451 22.5005279 1.9994255" fill="#474747" opacity=".211798"/><path d="m46 49.5c0 1.3811421-10.2980146 2.5-23.000516 2.5s-22.999484-1.1188579-22.999484-2.5 10.2969826-2.5 22.999484-2.5 23.000516 1.1188579 23.000516 2.5" fill="#474747" opacity=".211798"/><g fill="#c5e2e0"><path d="m98.6962259 19c-.2526123 0-.4959069-.1524608-.6191071-.4184073-.1760004-.3782861-.0403766-.8425463.3012712-1.0374209l9.608583-5.4587828c.341648-.1948746.760943-.0447065.935908.3335796.176001.378286.040377.8425462-.301271 1.0362745l-9.6085835 5.4599291c-.101459.0573161-.2101651.0848278-.3168006.0848278"/><path d="m107.758258 14c-.149077 0-.299284-.0431501-.43142-.1327696-.344458-.2334532-.43029-.6970403-.191993-1.0333899l2.482356-3.51286197c.238297-.33856244.711503-.42264985 1.055961-.18809025.344458.23345319.43029.69593391.191993 1.03338992l-2.482356 3.512862c-.147947.2080057-.383986.3208598-.624541.3208598"/><path d="m113.196296 15c-.08254 0-.166277-.0129909-.248818-.0389726l-4.392592-1.4124619c-.422273-.1369946-.651951-.5845892-.51558-1.001478.137568-.4157079.590943-.6436386 1.013216-.5078249l4.392592 1.4124619c.422273.1358136.651951.5845891.51558 1.000297-.111251.3354006-.425862.5479785-.764398.5479785"/><path d="m109.703509 14c-.255255 0-.501094-.1284177-.625583-.3524244-.177842-.3186303-.040799-.7096766.304422-.8738195l3.594489-1.7022582c.344176-.1631773.768903-.0376563.945698.280974.176796.3186303.040799.7096766-.304422.8738195l-3.59449 1.7022582c-.10252.0482773-.212363.0714504-.320114.0714504"/></g><path d="m107 12-10 5" fill="#6b6b6b"/><path d="m96.8772806 18c-.3179619 0-.6248835-.1730541-.7805523-.4750722-.2208069-.4298797-.0507856-.9578602.3797878-1.1783114l10.2465429-5.250044c.431677-.2204511.959406-.0507037 1.180213.379176s.050785.9578602-.379788 1.1783114l-10.246543 5.250044c-.128068.065033-.2649682.0958962-.3996604.0958962" fill="#fff"/><path d="m110 9-3 3" fill="#6b6b6b"/><path d="m107.838302 13c-.164807 0-.330671-.0482865-.476462-.1480087-.38138-.2624268-.476461-.7809821-.212347-1.1599264l2.32209-3.33282022c.263058-.37789457.786003-.47341792 1.166327-.21099114.381381.26242679.476462.78098213.213405 1.15992641l-2.323147 3.33282025c-.162694.2330349-.424695.3589998-.689866.3589998" fill="#fff"/><path d="m111 14-4-1" fill="#6b6b6b"/><path d="m112.093948 15c-.092392 0-.187065-.0140069-.280598-.0420208l-4.188434-1.2886379c-.474507-.1476115-.734573-.6292345-.580587-1.0785338.155127-.4492993.666135-.6949594 1.141782-.5484253l4.188435 1.2886378c.475647.1465341.735714.6292346.580586 1.0785339-.124329.3609479-.48021.5904461-.861184.5904461" fill="#fff"/><path d="m112 11-4 2" fill="#6b6b6b"/><path d="m107.948938 14c-.343933 0-.675925-.1873933-.844309-.51563-.238843-.4654992-.054934-1.0360342.41081-1.2747518l4.103318-2.1042954c.465743-.23991121 1.036577-.0560987 1.276614.4105942.238843.4654993.054934 1.0360343-.41081 1.2747518l-4.103318 2.1054891c-.138528.0704216-.286611.1038421-.432305.1038421" fill="#fff"/><path d="m34.4941115 38h-16.988223c-5.7790771 0-10.5058885-4.7278594-10.5058885-10.5058885v-16.988223c0-5.77802905 4.7268114-10.5058885 10.5058885-10.5058885h16.988223c5.7780291 0 10.5058885 4.72785945 10.5058885 10.5058885v16.988223c0 5.7780291-4.7278594 10.5058885-10.5058885 10.5058885" fill="#c5e2e0"/><path d="m35.4941115 38h-16.988223c-5.7790771 0-10.5058885-4.7278594-10.5058885-10.5058885v-16.988223c0-5.77802905 4.7268114-10.5058885 10.5058885-10.5058885h16.988223c5.7780291 0 10.5058885 4.72785945 10.5058885 10.5058885v16.988223c0 5.7780291-4.7278594 10.5058885-10.5058885 10.5058885" fill="#fff"/><path d="m88.4941115 38h-16.988223c-5.7780291 0-10.5058885-4.7278594-10.5058885-10.5058885v-16.988223c0-5.77802905 4.7278594-10.5058885 10.5058885-10.5058885h16.988223c5.7790771 0 10.5058885 4.72785945 10.5058885 10.5058885v16.988223c0 5.7780291-4.7268114 10.5058885-10.5058885 10.5058885" fill="#c5e2e0"/><path d="m90.4941115 38h-16.988223c-5.7780291 0-10.5058885-4.7278594-10.5058885-10.5058885v-16.988223c0-5.77802905 4.7278594-10.5058885 10.5058885-10.5058885h16.988223c5.7780291 0 10.5058885 4.72785945 10.5058885 10.5058885v16.988223c0 5.7780291-4.7278594 10.5058885-10.5058885 10.5058885" fill="#fff"/><path d="m28.2183206 32.4890219-.2178117.1070221-.2178117-.1070221c-1.9572519-.963199-3.6061069-2.3272063-4.907888-4.052151.0020356-.0734465-.0223919-.1521392-.086514-.2381766-1.0340967-1.3912875-1.8422392-3.0165546-2.4020357-4.8296351-.9475827-3.0742626-.8560495-5.6123655-.8519084-5.7193876l.0173028-.4050052.427481-.0451172c2.2839694-.2413244 4.248346-1.1205844 5.4921119-1.8141297 1.3323155-.7439086 2.1659033-1.4531924 2.2015267-1.4846695l.3277354-.2843431.3287532.2864416c.0885496.075545.8956743.7544009 2.1994911 1.482571 1.2437659.6935453 3.2071247 1.5728053 5.4931298 1.8141297l.4274809.0451172.016285.4050052c.0042251.1070221.0966921 2.645125-.8508906 5.7193876-.5597965 1.8130805-1.3689568 3.4383476-2.4030535 4.8296351-.0641221.0870866-.091603.1678778-.0905852.2434228-1.3007634 1.7228462-2.9486005 3.084755-4.902799 4.0469048m10.7816794-8.535538c0-2.800412-.2412214-5.3448102-.7236641-7.5796837-1.3994911-6.48533014-4.8284987-10.3738002-10.275827-10.3738002-5.3862595 0-8.7979644 3.8003342-10.2279898 10.1545098-.5150127 2.2873353-.7725191 4.9072786-.7725191 7.7989741 0 1.2716745.0661578 2.5139703.194402 3.719543.0173028-.0052462.0335878-.0104924.0508906-.0146894 0 0-.0030534.0241325-.0030534.0367233 0 1.4154199 4.3755725 1.6819259 5.4137404 1.0408425 1.3262087 1.7343878 2.9964377 3.1088874 4.9740458 4.0825788l.3704835.1815179.3704835-.1815179c1.9684478-.9694944 3.6335878-2.3376987 4.956743-4.0615941.9862595.6767575 5.1715012.5340614 5.443257-.7795826.0193384-.093382.0325699-.1867641.0325699-.2822446.1292621-1.211868.1964377-2.4625578.1964377-3.7415769" fill="#e8364b"/><path d="m19.5 36v11" fill="#6b6b6b"/><path d="m19.0006301 48c-.5519849 0-1.0006301-.374169-1.0006301-.8368737v-11.3273066c0-.4616507.4486452-.8358197 1.0006301-.8358197s.9993699.374169.9993699.8358197v11.3273066c0 .4627047-.447385.8368737-.9993699.8368737" fill="#fff"/><path d="m34.5 36v11" fill="#6b6b6b"/><path d="m35 48c-.5516373 0-1-.374169-1-.8368737v-11.3273066c0-.4616507.4483627-.8358197 1-.8358197s1 .374169 1 .8358197v11.3273066c0 .4627047-.4483627.8368737-1 .8368737" fill="#fff"/><path d="m53.2609812 26c-.1351723 0-.2725426-.0380494-.3945273-.1163864l-8.5235482-5.4970187c-.343975-.2215817-.4461785-.6860082-.228584-1.0374056.2175944-.3502782.6747625-.4543545 1.0187376-.2327727l8.5235481 5.4970186c.3439751.2215818.4472775.6871274.2285841 1.0374056-.1406671.2260582-.3802408.3491592-.6242103.3491592" fill="#c5e2e0"/><path d="m75.5 36v11" fill="#6b6b6b"/><path d="m75 48c-.5516373 0-1-.374169-1-.8368737v-11.3273066c0-.4616507.4483627-.8358197 1-.8358197s1 .374169 1 .8358197v11.3273066c0 .4627047-.4483627.8368737-1 .8368737" fill="#fff"/><path d="m90.5 34v13" fill="#6b6b6b"/><path d="m91 48c-.5516373 0-1-.4323657-1-.9645872v-13.0708256c0-.5322215.4483627-.9645872 1-.9645872s1 .4323657 1 .9645872v13.0708256c0 .5322215-.4483627.9645872-1 .9645872" fill="#fff"/><path d="m46 19 8 5" fill="#6b6b6b"/><path d="m54.1495278 25c-.1551872 0-.312515-.0430796-.4537888-.1335467l-8.3009101-5.2890962c-.3959949-.2530926-.5137231-.7808175-.2632831-1.1793037.2515103-.3995632.775936-.518032 1.1730012-.2649395l8.3009101 5.2890962c.3959949.2530926.5137231.7808176.2622128 1.1803807-.1605385.2563236-.4366647.3974092-.7181421.3974092" fill="#fff"/><path d="m52.7206426 26c-.2774738 0-.5410203-.1622207-.6599377-.4347515-.1596277-.3677003.006428-.7959629.3706793-.9571021l12.5602426-5.5468667c.3642513-.1611392.788497.0064889.9481248.3741891.1585564.3677003-.006428.7959629-.3706793.9560207l-12.5602426 5.5479481c-.0942768.0410959-.1917676.0605624-.2881871.0605624" fill="#c5e2e0"/><path d="m65 18-13 6" fill="#6b6b6b"/><path d="m51.8556559 25c-.3296853 0-.6442869-.178982-.7843493-.4796315-.1885456-.4042177.0096966-.8747995.4428126-1.0507649l13.2886881-5.4036466c.433116-.1749599.9373406.0100552 1.1258861.4142729.1885456.4032122-.0096966.873794-.4428126 1.0497594l-13.2886881 5.4036466c-.1120499.0452482-.2273321.0663641-.3415368.0663641" fill="#fff"/><path d="m91.1014604 14.0855725c-.8245726-1.1693611-2.1375986-1.8398372-4.0177026-2.0590924-.1533174-.0201249-.3076176-.0264801-.4668318-.0264801-1.6707667 0-3.5626643.8907905-4.6162301 2.5706879-1.0594627-1.6798974-2.9513603-2.5706879-4.6152473-2.5706879-.1611799 0-.3203941.0063552-.4687975.0264801-1.8781383.2192552-3.1911644.8897313-4.0177025 2.0527372-.8117961 1.1555915-1.0771531 2.742279-.7823119 4.7134575.4432445 2.8979819 4.0304789 6.528933 6.9081288 9.4512766.8314522.8431263 1.5774004 1.5993979 2.0638883 2.166072 0 0 .4923848.5899766.9552854.5899766.4560211 0 .9366122-.597391.9366122-.597391.4815739-.5634965 1.2255565-1.3293009 2.0589743-2.1787825 2.852097-2.91387 6.401002-6.5405842 6.8403154-9.4311517.300738-1.9711785.0353809-3.5515108-.7783807-4.7071023" fill="#e8364b"/></g></g></svg>