<?xml version="1.0" encoding="UTF-8"?>
<svg width="515px" height="139px" viewBox="0 0 515 139" version="1.1" xmlns="http://www.w3.org/2000/svg" xmlns:xlink="http://www.w3.org/1999/xlink">
    <title>Group 18</title>
    <defs>
        <polygon id="path-1" points="0 0.03419 57.9803033 0.03419 57.9803033 47.5378994 0 47.5378994"></polygon>
    </defs>
    <g id="Page-1" stroke="none" stroke-width="1" fill="none" fill-rule="evenodd">
        <g id="MISSON-ET-CHIFFRES-CLES" transform="translate(-698.000000, -808.000000)">
            <g id="Group-18" transform="translate(698.700000, 808.600000)">
                <g id="Group-16">
                    <g id="Group-8" transform="translate(0.000000, 44.200000)">
                        <g id="Group-9" transform="translate(0.000000, 0.737277)">
                            <mask id="mask-2" fill="white">
                                <use xlink:href="#path-1"></use>
                            </mask>
                            <g id="Clip-8"></g>
                            <path d="M56.34538,10.11309 C59.72668,14.54999 56.81468,16.86009 56.81468,16.86009 C54.01448,18.86209 51.21558,20.86409 48.41408,22.86609 C42.72008,26.93769 37.02608,31.00929 31.33078,35.08089 C28.71128,36.95289 26.09178,38.82619 23.47228,40.69949 C19.96228,43.20849 16.74088,46.27779 12.41578,47.18779 C9.53888,47.79229 6.27588,47.75719 3.82798,45.92289 C2.74378,45.11039 1.91828,44.00669 1.34108,42.78729 C-2.55112,34.57129 3.26638,29.92379 3.26638,29.92379 C3.26638,29.92379 42.70058,4.33069 45.90378,2.91499 C49.10828,1.49799 48.63248,0.03419 48.63248,0.03419 C48.63248,0.03419 49.78038,1.49019 51.12068,3.19189 L56.34538,10.11309 Z" id="Fill-7" fill="#C5E2E0" mask="url(#mask-2)"></path>
                        </g>
                        <path d="M68.36271,13.2840972 C69.24151,13.0799972 70.15671,12.9499972 71.06151,12.8199972 C71.71671,12.7250972 72.33681,12.6366972 72.94131,12.5222972 C73.21041,12.4715972 73.48601,12.4091972 73.65631,12.2726972 C73.92541,12.0568972 73.99951,11.6213972 74.08271,11.1156972 C74.11911,10.9063972 74.15551,10.6892972 74.20881,10.4760972 C74.59751,8.93819716 75.95341,7.67589716 77.83711,7.09869716 C79.03311,6.73209716 80.27461,6.66189716 81.47321,6.59299716 C81.82031,6.57219716 82.16611,6.55269716 82.51061,6.52539716 C83.06961,6.48119716 83.64421,6.41619716 84.20061,6.35379716 C85.78271,6.17569716 87.42071,5.99109716 89.05221,6.23679716 C90.02201,6.38109716 90.98531,6.68529716 91.92651,7.13379716 C91.91871,7.12729716 91.91091,7.12209716 91.90441,7.11559716 C89.54621,5.26179716 86.39111,4.23609716 83.02151,4.22430768 C79.56091,4.21269716 76.45521,5.34889716 74.49871,7.33919716 C73.95661,7.89039716 73.49121,8.50659716 72.99851,9.15919716 C72.39011,9.96779716 71.75831,10.8036972 70.96791,11.5043972 C70.24251,12.1478972 69.41961,12.6444972 68.62401,13.1254972 C68.53561,13.1787972 68.44851,13.2307972 68.36271,13.2840972 M61.64691,17.5805972 C61.71321,17.6377972 61.78211,17.6832972 61.85491,17.7131972 C62.19941,17.8522972 62.64661,17.6221972 62.93521,17.3374972 C62.52311,17.4830972 62.08371,17.5688972 61.64691,17.5805972 M61.07491,34.0892972 C61.07231,34.0892972 61.06971,34.0905972 61.06841,34.0905972 C60.97091,34.2699972 61.14901,34.6664972 61.21661,34.8159972 C61.35051,35.1201972 61.48831,35.4269972 61.63001,35.7311972 C61.72751,35.3567972 61.80551,35.0018972 61.76521,34.6742972 C61.74051,34.4909972 61.57151,34.2803972 61.35311,34.1620972 C61.20881,34.0840972 61.10611,34.0814972 61.07491,34.0892972 M85.87761,27.0809972 C86.37291,27.2005972 86.83311,27.3474972 87.24131,27.4995972 C87.92901,27.7530972 88.60891,28.0611972 89.26801,28.3601972 C90.96191,29.1271972 92.56091,29.8525972 94.25741,29.7277972 C95.97731,29.6016972 97.68941,28.5031972 98.72421,26.8599972 C99.90201,24.9931972 100.06191,22.8598972 99.98781,21.3999972 C99.85261,18.6855972 98.83601,15.8879972 97.04331,13.2723972 C97.16551,13.8937972 97.23311,14.5229972 97.24221,15.1534972 C97.29161,18.7843972 95.26621,22.2553972 92.20471,23.7906972 C91.48711,24.1494972 90.72921,24.4042972 89.99731,24.6486972 C89.06911,24.9593972 88.19161,25.2531972 87.41811,25.7393972 C86.84351,26.0994972 86.33781,26.5622972 85.87761,27.0809972 M82.16741,28.1313972 C81.98931,28.1768972 81.81511,28.2314972 81.64091,28.2964972 C80.18881,28.8411972 78.81081,30.4050972 79.01751,32.0794972 C79.06561,32.4772972 79.19821,32.8737972 79.33601,33.2936972 C79.37761,33.4145972 79.41791,33.5380972 79.45691,33.6615972 C80.59831,32.4122972 81.71761,30.9692972 82.83561,29.3143972 L83.14501,28.8541972 C83.34391,28.5538972 83.54671,28.2522972 83.75341,27.9519972 C83.22951,27.9454972 82.69261,27.9961972 82.16741,28.1313972 M69.39751,39.8742972 C70.67541,39.6090972 71.85321,39.1787972 72.90621,38.6782972 C72.75281,38.7042972 72.60201,38.7224972 72.45641,38.7406972 C72.33291,38.7549972 72.20941,38.7692972 72.08851,38.7887972 C71.23961,38.9265972 70.44401,39.3373972 69.59771,39.7715972 C69.53141,39.8053972 69.46511,39.8391972 69.39751,39.8742972 M70.33221,40.8375972 C69.32341,41.0975972 68.31071,41.2509972 67.30061,41.2977972 C65.72891,41.3692972 64.47571,41.1339972 63.46691,40.5775972 C62.31901,39.9431972 61.54681,38.8693972 61.38171,37.7305972 C60.90331,36.9427972 60.53021,36.1042972 60.16361,35.2852972 C60.01151,34.9433972 59.69301,34.2296972 60.03361,33.5796972 C60.28711,33.0947972 60.79931,32.8568972 61.36741,32.9582972 C62.04211,33.0804972 62.80261,33.7005972 62.90791,34.5299972 C62.98331,35.1331972 62.83771,35.6791972 62.69601,36.2069972 C62.60501,36.5475972 62.51921,36.8686972 62.50231,37.1754972 C62.49971,37.2326972 62.49971,37.2911972 62.50101,37.3483972 C62.67651,37.6187972 62.86501,37.8787972 63.07041,38.1231972 C63.91801,39.1280972 64.99701,39.7221972 66.02921,39.7494972 C67.06661,39.7780972 68.04031,39.2775972 69.07121,38.7471972 C69.96041,38.2908972 70.87951,37.8176972 71.90521,37.6525972 C72.04041,37.6304972 72.18081,37.6122972 72.31861,37.5966972 C72.70991,37.5498972 73.07781,37.5043972 73.32091,37.3314972 C73.40151,37.2742972 73.47301,37.2014972 73.54061,37.1156972 C73.51591,36.7971972 73.62511,36.4812972 73.85911,36.2212972 C74.07621,35.9807972 74.38561,35.8026972 74.72621,35.7038972 C74.87311,35.6141972 75.03171,35.5452972 75.19681,35.4971972 C75.23581,35.4763972 75.27741,35.4581972 75.32161,35.4425972 C75.50881,35.3736972 75.71031,35.3658972 75.90401,35.4139972 C75.97811,35.4178972 76.05481,35.4256972 76.13151,35.4360972 C76.38371,35.2397972 76.70481,35.1318972 77.01031,35.1227972 C77.31191,35.1136972 77.57581,35.1955972 77.77731,35.3463972 C78.02821,35.1175972 78.27651,34.8796972 78.52481,34.6339972 C78.46241,34.3141972 78.35581,33.9930972 78.24401,33.6550972 C78.09321,33.2013972 77.93721,32.7307972 77.87351,32.2198972 C77.62261,30.1814972 79.06691,28.0312972 81.23531,27.2187972 C82.34811,26.8014972 83.49861,26.7364972 84.56461,26.8508972 C85.20031,26.0513972 85.91921,25.3207972 86.80581,24.7630972 C87.69631,24.2040972 88.67911,23.8751972 89.63071,23.5566972 C90.35741,23.3135972 91.04381,23.0847972 91.68731,22.7610972 C94.36401,21.4181972 96.13331,18.3683972 96.09041,15.1690972 C96.06961,13.6259972 95.64971,12.0841972 94.89831,10.6749972 C93.05101,8.83939716 90.97361,7.68889716 88.88191,7.37559716 C87.39991,7.15199716 85.90751,7.32099716 84.32801,7.49909716 C83.76381,7.56279716 83.17881,7.62779716 82.60031,7.67329716 C82.24801,7.70189716 81.89441,7.72139716 81.53951,7.74219716 C80.35651,7.81109716 79.23721,7.87479716 78.17511,8.19979716 C77.02071,8.55339716 75.66611,9.41139716 75.32551,10.7581972 C75.28261,10.9271972 75.25271,11.1117972 75.21891,11.3067972 C75.11101,11.9502972 74.98881,12.6795972 74.37911,13.1709972 C74.00211,13.4738972 73.54971,13.5778972 73.15711,13.6532972 C72.52661,13.7728972 71.86361,13.8677972 71.22531,13.9600972 C68.81381,14.3058972 66.31911,14.6633972 64.97491,16.4469972 C64.83321,16.6328972 64.70581,16.8343972 64.57191,17.0475972 C64.34961,17.4011972 64.11951,17.7638972 63.80881,18.0914972 C63.28491,18.6426972 62.34501,19.1535972 61.42331,18.7804972 C60.91501,18.5750972 60.58481,18.1603972 60.35211,17.8210972 C60.20651,17.6078972 60.07261,17.3868972 59.95171,17.1593972 C59.70471,17.0072972 59.47981,16.8083972 59.28871,16.5613972 C58.37871,15.3835972 58.74661,13.9743972 59.22631,12.6626972 L59.23411,12.6210972 C59.27701,12.3779972 59.33161,12.1257972 59.38751,11.8722972 C59.62151,10.7919972 59.84381,9.77019716 59.26401,9.19039716 C59.06901,8.99539716 58.77781,8.85889716 58.46971,8.71589716 C58.38651,8.67689716 58.30331,8.63789716 58.22011,8.59759716 C56.98381,7.99309716 56.25191,6.99729716 55.54341,6.03529716 C55.08061,5.40739716 54.63861,4.80549716 54.07961,4.35569716 C54.07701,4.66639716 54.08741,5.03689716 54.09391,5.32679716 C54.12901,6.60729716 54.13291,7.41589716 53.89111,7.85529716 C53.73901,8.13479716 53.38801,8.23619716 53.10981,8.08279716 C52.83291,7.92939716 52.73021,7.58229716 52.88101,7.30409716 C52.98891,7.05839716 52.96031,5.99499716 52.94341,5.35799716 C52.90311,3.86169716 52.90441,3.24419716 53.35161,2.96599716 C53.55311,2.83859716 53.80531,2.83209716 54.02501,2.94649716 C55.12221,3.51979716 55.80731,4.45189716 56.47161,5.35149716 C57.12421,6.24199716 57.74301,7.08179716 58.72711,7.56279716 C58.80251,7.60049716 58.87921,7.63559716 58.95721,7.67199716 C59.30561,7.83449716 59.69951,8.01779716 60.02841,8.32719716 C59.70861,6.44349716 58.40341,4.80419716 56.58471,3.08169716 C55.69941,2.24189716 54.82191,1.48529716 53.82611,1.44629716 C52.97981,1.40859716 52.53781,4.33359716 52.39091,5.29429716 C52.33501,5.65829716 52.29211,5.94429716 52.24531,6.15359716 C52.17381,6.46429716 51.86701,6.65929716 51.55501,6.58909716 C51.24561,6.51889716 51.05061,6.21079716 51.11951,5.90009716 C51.15981,5.73109716 51.20271,5.44769716 51.25211,5.12009716 C51.53291,3.28709716 52.00611,0.219097157 53.87291,0.294497157 C55.38221,0.355597157 56.58211,1.49309716 57.37771,2.24579716 C59.99591,4.72879716 62.22671,7.58879716 60.82531,11.6707972 C60.73301,11.9424972 60.62511,12.2232972 60.51591,12.5066972 C60.45871,12.6587972 60.40021,12.8095972 60.34431,12.9577972 C60.17011,14.0900972 60.33781,15.2600972 60.80971,16.2974972 C61.47531,16.5509972 62.37751,16.4066972 63.04051,16.0296972 C63.69701,15.6565972 64.25211,15.1183972 64.83971,14.5502972 C65.18941,14.2122972 65.54951,13.8625972 65.93821,13.5440972 C66.59991,13.0032972 67.32531,12.5638972 68.02861,12.1400972 C68.81511,11.6642972 69.55741,11.2170972 70.20351,10.6424972 C70.90811,10.0184972 71.47751,9.26449716 72.07941,8.46499716 C72.57211,7.81239716 73.08301,7.13639716 73.67711,6.53189716 C75.88191,4.28809716 79.20211,3.06089716 83.02541,3.07259716 C86.65111,3.08429716 90.05581,4.19839716 92.61551,6.21079716 C93.95451,7.26119716 95.04261,8.55469716 95.82911,9.97819716 C96.42711,10.5839972 97.00171,11.2560972 97.54381,11.9905972 C99.73821,14.9597972 100.98101,18.1928972 101.13831,21.3414972 C101.21891,22.9677972 101.03691,25.3519972 99.69921,27.4735972 C98.47331,29.4209972 96.42191,30.7248972 94.34191,30.8769972 C92.35291,31.0225972 90.54331,30.2022972 88.79351,29.4092972 C88.15391,29.1193972 87.49091,28.8190972 86.84221,28.5798972 C86.32871,28.3887972 85.72291,28.2054972 85.07291,28.0871972 C84.73621,28.5447972 84.41771,29.0218972 84.10181,29.4937972 L83.78981,29.9591972 C82.45471,31.9377972 81.10921,33.6264972 79.72731,35.0551972 C79.73901,36.0912972 79.24761,37.1884972 78.19331,37.4601972 C78.18941,37.4614972 78.18421,37.4614972 78.17901,37.4627972 C78.18031,37.4666972 78.18031,37.4692972 78.18031,37.4718972 C78.18811,37.6291972 78.12961,37.7825972 78.02171,37.8969972 C77.91251,38.0113972 77.76041,38.0750972 77.60311,38.0750972 C77.25471,38.0737972 76.89851,37.9788972 76.58911,37.8085972 C74.59881,39.2645972 72.47851,40.2863972 70.33221,40.8375972" id="Fill-10" fill="#FFFFFF"></path>
                        <path d="M55.24974,9.18025716 C58.63104,13.6171572 56.02844,14.5297572 56.02844,14.5297572 L15.16944,43.7407572 C15.16944,43.7407572 6.08374,50.0366572 2.19284,41.8193572 C-1.70066,33.6033572 3.86594,30.1934572 3.86594,30.1934572 C3.86594,30.1934572 41.91304,2.00035716 45.11624,0.584657157 C48.32074,-0.832342843 48.63274,0.771857157 48.63274,0.771857157 C48.63274,0.771857157 49.78064,2.22785716 51.12094,3.92825716 L55.24974,9.18025716 Z" id="Fill-12" fill="#FFFFFF"></path>
                        <path d="M1.38099,39.8755972 L0.90389,38.0178972 C2.22209,35.1383972 3.98749,32.8048972 6.53289,30.9211972 C9.18619,28.9581972 11.80699,26.9808972 14.33939,25.0685972 C23.00259,18.5321972 32.29239,11.6382972 42.25299,5.54779716 C43.71419,4.65339716 45.07139,3.58089716 46.38309,2.54219716 C47.08769,1.98449716 47.81699,1.40729716 48.56319,0.857397157 L49.24569,1.78299716 C48.51639,2.32249716 47.79489,2.89319716 47.09809,3.44569716 C45.75909,4.50519716 44.37459,5.59979716 42.85359,6.53059716 C32.93849,12.5950972 23.67339,19.4681972 15.03359,25.9889972 C12.49859,27.9025972 9.87519,29.8811972 7.21669,31.8467972 C4.83769,33.6082972 2.63809,37.1312972 1.38099,39.8755972" id="Fill-14" fill="#E7364B"></path>
                        <path d="M3.25104,43.5648672 L2.41644,42.2661672 C3.79574,39.2553672 6.98464,36.1015672 9.44684,34.2802672 C10.71174,33.3442672 12.00654,32.4875672 13.25844,31.6581672 C14.60394,30.7676672 15.99494,29.8472672 17.33394,28.8358672 C20.20954,26.6661672 23.09684,24.3625672 25.88664,22.1356672 C31.91344,17.3269672 38.14434,12.3557672 44.78864,8.29196716 C46.15754,7.45476716 47.28854,6.52006716 48.48454,5.53076716 C49.22294,4.91976716 49.98604,4.28796716 50.81934,3.67306716 L51.50314,4.59996716 C50.69584,5.19536716 49.94444,5.81676716 49.21774,6.41736716 C48.04384,7.38976716 46.82834,8.39466716 45.38924,9.27476716 C38.80734,13.3008672 32.60374,18.2499672 26.60554,23.0365672 C23.80794,25.2686672 20.91544,27.5761672 18.02684,29.7549672 C16.65924,30.7871672 15.25394,31.7179672 13.89414,32.6188672 C12.65394,33.4391672 11.37214,34.2867672 10.13194,35.2058672 C7.82964,36.9075672 4.53804,40.7542672 3.25104,43.5648672" id="Fill-16" fill="#E7364B"></path>
                        <path d="M5.36354,45.3556172 L4.32484,44.6731172 C5.44934,42.2174172 8.35614,40.9499172 10.83264,39.2261172 C11.39034,38.8387172 11.91554,38.4734172 12.36924,38.1380172 C13.72774,37.1318172 15.28124,35.8474172 16.78404,34.6033172 C18.14904,33.4749172 19.56084,32.3075172 20.80754,31.3676172 C23.66364,29.2122172 26.42874,27.0074172 29.10414,24.8754172 C35.09714,20.0992172 40.75994,15.5882172 47.42374,11.5114172 C48.61974,10.7808172 49.51154,9.85911716 50.45404,8.88411716 C51.22884,8.08331716 52.02964,7.25391716 53.02544,6.51811716 L53.70924,7.44501716 C52.79014,8.12361716 52.02444,8.91661716 51.28214,9.68491716 C50.33054,10.6690172 49.34644,11.6869172 48.02564,12.4942172 C41.42034,16.5346172 35.78614,21.0235172 29.82174,25.7763172 C27.14114,27.9135172 24.36954,30.1222172 21.50044,32.2867172 C20.27584,33.2110172 18.87444,34.3706172 17.51854,35.4912172 C16.00404,36.7444172 14.43624,38.0405172 13.05304,39.0636172 C12.58764,39.4081172 12.05334,39.7786172 11.49044,40.1712172 C9.12834,41.8157172 6.35804,43.1859172 5.36354,45.3556172" id="Fill-18" fill="#E7364B"></path>
                        <path d="M9.89963,45.9415272 L9.01693,45.9792272 L7.54013,45.9519272 L7.54143,45.9519272 C8.84143,45.6178272 11.80413,43.2830272 14.18573,41.4058272 C15.54553,40.3346272 16.83123,39.3206272 17.69313,38.7642272 C18.93853,37.9608272 20.28403,36.9975272 21.58403,36.0654272 C22.95813,35.0813272 24.38033,34.0621272 25.70893,33.2132272 C30.60603,30.0880272 34.54763,26.7171272 38.71933,23.1486272 C42.08373,20.2717272 45.56253,17.2960272 49.62503,14.4217272 C51.01473,13.4376272 52.40313,12.5731272 53.74733,11.7372272 C54.45193,11.2991272 55.18253,10.8454272 55.90403,10.3787272 L56.52933,11.3472272 C55.80003,11.8178272 55.06553,12.2741272 54.35573,12.7161272 C53.02713,13.5429272 51.65173,14.3970272 50.28933,15.3616272 C46.27103,18.2060272 42.81173,21.1635272 39.46813,24.0248272 C35.26523,27.6206272 31.29373,31.0162272 26.32903,34.1856272 C25.02513,35.0176272 23.61723,36.0264272 22.25483,37.0027272 C20.94313,37.9413272 19.58723,38.9137272 18.31843,39.7327272 C17.50073,40.2592272 16.23713,41.2563272 14.89813,42.3106272 C12.17723,44.4556272 11.43493,45.5476272 9.89963,45.9415272" id="Fill-20" fill="#E7364B"></path>
                    </g>
                    <g id="Group-3" transform="translate(126.500000, 0.000000)">
                        <g id="Group-13" transform="translate(66.488304, 69.148757) rotate(119.000000) translate(-66.488304, -69.148757) translate(13.188304, 22.673757)">
                            <path d="M71.0227014,11.1854232 C69.6031014,9.90882324 62.3712014,12.1045232 62.3712014,12.1045232 C62.3712014,12.1045232 61.1843014,11.0060232 59.1225014,9.60462324 C57.0594014,8.20192324 50.4970014,10.7278232 47.7384014,11.1919232 C44.9798014,11.6560232 45.6038014,8.44242324 34.5252014,1.95022324 C23.4466014,-4.54197676 9.54440137,11.3674232 9.54440137,11.3674232 C9.54440137,11.3674232 -2.26999863,28.8836232 6.84560137,37.9277232 C15.9599014,46.9718232 18.9057014,45.5457232 19.1644014,48.3303232 C19.4738014,51.6362232 18.6652014,55.4283232 20.0406014,58.6172232 C20.3669014,59.3712232 20.8011014,60.0628232 21.3887014,60.6426232 C21.9503014,61.1977232 23.4232014,61.6228232 23.7612014,62.2273232 C24.1694014,62.9579232 23.7001014,64.9729232 23.7326014,65.8322232 C23.7794014,67.0789232 23.9042014,68.3516232 24.3683014,69.5216232 C25.1080014,71.3793232 27.1776014,72.7417232 28.6206014,74.0963232 C30.6291014,75.9813232 32.6662014,77.8364232 34.7852014,79.5966232 C36.7599014,81.2372232 38.6761014,82.7868232 41.3125014,82.3435232 C43.2651014,82.0146232 45.2086014,81.5479232 47.1430014,81.1254232 C47.1430014,81.1254232 49.3218014,85.0176232 53.1074014,84.4209232 C56.8930014,83.8229232 60.0611014,80.9031232 63.4645014,82.9662232 C66.8653014,85.0293232 71.1852014,93.3415232 79.9264014,92.3067232 C88.6663014,91.2706232 96.7653014,87.7099232 100.765401,81.5492232 C105.693701,76.1048232 107.061301,67.3636232 105.821101,58.6497232 C104.579601,49.9358232 95.4380014,47.8909232 92.5715014,45.1310232 C89.7063014,42.3724232 91.7161014,38.5608232 91.3222014,34.7479232 C90.9309014,30.9402232 86.6188014,29.8300232 86.6097014,29.8287232 C86.2795014,29.7442232 86.3055014,22.9400232 85.9766014,22.1769232 C85.6165014,21.3384232 84.9314014,20.6858232 84.2424014,20.0878232 C80.2254014,16.6025232 74.9214014,14.6928232 71.0227014,11.1854232" id="Fill-1" fill="#C5E2E0"></path>
                            <path d="M67.6306114,10.7917832 C66.2110114,9.51518324 58.9791114,11.7108832 58.9791114,11.7108832 C58.9791114,11.7108832 57.7922114,10.6123832 55.7291114,9.21098324 C53.6673114,7.80958324 47.1049114,10.3341832 44.3463114,10.7982832 C41.5877114,11.2623832 42.2117114,8.04878324 31.1331114,1.55658324 C20.0532114,-4.93431676 6.15101137,10.9737832 6.15101137,10.9737832 C6.15101137,10.9737832 -5.66208863,28.4899832 3.45351137,37.5353832 C12.5678114,46.5794832 15.5136114,45.1520832 15.7723114,47.9366832 C16.0804114,51.2425832 15.2731114,55.0346832 16.6485114,58.2235832 C16.9748114,58.9788832 17.4090114,59.6704832 17.9966114,60.2489832 C18.5582114,60.8040832 20.0311114,61.2304832 20.3678114,61.8336832 C20.7760114,62.5642832 20.3067114,64.5792832 20.3392114,65.4385832 C20.3873114,66.6852832 20.5108114,67.9579832 20.9762114,69.1279832 C21.7159114,70.9869832 23.7842114,72.3480832 25.2285114,73.7026832 C27.2357114,75.5876832 29.2741114,77.4427832 31.3931114,79.2029832 C33.3678114,80.8435832 35.2840114,82.3944832 37.9204114,81.9498832 C39.8730114,81.6222832 41.8152114,81.1555832 43.7509114,80.7317832 C43.7509114,80.7317832 45.9284114,84.6252832 49.7140114,84.0272832 C53.4996114,83.4292832 56.6690114,80.5107832 60.0711114,82.5725832 C63.4732114,84.6356832 67.7931114,92.9478832 76.5343114,91.9130832 C85.2742114,90.8782832 93.3719114,87.3162832 97.3720114,81.1568832 C102.301611,75.7111832 103.667911,66.9699832 102.427711,58.2560832 C101.186211,49.5434832 92.0446114,47.4972832 89.1794114,44.7386832 C86.3142114,41.9787832 88.3227114,38.1671832 87.9301114,34.3542832 C87.5375114,30.5465832 83.2254114,29.4376832 83.2163114,29.4350832 C82.8874114,29.3505832 82.9121114,22.5463832 82.5845114,21.7832832 C82.2231114,20.9447832 81.5393114,20.2934832 80.8503114,19.6954832 C76.8320114,16.2088832 71.5293114,14.2991832 67.6306114,10.7917832" id="Fill-3" fill="#FFFFFF"></path>
                            <path d="M69.7646914,40.8575332 C63.5220914,37.3566332 57.1585914,33.0705332 51.4437914,28.6388332 C48.4602914,26.3261332 45.6158914,23.8197332 43.0834914,21.0169332 C40.6901914,18.3688332 39.0027914,15.0837332 36.3481914,12.7008332 C31.7929914,8.60843324 26.0209914,4.51993324 19.8407914,7.37863324 C16.2527914,9.03613324 13.7619914,11.9702332 11.3179914,14.9498332 C9.32769137,17.3769332 1.85399137,27.4701332 9.04299137,34.2938332 C12.4554914,37.5321332 15.9082914,40.2036332 20.3191914,41.9729332 C28.6781914,45.3282332 35.5291914,50.9741332 42.3411914,56.7409332 C48.0169914,61.5444332 53.4704914,66.6066332 58.6834914,71.9067332 C64.5386914,77.8620332 70.8124914,85.2200332 79.7993914,85.7010332 C82.0340914,85.8206332 84.3389914,85.3877332 86.2343914,84.1982332 C88.8226914,82.5732332 90.0823914,79.8484332 90.5074914,76.9130332 C98.3269914,73.1781332 98.8833914,62.2074332 93.2842914,56.2755332 C89.0293914,51.7697332 82.8270914,48.5782332 77.5724914,45.4153332 C74.9919914,43.8605332 72.3932914,42.3317332 69.7646914,40.8575332" id="Fill-5" fill="#E7364B"></path>
                        </g>
                    </g>
                    <g id="Group-7" transform="translate(427.900000, 22.100000)">
                        <g id="Group-12" transform="translate(43.015033, 42.641145) rotate(-69.000000) translate(-43.015033, -42.641145) translate(10.190033, 9.166145)">
                            <path d="M51.3526963,11.3572198 C40.6588963,2.77721983 29.0875963,-0.559880167 25.5073963,3.90301983 C24.2801963,5.43181983 24.1514963,7.67821983 24.9405963,10.3146198 C23.2323963,12.6091198 20.6388963,16.1789198 18.9995963,18.8296198 C16.5113963,22.8557198 3.12139633,42.3921198 10.9837963,53.2952198 C7.37499633,57.0886198 0.477196329,64.1372198 1.39759633,66.0677198 C1.58479633,66.4603198 2.01639633,66.7021198 2.44929633,66.7294198 C3.24359633,66.7788198 4.03789633,66.1743198 4.65929633,65.7479198 C5.05319633,65.4775198 10.1621963,59.5092198 13.3029963,55.8211198 C24.6948963,63.5249198 42.7362963,49.3692198 46.6063963,46.5482198 C46.6063963,46.5482198 53.3936963,40.6059198 57.0843963,36.8073198 C60.3070963,37.2441198 62.8563963,36.6838198 64.2278963,34.9730198 C67.8093963,30.5101198 62.0451963,19.9372198 51.3526963,11.3572198" id="Fill-22" fill="#C5E2E0"></path>
                            <path d="M50.0387863,9.43386983 C39.3449863,0.853869833 27.7749863,-2.48323017 24.1934863,1.97966983 C22.9662863,3.50846983 22.8375863,5.75486983 23.6266863,8.39126983 C21.9184863,10.6857698 19.3249863,14.2555698 17.6856863,16.9062698 C15.1974863,20.9323698 1.80748633,40.4687698 9.66988633,51.3718698 C6.06108633,55.1652698 -0.836713671,62.2138698 0.0836863295,64.1443698 C0.270886329,64.5369698 0.702486329,64.7787698 1.13538633,64.8060698 C1.92968633,64.8554698 2.72398633,64.2509698 3.34538633,63.8245698 C3.73928633,63.5541698 8.84828633,57.5858698 11.9890863,53.8977698 C23.3809863,61.6015698 41.4223863,47.4458698 45.2924863,44.6248698 C45.2924863,44.6248698 52.0797863,38.6825698 55.7704863,34.8839698 C58.9931863,35.3220698 61.5424863,34.7604698 62.9152863,33.0496698 C66.4954863,28.5867698 60.7312863,18.0138698 50.0387863,9.43386983" id="Fill-24" fill="#FFFFFF"></path>
                            <line x1="56.3228563" y1="35.0625898" x2="38.2697563" y2="23.4704898" id="Fill-26" fill="#4B64A3"></line>
                            <path d="M60.0325363,29.7990198 C57.7549363,32.6382198 48.7355363,29.1841198 39.8877363,22.0848198 C31.0386363,14.9842198 25.7138363,6.92811983 27.9927363,4.08891983 C30.2690363,1.25101983 39.2884363,4.70381983 48.1375363,11.8031198 C56.9840363,18.9037198 62.3101363,26.9598198 60.0325363,29.7990198" id="Fill-28" fill="#E7364B"></path>
                            <path d="M30.2416063,55.2309198 C30.2247063,55.2257198 30.2104063,55.2205198 30.1935063,55.2140198 C24.3695063,52.8480198 19.6440063,50.5444198 15.4996063,46.9850198 C12.8385063,44.6983198 10.0890063,41.2676198 8.32360633,38.0306198 C8.14940633,37.7108198 8.26770633,37.3130198 8.58620633,37.1388198 C8.90470633,36.9646198 9.30510633,37.0829198 9.47670633,37.4014198 C11.1719063,40.5084198 13.8070063,43.7987198 16.3550063,45.9879198 C20.3642063,49.4316198 24.9844063,51.6793198 30.6875063,53.9959198 C31.0242063,54.1324198 31.1867063,54.5159198 31.0489063,54.8513198 C30.9189063,55.1724198 30.5653063,55.3349198 30.2416063,55.2309198" id="Fill-30" fill="#E7364B"></path>
                            <path d="M33.1894863,53.7087498 C33.1699863,53.7035498 33.1517863,53.6957498 33.1322863,53.6879498 C26.8571863,51.0346498 21.7845863,48.3969498 17.4256863,44.1394498 C14.6332863,41.4120498 11.8083863,37.2468498 10.0546863,33.2701498 C9.90778633,32.9373498 10.0585863,32.5499498 10.3900863,32.4030498 C10.7241863,32.2574498 11.1115863,32.4082498 11.2571863,32.7397498 C12.9484863,36.5721498 15.6641863,40.5813498 18.3434863,43.1995498 C22.5541863,47.3114498 27.5058863,49.8828498 33.6444863,52.4776498 C33.9785863,52.6180498 34.1358863,53.0041498 33.9941863,53.3382498 C33.8615863,53.6541498 33.5092863,53.8114498 33.1894863,53.7087498" id="Fill-32" fill="#E7364B"></path>
                            <path d="M25.5012863,56.9384698 C25.4830863,56.9332698 25.4674863,56.9267698 25.4492863,56.9189698 C20.8771863,55.0339698 17.1721863,53.1814698 13.9429863,50.2681698 C11.8681863,48.3948698 9.74138633,45.5647698 8.39328633,42.8828698 C8.22948633,42.5578698 8.35948633,42.1639698 8.68448633,42.0001698 C9.00688633,41.8376698 9.40338633,41.9676698 9.56718633,42.2926698 C10.8476863,44.8380698 12.8613863,47.5199698 14.8230863,49.2918698 C17.9118863,52.0790698 21.5063863,53.8717698 25.9510863,55.7047698 C26.2864863,55.8425698 26.4463863,56.2273698 26.3072863,56.5627698 C26.1759863,56.8812698 25.8236863,57.0411698 25.5012863,56.9384698" id="Fill-34" fill="#E7364B"></path>
                            <path d="M10.3659063,57.6087498 C9.73280633,57.4072498 9.07760633,57.1212498 8.49780633,56.5180498 C8.11820633,56.1241498 7.73860633,55.5053498 7.48640633,54.8618498 C7.35510633,54.5238498 7.52150633,54.1429498 7.85820633,54.0103498 C8.19620633,53.8777498 8.57710633,54.0441498 8.71100633,54.3821498 C8.89820633,54.8579498 9.18550633,55.3389498 9.44290633,55.6067498 C9.84330633,56.0201498 10.3243063,56.2281498 10.9132063,56.4023498 C11.2486063,56.5089498 11.4592063,56.8742498 11.3539063,57.2213498 C11.2499063,57.5684498 10.8820063,57.7660498 10.5349063,57.6620498 C10.4790063,57.6451498 10.4231063,57.6269498 10.3659063,57.6087498" id="Fill-36" fill="#E7364B"></path>
                            <path d="M8.49962633,59.9149498 C7.86912633,59.7134498 7.21522633,59.4274498 6.63412633,58.8255498 C6.25582633,58.4316498 5.87882633,57.8128498 5.62662633,57.1706498 C5.49272633,56.8326498 5.65912633,56.4504498 5.99712633,56.3178498 C6.33512633,56.1839498 6.71732633,56.3516498 6.84862633,56.6896498 C7.03712633,57.1654498 7.32442633,57.6464498 7.58182633,57.9129498 C7.98222633,58.3289498 8.45932633,58.5317498 9.05212633,58.7098498 C9.05602633,58.7111498 9.05992633,58.7111498 9.06382633,58.7124498 C9.40312633,58.8216498 9.59552633,59.1843498 9.49282633,59.5275498 C9.38882633,59.8759498 9.02222633,60.0735498 8.67512633,59.9695498 C8.61662633,59.9513498 8.55812633,59.9331498 8.49962633,59.9149498" id="Fill-38" fill="#E7364B"></path>
                            <path d="M6.12062633,62.0559198 C5.48882633,61.8544198 4.83622633,61.5684198 4.25512633,60.9678198 C3.87422633,60.5713198 3.49722633,59.9525198 3.24632633,59.3103198 C3.11372633,58.9723198 3.28012633,58.5914198 3.61812633,58.4588198 C3.95612633,58.3262198 4.33832633,58.4926198 4.46962633,58.8319198 C4.65552633,59.3051198 4.94412633,59.7861198 5.20282633,60.0552198 C5.60192633,60.4686198 6.07902633,60.6701198 6.67312633,60.8508198 C6.67702633,60.8521198 6.67962633,60.8534198 6.67962633,60.8534198 C7.02412633,60.9626198 7.21652633,61.3253198 7.11382633,61.6685198 C7.00982633,62.0169198 6.64192633,62.2145198 6.29482633,62.1105198 C6.23762633,62.0923198 6.17912633,62.0754198 6.12062633,62.0559198" id="Fill-40" fill="#E7364B"></path>
                        </g>
                    </g>
                    <g id="Group-5" transform="translate(289.900000, 16.250000)">
                        <g id="Group-11" transform="translate(43.037543, 52.941492) rotate(97.000000) translate(-43.037543, -52.941492) translate(-5.712457, 15.566492)">
                            <path d="M85.5472321,37.0776163 C78.0093121,35.0640382 48.9574321,19.5425121 48.9574321,19.5425121 C48.9574321,19.5425121 38.3119921,14.101335 34.3683121,9.07128295 C30.4261921,4.03967357 24.1393921,-0.82063372 19.3221121,0.116855863 C14.5048321,1.05278816 9.03235211,3.83566836 5.09023211,10.438585 C1.14655211,17.0399444 1.29631211,23.1694444 2.76271211,27.844434 C4.22755211,32.5209809 11.5002721,35.730559 17.8089121,36.7988611 C24.1159921,37.8687204 33.9736321,44.6304809 33.9736321,44.6304809 C33.9736321,44.6304809 61.4670721,62.7620277 66.8272321,68.4227829 C72.1171921,74.0103454 85.9528321,76.6016788 93.7528321,64.210309 L93.7668721,64.2196527 C93.8167921,64.135559 93.8573521,64.0514652 93.9057121,63.9673715 C93.9587521,63.8832777 94.0117921,63.8085277 94.0617121,63.7228767 L94.0476721,63.7150902 C101.273592,50.9484132 92.9868721,39.0662777 85.5472321,37.0776163" id="Fill-42" fill="#C5E2E0"></path>
                            <path d="M83.7343561,38.4988007 C76.1979961,36.4852225 47.1445561,20.9636965 47.1445561,20.9636965 C47.1445561,20.9636965 36.4991161,15.5225194 32.5554361,10.49091 C28.6133161,5.46085795 22.3280761,0.600550655 17.5107961,1.53648295 C12.6935161,2.47397253 7.22103611,5.25685274 3.27891611,11.8597694 C-0.666323886,18.4611288 -0.516563886,24.5906288 0.951396114,29.2656184 C2.41623611,33.9421652 9.68739611,37.1501861 15.9960361,38.2200454 C22.3046761,39.2899048 32.1607561,46.0516652 32.1607561,46.0516652 C32.1607561,46.0516652 59.6541961,64.1832121 65.0159161,69.8439673 C70.3058761,75.4315298 84.1415161,78.0228632 91.9399561,65.6314934 L91.9539961,65.6392798 C92.0039161,65.5567434 92.0460361,65.4710923 92.0943961,65.3885559 C92.1458761,65.3044621 92.1989161,65.2297121 92.2488361,65.1440611 L92.2347961,65.1362746 C99.4622761,52.3695975 91.1755561,40.4874621 83.7343561,38.4988007" id="Fill-44" fill="#FFFFFF"></path>
                            <polygon id="Fill-46" fill="#E7364B" points="86.0422201 50.1945283 76.3405801 66.4386376 9.70830011 26.7837626 19.4099401 10.5396533"></polygon>
                        </g>
                    </g>
                </g>
                <g id="Group-6" transform="translate(6.300000, 32.400000)" stroke="#FF9A00" stroke-linecap="square" stroke-width="3">
                    <line x1="0.5" y1="0.384210526" x2="67.5" y2="72.6157895" id="Line"></line>
                    <line x1="0.5" y1="0.384210526" x2="67.5" y2="72.6157895" id="Line-Copy" transform="translate(34.000000, 36.500000) scale(-1, 1) translate(-34.000000, -36.500000) "></line>
                </g>
                <g id="Group-6-Copy" transform="translate(162.300000, 32.400000)" stroke="#FF9A00" stroke-linecap="square" stroke-width="3">
                    <line x1="0.5" y1="0.384210526" x2="67.5" y2="72.6157895" id="Line"></line>
                    <line x1="0.5" y1="0.384210526" x2="67.5" y2="72.6157895" id="Line-Copy" transform="translate(34.000000, 36.500000) scale(-1, 1) translate(-34.000000, -36.500000) "></line>
                </g>
                <g id="Group-6-Copy-2" transform="translate(298.300000, 32.400000)" stroke="#FF9A00" stroke-linecap="square" stroke-width="3">
                    <line x1="0.5" y1="0.384210526" x2="67.5" y2="72.6157895" id="Line"></line>
                    <line x1="0.5" y1="0.384210526" x2="67.5" y2="72.6157895" id="Line-Copy" transform="translate(34.000000, 36.500000) scale(-1, 1) translate(-34.000000, -36.500000) "></line>
                </g>
                <g id="Group-6-Copy-3" transform="translate(434.300000, 32.400000)" stroke="#FF9A00" stroke-linecap="square" stroke-width="3">
                    <line x1="0.5" y1="0.384210526" x2="67.5" y2="72.6157895" id="Line"></line>
                    <line x1="0.5" y1="0.384210526" x2="67.5" y2="72.6157895" id="Line-Copy" transform="translate(34.000000, 36.500000) scale(-1, 1) translate(-34.000000, -36.500000) "></line>
                </g>
            </g>
        </g>
    </g>
</svg>