<svg height="83" viewBox="-40 0 315 83" width="315" xmlns="http://www.w3.org/2000/svg" xmlns:xlink="http://www.w3.org/1999/xlink"><mask id="a" fill="#fff"><path d="m0 34h152v-34h-152z" fill="#fff" fill-rule="evenodd"/></mask><g fill="none" fill-rule="evenodd"><rect fill="#e9364b" height="83" rx="7" width="235"/><g transform="translate(31 23)"><g fill="#fff"><path d="m36.4476338 8.47190074h.5838397c1.0893855 0 1.6337417-.46804787 1.6337417-1.40370763 0-.77205009-.5339245-1.15791164-1.6018857-1.15791164h-.6156957zm0 2.27767316v4.0802133h-3.1175133v-11.21276592h3.7804322c3.1359091 0 4.7040319 1.10417442 4.7040319 3.31317728 0 1.29874021-.6524872 2.30361524-1.9574615 3.01408009l3.362154 4.88550855h-3.5359038l-2.4466305-4.0802133z"/><path d="m50.9108434 14.8297872h-6.9590362v-11.21276592h6.9590362v2.43116938h-3.7922953v1.76397122h3.5117643v2.43116942h-3.5117643v2.116918h3.7922953z"/><path d="m57.7255302 8.08377851h4.9057951v6.06840899c-1.3322186.4518061-2.7961452.6775997-4.3926639.6775997-1.7517619 0-3.1057477-.5031378-4.0620678-1.5093039-.9564306-1.0061662-1.4344249-2.4411542-1.4344249-4.30474515 0-1.81762229.5234071-3.23203384 1.5704422-4.24334413 1.0467037-1.01141973 2.5136137-1.51707487 4.400288-1.51707487.7153341 0 1.3902276.06665454 2.0253435.20018252.6347844.13363743 1.1880247.30284584 1.6599419.50828192l-.9718997 2.38730519c-.8190873-.4004745-1.7181719-.60065702-2.6979166-.60065702-.8966537 0-1.5896681.288508-2.0793747.86639959-.4900381.57756324-.7350019 1.4029194-.7350019 2.47563066 0 1.05257259.2217602 1.85505389.6647281 2.40678709.4431889.5520616 1.0818406.8278735 1.9165075.8278735.4561166 0 .8758809-.0437796 1.2595139-.1310106v-1.7636639h-2.0292107z"/><path d="m64.8289157 14.8297872v-11.21276592h3.1714517v8.76633632h4.5201145v2.4464296z"/><path d="m80.9445783 14.8297872h-6.9590361v-11.21276592h6.9590361v2.43116938h-3.7922953v1.76397122h3.5117644v2.43116942h-3.5117644v2.116918h3.7922953z"/><path d="m90.4674699 11.256676c0 .6980734-.1809542 1.3182182-.5427509 1.8598873-.3621321.5415595-.8841929.9623956-1.5661823 1.2629458-.6818776.3002219-1.48208.4502781-2.3999362.4502781-.7660917 0-1.4086022-.0524266-1.9280907-.1576083-.5193767-.1051816-1.0597789-.2889485-1.6208712-.5506439v-2.710972c.5928543.2979234 1.208971.5302862 1.8492448.6969789.6398264.1669115 1.2273125.250422 1.7627939.250422.4613326 0 .799755-.0782569 1.0150436-.235099.214953-.1565138.3224296-.3579022.3224296-.6044935 0-.1538869-.0431696-.2886201-.1297324-.404309-.0866746-.1152511-.2255776-.2320344-.4171565-.3502406-.1915789-.1179874-.7015611-.3594345-1.5302823-.7240131-.7504344-.33349477-1.3129806-.65724846-1.6881978-.97016658-.3752172-.31324648-.6529114-.67257148-.8342012-1.07830337-.1808424-.40540354-.2715432-.88556157-.2715432-1.44003628 0-1.0371501.3858419-1.84565872 1.1569663-2.42574478.7711245-.58019551 1.8309034-.87023854 3.1791131-.87023854 1.1909651 0 2.4053044.26946639 3.6433534.80850863l-.9519669 2.34869183c-1.0755481-.48245648-2.0041407-.72390362-2.7858898-.72390362-.4038478 0-.6976468.06928198-.8811733.20806483-.1836384.13856396-.2754575.31072912-.2754575.51583879 0 .22087051.1166472.41842812.3500536.59322009.2332945.17446362.8669698.49263535 1.9004667.95484354.9916694.4364874 1.6801455.90471535 2.0656518 1.40555947.3855063.50040631.5783154 1.13072999.5783154 1.89053329"/><path d="m40.2891566 33.6382979h-6.9590361v-11.212766h6.9590361v2.4312548h-3.7921813v1.763954h3.5116504v2.4311458h-3.5116504v2.1168975h3.7921813z"/><path d="m42.1204819 33.6382979v-11.212766h3.1714517v8.7662512h4.5201146v2.4465148z"/><path d="m58.2361446 33.6382979h-6.9590362v-11.212766h6.9590362v2.4312548h-3.7921813v1.763954h3.5116503v2.4311458h-3.5116503v2.1168975h3.7921813z"/><path d="m65.1119502 33.6382979-2.3679345-8.0759514h-.0711314c.1108615 1.3754765.166236 2.4438988.166236 3.2058118v4.8701396h-2.7716504v-11.212766h4.1653541l2.4153179 7.9608469h.063478l2.3678219-7.9608469h4.1735702v11.212766h-2.8748585v-4.9160287c0-.2557151.0039392-.5393342.0119303-.8514025.0081036-.3119592.0435567-1.0761613.1070348-2.2931511h-.071244l-2.3363079 8.0605823z"/><path d="m82.7759036 33.6382979h-6.9590361v-11.212766h6.9590361v2.4312548h-3.7921813v1.763954h3.5116504v2.4311458h-3.5116504v2.1168975h3.7921813z"/><path d="m95.5951807 33.6382979h-4.0889576l-4.2152792-7.8995887h-.0710138c.0998456 1.242387.1499928 2.1910178.1499928 2.8453474v5.0542413h-2.762694v-11.212766h4.0730272l4.199461 7.7923323h.0474547c-.0739307-1.1302256-.1105033-2.0375452-.1105033-2.722722v-5.0696103h2.7785122z"/><path d="m103.02647 33.6382979h-3.1339784v-8.7356221h-2.8322506v-2.4771439h8.790361v2.4771439h-2.824132z"/><path d="m113.318452 29.0706687-.49647-1.8331524c-.115716-.4072948-.256301-.9341077-.421753-1.5810899-.165565-.6464394-.274672-1.1100738-.327209-1.3899262-.04716.2594442-.140585.6874729-.279713 1.2830005-.139352.5958532-.448078 1.7696482-.926177 3.521168zm1.213618 4.5676292-.567378-2.0927052h-3.743914l-.583397 2.0927052h-3.420514l3.759597-11.212766h4.153793l3.807092 11.212766z"/><path d="m119.036145 33.6382979h3.296385v-11.212766h-3.296385z" mask="url(#a)"/><path d="m128.013899 27.2804114h.58384c1.089385 0 1.633741-.4680479 1.633741-1.4037076 0-.7720501-.533924-1.1579117-1.601885-1.1579117h-.615696zm0 2.2776731v4.0802134h-3.117513v-11.212766h3.780432c3.135909 0 4.703919 1.1042834 4.703919 3.3131773 0 1.2987402-.652375 2.3036152-1.957349 3.0141891l3.362154 4.8853996h-3.535904l-2.44663-4.0802134z" mask="url(#a)"/><path d="m142.477108 33.6382979h-6.959036v-11.212766h6.959036v2.4312548h-3.792181v1.763954h3.51165v2.4311458h-3.51165v2.1168975h3.792181z" mask="url(#a)"/><path d="m152 30.4268888c0 .6980734-.180954 1.3182182-.542751 1.8598872-.362132.5415596-.884193.9623956-1.566182 1.2629459-.68199.3001124-1.48208.4502781-2.399936.4502781-.766092 0-1.408714-.0524266-1.928091-.1576083-.519377-.1051816-1.059779-.2889485-1.620871-.5506439v-2.710972c.592742.2979234 1.208971.5302862 1.849245.6968694.639826.167021 1.227312.250422 1.762793.250422.461333 0 .799755-.0782569 1.015044-.2349895.214953-.1565138.32243-.3579022.32243-.6044935 0-.153887-.04317-.2886202-.129733-.404309-.086674-.1152511-.225577-.2320345-.417156-.3503501-.191579-.1179873-.701561-.359325-1.530283-.7239036-.750434-.3334948-1.31298-.6572485-1.688197-.9701666-.375218-.3132465-.652912-.6725715-.834202-1.0783034-.180842-.405513-.271431-.885671-.271431-1.4400363 0-1.0371501.385842-1.8456587 1.156855-2.4258542.771124-.5800861 1.830903-.8701291 3.179113-.8701291 1.190965 0 2.405304.2694664 3.643353.8083992l-.951967 2.3488013c-1.075548-.4824565-2.004141-.7239036-2.78589-.7239036-.403847 0-.697646.0692819-.881285.2080648-.183526.1385639-.275346.3107291-.275346.5158388 0 .2208705.116648.4184281.350054.5932201.233295.1744636.86697.4926353 1.900467.9548435.991669.4364874 1.680145.9047154 2.065652 1.4055595.385506.5004063.578315 1.13073.578315 1.8905333" mask="url(#a)"/><path d="m13.0735794 33.069966-.2544695.1191699-.2536892-.1191699c-2.2798595-1.0712135-4.20192344-2.5880808-5.71859731-4.5062009.00245218-.0815661-.02719691-.1692717-.10120819-.2643226-1.20535836-1.5472353-2.14721874-3.3541886-2.79938739-5.3708678-1.10515334-3.4175559-.99756215-6.2398105-.99246448-6.358213l.01939452-.4506968.4981271-.0505403c2.66273405-.2684886 4.95050734-1.2450897 6.40130672-2.0170081 1.55256483-.8265151 2.52329413-1.6157553 2.56564993-1.6501797l.3816486-.3165073.3833204.3184807c.1023228.0835395 1.0428457.8391227 2.5628634 1.6482063 1.4494618.7719184 3.7369007 1.7485195 6.4011953 2.0170081l.4981271.0505403.0193945.4506968c.0051064.1184025.1128003 2.9407667-.9924645 6.358213-.6521686 2.0166792-1.594029 3.8238518-2.7994988 5.3708678-.075126.0964761-.1063355.1862647-.1061126.2705716-1.5160051 1.9150504-3.4360627 3.4299443-5.7131356 4.4999519m12.5649748-9.4909451c0-3.1132177-.2814435-5.9420502-.8437731-8.4278444-1.6314806-7.21093002-5.6271978-11.53415522-11.9755597-11.53415522-6.27646844 0-10.25323704 4.22587206-11.91904809 11.29033382-.60000408 2.5438991-.90017331 5.4561615-.90017331 8.6716658 0 1.413594.07768955 2.7959429.22638088 4.1353161.01961745-.0052624.03912343-.0112921.05874088-.0163352-.00033439.0139233-.00312096.0277369-.00312096.0418794 0 1.5738759 5.09942159 1.8697724 6.30957286 1.1570553 1.54520834 1.9277677 3.49179414 3.4565849 5.79628684 4.5388712l.4312494.2024902.4320297-.2024902c2.2945725-1.0777914 4.2342476-2.5988247 5.776335-4.51541 1.1500728.7522943 6.0267918.5934376 6.3439034-.8670788.0225154-.1037118.0378973-.2078621.0378973-.3134377l-.0001115-.0006578c.1503633-1.347157.2293904-2.737838.2293904-4.1602025" mask="url(#a)"/><path d="m47.3816217 2.53191489c-.3651598-.22642167-.9038267-.58288061-1.6156644-1.069159-.7119497-.48627839-1.3167038-.91973595-1.8141501-1.3006994v-.16205649h3.4139088c.275102.36027075.8124247.95981443 1.611744 1.79863104l.4683231.50936709v.22391676z" mask="url(#a)"/><path d="m34.7951807 21.7021277v-.2239168c.815001-.8490541 1.3323855-1.3971927 1.5521535-1.6441982.219544-.2470054.4008918-.4681995.5438194-.6637999h3.398003v.1620565c-.4235182.3294495-1.0057578.7487489-1.7466067 1.2582249-.7411849.509476-1.3021422.8800931-1.6832078 1.1116335z" mask="url(#a)"/><path d="m53.1084337 21.7021277v-.2239168c.815001-.8490541 1.3323855-1.3971927 1.5521535-1.6441982.219544-.2470054.4008918-.4681995.5438194-.6637999h3.398003v.1620565c-.4235182.3294495-1.0057578.7487489-1.7466067 1.2582249-.7411849.509476-1.3021422.8800931-1.6832078 1.1116335z" mask="url(#a)"/><ellipse cx="167.5" cy="28" rx="8.5" ry="8"/></g><text fill="#e9364b" font-family="WorkSans-Bold, Work Sans" font-size="19.8" font-weight="bold" letter-spacing=".214851224"><tspan x="162" y="35">+</tspan></text></g></g></svg>