<?xml version="1.0" encoding="UTF-8"?>
<svg width="315px" height="83px" viewBox="-40 0 315 83" version="1.1" xmlns="http://www.w3.org/2000/svg" xmlns:xlink="http://www.w3.org/1999/xlink">
    <!-- Generator: Sketch 61.1 (89650) - https://sketch.com -->
    <title>Group 11</title>
    <desc>Created with Sketch.</desc>
    <defs>
        <polygon id="path-1" points="0 34 152 34 152 0 0 0"></polygon>
    </defs>
    <g id="Page-1" stroke="none" stroke-width="1" fill="none" fill-rule="evenodd">
        <g id="HOME-RE" transform="translate(-1224.000000, -1814.000000)">
            <g id="Group-11" transform="translate(1224.000000, 1814.000000)">
                <rect id="Rectangle-Copy-2" fill="#E9364B" x="0" y="0" width="235" height="83" rx="7"></rect>
                <g id="Group-16-Copy" transform="translate(31.000000, 23.000000)">
                    <g id="Group-38">
                        <path d="M36.4476338,8.47190074 L37.0314735,8.47190074 C38.120859,8.47190074 38.6652152,8.00385287 38.6652152,7.06819311 C38.6652152,6.29614302 38.1312907,5.91028147 37.0633295,5.91028147 L36.4476338,5.91028147 L36.4476338,8.47190074 Z M36.4476338,10.7495739 L36.4476338,14.8297872 L33.3301205,14.8297872 L33.3301205,3.61702128 L37.1105527,3.61702128 C40.2464618,3.61702128 41.8145846,4.7211957 41.8145846,6.93019856 C41.8145846,8.22893877 41.1620974,9.2338138 39.8571231,9.94427865 L43.2192771,14.8297872 L39.6833733,14.8297872 L37.2367428,10.7495739 L36.4476338,10.7495739 Z" id="Fill-1" fill="#FFFFFF"></path>
                        <polygon id="Fill-3" fill="#FFFFFF" points="50.9108434 14.8297872 43.9518072 14.8297872 43.9518072 3.61702128 50.9108434 3.61702128 50.9108434 6.04819066 47.1185481 6.04819066 47.1185481 7.81216188 50.6303124 7.81216188 50.6303124 10.2433313 47.1185481 10.2433313 47.1185481 12.3602493 50.9108434 12.3602493"></polygon>
                        <path d="M57.7255302,8.08377851 L62.6313253,8.08377851 L62.6313253,14.1521875 C61.2991067,14.6039936 59.8351801,14.8297872 58.2386614,14.8297872 C56.4868995,14.8297872 55.1329137,14.3266494 54.1765936,13.3204833 C53.220163,12.3143171 52.7421687,10.8793291 52.7421687,9.01573815 C52.7421687,7.19811586 53.2655758,5.78370431 54.3126109,4.77239402 C55.3593146,3.76097429 56.8262246,3.25531915 58.7128989,3.25531915 C59.428233,3.25531915 60.1031265,3.32197369 60.7382424,3.45550167 C61.3730268,3.5891391 61.9262671,3.75834751 62.3981843,3.96378359 L61.4262846,6.35108878 C60.6071973,5.95061428 59.7081127,5.75043176 58.728368,5.75043176 C57.8317143,5.75043176 57.1386999,6.03893976 56.6489933,6.61683135 C56.1589552,7.19439459 55.9139914,8.01975075 55.9139914,9.09246201 C55.9139914,10.1450346 56.1357516,10.9475159 56.5787195,11.4992491 C57.0219084,12.0513107 57.6605601,12.3271226 58.495227,12.3271226 C58.9513436,12.3271226 59.3711079,12.283343 59.7547409,12.196112 L59.7547409,10.4324481 L57.7255302,10.4324481 L57.7255302,8.08377851 Z" id="Fill-5" fill="#FFFFFF"></path>
                        <polygon id="Fill-7" fill="#FFFFFF" points="64.8289157 14.8297872 64.8289157 3.61702128 68.0003674 3.61702128 68.0003674 12.3833576 72.5204819 12.3833576 72.5204819 14.8297872"></polygon>
                        <polygon id="Fill-9" fill="#FFFFFF" points="80.9445783 14.8297872 73.9855422 14.8297872 73.9855422 3.61702128 80.9445783 3.61702128 80.9445783 6.04819066 77.152283 6.04819066 77.152283 7.81216188 80.6640474 7.81216188 80.6640474 10.2433313 77.152283 10.2433313 77.152283 12.3602493 80.9445783 12.3602493"></polygon>
                        <path d="M90.4674699,11.256676 C90.4674699,11.9547494 90.2865157,12.5748942 89.924719,13.1165633 C89.5625869,13.6581228 89.0405261,14.0789589 88.3585367,14.3795091 C87.6766591,14.679731 86.8764567,14.8297872 85.9586005,14.8297872 C85.1925088,14.8297872 84.5499983,14.7773606 84.0305098,14.6721789 C83.5111331,14.5669973 82.9707309,14.3832304 82.4096386,14.121535 L82.4096386,11.410563 C83.0024929,11.7084864 83.6186096,11.9408492 84.2588834,12.1075419 C84.8987098,12.2744534 85.4861959,12.3579639 86.0216773,12.3579639 C86.4830099,12.3579639 86.8214323,12.279707 87.0367209,12.1228649 C87.2516739,11.9663511 87.3591505,11.7649627 87.3591505,11.5183714 C87.3591505,11.3644845 87.3159809,11.2297513 87.2294181,11.1140624 C87.1427435,10.9988113 87.0038405,10.882028 86.8122616,10.7638218 C86.6206827,10.6458344 86.1107005,10.4043873 85.2819793,10.0398087 C84.5315449,9.70631393 83.9689987,9.38256024 83.5937815,9.06964212 C83.2185643,8.75639564 82.9408701,8.39707064 82.7595803,7.99133875 C82.5787379,7.58593521 82.4880371,7.10577718 82.4880371,6.55130247 C82.4880371,5.51415237 82.873879,4.70564375 83.6450034,4.12555769 C84.4161279,3.54536218 85.4759068,3.25531915 86.8241165,3.25531915 C88.0150816,3.25531915 89.2294209,3.52478554 90.4674699,4.06382778 L89.515503,6.41251961 C88.4399549,5.93006313 87.5113623,5.68861599 86.7296132,5.68861599 C86.3257654,5.68861599 86.0319664,5.75789797 85.8484399,5.89668082 C85.6648015,6.03524478 85.5729824,6.20740994 85.5729824,6.41251961 C85.5729824,6.63339012 85.6896296,6.83094773 85.923036,7.0057397 C86.1563305,7.18020332 86.7900058,7.49837505 87.8235027,7.96058324 C88.8151721,8.39707064 89.5036482,8.86529859 89.8891545,9.36614271 C90.2746608,9.86654902 90.4674699,10.4968727 90.4674699,11.256676" id="Fill-11" fill="#FFFFFF"></path>
                        <polygon id="Fill-13" fill="#FFFFFF" points="40.2891566 33.6382979 33.3301205 33.6382979 33.3301205 22.4255319 40.2891566 22.4255319 40.2891566 24.8567867 36.4969753 24.8567867 36.4969753 26.6207407 40.0086257 26.6207407 40.0086257 29.0518865 36.4969753 29.0518865 36.4969753 31.168784 40.2891566 31.168784"></polygon>
                        <polygon id="Fill-15" fill="#FFFFFF" points="42.1204819 33.6382979 42.1204819 22.4255319 45.2919336 22.4255319 45.2919336 31.1917831 49.8120482 31.1917831 49.8120482 33.6382979"></polygon>
                        <polygon id="Fill-17" fill="#FFFFFF" points="58.2361446 33.6382979 51.2771084 33.6382979 51.2771084 22.4255319 58.2361446 22.4255319 58.2361446 24.8567867 54.4439633 24.8567867 54.4439633 26.6207407 57.9556136 26.6207407 57.9556136 29.0518865 54.4439633 29.0518865 54.4439633 31.168784 58.2361446 31.168784"></polygon>
                        <path d="M65.1119502,33.6382979 L62.7440157,25.5623465 L62.6728843,25.5623465 C62.7837458,26.937823 62.8391203,28.0062453 62.8391203,28.7681583 L62.8391203,33.6382979 L60.0674699,33.6382979 L60.0674699,22.4255319 L64.232824,22.4255319 L66.6481419,30.3863788 L66.7116199,30.3863788 L69.0794418,22.4255319 L73.253012,22.4255319 L73.253012,33.6382979 L70.3781535,33.6382979 L70.3781535,28.7222692 C70.3781535,28.4665541 70.3820927,28.182935 70.3900838,27.8708667 C70.3981874,27.5589075 70.4336405,26.7947054 70.4971186,25.5777156 L70.4258746,25.5777156 L68.0895667,33.6382979 L65.1119502,33.6382979 Z" id="Fill-19" fill="#FFFFFF"></path>
                        <polygon id="Fill-21" fill="#FFFFFF" points="82.7759036 33.6382979 75.8168675 33.6382979 75.8168675 22.4255319 82.7759036 22.4255319 82.7759036 24.8567867 78.9837223 24.8567867 78.9837223 26.6207407 82.4953727 26.6207407 82.4953727 29.0518865 78.9837223 29.0518865 78.9837223 31.168784 82.7759036 31.168784"></polygon>
                        <path d="M95.5951807,33.6382979 L91.5062231,33.6382979 L87.2909439,25.7387092 L87.2199301,25.7387092 C87.3197757,26.9810962 87.3699229,27.929727 87.3699229,28.5840566 L87.3699229,33.6382979 L84.6072289,33.6382979 L84.6072289,22.4255319 L88.6802561,22.4255319 L92.8797171,30.2178642 L92.9271718,30.2178642 C92.8532411,29.0876386 92.8166685,28.180319 92.8166685,27.4951422 L92.8166685,22.4255319 L95.5951807,22.4255319 L95.5951807,33.6382979 Z" id="Fill-23" fill="#FFFFFF"></path>
                        <polygon id="Fill-25" fill="#FFFFFF" points="103.02647 33.6382979 99.8924916 33.6382979 99.8924916 24.9026758 97.060241 24.9026758 97.060241 22.4255319 105.850602 22.4255319 105.850602 24.9026758 103.02647 24.9026758"></polygon>
                        <path d="M113.318452,29.0706687 L112.821982,27.2375163 C112.706266,26.8302215 112.565681,26.3034086 112.400229,25.6564264 C112.234664,25.009987 112.125557,24.5463526 112.07302,24.2665002 C112.02586,24.5259444 111.932435,24.9539731 111.793307,25.5495007 C111.653955,26.1453539 111.345229,27.3191489 110.86713,29.0706687 L113.318452,29.0706687 Z M114.53207,33.6382979 L113.964692,31.5455927 L110.220778,31.5455927 L109.637381,33.6382979 L106.216867,33.6382979 L109.976464,22.4255319 L114.130257,22.4255319 L117.937349,33.6382979 L114.53207,33.6382979 Z" id="Fill-27" fill="#FFFFFF"></path>
                        <mask id="mask-2" fill="white">
                            <use xlink:href="#path-1"></use>
                        </mask>
                        <g id="Clip-30"></g>
                        <polygon id="Fill-29" fill="#FFFFFF" mask="url(#mask-2)" points="119.036145 33.6382979 122.33253 33.6382979 122.33253 22.4255319 119.036145 22.4255319"></polygon>
                        <path d="M128.013899,27.2804114 L128.597739,27.2804114 C129.687124,27.2804114 130.23148,26.8123635 130.23148,25.8767038 C130.23148,25.1046537 129.697556,24.7187921 128.629595,24.7187921 L128.013899,24.7187921 L128.013899,27.2804114 Z M128.013899,29.5580845 L128.013899,33.6382979 L124.896386,33.6382979 L124.896386,22.4255319 L128.676818,22.4255319 C131.812727,22.4255319 133.380737,23.5298153 133.380737,25.7387092 C133.380737,27.0374494 132.728362,28.0423244 131.423388,28.7528983 L134.785542,33.6382979 L131.249638,33.6382979 L128.803008,29.5580845 L128.013899,29.5580845 Z" id="Fill-31" fill="#FFFFFF" mask="url(#mask-2)"></path>
                        <polygon id="Fill-32" fill="#FFFFFF" mask="url(#mask-2)" points="142.477108 33.6382979 135.518072 33.6382979 135.518072 22.4255319 142.477108 22.4255319 142.477108 24.8567867 138.684927 24.8567867 138.684927 26.6207407 142.196577 26.6207407 142.196577 29.0518865 138.684927 29.0518865 138.684927 31.168784 142.477108 31.168784"></polygon>
                        <path d="M152,30.4268888 C152,31.1249622 151.819046,31.745107 151.457249,32.286776 C151.095117,32.8283356 150.573056,33.2491716 149.891067,33.5497219 C149.209077,33.8498343 148.408987,34 147.491131,34 C146.725039,34 146.082417,33.9475734 145.56304,33.8423917 C145.043663,33.7372101 144.503261,33.5534432 143.942169,33.2917478 L143.942169,30.5807758 C144.534911,30.8786992 145.15114,31.111062 145.791414,31.2776452 C146.43124,31.4446662 147.018726,31.5280672 147.554207,31.5280672 C148.01554,31.5280672 148.353962,31.4498103 148.569251,31.2930777 C148.784204,31.1365639 148.891681,30.9351755 148.891681,30.6885842 C148.891681,30.5346972 148.848511,30.399964 148.761948,30.2842752 C148.675274,30.1690241 148.536371,30.0522407 148.344792,29.9339251 C148.153213,29.8159378 147.643231,29.5746001 146.814509,29.2100215 C146.064075,28.8765267 145.501529,28.552773 145.126312,28.2398549 C144.751094,27.9266084 144.4734,27.5672834 144.29211,27.1615515 C144.111268,26.7560385 144.020679,26.2758805 144.020679,25.7215152 C144.020679,24.6843651 144.406521,23.8758565 145.177534,23.295661 C145.948658,22.7155749 147.008437,22.4255319 148.356647,22.4255319 C149.547612,22.4255319 150.761951,22.6949983 152,23.2339311 L151.048033,25.5827324 C149.972485,25.1002759 149.043892,24.8588288 148.262143,24.8588288 C147.858296,24.8588288 147.564497,24.9281107 147.380858,25.0668936 C147.197332,25.2054575 147.105512,25.3776227 147.105512,25.5827324 C147.105512,25.8036029 147.22216,26.0011605 147.455566,26.1759525 C147.688861,26.3504161 148.322536,26.6685878 149.356033,27.130796 C150.347702,27.5672834 151.036178,28.0355114 151.421685,28.5363555 C151.807191,29.0367618 152,29.6670855 152,30.4268888" id="Fill-33" fill="#FFFFFF" mask="url(#mask-2)"></path>
                        <path d="M13.0735794,33.069966 L12.8191099,33.1891359 L12.5654207,33.069966 C10.2855612,31.9987525 8.36349726,30.4818852 6.84682339,28.5637651 C6.84927557,28.482199 6.81962648,28.3944934 6.7456152,28.2994425 C5.54025684,26.7522072 4.59839646,24.9452539 3.94622781,22.9285747 C2.84107447,19.5110188 2.94866566,16.6887642 2.95376333,16.5703617 L2.97315785,16.1196649 L3.47128495,16.0691246 C6.134019,15.800636 8.42179229,14.8240349 9.87259167,14.0521165 C11.4251565,13.2256014 12.3958858,12.4363612 12.4382416,12.4019368 L12.8198902,12.0854295 L13.2032106,12.4039102 C13.3055334,12.4874497 14.2460563,13.2430329 15.766074,14.0521165 C17.2155358,14.8240349 19.5029747,15.800636 22.1672693,16.0691246 L22.6653964,16.1196649 L22.6847909,16.5703617 C22.6898973,16.6887642 22.7975912,19.5111284 21.6923264,22.9285747 C21.0401578,24.9452539 20.0982974,26.7524265 18.8928276,28.2994425 C18.8177016,28.3959186 18.7864921,28.4857072 18.786715,28.5700141 C17.2707099,30.4850645 15.3506523,31.9999584 13.0735794,33.069966 M25.6385542,23.5790209 C25.6385542,20.4658032 25.3571107,17.6369707 24.7947811,15.1511765 C23.1633005,7.94024648 19.1675833,3.61702128 12.8192214,3.61702128 C6.54275296,3.61702128 2.56598436,7.84289334 0.900173307,14.9073551 C0.300169232,17.4512542 0,20.3635166 0,23.5790209 C0,24.9926149 0.0776895486,26.3749638 0.22638088,27.714337 C0.245998327,27.7090746 0.265504311,27.7030449 0.285121758,27.6980018 C0.28478737,27.7119251 0.282000801,27.7257387 0.282000801,27.7398812 C0.282000801,29.3137571 5.38142239,29.6096536 6.59157366,28.8969365 C8.136782,30.8247042 10.0833678,32.3535214 12.3878605,33.4358077 L12.8191099,33.6382979 L13.2511396,33.4358077 C15.5457121,32.3580163 17.4853872,30.836983 19.0274746,28.9203977 C20.1775474,29.672692 25.0542664,29.5138353 25.371378,28.0533189 C25.3938934,27.9496071 25.4092753,27.8454568 25.4092753,27.7398812 L25.4091638,27.7392234 C25.5595271,26.3920664 25.6385542,25.0013854 25.6385542,23.5790209" id="Fill-34" fill="#FFFFFF" mask="url(#mask-2)"></path>
                        <path d="M47.3816217,2.53191489 C47.0164619,2.30549322 46.477795,1.94903428 45.7659573,1.46275589 C45.0540076,0.976477501 44.4492535,0.543019944 43.9518072,0.162056494 L43.9518072,0 L47.365716,0 C47.640818,0.360270753 48.1781407,0.959814434 48.97746,1.79863104 L49.4457831,2.30799813 L49.4457831,2.53191489 L47.3816217,2.53191489 Z" id="Fill-35" fill="#FFFFFF" mask="url(#mask-2)"></path>
                        <path d="M34.7951807,21.7021277 L34.7951807,21.4782109 C35.6101817,20.6291568 36.1275662,20.0810182 36.3473342,19.8340127 C36.5668782,19.5870073 36.748226,19.3658132 36.8911536,19.1702128 L40.2891566,19.1702128 L40.2891566,19.3322693 C39.8656384,19.6617188 39.2833988,20.0810182 38.5425499,20.5904942 C37.801365,21.0999702 37.2404077,21.4705873 36.8593421,21.7021277 L34.7951807,21.7021277 Z" id="Fill-36" fill="#FFFFFF" mask="url(#mask-2)"></path>
                        <path d="M53.1084337,21.7021277 L53.1084337,21.4782109 C53.9234347,20.6291568 54.4408192,20.0810182 54.6605872,19.8340127 C54.8801312,19.5870073 55.061479,19.3658132 55.2044066,19.1702128 L58.6024096,19.1702128 L58.6024096,19.3322693 C58.1788914,19.6617188 57.5966518,20.0810182 56.8558029,20.5904942 C56.114618,21.0999702 55.5536607,21.4705873 55.1725951,21.7021277 L53.1084337,21.7021277 Z" id="Fill-37" fill="#FFFFFF" mask="url(#mask-2)"></path>
                    </g>
                    <ellipse id="Oval" fill="#FFFFFF" cx="167.5" cy="28" rx="8.5" ry="8"></ellipse>
                    <text id="+" font-family="WorkSans-Bold, Work Sans" font-size="19.8" font-weight="bold" letter-spacing="0.214851224" fill="#E9364B">
                        <tspan x="162" y="35">+</tspan>
                    </text>
                </g>
            </g>
        </g>
    </g>
</svg>