<?xml version="1.0" encoding="UTF-8"?>
<svg width="131px" height="130px" viewBox="0 0 131 130" version="1.1" xmlns="http://www.w3.org/2000/svg" xmlns:xlink="http://www.w3.org/1999/xlink">
    <title>Group 19</title>
    <defs>
        <polygon id="path-1" points="0 0.565547831 38.3418824 0.565547831 38.3418824 35.1670615 0 35.1670615"></polygon>
        <polygon id="path-3" points="0.0317574647 0.34718125 31.6509605 0.34718125 31.6509605 26 0.0317574647 26"></polygon>
        <polygon id="path-5" points="0.00559086315 0.0900264277 27.3996471 0.0900264277 27.3996471 22.4832541 0.00559086315 22.4832541"></polygon>
        <polygon id="path-7" points="0.541973682 0.105488372 35.4187406 0.105488372 35.4187406 35.435504 0.541973682 35.435504"></polygon>
    </defs>
    <g id="Page-1" stroke="none" stroke-width="1" fill="none" fill-rule="evenodd">
        <g id="MISSON-ET-CHIFFRES-CLES" transform="translate(-514.000000, -2161.000000)">
            <g id="Group-19" transform="translate(514.000000, 2161.000000)">
                <ellipse id="Oval" fill="#E9364B" cx="65.5" cy="65" rx="65.5" ry="65"></ellipse>
                <g id="Group-45" transform="translate(18.000000, 17.000000)">
                    <path d="M25.9853453,30.987973 C25.4614829,30.5157689 22.7895377,31.3277297 22.7895377,31.3277297 C22.7895377,31.3277297 22.3512039,30.921338 21.5888483,30.4038878 C20.8273152,29.885615 18.402087,30.8185061 17.3831458,30.990441 C16.3642046,31.1615533 16.5952962,29.9744618 12.5014387,27.5755991 C8.40840357,25.1759138 3.27257794,31.0554308 3.27257794,31.0554308 C3.27257794,31.0554308 -1.09184586,37.5289048 2.27584124,40.871353 C5.64270596,44.2138012 6.73155033,43.6864792 6.82694758,44.7156209 C6.9404374,45.9372639 6.64190982,47.3382458 7.15096924,48.5171107 C7.27103818,48.7959908 7.43140424,49.0518366 7.6485152,49.265727 C7.85657987,49.4705681 8.40017967,49.6285179 8.52518295,49.8514575 C8.67568033,50.1212884 8.50215603,50.8657914 8.51449188,51.1833363 C8.53176207,51.6440233 8.57781591,52.1145821 8.74969543,52.5472987 C9.02272891,53.2342158 9.78755162,53.7368582 10.3204604,54.2378552 C11.0622561,54.9338215 11.8155654,55.6190933 12.5976583,56.2698136 C13.3271182,56.8761105 14.035196,57.4495012 15.0089058,57.2857928 C15.7309643,57.1640399 16.4480883,56.9912823 17.1627453,56.8349778 C17.1627453,56.8349778 17.9678651,58.2738018 19.3667505,58.0533302 C20.7648135,57.8320359 21.9358969,56.7535349 23.1925088,57.5161363 C24.4491208,58.2779151 26.0453798,61.3497097 29.2749054,60.967175 C32.5036086,60.585463 35.4954634,59.2683919 36.9732983,56.9921049 C38.7948922,54.9798902 39.2990173,51.7493231 38.840946,48.5294506 C38.3828748,45.3087553 35.005319,44.5527352 33.946903,43.5334653 C32.8884871,42.5133728 33.6302829,41.1049871 33.4855423,39.6957787 C33.3408016,38.2890382 31.7470098,37.8785333 31.7437202,37.8777106 C31.6220065,37.8464497 31.6318752,35.3315927 31.5101614,35.0494219 C31.3769343,34.7401036 31.1244605,34.4990656 30.8695196,34.278594 C29.3851056,32.9903159 27.4261726,32.2844777 25.9853453,30.987973" id="Fill-1" fill="#C5E2E0"></path>
                    <g id="Group-5" transform="translate(0.000000, 26.000000)">
                        <mask id="mask-2" fill="white">
                            <use xlink:href="#path-1"></use>
                        </mask>
                        <g id="Clip-4"></g>
                        <path d="M25.2102638,4.62407442 C24.6808596,4.14435349 21.9857106,4.96984186 21.9857106,4.96984186 C21.9857106,4.96984186 21.5426043,4.55626047 20.7742213,4.02965581 C20.0058383,3.50221395 17.5587957,4.45244651 16.5306894,4.62658605 C15.502583,4.80156279 15.7357532,3.59263256 11.6050723,1.15133023 C7.47522128,-1.2908093 2.2932,4.69272558 2.2932,4.69272558 C2.2932,4.69272558 -2.11048085,11.2807256 1.28666809,14.682307 C4.68464681,18.0838884 5.78245532,17.5472372 5.87954043,18.594586 C5.99405106,19.8378419 5.6928383,21.2636093 6.2064766,22.4633302 C6.32762553,22.7471442 6.48943404,23.0075163 6.70849787,23.2251907 C6.91760426,23.4336558 7.4669234,23.5944 7.59222128,23.8212837 C7.74490213,24.0958884 7.56981702,24.8535628 7.58143404,25.1767256 C7.59968936,25.6455628 7.64615745,26.1244465 7.81958298,26.5648186 C8.09507234,27.2638884 8.86677447,27.7754233 9.4044766,28.2852837 C10.1529447,28.9944 10.9130298,29.6909581 11.7021574,30.3531907 C12.4381787,30.9710512 13.1526255,31.5537488 14.1350936,31.3871442 C14.8636468,31.2632372 15.5872213,31.0882605 16.3083064,30.9283535 C16.3083064,30.9283535 17.1206681,32.3926326 18.5321362,32.1682605 C19.9427745,31.9430512 21.1243915,30.8454698 22.3923064,31.6215628 C23.6602213,32.3968186 25.2708383,35.5229581 28.5294128,35.1336558 C31.7871574,34.7451907 34.8059234,33.4048186 36.2970511,31.0882605 C38.1342,29.0404465 38.6436894,25.7527256 38.1814979,22.4758884 C37.7193064,19.198214 34.3113702,18.4288186 33.243434,17.3915163 C32.1754979,16.354214 32.923966,14.9200744 32.7779234,13.4859349 C32.6310511,12.054307 31.0237532,11.6365395 31.020434,11.6357023 C30.8976255,11.6038884 30.9067532,9.04537674 30.7847745,8.75737674 C30.6503489,8.44258605 30.3956043,8.19728372 30.1383702,7.97291163 C28.6406043,6.66184186 26.6632213,5.94351628 25.2102638,4.62407442" id="Fill-3" fill="#FFFFFF" mask="url(#mask-2)"></path>
                    </g>
                    <path d="M25.8242745,42.5929711 C23.4927754,41.3132137 21.1147129,39.7452666 18.9811086,38.1244034 C17.8669115,37.2785586 16.8034353,36.3618876 15.8571992,35.336942 C14.963347,34.3681689 14.3339088,33.1673787 13.3419408,32.2954829 C11.6407115,30.7991762 9.4846569,29.3036836 7.17643959,30.3489817 C5.83607709,30.9562966 4.90480786,32.0284597 3.99266291,33.118533 C3.24847901,34.0058966 0.45716579,37.6970035 3.14287973,40.1922048 C4.41755449,41.3767131 5.70719608,42.3536271 7.35437853,43.0008327 C10.4766249,44.2276739 13.0367838,46.293033 15.5811444,48.4023533 C17.7006134,50.1583563 19.7377648,52.0096084 21.6851153,53.9487828 C23.8727665,56.126487 26.2159064,58.8170712 29.5718016,58.9929157 C30.406618,59.0368768 31.268042,58.8789424 31.9756403,58.4434015 C32.9434951,57.8491122 33.4132872,56.8526598 33.5721019,55.7788685 C36.4931276,54.4136311 36.7018317,50.4009566 34.6098019,48.2313933 C33.0199923,46.583665 30.70346,45.4170668 28.7411427,44.2594236 C27.7766139,43.6911853 26.8062646,43.131902 25.8242745,42.5929711" id="Fill-6" fill="#E7364B"></path>
                    <g id="Group-10" transform="translate(39.000000, 61.000000)">
                        <mask id="mask-4" fill="white">
                            <use xlink:href="#path-3"></use>
                        </mask>
                        <g id="Clip-9"></g>
                        <path d="M30.7594667,5.79011875 C32.603159,8.18618125 31.0154667,9.43336875 31.0154667,9.43336875 C29.4893128,10.5148062 27.9615179,11.5962437 26.4345436,12.6768687 C23.3289026,14.8754937 20.2232615,17.0741187 17.118441,19.2727437 C15.6891077,20.2843062 14.2614154,21.2958687 12.8320821,22.3074312 C10.9178256,23.6626812 9.16192821,25.3193687 6.80295385,25.8109312 C5.23413333,26.1375562 3.45444103,26.1188687 2.11946667,25.1284312 C1.52787692,24.6896812 1.0782359,24.0933062 0.763158974,23.4343687 C-1.35950769,18.9981187 1.81341538,16.4883062 1.81341538,16.4883062 C1.81341538,16.4883062 23.3190564,2.66768125 25.0659282,1.90230625 C26.8128,1.13774375 26.5543385,0.34718125 26.5543385,0.34718125 C26.5543385,0.34718125 27.1795692,1.13368125 27.9106462,2.05261875 L30.7594667,5.79011875 Z" id="Fill-8" fill="#C5E2E0" mask="url(#mask-4)"></path>
                    </g>
                    <g id="Group-13" transform="translate(67.000000, 60.000000)">
                        <mask id="mask-6" fill="white">
                            <use xlink:href="#path-5"></use>
                        </mask>
                        <g id="Clip-12"></g>
                        <path d="M9.45032941,7.18216071 C9.93127059,7.07126786 10.4319765,6.99980357 10.9277412,6.92833929 C11.2868,6.87741071 11.6260941,6.82894643 11.9571529,6.76651786 C12.1045647,6.73776786 12.2552706,6.70491071 12.3483294,6.63016071 C12.4957412,6.511875 12.5360941,6.27448214 12.5822118,5.99848214 C12.6011529,5.88430357 12.6209176,5.76601786 12.6505647,5.649375 C12.8630353,4.809875 13.6050353,4.119875 14.6369176,3.80526786 C15.2908,3.60566071 15.9702118,3.56705357 16.6265647,3.52926786 C16.8159765,3.51858929 17.0062118,3.50708929 17.1948,3.49230357 C17.5003294,3.46848214 17.8149176,3.43316071 18.1188,3.39866071 C18.9859765,3.30091071 19.8819765,3.20069643 20.7755059,3.33458929 C21.3058588,3.41426786 21.8337412,3.579375 22.3484471,3.82416071 C22.3443294,3.820875 22.3402118,3.81758929 22.3360941,3.815125 C21.0456235,2.80230357 19.3186824,2.24208929 17.4748,2.23633929 C15.5798588,2.22976786 13.8800941,2.84994643 12.8086824,3.93669643 C12.5122118,4.23816071 12.2577412,4.574125 11.9884471,4.92980357 C11.6540941,5.37173214 11.3090353,5.82844643 10.8766824,6.21041071 C10.4797412,6.56198214 10.0292706,6.833875 9.59362353,7.09591071 C9.54585882,7.12466071 9.49809412,7.15341071 9.45032941,7.18216071 M5.77491765,9.52816071 C5.81115294,9.559375 5.84821176,9.58401786 5.88856471,9.60044643 C6.07632941,9.67601786 6.32174118,9.55033929 6.47985882,9.39508929 C6.25421176,9.47558929 6.01374118,9.52158929 5.77491765,9.52816071 M5.46115294,18.540875 L5.45785882,18.5425179 C5.40515294,18.6394464 5.50232941,18.8563036 5.53856471,18.9384464 C5.61268235,19.104375 5.68762353,19.271125 5.76585882,19.4370536 C5.81938824,19.2333393 5.86221176,19.0394821 5.83915294,18.8604107 C5.8268,18.7601964 5.73374118,18.6451964 5.61350588,18.5803036 C5.53527059,18.5384107 5.47927059,18.5367679 5.46115294,18.540875 M19.0370353,14.7146607 C19.3088,14.780375 19.5608,14.860875 19.7839765,14.9430179 C20.1603294,15.0818393 20.5333882,15.2502321 20.8932706,15.412875 C21.8205647,15.8318036 22.6951529,16.2277321 23.6240941,16.1595536 C24.5653882,16.091375 25.5025647,15.4909107 26.0691529,14.5939107 C26.7131529,13.5745179 26.8004471,12.4105536 26.7609176,11.6129464 C26.6868,10.1310893 26.1300941,8.60405357 25.1484471,7.17558929 C25.2159765,7.51566071 25.2530353,7.85901786 25.2579765,8.20319643 C25.2843294,10.1853036 24.1766824,12.0803393 22.5008,12.9181964 C22.1079765,13.1145179 21.6929176,13.2533393 21.2918588,13.3872321 C20.7837412,13.5564464 20.3044471,13.7174464 19.8803294,13.9819464 C19.5657412,14.1790893 19.2890353,14.4320893 19.0370353,14.7146607 M17.0062118,15.2880179 C16.9098588,15.3126607 16.8135059,15.3430536 16.7188,15.378375 C15.9232706,15.6757321 15.1689176,16.5291964 15.2825647,17.4442679 C15.3097412,17.6603036 15.3813882,17.8779821 15.4571529,18.1071607 C15.4793882,18.172875 15.5016235,18.2394107 15.5230353,18.3075893 C16.1480941,17.6249821 16.7608,16.8380536 17.3718588,15.9344821 L17.5415059,15.6823036 C17.6510353,15.5188393 17.7613882,15.3537321 17.8750353,15.1910893 C17.5876235,15.1869821 17.2944471,15.2140893 17.0062118,15.2880179 M10.0169176,21.6992679 C10.7169176,21.5546964 11.3609176,21.3197679 11.9373882,21.0462321 C11.8533882,21.0610179 11.7710353,21.070875 11.6911529,21.0799107 C11.6236235,21.088125 11.5560941,21.0963393 11.4902118,21.1070179 C11.0257412,21.1817679 10.5892706,21.4060179 10.1264471,21.6425893 C10.0902118,21.6614821 10.0539765,21.680375 10.0169176,21.6992679 M10.5291529,22.2249821 C9.97656471,22.3670893 9.42150588,22.450875 8.86891765,22.4763393 C8.00915294,22.5157679 7.32315294,22.3868036 6.77138824,22.0836964 C6.14221176,21.7370536 5.71974118,21.1505536 5.62915294,20.5295536 C5.36727059,20.099125 5.16303529,19.6415893 4.96291765,19.1947321 C4.87974118,19.0074464 4.70515294,18.6180893 4.89127059,18.2632321 C5.03044706,17.9979107 5.31044706,17.868125 5.62174118,17.9239821 C5.99068235,17.9896964 6.40656471,18.3289464 6.46503529,18.7815536 C6.50621176,19.1109464 6.42632941,19.409125 6.34891765,19.6974464 C6.29868235,19.8830893 6.25174118,20.058875 6.24268235,20.225625 C6.24185882,20.2576607 6.24185882,20.288875 6.24185882,20.3200893 C6.33821176,20.4679464 6.44115294,20.6100536 6.55315294,20.743125 C7.01762353,21.2926607 7.60891765,21.6163036 8.17385882,21.6310893 C8.74127059,21.6466964 9.27409412,21.3731607 9.83821176,21.0840179 C10.3249176,20.835125 10.8272706,20.576375 11.3889176,20.4860179 C11.4638588,20.4745179 11.5396235,20.4646607 11.6162118,20.455625 C11.8295059,20.4301607 12.0312706,20.4063393 12.1646824,20.3110536 C12.2083294,20.2798393 12.2470353,20.2395893 12.2849176,20.1935893 C12.2709176,20.0194464 12.3310353,19.8469464 12.4586824,19.7048393 C12.5772706,19.5734107 12.7469176,19.4764821 12.9330353,19.4222679 C13.0137412,19.3738036 13.1010353,19.3360179 13.1916235,19.3097321 C13.2130353,19.2982321 13.2352706,19.288375 13.2591529,19.2801607 C13.3620941,19.242375 13.4724471,19.2382679 13.5778588,19.2645536 C13.6190353,19.2661964 13.6610353,19.2703036 13.7030353,19.2760536 C13.8405647,19.1692679 14.0168,19.110125 14.1839765,19.1051964 C14.3486824,19.1002679 14.4936235,19.144625 14.6039765,19.2275893 C14.7406824,19.1027321 14.8773882,18.9729464 15.0124471,18.8382321 C14.9778588,18.6640893 14.9202118,18.4883036 14.8584471,18.3043036 C14.7769176,18.0562321 14.6912706,17.799125 14.6566824,17.5206607 C14.5191529,16.407625 15.3097412,15.2338036 16.4972706,14.7894107 C17.1050353,14.561875 17.7350353,14.5265536 18.3189176,14.5889821 C18.6672706,14.1528036 19.0600941,13.7535893 19.5451529,13.4496607 C20.0326824,13.1440893 20.5712706,12.9650179 21.0917412,12.790875 C21.4895059,12.658625 21.8650353,12.5329464 22.2175059,12.3563393 C23.6825647,11.623625 24.6510353,9.95776786 24.6279765,8.21141071 C24.6164471,7.36944643 24.3866824,6.52748214 23.9749176,5.75780357 C22.9636235,4.75566071 21.8263294,4.12808929 20.6816235,3.95641071 C19.8704471,3.83401786 19.0543294,3.92683929 18.1896235,4.02376786 C17.8799765,4.05826786 17.5604471,4.09441071 17.2433882,4.11905357 C17.0506824,4.13466071 16.8571529,4.14533929 16.6628,4.15683929 C16.0155059,4.19380357 15.4036235,4.229125 14.8213882,4.40655357 C14.1889176,4.59958929 13.4477412,5.06780357 13.2616235,5.80298214 C13.2385647,5.89580357 13.2220941,5.99601786 13.2039765,6.10280357 C13.1446824,6.454375 13.0771529,6.85194643 12.7436235,7.12055357 C12.5377412,7.28566071 12.2898588,7.34316071 12.0749176,7.38423214 C11.7298588,7.44994643 11.3675059,7.50169643 11.0175059,7.55098214 C9.69738824,7.73991071 8.33197647,7.93541071 7.59574118,8.90880357 C7.51915294,9.01066071 7.44915294,9.12073214 7.37585882,9.237375 C7.25397647,9.42958929 7.1288,9.628375 6.95832941,9.80744643 C6.67091765,10.1080893 6.15703529,10.3865536 5.65221176,10.1836607 C5.37468235,10.071125 5.19268235,9.84441071 5.06585882,9.65958929 C4.98597647,9.54294643 4.91268235,9.42301786 4.8468,9.29816071 C4.71174118,9.21519643 4.58821176,9.10676786 4.48362353,8.97123214 C3.98621176,8.328875 4.18632941,7.558375 4.44985882,6.84373214 C4.45068235,6.83633929 4.45232941,6.828125 4.45397647,6.82073214 C4.47703529,6.68766071 4.50750588,6.55048214 4.53797647,6.41166071 C4.66644706,5.82105357 4.78832941,5.264125 4.47044706,4.94705357 C4.36338824,4.84026786 4.20444706,4.76716071 4.03562353,4.68830357 C3.99032941,4.66694643 3.94421176,4.64641071 3.89974118,4.62423214 C3.2228,4.29401786 2.82174118,3.75023214 2.43385882,3.22451786 C2.18103529,2.88198214 1.93891765,2.55341071 1.63256471,2.30780357 C1.63091765,2.47783929 1.63668235,2.67991071 1.6408,2.83844643 C1.65974118,3.53748214 1.66138824,3.97858929 1.52962353,4.21844643 C1.44644706,4.37041071 1.25456471,4.42626786 1.10221176,4.34248214 C0.949858824,4.25951786 0.893858824,4.06976786 0.976211765,3.91780357 C1.03550588,3.78391071 1.02068235,3.20233929 1.0108,2.854875 C0.989388235,2.038375 0.990211765,1.70158929 1.23397647,1.549625 C1.34515294,1.47980357 1.48268235,1.47651786 1.60291765,1.538125 C2.20327059,1.85108929 2.5788,2.35955357 2.94115294,2.85241071 C3.30021176,3.337875 3.63785882,3.79623214 4.17644706,4.05908929 C4.21762353,4.079625 4.25962353,4.09851786 4.30244706,4.11823214 C4.49268235,4.20694643 4.70844706,4.30716071 4.8888,4.476375 C4.71421176,3.44794643 3.99938824,2.55258929 3.00374118,1.612875 C2.51868235,1.15451786 2.03856471,0.740517857 1.49421176,0.719160714 C1.03056471,0.698625 0.788447059,2.29630357 0.708564706,2.820375 C0.678094118,3.01916071 0.654211765,3.17605357 0.627858824,3.28941071 C0.589976471,3.45944643 0.421152941,3.56541071 0.251505882,3.52680357 C0.0818588235,3.48819643 -0.0252,3.320625 0.0135058824,3.15141071 C0.0340941176,3.05858929 0.0579764706,2.90416071 0.0851529412,2.72508929 C0.238329412,1.72458929 0.497741176,0.0496964286 1.51891765,0.0907678571 C2.34574118,0.123625 3.00291765,0.745446429 3.43774118,1.15616071 C4.87150588,2.51151786 6.0928,4.07223214 5.32527059,6.30158929 C5.27421176,6.45026786 5.21491765,6.60305357 5.15562353,6.75748214 C5.12432941,6.84044643 5.09221176,6.92341071 5.06174118,7.00473214 C4.96621176,7.62244643 5.05844706,8.26069643 5.31621176,8.82748214 C5.68103529,8.96548214 6.17350588,8.88744643 6.53750588,8.68126786 C6.89656471,8.47755357 7.20127059,8.18430357 7.52244706,7.87298214 C7.71350588,7.68898214 7.91032941,7.49841071 8.12362353,7.32426786 C8.48515294,7.02855357 8.88291765,6.78951786 9.26750588,6.557875 C9.69821176,6.29830357 10.1042118,6.05351786 10.4583294,5.74055357 C10.8437412,5.39966071 11.1550353,4.98730357 11.4852706,4.551125 C11.7545647,4.194625 12.0337412,3.826625 12.3590353,3.49558929 C13.5663294,2.27083929 15.3838588,1.60055357 17.4772706,1.607125 C19.4603294,1.61369643 21.3248,2.222375 22.7256235,3.320625 C23.4577412,3.89480357 24.0539765,4.60041071 24.4838588,5.37748214 C24.8116235,5.70851786 25.1262118,6.07569643 25.4235059,6.47655357 C26.6242118,8.09641071 27.3044471,9.86248214 27.3909176,11.5817321 C27.4353882,12.4696964 27.3349176,13.7708393 26.6028,14.9290536 C25.9316235,15.9919821 24.8083294,16.7041607 23.6702118,16.787125 C22.5815059,16.8668036 21.5908,16.419125 20.6330353,15.9854107 C20.2830353,15.8276964 19.9206824,15.6642321 19.5657412,15.5328036 C19.2840941,15.4293036 18.9530353,15.3282679 18.5964471,15.263375 C18.4119765,15.5139107 18.2382118,15.7743036 18.0652706,16.0314107 L17.8948,16.2860536 C17.1635059,17.3662321 16.4272706,18.2886964 15.6712706,19.0682321 C15.6778588,19.6341964 15.4085647,20.2330179 14.8312706,20.380875 C14.8288,20.3816964 14.8263294,20.3825179 14.8238588,20.3833393 L14.8238588,20.3874464 C14.8279765,20.4736964 14.7966824,20.5574821 14.7365647,20.6199107 C14.6772706,20.6823393 14.5949176,20.7176607 14.5084471,20.7168393 C14.3173882,20.7168393 14.1230353,20.6642679 13.9533882,20.5722679 C12.8638588,21.3665893 11.7035059,21.9251607 10.5291529,22.2249821" id="Fill-11" fill="#FFFFFF" mask="url(#mask-6)"></path>
                    </g>
                    <path d="M69.0424672,65.98444 C70.9081565,68.3934311 69.4725638,68.8884629 69.4725638,68.8884629 L46.9240439,84.7490842 C46.9240439,84.7490842 41.9106785,88.1661103 39.7626865,83.7051063 C37.6146944,79.2441024 40.6859826,77.393043 40.6859826,77.393043 C40.6859826,77.393043 61.6826675,62.0862692 63.4512114,61.3175812 C65.2189251,60.5480764 65.3916279,61.4188749 65.3916279,61.4188749 C65.3916279,61.4188749 66.0243183,62.2088018 66.7641177,63.1335146 L69.0424672,65.98444 Z" id="Fill-14" fill="#FFFFFF"></path>
                    <path d="M40.2565204,82 L40,80.9523406 C40.7088702,79.3295288 41.6580766,78.012956 43.0272642,76.9508753 C44.4547152,75.8446827 45.8635543,74.7300069 47.2262683,73.6518084 C51.8857143,69.9650652 56.8817927,66.0789697 62.2395892,62.645022 C63.0253346,62.1411275 63.7552443,61.5354361 64.4600685,60.9509524 C64.8395892,60.6362304 65.2312481,60.3104805 65.6326175,60 L66,60.5225573 C65.6083411,60.8270996 65.2199191,61.148608 64.8444444,61.4599368 C64.1250545,62.0571451 63.3805789,62.6747127 62.562465,63.1989666 C57.2297541,66.6184931 52.2458139,70.4935606 47.5993153,74.1701242 C46.2357921,75.249171 44.8253346,76.3638467 43.395456,77.4734326 C42.1152817,78.465952 40.9322129,80.4526876 40.2565204,82" id="Fill-16" fill="#E7364B"></path>
                    <path d="M40.4593103,84 L40,83.2838985 C40.7588966,81.6235055 42.5125517,79.8842832 43.8673103,78.8794176 C44.5624828,78.3632935 45.2750345,77.890318 45.9635862,77.4331083 C46.7034483,76.9427074 47.4689655,76.434881 48.2055172,75.8772678 C49.7870345,74.6807227 51.3743448,73.410327 52.9103448,72.1822502 C56.2248276,69.5302682 59.6518621,66.7878399 63.3064828,64.5474296 C64.0604138,64.0852412 64.681931,63.5699468 65.3398621,63.0239505 C65.7462069,62.6870592 66.1657931,62.3385509 66.6242759,62 L67,62.5111455 C66.5564138,62.839739 66.1434483,63.1824388 65.7437241,63.5135217 C65.0973793,64.0495606 64.4286897,64.6038547 63.6375172,65.0884472 C60.016,67.3089428 56.6046897,70.0389243 53.3051034,72.6784596 C51.7666207,73.9090258 50.176,75.1827405 48.5870345,76.3842643 C47.8347586,76.9534945 47.0617931,77.4662996 46.3136552,77.9633387 C45.6317241,78.4155697 44.9266207,78.8835666 44.2438621,79.3897333 C42.9776552,80.3290461 41.1668966,82.4499679 40.4593103,84" id="Fill-18" fill="#E7364B"></path>
                    <path d="M42.5684124,85 L42,84.6139005 C42.6153002,83.2229196 44.2045517,82.5044166 45.5585413,81.5285139 C45.862901,81.3086161 46.1499863,81.1015032 46.3975871,80.9114365 C47.141212,80.342089 47.9901289,79.6142104 48.8119002,78.9093445 C49.5588155,78.2701069 50.3304086,77.6087091 51.0115163,77.0760112 C52.5736222,75.8546413 54.0855498,74.6059972 55.5481217,73.3991167 C58.8245133,70.693011 61.9199342,68.1377654 65.5640252,65.827987 C66.2179874,65.4146134 66.704963,64.8921432 67.2207294,64.3398419 C67.6435426,63.8855571 68.0819852,63.4159306 68.6265424,63 L69,63.5250271 C68.4982177,63.9085697 68.0786948,64.3585929 67.673156,64.7932744 C67.1524541,65.3506896 66.6144777,65.927708 65.8922402,66.3854021 C62.2818755,68.6730203 59.2012613,71.2163335 55.940499,73.9088021 C54.4746367,75.1190919 52.9585961,76.3702929 51.3907321,77.5967767 C50.7211407,78.1209515 49.9544831,78.7772354 49.213326,79.4122114 C48.384974,80.1221912 47.5294763,80.856036 46.7726899,81.4356113 C46.5176858,81.6316442 46.2264875,81.8413141 45.9180148,82.0637688 C44.6265424,82.9944987 43.112147,83.7709592 42.5684124,85" id="Fill-20" fill="#E7364B"></path>
                    <path d="M44.301035,84.9788682 L43.8151162,85 L43,84.9847851 L43.0016584,84.9847851 C43.7172691,84.7971345 45.3508185,83.4852711 46.6634624,82.4312159 C47.4130709,81.8285364 48.1212186,81.2596678 48.5963576,80.9469169 C49.2829459,80.4955412 50.0242622,79.9545666 50.7407021,79.4304974 C51.4986026,78.877689 52.2822088,78.3054393 53.0144037,77.8287055 C55.7134916,76.0722286 57.8852001,74.1788175 60.1846074,72.1738304 C62.0387273,70.5576687 63.9558674,68.8857191 66.1947422,67.271248 C66.9609349,66.7175944 67.7262983,66.2324078 68.4667854,65.7632813 C68.8556863,65.5164617 69.2578545,65.2620346 69.6558767,65 L70,65.5435104 C69.5978318,65.8080808 69.1931759,66.0650437 68.8017874,66.3127087 C68.0695925,66.7767635 67.3116919,67.2568784 66.5612543,67.7986983 C64.3464267,69.3971092 62.4400663,71.0589155 60.5975554,72.6657791 C58.2807346,74.6859812 56.0924419,76.5937619 53.3560394,78.3739064 C52.6371119,78.8413423 51.8617979,79.4085203 51.110531,79.9571024 C50.3874574,80.4845526 49.6403366,81.0305989 48.9404809,81.4912726 C48.4902184,81.7862728 47.7936796,82.3466886 47.0556801,82.9392249 C45.5564633,84.1445839 45.1476613,84.7574067 44.301035,84.9788682" id="Fill-22" fill="#E7364B"></path>
                    <path d="M75.3739324,7.09481684 C69.5246728,2.46184327 63.193996,0.658749008 61.2347209,3.06895688 C60.5642657,3.89502951 60.4936914,5.10759796 60.9246983,6.5324903 C59.9904299,7.77159923 58.5713837,9.69993141 57.6757631,11.1306295 C56.3138484,13.3044612 48.9884111,23.8551337 53.2900786,29.743804 C51.3156804,31.7915684 47.5424795,35.5984693 48.045741,36.6418422 C48.1474015,36.8533367 48.3834891,36.9843803 48.6204169,36.99848 C49.0556246,37.0250204 49.4899922,36.6982407 49.8294207,36.469329 C50.0453442,36.3233563 52.840588,33.0995167 54.5587345,31.1081509 C60.7911114,35.268372 70.6605818,27.6238827 72.7778088,26.1002929 C72.7778088,26.1002929 76.4913578,22.8905529 78.5102849,20.839471 C80.2729604,21.0750178 81.6676417,20.7731198 82.4187532,19.8483497 C84.3780283,17.4389712 81.2231921,11.7286198 75.3739324,7.09481684" id="Fill-24" fill="#C5E2E0"></path>
                    <g id="Group-28" transform="translate(47.000000, 1.000000)">
                        <mask id="mask-8" fill="white">
                            <use xlink:href="#path-7"></use>
                        </mask>
                        <g id="Clip-27"></g>
                        <path d="M27.8194605,5.24829767 C21.9908093,0.571646512 15.6824372,-1.24844651 13.7300651,1.18448372 C13.0619721,2.01834419 12.9916465,3.24234419 13.4211349,4.68066977 C12.4901581,5.93146047 11.0761116,7.87797209 10.1836465,9.32215814 C8.82653023,11.5173209 1.52690233,22.1666233 5.81341395,28.1108093 C3.84597209,30.1787163 0.0860651163,34.0206698 0.587553488,35.0738791 C0.688855814,35.2873674 0.924111628,35.4196465 1.16020465,35.4338791 C1.59387907,35.461507 2.02671628,35.1308093 2.36494884,34.8997395 C2.58011163,34.7523907 5.36550698,31.4981581 7.0776,29.4880186 C13.2880186,33.6874605 23.1227163,25.9709023 25.2324837,24.4329488 C25.2324837,24.4329488 28.9329488,21.1929488 30.9447628,19.1225302 C32.7012279,19.3611349 34.0909953,19.0555535 34.8394605,18.1220651 C36.7918326,15.6899721 33.6489488,9.92578605 27.8194605,5.24829767" id="Fill-26" fill="#FFFFFF" mask="url(#mask-8)"></path>
                    </g>
                    <line x1="79" y1="20" x2="69" y2="14" id="Fill-29" fill="#4B64A3"></line>
                    <path d="M79.7296608,17.4618115 C78.5597052,18.9997314 73.9264287,17.1291085 69.3815102,13.2838929 C64.8365917,9.43867724 62.0998581,5.07527661 63.2706026,3.53818847 C64.4405582,2.00026858 69.0738347,3.87089153 73.6187532,7.71610715 C78.1636717,11.560491 80.8996164,15.9238916 79.7296608,17.4618115" id="Fill-31" fill="#E7364B"></path>
                    <path d="M64.5129694,30.9830358 C64.5033604,30.9805049 64.4946249,30.9771302 64.4858895,30.9737556 C61.1733955,29.6745298 58.4846147,28.4082064 56.1277822,26.4526184 C54.6139236,25.1972626 53.0493991,23.3125415 52.0456925,21.5341206 C51.9469815,21.3586408 52.0133712,21.1401346 52.1950692,21.0439582 C52.3758936,20.9486254 52.6038896,21.0135866 52.701727,21.1882228 C53.666124,22.8957768 55.1651324,24.7028818 56.6143485,25.9050876 C58.8943087,27.7965579 61.5228147,29.0316661 64.7671719,30.3047387 C64.9576054,30.3798238 65.0502015,30.5898935 64.9724557,30.7746535 C64.8982041,30.950977 64.6972881,31.0395606 64.5129694,30.9830358" id="Fill-33" fill="#E7364B"></path>
                    <path d="M66.5368733,29.9827964 C66.5260806,29.9793504 66.5161181,29.9759044 66.5061556,29.9707354 C63.1130934,28.4829307 60.3709146,27.0028795 58.0147829,24.6156723 C56.5054638,23.0847928 54.9787103,20.7484139 54.0306122,18.5171376 C53.9509121,18.3310543 54.0322726,18.1139572 54.2115976,18.0312535 C54.3925831,17.9494113 54.6017956,18.033838 54.6806654,18.2199213 C55.594725,20.3702169 57.0625337,22.6187231 58.5112475,24.0875749 C60.7876793,26.3946629 63.4642716,27.8368082 66.782615,29.291876 C66.9636005,29.3711337 67.0482818,29.5873694 66.9719026,29.7751757 C66.8996744,29.9517825 66.7095567,30.0396551 66.5368733,29.9827964" id="Fill-35" fill="#E7364B"></path>
                    <path d="M62.5253413,30.9835595 C62.515974,30.9802917 62.5066067,30.977024 62.4963879,30.9737563 C59.9612628,29.9705644 57.9064234,28.985345 56.1164224,27.434809 C54.9659508,26.4389696 53.7865258,24.9333648 53.038847,23.5070024 C52.9485805,23.3346299 53.020964,23.1238616 53.2006453,23.0372668 C53.3794751,22.9506721 53.5991803,23.0201113 53.6902983,23.1924838 C54.3996565,24.5477731 55.5169168,25.9741355 56.6043723,26.9160575 C58.3177319,28.3987882 60.3095551,29.3521473 62.7748514,30.3267465 C62.9604938,30.4010873 63.0490571,30.6053202 62.9724157,30.7834112 C62.8991807,30.9525161 62.7041711,31.0382939 62.5253413,30.9835595" id="Fill-37" fill="#E7364B"></path>
                    <path d="M53.4849838,31.9569103 C53.1629672,31.84886 52.8308145,31.6954451 52.5360875,31.3712942 C52.3435013,31.1593177 52.1516948,30.8269188 52.0230441,30.4813228 C51.9559898,30.3006891 52.0401975,30.0961359 52.2117318,30.0243773 C52.3832661,29.9534436 52.576632,30.0425232 52.644466,30.2239817 C52.7395895,30.4796732 52.8853936,30.7378391 53.0163834,30.8813563 C53.2191057,31.1040554 53.4631522,31.2154049 53.7625574,31.3086086 C53.9325323,31.3663454 54.0393514,31.5618256 53.9863317,31.7490578 C53.933312,31.9354652 53.7469634,32.041041 53.570751,31.9849539 C53.5426817,31.9758809 53.5138328,31.966808 53.4849838,31.9569103" id="Fill-39" fill="#E7364B"></path>
                    <path d="M52.4816586,32.9561631 C52.1613367,32.8481278 51.8301035,32.6947343 51.5355008,32.3714533 C51.3429959,32.1595063 51.1512704,31.8271536 51.0234534,31.4824304 C50.955648,31.3009972 51.0398202,31.0956478 51.2120614,31.0247239 C51.3827439,30.9529753 51.5768076,31.0428672 51.6438336,31.2234757 C51.738917,31.4791317 51.8854389,31.7372617 52.0155941,31.8815835 C52.2190102,32.1042516 52.4606156,32.2131115 52.7614532,32.3087763 C52.7614532,32.3087763 52.7653501,32.3104257 52.7676882,32.3104257 C52.9407088,32.3689792 53.0381303,32.5636075 52.9859124,32.7483396 C52.9329151,32.934721 52.7466452,33.0411068 52.570507,32.9850274 C52.5408909,32.9751311 52.5112748,32.9660594 52.4816586,32.9561631" id="Fill-41" fill="#E7364B"></path>
                    <path d="M51.4820061,33.9561628 C51.1615878,33.848127 50.8294754,33.6947327 50.5355637,33.3714499 C50.3422212,33.1586771 50.150438,32.8263227 50.0233622,32.4815977 C49.9555364,32.3001636 50.0405135,32.0956377 50.2120269,32.0247135 C50.3835404,31.9529645 50.5768828,32.0428569 50.643929,32.2242911 C50.7382614,32.4791236 50.8848274,32.737255 51.0158013,32.8815776 C51.218499,33.1042469 51.4609567,33.2122827 51.7618848,33.3087727 C51.7642236,33.3095974 51.7657829,33.3095974 51.7657829,33.3095974 C51.9404147,33.3689758 52.0386452,33.5636052 51.9856319,33.7483382 C51.9333983,33.9347206 51.7470723,34.041107 51.5708812,33.9850274 C51.5412562,33.975131 51.5116311,33.9660592 51.4820061,33.9561628" id="Fill-43" fill="#E7364B"></path>
                </g>
            </g>
        </g>
    </g>
</svg>