<?xml version="1.0" encoding="UTF-8"?>
<svg width="130px" height="130px" viewBox="0 0 130 130" version="1.1" xmlns="http://www.w3.org/2000/svg" xmlns:xlink="http://www.w3.org/1999/xlink">
    <title>Group 21</title>
    <defs>
        <filter color-interpolation-filters="auto" id="filter-1">
            <feColorMatrix in="SourceGraphic" type="matrix" values="0 0 0 0 1.000000 0 0 0 0 1.000000 0 0 0 0 1.000000 0 0 0 1.000000 0"></feColorMatrix>
        </filter>
        <polygon id="path-2" points="0 0 24 0 24 15 0 15"></polygon>
        <polygon id="path-4" points="0 0 24 0 24 15 0 15"></polygon>
    </defs>
    <g id="Page-1" stroke="none" stroke-width="1" fill="none" fill-rule="evenodd">
        <g id="MISSON-ET-CHIFFRES-CLES" transform="translate(-1085.000000, -2756.000000)">
            <g id="Group-21" transform="translate(1085.000000, 2756.000000)">
                <circle id="Oval-Copy-3" fill="#E9364B" cx="65" cy="65" r="65"></circle>
                <g filter="url(#filter-1)" id="Group-15">
                    <g transform="translate(35.000000, 36.000000)">
                        <path d="M12,27 C15.8659833,27 19,30.1339 19,34 C19,37.8659833 15.8659833,41 12,41 C8.13401667,41 5,37.8659833 5,34 C5,30.1339 8.13401667,27 12,27" id="Fill-1" fill="#000000"></path>
                        <g id="Group-5" transform="translate(1.000000, 41.000000)">
                            <mask id="mask-3" fill="white">
                                <use xlink:href="#path-2"></use>
                            </mask>
                            <g id="Clip-4"></g>
                            <path d="M18.7999077,0 L5.20795119,0 C2.34252111,0 0.00982343936,2.30110441 0.00774335623,5.12909135 L0,13.2875006 C-0.000923656818,14.2324443 0.775640712,15.0000114 1.73340343,15.0000114 L22.1875542,15.0000114 C23.1384989,15.0000114 23.911712,14.2439652 23.9208413,13.3055234 L24,5.17551724 C24,3.70950852 23.4331773,2.45441251 22.4907841,1.51722549 C21.5070204,0.538859725 20.1963369,0 18.7999077,0" id="Fill-3" fill="#000000" mask="url(#mask-3)"></path>
                        </g>
                        <path d="M49,27 C52.8659833,27 56,30.1339 56,34 C56,37.8659833 52.8659833,41 49,41 C45.1339,41 42,37.8659833 42,34 C42,30.1339 45.1339,27 49,27" id="Fill-6" fill="#000000"></path>
                        <g id="Group-10" transform="translate(36.000000, 41.000000)">
                            <mask id="mask-5" fill="white">
                                <use xlink:href="#path-4"></use>
                            </mask>
                            <g id="Clip-9"></g>
                            <path d="M18.7997016,0 L5.20769499,0 C2.34250983,0 0.00970783245,2.30099034 0.00751219971,5.12909135 L0,13.2873865 C-0.000923652371,14.2323302 0.775636978,15.0000114 1.73339509,15.0000114 L22.1874474,15.0000114 C23.1383875,15.0000114 23.9115969,14.2439652 23.9207261,13.3054094 C24.0008089,5.05871107 23.9986133,5.18544121 24.0000363,5.17186705 C24.0104004,3.79346296 23.4744349,2.49559125 22.4907914,1.51722549 C21.5070324,0.538859725 20.1961241,0 18.7997016,0" id="Fill-8" fill="#000000" mask="url(#mask-5)"></path>
                        </g>
                        <path d="M20.9709544,11.1091927 C20.0084979,11.1091927 19.2282158,10.3069418 19.2282158,9.31738744 C19.2282158,8.32783311 20.0084979,7.52558216 20.9709544,7.52558216 C21.9334108,7.52558216 22.7136929,8.32783311 22.7136929,9.31738744 C22.7136929,10.3069418 21.9334108,11.1091927 20.9709544,11.1091927 M14,11.1091927 C13.0375436,11.1091927 12.2572614,10.3069418 12.2572614,9.31738744 C12.2572614,8.32783311 13.0375436,7.52558216 14,7.52558216 C14.9624564,7.52558216 15.7427386,8.32783311 15.7427386,9.31738744 C15.7427386,10.3069418 14.9624564,11.1091927 14,11.1091927 M7.02904564,11.1091927 C6.06658921,11.1091927 5.28630705,10.3069418 5.28630705,9.31738744 C5.28630705,8.32783311 6.06658921,7.52558216 7.02904564,7.52558216 C7.99150207,7.52558216 8.77178423,8.32783311 8.77178423,9.31738744 C8.77178423,10.3069418 7.99150207,11.1091927 7.02904564,11.1091927 M18.9958506,0 L9.00414938,0 C4.0393195,0 0,4.15304627 0,9.2576606 C0,14.3622749 4.0393195,18.5153212 9.00414938,18.5153212 L14.7651784,18.5153212 L14.8035187,24.0498493 C14.8096763,24.8965371 15.7962988,25.3105635 16.3797676,24.7293019 C24.9550871,16.1860938 24.8499419,16.2918103 24.8637676,16.2766397 C26.8574606,14.5131449 28,11.9575528 28,9.2576606 C28,4.15304627 23.9606805,0 18.9958506,0" id="Fill-11" fill="#000000"></path>
                        <path d="M40.0290456,11.1092764 C39.0665892,11.1092764 38.2863071,10.3070194 38.2863071,9.31745761 C38.2863071,8.32789583 39.0665892,7.52563884 40.0290456,7.52563884 C40.9915021,7.52563884 41.7717842,8.32789583 41.7717842,9.31745761 C41.7717842,10.3070194 40.9915021,11.1092764 40.0290456,11.1092764 M47,7.52563884 C47.9624564,7.52563884 48.7427386,8.32789583 48.7427386,9.31745761 C48.7427386,10.3070194 47.9624564,11.1092764 47,11.1092764 C46.0375436,11.1092764 45.2572614,10.3070194 45.2572614,9.31745761 C45.2572614,8.32789583 46.0375436,7.52563884 47,7.52563884 M53.9709544,7.52563884 C54.9334108,7.52563884 55.7136929,8.32789583 55.7136929,9.31745761 C55.7136929,10.3070194 54.9334108,11.1092764 53.9709544,11.1092764 C53.0084979,11.1092764 52.2282158,10.3070194 52.2282158,9.31745761 C52.2282158,8.32789583 53.0084979,7.52563884 53.9709544,7.52563884 M46.1964813,24.049911 L46.2348216,18.5154606 L51.9958506,18.5154606 C56.9606805,18.5154606 61,14.3623831 61,9.25773032 C61,4.15307755 56.9606805,0 51.9958506,0 L42.0041494,0 C37.0393195,0 33,4.15307755 33,9.25773032 C33,11.9576428 34.1425394,14.5132542 36.1361162,16.2766428 C36.1483154,16.2901412 36.0280664,16.1693726 44.6201162,24.7294881 C45.1999834,25.3070511 46.1903237,24.9036529 46.1964813,24.049911" id="Fill-13" fill="#FF9CA8"></path>
                    </g>
                </g>
            </g>
        </g>
    </g>
</svg>