<?xml version="1.0" encoding="UTF-8"?>
<svg width="387px" height="251px" viewBox="0 0 387 251" version="1.1" xmlns="http://www.w3.org/2000/svg" xmlns:xlink="http://www.w3.org/1999/xlink">
    <title>Plan de travail 120</title>
    <g id="Page-1" stroke="none" stroke-width="1" fill="none" fill-rule="evenodd">
        <g id="ENTREPRISES" transform="translate(-1046.000000, -112.000000)" fill-rule="nonzero">
            <g id="Plan-de-travail-120" transform="translate(1046.000000, 112.000000)">
                <g id="Group" transform="translate(0.000000, 108.000000)">
                    <g transform="translate(116.171253, 0.000000)" id="Path">
                        <g transform="translate(0.000000, 63.757785)" fill="#F49750">
                            <polygon points="25.649538 0 21.8160678 13.6774374 4.56042094 75.2397061 0 75.2397061 16.3576489 11.7202917 19.3786448 0"></polygon>
                            <polygon points="96.4127823 75.2397061 91.8523614 75.2397061 74.5967146 13.6774374 70.7632444 0 77.0341376 0 80.0551335 11.7202917"></polygon>
                        </g>
                        <path d="M19.3786448,63.7577847 L25.649538,63.7577847 L21.8160678,77.4352221 C19.8792094,76.8505876 18.0681211,76.188169 16.3576489,75.4755673 L19.3786448,63.7577847 L19.3786448,63.7577847 Z" fill="#81A2B3" opacity="0.5" style="mix-blend-mode: multiply;"></path>
                        <path d="M80.0551335,75.4780764 C78.3446612,76.188169 76.5360883,76.8530967 74.5967146,77.4377313 L70.7632444,63.7602939 L77.0341376,63.7602939 L80.0551335,75.4780764 L80.0551335,75.4780764 Z" fill="#81A2B3" opacity="0.5" style="mix-blend-mode: multiply;"></path>
                        <path d="M81.2801335,19.6417135 L81.2801335,57.7332888 L14.3252053,57.7332888 L14.3252053,19.6417135 C14.3252053,8.79210066 29.311961,0 47.8026694,0 C66.2933778,0 81.2801335,8.79210066 81.2801335,19.6417135 L81.2801335,19.6417135 Z" fill="#FF9A00"></path>
                        <path d="M81.2801335,19.6417135 L81.2801335,57.7332888 L14.3252053,57.7332888 L14.3252053,19.6417135 C14.3252053,8.79210066 29.311961,0 47.8026694,0 C66.2933778,0 81.2801335,8.79210066 81.2801335,19.6417135 L81.2801335,19.6417135 Z" fill="#891634"></path>
                        <path d="M83.7678645,58.2903226 C83.7678645,67.1175515 67.8478953,74.2736791 48.2076489,74.2736791 C28.5674025,74.2736791 12.6474333,67.1175515 12.6474333,58.2903226 C12.6474333,49.4630937 28.5674025,54.902955 48.2076489,54.902955 C67.8478953,54.902955 83.7678645,49.4630937 83.7678645,58.2903226 Z" fill="#9E223E"></path>
                    </g>
                    <g transform="translate(0.000000, 59.517302)">
                        <g transform="translate(6.897228, 25.496688)" fill="#9E223E" id="Path">
                            <path d="M25.2143737,25.9837712 C25.0584189,26.0188994 24.9024641,25.9260605 24.8597023,25.7704925 C24.8219713,25.6425253 21.1318789,12.9838073 12.0412218,8.23898355 C11.8928131,8.16119956 11.8349589,7.98053995 11.9129363,7.83249945 C11.9909138,7.68445894 12.1720226,7.62925739 12.3204312,7.70453223 C21.6450205,12.5697957 25.4030287,25.4744115 25.4407598,25.6048878 C25.486037,25.7654742 25.3929671,25.9310788 25.2319815,25.9762437 C25.2244353,25.9762437 25.2194045,25.9787529 25.2143737,25.981262 L25.2143737,25.9837712 Z"></path>
                            <path d="M12.9065195,8.29669426 C12.9065195,8.29669426 14.4937372,10.8811302 11.9808522,12.4719384 C9.46796715,14.0652557 5.98665298,10.6578149 4.05734086,7.10735188 C2.12802875,3.55688885 0,2.00873643 0,2.00873643 C0,2.00873643 6.25328542,0.189594597 11.5456879,0.00391667204 C16.1715092,-0.159178802 17.6832649,4.81397859 15.5200205,6.95429305 C13.4322382,9.01933267 12.9065195,8.29669426 12.9065195,8.29669426 Z"></path>
                        </g>
                        <g transform="translate(18.670102, 0.000000)" fill="#9E223E" id="Path">
                            <path d="M18.1377525,64.9395996 C18.391808,64.7865408 18.4873932,64.4603498 18.3465308,64.1943788 C18.2333378,63.9760817 6.93667451,42.0234309 13.1874445,23.9148149 C13.2905759,23.621243 13.1321057,23.3000704 12.8378039,23.1971948 C12.543502,23.0968283 12.2240462,23.2549055 12.1209148,23.5459682 C5.70915911,42.118779 17.229693,64.4904598 17.3454014,64.7162843 C17.4887792,64.992292 17.8308737,65.1001859 18.1075677,64.9571637 C18.1176293,64.9521454 18.1276909,64.9446179 18.1377525,64.9395996 L18.1377525,64.9395996 Z"></path>
                            <path d="M12.0831837,25.0991389 C12.0831837,25.0991389 13.2553603,30.6494034 18.7238408,29.5930466 C24.1948367,28.5366897 24.5394466,19.4409806 22.5849805,12.1368125 C20.6305143,4.83264437 21.5335431,0 21.5335431,0 C21.5335431,0 10.6821057,5.54273697 3.2440667,12.0791018 C-3.25572796,17.7899525 1.09843015,26.4917234 6.79832748,26.6272181 C12.2969928,26.7576945 12.0806683,25.0991389 12.0806683,25.0991389 L12.0831837,25.0991389 Z"></path>
                        </g>
                        <g transform="translate(26.288642, 3.964475)" fill="#FFFFFF" id="Path">
                            <path d="M3.60689225,44.0131957 C3.59431525,44.0131957 3.58173824,44.0131957 3.56916124,44.0106865 C3.2924672,43.9830857 3.09123516,43.7371879 3.12141997,43.4611802 C3.18933578,42.80378 4.88974646,27.3373107 13.8169025,22.0203982 C14.0508348,21.8798852 14.3627444,21.9576692 14.5061222,22.1935303 C14.6495001,22.4319006 14.5715226,22.7380183 14.3325596,22.8810405 C5.83805241,27.9395094 4.13764174,43.4084878 4.12254933,43.5615467 C4.09487993,43.8250086 3.86849389,44.0207231 3.60689225,44.0106865 L3.60689225,44.0131957 Z"></path>
                            <path d="M9.4501674,26.5695074 C9.4501674,26.5695074 3.44087582,29.397332 0.578350155,23.5384407 C-2.28166011,17.6795494 5.97388404,10.9324151 14.1740894,7.59523079 C22.3742947,4.26055563 26.2555575,0 26.2555575,0 C26.2555575,0 28.7080729,14.0563207 27.835229,25.6235536 C27.0705473,35.7329639 15.8770155,37.8130585 11.7391818,32.5839666 C7.74724133,27.5380436 9.4501674,26.5669982 9.4501674,26.5669982 L9.4501674,26.5695074 Z"></path>
                        </g>
                        <g transform="translate(0.000000, 6.927101)" fill="#FFFFFF" id="Path">
                            <path d="M30.8664784,49.00461 C30.6023614,48.9970825 30.386037,48.7838038 30.3810062,48.5178327 C30.37346,48.2970266 29.6087782,26.364449 16.8808522,15.0004582 C16.6745893,14.8147802 16.6569815,14.4986259 16.8406057,14.2903656 C17.02423,14.0846143 17.3411704,14.0695594 17.5499487,14.2527281 C30.6023614,25.9077817 31.3796201,48.2644075 31.3846509,48.490232 C31.3921971,48.7662397 31.1733573,48.9970825 30.8966632,49.0071192 C30.8866016,49.0071192 30.87654,49.0071192 30.8664784,49.0071192 L30.8664784,49.00461 Z"></path>
                            <path d="M18.2517454,15.4420705 C18.2517454,15.4420705 19.7534394,20.2596599 15.0471253,21.802794 C10.3382957,23.3484373 6.1174538,16.4331892 4.45980493,9.91438852 C2.80215606,3.39558786 0,0.0333119251 0,0.0333119251 C0,0.0333119251 10.8388604,-0.353098891 19.4541068,1.50618952 C26.9852156,3.12961678 27.3851643,11.7711678 23.0184292,14.3430579 C18.8051335,16.8246183 18.2517454,15.4420705 18.2517454,15.4420705 Z"></path>
                        </g>
                        <path d="M47.5385524,56.4686716 C47.1562115,62.7691752 45.9488193,72.559922 42.1279261,79.4826976 L20.0628337,79.4826976 C15.8394764,71.8372836 14.813193,60.6840623 14.5515914,54.6043649 C14.4509754,51.9571998 14.4912218,50.2710436 14.4912218,50.2710436 L47.6794148,50.2710436 C47.6794148,50.2710436 47.7397844,52.7601314 47.5385524,56.4711807 L47.5385524,56.4686716 Z" id="Path" fill="#FF9A00"></path>
                        <rect id="Rectangle" fill="#FF9A00" x="13.4951232" y="46.2689315" width="35.1979979" height="7.1486001" rx="0.381"></rect>
                    </g>
                    <g transform="translate(61.637372, 27.272072)">
                        <g transform="translate(0.000000, 3.510316)" fill="#F49750" id="Path">
                            <g>
                                <polygon points="25.9840862 0 24.8571869 6.40337924 7.02551335 108.215102 0 108.215102 17.8316735 6.40337924 18.9560575 0"></polygon>
                                <polygon points="51.9757187 108.215102 44.9502053 108.215102 27.1084702 6.40337924 25.9840862 0 33.0196612 0 34.1440452 6.40337924"></polygon>
                            </g>
                            <g transform="translate(131.386910, 0.000000)">
                                <polygon points="25.9916324 0 24.8672485 6.40337924 7.02551335 108.215102 0 108.215102 17.8316735 6.40337924 18.9560575 0"></polygon>
                                <polygon points="51.9757187 108.215102 44.9502053 108.215102 27.1185318 6.40337924 25.9916324 0 33.0196612 0 34.1440452 6.40337924"></polygon>
                            </g>
                        </g>
                        <polygon id="Path" fill="#81A2B3" opacity="0.5" style="mix-blend-mode: multiply;" points="18.9560575 3.51031644 25.9840862 3.51031644 24.8571869 9.91369569 17.8316735 9.91369569"></polygon>
                        <polygon id="Path" fill="#81A2B3" opacity="0.5" style="mix-blend-mode: multiply;" points="34.1440452 9.91369569 27.1084702 9.91369569 25.9840862 3.51031644 33.0196612 3.51031644"></polygon>
                        <rect id="Rectangle" fill="#EFAA7B" x="2.59589322" y="0" width="178.170842" height="7.01812373"></rect>
                    </g>
                </g>
                <g id="Group" transform="translate(57.000000, 66.000000)">
                    <g transform="translate(17.711159, 16.130336)" id="Rectangle">
                        <rect fill="#FF9A00" x="0" y="0" width="59.1943388" height="55.869664"></rect>
                        <rect fill="#F49750" x="59.1943388" y="0" width="23.1977814" height="55.869664"></rect>
                        <rect fill="#EC9455" x="26.4225514" y="0" width="6.34923603" height="4.38499458"></rect>
                        <rect fill="#FFB665" x="67.1058079" y="0" width="4.57385724" height="4.38499458"></rect>
                    </g>
                    <polygon id="Path" fill="#FF9A00" points="0 0 17.7111588 16.130336 30.8986123 16.130336 15.4493062 0"></polygon>
                    <polygon id="Path" fill="#F49750" points="118 4.85571444 100.291349 16.1127154 87.1038953 16.1127154 102.553201 4.85571444"></polygon>
                    <g transform="translate(25.912709, 25.534664)">
                        <polygon id="Rectangle" fill="#FFFFFF" transform="translate(23.118400, 21.798183) rotate(-3.210000) translate(-23.118400, -21.798183) " points="0.668927505 9.32781365 45.5732052 9.31818129 45.5678735 34.2685518 0.663595778 34.2781841"></polygon>
                        <g transform="translate(6.519000, 18.418488)" fill="#E9364B">
                            <g transform="translate(7.130652, 0.000000)">
                                <path d="M0.822491872,2.56001119 L0.895212189,3.49893368 L0.200607774,3.55431248 L0,0.974163549 L0.842552649,0.908715869 C1.54217226,0.853337063 1.91078904,1.07988673 1.9509106,1.58836486 C1.97347897,1.88791386 1.84559152,2.12956683 1.56975583,2.315841 L2.40729328,3.38062441 L1.61990777,3.44103765 L1.00303887,2.54490788 L0.827507066,2.55749397 L0.822491872,2.56001119 Z M0.782370317,2.03642975 L0.91276537,2.02636087 C1.1560023,2.00622312 1.26884417,1.89043107 1.25129099,1.67395028 C1.238753,1.49522777 1.11086555,1.417194 0.872643815,1.43481453 L0.734725971,1.4448834 L0.77986272,2.03391253 L0.782370317,2.03642975 Z" id="Shape"></path>
                                <polygon id="Path" points="4.1626113 3.24469461 2.63548463 3.36300388 2.43487685 0.782854945 3.96200353 0.664545677 4.00463268 1.22336818 3.17211042 1.28881586 3.20470918 1.69408803 3.97454151 1.63367479 4.01717067 2.19249729 3.24733833 2.25291053 3.28495229 2.74125092 4.11747455 2.67580324 4.1626113 3.24469461"></polygon>
                                <path d="M5.52925176,1.61605426 L6.6401173,1.53046883 L6.74794398,2.92249065 C6.45455511,3.04835157 6.12856748,3.12638534 5.76747349,3.15659197 C5.37127314,3.18679859 5.05531589,3.09617872 4.82210936,2.88221515 C4.58890282,2.66825158 4.45349257,2.34856484 4.42089381,1.9206377 C4.38829505,1.50277943 4.48107614,1.17050659 4.70174469,0.921301961 C4.91990565,0.672097332 5.24338568,0.528615879 5.6696772,0.495892039 C5.83267102,0.483305947 5.98563444,0.485823165 6.13107508,0.505960913 C6.27651571,0.526098661 6.40440317,0.553788064 6.51473745,0.59406356 L6.33669805,1.1579205 C6.14361307,1.07988673 5.9379901,1.0496801 5.71481395,1.06730063 C5.51169858,1.08240394 5.36124275,1.16043772 5.26093886,1.30140195 C5.16063497,1.44236619 5.12051342,1.63619201 5.1380666,1.88287942 C5.15561978,2.12453239 5.22081731,2.3032549 5.33115158,2.42408139 C5.44148586,2.54239066 5.58943409,2.59525225 5.78001148,2.58014894 C5.88282296,2.57259728 5.97811165,2.55497675 6.06336996,2.52728735 L6.03327879,2.12201517 L5.57438851,2.15725623 L5.53175936,1.61857148 L5.52925176,1.61605426 Z" id="Path"></path>
                                <polygon id="Path" points="7.27955458 3.00052442 7.07894681 0.420375485 7.77355123 0.364996679 7.92902225 2.38380589 8.91952313 2.30577212 8.96215228 2.86962906 7.27704699 3.00052442"></polygon>
                                <polygon id="Path" points="10.9030325 2.71859595 9.37590582 2.83690522 9.17529804 0.256756284 10.7024247 0.138447016 10.7450539 0.697269517 9.91253161 0.762717197 9.94513037 1.16798937 10.7149627 1.10757613 10.7575919 1.66639863 9.98775953 1.72681187 10.0253735 2.21515226 10.8578957 2.14970458 10.9030325 2.71859595"></polygon>
                                <path d="M12.9718002,1.76708737 C12.9843381,1.92818935 12.954247,2.0716708 12.8840343,2.20256616 C12.8138215,2.33346153 12.7034873,2.4391847 12.555539,2.51973569 C12.4075908,2.60028668 12.232059,2.64811383 12.026436,2.66573436 C11.8559194,2.67832046 11.7104788,2.67832046 11.5926217,2.66573436 C11.4747646,2.65314827 11.3518924,2.61790721 11.2214973,2.56756284 L11.173853,1.94580988 C11.3117708,2.0037059 11.4547039,2.04649862 11.6001445,2.07418802 C11.7455851,2.10187743 11.8784878,2.10942908 11.9988525,2.10187743 C12.1016639,2.09432577 12.1768919,2.06915359 12.2220286,2.03139531 C12.2671654,1.99111981 12.2872261,1.94329266 12.2822109,1.88791386 C12.2797033,1.8526728 12.2671654,1.82246617 12.2471046,1.79729399 C12.2245362,1.77212181 12.1919374,1.74694962 12.1468007,1.72429465 C12.1016639,1.70163969 11.9838069,1.65381254 11.7907219,1.58584764 C11.6176977,1.52291718 11.484795,1.4574695 11.3970291,1.39202182 C11.3067556,1.32657414 11.2390505,1.24854036 11.1914062,1.16043772 C11.1437618,1.06981785 11.1161783,0.961577457 11.1061479,0.835716533 C11.0885947,0.599097997 11.1588074,0.405272174 11.3218012,0.259273503 C11.484795,0.113274831 11.715494,0.0276894032 12.0164056,0.00503443695 C12.2822109,-0.0151033108 12.5580466,0.0251721847 12.8439127,0.125860924 L12.6733961,0.679648988 C12.425144,0.589029123 12.2119982,0.548753627 12.038974,0.56133972 C11.9487005,0.568891375 11.883503,0.589029123 11.845889,0.624270181 C11.8082751,0.65951124 11.7907219,0.699786736 11.7932295,0.747613887 C11.7982447,0.797958256 11.8258283,0.84075097 11.8809954,0.878509247 C11.9361625,0.913750306 12.0841108,0.976680768 12.3223325,1.06478341 C12.5505238,1.14785162 12.7135176,1.24350593 12.8088063,1.35174632 C12.904095,1.45998671 12.9592622,1.60095095 12.9718002,1.77463902 L12.9718002,1.76708737 Z" id="Path"></path>
                                <polygon id="Path" points="2.06124487 7.77317065 0.534118197 7.89147991 0.333510424 5.31133098 1.8606371 5.19302171 1.90326625 5.75184421 1.07074399 5.81729189 1.10334275 6.22256407 1.87317509 6.16215082 1.91580424 6.72097332 1.14597191 6.78138657 1.18358586 7.26972695 2.01610812 7.20427927 2.06124487 7.77317065"></polygon>
                                <polygon id="Path" points="2.51261236 7.73792959 2.31200459 5.15778065 3.00660901 5.10240185 3.16208003 7.12121106 4.15258091 7.04317729 4.19521006 7.60703423 2.51010477 7.73792959"></polygon>
                                <polygon id="Path" points="6.13609027 7.4534839 4.6089636 7.57179317 4.40835582 4.99164423 5.9354825 4.87333496 5.97811165 5.43215747 5.14558939 5.49760515 5.17818815 5.90287732 5.94802049 5.84246408 5.99064964 6.40128658 5.22081731 6.46169982 5.25843126 6.95004021 6.09095352 6.88459253 6.13609027 7.4534839"></polygon>
                                <path d="M7.7058461,7.33265741 L7.03631766,5.51522568 L7.02127207,5.51522568 C7.07142402,5.8323952 7.10151518,6.0765654 7.11656077,6.25025347 L7.20432667,7.37041569 L6.58996536,7.41824284 L6.38935759,4.83809391 L7.31466094,4.76509457 L7.99421978,6.55483691 L8.00926536,6.55483691 C8.00926536,6.55483691 8.39292773,4.67950914 8.39292773,4.67950914 L9.32073868,4.60650981 L9.52134645,7.18665874 L8.88190917,7.23700311 L8.79414327,6.1042548 C8.78912808,6.04635877 8.78662048,5.98091109 8.78160529,5.90791176 C8.77659009,5.83491242 8.7715749,5.65870713 8.76405211,5.37929588 L8.74900652,5.37929588 C8.74900652,5.37929588 8.37286695,7.27727861 8.37286695,7.27727861 L7.7108613,7.3301402 L7.7058461,7.33265741 Z" id="Path"></path>
                                <polygon id="Path" points="11.5926217 7.02807398 10.065495 7.14638325 9.86488726 4.56623431 11.3920139 4.44792504 11.4346431 5.00674754 10.6021208 5.07219522 10.6347196 5.4774674 11.4045519 5.41705416 11.4471811 5.97587666 10.6773487 6.0362899 10.7149627 6.52463028 11.547485 6.4591826 11.5926217 7.02807398"></polygon>
                                <path d="M14.491404,6.80152432 L13.5811463,6.87200643 L12.5003719,5.12757403 L12.4853263,5.12757403 C12.5304631,5.41201972 12.5580466,5.63101773 12.5705846,5.78205083 L12.6608581,6.94500577 L12.0464968,6.99283292 L11.845889,4.41268398 L12.7536392,4.34220187 L13.8293984,6.0639793 L13.8394288,6.0639793 C13.8018148,5.8047058 13.7792464,5.59577667 13.7667085,5.4371919 L13.676435,4.26920253 L14.2958115,4.22137538 L14.4964192,6.80152432 L14.491404,6.80152432 Z" id="Path"></path>
                                <polygon id="Path" points="16.1815245 6.67062896 15.4869201 6.72600776 15.3314491 4.7147502 14.7045498 4.76257735 14.6594131 4.19116876 16.6078161 4.04013565 16.6529528 4.61154424 16.0260535 4.65937139"></polygon>
                                <path d="M18.7518116,6.46925148 L18.5888178,5.9960144 L17.753788,6.06146208 L17.6610069,6.55483691 L16.8986973,6.61525015 L17.535627,3.95706744 L18.463438,3.8840681 L19.5141212,6.40883823 L18.7543192,6.46925148 L18.7518116,6.46925148 Z M18.3982404,5.43467468 L18.2553074,5.01933364 C18.2227086,4.92619655 18.1825871,4.80788728 18.1324351,4.66188861 C18.0847908,4.51588994 18.052192,4.41016677 18.0346388,4.3472363 C18.0296236,4.40764955 18.0145781,4.50833829 17.9945173,4.64930252 C17.9744565,4.79026676 17.9268122,5.06716079 17.8515842,5.47998462 L18.3982404,5.4371919 L18.3982404,5.43467468 Z" id="Shape"></path>
                                <polygon id="Path" points="19.7899569 6.38870049 19.5893491 3.80855155 20.2864611 3.75317274 20.4870689 6.33332168"></polygon>
                                <path d="M21.6656395,5.29622767 L21.7383599,6.23515016 L21.0437554,6.29052897 L20.8431477,3.71038003 L21.6857003,3.64493235 C22.3853199,3.58955354 22.7539367,3.81610321 22.7940583,4.32458134 C22.8166266,4.62413034 22.6887392,4.86578331 22.4129035,5.05205748 L23.250441,6.11684089 L22.4630554,6.17725413 L21.8461865,5.28112436 L21.6706547,5.29371045 L21.6656395,5.29622767 Z M21.625518,4.77264623 L21.755913,4.76257735 C21.99915,4.7424396 22.1119918,4.62664755 22.0944387,4.41016677 C22.0819007,4.23144425 21.9540132,4.15341048 21.7157915,4.17103101 L21.5778736,4.18109988 L21.6230104,4.77012901 L21.625518,4.77264623 Z" id="Shape"></path>
                                <polygon id="Path" points="25.0082666 5.98091109 23.4811399 6.09922036 23.2805321 3.51907143 24.8076588 3.40076216 24.8502879 3.95958466 24.0177657 4.02503234 24.0503645 4.43030451 24.8201968 4.36989127 24.8628259 4.92871377 24.0929936 4.98912701 24.1306076 5.4774674 24.9631298 5.41201972 25.0082666 5.98091109"></polygon>
                                <path d="M27.0795418,5.03191973 C27.0920798,5.19302171 27.0619887,5.33650316 26.9917759,5.46739852 C26.9215632,5.59829389 26.8112289,5.70401706 26.6632807,5.78456805 C26.5153325,5.86511904 26.3398007,5.91294619 26.1341777,5.93056672 C25.9636611,5.94315282 25.8182205,5.94315282 25.7003634,5.93056672 C25.5825063,5.91798063 25.4596341,5.88273957 25.329239,5.8323952 L25.2815947,5.21064224 C25.4195125,5.26853827 25.5624455,5.31133098 25.7078862,5.33902038 C25.8533268,5.36670979 25.9862295,5.37426144 26.1065941,5.36670979 C26.2094056,5.35915813 26.2846335,5.33398595 26.3297703,5.29622767 C26.374907,5.25595217 26.3949678,5.20812502 26.3899526,5.15274622 C26.387445,5.11750516 26.374907,5.08729854 26.3548463,5.06212635 C26.3322779,5.03695417 26.2996791,5.01178198 26.2545424,4.98912701 C26.2094056,4.96647205 26.0915485,4.9186449 25.8984636,4.85068 C25.7254394,4.78774954 25.5925367,4.72230186 25.5047708,4.65685418 C25.4144973,4.5914065 25.3467922,4.51337272 25.2991478,4.42527008 C25.2515035,4.33465021 25.2239199,4.22640982 25.2138895,4.10054889 C25.1963364,3.86393036 25.2665491,3.67010453 25.4295429,3.52410586 C25.5925367,3.37810719 25.8232357,3.29252176 26.1241473,3.2698668 C26.3899526,3.24972905 26.6657883,3.29000454 26.9516544,3.39069328 L26.7811378,3.94448135 C26.5328856,3.85386148 26.3197399,3.81358599 26.1467157,3.82617208 C26.0564422,3.83372374 25.9912447,3.85386148 25.9536307,3.88910254 C25.9160167,3.9243436 25.8984636,3.9646191 25.9009712,4.01244625 C25.9059864,4.06279062 25.9335699,4.10558333 25.9887371,4.14334161 C26.0439042,4.17858267 26.1918524,4.24151313 26.4300742,4.32961577 C26.6582655,4.41268398 26.8212593,4.50833829 26.916548,4.61657868 C27.0118367,4.72481907 27.0670038,4.86578331 27.0795418,5.03947138 L27.0795418,5.03191973 Z" id="Path"></path>
                            </g>
                            <path d="M5.78156445,5.72163759 C5.72639731,5.00926476 5.61355544,4.36737405 5.44303883,3.80855155 C4.94904219,2.18746285 3.97609448,1.26867811 2.55428689,1.37943572 C1.14752488,1.49019334 0.3300482,2.52728735 0.0817960803,4.17103101 C-0.00847741782,4.76257735 -0.0235230008,5.43467468 0.0341517341,6.1722197 C0.0592277058,6.49694088 0.101856858,6.81159319 0.157023995,7.11365941 C0.16203919,7.11365941 0.164546787,7.11114219 0.169561981,7.10862497 C0.169561981,7.11114219 0.169561981,7.11617662 0.169561981,7.11869384 C0.19714555,7.47865609 1.34562505,7.45851834 1.60390756,7.27224417 C1.98506233,7.68758522 2.44896781,8.00223753 2.98308601,8.20864944 L3.08338989,8.24640772 L3.17617099,8.19354613 C3.67267523,7.90658323 4.07890597,7.52396602 4.39235561,7.0582806 C4.66317611,7.20931371 5.75398088,7.08848722 5.79911763,6.74866273 C5.80162522,6.72349054 5.80413282,6.70083558 5.80162522,6.67566339 L5.80162522,6.67566339 C5.81165561,6.3635283 5.80413282,6.04384156 5.77905685,5.71912037 L5.78156445,5.72163759 Z M3.13354184,8.11299514 L3.0783747,8.14571898 L3.01819237,8.12306401 C2.48908936,7.9166521 2.03019908,7.60451701 1.6565671,7.19169318 C1.6565671,7.17407265 1.64653671,7.1539349 1.62898353,7.13379715 C1.33057947,6.80152432 1.08734255,6.4038038 0.906795549,5.95322169 C0.598361097,5.19050449 0.573285125,4.54357934 0.570777528,4.51588994 L0.570777528,4.41268398 C0.570777528,4.41268398 0.678604207,4.39254624 0.678604207,4.39254624 C1.27039714,4.28430584 1.76690138,4.0199979 2.07784343,3.81862042 C2.41135385,3.60213964 2.61446922,3.40579659 2.62449961,3.39572772 L2.70474272,3.31769395 L2.79752381,3.38314163 C2.82259979,3.40076216 3.04577593,3.5568297 3.40185473,3.71541447 C3.74038035,3.86644758 4.27199095,4.05020452 4.87381427,4.06530783 L4.98665614,4.06530783 C4.98665614,4.06530783 4.99919413,4.17103101 4.99919413,4.17103101 C5.00170173,4.19872041 5.07692964,4.84312834 4.88885985,5.64360382 C4.77852558,6.11684089 4.59797858,6.54728525 4.35724925,6.9223508 C4.34220367,6.94500577 4.33718848,6.96766073 4.33718848,6.98528126 C4.03126162,7.45096668 3.62753848,7.83106667 3.13604943,8.11551236 L3.13354184,8.11299514 Z" id="Shape"></path>
                        </g>
                        <g transform="translate(35.646294, 0.000000)">
                            <ellipse id="Oval" fill="#FFFFFF" cx="5.88783815" cy="5.91042898" rx="5.88783815" ry="5.91042898"></ellipse>
                            <path d="M9.25554115,7.91161766 C9.40098179,7.01297067 9.45113373,6.18480579 9.40850458,5.44474356 C9.28312472,3.29252176 8.35531377,1.86274167 6.56238179,1.57074433 C4.78951059,1.28378142 3.47051448,2.31835821 2.67059099,4.27927141 C2.38221731,4.98409258 2.16405636,5.80974024 2.01360053,6.73859385 C1.948403,7.14638325 1.90577385,7.5491382 1.88571307,7.94182428 C1.89072827,7.94182428 1.89825106,7.94182428 1.90326625,7.94182428 C1.90326625,7.94685872 1.90326625,7.94937594 1.90075865,7.95441038 C1.82803834,8.4075097 3.25486113,8.72719645 3.6284931,8.57616334 C3.97454151,9.20295074 4.45349257,9.73156662 5.05531589,10.1494249 L5.16815777,10.2274587 L5.29855282,10.1897004 C5.99566483,9.98328847 6.61504133,9.63591232 7.13912914,9.15260637 C7.43001041,9.42194875 8.81420405,9.60067126 8.97218267,9.19288187 C8.98221306,9.16519246 8.99224345,9.13498584 8.99725864,9.10477922 L8.99725864,9.10477922 C9.10257772,8.72216201 9.19034363,8.32695871 9.25554115,7.9166521 L9.25554115,7.91161766 Z M5.26595406,10.0713911 L5.18821854,10.0940461 L5.12302102,10.0487361 C4.52872049,9.63591232 4.05729222,9.10981366 3.71625901,8.48806069 C3.7212742,8.46540573 3.71625901,8.43771632 3.69870582,8.4075097 C3.43039293,7.90658323 3.24733833,7.34272629 3.15706484,6.7310422 C3.00410141,5.69394819 3.16458763,4.88592106 3.17211042,4.85319722 L3.19969399,4.72481907 L3.34262703,4.73237073 C4.10744416,4.77768066 4.79954098,4.60147537 5.24338568,4.44540782 C5.71982914,4.27927141 6.03077119,4.09551446 6.04581678,4.0879628 L6.16868904,4.01496347 L6.26147013,4.12320386 C6.2865461,4.15089326 6.51724504,4.41268398 6.9084302,4.7147502 C7.28206218,5.00423033 7.8838855,5.38936475 8.62362667,5.59074223 L8.76154451,5.62850051 L8.74649893,5.75939587 C8.74148373,5.79463693 8.64117985,6.61273293 8.16975158,7.54662098 C7.89140829,8.09789183 7.54285229,8.57616334 7.12909875,8.9663322 C7.10402278,8.99150439 7.0914848,9.01415935 7.0864696,9.03933154 C6.56990458,9.52263749 5.95554328,9.87001363 5.26344646,10.0739083 L5.26595406,10.0713911 Z" id="Shape" fill="#E9364B"></path>
                        </g>
                    </g>
                </g>
                <g id="Group" transform="translate(298.000000, 0.000000)">
                    <path d="M44.5494258,23.3655883 C44.5494258,23.3655883 41.2857316,14.09815 41.1125047,11.6890678 C40.9367673,9.27998555 42.021318,2.33630788 50.0474952,1.59601698 C58.0736724,0.855726087 61.0612079,0 61.0612079,0 L59.5322927,1.80430222 C59.5322927,1.80430222 61.7641574,1.10918161 64.0889119,2.63744316 C66.4111558,4.16570471 67.5936173,8.68022445 67.2446531,12.567379 C66.8981994,16.4570431 63.8579427,20.7381829 63.8152637,22.3467472 C63.7725846,23.9553115 44.5469152,23.3630788 44.5469152,23.3630788 L44.5494258,23.3655883 Z" id="Path" fill="#FFFFFF"></path>
                    <path d="M22.6575693,119.525612 C22.6575693,119.525612 22.4743003,121.643596 20.2625199,126.245947 C20.2625199,126.245947 19.2482642,129.375245 25.881095,134.072955 C32.5139258,138.768156 26.064364,119.525612 26.064364,119.525612 L22.6550588,119.525612 L22.6575693,119.525612 Z" id="Path" fill="#D9935C"></path>
                    <path d="M46.0632778,37.7322506 C46.0632778,37.7322506 42.3426664,57.6372926 38.2856434,78.4331931 C33.8771457,101.035905 29.0694731,124.687572 28.2058495,124.97616 C26.548897,125.528241 24.0107471,123.362577 22.9061122,120.60217 C22.0173831,118.381297 20.493489,100.119952 21.5303396,88.3204682 C21.7839035,85.4396073 22.0751254,83.0756954 22.4014949,81.6126798 C24.0584473,74.1545627 24.5630646,47.7700933 29.5364325,43.6269737 C34.5098003,39.4838541 46.0632778,37.73476 46.0632778,37.73476 L46.0632778,37.7322506 Z" id="Path" fill="#D9935C"></path>
                    <path d="M46.0632778,37.7322506 C46.0632778,37.7322506 43.9192817,49.2055048 41.1125047,63.8281321 C40.2237757,68.4681248 39.2647517,73.4243096 38.2856434,78.4331931 C34.3089576,86.222559 30.8971419,91.5200305 29.8452281,90.5212652 C27.696211,88.4911115 23.9203679,88.2426749 21.5303396,88.3179587 C21.7839035,85.4370979 22.0751254,83.0731859 22.4014949,81.6101703 C22.5320426,81.0204471 22.6550588,80.3127792 22.7755644,79.5097518 C24.1664002,70.1268783 24.9547079,47.4413539 29.5364325,43.6269737 C34.5098003,39.4838541 46.0632778,37.73476 46.0632778,37.73476 L46.0632778,37.7322506 Z" id="Path" fill="#FFFFFF"></path>
                    <path d="M62.5625072,37.4386437 C62.6503759,33.4235066 62.585102,28.6304367 62.0403161,24.5801672 L46.008046,27.2000442 C46.008046,27.2000442 46.008046,32.0884735 46.078341,37.516437 C46.0682988,37.516437 46.0632778,37.516437 46.0632778,37.516437 C46.0632778,37.516437 45.6264449,42.5504151 51.8274638,43.285687 C58.0309933,44.020959 62.7282024,41.3207793 62.5599967,37.4361342 L62.5625072,37.4386437 Z" id="Path" fill="#D9935C"></path>
                    <path d="M56.6501996,249.874527 C56.6501996,249.874527 57.2326435,245.332403 58.5858213,242.632223 C59.9364886,239.932044 68.5350676,241.651024 68.5350676,241.651024 C68.5350676,241.651024 70.2547834,243.124078 70.6238319,250 L56.6527102,249.877036 L56.6501996,249.874527 Z" id="Path" fill="#77122A"></path>
                    <path d="M27.357289,249.81179 C29.3782688,248.579645 28.2284443,239.384981 28.2284443,239.384981 C28.2284443,239.384981 18.8139418,231.856599 17.5210168,237.620831 C16.2280918,243.385062 8.57849467,245.972316 4.22522872,246.677474 C1.22011952,247.164309 0.28871141,248.828082 0,249.81179 L27.357289,249.81179 Z" id="Path" fill="#77122A"></path>
                    <path d="M46.4850475,28.7609287 C48.0440891,29.9855455 52.6107504,31.2026339 53.9312913,31.3456732 C53.9312913,31.3456732 60.704712,29.8349779 61.9348737,29.094687 C63.8428795,27.9403351 63.7198634,25.6015177 63.8177742,22.3492567 C63.9357693,18.5022535 64.3223915,15.4783534 63.8930902,13.2599902 C63.3834518,10.6049808 61.6988835,9.09679492 56.9866112,8.68524337 C48.335311,7.93491463 44.7301842,10.1005792 44.5795522,12.9990063 C44.5418942,13.7769391 44.5042362,14.5197394 44.4791308,15.2223884 C44.1326771,24.2639752 44.8481793,27.4710659 46.4850475,28.7584192 L46.4850475,28.7609287 Z" id="Path" fill="#D9935C"></path>
                    <path d="M46.8566065,181.486705 C46.4724948,183.597161 46.228973,185.328689 46.1662097,186.568363 C45.2900333,203.630186 31.7984236,242.639752 29.3858004,243.550686 C25.6526364,244.958494 19.7704552,241.964707 16.6950511,240.986017 C15.4196998,240.579485 14.5585866,239.294641 14.842277,237.989721 C21.522808,207.283961 23.9806207,163.069773 24.8743708,136.893589 C25.326267,123.708882 27.5907686,114.59954 27.5907686,114.59954 C27.5907686,114.59954 60.4988482,105.823956 60.6946699,116.92581 C60.8678967,126.750349 49.7939313,165.280608 46.859117,181.486705 L46.8566065,181.486705 Z" id="Path" fill="#FFE4DD"></path>
                    <path d="M39.5333788,116.965962 L56.9313794,243.001114 C56.9313794,243.001114 64.5709344,244.843058 70.5133684,243.370005 C70.5133684,243.370005 75.6072418,176.339801 75.1829616,160.133704 C74.7586813,143.927607 78.8382991,116.772733 74.2515535,113.776437 C69.6648079,110.780141 39.5358894,116.965962 39.5358894,116.965962 L39.5333788,116.965962 Z" id="Path" fill="#FFE4DD"></path>
                    <path d="M76.7495348,113.773928 C76.8072771,115.234434 75.6499209,116.451522 74.1913007,116.474107 L46.7762694,116.893187 L26.6392762,117.201882 C25.6953155,117.219417 28.6778298,109.678488 28.7380827,60.5106251 C28.7531459,49.539263 45.7469505,37.7322506 46.0582567,37.7322506 L46.0582567,37.7372695 C46.0607672,39.3182297 48.5537275,42.234223 52.3898234,42.4851691 C56.9439321,42.7837949 62.5323808,40.5177519 62.5323808,37.8953655 C62.5323808,37.865252 63.0595929,38.4399185 63.9106639,39.6770826 C66.1852077,42.9870612 70.7644218,51.0625056 73.6866833,65.1154854 C75.9963746,76.2148299 75.1076456,91.0532708 76.7696191,110.197946 C76.8901247,111.580659 76.7118768,112.810295 76.7470243,113.778947 L76.7495348,113.773928 Z" id="Path" fill="#FF9A00"></path>
                    <path d="M75.7377896,116.627184 C75.7377896,116.627184 72.0950048,118.258334 65.2763944,119.67116 C60.2076263,120.722624 53.389016,121.653634 45.0088535,121.706333 C31.682939,121.791655 26.6367657,117.199342 26.6367657,117.199342 C25.6928049,117.216908 27.7388901,108.338436 27.7991429,59.1705731 C27.8142061,48.199211 45.7444399,37.7297411 46.0557462,37.7297411 L46.0557462,37.73476 C46.0557462,37.73476 45.6239343,52.34484 50.0449847,56.6410367 C50.0449847,56.6410367 56.2460037,51.8529858 64.2922651,38.2266143 C66.5642984,41.5391024 70.7644218,51.0574867 73.6866833,65.1129759 C74.2791694,67.9737611 74.6632811,71.0779639 74.9319082,74.4431507 C75.7076632,84.1397067 75.5344364,95.9818516 76.7696191,110.195437 C76.8901247,111.57815 76.7118768,112.807785 76.7470243,113.776437 C76.8047666,115.236943 77.1964099,116.607109 75.7352791,116.629694 L75.7377896,116.627184 Z" id="Path" fill="#FFFFFF"></path>
                    <polygon id="Rectangle" fill="#E9364B" transform="translate(60.149222, 88.198792) rotate(-30.000000) translate(-60.149222, -88.198792) " points="45.4428616 68.0316524 74.8481136 68.0370967 74.8555819 108.365932 45.4503299 108.360488"></polygon>
                    <path d="M86.9548555,96.0470976 C86.9548555,96.0470976 81.7404764,96.5565181 72.8230596,95.6405649 C66.3910715,94.9780673 58.0284828,93.5752788 48.3127162,90.7069653 L51.1521302,85.8586873 C51.1521302,85.8586873 62.7658604,85.3467573 71.2715496,84.1020648 C73.3904403,83.7934011 75.3160199,83.4370577 76.8198298,83.0330345 C78.6700933,82.5386708 69.4890705,59.2809893 64.8571353,45.6044287 C63.7525003,42.3421298 62.9064503,39.6218745 62.5298702,37.8903466 C62.5298702,37.8903466 63.3382622,38.0208386 64.6085924,38.2717846 C68.2137192,38.981962 75.5394574,40.6532628 78.6600512,43.0121558 C82.8777483,46.1991709 93.4094384,82.1522138 86.9498344,96.0470976 L86.9548555,96.0470976 Z" id="Path" fill="#D9935C"></path>
                    <path d="M51.2575726,85.8586873 C51.2575726,85.8586873 47.3235658,82.174799 45.8021822,82.174799 C44.2807986,82.174799 39.8999168,83.770816 39.4530418,84.9979422 C39.0061667,86.2250685 38.8279188,88.4359034 40.0781647,88.9252482 C41.3309212,89.4171025 46.5176844,90.6442287 47.8583096,90.7671923 C49.1989347,90.8901559 52.5078185,90.1523745 51.2575726,85.8561778 L51.2575726,85.8586873 Z" id="Path" fill="#D9935C"></path>
                    <path d="M86.9548555,96.0470976 C86.9548555,96.0470976 81.7404764,96.5565181 72.8230596,95.6405649 C73.3151243,93.2189354 73.7720415,88.488602 71.2740602,84.1020648 C73.3929509,83.7934011 75.3185304,83.4370577 76.8223403,83.0330345 C78.6726038,82.5386708 67.7065914,60.5507764 63.0746561,46.8742158 C62.7030971,42.4525461 64.2947756,38.2215954 64.2947756,38.2215954 L64.6136135,38.2692752 C68.2187403,38.9794525 75.5444785,40.6507533 78.6650722,43.0096464 C82.8827694,46.1966614 93.4144595,82.1497044 86.9548555,96.0445881 L86.9548555,96.0470976 Z" id="Path" fill="#FFFFFF"></path>
                    <path d="M50.0474952,56.6385272 C50.0474952,56.6385272 62.4520437,51.1754314 62.6353127,50.7463136 C62.8210922,50.3171958 62.0202318,47.0021983 61.1616292,46.0209992 C61.1616292,46.0209992 67.1191264,46.5730805 67.4856644,45.8352991 C67.8547129,45.1000271 67.977729,38.9593769 67.977729,38.9593769 C67.977729,38.9593769 65.6429324,36.5051243 62.5725493,36.2591972 C62.5725493,36.2591972 59.8837674,42.9243247 58.8870854,44.914327 C56.2460037,50.1942323 50.0449847,56.6385272 50.0449847,56.6385272 L50.0474952,56.6385272 Z" id="Path" fill="#77122A"></path>
                    <path d="M47.1001283,45.8352991 C47.1001283,45.8352991 47.8984781,52.219367 50.0474952,56.6385272 C50.0474952,56.6385272 43.567807,52.126517 43.0154895,50.6534636 C42.463172,49.1804101 44.5820627,46.3246439 44.5820627,46.3246439 C44.5820627,46.3246439 40.7133298,46.2317939 40.6204401,44.9444405 C40.5275503,43.6545778 41.8179648,38.5904861 41.8179648,38.5904861 C41.8179648,38.5904861 45.1444223,36.1613282 46.0657883,36.2541783 L47.0976178,45.8327896 L47.1001283,45.8352991 Z" id="Path" fill="#77122A"></path>
                    <path d="M44.3987937,18.1233249 C44.3987937,18.1233249 44.7326947,12.3616032 48.3127162,12.2913383 C51.8902272,12.2210734 58.1138409,11.8722584 60.699691,9.44310049 C63.285541,7.01394256 45.3327124,8.12563364 45.3327124,8.12563364 C45.3327124,8.12563364 43.1611005,15.0668018 44.4013043,18.1233249 L44.3987937,18.1233249 Z" id="Path" fill="#FFFFFF"></path>
                    <path d="M58.7690903,10.301336 C58.7690903,10.301336 63.4336625,12.1984883 64.0889119,15.1621613 C64.0889119,15.1621613 65.6253587,4.23596961 58.7690903,10.301336 Z" id="Path" fill="#FFFFFF"></path>
                </g>
                <g id="Group" transform="translate(235.000000, 9.000000)">
                    <path d="M72.5768993,180.876198 C70.7940033,185.424108 61.6610562,194.785388 52.2468635,203.625763 C41.0070859,214.189134 29.3655289,224.008711 29.3655289,224.008711 C29.3655289,224.008711 24.0444634,225.629029 26.3647393,217.820449 C26.3647393,217.820449 39.1965676,194.307056 44.7084783,187.364983 C46.2829511,185.384038 47.9101575,183.573389 49.4369191,181.99815 C53.2462897,178.056294 53.9242924,176.100393 53.9242924,176.100393 C53.9242924,176.100393 55.679566,174.432492 54.5093836,172.429008 C48.7815165,162.646996 32.3412073,132.694905 37.418694,119.396778 C43.5332736,103.376417 64.9405803,87.4311861 64.9405803,87.4311861 C64.9405803,87.4311861 70.3168903,111.320232 74.3823953,132.158973 C78.1239656,151.332318 74.4552178,176.097888 72.5794104,180.878703 L72.5768993,180.876198 Z" id="Path" fill="#FF9A00"></path>
                    <path d="M28.1124795,180.024717 C27.1004977,182.526568 26.3346058,185.08602 25.7796481,187.673019 C20.3430711,213.082208 39.8821037,241.198606 39.8821037,241.198606 L42.4283804,239.703506 C42.4283804,239.703506 43.4202732,205.844621 46.0619725,190.558036 C46.5114631,187.966028 47.006154,185.904944 47.5510672,184.63774 C49.143118,180.943816 50.2630779,175.128703 51.0440366,168.294317 C52.5205757,155.374347 54.891074,104.192837 54.891074,104.192837 L53.8288698,100.288547 C46.3507514,103.514156 24.3709092,98.7959508 24.3709092,98.7959508 C24.3709092,98.7959508 11.5315474,116.814788 13.5982,132.742488 C16.3905666,154.279944 24.0168411,162.599413 26.4024061,172.191094 C27.2662317,175.667139 27.9341899,178.133929 28.2028798,179.118141" id="Path" fill="#FF9A00"></path>
                    <path d="M21.1591854,108.337545 C18.120729,103.749566 28.5494145,85.0094744 28.1777686,83.2413995 C27.4470324,79.7603456 25.7294256,75.9011339 24.0469746,72.4326017 C22.3620124,68.9640695 20.714717,65.8837124 20.1246035,63.9553588 C20.6670057,63.2040522 21.1968522,62.4978239 21.6890319,61.8316654 C22.437346,60.8073841 23.0877263,59.8682508 23.5045724,58.9892221 C23.9691298,58.0325583 24.1649973,57.1385034 23.9415075,56.2770052 C23.7707513,55.6233684 23.537217,54.972236 23.2609937,54.3361298 C23.1304154,54.0356071 22.9923037,53.7375888 22.8441476,53.4420749 C21.2922748,50.3416829 18.971999,47.8197971 18.971999,47.8197971 C22.6432579,45.4732161 28.4288807,44.2761342 28.4816143,44.4514391 C28.911016,44.3086908 29.2901952,44.2085166 29.5990631,44.1308816 C29.8099973,44.0757858 30.0284648,44.0231943 30.2419101,43.9756116 C30.9701352,43.8028111 31.7033825,43.6525497 32.336185,43.534845 C33.6570347,42.2150497 35.2315076,37.3290524 34.7569057,30.1265263 L35.3947304,30.2091701 L46.0895948,31.6491744 C46.0895948,31.6491744 46.0544391,34.9849758 46.237751,38.1079069 C46.383396,40.5521578 46.6646415,42.8661821 47.2020214,43.3720619 C48.0306914,43.4396795 48.5304044,43.4872623 48.5304044,43.4872623 C48.5304044,43.4872623 48.5304044,43.4897666 48.5354267,43.4947753 C48.5379378,43.4997841 48.5454712,43.5098015 48.5530045,43.5173145 C49.1556736,43.5674016 49.7106313,43.6174888 50.2178778,43.6750889 C50.2178778,43.6750889 50.2605668,43.6775933 50.3384116,43.6876107 C51.2775708,43.795298 52.0560183,43.9104983 52.691332,44.0231943 C52.7365321,44.0357161 52.7817323,44.0432292 52.8219102,44.0482379 C54.6500063,44.3838215 55.2677421,44.6993703 55.2677421,44.6993703 L55.2677421,44.7319269 C55.1773418,48.0927718 60.618941,53.9704939 60.2372506,61.5737168 C60.2221839,61.8592133 57.4549285,81.7863691 57.4674841,82.081883 C57.6909739,87.7567523 60.4783182,103.737044 60.4783182,103.737044 C63.0220838,108.683146 22.7939252,113.05575 21.1591854,108.33504 L21.1591854,108.337545 Z" id="Path" fill="#5B2D0F"></path>
                    <path d="M31.0555133,4.50697082 C30.8596459,3.95601264 28.5268145,-1.92421379 19.2381778,0.647759186 C19.2381778,0.647759186 23.9264408,-0.233773907 25.3326685,1.50174437 C25.3326685,1.50174437 21.48312,0.0216703415 19.2256222,1.59440552 C16.9681244,3.16964505 16.8802352,8.00805964 17.3196814,9.45307269 C17.7591275,10.8980857 20.6167833,15.1028984 22.3318789,14.9977155 C22.9822593,14.9576458 23.662773,14.6996972 24.2579087,14.3941659 C24.0419523,15.1855422 23.8586405,16.0420317 23.7180177,16.9786606 C22.4222793,25.6362171 28.5192811,31.7819052 31.3668923,29.9988042 C33.1924773,28.8543138 34.8272171,32.0648974 34.8272171,32.0648974 L49.2335183,10.3771798 C49.2335183,10.3771798 37.501561,-2.04943156 31.0530022,4.50947518 L31.0555133,4.50697082 Z" id="Path" fill="#77122A"></path>
                    <path d="M48.2491589,34.4891134 C48.2491589,34.4891134 34.2722593,35.5734993 33.7273461,26.8833861 C33.1824328,18.1907686 31.0128243,12.478334 39.9147482,11.4164873 C48.8166722,10.357145 50.7602799,13.5652242 51.6492167,16.4226937 C52.5381536,19.2801632 51.8727065,33.9832336 48.2491589,34.4891134 L48.2491589,34.4891134 Z" id="Path" fill="#5B2D0F"></path>
                    <path d="M50.9360584,11.6168357 C48.6132714,9.13501956 47.0136873,9.80869116 46.1448395,10.6501546 C38.2398305,6.92367376 33.6921904,13.4249803 33.6921904,13.4249803 C33.1397438,19.7184254 28.8507491,23.5676196 28.8507491,23.5676196 C28.8507491,23.5676196 31.4974706,24.9825804 37.2830934,23.1168356 C39.0509226,22.5458426 40.5751731,21.1759602 41.8432892,19.5481292 C39.7088363,23.6702982 36.6452687,26.7356292 36.6452687,26.7356292 C43.4704956,23.0692529 45.6903266,13.1545099 45.9087941,12.1076894 C46.8102865,12.8214307 48.5956936,14.3791397 49.2084071,15.9769185 C50.0420993,18.1481946 50.6347238,22.6860865 51.9580846,22.4481727 C51.9580846,22.4481727 54.4189832,15.3408122 50.9335472,11.6168357 L50.9360584,11.6168357 Z" id="Path" fill="#77122A"></path>
                    <path d="M56.5835695,242 L34.8925062,242 C34.8925062,242 34.0814141,238.548998 35.5052197,236.202417 C36.7658025,234.126307 35.9898661,232.716355 35.4449528,230.94828 C36.4268012,231.348977 37.6045169,231.987587 39.0032113,231.907448 C40.0829934,231.844839 41.778,231.053463 42.7799373,230.472452 C43.7140743,231.534299 47.1593324,236.355183 48.4098706,237.249238 C49.8261429,238.266006 56.1466345,237.902875 56.5835695,241.997496 L56.5835695,242 Z" id="Path" fill="#9E223E"></path>
                    <path d="M24.3432868,241.49412 L16.1796324,221.451764 C16.1796324,221.451764 19.0799772,219.403201 21.7970101,219.836455 C24.2026641,220.219621 25.1192232,219.328071 26.3647393,217.817944 C26.3622281,218.877287 26.5003398,220.189569 27.1030088,221.451764 C27.5675662,222.425958 28.4514808,223.299978 29.36804,224.006207 C28.7327264,225.268402 26.0408046,230.662783 25.6792032,232.152875 C25.2698905,233.845819 27.9844123,239.548236 24.345798,241.49412 L24.3432868,241.49412 Z" id="Path" fill="#9E223E"></path>
                    <path d="M64.5513565,68.6961035 C64.4559339,66.2693831 62.8362608,45.5107814 54.0850041,44.3412475 C53.668158,44.2285515 53.2387563,44.1308816 52.8219102,44.0507422 C52.7817323,44.0457335 52.7390433,44.0357161 52.691332,44.0256987 C51.6190833,43.8253503 50.6673684,43.7226717 50.3384116,43.6901151 C50.2605668,43.682602 50.2178778,43.6775933 50.2178778,43.6775933 C50.2178778,43.6775933 52.8269325,51.0654416 52.7767101,51.9319486 C52.7264877,52.8009599 44.3468768,53.0889608 38.8374773,53.1615871 C33.3707669,53.2342134 30.2946436,44.1133511 30.2444212,43.9731072 C30.0309759,44.0231943 29.8125084,44.0732814 29.6015742,44.1283773 C29.2952175,44.2060123 21.9853442,45.3179461 18.9745101,47.8197971 C18.9745101,47.8197971 21.2947859,50.3416829 22.8466587,53.4420749 C22.9948149,53.7375888 23.1329265,54.0356071 23.2635048,54.3361298 C23.5422392,54.972236 23.7732624,55.6233684 23.9465297,56.2770052 C24.1700195,57.1385034 23.9716409,58.0325583 23.5095947,58.9892221 C23.0927486,59.8682508 22.4423682,60.8073841 21.6940542,61.8316654 C21.2043856,62.4978239 20.674539,63.2040522 20.1321369,63.9553588 C20.3330266,64.619013 20.6594723,65.4204067 21.0712962,66.3219746 L21.0712962,66.3219746 C21.857277,68.0524842 18.1257512,103.749566 21.1642076,108.337545 C21.648854,109.729966 25.5034248,110.333516 30.6261116,110.35856 C42.8402042,110.421168 68.3356159,110.7267 70.0080225,108.430206 C70.0080225,108.430206 67.5446127,97.7466259 66.8113654,90.1734552" id="Path" fill="#FFFFFF"></path>
                    <path d="M25.3477352,101.633385 L23.1530155,105.427484 C9.03800427,99.8502844 0.0481910461,87.2909422 0.0481910461,87.2909422 C-0.443988672,80.1585381 2.90333564,71.9592786 6.91108477,64.8844746 C7.57402072,63.7124363 8.25704564,62.5729546 8.94258167,61.4735426 C11.7751262,63.8877412 15.7376751,67.050742 19.5068678,69.3497403 C18.9217766,70.3189258 23.5296836,71.8090172 22.7738362,73.0511775 C19.6449794,78.1976278 12.3250617,82.9283551 11.8002374,83.4517654 C10.9288784,84.3182724 25.3477352,101.633385 25.3477352,101.633385 L25.3477352,101.633385 Z" id="Path" fill="#5B2D0F"></path>
                    <path d="M20.6795613,78.4756113 C13.7312894,78.0198186 5.96941439,64.7943178 5.96941439,64.7943178 C11.3959469,55.2301846 18.971999,47.8223014 18.971999,47.8223014 C38.2322972,55.155054 23.8209737,76.4095181 20.6795613,78.4781156 L20.6795613,78.4756113 Z" id="Path" fill="#FFFFFF"></path>
                    <path d="M25.3452241,101.630881 C25.3452241,101.630881 26.5329844,101.460585 27.3064096,100.786913 C28.0798349,100.113242 30.5457557,98.2074273 30.6888896,98.7984551 C30.8345347,99.389483 28.9009715,100.306077 29.9154644,100.45133 C30.9299573,100.596582 32.5245191,99.917902 34.1215921,100.160824 C35.7161539,100.403747 38.1695191,104.067619 37.4161828,104.500872 C36.6603354,104.934126 33.9056357,103.489113 33.1799217,103.994993 C32.4542077,104.500872 27.2812984,107.323281 23.1505044,105.429988 C19.0197103,103.536696 25.3452241,101.633385 25.3452241,101.633385 L25.3452241,101.630881 Z" id="Path" fill="#5B2D0F"></path>
                </g>
            </g>
        </g>
    </g>
</svg>