<?xml version="1.0" encoding="UTF-8"?>
<svg width="488px" height="377px" viewBox="0 0 488 377" version="1.1" xmlns="http://www.w3.org/2000/svg" xmlns:xlink="http://www.w3.org/1999/xlink">
    <title>Group 3</title>
    <g id="Page-1" stroke="none" stroke-width="1" fill="none" fill-rule="evenodd">
        <g id="ACTUALITES" transform="translate(-411.000000, -253.000000)">
            <g id="Group-3" transform="translate(411.000000, 253.000000)">
                <path d="M447.192987,119.6243 C447.019987,120.3753 446.908987,121.1583 446.798987,121.9323 C446.718987,122.4923 446.643987,123.0213 446.546987,123.5393 C446.503987,123.7693 446.450987,124.0053 446.334987,124.1503 C446.149987,124.3803 445.776987,124.4433 445.345987,124.5163 C445.166987,124.5463 444.981987,124.5773 444.798987,124.6243 C443.485987,124.9573 442.407987,126.1173 441.916987,127.7283 C441.604987,128.7503 441.545987,129.8113 441.487987,130.8353 C441.470987,131.1313 441.454987,131.4283 441.430987,131.7223 C441.393987,132.2003 441.338987,132.6903 441.286987,133.1663 C441.134987,134.5193 440.978987,135.9183 441.190987,137.3133 C441.315987,138.1423 441.576987,138.9643 441.960987,139.7683 C441.955987,139.7613 441.950987,139.7553 441.945987,139.7493 C440.358987,137.7353 439.477987,135.0413 439.464987,132.1623 C439.451987,129.2043 440.419987,126.5483 442.118987,124.8743 C442.588987,124.4103 443.115987,124.0123 443.671987,123.5913 C444.362987,123.0693 445.076987,122.5293 445.674987,121.8533 C446.223987,121.2323 446.647987,120.5293 447.057987,119.8483 C447.102987,119.7733 447.147987,119.6983 447.192987,119.6243 M450.857987,113.8813 C450.906987,113.9373 450.946987,113.9973 450.971987,114.0593 C451.089987,114.3533 450.894987,114.7353 450.651987,114.9823 C450.776987,114.6303 450.848987,114.2543 450.857987,113.8813 M464.964987,113.3763 C464.965987,113.3743 464.965987,113.3723 464.966987,113.3703 C465.119987,113.2883 465.459987,113.4393 465.587987,113.4963 C465.846987,113.6113 466.109987,113.7283 466.369987,113.8503 C466.048987,113.9343 465.746987,114.0003 465.465987,113.9653 C465.309987,113.9453 465.129987,113.8013 465.027987,113.6143 C464.961987,113.4913 464.958987,113.4033 464.964987,113.3763 M459.001987,134.5783 C459.103987,135.0023 459.229987,135.3953 459.359987,135.7453 C459.577987,136.3323 459.840987,136.9133 460.096987,137.4753 C460.754987,138.9213 461.375987,140.2883 461.270987,141.7383 C461.165987,143.2073 460.227987,144.6723 458.824987,145.5583 C457.229987,146.5653 455.407987,146.7043 454.159987,146.6433 C451.839987,146.5293 449.449987,145.6653 447.211987,144.1343 C447.742987,144.2393 448.280987,144.2963 448.819987,144.3033 C451.921987,144.3413 454.885987,142.6073 456.194987,139.9893 C456.502987,139.3753 456.717987,138.7283 456.926987,138.1023 C457.191987,137.3083 457.441987,136.5593 457.855987,135.8963 C458.163987,135.4053 458.557987,134.9733 459.001987,134.5783 M459.894987,131.4073 C459.932987,131.2563 459.979987,131.1053 460.035987,130.9573 C460.499987,129.7153 461.834987,128.5363 463.265987,128.7113 C463.605987,128.7533 463.944987,128.8653 464.303987,128.9833 C464.407987,129.0183 464.511987,129.0523 464.618987,129.0853 C463.550987,130.0623 462.320987,131.0213 460.906987,131.9773 L460.512987,132.2423 C460.256987,132.4133 459.999987,132.5863 459.743987,132.7633 C459.736987,132.3143 459.779987,131.8573 459.894987,131.4073 M469.917987,120.4833 C469.691987,121.5763 469.325987,122.5823 468.898987,123.4823 C468.921987,123.3513 468.936987,123.2223 468.951987,123.0983 C468.963987,122.9923 468.975987,122.8873 468.992987,122.7843 C469.109987,122.0583 469.459987,121.3773 469.829987,120.6543 C469.858987,120.5973 469.887987,120.5403 469.917987,120.4833 M470.741987,121.2803 C470.962987,120.4183 471.092987,119.5523 471.130987,118.6893 C471.191987,117.3463 470.988987,116.2743 470.512987,115.4153 C469.968987,114.4333 469.050987,113.7743 468.077987,113.6343 C467.403987,113.2263 466.687987,112.9083 465.986987,112.5973 C465.693987,112.4663 465.084987,112.1953 464.528987,112.4863 C464.114987,112.7043 463.911987,113.1413 463.999987,113.6273 C464.103987,114.2033 464.634987,114.8523 465.342987,114.9413 C465.859987,115.0063 466.325987,114.8813 466.777987,114.7593 C467.067987,114.6813 467.341987,114.6073 467.603987,114.5933 C467.653987,114.5913 467.702987,114.5903 467.751987,114.5923 C467.983987,114.7413 468.205987,114.9013 468.414987,115.0773 C469.274987,115.8013 469.782987,116.7233 469.807987,117.6053 C469.832987,118.4903 469.406987,119.3233 468.953987,120.2053 C468.564987,120.9653 468.161987,121.7503 468.020987,122.6273 C468.002987,122.7443 467.987987,122.8623 467.973987,122.9813 C467.933987,123.3153 467.896987,123.6303 467.748987,123.8393 C467.699987,123.9073 467.636987,123.9683 467.563987,124.0263 C467.292987,124.0053 467.021987,124.0993 466.799987,124.2993 C466.594987,124.4843 466.443987,124.7493 466.358987,125.0403 C466.282987,125.1663 466.223987,125.3013 466.182987,125.4433 C466.165987,125.4773 466.149987,125.5123 466.135987,125.5493 C466.077987,125.7103 466.071987,125.8823 466.112987,126.0473 C466.115987,126.1113 466.121987,126.1763 466.130987,126.2413 C465.963987,126.4573 465.872987,126.7323 465.864987,126.9933 C465.857987,127.2503 465.926987,127.4773 466.056987,127.6483 C465.860987,127.8633 465.658987,128.0763 465.448987,128.2883 C465.174987,128.2343 464.900987,128.1443 464.611987,128.0483 C464.222987,127.9203 463.821987,127.7883 463.384987,127.7343 C461.642987,127.5213 459.805987,128.7583 459.113987,130.6123 C458.757987,131.5633 458.704987,132.5463 458.802987,133.4573 C458.120987,134.0023 457.496987,134.6163 457.021987,135.3743 C456.544987,136.1363 456.263987,136.9773 455.993987,137.7903 C455.786987,138.4113 455.589987,138.9983 455.314987,139.5493 C454.170987,141.8373 451.564987,143.3523 448.831987,143.3193 C447.512987,143.3023 446.194987,142.9453 444.989987,142.3043 C443.419987,140.7283 442.434987,138.9533 442.163987,137.1663 C441.970987,135.8993 442.113987,134.6243 442.264987,133.2743 C442.318987,132.7923 442.374987,132.2923 442.412987,131.7983 C442.435987,131.4973 442.453987,131.1943 442.469987,130.8913 C442.527987,129.8803 442.581987,128.9243 442.857987,128.0153 C443.159987,127.0283 443.890987,125.8703 445.041987,125.5783 C445.185987,125.5413 445.342987,125.5153 445.509987,125.4863 C446.059987,125.3933 446.682987,125.2883 447.101987,124.7663 C447.359987,124.4443 447.449987,124.0583 447.512987,123.7223 C447.615987,123.1823 447.695987,122.6173 447.773987,122.0703 C448.066987,120.0093 448.369987,117.8763 449.892987,116.7263 C450.050987,116.6053 450.222987,116.4973 450.405987,116.3813 C450.706987,116.1913 451.017987,115.9953 451.296987,115.7283 C451.767987,115.2803 452.203987,114.4773 451.882987,113.6893 C451.707987,113.2553 451.351987,112.9723 451.062987,112.7743 C450.880987,112.6493 450.691987,112.5363 450.496987,112.4333 C450.365987,112.2223 450.196987,112.0303 449.984987,111.8673 C448.977987,111.0903 447.772987,111.4053 446.653987,111.8173 C446.641987,111.8193 446.629987,111.8213 446.617987,111.8243 C446.409987,111.8613 446.194987,111.9083 445.977987,111.9563 C445.053987,112.1583 444.181987,112.3493 443.684987,111.8533 C443.517987,111.6873 443.402987,111.4383 443.279987,111.1753 C443.245987,111.1043 443.213987,111.0333 443.177987,110.9623 C442.660987,109.9063 441.808987,109.2813 440.985987,108.6763 C440.448987,108.2823 439.933987,107.9053 439.547987,107.4273 C439.814987,107.4253 440.130987,107.4333 440.379987,107.4393 C441.472987,107.4683 442.164987,107.4703 442.539987,107.2643 C442.777987,107.1323 442.864987,106.8333 442.732987,106.5953 C442.601987,106.3583 442.304987,106.2713 442.067987,106.4003 C441.857987,106.4933 440.948987,106.4703 440.404987,106.4563 C439.126987,106.4233 438.597987,106.4253 438.360987,106.8073 C438.252987,106.9793 438.246987,107.1953 438.344987,107.3823 C438.835987,108.3193 439.631987,108.9043 440.402987,109.4703 C441.164987,110.0283 441.882987,110.5563 442.294987,111.3953 C442.326987,111.4603 442.356987,111.5263 442.387987,111.5923 C442.526987,111.8903 442.683987,112.2263 442.948987,112.5073 C441.338987,112.2363 439.936987,111.1223 438.463987,109.5703 C437.744987,108.8143 437.096987,108.0643 437.061987,107.2143 C437.028987,106.4913 439.528987,106.1103 440.348987,105.9833 C440.659987,105.9363 440.905987,105.8983 441.084987,105.8573 C441.348987,105.7973 441.514987,105.5343 441.454987,105.2683 C441.394987,105.0033 441.130987,104.8373 440.865987,104.8973 C440.720987,104.9303 440.479987,104.9683 440.199987,105.0113 C438.632987,105.2513 436.011987,105.6593 436.078987,107.2543 C436.130987,108.5443 437.104987,109.5703 437.749987,110.2483 C439.873987,112.4843 442.319987,114.3883 445.806987,113.1863 C446.039987,113.1053 446.278987,113.0133 446.520987,112.9203 C446.650987,112.8703 446.779987,112.8213 446.906987,112.7733 C447.873987,112.6233 448.873987,112.7653 449.759987,113.1673 C449.977987,113.7363 449.855987,114.5063 449.534987,115.0743 C449.215987,115.6353 448.756987,116.1103 448.270987,116.6133 C447.982987,116.9123 447.684987,117.2203 447.412987,117.5533 C446.951987,118.1183 446.577987,118.7393 446.214987,119.3403 C445.809987,120.0133 445.426987,120.6483 444.937987,121.2013 C444.404987,121.8033 443.760987,122.2903 443.078987,122.8063 C442.520987,123.2283 441.944987,123.6643 441.427987,124.1733 C439.512987,126.0603 438.466987,128.8983 438.480987,132.1663 C438.494987,135.2643 439.450987,138.1733 441.171987,140.3583 C442.071987,141.5003 443.177987,142.4303 444.394987,143.1003 C444.913987,143.6113 445.488987,144.1013 446.116987,144.5633 C448.655987,146.4363 451.420987,147.4953 454.111987,147.6263 C455.501987,147.6943 457.538987,147.5353 459.349987,146.3903 C461.012987,145.3403 462.125987,143.5863 462.253987,141.8093 C462.375987,140.1083 461.671987,138.5623 460.993987,137.0683 C460.744987,136.5213 460.487987,135.9563 460.282987,135.4023 C460.119987,134.9633 459.961987,134.4463 459.859987,133.8903 C460.251987,133.6023 460.658987,133.3293 461.060987,133.0593 L461.458987,132.7923 C463.148987,131.6493 464.589987,130.4983 465.809987,129.3153 C466.694987,129.3243 467.631987,128.9033 467.862987,128.0013 L467.865987,127.9903 C467.868987,127.9903 467.870987,127.9903 467.873987,127.9903 C468.007987,127.9963 468.138987,127.9473 468.235987,127.8543 C468.333987,127.7613 468.387987,127.6323 468.387987,127.4973 C468.386987,127.1993 468.303987,126.8953 468.159987,126.6313 C469.401987,124.9283 470.273987,123.1153 470.741987,121.2803" id="Fill-1" fill="#E6384C"></path>
                <path d="M287.294987,34.441 C259.860987,12.868 225.258987,0 187.652987,0 C98.5529873,0 26.3239873,72.229 26.3239873,161.329 C26.3239873,250.428 98.5529873,322.658 187.652987,322.658 C244.651987,322.658 294.744987,293.096 323.441987,248.471 C336.156987,252.884 349.808987,255.288 364.025987,255.288 C432.372987,255.288 487.777987,199.882 487.777987,131.535 C487.777987,63.188 432.372987,7.782 364.025987,7.782 C335.040987,7.782 308.385987,17.75 287.294987,34.441 Z" id="Fill-13" fill="#FFE4DD"></path>
                <path d="M2.95958733,103.8772 L68.6805873,25.4522 C74.9205873,18.0052 86.8825873,20.1062 90.2105873,29.2342 L125.269587,125.3622 C128.597587,134.4902 120.797587,143.7982 111.228587,142.1172 L10.4495873,124.4142 C0.88058733,122.7332 -3.28041267,111.3232 2.95958733,103.8772" id="Fill-21" fill="#FF9A00"></path>
                <path d="M78.5962873,32.1756 C79.3952873,32.3156 79.5972873,32.8686 79.6722873,33.0776 L114.731287,129.2056 C114.807287,129.4136 115.008287,129.9676 114.488287,130.5886 C113.967287,131.2096 113.387287,131.1086 113.168287,131.0696 L12.3902873,113.3666 C12.1712873,113.3276 11.5912873,113.2266 11.3142873,112.4646 C11.0362873,111.7026 11.4142873,111.2516 11.5572873,111.0816 L77.2782873,32.6566 C77.4192873,32.4866 77.7982873,32.0346 78.5962873,32.1756" id="Fill-23" fill="#FEFEFE"></path>
                <path d="M71.5777873,95.8587 L63.4917873,94.4387 C61.3997873,94.0707 59.9717873,92.1177 60.2547873,90.0137 L63.6607873,64.6737 C64.3487873,59.5537 69.1597873,56.0347 74.2487873,56.9287 C79.3367873,57.8227 82.6597873,62.7707 81.5617873,67.8187 L76.1287873,92.8017 C75.6777873,94.8777 73.6697873,96.2257 71.5777873,95.8587" id="Fill-25" fill="#FF9A00"></path>
                <path d="M73.3111873,107.9578 C72.5561873,112.2588 68.4571873,115.1318 64.1571873,114.3768 C59.8561873,113.6218 56.9831873,109.5228 57.7381873,105.2228 C58.4941873,100.9218 62.5921873,98.0478 66.8921873,98.8038 C71.1931873,99.5588 74.0671873,103.6578 73.3111873,107.9578" id="Fill-27" fill="#FF9A00"></path>
                <path d="M402.268187,179.952 L242.348187,165.89 C239.624187,165.651 237.611187,163.249 237.850187,160.525 L247.536187,50.373 C247.775187,47.649 250.177187,45.636 252.901187,45.875 L412.822187,59.937 C415.545187,60.177 417.559187,62.578 417.320187,65.302 L407.633187,175.454 C407.394187,178.178 404.992187,180.192 402.268187,179.952" id="Fill-29" fill="#E7E6E9"></path>
                <path d="M417.319987,65.302 C417.558987,62.578 415.545987,60.176 412.821987,59.937 L252.900987,45.875 C250.176987,45.635 247.774987,47.649 247.535987,50.373 L246.705987,59.813 L416.489987,74.742 L417.319987,65.302 Z" id="Fill-31" fill="#FF9A00"></path>
                <path d="M391.998687,65.3475 C391.806687,67.5335 389.878687,69.1485 387.692687,68.9565 C385.507687,68.7645 383.891687,66.8375 384.083687,64.6515 C384.275687,62.4655 386.203687,60.8495 388.389687,61.0425 C390.574687,61.2345 392.189687,63.1615 391.998687,65.3475" id="Fill-33" fill="#FEFCFD"></path>
                <path d="M402.893187,66.3055 C402.701187,68.4915 400.773187,70.1065 398.587187,69.9145 C396.402187,69.7225 394.786187,67.7945 394.978187,65.6095 C395.170187,63.4235 397.097187,61.8075 399.283187,62.0005 C401.469187,62.1925 403.084187,64.1195 402.893187,66.3055" id="Fill-35" fill="#FEFCFD"></path>
                <path d="M413.786787,67.2635 C413.595787,69.4495 411.667787,71.0645 409.481787,70.8725 C407.296787,70.6805 405.680787,68.7525 405.872787,66.5675 C406.064787,64.3815 407.991787,62.7655 410.177787,62.9575 C412.362787,63.1505 413.978787,65.0775 413.786787,67.2635" id="Fill-37" fill="#FEFCFD"></path>
                <polygon id="Fill-39" fill="#FEFEFE" points="341.319987 145.469 251.929987 137.609 256.542987 85.154 345.931987 93.014"></polygon>
                <polygon id="Fill-41" fill="#B9B9B9" points="395.777987 101.6634 357.737987 98.3334 358.108987 94.0994 396.147987 97.4294"></polygon>
                <polygon id="Fill-43" fill="#B9B9B9" points="394.932287 111.3147 356.893287 107.9847 357.264287 103.7507 395.303287 107.0807"></polygon>
                <polygon id="Fill-45" fill="#B9B9B9" points="394.087587 120.9661 356.048587 117.6361 356.418587 113.4021 394.458587 116.7321"></polygon>
                <polygon id="Fill-47" fill="#B9B9B9" points="393.242787 130.6175 355.203787 127.2875 355.573787 123.0545 393.613787 126.3845"></polygon>
                <polygon id="Fill-49" fill="#B9B9B9" points="392.401987 140.2278 354.361987 136.8978 354.732987 132.6638 392.771987 135.9938"></polygon>
                <polygon id="Fill-51" fill="#B9B9B9" points="391.556287 149.8792 353.517287 146.5492 353.888287 142.3152 391.927287 145.6462"></polygon>
                <polygon id="Fill-53" fill="#B9B9B9" points="390.214487 164.9295 352.175487 161.5995 352.545487 157.3665 390.585487 160.6965"></polygon>
                <polygon id="Fill-55" fill="#B9B9B9" points="389.369787 174.5809 351.329787 171.2509 351.700787 167.0179 389.739787 170.3479"></polygon>
                <polygon id="Fill-57" fill="#B9B9B9" points="339.979187 160.5125 301.939187 157.1825 302.310187 152.9495 340.349187 156.2795"></polygon>
                <polygon id="Fill-59" fill="#B9B9B9" points="339.133487 170.1639 301.094487 166.8339 301.465487 162.6009 339.504487 165.9309"></polygon>
                <polygon id="Fill-61" fill="#B9B9B9" points="289.194987 156.0472 251.155987 152.7172 251.525987 148.4832 289.565987 151.8142"></polygon>
                <polygon id="Fill-63" fill="#B9B9B9" points="288.350287 165.699 250.311287 162.369 250.681287 158.135 288.721287 161.465"></polygon>
                <path d="M260.359987,71.5452 L261.268987,71.6252 C261.703987,71.6632 262.046987,71.6032 262.297987,71.4442 C262.551987,71.2872 262.693987,71.0322 262.723987,70.6802 C262.778987,70.0532 262.332987,69.6982 261.382987,69.6152 L260.534987,69.5412 L260.359987,71.5452 Z M260.166987,73.7562 L259.960987,76.1042 L261.023987,76.1972 C261.965987,76.2802 262.472987,75.9232 262.542987,75.1282 C262.574987,74.7562 262.474987,74.4592 262.239987,74.2372 C262.005987,74.0172 261.646987,73.8852 261.168987,73.8432 L260.166987,73.7562 Z M257.712987,66.9892 L261.614987,67.3312 C263.133987,67.4632 264.242987,67.7882 264.940987,68.3032 C265.636987,68.8202 265.944987,69.5542 265.861987,70.5082 C265.806987,71.1352 265.599987,71.6572 265.238987,72.0722 C264.878987,72.4882 264.429987,72.7362 263.893987,72.8182 L263.886987,72.8942 C264.564987,73.1382 265.039987,73.4882 265.313987,73.9442 C265.587987,74.4002 265.694987,74.9692 265.633987,75.6532 C265.545987,76.6682 265.094987,77.4342 264.280987,77.9512 C263.466987,78.4682 262.402987,78.6692 261.087987,78.5542 L256.733987,78.1732 L257.712987,66.9892 Z" id="Fill-65" fill="#B9B9B9"></path>
                <path d="M270.868787,73.0203 L271.432787,73.0693 C272.489787,73.1623 273.057787,72.7413 273.139787,71.8083 C273.207787,71.0383 272.722787,70.6073 271.687787,70.5173 L271.092787,70.4653 L270.868787,73.0203 Z M270.670787,75.2923 L270.313787,79.3623 L267.290787,79.0973 L268.268787,67.9133 L271.933787,68.2343 C274.973787,68.5003 276.397787,69.7343 276.204787,71.9373 C276.091787,73.2333 275.371787,74.1803 274.045787,74.7783 L276.877787,79.9363 L273.449787,79.6363 L271.434787,75.3593 L270.670787,75.2923 Z" id="Fill-67" fill="#B9B9B9"></path>
                <polygon id="Fill-69" fill="#B9B9B9" points="284.534787 80.6067 277.893787 80.0257 278.872787 68.8417 285.513787 69.4227 285.301787 71.8477 281.682787 71.5307 281.528787 73.2907 284.879787 73.5837 284.667787 76.0087 281.316787 75.7157 281.132787 77.8267 284.750787 78.1437"></polygon>
                <path d="M292.576787,76.701 L292.256787,74.823 C292.178787,74.405 292.088787,73.866 291.984787,73.204 C291.881787,72.542 291.815787,72.068 291.789787,71.784 C291.720787,72.039 291.592787,72.46 291.405787,73.045 C291.218787,73.63 290.815787,74.779 290.197787,76.493 L292.576787,76.701 Z M293.353787,81.379 L292.987787,79.235 L289.353787,78.916 L288.603787,80.963 L285.283787,80.673 L289.916787,69.762 L293.947787,70.115 L296.658787,81.668 L293.353787,81.379 Z" id="Fill-71" fill="#B9B9B9"></path>
                <path d="M307.423487,82.6106 L304.012487,82.3116 L302.174487,77.8416 L301.233487,78.2986 L300.905487,82.0396 L297.868487,81.7746 L298.847487,70.5896 L301.884487,70.8566 L301.459487,75.7136 C301.639487,75.4256 301.989487,74.9766 302.510487,74.3636 L305.158487,71.1426 L308.463487,71.4316 L304.498487,76.1336 L307.423487,82.6106 Z" id="Fill-73" fill="#B9B9B9"></path>
                <polygon id="Fill-75" fill="#B9B9B9" points="308.632487 82.7166 309.611487 71.5326 312.648487 71.7986 311.669487 82.9826"></polygon>
                <path d="M324.735987,84.1263 L320.771987,83.7793 L317.376987,75.5423 L317.306987,75.5363 C317.296987,76.7843 317.261987,77.7343 317.205987,78.3873 L316.763987,83.4283 L314.085987,83.1943 L315.063987,72.0093 L319.011987,72.3553 L322.402987,80.4843 L322.448987,80.4883 C322.474987,79.3553 322.518987,78.4463 322.578987,77.7623 L323.020987,72.7063 L325.714987,72.9423 L324.735987,84.1263 Z" id="Fill-77" fill="#B9B9B9"></path>
                <path d="M332.215487,78.1824 L337.043487,78.6054 L336.515487,84.6334 C335.165487,84.9674 333.704487,85.0664 332.133487,84.9284 C330.409487,84.7774 329.121487,84.1614 328.268487,83.0784 C327.414487,81.9964 327.069487,80.5304 327.232487,78.6784 C327.390487,76.8734 328.028487,75.5134 329.146487,74.5994 C330.264487,73.6844 331.751487,73.3084 333.608487,73.4714 C334.312487,73.5334 334.969487,73.6574 335.583487,73.8444 C336.195487,74.0314 336.725487,74.2474 337.171487,74.4924 L336.007487,76.7804 C335.236487,76.3114 334.370487,76.0354 333.406487,75.9504 C332.524487,75.8734 331.817487,76.1004 331.283487,76.6324 C330.751487,77.1634 330.438487,77.9634 330.345487,79.0284 C330.253487,80.0744 330.403487,80.8904 330.791487,81.4764 C331.178487,82.0624 331.783487,82.3914 332.604487,82.4634 C333.053487,82.5024 333.470487,82.4964 333.856487,82.4424 L334.009487,80.6904 L332.011487,80.5154 L332.215487,78.1824 Z" id="Fill-79" fill="#B9B9B9"></path>
                <path d="M353.469387,86.6414 L349.506387,86.2944 L346.111387,78.0574 L346.041387,78.0514 C346.030387,79.2994 345.995387,80.2494 345.939387,80.9024 L345.497387,85.9434 L342.820387,85.7094 L343.798387,74.5254 L347.745387,74.8704 L351.136387,82.9994 L351.182387,83.0034 C351.208387,81.8704 351.253387,80.9624 351.313387,80.2784 L351.755387,75.2224 L354.448387,75.4574 L353.469387,86.6414 Z" id="Fill-81" fill="#B9B9B9"></path>
                <polygon id="Fill-83" fill="#B9B9B9" points="362.526987 87.4344 355.885987 86.8534 356.864987 75.6694 363.505987 76.2504 363.293987 78.6754 359.674987 78.3584 359.520987 80.1184 362.871987 80.4114 362.659987 82.8364 359.308987 82.5434 359.124987 84.6544 362.742987 84.9714"></polygon>
                <path d="M376.565087,88.6634 L372.993087,88.3514 L372.348087,83.3844 C372.314087,83.1754 372.269087,82.7634 372.213087,82.1464 C372.156087,81.5304 372.121087,81.0154 372.105087,80.6024 C372.035087,80.9314 371.932087,81.3374 371.797087,81.8214 C371.664087,82.3054 371.534087,82.7504 371.408087,83.1554 C371.283087,83.5604 370.765087,85.2014 369.856087,88.0764 L366.283087,87.7634 L364.493087,76.3364 L367.407087,76.5924 L368.132087,82.3064 C368.299087,83.5694 368.402087,84.5724 368.439087,85.3154 C368.551087,84.8014 368.732087,84.1054 368.981087,83.2274 C369.229087,82.3504 369.455087,81.6244 369.653087,81.0514 L371.010087,76.9074 L373.810087,77.1524 L374.396087,81.4664 C374.500087,82.1594 374.597087,82.9564 374.688087,83.8584 C374.779087,84.7614 374.833087,85.4344 374.850087,85.8764 C374.966087,85.3164 375.233087,84.3514 375.651087,82.9794 L377.382087,77.4654 L380.297087,77.7204 L376.565087,88.6634 Z" id="Fill-85" fill="#B9B9B9"></path>
                <path d="M388.374687,86.2752 C388.313687,86.9682 388.084687,87.5682 387.686687,88.0762 C387.286687,88.5842 386.742687,88.9572 386.053687,89.1972 C385.363687,89.4382 384.573687,89.5192 383.681687,89.4412 C382.937687,89.3762 382.316687,89.2682 381.820687,89.1202 C381.324687,88.9712 380.815687,88.7422 380.292687,88.4352 L380.528687,85.7422 C381.078687,86.0882 381.657687,86.3712 382.266687,86.5912 C382.873687,86.8122 383.436687,86.9442 383.956687,86.9902 C384.405687,87.0292 384.741687,86.9812 384.965687,86.8432 C385.186687,86.7062 385.309687,86.5152 385.330687,86.2712 C385.344687,86.1172 385.313687,85.9802 385.239687,85.8582 C385.165687,85.7352 385.041687,85.6082 384.863687,85.4742 C384.688687,85.3402 384.213687,85.0572 383.439687,84.6252 C382.738687,84.2302 382.220687,83.8602 381.883687,83.5172 C381.545687,83.1742 381.307687,82.7942 381.166687,82.3752 C381.024687,81.9572 380.978687,81.4722 381.026687,80.9212 C381.117687,79.8912 381.562687,79.1212 382.361687,78.6102 C383.162687,78.1002 384.218687,77.9022 385.528687,78.0162 C386.687687,78.1182 387.844687,78.4892 389.000687,79.1292 L387.871687,81.3822 C386.867687,80.8112 385.985687,80.4922 385.226687,80.4252 C384.832687,80.3912 384.541687,80.4352 384.351687,80.5572 C384.160687,80.6792 384.056687,80.8422 384.038687,81.0462 C384.019687,81.2662 384.114687,81.4722 384.327687,81.6662 C384.538687,81.8582 385.126687,82.2282 386.092687,82.7752 C387.018687,83.2942 387.645687,83.8172 387.978687,84.3472 C388.308687,84.8772 388.440687,85.5202 388.374687,86.2752" id="Fill-87" fill="#B9B9B9"></path>
                <path d="M69.2330873,139.5594 L216.514087,86.5104 C219.347087,85.4894 222.480087,86.8884 223.613087,89.6784 L262.557087,185.6384 C265.710087,193.4054 261.801087,202.2394 253.933087,205.1294 L112.040087,257.2594 C103.147087,260.5274 93.2320873,256.4634 89.1910873,247.8964 L55.4500873,176.3764 C53.8950873,173.0804 55.4310873,169.1564 58.8100873,167.7914 L72.0280873,162.4534 L65.9130873,146.8884 C64.7570873,143.9464 66.2590873,140.6304 69.2330873,139.5594" id="Fill-89" fill="#FEFCFD"></path>
                <path d="M72.0279873,162.4529 L58.8099873,167.7909 C55.4309873,169.1559 53.8949873,173.0809 55.4499873,176.3769 L89.1909873,247.8959 C90.7019873,251.0989 93.0349873,253.6719 95.8269873,255.4679 C110.275987,252.8569 101.845987,232.2779 101.845987,232.2779 L72.0279873,162.4529 Z" id="Fill-91" fill="#D1CDD4"></path>
                <polygon id="Fill-93" fill="#E7384C" points="158.050387 211.6697 110.202387 230.9607 90.9113873 183.1117 138.760387 163.8217"></polygon>
                <polygon id="Fill-95" fill="#B9B9B9" points="180.755487 151.3631 145.340487 165.6411 143.789487 161.7951 179.204487 147.5161"></polygon>
                <polygon id="Fill-97" fill="#B9B9B9" points="184.290687 160.1326 148.875687 174.4106 147.324687 170.5646 182.739687 156.2856"></polygon>
                <polygon id="Fill-99" fill="#B9B9B9" points="187.826787 168.9021 152.411787 183.1801 150.860787 179.3341 186.275787 165.0551"></polygon>
                <polygon id="Fill-101" fill="#B9B9B9" points="191.361987 177.6717 155.946987 191.9497 154.395987 188.1037 189.810987 173.8247"></polygon>
                <polygon id="Fill-103" fill="#B9B9B9" points="194.882487 186.4041 159.467487 200.6821 157.916487 196.8361 193.331487 182.5571"></polygon>
                <polygon id="Fill-105" fill="#B9B9B9" points="198.418587 195.1736 163.003587 209.4516 161.452587 205.6056 196.867587 191.3266"></polygon>
                <polygon id="Fill-107" fill="#B9B9B9" points="225.665687 133.2566 190.250687 147.5346 188.699687 143.6886 224.114687 129.4096"></polygon>
                <polygon id="Fill-109" fill="#B9B9B9" points="229.201787 142.0267 193.786787 156.3047 192.235787 152.4577 227.650787 138.1797"></polygon>
                <polygon id="Fill-111" fill="#B9B9B9" points="232.736987 150.7962 197.321987 165.0742 195.770987 161.2272 231.185987 146.9492"></polygon>
                <polygon id="Fill-113" fill="#B9B9B9" points="236.273087 159.5657 200.858087 173.8437 199.307087 169.9967 234.722087 155.7187"></polygon>
                <polygon id="Fill-115" fill="#B9B9B9" points="239.793587 168.2977 204.378587 182.5757 202.827587 178.7297 238.242587 164.4507"></polygon>
                <polygon id="Fill-117" fill="#B9B9B9" points="243.328787 177.0672 207.913787 191.3452 206.362787 187.4992 241.777787 173.2202"></polygon>
                <polygon id="Fill-119" fill="#B9B9B9" points="205.020187 211.5496 169.605187 225.8276 168.054187 221.9816 203.469187 207.7026"></polygon>
                <polygon id="Fill-121" fill="#B9B9B9" points="152.143187 232.868 116.728187 247.146 115.177187 243.3 150.592187 229.021"></polygon>
                <polygon id="Fill-123" fill="#B9B9B9" points="221.064087 121.8431 87.8620873 175.5461 86.3100873 171.6991 219.513087 117.9961"></polygon>
                <polygon id="Fill-125" fill="#B9B9B9" points="249.931287 193.4441 214.516287 207.7211 212.965287 203.8751 248.380287 189.5961"></polygon>
                <polygon id="Fill-127" fill="#B9B9B9" points="84.4800873 162.452 78.4590873 147.519 82.5150873 145.885 88.5350873 160.817"></polygon>
                <path d="M105.980087,153.784 L100.690087,155.917 L90.9950873,147.596 L90.9030873,147.633 C91.6990873,149.236 92.2720873,150.472 92.6250873,151.345 L95.3370873,158.075 L91.7620873,159.516 L85.7430873,144.583 L91.0130873,142.459 L100.630087,150.646 L100.692087,150.621 C99.9900873,149.154 99.4550873,147.965 99.0860873,147.052 L96.3650873,140.301 L99.9600873,138.851 L105.980087,153.784 Z" id="Fill-129" fill="#B9B9B9"></path>
                <polygon id="Fill-131" fill="#B9B9B9" points="113.181287 150.8812 109.207287 152.4832 103.187287 137.5502 112.012287 133.9922 113.318287 137.2302 108.466287 139.1862 109.615287 142.0352 114.087287 140.2322 115.393287 143.4702 110.920287 145.2742"></polygon>
                <path d="M121.162787,138.9588 C122.326787,141.8468 123.912787,142.8848 125.921787,142.0748 C126.942787,141.6638 127.558787,141.0078 127.768787,140.1068 C127.980787,139.2078 127.786787,138.0138 127.187787,136.5298 C126.587787,135.0398 125.892787,134.0388 125.105787,133.5278 C124.318787,133.0198 123.427787,132.9638 122.433787,133.3648 C120.411787,134.1798 119.987787,136.0458 121.162787,138.9588 M131.436787,134.8158 C132.450787,137.3288 132.603787,139.4878 131.897787,141.2918 C131.193787,143.0968 129.652787,144.4778 127.275787,145.4358 C124.933787,146.3798 122.872787,146.4468 121.093787,145.6358 C119.313787,144.8268 117.918787,143.1648 116.905787,140.6518 C115.903787,138.1668 115.759787,136.0188 116.474787,134.2068 C117.187787,132.3958 118.729787,131.0108 121.099787,130.0558 C123.475787,129.0978 125.538787,129.0208 127.288787,129.8278 C129.038787,130.6348 130.421787,132.2978 131.436787,134.8158" id="Fill-133" fill="#B9B9B9"></path>
                <polygon id="Fill-135" fill="#B9B9B9" points="82.0103873 212.1248 91.5903873 208.2628 89.9613873 204.4478 80.4593873 208.2778"></polygon>
                <polygon id="Fill-137" fill="#B9B9B9" points="85.5308873 220.8572 95.2888873 216.9232 93.6598873 213.1082 83.9798873 217.0102"></polygon>
                <polygon id="Fill-139" fill="#B9B9B9" points="78.4752873 203.3553 87.8762873 199.5653 86.2462873 195.7503 76.9232873 199.5083"></polygon>
                <polygon id="Fill-141" fill="#B9B9B9" points="71.4039873 185.8162 80.4479873 182.1702 78.8189873 178.3552 69.8529873 181.9692"></polygon>
                <polygon id="Fill-143" fill="#B9B9B9" points="97.3736873 221.8055 87.5156873 225.7805 89.0656873 229.6265 99.0026873 225.6205"></polygon>
                <polygon id="Fill-145" fill="#B9B9B9" points="74.9390873 194.5857 84.1620873 190.8677 82.5330873 187.0527 73.3880873 190.7387"></polygon>
                <polygon id="Fill-147" fill="#FF9A00" points="435.984987 188.4373 412.370987 182.1093 418.697987 205.7233 423.636987 200.7853 433.870987 211.0173 441.278987 203.6093 431.045987 193.3753"></polygon>
                <path d="M339.600287,202.0516 L342.498287,193.5596 C342.675287,193.6186 360.611287,199.6296 374.317287,197.1206 C379.552287,196.1626 384.002287,190.4996 384.483287,186.0756 C384.761287,183.5096 383.792287,181.9046 381.339287,180.8716 C381.336287,180.8706 381.334287,180.8696 381.332287,180.8686 C377.109287,179.0956 370.638287,181.9476 368.704287,183.0866 L364.150287,175.3546 C365.310287,174.6716 375.745287,168.7906 384.807287,172.5956 C384.811287,172.5976 384.815287,172.5996 384.819287,172.6006 C390.900287,175.1596 394.110287,180.5586 393.404287,187.0456 C392.444287,195.8826 384.606287,204.3616 375.932287,205.9476 C359.902287,208.8816 340.422287,202.3316 339.600287,202.0516" id="Fill-161" fill="#E7384C"></path>
                <path d="M309.000587,200.2068 L309.000587,200.2068 C282.946587,189.2438 270.713587,159.2358 281.676587,133.1828 L283.926587,127.8348 L378.275587,167.5358 L376.025587,172.8838 C365.063587,198.9368 335.054587,211.1708 309.000587,200.2068" id="Fill-163" fill="#E7384C"></path>
                <path d="M378.275987,167.5359 C374.682987,176.0729 350.650987,174.1049 324.596987,163.1419 C298.543987,152.1799 280.334987,136.3719 283.925987,127.8349 C287.518987,119.2989 311.550987,121.2659 337.604987,132.2289 C363.658987,143.1929 381.867987,158.9999 378.275987,167.5359" id="Fill-165" fill="#FEFCFD"></path>
                <path d="M370.147087,164.116 C367.627087,170.104 348.103087,167.602 326.539087,158.528 C304.974087,149.454 289.536087,137.244 292.055087,131.256 C294.575087,125.268 314.099087,127.77 335.664087,136.844 C357.228087,145.918 372.667087,158.128 370.147087,164.116" id="Fill-167" fill="#CDCBCB"></path>
                <path d="M292.232087,134.6922 C294.811087,141.1932 308.536087,150.9522 326.539087,158.5282 C340.413087,164.3662 353.436087,167.4802 361.632087,167.3662 C361.560087,167.3302 361.487087,167.2932 361.399087,167.2592 C353.851087,164.3532 337.867087,152.9492 331.792087,140.2282 C328.304087,132.9272 328.286087,119.8292 323.519087,118.7082 C318.752087,117.5862 319.453087,127.9992 319.453087,127.9992 C319.453087,127.9992 316.079087,124.1402 315.807087,118.5672 C315.536087,112.9952 317.629087,104.1262 312.442087,101.6632 C307.254087,99.2012 306.413087,105.5272 303.859087,107.5332 C301.305087,109.5382 300.242087,104.2792 299.407087,98.6192 C298.573087,92.9602 297.824087,85.5172 291.786087,86.1762 C285.749087,86.8372 285.942087,100.4802 287.205087,112.9132 C288.466087,125.3472 292.232087,134.6922 292.232087,134.6922" id="Fill-169" fill="#FF9A00"></path>
                <path d="M190.646087,33.8338 L150.800087,33.8338 C148.167087,33.8338 146.033087,35.9678 146.033087,38.6008 L146.033087,66.1208 C146.033087,68.7538 148.167087,70.8878 150.800087,70.8878 L166.280087,70.8878 L170.723087,78.5838 L175.166087,70.8878 L190.646087,70.8878 C193.279087,70.8878 195.413087,68.7538 195.413087,66.1208 L195.413087,38.6008 C195.413087,35.9678 193.279087,33.8338 190.646087,33.8338" id="Fill-171" fill="#FEFCFD"></path>
                <path d="M183.783787,41.6355 C180.177787,38.0285 174.329787,38.0285 170.722787,41.6355 C167.115787,38.0285 161.267787,38.0295 157.661787,41.6355 C154.054787,45.2425 154.054787,51.0905 157.661787,54.6965 L170.722787,67.7585 L183.783787,54.6965 C187.390787,51.0905 187.390787,45.2425 183.783787,41.6355" id="Fill-173" fill="#FF9A00"></path>
                <path d="M421.357087,245.0125 L368.568087,245.0125 C364.129087,245.0125 360.532087,248.6115 360.532087,253.0485 L360.532087,279.2815 C360.532087,283.7195 364.129087,287.3175 368.568087,287.3175 L373.589087,287.3175 L373.589087,297.1015 L383.374087,287.3175 L421.357087,287.3175 C425.795087,287.3175 429.393087,283.7195 429.393087,279.2815 L429.393087,253.0485 C429.393087,248.6115 425.795087,245.0125 421.357087,245.0125" id="Fill-175" fill="#FF9A00"></path>
                <path d="M382.754487,266.1434 C382.754487,268.8574 380.554487,271.0574 377.840487,271.0574 C375.126487,271.0574 372.926487,268.8574 372.926487,266.1434 C372.926487,263.4284 375.126487,261.2294 377.840487,261.2294 C380.554487,261.2294 382.754487,263.4284 382.754487,266.1434" id="Fill-177" fill="#FEFEFE"></path>
                <path d="M399.876587,266.1434 C399.876587,268.8574 397.676587,271.0574 394.962587,271.0574 C392.248587,271.0574 390.048587,268.8574 390.048587,266.1434 C390.048587,263.4284 392.248587,261.2294 394.962587,261.2294 C397.676587,261.2294 399.876587,263.4284 399.876587,266.1434" id="Fill-179" fill="#FEFEFE"></path>
                <path d="M416.998687,266.1434 C416.998687,268.8574 414.798687,271.0574 412.084687,271.0574 C409.370687,271.0574 407.170687,268.8574 407.170687,266.1434 C407.170687,263.4284 409.370687,261.2294 412.084687,261.2294 C414.798687,261.2294 416.998687,263.4284 416.998687,266.1434" id="Fill-181" fill="#FEFEFE"></path>
                <path d="M131.635387,212.7928 L131.416387,213.0338 L131.092387,213.0158 C128.178387,212.8508 125.448387,212.0438 122.973387,210.6238 C122.939387,210.5338 122.868387,210.4518 122.747387,210.3808 C120.770387,209.2278 118.958387,207.6758 117.363387,205.7708 C114.659387,202.5398 113.518387,199.4268 113.471387,199.2948 L113.290387,198.7968 L113.800387,198.5238 C116.527387,197.0648 118.537387,195.0018 119.744387,193.5278 C121.036387,191.9498 121.722387,190.6668 121.752387,190.6108 L122.019387,190.0998 L122.571387,190.2778 C122.717387,190.3238 124.059387,190.7328 126.044387,190.9458 C127.937387,191.1498 130.817387,191.2098 133.784387,190.3348 L134.339387,190.1718 L134.561387,190.6518 C134.619387,190.7788 135.990387,193.7988 136.331387,197.9968 C136.532387,200.4748 136.330387,202.8508 135.731387,205.0598 C135.694387,205.1978 135.700387,205.3088 135.738387,205.3998 C134.970387,208.1458 133.593387,210.6328 131.635387,212.7928 M140.839387,196.9758 C139.452387,193.5918 137.892387,190.6418 136.184387,188.1868 C131.229387,181.0638 125.032387,178.1158 118.247387,180.8968 C111.538387,183.6468 109.169387,189.9808 110.534387,198.3878 C111.027387,201.4148 112.002387,204.7108 113.435387,208.2058 C114.064387,209.7418 114.763387,211.2098 115.518387,212.6008 L115.573387,212.5568 C115.579387,212.5718 115.582387,212.5888 115.589387,212.6038 C116.290387,214.3138 121.872387,212.4018 122.849387,211.0978 C125.359387,212.5158 128.120387,213.3238 131.066387,213.4908 L131.616387,213.5218 L131.989387,213.1128 C133.960387,210.9368 135.357387,208.4348 136.152387,205.6758 C137.716387,205.9888 142.858387,203.6808 142.546387,201.9548 C142.524387,201.8318 142.494387,201.7118 142.447387,201.5978 L142.447387,201.5968 C142.007387,200.0668 141.473387,198.5218 140.839387,196.9758" id="Fill-183" fill="#FEFEFE"></path>
                <path d="M293.025087,274.9695 C291.645087,273.0135 282.192087,273.6835 282.192087,273.6835 C282.192087,273.6835 281.046087,272.0095 278.916087,269.7215 C276.786087,267.4335 268.059087,268.6945 264.557087,268.4925 C261.055087,268.2915 262.715087,264.5355 250.979087,253.5145 C239.243087,242.4915 217.816087,258.0685 217.816087,258.0685 C217.816087,258.0685 198.495087,276.1905 207.119087,289.7865 C215.741087,303.3815 219.741087,302.4575 219.282087,305.9345 C218.737087,310.0615 216.694087,314.4725 217.488087,318.7545 C217.675087,319.7685 218.014087,320.7345 218.571087,321.6075 C219.103087,322.4405 220.784087,323.3715 221.029087,324.2035 C221.325087,325.2105 220.189087,327.5425 219.990087,328.6025 C219.702087,330.1405 219.498087,331.7315 219.741087,333.2905 C220.127087,335.7685 222.278087,338.0095 223.664087,340.0675 C225.593087,342.9315 227.569087,345.7665 229.669087,348.5085 C231.625087,351.0645 233.537087,353.4925 236.883087,353.6855 C239.363087,353.8275 241.866087,353.7985 244.350087,353.8205 C244.350087,353.8205 245.928087,359.1865 250.722087,359.5095 C255.517087,359.8335 260.205087,357.1475 263.789087,360.6165 C267.373087,364.0855 270.338087,375.4505 281.313087,376.6205 C292.287087,377.7895 303.178087,375.6925 309.785087,369.2755 C317.327087,363.9905 321.432087,353.6865 322.343087,342.6885 C323.254087,331.6905 312.648087,326.6435 309.913087,322.4715 C307.178087,318.3005 310.696087,314.1995 311.279087,309.4305 C311.860087,304.6655 306.897087,302.1085 306.886087,302.1035 C306.507087,301.9075 308.433087,293.5965 308.244087,292.5725 C308.037087,291.4465 307.382087,290.4585 306.706087,289.5355 C302.765087,284.1565 296.814087,280.3435 293.025087,274.9695" id="Fill-185" fill="#FF9A00"></path>
                <path d="M287.259387,312.3201 C280.603387,306.3011 274.016387,299.2891 268.265387,292.2791 C265.263387,288.6211 262.482387,284.7641 260.166387,280.6331 C257.979387,276.7281 256.831387,272.2421 254.251387,268.5901 C249.821387,262.3171 243.904387,255.7131 235.553387,257.4841 C230.704387,258.5131 226.841387,261.4051 223.024387,264.3681 C219.913387,266.7811 207.967387,277.0361 214.855387,287.3811 C218.125387,292.2921 221.602387,296.5181 226.500387,299.9101 C235.784387,306.3401 242.588387,315.1511 249.310387,324.0991 C254.908387,331.5511 260.167387,339.2591 265.063387,347.1911 C270.564387,356.1021 276.183387,366.8441 287.034387,369.9351 C289.733387,370.7041 292.672387,370.8181 295.321387,369.8911 C298.938387,368.6261 301.236387,365.6451 302.574387,362.1741 C313.173387,359.7871 316.911387,346.5311 311.717387,337.7191 C307.771387,331.0251 301.076387,325.3971 295.534387,320.0661 C292.813387,317.4471 290.062387,314.8531 287.259387,312.3201" id="Fill-187" fill="#FEFEFE"></path>
            </g>
        </g>
    </g>
</svg>