<svg xmlns="http://www.w3.org/2000/svg" id="a" data-name="Calque 3" width="424.163" height="449.983" viewBox="0 0 424.163 449.983"><metadata><rdf:RDF xmlns:rdf="http://www.w3.org/1999/02/22-rdf-syntax-ns#" xmlns:dc="http://purl.org/dc/elements/1.1/"><rdf:Description><dc:creator>RealFaviconGenerator</dc:creator><dc:source>https://realfavicongenerator.net</dc:source></rdf:Description></rdf:RDF></metadata><g id="b" data-name="Calque 1">
    <g>
      <rect y="0" width="424.163" height="449.983" fill="none"></rect>
      <path d="M296.28,63.672c-17.835,0-52.041,14.833-70.772,59.844-.058.139,0,.301.134.371,9.128,4.787,15.36,14.343,15.332,25.371-.038,14.989-12.055,27.667-27.023,28.457-16.483.87-30.12-12.238-30.12-28.531,0-11.086,6.329-20.672,15.557-25.408.136-.07.195-.232.136-.373-18.525-44.091-53.264-59.731-70.999-59.731-23.984,0-66.021,27.863-66.021,115.938,0,115.214,73.476,196.467,149.899,209.949,77.95-13.482,149.898-94.735,149.898-209.949,0-88.075-42.036-115.938-66.021-115.938ZM212.402,363.442c-22.223,0-45.373-16.079-45.373-50.673,0-46.115,35.763-64.186,44.855-113.605.054-.293.286-.439.518-.439.232,0,.464.146.518.439,9.092,49.419,44.855,67.49,44.855,113.605,0,34.594-23.15,50.673-45.373,50.673Z" fill="#e30033"></path>
    </g>
  </g></svg>