<?xml version="1.0" encoding="UTF-8"?>
<svg width="115px" height="114px" viewBox="0 0 115 114" version="1.1" xmlns="http://www.w3.org/2000/svg" xmlns:xlink="http://www.w3.org/1999/xlink">
    <title>cup2</title>
    <g id="Page-1" stroke="none" stroke-width="1" fill="none" fill-rule="evenodd">
        <g id="VISION-" transform="translate(-1342.000000, -817.000000)">
            <g id="cup2" transform="translate(1342.460456, 817.081480)">
                <g id="Group-12" transform="translate(57.019006, 56.500000) rotate(-69.000000) translate(-57.019006, -56.500000) translate(13.536890, 12.115597)">
                    <path d="M68.3994616,15.1076369 C54.1558052,3.69432217 38.7433586,-0.74476557 33.9746946,5.19188741 C32.3401199,7.22553259 32.1686974,10.2137459 33.2197428,13.7207463 C30.9444979,16.7729433 27.4900735,21.521574 25.3066003,25.0475966 C21.9924308,30.4032081 4.15755829,56.39098 14.6299184,70.8945362 C9.82316051,75.9406047 0.63560386,85.3168158 1.8615349,87.8848116 C2.11087681,88.4070572 2.68574843,88.7287052 3.26235159,88.7650203 C4.32032315,88.8307333 5.37829471,88.0266134 6.20597132,87.4594062 C6.73062825,87.0997139 13.5355845,79.160543 17.7189876,74.2545469 C32.8924815,84.5023201 56.9228078,65.67208 62.0776054,61.9195205 C62.0776054,61.9195205 71.117981,54.0149353 76.033826,48.9619496 C80.3263162,49.5429911 83.7218681,48.797667 85.5486439,46.5219212 C90.3190394,40.5852683 82.6413865,26.5209517 68.3994616,15.1076369" id="Fill-22" fill="#C5E2E0"></path>
                    <path d="M66.6493931,12.5491522 C52.4057367,1.13583743 36.9950216,-3.3032503 32.2246261,2.63340268 C30.5900514,4.66704786 30.4186288,7.65526118 31.4696742,11.1622615 C29.1944293,14.2144586 25.740005,18.9630893 23.5565318,22.4891118 C20.2423623,27.8447233 2.40748978,53.8324952 12.8798499,68.3360515 C8.073092,73.38212 -1.11446465,82.758331 0.111466394,85.3263269 C0.360808301,85.8485725 0.935679919,86.1702204 1.51228308,86.2065355 C2.57025464,86.2722486 3.6282262,85.4681287 4.45590281,84.9009215 C4.98055974,84.5412292 11.7855159,76.6020582 15.968919,71.6960622 C31.142413,81.9438354 55.1727393,63.1135953 60.3275369,59.3610357 C60.3275369,59.3610357 69.3679125,51.4564506 74.2837575,46.4034649 C78.5762477,46.9862356 81.9717996,46.2391823 83.8003069,43.9634365 C88.5689709,38.0267835 80.891318,23.962467 66.6493931,12.5491522" id="Fill-24" fill="#FFFFFF"></path>
                    <line x1="75.0194893" y1="46.6410693" x2="50.9735791" y2="31.2209893" id="Fill-26" fill="#4B64A3"></line>
                    <path d="M79.9606147,39.6393466 C76.9269548,43.4161162 64.9135233,38.8213923 53.1286551,29.377739 C41.3420554,19.9323564 34.2496633,9.21594551 37.2850548,5.4391759 C40.3169831,1.66413557 52.3304147,6.25713012 64.1170144,15.7007835 C75.900151,25.1461661 82.9942746,35.862577 79.9606147,39.6393466" id="Fill-28" fill="#E7364B"></path>
                    <path d="M40.2804476,73.4694492 C40.2579375,73.462532 40.2388906,73.4556148 40.2163805,73.4469684 C32.4590768,70.2996604 26.1649252,67.2353583 20.6447724,62.5005619 C17.1003079,59.4587406 13.4380987,54.895144 11.086666,50.5892116 C10.8546395,50.1638062 11.0122097,49.6346435 11.4364373,49.4029186 C11.8606648,49.1711937 12.3939795,49.3285591 12.6225429,49.7522352 C14.8804724,53.8852386 18.390306,58.2620719 21.7841264,61.1741964 C27.1241989,65.7550859 33.2780957,68.7450286 40.8743661,71.8266236 C41.3228353,72.008199 41.5392779,72.5183396 41.3557345,72.9644965 C41.1825804,73.3916311 40.7116013,73.6077924 40.2804476,73.4694492" id="Fill-30" fill="#E7364B"></path>
                    <path d="M44.20689,71.4446234 C44.1809169,71.4377062 44.1566753,71.4273305 44.1307022,71.4169547 C35.7725537,67.8874736 29.0160806,64.3787439 23.2102236,58.7153188 C19.4908735,55.0872681 15.7282348,49.5466226 13.392386,44.2567241 C13.1967219,43.8140259 13.3975806,43.2986974 13.8391236,43.1032876 C14.2841296,42.9096071 14.8001289,43.1102048 14.9940615,43.5511738 C17.2467963,48.649121 20.8639855,53.9822517 24.4326915,57.465042 C30.0411529,62.9347867 36.6365926,66.3553225 44.8129293,69.8069856 C45.2579354,69.993749 45.4674518,70.5073481 45.2787139,70.9517757 C45.1020967,71.3719932 44.6328491,71.5812373 44.20689,71.4446234" id="Fill-32" fill="#E7364B"></path>
                    <path d="M33.9665564,75.7408717 C33.9423148,75.7339546 33.9215363,75.7253081 33.8972948,75.7149324 C27.807465,73.2074617 22.8725731,70.7432233 18.5714252,66.8678841 C15.8078857,64.3759771 12.9750846,60.6113125 11.1794766,57.043787 C10.9613024,56.6114644 11.1344565,56.0874895 11.5673418,55.869599 C11.9967639,55.6534377 12.524884,55.8263667 12.7430581,56.2586893 C14.448626,59.6446393 17.1307831,63.2121648 19.7436785,65.5691873 C23.8578199,69.2767853 28.6455308,71.6614764 34.5656696,74.0997754 C35.0124072,74.2830802 35.2253867,74.79495 35.0401118,75.2411069 C34.8652262,75.664783 34.3959786,75.8774857 33.9665564,75.7408717" id="Fill-34" fill="#E7364B"></path>
                    <path d="M13.8069169,76.6324937 C12.9636565,76.3644538 12.0909598,75.9840099 11.3186925,75.1816193 C10.8130825,74.6576444 10.3074725,73.8345023 9.97155357,72.9785037 C9.79666793,72.5288883 10.0183052,72.0222063 10.4667743,71.8458187 C10.916975,71.6694311 11.4243165,71.8907802 11.6026652,72.3403957 C11.8520071,72.9733158 12.2346777,73.6131532 12.5775228,73.9693869 C13.1108374,74.5193012 13.7515076,74.7959876 14.5358957,75.0277125 C14.9826333,75.1695143 15.2631429,75.6554448 15.1228881,76.1171653 C14.9843648,76.5788857 14.4943387,76.8417378 14.0320173,76.7033946 C13.957561,76.6809138 13.8831047,76.6567038 13.8069169,76.6324937" id="Fill-36" fill="#E7364B"></path>
                    <path d="M11.3211166,79.7002544 C10.4813192,79.4322144 9.61035411,79.0517706 8.83635528,78.2511093 C8.33247684,77.7271344 7.83032995,76.9039923 7.49441099,76.049723 C7.31606226,75.6001075 7.53769952,75.0916962 7.98790018,74.9153086 C8.43810085,74.7371918 8.9471739,74.9602702 9.12205955,75.4098856 C9.373133,76.0428058 9.75580356,76.6826431 10.0986487,77.0371476 C10.6319633,77.5905205 11.2674389,77.8602897 12.0570216,78.0972025 C12.0622162,78.0989317 12.0674108,78.0989317 12.0726054,78.100661 C12.5245376,78.2459214 12.7808057,78.7283933 12.644014,79.1849259 C12.5054907,79.6483757 12.0171961,79.9112278 11.5548747,79.7728846 C11.4769553,79.7486745 11.399036,79.7244645 11.3211166,79.7002544" id="Fill-38" fill="#E7364B"></path>
                    <path d="M8.15239658,82.5482223 C7.31086764,82.2801823 6.44163405,81.8997385 5.66763522,81.1008065 C5.1602937,80.573373 4.6581468,79.7502309 4.32395938,78.8959616 C4.1473422,78.4463461 4.36897945,77.9396641 4.81918012,77.7632765 C5.26938078,77.5868889 5.77845384,77.8082381 5.95333948,78.2595828 C6.20094985,78.8890444 6.58535196,79.5288817 6.92992862,79.8868448 C7.46151171,80.4367591 8.09698726,80.704799 8.88830151,80.9451704 C8.89349613,80.9468996 8.89695922,80.9486289 8.89695922,80.9486289 C9.35581759,81.0938893 9.61208566,81.5763612 9.47529392,82.0328938 C9.33677063,82.4963436 8.84674453,82.7591957 8.38442307,82.6208525 C8.30823527,82.5966424 8.23031592,82.5741616 8.15239658,82.5482223" id="Fill-40" fill="#E7364B"></path>
                </g>
                <g id="Group-6-Copy-3" transform="translate(8.470575, 13.307848)" stroke="#FF9A00" stroke-linecap="square" stroke-width="2.4">
                    <line x1="0.738086775" y1="0.121198626" x2="90.3998515" y2="96.100146" id="Line"></line>
                    <line x1="0.738086775" y1="0.121198626" x2="90.3998515" y2="96.100146" id="Line-Copy" transform="translate(45.568969, 48.110672) scale(-1, 1) translate(-45.568969, -48.110672) "></line>
                </g>
            </g>
        </g>
    </g>
</svg>