<?xml version="1.0" encoding="UTF-8"?>
<svg width="451px" height="208px" viewBox="0 0 451 208" version="1.1" xmlns="http://www.w3.org/2000/svg" xmlns:xlink="http://www.w3.org/1999/xlink">
    <title>tabou</title>
    <defs>
        <polygon id="path-1" points="0 0 97 0 97 104 0 104"></polygon>
        <polygon id="path-3" points="0 0 81 0 81 103 0 103"></polygon>
        <polygon id="path-5" points="0 0 22 0 22 56 0 56"></polygon>
        <polygon id="path-7" points="0 0 22 0 22 56 0 56"></polygon>
        <path d="M26.5,0 C41.135256,0 53,11.1933978 53,25.0005429 C53,38.8076881 41.135256,50 26.5,50 C11.864744,50 0,38.8076881 0,25.0005429" id="path-9"></path>
    </defs>
    <g id="Page-1" stroke="none" stroke-width="1" fill="none" fill-rule="evenodd">
        <g id="VISION-" transform="translate(-985.000000, -1169.000000)">
            <g id="tabou" transform="translate(985.000000, 1169.040000)">
                <path d="M380.99686,2.42701043 C343.005052,2.42701043 312.206606,24.1268129 312.206606,50.8955008 C312.206606,62.5473625 318.044503,73.2384339 327.769111,81.5978311 L304,104 L345.715238,92.5089209 C356.031838,96.8598172 368.099061,99.3633401 380.99686,99.3633401 C418.988669,99.3633401 449.787114,77.6635377 449.787114,50.8955008 C449.787114,24.1268129 418.988669,2.42701043 380.99686,2.42701043 Z" id="Stroke-1" stroke="#FFFFFF" stroke-dasharray="6"></path>
                <g id="Group-3" transform="translate(332.912966, 0.000000)">
                    <g id="Group-13" transform="translate(48.163008, 49.679432) rotate(119.000000) translate(-48.163008, -49.679432) translate(10.231341, 15.637928)">
                        <path d="M50.7100917,8.24214754 C49.6964996,7.30146561 44.532935,8.91940022 44.532935,8.91940022 C44.532935,8.91940022 43.6854903,8.10995395 42.2133685,7.07731126 C40.7403185,6.04371064 36.0547757,7.90495809 34.0851399,8.24693716 C32.115504,8.58891624 32.561039,6.22092669 24.6509369,1.43705136 C16.7408347,-3.34682397 6.81468684,8.37625698 6.81468684,8.37625698 C6.81468684,8.37625698 -1.62077528,21.2833327 4.88774809,27.947614 C11.3953433,34.6118952 13.4986396,33.561052 13.683351,35.6129264 C13.9042621,38.0489286 13.326923,40.8431946 14.3089563,43.1929836 C14.541934,43.7485798 14.8519521,44.2581957 15.2714975,44.6854301 C15.672479,45.0944639 16.7241272,45.4077052 16.9654586,45.8531401 C17.2569127,46.3914937 16.9218333,47.8762768 16.9450383,48.509465 C16.9784534,49.4281146 17.0675604,50.3659228 17.398927,51.2280549 C17.9270716,52.5969291 19.4047626,53.6008341 20.4350622,54.5989915 C21.8691279,55.9879821 23.3236139,57.3549405 24.8365764,58.6519704 C26.246509,59.8608712 27.6146726,61.0027173 29.4970579,60.676065 C30.8912111,60.4337101 32.2788668,60.0898152 33.6600253,59.7784897 C33.6600253,59.7784897 35.2156849,62.6465159 37.918597,62.2068285 C40.6215092,61.7661832 42.8835274,59.6146846 45.3135494,61.1349109 C47.7417149,62.6551372 50.8261164,68.7801069 57.0673188,68.0175989 C63.307593,67.2541331 69.0902657,64.6303776 71.9463305,60.0907731 C75.4651285,56.078985 76.4415927,49.6379001 75.5560919,43.2169317 C74.669663,36.7959633 68.1425756,35.2891479 66.0958994,33.255474 C64.0501513,31.2227581 65.4851452,28.4141232 65.2039012,25.6045305 C64.9245137,22.7987694 61.8456814,21.9807018 61.839184,21.9797439 C61.6034217,21.9174788 61.6219857,16.9037015 61.3871516,16.3413998 C61.1300408,15.7235385 60.6408806,15.2426603 60.1489357,14.802015 C57.2808043,12.2338192 53.4937571,10.826628 50.7100917,8.24214754" id="Fill-1" fill="#C5E2E0"></path>
                        <path d="M48.288145,7.95208798 C47.274553,7.01140605 42.1109883,8.62934065 42.1109883,8.62934065 C42.1109883,8.62934065 41.2635436,7.81989439 39.7904936,6.7872517 C38.3183718,5.75460901 33.6328291,7.61489853 31.6631932,7.9568776 C29.6935574,8.29885668 30.1390923,5.93086713 22.2289902,1.1469918 C14.3179599,-3.6359256 4.39181198,8.08619742 4.39181198,8.08619742 C4.39181198,8.08619742 -4.04272195,20.9932731 2.46580142,27.6585123 C8.9733966,34.3227936 11.0766929,33.2709924 11.2614043,35.3228669 C11.4813872,37.7588691 10.9049763,40.553135 11.8870097,42.902924 C12.1199873,43.4594782 12.4300054,43.9690941 12.8495508,44.3953705 C13.2505323,44.8044043 14.3021805,45.1186036 14.5425837,45.5630806 C14.8340379,46.1014342 14.4989584,47.5862173 14.5221634,48.2194054 C14.5565067,49.1380551 14.6446855,50.0758632 14.9769803,50.9379954 C15.5051249,52.3078275 16.9818877,53.3107745 18.0131155,54.3089319 C19.446253,55.6979226 20.9016673,57.0648809 22.4146298,58.3619108 C23.8245623,59.5708116 25.1927259,60.7136156 27.0751112,60.3860054 C28.4692644,60.1446084 29.855992,59.8007135 31.2380786,59.4884301 C31.2380786,59.4884301 32.79281,62.3574142 35.4957222,61.9167689 C38.1986343,61.4761236 40.4615807,59.3255829 42.8906745,60.8448513 C45.3197683,62.3650776 48.4041698,68.4900473 54.6453721,67.7275394 C60.8856463,66.9650314 66.6673908,64.3403181 69.5234556,59.8016715 C73.0431819,55.7889254 74.0187178,49.3478406 73.1332171,42.9268721 C72.2467881,36.5068616 65.7197008,34.9990884 63.6739527,32.9663724 C61.6282046,30.9326985 63.0622703,28.1240637 62.7819546,25.3144709 C62.5016388,22.5087098 59.4228065,21.6916002 59.4163091,21.6896843 C59.1814751,21.6274192 59.1991108,16.613642 58.965205,16.0513403 C58.707166,15.4334789 58.2189339,14.9535587 57.726989,14.5129134 C54.8579295,11.9437597 51.0718104,10.5365685 48.288145,7.95208798" id="Fill-3" fill="#FFFFFF"></path>
                        <path d="M49.8118746,30.1064886 C45.3546685,27.5267977 40.81114,24.3685204 36.7307822,21.1029555 C34.6005681,19.3988077 32.5696712,17.5519291 30.7615418,15.4866437 C29.0527296,13.5353514 27.8479287,11.114676 25.9525487,9.35880022 C22.7001434,6.34325366 18.5789449,3.33058087 14.1662923,5.43705701 C11.6044662,6.65841084 9.82603915,8.82044661 8.08102718,11.0160097 C6.65995626,12.8044549 1.32374678,20.2417813 6.45668093,25.2699274 C8.8932003,27.6561175 11.3584938,29.6246525 14.5078691,30.9283879 C20.4761814,33.4007912 25.3677841,37.5610576 30.2315408,41.810411 C34.2840527,45.3499424 38.1778427,49.0801006 41.8999161,52.9855591 C46.0805192,57.3738116 50.5600021,62.7956647 56.9766339,63.1500968 C58.572206,63.2382259 60.2179008,62.919237 61.5712133,62.042736 C63.4192552,60.8453303 64.3186789,58.8375204 64.6221996,56.6745267 C70.2053097,53.9224094 70.6025784,45.8384839 66.6048303,41.467474 C63.5668387,38.1473075 59.1384067,35.7956026 55.386631,33.4649721 C53.5441582,32.3192944 51.6886907,31.1927751 49.8118746,30.1064886" id="Fill-5" fill="#E7364B"></path>
                    </g>
                </g>
                <g id="Group-84" transform="translate(0.000000, 1.960000)">
                    <path d="M38.92195,175.062293 C34.9935576,176.059015 32.3929436,176.34458 32.0072011,175.509936 C31.8606876,175.194601 33.9725419,170.958533 36.2744059,164.473225 C37.2862645,168.202112 38.188238,171.778844 38.92195,175.062293 M194.346413,47.9603965 C194.421959,46.8401869 194.648597,45.8600035 195,45 C194.769928,45.9713629 194.550158,46.9592643 194.346413,47.9603965" id="Fill-1" fill="#262D46"></path>
                    <path d="M222.066113,18.8237493 C225.353113,11.6787063 236.52274,10.2983005 243.731052,11.2814513 C251.635394,12.3600321 257.061915,17.9870724 260.087189,24.9334879 C263.197038,32.0763116 267.178924,40.3853785 266.993774,48.3193833 C266.412034,73.2576805 246.114012,81.7631557 249.627307,89.1079358 C251.974837,94.0125934 256.008155,94.4841951 258.53055,92.0751427 C259.896323,90.7713027 260.61864,89.2066948 260.361486,86.3715364 C262.734161,89.0480147 266.191453,94.6217918 265.772006,99.1669224 C265.197124,105.380968 261.586682,110.719499 257.402501,112.237502 C248.626121,115.4222 238.475967,116.325456 230.461906,112.400621 C220.436329,107.491524 213.669178,96.0554609 211.728523,85.7601187 C208.810682,70.2882544 215.324107,54.6432845 219.494573,39.8349915 C221.394084,33.0916422 222.999868,25.4749976 222.632995,18.4287136 C223.284452,18.2766914 221.416942,18.9502495 222.066113,18.8237493" id="Fill-3" fill="#FFFFFF"></path>
                    <path d="M71.4931424,50.4082967 C60.4753928,32.3995966 28.9316166,35.9019967 31.1071701,59.5673112 C32.1337048,70.7441692 40.0765165,78.5705199 52.1534632,75.2166864 C63.1128869,72.1732904 69.3572504,61.4964584 70.4432774,51.6201116 C70.7442387,48.8893705 72.9827841,52.8441223 71.4931424,50.4082967" id="Fill-5" fill="#FF9A00"></path>
                    <path d="M92.4621147,101.995432 C92.4621147,101.995432 92.1947566,101.967364 91.670412,101.933683 C88.2293287,101.711386 85.5373091,98.9573676 85.5373091,95.597084 L85.5373091,79 L60.8228176,79 L60.8228176,95.6026976 C60.8228176,98.9483859 58.1549986,101.734963 54.7277442,101.937051 C54.1895707,101.96961 53.8991645,101.995432 53.8991645,101.995432 L44,135.750957 L78.6482282,152 L104,135.750957 L92.4621147,101.995432 Z" id="Fill-7" fill="#844F38"></path>
                    <path d="M61.9369774,58.137471 C62.5296022,63.6418773 58.876231,68.495596 53.7791982,68.9801046 C48.6810169,69.4656923 43.6528939,60.9528005 43.0591206,55.4483943 C42.4676442,49.9450672 46.3851699,48.7203071 51.632656,49.0494276 C56.7549558,49.3699155 61.3443526,52.6330648 61.9369774,58.137471" id="Fill-9" fill="#844F38"></path>
                    <path d="M102.050639,55.0187412 C102.542838,59.8321367 106.375425,63.3897227 110.611615,62.9657112 C114.847805,62.5416997 117.432395,54.4205822 116.940196,49.6071867 C116.447998,44.7948729 113.040889,44.3903313 108.828762,45.5358113 C104.716168,46.6542497 101.55844,50.2053457 102.050639,55.0187412" id="Fill-11" fill="#844F38"></path>
                    <path d="M107.336005,25.3409263 C102.732126,15.0529349 77.4700794,17.1825614 77.4700794,17.1825614 C77.4700794,17.1825614 52.2832822,20.0447348 49.8798705,31.0262485 C47.4764588,42.0066473 50.1033376,63.9741349 56.458469,74.0893032 C62.8136004,84.2033566 73.5343217,92.0328001 85.095325,90.8888228 C96.6574684,89.7448454 105.556249,79.9742082 109.710913,68.8198714 C113.865577,57.6655345 111.939883,35.6278027 107.336005,25.3409263" id="Fill-13" fill="#844F38"></path>
                    <path d="M64.1427098,46.9828875 C63.8961987,47.026856 63.6332535,46.9869776 63.4113934,46.8530272 C62.9782381,46.592284 62.8702428,46.0779552 63.1684039,45.7006444 C63.2118368,45.6474732 67.5692147,40.2884331 75.3507496,42.5615005 C75.8484674,42.7066987 76.1172819,43.177059 75.9505934,43.6106085 C75.7850788,44.0451806 75.2462759,44.2793382 74.7473843,44.132095 C68.2993572,42.2496312 64.764857,46.5984191 64.7331627,46.6423876 C64.5887776,46.8254191 64.3739607,46.9409641 64.1427098,46.9828875" id="Fill-15" fill="#242323"></path>
                    <path d="M104.195593,43.998611 C104.418769,43.9858189 104.636253,43.8745273 104.793387,43.6698531 C105.099686,43.2707385 105.060972,42.6707873 104.706849,42.3266788 C104.65561,42.2780687 99.5157143,37.4106609 93.3851876,41.9007007 C92.9934898,42.1872445 92.8819014,42.7782412 93.1369605,43.2182907 C93.3920196,43.6608986 93.9169402,43.7862615 94.3097767,43.4958801 C99.3904621,39.7772061 103.559084,43.7274177 103.597798,43.7683526 C103.769735,43.9359295 103.98608,44.0114031 104.195593,43.998611" id="Fill-17" fill="#242323"></path>
                    <path d="M76.9793593,52.7613339 C77.1552889,54.4125577 76.1871082,55.8585934 74.8182619,55.9903458 C73.4482806,56.1220981 72.1963423,54.8898899 72.0204127,53.2386661 C71.845618,51.5874423 72.8126637,50.1414066 74.182645,50.0096542 C75.5514914,49.8779019 76.8034296,51.1101101 76.9793593,52.7613339" id="Fill-19" fill="#242323"></path>
                    <path d="M101.979359,50.760837 C102.155289,52.4128435 101.187108,53.8575393 99.8182622,53.9903476 C98.449416,54.1220763 97.1963429,52.8900898 97.0204132,51.2380833 C96.8456186,49.5871567 97.8126641,48.1413811 99.1815103,48.0096525 C100.551492,47.8779239 101.80343,49.1099104 101.979359,50.760837" id="Fill-21" fill="#242323"></path>
                    <path d="M174.21051,135.787062 C162.842755,145.739934 131.882202,166.482506 130.130102,165.234411 C129.121317,164.515244 125.121196,112.955168 113.466508,108.521406 C101.659317,104.029363 98.4228447,129.753319 98.0195566,140.005294 C97.4603756,154.283063 108.941096,204.196972 126.237298,197.36049 C135.59539,193.66019 186.557678,155.091301 189,152.853526 C187.573241,151.76268 178.24791,139.915123 174.21051,135.787062" id="Fill-23" fill="#EFEFF2"></path>
                    <path d="M174.21051,135.787062 C162.842755,145.739934 131.882202,166.482506 130.130102,165.234411 C129.121317,164.515244 125.121196,112.955168 113.466508,108.521406 C101.659317,104.029363 98.4228447,129.753319 98.0195566,140.005294 C97.4603756,154.283063 108.941096,204.196972 126.237298,197.36049 C135.59539,193.66019 186.557678,155.091301 189,152.853526 C187.573241,151.76268 178.24791,139.915123 174.21051,135.787062" id="Fill-25" fill="#FFE5B4"></path>
                    <g id="Group-31" transform="translate(22.000000, 102.000000)">
                        <mask id="mask-2" fill="white">
                            <use xlink:href="#path-1"></use>
                        </mask>
                        <g id="Clip-30"></g>
                        <path d="M87.4778644,84.2438321 C87.7351379,79.5876153 89.2127526,72.5342477 91.2686634,64.6026612 C90.6823987,61.1229262 90.7768841,57.5448749 91.8037011,53.7105383 C94.1840496,44.8399757 96.7328781,36.6377432 96.808011,27.3474031 C96.8808672,18.2813126 98.6043716,10.9716597 90.1541913,5.69350927 C88.154061,4.44522338 73.1274706,0.1391894 70.8404691,0 C69.1738836,3.76032316 60.1385769,39.1453618 60.3332395,38.8007023 C60.3332395,38.8007023 34.4135094,3.76032316 32.7457856,0 C27.6105621,0.313728489 12.6112927,4.62970457 5.65011089,6.32428029 C5.65011089,6.32428029 -2.60540682,16.4552802 0.841601956,26.7862268 C6.90005001,44.9449201 15.4526844,72.3586039 16.1083902,84.2438321 C16.6422895,93.9031346 16.3280971,102.434561 15.8909599,108.858262 L87.6952947,108.858262 C87.2581575,102.434561 86.9439651,93.9031346 87.4778644,84.2438321" id="Fill-29" fill="#FFE5B4" mask="url(#mask-2)"></path>
                    </g>
                    <path d="M241.462423,103.28585 C241.462423,103.28585 241.195552,103.258698 240.671012,103.226117 C237.229294,103.011078 234.537577,100.34264 234.537577,97.0844753 L234.537577,81 L209.822086,81 L209.822086,97.0909917 C209.822086,100.332866 207.154525,103.033885 203.727761,103.229375 C203.189417,103.26087 202.89839,103.28585 202.89839,103.28585 L193,136 L253,136 L241.462423,103.28585 Z" id="Fill-32" fill="#F7AD85"></path>
                    <g id="Group-36" transform="translate(179.000000, 103.000000)">
                        <mask id="mask-4" fill="white">
                            <use xlink:href="#path-3"></use>
                        </mask>
                        <g id="Clip-35"></g>
                        <path d="M81,55.955967 L81,4.56358123 C74.0780291,2.53262771 65.6844943,0.200669675 62.3697477,0 C60.7043456,3.72231221 52.8934721,6.55263669 43.4309602,6.60997088 C33.9684482,6.55263669 26.1564278,3.72231221 24.4910257,0 C22.2739304,0.134514837 16.8086129,1.52486901 11.199924,3.08943093 C7.85650316,4.02111156 5.11409516,6.30014572 3.5783008,9.30357536 C2.36480533,11.6752263 1.36235255,14.1769817 0.87488981,17.0668456 C-0.432657294,24.8246029 -0.151649364,32.367357 0.909298944,40.1427556 C1.83949254,46.9655245 2.52538129,53.5953419 2.69283907,60.2295695 C5.3710167,69.9157403 7.39083288,78.7441035 7.69707418,84.2393653 C8.23500364,93.8979716 7.91843961,102.430843 7.47685572,108.852273 L79.3839177,108.852273 C78.9434807,102.430843 78.6257697,93.8979716 79.1648462,84.2393653 C79.5146724,77.9436299 81,55.955967 81,55.955967" id="Fill-34" fill="#FF9A00" mask="url(#mask-4)"></path>
                    </g>
                    <path d="M83,164.44371 C83,164.44371 87.2193211,154.463127 96.463824,157.615643 C105.708327,160.767059 111.53708,163.218159 120.379797,162.868002 C123.529979,162.743575 131.760288,160.590879 132.866057,162.342766 C133.979839,164.107867 127.935885,169.784158 122.591335,170.935933 C118.358278,171.847664 111.411164,172.169192 100.657962,171.271776 C91.2749519,170.489978 88.2255022,176 88.2255022,176 L83,164.44371 Z" id="Fill-37" fill="#F7AD85"></path>
                    <path d="M27.0142463,109 C27.0142463,109 17.5736002,117.75421 10.8560635,135.591297 C6.85706751,146.20869 0.0184530346,171.3677 0,179.351355 C-0.0158142837,186.221497 1.04190361,192.782758 6.86506322,196.756448 C20.1687784,205.83273 77.6373555,185.092595 94,175.107256 C94,175.107256 88.6999881,163.767674 86.2795732,156.124778 C73.3882081,161.406544 30.3484564,178.710508 28.6819225,175.107256 C28.3975037,174.490592 36.7907122,158.817874 38.2607802,140.669706 C39.3047911,127.772526 36.1659048,111.111607 27.0142463,109" id="Fill-39" fill="#FFE5B4"></path>
                    <path d="M85.2184102,10.3525108 C82.5233326,17.4910556 84.1877431,24.6787702 91.3290319,31.7078007 C99.1952342,39.4497918 110.489211,38.9949722 110.489211,38.9949722 C113.674606,30.0840835 115.275642,22.7924421 106.207551,11.1470483 C101.938121,5.66462792 88.7562556,0.982332527 85.2184102,10.3525108" id="Fill-43" fill="#FF9A00"></path>
                    <path d="M93.2836759,9.25795829 C83.8238143,-5.35691296 61.7825897,-0.302243963 49.6538845,8.23610728 C36.3119641,17.6270927 32.6757652,43.6220654 48.0833683,52.7182862 C49.8675758,53.7717971 54.8881727,56 54.8881727,56 C54.8881727,56 54.4768744,49.1898434 58.5530936,44.7869319 C63.0256757,39.9538823 69.0446476,38.8163089 74.8924367,36.1557844 C81.2836451,33.2485309 86.0227669,30.2888748 88.9202372,24.0027444 C90.7699308,19.9895773 95.8675025,13.2492909 93.2836759,9.25795829" id="Fill-45" fill="#FF9A00"></path>
                    <path d="M235.022074,63.0532283 C234.67911,68.2676051 238.373196,72.7172066 243.272854,72.9931675 C248.171357,73.270198 252.63567,65.0598274 252.978635,59.8454506 C253.320444,54.6321434 249.52012,53.6160085 244.511914,54.1123102 C239.623804,54.5979157 235.363884,57.8388515 235.022074,63.0532283" id="Fill-47" fill="#F7AD85"></path>
                    <path d="M195.65047,32.1318024 C199.512629,22.2403368 219.634361,22 219.634361,22 C219.634361,22 243.082533,23.8008647 245.738475,34.0965835 C248.395549,44.3923023 246.822371,65.2561953 241.330404,75.0468745 C235.838438,84.8386613 226.212489,92.6269029 215.456208,91.9601621 C204.699927,91.2945288 196.071797,82.3765934 191.786047,71.9800882 C187.499164,61.5835831 191.788312,42.023268 195.65047,32.1318024" id="Fill-49" fill="#F7AD85"></path>
                    <path d="M230.989466,49.9883579 C231.215997,50.025746 231.454926,49.9736293 231.652155,49.8240773 C232.036469,49.5329039 232.114233,48.9868123 231.825716,48.6004695 C231.784016,48.544954 227.576847,43.0545806 220.560015,45.7385869 C220.111461,45.9107983 219.886057,46.416103 220.057364,46.8658922 C220.226417,47.3190802 220.727941,47.5456743 221.17875,47.3723298 C226.990796,45.1494424 230.404542,49.605414 230.434972,49.6507328 C230.574723,49.8388059 230.776459,49.9532359 230.989466,49.9883579" id="Fill-51" fill="#535353"></path>
                    <path d="M193.88808,47.9993467 C193.66368,48.0079519 193.435965,47.9315806 193.261309,47.7680814 C192.921947,47.4496883 192.911998,46.9258455 193.238095,46.5945445 C193.284523,46.5472158 198.031175,41.859522 204.54428,45.2004988 C204.961022,45.4145537 205.121307,45.9168834 204.901329,46.3224044 C204.682457,46.7290011 204.167334,46.8849707 203.749487,46.6687645 C198.352851,43.9021862 194.50269,47.7056936 194.467317,47.7454927 C194.309243,47.9057649 194.099214,47.9907415 193.88808,47.9993467" id="Fill-53" fill="#535353"></path>
                    <path d="M223.006065,55.3801643 C222.920798,56.7598754 223.744608,57.9310105 224.846519,57.9970812 C225.948431,58.0631518 226.90998,56.9995435 226.993935,55.6198324 C227.079202,54.2414168 226.255392,53.0689862 225.153481,53.0029156 C224.052881,52.9368449 223.091332,54.0017487 223.006065,55.3801643" id="Fill-55" fill="#535353"></path>
                    <path d="M196.006065,53.3801643 C195.920798,54.7598754 196.744608,55.9310105 197.846519,55.9970812 C198.948431,56.0631518 199.90998,54.9995435 199.993935,53.6198324 C200.079202,52.2414168 199.255392,51.0689862 198.153481,51.0029156 C197.052881,50.9368449 196.091332,52.0017487 196.006065,53.3801643" id="Fill-57" fill="#535353"></path>
                    <path d="M209.819639,67.4360838 C211.608605,67.7372843 213.198798,67.2143207 213.881592,66.2610705 C213.955711,66.5181392 214.032076,66.7774144 213.986033,67.0388962 C213.741215,68.4444989 211.760213,69.283006 209.562468,68.9122976 C207.3636,68.5426925 205.780146,67.1039908 206.024964,65.6994914 C206.069884,65.4369063 206.230476,65.2184532 206.386575,65 C206.707758,66.1220549 208.030672,67.1348832 209.819639,67.4360838" id="Fill-59" fill="#535353"></path>
                    <path d="M93.7395782,168 C93.7395782,168 96.563874,162.812235 103.390366,165.63158 C110.215747,168.450925 118.143536,166.163331 115.466894,162.499565 C114.837423,161.638128 109.509673,160.869216 104.567155,160.30556 C99.6235277,159.741904 97.4464664,154.583917 90.832019,158.389128 C89.2056066,159.326074 89.8561715,166.1963 93.7395782,168" id="Fill-61" fill="#F7AD85"></path>
                    <path d="M227.739364,13 C227.225327,21.9801388 225.69856,33.9844288 229.498489,42.2271596 C232.903848,49.6134739 240.161746,50.5232774 245.706552,55 C247.120428,45.0600074 252.598376,37.2199036 248.51348,26.4179334 C246.433218,20.9179599 243.692052,17.5490175 238.494687,15.047614 C234.752848,13.2469149 230.615342,15.2500397 227.739364,13" id="Fill-63" fill="#FFFFFF"></path>
                    <path d="M233,20.3612382 C224.990086,14.6394004 217.818525,9.86367596 208.022556,11.2382387 C202.471886,12.0169373 197.638828,12.3253328 192.86614,15.3971722 C181.036938,23.0079323 181.710126,36.8923378 190.947953,47 C191.68379,35.8030409 207.255964,38.5246311 214.217937,37.3373085 C226.393416,35.261146 232.911153,32.4195018 233,20.3612382" id="Fill-65" fill="#FFFFFF"></path>
                    <path d="M176.475865,165.620086 L176.475865,165.620086 C170.379684,164.035786 166.760432,157.953795 168.390859,152.034212 L178.532956,115.229608 C180.164521,109.31113 186.427954,105.795618 192.524135,107.379919 L192.524135,107.379919 C198.620316,108.964219 202.239568,115.046209 200.609141,120.965792 L190.467044,157.769292 C188.836617,163.688875 182.572046,167.204387 176.475865,165.620086" id="Fill-67" fill="#FF9A00"></path>
                    <g id="Group-71" transform="translate(167.000000, 150.000000)">
                        <mask id="mask-6" fill="white">
                            <use xlink:href="#path-5"></use>
                        </mask>
                        <g id="Clip-70"></g>
                        <path d="M11,84.4889786 L11,84.4889786 C4.92552026,84.4889786 0,79.6035393 0,73.5760633 L0,10.9129152 C0,4.88652592 4.92552026,0 11,0 L11,0 C17.0744797,0 22,4.88652592 22,10.9129152 L22,73.5760633 C22,79.6035393 17.0744797,84.4889786 11,84.4889786" id="Fill-69" fill="#FF9A00" mask="url(#mask-6)"></path>
                    </g>
                    <path d="M266.524135,165.620086 L266.524135,165.620086 C272.620316,164.035786 276.239568,157.953795 274.609141,152.034212 L264.467044,115.229608 C262.835479,109.31113 256.572046,105.795618 250.475865,107.379919 L250.475865,107.379919 C244.379684,108.964219 240.760432,115.046209 242.390859,120.965792 L252.532956,157.769292 C254.163383,163.688875 260.427954,167.204387 266.524135,165.620086" id="Fill-72" fill="#FF9A00"></path>
                    <g id="Group-76" transform="translate(254.000000, 150.000000)">
                        <mask id="mask-8" fill="white">
                            <use xlink:href="#path-7"></use>
                        </mask>
                        <g id="Clip-75"></g>
                        <path d="M11,84.4889786 L11,84.4889786 C17.0744797,84.4889786 22,79.6035393 22,73.5760633 L22,10.9129152 C22,4.88652592 17.0744797,0 11,0 L11,0 C4.92552026,0 0,4.88652592 0,10.9129152 L0,73.5760633 C0,79.6035393 4.92552026,84.4889786 11,84.4889786" id="Fill-74" fill="#FF9A00" mask="url(#mask-8)"></path>
                    </g>
                    <g id="Group-79" transform="translate(189.000000, 1.000000)">
                        <mask id="mask-10" fill="white">
                            <use xlink:href="#path-9"></use>
                        </mask>
                        <g id="Clip-78"></g>
                    </g>
                </g>
            </g>
        </g>
    </g>
</svg>